<svg width="18" height="18" viewBox="0 0 18 18" fill="none" xmlns="http://www.w3.org/2000/svg">
<path fill-rule="evenodd" clip-rule="evenodd" d="M11.1637 4.61279C10.7332 4.7707 10.2505 4.61561 9.99258 4.23652L8.99979 2.77747L8.007 4.23652C7.74905 4.61561 7.26633 4.7707 6.83586 4.61279L5.14022 3.99079L5.23454 5.65158C5.26169 6.12979 4.94594 6.56011 4.4816 6.67768L2.80559 7.10206L3.87194 8.35035C4.19149 8.72442 4.19149 9.27533 3.87194 9.6494L2.80559 10.8977L4.4816 11.3221C4.94594 11.4396 5.26169 11.87 5.23454 12.3482L5.14022 14.009L6.83586 13.387C7.26633 13.2291 7.74905 13.3841 8.007 13.7632L8.99979 15.2223L9.99258 13.7632C10.2505 13.3841 10.7332 13.2291 11.1637 13.387L12.8594 14.009L12.765 12.3482C12.7379 11.87 13.0536 11.4396 13.518 11.3221L15.194 10.8977L14.1276 9.6494C13.8081 9.27533 13.8081 8.72442 14.1276 8.35035L15.194 7.10206L13.518 6.67768C13.0536 6.56011 12.7379 6.12979 12.765 5.65158L12.8594 3.99079L11.1637 4.61279ZM13.7634 5.70828L13.9009 3.28761C13.9213 2.9285 13.5672 2.66598 13.2295 2.78985L10.8193 3.67396L9.41317 1.60739C9.21473 1.31576 8.78485 1.31576 8.58641 1.60739L7.18024 3.67396L4.77006 2.78985C4.43237 2.66598 4.07828 2.9285 4.09867 3.28761L4.23614 5.70828L1.77996 6.33019C1.42063 6.42118 1.28176 6.85782 1.52252 7.13966L3.1116 8.99987L1.52252 10.8601C1.28176 11.1419 1.42063 11.5786 1.77996 11.6696L4.23614 12.2915L4.09867 14.7121C4.07828 15.0713 4.43237 15.3338 4.77006 15.2099L7.18024 14.3258L8.58641 16.3924C8.78485 16.684 9.21473 16.684 9.41317 16.3924L10.8193 14.3258L13.2295 15.2099C13.5672 15.3338 13.9213 15.0712 13.9009 14.7121L13.7634 12.2915L16.2196 11.6696C16.5789 11.5786 16.7178 11.1419 16.4771 10.8601L14.888 8.99987L16.4771 7.13966C16.7178 6.85782 16.5789 6.42118 16.2196 6.33019L13.7634 5.70828ZM8.12286 5.67142C8.21782 5.56192 8.35564 5.49902 8.50058 5.49902L9.50059 5.49902C9.64553 5.49902 9.78334 5.56192 9.87831 5.67142C9.97328 5.78092 10.0161 5.92625 9.99556 6.06974L9.49555 9.56974C9.46036 9.81606 9.2494 9.99903 9.00057 9.99903C8.75175 9.99903 8.54079 9.81606 8.5056 9.56974L8.00561 6.06973C7.98511 5.92624 8.02789 5.78092 8.12286 5.67142ZM9 12.5C9.55229 12.5 10 12.0523 10 11.5C10 10.9477 9.55229 10.5 9 10.5C8.44771 10.5 8 10.9477 8 11.5C8 12.0523 8.44771 12.5 9 12.5Z" fill="#00685E"/>
</svg>
