<svg width="18" height="18" viewBox="0 0 18 18" fill="none" xmlns="http://www.w3.org/2000/svg">
<path fill-rule="evenodd" clip-rule="evenodd" d="M9 15.5C12.5899 15.5 15.5 12.5899 15.5 9C15.5 5.41015 12.5899 2.5 9 2.5C5.41015 2.5 2.5 5.41015 2.5 9C2.5 12.5899 5.41015 15.5 9 15.5ZM9 16.5C13.1421 16.5 16.5 13.1421 16.5 9C16.5 4.85786 13.1421 1.5 9 1.5C4.85786 1.5 1.5 4.85786 1.5 9C1.5 13.1421 4.85786 16.5 9 16.5ZM5 9.5V7.25C5 6.55964 5.55964 6 6.25 6H11.75C12.4404 6 13 6.55964 13 7.25V9.5V10.75C13 11.4404 12.4404 12 11.75 12H6.25C5.55964 12 5 11.4404 5 10.75V9.5ZM12 10V10.75C12 10.8881 11.8881 11 11.75 11H6.25C6.11193 11 6 10.8881 6 10.75V10H12ZM12 9H6V7.25C6 7.11193 6.11193 7 6.25 7H11.75C11.8881 7 12 7.11193 12 7.25V9Z" fill="#2B2B2C"/>
</svg>
