<svg width="24" height="24" viewBox="0 0 24 24" fill="none" xmlns="http://www.w3.org/2000/svg">
<path fill-rule="evenodd" clip-rule="evenodd" d="M3.50002 5.49997C2.67159 5.49997 2.00001 6.17154 2.00001 6.99997L2.00001 10.5C2.00001 10.6326 2.05269 10.7598 2.14646 10.8536C2.24023 10.9473 2.36741 11 2.50002 11L2.59999 11C3.09706 11 3.50001 11.4029 3.50001 11.9V12.1C3.50001 12.597 3.09707 13 2.60001 13H2.50001C2.22387 13 2.00001 13.2238 2.00001 13.5L2 17C2 17.8284 2.67157 18.5 3.5 18.5L20.5 18.5C21.3284 18.5 22 17.8284 22 17L22 13.5C22 13.3674 21.9473 13.2402 21.8536 13.1464C21.7598 13.0527 21.6326 13 21.5 13L21.4 13C20.903 13 20.5 12.5971 20.5 12.1V11.9C20.5 11.4029 20.903 11 21.4 11H21.5C21.7762 11 22 10.7761 22 10.5V7C22 6.17157 21.3284 5.5 20.5 5.5L17.0031 5.49999L17 5.49998L16.997 5.49999L3.50002 5.49997ZM16.5 7.49998V6.49999L3.50001 6.49997C3.22387 6.49997 3.00001 6.72383 3.00001 6.99997L3.00001 10.0422C3.85728 10.2259 4.50001 10.9879 4.50001 11.9V12.1C4.50001 13.0121 3.85728 13.7741 3.00001 13.9578L3 17C3 17.2761 3.22386 17.5 3.5 17.5L16.5 17.5V16.5C16.5 16.2238 16.7239 16 17 16C17.2762 16 17.5 16.2238 17.5 16.5V17.5L20.5 17.5C20.7761 17.5 21 17.2762 21 17L21 13.9578C20.1427 13.7741 19.5 13.0121 19.5 12.1V11.9C19.5 10.9879 20.1427 10.2259 21 10.0422V7C21 6.72386 20.7762 6.5 20.5 6.5L17.5 6.49999V7.49998C17.5 7.77613 17.2762 7.99998 17 7.99998C16.7239 7.99998 16.5 7.77613 16.5 7.49998ZM17 12.5C17.2762 12.5 17.5 12.7238 17.5 13V14.5C17.5 14.7761 17.2762 15 17 15C16.7239 15 16.5 14.7761 16.5 14.5V13C16.5 12.7238 16.7239 12.5 17 12.5ZM17.5 9.49998C17.5 9.22384 17.2762 8.99998 17 8.99998C16.7239 8.99998 16.5 9.22384 16.5 9.49998V11C16.5 11.2761 16.7239 11.5 17 11.5C17.2762 11.5 17.5 11.2761 17.5 11V9.49998ZM12.9069 8.79064C13.0674 8.56593 13.0153 8.25366 12.7906 8.09316C12.5659 7.93265 12.2536 7.9847 12.0931 8.2094L7.09313 15.2094C6.93262 15.4341 6.98467 15.7464 7.20938 15.9069C7.43408 16.0674 7.74636 16.0153 7.90686 15.7906L12.9069 8.79064ZM8.00002 8.99998C7.5858 8.99998 7.25002 9.33577 7.25002 9.74998C7.25002 10.1642 7.5858 10.5 8.00002 10.5C8.41423 10.5 8.75002 10.1642 8.75002 9.74998C8.75002 9.33577 8.41423 8.99998 8.00002 8.99998ZM6.25002 9.74998C6.25002 8.78348 7.03352 7.99998 8.00002 7.99998C8.96652 7.99998 9.75002 8.78348 9.75002 9.74998C9.75002 10.7165 8.96652 11.5 8.00002 11.5C7.03352 11.5 6.25002 10.7165 6.25002 9.74998ZM11.25 14.25C11.25 13.8358 11.5858 13.5 12 13.5C12.4142 13.5 12.75 13.8358 12.75 14.25C12.75 14.6642 12.4142 15 12 15C11.5858 15 11.25 14.6642 11.25 14.25ZM12 12.5C11.0335 12.5 10.25 13.2835 10.25 14.25C10.25 15.2165 11.0335 16 12 16C12.9665 16 13.75 15.2165 13.75 14.25C13.75 13.2835 12.9665 12.5 12 12.5Z" fill="#2B2B2C"/>
</svg>
