<svg width="30" height="30" viewBox="0 0 30 30" fill="none" xmlns="http://www.w3.org/2000/svg">
<path fill-rule="evenodd" clip-rule="evenodd" d="M4.75001 7.00003H20.5V8C20.5 8.27614 20.7239 8.5 21 8.5C21.2762 8.5 21.5 8.27614 21.5 8V7.00003H25.25C26.2165 7.00003 27 7.78353 27 8.75003V13C27 13.1326 26.9473 13.2598 26.8536 13.3536C26.7598 13.4473 26.6326 13.5 26.5 13.5L26.4 13.5C25.6268 13.5 25 14.1268 25 14.9L25 15.1C25 15.8732 25.6268 16.5 26.4 16.5H26.5C26.7762 16.5 27 16.7238 27 17V21.25C27 22.2165 26.2165 23 25.25 23L21.5 23V22C21.5 21.7239 21.2762 21.5 21 21.5C20.7239 21.5 20.5 21.7239 20.5 22V23L4.75 23C3.7835 23 3 22.2165 3 21.25L3.00001 17C3.00001 16.7239 3.22387 16.5 3.50001 16.5L3.60001 16.5C4.37321 16.5 5.00001 15.8732 5.00001 15.1L5.00001 14.9C5.00001 14.1268 4.37321 13.5 3.60001 13.5H3.50001C3.3674 13.5 3.24023 13.4473 3.14646 13.3536C3.05269 13.2598 3.00001 13.1326 3.00001 13L3.00001 8.75003C3.00001 7.78353 3.78352 7.00003 4.75001 7.00003ZM21 18C21.2762 18 21.5 18.2239 21.5 18.5V19.5C21.5 19.7761 21.2762 20 21 20C20.7239 20 20.5 19.7761 20.5 19.5V18.5C20.5 18.2239 20.7239 18 21 18ZM21.5 10.5C21.5 10.2239 21.2762 10 21 10C20.7239 10 20.5 10.2239 20.5 10.5V11.5C20.5 11.7761 20.7239 12 21 12C21.2762 12 21.5 11.7761 21.5 11.5V10.5ZM21.5 14.5C21.5 14.2239 21.2762 14 21 14C20.7239 14 20.5 14.2239 20.5 14.5V15.5C20.5 15.7761 20.7239 16 21 16C21.2762 16 21.5 15.7761 21.5 15.5V14.5ZM15.9161 10.7774C16.0692 10.5476 16.0071 10.2372 15.7774 10.084C15.5476 9.9308 15.2372 9.99289 15.084 10.2226L9.08401 19.2226C8.93083 19.4524 8.99292 19.7628 9.22268 19.916C9.45244 20.0692 9.76288 20.0071 9.91606 19.7774L15.9161 10.7774ZM10 13C10.5523 13 11 12.5523 11 12C11 11.4477 10.5523 11 10 11C9.44775 11 9.00003 11.4477 9.00003 12C9.00003 12.5523 9.44775 13 10 13ZM10 14C11.1046 14 12 13.1046 12 12C12 10.8954 11.1046 10 10 10C8.89546 10 8.00003 10.8954 8.00003 12C8.00003 13.1046 8.89546 14 10 14ZM16 18C16 18.5523 15.5523 19 15 19C14.4477 19 14 18.5523 14 18C14 17.4477 14.4477 17 15 17C15.5523 17 16 17.4477 16 18ZM17 18C17 19.1046 16.1046 20 15 20C13.8955 20 13 19.1046 13 18C13 16.8954 13.8955 16 15 16C16.1046 16 17 16.8954 17 18Z" fill="#2B2B2C"/>
</svg>
