<svg width="18" height="18" viewBox="0 0 18 18" fill="none" xmlns="http://www.w3.org/2000/svg">
<path fill-rule="evenodd" clip-rule="evenodd" d="M9 15.5C12.5899 15.5 15.5 12.5899 15.5 9C15.5 5.41015 12.5899 2.5 9 2.5C5.41015 2.5 2.5 5.41015 2.5 9C2.5 12.5899 5.41015 15.5 9 15.5ZM9 16.5C13.1421 16.5 16.5 13.1421 16.5 9C16.5 4.85786 13.1421 1.5 9 1.5C4.85786 1.5 1.5 4.85786 1.5 9C1.5 13.1421 4.85786 16.5 9 16.5Z" fill="#2B2B2C"/>
<path fill-rule="evenodd" clip-rule="evenodd" d="M9 16.5C13.1421 16.5 16.5 13.1421 16.5 9C16.5 4.85786 13.1421 1.5 9 1.5C4.85786 1.5 1.5 4.85786 1.5 9C1.5 13.1421 4.85786 16.5 9 16.5ZM12.5 10.5C12.5 11.3284 11.8284 12 11 12C10.1716 12 9.5 11.3284 9.5 10.5C9.5 9.67157 10.1716 9 11 9C11.8284 9 12.5 9.67157 12.5 10.5ZM11.5 10.5C11.5 10.7761 11.2761 11 11 11C10.7239 11 10.5 10.7761 10.5 10.5C10.5 10.2239 10.7239 10 11 10C11.2761 10 11.5 10.2239 11.5 10.5ZM6.5 7.5C6.5 7.77614 6.72386 8 7 8C7.27614 8 7.5 7.77614 7.5 7.5C7.5 7.22386 7.27614 7 7 7C6.72386 7 6.5 7.22386 6.5 7.5ZM7 9C7.82843 9 8.5 8.32843 8.5 7.5C8.5 6.67157 7.82843 6 7 6C6.17157 6 5.5 6.67157 5.5 7.5C5.5 8.32843 6.17157 9 7 9ZM7.35355 11.3536L11.3536 7.35355C11.5488 7.15829 11.5488 6.84171 11.3536 6.64645C11.1583 6.45118 10.8417 6.45118 10.6464 6.64645L6.64645 10.6464C6.45118 10.8417 6.45118 11.1583 6.64645 11.3536C6.84171 11.5488 7.15829 11.5488 7.35355 11.3536Z" fill="#2B2B2C"/>
</svg>
