<svg width="30" height="30" viewBox="0 0 30 30" fill="none" xmlns="http://www.w3.org/2000/svg">
<path fill-rule="evenodd" clip-rule="evenodd" d="M26 15C26 21.0751 21.0751 26 15 26C8.92487 26 4 21.0751 4 15C4 8.92487 8.92487 4 15 4C21.0751 4 26 8.92487 26 15ZM27 15C27 21.6274 21.6274 27 15 27C8.37258 27 3 21.6274 3 15C3 8.37258 8.37258 3 15 3C21.6274 3 27 8.37258 27 15ZM16.6225 18.5H15.0648L12.9648 15.1775L11.8901 16.3113V18.5H10.5V11.5H11.8901V14.6352L14.7789 11.5H16.4648L13.9014 14.1915L16.6225 18.5ZM18.3812 14.3197C18.6277 13.738 19.0319 13.3732 19.7024 13.3732C20.0179 13.3732 20.3235 13.4324 20.5798 13.531L20.3334 14.6549C20.0967 14.5859 19.8305 14.5366 19.5841 14.5366C18.8841 14.5366 18.47 15.0887 18.47 16.0254V18.5H17.1883V14.9507C17.1883 14.2704 17.1488 13.7972 17.0897 13.462H18.2826C18.3319 13.6493 18.3714 13.9451 18.3812 14.3197Z" fill="#2B2B2C"/>
</svg>
