<svg width="24" height="24" viewBox="0 0 24 24" fill="none" xmlns="http://www.w3.org/2000/svg">
<path fill-rule="evenodd" clip-rule="evenodd" d="M5.72308 6.99995C7.17837 5.15248 9.38687 3.97363 11.9213 3.97363C16.3395 3.97363 19.9213 7.55536 19.9213 11.9736C19.9213 16.3919 16.3395 19.9736 11.9213 19.9736C7.50299 19.9736 3.92126 16.3919 3.92126 11.9736C3.92126 11.6975 3.69741 11.4736 3.42126 11.4736C3.14512 11.4736 2.92126 11.6975 2.92126 11.9736C2.92126 16.9442 6.9507 20.9736 11.9213 20.9736C16.8918 20.9736 20.9213 16.9442 20.9213 11.9736C20.9213 7.00307 16.8918 2.97363 11.9213 2.97363C9.11183 2.97363 6.66104 4.26058 5.02715 6.26935L4.80629 5.16505C4.75214 4.89427 4.48872 4.71866 4.21794 4.77282C3.94716 4.82697 3.77156 5.09038 3.82571 5.36116L4.35347 7.99995H7.00021C7.27635 7.99995 7.50021 7.77609 7.50021 7.49995C7.50021 7.22381 7.27635 6.99995 7.00021 6.99995H5.72308ZM13.2479 15H11.9127L10.1127 12.1521L9.19155 13.1239V15H8V9H9.19155V11.6873L11.6676 9H13.1127L10.9155 11.307L13.2479 15ZM14.7554 11.4169C14.9666 10.9183 15.3131 10.6056 15.8878 10.6056C16.1582 10.6056 16.4201 10.6563 16.6399 10.7408L16.4286 11.7042C16.2258 11.6451 15.9976 11.6028 15.7863 11.6028C15.1863 11.6028 14.8314 12.0761 14.8314 12.8789V15H13.7328V11.9578C13.7328 11.3747 13.699 10.969 13.6483 10.6817H14.6708C14.7131 10.8423 14.7469 11.0958 14.7554 11.4169Z" fill="#2B2B2C"/>
</svg>
