<svg width="24" height="24" viewBox="0 0 24 24" fill="none" xmlns="http://www.w3.org/2000/svg">
<path fill-rule="evenodd" clip-rule="evenodd" d="M6.9314 6.52632C8.25608 5.26572 10.0228 4.5 12.0002 4.5C16.1424 4.5 19.5002 7.85786 19.5002 12C19.5002 16.1421 16.1424 19.5 12.0002 19.5C7.85811 19.5 4.50024 16.1421 4.50024 12C4.50024 11.4477 4.05253 11 3.50024 11C2.94796 11 2.50024 11.4477 2.50024 12C2.50024 17.2467 6.75354 21.5 12.0002 21.5C17.2469 21.5 21.5002 17.2467 21.5002 12C21.5002 6.75329 17.2469 2.5 12.0002 2.5C9.43145 2.5 7.14758 3.51906 5.46258 5.16494L5.38137 4.67771C5.29058 4.13294 4.77535 3.76492 4.23058 3.85571C3.68581 3.94651 3.31779 4.46173 3.40859 5.0065L3.99522 8.52632H7.52656C8.07884 8.52632 8.52656 8.0786 8.52656 7.52632C8.52656 6.97403 8.07884 6.52632 7.52656 6.52632H6.9314ZM13.248 15H11.9127L10.1127 12.1521L9.19161 13.1239V15H8.00006V9H9.19161V11.6873L11.6677 9H13.1127L10.9156 11.307L13.248 15ZM14.7554 11.4169C14.9667 10.9183 15.3132 10.6056 15.8878 10.6056C16.1582 10.6056 16.4202 10.6563 16.6399 10.7408L16.4287 11.7042C16.2258 11.6451 15.9977 11.6028 15.7864 11.6028C15.1864 11.6028 14.8315 12.0761 14.8315 12.8789V15H13.7329V11.9578C13.7329 11.3747 13.6991 10.969 13.6484 10.6817H14.6709C14.7132 10.8423 14.747 11.0958 14.7554 11.4169Z" fill="#2B2B2C"/>
</svg>
