<svg width="24" height="24" viewBox="0 0 24 24" fill="none" xmlns="http://www.w3.org/2000/svg">
<path fill-rule="evenodd" clip-rule="evenodd" d="M11.9998 4C9.46536 4 7.25686 5.17885 5.80157 7.02632H7.0787C7.35485 7.02632 7.5787 7.25017 7.5787 7.52632C7.5787 7.80246 7.35485 8.02632 7.0787 8.02632H4.43196L3.9042 5.38753C3.85005 5.11675 4.02565 4.85334 4.29643 4.79918C4.56721 4.74503 4.83063 4.92064 4.88478 5.19142L5.10564 6.29572C6.73953 4.28695 9.19032 3 11.9998 3C16.9703 3 20.9998 7.02944 20.9998 12C20.9998 16.9706 16.9703 21 11.9998 21C7.02919 21 2.99976 16.9706 2.99976 12C2.99976 11.7239 3.22361 11.5 3.49976 11.5C3.7759 11.5 3.99976 11.7239 3.99976 12C3.99976 16.4183 7.58148 20 11.9998 20C16.418 20 19.9998 16.4183 19.9998 12C19.9998 7.58172 16.418 4 11.9998 4ZM7 10C7 9.17157 7.67157 8.5 8.5 8.5H15.5C16.3284 8.5 17 9.17157 17 10V13V14C17 14.8284 16.3284 15.5 15.5 15.5H8.5C7.67157 15.5 7 14.8284 7 14V13V10ZM8 13.5V14C8 14.2761 8.22386 14.5 8.5 14.5H15.5C15.7761 14.5 16 14.2761 16 14V13.5H8ZM16 12.5H8V10C8 9.72386 8.22386 9.5 8.5 9.5H15.5C15.7761 9.5 16 9.72386 16 10V12.5Z" fill="#2B2B2C"/>
</svg>
