<svg width="24" height="24" viewBox="0 0 24 24" fill="none" xmlns="http://www.w3.org/2000/svg">
<path fill-rule="evenodd" clip-rule="evenodd" d="M13.0162 5.2111C13.3033 5.62364 13.852 5.759 14.298 5.52733L15.8711 4.71019L16.0982 6.48662C16.1617 6.98307 16.5824 7.35614 17.0829 7.35979L18.8602 7.37276L18.2388 9.06004C18.0667 9.52744 18.2648 10.0503 18.7034 10.2863L20.2789 11.1339L18.9488 12.3383C18.5801 12.6723 18.5129 13.2265 18.7911 13.6389L19.7964 15.129L18.0692 15.5713C17.5856 15.6951 17.2674 16.1566 17.3236 16.6526L17.5257 18.4368L15.8012 18.0219C15.3133 17.9046 14.8141 18.1669 14.634 18.6351L13.993 20.301L12.6605 19.129C12.2828 18.7969 11.7173 18.7969 11.3396 19.129L10.0071 20.301L9.36617 18.6351C9.18602 18.1669 8.68677 17.9046 8.19897 18.0219L6.47445 18.4368L6.67651 16.6526C6.73268 16.1566 6.41448 15.6951 5.9309 15.5713L4.20368 15.129L5.20904 13.6389C5.48727 13.2265 5.42005 12.6723 5.05129 12.3383L3.72123 11.1339L5.29672 10.2863C5.73535 10.0503 5.93343 9.52744 5.76129 9.06004L5.13989 7.37276L6.91725 7.35979C7.41772 7.35614 7.83842 6.98307 7.90188 6.48662L8.12898 4.71019L9.70213 5.52733C10.1481 5.759 10.6968 5.62364 10.9839 5.2111L12.0001 3.75085L13.0162 5.2111ZM16.7722 3.87292L17.0902 6.35982L19.5789 6.37797C19.9252 6.3805 20.1642 6.72579 20.0445 7.05075L19.1772 9.40563L21.3764 10.5889C21.6806 10.7525 21.7311 11.168 21.4751 11.3998L19.6201 13.0796L21.0222 15.1578C21.2155 15.4444 21.0666 15.8361 20.7317 15.9218L18.3173 16.54L18.5997 19.0336C18.6387 19.3784 18.3233 19.6572 17.9859 19.576L15.5673 18.9942L14.6686 21.3301C14.5436 21.655 14.1331 21.7559 13.8717 21.526L12.0001 19.8799L10.1284 21.526C9.86701 21.7559 9.45654 21.655 9.33155 21.3301L8.43286 18.9942L6.01424 19.576C5.67686 19.6572 5.36142 19.3784 5.40047 19.0336L5.68286 16.54L3.26844 15.9218C2.93351 15.8361 2.7846 15.4444 2.97796 15.1578L4.38006 13.0796L2.52503 11.3998C2.269 11.168 2.31957 10.7525 2.62374 10.5889L4.82291 9.40563L3.95564 7.05075C3.83596 6.72579 4.07489 6.3805 4.42119 6.37797L6.90995 6.35982L7.22787 3.87292C7.27196 3.52808 7.6458 3.33236 7.95431 3.49261L10.1631 4.6399L11.5897 2.58989C11.7886 2.30402 12.2115 2.30402 12.4105 2.58989L13.837 4.6399L16.0458 3.49261C16.3543 3.33236 16.7282 3.52808 16.7722 3.87292ZM10 10C10 10.5523 9.55228 11 9 11C8.44772 11 8 10.5523 8 10C8 9.44772 8.44772 9 9 9C9.55228 9 10 9.44772 10 10ZM11 10C11 11.1046 10.1046 12 9 12C7.89543 12 7 11.1046 7 10C7 8.89543 7.89543 8 9 8C10.1046 8 11 8.89543 11 10ZM15.3537 9.15336C15.5489 8.9581 15.5489 8.64151 15.3537 8.44625C15.1584 8.25099 14.8418 8.25099 14.6465 8.44625L8.24654 14.8463C8.05128 15.0415 8.05128 15.3581 8.24654 15.5534C8.44181 15.7486 8.75839 15.7486 8.95365 15.5534L15.3537 9.15336ZM14.6001 15C15.1524 15 15.6001 14.5523 15.6001 14C15.6001 13.4477 15.1524 13 14.6001 13C14.0478 13 13.6001 13.4477 13.6001 14C13.6001 14.5523 14.0478 15 14.6001 15ZM14.6001 16C15.7047 16 16.6001 15.1046 16.6001 14C16.6001 12.8954 15.7047 12 14.6001 12C13.4955 12 12.6001 12.8954 12.6001 14C12.6001 15.1046 13.4955 16 14.6001 16Z" fill="#325D93"/>
</svg>
