<svg width="30" height="30" viewBox="0 0 30 30" fill="none" xmlns="http://www.w3.org/2000/svg">
<path fill-rule="evenodd" clip-rule="evenodd" d="M15.4105 2.58977C15.2115 2.3039 14.7886 2.3039 14.5897 2.58977L12.612 5.43172L9.5499 3.84119C9.24139 3.68094 8.86755 3.87665 8.82346 4.2215L8.38292 7.6676L4.9341 7.69276C4.58781 7.69529 4.34888 8.04058 4.46856 8.36554L5.66976 11.6272L2.62374 13.266C2.31957 13.4297 2.269 13.8451 2.52503 14.077L5.09406 16.4033L3.15231 19.2814C2.95895 19.568 3.10786 19.9597 3.44278 20.0455L6.78771 20.9019L6.39649 24.3564C6.35744 24.7012 6.67288 24.98 7.01026 24.8988L10.3627 24.0923L11.6083 27.33C11.7333 27.6549 12.1438 27.7558 12.4052 27.5259L15.0001 25.2437L17.5949 27.5259C17.8563 27.7558 18.2668 27.6549 18.3918 27.33L19.6374 24.0923L22.9899 24.8988C23.3272 24.98 23.6427 24.7012 23.6036 24.3564L23.2124 20.9019L26.5573 20.0455C26.8923 19.9597 27.0412 19.568 26.8478 19.2814L24.9061 16.4033L27.4751 14.077C27.7311 13.8451 27.6806 13.4297 27.3764 13.266L24.3304 11.6272L25.5316 8.36554C25.6512 8.04058 25.4123 7.69529 25.066 7.69276L21.6172 7.6676L21.1767 4.2215C21.1326 3.87665 20.7587 3.68094 20.4502 3.84119L17.3881 5.43172L15.4105 2.58977ZM19.3536 10.6465C19.1584 10.4512 18.8418 10.4512 18.6465 10.6465L10.6465 18.6465C10.4512 18.8417 10.4512 19.1583 10.6465 19.3536C10.8418 19.5488 11.1584 19.5488 11.3536 19.3536L19.3536 11.3536C19.5489 11.1583 19.5489 10.8417 19.3536 10.6465ZM11.5001 14C12.3285 14 13.0001 13.3284 13.0001 12.5C13.0001 11.6716 12.3285 11 11.5001 11C10.6716 11 10.0001 11.6716 10.0001 12.5C10.0001 13.3284 10.6716 14 11.5001 14ZM11.5001 15C12.8808 15 14.0001 13.8807 14.0001 12.5C14.0001 11.1193 12.8808 10 11.5001 10C10.1193 10 9.00006 11.1193 9.00006 12.5C9.00006 13.8807 10.1193 15 11.5001 15ZM20.0001 17.5C20.0001 18.3284 19.3285 19 18.5001 19C17.6716 19 17.0001 18.3284 17.0001 17.5C17.0001 16.6716 17.6716 16 18.5001 16C19.3285 16 20.0001 16.6716 20.0001 17.5ZM21.0001 17.5C21.0001 18.8807 19.8808 20 18.5001 20C17.1193 20 16.0001 18.8807 16.0001 17.5C16.0001 16.1193 17.1193 15 18.5001 15C19.8808 15 21.0001 16.1193 21.0001 17.5Z" fill="#2B2B2C"/>
</svg>
