<svg width="18" height="18" viewBox="0 0 18 18" fill="none" xmlns="http://www.w3.org/2000/svg">
<path fill-rule="evenodd" clip-rule="evenodd" d="M9.99258 4.23652C10.2505 4.61561 10.7332 4.7707 11.1637 4.61279L12.8594 3.99079L12.765 5.65158C12.7379 6.12979 13.0536 6.56011 13.518 6.67768L15.194 7.10206L14.1276 8.35035C13.8081 8.72442 13.8081 9.27533 14.1276 9.6494L15.194 10.8977L13.518 11.3221C13.0536 11.4396 12.7379 11.87 12.765 12.3482L12.8594 14.009L11.1637 13.387C10.7332 13.2291 10.2505 13.3841 9.99258 13.7632L8.99979 15.2223L8.007 13.7632C7.74905 13.3841 7.26633 13.2291 6.83586 13.387L5.14022 14.009L5.23454 12.3482C5.26169 11.87 4.94594 11.4396 4.4816 11.3221L2.80559 10.8977L3.87194 9.6494C4.19149 9.27533 4.19149 8.72442 3.87194 8.35035L2.80559 7.10206L4.4816 6.67768C4.94594 6.56011 5.26169 6.12979 5.23454 5.65158L5.14022 3.99079L6.83586 4.61279C7.26633 4.7707 7.74905 4.61561 8.007 4.23652L8.99979 2.77747L9.99258 4.23652ZM13.9009 3.28761L13.7634 5.70828L16.2196 6.33019C16.5789 6.42118 16.7178 6.85782 16.4771 7.13966L14.888 8.99987L16.4771 10.8601C16.7178 11.1419 16.5789 11.5786 16.2196 11.6696L13.7634 12.2915L13.9009 14.7121C13.9213 15.0712 13.5672 15.3338 13.2295 15.2099L10.8193 14.3258L9.41317 16.3924C9.21473 16.684 8.78485 16.684 8.58641 16.3924L7.18024 14.3258L4.77006 15.2099C4.43237 15.3338 4.07828 15.0713 4.09867 14.7121L4.23614 12.2915L1.77996 11.6696C1.42063 11.5786 1.28176 11.1419 1.52252 10.8601L3.1116 8.99987L1.52252 7.13966C1.28176 6.85782 1.42063 6.42118 1.77996 6.33019L4.23614 5.70828L4.09867 3.28761C4.07828 2.9285 4.43237 2.66598 4.77006 2.78985L7.18024 3.67396L8.58641 1.60739C8.78485 1.31576 9.21473 1.31576 9.41317 1.60739L10.8193 3.67396L13.2295 2.78985C13.5672 2.66598 13.9213 2.9285 13.9009 3.28761ZM7.5 7.5C7.5 7.77614 7.27614 8 7 8C6.72386 8 6.5 7.77614 6.5 7.5C6.5 7.22386 6.72386 7 7 7C7.27614 7 7.5 7.22386 7.5 7.5ZM8.5 7.5C8.5 8.32843 7.82843 9 7 9C6.17157 9 5.5 8.32843 5.5 7.5C5.5 6.67157 6.17157 6 7 6C7.82843 6 8.5 6.67157 8.5 7.5ZM12.5 10.5C12.5 11.3284 11.8284 12 11 12C10.1716 12 9.5 11.3284 9.5 10.5C9.5 9.67157 10.1716 9 11 9C11.8284 9 12.5 9.67157 12.5 10.5ZM11.3536 7.35355L7.35355 11.3536C7.15829 11.5488 6.84171 11.5488 6.64645 11.3536C6.45118 11.1583 6.45118 10.8417 6.64645 10.6464L10.6464 6.64645C10.8417 6.45118 11.1583 6.45118 11.3536 6.64645C11.5488 6.84171 11.5488 7.15829 11.3536 7.35355ZM11.5 10.5C11.5 10.7761 11.2761 11 11 11C10.7239 11 10.5 10.7761 10.5 10.5C10.5 10.2239 10.7239 10 11 10C11.2761 10 11.5 10.2239 11.5 10.5Z" fill="#2B2B2C"/>
</svg>
