<svg width="30" height="30" viewBox="0 0 30 30" fill="none" xmlns="http://www.w3.org/2000/svg">
<path fill-rule="evenodd" clip-rule="evenodd" d="M16.5673 6.00303C16.8544 6.41557 17.4031 6.55093 17.8491 6.31926L20.2756 5.05889L20.6253 7.79453C20.6887 8.29097 21.1094 8.66405 21.6099 8.6677L24.3473 8.68767L23.392 11.2817C23.2198 11.7491 23.4179 12.2719 23.8566 12.5079L26.2789 13.8112L24.2348 15.6622C23.8661 15.9961 23.7989 16.5503 24.0771 16.9627L25.6221 19.2528L22.9644 19.9333C22.4808 20.0571 22.1626 20.5185 22.2188 21.0145L22.5297 23.7597L19.8713 23.1202C19.3835 23.0028 18.8843 23.2651 18.7041 23.7334L17.7163 26.301L15.6605 24.4929C15.2828 24.1608 14.7173 24.1608 14.3396 24.4929L12.2839 26.301L11.296 23.7334C11.1159 23.2651 10.6166 23.0028 10.1288 23.1202L7.47047 23.7597L7.78135 21.0145C7.83753 20.5185 7.51932 20.0571 7.03574 19.9333L4.37803 19.2528L5.92304 16.9627C6.20127 16.5503 6.13405 15.9961 5.76529 15.6622L3.72123 13.8112L6.14357 12.5079C6.5822 12.2719 6.78028 11.7491 6.60815 11.2817L5.65281 8.68767L8.39022 8.6677C8.89069 8.66405 9.31139 8.29097 9.37485 7.79453L9.72457 5.05889L12.151 6.31926C12.5971 6.55093 13.1457 6.41557 13.4328 6.00303L15.0001 3.75085L16.5673 6.00303ZM21.1767 4.22162L21.6172 7.66772L25.066 7.69288C25.4123 7.69541 25.6512 8.0407 25.5316 8.36566L24.3304 11.6273L27.3764 13.2661C27.6806 13.4298 27.7311 13.8452 27.4751 14.0771L24.9061 16.4034L26.8478 19.2816C27.0412 19.5682 26.8923 19.9598 26.5573 20.0456L23.2124 20.902L23.6036 24.3565C23.6427 24.7013 23.3272 24.9801 22.9899 24.8989L19.6374 24.0924L18.3918 27.3301C18.2668 27.655 17.8563 27.7559 17.5949 27.526L15.0001 25.2438L12.4052 27.526C12.1438 27.7559 11.7333 27.655 11.6083 27.3301L10.3627 24.0924L7.01026 24.8989C6.67288 24.9801 6.35744 24.7013 6.39649 24.3565L6.78771 20.902L3.44278 20.0456C3.10786 19.9598 2.95895 19.5682 3.15231 19.2816L5.09406 16.4034L2.52503 14.0771C2.269 13.8452 2.31957 13.4298 2.62374 13.2661L5.66976 11.6273L4.46856 8.36566C4.34888 8.0407 4.58781 7.69541 4.9341 7.69288L8.38292 7.66772L8.82346 4.22162C8.86755 3.87678 9.24139 3.68106 9.5499 3.84131L12.612 5.43184L14.5897 2.58989C14.7886 2.30402 15.2115 2.30402 15.4105 2.58989L17.3881 5.43184L20.4502 3.84131C20.7587 3.68106 21.1326 3.87678 21.1767 4.22162ZM13 12.5C13 13.3284 12.3284 14 11.5 14C10.6716 14 10 13.3284 10 12.5C10 11.6716 10.6716 11 11.5 11C12.3284 11 13 11.6716 13 12.5ZM14 12.5C14 13.8807 12.8807 15 11.5 15C10.1193 15 9 13.8807 9 12.5C9 11.1193 10.1193 10 11.5 10C12.8807 10 14 11.1193 14 12.5ZM11.3536 19.3536L19.3536 11.3536C19.5488 11.1583 19.5488 10.8417 19.3536 10.6464C19.1583 10.4512 18.8417 10.4512 18.6464 10.6464L10.6464 18.6464C10.4512 18.8417 10.4512 19.1583 10.6464 19.3536C10.8417 19.5488 11.1583 19.5488 11.3536 19.3536ZM18.5 19C19.3284 19 20 18.3284 20 17.5C20 16.6716 19.3284 16 18.5 16C17.6716 16 17 16.6716 17 17.5C17 18.3284 17.6716 19 18.5 19ZM18.5 20C19.8807 20 21 18.8807 21 17.5C21 16.1193 19.8807 15 18.5 15C17.1193 15 16 16.1193 16 17.5C16 18.8807 17.1193 20 18.5 20Z" fill="#2B2B2C"/>
</svg>
