<svg width="30" height="30" viewBox="0 0 30 30" fill="none" xmlns="http://www.w3.org/2000/svg">
<path fill-rule="evenodd" clip-rule="evenodd" d="M26 15C26 21.0751 21.0751 26 15 26C8.92487 26 4 21.0751 4 15C4 8.92487 8.92487 4 15 4C21.0751 4 26 8.92487 26 15ZM27 15C27 21.6274 21.6274 27 15 27C8.37258 27 3 21.6274 3 15C3 8.37258 8.37258 3 15 3C21.6274 3 27 8.37258 27 15ZM9.75 11C8.7835 11 8 11.7835 8 12.75V19.25C8 20.2165 8.7835 21 9.75 21H20.25C21.2165 21 22 20.2165 22 19.25V17.8662C22.2989 17.6933 22.5 17.3701 22.5 17V15C22.5 14.6299 22.2989 14.3067 22 14.1338V12.75C22 11.7835 21.2165 11 20.25 11H19.7299L17.3866 8.26616C16.9182 7.71971 16.0642 7.74752 15.6324 8.3233L14.8405 9.37912L13.8988 8.28046C13.4234 7.72584 12.5538 7.76429 12.1292 8.3587L10.2426 11H9.75ZM11.4715 11H14.9128L13.1396 8.93125C13.0867 8.86962 12.9901 8.8739 12.9429 8.93994L11.4715 11ZM16.2299 11H18.4128L16.6273 8.91695C16.5753 8.85623 16.4804 8.85932 16.4324 8.9233L15.5072 10.1569L16.2299 11ZM21.5 17H21H18C17.4477 17 17 16.5523 17 16C17 15.4477 17.4477 15 18 15H21H21.5V17ZM18 14H21V12.75C21 12.3358 20.6642 12 20.25 12H9.75C9.33579 12 9 12.3358 9 12.75V19.25C9 19.6642 9.33579 20 9.75 20H20.25C20.6642 20 21 19.6642 21 19.25V18H18C16.8954 18 16 17.1046 16 16C16 14.8954 16.8954 14 18 14Z" fill="#2B2B2C"/>
</svg>
