<svg width="24" height="24" viewBox="0 0 24 24" fill="none" xmlns="http://www.w3.org/2000/svg">
<path fill-rule="evenodd" clip-rule="evenodd" d="M12 20C16.4183 20 20 16.4183 20 12C20 7.58172 16.4183 4 12 4C7.58172 4 4 7.58172 4 12C4 16.4183 7.58172 20 12 20ZM12 21C16.9706 21 21 16.9706 21 12C21 7.02944 16.9706 3 12 3C7.02944 3 3 7.02944 3 12C3 16.9706 7.02944 21 12 21Z" fill="#2B2B2C"/>
<path fill-rule="evenodd" clip-rule="evenodd" d="M21 12C21 16.9706 16.9706 21 12 21C7.02944 21 3 16.9706 3 12C3 7.02944 7.02944 3 12 3C16.9706 3 21 7.02944 21 12ZM7 10.5C7 9.75955 7.53651 9.1444 8.24201 9.0221L9.71913 7.1757C10.1195 6.67529 10.8805 6.67529 11.2809 7.1757L11.6526 7.64032L12.2514 7.04146C12.6729 6.62002 13.3671 6.65846 13.7394 7.12387L15.2403 9H15.5C16.3284 9 17 9.67157 17 10.5V11.6338C17.2989 11.8067 17.5 12.1299 17.5 12.5V13.5C17.5 13.8701 17.2989 14.1933 17 14.3662V15.5C17 16.3284 16.3284 17 15.5 17H8.5C7.67157 17 7 16.3284 7 15.5V10.5ZM13.9597 9L12.9585 7.74857L12.2811 8.426L12.7403 9H13.9597ZM10.5 7.80039L11.4597 9H9.54031L10.5 7.80039ZM16 13.5H16.5V12.5H16H13.5C13.2239 12.5 13 12.7239 13 13C13 13.2761 13.2239 13.5 13.5 13.5H16ZM16 11.5H13.5C12.6716 11.5 12 12.1716 12 13C12 13.8284 12.6716 14.5 13.5 14.5H16V15.5C16 15.7761 15.7761 16 15.5 16H8.5C8.22386 16 8 15.7761 8 15.5V10.5C8 10.2239 8.22386 10 8.5 10H15.5C15.7761 10 16 10.2239 16 10.5V11.5Z" fill="#2B2B2C"/>
</svg>
