<svg width="24" height="24" viewBox="0 0 24 24" fill="none" xmlns="http://www.w3.org/2000/svg">
<path fill-rule="evenodd" clip-rule="evenodd" d="M12 20C16.4183 20 20 16.4183 20 12C20 7.58172 16.4183 4 12 4C7.58172 4 4 7.58172 4 12C4 16.4183 7.58172 20 12 20ZM12 21C16.9706 21 21 16.9706 21 12C21 7.02944 16.9706 3 12 3C7.02944 3 3 7.02944 3 12C3 16.9706 7.02944 21 12 21ZM7 10.5C7 9.75952 7.53656 9.14435 8.24209 9.02209L9.71918 7.17572C10.1195 6.67531 10.8806 6.67531 11.2809 7.17572L11.6526 7.64031L12.2515 7.04144C12.6729 6.62 13.3671 6.65845 13.7394 7.12385L15.2404 9H15.5C16.3284 9 17 9.67157 17 10.5V11.6338C17.2989 11.8067 17.5 12.1299 17.5 12.5V13.5C17.5 13.8701 17.2989 14.1933 17 14.3662V15.5C17 16.3284 16.3284 17 15.5 17H8.5C7.67157 17 7 16.3284 7 15.5V10.5ZM13.9597 9L12.9586 7.74855L12.2811 8.42599L12.7403 9H13.9597ZM10.5001 7.80042L11.4597 9H9.54039L10.5001 7.80042ZM16 13.5H16.5V12.5H16H13.5C13.2239 12.5 13 12.7239 13 13C13 13.2761 13.2239 13.5 13.5 13.5H16ZM16 11.5H13.5C12.6716 11.5 12 12.1716 12 13C12 13.8284 12.6716 14.5 13.5 14.5H16V15.5C16 15.7761 15.7761 16 15.5 16H8.5C8.22386 16 8 15.7761 8 15.5V10.5C8 10.2239 8.22386 10 8.5 10H15.5C15.7761 10 16 10.2239 16 10.5V11.5Z" fill="#2B2B2C"/>
</svg>
