<svg width="44" height="18" viewBox="0 0 44 18" fill="none" xmlns="http://www.w3.org/2000/svg">
<path fill-rule="evenodd" clip-rule="evenodd" d="M11.5865 5H9.11116C8.46744 5 7.84652 5.23325 7.36316 5.65625L6.69436 6.25025L6.69512 6.251C6.69436 6.2525 6.69284 6.25325 6.69132 6.25475L6.68676 6.25025L3.9386 8.68475C3.32832 9.28625 3 10.064 3 10.889C3 11.0518 3.019 11.2092 3.0456 11.3682V11.369V11.3698C3.0494 11.3923 3.04788 11.4155 3.05244 11.438C3.30704 12.902 4.58916 13.9685 6.097 13.9685L14.283 13.991C14.7618 13.991 15.1494 13.6108 15.1494 13.1442V5.86925C15.1494 5.39 14.7511 5 14.2609 5H13.9318H11.5865Z" fill="#2B2B2C"/>
<path fill-rule="evenodd" clip-rule="evenodd" d="M26.5423 5.86874C26.5423 5.38874 26.1478 5.00024 25.6622 5.00024H18.3115C17.8251 5.00024 17.4314 5.38874 17.4314 5.86874V13.1227C17.4314 13.6027 17.8251 13.9912 18.3115 13.9912H25.6622C26.1478 13.9912 26.5423 13.6027 26.5423 13.1227V5.86874Z" fill="#2B2B2C"/>
<path fill-rule="evenodd" clip-rule="evenodd" d="M30.0536 5H29.7238C29.2343 5 28.8353 5.39 28.8353 5.86925V13.1442C28.8353 13.6108 29.2237 13.991 29.7017 13.991L37.8877 13.9685C39.3955 13.9685 40.6776 12.902 40.933 11.438C40.9376 11.4155 40.9353 11.3923 40.9398 11.3698V11.369V11.3682C40.9657 11.2092 40.9854 11.0518 40.9854 10.889C40.9854 10.064 40.6571 9.28625 40.0461 8.68475L37.2979 6.25025L37.2934 6.25475C37.2918 6.25325 37.2903 6.2525 37.2896 6.251L37.2903 6.25025L36.6215 5.65625C36.1389 5.23325 35.518 5 34.8735 5H32.3982H30.0536Z" fill="#2B2B2C"/>
</svg>
