<svg width="24" height="25" viewBox="0 0 24 25" fill="none" xmlns="http://www.w3.org/2000/svg">
<path fill-rule="evenodd" clip-rule="evenodd" d="M3 12.6653C3 7.69519 7.02991 3.66528 12 3.66528C16.9701 3.66528 21 7.69519 21 12.6653C21 17.6354 16.9701 21.6653 12 21.6653C7.02991 21.6653 3 17.6354 3 12.6653ZM12 2.66528C6.47762 2.66528 2 7.14291 2 12.6653C2 18.1877 6.47762 22.6653 12 22.6653C17.5224 22.6653 22 18.1877 22 12.6653C22 7.14291 17.5224 2.66528 12 2.66528ZM16.0215 16.0892C14.9156 15.4602 13.8593 15.254 12.7438 15.217C11.475 15.175 10.5346 15.1239 9.58373 14.8705C8.09776 14.4746 7.48541 13.9825 6.73084 13.2671C8.00501 13.6643 9.14898 13.808 10.2341 13.8282C11.6842 13.8422 12.5905 13.8983 12.9379 13.9825C14.2648 14.2329 14.8489 14.6575 15.4513 15.217C15.8145 15.5544 16.0215 16.0892 16.0215 16.0892ZM13.5814 9.69022C15.1546 9.80248 16.684 10.8541 17.1522 12.1027C17.3715 12.6864 17.3786 13.6118 17.1598 14.8914C17.645 15.6383 17.9083 16.4333 17.9957 17.1003C18.0316 17.3741 17.8387 17.6251 17.5649 17.661C17.2911 17.6969 17.0401 17.504 17.0042 17.2302C16.8649 16.1673 16.1696 14.6774 14.5876 13.889C14.1977 13.7174 13.7654 13.5778 13.2754 13.4653C13.1803 13.4434 13.0732 13.4231 12.9549 13.4044C12.835 13.3888 12.7121 13.3764 12.5859 13.3674C12.0958 13.3327 11.5993 13.3165 11.0961 13.3001L11.0961 13.3001L11.096 13.3001C10.9403 13.2951 10.784 13.29 10.627 13.2843C10.4673 13.2785 10.3072 13.2721 10.1474 13.2646C9.19292 13.2447 8.28694 13.1467 7.6434 12.9973C7.00128 12.8482 6.35482 12.4822 5.86736 11.9772C5.32338 11.4136 4.99268 10.3478 4.99268 9.69089C5.32585 9.95327 5.7259 10.1457 6.21929 10.2228C6.71269 10.3 8.15759 10.3939 9.46016 10.1019C10.7627 9.80984 12.0082 9.57796 13.5814 9.69022Z" fill="#037D67"/>
</svg>
