<svg width="30" height="30" viewBox="0 0 30 30" fill="none" xmlns="http://www.w3.org/2000/svg">
<path fill-rule="evenodd" clip-rule="evenodd" d="M3 15C3 8.3732 8.3732 3 15 3C21.6268 3 27 8.3732 27 15C27 21.6268 21.6268 27 15 27C8.3732 27 3 21.6268 3 15ZM15 2C7.82092 2 2 7.82092 2 15C2 22.1791 7.82092 28 15 28C22.1791 28 28 22.1791 28 15C28 7.82092 22.1791 2 15 2ZM20.2689 19.1682C18.6439 18.5745 17.1355 18.4352 15.7194 18.4001C14.1333 18.3475 13.0004 18.2598 12.3018 18.0845C11.2067 17.839 10.1116 17.3655 8.97873 16.6641C8.54446 16.401 8.12907 16.1029 7.73256 15.7522C8.12907 15.9276 8.54446 16.0679 8.97873 16.1731C9.62069 16.3309 10.9046 16.4186 12.7928 16.4537C14.6054 16.4712 15.7382 16.5413 16.1725 16.6465C17.7585 16.9973 18.7462 17.5898 19.4806 18.3086C19.7329 18.5556 20.2689 19.1682 20.2689 19.1682ZM17.3243 11.2104C19.4767 11.7014 20.8551 12.736 21.4404 14.2967C21.7156 15.0295 21.7234 16.193 21.4463 17.8031C22.1286 18.71 22.4999 19.6883 22.4999 20.5C22.4999 20.7762 22.276 21 21.9999 21C21.7237 21 21.4999 20.7762 21.4999 20.5C21.4999 19.7921 21.0447 18.6956 20.0471 17.7239C19.9349 17.6146 19.8163 17.5074 19.6912 17.403C18.861 16.7456 17.8884 16.2972 16.5944 16L16.3991 15.9451C16.2262 15.8983 15.946 15.8591 15.5586 15.8276C14.8292 15.7794 14.0725 15.7744 13.3042 15.7694L13.1695 15.7685C12.3336 15.7628 11.4847 15.7541 10.6836 15.6813C10.3992 15.6555 10.1162 15.6213 9.83784 15.5751C9.58166 15.5446 9.37081 15.5101 9.2053 15.4716H9.16754C8.01578 15.2086 7.10948 14.6475 6.44863 13.7882C6.3731 13.683 6.29758 13.5602 6.24093 13.455C6.24093 13.455 6.24093 13.4375 6.22205 13.4375C6.20317 13.4024 6.18429 13.3673 6.14653 13.3147C5.71226 12.5958 5.4668 11.8242 5.41016 11C5.86331 11.4209 6.41087 11.7014 7.01507 11.8417C7.80808 12.0171 8.67663 12.0522 9.62069 11.9469C10.1682 11.8943 11.0179 11.754 12.1319 11.5085C13.227 11.263 14.0578 11.1052 14.6431 11.0526C15.6061 10.9474 16.4935 11 17.3243 11.2104Z" fill="#2B2B2C"/>
</svg>
