<svg width="30" height="30" viewBox="0 0 30 30" fill="none" xmlns="http://www.w3.org/2000/svg">
<path fill-rule="evenodd" clip-rule="evenodd" d="M8 7.5C8.55229 7.5 9 7.94772 9 8.5V13.5V14.5V15.5V16.5V21.5C9 22.0523 8.55228 22.5 8 22.5C7.44771 22.5 7 22.0523 7 21.5V18.25V11.75V8.5C7 7.94771 7.44772 7.5 8 7.5ZM6 10.1684V8.5C6 7.39543 6.89543 6.5 8 6.5C9.10457 6.5 10 7.39543 10 8.5V13.5H20V8.5C20 7.39543 20.8954 6.5 22 6.5C23.1046 6.5 24 7.39543 24 8.5V10.1684C24.2273 10.0604 24.4816 10 24.75 10C25.7165 10 26.5 10.7835 26.5 11.75V13.5H27.5C27.7761 13.5 28 13.7239 28 14V16C28 16.2761 27.7761 16.5 27.5 16.5H26.5V18.25C26.5 19.2165 25.7165 20 24.75 20C24.4816 20 24.2273 19.9396 24 19.8316V21.5C24 22.6046 23.1046 23.5 22 23.5C20.8954 23.5 20 22.6046 20 21.5V16.5H10V21.5C10 22.6046 9.10457 23.5 7.99999 23.5C6.89543 23.5 6 22.6046 6 21.5V19.8316C5.77269 19.9396 5.5184 20 5.25 20C4.2835 20 3.5 19.2165 3.5 18.25V16.5H2.5C2.22386 16.5 2 16.2761 2 16V14C2 13.7239 2.22386 13.5 2.5 13.5H3.5V11.75C3.5 10.7835 4.2835 10 5.25 10C5.5184 10 5.77269 10.0604 6 10.1684ZM26.5 15.5H27V14.5H26.5V15.5ZM3.5 14.5V15.5H3V14.5H3.5ZM6 11.75C6 11.3358 5.66421 11 5.25 11C4.83579 11 4.5 11.3358 4.5 11.75V18.25C4.5 18.6642 4.83579 19 5.25 19C5.66421 19 6 18.6642 6 18.25V11.75ZM24 18.25V11.75C24 11.3358 24.3358 11 24.75 11C25.1642 11 25.5 11.3358 25.5 11.75V18.25C25.5 18.6642 25.1642 19 24.75 19C24.3358 19 24 18.6642 24 18.25ZM23 8.5V11.75V18.25V21.5C23 22.0523 22.5523 22.5 22 22.5C21.4477 22.5 21 22.0523 21 21.5V16.5V15.5V14.5V13.5V8.5C21 7.94772 21.4477 7.5 22 7.5C22.5523 7.5 23 7.94772 23 8.5ZM10 15.5H20V14.5H10V15.5Z" fill="#2B2B2C"/>
</svg>
