<svg width="18" height="18" viewBox="0 0 18 18" fill="none" xmlns="http://www.w3.org/2000/svg">
<path fill-rule="evenodd" clip-rule="evenodd" d="M13.5 3.5C12.6716 3.5 12 4.17157 12 5V8.5H6V5C6 4.17157 5.32843 3.5 4.5 3.5C3.67157 3.5 3 4.17157 3 5V5.58535C2.84361 5.53008 2.67532 5.5 2.5 5.5C1.67157 5.5 1 6.17157 1 7V11C1 11.8284 1.67157 12.5 2.5 12.5C2.67532 12.5 2.84361 12.4699 3 12.4146V13C3 13.8284 3.67157 14.5 4.5 14.5C5.32843 14.5 6 13.8284 6 13V9.5H12V13C12 13.8284 12.6716 14.5 13.5 14.5C14.3284 14.5 15 13.8284 15 13V12.4146C15.1564 12.4699 15.3247 12.5 15.5 12.5C16.3284 12.5 17 11.8284 17 11V7C17 6.17157 16.3284 5.5 15.5 5.5C15.3247 5.5 15.1564 5.53008 15 5.58535V5C15 4.17157 14.3284 3.5 13.5 3.5Z" fill="#2B2B2C"/>
</svg>
