<svg width="24" height="24" viewBox="0 0 24 24" fill="none" xmlns="http://www.w3.org/2000/svg">
<path fill-rule="evenodd" clip-rule="evenodd" d="M14.3883 3.72707C14.1511 4.02535 14.0656 4.47399 14.2685 4.88084C14.7365 5.81946 15 6.87825 15 8.00001C15 11.866 11.866 15 8.00001 15C6.87824 15 5.81946 14.7365 4.88084 14.2685C4.47399 14.0656 4.02535 14.1511 3.72707 14.3883C3.41475 14.6367 3.22984 15.0938 3.46491 15.5584C4.94791 18.4891 7.98868 20.5 11.5 20.5C16.4706 20.5 20.5 16.4706 20.5 11.5C20.5 7.98868 18.4891 4.94791 15.5584 3.46491C15.0938 3.22984 14.6367 3.41475 14.3883 3.72707ZM15.1565 4.38252C17.7369 5.71099 19.5 8.40004 19.5 11.5C19.5 15.9183 15.9183 19.5 11.5 19.5C8.40004 19.5 5.71099 17.7369 4.38252 15.1565L4.38898 15.1554C4.40388 15.1535 4.41866 15.1555 4.43461 15.1634C5.5087 15.699 6.71992 16 8.00001 16C12.4183 16 16 12.4183 16 8.00001C16 6.71992 15.699 5.50871 15.1634 4.43461C15.1555 4.41866 15.1535 4.40388 15.1554 4.38898L15.1565 4.38252ZM5.00001 3.5C4.72387 3.5 4.50001 3.72386 4.50001 4V4.5H4.00001C3.72387 4.5 3.50001 4.72386 3.50001 5C3.50001 5.27614 3.72387 5.5 4.00001 5.5H4.50001V6C4.50001 6.27614 4.72387 6.5 5.00001 6.5C5.27615 6.5 5.50001 6.27614 5.50001 6V5.5H6.00001C6.27615 5.5 6.50001 5.27614 6.50001 5C6.50001 4.72386 6.27615 4.5 6.00001 4.5H5.50001V4C5.50001 3.72386 5.27615 3.5 5.00001 3.5ZM8.05099 6.28004C8.13496 6.10865 8.30916 6 8.50001 6C8.69086 6 8.86507 6.10865 8.94903 6.28004L9.69573 7.80429L11.22 8.55098C11.3914 8.63494 11.5 8.80915 11.5 9C11.5 9.19085 11.3914 9.36506 11.22 9.44902L9.69573 10.1957L8.94903 11.72C8.86507 11.8914 8.69086 12 8.50001 12C8.30916 12 8.13496 11.8914 8.05099 11.72L7.3043 10.1957L5.78005 9.44902C5.60866 9.36506 5.50001 9.19085 5.50001 9C5.50001 8.80915 5.60866 8.63494 5.78005 8.55098L7.3043 7.80429L8.05099 6.28004ZM8.87301 8.39795L8.50001 7.63655L8.12702 8.39795C8.0782 8.49761 7.99762 8.57819 7.89796 8.627L7.13656 9L7.89796 9.373C7.99762 9.42181 8.0782 9.50239 8.12702 9.60205L8.50001 10.3635L8.87301 9.60205C8.92182 9.50239 9.00241 9.42181 9.10206 9.373L9.86346 9L9.10206 8.627C9.00241 8.57819 8.92182 8.49761 8.87301 8.39795Z" fill="#2B2B2C"/>
</svg>
