<svg width="24" height="24" viewBox="0 0 24 24" fill="none" xmlns="http://www.w3.org/2000/svg">
<path fill-rule="evenodd" clip-rule="evenodd" d="M12 3C10.067 3 8.5 4.567 8.5 6.5C8.5 8.433 10.067 10 12 10C13.933 10 15.5 8.433 15.5 6.5C15.5 4.567 13.933 3 12 3ZM7.5 6.5C7.5 4.01472 9.51472 2 12 2C14.4853 2 16.5 4.01472 16.5 6.5C16.5 8.98528 14.4853 11 12 11C9.51472 11 7.5 8.98528 7.5 6.5ZM7.49998 21C7.34188 21.4743 7.34173 21.4743 7.34188 21.4743L7.34327 21.4748L7.3452 21.4754L7.35074 21.4772L7.36843 21.4829C7.38317 21.4875 7.40379 21.4938 7.4303 21.5015C7.48332 21.5169 7.55988 21.5382 7.65997 21.5632C7.86017 21.6132 8.15445 21.6785 8.54279 21.7432C9.31958 21.8727 10.4721 22 12 22C13.5279 22 14.6804 21.8727 15.4572 21.7432C15.8455 21.6785 16.1398 21.6132 16.34 21.5632C16.4401 21.5382 16.5167 21.5169 16.5697 21.5015C16.5962 21.4938 16.6168 21.4875 16.6316 21.4829L16.6492 21.4772L16.6548 21.4754L16.6567 21.4748L16.6578 21.4744C16.862 21.4064 17 21.2152 17 21V20.4236L18.9924 20.0915C19.607 19.9891 19.9793 19.3556 19.7698 18.7688L18.419 14.9865C17.7793 13.1955 16.0829 12 14.1811 12H9.81887C7.91711 12 6.22066 13.1955 5.58103 14.9865L4.23022 18.7688C4.02065 19.3556 4.39294 19.9891 5.00756 20.0915L6.99999 20.4236V21C6.99999 21.2152 7.13771 21.4063 7.34188 21.4743L7.49998 21ZM16.5 21L16.6578 21.4744C16.658 21.4744 16.6581 21.4743 16.5 21Z" fill="#2B2B2C"/>
</svg>
