<svg width="30" height="30" viewBox="0 0 30 30" fill="none" xmlns="http://www.w3.org/2000/svg">
<path fill-rule="evenodd" clip-rule="evenodd" d="M15 3.5C12.5147 3.5 10.5 5.51472 10.5 8C10.5 10.4853 12.5147 12.5 15 12.5C17.4853 12.5 19.5 10.4853 19.5 8C19.5 5.51472 17.4853 3.5 15 3.5ZM9.5 8C9.5 4.96243 11.9624 2.5 15 2.5C18.0376 2.5 20.5 4.96243 20.5 8C20.5 11.0376 18.0376 13.5 15 13.5C11.9624 13.5 9.5 11.0376 9.5 8ZM20.7199 26.4909C20.7199 26.4909 20.7208 26.4907 20.625 26L20.7199 26.4909ZM23.5024 24.578L21.125 24.9254V26C21.125 26.2392 20.9546 26.4451 20.7199 26.4909L20.718 26.4913L20.7116 26.4925L20.6877 26.497C20.667 26.5009 20.6367 26.5065 20.5974 26.5136C20.5188 26.5277 20.404 26.5477 20.2571 26.5716C19.9633 26.6194 19.5406 26.6829 19.0216 26.7463C17.9844 26.873 16.5571 27 15 27C13.4427 27 12.0461 26.8729 11.0391 26.7461C10.5351 26.6826 10.1277 26.619 9.8451 26.5711C9.70379 26.5471 9.59365 26.5271 9.51822 26.5129C9.48051 26.5058 9.45146 26.5001 9.43153 26.4962L9.40853 26.4916L9.40226 26.4904L9.39953 26.4898C9.16695 26.4421 9 26.2374 9 26V24.9336L6.5013 24.5767C5.89797 24.4905 5.51139 23.8893 5.68336 23.3046L6.96468 18.9481C7.65312 16.6074 9.80134 15 12.2412 15H17.7588C20.1987 15 22.3469 16.6074 23.0353 18.9481L24.3172 23.3064C24.4888 23.8898 24.1042 24.4901 23.5024 24.578Z" fill="#2B2B2C"/>
</svg>
