<svg width="30" height="30" viewBox="0 0 30 30" fill="none" xmlns="http://www.w3.org/2000/svg">
<path fill-rule="evenodd" clip-rule="evenodd" d="M5.6724 3.62228C5.7819 3.52731 5.92722 3.48453 6.07071 3.50503L7.94877 3.77332C9.12576 3.94146 10 4.94948 10 6.13841C10 7.11908 9.40157 7.99483 8.5 8.35595V8.9062L11.842 17.5H19.5C19.6569 17.5 19.8047 17.5736 19.8992 17.6989C19.9937 17.8242 20.0239 17.9865 19.9808 18.1374L19.2398 20.7308C19.0251 21.482 18.3385 22 17.5571 22H14.5V25H17C17.2761 25 17.5 25.2239 17.5 25.5C17.5 25.7761 17.2761 26 17 26H14.002L14 26L13.998 26H11C10.7239 26 10.5 25.7761 10.5 25.5C10.5 25.2239 10.7239 25 11 25H13.5V22H10.5C10.2892 22 10.101 21.8677 10.0296 21.6694L5.52956 9.16936C5.51 9.11504 5.5 9.05774 5.5 9V4C5.5 3.85506 5.5629 3.71725 5.6724 3.62228ZM14.5 12.5C14.2239 12.5 14 12.7239 14 13V14C14 14.8284 14.6716 15.5 15.5 15.5H22C22 16.7095 22.8589 17.7184 24 17.95V20.5C24 20.7761 24.2239 21 24.5 21C24.7761 21 25 20.7761 25 20.5V17.5V15.002L25 15V13L25 12.998V6.5C25 6.22386 24.7761 6 24.5 6C24.2239 6 24 6.22386 24 6.5V12.5H19.8229C20.2381 12.1335 20.5 11.5973 20.5 11V9.5C20.5 9.22386 20.2761 9 20 9H17C16.7239 9 16.5 9.22386 16.5 9.5V11C16.5 11.5973 16.7619 12.1335 17.1771 12.5H14.5ZM24 13.5H15V14C15 14.2761 15.2239 14.5 15.5 14.5H22.5H24V13.5ZM24 15.5H23C23 16.1531 23.4174 16.7087 24 16.9146V15.5Z" fill="#2B2B2C"/>
</svg>
