<svg width="30" height="30" viewBox="0 0 30 30" fill="none" xmlns="http://www.w3.org/2000/svg">
<path fill-rule="evenodd" clip-rule="evenodd" d="M5.59806 5.00971C5.45117 4.98034 5.29885 5.01836 5.18301 5.11333C5.06716 5.2083 5 5.35021 5 5.5V21.5C5 21.7271 5.1531 21.9257 5.37275 21.9835L11.2295 23.5248L3.5 22.5586V8C3.5 7.72386 3.27614 7.5 3 7.5C2.72386 7.5 2.5 7.72386 2.5 8V23C2.5 23.2522 2.68777 23.4649 2.93798 23.4961L14.938 24.9961C14.9792 25.0013 15.0208 25.0013 15.062 24.9961L27.062 23.4961C27.3122 23.4649 27.5 23.2522 27.5 23V8C27.5 7.72386 27.2761 7.5 27 7.5C26.7239 7.5 26.5 7.72386 26.5 8V22.5586L18.7705 23.5248L24.6272 21.9835C24.8469 21.9257 25 21.7271 25 21.5V5.5C25 5.35021 24.9328 5.2083 24.817 5.11333C24.7012 5.01836 24.5488 4.98034 24.4019 5.00971L20 5.8901V5.5C20 5.22386 19.7761 5 19.5 5C19.2239 5 19 5.22386 19 5.5V6.0901L18.7332 6.14346C17.4476 6.40057 16.2519 6.99018 15.2653 7.85349L15 8.08562L14.7347 7.85349C13.7481 6.99018 12.5524 6.40057 11.2668 6.14346L5.59806 5.00971ZM19 7.10991L18.9293 7.12404C17.8152 7.34687 16.7789 7.85786 15.9238 8.60607L15.5 8.97689V23.3514L24 21.1146V6.10991L20 6.90991V15.5C20 15.7761 19.7761 16 19.5 16C19.2239 16 19 15.7761 19 15.5V7.10991ZM6 21.1146V6.10991L11.0707 7.12404C12.1848 7.34687 13.2211 7.85786 14.0762 8.60607L14.5 8.97689V23.3514L6 21.1146Z" fill="#2B2B2C"/>
</svg>
