<svg width="30" height="30" viewBox="0 0 30 30" fill="none" xmlns="http://www.w3.org/2000/svg">
<path fill-rule="evenodd" clip-rule="evenodd" d="M13 1C12.7239 1 12.5 1.22386 12.5 1.5C12.5 1.77614 12.7239 2 13 2H13.5V3.09284C11.3302 3.36341 9.34027 4.21329 7.68991 5.4828L6.85355 4.64645C6.75979 4.55268 6.63261 4.5 6.5 4.5C6.36739 4.5 6.24021 4.55268 6.14645 4.64645L4.64645 6.14645C4.45118 6.34171 4.45118 6.65829 4.64645 6.85355L5.4828 7.68991C3.92578 9.71402 3 12.2489 3 15C3 21.6274 8.37258 27 15 27C21.6274 27 27 21.6274 27 15C27 12.2489 26.0742 9.71401 24.5172 7.6899L25.3535 6.85355C25.5488 6.65829 25.5488 6.34171 25.3535 6.14645L23.8535 4.64645C23.6583 4.45118 23.3417 4.45118 23.1464 4.64645L22.3101 5.4828C20.6597 4.21328 18.6698 3.36341 16.5 3.09284V2H17C17.2761 2 17.5 1.77614 17.5 1.5C17.5 1.22386 17.2761 1 17 1H13ZM6.5 5.70711L6.92037 6.12748C6.64395 6.37935 6.37935 6.64395 6.12748 6.92037L5.70711 6.5L6.5 5.70711ZM23.0796 6.12747C23.356 6.37934 23.6206 6.64394 23.8725 6.92037L24.2929 6.5L23.5 5.70711L23.0796 6.12747ZM15.5 3.01023V2H14.5V3.01023C14.6658 3.00343 14.8325 3 15 3C15.1675 3 15.3342 3.00343 15.5 3.01023ZM15 26C21.0751 26 26 21.0751 26 15C26 8.92487 21.0751 4 15 4C8.92487 4 4 8.92487 4 15C4 21.0751 8.92487 26 15 26ZM15 24C19.9706 24 24 19.9706 24 15C24 10.0294 19.9706 6 15 6C10.0294 6 6 10.0294 6 15C6 19.9706 10.0294 24 15 24ZM15 25C20.5228 25 25 20.5228 25 15C25 9.47715 20.5228 5 15 5C9.47715 5 5 9.47715 5 15C5 20.5228 9.47715 25 15 25ZM20.8536 9.14645C21.0488 9.34171 21.0488 9.65829 20.8536 9.85355L16.7231 13.984C16.899 14.2818 17 14.6291 17 15C17 16.1046 16.1046 17 15 17C13.8954 17 13 16.1046 13 15C13 13.8954 13.8954 13 15 13C15.3709 13 15.7182 13.101 16.016 13.2769L20.1464 9.14645C20.3417 8.95118 20.6583 8.95118 20.8536 9.14645ZM14 15C14 14.4477 14.4477 14 15 14C15.5523 14 16 14.4477 16 15C16 15.5523 15.5523 16 15 16C14.4477 16 14 15.5523 14 15Z" fill="#2B2B2C"/>
</svg>
