<svg width="24" height="24" viewBox="0 0 24 24" fill="none" xmlns="http://www.w3.org/2000/svg">
<path fill-rule="evenodd" clip-rule="evenodd" d="M10 2C9.72386 2 9.5 2.22386 9.5 2.5C9.5 2.77614 9.72386 3 10 3H10.5V3.63193C9.0464 3.89075 7.72066 4.51904 6.62334 5.41624L6.35355 5.14645C6.25979 5.05268 6.13261 5 6 5C5.86739 5 5.74021 5.05268 5.64645 5.14645L5.14645 5.64645C4.95118 5.84171 4.95118 6.15829 5.14645 6.35355L5.41624 6.62334C4.21851 8.08822 3.5 9.9602 3.5 12C3.5 16.6944 7.30558 20.5 12 20.5C16.6944 20.5 20.5 16.6944 20.5 12C20.5 9.9602 19.7815 8.08822 18.5838 6.62334L18.8536 6.35355C19.0488 6.15829 19.0488 5.84171 18.8536 5.64645L18.3536 5.14645C18.1583 4.95118 17.8417 4.95118 17.6464 5.14645L17.3767 5.41624C16.2793 4.51904 14.9536 3.89075 13.5 3.63193V3H14C14.2761 3 14.5 2.77614 14.5 2.5C14.5 2.22386 14.2761 2 14 2H10ZM12.5 3.51446V3H11.5V3.51446C11.6654 3.50487 11.8322 3.5 12 3.5C12.1678 3.5 12.3346 3.50487 12.5 3.51446ZM16.3536 8.35355C16.5488 8.15829 16.5488 7.84171 16.3536 7.64645C16.1583 7.45118 15.8417 7.45118 15.6464 7.64645L12.6467 10.6462C12.4509 10.5525 12.2316 10.5 12 10.5C11.1716 10.5 10.5 11.1716 10.5 12C10.5 12.8284 11.1716 13.5 12 13.5C12.8284 13.5 13.5 12.8284 13.5 12C13.5 11.7684 13.4475 11.5491 13.3538 11.3533L16.3536 8.35355ZM12 11.5C11.7239 11.5 11.5 11.7239 11.5 12C11.5 12.2761 11.7239 12.5 12 12.5C12.2761 12.5 12.5 12.2761 12.5 12C12.5 11.7239 12.2761 11.5 12 11.5Z" fill="#2B2B2C"/>
</svg>
