<svg width="18" height="18" viewBox="0 0 18 18" fill="none" xmlns="http://www.w3.org/2000/svg">
<path fill-rule="evenodd" clip-rule="evenodd" d="M15 2C15.2761 2 15.5 2.22386 15.5 2.5V8.5V10.5V15.5C15.5 15.7761 15.2761 16 15 16C14.7239 16 14.5 15.7761 14.5 15.5V13.9691C12.8609 13.7647 11.5297 12.5685 11.126 11H3.25C2.55964 11 2 10.4404 2 9.75V8.5C2 8.36739 2.05268 8.24021 2.14645 8.14645C2.24021 8.05268 2.36739 8 2.5 8H4.67709C4.26188 7.63353 4 7.09735 4 6.5V4.5C4 4.22386 4.22386 4 4.5 4H7.5C7.77611 4 7.99995 4.22381 8 4.49991C8.20892 4.34299 8.4686 4.25 8.75 4.25C9.44036 4.25 10 4.80964 10 5.5C10 6.19036 9.44036 6.75 8.75 6.75C8.4686 6.75 8.20892 6.65701 8 6.50009C7.99997 7.0974 7.7381 7.63355 7.32291 8H14.5V2.5C14.5 2.22386 14.7239 2 15 2ZM11 10H12H14.5V9H3V9.75C3 9.88807 3.11193 10 3.25 10H11ZM12.1707 11C12.5288 12.0132 13.4158 12.7766 14.5 12.9585V11H12.1707ZM5 6.5V5H7V6.5C7 7.05228 6.55228 7.5 6 7.5C5.44772 7.5 5 7.05228 5 6.5ZM8.75 5.25C8.61193 5.25 8.5 5.36193 8.5 5.5C8.5 5.63807 8.61193 5.75 8.75 5.75C8.88807 5.75 9 5.63807 9 5.5C9 5.36193 8.88807 5.25 8.75 5.25Z" fill="#2B2B2C"/>
</svg>
