<svg width="18" height="18" viewBox="0 0 18 18" fill="none" xmlns="http://www.w3.org/2000/svg">
<path fill-rule="evenodd" clip-rule="evenodd" d="M5.93931 1.35365C6.5251 0.767861 7.47484 0.767859 8.06063 1.35365L16.6464 9.93943C17.2322 10.5252 17.2322 11.475 16.6464 12.0608L15.3535 13.3536C15.1583 13.5489 14.8417 13.5489 14.6464 13.3536L14.6364 13.3436C14.2849 12.9921 13.715 12.9921 13.3636 13.3436L13.3435 13.3637C12.992 13.7152 12.992 14.285 13.3435 14.6365L13.3535 14.6465C13.5488 14.8418 13.5488 15.1584 13.3535 15.3536L12.0606 16.6465C11.4748 17.2323 10.5251 17.2323 9.93931 16.6465L8.40036 15.1076C7.69474 16.2436 6.4357 17 5 17C2.79086 17 1 15.2091 1 13C1 11.5643 1.75639 10.3053 2.89241 9.59964L1.35352 8.06075C0.767738 7.47497 0.767738 6.52522 1.35352 5.93943L2.64642 4.64654C2.84168 4.45128 3.15826 4.45128 3.35352 4.64654L3.36358 4.65659C3.71505 5.00806 4.2849 5.00806 4.63637 4.65659L4.65647 4.63649C5.00794 4.28502 5.00794 3.71517 4.65647 3.3637L4.64642 3.35365C4.55265 3.25988 4.49997 3.1327 4.49997 3.00009C4.49997 2.86749 4.55265 2.74031 4.64642 2.64654L5.93931 1.35365ZM8.85353 14.1465C8.84835 14.1414 8.84308 14.1363 8.83774 14.1314C8.94334 13.7727 9 13.3929 9 13C9 10.7909 7.20914 9 5 9C4.60705 9 4.22734 9.05666 3.86859 9.16226C3.8637 9.15694 3.85868 9.1517 3.85352 9.14654L2.06063 7.35365C1.86537 7.15838 1.86537 6.8418 2.06063 6.64654L3.04428 5.66289C3.77165 6.0867 4.72021 5.98697 5.34347 5.3637L5.36358 5.3436C5.98684 4.72033 6.08657 3.77177 5.66277 3.04441L6.64642 2.06075C6.84168 1.86549 7.15826 1.86549 7.35352 2.06075L13.2953 8.00248L13.1526 8.1403C12.954 8.33216 12.9485 8.64869 13.1404 8.8473C13.3323 9.0459 13.6488 9.05137 13.8474 8.8595L14.0025 8.7097L15.9393 10.6465C16.1346 10.8418 16.1346 11.1584 15.9393 11.3536L14.9557 12.3373C14.2283 11.9135 13.2797 12.0132 12.6565 12.6365L12.6364 12.6566C12.0131 13.2799 11.9134 14.2284 12.3372 14.9558L11.3535 15.9394C11.1583 16.1347 10.8417 16.1347 10.6464 15.9394L8.85353 14.1465ZM5 10C3.34315 10 2 11.3431 2 13C2 14.6569 3.34315 16 5 16C6.65685 16 8 14.6569 8 13C8 11.3431 6.65685 10 5 10ZM10.6959 11.3229C10.8891 11.5201 10.8859 11.8367 10.6887 12.03L10.1098 12.5972C9.91259 12.7904 9.59603 12.7872 9.40276 12.59C9.20949 12.3928 9.21271 12.0762 9.40995 11.8829L9.9888 11.3157C10.186 11.1225 10.5026 11.1257 10.6959 11.3229ZM12.6202 10.0867C12.8117 9.88766 12.8055 9.57114 12.6066 9.37968C12.4076 9.18822 12.091 9.19433 11.8996 9.39332L11.3051 10.0112C11.1136 10.2102 11.1197 10.5267 11.3187 10.7182C11.5177 10.9096 11.8343 10.9035 12.0257 10.7045L12.6202 10.0867ZM5 11.5C5 11.2239 5.22386 11 5.5 11H5.75C6.44036 11 7 11.5596 7 12.25C7 12.9404 6.44036 13.5 5.75 13.5H4.25C4.11193 13.5 4 13.6119 4 13.75C4 13.8881 4.11193 14 4.25 14H4.5C4.77614 14 5 14.2239 5 14.5C5 14.7761 4.77614 15 4.5 15H4.25C3.55964 15 3 14.4404 3 13.75C3 13.0596 3.55964 12.5 4.25 12.5H5.75C5.88807 12.5 6 12.3881 6 12.25C6 12.1119 5.88807 12 5.75 12H5.5C5.22386 12 5 11.7761 5 11.5ZM4 12C4.27614 12 4.5 11.7761 4.5 11.5C4.5 11.2239 4.27614 11 4 11C3.72386 11 3.5 11.2239 3.5 11.5C3.5 11.7761 3.72386 12 4 12ZM6 15C6.27614 15 6.5 14.7761 6.5 14.5C6.5 14.2238 6.27614 14 6 14C5.72386 14 5.5 14.2238 5.5 14.5C5.5 14.7761 5.72386 15 6 15Z" fill="#2B2B2C"/>
</svg>
