<svg width="30" height="30" viewBox="0 0 30 30" fill="none" xmlns="http://www.w3.org/2000/svg">
<path fill-rule="evenodd" clip-rule="evenodd" d="M4 15C4 8.92487 8.92487 4 15 4C21.0751 4 26 8.92487 26 15C26 18.285 24.56 21.2337 22.2768 23.2493L21.1581 19.8932C20.6817 18.464 19.3442 17.5 17.8377 17.5H16.5H13.5H12.1623C10.6558 17.5 9.31829 18.464 8.84189 19.8932L7.72319 23.2493C5.43999 21.2337 4 18.285 4 15ZM13 18.5H12.1623C11.0862 18.5 10.1309 19.1886 9.79057 20.2094L8.55527 23.9153C9.85849 24.859 11.3768 25.524 13.0226 25.8228L13.9285 20.3873C13.3836 20.1626 13 19.6261 13 19V18.5ZM14.4921 19.4999C14.2196 19.4957 14 19.2735 14 19V18.5H16V19C16 19.2735 15.7804 19.4957 15.5079 19.4999C15.5053 19.5 15.5026 19.5 15.5 19.5H15.4896M17 18.5V19C17 19.6261 16.6164 20.1626 16.0715 20.3873L16.9774 25.8228C18.6232 25.524 20.1415 24.859 21.4447 23.9153L20.2094 20.2094C19.8691 19.1886 18.9138 18.5 17.8377 18.5H17ZM14.9236 20.5H15.0764L15.9858 25.9564C15.6611 25.9853 15.3323 26 15 26C14.6677 26 14.3389 25.9853 14.0142 25.9564L14.9236 20.5ZM14.5 19.5H14.5104H14.5ZM14.5104 19.5H15.4896H14.5104ZM15 3C8.37258 3 3 8.37258 3 15C3 21.6274 8.37258 27 15 27C21.6274 27 27 21.6274 27 15C27 8.37258 21.6274 3 15 3ZM11.5 11.4999C11.5 10.9624 11.6209 10.4542 11.8367 10H18.1633C18.3791 10.4542 18.5 10.9624 18.5 11.4999C18.5 13.4329 16.933 14.9999 15 14.9999C13.067 14.9999 11.5 13.4329 11.5 11.4999ZM10.5 11.4999C10.5 10.9745 10.5902 10.4695 10.7562 10H9.5C9.22386 10 9 9.77614 9 9.5C9 9.22386 9.22386 9 9.5 9H11V8C11 7.17157 11.6716 6.5 12.5 6.5H17.5C18.3284 6.5 19 7.17157 19 8V9.43657C19.3196 10.0551 19.5 10.7571 19.5 11.4999C19.5 13.9852 17.4853 15.9999 15 15.9999C12.5147 15.9999 10.5 13.9852 10.5 11.4999ZM18 9V8C18 7.72386 17.7761 7.5 17.5 7.5H12.5C12.2239 7.5 12 7.72386 12 8V9H18Z" fill="#2B2B2C"/>
</svg>
