<svg width="24" height="24" viewBox="0 0 24 24" fill="none" xmlns="http://www.w3.org/2000/svg">
<path fill-rule="evenodd" clip-rule="evenodd" d="M8.43931 2.8534C9.0251 2.26762 9.97485 2.26762 10.5606 2.8534L21.1464 13.4392C21.7322 14.025 21.7322 14.9747 21.1464 15.5605L19.3535 17.3534C19.2598 17.4472 19.1326 17.4999 19 17.4998C18.8673 17.4998 18.7402 17.4472 18.6464 17.3534L18.6364 17.3434L18.6364 17.3433C18.2849 16.9919 17.715 16.9919 17.3636 17.3434L17.3435 17.3635C16.992 17.7149 16.992 18.2848 17.3435 18.6362L17.3435 18.6362L17.3535 18.6463C17.4473 18.74 17.5 18.8672 17.5 18.9998C17.5 19.1325 17.4473 19.2596 17.3535 19.3534L15.5606 21.1463C14.9748 21.7321 14.0251 21.7321 13.4393 21.1463L11.1156 18.8226C10.4161 20.3998 8.83653 21.5 7 21.5C4.51472 21.5 2.5 19.4853 2.5 17C2.5 14.5147 4.51472 12.5 7 12.5C9.01993 12.5 10.729 13.8309 11.2982 15.6636C10.7291 13.8308 9.01995 12.4999 6.99997 12.4999C6.35119 12.4999 5.73448 12.6372 5.17731 12.8843L2.85352 10.5605C2.26774 9.97472 2.26774 9.02498 2.85352 8.43919L4.64642 6.6463C4.84168 6.45103 5.15826 6.45103 5.35352 6.6463L5.36358 6.65635C5.71505 7.00782 6.2849 7.00782 6.63637 6.65635L6.65647 6.63625C7.00794 6.28477 7.00794 5.71492 6.65647 5.36345L6.64642 5.3534C6.55265 5.25963 6.49997 5.13246 6.49997 4.99985C6.49997 4.86724 6.55265 4.74006 6.64642 4.6463L8.43931 2.8534ZM11.4955 16.7972C11.4985 16.8644 11.5 16.932 11.5 17C11.5 17.3394 11.4624 17.67 11.3912 17.9879C11.5525 18.0237 11.7281 17.9789 11.8535 17.8534L12.8535 16.8534C13.0488 16.6581 13.0488 16.3416 12.8535 16.1463C12.6583 15.951 12.3417 15.951 12.1464 16.1463L11.4955 16.7972ZM15.3535 13.6463C15.5488 13.8416 15.5488 14.1581 15.3535 14.3534L14.3535 15.3534C14.1583 15.5487 13.8417 15.5487 13.6464 15.3534C13.4512 15.1581 13.4512 14.8416 13.6464 14.6463L14.6464 13.6463C14.8417 13.451 15.1583 13.451 15.3535 13.6463ZM17.8535 11.8534C18.0488 11.6581 18.0488 11.3416 17.8535 11.1463C17.6583 10.951 17.3417 10.951 17.1464 11.1463L16.1464 12.1463C15.9512 12.3416 15.9512 12.6581 16.1464 12.8534C16.3417 13.0487 16.6583 13.0487 16.8535 12.8534L17.8535 11.8534ZM3.5 17C3.5 15.067 5.067 13.5 7 13.5C8.933 13.5 10.5 15.067 10.5 17C10.5 18.933 8.933 20.5 7 20.5C5.067 20.5 3.5 18.933 3.5 17ZM7.5547 15.4707C7.2188 15.2468 6.7812 15.2468 6.4453 15.4707C6.1671 15.6561 6 15.9684 6 16.3027V16.4243C6 16.6898 6.08611 16.9481 6.24542 17.1605L7 18.1666L7.75458 17.1605C7.91389 16.9481 8 16.6898 8 16.4243V16.3027C8 15.9684 7.8329 15.6561 7.5547 15.4707ZM5.8906 14.6386C6.5624 14.1908 7.4376 14.1908 8.1094 14.6386C8.6658 15.0096 9 15.634 9 16.3027V16.4243C9 16.9061 8.84371 17.375 8.55458 17.7605L7.4 19.3C7.30557 19.4259 7.15738 19.5 7 19.5C6.84262 19.5 6.69442 19.4259 6.6 19.3L5.44542 17.7605C5.15629 17.375 5 16.9061 5 16.4243V16.3027C5 15.634 5.3342 15.0096 5.8906 14.6386ZM7 16.7834C7.27614 16.7834 7.5 16.5596 7.5 16.2834C7.5 16.0073 7.27614 15.7834 7 15.7834C6.72386 15.7834 6.5 16.0073 6.5 16.2834C6.5 16.5596 6.72386 16.7834 7 16.7834Z" fill="#2B2B2C"/>
</svg>
