<svg width="18" height="18" viewBox="0 0 18 18" fill="none" xmlns="http://www.w3.org/2000/svg">
<path fill-rule="evenodd" clip-rule="evenodd" d="M5.93931 1.35352C6.5251 0.767739 7.47484 0.767737 8.06063 1.35352L16.6464 9.93931C17.2322 10.5251 17.2322 11.4748 16.6464 12.0606L15.3535 13.3535C15.1583 13.5488 14.8417 13.5488 14.6464 13.3535L14.6364 13.3435C14.2849 12.992 13.715 12.992 13.3636 13.3435L13.3435 13.3636C12.992 13.715 12.992 14.2849 13.3435 14.6364L13.3535 14.6464C13.5488 14.8417 13.5488 15.1583 13.3535 15.3535L12.0606 16.6464C11.4748 17.2322 10.5251 17.2322 9.93931 16.6464L1.35352 8.06063C0.767738 7.47484 0.767738 6.5251 1.35352 5.93931L2.64642 4.64642C2.74019 4.55265 2.86736 4.49997 2.99997 4.49997C3.13258 4.49997 3.25976 4.55265 3.35352 4.64642L3.36358 4.65647C3.71505 5.00794 4.2849 5.00794 4.63637 4.65647L4.65647 4.63637C5.00794 4.2849 5.00794 3.71505 4.65647 3.36358L4.64642 3.35352C4.45116 3.15826 4.45116 2.84168 4.64642 2.64642L5.93931 1.35352ZM7.03037 6.72677C7.1496 6.846 7.27937 6.90926 7.40671 6.90926C7.5154 6.90926 7.62246 6.86303 7.71898 6.76651C7.9323 6.554 7.90472 6.29527 7.68329 6.07384L7.14554 5.53609L6.49261 6.18901L7.03037 6.72677ZM4.91669 6.91495L7.07257 4.75906L8.11482 5.80051C8.54632 6.23201 8.552 6.77868 8.14159 7.18828C7.94125 7.38862 7.70927 7.4892 7.47406 7.4892C7.22749 7.4892 6.97767 7.37889 6.75705 7.15827L6.14306 6.54428L5.34494 7.3432L4.91669 6.91495ZM8.93181 9.92441C8.71931 9.92441 8.52383 9.83114 8.35594 9.66324L7.97635 9.28365L9.42171 7.83828L9.8013 8.21788C10.1566 8.57313 10.1785 9.05573 9.68613 9.54807C9.42577 9.80762 9.16865 9.92441 8.93181 9.92441ZM9.35275 7.05718L7.19606 9.21388L8.06798 10.085C8.35592 10.3737 8.68279 10.5084 9.01452 10.5084C9.39898 10.5084 9.78831 10.3259 10.1265 9.98766C10.7551 9.35987 10.8468 8.55203 10.2239 7.92911L9.35275 7.05718ZM9.56228 11.5318L11.719 9.37589L13.2341 10.891L12.878 11.2463L11.7912 10.1594L11.2266 10.7239L12.2348 11.7321L11.8788 12.0874L10.8706 11.08L9.99053 11.96L9.56228 11.5318Z" fill="#2B2B2C"/>
</svg>
