<svg width="30" height="30" viewBox="0 0 30 30" fill="none" xmlns="http://www.w3.org/2000/svg">
<path fill-rule="evenodd" clip-rule="evenodd" d="M10.5853 2.71065C11.366 1.92766 12.6339 1.92674 13.4157 2.70859L27.298 16.5909C28.0764 17.3692 28.0794 18.6303 27.3049 19.4124L24.7205 22.022C24.5367 22.2076 24.2409 22.2204 24.0417 22.0514L23.7023 21.7633C23.1771 21.3175 22.3981 21.3483 21.9097 21.834C21.4048 22.336 21.3867 23.1472 21.8687 23.6713L22.0811 23.9023C22.2617 24.0987 22.2563 24.4023 22.0688 24.5921L19.4163 27.2775C18.6367 28.0668 17.3637 28.0707 16.5792 27.2863L2.71176 13.4188C1.92828 12.6354 1.93108 11.3642 2.718 10.5842L5.41614 7.90969C5.60904 7.71848 5.91931 7.71624 6.11496 7.90464L6.36156 8.14211C6.86651 8.62835 7.66647 8.62526 8.16764 8.13513C8.67835 7.63567 8.68893 6.81723 8.19129 6.30475L7.94706 6.05322C7.75688 5.85737 7.75895 5.54518 7.9517 5.35186L10.5853 2.71065ZM11.8759 11.7203C12.0844 11.9288 12.3114 12.0394 12.5341 12.0394C12.7241 12.0394 12.9114 11.9586 13.0802 11.7898C13.4532 11.4181 13.405 10.9657 13.0177 10.5785L12.0774 9.63806L10.9355 10.7799L11.8759 11.7203ZM8.17963 12.0493L11.9497 8.27924L13.7723 10.1005C14.5269 10.855 14.5369 11.811 13.8192 12.5273C13.4688 12.8777 13.0631 13.0535 12.6518 13.0535C12.2206 13.0535 11.7838 12.8606 11.398 12.4748L10.3242 11.4011L8.92854 12.7982L8.17963 12.0493ZM14.8135 16.8908C14.4418 16.8908 14.1 16.7277 13.8064 16.4341L13.1426 15.7703L15.6702 13.2427L16.334 13.9066C16.9552 14.5278 16.9935 15.3717 16.1326 16.2327C15.6773 16.6866 15.2276 16.8908 14.8135 16.8908ZM15.5496 11.8768L11.7781 15.6483L13.3029 17.1717C13.8064 17.6766 14.378 17.9121 14.9581 17.9121C15.6304 17.9121 16.3113 17.5929 16.9027 17.0015C18.002 15.9036 18.1623 14.4909 17.073 13.4016L15.5496 11.8768ZM15.5789 19.4489L19.3504 15.6788L22 18.3284L21.3773 18.9496L19.4767 17.049L18.4895 18.0362L20.2525 19.7993L19.6299 20.4205L17.8668 18.6589L16.3279 20.1978L15.5789 19.4489Z" fill="#2B2B2C"/>
</svg>
