<svg width="30" height="30" viewBox="0 0 30 30" fill="none" xmlns="http://www.w3.org/2000/svg">
<path fill-rule="evenodd" clip-rule="evenodd" d="M13.4158 2.70859C12.6339 1.92674 11.366 1.92766 10.5853 2.71065L7.95173 5.35186C7.75898 5.54518 7.75691 5.85737 7.94709 6.05322L8.19132 6.30475C8.68896 6.81723 8.67838 7.63567 8.16767 8.13513C7.6665 8.62526 6.86654 8.62835 6.36159 8.14211L6.11499 7.90464C5.91934 7.71624 5.60907 7.71848 5.41617 7.90969L2.71803 10.5842C1.93111 11.3642 1.92831 12.6354 2.71179 13.4188L5.7351 16.4421C6.43396 16.157 7.19864 15.9999 8.00001 15.9999C10.2418 15.9999 12.1965 17.2295 13.2265 19.0509C12.1965 17.2295 10.2418 16 8 16C4.68629 16 2 18.6863 2 22C2 25.3137 4.68629 28 8 28C10.5124 28 12.6641 26.4559 13.5578 24.2649L16.5792 27.2863C17.3637 28.0707 18.6368 28.0668 19.4164 27.2775L22.0688 24.5921C22.2563 24.4023 22.2617 24.0987 22.0811 23.9023L21.8687 23.6713C21.3867 23.1472 21.4048 22.336 21.9097 21.834C22.3981 21.3483 23.1771 21.3175 23.7023 21.7633L24.0417 22.0514C24.2409 22.2204 24.5367 22.2076 24.7205 22.022L27.3049 19.4124C28.0795 18.6303 28.0764 17.3692 27.298 16.5909L13.4158 2.70859ZM13.8195 23.4664C13.9985 23.5355 14.2092 23.4979 14.3536 23.3535L15.3536 22.3535C15.5488 22.1582 15.5488 21.8416 15.3536 21.6464C15.1583 21.4511 14.8417 21.4511 14.6465 21.6464L13.9926 22.3002C13.9729 22.7005 13.9139 23.0905 13.8195 23.4664ZM18.0121 19.7062C18.2083 19.5119 18.2099 19.1954 18.0156 18.9991C17.8213 18.8029 17.5047 18.8014 17.3085 18.9957L16.1482 20.1447C15.952 20.339 15.9504 20.6555 16.1447 20.8518C16.339 21.048 16.6556 21.0495 16.8518 20.8552L18.0121 19.7062ZM20.8552 16.148C21.0495 16.3441 21.0481 16.6607 20.852 16.8551L19.6704 18.026C19.4743 18.2203 19.1577 18.2189 18.9633 18.0228C18.7689 17.8266 18.7704 17.51 18.9665 17.3157L20.1481 16.1448C20.3442 15.9504 20.6608 15.9518 20.8552 16.148ZM23.3536 14.3535C23.5488 14.1582 23.5488 13.8416 23.3536 13.6464C23.1583 13.4511 22.8417 13.4511 22.6465 13.6464L21.6465 14.6464C21.4512 14.8416 21.4512 15.1582 21.6465 15.3535C21.8417 15.5488 22.1583 15.5488 22.3536 15.3535L23.3536 14.3535ZM3 22C3 19.2386 5.23858 17 8 17C10.7614 17 13 19.2386 13 22C13 24.7614 10.7614 27 8 27C5.23858 27 3 24.7614 3 22ZM7.32918 19.8944C6.821 20.1485 6.5 20.6679 6.5 21.2361V21.3424C6.5 21.6725 6.59771 21.9952 6.78081 22.2698L8 24.0986L9.21919 22.2698C9.40229 21.9952 9.5 21.6725 9.5 21.3424V21.2361C9.5 20.6679 9.179 20.1485 8.67082 19.8944C8.24853 19.6833 7.75147 19.6833 7.32918 19.8944ZM6.88197 19C7.58578 18.6481 8.41422 18.6481 9.11803 19C9.96499 19.4235 10.5 20.2892 10.5 21.2361V21.3424C10.5 21.8699 10.3439 22.3856 10.0512 22.8245L8.41603 25.2774C8.32329 25.4165 8.16718 25.5 8 25.5C7.83282 25.5 7.67671 25.4165 7.58397 25.2774L5.94876 22.8245C5.65615 22.3856 5.5 21.8699 5.5 21.3424V21.2361C5.5 20.2892 6.03501 19.4235 6.88197 19ZM8 22C8.41421 22 8.75 21.6642 8.75 21.25C8.75 20.8358 8.41421 20.5 8 20.5C7.58579 20.5 7.25 20.8358 7.25 21.25C7.25 21.6642 7.58579 22 8 22Z" fill="#2B2B2C"/>
</svg>
