<svg width="18" height="18" viewBox="0 0 18 18" fill="none" xmlns="http://www.w3.org/2000/svg">
<path fill-rule="evenodd" clip-rule="evenodd" d="M13.5 7C14.8807 7 16 5.88071 16 4.5C16 3.11929 14.8807 2 13.5 2C12.1193 2 11 3.11929 11 4.5C11 5.88071 12.1193 7 13.5 7ZM13.5 8C15.433 8 17 6.433 17 4.5C17 2.567 15.433 1 13.5 1C11.567 1 10 2.567 10 4.5C10 6.433 11.567 8 13.5 8ZM5.25 3.25C5.25 2.83579 5.58579 2.5 6 2.5C6.41421 2.5 6.75 2.83579 6.75 3.25C6.75 3.66421 6.41421 4 6 4C5.58579 4 5.25 3.66421 5.25 3.25ZM6 1.5C5.0335 1.5 4.25 2.2835 4.25 3.25C4.25 4.2165 5.0335 5 6 5C6.9665 5 7.75 4.2165 7.75 3.25C7.75 2.2835 6.9665 1.5 6 1.5ZM2.5 3C2.77614 3 3 3.22386 3 3.5V5.91339L4.63807 10.5H5.73058L4.52646 7.79072C4.14476 6.93191 4.64831 5.94757 5.54452 5.72351C6.25388 5.54617 7.00304 5.90455 7.29503 6.58585L8.32968 9.00004H10.7792C11.4249 9.00004 11.9981 9.41318 12.2022 10.0257L13.9743 15.3419C14.0251 15.4944 13.9996 15.662 13.9056 15.7924C13.8116 15.9228 13.6607 16 13.5 16H12.9415C11.8654 16 10.9101 15.3115 10.5698 14.2906L9.7829 11.9299L9.67444 12.3638C9.5075 13.0316 8.90753 13.5 8.21922 13.5H7.5V15H9.5C9.77614 15 10 15.2239 10 15.5C10 15.7761 9.77614 16 9.5 16H4.5C4.22386 16 4 15.7761 4 15.5C4 15.2239 4.22386 15 4.5 15H6.5V13.5H5C4.78869 13.5 4.6002 13.3672 4.52913 13.1682L2.02913 6.16817C2.00985 6.1142 2 6.05731 2 6V3.5C2 3.22386 2.22386 3 2.5 3ZM9.5 10.5L9.50603 10.5H9.99998C10.2152 10.5 10.4063 10.6378 10.4743 10.8419L11.5185 13.9744C11.708 14.5431 12.2157 14.9399 12.8042 14.9938L11.2536 10.3419C11.1855 10.1378 10.9944 10 10.7792 10H7.99998C7.79996 10 7.6192 9.88084 7.54041 9.697L6.37588 6.97977C6.28118 6.75881 6.03003 6.63291 5.78706 6.69365C5.47793 6.77094 5.31736 7.10804 5.44027 7.38458L6.8249 10.5H9.5ZM4.99522 11.5H6.49394L6.49998 11.5H8.8596L8.70429 12.1213C8.64865 12.3439 8.44866 12.5 8.21922 12.5H5.35236L4.99522 11.5ZM14 3C14 2.72386 13.7761 2.5 13.5 2.5C13.2239 2.5 13 2.72386 13 3V4.5C13 4.63261 13.0527 4.75979 13.1464 4.85355L13.6464 5.35355C13.8417 5.54882 14.1583 5.54882 14.3536 5.35355C14.5488 5.15829 14.5488 4.84171 14.3536 4.64645L14 4.29289V3Z" fill="#2B2B2C"/>
</svg>
