<svg width="30" height="30" viewBox="0 0 30 30" fill="none" xmlns="http://www.w3.org/2000/svg">
<path fill-rule="evenodd" clip-rule="evenodd" d="M27 8C27 10.7614 24.7614 13 22 13C19.2386 13 17 10.7614 17 8C17 5.23858 19.2386 3 22 3C24.7614 3 27 5.23858 27 8ZM22 12C24.2091 12 26 10.2091 26 8C26 5.79086 24.2091 4 22 4C19.7909 4 18 5.79086 18 8C18 10.2091 19.7909 12 22 12ZM9 3.5C7.61929 3.5 6.5 4.61929 6.5 6C6.5 7.38071 7.61929 8.5 9 8.5C10.3807 8.5 11.5 7.38071 11.5 6C11.5 4.61929 10.3807 3.5 9 3.5ZM5 5.5C5 5.22386 4.77614 5 4.5 5C4.22386 5 4 5.22386 4 5.5V10C4 10.0559 4.00938 10.1114 4.02775 10.1643L8.02775 21.6643C8.09767 21.8653 8.28717 22 8.5 22H11.5V25H8.5C8.22386 25 8 25.2239 8 25.5C8 25.7761 8.22386 26 8.5 26H12H15.5C15.7761 26 16 25.7761 16 25.5C16 25.2239 15.7761 25 15.5 25H12.5V22H14.5571C15.3385 22 16.0251 21.482 16.2398 20.7308L16.742 18.973L18.022 23.7729C18.3722 25.0862 19.5615 25.9999 20.9207 25.9999H22C22.1581 25.9999 22.3068 25.9252 22.4011 25.7984C22.4955 25.6716 22.5243 25.5076 22.4789 25.3562L19.7462 16.247C19.5241 15.5068 18.8428 14.9999 18.07 14.9999H12.8604L11.5249 10.9934C11.1324 9.81591 9.88211 9.15644 8.68866 9.49743C7.41956 9.86003 6.70882 11.2075 7.1262 12.4596L8.80632 17.5H7.63808L5 9.91553V5.5ZM15.2783 20.456C15.1863 20.778 14.892 21 14.5571 21H8.85547L7.9859 18.5H15.8371L15.2783 20.456ZM22.5 5C22.5 4.72386 22.2761 4.5 22 4.5C21.7239 4.5 21.5 4.72386 21.5 5V8C21.5 8.13261 21.5527 8.25979 21.6464 8.35355L23.1464 9.85355C23.3417 10.0488 23.6583 10.0488 23.8536 9.85355C24.0488 9.65829 24.0488 9.34171 23.8536 9.14645L22.5 7.79289V5Z" fill="#2B2B2C"/>
</svg>
