<svg width="30" height="30" viewBox="0 0 30 30" fill="none" xmlns="http://www.w3.org/2000/svg">
<path fill-rule="evenodd" clip-rule="evenodd" d="M22 13C24.7614 13 27 10.7614 27 8C27 5.23858 24.7614 3 22 3C19.2386 3 17 5.23858 17 8C17 10.7614 19.2386 13 22 13ZM26 8C26 10.2091 24.2091 12 22 12C19.7909 12 18 10.2091 18 8C18 5.79086 19.7909 4 22 4C24.2091 4 26 5.79086 26 8ZM9 4.5C8.17157 4.5 7.5 5.17157 7.5 6C7.5 6.82843 8.17157 7.5 9 7.5C9.82843 7.5 10.5 6.82843 10.5 6C10.5 5.17157 9.82843 4.5 9 4.5ZM6.5 6C6.5 4.61929 7.61929 3.5 9 3.5C10.3807 3.5 11.5 4.61929 11.5 6C11.5 7.38071 10.3807 8.5 9 8.5C7.61929 8.5 6.5 7.38071 6.5 6ZM5 5.5C5 5.22386 4.77614 5 4.5 5C4.22386 5 4 5.22386 4 5.5V10C4 10.0559 4.00938 10.1114 4.02775 10.1643L8.02775 21.6643C8.09767 21.8653 8.28717 22 8.5 22H11.5V25H8.5C8.22386 25 8 25.2239 8 25.5C8 25.7761 8.22386 26 8.5 26H12H15.5C15.7761 26 16 25.7761 16 25.5C16 25.2239 15.7761 25 15.5 25H12.5V22H14.5571C15.3385 22 16.0251 21.482 16.2398 20.7308L16.742 18.973L18.022 23.7729C18.3722 25.0862 19.5615 25.9999 20.9207 25.9999H22C22.1581 25.9999 22.3068 25.9252 22.4011 25.7984C22.4955 25.6716 22.5243 25.5076 22.4789 25.3562L19.7462 16.247C19.5241 15.5068 18.8428 14.9999 18.07 14.9999H12.8604L11.5249 10.9934C11.1324 9.81591 9.8821 9.15644 8.68865 9.49743C7.41955 9.86003 6.70882 11.2075 7.1262 12.4596L8.80632 17.5H7.63808L5 9.91553V5.5ZM9.49347 18.5H9.50639H15.8371L15.2783 20.456C15.1863 20.778 14.892 21 14.5571 21H8.85547L7.9859 18.5H9.49347ZM9.86041 17.5L8.07488 12.1434C7.83754 11.4314 8.2417 10.6651 8.96338 10.459C9.64203 10.265 10.353 10.6401 10.5762 11.3097L12.0257 15.658C12.0937 15.8622 12.2848 15.9999 12.5 15.9999H18.07C18.4012 15.9999 18.6932 16.2172 18.7883 16.5344L21.328 24.9999H20.9207C20.0146 24.9999 19.2217 24.3907 18.9882 23.5152L17.4831 17.8711C17.4248 17.6522 17.2265 17.4999 17 17.4999H15.5L15.4902 17.5H9.86041ZM22 4.5C22.2761 4.5 22.5 4.72386 22.5 5V7.79289L23.8536 9.14645C24.0488 9.34171 24.0488 9.65829 23.8536 9.85355C23.6583 10.0488 23.3417 10.0488 23.1464 9.85355L21.6464 8.35355C21.5527 8.25979 21.5 8.13261 21.5 8V5C21.5 4.72386 21.7239 4.5 22 4.5Z" fill="#2B2B2C"/>
</svg>
