<svg width="18" height="18" viewBox="0 0 18 18" fill="none" xmlns="http://www.w3.org/2000/svg">
<path fill-rule="evenodd" clip-rule="evenodd" d="M7.25 3C7.11193 3 7 3.11193 7 3.25V4.5H11V3.25C11 3.11193 10.8881 3 10.75 3H7.25ZM12 4.5V3.25C12 2.55964 11.4404 2 10.75 2H7.25C6.55964 2 6 2.55964 6 3.25V4.5H3.25C2.55964 4.5 2 5.05964 2 5.75V13.25C2 13.9404 2.55964 14.5 3.25 14.5H14.75C15.4404 14.5 16 13.9404 16 13.25V5.75C16 5.05964 15.4404 4.5 14.75 4.5H12ZM3 8.87341C3.47332 9.13582 4.05249 9.43011 4.68063 9.69511C5.54931 10.0616 6.54543 10.3867 7.5 10.4759V11C7.5 11.2761 7.72386 11.5 8 11.5H10C10.2761 11.5 10.5 11.2761 10.5 11V10.4759C11.4546 10.3867 12.4507 10.0616 13.3194 9.69511C13.9475 9.43011 14.5267 9.13582 15 8.87341V13.25C15 13.3881 14.8881 13.5 14.75 13.5H3.25C3.11193 13.5 3 13.3881 3 13.25V8.87341ZM15 7.71968V5.75C15 5.61193 14.8881 5.5 14.75 5.5H3.25C3.11193 5.5 3 5.61193 3 5.75V7.71968C3.50052 8.01918 4.24189 8.42466 5.06933 8.77374C5.87136 9.1121 6.72292 9.38387 7.5 9.47078V9C7.5 8.72386 7.72386 8.5 8 8.5H10C10.2761 8.5 10.5 8.72386 10.5 9V9.47078C11.2771 9.38387 12.1286 9.1121 12.9307 8.77374C13.7581 8.42466 14.4995 8.01918 15 7.71968ZM8.5 9.5V10.5H9.5V9.5H8.5Z" fill="#2B2B2C"/>
</svg>
