<svg version="1.1" id="Layer_1" xmlns="http://www.w3.org/2000/svg" x="0" y="0" viewBox="0 0 32 32" xml:space="preserve">
	<style>.base-stroke{fill:#212721}.accent-stroke{fill:#00957a}@media (prefers-color-scheme:dark){.base-stroke{fill:#f2f2f3}}</style>
	<path class="base-stroke" d="M23 17.8c-.2-.1-.4-.1-.6-.2-.4-.3-.8-.8-1-1.6 0-.1-1.4-4.9-1.5-5.2-.3-1.1-.9-1.6-1.5-1.8-.2-.1-.5-.1-.8-.1h-.4c.2 0 .3.1.5.1.5.2 1.1.7 1.4 1.8.1.2 1.5 5 1.5 5.1.3.9.6 1.4 1.1 1.7.3.2.6.2.9.2h.4z" />
	<path class="base-stroke" d="M24.2 17.8c.1 0 .1 0 0 0 .1 0 .1 0 0 0-.6-.1-1-1-1.3-1.7-.2-.8-1.1-3.7-1.6-5.3-.5-1.7-2.1-1.9-2.8-1.9.7.1 1.6.5 2 1.9.4 1.2 1.5 5.1 1.6 5.3.3.8.6 1.3 1 1.6.3.2.6.3 1 .3l.1-.2zM7.7 23.2h-.2c-.6 0-1.3-.3-1.6-1.6L2.5 9.9c-.2-.7-.5-1-1.1-1.1H2c.7 0 1.1.3 1.3 1.2 0 0 3.2 10.7 3.4 11.7.2.7.5 1.3.8 1.5h.2zM6.6 10.4c-.4-1.2-.9-1.6-1.8-1.6h-.5c.7.1 1.2.6 1.5 1.6 0 0 2.8 9.6 3.2 10.9 0-.3.2-.8.3-1.3-.3-1.2-2.7-9.6-2.7-9.6z" />
	<path class="base-stroke" d="M8 23.2h.3c.4 0 .7-.1.9-.3.4-.3.5-.8.7-1.3 0-.1 3-10.2 3.1-10.6.4-1.3 1.2-1.9 2-2.1.1 0 .3-.1.4-.1H15c-1.1 0-2.4.4-2.8 2.2-.2.6-3.1 10.6-3.1 10.6-.1.5-.3 1.1-.6 1.4-.2.1-.3.2-.5.2zm15.4-7 1.8-5.9c.3-1 .7-1.5 1.5-1.6h-.5c-.9 0-1.5.5-1.8 1.6L23 14.9s.3 1.2.4 1.3z" />
	<path class="accent-stroke" d="M28 8.8h-.5c-.8 0-1.2.4-1.5 1.4 0 0-1.7 5.8-1.8 5.9-.1.4-.3.8-.5 1.1.2.2.3.3.5.4.3-.3.6-.7.8-1.5l1.8-5.8c.2-1 .6-1.4 1.2-1.5z" />
	<path class="base-stroke" d="M24.4 18.1h-.8c-.4 1.2-.8 2.7-1 3.3-.5 1.6.3 1.8.6 1.8h.6c-.3-.1-.8-.4-.4-1.8 0 0 .8-2.4 1-3.3zM29 8.8h-.1c-.7 0-1.1.3-1.3 1.2 0 0-1.3 4.5-1.8 5.9-.4 1.4-.7 1.8-1.3 1.9h.4c1 0 1.4-.7 1.7-1.8l2-6.8c.1-.2.3-.4.4-.4z" />
	<path class="base-stroke" d="M25.2 18c-.3.9-1.1 3.6-1.1 3.6-.4 1.4.2 1.5.5 1.5h.6c-.3-.1-.7-.4-.3-1.5 0 0 .9-2.9 1.2-4.1-.2.3-.5.5-.9.5zm1.5 5.2c-.2-.1-.5-.4-.3-1.3 0 0 3.3-11.4 3.5-12 .2-.6-.3-1-.7-1.1.1 0 .2.1.1.3l-3.8 12.8c-.4 1.2.2 1.3.4 1.3h.8zm-5.3-5.4c-.2-.1-.4-.1-.6-.2-.4-.3-.8-.8-1.1-1.8 0-.1-1.4-4.9-1.5-5.1-.3-1-.8-1.5-1.3-1.7-.3-.1-.5-.2-.8-.2h-.4c.1 0 1.2 0 1.7 1.9s1.2 4.1 1.4 4.8c.5 1.7 1.1 2.2 2.1 2.2h.5z" />
	<path class="base-stroke" d="M16.4 9.4c-.4.3-.7.9-.9 1.6 0 .1-3 10.2-3.1 10.4-.2.8-.5 1.7-1.4 1.8h.4c1 0 1.4-.4 1.8-1.8.3-1 3-10.3 3.1-10.4.1-.4.3-.8.5-1.2l-.4-.4z" />
	<path class="accent-stroke" d="M15.9 9.1c-.3-.1-.7-.1-1.1.3-.4.3-.7.8-.9 1.5 0 .1-3.1 10.6-3.1 10.7-.2.5-.3 1-.7 1.3l-.6.3h.5c.4 0 .7-.1.9-.3.4-.3.5-.8.7-1.3 0-.1 3.1-10.6 3.1-10.6.2-.7.5-1.2.9-1.6l.3-.3z" />
	<path class="base-stroke" d="M8.6 22.3c-.2-.2-.3-.5-.3-.7-.1-.4-3.4-11.5-3.4-11.5-.3-1-.7-1.4-1.5-1.4h-.5c.6.1 1 .5 1.2 1.3l3.4 11.5c.2.6.4 1 .7 1.3.1-.1.3-.2.4-.5z" />
</svg>