<svg width="30" height="30" viewBox="0 0 30 30" fill="none" xmlns="http://www.w3.org/2000/svg">
<path fill-rule="evenodd" clip-rule="evenodd" d="M17 6C17 4.34315 18.3431 3 20 3C21.6569 3 23 4.34315 23 6C23 7.65685 21.6569 9 20 9C19.6811 9 19.3739 8.95025 19.0855 8.85808L17.6531 11.3649C18.646 12.0908 19.3303 13.2137 19.4725 14.5H22.563C22.785 13.6374 23.5681 13 24.5 13C25.6046 13 26.5 13.8954 26.5 15C26.5 16.1046 25.6046 17 24.5 17C23.5681 17 22.785 16.3626 22.563 15.5H19.4725C19.3766 16.3679 19.0338 17.1615 18.516 17.8088L20.6213 19.9142C21.0165 19.6524 21.4905 19.5 22 19.5C23.3807 19.5 24.5 20.6193 24.5 22C24.5 23.3807 23.3807 24.5 22 24.5C20.6193 24.5 19.5 23.3807 19.5 22C19.5 21.4905 19.6524 21.0165 19.9142 20.6213L17.8089 18.5159C17.039 19.1318 16.0625 19.5 15 19.5C14.34 19.5 13.7133 19.3579 13.1486 19.1027L10.9634 21.7249C11.4519 22.2586 11.75 22.9695 11.75 23.75C11.75 25.4069 10.4069 26.75 8.75 26.75C7.09315 26.75 5.75 25.4069 5.75 23.75C5.75 22.0931 7.09315 20.75 8.75 20.75C9.26566 20.75 9.75092 20.8801 10.1748 21.1093L12.2789 18.5844C11.3228 17.8574 10.6664 16.7567 10.5275 15.5H8.93699C8.71497 16.3626 7.93192 17 7 17C5.89543 17 5 16.1046 5 15C5 13.8954 5.89543 13 7 13C7.93192 13 8.71497 13.6374 8.93699 14.5H10.5275C10.6234 13.6321 10.9662 12.8385 11.4841 12.1912L8.05844 8.76554C7.73702 8.91597 7.37832 9 7 9C5.61929 9 4.5 7.88071 4.5 6.5C4.5 5.11929 5.61929 4 7 4C8.38071 4 9.5 5.11929 9.5 6.5C9.5 7.13766 9.26127 7.71956 8.8683 8.1612L12.1912 11.4841C12.961 10.8682 13.9375 10.5 15 10.5C15.6343 10.5 16.2379 10.6312 16.7853 10.868L18.1968 8.39782C17.47 7.85035 17 6.98006 17 6Z" fill="#2B2B2C"/>
</svg>
