<svg width="18" height="18" viewBox="0 0 18 18" fill="none" xmlns="http://www.w3.org/2000/svg">
<path fill-rule="evenodd" clip-rule="evenodd" d="M10 3.75C10 2.64543 10.8954 1.75 12 1.75C13.1046 1.75 14 2.64543 14 3.75C14 4.85457 13.1046 5.75 12 5.75C11.8495 5.75 11.7029 5.73338 11.5619 5.70188L10.82 6.9384C11.2717 7.33746 11.5913 7.88267 11.7047 8.5H13.0854C13.2913 7.9174 13.8469 7.5 14.5 7.5C15.3284 7.5 16 8.17157 16 9C16 9.82843 15.3284 10.5 14.5 10.5C13.8469 10.5 13.2913 10.0826 13.0854 9.5H11.7047C11.6335 9.88743 11.4811 10.2465 11.2659 10.5588L12.2623 11.5552C12.5434 11.3626 12.8835 11.25 13.25 11.25C14.2165 11.25 15 12.0335 15 13C15 13.9665 14.2165 14.75 13.25 14.75C12.2835 14.75 11.5 13.9665 11.5 13C11.5 12.7654 11.5462 12.5415 11.6299 12.3371L10.5588 11.2659C10.1157 11.5712 9.57875 11.75 9 11.75C8.63375 11.75 8.28421 11.6784 7.96464 11.5484L6.7834 12.9659C7.07464 13.3133 7.25 13.7612 7.25 14.25C7.25 15.3546 6.35457 16.25 5.25 16.25C4.14543 16.25 3.25 15.3546 3.25 14.25C3.25 13.1454 4.14543 12.25 5.25 12.25C5.50297 12.25 5.74497 12.297 5.96775 12.3827L7.11669 11.0039C6.69848 10.6107 6.40337 10.0881 6.29534 9.5H5.41465C5.20873 10.0826 4.65311 10.5 4 10.5C3.17157 10.5 2.5 9.82843 2.5 9C2.5 8.17157 3.17157 7.5 4 7.5C4.65311 7.5 5.20873 7.9174 5.41465 8.5H6.29534C6.36651 8.11258 6.51886 7.75357 6.73412 7.44126L4.66293 5.37007C4.45847 5.45383 4.23463 5.5 4 5.5C3.0335 5.5 2.25 4.7165 2.25 3.75C2.25 2.7835 3.0335 2 4 2C4.9665 2 5.75 2.7835 5.75 3.75C5.75 4.11646 5.63736 4.45662 5.44481 4.73773L7.44122 6.73414C7.88424 6.42879 8.42124 6.25 9 6.25C9.33876 6.25 9.66322 6.31125 9.9629 6.42329L10.6704 5.24409C10.2591 4.87777 10 4.34414 10 3.75Z" fill="#2B2B2C"/>
</svg>
