<svg width="24" height="24" viewBox="0 0 24 24" fill="none" xmlns="http://www.w3.org/2000/svg">
<path fill-rule="evenodd" clip-rule="evenodd" d="M13.5 5C13.5 3.61929 14.6193 2.5 16 2.5C17.3807 2.5 18.5 3.61929 18.5 5C18.5 6.38071 17.3807 7.5 16 7.5C15.7703 7.5 15.5478 7.46902 15.3365 7.411L14.2111 9.28671C14.8757 9.82896 15.3373 10.6105 15.4646 11.5H18.0854C18.2913 10.9174 18.8469 10.5 19.5 10.5C20.3284 10.5 21 11.1716 21 12C21 12.8284 20.3284 13.5 19.5 13.5C18.8469 13.5 18.2913 13.0826 18.0854 12.5H15.4646C15.3797 13.0929 15.1463 13.638 14.8032 14.0961L16.484 15.7769C16.7818 15.601 17.1291 15.5 17.5 15.5C18.6046 15.5 19.5 16.3954 19.5 17.5C19.5 18.6046 18.6046 19.5 17.5 19.5C16.3954 19.5 15.5 18.6046 15.5 17.5C15.5 17.1291 15.601 16.7818 15.7769 16.484L14.0961 14.8032C13.5118 15.2408 12.7862 15.5 12 15.5C11.491 15.5 11.0073 15.3913 10.5709 15.1959L8.82486 17.2912C9.2436 17.7382 9.5 18.3392 9.5 19C9.5 20.3807 8.38071 21.5 7 21.5C5.61929 21.5 4.5 20.3807 4.5 19C4.5 17.6193 5.61929 16.5 7 16.5C7.35814 16.5 7.6987 16.5753 8.00669 16.711L9.71972 14.6553C9.09233 14.1161 8.65821 13.3582 8.53544 12.5H6.91465C6.70873 13.0826 6.15311 13.5 5.5 13.5C4.67157 13.5 4 12.8284 4 12C4 11.1716 4.67157 10.5 5.5 10.5C6.15311 10.5 6.70873 10.9174 6.91465 11.5H8.53544C8.62026 10.907 8.8537 10.362 9.19681 9.90391L6.51598 7.22309C6.21823 7.39903 5.8709 7.5 5.5 7.5C4.39543 7.5 3.5 6.60457 3.5 5.5C3.5 4.39543 4.39543 3.5 5.5 3.5C6.60457 3.5 7.5 4.39543 7.5 5.5C7.5 5.8709 7.39904 6.21823 7.22309 6.51598L9.90391 9.19681C10.4882 8.7592 11.2138 8.5 12 8.5C12.48 8.5 12.9375 8.59664 13.354 8.77152L14.4432 6.95621C13.8684 6.49817 13.5 5.7921 13.5 5Z" fill="#2B2B2C"/>
</svg>
