<svg width="30" height="30" viewBox="0 0 30 30" fill="none" xmlns="http://www.w3.org/2000/svg">
<path fill-rule="evenodd" clip-rule="evenodd" d="M23.6794 3.97226C22.7519 3.04477 21.2481 3.04477 20.3206 3.97226L15 9.29289L9.85355 4.14645C9.65829 3.95118 9.34171 3.95118 9.14645 4.14645L4.14645 9.14645C4.05268 9.24022 4 9.36739 4 9.5C4 9.63261 4.05268 9.75978 4.14645 9.85355L6.14645 11.8536L8.14645 13.8536L9.29289 15L5.14645 19.1464C5.07276 19.2201 5.02394 19.315 5.00681 19.4178L4.00681 25.4178C3.98026 25.5771 4.03227 25.7394 4.14645 25.8535C4.26063 25.9677 4.42293 26.0197 4.58221 25.9932L10.5822 24.9932C10.685 24.9761 10.7799 24.9272 10.8536 24.8535L15 20.7071L16.1464 21.8536L18.1464 23.8536L20.1464 25.8536C20.3417 26.0488 20.6583 26.0488 20.8536 25.8536L25.8536 20.8536C25.9473 20.7598 26 20.6326 26 20.5C26 20.3674 25.9473 20.2402 25.8536 20.1464L20.7071 15L26.0277 9.67937C26.9552 8.75188 26.9552 7.24811 26.0277 6.32062L23.6794 3.97226ZM19.2071 23.5L20.3536 22.3536C20.5488 22.1583 20.5488 21.8417 20.3536 21.6464C20.1583 21.4512 19.8417 21.4512 19.6464 21.6464L18.5 22.7929L17.2071 21.5L18.8536 19.8536C19.0488 19.6583 19.0488 19.3417 18.8536 19.1464C18.6583 18.9512 18.3417 18.9512 18.1464 19.1464L16.5 20.7929L15.2071 19.5L16.3536 18.3536C16.5488 18.1583 16.5488 17.8417 16.3536 17.6464C16.1583 17.4512 15.8417 17.4512 15.6464 17.6464L14.5 18.7929L13.2071 17.5L14.8536 15.8536C15.0488 15.6583 15.0488 15.3417 14.8536 15.1464C14.6583 14.9512 14.3417 14.9512 14.1464 15.1464L12.5 16.7929L11.2071 15.5L12.3536 14.3536C12.5488 14.1583 12.5488 13.8417 12.3536 13.6464C12.1583 13.4512 11.8417 13.4512 11.6464 13.6464L10.5 14.7929L9.20711 13.5L10.8536 11.8536C11.0488 11.6583 11.0488 11.3417 10.8536 11.1464C10.6583 10.9512 10.3417 10.9512 10.1464 11.1464L8.5 12.7929L7.20711 11.5L8.35355 10.3536C8.54882 10.1583 8.54882 9.84171 8.35355 9.64645C8.15829 9.45118 7.84171 9.45118 7.64645 9.64645L6.5 10.7929L5.20711 9.5L9.5 5.20711L24.7929 20.5L20.5 24.7929L19.2071 23.5ZM10.1464 15.8536L10 15.7071L6.70711 19H8C8.27614 19 8.5 19.2239 8.5 19.5V21.5H10.5C10.7761 21.5 11 21.7239 11 22V23.2929L14.2929 20L14.1464 19.8536L12.1464 17.8536L10.1464 15.8536ZM20 14.2929L23.7929 10.5L19.5 6.20712L15.7071 10L20 14.2929ZM25.3206 8.97226L24.5 9.79291L20.2071 5.50001L21.0277 4.67937C21.5647 4.1424 22.4353 4.1424 22.9723 4.67937L25.3206 7.02772C25.8576 7.56469 25.8576 8.43529 25.3206 8.97226ZM10 24.0764V22.5H8C7.72386 22.5 7.5 22.2761 7.5 22V20H5.92357L5.10828 24.8917L10 24.0764Z" fill="#2B2B2C"/>
</svg>
