<svg width="18" height="18" viewBox="0 0 18 18" fill="none" xmlns="http://www.w3.org/2000/svg">
<path fill-rule="evenodd" clip-rule="evenodd" d="M12.351 1.94195C12.9856 1.30735 14.0145 1.30735 14.6491 1.94196L16.0581 3.35096C16.6927 3.98557 16.6927 5.01446 16.0581 5.64906L15.7071 6.00002L12 2.29291L12.351 1.94195ZM11.2929 3.00002L15 6.70713L12.7071 9.00001L15.8536 12.1464C15.9473 12.2402 16 12.3674 16 12.5C16 12.6326 15.9473 12.7598 15.8536 12.8536L12.8536 15.8536C12.6583 16.0488 12.3417 16.0488 12.1464 15.8536L9.00001 12.7071L7.20711 14.5L3.5 10.7929L5.29291 9.00001L2.14645 5.85355C2.05268 5.75979 2 5.63261 2 5.5C2 5.36739 2.05268 5.24021 2.14645 5.14645L5.14645 2.14645C5.34171 1.95118 5.65829 1.95118 5.85355 2.14645L9.00001 5.29291L11.2929 3.00002ZM6.34663 15.0537L2.62128 15.9851C2.45089 16.0277 2.27065 15.9778 2.14646 15.8536C2.02227 15.7294 1.97234 15.5491 2.01494 15.3787L2.94628 11.6534L6.34663 15.0537ZM12.5 14.7929L14.7929 12.5L5.5 3.20711L3.20711 5.5L4.49999 6.79288L5.64642 5.64645C5.84169 5.45118 6.15827 5.45118 6.35353 5.64645C6.54879 5.84171 6.54879 6.15829 6.35353 6.35355L5.2071 7.49999L5.99999 8.29288L6.77142 7.52145C6.96669 7.32618 7.28327 7.32618 7.47853 7.52145C7.67379 7.71671 7.67379 8.03329 7.47853 8.22855L6.7071 8.99999L7.49999 9.79288L8.64642 8.64645C8.84169 8.45118 9.15827 8.45118 9.35353 8.64645C9.54879 8.84171 9.54879 9.15829 9.35353 9.35355L8.2071 10.5L8.99999 11.2929L9.77142 10.5214C9.96669 10.3262 10.2833 10.3262 10.4785 10.5214C10.6738 10.7167 10.6738 11.0333 10.4785 11.2286L9.7071 12L10.5 12.7929L11.6464 11.6464C11.8417 11.4512 12.1583 11.4512 12.3535 11.6464C12.5488 11.8417 12.5488 12.1583 12.3535 12.3536L11.2071 13.5L12.5 14.7929Z" fill="#2B2B2C"/>
</svg>
