<svg width="18" height="18" viewBox="0 0 18 18" fill="none" xmlns="http://www.w3.org/2000/svg">
<path fill-rule="evenodd" clip-rule="evenodd" d="M10.3506 8.47715C10.3674 8.48242 10.3846 8.4868 10.4019 8.49028C11.8118 8.77225 13.3503 8.34913 14.4669 7.30226C15.5952 6.24446 16.2639 4.58023 15.9961 2.43798C15.9674 2.20847 15.7851 2.02859 15.5552 2.00305C13.1192 1.73239 11.1999 2.81671 10.1625 4.19999C9.64639 4.88808 9.33303 5.67132 9.305 6.41876C9.28714 6.8952 9.38689 7.36123 9.62544 7.76343C9.13278 8.48405 8.73341 9.23795 8.41783 9.98208C8.12773 8.84103 7.36507 7.96715 6.46036 7.37791C5.18007 6.54404 3.53875 6.22492 2.37871 6.51493C2.19125 6.5618 2.04758 6.71247 2.00968 6.90194C1.46284 9.63611 4.04546 12.9263 7.7033 12.1808C7.52176 12.9737 7.43575 13.7109 7.43616 14.3318C6.60607 14.1797 5.7453 14.2634 4.95388 14.5799L3.81432 15.0358C3.55792 15.1383 3.43322 15.4293 3.53577 15.6857C3.63833 15.9421 3.92931 16.0668 4.18571 15.9642L5.32527 15.5084C6.09389 15.201 6.9466 15.1759 7.73194 15.4377L9.57699 16.0527C10.5007 16.3606 11.4993 16.3606 12.423 16.0527L14.1581 15.4743C14.4201 15.387 14.5617 15.1039 14.4744 14.8419C14.387 14.5799 14.1039 14.4383 13.8419 14.5257L12.1068 15.104C11.4265 15.3308 10.6939 15.3428 10.008 15.1401C10.0283 14.548 10.1306 14.0829 10.2299 13.7618C10.2519 13.6907 10.2737 13.6266 10.2945 13.5698C11.1575 13.652 12.0163 13.1909 12.6036 12.6036C13.2938 11.9133 13.8098 10.8482 13.4744 9.84189C13.4063 9.63771 13.2152 9.5 13 9.5C12.6838 9.5 12.2569 9.57571 11.8217 9.70961C11.3816 9.84503 10.8974 10.0508 10.4727 10.334C10.0521 10.6143 9.65292 10.9955 9.44473 11.4952C9.25485 11.9509 9.24367 12.4581 9.44942 12.9904C9.39815 13.1082 9.33594 13.2677 9.27448 13.4665C9.16963 13.8056 9.06701 14.2591 9.02464 14.8145L8.44437 14.6211C8.38615 13.6286 8.63215 12.0635 9.3119 10.4356C9.58776 9.775 9.93204 9.11133 10.3506 8.47715ZM11.0227 7.5668C11.5286 6.95388 12.1158 6.38885 12.7906 5.90686C13.0153 5.74635 13.0674 5.43408 12.9068 5.20937C12.7463 4.98467 12.4341 4.93262 12.2094 5.09313C11.4929 5.60489 10.8692 6.19735 10.3306 6.83539C10.3081 6.71679 10.2993 6.59017 10.3043 6.45622C10.3231 5.95366 10.541 5.3619 10.9625 4.79999C11.7447 3.75702 13.1752 2.88941 15.0423 2.96621C15.1483 4.61478 14.5901 5.81604 13.783 6.57272C13.013 7.29459 11.9936 7.63559 11.0227 7.5668ZM7.49846 10.4707C7.03602 10.083 6.44134 9.62039 5.77734 9.17772C5.54758 9.02454 5.23714 9.08663 5.08397 9.31639C4.93079 9.54616 4.99288 9.85659 5.22264 10.0098C5.87909 10.4474 6.46352 10.9055 6.90526 11.2785C4.45915 11.419 2.79975 9.29055 2.94473 7.42847C3.78351 7.33675 4.95125 7.58841 5.9146 8.21585C6.71626 8.73798 7.33275 9.48877 7.49846 10.4707ZM10.3602 12.5699C10.8283 12.6237 11.4097 12.3832 11.8965 11.8964C12.3196 11.4733 12.5566 10.9788 12.576 10.5493C12.438 10.576 12.2822 10.6142 12.1158 10.6654C11.7434 10.78 11.3527 10.9492 11.0274 11.166C10.6979 11.3857 10.4721 11.6295 10.3678 11.8798C10.2906 12.065 10.265 12.2879 10.3602 12.5699Z" fill="#2B2B2C"/>
</svg>
