<svg width="30" height="30" viewBox="0 0 30 30" fill="none" xmlns="http://www.w3.org/2000/svg">
<path fill-rule="evenodd" clip-rule="evenodd" d="M17.0063 12.0679C17.9144 10.9849 18.977 9.97341 20.2094 9.09313C20.4341 8.93262 20.7464 8.98467 20.9069 9.20937C21.0674 9.43408 21.0153 9.74635 20.7906 9.90686C19.667 10.7095 18.6909 11.6301 17.8502 12.6185C19.5944 12.7766 21.4293 12.3023 22.8086 11.1753C24.3019 9.95517 25.3138 7.92648 25.0466 4.95922C21.6555 4.69386 19.2179 5.95093 17.8874 7.58171C16.6896 9.0498 16.4031 10.7723 17.0063 12.0679ZM16.3323 12.9216C15.2226 11.1483 15.6259 8.77168 17.1126 6.94955C18.7305 4.9664 21.6541 3.56961 25.5552 4.00307C25.7851 4.02861 25.9675 4.20849 25.9962 4.438C26.4314 7.92032 25.299 10.4319 23.4413 11.9497C21.6657 13.4005 19.2804 13.8994 17.1249 13.5316C16.2027 14.775 15.4745 16.0957 14.9185 17.4039C13.8043 20.0256 13.3963 22.5625 13.4864 24.2744C13.938 24.372 14.3845 24.4992 14.8232 24.6559C14.9326 24.695 15.0425 24.732 15.1529 24.7671C15.3287 23.6449 15.8316 22.6693 16.3971 21.8828C15.9985 20.918 16.0082 20.0585 16.3522 19.3264C16.725 18.533 17.4482 17.9814 18.2218 17.6114C19.0012 17.2387 19.8852 17.0238 20.6691 16.933C21.4365 16.8441 22.1795 16.8661 22.6581 17.0256C22.8074 17.0754 22.9246 17.1926 22.9743 17.3419C23.1525 17.8765 23.0462 18.5699 22.8143 19.2158C22.5744 19.8842 22.1669 20.5961 21.6237 21.2072C20.5949 22.3646 19.0015 23.226 17.1261 22.5841C16.6456 23.2798 16.2495 24.1048 16.1264 25.0212C18.1007 25.4284 20.1654 25.2127 22.0279 24.3849L22.7969 24.0431C23.0493 23.9309 23.3448 24.0446 23.4569 24.2969C23.5691 24.5493 23.4554 24.8448 23.2031 24.9569L22.434 25.2987C19.9217 26.4153 17.076 26.5224 14.4868 25.5977C12.5378 24.9016 10.4172 24.8469 8.4348 25.4416L6.64368 25.9789C6.37919 26.0583 6.10045 25.9082 6.0211 25.6437C5.94175 25.3792 6.09184 25.1004 6.35634 25.0211L8.14746 24.4838C9.55836 24.0605 11.0327 23.9354 12.4788 24.1062C12.4406 22.808 12.6476 21.1703 13.1482 19.4143C10.4121 19.9908 8.11057 19.3158 6.54466 17.9378C4.84907 16.4457 4.0578 14.1615 4.50972 11.9019C4.54762 11.7125 4.69129 11.5618 4.87875 11.5149C6.66739 11.0677 9.19516 11.313 11.184 12.44C12.1868 13.0082 13.0699 13.8107 13.6437 14.8809C13.909 15.3757 14.1046 15.9209 14.2166 16.5169C14.7708 15.3025 15.4702 14.0817 16.3323 12.9216ZM19.2773 20.416L19.2729 20.419L19.2521 20.4334C19.233 20.4467 19.2037 20.4674 19.1656 20.4953C19.0892 20.5512 18.9776 20.6357 18.8416 20.7467C18.569 20.9692 18.2011 21.2962 17.8228 21.7117L17.8013 21.7353C19.0295 22.0007 20.09 21.4274 20.8763 20.5428C21.3331 20.0289 21.6756 19.4283 21.8732 18.8779C22.016 18.4801 22.0686 18.1504 22.0634 17.9139C21.7557 17.871 21.3095 17.8655 20.7841 17.9264C20.0836 18.0075 19.3114 18.1988 18.6532 18.5136C17.9893 18.8311 17.4938 19.2482 17.2572 19.7517C17.1064 20.0728 17.0419 20.4697 17.1501 20.9659C17.5448 20.5408 17.9236 20.2052 18.2092 19.972C18.3603 19.8487 18.486 19.7535 18.5751 19.6883C18.6197 19.6556 18.6552 19.6305 18.6803 19.613L18.7098 19.5926L18.7184 19.5868L18.7211 19.585L18.722 19.5844L19 20C18.7226 19.584 18.7221 19.5843 18.722 19.5844C18.9518 19.4312 19.2628 19.4929 19.416 19.7226C19.5691 19.9523 19.5067 20.2627 19.2773 20.416ZM5.43632 12.4165C5.18547 14.2172 5.85545 15.9993 7.20529 17.1871C8.41791 18.2542 10.21 18.8656 12.4343 18.5281C12.3292 18.4157 12.2122 18.2943 12.084 18.1661C11.4164 17.4985 10.4483 16.6521 9.24277 15.9287C9.00598 15.7867 8.92919 15.4795 9.07127 15.2428C9.21334 15.006 9.52047 14.9292 9.75726 15.0713C11.0517 15.8479 12.0836 16.7515 12.7911 17.4589C12.9935 17.6614 13.1699 17.8483 13.3188 18.0123C13.3681 16.9533 13.1495 16.0754 12.7624 15.3534C12.2946 14.4809 11.5632 13.8042 10.691 13.31C9.0461 12.3779 6.96272 12.1305 5.43632 12.4165Z" fill="#2B2B2C"/>
</svg>
