<svg width="18" height="18" viewBox="0 0 18 18" fill="none" xmlns="http://www.w3.org/2000/svg">
<path fill-rule="evenodd" clip-rule="evenodd" d="M9.5 3C9.5 2.72386 9.27614 2.5 9 2.5C8.72386 2.5 8.5 2.72386 8.5 3V4C8.5 4.27614 8.72386 4.5 9 4.5C9.27614 4.5 9.5 4.27614 9.5 4V3ZM13 9C13 9.35394 12.9539 9.69745 12.8674 10.0247C13.6871 9.83348 14.5425 9.77942 15.399 9.87459L16.5552 10.0031C16.8297 10.0336 17.0274 10.2808 16.9969 10.5552C16.9664 10.8297 16.7192 11.0274 16.4448 10.9969L15.2886 10.8685C13.3261 10.6504 11.3708 11.3363 9.97458 12.7325L9.95712 12.75L10.182 12.9749C10.8384 13.6313 11.7286 14 12.6569 14H14C14.2762 14 14.5 14.2239 14.5 14.5C14.5 14.7761 14.2762 15 14 15H12.6569C11.4634 15 10.3188 14.5259 9.4749 13.682L8.12844 12.3355C7.31632 11.5234 6.15744 11.1614 5.02746 11.3668L1.58947 11.9919C1.31778 12.0413 1.05749 11.8611 1.00809 11.5894C0.958693 11.3178 1.13889 11.0575 1.41058 11.0081L4.84858 10.383C4.96807 10.3612 5.0878 10.3445 5.20753 10.3325C5.14786 10.173 5.1045 10.021 5.07346 9.87514C4.99996 9.52986 4.99998 9.23597 5 9.01028L5 9C5 6.79086 6.79086 5 9 5C11.2091 5 13 6.79086 13 9ZM3.22359 6.55279C2.9766 6.42929 2.67627 6.5294 2.55277 6.77639C2.42928 7.02338 2.52939 7.32372 2.77638 7.44721L3.77638 7.94721C4.02337 8.07071 4.32371 7.97059 4.4472 7.72361C4.5707 7.47662 4.47058 7.17628 4.22359 7.05279L3.22359 6.55279ZM15.4472 6.77639C15.5707 7.02338 15.4706 7.32372 15.2236 7.44721L14.2236 7.94721C13.9766 8.07071 13.6763 7.97059 13.5528 7.72361C13.4293 7.47662 13.5294 7.17628 13.7764 7.05279L14.7764 6.55279C15.0234 6.42929 15.3237 6.5294 15.4472 6.77639ZM4.64645 4.14645C4.84171 3.95118 5.15829 3.95118 5.35355 4.14645L5.85355 4.64645C6.04882 4.84171 6.04882 5.15829 5.85355 5.35355C5.65829 5.54882 5.34171 5.54882 5.14645 5.35355L4.64645 4.85355C4.45118 4.65829 4.45118 4.34171 4.64645 4.14645ZM12.8536 5.35355L13.3536 4.85355C13.5488 4.65829 13.5488 4.34171 13.3536 4.14645C13.1583 3.95118 12.8417 3.95118 12.6464 4.14645L12.1464 4.64645C11.9512 4.84171 11.9512 5.15829 12.1464 5.35355C12.3417 5.54882 12.6583 5.54882 12.8536 5.35355ZM6.83886 14.4518C6.21712 13.6228 5.14842 13.2633 4.15206 13.548L2.63737 13.9808C2.37185 14.0566 2.09511 13.9029 2.01924 13.6374C1.94338 13.3718 2.09713 13.0951 2.36265 13.0192L3.87733 12.5865C5.27224 12.1879 6.76842 12.6912 7.63886 13.8518L7.90001 14.2C8.06569 14.4209 8.02092 14.7343 7.80001 14.9C7.57909 15.0657 7.26569 15.0209 7.10001 14.8L6.83886 14.4518Z" fill="#2B2B2C"/>
</svg>
