<svg width="24" height="24" viewBox="0 0 24 24" fill="none" xmlns="http://www.w3.org/2000/svg">
<path fill-rule="evenodd" clip-rule="evenodd" d="M12.5 3.49999C12.5 3.22385 12.2761 2.99999 12 2.99999C11.7239 2.99999 11.5 3.22385 11.5 3.49999V5.49999C11.5 5.77613 11.7239 5.99999 12 5.99999C12.2761 5.99999 12.5 5.77613 12.5 5.49999V3.49999ZM4.1581 9.02566C3.89613 8.93834 3.61297 9.07992 3.52564 9.34189C3.43832 9.60386 3.5799 9.88702 3.84187 9.97435L5.34187 10.4743C5.60384 10.5617 5.887 10.4201 5.97432 10.1581C6.06165 9.89615 5.92007 9.61299 5.6581 9.52566L4.1581 9.02566ZM20.45 14.3764C17.7555 14.0498 15.0603 14.9801 13.141 16.8994L13.0202 17.0202C13.0027 17.0377 12.9842 17.0537 12.9649 17.0681L13.2829 17.4179C14.199 18.4256 15.4976 19 16.8593 19H18.5C18.7762 19 19 19.2239 19 19.5C19 19.7762 18.7762 20 18.5 20H16.8593C15.2158 20 13.6486 19.3067 12.543 18.0906L11.0318 16.4283C9.95389 15.2426 8.35832 14.6682 6.77193 14.8948L2.57073 15.495C2.29736 15.534 2.0441 15.3441 2.00504 15.0707C1.96599 14.7974 2.15594 14.5441 2.42931 14.505L6.63051 13.9049C6.87138 13.8705 7.11244 13.8513 7.3524 13.8471C7.12501 13.2754 7 12.652 7 12C7 9.23858 9.23858 7 12 7C14.7614 7 17 9.23858 17 12C17 12.5905 16.8975 13.1575 16.7092 13.6839C17.9483 13.3331 19.2594 13.2248 20.5704 13.3837L21.5602 13.5036C21.8343 13.5369 22.0296 13.786 21.9964 14.0602C21.9632 14.3343 21.714 14.5296 21.4398 14.4964L20.45 14.3764ZM8.5014 13.9407C9.74473 14.1674 10.8989 14.7955 11.7718 15.7556L12.2955 16.3317C12.2995 16.3272 12.3037 16.3228 12.3079 16.3184L12.3131 16.3131L12.4339 16.1923C13.2885 15.3377 14.2813 14.6592 15.357 14.176C15.7637 13.5499 16 12.8033 16 12C16 9.79086 14.2091 8 12 8C9.79086 8 8 9.79086 8 12C8 12.7049 8.18195 13.3662 8.5014 13.9407ZM20.4744 9.34189C20.5617 9.60386 20.4201 9.88702 20.1581 9.97435L18.6581 10.4743C18.3962 10.5617 18.113 10.4201 18.0257 10.1581C17.9383 9.89615 18.0799 9.61299 18.3419 9.52566L19.8419 9.02566C20.1039 8.93834 20.387 9.07992 20.4744 9.34189ZM6.14646 5.14645C6.34172 4.95118 6.65831 4.95118 6.85357 5.14645L7.85357 6.14645C8.04883 6.34171 8.04883 6.65829 7.85357 6.85355C7.65831 7.04882 7.34172 7.04882 7.14646 6.85355L6.14646 5.85355C5.9512 5.65829 5.9512 5.34171 6.14646 5.14645ZM17.8535 5.85355C18.0488 5.65829 18.0488 5.34171 17.8535 5.14645C17.6583 4.95118 17.3417 4.95118 17.1464 5.14645L16.1464 6.14645C15.9512 6.34171 15.9512 6.65829 16.1464 6.85355C16.3417 7.04882 16.6583 7.04882 16.8535 6.85355L17.8535 5.85355ZM9.24789 18.455C8.37855 17.5857 7.11685 17.2362 5.92414 17.5344L4.12128 17.9851C3.85338 18.052 3.58191 17.8892 3.51494 17.6213C3.44797 17.3534 3.61085 17.0819 3.87874 17.0149L5.6816 16.5642C7.21509 16.1808 8.83728 16.6302 9.95499 17.7479L10.8536 18.6465C11.0488 18.8417 11.0488 19.1583 10.8536 19.3536C10.6583 19.5488 10.3417 19.5488 10.1465 19.3536L9.24789 18.455Z" fill="#2B2B2C"/>
</svg>
