<svg width="18" height="18" viewBox="0 0 18 18" fill="none" xmlns="http://www.w3.org/2000/svg">
<path fill-rule="evenodd" clip-rule="evenodd" d="M9 2.5C9.27614 2.5 9.5 2.72386 9.5 3V4C9.5 4.27614 9.27614 4.5 9 4.5C8.72386 4.5 8.5 4.27614 8.5 4V3C8.5 2.72386 8.72386 2.5 9 2.5ZM9 6C7.34315 6 6 7.34315 6 9C6 9.22783 6.00116 9.43026 6.05154 9.66695C6.09245 9.85912 6.16893 10.0859 6.31921 10.3599C7.25982 10.5006 8.14514 10.938 8.83554 11.6284L9.25001 12.0429L9.26748 12.0254C9.95708 11.3358 10.7649 10.7964 11.6409 10.4247C11.8699 10.0012 12 9.51644 12 9C12 7.34315 10.6569 6 9 6ZM12.8674 10.0247C12.9539 9.69745 13 9.35394 13 9C13 6.79086 11.2091 5 9 5C6.79086 5 5 6.79086 5 9L5 9.01028C4.99998 9.23597 4.99996 9.52986 5.07346 9.87514C5.1045 10.021 5.14786 10.173 5.20753 10.3325C5.0878 10.3445 4.96807 10.3612 4.84858 10.383L1.41058 11.0081C1.13889 11.0575 0.958693 11.3178 1.00809 11.5894C1.05749 11.8611 1.31778 12.0413 1.58947 11.9919L5.02746 11.3668C6.15744 11.1614 7.31632 11.5234 8.12844 12.3355L9.4749 13.682C10.3188 14.5259 11.4634 15 12.6569 15H14C14.2762 15 14.5 14.7761 14.5 14.5C14.5 14.2239 14.2762 14 14 14H12.6569C11.7286 14 10.8384 13.6313 10.182 12.9749L9.95712 12.75L9.97458 12.7325C11.3708 11.3363 13.3261 10.6504 15.2886 10.8685L16.4448 10.9969C16.7192 11.0274 16.9664 10.8297 16.9969 10.5552C17.0274 10.2808 16.8297 10.0336 16.5552 10.0031L15.399 9.87459C14.5425 9.77942 13.6871 9.83348 12.8674 10.0247ZM2.55277 6.77639C2.67627 6.5294 2.9766 6.42929 3.22359 6.55279L4.22359 7.05279C4.47058 7.17628 4.5707 7.47662 4.4472 7.72361C4.32371 7.97059 4.02337 8.07071 3.77638 7.94721L2.77638 7.44721C2.52939 7.32372 2.42928 7.02338 2.55277 6.77639ZM15.2236 7.44721C15.4706 7.32372 15.5707 7.02338 15.4472 6.77639C15.3237 6.5294 15.0234 6.42929 14.7764 6.55279L13.7764 7.05279C13.5294 7.17628 13.4293 7.47662 13.5528 7.72361C13.6763 7.97059 13.9766 8.07071 14.2236 7.94721L15.2236 7.44721ZM5.35355 4.14645C5.15829 3.95118 4.84171 3.95118 4.64645 4.14645C4.45118 4.34171 4.45118 4.65829 4.64645 4.85355L5.14645 5.35355C5.34171 5.54882 5.65829 5.54882 5.85355 5.35355C6.04882 5.15829 6.04882 4.84171 5.85355 4.64645L5.35355 4.14645ZM13.3536 4.85355L12.8536 5.35355C12.6583 5.54882 12.3417 5.54882 12.1464 5.35355C11.9512 5.15829 11.9512 4.84171 12.1464 4.64645L12.6464 4.14645C12.8417 3.95118 13.1583 3.95118 13.3536 4.14645C13.5488 4.34171 13.5488 4.65829 13.3536 4.85355ZM4.15206 13.548C5.14842 13.2633 6.21712 13.6228 6.83886 14.4518L7.10001 14.8C7.26569 15.0209 7.57909 15.0657 7.80001 14.9C8.02092 14.7343 8.06569 14.4209 7.90001 14.2L7.63886 13.8518C6.76842 12.6912 5.27224 12.1879 3.87733 12.5865L2.36265 13.0192C2.09713 13.0951 1.94338 13.3718 2.01924 13.6374C2.09511 13.9029 2.37185 14.0566 2.63737 13.9808L4.15206 13.548Z" fill="#2B2B2C"/>
</svg>
