<svg width="24" height="24" viewBox="0 0 24 24" fill="none" xmlns="http://www.w3.org/2000/svg">
<path fill-rule="evenodd" clip-rule="evenodd" d="M12 2.99999C12.2761 2.99999 12.5 3.22385 12.5 3.49999V5.49999C12.5 5.77613 12.2761 5.99999 12 5.99999C11.7239 5.99999 11.5 5.77613 11.5 5.49999V3.49999C11.5 3.22385 11.7239 2.99999 12 2.99999ZM3.52564 9.34189C3.61297 9.07992 3.89613 8.93834 4.1581 9.02566L5.6581 9.52566C5.92007 9.61299 6.06165 9.89615 5.97432 10.1581C5.887 10.4201 5.60384 10.5617 5.34187 10.4743L3.84187 9.97435C3.5799 9.88702 3.43832 9.60386 3.52564 9.34189ZM13.141 16.8994C15.0603 14.9801 17.7555 14.0498 20.45 14.3764L21.4398 14.4964C21.714 14.5296 21.9632 14.3343 21.9964 14.0602C22.0296 13.786 21.8343 13.5369 21.5602 13.5036L20.5704 13.3837C19.2594 13.2248 17.9483 13.3331 16.7092 13.6839C16.8975 13.1575 17 12.5905 17 12C17 9.23858 14.7614 7 12 7C9.23858 7 7 9.23858 7 12C7 12.652 7.12501 13.2754 7.3524 13.8471C7.11244 13.8513 6.87138 13.8705 6.63051 13.9049L2.42931 14.505C2.15594 14.5441 1.96599 14.7974 2.00504 15.0707C2.0441 15.3441 2.29736 15.534 2.57073 15.495L6.77193 14.8948C8.35832 14.6682 9.95389 15.2426 11.0318 16.4283L12.543 18.0906C13.6486 19.3067 15.2158 20 16.8593 20H18.5C18.7762 20 19 19.7762 19 19.5C19 19.2239 18.7762 19 18.5 19H16.8593C15.4976 19 14.199 18.4256 13.2829 17.4179L12.9649 17.0681C12.9842 17.0537 13.0027 17.0377 13.0202 17.0202L13.141 16.8994ZM20.1581 9.97435C20.4201 9.88702 20.5617 9.60386 20.4744 9.34189C20.387 9.07992 20.1039 8.93834 19.8419 9.02566L18.3419 9.52566C18.0799 9.61299 17.9383 9.89615 18.0257 10.1581C18.113 10.4201 18.3962 10.5617 18.6581 10.4743L20.1581 9.97435ZM6.85357 5.14645C6.65831 4.95118 6.34172 4.95118 6.14646 5.14645C5.9512 5.34171 5.9512 5.65829 6.14646 5.85355L7.14646 6.85355C7.34172 7.04882 7.65831 7.04882 7.85357 6.85355C8.04883 6.65829 8.04883 6.34171 7.85357 6.14645L6.85357 5.14645ZM17.8535 5.14645C18.0488 5.34171 18.0488 5.65829 17.8535 5.85355L16.8535 6.85355C16.6583 7.04882 16.3417 7.04882 16.1464 6.85355C15.9512 6.65829 15.9512 6.34171 16.1464 6.14645L17.1464 5.14645C17.3417 4.95118 17.6583 4.95118 17.8535 5.14645ZM5.92414 17.5344C7.11685 17.2362 8.37855 17.5857 9.24789 18.455L10.1465 19.3536C10.3417 19.5488 10.6583 19.5488 10.8536 19.3536C11.0488 19.1583 11.0488 18.8417 10.8536 18.6465L9.95499 17.7479C8.83728 16.6302 7.21509 16.1808 5.6816 16.5642L3.87874 17.0149C3.61085 17.0819 3.44797 17.3534 3.51494 17.6213C3.58191 17.8892 3.85338 18.052 4.12128 17.9851L5.92414 17.5344Z" fill="#2B2B2C"/>
</svg>
