<svg width="30" height="30" viewBox="0 0 30 30" fill="none" xmlns="http://www.w3.org/2000/svg">
<path fill-rule="evenodd" clip-rule="evenodd" d="M15 3.00001C15.2761 3.00001 15.5 3.22387 15.5 3.50001V6.50001C15.5 6.77615 15.2761 7.00001 15 7.00001C14.7239 7.00001 14.5 6.77615 14.5 6.50001V3.50001C14.5 3.22387 14.7239 3.00001 15 3.00001ZM4.03574 11.3143C4.1383 11.0579 4.42928 10.9332 4.68568 11.0358L7.18568 12.0358C7.44207 12.1383 7.56678 12.4293 7.46422 12.6857C7.36166 12.9421 7.07068 13.0668 6.81429 12.9642L4.31429 11.9642C4.05789 11.8617 3.93319 11.5707 4.03574 11.3143ZM17.3494 19.9096C19.4787 18.361 22.0867 17.6146 24.7129 17.8022L27.4644 17.9987C27.7398 18.0184 27.9791 17.8111 27.9987 17.5356C28.0184 17.2602 27.8111 17.0209 27.5356 17.0013L24.7842 16.8047C23.4051 16.7062 22.0307 16.8441 20.717 17.2023C20.9805 16.5186 21.125 15.7759 21.125 15C21.125 11.6173 18.3827 8.875 15 8.875C11.6173 8.875 8.875 11.6173 8.875 15C8.875 15.915 9.07594 16.7839 9.43612 17.5643C8.80413 17.5202 8.16277 17.5493 7.52437 17.6557L2.41779 18.5068C2.1454 18.5522 1.96139 18.8098 2.00679 19.0822C2.05219 19.3546 2.3098 19.5386 2.58219 19.4932L7.68877 18.6421C9.97283 18.2614 12.3001 19.0073 13.9375 20.6446L14.6418 21.349L14.6519 21.359L16.1938 22.9009C17.5378 24.245 19.3607 25 21.2614 25H23.5C23.7761 25 24 24.7762 24 24.5C24 24.2239 23.7761 24 23.5 24H21.2614C19.6259 24 18.0574 23.3503 16.9009 22.1938L15.7673 21.0602L17.3494 19.9096ZM25.6857 11.9642C25.9421 11.8617 26.0668 11.5707 25.9642 11.3143C25.8617 11.0579 25.5707 10.9332 25.3143 11.0358L22.8143 12.0358C22.5579 12.1383 22.4332 12.4293 22.5358 12.6857C22.6383 12.9421 22.9293 13.0668 23.1857 12.9642L25.6857 11.9642ZM8.35355 5.64644C8.15829 5.45117 7.84171 5.45117 7.64645 5.64644C7.45118 5.8417 7.45118 6.15828 7.64645 6.35354L9.64645 8.35354C9.84171 8.5488 10.1583 8.5488 10.3536 8.35354C10.5488 8.15828 10.5488 7.8417 10.3536 7.64644L8.35355 5.64644ZM22.3536 5.64644C22.5488 5.8417 22.5488 6.15828 22.3536 6.35354L20.3536 8.35354C20.1583 8.5488 19.8417 8.5488 19.6464 8.35354C19.4512 8.15828 19.4512 7.8417 19.6464 7.64644L21.6464 5.64644C21.8417 5.45117 22.1583 5.45117 22.3536 5.64644ZM7.51193 21.4606C8.96476 21.1964 10.4547 21.6619 11.4989 22.706L12.6464 23.8536C12.8417 24.0488 13.1583 24.0488 13.3535 23.8536C13.5488 23.6583 13.5488 23.3417 13.3535 23.1464L12.206 21.9989C10.9298 20.7227 9.10873 20.1539 7.33304 20.4767L4.41055 21.0081C4.13886 21.0575 3.95866 21.3178 4.00806 21.5894C4.05746 21.8611 4.31775 22.0413 4.58944 21.9919L7.51193 21.4606Z" fill="#2B2B2C"/>
</svg>
