<svg width="18" height="18" viewBox="0 0 18 18" fill="none" xmlns="http://www.w3.org/2000/svg">
<path fill-rule="evenodd" clip-rule="evenodd" d="M9 2.5C5.41015 2.5 2.5 5.41015 2.5 9C2.5 12.5899 5.41015 15.5 9 15.5C10.1403 15.5 11.211 15.2068 12.142 14.6916C12.0506 14.4795 12 14.2457 12 14C12 13.0335 12.7835 12.25 13.75 12.25C14.0274 12.25 14.2897 12.3145 14.5228 12.4294C15.1422 11.4342 15.5 10.2595 15.5 9C15.5 5.41015 12.5899 2.5 9 2.5ZM15.2653 13.124C16.0457 11.9406 16.5 10.5227 16.5 9C16.5 4.85786 13.1421 1.5 9 1.5C4.85786 1.5 1.5 4.85786 1.5 9C1.5 13.1421 4.85786 16.5 9 16.5C10.3852 16.5 11.6838 16.124 12.7979 15.4686C13.0719 15.6466 13.3989 15.75 13.75 15.75C14.7165 15.75 15.5 14.9665 15.5 14C15.5 13.6808 15.4146 13.3816 15.2653 13.124ZM9 7C7.89543 7 7 7.89543 7 9C7 10.1046 7.89543 11 9 11C10.1046 11 11 10.1046 11 9C11 7.89543 10.1046 7 9 7ZM6 9C6 7.34315 7.34315 6 9 6C10.6569 6 12 7.34315 12 9C12 10.6569 10.6569 12 9 12C7.34315 12 6 10.6569 6 9ZM13 14C13 13.5858 13.3358 13.25 13.75 13.25C14.1642 13.25 14.5 13.5858 14.5 14C14.5 14.4142 14.1642 14.75 13.75 14.75C13.3358 14.75 13 14.4142 13 14Z" fill="#2B2B2C"/>
</svg>
