<svg width="30" height="30" viewBox="0 0 30 30" fill="none" xmlns="http://www.w3.org/2000/svg">
<path fill-rule="evenodd" clip-rule="evenodd" d="M3.97449 15.0294C3.97449 8.95429 8.89936 4.02942 14.9745 4.02942C21.0496 4.02942 25.9745 8.95429 25.9745 15.0294C25.9745 17.1737 25.3614 19.1736 24.3009 20.8647C23.922 20.6333 23.4765 20.5 23 20.5C21.6193 20.5 20.5 21.6193 20.5 23C20.5 23.4827 20.6368 23.9334 20.8737 24.3155C19.1691 25.4007 17.1459 26.0294 14.9745 26.0294C8.89936 26.0294 3.97449 21.1046 3.97449 15.0294ZM21.5737 25.0535C19.6802 26.3024 17.4115 27.0294 14.9745 27.0294C8.34707 27.0294 2.97449 21.6568 2.97449 15.0294C2.97449 8.402 8.34707 3.02942 14.9745 3.02942C21.6019 3.02942 26.9745 8.402 26.9745 15.0294C26.9745 17.437 26.265 19.6802 25.0437 21.5597C25.3311 21.9668 25.5 22.4637 25.5 23C25.5 24.3807 24.3807 25.5 23 25.5C22.4698 25.5 21.9782 25.335 21.5737 25.0535ZM10.5 15C10.5 12.5147 12.5147 10.5 15 10.5C17.4853 10.5 19.5 12.5147 19.5 15C19.5 17.4853 17.4853 19.5 15 19.5C12.5147 19.5 10.5 17.4853 10.5 15Z" fill="#2B2B2C"/>
</svg>
