<svg width="24" height="24" viewBox="0 0 24 24" fill="none" xmlns="http://www.w3.org/2000/svg">
<path fill-rule="evenodd" clip-rule="evenodd" d="M12 4C7.58172 4 4 7.58172 4 12C4 16.4183 7.58172 20 12 20C13.5316 20 14.9616 19.57 16.1772 18.8242C16.0634 18.5729 16 18.2939 16 18C16 16.8954 16.8954 16 18 16C18.2939 16 18.5729 16.0634 18.8242 16.1772C19.57 14.9616 20 13.5316 20 12C20 7.58172 16.4183 4 12 4ZM19.6079 16.8104C20.4895 15.4187 21 13.7683 21 12C21 7.02944 16.9706 3 12 3C7.02944 3 3 7.02944 3 12C3 16.9706 7.02944 21 12 21C13.7683 21 15.4187 20.4895 16.8104 19.6079C17.1428 19.8543 17.5544 20 18 20C19.1046 20 20 19.1046 20 18C20 17.5544 19.8543 17.1428 19.6079 16.8104ZM12 9.5C10.6193 9.5 9.5 10.6193 9.5 12C9.5 13.3807 10.6193 14.5 12 14.5C13.3807 14.5 14.5 13.3807 14.5 12C14.5 10.6193 13.3807 9.5 12 9.5ZM8.5 12C8.5 10.067 10.067 8.5 12 8.5C13.933 8.5 15.5 10.067 15.5 12C15.5 13.933 13.933 15.5 12 15.5C10.067 15.5 8.5 13.933 8.5 12ZM17 18C17 17.4477 17.4477 17 18 17C18.5523 17 19 17.4477 19 18C19 18.5523 18.5523 19 18 19C17.4477 19 17 18.5523 17 18Z" fill="#2B2B2C"/>
</svg>
