<svg width="30" height="30" viewBox="0 0 30 30" fill="none" xmlns="http://www.w3.org/2000/svg">
<path fill-rule="evenodd" clip-rule="evenodd" d="M15 4C15.2761 4 15.5 4.22386 15.5 4.5V8.43248L17.6799 6.61589C17.8921 6.43911 18.2073 6.46777 18.3841 6.67991C18.5609 6.89205 18.5322 7.20733 18.3201 7.38411L15.5 9.73419V14.134L19.3103 11.9341L19.9355 8.31677C19.9825 8.04466 20.2412 7.8622 20.5133 7.90923C20.7854 7.95626 20.9679 8.21497 20.9209 8.48708L20.4376 11.2832L23.8432 9.31699C24.0824 9.17892 24.3882 9.26086 24.5262 9.5C24.6643 9.73915 24.5824 10.0449 24.3432 10.183L20.9376 12.1493L23.6008 13.1288C23.8599 13.2241 23.9928 13.5115 23.8974 13.7707C23.8021 14.0298 23.5147 14.1627 23.2556 14.0673L19.8103 12.8001L16 15L19.8103 17.1999L23.2556 15.9327C23.5148 15.8373 23.8022 15.9702 23.8975 16.2293C23.9928 16.4885 23.86 16.7759 23.6008 16.8712L20.9377 17.8507L24.3433 19.817C24.5824 19.9551 24.6644 20.2609 24.5263 20.5C24.3882 20.7391 24.0824 20.8211 23.8433 20.683L20.4377 18.7168L20.9209 21.5129C20.9679 21.785 20.7855 22.0437 20.5134 22.0908C20.2413 22.1378 19.9826 21.9553 19.9355 21.6832L19.3103 18.0659L15.5 15.866V20.2658L18.3201 22.6159C18.5322 22.7927 18.5609 23.108 18.3841 23.3201C18.2073 23.5322 17.8921 23.5609 17.6799 23.3841L15.5 21.5675V25.5C15.5 25.7761 15.2761 26 15 26C14.7239 26 14.5 25.7761 14.5 25.5V21.5675L12.3201 23.3841C12.108 23.5609 11.7927 23.5322 11.6159 23.3201C11.4391 23.108 11.4678 22.7927 11.6799 22.6159L14.5 20.2658V15.866L10.6896 18.0659L10.0645 21.6832C10.0174 21.9553 9.75872 22.1378 9.48661 22.0908C9.2145 22.0437 9.03204 21.785 9.07907 21.5129L9.56233 18.7168L6.1567 20.683C5.91755 20.8211 5.61176 20.7391 5.47369 20.5C5.33562 20.2609 5.41755 19.9551 5.6567 19.817L9.06233 17.8507L6.39916 16.8712C6.13999 16.7759 6.00717 16.4885 6.1025 16.2293C6.19783 15.9702 6.4852 15.8373 6.74437 15.9327L10.1896 17.1999L14 15L10.1897 12.8001L6.74442 14.0673C6.48525 14.1627 6.19788 14.0298 6.10255 13.7707C6.00722 13.5115 6.14004 13.2241 6.39921 13.1288L9.06238 12.1493L5.65675 10.183C5.4176 10.0449 5.33567 9.73915 5.47374 9.5C5.61181 9.26085 5.9176 9.17892 6.15675 9.31699L9.56238 11.2832L9.07912 8.48708C9.03209 8.21497 9.21455 7.95626 9.48666 7.90923C9.75877 7.8622 10.0175 8.04466 10.0645 8.31677L10.6897 11.9341L14.5 14.134V9.73419L11.6799 7.38411C11.4678 7.20733 11.4391 6.89205 11.6159 6.67991C11.7927 6.46777 12.108 6.43911 12.3201 6.61589L14.5 8.43248V4.5C14.5 4.22386 14.7239 4 15 4Z" fill="#2B2B2C"/>
<path d="M8.125 4.375C8.125 4.72018 7.84518 5 7.5 5C7.15482 5 6.875 4.72018 6.875 4.375C6.875 4.02982 7.15482 3.75 7.5 3.75C7.84518 3.75 8.125 4.02982 8.125 4.375Z" fill="#2B2B2C"/>
<path d="M5 15C5 15.3452 4.72018 15.625 4.375 15.625C4.02982 15.625 3.75 15.3452 3.75 15C3.75 14.6548 4.02982 14.375 4.375 14.375C4.72018 14.375 5 14.6548 5 15Z" fill="#2B2B2C"/>
<path d="M8.75 24.375C8.75 24.7202 8.47018 25 8.125 25C7.77982 25 7.5 24.7202 7.5 24.375C7.5 24.0298 7.77982 23.75 8.125 23.75C8.47018 23.75 8.75 24.0298 8.75 24.375Z" fill="#2B2B2C"/>
<path d="M25.625 25C25.625 25.3452 25.3452 25.625 25 25.625C24.6548 25.625 24.375 25.3452 24.375 25C24.375 24.6548 24.6548 24.375 25 24.375C25.3452 24.375 25.625 24.6548 25.625 25Z" fill="#2B2B2C"/>
<path d="M27.5 13.125C27.5 13.4702 27.2202 13.75 26.875 13.75C26.5298 13.75 26.25 13.4702 26.25 13.125C26.25 12.7798 26.5298 12.5 26.875 12.5C27.2202 12.5 27.5 12.7798 27.5 13.125Z" fill="#2B2B2C"/>
<path d="M23.125 5.625C23.125 5.97018 22.8452 6.25 22.5 6.25C22.1548 6.25 21.875 5.97018 21.875 5.625C21.875 5.27982 22.1548 5 22.5 5C22.8452 5 23.125 5.27982 23.125 5.625Z" fill="#2B2B2C"/>
</svg>
