<svg width="18" height="18" viewBox="0 0 18 18" fill="none" xmlns="http://www.w3.org/2000/svg">
<path fill-rule="evenodd" clip-rule="evenodd" d="M9.00002 2.25C9.41423 2.25 9.75002 2.58579 9.75002 3V4.18934L9.96969 3.96967C10.2626 3.67678 10.7375 3.67678 11.0303 3.96967C11.3232 4.26256 11.3232 4.73744 11.0303 5.03033L9.75002 6.31066V7.70094L10.954 7.00581L11.4227 5.25684C11.5299 4.85674 11.9411 4.61931 12.3412 4.72651C12.7413 4.83372 12.9788 5.24497 12.8715 5.64507L12.7911 5.94515L13.8211 5.35048C14.1799 5.14337 14.6386 5.26628 14.8457 5.62499C15.0528 5.98371 14.9299 6.44241 14.5711 6.64951L13.5411 7.24418L13.8412 7.32459C14.2413 7.43179 14.4788 7.84305 14.3715 8.24315C14.2643 8.64325 13.8531 8.88068 13.453 8.77348L11.704 8.30484L10.5 8.99998L11.7041 9.69515L13.453 9.22651C13.8531 9.11931 14.2644 9.35674 14.3716 9.75684C14.4788 10.1569 14.2414 10.5682 13.8413 10.6754L13.5412 10.7558L14.5712 11.3505C14.9299 11.5576 15.0528 12.0163 14.8457 12.375C14.6386 12.7337 14.1799 12.8566 13.8212 12.6495L12.7912 12.0548L12.8716 12.3549C12.9788 12.755 12.7414 13.1663 12.3413 13.2735C11.9412 13.3807 11.5299 13.1432 11.4227 12.7431L10.9541 10.9942L9.75002 10.299V11.6893L11.0303 12.9697C11.3232 13.2626 11.3232 13.7374 11.0303 14.0303C10.7375 14.3232 10.2626 14.3232 9.96969 14.0303L9.75002 13.8107V15C9.75002 15.4142 9.41423 15.75 9.00002 15.75C8.5858 15.75 8.25002 15.4142 8.25002 15V13.8107L8.03035 14.0303C7.73746 14.3232 7.26258 14.3232 6.96969 14.0303C6.6768 13.7374 6.6768 13.2626 6.96969 12.9697L8.25002 11.6893V10.299L7.04595 10.9942L6.57732 12.7431C6.47011 13.1432 6.05886 13.3807 5.65876 13.2735C5.25866 13.1663 5.02122 12.755 5.12843 12.3549L5.20883 12.0548L4.17884 12.6495C3.82012 12.8566 3.36142 12.7337 3.15432 12.375C2.94721 12.0163 3.07012 11.5576 3.42884 11.3505L4.45883 10.7558L4.15876 10.6754C3.75866 10.5682 3.52122 10.1569 3.62843 9.75684C3.73564 9.35674 4.14689 9.11931 4.54699 9.22651L6.29595 9.69515L7.50002 8.99998L6.29601 8.30484L4.54705 8.77348C4.14695 8.88068 3.7357 8.64325 3.62849 8.24315C3.52128 7.84305 3.75872 7.43179 4.15882 7.32459L4.4589 7.24418L3.4289 6.64951C3.07018 6.44241 2.94727 5.98371 3.15438 5.62499C3.36149 5.26627 3.82018 5.14337 4.1789 5.35047L5.2089 5.94515L5.12849 5.64507C5.02129 5.24497 5.25872 4.83372 5.65882 4.72651C6.05892 4.6193 6.47017 4.85674 6.57738 5.25684L7.04601 7.0058L8.25002 7.70094V6.31066L6.96969 5.03033C6.6768 4.73744 6.6768 4.26256 6.96969 3.96967C7.26258 3.67678 7.73746 3.67678 8.03035 3.96967L8.25002 4.18934V3C8.25002 2.58579 8.5858 2.25 9.00002 2.25Z" fill="#2B2B2C"/>
<path d="M5 2.5C5 2.77614 4.77614 3 4.5 3C4.22386 3 4 2.77614 4 2.5C4 2.22386 4.22386 2 4.5 2C4.77614 2 5 2.22386 5 2.5Z" fill="#2B2B2C"/>
<path d="M14 3C14 3.27614 13.7761 3.5 13.5 3.5C13.2239 3.5 13 3.27614 13 3C13 2.72386 13.2239 2.5 13.5 2.5C13.7761 2.5 14 2.72386 14 3Z" fill="#2B2B2C"/>
<path d="M15.5 15C15.5 15.2761 15.2761 15.5 15 15.5C14.7239 15.5 14.5 15.2761 14.5 15C14.5 14.7239 14.7239 14.5 15 14.5C15.2761 14.5 15.5 14.7239 15.5 15Z" fill="#2B2B2C"/>
<path d="M5.5 14.5C5.5 14.7761 5.27614 15 5 15C4.72386 15 4.5 14.7761 4.5 14.5C4.5 14.2239 4.72386 14 5 14C5.27614 14 5.5 14.2239 5.5 14.5Z" fill="#2B2B2C"/>
<path d="M3 9C3 9.27614 2.77614 9.5 2.5 9.5C2.22386 9.5 2 9.27614 2 9C2 8.72386 2.22386 8.5 2.5 8.5C2.77614 8.5 3 8.72386 3 9Z" fill="#2B2B2C"/>
<path d="M16.5 8C16.5 8.27614 16.2761 8.5 16 8.5C15.7239 8.5 15.5 8.27614 15.5 8C15.5 7.72386 15.7239 7.5 16 7.5C16.2761 7.5 16.5 7.72386 16.5 8Z" fill="#2B2B2C"/>
</svg>
