<svg width="18" height="18" viewBox="0 0 18 18" fill="none" xmlns="http://www.w3.org/2000/svg">
<path fill-rule="evenodd" clip-rule="evenodd" d="M9.00004 0.75C9.41426 0.75 9.75004 1.08579 9.75004 1.5V3.5L10.55 2.9C10.8814 2.65147 11.3515 2.71863 11.6 3.05C11.8486 3.38137 11.7814 3.85147 11.45 4.1L9.75004 5.375V7.70093L11.7643 6.538L12.0185 4.42825C12.068 4.01701 12.4416 3.7238 12.8528 3.77335C13.2641 3.8229 13.5573 4.19644 13.5077 4.60768L13.3881 5.6005L15.1202 4.6005C15.4789 4.39339 15.9376 4.5163 16.1447 4.87502C16.3518 5.23374 16.2289 5.69243 15.8702 5.89954L14.1381 6.89954L15.0577 7.29236C15.4386 7.45507 15.6155 7.89577 15.4528 8.27668C15.2901 8.6576 14.8494 8.83449 14.4685 8.67178L12.5143 7.83704L10.5 9L12.5299 10.172L14.6037 9.37981C14.9907 9.232 15.4242 9.42586 15.572 9.8128C15.7198 10.1997 15.5259 10.6333 15.139 10.7811L14.2037 11.1383L15.8701 12.1005C16.2289 12.3076 16.3518 12.7663 16.1447 13.125C15.9376 13.4837 15.4789 13.6066 15.1201 13.3995L13.4537 12.4374L13.6119 13.426C13.6774 13.835 13.3989 14.2196 12.9899 14.2851C12.5809 14.3506 12.1962 14.0721 12.1308 13.6631L11.7799 11.471L9.75004 10.2991V12.643L11.473 14.0429C11.7945 14.3041 11.8433 14.7765 11.5821 15.0979C11.3209 15.4194 10.8486 15.4683 10.5271 15.2071L9.75004 14.5757V16.5C9.75004 16.9142 9.41426 17.25 9.00004 17.25C8.58583 17.25 8.25004 16.9142 8.25004 16.5V14.5757L7.47299 15.2071C7.15151 15.4683 6.67916 15.4194 6.41796 15.0979C6.15676 14.7765 6.20562 14.3041 6.5271 14.0429L8.25004 12.643V10.299L6.22001 11.471L5.86914 13.6631C5.80368 14.0721 5.41904 14.3506 5.01003 14.2851C4.60102 14.2197 4.32253 13.835 4.388 13.426L4.54624 12.4374L2.87977 13.3995C2.52105 13.6066 2.06236 13.4837 1.85525 13.125C1.64815 12.7663 1.77105 12.3076 2.12977 12.1005L3.79624 11.1384L2.86094 10.7811C2.474 10.6333 2.28014 10.1998 2.42795 9.81284C2.57575 9.42589 3.00925 9.23203 3.3962 9.37984L5.47001 10.172L7.49999 9L5.48561 7.837L3.53143 8.67175C3.15051 8.83446 2.70982 8.65757 2.5471 8.27665C2.38439 7.89573 2.56128 7.45503 2.9422 7.29232L3.86181 6.8995L2.12976 5.8995C1.77104 5.6924 1.64814 5.2337 1.85524 4.87498C2.06235 4.51626 2.52104 4.39336 2.87976 4.60046L4.61181 5.60046L4.4922 4.60764C4.44265 4.1964 4.73586 3.82286 5.1471 3.77332C5.55834 3.72377 5.93188 4.01698 5.98143 4.42822L6.23561 6.53796L8.25004 7.701V5.375L6.55004 4.1C6.21867 3.85147 6.15151 3.38137 6.40004 3.05C6.64857 2.71863 7.11867 2.65147 7.45004 2.9L8.25004 3.5V1.5C8.25004 1.08579 8.58583 0.75 9.00004 0.75Z" fill="#2B2B2C"/>
</svg>
