<svg width="30" height="30" viewBox="0 0 30 30" fill="none" xmlns="http://www.w3.org/2000/svg">
<circle cx="19.5" cy="16.5" r="0.5" fill="#2B2B2C"/>
<path d="M22.5 15.5C22.5 15.7761 22.2761 16 22 16C21.7239 16 21.5 15.7761 21.5 15.5C21.5 15.2239 21.7239 15 22 15C22.2761 15 22.5 15.2239 22.5 15.5Z" fill="#2B2B2C"/>
<path d="M24.5 17C24.5 17.2761 24.2761 17.5 24 17.5C23.7239 17.5 23.5 17.2761 23.5 17C23.5 16.7239 23.7239 16.5 24 16.5C24.2761 16.5 24.5 16.7239 24.5 17Z" fill="#2B2B2C"/>
<path fill-rule="evenodd" clip-rule="evenodd" d="M5 5.5C5 5.22386 5.22386 5 5.5 5H13C13.2761 5 13.5 5.22386 13.5 5.5V7.5H15C15.2761 7.5 15.5 7.72386 15.5 8V10.5C15.5 10.7761 15.2761 11 15 11H14.5001C14.5001 11.0183 14.499 11.0367 14.497 11.0553L12.997 24.5553C12.9689 24.8085 12.7548 25 12.5 25H6.00004C5.74527 25 5.53124 24.8085 5.5031 24.5553L4.0031 11.0553C4.00104 11.0367 4.00002 11.0183 4 11H3.5C3.22386 11 3 10.7761 3 10.5V8C3 7.72386 3.22386 7.5 3.5 7.5H5V5.5ZM5.00312 11H13.497L12.0525 24H6.44757L5.00312 11ZM26.8327 19.0287L26.3806 19.1794C25.8858 19.3443 25.3415 19.256 24.9241 18.943C24.0818 18.3112 22.9408 18.2524 22.0379 18.7941L21.9217 18.8639C21.3544 19.2042 20.6457 19.2042 20.0784 18.8639L20.0406 18.8412C19.0992 18.2763 17.9187 18.2995 17.0008 18.8987C17.0165 17.9196 17.2616 16.7123 17.966 15.7502C18.6754 14.781 19.8937 14 22 14C23.8607 14 25.0902 14.6907 25.864 15.6304C26.6504 16.5852 26.9996 17.8396 27 18.9983L26.9959 18.999C26.9944 18.9993 26.9929 18.9995 26.9917 18.9996C26.9909 18.9997 26.9902 18.9998 26.9896 18.9999C26.9598 19.0005 26.9297 19.0039 26.8996 19.0101C26.8837 19.0133 26.868 19.0173 26.8526 19.0221C26.8459 19.0241 26.8393 19.0263 26.8327 19.0287ZM26.9993 18.9998L26.9994 18.9995L26.9996 18.9991C26.9998 18.9988 27 18.9985 27 18.9983C27.0122 18.9959 27.0223 18.9923 27.0269 18.99L27.0268 18.9901C27.0261 18.9905 27.0212 18.9935 27.0151 19L27.0151 19C27.0098 18.9999 27.0046 18.9998 26.9993 18.9998ZM27.0994 19.9939C27.1177 19.9918 27.1382 19.9891 27.1603 19.9854C27.2399 19.9721 27.3537 19.9446 27.4736 19.8847C27.5954 19.8238 27.7324 19.7246 27.8379 19.5664C27.9454 19.4051 28 19.2125 28 19C28 17.6591 27.5992 16.1643 26.636 14.9946C25.6598 13.8093 24.1393 13 22 13C19.6063 13 18.0746 13.9087 17.159 15.1595C16.2629 16.3837 16 17.8756 16 19C16 19.1633 16.0449 19.3972 16.1942 19.6047C16.3619 19.8376 16.637 20 17 20C17.0093 20 17.0186 19.9997 17.0279 19.9992C17.0339 19.9989 17.0399 19.9985 17.0458 19.9979C17.0603 19.9966 17.0745 19.9947 17.0886 19.9922L18.0098 24.5982C18.0565 24.8319 18.2618 25.0001 18.5001 25.0001H25.5001C25.7344 25.0001 25.9374 24.8373 25.9882 24.6086L26.9882 20.1086C26.9942 20.0813 26.9979 20.0541 26.9994 20.0272L27.0994 19.9939Z" fill="#2B2B2C"/>
</svg>
