<svg width="30" height="30" viewBox="0 0 30 30" fill="none" xmlns="http://www.w3.org/2000/svg">
<circle cx="19.5" cy="16.5" r="0.5" fill="#2B2B2C"/>
<path d="M22.5 15.5C22.5 15.7761 22.2761 16 22 16C21.7239 16 21.5 15.7761 21.5 15.5C21.5 15.2239 21.7239 15 22 15C22.2761 15 22.5 15.2239 22.5 15.5Z" fill="#2B2B2C"/>
<path d="M24.5 17C24.5 17.2761 24.2761 17.5 24 17.5C23.7239 17.5 23.5 17.2761 23.5 17C23.5 16.7239 23.7239 16.5 24 16.5C24.2761 16.5 24.5 16.7239 24.5 17Z" fill="#2B2B2C"/>
<path fill-rule="evenodd" clip-rule="evenodd" d="M5.5 5C5.22386 5 5 5.22386 5 5.5V7.5H3.5C3.22386 7.5 3 7.72386 3 8V10.5C3 10.7761 3.22386 11 3.5 11H4C4.00002 11.0183 4.00104 11.0367 4.0031 11.0553L5.5031 24.5553C5.53124 24.8085 5.74527 25 6.00004 25H12.5C12.7548 25 12.9689 24.8085 12.997 24.5553L14.497 11.0553C14.499 11.0367 14.5001 11.0183 14.5001 11H15C15.2761 11 15.5 10.7761 15.5 10.5V8C15.5 7.72386 15.2761 7.5 15 7.5H13.5V5.5C13.5 5.22386 13.2761 5 13 5H5.5ZM12.5 7.5V6H6V7.5H12.5ZM13.497 11H5.00312L6.44757 24H12.0525L13.497 11ZM5.5 8.5H4V10H14.5V8.5H13H5.5ZM17.0008 18.8987C17.9187 18.2995 19.0992 18.2763 20.0406 18.8412L20.0784 18.8639C20.6457 19.2042 21.3544 19.2042 21.9217 18.8639L22.0379 18.7941C22.9408 18.2524 24.0818 18.3112 24.9241 18.943C25.3415 19.256 25.8858 19.3443 26.3806 19.1794L26.8327 19.0287C26.8393 19.0263 26.8459 19.0241 26.8526 19.0221C26.868 19.0173 26.8837 19.0133 26.8996 19.0101C26.9297 19.0039 26.9598 19.0005 26.9896 18.9999C26.9913 18.9997 26.9934 18.9994 26.9959 18.999L27 18.9983C27 18.9988 26.9994 18.9993 26.9993 18.9998C27.0045 18.9998 27.0098 18.9999 27.0151 19C27.0151 19 27.0151 19 27.0151 19C27.0218 18.993 27.0269 18.99 27.0269 18.99C27.0223 18.9923 27.0122 18.9959 27 18.9983C26.9996 17.8396 26.6504 16.5852 25.864 15.6304C25.0902 14.6907 23.8607 14 22 14C19.8937 14 18.6754 14.781 17.966 15.7502C17.2616 16.7123 17.0165 17.9196 17.0008 18.8987ZM17.0279 19.9992C17.0186 19.9997 17.0093 20 17 20C16.637 20 16.3619 19.8376 16.1942 19.6047C16.0449 19.3972 16 19.1633 16 19C16 17.8756 16.2629 16.3837 17.159 15.1595C18.0746 13.9087 19.6063 13 22 13C24.1393 13 25.6598 13.8093 26.636 14.9946C27.5992 16.1643 28 17.6591 28 19C28 19.2125 27.9454 19.4051 27.8379 19.5664C27.7324 19.7246 27.5954 19.8238 27.4736 19.8847C27.3537 19.9446 27.2399 19.9721 27.1603 19.9854C27.1382 19.9891 27.1177 19.9918 27.0994 19.9939L26.9994 20.0272C26.9979 20.0541 26.9942 20.0813 26.9882 20.1086L25.9882 24.6086C25.9374 24.8373 25.7344 25.0001 25.5001 25.0001H18.5001C18.2618 25.0001 18.0565 24.8319 18.0098 24.5982L17.0886 19.9922C17.0745 19.9947 17.0603 19.9966 17.0458 19.9979C17.0399 19.9985 17.0339 19.9989 17.0279 19.9992ZM18.0133 19.5168L18.91 24.0001H25.099L25.93 20.2604C25.3592 20.2719 24.7926 20.0943 24.3241 19.743C23.8071 19.3552 23.1067 19.3191 22.5524 19.6516L22.4362 19.7214C21.5522 20.2517 20.4479 20.2517 19.5639 19.7214L19.5261 19.6987C19.0637 19.4212 18.5127 19.3617 18.0133 19.5168Z" fill="#2B2B2C"/>
</svg>
