<svg width="24" height="24" viewBox="0 0 24 24" fill="none" xmlns="http://www.w3.org/2000/svg">
<circle cx="15.5" cy="12.5" r="0.5" fill="#2B2B2C"/>
<path d="M18.5 12C18.5 12.2761 18.2761 12.5 18 12.5C17.7238 12.5 17.5 12.2761 17.5 12C17.5 11.7238 17.7239 11.5 18 11.5C18.2761 11.5 18.5 11.7239 18.5 12Z" fill="#2B2B2C"/>
<path fill-rule="evenodd" clip-rule="evenodd" d="M4 4.5C3.72386 4.5 3.5 4.72386 3.5 5V6.5H3C2.72386 6.5 2.5 6.72386 2.5 7V9C2.5 9.27614 2.72386 9.5 3 9.5H3.5C3.50002 9.51646 3.50085 9.53307 3.50252 9.54979L4.50252 19.5498C4.52808 19.8054 4.74316 20 5.00004 20H10C10.2569 20 10.472 19.8054 10.4976 19.5498L11.4976 9.54979C11.4992 9.53307 11.5001 9.51646 11.5001 9.5H12C12.2761 9.5 12.5 9.27614 12.5 9V7C12.5 6.72386 12.2761 6.5 12 6.5H11.5V5C11.5 4.72386 11.2761 4.5 11 4.5H4ZM5.45253 19L4.50253 9.5H10.4975L9.54754 19H5.45253Z" fill="#2B2B2C"/>
<path fill-rule="evenodd" clip-rule="evenodd" d="M13.5596 14.2865L13 14.473C13.0053 13.3317 13.3502 12.3473 13.9924 11.6516C14.6335 10.9571 15.6171 10.5 17 10.5C18.3828 10.5 19.3664 10.9571 20.0076 11.6516C20.6517 12.3495 20.9967 13.3379 20.9999 14.4838C20.9985 14.4872 20.9959 14.4925 20.9916 14.5C20.936 14.5008 20.8818 14.5111 20.8309 14.5294L20.124 14.765C19.7768 14.8808 19.3957 14.8297 19.0912 14.6267C18.4386 14.1916 17.6028 14.1396 16.9013 14.4904L16.6513 14.6154C16.2707 14.8057 15.8173 14.7775 15.4633 14.5414C14.902 14.1673 14.1995 14.0732 13.5596 14.2865ZM12.6218 15.6032C12.5696 15.5578 12.5198 15.5105 12.4731 15.4625C12.3466 15.3323 12.2286 15.1821 12.1426 15.0279C12.0744 14.9057 11.9802 14.7005 12 14.4715C12.0057 13.1351 12.4108 11.8907 13.2576 10.9734C14.1164 10.0429 15.3828 9.5 17 9.5C18.6171 9.5 19.8835 10.0429 20.7424 10.9734C21.5951 11.8972 22 13.1528 22 14.5C22 14.789 21.8591 15.0234 21.7342 15.1795C21.6332 15.3058 21.5136 15.4171 21.3988 15.5104L20.4881 19.6085C20.4373 19.8372 20.2343 20 20 20H14C13.7657 20 13.5627 19.8372 13.5119 19.6085L12.6218 15.6032Z" fill="#2B2B2C"/>
</svg>
