<svg width="24" height="24" viewBox="0 0 24 24" fill="none" xmlns="http://www.w3.org/2000/svg">
<path fill-rule="evenodd" clip-rule="evenodd" d="M5.5 3.5C5.5 3.22386 5.72386 3 6 3H19C19.8284 3 20.5 3.67157 20.5 4.5C20.5 5.32843 19.8284 6 19 6H17.3385L16.4642 8.1857C16.3883 8.37552 16.2045 8.5 16 8.5H15V11H17C17.2761 11 17.5 11.2239 17.5 11.5V12H17.75C18.7165 12 19.5 12.7835 19.5 13.75C19.5 14.7165 18.7165 15.5 17.75 15.5H17.3293C17.1108 16.118 16.6956 16.6431 16.1589 17H20C20.2761 17 20.5 17.2239 20.5 17.5V20.5C20.5 20.7761 20.2761 21 20 21H3.5C3.35254 21 3.2126 20.9349 3.11759 20.8221C3.02259 20.7093 2.98222 20.5604 3.00727 20.415L5.5 5.95721V3.5ZM13 8.5H14V11H12C11.7239 11 11.5 11.2239 11.5 11.5V14.5C11.5 15.5435 12.0328 16.4625 12.8411 17H9V6H11.6615L12.5358 8.1857C12.6117 8.37552 12.7956 8.5 13 8.5ZM17.5 14.5H17.75C18.1642 14.5 18.5 14.1642 18.5 13.75C18.5 13.3358 18.1642 13 17.75 13H17.5V14.5ZM12.5 12V14.5C12.5 15.6046 13.3954 16.5 14.5 16.5C15.6046 16.5 16.5 15.6046 16.5 14.5V12H12.5ZM7.25 18.75C7.25 19.1642 6.91421 19.5 6.5 19.5C6.08579 19.5 5.75 19.1642 5.75 18.75C5.75 18.3358 6.08579 18 6.5 18C6.91421 18 7.25 18.3358 7.25 18.75Z" fill="#2B2B2C"/>
</svg>
