<svg width="24" height="24" viewBox="0 0 24 24" fill="none" xmlns="http://www.w3.org/2000/svg">
<path fill-rule="evenodd" clip-rule="evenodd" d="M12.4021 2.75954C12.6371 2.6194 12.716 2.31584 12.5781 2.07875C12.4393 1.84005 12.1332 1.75911 11.8945 1.89797L12.1319 2.30612C11.8945 1.89797 11.8943 1.89807 11.8941 1.89818L11.8938 1.89841L11.8929 1.89888L11.8911 1.89994L11.8868 1.90251L11.8755 1.90941C11.8668 1.9148 11.8559 1.92179 11.8429 1.93039C11.817 1.94756 11.783 1.97134 11.7433 2.00186C11.6646 2.06256 11.561 2.15201 11.4552 2.27169C11.2438 2.51089 11.0115 2.88536 10.9723 3.39503C10.9242 4.01998 11.3124 4.46394 11.5536 4.73975L11.5845 4.77514C11.8733 5.10707 12 5.27989 12 5.49996C12 5.67258 11.9103 5.80387 11.651 6.06721C11.6348 6.08368 11.6173 6.10117 11.5987 6.11968C11.3793 6.33852 11.0159 6.70101 10.9725 7.22916C10.9042 8.06036 11.3968 8.62585 11.6739 8.86135C11.8843 9.0402 12.1998 9.01462 12.3787 8.80422C12.5575 8.59382 12.532 8.27827 12.3216 8.09942C12.1595 7.96168 11.9386 7.68198 11.9691 7.31108C11.9805 7.17323 12.0715 7.06542 12.3636 6.76884L12.3675 6.76485C12.6085 6.5201 13 6.12259 13 5.49996C13 4.87488 12.6163 4.43609 12.3715 4.15611L12.3389 4.11875C12.0456 3.78168 11.9564 3.64042 11.9693 3.47181C11.9874 3.23762 12.0927 3.06046 12.2045 2.93399C12.2603 2.87084 12.3148 2.82395 12.3537 2.79401C12.3729 2.77922 12.3875 2.76911 12.3956 2.76372L12.4021 2.75954ZM4 10C3.85658 10 3.72007 10.0616 3.62516 10.1691C3.53025 10.2766 3.48607 10.4197 3.50386 10.562L3.95638 14.1822C4.30043 16.9345 6.64013 19 9.41391 19H12.0861C14.8599 19 17.1996 16.9345 17.5436 14.1822L17.5572 14.0735C18.0156 14.6387 18.7156 15 19.5 15C20.8807 15 22 13.8807 22 12.5C22 11.1193 20.8807 10 19.5 10C18.9372 10 18.4178 10.186 18 10.4998C18 10.3787 17.9559 10.2609 17.8748 10.1691C17.7799 10.0616 17.6434 10 17.5 10H4ZM4.94866 14.0582L4.56639 11H16.9336L16.5513 14.0582C16.2698 16.3101 14.3555 18 12.0861 18H9.41391C7.14446 18 5.23015 16.3101 4.94866 14.0582ZM3.5 20C3.22386 20 3 20.2239 3 20.5C3 20.7761 3.22386 21 3.5 21H18C18.2761 21 18.5 20.7761 18.5 20.5C18.5 20.2239 18.2761 20 18 20H3.5ZM18 12.5C18 11.6716 18.6716 11 19.5 11C20.3284 11 21 11.6716 21 12.5C21 13.3284 20.3284 14 19.5 14C18.6716 14 18 13.3284 18 12.5ZM10.0389 4.3682C9.86834 4.15103 9.55402 4.11324 9.33684 4.28379C9.11967 4.45435 9.08188 4.76867 9.25243 4.98584C9.42983 5.21173 9.50228 5.37076 9.50228 5.51947C9.50228 5.69209 9.41264 5.82338 9.15334 6.08673C9.13712 6.1032 9.11959 6.12068 9.10103 6.13919C8.88163 6.35803 8.51822 6.72052 8.47481 7.24868C8.40649 8.07988 8.89916 8.64536 9.17622 8.88087C9.38662 9.05971 9.70216 9.03413 9.88101 8.82373C10.0599 8.61333 10.0343 8.29778 9.82388 8.11894C9.66184 7.9812 9.44096 7.70149 9.47145 7.3306C9.48278 7.19274 9.57384 7.08494 9.86588 6.78835L9.86981 6.78436C10.1108 6.53961 10.5023 6.1421 10.5023 5.51947C10.5023 5.02416 10.2526 4.64033 10.0389 4.3682Z" fill="#2B2B2C"/>
</svg>
