<svg width="18" height="18" viewBox="0 0 18 18" fill="none" xmlns="http://www.w3.org/2000/svg">
<path fill-rule="evenodd" clip-rule="evenodd" d="M4 2.5C4 2.22386 4.22386 2 4.5 2H14.75C15.4404 2 16 2.55964 16 3.25C16 3.94036 15.4404 4.5 14.75 4.5H12.8904L12.4851 6.12127C12.4294 6.34385 12.2294 6.5 12 6.5H11.5V8H13C13.2761 8 13.5 8.22386 13.5 8.5V9H14C14.8284 9 15.5 9.67157 15.5 10.5C15.5 11.3284 14.8284 12 14 12H13.292C13.118 12.3981 12.8434 12.7422 12.5002 13H15.5C15.7761 13 16 13.2239 16 13.5V15.5C16 15.7761 15.7761 16 15.5 16H2.5C2.35241 16 2.21236 15.9348 2.11736 15.8218C2.02236 15.7089 1.98211 15.5597 2.0074 15.4143L4 3.95685V2.5ZM9.99999 6.5H10.5V8H9C8.72386 8 8.5 8.22386 8.5 8.5V11C8.5 11.8178 8.89267 12.5439 9.49976 13H7V4.5H9.10961L9.51492 6.12126C9.57056 6.34385 9.77055 6.5 9.99999 6.5ZM13.5 11H14C14.2761 11 14.5 10.7761 14.5 10.5C14.5 10.2239 14.2761 10 14 10H13.5V11ZM9.5 9V11C9.5 11.8284 10.1716 12.5 11 12.5C11.8284 12.5 12.5 11.8284 12.5 11V9H9.5ZM5 14C5 14.2761 4.77614 14.5 4.5 14.5C4.22386 14.5 4 14.2761 4 14C4 13.7239 4.22386 13.5 4.5 13.5C4.77614 13.5 5 13.7239 5 14Z" fill="#2B2B2C"/>
</svg>
