<svg width="30" height="30" viewBox="0 0 30 30" fill="none" xmlns="http://www.w3.org/2000/svg">
<path fill-rule="evenodd" clip-rule="evenodd" d="M9.10362 4.10367C9.32257 3.88472 9.67756 3.88472 9.89651 4.10367L11.0001 5.20722L12.1036 4.10367C12.3226 3.88472 12.6776 3.88472 12.8965 4.10367C13.1155 4.32262 13.1155 4.67761 12.8965 4.89656L11.0001 6.79301L9.10362 4.89656C8.88467 4.67761 8.88467 4.32262 9.10362 4.10367ZM10.6036 3.39656C9.99414 2.78708 9.00599 2.78708 8.39651 3.39656C7.78703 4.00604 7.78703 4.99419 8.39651 5.60367L11.0001 8.20722L13.6036 5.60367C14.2131 4.99419 14.2131 4.00604 13.6036 3.39656C12.9941 2.78708 12.006 2.78708 11.3965 3.39656L11.0001 3.79301L10.6036 3.39656ZM18.8171 7.39013C19.227 6.9802 19.8796 6.94406 20.3323 7.30621C20.8432 7.71496 20.9049 8.46939 20.4672 8.95574L17.5 12.2527L14.5328 8.95574C14.0951 8.46939 14.1568 7.71496 14.6677 7.30621C15.1204 6.94406 15.773 6.9802 16.183 7.39013L17.5 8.70718L18.8171 7.39013ZM20.957 6.52534C20.1064 5.84488 18.8802 5.91279 18.1099 6.68303L17.5 7.29297L16.8901 6.68303C16.1198 5.91279 14.8936 5.84488 14.043 6.52534C13.1256 7.25925 12.979 8.58626 13.6855 9.50007H7.73424L7.23624 8.90247C6.13188 7.57724 4.0305 7.82114 3.25903 9.36408C2.74202 10.3981 3.03847 11.6539 3.96333 12.3475L4.47157 12.7287L4.13808 15.7301C4.0443 16.5742 4.0443 17.426 4.13808 18.27L4.47157 21.2714L4.25828 21.4314C3.1746 22.2442 2.93797 23.7734 3.72531 24.8757C4.62094 26.1295 6.42811 26.2791 7.51769 25.1895L7.67889 25.0283L8.32578 25.1146C12.7557 25.7052 17.2444 25.7052 21.6743 25.1146L22.3212 25.0283L22.4824 25.1895C23.572 26.2791 25.3792 26.1295 26.2748 24.8757C27.0621 23.7734 26.8255 22.2442 25.7418 21.4314L25.5581 21.2936L25.8132 20.1456C26.2736 18.0738 26.2736 15.9263 25.8132 13.8546L25.5581 12.7065L26.0368 12.3475C26.9616 11.6539 27.2581 10.3981 26.7411 9.36408C25.9696 7.82114 23.8682 7.57724 22.7639 8.90247L22.2659 9.50007H21.3146C22.021 8.58626 21.8744 7.25925 20.957 6.52534ZM8.32428 12.0317C8.58284 11.9348 8.87105 12.0658 8.96801 12.3243L9.28446 13.1682C10.0907 15.3181 10.1699 17.6729 9.51018 19.8722L8.97875 21.6436C8.89941 21.9081 8.62066 22.0582 8.35617 21.9788C8.09167 21.8995 7.94158 21.6207 8.02093 21.3562L8.55235 19.5848C9.14928 17.595 9.07755 15.4644 8.34813 13.5193L8.03168 12.6755C7.93472 12.4169 8.06572 12.1287 8.32428 12.0317Z" fill="#2B2B2C"/>
</svg>
