<svg width="18" height="18" viewBox="0 0 18 18" fill="none" xmlns="http://www.w3.org/2000/svg">
<path fill-rule="evenodd" clip-rule="evenodd" d="M7.82559 3.31793C7.67333 3.21643 7.47059 3.2365 7.3412 3.3659L6.50003 4.20707L5.65885 3.3659C5.52946 3.2365 5.32672 3.21643 5.17446 3.31793C4.9729 3.45231 4.94466 3.7375 5.11596 3.90879L6.50003 5.29286L7.88409 3.90879C8.05539 3.7375 8.02715 3.45231 7.82559 3.31793ZM6.63409 2.65879C7.10055 2.19233 7.83141 2.11996 8.38029 2.48588C9.10691 2.9703 9.20871 3.99839 8.5912 4.6159L6.76703 6.44006L8.73048 6.39761C8.32143 5.77798 8.47337 4.91681 9.11976 4.48588C9.66864 4.11996 10.3995 4.19233 10.866 4.65879L11 4.79286L11.1341 4.65879C11.6006 4.19233 12.3314 4.11996 12.8803 4.48588C13.5631 4.94111 13.6942 5.87646 13.195 6.5H13.7974C14.497 5.88512 15.6044 6.09038 16.0285 6.93868C16.3523 7.58627 16.1411 8.36149 15.5624 8.76177L15.5786 8.84273C15.8635 10.2668 15.8635 11.7332 15.5786 13.1573L15.543 13.3357L15.6037 13.3965C16.2132 14.0059 16.2132 14.9941 15.6037 15.6036C14.9943 16.213 14.0061 16.213 13.3966 15.6036L13.3166 15.5235L13.1966 15.5368C10.4076 15.8467 7.59281 15.8467 4.8038 15.5368L4.68382 15.5235L4.60375 15.6036C3.99427 16.213 3.00612 16.213 2.39664 15.6036C1.78716 14.9941 1.78716 14.0059 2.39664 13.3965L2.45742 13.3357L2.33349 12.716C2.10693 11.5832 2.10694 10.4168 2.3335 9.28399L2.43794 8.76177C1.85926 8.36149 1.64805 7.58626 1.97184 6.93868C2.39498 6.09239 3.49815 5.8861 4.19795 6.49561L6.24432 6.45137L4.40885 4.6159C3.79134 3.99838 3.89314 2.9703 4.61976 2.48588C5.16864 2.11996 5.8995 2.19233 6.36596 2.65879L6.50003 2.79286L6.63409 2.65879ZM11.8412 5.3659C11.9706 5.2365 12.1733 5.21643 12.3256 5.31793C12.5272 5.45231 12.5554 5.73749 12.3841 5.90879L11 7.29286L9.61596 5.90879C9.44466 5.73749 9.4729 5.45231 9.67446 5.31793C9.82672 5.21643 10.0295 5.2365 10.1588 5.3659L11 6.20707L11.8412 5.3659ZM5.37888 8.51507C5.64678 8.44809 5.91825 8.61097 5.98522 8.87887L6.0911 9.30239C6.36977 10.4171 6.36977 11.5832 6.0911 12.6979L5.98522 13.1214C5.91825 13.3893 5.64678 13.5522 5.37888 13.4852C5.11099 13.4182 4.94811 13.1468 5.01508 12.8789L5.12096 12.4554C5.35982 11.4999 5.35982 10.5004 5.12096 9.54492L5.01508 9.12141C4.94811 8.85351 5.11099 8.58204 5.37888 8.51507Z" fill="#2B2B2C"/>
</svg>
