<svg width="30" height="30" viewBox="0 0 30 30" fill="none" xmlns="http://www.w3.org/2000/svg">
<path fill-rule="evenodd" clip-rule="evenodd" d="M11.3976 9.26527L8.40687 14.0007C8.43786 14.0002 8.4689 14 8.5 14C12.0899 14 15 16.9101 15 20.5C15 24.0899 12.0899 27 8.5 27C4.91015 27 2 24.0899 2 20.5C2 17.3788 4.19987 14.7715 7.13368 14.1438L13.0773 4.73308C13.0848 4.72116 13.0929 4.70957 13.1014 4.69832C13.9265 3.60821 15.8474 2.75549 18.1582 3.52573C19.3678 3.92892 20.8274 4.55138 21.8784 4.99954L22.2067 5.13938C22.9936 5.47387 23.3925 6.28594 23.4661 7.01366C23.5816 8.15514 24.2957 9.88607 27.2444 11.3292C27.734 11.5689 27.9787 12.1792 27.7012 12.7001C27.2895 13.4727 26.8358 14.2117 26.404 14.8539C25.4249 16.3101 23.6076 16.6925 22.046 16.0919L20.3441 15.4374C19.7673 16.6752 19.0001 19.0762 19.0001 23.7314C19.0001 24.0075 18.7762 24.2314 18.5001 24.2314C18.2239 24.2314 18.0001 24.0075 18.0001 23.7314C18.0001 19.0277 18.7657 16.4835 19.4088 15.0776L17.8206 14.4668C17.5628 14.3677 17.4343 14.0784 17.5334 13.8206C17.6325 13.5629 17.9218 13.4343 18.1796 13.5334L22.405 15.1586C23.6097 15.6219 24.8994 15.2994 25.5741 14.2959C25.9884 13.6798 26.4226 12.9725 26.8151 12.2364C26.8133 12.2334 26.81 12.23 26.8048 12.2274C23.5893 10.6537 22.6261 8.64556 22.4712 7.11432C22.421 6.6181 22.1607 6.20641 21.8155 6.0597L21.4873 5.91992L21.4873 5.91991C20.43 5.46916 19.0098 4.8637 17.842 4.47442C17.5664 4.38255 17.3003 4.31898 17.0451 4.27959L17.9951 10.9294C18.0335 11.1982 17.8502 11.4486 17.5823 11.4933C16.8477 11.6157 15.5107 11.4679 14.2501 11.0531C13.2017 10.7082 12.0819 10.1382 11.3976 9.26527ZM11.8536 18.8536C12.0488 18.6583 12.0488 18.3417 11.8536 18.1464C11.6583 17.9512 11.3417 17.9512 11.1464 18.1464L8 21.2929L6.35355 19.6464C6.15829 19.4512 5.84171 19.4512 5.64645 19.6464C5.45118 19.8417 5.45118 20.1583 5.64645 20.3536L7.64645 22.3536C7.84171 22.5488 8.15829 22.5488 8.35355 22.3536L11.8536 18.8536Z" fill="#2B2B2C"/>
</svg>
