<svg width="30" height="30" viewBox="0 0 30 30" fill="none" xmlns="http://www.w3.org/2000/svg">
<path fill-rule="evenodd" clip-rule="evenodd" d="M11.9812 8.34121L13.8915 5.31661C14.2645 4.96093 15.04 4.4559 16.0394 4.31032L16.9285 10.5346C16.3286 10.5251 15.4496 10.3951 14.5626 10.1032C13.408 9.72331 12.4092 9.12402 11.9812 8.34121ZM11.3976 9.26524L8.40682 14.0007C8.43783 14.0002 8.46889 14 8.5 14C12.0899 14 15 16.9101 15 20.5C15 24.0899 12.0899 27 8.5 27C4.91015 27 2 24.0899 2 20.5C2 17.3788 4.19985 14.7715 7.13363 14.1439L13.0773 4.73301C13.0971 4.70169 13.1203 4.67266 13.1465 4.64646C13.8523 3.94069 15.7955 2.73811 18.1582 3.52567C19.3678 3.92886 20.8274 4.55131 21.8784 4.99947L22.2067 5.13931C22.9936 5.4738 23.3925 6.28587 23.4661 7.01359C23.5816 8.15508 24.2957 9.886 27.2444 11.3292C27.734 11.5688 27.9787 12.1791 27.7012 12.7C27.2895 13.4726 26.8358 14.2116 26.404 14.8538C25.4249 16.31 23.6076 16.6925 22.046 16.0919L20.3441 15.4373C19.7673 16.6751 19.0001 19.0762 19.0001 23.7313C19.0001 24.0074 18.7762 24.2313 18.5001 24.2313C18.2239 24.2313 18.0001 24.0074 18.0001 23.7313C18.0001 19.0276 18.7657 16.4834 19.4088 15.0776L17.8206 14.4667C17.5628 14.3676 17.4343 14.0783 17.5334 13.8206C17.6325 13.5628 17.9218 13.4342 18.1796 13.5334L22.405 15.1585C23.6097 15.6219 24.8994 15.2993 25.5741 14.2959C25.9884 13.6798 26.4226 12.9724 26.8151 12.2364C26.8133 12.2334 26.81 12.2299 26.8048 12.2274C23.5893 10.6536 22.6261 8.64549 22.4712 7.11425C22.421 6.61803 22.1607 6.20634 21.8155 6.05963L21.4873 5.91985C20.43 5.46909 19.0098 4.86363 17.842 4.47435C17.5698 4.38363 17.3042 4.3262 17.0475 4.29596L17.9951 10.9294C18.0335 11.1982 17.8502 11.4486 17.5823 11.4933C16.8477 11.6157 15.5107 11.4679 14.2501 11.0531C13.2017 10.7082 12.0819 10.1382 11.3976 9.26524ZM8.5 26C11.5376 26 14 23.5376 14 20.5C14 17.4624 11.5376 15 8.5 15C5.46243 15 3 17.4624 3 20.5C3 23.5376 5.46243 26 8.5 26ZM10.8536 18.1464C11.0488 18.3417 11.0488 18.6583 10.8536 18.8536L9.20711 20.5L10.8536 22.1464C11.0488 22.3417 11.0488 22.6583 10.8536 22.8536C10.6583 23.0488 10.3417 23.0488 10.1464 22.8536L8.5 21.2071L6.85355 22.8536C6.65829 23.0488 6.34171 23.0488 6.14645 22.8536C5.95118 22.6583 5.95118 22.3417 6.14645 22.1464L7.79289 20.5L6.14645 18.8536C5.95118 18.6583 5.95118 18.3417 6.14645 18.1464C6.34171 17.9512 6.65829 17.9512 6.85355 18.1464L8.5 19.7929L10.1464 18.1464C10.3417 17.9512 10.6583 17.9512 10.8536 18.1464Z" fill="#2B2B2C"/>
</svg>
