<svg width="18" height="18" viewBox="0 0 18 18" fill="none" xmlns="http://www.w3.org/2000/svg">
<path fill-rule="evenodd" clip-rule="evenodd" d="M2.5 3.5C2.5 2.67157 3.17157 2 4 2C4.82843 2 5.5 2.67157 5.5 3.5C5.5 4.32843 4.82843 5 4 5C3.17157 5 2.5 4.32843 2.5 3.5ZM3.04091 6.76314C3.03338 6.6201 3.14733 6.5 3.29056 6.5H4.70954C4.85277 6.5 4.96672 6.6201 4.95919 6.76314L4.7691 10.375H3.23101L3.04091 6.76314ZM5.73854 10.982L5.55192 14.5277C5.50848 15.353 4.82657 16 4.00005 16C3.17353 16 2.49162 15.353 2.44818 14.5277L2.23586 10.4935L1.98808 11.6086C1.92817 11.8781 1.66109 12.0481 1.39152 11.9882C1.12195 11.9283 0.951988 11.6612 1.01189 11.3916L2.01189 6.89164C2.01899 6.8597 2.029 6.82916 2.04157 6.80023C2.01288 6.09189 2.57956 5.5 3.29056 5.5H4.70954C5.42061 5.5 5.98734 6.09201 5.95852 6.80045C5.97105 6.82931 5.98103 6.85978 5.98811 6.89164L6.69254 10.0616C6.69773 10.0526 6.70321 10.0438 6.70895 10.0352L7.58395 8.7227C7.63116 8.6519 7.6933 8.59702 7.7634 8.55945C7.98653 8.22349 8.36835 8 8.80548 8H9.19452C9.63168 8 10.0135 8.22351 10.2366 8.55951C10.3135 8.60071 10.3806 8.66258 10.4288 8.74283L11.2838 10.1679L12.0119 6.89164C12.019 6.8597 12.029 6.82916 12.0416 6.80023C12.0129 6.09189 12.5796 5.5 13.2906 5.5H14.7095C15.4206 5.5 15.9873 6.092 15.9585 6.80045C15.9711 6.82931 15.981 6.85978 15.9881 6.89164L16.9881 11.3916C17.048 11.6612 16.878 11.9283 16.6085 11.9882C16.3389 12.0481 16.0718 11.8781 16.0119 11.6086L15.7642 10.4939L15.5519 14.5277C15.5085 15.353 14.8266 16 14.0001 16C13.1735 16 12.4916 15.353 12.4482 14.5277L12.2359 10.4935L11.9897 11.6012C11.9841 11.6285 11.9762 11.6553 11.966 11.6814C11.9558 11.7079 11.9434 11.7331 11.9291 11.7569C11.8883 11.8254 11.8304 11.885 11.7573 11.9288C11.7104 11.957 11.6607 11.9765 11.6101 11.988C11.5403 12.0038 11.466 12.0048 11.3915 11.9882C11.2491 11.9566 11.1345 11.8671 11.0669 11.75L10.354 10.5618L10.0344 15.0369C9.99559 15.5796 9.54405 16 9 16C8.45596 16 8.00441 15.5796 7.96565 15.0369L7.75164 12.0408L7.75098 12.0315L7.63765 10.4449L7.55537 10.5683L6.94638 11.7254C6.934 11.7499 6.91963 11.7734 6.90344 11.7955C6.88643 11.8188 6.86766 11.8403 6.8474 11.8598C6.78333 11.9218 6.70188 11.9674 6.60848 11.9882C6.47415 12.0181 6.34043 11.9908 6.23266 11.9226C6.18241 11.8909 6.13954 11.8514 6.1048 11.8066C6.05809 11.7463 6.02608 11.6763 6.01059 11.6026L5.76422 10.4939L5.74704 10.8203C5.749 10.8383 5.75 10.8565 5.75 10.875C5.75 10.9117 5.74604 10.9475 5.73854 10.982ZM13.2906 6.5C13.1473 6.5 13.0334 6.6201 13.0409 6.76314L13.2113 10H14.7888L14.9592 6.76314C14.9667 6.6201 14.8528 6.5 14.7095 6.5H13.2906ZM9.28444 11.5H8.71556L8.55612 9.26781C8.54578 9.1231 8.6604 9 8.80548 9H9.19452C9.33961 9 9.45422 9.12309 9.44388 9.26781L9.28444 11.5ZM12.5 3.5C12.5 2.67157 13.1716 2 14 2C14.8284 2 15.5 2.67157 15.5 3.5C15.5 4.32843 14.8284 5 14 5C13.1716 5 12.5 4.32843 12.5 3.5ZM7.5625 6.1875C7.5625 5.39359 8.20609 4.75 9 4.75C9.79391 4.75 10.4375 5.39359 10.4375 6.1875C10.4375 6.98141 9.79391 7.625 9 7.625C8.20609 7.625 7.5625 6.98141 7.5625 6.1875Z" fill="#2B2B2C"/>
</svg>
