<svg width="24" height="24" viewBox="0 0 24 24" fill="none" xmlns="http://www.w3.org/2000/svg">
<path fill-rule="evenodd" clip-rule="evenodd" d="M5.5 7C6.60457 7 7.5 6.10457 7.5 5C7.5 3.89543 6.60457 3 5.5 3C4.39543 3 3.5 3.89543 3.5 5C3.5 6.10457 4.39543 7 5.5 7ZM18.5 7C19.6046 7 20.5 6.10457 20.5 5C20.5 3.89543 19.6046 3 18.5 3C17.3954 3 16.5 3.89543 16.5 5C16.5 6.10457 17.3954 7 18.5 7ZM4.04294 9.52082C4.03111 9.23675 4.2582 9 4.54251 9H6.45744C6.74175 9 6.96884 9.23675 6.95701 9.52082L6.77037 14H4.22957L4.04294 9.52082ZM3.18038 12.8401L2.48507 15.6214C2.41809 15.8893 2.14663 16.0522 1.87873 15.9852C1.61083 15.9182 1.44795 15.6467 1.51492 15.3789L3.01492 9.37885C3.02558 9.33623 3.04141 9.29627 3.06158 9.25947C3.17619 8.54833 3.79309 8 4.54251 8H6.45744C7.20674 8 7.82356 8.54815 7.93832 9.25913C7.96478 9.30727 7.9837 9.36062 7.99324 9.41788L8.76243 14.033L10.0658 11.752L10.071 11.7432L10.0777 11.7324C10.2033 11.0352 10.8134 10.5 11.554 10.5H12.446C13.1865 10.5 13.7966 11.0351 13.9223 11.7323C13.9264 11.7387 13.9303 11.7453 13.9342 11.752L15.2376 14.033L16.0068 9.41788C16.0163 9.36068 16.0352 9.30737 16.0616 9.25927C16.1763 8.54822 16.7932 8 17.5425 8H19.4574C20.2068 8 20.8237 8.54826 20.9383 9.25933C20.9586 9.29617 20.9744 9.33618 20.9851 9.37885L22.4851 15.3789C22.552 15.6467 22.3892 15.9182 22.1213 15.9852C21.8534 16.0522 21.5819 15.8893 21.5149 15.6214L20.8196 12.84L20.562 19.0221C20.5159 20.1275 19.6064 21 18.5 21C17.3936 21 16.484 20.1275 16.438 19.0221L16.2343 14.1352L15.9948 15.5723C15.9896 15.6082 15.9804 15.6434 15.9676 15.6773C15.9596 15.6983 15.9503 15.7188 15.9395 15.7387C15.8967 15.8178 15.832 15.8863 15.7481 15.9342C15.6406 15.9956 15.52 16.0128 15.4072 15.9914C15.3239 15.9757 15.2492 15.9401 15.1872 15.8903C15.1567 15.8659 15.1288 15.8376 15.1043 15.8058C15.0883 15.785 15.0739 15.763 15.0613 15.74L13.8617 13.6408L13.5519 19.5277C13.5084 20.353 12.8265 21 12 21C11.1735 21 10.4916 20.353 10.4481 19.5277L10.1383 13.6408L8.93875 15.74C8.92613 15.763 8.91173 15.785 8.89569 15.8058C8.87114 15.8377 8.84325 15.8659 8.81282 15.8903C8.75081 15.9401 8.67608 15.9757 8.59277 15.9914C8.48 16.0128 8.35935 15.9956 8.25189 15.9342C8.16821 15.8864 8.10359 15.8181 8.06074 15.7392C8.04988 15.7192 8.04042 15.6985 8.0324 15.6773C8.01958 15.6434 8.01044 15.6082 8.00518 15.5723L7.76562 14.1349L7.56199 19.0221C7.51593 20.1275 6.60636 21 5.49997 21C4.39359 21 3.48402 20.1275 3.43796 19.0221L3.18038 12.8401ZM17.5425 9C17.2582 9 17.0311 9.23675 17.0429 9.52082L17.2296 14H19.7704L19.957 9.52082C19.9688 9.23675 19.7417 9 19.4574 9H17.5425ZM11.554 11.5C11.2675 11.5 11.0396 11.7402 11.0547 12.0263L11.2375 15.5H12.7624L12.9453 12.0263C12.9603 11.7402 12.7324 11.5 12.446 11.5H11.554ZM10.25 8.25C10.25 7.2835 11.0335 6.5 12 6.5C12.9665 6.5 13.75 7.2835 13.75 8.25C13.75 9.2165 12.9665 10 12 10C11.0335 10 10.25 9.2165 10.25 8.25Z" fill="#2B2B2C"/>
</svg>
