<svg width="30" height="30" viewBox="0 0 30 30" fill="none" xmlns="http://www.w3.org/2000/svg">
<path fill-rule="evenodd" clip-rule="evenodd" d="M21.0826 3.43475L21.0826 3.43474C20.3121 3.35909 19.2926 3.25898 18.4384 3.45319C17.9325 3.56823 17.4337 3.79517 17.0642 4.22903C16.6913 4.667 16.5 5.2571 16.5 6.0001V7.99949C16.5 7.99962 16.5 7.99975 16.5 7.99988V8.46782C16.3976 9.24218 16.1774 9.80195 15.902 10.195L11.8536 6.14654C11.7598 6.05277 11.6326 6.00009 11.5 6.00009H7.5C7.29777 6.00009 7.11545 6.12192 7.03806 6.30875C6.96067 6.49559 7.00345 6.71065 7.14645 6.85365L11.2929 11.0001H8C5.79086 11.0001 4 12.791 4 15.0001V25.2501C4 26.2166 4.7835 27.0001 5.75 27.0001C6.7165 27.0001 7.5 26.2166 7.5 25.2501V20.957C7.92583 20.8862 8.41721 20.7208 8.85465 20.4059C9.40626 20.0087 9.84696 19.3899 9.96734 18.5001H18V25.2501C18 26.2166 18.7835 27.0001 19.75 27.0001C20.7165 27.0001 21.5 26.2166 21.5 25.2501V18.4804C22.108 18.4293 22.6848 18.2681 23.1379 17.8797C23.7305 17.3718 24 16.5754 24 15.5001V10.4886C24.7373 10.4515 25.4039 10.3152 25.9243 9.93741C26.5921 9.45277 26.9055 8.66221 26.9812 7.57498C27.0223 6.98373 26.5825 6.50687 26.0399 6.42647L24.2802 6.16579C23.7746 6.09088 23.3419 5.76365 23.1321 5.29753L22.7213 4.38455C22.4785 3.84506 21.9531 3.51473 21.3994 3.46501C21.2998 3.45607 21.1938 3.44566 21.0826 3.43475ZM17.4482 8.87941C17.2988 9.72915 17.0039 10.4056 16.6155 10.9085L18.7071 13.0001H23V10.5001H22.5C22.2239 10.5001 22 10.2763 22 10.0001C22 9.72397 22.2239 9.50011 22.5 9.50011H23.5C24.4122 9.50011 24.9787 9.38815 25.337 9.12811C25.6633 8.89122 25.9177 8.45185 25.9836 7.50555C25.9848 7.48867 25.9801 7.47174 25.9655 7.45444C25.9499 7.43591 25.9248 7.42035 25.8933 7.41568L24.1336 7.15499C23.2909 7.03014 22.5698 6.48476 22.2202 5.70789L21.8094 4.79492C21.7292 4.61671 21.5401 4.48166 21.31 4.461C21.1978 4.45093 21.084 4.44003 20.9693 4.42904C20.5384 4.38777 20.0941 4.3452 19.6685 4.3401C19.6793 4.36853 19.6905 4.39791 19.7019 4.42818C19.8438 4.80256 20.0333 5.31561 20.223 5.86898C20.4123 6.42127 20.6039 7.01937 20.7487 7.56246C20.8897 8.09113 21 8.61578 21 8.99989C21 9.27603 20.7761 9.49989 20.5 9.49989C20.162 9.49989 19.5015 9.4667 18.7882 9.31741C18.3595 9.22768 17.887 9.09108 17.4482 8.87941ZM18.6334 4.43452C18.2736 4.52027 18.0065 4.66489 17.8256 4.87735C17.6442 5.09036 17.5008 5.42871 17.5 5.99549L17.5016 6.08518C17.5027 6.14549 17.5042 6.23193 17.5058 6.33666C17.5091 6.54603 17.513 6.8289 17.5157 7.12233C17.5176 7.34008 17.5189 7.56469 17.5185 7.76992C17.9134 8.04103 18.4445 8.22381 18.9931 8.33862C19.3328 8.40974 19.6607 8.45104 19.9358 8.47401C19.8992 8.28439 19.8477 8.06447 19.7825 7.82013C19.6461 7.30854 19.4627 6.73476 19.277 6.1933C19.0918 5.65292 18.9062 5.15034 18.7668 4.78254C18.7151 4.64615 18.6699 4.52848 18.6334 4.43452ZM19 14.0001H23V15.5001C23 16.4249 22.7695 16.8784 22.4871 17.1205C22.1881 17.3768 21.7142 17.5001 21 17.5001C20.7239 17.5001 20.5 17.724 20.5 18.0001V25.2501C20.5 25.6643 20.1642 26.0001 19.75 26.0001C19.3358 26.0001 19 25.6643 19 25.2501V14.0001ZM15.8832 11.5904L18 13.7072V17.5001H9.5C9.22386 17.5001 9 17.724 9 18.0001C9 18.8371 8.66243 19.312 8.27035 19.5943C7.85276 19.895 7.33665 20.0001 7 20.0001C6.86739 20.0001 6.74022 20.0528 6.64645 20.1465C6.55268 20.2403 6.5 20.3675 6.5 20.5001V25.2501C6.5 25.6643 6.16421 26.0001 5.75 26.0001C5.33579 26.0001 5 25.6643 5 25.2501V15.0001C5 13.3432 6.34315 12.0001 8 12.0001L14.5 12.0001C14.9875 12.0001 15.4607 11.8635 15.8832 11.5904ZM11.2929 7.00009L15.1459 10.8531C14.9256 10.9561 14.7036 11.0001 14.5 11.0001H12.7071L8.70711 7.00009H11.2929Z" fill="#2B2B2C"/>
</svg>
