<svg width="30" height="30" viewBox="0 0 30 30" fill="none" xmlns="http://www.w3.org/2000/svg">
<path fill-rule="evenodd" clip-rule="evenodd" d="M11.5 5.25C11.5 4.2835 12.2835 3.5 13.25 3.5H16.75C17.7165 3.5 18.5 4.2835 18.5 5.25V7H25.25C26.2165 7 27 7.7835 27 8.75V21.25C27 22.2165 26.2165 23 25.25 23H24.2324C24.4026 23.2942 24.5 23.6357 24.5 24C24.5 25.1046 23.6046 26 22.5 26C21.3954 26 20.5 25.1046 20.5 24C20.5 23.6357 20.5974 23.2942 20.7676 23H9.23244C9.40261 23.2942 9.5 23.6357 9.5 24C9.5 25.1046 8.60457 26 7.5 26C6.39543 26 5.5 25.1046 5.5 24C5.5 23.6357 5.59739 23.2942 5.76756 23H4.75C3.7835 23 3 22.2165 3 21.25V8.75C3 7.7835 3.7835 7 4.75 7H11.5V5.25ZM7.5 23C6.94772 23 6.5 23.4477 6.5 24C6.5 24.5523 6.94772 25 7.5 25C8.05228 25 8.5 24.5523 8.5 24C8.5 23.4477 8.05228 23 7.5 23ZM21.5 24C21.5 23.4477 21.9477 23 22.5 23C23.0523 23 23.5 23.4477 23.5 24C23.5 24.5523 23.0523 25 22.5 25C21.9477 25 21.5 24.5523 21.5 24ZM17.5 5.25V7H12.5V5.25C12.5 4.83579 12.8358 4.5 13.25 4.5H16.75C17.1642 4.5 17.5 4.83579 17.5 5.25ZM21.5 8V22H19.5V8H21.5ZM10.5 8H8.5V22H10.5V8Z" fill="#2B2B2C"/>
</svg>
