<svg width="30" height="30" viewBox="0 0 30 30" fill="none" xmlns="http://www.w3.org/2000/svg">
<path fill-rule="evenodd" clip-rule="evenodd" d="M13.5 2C13.2239 2 13 2.22386 13 2.5V7H10.75C9.7835 7 9 7.7835 9 8.75V16C5.68629 16 3 18.6863 3 22C3 25.3137 5.68629 28 9 28C11.6124 28 13.8349 26.3304 14.6586 24H17.2676C17.0974 24.2942 17 24.6357 17 25C17 26.1046 17.8954 27 19 27C20.1046 27 21 26.1046 21 25C21 24.6357 20.9026 24.2942 20.7324 24H21.25C22.2165 24 23 23.2165 23 22.25V8.75C23 7.7835 22.2165 7 21.25 7H19V2.5C19 2.22386 18.7761 2 18.5 2H13.5ZM14.917 23H19H21.25C21.6642 23 22 22.6642 22 22.25V8.75C22 8.33579 21.6642 8 21.25 8H19V10.2929L19.8536 11.1464C19.9473 11.2402 20 11.3674 20 11.5V15.5C20 15.7761 19.7761 16 19.5 16H17.5C17.2239 16 17 15.7761 17 15.5V11.5C17 11.3674 17.0527 11.2402 17.1464 11.1464L18 10.2929V8H10.75C10.3358 8 10 8.33579 10 8.75V16.083C12.8377 16.559 15 19.027 15 22C15 22.3407 14.9716 22.6748 14.917 23ZM18 25C18 24.4477 18.4477 24 19 24C19.5523 24 20 24.4477 20 25C20 25.5523 19.5523 26 19 26C18.4477 26 18 25.5523 18 25ZM18 7V3H14V7H18ZM18 11.7071L18.5 11.2071L19 11.7071V15H18V11.7071ZM9.5 19.5C9.5 19.2239 9.27614 19 9 19C8.72386 19 8.5 19.2239 8.5 19.5V21.4999L6.50002 21.4999C6.22388 21.4999 6.00002 21.7238 6.00002 21.9999C6.00002 22.276 6.22387 22.4999 6.50002 22.4999L8.5 22.4999V24.5C8.5 24.7761 8.72386 25 9 25C9.27614 25 9.5 24.7761 9.5 24.5V22.4999L11.5 22.4999C11.7762 22.4999 12 22.2761 12 21.9999C12 21.7238 11.7762 21.4999 11.5 21.4999L9.5 21.4999V19.5ZM14 22C14 24.7614 11.7614 27 9 27C6.23858 27 4 24.7614 4 22C4 19.2386 6.23858 17 9 17C11.7614 17 14 19.2386 14 22Z" fill="#2B2B2C"/>
</svg>
