<svg width="24" height="24" viewBox="0 0 24 24" fill="none" xmlns="http://www.w3.org/2000/svg">
<path fill-rule="evenodd" clip-rule="evenodd" d="M11.0858 4.20705C11.8648 3.42806 12.9651 3.0613 14.0556 3.2171L18.1214 3.79793C19.2001 3.95202 20.0547 4.787 20.2339 5.8618L20.9213 9.98638C20.9769 10.3201 20.9839 10.6602 20.9419 10.9959L20.1056 17.686C20.0118 18.4366 19.3737 18.9999 18.6172 18.9999H17.9146C17.9699 19.1563 18 19.3247 18 19.5C18 20.3284 17.3284 21 16.5 21C15.6716 21 15 20.3284 15 19.5C15 19.3247 15.0301 19.1563 15.0854 18.9999H7.91463C7.96991 19.1563 8 19.3247 8 19.5C8 20.3284 7.32843 21 6.5 21C5.67157 21 5 20.3284 5 19.5C5 19.3247 5.03008 19.1563 5.08537 18.9999H4.5C3.67157 18.9999 3 18.3284 3 17.4999V13.7426C3 12.8143 3.36875 11.9241 4.02513 11.2677L5.79286 9.49997L5.35365 9.06075C4.76786 8.47497 4.76786 7.52522 5.35365 6.93943L7.93943 4.35365C8.52522 3.76786 9.47497 3.76786 10.0608 4.35365L10.5 4.79286L11.0858 4.20705ZM6.49997 8.79286L9.79286 5.49997L9.35365 5.06075C9.15838 4.86549 8.8418 4.86549 8.64654 5.06075L6.06075 7.64654C5.86549 7.8418 5.86549 8.15838 6.06075 8.35365L6.49997 8.79286ZM7 19.5C7 19.7761 6.77614 20 6.5 20C6.22386 20 6 19.7761 6 19.5C6 19.2239 6.22386 19 6.5 19C6.77614 19 7 19.2239 7 19.5ZM16.5 20C16.7761 20 17 19.7761 17 19.5C17 19.2239 16.7761 19 16.5 19C16.2239 19 16 19.2239 16 19.5C16 19.7761 16.2239 20 16.5 20ZM13.5 7.08284C13.5 7.0298 13.5211 6.97893 13.5586 6.94142L14.3586 6.14142C14.4367 6.06332 14.5633 6.06332 14.6414 6.14142L15.4414 6.94142C15.4789 6.97893 15.5 7.0298 15.5 7.08284V9.8C15.5 9.91046 15.4105 10 15.3 10H13.7C13.5895 10 13.5 9.91046 13.5 9.8V7.08284Z" fill="#2B2B2C"/>
</svg>
