<svg width="24" height="24" viewBox="0 0 24 24" fill="none" xmlns="http://www.w3.org/2000/svg">
<path fill-rule="evenodd" clip-rule="evenodd" d="M9 2.5C9 2.22386 9.22386 2 9.5 2H14.5C14.7761 2 15 2.22386 15 2.5V6H16.5C17.3284 6 18 6.67157 18 7.5V18.5C18 19.1917 17.5318 19.7741 16.8949 19.9475C16.9627 20.1185 17 20.3049 17 20.5C17 21.3284 16.3284 22 15.5 22C14.6716 22 14 21.3284 14 20.5C14 20.3247 14.0301 20.1564 14.0854 20H9.91465C9.96992 20.1564 10 20.3247 10 20.5C10 21.3284 9.32843 22 8.5 22C7.67157 22 7 21.3284 7 20.5C7 20.3049 7.03726 20.1185 7.10505 19.9475C6.46824 19.7741 6 19.1917 6 18.5V7.5C6 6.67157 6.67157 6 7.5 6H9V2.5ZM8 20.5C8 20.2239 8.22386 20 8.5 20C8.77614 20 9 20.2239 9 20.5C9 20.7761 8.77614 21 8.5 21C8.22386 21 8 20.7761 8 20.5ZM15.5 20C15.2239 20 15 20.2239 15 20.5C15 20.7761 15.2239 21 15.5 21C15.7761 21 16 20.7761 16 20.5C16 20.2239 15.7761 20 15.5 20ZM14 3V6H10V3H14ZM13.5 9.08284C13.5 9.0298 13.5211 8.97893 13.5586 8.94142L14.3586 8.14142C14.4367 8.06332 14.5633 8.06332 14.6414 8.14142L15.4414 8.94142C15.4789 8.97893 15.5 9.0298 15.5 9.08284V11.3C15.5 11.4105 15.4105 11.5 15.3 11.5H13.7C13.5895 11.5 13.5 11.4105 13.5 11.3V9.08284Z" fill="#2B2B2C"/>
</svg>
