<svg width="18" height="18" viewBox="0 0 18 18" fill="none" xmlns="http://www.w3.org/2000/svg">
<path fill-rule="evenodd" clip-rule="evenodd" d="M7 1.5C7 1.22386 7.22386 1 7.5 1H10.5C10.7761 1 11 1.22386 11 1.5V4H12.75C13.4404 4 14 4.55964 14 5.25V13.75C14 14.3858 13.5253 14.9108 12.911 14.9897C12.9686 15.149 13 15.3208 13 15.5C13 16.3284 12.3284 17 11.5 17C10.6716 17 10 16.3284 10 15.5C10 15.3247 10.0301 15.1564 10.0854 15H7.91465C7.96992 15.1564 8 15.3247 8 15.5C8 16.3284 7.32843 17 6.5 17C5.67157 17 5 16.3284 5 15.5C5 15.3208 5.03142 15.149 5.08903 14.9897C4.47471 14.9108 4 14.3858 4 13.75V5.25C4 4.55964 4.55964 4 5.25 4H7V1.5ZM6 15.5C6 15.2239 6.22386 15 6.5 15C6.77614 15 7 15.2239 7 15.5C7 15.7761 6.77614 16 6.5 16C6.22386 16 6 15.7761 6 15.5ZM11.5 15C11.2239 15 11 15.2239 11 15.5C11 15.7761 11.2239 16 11.5 16C11.7761 16 12 15.7761 12 15.5C12 15.2239 11.7761 15 11.5 15ZM10 2V4H8V2H10ZM9.5 6.58284C9.5 6.5298 9.52107 6.47893 9.55858 6.44142L10.3586 5.64142C10.4367 5.56332 10.5633 5.56332 10.6414 5.64142L11.4414 6.44142C11.4789 6.47893 11.5 6.5298 11.5 6.58284V8.8C11.5 8.91046 11.4105 9 11.3 9H9.7C9.58954 9 9.5 8.91046 9.5 8.8V6.58284Z" fill="#2B2B2C"/>
</svg>
