<svg width="24" height="24" viewBox="0 0 24 24" fill="none" xmlns="http://www.w3.org/2000/svg">
<path fill-rule="evenodd" clip-rule="evenodd" d="M10 2.5C10 2.22386 10.2239 2 10.5 2H14.5C14.7761 2 15 2.22386 15 2.5V6H16.5C17.3284 6 18 6.67157 18 7.5V17.5C18 18.1917 17.5318 18.7741 16.8949 18.9475C16.9627 19.1185 17 19.3049 17 19.5C17 20.3284 16.3284 21 15.5 21C14.6716 21 14 20.3284 14 19.5C14 19.3247 14.0301 19.1564 14.0854 19H11.7439C11.1262 20.7478 9.45933 22 7.5 22C5.01472 22 3 19.9853 3 17.5C3 15.1837 4.75002 13.2762 7 13.0275V7.5C7 6.67157 7.67157 6 8.5 6H10V2.5ZM4 17.5C4 15.567 5.567 14 7.5 14C9.433 14 11 15.567 11 17.5C11 19.433 9.433 21 7.5 21C5.567 21 4 19.433 4 17.5ZM15.5 19C15.2239 19 15 19.2239 15 19.5C15 19.7761 15.2239 20 15.5 20C15.7761 20 16 19.7761 16 19.5C16 19.2239 15.7761 19 15.5 19ZM14 3V6H11V3H14ZM7.5 15C7.77614 15 8 15.2239 8 15.5V17H9.5C9.77614 17 10 17.2239 10 17.5C10 17.7761 9.77614 18 9.5 18H8V19.5C8 19.7761 7.77614 20 7.5 20C7.22386 20 7 19.7761 7 19.5V18H5.5C5.22386 18 5 17.7761 5 17.5C5 17.2239 5.22386 17 5.5 17H7V15.5C7 15.2239 7.22386 15 7.5 15ZM13.5 9.08284C13.5 9.0298 13.5211 8.97893 13.5586 8.94142L14.3586 8.14142C14.4367 8.06332 14.5633 8.06332 14.6414 8.14142L15.4414 8.94142C15.4789 8.97893 15.5 9.0298 15.5 9.08284V11.3C15.5 11.4105 15.4104 11.5 15.3 11.5H13.7C13.5895 11.5 13.5 11.4105 13.5 11.3V9.08284Z" fill="#2B2B2C"/>
</svg>
