<svg width="24" height="24" viewBox="0 0 24 24" fill="none" xmlns="http://www.w3.org/2000/svg">
<path fill-rule="evenodd" clip-rule="evenodd" d="M11.0858 4.20705C11.8648 3.42806 12.9651 3.0613 14.0556 3.2171L18.1214 3.79793C19.2001 3.95202 20.0547 4.787 20.2339 5.8618L20.9213 9.98638C20.9769 10.3201 20.9839 10.6602 20.9419 10.9959L20.1056 17.686C20.0118 18.4366 19.3737 18.9999 18.6172 18.9999H17.9146C17.9699 19.1563 18 19.3247 18 19.5C18 20.3284 17.3284 21 16.5 21C15.6716 21 15 20.3284 15 19.5C15 19.3247 15.0301 19.1563 15.0854 18.9999H7.91463C7.96991 19.1563 8 19.3247 8 19.5C8 20.3284 7.32843 21 6.5 21C5.67157 21 5 20.3284 5 19.5C5 19.3247 5.03008 19.1563 5.08537 18.9999H4.5C3.67157 18.9999 3 18.3284 3 17.4999V13.7426C3 12.8143 3.36875 11.9241 4.02513 11.2677L5.79274 9.50009L5.3534 9.06075C4.76762 8.47497 4.76762 7.52522 5.3534 6.93943L7.93919 4.35365C8.52498 3.76786 9.47472 3.76786 10.0605 4.35365L10.4998 4.79299L11.0858 4.20705ZM6.8534 9.85365L6.85444 9.85261L10.8524 5.85464L10.8534 5.85365L10.8544 5.85265L11.7929 4.91415C12.3493 4.35774 13.1352 4.09576 13.9142 4.20705L14 4.2193V7.29289L13.1464 8.14645C13.0527 8.24021 13 8.36739 13 8.5V11.5C13 11.7761 13.2239 12 13.5 12H15.5C15.7761 12 16 11.7761 16 11.5V8.5C16 8.36739 15.9473 8.24021 15.8536 8.14645L15 7.29289V4.36216L17.98 4.78788C18.6272 4.88033 19.14 5.38132 19.2475 6.0262L19.9349 10.1508C19.9746 10.3892 19.9796 10.632 19.9496 10.8719L19.1134 17.562C19.0821 17.8122 18.8694 17.9999 18.6172 17.9999H4.5C4.22386 17.9999 4 17.7761 4 17.4999V13.7426C4 13.0795 4.26339 12.4437 4.73223 11.9748L6.85237 9.85468L6.8534 9.85365ZM6.49985 8.79299L9.79274 5.50009L9.3534 5.06075C9.15814 4.86549 8.84156 4.86549 8.6463 5.06075L6.06051 7.64654C5.86525 7.8418 5.86525 8.15838 6.06051 8.35365L6.49985 8.79299ZM7 19.5C7 19.7761 6.77614 20 6.5 20C6.22386 20 6 19.7761 6 19.5C6 19.2239 6.22386 19 6.5 19C6.77614 19 7 19.2239 7 19.5ZM16.5 20C16.7761 20 17 19.7761 17 19.5C17 19.2239 16.7761 19 16.5 19C16.2239 19 16 19.2239 16 19.5C16 19.7761 16.2239 20 16.5 20ZM14 8.70711L14.5 8.20711L15 8.70711V11H14V8.70711Z" fill="#2B2B2C"/>
</svg>
