<svg width="30" height="30" viewBox="0 0 30 30" fill="none" xmlns="http://www.w3.org/2000/svg">
<path fill-rule="evenodd" clip-rule="evenodd" d="M13 2.5C13 2.22386 13.2239 2 13.5 2H18.5C18.7761 2 19 2.22386 19 2.5V7H21.25C22.2165 7 23 7.7835 23 8.75V22.25C23 23.2165 22.2165 24 21.25 24H20.7324C20.9026 24.2942 21 24.6357 21 25C21 26.1046 20.1046 27 19 27C17.8954 27 17 26.1046 17 25C17 24.6357 17.0974 24.2942 17.2676 24H14.6586C13.8349 26.3304 11.6124 28 9 28C5.68629 28 3 25.3137 3 22C3 18.6863 5.68629 16 9 16V8.75C9 7.7835 9.7835 7 10.75 7H13V2.5ZM19 24C18.4477 24 18 24.4477 18 25C18 25.5523 18.4477 26 19 26C19.5523 26 20 25.5523 20 25C20 24.4477 19.5523 24 19 24ZM18 3V7H14V3H18ZM9 19C9.27614 19 9.5 19.2239 9.5 19.5V21.4999L11.5 21.4999C11.7762 21.4999 12 21.7238 12 21.9999C12 22.2761 11.7762 22.4999 11.5 22.4999L9.5 22.4999V24.5C9.5 24.7761 9.27614 25 9 25C8.72386 25 8.5 24.7761 8.5 24.5V22.4999L6.50002 22.4999C6.22387 22.4999 6.00002 22.276 6.00002 21.9999C6.00002 21.7238 6.22388 21.4999 6.50002 21.4999L8.5 21.4999V19.5C8.5 19.2239 8.72386 19 9 19ZM9 27C11.7614 27 14 24.7614 14 22C14 19.2386 11.7614 17 9 17C6.23858 17 4 19.2386 4 22C4 24.7614 6.23858 27 9 27ZM17 11.1243C17 11.0447 17.0316 10.9684 17.0879 10.9121L18.2879 9.71213C18.405 9.59497 18.595 9.59497 18.7121 9.71213L19.9121 10.9121C19.9684 10.9684 20 11.0447 20 11.1243V14.7C20 14.8657 19.8657 15 19.7 15H17.3C17.1343 15 17 14.8657 17 14.7V11.1243Z" fill="#2B2B2C"/>
</svg>
