<svg width="18" height="18" viewBox="0 0 18 18" fill="none" xmlns="http://www.w3.org/2000/svg">
<path fill-rule="evenodd" clip-rule="evenodd" d="M8.29497 2.99788C8.94514 2.34772 9.87722 2.06551 10.7788 2.24583L13.6672 2.82351C14.4251 2.97509 15.0278 3.54978 15.2153 4.2996L15.8716 6.9247C15.9631 7.29071 15.9783 7.67163 15.9163 8.04377L15.0976 12.9555C14.9999 13.5418 14.5037 13.9758 13.9143 13.999C13.9698 14.1557 14 14.3243 14 14.5C14 15.3284 13.3284 16 12.5 16C11.6716 16 11 15.3284 11 14.5C11 14.3247 11.0301 14.1564 11.0854 14H5.91463C5.96992 14.1564 6 14.3247 6 14.5C6 15.3284 5.32843 16 4.5 16C3.67157 16 3 15.3284 3 14.5C3 14.3208 3.03141 14.149 3.08904 13.9897C2.47471 13.9107 2 13.3858 2 12.75V10.4319C2 9.7026 2.28973 9.00313 2.80546 8.4874L3.79288 7.49998L3.67666 7.38377C3.18851 6.89561 3.18851 6.10416 3.67666 5.616L5.616 3.67666C6.10416 3.18851 6.89562 3.18851 7.38377 3.67666L7.49998 3.79288L8.29497 2.99788ZM6.79288 4.49998L4.49998 6.79288L4.38377 6.67666C4.28614 6.57903 4.28614 6.42074 4.38377 6.32311L6.32311 4.38377C6.42074 4.28614 6.57903 4.28614 6.67666 4.38377L6.79288 4.49998ZM10 3.20888C9.62726 3.26041 9.2755 3.43157 9.00208 3.70499L3.51256 9.19451C3.18437 9.5227 3 9.96782 3 10.4319V12.75C3 12.888 3.11193 13 3.25 13H13.8647C13.9869 13 14.0912 12.9116 14.1113 12.7911L14.9299 7.87937C14.9693 7.64255 14.9597 7.40015 14.9014 7.16723L14.2452 4.54214C14.1514 4.16723 13.8501 3.87988 13.4711 3.80409L11 3.30987V5.29289L11.8536 6.14645C11.9473 6.24022 12 6.36739 12 6.5V9C12 9.27614 11.7761 9.5 11.5 9.5H9.5C9.22386 9.5 9 9.27614 9 9V6.5C9 6.36739 9.05268 6.24021 9.14645 6.14645L10 5.29289V3.20888ZM5 14.5C5 14.7761 4.77614 15 4.5 15C4.22386 15 4 14.7761 4 14.5C4 14.2239 4.22386 14 4.5 14C4.77614 14 5 14.2239 5 14.5ZM12.5 15C12.7761 15 13 14.7761 13 14.5C13 14.2239 12.7761 14 12.5 14C12.2239 14 12 14.2239 12 14.5C12 14.7761 12.2239 15 12.5 15ZM10 6.70711L10.5 6.20711L11 6.70711V8.5H10V6.70711Z" fill="#2B2B2C"/>
</svg>
