<svg width="18" height="18" viewBox="0 0 18 18" fill="none" xmlns="http://www.w3.org/2000/svg">
<path fill-rule="evenodd" clip-rule="evenodd" d="M5.25 1C4.55964 1 4 1.55964 4 2.25V5.71684L2.79618 6.43913C1.98841 6.92379 1.52166 7.82137 1.58877 8.76098L1.85198 12.4459C1.95477 13.885 3.15224 15 4.59499 15H6V15C6 16.1046 6.89543 17 8 17H10.5C10.6326 17 10.7598 16.9473 10.8536 16.8536C10.9473 16.7598 11 16.6326 11 16.5L11 16H12.5C12.7761 16 13 15.7761 13 15.5C13 15.2239 12.7761 15 12.5 15H11V14H12.5C12.7761 14 13 13.7761 13 13.5C13 13.2239 12.7761 13 12.5 13H11V12.5C11 12.2239 10.7761 12 10.5 12H8C6.89545 12 6.00003 12.8954 6 14H4.59499C3.67688 14 2.91485 13.2904 2.84944 12.3746L2.58623 8.68974C2.54596 8.12597 2.82602 7.58742 3.31068 7.29663L4 6.88303V9.75C4 10.4404 4.55964 11 5.25 11H12.75C13.4404 11 14 10.4404 14 9.75V2.25C14 1.55964 13.4404 1 12.75 1H5.25ZM11.5 6C11.5 7.38071 10.3807 8.5 9 8.5C7.61929 8.5 6.5 7.38071 6.5 6C6.5 4.61929 7.61929 3.5 9 3.5C10.3807 3.5 11.5 4.61929 11.5 6ZM8 6.5C8.27614 6.5 8.5 6.27614 8.5 6C8.5 5.72386 8.27614 5.5 8 5.5C7.72386 5.5 7.5 5.72386 7.5 6C7.5 6.27614 7.72386 6.5 8 6.5ZM10 6.5C10.2761 6.5 10.5 6.27614 10.5 6C10.5 5.72386 10.2761 5.5 10 5.5C9.72386 5.5 9.5 5.72386 9.5 6C9.5 6.27614 9.72386 6.5 10 6.5ZM10 15.5011V15.5V15.4989V13H8C7.44771 13 7 13.4477 7 14L7 15C7 15.5523 7.44772 16 8 16H10L10 15.5011Z" fill="#2B2B2C"/>
</svg>
