<svg width="30" height="30" viewBox="0 0 30 30" fill="none" xmlns="http://www.w3.org/2000/svg">
<path fill-rule="evenodd" clip-rule="evenodd" d="M10 6C10 5.51054 10.2884 4.73015 10.6968 4.03435C10.8952 3.69642 11.1042 3.40911 11.288 3.21368C11.3753 3.12087 11.4471 3.05935 11.5 3.02315C11.5529 3.05935 11.6247 3.12087 11.712 3.21368C11.8958 3.40911 12.1048 3.69642 12.3032 4.03435C12.7116 4.73015 13 5.51054 13 6V14H10V6ZM9 14.5V6C9 5.23946 9.39907 4.26985 9.83442 3.52815C10.0579 3.14733 10.3099 2.79402 10.5596 2.52851C10.684 2.39626 10.819 2.27389 10.9602 2.18117C11.093 2.09394 11.2809 2 11.5 2C11.7191 2 11.907 2.09394 12.0398 2.18117C12.181 2.27389 12.316 2.39626 12.4404 2.52851C12.6901 2.79402 12.9421 3.14733 13.1656 3.52815C13.6009 4.26985 14 5.23946 14 6V14.5V19V27.5C14 27.7761 13.7761 28 13.5 28H9.5C9.22386 28 9 27.7761 9 27.5V19V14.5ZM13 15V18.5H12V15H13ZM11 15V18.5H10V15H11ZM13 27V19.5H10V27H13ZM17 6C17 5.51054 17.2884 4.73015 17.6968 4.03435C17.8952 3.69642 18.1042 3.40911 18.288 3.21368C18.3753 3.12087 18.4471 3.05935 18.5 3.02315C18.5529 3.05935 18.6247 3.12087 18.712 3.21368C18.8958 3.40911 19.1048 3.69642 19.3032 4.03435C19.7116 4.73015 20 5.51054 20 6V14H17V6ZM19 15H20V18.5H19V15ZM17 27V19.5H20V27H17ZM16 27.5V19.0039L16 19L16 18.9961V14.5039L16 14.5L16 14.4961V6C16 5.23946 16.3991 4.26985 16.8344 3.52815C17.058 3.14733 17.3099 2.79402 17.5597 2.52851C17.6841 2.39626 17.819 2.27389 17.9602 2.18117C18.093 2.09394 18.2809 2 18.5 2C18.7191 2 18.907 2.09394 19.0398 2.18117C19.181 2.27389 19.316 2.39626 19.4404 2.52851C19.6901 2.79402 19.9421 3.14733 20.1656 3.52815C20.6009 4.26985 21 5.23946 21 6V27.5C21 27.7761 20.7762 28 20.5 28H16.5C16.2239 28 16 27.7761 16 27.5ZM18 18.5H17V15H18V18.5ZM4.00001 9.5C4.00001 9.22386 4.22387 9 4.50001 9H6.50001C6.77615 9 7.00001 9.22386 7.00001 9.5V13.5C7.00001 13.7761 6.77615 14 6.50001 14H6V24H6.50001C6.77615 24 7.00001 24.2239 7.00001 24.5C7.00001 24.7761 6.77615 25 6.50001 25H6V26.5C6 26.7761 5.77614 27 5.5 27C5.22386 27 5 26.7761 5 26.5V25H4.50001C4.22387 25 4.00001 24.7761 4.00001 24.5C4.00001 24.2239 4.22387 24 4.50001 24H5V14H4.50001C4.22387 14 4.00001 13.7761 4.00001 13.5V9.5ZM6.00001 13H5.5H5.00001V10H6.00001V13ZM23 9.5C23 9.22386 23.2239 9 23.5 9H25.5C25.6326 9 25.7598 9.05268 25.8536 9.14645C25.9473 9.24022 26 9.36739 26 9.5L26 13.5C26 13.7761 25.7761 14 25.5 14H25V24H25.5C25.7761 24 26 24.2239 26 24.5C26 24.7761 25.7761 25 25.5 25H25V26.5C25 26.7761 24.7762 27 24.5 27C24.2239 27 24 26.7761 24 26.5V25H23.5C23.2238 25 23 24.7761 23 24.5C23 24.2239 23.2238 24 23.5 24H24V14H23.5C23.3674 14 23.2402 13.9473 23.1464 13.8536C23.0527 13.7598 23 13.6326 23 13.5L23 9.5ZM25 13H24.5H24L24 10H25L25 13Z" fill="#2B2B2C"/>
</svg>
