<svg width="30" height="30" viewBox="0 0 30 30" fill="none" xmlns="http://www.w3.org/2000/svg">
<path fill-rule="evenodd" clip-rule="evenodd" d="M10.5858 2.70712C11.3668 1.92608 12.6332 1.92608 13.4142 2.70712L27.2929 16.5858C28.0739 17.3669 28.0739 18.6332 27.2929 19.4142L19.4142 27.2929C18.6332 28.074 17.3668 28.074 16.5858 27.2929L2.70711 13.4142C1.92606 12.6332 1.92606 11.3669 2.70711 10.5858L10.5858 2.70712ZM12.7071 3.41423C12.3166 3.02371 11.6834 3.02371 11.2929 3.41423L3.41422 11.2929C3.02369 11.6834 3.02369 12.3166 3.41422 12.7071L13.5 22.7929L22.7929 13.5L12.7071 3.41423ZM23.5 14.2071L14.2071 23.5L15.5 24.7929L24.7929 15.5L23.5 14.2071ZM25.5 16.2071L16.2071 25.5L17.2929 26.5858C17.6834 26.9763 18.3166 26.9763 18.7071 26.5858L26.5858 18.7071C26.9763 18.3166 26.9763 17.6834 26.5858 17.2929L25.5 16.2071ZM12 5.5C12.2761 5.5 12.5 5.72386 12.5 6V7.79289L13.1464 7.14645C13.3417 6.95118 13.6583 6.95118 13.8536 7.14645C14.0488 7.34171 14.0488 7.65829 13.8536 7.85355L12.5 9.20711V10.7929L13.6464 9.64645C13.8417 9.45118 14.1583 9.45118 14.3536 9.64645C14.5488 9.84171 14.5488 10.1583 14.3536 10.3536L13.2071 11.5H14.7929L16.1464 10.1464C16.3417 9.95118 16.6583 9.95118 16.8536 10.1464C17.0488 10.3417 17.0488 10.6583 16.8536 10.8536L16.2071 11.5L18 11.5C18.2761 11.5 18.5 11.7239 18.5 12C18.5 12.2761 18.2761 12.5 18 12.5H16.2071L16.8536 13.1464C17.0488 13.3417 17.0488 13.6583 16.8536 13.8536C16.6583 14.0488 16.3417 14.0488 16.1464 13.8536L14.7929 12.5H13.2071L14.3536 13.6464C14.5488 13.8417 14.5488 14.1583 14.3536 14.3536C14.1583 14.5488 13.8417 14.5488 13.6464 14.3536L12.5 13.2071V14.7929L13.8536 16.1464C14.0488 16.3417 14.0488 16.6583 13.8536 16.8536C13.6583 17.0488 13.3417 17.0488 13.1464 16.8536L12.5 16.2071V18C12.5 18.2761 12.2761 18.5 12 18.5C11.7239 18.5 11.5 18.2761 11.5 18V16.2071L10.8536 16.8536C10.6583 17.0488 10.3417 17.0488 10.1464 16.8536C9.95118 16.6583 9.95118 16.3417 10.1464 16.1464L11.5 14.7929V13.2071L10.3536 14.3536C10.1583 14.5488 9.84171 14.5488 9.64645 14.3536C9.45118 14.1583 9.45118 13.8417 9.64645 13.6464L10.7929 12.5H9.20711L7.85355 13.8536C7.65829 14.0488 7.34171 14.0488 7.14645 13.8536C6.95118 13.6583 6.95118 13.3417 7.14645 13.1464L7.79289 12.5H6C5.72386 12.5 5.5 12.2761 5.5 12C5.5 11.7239 5.72386 11.5 6 11.5H7.79289L7.14645 10.8536C6.95118 10.6583 6.95118 10.3417 7.14645 10.1464C7.34171 9.95118 7.65829 9.95118 7.85355 10.1464L9.20711 11.5H10.7929L9.64645 10.3536C9.45118 10.1583 9.45118 9.84171 9.64645 9.64645C9.84171 9.45118 10.1583 9.45118 10.3536 9.64645L11.5 10.7929V9.20711L10.1464 7.85355C9.95118 7.65829 9.95118 7.34171 10.1464 7.14645C10.3417 6.95118 10.6583 6.95118 10.8536 7.14645L11.5 7.79289V6C11.5 5.72386 11.7239 5.5 12 5.5Z" fill="#2B2B2C"/>
</svg>
