<svg width="24" height="24" viewBox="0 0 24 24" fill="none" xmlns="http://www.w3.org/2000/svg">
<path fill-rule="evenodd" clip-rule="evenodd" d="M10.9142 3.20712C10.1332 2.42608 8.86685 2.42608 8.0858 3.20712L3.20712 8.0858C2.42607 8.86685 2.42608 10.1332 3.20713 10.9142L13.0858 20.7929C13.8669 21.574 15.1332 21.574 15.9142 20.7929L20.7929 15.9142C21.574 15.1332 21.574 13.8669 20.7929 13.0858L10.9142 3.20712ZM11.3536 17.6465L12.8536 19.1465L19.1465 12.8536L17.6465 11.3536L11.3536 17.6465ZM10 5.5C10.2761 5.5 10.5 5.72386 10.5 6V7.29289L11.1464 6.64645C11.3417 6.45118 11.6583 6.45118 11.8536 6.64645C12.0488 6.84171 12.0488 7.15829 11.8536 7.35355L10.5 8.70711V9.5H11.2929L12.6464 8.14645C12.8417 7.95118 13.1583 7.95118 13.3536 8.14645C13.5488 8.34171 13.5488 8.65829 13.3536 8.85355L12.7071 9.5H14C14.2761 9.5 14.5 9.72386 14.5 10C14.5 10.2761 14.2761 10.5 14 10.5H12.7071L13.3536 11.1464C13.5488 11.3417 13.5488 11.6583 13.3536 11.8536C13.1583 12.0488 12.8417 12.0488 12.6464 11.8536L11.2929 10.5H10.5V11.2929L11.8536 12.6464C12.0488 12.8417 12.0488 13.1583 11.8536 13.3536C11.6583 13.5488 11.3417 13.5488 11.1464 13.3536L10.5 12.7071V14C10.5 14.2761 10.2761 14.5 10 14.5C9.72386 14.5 9.5 14.2761 9.5 14V12.7071L8.85355 13.3536C8.65829 13.5488 8.34171 13.5488 8.14645 13.3536C7.95118 13.1583 7.95118 12.8417 8.14645 12.6464L9.5 11.2929V10.5H8.70711L7.35355 11.8536C7.15829 12.0488 6.84171 12.0488 6.64645 11.8536C6.45118 11.6583 6.45118 11.3417 6.64645 11.1464L7.29289 10.5H6C5.72386 10.5 5.5 10.2761 5.5 10C5.5 9.72386 5.72386 9.5 6 9.5H7.29289L6.64645 8.85355C6.45118 8.65829 6.45118 8.34171 6.64645 8.14645C6.84171 7.95118 7.15829 7.95118 7.35355 8.14645L8.70711 9.5H9.5V8.70711L8.14645 7.35355C7.95118 7.15829 7.95118 6.84171 8.14645 6.64645C8.34171 6.45118 8.65829 6.45118 8.85355 6.64645L9.5 7.29289V6C9.5 5.72386 9.72386 5.5 10 5.5Z" fill="#2B2B2C"/>
</svg>
