<svg width="24" height="24" viewBox="0 0 24 24" fill="none" xmlns="http://www.w3.org/2000/svg">
<path fill-rule="evenodd" clip-rule="evenodd" d="M4.48082 9.73523L2.9259 12.262C2.78118 12.4972 2.47321 12.5705 2.23803 12.4258C2.00285 12.281 1.92952 11.9731 2.07425 11.7379L6.07425 5.23788C6.08154 5.22602 6.08933 5.21447 6.0976 5.20326C6.85734 4.17254 8.37592 3.93149 10.1582 4.52558C11.1391 4.85255 12.1152 5.31552 12.808 5.64413L12.9331 5.70344C13.5873 6.01319 13.9048 6.70146 13.9629 7.30272C14.0363 8.06254 14.5101 9.22128 16.7463 10.3288C17.229 10.5679 17.4853 11.1803 17.1918 11.7061C16.8872 12.2518 16.5493 12.7631 16.2226 13.2127C15.3309 14.4396 13.7258 14.703 12.4142 14.12L11.2496 13.6024C10.9549 14.1604 10.6392 14.7989 10.4969 16.0561C10.4521 16.452 10.451 16.9527 10.4632 17.5484C10.4668 17.7191 10.4714 17.8976 10.4761 18.082V18.082V18.0821V18.0821V18.0821V18.0822V18.0823C10.4877 18.5281 10.5001 19.0087 10.5001 19.4999C10.5001 19.7761 10.2762 19.9999 10.0001 19.9999C9.72393 19.9999 9.50008 19.7761 9.50008 19.4999C9.50008 19.0222 9.4882 18.5628 9.4768 18.1221L9.47679 18.1219C9.47194 17.9342 9.46717 17.7499 9.46345 17.5689L9.46208 17.4998C8.8961 17.494 7.75254 17.3598 6.44669 17.0489C5.10755 16.7301 3.55326 16.2151 2.24275 15.4287C2.09215 15.3384 2 15.1756 2 15V14V13.9981C2.00007 13.9741 2.00186 13.95 2.00543 13.9261C2.01799 13.8413 2.05185 13.7634 2.10139 13.6981C2.14731 13.6373 2.20513 13.5895 2.26957 13.5561C2.31648 13.5317 2.36774 13.5146 2.42189 13.5061C2.53387 13.4883 2.65249 13.5083 2.75732 13.5712C3.94834 14.2858 5.42345 14.7971 6.78213 15.1158C7.89599 15.3771 8.89479 15.5005 9.56168 15.5112C9.74011 14.3839 10.0621 13.7113 10.3334 13.1952L9.79701 12.9568C9.54466 12.8447 9.43102 12.5492 9.54317 12.2969C9.65532 12.0445 9.9508 11.9309 10.2031 12.043L12.8203 13.2062C13.7774 13.6316 14.8458 13.4061 15.4137 12.6247C15.7193 12.2042 16.0317 11.7312 16.3115 11.2315C16.3093 11.2292 16.3065 11.2269 16.3025 11.2249C13.8407 10.0057 13.0823 8.58687 12.9675 7.39884C12.931 7.02051 12.7405 6.71867 12.5052 6.60724L12.3889 6.55213C11.689 6.2203 10.763 5.78129 9.84196 5.47426C9.34888 5.3099 8.91782 5.2282 8.54615 5.20868L9.49196 10.4106C9.51591 10.5424 9.48604 10.6782 9.40902 10.7877C9.33201 10.8972 9.21429 10.9713 9.08223 10.9933C8.52439 11.0863 7.63292 11.1118 6.71277 10.8998C5.94851 10.7237 5.13256 10.3757 4.48082 9.73523ZM18.8536 13.3536L19.5 12.7071V18.2929L18.8536 17.6464C18.6583 17.4512 18.3417 17.4512 18.1464 17.6464C17.9512 17.8417 17.9512 18.1583 18.1464 18.3536L19.6464 19.8536C19.7402 19.9473 19.8674 20 20 20C20.1326 20 20.2598 19.9473 20.3536 19.8536L21.8536 18.3536C22.0488 18.1583 22.0488 17.8417 21.8536 17.6464C21.6583 17.4512 21.3417 17.4512 21.1464 17.6464L20.5 18.2929V12.7071L21.1464 13.3536C21.3417 13.5488 21.6583 13.5488 21.8536 13.3536C22.0488 13.1583 22.0488 12.8417 21.8536 12.6464L20.3536 11.1464C20.2598 11.0527 20.1326 11 20 11C19.8674 11 19.7402 11.0527 19.6464 11.1464L18.1464 12.6464C17.9512 12.8417 17.9512 13.1583 18.1464 13.3536C18.3417 13.5488 18.6583 13.5488 18.8536 13.3536Z" fill="#2B2B2C"/>
</svg>
