<svg width="24" height="24" viewBox="0 0 24 24" fill="none" xmlns="http://www.w3.org/2000/svg">
<path fill-rule="evenodd" clip-rule="evenodd" d="M6.91392 5.78145L5.02354 8.85331C5.52475 9.43246 6.2203 9.76016 6.93728 9.92535C7.4699 10.0481 7.99258 10.0756 8.41131 10.0572L7.5527 5.33485C7.2644 5.43992 7.05286 5.59959 6.91392 5.78145ZM2.9259 12.262L4.48082 9.73523C5.13256 10.3757 5.94851 10.7237 6.71277 10.8998C7.63292 11.1118 8.52439 11.0863 9.08223 10.9933C9.21429 10.9713 9.33201 10.8972 9.40902 10.7877C9.48604 10.6782 9.51591 10.5424 9.49196 10.4106L8.54615 5.20868C8.91782 5.2282 9.34887 5.3099 9.84196 5.47426C10.763 5.78129 11.689 6.2203 12.3889 6.55213L12.5052 6.60724C12.7405 6.71867 12.931 7.02051 12.9675 7.39884C13.0823 8.58687 13.8407 10.0057 16.3025 11.2249C16.3065 11.2269 16.3093 11.2292 16.3115 11.2315C16.0317 11.7312 15.7193 12.2042 15.4137 12.6247C14.8458 13.4061 13.7773 13.6316 12.8203 13.2062L10.2031 12.043C9.9508 11.9309 9.65532 12.0445 9.54316 12.2969C9.43101 12.5492 9.54466 12.8447 9.797 12.9568L10.3334 13.1952C10.0611 13.7133 9.7377 14.3889 9.55968 15.5239C8.27476 15.5661 6.45557 15.324 4.31242 13.6095C4.09679 13.437 3.78214 13.4719 3.60964 13.6876C3.43713 13.9032 3.47209 14.2179 3.68772 14.3904C5.9902 16.2323 8.00538 16.553 9.46343 16.5265C9.45262 16.8526 9.45595 17.2047 9.46345 17.5689C9.46717 17.7499 9.47194 17.9342 9.47679 18.1219L9.47679 18.1221C9.48819 18.5628 9.50007 19.0222 9.50007 19.4999C9.50007 19.7761 9.72393 19.9999 10.0001 19.9999C10.2762 19.9999 10.5001 19.7761 10.5001 19.4999C10.5001 19.0087 10.4877 18.528 10.4761 18.0822L10.4761 18.0821L10.4761 18.082C10.4714 17.8976 10.4667 17.7191 10.4632 17.5484C10.451 16.9527 10.4521 16.452 10.4969 16.0561C10.6392 14.7989 10.9549 14.1604 11.2496 13.6024L12.4142 14.12C13.7258 14.703 15.3309 14.4396 16.2226 13.2127C16.5493 12.7631 16.8872 12.2518 17.1918 11.7061C17.4853 11.1803 17.229 10.5679 16.7463 10.3288C14.5101 9.22128 14.0363 8.06254 13.9629 7.30272C13.9048 6.70146 13.5873 6.01319 12.9331 5.70344L12.808 5.64413C12.1152 5.31552 11.1391 4.85255 10.1582 4.52558C8.37592 3.93149 6.85734 4.17254 6.09759 5.20326C6.08933 5.21447 6.08154 5.22602 6.07424 5.23788L2.07424 11.7379C1.92952 11.9731 2.00284 12.281 2.23802 12.4258C2.4732 12.5705 2.78117 12.4972 2.9259 12.262ZM19.5 12.7071V18.2929L18.8536 17.6464C18.6583 17.4512 18.3417 17.4512 18.1464 17.6464C17.9512 17.8417 17.9512 18.1583 18.1464 18.3536L19.6464 19.8536C19.7402 19.9473 19.8674 20 20 20C20.1326 20 20.2598 19.9473 20.3536 19.8536L21.8536 18.3536C22.0488 18.1583 22.0488 17.8417 21.8536 17.6464C21.6583 17.4512 21.3417 17.4512 21.1464 17.6464L20.5 18.2929V12.7071L21.1464 13.3536C21.3417 13.5488 21.6583 13.5488 21.8536 13.3536C22.0488 13.1583 22.0488 12.8417 21.8536 12.6464L20.3536 11.1464C20.2598 11.0527 20.1326 11 20 11C19.8674 11 19.7402 11.0527 19.6464 11.1464L18.1464 12.6464C17.9512 12.8417 17.9512 13.1583 18.1464 13.3536C18.3417 13.5488 18.6583 13.5488 18.8536 13.3536L19.5 12.7071Z" fill="#2B2B2C"/>
</svg>
