<svg width="18" height="18" viewBox="0 0 18 18" fill="none" xmlns="http://www.w3.org/2000/svg">
<path fill-rule="evenodd" clip-rule="evenodd" d="M10.1768 2.11849C10.289 2.02349 10.4372 1.98264 10.5822 2.00681L13.5822 2.50681C13.685 2.52394 13.7799 2.57276 13.8536 2.64645L15.3536 4.14645C15.4473 4.24022 15.5 4.3674 15.5 4.5V6V6.5V7.5C15.5 9.433 13.933 11 12 11H10.1046L11.6881 12.4904C12.0393 12.1849 12.498 12 13 12C14.1046 12 15 12.8954 15 14C15 15.1046 14.1046 16 13 16C11.8954 16 11 15.1046 11 14C11 13.7634 11.0411 13.5364 11.1165 13.3257L8.66213 11.0156L6.248 13.0274C6.40853 13.3153 6.5 13.647 6.5 14C6.5 15.1046 5.60457 16 4.5 16C3.39543 16 2.5 15.1046 2.5 14C2.5 12.8954 3.39543 12 4.5 12C4.88799 12 5.25017 12.1105 5.55681 12.3017L7.92857 10.3252L3.36379 6.02897C3.16699 5.84375 2.85864 5.84842 2.66755 6.03951L2.35355 6.35351C2.15829 6.54877 1.84171 6.54877 1.64645 6.35351C1.45118 6.15825 1.45118 5.84167 1.64645 5.6464L1.96044 5.33241C2.53372 4.75913 3.45877 4.74512 4.04915 5.30077L4.79208 6L10 6V2.5C10 2.35303 10.0647 2.2135 10.1768 2.11849ZM14.5 4.70711V6L11 6V3.09023L13.2597 3.46686L14.5 4.70711ZM4.5 13C3.94772 13 3.5 13.4477 3.5 14C3.5 14.5523 3.94772 15 4.5 15C5.05228 15 5.5 14.5523 5.5 14C5.5 13.4477 5.05228 13 4.5 13ZM12 14C12 13.4477 12.4477 13 13 13C13.5523 13 14 13.4477 14 14C14 14.5523 13.5523 15 13 15C12.4477 15 12 14.5523 12 14Z" fill="#2B2B2C"/>
</svg>
