<svg width="18" height="18" viewBox="0 0 18 18" fill="none" xmlns="http://www.w3.org/2000/svg">
<path fill-rule="evenodd" clip-rule="evenodd" d="M10.5822 2.00681C10.4372 1.98264 10.289 2.02349 10.1768 2.11849C10.0647 2.2135 10 2.35303 10 2.5V6L4.79208 6L4.04915 5.30077C3.45877 4.74512 2.53372 4.75913 1.96044 5.33241L1.64645 5.6464C1.45118 5.84167 1.45118 6.15825 1.64645 6.35351C1.84171 6.54877 2.15829 6.54877 2.35355 6.35351L2.66755 6.03951C2.85864 5.84842 3.16699 5.84375 3.36379 6.02897L7.92857 10.3252L5.55681 12.3017C5.25017 12.1105 4.88799 12 4.5 12C3.39543 12 2.5 12.8954 2.5 14C2.5 15.1046 3.39543 16 4.5 16C5.60457 16 6.5 15.1046 6.5 14C6.5 13.647 6.40853 13.3153 6.248 13.0274L8.66213 11.0156L11.1165 13.3257C11.0411 13.5364 11 13.7634 11 14C11 15.1046 11.8954 16 13 16C14.1046 16 15 15.1046 15 14C15 12.8954 14.1046 12 13 12C12.498 12 12.0393 12.1849 11.6881 12.4904L10.1046 11H12C13.933 11 15.5 9.433 15.5 7.5V6.5V6V4.5C15.5 4.3674 15.4473 4.24022 15.3536 4.14645L13.8536 2.64645C13.7799 2.57276 13.685 2.52394 13.5822 2.50681L10.5822 2.00681ZM14.5 6V4.70711L13.2597 3.46686L11 3.09023V6L14.5 6ZM12 10H9.04208L5.85458 7H14.5V7.5C14.5 8.88071 13.3807 10 12 10ZM3.5 14C3.5 13.4477 3.94772 13 4.5 13C5.05228 13 5.5 13.4477 5.5 14C5.5 14.5523 5.05228 15 4.5 15C3.94772 15 3.5 14.5523 3.5 14ZM13 13C12.4477 13 12 13.4477 12 14C12 14.5523 12.4477 15 13 15C13.5523 15 14 14.5523 14 14C14 13.4477 13.5523 13 13 13Z" fill="#2B2B2C"/>
</svg>
