<svg width="30" height="30" viewBox="0 0 30 30" fill="none" xmlns="http://www.w3.org/2000/svg">
<path fill-rule="evenodd" clip-rule="evenodd" d="M11.5 6.5C11.5 7.88071 10.3807 9 9 9C7.61929 9 6.5 7.88071 6.5 6.5C6.5 5.11929 7.61929 4 9 4C10.3807 4 11.5 5.11929 11.5 6.5ZM7.08701 11.7995C7.0584 11.3667 7.40169 11 7.83537 11H10.1646C10.5983 11 10.9416 11.3667 10.913 11.7995L10.5692 17H7.43084L7.08701 11.7995ZM7.83537 10C6.87238 10 6.1004 10.775 6.08552 11.7201C6.0521 11.7696 6.02704 11.8259 6.01281 11.8876L4.51281 18.3876C4.45072 18.6566 4.6185 18.9251 4.88757 18.9872C5.15664 19.0493 5.42511 18.8815 5.4872 18.6124L6.30186 15.0822L6.90213 24.1613C6.97518 25.2661 7.89269 26.125 9 26.125C10.1073 26.125 11.0248 25.2661 11.0979 24.1613L11.6981 15.0822L12.5128 18.6124C12.5749 18.8815 12.8434 19.0493 13.1124 18.9872C13.3815 18.9251 13.5493 18.6566 13.4872 18.3876L11.9872 11.8876C11.973 11.8259 11.9479 11.7696 11.9145 11.7201C11.8996 10.775 11.1276 10 10.1646 10H7.83537ZM16.4709 18.6682L17.9107 14.6367L17.0044 21.4339C16.9853 21.5768 17.0289 21.7209 17.1238 21.8294C17.2188 21.9378 17.3559 22 17.5 22H18.5586L18.8178 24.0736C18.9554 25.1741 19.8909 26 21 26C22.1091 26 23.0446 25.1741 23.1822 24.0736L23.4414 22H24.5C24.6441 22 24.7813 21.9378 24.8762 21.8294C24.9711 21.7209 25.0147 21.5768 24.9956 21.4339L24.0893 14.6367L25.5291 18.6682C25.622 18.9282 25.9081 19.0638 26.1682 18.9709C26.4282 18.878 26.5637 18.5919 26.4709 18.3318L23.9709 11.3318C23.9554 11.2887 23.9347 11.2489 23.9096 11.2131C23.6555 10.4946 22.9177 10 22.1639 10H19.8361C19.0823 10 18.3446 10.4946 18.0904 11.213C18.0653 11.2489 18.0446 11.2886 18.0291 11.3318L15.5291 18.3318C15.4363 18.5919 15.5718 18.878 15.8318 18.9709C16.0919 19.0638 16.378 18.9282 16.4709 18.6682ZM19.8361 11C19.3558 11 18.973 11.4114 18.9989 11.7999C18.9996 11.811 19 11.8221 19 11.8331L19 13.5H23L23 11.8331C23 11.8221 23.0004 11.811 23.0011 11.7999C23.027 11.4113 22.6442 11 22.1639 11H19.8361ZM23.0617 14.4962C23.0415 14.4987 23.0209 14.5 23 14.5H23.0622L23.0617 14.4962ZM23.1956 15.5H18.8044L18.0711 21H23.9289L23.1956 15.5ZM23.5 6.5C23.5 7.88071 22.3807 9 21 9C19.6193 9 18.5 7.88071 18.5 6.5C18.5 5.11929 19.6193 4 21 4C22.3807 4 23.5 5.11929 23.5 6.5Z" fill="#2B2B2C"/>
</svg>
