<svg width="18" height="18" viewBox="0 0 18 18" fill="none" xmlns="http://www.w3.org/2000/svg">
<path fill-rule="evenodd" clip-rule="evenodd" d="M3 1.5C3 1.22386 3.22386 1 3.5 1H14.625C14.9011 1 15.125 1.22386 15.125 1.5V16.5C15.125 16.7761 14.9011 17 14.625 17H3.5C3.22386 17 3 16.7761 3 16.5V1.5ZM4 2V16H14.125V2H4Z" fill="#2B2B2C"/>
<path fill-rule="evenodd" clip-rule="evenodd" d="M3.5 16.5V1.5H14.625V16.5H3.5ZM5 3.5C5 3.22386 5.22386 3 5.5 3H9C9.27614 3 9.5 3.22386 9.5 3.5V11.5C9.5 11.7761 9.27614 12 9 12H5.5C5.22386 12 5 11.7761 5 11.5V3.5ZM6 4V11H8.5V4H6ZM5.5 13.5C5.22386 13.5 5 13.7239 5 14C5 14.2761 5.22386 14.5 5.5 14.5H12.5C12.7761 14.5 13 14.2761 13 14C13 13.7239 12.7761 13.5 12.5 13.5H5.5ZM10.5 9.5C10.5 9.22386 10.7239 9 11 9H12.5C12.7761 9 13 9.22386 13 9.5C13 9.77614 12.7761 10 12.5 10H11C10.7239 10 10.5 9.77614 10.5 9.5ZM11 7C10.7239 7 10.5 7.22386 10.5 7.5C10.5 7.77614 10.7239 8 11 8H12.5C12.7761 8 13 7.77614 13 7.5C13 7.22386 12.7761 7 12.5 7H11ZM10.5 5.5C10.5 5.22386 10.7239 5 11 5H12.5C12.7761 5 13 5.22386 13 5.5C13 5.77614 12.7761 6 12.5 6H11C10.7239 6 10.5 5.77614 10.5 5.5ZM11 3C10.7239 3 10.5 3.22386 10.5 3.5C10.5 3.77614 10.7239 4 11 4H12.5C12.7761 4 13 3.77614 13 3.5C13 3.22386 12.7761 3 12.5 3H11Z" fill="#2B2B2C"/>
</svg>
