<svg width="30" height="30" viewBox="0 0 30 30" fill="none" xmlns="http://www.w3.org/2000/svg">
<path fill-rule="evenodd" clip-rule="evenodd" d="M7.5 3C7.22386 3 7 3.22386 7 3.5V6.11151C4.99601 6.56624 3.5 8.35842 3.5 10.5V15.0223C3.5 15.7527 3.69851 16.4693 4.07429 17.0957C4.60728 17.984 4.64949 19.083 4.18621 20.0096L3.97508 20.4318C3.66265 21.0567 3.5 21.7457 3.5 22.4443V25C3.5 26.1046 4.39543 27 5.5 27H12.5C13.6046 27 14.5 26.1046 14.5 25V22.4319C14.5 21.7298 14.3357 21.0374 14.0203 20.4102L13.8283 20.0284C13.3554 19.0881 13.3936 17.9718 13.9297 17.066C14.303 16.4352 14.5 15.7157 14.5 14.9827V10.5C14.5 8.35841 13.004 6.56624 11 6.11151V3.5C11 3.22386 10.7761 3 10.5 3H7.5ZM10 7H8C6.23677 7 4.77806 8.30385 4.53544 10H13.4646C13.2219 8.30385 11.7632 7 10 7ZM5.15083 17H12.8419C12.3572 18.1072 12.3842 19.3827 12.9349 20.4777L13.1269 20.8594C13.3722 21.3473 13.5 21.8858 13.5 22.4319V25C13.5 25.5523 13.0523 26 12.5 26H5.5C4.94772 26 4.5 25.5523 4.5 25V22.4443C4.5 21.9009 4.62651 21.365 4.8695 20.879L5.08063 20.4568C5.62581 19.3664 5.64469 18.0965 5.15083 17ZM16.6308 15.1628C16.7255 15.0591 16.8595 15 17 15H26C26.1405 15 26.2745 15.0591 26.3692 15.1628C26.4639 15.2666 26.5107 15.4054 26.4979 15.5453L25.4979 26.5453C25.4745 26.8028 25.2586 27 25 27H18C17.7414 27 17.5255 26.8028 17.5021 26.5453L16.5021 15.5453C16.4893 15.4054 16.5361 15.2666 16.6308 15.1628ZM17.9381 20.2967L18.4566 26H24.5434L25.1125 19.7397C23.9806 20.211 22.7073 20.2367 21.5515 19.8033C20.3397 19.3489 18.9818 19.5353 17.9381 20.2967Z" fill="#2B2B2C"/>
</svg>
