<svg width="18" height="18" viewBox="0 0 18 18" fill="none" xmlns="http://www.w3.org/2000/svg">
<path fill-rule="evenodd" clip-rule="evenodd" d="M9 3C9 2.44772 9.44771 2 10 2C10.5523 2 11 2.44772 11 3C11 3.55228 10.5523 4 10 4C9.44771 4 9 3.55228 9 3ZM10 1C8.89543 1 8 1.89543 8 3C8 4.10457 8.89543 5 10 5C11.1046 5 12 4.10457 12 3C12 1.89543 11.1046 1 10 1ZM4 13C4 11.8413 4.65693 10.836 5.61867 10.3362L7.07125 12.7572C7.21333 12.994 7.52046 13.0708 7.75725 12.9287C7.99404 12.7866 8.07082 12.4795 7.92875 12.2427L6.59906 10.0266C6.73021 10.009 6.86405 10 7 10C8.65685 10 10 11.3431 10 13C10 14.6569 8.65685 16 7 16C5.34315 16 4 14.6569 4 13ZM3 13C3 11.2316 4.14756 9.73123 5.73863 9.20295L6.50646 6.89945C6.88053 5.77724 8.09351 5.17075 9.21572 5.54482C10.2775 5.89874 10.8878 7.01046 10.6163 8.09625L10.1404 10H12C12.1894 10 12.3625 10.107 12.4472 10.2764L14.4472 14.2764C14.5247 14.4314 14.5164 14.6155 14.4253 14.7629C14.3342 14.9103 14.1733 15 14 15H13.1606C12.2635 15 11.4351 14.5193 10.99 13.7403L10.9454 13.6623C10.6299 15.5562 8.98353 17 7 17C4.79086 17 3 15.2091 3 13Z" fill="#2B2B2C"/>
</svg>
