<svg width="18" height="18" viewBox="0 0 18 18" fill="none" xmlns="http://www.w3.org/2000/svg">
<path fill-rule="evenodd" clip-rule="evenodd" d="M2.85048 7.50019C4.36219 5.81118 6.55665 4.75 8.99995 4.75C11.4433 4.75 13.6377 5.81118 15.1494 7.50019C15.4257 7.80883 15.8998 7.8351 16.2085 7.55885C16.5171 7.28261 16.5434 6.80846 16.2671 6.49981C14.4829 4.50633 11.8876 3.25 8.99995 3.25C6.11226 3.25 3.517 4.50633 1.73278 6.49981C1.45654 6.80846 1.4828 7.28261 1.79145 7.55885C2.10009 7.8351 2.57424 7.80883 2.85048 7.50019ZM9.00002 7.75C7.27468 7.75 5.73129 8.52588 4.69829 9.75045C4.43121 10.0671 3.95804 10.1072 3.64143 9.84014C3.32482 9.57306 3.28466 9.09988 3.55174 8.78327C4.85756 7.23528 6.8141 6.25 9.00002 6.25C11.1859 6.25 13.1425 7.23528 14.4483 8.78327C14.7154 9.09988 14.6752 9.57306 14.3586 9.84014C14.042 10.1072 13.5688 10.0671 13.3017 9.75045C12.2687 8.52588 10.7254 7.75 9.00002 7.75ZM6.59966 11.9501C7.14827 11.2199 8.01917 10.75 9.00004 10.75C9.98092 10.75 10.8518 11.2199 11.4004 11.9501C11.6492 12.2813 12.1194 12.3481 12.4506 12.0993C12.7817 11.8504 12.8485 11.3803 12.5997 11.0491C11.7799 9.95807 10.4726 9.25 9.00004 9.25C7.52752 9.25 6.22016 9.95807 5.40042 11.0491C5.15162 11.3803 5.21838 11.8504 5.54954 12.0993C5.8807 12.3481 6.35086 12.2813 6.59966 11.9501ZM7.5 14C7.5 13.1716 8.17157 12.5 9 12.5C9.82843 12.5 10.5 13.1716 10.5 14C10.5 14.8284 9.82843 15.5 9 15.5C8.17157 15.5 7.5 14.8284 7.5 14Z" fill="#2B2B2C"/>
</svg>
