<svg width="30" height="30" viewBox="0 0 30 30" fill="none" xmlns="http://www.w3.org/2000/svg">
<path fill-rule="evenodd" clip-rule="evenodd" d="M4.19202 11.8335C6.84779 8.8662 10.7056 7 15 7C19.2944 7 23.1522 8.8662 25.808 11.8335C25.9921 12.0392 26.3082 12.0567 26.514 11.8726C26.7197 11.6884 26.7373 11.3723 26.5531 11.1665C23.7156 7.9963 19.5906 6 15 6C10.4094 6 6.28433 7.9963 3.44689 11.1665C3.26272 11.3723 3.28024 11.6884 3.486 11.8726C3.69176 12.0567 4.00786 12.0392 4.19202 11.8335ZM15 11.5C11.8941 11.5 9.11525 12.8978 7.25717 15.1005C7.07912 15.3116 6.76367 15.3383 6.5526 15.1603C6.34152 14.9822 6.31475 14.6668 6.49281 14.4557C8.53277 12.0374 11.5871 10.5 15 10.5C18.4129 10.5 21.4672 12.0374 23.5072 14.4557C23.6852 14.6668 23.6585 14.9822 23.4474 15.1603C23.2363 15.3383 22.9209 15.3116 22.7428 15.1005C20.8847 12.8978 18.1058 11.5 15 11.5ZM10.3997 18.2997C11.4497 16.9023 13.1194 16 15 16C16.8806 16 18.5503 16.9023 19.6003 18.2997C19.7661 18.5205 20.0796 18.565 20.3003 18.3991C20.5211 18.2333 20.5656 17.9198 20.3997 17.6991C19.1691 16.0611 17.2084 15 15 15C12.7916 15 10.8309 16.0611 9.60025 17.6991C9.43438 17.9198 9.47889 18.2333 9.69966 18.3991C9.92044 18.565 10.2339 18.5205 10.3997 18.2997ZM13.5 21.5C13.5 20.6716 14.1716 20 15 20C15.8284 20 16.5 20.6716 16.5 21.5C16.5 22.3284 15.8284 23 15 23C14.1716 23 13.5 22.3284 13.5 21.5ZM15 19C13.6193 19 12.5 20.1193 12.5 21.5C12.5 22.8807 13.6193 24 15 24C16.3807 24 17.5 22.8807 17.5 21.5C17.5 20.1193 16.3807 19 15 19Z" fill="#2B2B2C"/>
</svg>
