<svg width="18" height="18" viewBox="0 0 18 18" fill="none" xmlns="http://www.w3.org/2000/svg">
<path fill-rule="evenodd" clip-rule="evenodd" d="M2.66432 7.83346C4.22144 6.0937 6.4827 5 9.00007 5C11.5174 5 13.7787 6.0937 15.3358 7.83346C15.52 8.03922 15.8361 8.05673 16.0418 7.87257C16.2476 7.6884 16.2651 7.37231 16.081 7.16654C14.3422 5.2238 11.8137 4 9.00007 4C6.18644 4 3.65799 5.2238 1.91919 7.16654C1.73502 7.37231 1.75253 7.6884 1.9583 7.87257C2.16406 8.05673 2.48016 8.03922 2.66432 7.83346ZM9.00001 7.5C7.19791 7.5 5.58566 8.31078 4.50719 9.58926C4.32914 9.80033 4.01369 9.8271 3.80262 9.64905C3.59155 9.47099 3.56478 9.15554 3.74283 8.94447C5.00318 7.45038 6.89085 6.5 9.00001 6.5C11.1092 6.5 12.9968 7.45038 14.2572 8.94447C14.4352 9.15554 14.4085 9.47099 14.1974 9.64905C13.9863 9.8271 13.6709 9.80033 13.4928 9.58926C12.4144 8.31078 10.8021 7.5 9.00001 7.5ZM6.39978 11.3003C6.99357 10.51 7.93721 10.0004 9.00003 10.0004C10.0628 10.0004 11.0065 10.51 11.6003 11.3003C11.7662 11.5211 12.0796 11.5656 12.3004 11.3997C12.5211 11.2339 12.5656 10.9204 12.3998 10.6997C11.6252 9.66875 10.3906 9.00037 9.00003 9.00037C7.60945 9.00037 6.37483 9.66875 5.60028 10.6997C5.43441 10.9204 5.47892 11.2339 5.69969 11.3997C5.92047 11.5656 6.2339 11.5211 6.39978 11.3003ZM8.5 13C8.5 12.7239 8.72386 12.5 9 12.5C9.27614 12.5 9.5 12.7239 9.5 13C9.5 13.2761 9.27614 13.5 9 13.5C8.72386 13.5 8.5 13.2761 8.5 13ZM9 11.5C8.17157 11.5 7.5 12.1716 7.5 13C7.5 13.8284 8.17157 14.5 9 14.5C9.82843 14.5 10.5 13.8284 10.5 13C10.5 12.1716 9.82843 11.5 9 11.5Z" fill="#2B2B2C"/>
</svg>
