<svg width="30" height="30" viewBox="0 0 30 30" fill="none" xmlns="http://www.w3.org/2000/svg">
<path fill-rule="evenodd" clip-rule="evenodd" d="M15.5 5C12.9987 5 10.6831 5.96714 8.8616 7.5H10C10.5523 7.5 11 7.94772 11 8.5C11 9.05228 10.5523 9.5 10 9.5H5.6327L5.01005 5.14142C4.93195 4.59469 5.31184 4.08816 5.85858 4.01005C6.40531 3.93195 6.91184 4.31184 6.98995 4.85858L7.19597 6.30071C9.39014 4.30929 12.2937 3 15.5 3C22.4036 3 28 8.59644 28 15.5C28 22.4036 22.4036 28 15.5 28C8.59644 28 3 22.4036 3 15.5C3 14.9477 3.44772 14.5 4 14.5C4.55228 14.5 5 14.9477 5 15.5C5 21.299 9.70101 26 15.5 26C21.299 26 26 21.299 26 15.5C26 9.70101 21.299 5 15.5 5ZM17.8235 14.22C18.3515 14.22 18.8155 14.336 19.2155 14.568C19.6235 14.792 19.9355 15.1 20.1515 15.492C20.3755 15.876 20.4875 16.304 20.4875 16.776C20.4875 17.328 20.3595 17.828 20.1035 18.276C19.8475 18.724 19.4875 19.076 19.0235 19.332C18.5675 19.58 18.0515 19.704 17.4755 19.704C16.5155 19.704 15.6795 19.48 14.9675 19.032C14.7835 18.912 14.6475 18.816 14.5595 18.744C14.4715 18.664 14.4275 18.584 14.4275 18.504C14.4275 18.472 14.4435 18.432 14.4755 18.384L15.1115 17.496C15.2075 17.648 15.3995 17.812 15.6875 17.988C15.9275 18.132 16.1795 18.248 16.4435 18.336C16.7155 18.424 17.0275 18.468 17.3795 18.468C17.8515 18.468 18.2435 18.32 18.5555 18.024C18.8675 17.728 19.0235 17.352 19.0235 16.896C19.0235 16.44 18.8835 16.08 18.6035 15.816C18.3315 15.544 17.9555 15.408 17.4755 15.408C17.2115 15.408 16.9555 15.456 16.7075 15.552C16.4675 15.64 16.2595 15.764 16.0835 15.924L14.8115 15.804L15.1715 11.34H19.3235C19.5635 11.34 19.7355 11.336 19.8395 11.328C19.9515 11.32 20.0275 11.296 20.0675 11.256H20.0795V12.276C20.0795 12.404 20.0235 12.484 19.9115 12.516C19.8075 12.548 19.6275 12.564 19.3715 12.564H16.3835L16.2035 14.736C16.6275 14.392 17.1675 14.22 17.8235 14.22ZM13.088 19.224C13.064 19.112 13.052 18.928 13.052 18.672V11.34H11.936C11.808 11.636 11.616 11.892 11.36 12.108C11.112 12.316 10.784 12.42 10.376 12.42H10.232C10.096 12.42 10.008 12.404 9.968 12.372V13.164C9.968 13.292 10.02 13.372 10.124 13.404C10.236 13.436 10.42 13.452 10.676 13.452H11.588V18.816C11.588 19.064 11.616 19.24 11.672 19.344C11.728 19.448 11.844 19.5 12.02 19.5H13.268V19.488C13.18 19.424 13.12 19.336 13.088 19.224Z" fill="#2B2B2C"/>
</svg>
