<svg width="18" height="18" viewBox="0 0 18 18" fill="none" xmlns="http://www.w3.org/2000/svg">
<path fill-rule="evenodd" clip-rule="evenodd" d="M9.00021 2.50003C7.02774 2.50003 5.26015 3.37835 4.06757 4.7667H5.26688C5.54302 4.7667 5.76688 4.99055 5.76688 5.2667C5.76688 5.54284 5.54302 5.7667 5.26688 5.7667H2.69186L1.98318 3.06001C1.91324 2.79287 2.0731 2.51961 2.34024 2.44967C2.60737 2.37973 2.88063 2.53958 2.95058 2.80672L3.29688 4.12936C4.67196 2.52077 6.71675 1.50003 9.00021 1.50003C13.1423 1.50003 16.5002 4.85789 16.5002 9.00003C16.5002 13.1422 13.1423 16.5 9.00021 16.5C4.85808 16.5 1.50021 13.1422 1.50021 9.00003C1.50021 8.72389 1.72407 8.50003 2.00021 8.50003C2.27636 8.50003 2.50021 8.72389 2.50021 9.00003C2.50021 12.5899 5.41036 15.5 9.00021 15.5C12.5901 15.5 15.5002 12.5899 15.5002 9.00003C15.5002 5.41018 12.5901 2.50003 9.00021 2.50003ZM10.3554 8.34388C10.6634 8.34388 10.9341 8.41155 11.1674 8.54688C11.4054 8.67755 11.5874 8.85722 11.7134 9.08588C11.8441 9.30988 11.9094 9.55955 11.9094 9.83488C11.9094 10.1569 11.8347 10.4486 11.6854 10.7099C11.5361 10.9712 11.3261 11.1766 11.0554 11.3259C10.7894 11.4706 10.4884 11.5429 10.1524 11.5429C9.59239 11.5429 9.10472 11.4122 8.68939 11.1509C8.58205 11.0809 8.50272 11.0249 8.45139 10.9829C8.40005 10.9362 8.37439 10.8896 8.37439 10.8429C8.37439 10.8242 8.38372 10.8009 8.40239 10.7729L8.77339 10.2549C8.82939 10.3436 8.94139 10.4392 9.10939 10.5419C9.24939 10.6259 9.39639 10.6936 9.55039 10.7449C9.70905 10.7962 9.89105 10.8219 10.0964 10.8219C10.3717 10.8219 10.6004 10.7355 10.7824 10.5629C10.9644 10.3902 11.0554 10.1709 11.0554 9.90488C11.0554 9.63888 10.9737 9.42888 10.8104 9.27488C10.6517 9.11622 10.4324 9.03688 10.1524 9.03688C9.99839 9.03688 9.84905 9.06488 9.70439 9.12088C9.56439 9.17222 9.44305 9.24455 9.34039 9.33788L8.59839 9.26788L8.80839 6.66388H11.2304C11.3704 6.66388 11.4707 6.66155 11.5314 6.65688C11.5967 6.65222 11.6411 6.63822 11.6644 6.61488H11.6714V7.20988C11.6714 7.28455 11.6387 7.33122 11.5734 7.34988C11.5127 7.36855 11.4077 7.37788 11.2584 7.37788H9.51539L9.41039 8.64488C9.65772 8.44422 9.97272 8.34388 10.3554 8.34388ZM7.59301 11.2629C7.57901 11.1976 7.57201 11.0902 7.57201 10.9409V6.66388H6.92101C6.84634 6.83655 6.73434 6.98588 6.58501 7.11188C6.44034 7.23322 6.24901 7.29388 6.01101 7.29388H5.92701C5.84768 7.29388 5.79634 7.28455 5.77301 7.26588V7.72788C5.77301 7.80255 5.80334 7.84922 5.86401 7.86788C5.92934 7.88655 6.03668 7.89588 6.18601 7.89588H6.71801V11.0249C6.71801 11.1696 6.73434 11.2722 6.76701 11.3329C6.79968 11.3936 6.86734 11.4239 6.97001 11.4239H7.69801V11.4169C7.64668 11.3796 7.61168 11.3282 7.59301 11.2629Z" fill="#2B2B2C"/>
</svg>
