<svg width="24" height="24" viewBox="0 0 24 24" fill="none" xmlns="http://www.w3.org/2000/svg">
<path fill-rule="evenodd" clip-rule="evenodd" d="M12.0002 4.00003C9.46581 4.00003 7.25731 5.17888 5.80202 7.02635H7.52652C7.80266 7.02635 8.02652 7.2502 8.02652 7.52635C8.02652 7.80249 7.80266 8.02635 7.52652 8.02635H4.41875L3.90175 4.92434C3.85635 4.65195 4.04036 4.39434 4.31274 4.34894C4.58513 4.30354 4.84274 4.48755 4.88814 4.75994L5.13767 6.25714C6.77148 4.2705 9.20882 3.00003 12.0002 3.00003C16.9708 3.00003 21.0002 7.02947 21.0002 12C21.0002 16.9706 16.9708 21 12.0002 21C7.02964 21 3.00021 16.9706 3.00021 12C3.00021 11.7239 3.22406 11.5 3.50021 11.5C3.77635 11.5 4.00021 11.7239 4.00021 12C4.00021 16.4183 7.58193 20 12.0002 20C16.4185 20 20.0002 16.4183 20.0002 12C20.0002 7.58175 16.4185 4.00003 12.0002 4.00003ZM13.7428 11.144C14.1388 11.144 14.4868 11.231 14.7868 11.405C15.0928 11.573 15.3268 11.804 15.4888 12.098C15.6568 12.386 15.7408 12.707 15.7408 13.061C15.7408 13.475 15.6448 13.85 15.4528 14.186C15.2608 14.522 14.9908 14.786 14.6428 14.978C14.3008 15.164 13.9138 15.257 13.4818 15.257C12.7618 15.257 12.1348 15.089 11.6008 14.753C11.4628 14.663 11.3608 14.591 11.2948 14.537C11.2288 14.477 11.1958 14.417 11.1958 14.357C11.1958 14.333 11.2078 14.303 11.2318 14.267L11.7088 13.601C11.7808 13.715 11.9248 13.838 12.1408 13.97C12.3208 14.078 12.5098 14.165 12.7078 14.231C12.9118 14.297 13.1458 14.33 13.4098 14.33C13.7638 14.33 14.0578 14.219 14.2918 13.997C14.5258 13.775 14.6428 13.493 14.6428 13.151C14.6428 12.809 14.5378 12.539 14.3278 12.341C14.1238 12.137 13.8418 12.035 13.4818 12.035C13.2838 12.035 13.0918 12.071 12.9058 12.143C12.7258 12.209 12.5698 12.302 12.4378 12.422L11.4838 12.332L11.7538 8.98402H14.8678C15.0478 8.98402 15.1768 8.98102 15.2548 8.97502C15.3388 8.96902 15.3958 8.95102 15.4258 8.92102H15.4348V9.68602C15.4348 9.78202 15.3928 9.84202 15.3088 9.86602C15.2308 9.89002 15.0958 9.90202 14.9038 9.90202H12.6628L12.5278 11.531C12.8458 11.273 13.2508 11.144 13.7428 11.144ZM10.1912 14.897C10.1732 14.813 10.1642 14.675 10.1642 14.483V8.98402H9.32721C9.23121 9.20602 9.08721 9.39802 8.89521 9.56002C8.70921 9.71602 8.46321 9.79402 8.15721 9.79402H8.04921C7.94721 9.79402 7.88121 9.78202 7.85121 9.75802V10.352C7.85121 10.448 7.89021 10.508 7.96821 10.532C8.05221 10.556 8.19021 10.568 8.38221 10.568H9.06621V14.591C9.06621 14.777 9.08721 14.909 9.12921 14.987C9.17121 15.065 9.25821 15.104 9.39021 15.104H10.3262V15.095C10.2602 15.047 10.2152 14.981 10.1912 14.897Z" fill="#2B2B2C"/>
</svg>
