<svg width="24" height="24" viewBox="0 0 24 24" fill="none" xmlns="http://www.w3.org/2000/svg">
<path fill-rule="evenodd" clip-rule="evenodd" d="M12.0002 4.37503C9.87826 4.37503 7.99521 5.24224 6.62755 6.65135H7.52652C8.00977 6.65135 8.40152 7.0431 8.40152 7.52635C8.40152 8.0096 8.00977 8.40135 7.52652 8.40135H4.10108L3.53185 4.98598C3.4524 4.50931 3.77442 4.05849 4.25109 3.97904C4.72777 3.8996 5.17859 4.22161 5.25804 4.69829L5.37922 5.42536C7.05708 3.70083 9.37837 2.62503 12.0002 2.62503C17.1779 2.62503 21.3752 6.82236 21.3752 12C21.3752 17.1777 17.1779 21.375 12.0002 21.375C6.82254 21.375 2.62521 17.1777 2.62521 12C2.62521 11.5168 3.01696 11.125 3.50021 11.125C3.98346 11.125 4.37521 11.5168 4.37521 12C4.37521 16.2112 7.78903 19.625 12.0002 19.625C16.2114 19.625 19.6252 16.2112 19.6252 12C19.6252 7.78886 16.2114 4.37503 12.0002 4.37503ZM13.7428 11.144C14.1388 11.144 14.4868 11.231 14.7868 11.405C15.0928 11.573 15.3268 11.804 15.4888 12.098C15.6568 12.386 15.7408 12.707 15.7408 13.061C15.7408 13.475 15.6448 13.85 15.4528 14.186C15.2608 14.522 14.9908 14.786 14.6428 14.978C14.3008 15.164 13.9138 15.257 13.4818 15.257C12.7618 15.257 12.1348 15.089 11.6008 14.753C11.4628 14.663 11.3608 14.591 11.2948 14.537C11.2288 14.477 11.1958 14.417 11.1958 14.357C11.1958 14.333 11.2078 14.303 11.2318 14.267L11.7088 13.601C11.7808 13.715 11.9248 13.838 12.1408 13.97C12.3208 14.078 12.5098 14.165 12.7078 14.231C12.9118 14.297 13.1458 14.33 13.4098 14.33C13.7638 14.33 14.0578 14.219 14.2918 13.997C14.5258 13.775 14.6428 13.493 14.6428 13.151C14.6428 12.809 14.5378 12.539 14.3278 12.341C14.1238 12.137 13.8418 12.035 13.4818 12.035C13.2838 12.035 13.0918 12.071 12.9058 12.143C12.7258 12.209 12.5698 12.302 12.4378 12.422L11.4838 12.332L11.7538 8.98402H14.8678C15.0478 8.98402 15.1768 8.98102 15.2548 8.97502C15.3388 8.96902 15.3958 8.95102 15.4258 8.92102H15.4348V9.68602C15.4348 9.78202 15.3928 9.84202 15.3088 9.86602C15.2308 9.89002 15.0958 9.90202 14.9038 9.90202H12.6628L12.5278 11.531C12.8458 11.273 13.2508 11.144 13.7428 11.144ZM10.1912 14.897C10.1732 14.813 10.1642 14.675 10.1642 14.483V8.98402H9.32721C9.23121 9.20602 9.08721 9.39802 8.89521 9.56002C8.70921 9.71602 8.46321 9.79402 8.15721 9.79402H8.04921C7.94721 9.79402 7.88121 9.78202 7.85121 9.75802V10.352C7.85121 10.448 7.89021 10.508 7.96821 10.532C8.05221 10.556 8.19021 10.568 8.38221 10.568H9.06621V14.591C9.06621 14.777 9.08721 14.909 9.12921 14.987C9.17121 15.065 9.25821 15.104 9.39021 15.104H10.3262V15.095C10.2602 15.047 10.2152 14.981 10.1912 14.897Z" fill="#2B2B2C"/>
</svg>
