<svg width="18" height="18" viewBox="0 0 18 18" fill="none" xmlns="http://www.w3.org/2000/svg">
<path fill-rule="evenodd" clip-rule="evenodd" d="M9.00021 2.75003C10.6929 2.75003 12.2288 3.42262 13.3549 4.5167H12.7335C12.3193 4.5167 11.9835 4.85248 11.9835 5.2667C11.9835 5.68091 12.3193 6.0167 12.7335 6.0167H15.5015L16.2591 3.12333C16.364 2.72262 16.1242 2.31274 15.7235 2.20782C15.3228 2.10291 14.9129 2.34269 14.808 2.7434L14.5785 3.62003C13.1696 2.15963 11.1913 1.25003 9.00021 1.25003C4.72001 1.25003 1.25021 4.71982 1.25021 9.00003C1.25021 13.2802 4.72001 16.75 9.00021 16.75C13.2804 16.75 16.7502 13.2802 16.7502 9.00003C16.7502 8.58582 16.4144 8.25003 16.0002 8.25003C15.586 8.25003 15.2502 8.58582 15.2502 9.00003C15.2502 12.4518 12.452 15.25 9.00021 15.25C5.54843 15.25 2.75021 12.4518 2.75021 9.00003C2.75021 5.54825 5.54843 2.75003 9.00021 2.75003ZM10.3554 8.34388C10.6634 8.34388 10.9341 8.41154 11.1674 8.54688C11.4054 8.67754 11.5874 8.85721 11.7134 9.08588C11.8441 9.30988 11.9094 9.55954 11.9094 9.83488C11.9094 10.1569 11.8347 10.4485 11.6854 10.7099C11.5361 10.9712 11.3261 11.1765 11.0554 11.3259C10.7894 11.4705 10.4884 11.5429 10.1524 11.5429C9.59239 11.5429 9.10472 11.4122 8.68939 11.1509C8.58205 11.0809 8.50272 11.0249 8.45139 10.9829C8.40005 10.9362 8.37439 10.8895 8.37439 10.8429C8.37439 10.8242 8.38372 10.8009 8.40239 10.7729L8.77339 10.2549C8.82939 10.3435 8.94139 10.4392 9.10939 10.5419C9.24939 10.6259 9.39639 10.6935 9.55039 10.7449C9.70905 10.7962 9.89105 10.8219 10.0964 10.8219C10.3717 10.8219 10.6004 10.7355 10.7824 10.5629C10.9644 10.3902 11.0554 10.1709 11.0554 9.90488C11.0554 9.63888 10.9737 9.42888 10.8104 9.27488C10.6517 9.11621 10.4324 9.03688 10.1524 9.03688C9.99839 9.03688 9.84905 9.06488 9.70439 9.12088C9.56439 9.17221 9.44305 9.24454 9.34039 9.33788L8.59839 9.26788L8.80839 6.66388H11.2304C11.3704 6.66388 11.4707 6.66154 11.5314 6.65688C11.5967 6.65221 11.6411 6.63821 11.6644 6.61488H11.6714V7.20988C11.6714 7.28454 11.6387 7.33121 11.5734 7.34988C11.5127 7.36854 11.4077 7.37788 11.2584 7.37788H9.51539L9.41039 8.64488C9.65772 8.44421 9.97272 8.34388 10.3554 8.34388ZM7.59301 11.2629C7.57901 11.1975 7.57201 11.0902 7.57201 10.9409V6.66388H6.92101C6.84634 6.83654 6.73434 6.98588 6.58501 7.11188C6.44034 7.23321 6.24901 7.29388 6.01101 7.29388H5.92701C5.84768 7.29388 5.79634 7.28454 5.77301 7.26588V7.72788C5.77301 7.80254 5.80334 7.84921 5.86401 7.86788C5.92934 7.88654 6.03668 7.89588 6.18601 7.89588H6.71801V11.0249C6.71801 11.1695 6.73434 11.2722 6.76701 11.3329C6.79968 11.3935 6.86734 11.4239 6.97001 11.4239H7.69801V11.4169C7.64668 11.3795 7.61168 11.3282 7.59301 11.2629Z" fill="#2B2B2C"/>
</svg>
