<svg width="18" height="18" viewBox="0 0 18 18" fill="none" xmlns="http://www.w3.org/2000/svg">
<path fill-rule="evenodd" clip-rule="evenodd" d="M9.00021 2.50003C10.9727 2.50003 12.7403 3.37835 13.9329 4.7667H12.7335C12.4574 4.7667 12.2335 4.99055 12.2335 5.2667C12.2335 5.54284 12.4574 5.7667 12.7335 5.7667H15.3086L16.0172 3.06001C16.0872 2.79287 15.9273 2.51961 15.6602 2.44967C15.3931 2.37973 15.1198 2.53958 15.0499 2.80672L14.7036 4.12936C13.3285 2.52077 11.2837 1.50003 9.00021 1.50003C4.85808 1.50003 1.50021 4.85789 1.50021 9.00003C1.50021 13.1422 4.85808 16.5 9.00021 16.5C13.1423 16.5 16.5002 13.1422 16.5002 9.00003C16.5002 8.72389 16.2764 8.50003 16.0002 8.50003C15.7241 8.50003 15.5002 8.72389 15.5002 9.00003C15.5002 12.5899 12.5901 15.5 9.00021 15.5C5.41036 15.5 2.50021 12.5899 2.50021 9.00003C2.50021 5.41018 5.41036 2.50003 9.00021 2.50003ZM10.3554 8.34388C10.6634 8.34388 10.9341 8.41154 11.1674 8.54688C11.4054 8.67754 11.5874 8.85721 11.7134 9.08588C11.8441 9.30988 11.9094 9.55954 11.9094 9.83488C11.9094 10.1569 11.8347 10.4485 11.6854 10.7099C11.5361 10.9712 11.3261 11.1765 11.0554 11.3259C10.7894 11.4705 10.4884 11.5429 10.1524 11.5429C9.59239 11.5429 9.10472 11.4122 8.68939 11.1509C8.58205 11.0809 8.50272 11.0249 8.45139 10.9829C8.40005 10.9362 8.37439 10.8895 8.37439 10.8429C8.37439 10.8242 8.38372 10.8009 8.40239 10.7729L8.77339 10.2549C8.82939 10.3435 8.94139 10.4392 9.10939 10.5419C9.24939 10.6259 9.39639 10.6935 9.55039 10.7449C9.70905 10.7962 9.89105 10.8219 10.0964 10.8219C10.3717 10.8219 10.6004 10.7355 10.7824 10.5629C10.9644 10.3902 11.0554 10.1709 11.0554 9.90488C11.0554 9.63888 10.9737 9.42888 10.8104 9.27488C10.6517 9.11621 10.4324 9.03688 10.1524 9.03688C9.99839 9.03688 9.84905 9.06488 9.70439 9.12088C9.56439 9.17221 9.44305 9.24454 9.34039 9.33788L8.59839 9.26788L8.80839 6.66388H11.2304C11.3704 6.66388 11.4707 6.66154 11.5314 6.65688C11.5967 6.65221 11.6411 6.63821 11.6644 6.61488H11.6714V7.20988C11.6714 7.28454 11.6387 7.33121 11.5734 7.34988C11.5127 7.36854 11.4077 7.37788 11.2584 7.37788H9.51539L9.41039 8.64488C9.65772 8.44421 9.97272 8.34388 10.3554 8.34388ZM7.59301 11.2629C7.57901 11.1975 7.57201 11.0902 7.57201 10.9409V6.66388H6.92101C6.84634 6.83654 6.73434 6.98588 6.58501 7.11188C6.44034 7.23321 6.24901 7.29388 6.01101 7.29388H5.92701C5.84768 7.29388 5.79634 7.28454 5.77301 7.26588V7.72788C5.77301 7.80254 5.80334 7.84921 5.86401 7.86788C5.92934 7.88654 6.03668 7.89588 6.18601 7.89588H6.71801V11.0249C6.71801 11.1695 6.73434 11.2722 6.76701 11.3329C6.79968 11.3935 6.86734 11.4239 6.97001 11.4239H7.69801V11.4169C7.64668 11.3795 7.61168 11.3282 7.59301 11.2629Z" fill="#2B2B2C"/>
</svg>
