<svg width="24" height="24" viewBox="0 0 24 24" fill="none" xmlns="http://www.w3.org/2000/svg">
<path fill-rule="evenodd" clip-rule="evenodd" d="M12.0002 4.00008C14.5346 4.00008 16.7431 5.17892 18.1984 7.02639H16.4739C16.1978 7.02639 15.9739 7.25025 15.9739 7.52639C15.9739 7.80253 16.1978 8.02639 16.4739 8.02639H19.5817L20.0987 4.92438C20.1441 4.652 19.9601 4.39438 19.6877 4.34898C19.4153 4.30359 19.1577 4.4876 19.1123 4.75998L18.8627 6.25718C17.2289 4.27054 14.7916 3.00008 12.0002 3.00008C7.02965 3.00008 3.00021 7.02951 3.00021 12.0001C3.00021 16.9706 7.02965 21.0001 12.0002 21.0001C16.9708 21.0001 21.0002 16.9706 21.0002 12.0001C21.0002 11.7239 20.7764 11.5001 20.5002 11.5001C20.2241 11.5001 20.0002 11.7239 20.0002 12.0001C20.0002 16.4184 16.4185 20.0001 12.0002 20.0001C7.58194 20.0001 4.00021 16.4184 4.00021 12.0001C4.00021 7.5818 7.58194 4.00008 12.0002 4.00008ZM13.7428 11.1441C14.1388 11.1441 14.4868 11.2311 14.7868 11.4051C15.0928 11.5731 15.3268 11.8041 15.4888 12.0981C15.6568 12.3861 15.7408 12.7071 15.7408 13.0611C15.7408 13.4751 15.6448 13.8501 15.4528 14.1861C15.2608 14.5221 14.9908 14.7861 14.6428 14.9781C14.3008 15.1641 13.9138 15.2571 13.4818 15.2571C12.7618 15.2571 12.1348 15.0891 11.6008 14.7531C11.4628 14.6631 11.3608 14.5911 11.2948 14.5371C11.2288 14.4771 11.1958 14.4171 11.1958 14.3571C11.1958 14.3331 11.2078 14.3031 11.2318 14.2671L11.7088 13.6011C11.7808 13.7151 11.9248 13.8381 12.1408 13.9701C12.3208 14.0781 12.5098 14.1651 12.7078 14.2311C12.9118 14.2971 13.1458 14.3301 13.4098 14.3301C13.7638 14.3301 14.0578 14.2191 14.2918 13.9971C14.5258 13.7751 14.6428 13.4931 14.6428 13.1511C14.6428 12.8091 14.5378 12.5391 14.3278 12.3411C14.1238 12.1371 13.8418 12.0351 13.4818 12.0351C13.2838 12.0351 13.0918 12.0711 12.9058 12.1431C12.7258 12.2091 12.5698 12.3021 12.4378 12.4221L11.4838 12.3321L11.7538 8.98405H14.8678C15.0478 8.98405 15.1768 8.98105 15.2548 8.97505C15.3388 8.96905 15.3958 8.95105 15.4258 8.92105H15.4348V9.68605C15.4348 9.78205 15.3928 9.84205 15.3088 9.86605C15.2308 9.89005 15.0958 9.90205 14.9038 9.90205H12.6628L12.5278 11.5311C12.8458 11.2731 13.2508 11.1441 13.7428 11.1441ZM10.1912 14.8971C10.1732 14.8131 10.1642 14.6751 10.1642 14.4831V8.98405H9.32721C9.23121 9.20605 9.08721 9.39805 8.89521 9.56005C8.70921 9.71605 8.46321 9.79405 8.15721 9.79405H8.04921C7.94721 9.79405 7.88121 9.78205 7.85121 9.75805V10.3521C7.85121 10.4481 7.89021 10.5081 7.96821 10.5321C8.05221 10.5561 8.19021 10.5681 8.38221 10.5681H9.06621V14.5911C9.06621 14.7771 9.08721 14.9091 9.12921 14.9871C9.17121 15.0651 9.25821 15.1041 9.39021 15.1041H10.3262V15.0951C10.2602 15.0471 10.2152 14.9811 10.1912 14.8971Z" fill="#2B2B2C"/>
</svg>
