<svg width="24" height="24" viewBox="0 0 24 24" fill="none" xmlns="http://www.w3.org/2000/svg">
<path fill-rule="evenodd" clip-rule="evenodd" d="M12.0002 4.37504C14.1222 4.37504 16.0052 5.24225 17.3729 6.65135H16.4739C15.9906 6.65135 15.5989 7.0431 15.5989 7.52635C15.5989 8.0096 15.9906 8.40135 16.4739 8.40135H19.8993L20.4686 4.98599C20.548 4.50932 20.226 4.05849 19.7493 3.97905C19.2726 3.8996 18.8218 4.22162 18.7424 4.69829L18.6212 5.42537C16.9433 3.70084 14.622 2.62504 12.0002 2.62504C6.82254 2.62504 2.62521 6.82237 2.62521 12C2.62521 17.1777 6.82254 21.375 12.0002 21.375C17.1779 21.375 21.3752 17.1777 21.3752 12C21.3752 11.5168 20.9835 11.125 20.5002 11.125C20.017 11.125 19.6252 11.5168 19.6252 12C19.6252 16.2112 16.2114 19.625 12.0002 19.625C7.78903 19.625 4.37521 16.2112 4.37521 12C4.37521 7.78887 7.78903 4.37504 12.0002 4.37504ZM13.7428 11.144C14.1388 11.144 14.4868 11.231 14.7868 11.405C15.0928 11.573 15.3268 11.804 15.4888 12.098C15.6568 12.386 15.7408 12.707 15.7408 13.061C15.7408 13.475 15.6448 13.85 15.4528 14.186C15.2608 14.522 14.9908 14.786 14.6428 14.978C14.3008 15.164 13.9138 15.257 13.4818 15.257C12.7618 15.257 12.1348 15.089 11.6008 14.753C11.4628 14.663 11.3608 14.591 11.2948 14.537C11.2288 14.477 11.1958 14.417 11.1958 14.357C11.1958 14.333 11.2078 14.303 11.2318 14.267L11.7088 13.601C11.7808 13.715 11.9248 13.838 12.1408 13.97C12.3208 14.078 12.5098 14.165 12.7078 14.231C12.9118 14.297 13.1458 14.33 13.4098 14.33C13.7638 14.33 14.0578 14.219 14.2918 13.997C14.5258 13.775 14.6428 13.493 14.6428 13.151C14.6428 12.809 14.5378 12.539 14.3278 12.341C14.1238 12.137 13.8418 12.035 13.4818 12.035C13.2838 12.035 13.0918 12.071 12.9058 12.143C12.7258 12.209 12.5698 12.302 12.4378 12.422L11.4838 12.332L11.7538 8.98401H14.8678C15.0478 8.98401 15.1768 8.98101 15.2548 8.97501C15.3388 8.96901 15.3958 8.95101 15.4258 8.92101H15.4348V9.68601C15.4348 9.78201 15.3928 9.84201 15.3088 9.86601C15.2308 9.89001 15.0958 9.90201 14.9038 9.90201H12.6628L12.5278 11.531C12.8458 11.273 13.2508 11.144 13.7428 11.144ZM10.1912 14.897C10.1732 14.813 10.1642 14.675 10.1642 14.483V8.98401H9.32721C9.23121 9.20601 9.08721 9.39801 8.89521 9.56001C8.70921 9.71601 8.46321 9.79401 8.15721 9.79401H8.04921C7.94721 9.79401 7.88121 9.78201 7.85121 9.75801V10.352C7.85121 10.448 7.89021 10.508 7.96821 10.532C8.05221 10.556 8.19021 10.568 8.38221 10.568H9.06621V14.591C9.06621 14.777 9.08721 14.909 9.12921 14.987C9.17121 15.065 9.25821 15.104 9.39021 15.104H10.3262V15.095C10.2602 15.047 10.2152 14.981 10.1912 14.897Z" fill="#2B2B2C"/>
</svg>
