<svg width="18" height="18" viewBox="0 0 18 18" fill="none" xmlns="http://www.w3.org/2000/svg">
<path fill-rule="evenodd" clip-rule="evenodd" d="M15.5 2.50002C15.5 2.22387 15.2761 2.00002 15 2.00002C14.7239 2.00002 14.5 2.22387 14.5 2.50002V7.92319C14.4091 7.8357 14.3045 7.75746 14.1863 7.69124L4.73291 2.39736C3.73304 1.83744 2.5 2.56014 2.5 3.70612V14.2939C2.5 15.4398 3.73303 16.1626 4.73291 15.6026L14.1863 10.3088C14.3045 10.2425 14.4091 10.1643 14.5 10.0768V15.5C14.5 15.7762 14.7239 16 15 16C15.2761 16 15.5 15.7762 15.5 15.5V2.50002ZM3.5 3.70612C3.5 3.32413 3.91101 3.08323 4.2443 3.26987L13.6977 8.56375C14.0386 8.75467 14.0386 9.24533 13.6977 9.43625L4.2443 14.7301C3.91101 14.9168 3.5 14.6759 3.5 14.2939V3.70612Z" fill="#2B2B2C"/>
</svg>
