<svg width="24" height="24" viewBox="0 0 24 24" fill="none" xmlns="http://www.w3.org/2000/svg">
<path fill-rule="evenodd" clip-rule="evenodd" d="M20.375 3.5C20.375 3.01675 19.9832 2.625 19.5 2.625C19.0167 2.625 18.625 3.01675 18.625 3.5V10.1898L7.19257 3.55162C5.60924 2.63226 3.625 3.77461 3.625 5.60549V18.3945C3.625 20.2254 5.60925 21.3677 7.19257 20.4484L18.625 13.8102V20.5C18.625 20.9832 19.0167 21.375 19.5 21.375C19.9832 21.375 20.375 20.9832 20.375 20.5V3.5ZM5.375 5.60549C5.375 5.12368 5.89717 4.82306 6.31383 5.065L18.0713 11.8919C18.1543 11.9401 18.1542 12.0599 18.0713 12.1081L6.31383 18.935C5.89717 19.1769 5.375 18.8763 5.375 18.3945V5.60549Z" fill="#2B2B2C"/>
</svg>
