<svg width="30" height="30" viewBox="0 0 30 30" fill="none" xmlns="http://www.w3.org/2000/svg">
<path fill-rule="evenodd" clip-rule="evenodd" d="M26 4.5C26 3.94772 25.5523 3.5 25 3.5C24.4477 3.5 24 3.94772 24 4.5V13.0119L8.46776 4.29872C6.46799 3.1769 4 4.62221 4 6.91515V23.0848C4 25.3778 6.46798 26.8231 8.46775 25.7013L24 16.9881V25.5C24 26.0523 24.4477 26.5 25 26.5C25.5523 26.5 26 26.0523 26 25.5V4.5ZM6 6.91515C6 6.15084 6.82266 5.66907 7.48925 6.04301L23.4561 15L7.48925 23.957C6.82266 24.3309 6 23.8492 6 23.0848V6.91515Z" fill="#2B2B2C"/>
</svg>
