<svg width="18" height="18" viewBox="0 0 18 18" fill="none" xmlns="http://www.w3.org/2000/svg">
<path fill-rule="evenodd" clip-rule="evenodd" d="M15.75 2.50002C15.75 2.0858 15.4142 1.75002 15 1.75002C14.5858 1.75002 14.25 2.0858 14.25 2.50002V7.4404L4.85506 2.17923C3.68854 1.52599 2.25 2.36914 2.25 3.70612V14.2939C2.25 15.6308 3.68854 16.474 4.85506 15.8208L14.25 10.5596V15.5C14.25 15.9142 14.5858 16.25 15 16.25C15.4142 16.25 15.75 15.9142 15.75 15.5V2.50002ZM3.75 3.70612C3.75 3.51513 3.95551 3.39467 4.12215 3.48799L13.5755 8.78187C13.746 8.87733 13.746 9.12266 13.5755 9.21812L4.12215 14.512C3.95551 14.6053 3.75 14.4849 3.75 14.2939V3.70612Z" fill="#2B2B2C"/>
</svg>
