<svg width="30" height="30" viewBox="0 0 30 30" fill="none" xmlns="http://www.w3.org/2000/svg">
<path fill-rule="evenodd" clip-rule="evenodd" d="M25.5 4.5C25.5 4.22386 25.2761 4 25 4C24.7239 4 24.5 4.22386 24.5 4.5V13.9206C24.41 13.8344 24.3066 13.7572 24.1899 13.6918L8.22313 4.73479C6.55665 3.79993 4.5 5.00436 4.5 6.91514V23.0848C4.5 24.9956 6.55665 26.2 8.22313 25.2652L24.1899 16.3082C24.3066 16.2428 24.41 16.1656 24.5 16.0794V25.5C24.5 25.7761 24.7239 26 25 26C25.2761 26 25.5 25.7761 25.5 25.5V4.5ZM5.5 6.91514C5.5 5.76867 6.73399 5.04602 7.73388 5.60693L23.7007 14.5639C24.0412 14.7549 24.0412 15.2451 23.7007 15.4361L7.73388 24.3931C6.73399 24.954 5.5 24.2313 5.5 23.0848V6.91514Z" fill="#2B2B2C"/>
</svg>
