<svg width="24" height="24" viewBox="0 0 24 24" fill="none" xmlns="http://www.w3.org/2000/svg">
<path fill-rule="evenodd" clip-rule="evenodd" d="M20 3.5C20 3.22386 19.7761 3 19.5 3C19.2239 3 19 3.22386 19 3.5V10.873C18.9282 10.8105 18.8487 10.7534 18.7617 10.7028L7.00427 3.87592C5.67094 3.10172 4 4.0637 4 5.60549V18.3945C4 19.9363 5.67094 20.8983 7.00427 20.1241L18.7617 13.2972C18.8487 13.2466 18.9282 13.1895 19 13.127V20.5C19 20.7761 19.2239 21 19.5 21C19.7761 21 20 20.7761 20 20.5V3.5ZM5 5.60549C5 4.83459 5.83547 4.35361 6.50213 4.7407L18.2596 11.5676C18.5915 11.7603 18.5915 12.2397 18.2596 12.4324L6.50214 19.2593C5.83547 19.6464 5 19.1654 5 18.3945V5.60549Z" fill="#2B2B2C"/>
</svg>
