<svg width="30" height="30" viewBox="0 0 30 30" fill="none" xmlns="http://www.w3.org/2000/svg">
<path fill-rule="evenodd" clip-rule="evenodd" d="M11 6V24C11 25.1046 10.1046 26 9 26C7.89543 26 7 25.1046 7 24V6C7 4.89543 7.89543 4 9 4C10.1046 4 11 4.89543 11 6ZM6 6C6 4.34315 7.34315 3 9 3C10.6569 3 12 4.34315 12 6V24C12 25.6569 10.6569 27 9 27C7.34315 27 6 25.6569 6 24V6ZM23 6V24C23 25.1046 22.1046 26 21 26C19.8954 26 19 25.1046 19 24V6C19 4.89543 19.8954 4 21 4C22.1046 4 23 4.89543 23 6ZM18 6C18 4.34315 19.3431 3 21 3C22.6569 3 24 4.34315 24 6V24C24 25.6569 22.6569 27 21 27C19.3431 27 18 25.6569 18 24V6Z" fill="#2B2B2C"/>
</svg>
