<svg width="18" height="18" viewBox="0 0 18 18" fill="none" xmlns="http://www.w3.org/2000/svg">
<path fill-rule="evenodd" clip-rule="evenodd" d="M6.5 4V14C6.5 14.5523 6.05228 15 5.5 15C4.94772 15 4.5 14.5523 4.5 14V4C4.5 3.44772 4.94772 3 5.5 3C6.05228 3 6.5 3.44772 6.5 4ZM3.5 4C3.5 2.89543 4.39543 2 5.5 2C6.60457 2 7.5 2.89543 7.5 4V14C7.5 15.1046 6.60457 16 5.5 16C4.39543 16 3.5 15.1046 3.5 14V4ZM13.5 4V14C13.5 14.5523 13.0523 15 12.5 15C11.9477 15 11.5 14.5523 11.5 14V4C11.5 3.44772 11.9477 3 12.5 3C13.0523 3 13.5 3.44772 13.5 4ZM10.5 4C10.5 2.89543 11.3954 2 12.5 2C13.6046 2 14.5 2.89543 14.5 4V14C14.5 15.1046 13.6046 16 12.5 16C11.3954 16 10.5 15.1046 10.5 14V4Z" fill="#2B2B2C"/>
</svg>
