<svg width="24" height="24" viewBox="0 0 24 24" fill="none" xmlns="http://www.w3.org/2000/svg">
<path fill-rule="evenodd" clip-rule="evenodd" d="M9 5V19C9 19.8284 8.32843 20.5 7.5 20.5C6.67157 20.5 6 19.8284 6 19V5C6 4.17157 6.67157 3.5 7.5 3.5C8.32843 3.5 9 4.17157 9 5ZM5 5C5 3.61929 6.11929 2.5 7.5 2.5C8.88071 2.5 10 3.61929 10 5V19C10 20.3807 8.88071 21.5 7.5 21.5C6.11929 21.5 5 20.3807 5 19V5ZM18 5V19C18 19.8284 17.3284 20.5 16.5 20.5C15.6716 20.5 15 19.8284 15 19V5C15 4.17157 15.6716 3.5 16.5 3.5C17.3284 3.5 18 4.17157 18 5ZM14 5C14 3.61929 15.1193 2.5 16.5 2.5C17.8807 2.5 19 3.61929 19 5V19C19 20.3807 17.8807 21.5 16.5 21.5C15.1193 21.5 14 20.3807 14 19V5Z" fill="#2B2B2C"/>
</svg>
