<svg width="30" height="30" viewBox="0 0 30 30" fill="none" xmlns="http://www.w3.org/2000/svg">
<path fill-rule="evenodd" clip-rule="evenodd" d="M4.5 4.5C4.5 4.22386 4.72386 4 5 4C5.27614 4 5.5 4.22386 5.5 4.5V13.9206C5.59003 13.8344 5.69338 13.7572 5.81006 13.6918L21.7769 4.7348C23.4433 3.79995 25.5 5.00437 25.5 6.91516V23.0849C25.5 24.9956 23.4433 26.2001 21.7769 25.2652L5.81006 16.3082C5.69338 16.2428 5.59003 16.1656 5.5 16.0794V25.5C5.5 25.7761 5.27614 26 5 26C4.72386 26 4.5 25.7761 4.5 25.5V4.5ZM24.5 6.91516C24.5 5.76869 23.266 5.04603 22.2661 5.60694L6.29931 14.5639C5.95881 14.7549 5.95882 15.2451 6.29931 15.4361L22.2661 24.3931C23.266 24.954 24.5 24.2313 24.5 23.0849V6.91516Z" fill="#2B2B2C"/>
</svg>
