<svg width="18" height="18" viewBox="0 0 18 18" fill="none" xmlns="http://www.w3.org/2000/svg">
<path fill-rule="evenodd" clip-rule="evenodd" d="M2.5 2.50001C2.5 2.22387 2.72386 2.00001 3 2.00001C3.27614 2.00001 3.5 2.22387 3.5 2.50001V7.92319C3.59091 7.83571 3.69549 7.75746 3.81374 7.69124L13.2671 2.39737C14.267 1.83744 15.5 2.56015 15.5 3.70612V14.2939C15.5 15.4399 14.267 16.1626 13.2671 15.6026L3.81375 10.3088C3.69549 10.2425 3.59091 10.1643 3.5 10.0768V15.5C3.5 15.7762 3.27614 16 3 16C2.72386 16 2.5 15.7762 2.5 15.5V2.50001ZM14.5 3.70612C14.5 3.32413 14.089 3.08323 13.7557 3.26987L4.30235 8.56375C3.96142 8.75467 3.96142 9.24533 4.30235 9.43625L13.7557 14.7301C14.089 14.9168 14.5 14.6759 14.5 14.2939V3.70612Z" fill="#2B2B2C"/>
</svg>
