<svg width="24" height="24" viewBox="0 0 24 24" fill="none" xmlns="http://www.w3.org/2000/svg">
<path fill-rule="evenodd" clip-rule="evenodd" d="M4.00001 3.5C4.00001 3.22386 4.22387 3 4.50001 3C4.77615 3 5.00001 3.22386 5.00001 3.5V10.873C5.07183 10.8105 5.15126 10.7534 5.23829 10.7028L16.9957 3.87592C18.3291 3.10173 20 4.0637 20 5.6055V18.3945C20 19.9363 18.3291 20.8983 16.9957 20.1241L5.23829 13.2972C5.15125 13.2467 5.07183 13.1895 5.00001 13.127V20.5C5.00001 20.7761 4.77615 21 4.50001 21C4.22387 21 4.00001 20.7761 4.00001 20.5V3.5ZM19 5.6055C19 4.8346 18.1645 4.35361 17.4979 4.74071L5.74043 11.5676C5.40851 11.7603 5.40852 12.2397 5.74043 12.4324L17.4979 19.2593C18.1645 19.6464 19 19.1654 19 18.3945V5.6055Z" fill="#2B2B2C"/>
</svg>
