<svg width="30" height="30" viewBox="0 0 30 30" fill="none" xmlns="http://www.w3.org/2000/svg">
<path fill-rule="evenodd" clip-rule="evenodd" d="M4 4.5C4 3.94772 4.44772 3.5 5 3.5C5.55228 3.5 6 3.94772 6 4.5V13.0119L21.5322 4.29873C23.532 3.17691 26 4.62222 26 6.91516V23.0849C26 25.3778 23.532 26.8231 21.5322 25.7013L6 16.9881V25.5C6 26.0523 5.55228 26.5 5 26.5C4.44772 26.5 4 26.0523 4 25.5V4.5ZM24 6.91516C24 6.15085 23.1773 5.66907 22.5107 6.04302L6.54394 15L22.5107 23.957C23.1773 24.3309 24 23.8492 24 23.0849V6.91516Z" fill="#2B2B2C"/>
</svg>
