<svg width="24" height="24" viewBox="0 0 24 24" fill="none" xmlns="http://www.w3.org/2000/svg">
<path fill-rule="evenodd" clip-rule="evenodd" d="M3.62501 3.5C3.62501 3.01675 4.01676 2.625 4.50001 2.625C4.98326 2.625 5.37501 3.01675 5.37501 3.5V10.1898L16.8074 3.55162C18.3908 2.63227 20.375 3.77462 20.375 5.6055V18.3945C20.375 20.2254 18.3908 21.3677 16.8074 20.4484L5.37501 13.8102V20.5C5.37501 20.9833 4.98326 21.375 4.50001 21.375C4.01676 21.375 3.62501 20.9833 3.62501 20.5V3.5ZM18.625 5.6055C18.625 5.12368 18.1028 4.82307 17.6862 5.065L5.92873 11.8919C5.84575 11.9401 5.84575 12.0599 5.92873 12.1081L17.6862 18.935C18.1028 19.1769 18.625 18.8763 18.625 18.3945V5.6055Z" fill="#2B2B2C"/>
</svg>
