<svg width="18" height="18" viewBox="0 0 18 18" fill="none" xmlns="http://www.w3.org/2000/svg">
<path fill-rule="evenodd" clip-rule="evenodd" d="M2.25 2.50001C2.25 2.0858 2.58579 1.75001 3 1.75001C3.41421 1.75001 3.75 2.0858 3.75 2.50001V7.44041L13.1449 2.17924C14.3115 1.52599 15.75 2.36915 15.75 3.70612V14.2939C15.75 15.6308 14.3115 16.474 13.1449 15.8208L3.75 10.5596V15.5C3.75 15.9142 3.41421 16.25 3 16.25C2.58579 16.25 2.25 15.9142 2.25 15.5V2.50001ZM14.25 3.70612C14.25 3.51513 14.0445 3.39468 13.8778 3.488L4.4245 8.78187C4.25403 8.87733 4.25403 9.12267 4.4245 9.21813L13.8778 14.512C14.0445 14.6053 14.25 14.4849 14.25 14.2939V3.70612Z" fill="#2B2B2C"/>
</svg>
