<svg width="24" height="24" viewBox="0 0 24 24" fill="none" xmlns="http://www.w3.org/2000/svg">
<path fill-rule="evenodd" clip-rule="evenodd" d="M9.88438 6.85355C10.0796 6.65829 10.0796 6.34171 9.88438 6.14645C9.68912 5.95119 9.37254 5.95119 9.17727 6.14645L3.68209 11.6416C3.67881 11.6448 3.67558 11.6481 3.6724 11.6513L3.29101 12.0327L9.17926 17.8555C9.37561 18.0497 9.69219 18.0479 9.88636 17.8516C10.0805 17.6552 10.0788 17.3386 9.88241 17.1445L5.18574 12.5L20.0308 12.5C20.3069 12.5 20.5308 12.2761 20.5308 12C20.5308 11.7239 20.3069 11.5 20.0308 11.5L5.23793 11.5L9.88438 6.85355Z" fill="#2B2B2C"/>
</svg>
