<svg width="30" height="30" viewBox="0 0 30 30" fill="none" xmlns="http://www.w3.org/2000/svg">
<path fill-rule="evenodd" clip-rule="evenodd" d="M12.3535 8.35355C12.5488 8.15829 12.5488 7.84171 12.3535 7.64645C12.1583 7.45118 11.8417 7.45118 11.6464 7.64645L4.65104 14.6418C4.6479 14.6449 4.64481 14.648 4.64175 14.6511L4.29289 15L4.64075 15.3478C4.64446 15.3517 4.64824 15.3555 4.65207 15.3592L11.6464 22.3536C11.8417 22.5488 12.1583 22.5488 12.3535 22.3536C12.5488 22.1583 12.5488 21.8417 12.3535 21.6464L6.20711 15.5L25.4999 15.5C25.7761 15.5 25.9999 15.2761 25.9999 15C25.9999 14.7239 25.7761 14.5 25.4999 14.5L6.20709 14.5L12.3535 8.35355Z" fill="#2B2B2C"/>
</svg>
