<svg width="24" height="24" viewBox="0 0 24 24" fill="none" xmlns="http://www.w3.org/2000/svg">
<path fill-rule="evenodd" clip-rule="evenodd" d="M13.7929 16.7929C13.4024 17.1834 13.4024 17.8166 13.7929 18.2071C14.1834 18.5976 14.8166 18.5976 15.2071 18.2071L20.6962 12.718C20.7036 12.7108 20.711 12.7035 20.7182 12.696L21.4489 11.9653L15.2032 5.78895C14.8105 5.40062 14.1773 5.40416 13.789 5.79686C13.4006 6.18956 13.4042 6.82271 13.7969 7.21105L17.6284 11L4.00018 11C3.44789 11 3.00018 11.4477 3.00018 12C3.00018 12.5523 3.44789 13 4.00018 13L17.5858 13L13.7929 16.7929Z" fill="#2B2B2C"/>
</svg>
