<svg width="30" height="30" viewBox="0 0 30 30" fill="none" xmlns="http://www.w3.org/2000/svg">
<path fill-rule="evenodd" clip-rule="evenodd" d="M10 3C8.89543 3 8 3.89543 8 5V26.7185L13.7905 24.046C13.9234 23.9847 14.0766 23.9847 14.2095 24.046L20 26.7185V4.5C20 3.9372 20.186 3.41783 20.4998 3H10ZM22.5 3C21.6716 3 21 3.67157 21 4.5V15.125H24V4.5C24 3.67157 23.3284 3 22.5 3ZM21 16.125H24.5C24.7761 16.125 25 15.9011 25 15.625V4.5C25 3.11929 23.8807 2 22.5 2H10C8.34315 2 7 3.34315 7 5V27.5C7 27.6705 7.08689 27.8293 7.23052 27.9212C7.37415 28.0131 7.55471 28.0254 7.70953 27.954L14 25.0507L20.2905 27.954C20.4453 28.0254 20.6258 28.0131 20.7695 27.9212C20.9131 27.8293 21 27.6705 21 27.5V16.125ZM9.5 7.5C9.5 7.22386 9.72386 7 10 7H18C18.2761 7 18.5 7.22386 18.5 7.5C18.5 7.77614 18.2761 8 18 8H10C9.72386 8 9.5 7.77614 9.5 7.5ZM10 11C9.72386 11 9.5 11.2239 9.5 11.5C9.5 11.7761 9.72386 12 10 12H18C18.2761 12 18.5 11.7761 18.5 11.5C18.5 11.2239 18.2761 11 18 11H10Z" fill="#2B2B2C"/>
</svg>
