<svg width="24" height="24" viewBox="0 0 24 24" fill="none" xmlns="http://www.w3.org/2000/svg">
<path fill-rule="evenodd" clip-rule="evenodd" d="M6.5 2C6.77614 2 7 2.22386 7 2.5V3H16.5V2.5C16.5 2.22386 16.7239 2 17 2C17.2761 2 17.5 2.22386 17.5 2.5V3H19.5C20.3284 3 21 3.67157 21 4.5V7.5V19.5C21 20.3284 20.3284 21 19.5 21H4.5C3.67157 21 3 20.3284 3 19.5V7.5V4.5C3 3.67157 3.67157 3 4.5 3H6V2.5C6 2.22386 6.22386 2 6.5 2ZM16.5 4V5.5C16.5 5.77614 16.7239 6 17 6C17.2761 6 17.5 5.77614 17.5 5.5V4H19.5C19.7761 4 20 4.22386 20 4.5V7H4V4.5C4 4.22386 4.22386 4 4.5 4H6V5.5C6 5.77614 6.22386 6 6.5 6C6.77614 6 7 5.77614 7 5.5V4H16.5ZM4 8H20V19.5C20 19.7761 19.7761 20 19.5 20H4.5C4.22386 20 4 19.7761 4 19.5V8ZM9 9C9.27614 9 9.5 9.22386 9.5 9.5V11.5H14.5V9.5C14.5 9.22386 14.7239 9 15 9C15.2761 9 15.5 9.22386 15.5 9.5V11.5H17.5C17.7761 11.5 18 11.7239 18 12C18 12.2761 17.7761 12.5 17.5 12.5H15.5V15.5H17.5C17.7761 15.5 18 15.7239 18 16C18 16.2761 17.7761 16.5 17.5 16.5H15.5V18.5C15.5 18.7761 15.2761 19 15 19C14.7239 19 14.5 18.7761 14.5 18.5V16.5H9.5V18.5C9.5 18.7761 9.27614 19 9 19C8.72386 19 8.5 18.7761 8.5 18.5V16.5H6.5C6.22386 16.5 6 16.2761 6 16C6 15.7239 6.22386 15.5 6.5 15.5H8.5V12.5H6.5C6.22386 12.5 6 12.2761 6 12C6 11.7239 6.22386 11.5 6.5 11.5H8.5V9.5C8.5 9.22386 8.72386 9 9 9ZM9.5 15.5H14.5V12.5H9.5V15.5Z" fill="#2B2B2C"/>
</svg>
