<svg width="24" height="24" viewBox="0 0 24 24" fill="none" xmlns="http://www.w3.org/2000/svg">
<path fill-rule="evenodd" clip-rule="evenodd" d="M7 3H16.5V5.5C16.5 5.77614 16.7239 6 17 6C17.2761 6 17.5 5.77614 17.5 5.5V3H19.5C20.3284 3 21 3.67157 21 4.5V7.5V19.5C21 20.3284 20.3284 21 19.5 21H4.5C3.67157 21 3 20.3284 3 19.5V7.5V4.5C3 3.67157 3.67157 3 4.5 3H5.5H6V5.5C6 5.77614 6.22386 6 6.5 6C6.77614 6 7 5.77614 7 5.5V3ZM4 8V19.5C4 19.7761 4.22386 20 4.5 20H19.5C19.7761 20 20 19.7761 20 19.5V8H4ZM9.5 9.5C9.5 9.22386 9.27614 9 9 9C8.72386 9 8.5 9.22386 8.5 9.5V11.5H6.5C6.22386 11.5 6 11.7239 6 12C6 12.2761 6.22386 12.5 6.5 12.5H8.5V15.5H6.5C6.22386 15.5 6 15.7239 6 16C6 16.2761 6.22386 16.5 6.5 16.5H8.5V18.5C8.5 18.7761 8.72386 19 9 19C9.27614 19 9.5 18.7761 9.5 18.5V16.5H14.5V18.5C14.5 18.7761 14.7239 19 15 19C15.2761 19 15.5 18.7761 15.5 18.5V16.5H17.5C17.7761 16.5 18 16.2761 18 16C18 15.7239 17.7761 15.5 17.5 15.5H15.5V12.5H17.5C17.7761 12.5 18 12.2761 18 12C18 11.7239 17.7761 11.5 17.5 11.5H15.5V9.5C15.5 9.22386 15.2761 9 15 9C14.7239 9 14.5 9.22386 14.5 9.5V11.5H9.5V9.5ZM14.5 15.5H9.5V12.5H14.5V15.5Z" fill="#2B2B2C"/>
</svg>
