<svg width="30" height="30" viewBox="0 0 30 30" fill="none" xmlns="http://www.w3.org/2000/svg">
<path fill-rule="evenodd" clip-rule="evenodd" d="M9.5 4H20.5V7C20.5 7.27614 20.7239 7.5 21 7.5C21.2761 7.5 21.5 7.27614 21.5 7V4H23.5H24.25C25.2165 4 26 4.7835 26 5.75V9.5V24.25C26 25.2165 25.2165 26 24.25 26H5.75C4.7835 26 4 25.2165 4 24.25V9.5V5.75C4 4.7835 4.7835 4 5.75 4H6.5H8.5V7C8.5 7.27614 8.72386 7.5 9 7.5C9.27614 7.5 9.5 7.27614 9.5 7V4ZM5 10V24.25C5 24.6642 5.33579 25 5.75 25H24.25C24.6642 25 25 24.6642 25 24.25V10H5ZM12 12C12 11.7239 11.7761 11.5 11.5 11.5C11.2239 11.5 11 11.7239 11 12V14.5H8C7.72386 14.5 7.5 14.7239 7.5 15C7.5 15.2761 7.72386 15.5 8 15.5H11V19.5H7.99998C7.72384 19.5 7.49998 19.7239 7.49998 20C7.49998 20.2761 7.72384 20.5 7.99998 20.5H11V23C11 23.2761 11.2239 23.5 11.5 23.5C11.7761 23.5 12 23.2761 12 23V20.5H18V23C18 23.2761 18.2239 23.5 18.5 23.5C18.7761 23.5 19 23.2761 19 23V20.5H22C22.2761 20.5 22.5 20.2761 22.5 20C22.5 19.7239 22.2761 19.5 22 19.5H19V15.5H22C22.2761 15.5 22.5 15.2761 22.5 15C22.5 14.7239 22.2761 14.5 22 14.5H19V12C19 11.7239 18.7761 11.5 18.5 11.5C18.2239 11.5 18 11.7239 18 12V14.5H12V12ZM18 19.5H12V15.5H18V19.5Z" fill="#2B2B2C"/>
</svg>
