<svg width="24" height="24" viewBox="0 0 24 24" fill="none" xmlns="http://www.w3.org/2000/svg">
<path fill-rule="evenodd" clip-rule="evenodd" d="M9.99827 4.06056C10.3079 3.78538 10.3357 3.31132 10.0606 3.00174C9.78536 2.69215 9.31131 2.66426 9.00172 2.93945L3.87109 7.50001L9.00172 12.0606C9.31131 12.3358 9.78536 12.3079 10.0606 11.9983C10.3357 11.6887 10.3079 11.2146 9.99827 10.9395L6.97264 8.25L19 8.25C19.4142 8.25 19.75 7.91421 19.75 7.5C19.75 7.08579 19.4142 6.75 19 6.75L6.97265 6.75L9.99827 4.06056ZM20.1289 16.5L19.5007 17.0584L19.4955 17.063L14.9983 21.0605C14.6887 21.3357 14.2146 21.3079 13.9395 20.9983C13.6643 20.6887 13.6921 20.2146 14.0017 19.9394L17.0274 17.25L5 17.25C4.58579 17.25 4.25 16.9142 4.25 16.5C4.25 16.0858 4.58579 15.75 5 15.75L17.0274 15.75L14.0017 13.0605C13.6921 12.7854 13.6643 12.3113 13.9395 12.0017C14.2146 11.6921 14.6887 11.6642 14.9983 11.9394L20.1289 16.5Z" fill="#2B2B2C"/>
</svg>
