<svg width="24" height="24" viewBox="0 0 24 24" fill="none" xmlns="http://www.w3.org/2000/svg">
<path fill-rule="evenodd" clip-rule="evenodd" d="M6.35355 5.64645C6.15829 5.45118 5.84171 5.45118 5.64645 5.64645C5.45118 5.84171 5.45118 6.15829 5.64645 6.35355L11.2263 11.9334L5.64645 17.5132C5.45118 17.7085 5.45118 18.0251 5.64645 18.2203C5.84171 18.4156 6.15829 18.4156 6.35355 18.2203L11.9334 12.6405L17.5132 18.2203C17.7085 18.4156 18.0251 18.4156 18.2203 18.2203C18.4156 18.0251 18.4156 17.7085 18.2203 17.5132L12.6405 11.9334L18.2203 6.35355C18.4156 6.15829 18.4156 5.84171 18.2203 5.64645C18.0251 5.45118 17.7085 5.45118 17.5132 5.64645L11.9334 11.2263L6.35355 5.64645Z" fill="#2B2B2C"/>
</svg>
