<svg width="30" height="30" viewBox="0 0 30 30" fill="none" xmlns="http://www.w3.org/2000/svg">
<path fill-rule="evenodd" clip-rule="evenodd" d="M6.85355 6.14645C6.65829 5.95118 6.34171 5.95118 6.14645 6.14645C5.95118 6.34171 5.95118 6.65829 6.14645 6.85355L14.2929 15L6.14645 23.1464C5.95118 23.3417 5.95118 23.6583 6.14645 23.8536C6.34171 24.0488 6.65829 24.0488 6.85355 23.8536L15 15.7071L23.1464 23.8536C23.3417 24.0488 23.6583 24.0488 23.8536 23.8536C24.0488 23.6583 24.0488 23.3417 23.8536 23.1464L15.7071 15L23.8536 6.85355C24.0488 6.65829 24.0488 6.34171 23.8536 6.14645C23.6583 5.95118 23.3417 5.95118 23.1464 6.14645L15 14.2929L6.85355 6.14645Z" fill="#2B2B2C"/>
</svg>
