<svg width="30" height="30" viewBox="0 0 30 30" fill="none" xmlns="http://www.w3.org/2000/svg">
<path fill-rule="evenodd" clip-rule="evenodd" d="M7.20711 5.79289C6.81658 5.40237 6.18342 5.40237 5.79289 5.79289C5.40237 6.18342 5.40237 6.81658 5.79289 7.20711L13.5858 15L5.79289 22.7929C5.40237 23.1834 5.40237 23.8166 5.79289 24.2071C6.18342 24.5976 6.81658 24.5976 7.20711 24.2071L15 16.4142L22.7929 24.2071C23.1834 24.5976 23.8166 24.5976 24.2071 24.2071C24.5976 23.8166 24.5976 23.1834 24.2071 22.7929L16.4142 15L24.2071 7.20711C24.5976 6.81658 24.5976 6.18342 24.2071 5.79289C23.8166 5.40237 23.1834 5.40237 22.7929 5.79289L15 13.5858L7.20711 5.79289Z" fill="#2B2B2C"/>
</svg>
