<svg width="30" height="30" viewBox="0 0 30 30" fill="none" xmlns="http://www.w3.org/2000/svg">
<path fill-rule="evenodd" clip-rule="evenodd" d="M12 4.75C12 4.33579 12.3358 4 12.75 4H17.25C17.6642 4 18 4.33579 18 4.75V5H12V4.75ZM19 4.75V5L21.875 5.00001C22.4963 5.00001 23 5.50369 23 6.12501V8.875C23 9.49632 22.4963 10 21.875 10H21.5V25.25C21.5 26.2165 20.7165 27 19.75 27H10.25C9.2835 27 8.5 26.2165 8.5 25.25V10H8.125C7.50368 10 7 9.49632 7 8.875V6.12501C7 5.50369 7.50368 5.00001 8.125 5.00001L11 5V4.75C11 3.7835 11.7835 3 12.75 3H17.25C18.2165 3 19 3.7835 19 4.75ZM22 8.875C22 8.94404 21.944 9 21.875 9H8.125C8.05596 9 8 8.94404 8 8.875V6.12501C8 6.05598 8.05596 6.00001 8.125 6.00001H21.875C21.944 6.00001 22 6.05598 22 6.12501V8.875ZM13 12.5C13.2761 12.5 13.5 12.7239 13.5 13V23C13.5 23.2761 13.2761 23.5 13 23.5C12.7239 23.5 12.5 23.2761 12.5 23V13C12.5 12.7239 12.7239 12.5 13 12.5ZM17 12.5C17.2761 12.5 17.5 12.7239 17.5 13V23.125C17.5 23.4011 17.2761 23.625 17 23.625C16.7239 23.625 16.5 23.4011 16.5 23.125V13C16.5 12.7239 16.7239 12.5 17 12.5Z" fill="#2B2B2C"/>
</svg>
