<svg width="30" height="30" viewBox="0 0 30 30" fill="none" xmlns="http://www.w3.org/2000/svg">
<path fill-rule="evenodd" clip-rule="evenodd" d="M15 3C8.37258 3 3 8.37258 3 15C3 21.6274 8.37258 27 15 27C21.6274 27 27 21.6274 27 15C27 8.37258 21.6274 3 15 3ZM10.8536 10.1464C10.6583 9.95118 10.3417 9.95118 10.1464 10.1464C9.95118 10.3417 9.95118 10.6583 10.1464 10.8536L14.2929 15L10.1464 19.1464C9.95118 19.3417 9.95118 19.6583 10.1464 19.8536C10.3417 20.0488 10.6583 20.0488 10.8536 19.8536L15 15.7071L19.1464 19.8536C19.3417 20.0488 19.6583 20.0488 19.8536 19.8536C20.0488 19.6583 20.0488 19.3417 19.8536 19.1464L15.7071 15L19.8536 10.8536C20.0488 10.6583 20.0488 10.3417 19.8536 10.1464C19.6583 9.95118 19.3417 9.95118 19.1464 10.1464L15 14.2929L10.8536 10.1464Z" fill="#2B2B2C"/>
</svg>
