<svg width="18" height="18" viewBox="0 0 18 18" fill="none" xmlns="http://www.w3.org/2000/svg">
<path fill-rule="evenodd" clip-rule="evenodd" d="M7 2.25C7 2.11193 7.11193 2 7.25 2H10.75C10.8881 2 11 2.11193 11 2.25V2.99999H7V2.25ZM12 2.25V2.99999H13.625C14.1082 2.99999 14.5 3.39174 14.5 3.87499V5.625C14.5 6.10825 14.1082 6.5 13.625 6.5H13.5V15.75C13.5 16.4404 12.9404 17 12.25 17H5.75C5.05964 17 4.5 16.4404 4.5 15.75V6.5H4.375C3.89175 6.5 3.5 6.10825 3.5 5.625V3.87499C3.5 3.39174 3.89175 2.99999 4.375 2.99999H6V2.25C6 1.55964 6.55964 1 7.25 1H10.75C11.4404 1 12 1.55964 12 2.25ZM13.5 3.99999V5.5H4.5V3.99999H13.5ZM7.5 8.00001C7.77614 8.00001 8 8.22387 8 8.50001V14C8 14.2761 7.77614 14.5 7.5 14.5C7.22386 14.5 7 14.2761 7 14V8.50001C7 8.22387 7.22386 8.00001 7.5 8.00001ZM10.5 8.00001C10.7761 8.00001 11 8.22387 11 8.50001V14C11 14.2761 10.7761 14.5 10.5 14.5C10.2239 14.5 10 14.2761 10 14V8.50001C10 8.22387 10.2239 8.00001 10.5 8.00001Z" fill="#2B2B2C"/>
</svg>
