<svg width="18" height="18" viewBox="0 0 18 18" fill="none" xmlns="http://www.w3.org/2000/svg">
<path fill-rule="evenodd" clip-rule="evenodd" d="M1 9C1 4.58172 4.58172 1 9 1C13.3611 1 17 4.63886 17 9C17 13.4183 13.4183 17 9 17C4.58172 17 1 13.4183 1 9ZM9 2C5.13401 2 2 5.13401 2 9C2 12.866 5.13401 16 9 16C12.866 16 16 12.866 16 9C16 5.19114 12.8089 2 9 2ZM9 5.5C7.06701 5.5 5.5 7.067 5.5 9C5.5 10.933 7.06701 12.5 9 12.5C10.933 12.5 12.5 10.933 12.5 9C12.5 7.067 10.933 5.5 9 5.5ZM4.5 9C4.5 6.51472 6.51472 4.5 9 4.5C11.4853 4.5 13.5 6.51472 13.5 9C13.5 11.4853 11.4853 13.5 9 13.5C6.51472 13.5 4.5 11.4853 4.5 9Z" fill="#2B2B2C"/>
</svg>
