<svg width="24" height="24" viewBox="0 0 24 24" fill="none" xmlns="http://www.w3.org/2000/svg">
<path fill-rule="evenodd" clip-rule="evenodd" d="M11.7006 22.4004C11.7007 22.4005 11.7009 22.4006 12 22C12.2991 22.4006 12.2998 22.4002 12.2999 22.4001L12 22.624L11.7006 22.4004ZM11.7006 22.4004L12 22L12.2999 22.4001L12.3014 22.399L12.3063 22.3953L12.3242 22.3817C12.3396 22.37 12.3618 22.353 12.3905 22.3307C12.448 22.2862 12.5311 22.2209 12.6364 22.1359C12.8469 21.9659 13.146 21.717 13.5041 21.3987C14.2196 20.7627 15.1744 19.8462 16.1305 18.7243C18.0272 16.4989 20 13.3829 20 10C20 7.67154 19.1859 5.66507 17.7604 4.23959C16.3349 2.81411 14.3285 2 12 2C9.67154 2 7.66507 2.81411 6.23959 4.23959C4.81411 5.66507 4 7.67154 4 10C4 13.3829 5.97281 16.4989 7.86946 18.7243C8.8256 19.8462 9.78041 20.7627 10.4959 21.3987C10.854 21.717 11.1531 21.9659 11.3636 22.1359C11.4689 22.2209 11.552 22.2862 11.6095 22.3307C11.6382 22.353 11.6605 22.37 11.6758 22.3817L11.6937 22.3953L11.6986 22.399L11.7006 22.4004ZM8.00001 9.49999C8.00001 7.29085 9.79087 5.49999 12 5.49999C14.2091 5.49999 16 7.29085 16 9.49999C16 11.7091 14.2091 13.5 12 13.5C9.79087 13.5 8.00001 11.7091 8.00001 9.49999Z" fill="#2B2B2C"/>
</svg>
