<svg width="30" height="30" viewBox="0 0 30 30" fill="none" xmlns="http://www.w3.org/2000/svg">
<path fill-rule="evenodd" clip-rule="evenodd" d="M15 2.98782C9.74657 2.98782 5.48782 7.24657 5.48782 12.5C5.48782 16.3145 7.88439 20.0736 10.3681 22.9299C11.6005 24.3472 12.8343 25.5195 13.7605 26.3375C14.2232 26.7463 14.6082 27.0658 14.8767 27.2825C14.9211 27.3183 14.9622 27.3513 15 27.3814C15.0378 27.3513 15.079 27.3183 15.1233 27.2825C15.3918 27.0658 15.7768 26.7463 16.2396 26.3375C17.1657 25.5195 18.3995 24.3472 19.6319 22.9299C22.1156 20.0736 24.5122 16.3145 24.5122 12.5C24.5122 7.24657 20.2535 2.98782 15 2.98782ZM15 28C14.7073 28.3903 14.7072 28.3902 14.707 28.39L14.7047 28.3883L14.6985 28.3836L14.6754 28.3661C14.6554 28.3508 14.6263 28.3284 14.5885 28.2991C14.513 28.2404 14.4032 28.1541 14.2639 28.0417C13.9856 27.817 13.5893 27.4881 13.1146 27.0687C12.1657 26.2306 10.8995 25.0278 9.63191 23.5701C7.11563 20.6764 4.51221 16.6855 4.51221 12.5C4.51221 6.70776 9.20776 2.01221 15 2.01221C20.7923 2.01221 25.4878 6.70776 25.4878 12.5C25.4878 16.6855 22.8844 20.6764 20.3681 23.5701C19.1005 25.0278 17.8343 26.2306 16.8855 27.0687C16.4107 27.4881 16.0145 27.817 15.7361 28.0417C15.5969 28.1541 15.487 28.2404 15.4115 28.2991C15.3738 28.3284 15.3446 28.3508 15.3246 28.3661L15.3015 28.3836L15.2953 28.3883L15.2935 28.3896C15.2934 28.3897 15.2927 28.3903 15 28ZM15 28L15.2927 28.3903L15 28.6098L14.707 28.39L15 28ZM15 6.98782C12.2319 6.98782 9.98782 9.23185 9.98782 12C9.98782 14.7682 12.2319 17.0122 15 17.0122C17.7682 17.0122 20.0122 14.7682 20.0122 12C20.0122 9.23185 17.7682 6.98782 15 6.98782ZM9.01221 12C9.01221 8.69304 11.693 6.01221 15 6.01221C18.307 6.01221 20.9878 8.69304 20.9878 12C20.9878 15.307 18.307 17.9878 15 17.9878C11.693 17.9878 9.01221 15.307 9.01221 12Z" fill="#2B2B2C"/>
</svg>
