<svg width="18" height="18" viewBox="0 0 18 18" fill="none" xmlns="http://www.w3.org/2000/svg">
<path fill-rule="evenodd" clip-rule="evenodd" d="M9 2C5.96243 2 3.5 4.46243 3.5 7.5C3.5 9.70553 4.8899 11.8356 6.36997 13.4637C7.10053 14.2673 7.83266 14.9264 8.38259 15.3846C8.63274 15.5931 8.84439 15.7593 9 15.8781C9.15561 15.7593 9.36726 15.5931 9.61741 15.3846C10.1673 14.9264 10.8995 14.2673 11.63 13.4637C13.1101 11.8356 14.5 9.70553 14.5 7.5C14.5 4.46243 12.0376 2 9 2ZM9 16.5C8.71327 16.9096 8.71314 16.9095 8.71299 16.9094L8.71256 16.9091L8.71131 16.9082L8.70718 16.9053L8.69254 16.8949C8.67999 16.886 8.66192 16.873 8.63869 16.8561C8.59224 16.8224 8.52515 16.773 8.44037 16.7088C8.27085 16.5804 8.03031 16.3928 7.74241 16.1529C7.16734 15.6736 6.39947 14.9827 5.63003 14.1363C4.1101 12.4644 2.5 10.0945 2.5 7.5C2.5 3.91015 5.41015 1 9 1C12.5899 1 15.5 3.91015 15.5 7.5C15.5 10.0945 13.8899 12.4644 12.37 14.1363C11.6005 14.9827 10.8327 15.6736 10.2576 16.1529C9.96969 16.3928 9.72915 16.5804 9.55963 16.7088C9.47485 16.773 9.40776 16.8224 9.36131 16.8561C9.33808 16.873 9.32001 16.886 9.30746 16.8949L9.29282 16.9053L9.28869 16.9082L9.28744 16.9091L9.28701 16.9094C9.28686 16.9095 9.28673 16.9096 9 16.5ZM9 16.5L9.28673 16.9096L9 17.1103L8.71327 16.9096L9 16.5ZM9 4.5C7.61929 4.5 6.5 5.61929 6.5 7C6.5 8.38071 7.61929 9.5 9 9.5C10.3807 9.5 11.5 8.38071 11.5 7C11.5 5.61929 10.3807 4.5 9 4.5ZM5.5 7C5.5 5.067 7.067 3.5 9 3.5C10.933 3.5 12.5 5.067 12.5 7C12.5 8.933 10.933 10.5 9 10.5C7.067 10.5 5.5 8.933 5.5 7Z" fill="#2B2B2C"/>
</svg>
