<svg width="42" height="42" viewBox="0 0 42 42" fill="none" xmlns="http://www.w3.org/2000/svg">
<path fill-rule="evenodd" clip-rule="evenodd" d="M21 4C13.5442 4 7.5 10.0442 7.5 17.5C7.5 22.9086 10.8928 28.1645 14.3753 32.1196C16.1068 34.0862 17.8399 35.708 19.1405 36.8382C19.7904 37.4031 20.3314 37.8443 20.7091 38.1437C20.8209 38.2324 20.9183 38.3086 21 38.3718C21.0817 38.3086 21.1791 38.2324 21.2909 38.1437C21.6686 37.8443 22.2096 37.4031 22.8595 36.8382C24.1601 35.708 25.8932 34.0862 27.6247 32.1196C31.1072 28.1645 34.5 22.9086 34.5 17.5C34.5 10.0442 28.4558 4 21 4ZM21 39C20.7037 39.4027 20.7033 39.4025 20.7033 39.4025L20.6919 39.394L20.6602 39.3704C20.6326 39.3497 20.5921 39.3192 20.5396 39.2792C20.4347 39.1992 20.2818 39.0812 20.0878 38.9273C19.6998 38.6197 19.1471 38.1688 18.4845 37.593C17.1601 36.442 15.3932 34.7888 13.6247 32.7804C10.1072 28.7855 6.5 23.2914 6.5 17.5C6.5 9.49187 12.9919 3 21 3C29.0081 3 35.5 9.49187 35.5 17.5C35.5 23.2914 31.8928 28.7855 28.3753 32.7804C26.6068 34.7888 24.8399 36.442 23.5155 37.593C22.8529 38.1688 22.3002 38.6197 21.9122 38.9273C21.7182 39.0812 21.5653 39.1992 21.4604 39.2792C21.4079 39.3192 21.3674 39.3497 21.3398 39.3704L21.3081 39.394L21.2974 39.402C21.2974 39.402 21.2963 39.4027 21 39ZM21 39L21.2963 39.4027L21 39.6207L20.7033 39.4025L21 39ZM21 8.50001C16.8579 8.50001 13.5 11.8579 13.5 16C13.5 20.1421 16.8579 23.5 21 23.5C25.1421 23.5 28.5 20.1421 28.5 16C28.5 11.8579 25.1421 8.50001 21 8.50001ZM12.5 16C12.5 11.3056 16.3056 7.50001 21 7.50001C25.6944 7.50001 29.5 11.3056 29.5 16C29.5 20.6944 25.6944 24.5 21 24.5C16.3056 24.5 12.5 20.6944 12.5 16Z" fill="#2B2B2C"/>
</svg>
