<svg width="42" height="42" viewBox="0 0 42 42" fill="none" xmlns="http://www.w3.org/2000/svg">
<path fill-rule="evenodd" clip-rule="evenodd" d="M20.7033 39.4025C20.7035 39.4026 20.7037 39.4027 21 39L21.2963 39.4027L21 39.6207L20.7033 39.4025ZM20.7033 39.4025L21 39C21.2963 39.4027 21.2971 39.4021 21.2974 39.402L21.3081 39.394L21.3398 39.3704C21.3674 39.3497 21.4079 39.3192 21.4604 39.2792C21.5653 39.1992 21.7182 39.0812 21.9122 38.9273C22.3002 38.6197 22.8529 38.1688 23.5155 37.593C24.8399 36.442 26.6068 34.7888 28.3753 32.7804C31.8928 28.7855 35.5 23.2914 35.5 17.5C35.5 9.49187 29.0081 3 21 3C12.9919 3 6.5 9.49187 6.5 17.5C6.5 23.2914 10.1072 28.7855 13.6247 32.7804C15.3932 34.7888 17.1601 36.442 18.4845 37.593C19.1471 38.1688 19.6998 38.6197 20.0878 38.9273C20.2818 39.0812 20.4347 39.1992 20.5396 39.2792C20.5921 39.3192 20.6326 39.3497 20.6602 39.3704L20.6919 39.394L20.7033 39.4025ZM13.5 16C13.5 11.8579 16.8579 8.50001 21 8.50001C25.1421 8.50001 28.5 11.8579 28.5 16C28.5 20.1421 25.1421 23.5 21 23.5C16.8579 23.5 13.5 20.1421 13.5 16Z" fill="#2B2B2C"/>
</svg>
