<svg width="30" height="30" viewBox="0 0 30 30" fill="none" xmlns="http://www.w3.org/2000/svg">
<path fill-rule="evenodd" clip-rule="evenodd" d="M14.6997 28.3998C14.6999 28.3999 14.7 28.4 15 28L14.7 28.4L15 28.625L15.3 28.4L15 28C15.3 28.4 15.3001 28.3999 15.3003 28.3998L15.3009 28.3994L15.3026 28.398L15.3089 28.3933L15.332 28.3758C15.352 28.3605 15.3812 28.3381 15.419 28.3087C15.4946 28.25 15.6044 28.1636 15.7437 28.0512C16.0222 27.8264 16.4186 27.4974 16.8935 27.0779C17.8427 26.2394 19.1093 25.0363 20.3773 23.5781C22.894 20.6839 25.5 16.6902 25.5 12.5C25.5 6.70101 20.799 2 15 2C9.20101 2 4.5 6.70101 4.5 12.5C4.5 16.6902 7.10601 20.6839 9.6227 23.5781C10.8907 25.0363 12.1573 26.2394 13.1065 27.0779C13.5814 27.4974 13.9778 27.8264 14.2563 28.0512C14.3956 28.1636 14.5054 28.25 14.581 28.3087C14.6188 28.3381 14.648 28.3605 14.668 28.3758L14.6911 28.3933L14.6974 28.398L14.6991 28.3994L14.6997 28.3998ZM10 12C10 9.23858 12.2386 7 15 7C17.7614 7 20 9.23858 20 12C20 14.7614 17.7614 17 15 17C12.2386 17 10 14.7614 10 12Z" fill="#2B2B2C"/>
</svg>
