<svg width="24" height="24" viewBox="0 0 24 24" fill="none" xmlns="http://www.w3.org/2000/svg">
<path fill-rule="evenodd" clip-rule="evenodd" d="M6.9467 4.9467C5.72675 6.16665 5 7.91018 5 10C5 13.0171 6.77719 15.9011 8.63054 18.0757C9.5494 19.1538 10.4696 20.0373 11.1603 20.6513C11.5053 20.958 11.7922 21.1966 11.9919 21.3579C11.9946 21.3601 11.9973 21.3623 12 21.3644C12.0027 21.3623 12.0054 21.3601 12.0081 21.3579C12.2078 21.1966 12.4947 20.958 12.8397 20.6513C13.5304 20.0373 14.4506 19.1538 15.3695 18.0757C17.2228 15.9011 19 13.0171 19 10C19 7.91018 18.2733 6.16665 17.0533 4.9467C15.8334 3.72675 14.0898 3 12 3C9.91018 3 8.16665 3.72675 6.9467 4.9467ZM12 22C11.7009 22.4006 11.7007 22.4005 11.7006 22.4004L11.6986 22.399L11.6937 22.3953L11.6758 22.3817C11.6605 22.37 11.6382 22.353 11.6095 22.3307C11.552 22.2862 11.4689 22.2209 11.3636 22.1359C11.1531 21.9659 10.854 21.717 10.4959 21.3987C9.78041 20.7627 8.8256 19.8462 7.86946 18.7243C5.97281 16.4989 4 13.3829 4 10C4 7.67154 4.81411 5.66507 6.23959 4.23959C7.66507 2.81411 9.67154 2 12 2C14.3285 2 16.3349 2.81411 17.7604 4.23959C19.1859 5.66507 20 7.67154 20 10C20 13.3829 18.0272 16.4989 16.1305 18.7243C15.1744 19.8462 14.2196 20.7627 13.5041 21.3987C13.146 21.717 12.8469 21.9659 12.6364 22.1359C12.5311 22.2209 12.448 22.2862 12.3905 22.3307C12.3618 22.353 12.3396 22.37 12.3242 22.3817L12.3063 22.3953L12.3014 22.399L12.2999 22.4001C12.2998 22.4002 12.2991 22.4006 12 22ZM12 22L12.2999 22.4001L12 22.624L11.7006 22.4004L12 22ZM12 5.99999C10.067 5.99999 8.50001 7.567 8.50001 9.49999C8.50001 11.433 10.067 13 12 13C13.933 13 15.5 11.433 15.5 9.49999C15.5 7.567 13.933 5.99999 12 5.99999ZM7.50001 9.49999C7.50001 7.01471 9.51473 4.99999 12 4.99999C14.4853 4.99999 16.5 7.01471 16.5 9.49999C16.5 11.9853 14.4853 14 12 14C9.51473 14 7.50001 11.9853 7.50001 9.49999Z" fill="#2B2B2C"/>
</svg>
