<svg width="30" height="30" viewBox="0 0 30 30" fill="none" xmlns="http://www.w3.org/2000/svg">
<path fill-rule="evenodd" clip-rule="evenodd" d="M4 25.5C4 25.2239 4.22386 25 4.5 25H25.5C25.7761 25 26 25.2239 26 25.5C26 25.7761 25.7761 26 25.5 26H4.5C4.22386 26 4 25.7761 4 25.5Z" fill="#2B2B2C"/>
<path fill-rule="evenodd" clip-rule="evenodd" d="M15 4C15.2761 4 15.5 4.22386 15.5 4.5V20.7929L22.1464 14.1464C22.3417 13.9512 22.6583 13.9512 22.8536 14.1464C23.0488 14.3417 23.0488 14.6583 22.8536 14.8536L15 22.7071L7.14645 14.8536C6.95118 14.6583 6.95118 14.3417 7.14645 14.1464C7.34171 13.9512 7.65829 13.9512 7.85355 14.1464L14.5 20.7929V4.5C14.5 4.22386 14.7239 4 15 4Z" fill="#2B2B2C"/>
</svg>
