<svg width="18" height="18" viewBox="0 0 18 18" fill="none" xmlns="http://www.w3.org/2000/svg">
<path fill-rule="evenodd" clip-rule="evenodd" d="M1.24153 3.51129C1.46901 3.20126 1.836 3 2.25 3H15.75C16.164 3 16.531 3.20126 16.7585 3.51129L9.68537 10.1683C9.30032 10.5307 8.69969 10.5307 8.31464 10.1683L1.24153 3.51129ZM1 4.65721V13.75C1 13.9112 1.03052 14.0653 1.0861 14.2068L5.96384 9.32906L1 4.65721ZM1.7932 14.9139C1.9347 14.9695 2.08879 15 2.25 15H15.75C15.9112 15 16.0653 14.9695 16.2068 14.9139L11.3076 10.0147L10.3707 10.8965C9.60063 11.6213 8.39937 11.6213 7.62927 10.8965L6.69237 10.0147L1.7932 14.9139ZM16.9139 14.2068C16.9695 14.0653 17 13.9112 17 13.75V4.65722L12.0362 9.32906L16.9139 14.2068Z" fill="#2B2B2C"/>
</svg>
