<svg width="30" height="30" viewBox="0 0 30 30" fill="none" xmlns="http://www.w3.org/2000/svg">
<path fill-rule="evenodd" clip-rule="evenodd" d="M4.25 7C3.9732 7 3.73142 7.14995 3.60146 7.37306L13.6486 16.5829C14.4132 17.2838 15.5868 17.2838 16.3515 16.5829L26.3985 7.37306C26.2686 7.14996 26.0268 7 25.75 7H4.25ZM2.50753 7.58658C2.48644 7.46609 2.50957 7.33897 2.57806 7.23158C2.79902 6.51819 3.46399 6 4.25 6H25.75C26.536 6 27.201 6.51818 27.4219 7.23156C27.4904 7.33896 27.5136 7.4661 27.4925 7.5866C27.4975 7.6404 27.5 7.6949 27.5 7.75V22.25C27.5 23.2165 26.7165 24 25.75 24H4.25C4.19495 24 4.1405 23.9975 4.08675 23.9925C3.96604 24.0137 3.83878 23.9904 3.73143 23.9219C3.01812 23.7009 2.5 23.0359 2.5 22.25V7.75C2.5 7.69489 2.50255 7.64038 2.50753 7.58658ZM5.15415 23H25.2929L18.3763 16.0834L17.0272 17.32C15.8802 18.3714 14.1198 18.3714 12.9728 17.32L11.6317 16.0906L5.15415 23ZM10.8945 15.4149L3.87661 22.9006C3.65155 22.7711 3.5 22.5283 3.5 22.25V8.63662L10.8945 15.4149ZM19.1141 15.407L26.3536 22.6465C26.3604 22.6533 26.3669 22.6603 26.3733 22.6673C26.4533 22.548 26.5 22.4045 26.5 22.25V8.63662L19.1141 15.407Z" fill="#2B2B2C"/>
</svg>
