<svg width="30" height="30" viewBox="0 0 30 30" fill="none" xmlns="http://www.w3.org/2000/svg">
<path fill-rule="evenodd" clip-rule="evenodd" d="M16.0485 3.81686C15.6766 2.86053 14.3234 2.86052 13.9515 3.81686L11.1702 10.9687C11.1534 11.0118 11.1143 11.0422 11.0683 11.0476L4.37097 11.8355C3.39376 11.9504 3.0246 13.176 3.77573 13.8116L8.87138 18.1233C8.90864 18.1548 8.92414 18.2051 8.91108 18.2522L6.92091 25.4168C6.65295 26.3814 7.68384 27.1892 8.55641 26.6984L14.9387 23.1084C14.9768 23.087 15.0232 23.087 15.0613 23.1084L21.4436 26.6984C22.3162 27.1892 23.347 26.3814 23.0791 25.4168L21.0889 18.2522C21.0759 18.2051 21.0914 18.1548 21.1286 18.1233L26.2243 13.8116C26.9754 13.176 26.6062 11.9504 25.629 11.8355L18.9317 11.0476C18.8857 11.0422 18.8465 11.0118 18.8298 10.9687L16.0485 3.81686Z" fill="#2B2B2C"/>
</svg>
