<svg width="30" height="30" viewBox="0 0 30 30" fill="none" xmlns="http://www.w3.org/2000/svg">
<path fill-rule="evenodd" clip-rule="evenodd" d="M13.9515 3.81686C14.3234 2.86052 15.6766 2.86053 16.0485 3.81686L18.8298 10.9687C18.8465 11.0118 18.8857 11.0422 18.9317 11.0476L25.629 11.8355C26.6062 11.9504 26.9754 13.176 26.2243 13.8116L21.1286 18.1233C21.0914 18.1548 21.0759 18.2051 21.0889 18.2522L23.0791 25.4168C23.347 26.3814 22.3162 27.1892 21.4436 26.6984L15.0613 23.1084C15.0232 23.087 14.9768 23.087 14.9387 23.1084L8.55641 26.6984C7.68384 27.1892 6.65296 26.3814 6.92091 25.4168L8.91108 18.2522C8.92414 18.2051 8.90864 18.1548 8.87138 18.1233L3.77573 13.8116C3.0246 13.176 3.39376 11.9504 4.37097 11.8355L11.0683 11.0476C11.1143 11.0422 11.1535 11.0118 11.1702 10.9687L13.9515 3.81686ZM15.1165 4.1793C15.0752 4.07304 14.9248 4.07305 14.8835 4.1793L12.1022 11.3312C11.9513 11.7191 11.5986 11.9921 11.1852 12.0407L4.48781 12.8286C4.37923 12.8414 4.33821 12.9776 4.42167 13.0482L9.51733 17.3599C9.85265 17.6436 9.99216 18.0966 9.8746 18.5198L7.88443 25.6844C7.85466 25.7916 7.9692 25.8814 8.06615 25.8268L14.4485 22.2368C14.7909 22.0441 15.2091 22.0442 15.5515 22.2368L21.9338 25.8268C22.0308 25.8814 22.1453 25.7916 22.1156 25.6844L20.1254 18.5198C20.0078 18.0966 20.1474 17.6436 20.4827 17.3599L25.5783 13.0482C25.6618 12.9776 25.6208 12.8414 25.5122 12.8286L18.8148 12.0407C18.4014 11.9921 18.0487 11.7191 17.8978 11.3312L15.1165 4.1793Z" fill="#2B2B2C"/>
</svg>
