<svg width="18" height="18" viewBox="0 0 18 18" fill="none" xmlns="http://www.w3.org/2000/svg">
<path d="M10.9155 6.78882L9.34816 2.87049C9.22244 2.55619 8.77753 2.55619 8.65181 2.87049L7.08448 6.78882C7.03255 6.91863 6.91273 7.00877 6.77361 7.02268L2.95752 7.40429C2.61744 7.4383 2.49641 7.87237 2.76983 8.07743L5.79616 10.3472C5.91919 10.4395 5.97341 10.5975 5.93295 10.7458L4.7635 15.0338C4.67228 15.3683 5.04484 15.6368 5.3333 15.4445L8.79197 13.1387C8.91793 13.0547 9.08204 13.0547 9.208 13.1387L12.6667 15.4445C12.9551 15.6368 13.3277 15.3683 13.2365 15.0338L12.067 10.7458C12.0266 10.5975 12.0808 10.4395 12.2038 10.3472L15.2301 8.07743C15.5036 7.87237 15.3825 7.4383 15.0424 7.40429L11.2264 7.02268C11.0872 7.00877 10.9674 6.91863 10.9155 6.78882Z" fill="#2B2B2C"/>
<path fill-rule="evenodd" clip-rule="evenodd" d="M8.18757 2.6848C8.48092 1.95142 9.51905 1.95142 9.8124 2.6848L11.3516 6.53271L15.0922 6.90677C15.8857 6.98613 16.1681 7.99894 15.5301 8.47743L12.5717 10.6962L13.7189 14.9023C13.9317 15.6827 13.0624 16.3092 12.3893 15.8605L8.99999 13.601L5.61065 15.8605C4.93758 16.3092 4.06828 15.6827 4.28112 14.9023L5.42822 10.6962L2.46983 8.47743C1.83184 7.99894 2.11424 6.98613 2.90777 6.90678L6.6484 6.53271L8.18757 2.6848ZM8.99999 3.34634L7.54872 6.97451C7.42756 7.2774 7.14797 7.48774 6.82336 7.5202L3.32645 7.86989L6.09616 9.94718C6.38323 10.1625 6.50975 10.5312 6.41533 10.8774L5.33372 14.8433L8.51462 12.7227C8.80853 12.5268 9.19144 12.5268 9.48535 12.7227L12.6662 14.8433L11.5846 10.8774C11.4902 10.5312 11.6167 10.1625 11.9038 9.94718L14.6735 7.86989L11.1766 7.5202C10.852 7.48774 10.5724 7.2774 10.4513 6.97451L8.99999 3.34634Z" fill="#2B2B2C"/>
</svg>
