<svg width="30" height="30" viewBox="0 0 30 30" fill="none" xmlns="http://www.w3.org/2000/svg">
<path fill-rule="evenodd" clip-rule="evenodd" d="M7.375 7.5C7.375 6.39543 8.27043 5.5 9.375 5.5C10.4796 5.5 11.375 6.39543 11.375 7.5C11.375 8.60457 10.4796 9.5 9.375 9.5C8.27043 9.5 7.375 8.60457 7.375 7.5ZM6.41648 7H4.5C4.22386 7 4 7.22386 4 7.5C4 7.77614 4.22386 8 4.5 8H6.41648C6.65452 9.41886 7.8885 10.5 9.375 10.5C10.8615 10.5 12.0955 9.41886 12.3335 8H25.5C25.7761 8 26 7.77614 26 7.5C26 7.22386 25.7761 7 25.5 7H12.3335C12.0955 5.58114 10.8615 4.5 9.375 4.5C7.8885 4.5 6.65452 5.58114 6.41648 7ZM4.5 22C4.22386 22 4 22.2239 4 22.5C4 22.7761 4.22386 23 4.5 23H9.54148C9.77952 24.4189 11.0135 25.5 12.5 25.5C13.9865 25.5 15.2205 24.4189 15.4585 23H25.5C25.7761 23 26 22.7761 26 22.5C26 22.2239 25.7761 22 25.5 22H15.4585C15.2205 20.5811 13.9865 19.5 12.5 19.5C11.0135 19.5 9.77952 20.5811 9.54148 22H4.5ZM12.5 20.5C13.6046 20.5 14.5 21.3954 14.5 22.5C14.5 23.6046 13.6046 24.5 12.5 24.5C11.3954 24.5 10.5 23.6046 10.5 22.5C10.5 21.3954 11.3954 20.5 12.5 20.5ZM26 15C26 15.2761 25.7761 15.5 25.5 15.5L23.5835 15.5C23.3455 16.9189 22.1115 18 20.625 18C19.1385 18 17.9045 16.9189 17.6665 15.5L4.5 15.5C4.22386 15.5 4 15.2761 4 15C4 14.7239 4.22386 14.5 4.5 14.5L17.6665 14.5C17.9045 13.0811 19.1385 12 20.625 12C22.1115 12 23.3455 13.0811 23.5835 14.5L25.5 14.5C25.7761 14.5 26 14.7239 26 15ZM22.625 15C22.625 16.1046 21.7296 17 20.625 17C19.5204 17 18.625 16.1046 18.625 15C18.625 13.8954 19.5204 13 20.625 13C21.7296 13 22.625 13.8954 22.625 15Z" fill="#2B2B2C"/>
</svg>
