<svg width="18" height="18" viewBox="0 0 18 18" fill="none" xmlns="http://www.w3.org/2000/svg">
<path fill-rule="evenodd" clip-rule="evenodd" d="M3 4.5C3 4.22386 3.22386 4 3.5 4H14.5C14.7761 4 15 4.22386 15 4.5C15 4.77614 14.7761 5 14.5 5H3.5C3.22386 5 3 4.77614 3 4.5ZM3 9C3 8.72386 3.22386 8.5 3.5 8.5H14.5C14.7761 8.5 15 8.72386 15 9C15 9.27614 14.7761 9.5 14.5 9.5H3.5C3.22386 9.5 3 9.27614 3 9ZM3.5 13C3.22386 13 3 13.2239 3 13.5C3 13.7761 3.22386 14 3.5 14H14.5C14.7761 14 15 13.7761 15 13.5C15 13.2239 14.7761 13 14.5 13H3.5Z" fill="#2B2B2C"/>
</svg>
