<svg width="18" height="18" viewBox="0 0 18 18" fill="none" xmlns="http://www.w3.org/2000/svg">
<path fill-rule="evenodd" clip-rule="evenodd" d="M3 4.5C3 4.08579 3.33579 3.75 3.75 3.75H14.25C14.6642 3.75 15 4.08579 15 4.5C15 4.91421 14.6642 5.25 14.25 5.25H3.75C3.33579 5.25 3 4.91421 3 4.5ZM3.00003 9C3.00003 8.58579 3.33582 8.25 3.75003 8.25H14.25C14.6642 8.25 15 8.58579 15 9C15 9.41421 14.6642 9.75 14.25 9.75H3.75003C3.33582 9.75 3.00003 9.41421 3.00003 9ZM3.75 12.75C3.33579 12.75 3 13.0858 3 13.5C3 13.9142 3.33579 14.25 3.75 14.25H14.25C14.6642 14.25 15 13.9142 15 13.5C15 13.0858 14.6642 12.75 14.25 12.75H3.75Z" fill="#2B2B2C"/>
</svg>
