<svg width="30" height="30" viewBox="0 0 30 30" fill="none" xmlns="http://www.w3.org/2000/svg">
<path fill-rule="evenodd" clip-rule="evenodd" d="M5 7.5C5 7.22386 5.22386 7 5.5 7H24.5C24.7761 7 25 7.22386 25 7.5C25 7.77614 24.7761 8 24.5 8H5.5C5.22386 8 5 7.77614 5 7.5ZM5 15C5 14.7239 5.22386 14.5 5.5 14.5H24.5C24.7761 14.5 25 14.7239 25 15C25 15.2761 24.7761 15.5 24.5 15.5H5.5C5.22386 15.5 5 15.2761 5 15ZM5.5 22C5.22386 22 5 22.2239 5 22.5C5 22.7761 5.22386 23 5.5 23H24.5C24.7761 23 25 22.7761 25 22.5C25 22.2239 24.7761 22 24.5 22H5.5Z" fill="#2B2B2C"/>
</svg>
