<svg width="30" height="30" viewBox="0 0 30 30" fill="none" xmlns="http://www.w3.org/2000/svg">
<path fill-rule="evenodd" clip-rule="evenodd" d="M7.0997 7.5C9.10759 5.39968 11.9116 4 15 4C21.0751 4 26 8.92487 26 15C26 21.0751 21.0751 26 15 26C8.92487 26 4 21.0751 4 15C4 14.7239 3.77614 14.5 3.5 14.5C3.22386 14.5 3 14.7239 3 15C3 21.6274 8.37258 27 15 27C21.6274 27 27 21.6274 27 15C27 8.37258 21.6274 3 15 3C11.5734 3 8.49531 4.56422 6.31864 6.87044L5.9932 4.9178C5.9478 4.64542 5.69019 4.46141 5.4178 4.5068C5.14542 4.5522 4.96141 4.80981 5.0068 5.0822L5.57644 8.5H9C9.27614 8.5 9.5 8.27614 9.5 8C9.5 7.72386 9.27614 7.5 9 7.5H7.0997ZM15.5 6.5C15.5 6.22386 15.2761 6 15 6C14.7239 6 14.5 6.22386 14.5 6.5V15.2071L18.6464 19.3536C18.8417 19.5488 19.1583 19.5488 19.3536 19.3536C19.5488 19.1583 19.5488 18.8417 19.3536 18.6464L15.5 14.7929V6.5Z" fill="#2B2B2C"/>
</svg>
