<svg width="24" height="24" viewBox="0 0 24 24" fill="none" xmlns="http://www.w3.org/2000/svg">
<path fill-rule="evenodd" clip-rule="evenodd" d="M5.80182 7.02632C7.25711 5.17885 9.4656 4 12 4C16.4183 4 20 7.58172 20 12C20 16.4183 16.4183 20 12 20C7.58172 20 4 16.4183 4 12C4 11.7239 3.77614 11.5 3.5 11.5C3.22386 11.5 3 11.7239 3 12C3 16.9706 7.02944 21 12 21C16.9706 21 21 16.9706 21 12C21 7.02944 16.9706 3 12 3C9.19057 3 6.73978 4.28695 5.10589 6.29572L4.88503 5.19142C4.83087 4.92064 4.56746 4.74503 4.29668 4.79918C4.0259 4.85334 3.85029 5.11675 3.90445 5.38753L4.4322 8.02632H7.07895C7.35509 8.02632 7.57895 7.80246 7.57895 7.52632C7.57895 7.25017 7.35509 7.02632 7.07895 7.02632H5.80182ZM12.5 5.5C12.5 5.22386 12.2761 5 12 5C11.7239 5 11.5 5.22386 11.5 5.5V12.2071L15.1464 15.8536C15.3417 16.0488 15.6583 16.0488 15.8536 15.8536C16.0488 15.6583 16.0488 15.3417 15.8536 15.1464L12.5 11.7929V5.5Z" fill="#2B2B2C"/>
</svg>
