<svg width="18" height="18" viewBox="0 0 18 18" fill="none" xmlns="http://www.w3.org/2000/svg">
<path fill-rule="evenodd" clip-rule="evenodd" d="M2.35813 4.89519C3.50729 2.21383 7.03272 1.61873 9.00016 3.74834C10.9676 1.61874 14.493 2.21384 15.6422 4.8952C16.2183 6.23944 16.0185 7.79055 15.1207 8.94497L9.98685 15.5456C9.48641 16.189 8.51392 16.189 8.01347 15.5456L2.87967 8.94497C1.98178 7.79055 1.78203 6.23944 2.35813 4.89519ZM6.49286 4.91504C6.53986 5.18715 6.35737 5.44585 6.08526 5.49285C5.61475 5.57413 5.39672 5.88093 5.31432 6.2763C5.27172 6.48076 5.27158 6.69511 5.29954 6.87808C5.3134 6.96876 5.3332 7.04536 5.35427 7.10413C5.36472 7.13326 5.37467 7.15576 5.38304 7.1721C5.39134 7.18829 5.39648 7.19528 5.39672 7.19561L5.39672 7.19562C5.56491 7.41464 5.5237 7.72853 5.30469 7.89671C5.08567 8.0649 4.77178 8.02369 4.6036 7.80468C4.44336 7.59601 4.35299 7.3038 4.31101 7.02913C4.26684 6.74007 4.26606 6.4048 4.33536 6.07228C4.47677 5.39371 4.93276 4.67712 5.91504 4.50745C6.18716 4.46044 6.44585 4.64293 6.49286 4.91504Z" fill="#2B2B2C"/>
</svg>
