<svg width="30" height="30" viewBox="0 0 30 30" fill="none" xmlns="http://www.w3.org/2000/svg">
<path fill-rule="evenodd" clip-rule="evenodd" d="M3.95683 7.2609C6.23017 3.06396 12.0067 2.549 15 6.17917C17.9934 2.54902 23.7699 3.06398 26.0432 7.26091C27.2917 9.56584 27.0802 12.3874 25.5019 14.4804L16.5969 26.2895C15.7967 27.3506 14.2033 27.3506 13.4032 26.2895L4.49817 14.4804C2.91989 12.3874 2.70832 9.56584 3.95683 7.2609ZM7.85358 8.8537C8.04885 8.65843 8.04885 8.34185 7.85358 8.14659C7.65832 7.95133 7.34174 7.95133 7.14648 8.14659C6.36855 8.92452 6.21528 10.0758 6.29882 11.0282C6.3416 11.5159 6.44841 11.9838 6.59001 12.3781C6.72677 12.7589 6.91372 13.1209 7.14648 13.3537C7.34174 13.549 7.65832 13.549 7.85359 13.3537C8.04885 13.1584 8.04885 12.8419 7.85359 12.6466C7.77385 12.5669 7.64831 12.3663 7.53116 12.0401C7.41886 11.7274 7.33035 11.3438 7.295 10.9408C7.22229 10.112 7.38151 9.32577 7.85358 8.8537ZM9.50003 7.00014C9.50003 7.27628 9.27617 7.50014 9.00003 7.50014C8.72389 7.50014 8.50003 7.27628 8.50003 7.00014C8.50003 6.724 8.72389 6.50014 9.00003 6.50014C9.27617 6.50014 9.50003 6.724 9.50003 7.00014Z" fill="#2B2B2C"/>
</svg>
