<svg width="18" height="18" viewBox="0 0 18 18" fill="none" xmlns="http://www.w3.org/2000/svg">
<path fill-rule="evenodd" clip-rule="evenodd" d="M3.27728 5.28911C4.14848 3.25631 6.83794 2.81987 8.30726 4.47286L8.62646 4.83195C8.72134 4.93869 8.85735 4.99977 9.00016 4.99977C9.14298 4.99977 9.27899 4.93869 9.37387 4.83195L9.69305 4.47287C11.1624 2.81988 13.8518 3.25632 14.723 5.28912C15.1558 6.29882 15.0057 7.46391 14.3313 8.33103L9.1975 14.9316C9.09741 15.0603 8.90292 15.0603 8.80282 14.9316L3.66902 8.33103C2.99459 7.46391 2.84455 6.29882 3.27728 5.28911ZM2.35813 4.89519C3.50729 2.21383 7.03272 1.61873 9.00016 3.74834C10.9676 1.61874 14.493 2.21384 15.6422 4.8952C16.2183 6.23944 16.0185 7.79055 15.1207 8.94497L9.98685 15.5456C9.48641 16.189 8.51392 16.189 8.01347 15.5456L2.87967 8.94497C1.98178 7.79055 1.78203 6.23944 2.35813 4.89519ZM6.08487 5.49278C6.35698 5.44578 6.53947 5.18709 6.49247 4.91497C6.44546 4.64286 6.18677 4.46037 5.91465 4.50738C4.93237 4.67706 4.47638 5.39364 4.33497 6.07222C4.26567 6.40473 4.26645 6.74 4.31063 7.02906C4.3526 7.30373 4.44297 7.59594 4.60321 7.80461C4.77139 8.02363 5.08528 8.06483 5.3043 7.89665C5.52332 7.72846 5.56452 7.41457 5.39634 7.19555L5.39633 7.19554C5.39609 7.19522 5.39095 7.18822 5.38265 7.17203C5.37428 7.15569 5.36433 7.13319 5.35388 7.10406C5.33281 7.0453 5.31301 6.9687 5.29915 6.87801C5.27119 6.69505 5.27133 6.4807 5.31394 6.27623C5.39633 5.88086 5.61436 5.57406 6.08487 5.49278Z" fill="#2B2B2C"/>
</svg>
