<svg width="18" height="18" viewBox="0 0 18 18" fill="none" xmlns="http://www.w3.org/2000/svg">
<path fill-rule="evenodd" clip-rule="evenodd" d="M11.5 1.75C11.0858 1.75 10.75 2.08579 10.75 2.5C10.75 2.91421 11.0858 3.25 11.5 3.25H13.6893L8.96967 7.96967C8.67678 8.26256 8.67678 8.73744 8.96967 9.03033C9.26256 9.32322 9.73744 9.32322 10.0303 9.03033L14.75 4.31066V6.5C14.75 6.91421 15.0858 7.25 15.5 7.25C15.9142 7.25 16.25 6.91421 16.25 6.5V2.5C16.25 2.08579 15.9142 1.75 15.5 1.75H11.5ZM3.25 3.75C2.42157 3.75 1.75 4.42157 1.75 5.25V14.25C1.75 15.0784 2.42157 15.75 3.25 15.75H12.75C13.5784 15.75 14.25 15.0784 14.25 14.25V10C14.25 9.58579 13.9142 9.25 13.5 9.25C13.0858 9.25 12.75 9.58579 12.75 10V14.25H3.25V5.25H8C8.41421 5.25 8.75 4.91421 8.75 4.5C8.75 4.08579 8.41421 3.75 8 3.75H3.25Z" fill="#2B2B2C"/>
</svg>
