<svg width="24" height="24" viewBox="0 0 24 24" fill="none" xmlns="http://www.w3.org/2000/svg">
<path fill-rule="evenodd" clip-rule="evenodd" d="M15.5 3C15.2239 3 15 3.22386 15 3.5C15 3.77614 15.2239 4 15.5 4H19.2929L12.1464 11.1464C11.9512 11.3417 11.9512 11.6583 12.1464 11.8536C12.3417 12.0488 12.6583 12.0488 12.8536 11.8536L20 4.70711V8.5C20 8.77614 20.2239 9 20.5 9C20.7761 9 21 8.77614 21 8.5V3.5C21 3.22386 20.7761 3 20.5 3H15.5ZM5 5.5C4.17157 5.5 3.5 6.17157 3.5 7V19C3.5 19.8284 4.17157 20.5 5 20.5H17C17.8284 20.5 18.5 19.8284 18.5 19V10.5C18.5 10.2239 18.2761 10 18 10C17.7239 10 17.5 10.2239 17.5 10.5V19C17.5 19.2761 17.2761 19.5 17 19.5H5C4.72386 19.5 4.5 19.2761 4.5 19V7C4.5 6.72386 4.72386 6.5 5 6.5H13.5C13.7761 6.5 14 6.27614 14 6C14 5.72386 13.7761 5.5 13.5 5.5H5Z" fill="#2B2B2C"/>
</svg>
