<svg width="18" height="18" viewBox="0 0 18 18" fill="none" xmlns="http://www.w3.org/2000/svg">
<path fill-rule="evenodd" clip-rule="evenodd" d="M11.5 2C11.2239 2 11 2.22386 11 2.5C11 2.77614 11.2239 3 11.5 3H14.2929L9.14645 8.14645C8.95118 8.34171 8.95118 8.65829 9.14645 8.85355C9.34171 9.04882 9.65829 9.04882 9.85355 8.85355L15 3.70711V6.5C15 6.77614 15.2239 7 15.5 7C15.7761 7 16 6.77614 16 6.5V2.5C16 2.22386 15.7761 2 15.5 2H11.5ZM3.25 4C2.55964 4 2 4.55964 2 5.25V14.25C2 14.9404 2.55964 15.5 3.25 15.5H12.75C13.4404 15.5 14 14.9404 14 14.25V9.5C14 9.22386 13.7761 9 13.5 9C13.2239 9 13 9.22386 13 9.5V14.25C13 14.3881 12.8881 14.5 12.75 14.5H3.25C3.11193 14.5 3 14.3881 3 14.25V5.25C3 5.11193 3.11193 5 3.25 5H8.5C8.77614 5 9 4.77614 9 4.5C9 4.22386 8.77614 4 8.5 4H3.25Z" fill="#2B2B2C"/>
</svg>
