<svg width="24" height="24" viewBox="0 0 24 24" fill="none" xmlns="http://www.w3.org/2000/svg">
<path fill-rule="evenodd" clip-rule="evenodd" d="M19.3894 3.31368C19.5626 3.09864 19.5287 2.78387 19.3137 2.61064C19.0986 2.43741 18.7839 2.47131 18.6106 2.68635L16.4965 5.31078C15.6847 3.64656 13.9763 2.5 12 2.5C9.23858 2.5 7 4.73858 7 7.5V10.8902L4.04602 17.2905C3.97457 17.4453 3.98694 17.6258 4.07883 17.7695C4.17073 17.9131 4.32949 18 4.5 18H6.27465L4.11064 20.6864C3.93741 20.9014 3.97131 21.2162 4.18635 21.3894C4.4014 21.5626 4.71616 21.5287 4.88939 21.3137L7.55875 18H7.55969L7.69481 17.8311L19.3894 3.31368ZM12 21.5C10.2014 21.5 8.71967 20.1433 8.52232 18.3975L17 7.80039V10.8902L19.954 17.2905C20.0254 17.4453 20.0131 17.6258 19.9212 17.7695C19.8293 17.9131 19.6705 18 19.5 18H15.5C15.5 19.933 13.933 21.5 12 21.5ZM9.5 18C9.5 19.3807 10.6193 20.5 12 20.5C13.3807 20.5 14.5 19.3807 14.5 18H9.5Z" fill="#2B2B2C"/>
</svg>
