<svg width="30" height="30" viewBox="0 0 30 30" fill="none" xmlns="http://www.w3.org/2000/svg">
<path fill-rule="evenodd" clip-rule="evenodd" d="M9 9C9 5.68629 11.6863 3 15 3C17.7386 3 20.0486 4.83473 20.768 7.34205L24.1104 3.18664C24.2835 2.97146 24.5982 2.93734 24.8134 3.11041C25.0286 3.28349 25.0627 3.59822 24.8896 3.8134L20.9906 8.66084C20.9968 8.7731 21 8.88618 21 9V13.3939L24.9569 22.2969C25.0256 22.4516 25.0115 22.6305 24.9192 22.7725C24.827 22.9144 24.6693 23 24.5 23H19C19 25.2091 17.2091 27 15 27C12.7909 27 11 25.2091 11 23H9.4569L6.38961 26.8134C6.21653 27.0286 5.90179 27.0627 5.68662 26.8896C5.47145 26.7165 5.43732 26.4018 5.61039 26.1866L8.17356 23H5.5C5.33075 23 5.17298 22.9144 5.08075 22.7725C4.98852 22.6305 4.97435 22.4516 5.04309 22.2969L9 13.3939V9ZM10.2613 22H23.7306L20.0431 13.7031C20.0147 13.6391 20 13.57 20 13.5V9.89237L10.2613 22ZM19.958 8.34906L8.97791 22H6.26938L9.95691 13.7031C9.98532 13.6391 10 13.57 10 13.5V9C10 6.23858 12.2386 4 15 4C17.5408 4 19.639 5.89519 19.958 8.34906ZM15 26C13.3431 26 12 24.6569 12 23H18C18 24.6569 16.6569 26 15 26Z" fill="#2B2B2C"/>
</svg>
