<svg width="24" height="24" viewBox="0 0 24 24" fill="none" xmlns="http://www.w3.org/2000/svg">
<path fill-rule="evenodd" clip-rule="evenodd" d="M8 7.5C8 5.29086 9.79086 3.5 12 3.5C12.0954 3.50079 12.1858 3.50646 12.2804 3.51403C12.4603 3.52842 12.7018 3.55704 12.954 3.61309C13.2089 3.66974 13.4567 3.75049 13.659 3.86082C13.6853 3.87514 13.7102 3.88966 13.7339 3.90438C12.9691 4.711 12.5 5.80071 12.5 7C12.5 9.19202 14.0673 11.018 16.1424 11.4184L18.7185 17H5.28146L7.95398 11.2095C7.9843 11.1438 8 11.0723 8 11V7.5ZM14.1379 2.98293C14.2691 3.05452 14.4001 3.1404 14.5216 3.24341C15.2323 2.77356 16.0842 2.5 17 2.5C19.4853 2.5 21.5 4.51472 21.5 7C21.5 9.39207 19.6336 11.3482 17.2776 11.4916L19.954 17.2905C20.0254 17.4453 20.0131 17.6258 19.9212 17.7695C19.8293 17.9131 19.6705 18 19.5 18H15.5C15.5 19.933 13.933 21.5 12 21.5C10.067 21.5 8.5 19.933 8.5 18H4.5C4.32949 18 4.17073 17.9131 4.07883 17.7695C3.98694 17.6258 3.97457 17.4453 4.04602 17.2905L7 10.8902V7.5C7 4.73858 9.23858 2.5 12 2.5C12 2.5 12.004 2.50053 12.0106 2.50369C12.0106 2.50299 12.0107 2.50264 12.0109 2.50264L12.0627 2.50423C12.1444 2.50663 12.276 2.51048 12.3602 2.51722C12.571 2.53408 12.8607 2.56796 13.171 2.63691C13.4786 2.70526 13.8245 2.81201 14.1379 2.98293ZM9.5 18C9.5 19.3807 10.6193 20.5 12 20.5C13.3807 20.5 14.5 19.3807 14.5 18H9.5ZM17 3.5C15.067 3.5 13.5 5.067 13.5 7C13.5 8.933 15.067 10.5 17 10.5C18.933 10.5 20.5 8.933 20.5 7C20.5 5.067 18.933 3.5 17 3.5ZM16.5 4.5C16.2239 4.5 16 4.72386 16 5C16 5.27614 16.2239 5.5 16.5 5.5V9C16.5 9.27614 16.7239 9.5 17 9.5C17.2761 9.5 17.5 9.27614 17.5 9V5C17.5 4.72386 17.2761 4.5 17 4.5H16.5Z" fill="#2B2B2C"/>
</svg>
