<svg width="24" height="24" viewBox="0 0 24 24" fill="none" xmlns="http://www.w3.org/2000/svg">
<path d="M16.5 11V7.5C16.5 5.01472 14.4853 3 12 3C9.51472 3 7.5 5.01472 7.5 7.5V11L4.5 17.5H19.5L16.5 11Z" fill="#2B2B2C"/>
<path fill-rule="evenodd" clip-rule="evenodd" d="M12 2.5C9.23858 2.5 7 4.73858 7 7.5V10.8902L4.04602 17.2905C3.97457 17.4453 3.98694 17.6258 4.07883 17.7695C4.17073 17.9131 4.32949 18 4.5 18H8.5C8.5 19.933 10.067 21.5 12 21.5C13.933 21.5 15.5 19.933 15.5 18H19.5C19.6705 18 19.8293 17.9131 19.9212 17.7695C20.0131 17.6258 20.0254 17.4453 19.954 17.2905L17 10.8902V7.5C17 4.73858 14.7614 2.5 12 2.5ZM14.5 18H9.5C9.5 19.3807 10.6193 20.5 12 20.5C13.3807 20.5 14.5 19.3807 14.5 18ZM8 7.5C8 5.29086 9.79086 3.5 12 3.5C14.2091 3.5 16 5.29086 16 7.5V11C16 11.0723 16.0157 11.1438 16.046 11.2095L18.7185 17H5.28146L7.95398 11.2095C7.9843 11.1438 8 11.0723 8 11V7.5Z" fill="#2B2B2C"/>
</svg>
