<svg width="18" height="18" viewBox="0 0 18 18" fill="none" xmlns="http://www.w3.org/2000/svg">
<path fill-rule="evenodd" clip-rule="evenodd" d="M5 5.5C5 3.29086 6.79086 1.5 9 1.5C9.00207 1.5 8.90298 1.54094 9.0027 1.50001C9 1.54688 9.00316 1.48047 9 2C9.00458 2.25626 9 2.5 9 2.5C9 2.5 9 2.5 9 2C9 1.5 9 1.5 9 1.5L9.00117 1.5L9.0027 1.50001C9.06911 1.50001 9.0027 1.50001 9.20241 1.50929C9.31881 1.51824 9.48005 1.53611 9.66056 1.57221C10.0024 1.64058 10.4973 1.79018 10.8536 2.14645L10.1464 2.85355C10.0027 2.70983 9.74759 2.60942 9.46444 2.55279C9.31266 2.52243 9.15795 2.50416 9.00316 2.50006L9 2.5C7.34315 2.5 6 3.84314 6 5.5V8.5C6 8.57762 5.98193 8.65418 5.94721 8.72361L3.80902 13H14.191L12.3028 9.22361L13.1972 8.77639L15.4472 13.2764C15.5247 13.4314 15.5164 13.6155 15.4253 13.7629C15.3342 13.9103 15.1733 14 15 14H3C2.82671 14 2.66578 13.9103 2.57468 13.7629C2.48357 13.6155 2.47529 13.4314 2.55279 13.2764L5 8.38197V5.5Z" fill="#2B2B2C"/>
<path fill-rule="evenodd" clip-rule="evenodd" d="M6.5 14V13.5H7.5V14C7.5 14.8284 8.17157 15.5 9 15.5C9.82843 15.5 10.5 14.8284 10.5 14V13.5H11.5V14C11.5 15.3807 10.3807 16.5 9 16.5C7.61929 16.5 6.5 15.3807 6.5 14Z" fill="#2B2B2C"/>
<path fill-rule="evenodd" clip-rule="evenodd" d="M12.5 2.4375C10.8086 2.4375 9.4375 3.80863 9.4375 5.5C9.4375 7.19137 10.8086 8.5625 12.5 8.5625C14.1914 8.5625 15.5625 7.19137 15.5625 5.5C15.5625 3.80863 14.1914 2.4375 12.5 2.4375ZM8.5625 5.5C8.5625 3.32538 10.3254 1.5625 12.5 1.5625C14.6746 1.5625 16.4375 3.32538 16.4375 5.5C16.4375 7.67462 14.6746 9.4375 12.5 9.4375C10.3254 9.4375 8.5625 7.67462 8.5625 5.5Z" fill="#2B2B2C"/>
<path fill-rule="evenodd" clip-rule="evenodd" d="M11.5 4C11.5 3.72386 11.7239 3.5 12 3.5H12.5C12.7761 3.5 13 3.72386 13 4V7C13 7.27614 12.7761 7.5 12.5 7.5C12.2239 7.5 12 7.27614 12 7V4.5C11.7239 4.5 11.5 4.27614 11.5 4Z" fill="#2B2B2C"/>
</svg>
