<svg width="30" height="30" viewBox="0 0 30 30" fill="none" xmlns="http://www.w3.org/2000/svg">
<path fill-rule="evenodd" clip-rule="evenodd" d="M21.5 3.5C18.7386 3.5 16.5 5.73858 16.5 8.5C16.5 11.2614 18.7386 13.5 21.5 13.5C24.2614 13.5 26.5 11.2614 26.5 8.5C26.5 5.73858 24.2614 3.5 21.5 3.5ZM19 23H24.5C24.6693 23 24.827 22.9144 24.9192 22.7725C25.0115 22.6305 25.0256 22.4516 24.9569 22.2969L21.4916 14.5C21.4944 14.5 21.4972 14.5 21.5 14.5C24.8137 14.5 27.5 11.8137 27.5 8.5C27.5 5.18629 24.8137 2.5 21.5 2.5C20.1332 2.5 18.8731 2.95703 17.8643 3.72662C17.0127 3.2632 16.0365 3 15 3C11.6863 3 9 5.68629 9 9V13.3939L5.0431 22.2969C4.97436 22.4516 4.98853 22.6305 5.08076 22.7725C5.17298 22.9144 5.33075 23 5.5 23H11C11 25.2091 12.7909 27 15 27C17.2091 27 19 25.2091 19 23ZM12 23C12 24.6569 13.3431 26 15 26C16.6569 26 18 24.6569 18 23H12ZM20.5 5.5C20.2239 5.5 20 5.72386 20 6C20 6.27614 20.2239 6.5 20.5 6.5H21V11C21 11.2761 21.2239 11.5 21.5 11.5C21.7761 11.5 22 11.2761 22 11V6C22 5.72386 21.7761 5.5 21.5 5.5H20.5Z" fill="#2B2B2C"/>
</svg>
