<svg width="24" height="24" viewBox="0 0 24 24" fill="none" xmlns="http://www.w3.org/2000/svg">
<path fill-rule="evenodd" clip-rule="evenodd" d="M3 12C3 12.8284 3.67157 13.5 4.5 13.5C5.32843 13.5 6 12.8284 6 12C6 11.1716 5.32843 10.5 4.5 10.5C3.67157 10.5 3 11.1716 3 12ZM4.5 14.5C3.11929 14.5 2 13.3807 2 12C2 10.6193 3.11929 9.5 4.5 9.5C5.88071 9.5 7 10.6193 7 12C7 13.3807 5.88071 14.5 4.5 14.5ZM10.5 12C10.5 12.8284 11.1716 13.5 12 13.5C12.8284 13.5 13.5 12.8284 13.5 12C13.5 11.1716 12.8284 10.5 12 10.5C11.1716 10.5 10.5 11.1716 10.5 12ZM12 14.5C10.6193 14.5 9.5 13.3807 9.5 12C9.5 10.6193 10.6193 9.5 12 9.5C13.3807 9.5 14.5 10.6193 14.5 12C14.5 13.3807 13.3807 14.5 12 14.5ZM19.5 13.5C18.6716 13.5 18 12.8284 18 12C18 11.1716 18.6716 10.5 19.5 10.5C20.3284 10.5 21 11.1716 21 12C21 12.8284 20.3284 13.5 19.5 13.5ZM17 12C17 13.3807 18.1193 14.5 19.5 14.5C20.8807 14.5 22 13.3807 22 12C22 10.6193 20.8807 9.5 19.5 9.5C18.1193 9.5 17 10.6193 17 12Z" fill="#2B2B2C"/>
</svg>
