<svg width="30" height="30" viewBox="0 0 30 30" fill="none" xmlns="http://www.w3.org/2000/svg">
<path fill-rule="evenodd" clip-rule="evenodd" d="M3 15C3 16.6569 4.34315 18 6 18C7.65685 18 9 16.6569 9 15C9 13.3431 7.65685 12 6 12C4.34315 12 3 13.3431 3 15ZM12 15C12 16.6569 13.3431 18 15 18C16.6569 18 18 16.6569 18 15C18 13.3431 16.6569 12 15 12C13.3431 12 12 13.3431 12 15ZM21 15C21 16.6569 22.3431 18 24 18C25.6569 18 27 16.6569 27 15C27 13.3431 25.6569 12 24 12C22.3431 12 21 13.3431 21 15Z" fill="#2B2B2C"/>
</svg>
