<svg width="24" height="24" viewBox="0 0 24 24" fill="none" xmlns="http://www.w3.org/2000/svg">
<path fill-rule="evenodd" clip-rule="evenodd" d="M7 8C7 5.23858 9.23858 3 12 3C14.7614 3 17 5.23858 17 8V10H16V8C16 5.79086 14.2091 4 12 4C9.79086 4 8 5.79086 8 8V10H7V8ZM6 10V8C6 4.68629 8.68629 2 12 2C15.3137 2 18 4.68629 18 8V10H18.5C19.3284 10 20 10.6716 20 11.5V20.5C20 21.3284 19.3284 22 18.5 22H5.5C4.67157 22 4 21.3284 4 20.5V11.5C4 10.6716 4.67157 10 5.5 10H6ZM9 10H15V8C15 6.34315 13.6569 5 12 5C10.3431 5 9 6.34315 9 8V10ZM12.5 16.4146C13.0826 16.2087 13.5 15.6531 13.5 15C13.5 14.1716 12.8284 13.5 12 13.5C11.1716 13.5 10.5 14.1716 10.5 15C10.5 15.6531 10.9174 16.2087 11.5 16.4146V18C11.5 18.2761 11.7239 18.5 12 18.5C12.2761 18.5 12.5 18.2761 12.5 18V16.4146Z" fill="#2B2B2C"/>
</svg>
