<svg width="30" height="30" viewBox="0 0 30 30" fill="none" xmlns="http://www.w3.org/2000/svg">
<path fill-rule="evenodd" clip-rule="evenodd" d="M15 4C11.4629 4 8.58324 6.84391 8.53903 10.3807L8.50629 13H10V10.5C10 7.73858 12.2386 5.5 15 5.5C17.7614 5.5 20 7.73858 20 10.5V13H21.4937L21.461 10.3807C21.4168 6.84392 18.5371 4 15 4ZM7.99924 14H8.00102H10.5H19.5H21.999H22.0008H22.75C23.1642 14 23.5 14.3358 23.5 14.75V25.25C23.5 25.6642 23.1642 26 22.75 26H7.25C6.83579 26 6.5 25.6642 6.5 25.25V14.75C6.5 14.3358 6.83579 14 7.25 14H7.99924ZM19 10.5V13H11V10.5C11 8.29086 12.7909 6.5 15 6.5C17.2091 6.5 19 8.29086 19 10.5ZM22.4609 10.3682L22.4938 13H22.75C23.7165 13 24.5 13.7835 24.5 14.75V25.25C24.5 26.2165 23.7165 27 22.75 27H7.25C6.2835 27 5.5 26.2165 5.5 25.25V14.75C5.5 13.7835 6.2835 13 7.25 13H7.50621L7.53911 10.3682C7.59016 6.28405 10.9155 3 15 3C19.0845 3 22.4098 6.28405 22.4609 10.3682ZM13.5 18.5C13.5 17.6716 14.1716 17 15 17C15.8284 17 16.5 17.6716 16.5 18.5C16.5 19.0546 16.1993 19.5395 15.7496 19.7996C15.5951 19.889 15.5 20.054 15.5 20.2324V22.5C15.5 22.7761 15.2761 23 15 23C14.7239 23 14.5 22.7761 14.5 22.5V20.2324C14.5 20.054 14.4049 19.889 14.2504 19.7996C13.8007 19.5395 13.5 19.0546 13.5 18.5ZM15 16C13.6193 16 12.5 17.1193 12.5 18.5C12.5 19.3185 12.8935 20.0446 13.5 20.5001V22.5C13.5 23.3284 14.1716 24 15 24C15.8284 24 16.5 23.3284 16.5 22.5V20.5001C17.1065 20.0446 17.5 19.3185 17.5 18.5C17.5 17.1193 16.3807 16 15 16Z" fill="#2B2B2C"/>
</svg>
