<svg width="18" height="18" viewBox="0 0 18 18" fill="none" xmlns="http://www.w3.org/2000/svg">
<path fill-rule="evenodd" clip-rule="evenodd" d="M4.25 2C4.11193 2 4 2.11193 4 2.25V15.75C4 15.8881 4.11193 16 4.25 16H13.75C13.8881 16 14 15.8881 14 15.75V6H11.25C10.5596 6 10 5.44036 10 4.75V2H4.25ZM11 2.2593L13.3981 5H11.25C11.1119 5 11 4.88807 11 4.75V2.2593ZM3 2.25C3 1.55964 3.55964 1 4.25 1H10.6597C11.0201 1 11.363 1.1556 11.6004 1.42687L14.6907 4.95867C14.8901 5.18653 15 5.47902 15 5.7818V15.75C15 16.4404 14.4404 17 13.75 17H4.25C3.55964 17 3 16.4404 3 15.75V2.25ZM6.45139 7.99561H5V10.9999H5.59664V9.88707H6.45139C7.05226 9.88707 7.43732 9.5147 7.43732 8.94345C7.43732 8.3722 7.05226 7.99561 6.45139 7.99561ZM6.34137 8.48645C6.65027 8.48645 6.84915 8.64725 6.84915 8.94345C6.84915 9.23542 6.65027 9.39622 6.34137 9.39622H5.5924V8.48645H6.34137ZM9.0781 7.99561H7.86367V10.9999H9.0781C9.94555 10.9999 10.4449 10.3737 10.4449 9.49777C10.4449 8.62186 9.94555 7.99561 9.0781 7.99561ZM8.98501 8.49069C9.48009 8.49069 9.8313 8.81228 9.8313 9.49777C9.8313 10.1833 9.48009 10.5049 8.98501 10.5049H8.45608V8.49069H8.98501ZM10.8885 7.99561H13V8.49069H11.4851V9.27774H12.89V9.77282H11.4851V10.9999H10.8885V7.99561Z" fill="#2B2B2C"/>
</svg>
