<svg width="30" height="30" viewBox="0 0 30 30" fill="none" xmlns="http://www.w3.org/2000/svg">
<path d="M23 9.5H17.75C17.0596 9.5 16.5 8.94036 16.5 8.25V2.5" stroke="#2B2B2C" stroke-linejoin="round"/>
<path fill-rule="evenodd" clip-rule="evenodd" d="M22.9998 9C22.9952 8.80752 22.9168 8.6239 22.7803 8.48744L17.5126 3.21967C17.3761 3.08321 17.1925 3.00477 17 3.00021V9H22.9998ZM7.75 2C6.7835 2 6 2.7835 6 3.75V26.25C6 27.2165 6.7835 28 7.75 28H22.25C23.2165 28 24 27.2165 24 26.25V9.01777C24 8.55364 23.8156 8.10852 23.4874 7.78033L18.2197 2.51256C17.8915 2.18437 17.4464 2 16.9822 2H7.75ZM8 12.7424H10.5399C11.5914 12.7424 12.2653 13.4015 12.2653 14.4011C12.2653 15.4008 11.5914 16.0525 10.5399 16.0525H9.04411V18H8V12.7424ZM11.236 14.4011C11.236 13.8828 10.888 13.6014 10.3474 13.6014H9.03671V15.1935H10.3474C10.888 15.1935 11.236 14.9121 11.236 14.4011ZM13.0114 12.7424H15.1367C16.6547 12.7424 17.5285 13.8384 17.5285 15.3712C17.5285 16.9041 16.6547 18 15.1367 18H13.0114V12.7424ZM16.4548 15.3712C16.4548 14.1716 15.8402 13.6088 14.9738 13.6088H14.0481V17.1336H14.9738C15.8402 17.1336 16.4548 16.5708 16.4548 15.3712ZM22 12.7424H18.3049V18H19.349V15.8525H21.8075V14.9861H19.349V13.6088H22V12.7424Z" fill="#2B2B2C"/>
</svg>
