<svg width="24" height="24" viewBox="0 0 24 24" fill="none" xmlns="http://www.w3.org/2000/svg">
<path fill-rule="evenodd" clip-rule="evenodd" d="M6.5 3C6.22386 3 6 3.22386 6 3.5V20.5C6 20.7761 6.22386 21 6.5 21H17.5C17.7761 21 18 20.7761 18 20.5V8.5H14.5C13.6716 8.5 13 7.82843 13 7V3H6.5ZM14 3.24742L17.8273 7.5H14.5C14.2239 7.5 14 7.27614 14 7V3.24742ZM5 3.5C5 2.67157 5.67157 2 6.5 2H13.5546C13.9799 2 14.3851 2.18048 14.6696 2.49655L18.6149 6.88029C18.8628 7.15573 19 7.51317 19 7.88374V20.5C19 21.3284 18.3284 22 17.5 22H6.5C5.67157 22 5 21.3284 5 20.5V3.5ZM8.81424 10.2446H7V14H7.74579V12.609H8.81424C9.56532 12.609 10.0466 12.1435 10.0466 11.4294C10.0466 10.7154 9.56532 10.2446 8.81424 10.2446ZM8.67671 10.8582C9.06284 10.8582 9.31143 11.0592 9.31143 11.4294C9.31143 11.7944 9.06284 11.9954 8.67671 11.9954H7.7405V10.8582H8.67671ZM12.0976 10.2446H10.5796V14H12.0976C13.1819 14 13.8061 13.2172 13.8061 12.1223C13.8061 11.0274 13.1819 10.2446 12.0976 10.2446ZM11.9813 10.8635C12.6001 10.8635 13.0391 11.2655 13.0391 12.1223C13.0391 12.9792 12.6001 13.3812 11.9813 13.3812H11.3201V10.8635H11.9813ZM14.3606 10.2446H17V10.8635H15.1064V11.8473H16.8625V12.4661H15.1064V14H14.3606V10.2446Z" fill="#2B2B2C"/>
</svg>
