<svg width="30" height="30" viewBox="0 0 30 30" fill="none" xmlns="http://www.w3.org/2000/svg">
<path fill-rule="evenodd" clip-rule="evenodd" d="M7.75 3C7.33579 3 7 3.33579 7 3.75V26.25C7 26.6642 7.33579 27 7.75 27H22.25C22.6642 27 23 26.6642 23 26.25V9.5H18.25C17.2835 9.5 16.5 8.7165 16.5 7.75V3H7.75ZM22.7803 8.48744L22.7926 8.5H18.25C17.8358 8.5 17.5 8.16421 17.5 7.75V3.2074L17.5126 3.21967L22.7803 8.48744ZM6 3.75C6 2.7835 6.7835 2 7.75 2H16.9822C17.4464 2 17.8915 2.18437 18.2197 2.51256L23.4874 7.78033C23.8156 8.10852 24 8.55364 24 9.01777V26.25C24 27.2165 23.2165 28 22.25 28H7.75C6.7835 28 6 27.2165 6 26.25V3.75ZM10.5399 12.7424H8V18H9.04411V16.0525H10.5399C11.5914 16.0525 12.2653 15.4008 12.2653 14.4012C12.2653 13.4015 11.5914 12.7424 10.5399 12.7424ZM10.3474 13.6014C10.888 13.6014 11.236 13.8828 11.236 14.4012C11.236 14.9121 10.888 15.1935 10.3474 15.1935H9.03671V13.6014H10.3474ZM15.1367 12.7424H13.0114V18H15.1367C16.6547 18 17.5285 16.9041 17.5285 15.3712C17.5285 13.8384 16.6547 12.7424 15.1367 12.7424ZM14.9738 13.6088C15.8402 13.6088 16.4548 14.1716 16.4548 15.3712C16.4548 16.5708 15.8402 17.1336 14.9738 17.1336H14.0481V13.6088H14.9738ZM18.3049 12.7424H22V13.6088H19.349V14.9862H21.8075V15.8526H19.349V18H18.3049V12.7424Z" fill="#2B2B2C"/>
</svg>
