<svg width="30" height="30" viewBox="0 0 30 30" fill="none" xmlns="http://www.w3.org/2000/svg">
<path fill-rule="evenodd" clip-rule="evenodd" d="M15 4C8.92487 4 4 8.92487 4 15C4 18.0287 5.22401 20.7715 7.20435 22.7607L8.37049 18.9707C8.82236 17.5021 10.1792 16.5 11.7157 16.5H18.2843C19.8208 16.5 21.1776 17.5021 21.6295 18.9707L22.7956 22.7607C24.776 20.7715 26 18.0287 26 15C26 8.92487 21.0751 4 15 4ZM3 15C3 8.37258 8.37258 3 15 3C21.6274 3 27 8.37258 27 15C27 21.6274 21.6274 27 15 27C8.37258 27 3 21.6274 3 15ZM15 6C12.5147 6 10.5 8.01472 10.5 10.5C10.5 12.9853 12.5147 15 15 15C17.4853 15 19.5 12.9853 19.5 10.5C19.5 8.01472 17.4853 6 15 6Z" fill="#2B2B2C"/>
</svg>
