<svg width="30" height="30" viewBox="0 0 30 30" fill="none" xmlns="http://www.w3.org/2000/svg">
<path fill-rule="evenodd" clip-rule="evenodd" d="M15 4C18.0884 4 20.8924 5.39968 22.9003 7.5H21C20.7239 7.5 20.5 7.72386 20.5 8C20.5 8.27614 20.7239 8.5 21 8.5H24.4236L24.9932 5.0822C25.0386 4.80981 24.8546 4.5522 24.5822 4.5068C24.3098 4.46141 24.0522 4.64542 24.0068 4.9178L23.6814 6.87044C21.5047 4.56422 18.4266 3 15 3C8.37258 3 3 8.37258 3 15C3 21.6274 8.37258 27 15 27C21.6274 27 27 21.6274 27 15C27 14.7239 26.7761 14.5 26.5 14.5C26.2239 14.5 26 14.7239 26 15C26 21.0751 21.0751 26 15 26C8.92487 26 4 21.0751 4 15C4 8.92487 8.92487 4 15 4Z" fill="#2B2B2C"/>
</svg>
