<svg width="30" height="30" viewBox="0 0 30 30" fill="none" xmlns="http://www.w3.org/2000/svg">
<path fill-rule="evenodd" clip-rule="evenodd" d="M12.1871 3.5176C12.7296 3.62094 13.0857 4.14452 12.9823 4.68705L12.0656 9.5H20.0296L21.0177 4.31283C21.121 3.7703 21.6446 3.41426 22.1871 3.5176C22.7296 3.62094 23.0857 4.14452 22.9823 4.68705L22.0656 9.5H25.5C26.0523 9.5 26.5 9.94772 26.5 10.5C26.5 11.0523 26.0523 11.5 25.5 11.5H21.6846L20.3513 18.5H24.5C25.0523 18.5 25.5 18.9477 25.5 19.5C25.5 20.0523 25.0523 20.5 24.5 20.5H19.9703L18.9823 25.6871C18.879 26.2296 18.3554 26.5856 17.8129 26.4823C17.2704 26.3789 16.9143 25.8554 17.0177 25.3128L17.9344 20.5H9.97035L8.98234 25.6871C8.879 26.2296 8.35542 26.5856 7.81289 26.4823C7.27036 26.3789 6.91432 25.8554 7.01766 25.3128L7.93439 20.5H4.5C3.94772 20.5 3.5 20.0523 3.5 19.5C3.5 18.9477 3.94772 18.5 4.5 18.5H8.31534L9.64868 11.5H5.5C4.94772 11.5 4.5 11.0523 4.5 10.5C4.5 9.94772 4.94772 9.5 5.5 9.5H10.0296L11.0177 4.31283C11.121 3.7703 11.6446 3.41426 12.1871 3.5176ZM11.6846 11.5L10.3513 18.5H18.3153L19.6487 11.5H11.6846Z" fill="#2B2B2C"/>
</svg>
