<svg width="30" height="30" viewBox="0 0 30 30" fill="none" xmlns="http://www.w3.org/2000/svg">
<path fill-rule="evenodd" clip-rule="evenodd" d="M12.0936 4.00892C12.3648 4.06059 12.5428 4.32238 12.4912 4.59365L11.4614 10H20.4434L21.5088 4.40654C21.5605 4.13527 21.8223 3.95725 22.0936 4.00892C22.3648 4.06059 22.5428 4.32238 22.4912 4.59365L21.4614 10H25.5C25.7761 10 26 10.2239 26 10.5C26 10.7761 25.7761 11 25.5 11H21.2709L19.7471 19H24.5C24.7761 19 25 19.2239 25 19.5C25 19.7761 24.7761 20 24.5 20H19.5566L18.4912 25.5936C18.4395 25.8649 18.1777 26.0429 17.9064 25.9913C17.6352 25.9396 17.4572 25.6778 17.5088 25.4065L18.5386 20H9.55663L8.49117 25.5936C8.4395 25.8649 8.17771 26.0429 7.90644 25.9913C7.63518 25.9396 7.45716 25.6778 7.50883 25.4065L8.53865 20H4.5C4.22386 20 4 19.7761 4 19.5C4 19.2239 4.22386 19 4.5 19H8.72912L10.2529 11H5.5C5.22386 11 5 10.7761 5 10.5C5 10.2239 5.22386 10 5.5 10H10.4434L11.5088 4.40654C11.5605 4.13527 11.8223 3.95725 12.0936 4.00892ZM11.2709 11L9.7471 19H18.7291L20.2529 11H11.2709Z" fill="#2B2B2C"/>
</svg>
