<svg width="18" height="18" viewBox="0 0 18 18" fill="none" xmlns="http://www.w3.org/2000/svg">
<path fill-rule="evenodd" clip-rule="evenodd" d="M7.59439 2.00909C7.86557 2.06124 8.04312 2.32334 7.99097 2.59452L7.33607 6H11.8177L12.509 2.40567C12.5611 2.1345 12.8232 1.95694 13.0944 2.00909C13.3656 2.06124 13.5431 2.32334 13.491 2.59452L12.8361 6H15.5C15.7761 6 16 6.22386 16 6.5C16 6.77614 15.7761 7 15.5 7H12.6438L11.8745 11H14.5C14.7761 11 15 11.2239 15 11.5C15 11.7761 14.7761 12 14.5 12H11.6822L10.991 15.5945C10.9388 15.8657 10.6767 16.0432 10.4055 15.9911C10.1344 15.9389 9.95682 15.6768 10.009 15.4057L10.6639 12H6.18223L5.49097 15.5945C5.43882 15.8657 5.17672 16.0432 4.90555 15.9911C4.63437 15.9389 4.45682 15.6768 4.50897 15.4057L5.1639 12H2.5C2.22386 12 2 11.7761 2 11.5C2 11.2239 2.22386 11 2.5 11H5.35621L6.12544 7H3.5C3.22386 7 3 6.77614 3 6.5C3 6.22386 3.22386 6 3.5 6H6.31775L7.00897 2.40567C7.06112 2.1345 7.32322 1.95694 7.59439 2.00909ZM7.14376 7L6.37453 11H10.8562L11.6254 7H7.14376Z" fill="#2B2B2C"/>
</svg>
