<svg width="30" height="30" viewBox="0 0 30 30" fill="none" xmlns="http://www.w3.org/2000/svg">
<path fill-rule="evenodd" clip-rule="evenodd" d="M13 4C8.02944 4 4 8.02944 4 13C4 17.9706 8.02944 22 13 22C17.9706 22 22 17.9706 22 13C22 8.02944 17.9706 4 13 4ZM3 13C3 7.47715 7.47715 3 13 3C18.5228 3 23 7.47715 23 13C23 15.3264 22.2056 17.4673 20.8732 19.1661L26.3536 24.6465C26.825 25.1179 26.825 25.8822 26.3536 26.3536C25.8821 26.825 25.1179 26.825 24.6464 26.3536L19.1661 20.8732C17.4673 22.2056 15.3264 23 13 23C7.47715 23 3 18.5228 3 13ZM19.9231 20.216C20.0227 20.1204 20.1204 20.0228 20.216 19.9231L25.6464 25.3536C25.7273 25.4345 25.7273 25.5656 25.6464 25.6465C25.5656 25.7274 25.4344 25.7274 25.3536 25.6465L19.9231 20.216ZM14 6C13.7239 6 13.5 6.22386 13.5 6.5C13.5 6.77614 13.7239 7 14 7C16.7239 7 19 9.27614 19 12C19 12.2761 19.2239 12.5 19.5 12.5C19.7761 12.5 20 12.2761 20 12C20 8.72386 17.2761 6 14 6Z" fill="#2B2B2C"/>
</svg>
