<svg width="18" height="18" viewBox="0 0 18 18" fill="none" xmlns="http://www.w3.org/2000/svg">
<path fill-rule="evenodd" clip-rule="evenodd" d="M2.67188 7.71875C2.67188 4.95733 4.91045 2.71875 7.67188 2.71875C10.4333 2.71875 12.6719 4.95733 12.6719 7.71875C12.6719 10.4802 10.4333 12.7188 7.67188 12.7188C4.91045 12.7188 2.67188 10.4802 2.67188 7.71875ZM7.67188 1.71875C4.35817 1.71875 1.67188 4.40504 1.67188 7.71875C1.67188 11.0325 4.35817 13.7188 7.67188 13.7188C8.90429 13.7188 10.0499 13.3472 11.0029 12.71L13.6465 15.3536C14.1179 15.825 14.8822 15.825 15.3536 15.3536C15.825 14.8822 15.825 14.1179 15.3536 13.6465L12.7004 10.9933C13.3148 10.0517 13.6719 8.92692 13.6719 7.71875C13.6719 4.40504 10.9856 1.71875 7.67188 1.71875ZM12.081 11.7881C11.9873 11.8896 11.8902 11.9878 11.7897 12.0826L14.3536 14.6465C14.4345 14.7274 14.5656 14.7274 14.6465 14.6465C14.7274 14.5656 14.7274 14.4345 14.6465 14.3536L12.081 11.7881ZM8.54836 4.12224C8.66685 3.87281 8.96511 3.76667 9.21454 3.88516C10.0463 4.2803 10.7197 4.95362 11.1148 5.78543C11.2333 6.03485 11.1272 6.33311 10.8777 6.4516C10.6283 6.57009 10.33 6.46395 10.2115 6.21452C9.91517 5.59063 9.40934 5.08479 8.78545 4.78842C8.53602 4.66993 8.42987 4.37167 8.54836 4.12224Z" fill="#2B2B2C"/>
</svg>
