<svg width="30" height="30" viewBox="0 0 30 30" fill="none" xmlns="http://www.w3.org/2000/svg">
<path fill-rule="evenodd" clip-rule="evenodd" d="M3 13C3 7.47715 7.47715 3 13 3C18.5228 3 23 7.47715 23 13C23 15.3264 22.2056 17.4673 20.8732 19.1662L26.3536 24.6465C26.825 25.1179 26.825 25.8822 26.3536 26.3536C25.8821 26.825 25.1178 26.825 24.6464 26.3536L19.1661 20.8733C17.4672 22.2056 15.3264 23 13 23C7.47715 23 3 18.5228 3 13ZM13 20C16.866 20 20 16.866 20 13C20 9.13401 16.866 6 13 6C9.13401 6 6 9.13401 6 13C6 16.866 9.13401 20 13 20ZM12.5041 7.49585C12.228 7.49585 12.0041 7.71971 12.0041 7.99585C12.0041 8.27199 12.228 8.49585 12.5041 8.49585C14.7696 8.49585 17.0613 10.3313 17.5138 12.5939C17.568 12.8647 17.8314 13.0403 18.1022 12.9861C18.3729 12.932 18.5486 12.6686 18.4944 12.3978C17.9469 9.66038 15.2387 7.49585 12.5041 7.49585Z" fill="#2B2B2C"/>
</svg>
