<svg width="24" height="24" viewBox="0 0 24 24" fill="none" xmlns="http://www.w3.org/2000/svg">
<path fill-rule="evenodd" clip-rule="evenodd" d="M14.5965 4.37985L13.8072 2.16077L13.3411 2.09898C12.8494 2.03379 12.4224 2 12 2C11.5718 2 11.1396 2.03442 10.6491 2.1008L10.1846 2.16366L9.39492 4.38138L9.33881 4.4002C9.14492 4.46759 8.95459 4.54197 8.76807 4.62327L8.44569 4.77215L6.32403 3.76405L5.95108 4.04787C5.23437 4.5933 4.59412 5.23438 4.04496 5.95548L3.76089 6.32848L4.77031 8.45062L4.74822 8.49509C4.66043 8.67735 4.57935 8.86377 4.5051 9.05391L4.37954 9.39831L2.16053 10.1883L2.09893 10.6547C2.03365 11.1489 2 11.5753 2 12C2 12.4237 2.03377 12.852 2.09893 13.3453L2.16053 13.8117L4.38108 14.6014L4.39888 14.6581C4.49994 14.9488 4.61654 15.2315 4.74822 15.5049L4.77031 15.5475L3.76064 17.6721L4.04548 18.0452C4.59513 18.7653 5.23536 19.4059 5.95108 19.9506L6.32377 20.2342L8.44415 19.226L8.49116 19.2496C8.67382 19.3378 8.86041 19.4191 9.05068 19.4935L9.39492 19.6168L10.1846 21.8363L10.6491 21.8992C11.1396 21.9656 11.5718 22 12 22C12.4259 22 12.8574 21.9654 13.3439 21.8991L13.8077 21.8359L14.5965 19.6183L14.6553 19.6012C14.9477 19.4999 15.2316 19.383 15.5059 19.2508L15.5503 19.2275L17.6734 20.2377L18.0465 19.9531C18.7652 19.405 19.4059 18.7647 19.9506 18.0489L20.2345 17.6758L19.2242 15.5552L19.2481 15.5106C19.3808 15.236 19.4979 14.9518 19.5994 14.6591L19.6165 14.5998L21.8361 13.8109L21.8992 13.3466C21.9656 12.8578 22 12.4269 22 12C22 11.5731 21.9656 11.1422 21.8992 10.6534L21.8361 10.1891L19.6165 9.39985L19.5994 9.3409C19.5318 9.14578 19.4571 8.95444 19.3756 8.76717L19.2242 8.44446L20.2345 6.32415L19.9506 5.95108C19.4059 5.23532 18.7652 4.59502 18.0465 4.04685L17.6734 3.76225L15.5488 4.77215L15.5059 4.74919C15.2316 4.61698 14.9477 4.50009 14.6553 4.39882L14.5965 4.37985ZM14.338 5.34718L13.8198 5.18021L13.0701 3.07249C12.6705 3.02351 12.3295 3 12 3C11.6655 3 11.3203 3.02399 10.9221 3.07369L10.1739 5.17495L9.66209 5.34652C9.49711 5.404 9.33543 5.46713 9.1772 5.53581L8.43967 5.87643L6.44608 4.92918C5.88254 5.37213 5.37285 5.88234 4.92629 6.45049L5.88216 8.46004L5.64663 8.9343C5.57259 9.08835 5.50386 9.24617 5.4406 9.40744L5.15796 10.1827L3.07257 10.9251C3.02345 11.3269 3 11.668 3 12C3 12.3309 3.02353 12.6734 3.07255 13.0747L5.18601 13.8263L5.3483 14.3437C5.43435 14.5896 5.53278 14.8281 5.64305 15.0583L5.88662 15.5283L4.92622 17.5492C5.37326 18.1167 5.88297 18.6266 6.44568 19.069L8.45605 18.1131L8.93271 18.3523C9.08571 18.426 9.24212 18.4943 9.40182 18.557L10.1782 18.8351L10.9223 20.9263C11.3204 20.976 11.6656 21 12 21C12.3318 21 12.6755 20.976 13.0698 20.9265L13.8258 18.801L14.3511 18.6482C14.5943 18.5631 14.8299 18.4659 15.057 18.3571L15.5286 18.1098L17.551 19.0721C18.117 18.6264 18.6267 18.117 19.0689 17.5544L18.1034 15.5277L18.3568 15.0567C18.4649 14.8311 18.5614 14.5973 18.6461 14.3559L18.7977 13.8296L20.9264 13.0729C20.9761 12.6766 21 12.3329 21 12C21 11.6671 20.976 11.3234 20.9264 10.927L18.7985 10.1703L18.6463 9.64478C18.5907 9.4861 18.5299 9.33073 18.4642 9.17882L18.118 8.44123L19.0689 6.4456C18.6266 5.88293 18.1169 5.37343 17.5508 4.92777L15.5216 5.89226L15.0531 5.64104C14.8231 5.53106 14.5844 5.43297 14.338 5.34718Z" fill="#2B2B2C"/>
<path fill-rule="evenodd" clip-rule="evenodd" d="M12 15C13.6569 15 15 13.6569 15 12C15 10.3431 13.6569 9 12 9C10.3431 9 9 10.3431 9 12C9 13.6569 10.3431 15 12 15ZM12 16C14.2091 16 16 14.2091 16 12C16 9.79086 14.2091 8 12 8C9.79086 8 8 9.79086 8 12C8 14.2091 9.79086 16 12 16Z" fill="#2B2B2C"/>
</svg>
