<svg width="30" height="30" viewBox="0 0 30 30" fill="none" xmlns="http://www.w3.org/2000/svg">
<path fill-rule="evenodd" clip-rule="evenodd" d="M17.3494 2.20901L18.3754 5.0938L18.452 5.11847C18.832 5.25012 19.2011 5.40208 19.5577 5.57395L19.6134 5.6038L22.3755 4.29093L22.8605 4.66091C23.7947 5.37353 24.6277 6.20592 25.3358 7.1364L25.7049 7.6214L24.3914 10.3778L24.5883 10.7973C24.6943 11.0408 24.7913 11.2895 24.8792 11.5432L24.9014 11.6198L27.7869 12.6459L27.8689 13.2494C27.9552 13.8849 28 14.445 28 15C28 15.555 27.9552 16.1151 27.8689 16.7506L27.7869 17.3541L24.9014 18.3798L24.8792 18.4568C24.7473 18.8373 24.595 19.2068 24.4226 19.5638L24.3914 19.6218L25.7049 22.3786L25.3358 22.8636C24.6277 23.7941 23.7947 24.6265 22.8605 25.3391L22.3755 25.7091L19.6154 24.3958L19.5577 24.4261C19.2011 24.5979 18.832 24.7499 18.452 24.8815L18.3754 24.9038L17.3501 27.7866L16.7471 27.8688C16.1146 27.9551 15.5537 28 15 28C14.4434 28 13.8814 27.9553 13.2439 27.869L12.64 27.7872L11.6134 24.9018L11.1659 24.7415C10.9185 24.6449 10.676 24.5391 10.4385 24.4245L10.3774 24.3938L7.6209 25.7045L7.1364 25.3358C6.20597 24.6277 5.37367 23.7948 4.65912 22.8588L4.28883 22.3737L5.6014 19.6118L5.57269 19.5564C5.4015 19.201 5.24992 18.8334 5.11854 18.4556L5.0954 18.3818L2.20869 17.3553L2.12861 16.7489C2.0439 16.1076 2 15.5508 2 15C2 14.4479 2.04374 13.8936 2.12861 13.2511L2.20869 12.6447L5.0934 11.6178L5.25663 11.1701C5.35315 10.9229 5.45856 10.6805 5.57269 10.4436L5.6014 10.3858L4.28916 7.62702L4.65844 7.14212C5.37236 6.2047 6.20468 5.37129 7.1364 4.66223L7.62124 4.29326L10.3794 5.6038L10.7985 5.41025C11.041 5.30456 11.2884 5.20787 11.5405 5.12025L11.6134 5.0958L12.64 2.21276L13.2439 2.13103C13.8814 2.04475 14.4434 2 15 2C15.5492 2 16.1042 2.04393 16.7434 2.12867L17.3494 2.20901ZM17.5987 5.89417L18.1346 6.06685C18.4687 6.18299 18.7924 6.31613 19.1047 6.46571L19.5863 6.72391L22.254 5.456C23.1175 6.11466 23.8865 6.88337 24.5398 7.74173L23.2852 10.3746L23.6769 11.2091C23.7671 11.4171 23.8502 11.6297 23.9261 11.8468L24.0834 12.3903L26.878 13.384C26.9599 13.9867 27 14.5007 27 15C27 15.4993 26.9599 16.0132 26.878 16.6159L24.0826 17.6095L23.9258 18.1538C23.8107 18.4829 23.6791 18.8019 23.5314 19.1097L23.2706 19.5943L24.5398 22.2582C23.8866 23.1166 23.1176 23.8853 22.2541 24.5439L19.5937 23.278L19.1087 23.5324C18.7993 23.6808 18.4787 23.813 18.1478 23.9285L17.6047 24.0865L16.6119 26.878C16.0124 26.9598 15.4979 27 15 27C14.4988 27 13.9829 26.9599 13.3779 26.878L12.3967 24.1201L11.5169 23.805C11.3002 23.72 11.0878 23.6273 10.88 23.5272L10.3893 23.2809L7.74169 24.5398C6.88348 23.8866 6.11466 23.1175 5.4539 22.2519L6.71771 19.5926L6.46746 19.1096C6.31774 18.7975 6.18436 18.4742 6.068 18.1413L5.90034 17.6067L3.12 16.618C3.03934 16.0073 3 15.4958 3 15C3 14.5029 3.03921 13.9937 3.12003 13.3818L5.87182 12.4022L6.19215 11.5235C6.27768 11.3053 6.37072 11.0915 6.47108 10.8829L6.71325 10.3952L5.45404 7.74795C6.11397 6.88142 6.88271 6.11193 7.74218 5.45787L10.3734 6.70808L11.2077 6.32276C11.4218 6.22971 11.6406 6.14428 11.8637 6.06659L12.3923 5.88937L13.378 3.122C13.983 3.04012 14.4988 3 15 3C15.4939 3 16.0035 3.03933 16.612 3.12L17.5987 5.89417ZM19 15C19 17.2091 17.2091 19 15 19C12.7909 19 11 17.2091 11 15C11 12.7909 12.7909 11 15 11C17.2091 11 19 12.7909 19 15ZM20 15C20 17.7614 17.7614 20 15 20C12.2386 20 10 17.7614 10 15C10 12.2386 12.2386 10 15 10C17.7614 10 20 12.2386 20 15Z" fill="#2B2B2C"/>
</svg>
