<svg width="30" height="30" viewBox="0 0 30 30" fill="none" xmlns="http://www.w3.org/2000/svg">
<path fill-rule="evenodd" clip-rule="evenodd" d="M21 3C20.7239 3 20.5 3.22386 20.5 3.5L20.5 4.79289L19.7929 5.5H18.5C18.2239 5.5 18 5.72386 18 6V9C18 9.27614 18.2239 9.5 18.5 9.5H19.7929L20.5 10.2071V11.5C20.5 11.7761 20.7239 12 21 12H24C24.2761 12 24.5 11.7761 24.5 11.5L24.5 10.2071L25.2071 9.5H26.5C26.7761 9.5 27 9.27614 27 9V6C27 5.72386 26.7761 5.5 26.5 5.5H25.2071L24.5 4.79289V3.5C24.5 3.22386 24.2761 3 24 3H21ZM21.5 5L21.5 4H23.5V5C23.5 5.13261 23.5527 5.25979 23.6464 5.35355L24.6464 6.35355C24.7402 6.44732 24.8674 6.5 25 6.5H26V8.5H25C24.8674 8.5 24.7402 8.55268 24.6464 8.64645L23.6464 9.64645C23.5527 9.74021 23.5 9.86739 23.5 10L23.5 11H21.5V10C21.5 9.86739 21.4473 9.74021 21.3536 9.64645L20.3536 8.64645C20.2598 8.55268 20.1326 8.5 20 8.5H19V6.5H20C20.1326 6.5 20.2598 6.44732 20.3536 6.35355L21.3536 5.35355C21.4473 5.25979 21.5 5.13261 21.5 5ZM14.3368 11.1419L13.6265 9.1447L13.207 9.08908C12.7644 9.03041 12.3802 9 12 9C11.6147 9 11.2256 9.03098 10.7842 9.09072L10.3662 9.1473L9.65543 11.1432L9.60493 11.1602C9.43043 11.2208 9.25914 11.2878 9.09126 11.3609L8.80112 11.4949L6.89163 10.5876L6.55597 10.8431C5.91093 11.334 5.33471 11.9109 4.84046 12.5599L4.5848 12.8956L5.49328 14.8056L5.4734 14.8456C5.39439 15.0096 5.32141 15.1774 5.25459 15.3485L5.14158 15.6585L3.14448 16.3694L3.08904 16.7892C3.03028 17.234 3 17.6178 3 18C3 18.3813 3.03039 18.7668 3.08904 19.2108L3.14448 19.6306L5.14297 20.3412L5.15899 20.3923C5.24995 20.6539 5.35489 20.9084 5.4734 21.1544L5.49328 21.1928L4.58457 23.1049L4.84093 23.4407C5.33562 24.0887 5.91182 24.6653 6.55597 25.1555L6.89139 25.4108L8.79974 24.5034L8.84204 24.5246C9.00644 24.604 9.17437 24.6772 9.34561 24.7441L9.65543 24.8551L10.3662 26.8527L10.7842 26.9093C11.2256 26.969 11.6147 27 12 27C12.3833 27 12.7716 26.9689 13.2095 26.9092L13.627 26.8523L14.3368 24.8565L14.3898 24.8411C14.6529 24.7499 14.9085 24.6447 15.1553 24.5257L15.1953 24.5048L17.1061 25.414L17.4419 25.1578C18.0887 24.6645 18.6653 24.0882 19.1555 23.444L19.4111 23.1083L18.5017 21.1997L18.5233 21.1596C18.6427 20.9124 18.7481 20.6566 18.8395 20.3932L18.8548 20.3399L20.8525 19.6298L20.9092 19.212C20.969 18.772 21 18.3842 21 18C21 17.6158 20.969 17.228 20.9092 16.788L20.8525 16.3702L18.8548 15.6599L18.8395 15.6068C18.7786 15.4312 18.7114 15.259 18.6381 15.0905L18.5017 14.8L19.4111 12.8917L19.1555 12.556C18.6653 11.9118 18.0887 11.3355 17.4419 10.8422L17.1061 10.586L15.1939 11.4949L15.1553 11.4743C14.9085 11.3553 14.6529 11.2501 14.3898 11.1589L14.3368 11.1419ZM14.0724 12.1073L13.5601 11.9422L12.8896 10.0571C12.5594 10.0185 12.2747 10 12 10C11.7211 10 11.4328 10.0188 11.1033 10.0581L10.4344 11.9368L9.92824 12.1065C9.78263 12.1572 9.63996 12.2129 9.50036 12.2735L8.7951 12.5992L7.01478 11.7533C6.5491 12.1252 6.1255 12.5493 5.75071 13.0187L6.60512 14.815L6.37182 15.2848C6.30655 15.4206 6.24592 15.5598 6.19007 15.7021L5.92 16.4428L4.05725 17.106C4.01842 17.4381 4 17.7231 4 18C4 18.276 4.01848 18.562 4.05723 18.8938L5.94791 19.5661L6.10839 20.0779C6.18435 20.2947 6.27113 20.505 6.36826 20.7078L6.60959 21.1736L5.75067 22.9809C6.12582 23.4499 6.54942 23.8736 7.01441 24.245L8.81163 23.3905L9.28357 23.6274C9.41832 23.6922 9.55609 23.7524 9.69678 23.8077L10.4387 24.0734L11.1035 25.9419C11.4329 25.9812 11.7211 26 12 26C12.2765 26 12.5632 25.9812 12.8893 25.9421L13.5661 24.0392L14.0854 23.8882C14.2995 23.8131 14.5067 23.7276 14.7065 23.6319L15.1735 23.387L16.9826 24.2478C17.4502 23.8738 17.8737 23.4505 18.245 22.9857L17.3809 21.1722L17.632 20.7057C17.7268 20.5075 17.8116 20.3021 17.8862 20.0899L18.036 19.5696L19.942 18.8921C19.9812 18.5643 20 18.2775 20 18C20 17.7224 19.9812 17.4356 19.942 17.1078L18.0368 16.4303L17.8864 15.9108C17.8375 15.7716 17.7842 15.6353 17.7266 15.5021L17.3955 14.7968L18.2449 13.0143C17.8736 12.5494 17.4501 12.1261 16.9824 11.7521L15.1668 12.615L14.7026 12.3662C14.4999 12.2694 14.2896 12.183 14.0724 12.1073ZM12 20.5C13.3807 20.5 14.5 19.3807 14.5 18C14.5 16.6193 13.3807 15.5 12 15.5C10.6193 15.5 9.50002 16.6193 9.50002 18C9.50002 19.3807 10.6193 20.5 12 20.5ZM12 21.5C13.933 21.5 15.5 19.933 15.5 18C15.5 16.067 13.933 14.5 12 14.5C10.067 14.5 8.50002 16.067 8.50002 18C8.50002 19.933 10.067 21.5 12 21.5Z" fill="#2B2B2C"/>
</svg>
