<svg width="24" height="24" viewBox="0 0 24 24" fill="none" xmlns="http://www.w3.org/2000/svg">
<path fill-rule="evenodd" clip-rule="evenodd" d="M13.8072 2.16077L14.3337 3.6411L14.5965 4.37985L14.6553 4.39882L14.6917 4.41152C14.9541 4.50379 15.2096 4.60869 15.4574 4.72601L15.5059 4.74919L15.5488 4.77215L16.264 4.43217L17.6734 3.76225L18.0465 4.04685C18.7652 4.59502 19.4059 5.23532 19.9506 5.95108L20.2345 6.32415L19.562 7.73548L19.2242 8.44446L19.269 8.53995L19.3756 8.76717C19.452 8.94262 19.5223 9.12165 19.5865 9.304L19.5994 9.3409L19.6165 9.39985L20.3624 9.66511L21.8361 10.1891L21.8992 10.6534C21.9656 11.1422 22 11.5731 22 12C22 12.4269 21.9656 12.8578 21.8992 13.3466L21.8361 13.8109L20.3619 14.3349L19.6165 14.5998L19.5994 14.6591L19.5865 14.6959C19.4942 14.9581 19.3893 15.2134 19.2718 15.4611L19.2481 15.5106L19.2242 15.5552L19.563 16.2665L20.2345 17.6758L19.9506 18.0489C19.4059 18.7647 18.7652 19.405 18.0465 19.9531L17.6734 20.2377L16.2645 19.5673L15.5503 19.2275L15.5059 19.2508L15.4574 19.274C15.2097 19.3913 14.9542 19.4962 14.6919 19.5884L14.6553 19.6012L14.5965 19.6183L14.3325 20.3606L13.8077 21.8359L13.3439 21.8991C12.8574 21.9654 12.4259 22 12 22C11.5718 22 11.1396 21.9656 10.6491 21.8992L10.1846 21.8363L9.65952 20.3604L9.39492 19.6168L9.302 19.5835L9.05068 19.4935C8.87613 19.4253 8.70468 19.3512 8.53652 19.2713L8.49116 19.2496L8.44415 19.226L7.73745 19.562L6.32377 20.2342L5.95108 19.9506C5.23536 19.4059 4.59513 18.7653 4.04548 18.0452L3.76064 17.6721L4.43289 16.2575L4.77031 15.5475L4.74822 15.5049L4.72566 15.4577C4.60858 15.2104 4.50376 14.9556 4.41155 14.6943L4.39888 14.6581L4.38108 14.6014L3.63744 14.3369L2.16053 13.8117L2.09893 13.3453C2.03377 12.852 2 12.4237 2 12C2 11.5753 2.03365 11.1489 2.09893 10.6547L2.16053 10.1883L3.63584 9.66306L4.37954 9.39831L4.41317 9.30606L4.5051 9.05391C4.57317 8.87959 4.64699 8.7084 4.72645 8.54067L4.74822 8.49509L4.77031 8.45062L4.43357 7.74269L3.76089 6.32848L4.04496 5.95548C4.59412 5.23438 5.23437 4.5933 5.95108 4.04787L6.32403 3.76405L7.73887 4.43631L8.44569 4.77215L8.5373 4.72985L8.76807 4.62327C8.94262 4.54719 9.1205 4.47717 9.30151 4.41326L9.33881 4.4002L9.39492 4.38138L9.66047 3.63564L10.1846 2.16366L10.6491 2.1008C11.1396 2.03442 11.5718 2 12 2C12.4224 2 12.8494 2.03379 13.3411 2.09898L13.8072 2.16077ZM12 16C14.2091 16 16 14.2091 16 12C16 9.79086 14.2091 8 12 8C9.79086 8 8 9.79086 8 12C8 14.2091 9.79086 16 12 16Z" fill="#2B2B2C"/>
</svg>
