<svg width="18" height="18" viewBox="0 0 18 18" fill="none" xmlns="http://www.w3.org/2000/svg">
<path fill-rule="evenodd" clip-rule="evenodd" d="M12.5 2C12.2239 2 12 2.22386 12 2.5V3.29289L11.7929 3.5H11C10.7239 3.5 10.5 3.72386 10.5 4V5.5C10.5 5.77614 10.7239 6 11 6H11.7929L12 6.20711V7C12 7.27614 12.2239 7.5 12.5 7.5H14C14.2761 7.5 14.5 7.27614 14.5 7V6.20711L14.7071 6H15.5C15.6326 6 15.7598 5.94732 15.8536 5.85355C15.9473 5.75979 16 5.63261 16 5.5L16 4C16 3.72386 15.7761 3.5 15.5 3.5H14.7071L14.5 3.29289L14.5 2.5C14.5 2.36739 14.4473 2.24021 14.3536 2.14645C14.2598 2.05268 14.1326 2 14 2H12.5ZM13 3.5V3H13.5V3.5C13.5 3.63261 13.5527 3.75979 13.6464 3.85355L14.1464 4.35355C14.2402 4.44732 14.3674 4.5 14.5 4.5H15V5H14.5C14.3674 5 14.2402 5.05268 14.1464 5.14645L13.6464 5.64645C13.5527 5.74022 13.5 5.86739 13.5 6V6.5H13V6C13 5.86739 12.9473 5.74022 12.8536 5.64645L12.3536 5.14645C12.2598 5.05268 12.1326 5 12 5H11.5V4.5H12C12.1326 4.5 12.2598 4.44732 12.3536 4.35355L12.8536 3.85355C12.9473 3.75979 13 3.63261 13 3.5ZM8.29823 7.18992L7.9036 6.08039L7.67055 6.04949C7.42469 6.0169 7.21122 6 7 6C6.78592 6 6.56979 6.01721 6.32457 6.0504L6.09231 6.08183L5.69746 7.19069L5.66941 7.2001C5.57246 7.2338 5.4773 7.27098 5.38403 7.31163L5.22285 7.38608L4.16201 6.88202L3.97554 7.02393C3.61718 7.29665 3.29706 7.61719 3.02248 7.97774L2.88044 8.16424L3.38515 9.22531L3.37411 9.24754C3.33022 9.33867 3.28967 9.43189 3.25255 9.52696L3.18977 9.69915L2.08026 10.0941L2.04947 10.3273C2.01682 10.5745 2 10.7876 2 11C2 11.2118 2.01689 11.426 2.04947 11.6727L2.08026 11.9059L3.19054 12.3007L3.19944 12.3291C3.24997 12.4744 3.30827 12.6158 3.37411 12.7525L3.38515 12.7738L2.88032 13.836L3.02274 14.0226C3.29757 14.3826 3.61768 14.703 3.97554 14.9753L4.16189 15.1171L5.22208 14.613L5.24558 14.6248C5.33691 14.6689 5.43021 14.7096 5.52534 14.7467L5.69746 14.8084L6.09231 15.9182L6.32457 15.9496C6.56979 15.9828 6.78592 16 7 16C7.21294 16 7.42869 15.9827 7.67197 15.9495L7.90387 15.9179L8.29823 14.8092L8.32767 14.8006C8.47383 14.75 8.61581 14.6915 8.75297 14.6254L8.77515 14.6138L9.83671 15.1189L10.0233 14.9766C10.3826 14.7025 10.7029 14.3823 10.9753 14.0245L11.1173 13.8379L10.6121 12.7776L10.6241 12.7553C10.6904 12.618 10.749 12.4759 10.7997 12.3295L10.8082 12.2999L11.918 11.9054L11.9496 11.6733C11.9828 11.4289 12 11.2134 12 11C12 10.7866 11.9828 10.5711 11.9496 10.3267L11.918 10.0946L10.8082 9.69992L10.7997 9.67045C10.7659 9.57289 10.7286 9.47722 10.6878 9.38358L10.6121 9.22223L11.1173 8.16208L10.9753 7.97554C10.7029 7.61766 10.3826 7.29751 10.0233 7.02343L9.83671 6.88113L8.77438 7.38608L8.75297 7.3746C8.61581 7.30849 8.47383 7.25005 8.32767 7.19941L8.29823 7.18992ZM8.00989 8.14764L7.52153 7.99029L7.17101 7.00476C7.11149 7.00153 7.055 7 7 7C6.94361 7 6.88578 7.00159 6.82512 7.00493L6.47639 7.98426L5.99287 8.14636C5.92466 8.17019 5.85796 8.19621 5.79278 8.22435L5.21682 8.49036L4.30011 8.05478C4.21446 8.13339 4.13213 8.21585 4.05332 8.30196L4.497 9.23474L4.27263 9.68653C4.24236 9.74968 4.21409 9.8145 4.1879 9.88089L3.96819 10.4835L3.00483 10.8265C3.00155 10.8868 3 10.9441 3 11C3 11.0557 3.00156 11.113 3.00484 11.1733L3.99547 11.5256L4.14869 12.0141C4.18427 12.1149 4.22454 12.2125 4.26921 12.3063L4.50147 12.7546L4.05333 13.6975C4.1321 13.7835 4.21434 13.8658 4.29984 13.9442L5.23397 13.5001L5.68684 13.7274C5.74877 13.7571 5.81216 13.7848 5.87697 13.8105L6.48076 14.0267L6.82529 14.9951C6.88589 14.9984 6.94366 15 7 15C7.055 15 7.11149 14.9985 7.17068 14.9952L7.52755 13.9919L8.02247 13.8479C8.11996 13.8133 8.2141 13.7744 8.30466 13.7313L8.75341 13.496L9.69855 13.9457C9.784 13.8674 9.8659 13.7855 9.94403 13.7004L9.49127 12.7501L9.73233 12.3022C9.77449 12.2133 9.81266 12.121 9.84666 12.0254L9.98946 11.5297L10.9952 11.1722C10.9984 11.1125 11 11.0555 11 11C11 10.9444 10.9984 10.8875 10.9952 10.8277L9.99026 10.4704L9.84687 9.97524C9.825 9.9137 9.8014 9.85353 9.77613 9.79475L9.50589 9.219L9.944 8.29959C9.86582 8.21441 9.78386 8.13251 9.69835 8.05411L8.74726 8.50619L8.30085 8.26685C8.20757 8.22269 8.1105 8.18287 8.00989 8.14764ZM7 12C7.55228 12 8 11.5523 8 11C8 10.4477 7.55228 10 7 10C6.44772 10 6 10.4477 6 11C6 11.5523 6.44772 12 7 12ZM7 13C8.10457 13 9 12.1046 9 11C9 9.89543 8.10457 9 7 9C5.89543 9 5 9.89543 5 11C5 12.1046 5.89543 13 7 13Z" fill="#2B2B2C"/>
</svg>
