<svg width="30" height="30" viewBox="0 0 30 30" fill="none" xmlns="http://www.w3.org/2000/svg">
<path fill-rule="evenodd" clip-rule="evenodd" d="M21 3C20.7239 3 20.5 3.22386 20.5 3.5L20.5 4.79289L19.7929 5.5H18.5C18.2239 5.5 18 5.72386 18 6V9C18 9.27614 18.2239 9.5 18.5 9.5H19.7929L20.5 10.2071V11.5C20.5 11.7761 20.7239 12 21 12H24C24.2761 12 24.5 11.7761 24.5 11.5L24.5 10.2071L25.2071 9.5H26.5C26.7761 9.5 27 9.27614 27 9V6C27 5.72386 26.7761 5.5 26.5 5.5H25.2071L24.5 4.79289V3.5C24.5 3.22386 24.2761 3 24 3H21ZM21.5 5L21.5 4H23.5V5C23.5 5.13261 23.5527 5.25979 23.6464 5.35355L24.6464 6.35355C24.7402 6.44732 24.8674 6.5 25 6.5H26V8.5H25C24.8674 8.5 24.7402 8.55268 24.6464 8.64645L23.6464 9.64645C23.5527 9.74021 23.5 9.86739 23.5 10L23.5 11H21.5V10C21.5 9.86739 21.4473 9.74021 21.3536 9.64645L20.3536 8.64645C20.2598 8.55268 20.1326 8.5 20 8.5H19V6.5H20C20.1326 6.5 20.2598 6.44732 20.3536 6.35355L21.3536 5.35355C21.4473 5.25979 21.5 5.13261 21.5 5ZM10.7842 9.09072C11.2256 9.03098 11.6147 9 12 9C12.3802 9 12.7644 9.03041 13.207 9.08908L13.6265 9.1447L14.3368 11.1419L14.3898 11.1589C14.6529 11.2501 14.9085 11.3553 15.1553 11.4743L15.1939 11.4949L17.1061 10.586L17.4419 10.8422C18.0887 11.3355 18.6653 11.9118 19.1555 12.556L19.4111 12.8917L18.5017 14.8L18.6381 15.0905C18.7114 15.259 18.7786 15.4312 18.8395 15.6068L18.8548 15.6599L20.8525 16.3702L20.9092 16.788C20.969 17.228 21 17.6158 21 18C21 18.3842 20.969 18.772 20.9092 19.212L20.8525 19.6298L18.8548 20.3399L18.8395 20.3932C18.7481 20.6566 18.6427 20.9124 18.5233 21.1596L18.5017 21.1997L19.4111 23.1083L19.1555 23.444C18.6653 24.0882 18.0887 24.6645 17.4419 25.1578L17.1061 25.414L15.1953 24.5048L15.1553 24.5257C14.9085 24.6447 14.6529 24.7499 14.3898 24.8411L14.3368 24.8565L13.627 26.8523L13.2095 26.9092C12.7716 26.9689 12.3833 27 12 27C11.6147 27 11.2256 26.969 10.7842 26.9093L10.3662 26.8527L9.65543 24.8551L9.34561 24.7441C9.17437 24.6772 9.00644 24.604 8.84204 24.5246L8.79974 24.5034L6.89139 25.4108L6.55597 25.1555C5.91182 24.6653 5.33562 24.0887 4.84093 23.4407L4.58457 23.1049L5.49328 21.1928L5.4734 21.1544C5.35489 20.9084 5.24995 20.6539 5.15899 20.3923L5.14297 20.3412L3.14448 19.6306L3.08904 19.2108C3.03039 18.7668 3 18.3813 3 18C3 17.6178 3.03028 17.234 3.08904 16.7892L3.14448 16.3694L5.14158 15.6585L5.25459 15.3485C5.32141 15.1774 5.39439 15.0096 5.4734 14.8456L5.49328 14.8056L4.5848 12.8956L4.84046 12.5599C5.33471 11.9109 5.91093 11.334 6.55597 10.8431L6.89163 10.5876L8.80112 11.4949L9.09126 11.3609C9.25914 11.2878 9.43043 11.2208 9.60493 11.1602L9.65543 11.1432L10.3662 9.1473L10.7842 9.09072ZM12 21.5C13.933 21.5 15.5 19.933 15.5 18C15.5 16.067 13.933 14.5 12 14.5C10.067 14.5 8.5 16.067 8.5 18C8.5 19.933 10.067 21.5 12 21.5Z" fill="#2B2B2C"/>
</svg>
