<svg width="24" height="24" viewBox="0 0 24 24" fill="none" xmlns="http://www.w3.org/2000/svg">
<path fill-rule="evenodd" clip-rule="evenodd" d="M20 12C20 16.4183 16.4183 20 12 20C7.58172 20 4 16.4183 4 12C4 7.58172 7.58172 4 12 4C16.4183 4 20 7.58172 20 12ZM21 12C21 16.9706 16.9706 21 12 21C7.02944 21 3 16.9706 3 12C3 7.02944 7.02944 3 12 3C16.9706 3 21 7.02944 21 12ZM12.5 5.5C12.5 5.22386 12.2761 5 12 5C11.7239 5 11.5 5.22386 11.5 5.5V12C11.5 12.1326 11.5527 12.2598 11.6464 12.3536L14.6464 15.3536C14.8417 15.5488 15.1583 15.5488 15.3536 15.3536C15.5488 15.1583 15.5488 14.8417 15.3536 14.6464L12.5 11.7929V5.5Z" fill="#2B2B2C"/>
</svg>
