<svg width="24" height="24" viewBox="0 0 24 24" fill="none" xmlns="http://www.w3.org/2000/svg">
<path fill-rule="evenodd" clip-rule="evenodd" d="M21 12C21 16.9706 16.9706 21 12 21C7.02944 21 3 16.9706 3 12C3 7.02944 7.02944 3 12 3C16.9706 3 21 7.02944 21 12ZM12 5C12.2761 5 12.5 5.22386 12.5 5.5V11.7929L15.3536 14.6464C15.5488 14.8417 15.5488 15.1583 15.3536 15.3536C15.1583 15.5488 14.8417 15.5488 14.6464 15.3536L11.6464 12.3536C11.5585 12.2656 11.5067 12.1484 11.5006 12.0248C11.5002 12.0166 11.5 12.0083 11.5 12V5.5C11.5 5.22386 11.7239 5 12 5Z" fill="#2B2B2C"/>
</svg>
