<svg width="18" height="18" viewBox="0 0 18 18" fill="none" xmlns="http://www.w3.org/2000/svg">
<path fill-rule="evenodd" clip-rule="evenodd" d="M4.56755 7.15723C4.92493 4.98391 6.66725 3.5 9 3.5C10.7759 3.5 12.2542 4.34501 13.0672 5.75036C13.2055 5.98939 13.5113 6.07107 13.7504 5.9328C13.9894 5.79453 14.0711 5.48867 13.9328 5.24964C12.9303 3.51653 11.1106 2.5 9 2.5C6.20705 2.5 4.07257 4.29791 3.59869 6.8916L2.85355 6.14646C2.65829 5.9512 2.34171 5.9512 2.14645 6.14646C1.95118 6.34173 1.95118 6.65831 2.14645 6.85357L3.90127 8.6084L6.22361 7.44723C6.4706 7.32374 6.57071 7.0234 6.44721 6.77641C6.32372 6.52942 6.02338 6.42931 5.77639 6.5528L4.56755 7.15723ZM15.1464 11.8535C15.3417 12.0488 15.6583 12.0488 15.8536 11.8535C16.0488 11.6583 16.0488 11.3417 15.8536 11.1464L14.0987 9.3916L11.7764 10.5528C11.5294 10.6763 11.4293 10.9766 11.5528 11.2236C11.6763 11.4706 11.9766 11.5707 12.2236 11.4472L13.4324 10.8428C13.075 13.0161 11.3327 14.5 8.99994 14.5C7.22407 14.5 5.74572 13.655 4.93276 12.2496C4.79449 12.0106 4.48863 11.9289 4.2496 12.0672C4.01057 12.2055 3.92889 12.5113 4.06716 12.7504C5.06971 14.4835 6.88932 15.5 8.99994 15.5C11.7929 15.5 13.9274 13.7021 14.4013 11.1084L15.1464 11.8535Z" fill="#2B2B2C"/>
</svg>
