<svg width="30" height="30" viewBox="0 0 30 30" fill="none" xmlns="http://www.w3.org/2000/svg">
<path fill-rule="evenodd" clip-rule="evenodd" d="M6.5602 13.0258C7.07157 8.89575 10.772 5.5 15 5.5C18.0349 5.5 20.6302 7.26618 22.0672 9.75036C22.2055 9.98939 22.5113 10.0711 22.7504 9.9328C22.9894 9.79453 23.0711 9.48867 22.9328 9.24964C21.344 6.50305 18.4426 4.5 15 4.5C10.2741 4.5 6.16201 8.25804 5.57241 12.8655L3.85356 11.1466C3.6583 10.9513 3.34171 10.9513 3.14645 11.1466C2.95119 11.3419 2.95119 11.6584 3.14645 11.8537L5.93629 14.6436L9.27735 12.4162C9.50712 12.263 9.56921 11.9526 9.41603 11.7228C9.26285 11.493 8.95242 11.431 8.72265 11.5841L6.5602 13.0258ZM26.1464 18.8534C26.3417 19.0487 26.6583 19.0487 26.8536 18.8534C27.0488 18.6581 27.0488 18.3416 26.8536 18.1463L24.0637 15.3564L20.7227 17.5838C20.4929 17.737 20.4308 18.0474 20.584 18.2772C20.7372 18.507 21.0476 18.569 21.2773 18.4159L23.4398 16.9742C22.9284 21.1043 19.228 24.5 15 24.5C11.9651 24.5 9.36981 22.7338 7.93279 20.2496C7.79452 20.0106 7.48865 19.9289 7.24962 20.0672C7.01059 20.2055 6.92891 20.5113 7.06718 20.7504C8.65599 23.4969 11.5574 25.5 15 25.5C19.7259 25.5 23.838 21.742 24.4276 17.1345L26.1464 18.8534Z" fill="#2B2B2C"/>
</svg>
