<svg width="24" height="24" viewBox="0 0 24 24" fill="none" xmlns="http://www.w3.org/2000/svg">
<path fill-rule="evenodd" clip-rule="evenodd" d="M6.1102 9.31323C6.84269 6.75074 9.2023 4.875 12 4.875C14.266 4.875 16.2458 6.10509 17.3061 7.93814C17.5481 8.35644 18.0834 8.49938 18.5017 8.25741C18.92 8.01543 19.0629 7.48017 18.8209 7.06186C17.4606 4.7103 14.916 3.125 12 3.125C8.30065 3.125 5.19708 5.67579 4.35216 9.11449L3.61872 8.38105C3.27701 8.03934 2.72299 8.03934 2.38128 8.38104C2.03957 8.72275 2.03957 9.27677 2.38128 9.61848L4.86436 12.1016L7.95018 10.2501C8.36457 10.0014 8.49894 9.46396 8.25031 9.04958C8.00168 8.6352 7.4642 8.50083 7.04982 8.74946L6.1102 9.31323ZM20.3813 15.619C20.723 15.9607 21.277 15.9607 21.6187 15.619C21.9604 15.2772 21.9604 14.7232 21.6187 14.3815L19.1356 11.8984L16.0498 13.7499C15.6354 13.9986 15.5011 14.536 15.7497 14.9504C15.9983 15.3648 16.5358 15.4992 16.9502 15.2505L17.8897 14.6868C17.1572 17.2493 14.7976 19.125 11.9999 19.125C9.73394 19.125 7.75419 17.8949 6.69383 16.0619C6.45185 15.6436 5.91659 15.5006 5.49829 15.7426C5.07999 15.9846 4.93704 16.5198 5.17902 16.9381C6.53932 19.2897 9.08399 20.875 11.9999 20.875C15.6993 20.875 18.8029 18.3242 19.6478 14.8855L20.3813 15.619Z" fill="#2B2B2C"/>
</svg>
