<svg width="24" height="24" viewBox="0 0 24 24" fill="none" xmlns="http://www.w3.org/2000/svg">
<path fill-rule="evenodd" clip-rule="evenodd" d="M10.238 7.20711C10.6286 6.81658 10.6286 6.18342 10.238 5.7929C9.84751 5.40237 9.21435 5.40237 8.82383 5.79289L3.33471 11.282C3.32728 11.2892 3.31997 11.2965 3.31277 11.3039L2.58203 12.0347L8.82779 18.211C9.22049 18.5994 9.85365 18.5958 10.242 18.2031C10.6303 17.8104 10.6268 17.1773 10.2341 16.789L6.40255 13L20.0308 13C20.5831 13 21.0308 12.5523 21.0308 12C21.0308 11.4477 20.5831 11 20.0308 11L6.44514 11L10.238 7.20711Z" fill="#2B2B2C"/>
</svg>
