<svg width="24" height="24" viewBox="0 0 24 24" fill="none" xmlns="http://www.w3.org/2000/svg">
<path fill-rule="evenodd" clip-rule="evenodd" d="M8.5 3C7.67157 3 7 3.67157 7 4.5V20.6169L11.2428 18.0713C11.4011 17.9762 11.5989 17.9762 11.7572 18.0713L16 20.6169V4C16 3.63571 16.0974 3.29417 16.2676 3H8.5ZM18 2H8.5C7.11929 2 6 3.11929 6 4.5V21.5C6 21.6801 6.0969 21.8463 6.25365 21.9351C6.4104 22.0239 6.60278 22.0214 6.75725 21.9287L11.5 19.0831L16.2428 21.9287C16.3972 22.0214 16.5896 22.0239 16.7463 21.9351C16.9031 21.8463 17 21.6801 17 21.5V13H19.5C19.7761 13 20 12.7761 20 12.5V4C20 2.89543 19.1046 2 18 2ZM19 12V4C19 3.44772 18.5523 3 18 3C17.4477 3 17 3.44772 17 4V12H19ZM8 6.5C8 6.22386 8.22386 6 8.5 6H14.5C14.7761 6 15 6.22386 15 6.5C15 6.77614 14.7761 7 14.5 7H8.5C8.22386 7 8 6.77614 8 6.5ZM8.5 9.5C8.22386 9.5 8 9.72386 8 10C8 10.2761 8.22386 10.5 8.5 10.5H14.5C14.7761 10.5 15 10.2761 15 10C15 9.72386 14.7761 9.5 14.5 9.5H8.5Z" fill="#2B2B2C"/>
</svg>
