<svg width="30" height="30" viewBox="0 0 30 30" fill="none" xmlns="http://www.w3.org/2000/svg">
<path fill-rule="evenodd" clip-rule="evenodd" d="M21 4.5C21 3.67157 21.6716 3 22.5 3C23.3284 3 24 3.67157 24 4.5V15.125H21V4.5ZM24.5 16.125H21V27.5C21 27.6705 20.9131 27.8293 20.7695 27.9212C20.6258 28.0131 20.4453 28.0254 20.2905 27.954L14 25.0507L7.70953 27.954C7.55471 28.0254 7.37415 28.0131 7.23052 27.9212C7.08689 27.8293 7 27.6705 7 27.5V5C7 3.34315 8.34315 2 10 2H22.5C23.8807 2 25 3.11929 25 4.5V15.625C25 15.9011 24.7761 16.125 24.5 16.125ZM10 7C9.72386 7 9.5 7.22386 9.5 7.5C9.5 7.77614 9.72386 8 10 8H18C18.2761 8 18.5 7.77614 18.5 7.5C18.5 7.22386 18.2761 7 18 7H10ZM9.5 11.5C9.5 11.2239 9.72386 11 10 11H18C18.2761 11 18.5 11.2239 18.5 11.5C18.5 11.7761 18.2761 12 18 12H10C9.72386 12 9.5 11.7761 9.5 11.5Z" fill="#2B2B2C"/>
</svg>
