<svg width="30" height="30" viewBox="0 0 30 30" fill="none" xmlns="http://www.w3.org/2000/svg">
<path fill-rule="evenodd" clip-rule="evenodd" d="M9 2.5C9.27614 2.5 9.5 2.72386 9.5 3V4H20.5V3C20.5 2.72386 20.7239 2.5 21 2.5C21.2761 2.5 21.5 2.72386 21.5 3V4H24.25C25.2165 4 26 4.7835 26 5.75V9.5V24.25C26 25.2165 25.2165 26 24.25 26H5.75C4.7835 26 4 25.2165 4 24.25V9.5V5.75C4 4.7835 4.7835 4 5.75 4H8.5V3C8.5 2.72386 8.72386 2.5 9 2.5ZM20.5 5V7C20.5 7.27614 20.7239 7.5 21 7.5C21.2761 7.5 21.5 7.27614 21.5 7V5H24.25C24.6642 5 25 5.33579 25 5.75V9H5V5.75C5 5.33579 5.33579 5 5.75 5H8.5V7C8.5 7.27614 8.72386 7.5 9 7.5C9.27614 7.5 9.5 7.27614 9.5 7V5H20.5ZM5 10H25V24.25C25 24.6642 24.6642 25 24.25 25H5.75C5.33579 25 5 24.6642 5 24.25V10ZM11.5 11.5C11.7761 11.5 12 11.7239 12 12V14.5H18V12C18 11.7239 18.2239 11.5 18.5 11.5C18.7761 11.5 19 11.7239 19 12V14.5H22C22.2761 14.5 22.5 14.7239 22.5 15C22.5 15.2761 22.2761 15.5 22 15.5H19V19.5H22C22.2761 19.5 22.5 19.7239 22.5 20C22.5 20.2761 22.2761 20.5 22 20.5H19V23C19 23.2761 18.7761 23.5 18.5 23.5C18.2239 23.5 18 23.2761 18 23V20.5H12V23C12 23.2761 11.7761 23.5 11.5 23.5C11.2239 23.5 11 23.2761 11 23V20.5H7.99999C7.72385 20.5 7.49999 20.2761 7.49999 20C7.49999 19.7239 7.72385 19.5 7.99999 19.5H11V15.5H8C7.72386 15.5 7.5 15.2761 7.5 15C7.5 14.7239 7.72386 14.5 8 14.5H11V12C11 11.7239 11.2239 11.5 11.5 11.5ZM12 19.5H18V15.5H12V19.5Z" fill="#2B2B2C"/>
</svg>
