<svg width="30" height="30" viewBox="0 0 30 30" fill="none" xmlns="http://www.w3.org/2000/svg">
<path fill-rule="evenodd" clip-rule="evenodd" d="M9.85356 4.85355C10.0488 4.65829 10.0488 4.34171 9.85356 4.14645C9.65829 3.95118 9.34171 3.95118 9.14645 4.14645L4.2929 9L9.14645 13.8536C9.34171 14.0488 9.65829 14.0488 9.85356 13.8536C10.0488 13.6583 10.0488 13.3417 9.85356 13.1465L6.20711 9.5L25 9.5C25.2761 9.5 25.5 9.27614 25.5 9C25.5 8.72386 25.2761 8.5 25 8.5L6.20711 8.5L9.85356 4.85355ZM20.1464 25.1464L23.7929 21.5H5C4.72386 21.5 4.5 21.2761 4.5 21C4.5 20.7239 4.72386 20.5 5 20.5H23.7929L20.1464 16.8536C19.9512 16.6583 19.9512 16.3417 20.1464 16.1464C20.3417 15.9512 20.6583 15.9512 20.8536 16.1464L25.7071 21L20.8536 25.8536C20.6583 26.0488 20.3417 26.0488 20.1464 25.8536C19.9512 25.6583 19.9512 25.3417 20.1464 25.1464Z" fill="#2B2B2C"/>
</svg>
