<svg width="18" height="18" viewBox="0 0 18 18" fill="none" xmlns="http://www.w3.org/2000/svg">
<path fill-rule="evenodd" clip-rule="evenodd" d="M7.53032 3.03033C7.82322 2.73744 7.82322 2.26256 7.53032 1.96967C7.23743 1.67678 6.76255 1.67678 6.46966 1.96967L2.93933 5.5L6.46966 9.03033C6.76256 9.32322 7.23743 9.32322 7.53032 9.03033C7.82322 8.73744 7.82322 8.26256 7.53032 7.96967L5.81065 6.25L14 6.25C14.4142 6.25 14.75 5.91421 14.75 5.5C14.75 5.08579 14.4142 4.75 14 4.75L5.81065 4.75L7.53032 3.03033ZM10.4697 14.9697L12.1893 13.25L4 13.25C3.58579 13.25 3.25 12.9142 3.25 12.5C3.25 12.0858 3.58579 11.75 4 11.75L12.1893 11.75L10.4697 10.0303C10.1768 9.73744 10.1768 9.26256 10.4697 8.96967C10.7626 8.67678 11.2374 8.67678 11.5303 8.96967L15.0607 12.5L11.5303 16.0303C11.2374 16.3232 10.7626 16.3232 10.4697 16.0303C10.1768 15.7374 10.1768 15.2626 10.4697 14.9697Z" fill="#2B2B2C"/>
</svg>
