<svg width="30" height="30" viewBox="0 0 30 30" fill="none" xmlns="http://www.w3.org/2000/svg">
<path fill-rule="evenodd" clip-rule="evenodd" d="M10.2071 5.20711C10.5976 4.81658 10.5976 4.18342 10.2071 3.79289C9.81658 3.40237 9.18342 3.40237 8.79289 3.79289L3.58578 9L8.79289 14.2071C9.18342 14.5976 9.81658 14.5976 10.2071 14.2071C10.5976 13.8166 10.5976 13.1834 10.2071 12.7929L7.41421 10L25 10C25.5523 10 26 9.55229 26 9C26 8.44772 25.5523 8 25 8L7.41421 8L10.2071 5.20711ZM19.7929 24.7929L22.5858 22H5C4.44772 22 4 21.5523 4 21C4 20.4477 4.44772 20 5 20H22.5858L19.7929 17.2071C19.4024 16.8166 19.4024 16.1834 19.7929 15.7929C20.1834 15.4024 20.8166 15.4024 21.2071 15.7929L26.4142 21L21.2071 26.2071C20.8166 26.5976 20.1834 26.5976 19.7929 26.2071C19.4024 25.8166 19.4024 25.1834 19.7929 24.7929Z" fill="#2B2B2C"/>
</svg>
