<svg width="24" height="24" viewBox="0 0 24 24" fill="none" xmlns="http://www.w3.org/2000/svg">
<path fill-rule="evenodd" clip-rule="evenodd" d="M9.83216 3.87371C10.0385 3.69025 10.0571 3.37421 9.87368 3.16782C9.69022 2.96143 9.37419 2.94284 9.16779 3.1263L4.24738 7.50001L9.16779 11.8737C9.37419 12.0572 9.69022 12.0386 9.87368 11.8322C10.0571 11.6258 10.0385 11.3098 9.83216 11.1263L6.31507 8L19 8C19.2761 8 19.5 7.77614 19.5 7.5C19.5 7.22386 19.2761 7 19 7L6.31508 7L9.83216 3.87371ZM14.1678 20.1263L17.6849 17L5 17C4.72386 17 4.5 16.7761 4.5 16.5C4.5 16.2239 4.72386 16 5 16L17.6849 16L14.1678 12.8737C13.9615 12.6902 13.9429 12.3742 14.1263 12.1678C14.3098 11.9614 14.6258 11.9428 14.8322 12.1263L19.7526 16.5L14.8322 20.8737C14.6258 21.0572 14.3098 21.0386 14.1263 20.8322C13.9429 20.6258 13.9615 20.3097 14.1678 20.1263Z" fill="#2B2B2C"/>
</svg>
