<svg width="24" height="24" viewBox="0 0 24 24" fill="none" xmlns="http://www.w3.org/2000/svg">
<path fill-rule="evenodd" clip-rule="evenodd" d="M6.61872 5.38128C6.27701 5.03957 5.72299 5.03957 5.38128 5.38128C5.03957 5.72299 5.03957 6.27701 5.38128 6.61872L10.6959 11.9334L5.38128 17.248C5.03957 17.5898 5.03957 18.1438 5.38128 18.4855C5.72299 18.8272 6.27701 18.8272 6.61872 18.4855L11.9334 13.1708L17.2481 18.4855C17.5898 18.8272 18.1438 18.8272 18.4855 18.4855C18.8272 18.1438 18.8272 17.5898 18.4855 17.248L13.1708 11.9334L18.4855 6.61872C18.8272 6.27701 18.8272 5.72299 18.4855 5.38128C18.1438 5.03957 17.5898 5.03957 17.2481 5.38128L11.9334 10.6959L6.61872 5.38128Z" fill="#2B2B2C"/>
</svg>
