<svg width="18" height="18" viewBox="0 0 18 18" fill="none" xmlns="http://www.w3.org/2000/svg">
<path fill-rule="evenodd" clip-rule="evenodd" d="M7.25 2C7.11193 2 7 2.11193 7 2.25V2.99999H11V2.25C11 2.11193 10.8881 2 10.75 2H7.25ZM12 2.99999V2.25C12 1.55964 11.4404 1 10.75 1H7.25C6.55964 1 6 1.55964 6 2.25V2.99999H4.375C3.89175 2.99999 3.5 3.39174 3.5 3.87499V5.625C3.5 6.10825 3.89175 6.5 4.375 6.5H4.5V15.75C4.5 16.4404 5.05964 17 5.75 17H12.25C12.9404 17 13.5 16.4404 13.5 15.75V6.5H13.625C14.1082 6.5 14.5 6.10825 14.5 5.625V3.87499C14.5 3.39174 14.1082 2.99999 13.625 2.99999H12ZM13.5 5.5V3.99999H4.5V5.5H13.5ZM12.5 6.5V15.75C12.5 15.8881 12.3881 16 12.25 16H5.75C5.61193 16 5.5 15.8881 5.5 15.75V6.5H12.5ZM7.5 8C7.77614 8 8 8.22386 8 8.5V14C8 14.2761 7.77614 14.5 7.5 14.5C7.22386 14.5 7 14.2761 7 14V8.5C7 8.22386 7.22386 8 7.5 8ZM10.5 8C10.7761 8 11 8.22386 11 8.5V14C11 14.2761 10.7761 14.5 10.5 14.5C10.2239 14.5 10 14.2761 10 14V8.5C10 8.22386 10.2239 8 10.5 8Z" fill="#2B2B2C"/>
</svg>
