<svg width="24" height="24" viewBox="0 0 24 24" fill="none" xmlns="http://www.w3.org/2000/svg">
<path fill-rule="evenodd" clip-rule="evenodd" d="M9.5 3.5C9.5 3.22386 9.72386 3 10 3H14C14.2761 3 14.5 3.22386 14.5 3.5V4H9.5V3.5ZM15.5 3.5V4H17.5C18.0523 4 18.5 4.44772 18.5 5V7C18.5 7.55228 18.0523 8 17.5 8V20.5C17.5 21.3284 16.8284 22 16 22H8C7.17157 22 6.5 21.3284 6.5 20.5L6.5 8C5.94772 8 5.5 7.55229 5.5 7V5C5.5 4.44772 5.94772 4 6.5 4H8.5V3.5C8.5 2.67157 9.17157 2 10 2H14C14.8284 2 15.5 2.67157 15.5 3.5ZM17.5 5V7H6.5V5H17.5ZM10.5 10C10.7761 10 11 10.2239 11 10.5V18.5C11 18.7761 10.7761 19 10.5 19C10.2239 19 10 18.7761 10 18.5V10.5C10 10.2239 10.2239 10 10.5 10ZM13.5 10C13.7761 10 14 10.2239 14 10.5V18.5C14 18.7761 13.7761 19 13.5 19C13.2239 19 13 18.7761 13 18.5V10.5C13 10.2239 13.2239 10 13.5 10Z" fill="#2B2B2C"/>
</svg>
