<svg width="42" height="42" viewBox="0 0 42 42" fill="none" xmlns="http://www.w3.org/2000/svg">
<path fill-rule="evenodd" clip-rule="evenodd" d="M3.99998 21C3.99998 11.6112 11.6111 4 21 4C30.2631 4 38 11.7369 38 21C38 30.3888 30.3888 38 21 38C11.6111 38 3.99998 30.3888 3.99998 21ZM21 5C12.1634 5 4.99998 12.1634 4.99998 21C4.99998 29.8366 12.1634 37 21 37C29.8365 37 37 29.8366 37 21C37 12.2891 29.7108 5 21 5ZM21 11.5C15.7533 11.5 11.5 15.7533 11.5 21C11.5 26.2467 15.7533 30.5 21 30.5C26.2467 30.5 30.5 26.2467 30.5 21C30.5 15.7533 26.2467 11.5 21 11.5ZM10.5 21C10.5 15.201 15.201 10.5 21 10.5C26.799 10.5 31.5 15.201 31.5 21C31.5 26.799 26.799 31.5 21 31.5C15.201 31.5 10.5 26.799 10.5 21Z" fill="#2B2B2C"/>
</svg>
