<svg width="18" height="18" viewBox="0 0 18 18" fill="none" xmlns="http://www.w3.org/2000/svg">
<path fill-rule="evenodd" clip-rule="evenodd" d="M9.49999 2.5C9.49999 2.22386 9.27613 2 8.99999 2C8.72385 2 8.49999 2.22386 8.49999 2.5V11.7929L4.85355 8.14645C4.65829 7.95118 4.34171 7.95118 4.14645 8.14645C3.95118 8.34171 3.95118 8.65829 4.14645 8.85355L8.99999 13.7071L13.8536 8.85355C14.0488 8.65829 14.0488 8.34171 13.8536 8.14645C13.6583 7.95118 13.3417 7.95118 13.1464 8.14645L9.49999 11.7929V2.5ZM2.5 14.5C2.22386 14.5 2 14.7239 2 15C2 15.2761 2.22386 15.5 2.5 15.5H15.5C15.7761 15.5 16 15.2761 16 15C16 14.7239 15.7761 14.5 15.5 14.5H2.5Z" fill="#2B2B2C"/>
</svg>
