<svg width="24" height="24" viewBox="0 0 24 24" fill="none" xmlns="http://www.w3.org/2000/svg">
<path fill-rule="evenodd" clip-rule="evenodd" d="M3.5 5.5C3.22386 5.5 3 5.72386 3 6V6.28493L10.9684 13.8339C11.5469 14.382 12.4531 14.382 13.0316 13.8339L21 6.28494V6C21 5.72386 20.7761 5.5 20.5 5.5H3.5ZM8.45888 12.834L3 7.66243V18C3 18.0911 3.02434 18.1764 3.06687 18.25C3.08826 18.213 3.11479 18.1781 3.14645 18.1464L8.45888 12.834ZM9.1851 13.522L4.20711 18.5H19.7929L14.8149 13.522L13.7194 14.5599C12.7551 15.4734 11.2449 15.4734 10.2806 14.5599L9.1851 13.522ZM15.5411 12.834L20.8536 18.1464C20.8852 18.1781 20.9117 18.213 20.9331 18.25C20.9757 18.1764 21 18.0911 21 18V7.66244L15.5411 12.834ZM22 18V6.50171V6.49812V6C22 5.17157 21.3284 4.5 20.5 4.5H3.5C2.67157 4.5 2 5.17157 2 6V6.49992V18C2 18.8284 2.67157 19.5 3.5 19.5H20.5C21.3284 19.5 22 18.8284 22 18Z" fill="#2B2B2C"/>
</svg>
