<svg width="30" height="30" viewBox="0 0 30 30" fill="none" xmlns="http://www.w3.org/2000/svg">
<path fill-rule="evenodd" clip-rule="evenodd" d="M6.41648 8H4.5C4.22386 8 4 7.77614 4 7.5C4 7.22386 4.22386 7 4.5 7H6.41648C6.65452 5.58114 7.8885 4.5 9.375 4.5C10.8615 4.5 12.0955 5.58114 12.3335 7H25.5C25.7761 7 26 7.22386 26 7.5C26 7.77614 25.7761 8 25.5 8H12.3335C12.0955 9.41886 10.8615 10.5 9.375 10.5C7.8885 10.5 6.65452 9.41886 6.41648 8ZM4 22.5C4 22.2239 4.22386 22 4.5 22H9.54148C9.77952 20.5811 11.0135 19.5 12.5 19.5C13.9865 19.5 15.2205 20.5811 15.4585 22H25.5C25.7761 22 26 22.2239 26 22.5C26 22.7761 25.7761 23 25.5 23H15.4585C15.2205 24.4189 13.9865 25.5 12.5 25.5C11.0135 25.5 9.77952 24.4189 9.54148 23H4.5C4.22386 23 4 22.7761 4 22.5ZM25.5 15.5C25.7761 15.5 26 15.2761 26 15C26 14.7239 25.7761 14.5 25.5 14.5L23.5835 14.5C23.3455 13.0811 22.1115 12 20.625 12C19.1385 12 17.9045 13.0811 17.6665 14.5L4.5 14.5C4.22386 14.5 4 14.7239 4 15C4 15.2761 4.22386 15.5 4.5 15.5L17.6665 15.5C17.9045 16.9189 19.1385 18 20.625 18C22.1115 18 23.3455 16.9189 23.5835 15.5L25.5 15.5Z" fill="#2B2B2C"/>
</svg>
