<svg width="18" height="18" viewBox="0 0 18 18" fill="none" xmlns="http://www.w3.org/2000/svg">
<path fill-rule="evenodd" clip-rule="evenodd" d="M4.5 4.5C4.5 3.94772 4.94772 3.5 5.5 3.5C6.05228 3.5 6.5 3.94772 6.5 4.5C6.5 5.05228 6.05228 5.5 5.5 5.5C4.94772 5.5 4.5 5.05228 4.5 4.5ZM3.56301 4H2.5C2.22386 4 2 4.22386 2 4.5C2 4.77614 2.22386 5 2.5 5H3.56301C3.78503 5.86261 4.56808 6.5 5.5 6.5C6.43192 6.5 7.21497 5.86261 7.43699 5H15.5C15.7761 5 16 4.77614 16 4.5C16 4.22386 15.7761 4 15.5 4H7.43699C7.21497 3.13739 6.43192 2.5 5.5 2.5C4.56808 2.5 3.78503 3.13739 3.56301 4ZM2.5 13C2.22386 13 2 13.2239 2 13.5C2 13.7761 2.22386 14 2.5 14H5.56301C5.78503 14.8626 6.56808 15.5 7.5 15.5C8.43192 15.5 9.21497 14.8626 9.43699 14H15.5C15.7761 14 16 13.7761 16 13.5C16 13.2239 15.7761 13 15.5 13H9.43699C9.21497 12.1374 8.43192 11.5 7.5 11.5C6.56808 11.5 5.78503 12.1374 5.56301 13H2.5ZM7.5 12.5C8.05228 12.5 8.5 12.9477 8.5 13.5C8.5 14.0523 8.05228 14.5 7.5 14.5C6.94772 14.5 6.5 14.0523 6.5 13.5C6.5 12.9477 6.94772 12.5 7.5 12.5ZM10.563 9.5L2.5 9.5C2.22386 9.5 2 9.27614 2 9C2 8.72386 2.22386 8.5 2.5 8.5L10.563 8.5C10.785 7.63738 11.5681 7 12.5 7C13.4319 7 14.215 7.63738 14.437 8.5H15.5C15.7761 8.5 16 8.72385 16 9C16 9.27614 15.7761 9.5 15.5 9.5H14.437C14.215 10.3626 13.4319 11 12.5 11C11.5681 11 10.785 10.3626 10.563 9.5ZM13.5 9C13.5 9.55228 13.0523 10 12.5 10C11.9477 10 11.5 9.55228 11.5 9C11.5 8.44771 11.9477 8 12.5 8C13.0523 8 13.5 8.44772 13.5 9Z" fill="#2B2B2C"/>
</svg>
