<svg width="24" height="24" viewBox="0 0 24 24" fill="none" xmlns="http://www.w3.org/2000/svg">
<path fill-rule="evenodd" clip-rule="evenodd" d="M6 6C6 5.17157 6.67157 4.5 7.5 4.5C8.32843 4.5 9 5.17157 9 6C9 6.82843 8.32843 7.5 7.5 7.5C6.67157 7.5 6 6.82843 6 6ZM5.05001 5.5H3.5C3.22386 5.5 3 5.72386 3 6C3 6.27614 3.22386 6.5 3.5 6.5H5.05001C5.28164 7.64112 6.29052 8.5 7.5 8.5C8.70948 8.5 9.71836 7.64112 9.94999 6.5H20.5C20.7761 6.5 21 6.27614 21 6C21 5.72386 20.7761 5.5 20.5 5.5H9.94999C9.71836 4.35888 8.70948 3.5 7.5 3.5C6.29052 3.5 5.28164 4.35888 5.05001 5.5ZM3.5 17.5C3.22386 17.5 3 17.7239 3 18C3 18.2761 3.22386 18.5 3.5 18.5H7.55001C7.78164 19.6411 8.79052 20.5 10 20.5C11.2095 20.5 12.2184 19.6411 12.45 18.5H20.5C20.7761 18.5 21 18.2761 21 18C21 17.7239 20.7761 17.5 20.5 17.5H12.45C12.2184 16.3589 11.2095 15.5 10 15.5C8.79052 15.5 7.78164 16.3589 7.55001 17.5H3.5ZM10 16.5C10.8284 16.5 11.5 17.1716 11.5 18C11.5 18.8284 10.8284 19.5 10 19.5C9.17157 19.5 8.5 18.8284 8.5 18C8.5 17.1716 9.17157 16.5 10 16.5ZM14.05 12.5L3.5 12.5C3.22386 12.5 3 12.2761 3 12C3 11.7239 3.22386 11.5 3.5 11.5L14.05 11.5C14.2816 10.3589 15.2905 9.5 16.5 9.5C17.7095 9.5 18.7184 10.3589 18.95 11.5L20.5 11.5C20.7761 11.5 21 11.7239 21 12C21 12.2761 20.7761 12.5 20.5 12.5L18.95 12.5C18.7184 13.6411 17.7095 14.5 16.5 14.5C15.2905 14.5 14.2816 13.6411 14.05 12.5ZM18 12C18 12.8284 17.3284 13.5 16.5 13.5C15.6716 13.5 15 12.8284 15 12C15 11.1716 15.6716 10.5 16.5 10.5C17.3284 10.5 18 11.1716 18 12Z" fill="#2B2B2C"/>
</svg>
