<svg width="24" height="24" viewBox="0 0 24 24" fill="none" xmlns="http://www.w3.org/2000/svg">
<path fill-rule="evenodd" clip-rule="evenodd" d="M6.90509 6.49995C8.22977 5.23935 9.99652 4.47363 11.9739 4.47363C16.1161 4.47363 19.4739 7.8315 19.4739 11.9736C19.4739 16.1158 16.1161 19.4736 11.9739 19.4736C7.8318 19.4736 4.47394 16.1158 4.47394 11.9736C4.47394 11.4213 4.02622 10.9736 3.47394 10.9736C2.92165 10.9736 2.47394 11.4213 2.47394 11.9736C2.47394 17.2203 6.72723 21.4736 11.9739 21.4736C17.2206 21.4736 21.4739 17.2203 21.4739 11.9736C21.4739 6.72693 17.2206 2.47363 11.9739 2.47363C9.40514 2.47363 7.12128 3.4927 5.43627 5.13857L5.35507 4.65134C5.26427 4.10657 4.74905 3.73855 4.20428 3.82934C3.65951 3.92014 3.29149 4.43537 3.38228 4.98014L3.96892 8.49995H7.50025C8.05254 8.49995 8.50025 8.05223 8.50025 7.49995C8.50025 6.94766 8.05254 6.49995 7.50025 6.49995H6.90509ZM12.5 6C12.5 5.72386 12.2761 5.5 12 5.5C11.7239 5.5 11.5 5.72386 11.5 6V12.2071L15.1464 15.8536C15.3417 16.0488 15.6583 16.0488 15.8536 15.8536C16.0488 15.6583 16.0488 15.3417 15.8536 15.1464L12.5 11.7929V6Z" fill="#2B2B2C"/>
</svg>
