<svg width="24" height="24" viewBox="0 0 24 24" fill="none" xmlns="http://www.w3.org/2000/svg">
<path fill-rule="evenodd" clip-rule="evenodd" d="M11.0658 5.71589C9.1401 3.59758 5.69593 4.03196 4.35646 6.56208C3.58964 8.01052 3.75133 9.77526 4.7686 11.0602L11.6239 19.7195C11.8159 19.9621 12.184 19.9621 12.3761 19.7195L19.2313 11.0602C20.2486 9.77526 20.4103 8.01052 19.6435 6.56208C18.304 4.03196 14.8598 3.59758 12.9341 5.7159L12.3699 6.33648C12.2752 6.44071 12.1408 6.50014 12 6.50014C11.8591 6.50014 11.7248 6.44071 11.63 6.33648L11.0658 5.71589ZM3.47267 6.0942C5.13631 2.95176 9.414 2.41226 11.8058 5.04322L12 5.25684L12.1942 5.04322C14.586 2.41226 18.8636 2.95176 20.5273 6.0942C21.4797 7.89317 21.2789 10.085 20.0154 11.6809L13.1601 20.3402C12.5677 21.0886 11.4323 21.0886 10.8398 20.3402L3.98455 11.6809C2.7211 10.085 2.52027 7.89317 3.47267 6.0942ZM6.8536 6.64645C7.04887 6.84171 7.04887 7.15829 6.8536 7.35355C6.50369 7.70347 6.37932 8.27421 6.4355 8.89223C6.46275 9.19189 6.53103 9.4767 6.61721 9.70872C6.70767 9.95226 6.80169 10.0945 6.85361 10.1464C7.04888 10.3417 7.04887 10.6583 6.85361 10.8536C6.65835 11.0488 6.34176 11.0488 6.1465 10.8536C5.94843 10.6555 5.79245 10.3602 5.67979 10.0569C5.56284 9.74205 5.47487 9.37061 5.43961 8.98277C5.37079 8.22579 5.49641 7.29653 6.1465 6.64645C6.34176 6.45118 6.65834 6.45118 6.8536 6.64645ZM8 6.5C8.27614 6.5 8.5 6.27614 8.5 6C8.5 5.72386 8.27614 5.5 8 5.5C7.72386 5.5 7.5 5.72386 7.5 6C7.5 6.27614 7.72386 6.5 8 6.5Z" fill="#2B2B2C"/>
</svg>
