<svg width="24" height="24" viewBox="0 0 24 24" fill="none" xmlns="http://www.w3.org/2000/svg">
<path fill-rule="evenodd" clip-rule="evenodd" d="M11.8058 5.04322C9.414 2.41226 5.13631 2.95176 3.47267 6.0942C2.52027 7.89317 2.7211 10.085 3.98455 11.6809L10.8398 20.3402C11.4323 21.0886 12.5677 21.0886 13.1601 20.3402L20.0154 11.6809C21.2789 10.085 21.4797 7.89317 20.5273 6.0942C18.8636 2.95176 14.586 2.41226 12.1942 5.04322L12 5.25684L11.8058 5.04322ZM6.85352 7.35364C7.04879 7.15838 7.04879 6.84179 6.85352 6.64653C6.65826 6.45127 6.34168 6.45127 6.14642 6.64653C5.49633 7.29662 5.37071 8.22587 5.43953 8.98285C5.47479 9.37069 5.56276 9.74213 5.6797 10.057C5.79237 10.3603 5.94835 10.6556 6.14642 10.8536C6.34168 11.0489 6.65827 11.0489 6.85353 10.8536C7.04879 10.6584 7.04879 10.3418 6.85353 10.1465C6.80161 10.0946 6.70759 9.95234 6.61713 9.7088C6.53095 9.47678 6.46267 9.19198 6.43542 8.89231C6.37924 8.2743 6.50361 7.70355 6.85352 7.35364ZM8.49997 6.00008C8.49997 6.27623 8.27611 6.50008 7.99997 6.50008C7.72383 6.50008 7.49997 6.27623 7.49997 6.00008C7.49997 5.72394 7.72383 5.50008 7.99997 5.50008C8.27611 5.50008 8.49997 5.72394 8.49997 6.00008Z" fill="#2B2B2C"/>
</svg>
