<svg width="18" height="18" viewBox="0 0 18 18" fill="none" xmlns="http://www.w3.org/2000/svg">
<path fill-rule="evenodd" clip-rule="evenodd" d="M5.70734 14H5.70925L6.04362 13.572L14.8932 2.30893C15.0638 2.0918 15.0261 1.77747 14.8089 1.60686C14.5918 1.43626 14.2775 1.47397 14.1069 1.69111L12.5555 3.66557C11.8905 2.37926 10.5479 1.5 9 1.5C6.79086 1.5 5 3.29086 5 5.5V8.38197L2.55279 13.2764C2.47529 13.4314 2.48357 13.6155 2.57468 13.7629C2.66578 13.9103 2.82671 14 3 14H4.43559L3.10686 15.6911C2.93626 15.9082 2.97397 16.2226 3.19111 16.3932C3.40825 16.5638 3.72257 16.5261 3.89318 16.3089L5.70734 14ZM9 16.5C7.80395 16.5 6.80407 15.6601 6.55801 14.5379L13 6.29216V8.38197L15.4472 13.2764C15.5247 13.4314 15.5164 13.6155 15.4253 13.7629C15.3342 13.9103 15.1733 14 15 14H11.5C11.5 15.3807 10.3807 16.5 9 16.5ZM7.5 14C7.5 14.8284 8.17157 15.5 9 15.5C9.82843 15.5 10.5 14.8284 10.5 14H7.5Z" fill="#2B2B2C"/>
</svg>
