<svg width="30" height="30" viewBox="0 0 30 30" fill="none" xmlns="http://www.w3.org/2000/svg">
<path fill-rule="evenodd" clip-rule="evenodd" d="M4 15C4 16.1046 4.89543 17 6 17C7.10457 17 8 16.1046 8 15C8 13.8954 7.10457 13 6 13C4.89543 13 4 13.8954 4 15ZM6 18C4.34315 18 3 16.6569 3 15C3 13.3431 4.34315 12 6 12C7.65685 12 9 13.3431 9 15C9 16.6569 7.65685 18 6 18ZM13 15C13 16.1046 13.8954 17 15 17C16.1046 17 17 16.1046 17 15C17 13.8954 16.1046 13 15 13C13.8954 13 13 13.8954 13 15ZM15 18C13.3431 18 12 16.6569 12 15C12 13.3431 13.3431 12 15 12C16.6569 12 18 13.3431 18 15C18 16.6569 16.6569 18 15 18ZM24 17C22.8954 17 22 16.1046 22 15C22 13.8954 22.8954 13 24 13C25.1046 13 26 13.8954 26 15C26 16.1046 25.1046 17 24 17ZM21 15C21 16.6569 22.3431 18 24 18C25.6569 18 27 16.6569 27 15C27 13.3431 25.6569 12 24 12C22.3431 12 21 13.3431 21 15Z" fill="#2B2B2C"/>
</svg>
