<svg width="18" height="18" viewBox="0 0 18 18" fill="none" xmlns="http://www.w3.org/2000/svg">
<path fill-rule="evenodd" clip-rule="evenodd" d="M5.5 6C5.5 4.067 7.067 2.5 9 2.5C10.933 2.5 12.5 4.067 12.5 6V7.5H11.5V6C11.5 4.61929 10.3807 3.5 9 3.5C7.61929 3.5 6.5 4.61929 6.5 6V7.5H5.5V6ZM4.5 7.5V6C4.5 3.51472 6.51472 1.5 9 1.5C11.4853 1.5 13.5 3.51472 13.5 6V7.5H13.75C14.4404 7.5 15 8.05964 15 8.75V15.25C15 15.9404 14.4404 16.5 13.75 16.5H4.25C3.55964 16.5 3 15.9404 3 15.25V8.75C3 8.05964 3.55964 7.5 4.25 7.5H4.5ZM7.5 7.5V6C7.5 5.17157 8.17157 4.5 9 4.5C9.82843 4.5 10.5 5.17157 10.5 6V7.5H7.5ZM11 8.5H7H5H4.25C4.11193 8.5 4 8.61193 4 8.75V15.25C4 15.3881 4.11193 15.5 4.25 15.5H13.75C13.8881 15.5 14 15.3881 14 15.25V8.75C14 8.61193 13.8881 8.5 13.75 8.5H13H11Z" fill="#2B2B2C"/>
<path d="M10 11.5C10 12.0523 9.55228 12.5 9 12.5C8.44772 12.5 8 12.0523 8 11.5C8 10.9477 8.44772 10.5 9 10.5C9.55228 10.5 10 10.9477 10 11.5Z" stroke="#2B2B2C"/>
<path d="M9 12.5V13.5" stroke="#2B2B2C" stroke-linecap="round" stroke-linejoin="round"/>
</svg>
