<svg width="30" height="30" viewBox="0 0 30 30" fill="none" xmlns="http://www.w3.org/2000/svg">
<path fill-rule="evenodd" clip-rule="evenodd" d="M8.53903 10.3807C8.58324 6.84391 11.4629 4 15 4C18.5371 4 21.4168 6.84392 21.461 10.3807L21.4937 13H20V10.5C20 7.73858 17.7614 5.5 15 5.5C12.2386 5.5 10 7.73858 10 10.5V13H8.50629L8.53903 10.3807ZM7.50621 13L7.53911 10.3682C7.59016 6.28405 10.9155 3 15 3C19.0845 3 22.4098 6.28405 22.4609 10.3682L22.4938 13H22.75C23.7165 13 24.5 13.7835 24.5 14.75V25.25C24.5 26.2165 23.7165 27 22.75 27H7.25C6.2835 27 5.5 26.2165 5.5 25.25V14.75C5.5 13.7835 6.2835 13 7.25 13H7.50621ZM11 13H19V10.5C19 8.29086 17.2091 6.5 15 6.5C12.7909 6.5 11 8.29086 11 10.5V13ZM15 16.5C13.8954 16.5 13 17.3954 13 18.5C13 19.2403 13.4022 19.8866 14 20.2324V22.5C14 23.0523 14.4477 23.5 15 23.5C15.5523 23.5 16 23.0523 16 22.5V20.2324C16.5978 19.8866 17 19.2403 17 18.5C17 17.3954 16.1046 16.5 15 16.5Z" fill="#2B2B2C"/>
</svg>
