<svg width="18" height="18" viewBox="0 0 18 18" fill="none" xmlns="http://www.w3.org/2000/svg">
<path fill-rule="evenodd" clip-rule="evenodd" d="M9 2.5C5.41015 2.5 2.5 5.41015 2.5 9C2.5 10.6963 3.14976 12.2408 4.21396 13.3982L5.15084 11.2122C5.466 10.4768 6.18908 10 6.98913 10H11.0109C11.811 10 12.5341 10.4768 12.8492 11.2122L13.7861 13.3982C14.8503 12.2407 15.5 10.6962 15.5 9C15.5 5.41015 12.5899 2.5 9 2.5ZM13.0068 14.1185L11.9301 11.6061C11.7725 11.2384 11.411 11 11.0109 11H6.98913C6.5891 11 6.22757 11.2384 6.06999 11.6061L4.99322 14.1185C6.09728 14.984 7.48838 15.5 9 15.5C10.5116 15.5 11.9028 14.984 13.0068 14.1185ZM1.5 9C1.5 4.85786 4.85786 1.5 9 1.5C13.1421 1.5 16.5 4.85786 16.5 9C16.5 13.1421 13.1421 16.5 9 16.5C4.85786 16.5 1.5 13.1421 1.5 9ZM9 4.5C8.0335 4.5 7.25 5.2835 7.25 6.25C7.25 7.2165 8.0335 8 9 8C9.9665 8 10.75 7.2165 10.75 6.25C10.75 5.2835 9.9665 4.5 9 4.5ZM6.25 6.25C6.25 4.73122 7.48122 3.5 9 3.5C10.5188 3.5 11.75 4.73122 11.75 6.25C11.75 7.76878 10.5188 9 9 9C7.48122 9 6.25 7.76878 6.25 6.25Z" fill="#2B2B2C"/>
</svg>
