<svg width="24" height="24" viewBox="0 0 24 24" fill="none" xmlns="http://www.w3.org/2000/svg">
<path fill-rule="evenodd" clip-rule="evenodd" d="M12 4C7.58172 4 4 7.58172 4 12C4 14.1107 4.81741 16.0305 6.15294 17.4601L7.18379 14.3675C7.45601 13.5509 8.22029 13 9.08115 13H14.9189C15.7797 13 16.544 13.5509 16.8162 14.3675L17.8471 17.4601C19.1826 16.0305 20 14.1107 20 12C20 7.58172 16.4183 4 12 4ZM17.0456 18.2086C17.0381 18.1923 17.0315 18.1755 17.0257 18.1581L15.8676 14.6838C15.7314 14.2754 15.3493 14 14.9189 14H9.08115C8.65072 14 8.26858 14.2754 8.13247 14.6838L6.97436 18.1581C6.96857 18.1755 6.96192 18.1923 6.95447 18.2086C8.33097 19.3286 10.0871 20 12 20C13.9129 20 15.669 19.3286 17.0456 18.2086ZM3 12C3 7.02944 7.02944 3 12 3C16.9706 3 21 7.02944 21 12C21 16.9706 16.9706 21 12 21C7.02944 21 3 16.9706 3 12ZM12 6.5C10.7574 6.5 9.75 7.50736 9.75 8.75C9.75 9.99264 10.7574 11 12 11C13.2426 11 14.25 9.99264 14.25 8.75C14.25 7.50736 13.2426 6.5 12 6.5ZM8.75 8.75C8.75 6.95507 10.2051 5.5 12 5.5C13.7949 5.5 15.25 6.95507 15.25 8.75C15.25 10.5449 13.7949 12 12 12C10.2051 12 8.75 10.5449 8.75 8.75Z" fill="#2B2B2C"/>
</svg>
