<svg width="30" height="30" viewBox="0 0 30 30" fill="none" xmlns="http://www.w3.org/2000/svg">
<path fill-rule="evenodd" clip-rule="evenodd" d="M15 4.5C17.5013 4.5 19.8169 5.46714 21.6384 7H21C20.4477 7 20 7.44772 20 8C20 8.55228 20.4477 9 21 9H24.8471L25.4864 5.1644C25.5772 4.61963 25.2092 4.1044 24.6644 4.01361C24.1196 3.92281 23.6044 4.29083 23.5136 4.8356L23.3463 5.83926C21.1472 3.82621 18.227 2.5 15 2.5C8.09644 2.5 2.5 8.09644 2.5 15C2.5 21.9036 8.09644 27.5 15 27.5C21.9036 27.5 27.5 21.9036 27.5 15C27.5 14.4477 27.0523 14 26.5 14C25.9477 14 25.5 14.4477 25.5 15C25.5 20.799 20.799 25.5 15 25.5C9.20101 25.5 4.5 20.799 4.5 15C4.5 9.20101 9.20101 4.5 15 4.5Z" fill="#2B2B2C"/>
</svg>
