<svg width="24" height="24" viewBox="0 0 24 24" fill="none" xmlns="http://www.w3.org/2000/svg">
<path fill-rule="evenodd" clip-rule="evenodd" d="M11.9998 4.5C13.9772 4.5 15.744 5.26572 17.0687 6.52632H16.9209C16.3686 6.52632 15.9209 6.97403 15.9209 7.52632C15.9209 8.0786 16.3686 8.52632 16.9209 8.52632H19.9775L20.5857 5.48559C20.694 4.94403 20.3428 4.4172 19.8012 4.30889C19.2596 4.20058 18.7328 4.5518 18.6245 5.09336L18.5982 5.22479C16.9075 3.5438 14.5996 2.5 11.9998 2.5C6.75311 2.5 2.49982 6.75329 2.49982 12C2.49982 17.2467 6.75311 21.5 11.9998 21.5C17.2465 21.5 21.4998 17.2467 21.4998 12C21.4998 11.4477 21.0521 11 20.4998 11C19.9475 11 19.4998 11.4477 19.4998 12C19.4998 16.1421 16.142 19.5 11.9998 19.5C7.85768 19.5 4.49982 16.1421 4.49982 12C4.49982 7.85786 7.85768 4.5 11.9998 4.5Z" fill="#2B2B2C"/>
</svg>
