<svg width="24" height="24" viewBox="0 0 24 24" fill="none" xmlns="http://www.w3.org/2000/svg">
<path fill-rule="evenodd" clip-rule="evenodd" d="M9.67377 2.51514C10.2177 2.61112 10.5807 3.12983 10.4848 3.67371L9.80954 7.5H15.7786L16.5152 3.32614C16.6112 2.78226 17.1299 2.41916 17.6738 2.51514C18.2177 2.61112 18.5807 3.12983 18.4848 3.67371L17.8095 7.5H20.5C21.0523 7.5 21.5 7.94772 21.5 8.5C21.5 9.05228 21.0523 9.5 20.5 9.5H17.4566L16.5742 14.5H19C19.5523 14.5 20 14.9477 20 15.5C20 16.0523 19.5523 16.5 19 16.5H16.2213L15.4848 20.6737C15.3888 21.2176 14.8701 21.5807 14.3262 21.4847C13.7823 21.3887 13.4192 20.87 13.5152 20.3261L14.1904 16.5H8.2213L7.48477 20.6737C7.38879 21.2176 6.87008 21.5807 6.3262 21.4847C5.78232 21.3887 5.41922 20.87 5.5152 20.3261L6.1904 16.5H3.5C2.94772 16.5 2.5 16.0523 2.5 15.5C2.5 14.9477 2.94772 14.5 3.5 14.5H6.54334L7.4257 9.5H4.5C3.94772 9.5 3.5 9.05228 3.5 8.5C3.5 7.94772 3.94772 7.5 4.5 7.5H7.77864L8.5152 3.32614C8.61118 2.78226 9.12989 2.41916 9.67377 2.51514ZM9.4566 9.5L8.57425 14.5H14.5433L15.4257 9.5H9.4566Z" fill="#2B2B2C"/>
</svg>
