<svg width="18" height="18" viewBox="0 0 18 18" fill="none" xmlns="http://www.w3.org/2000/svg">
<path fill-rule="evenodd" clip-rule="evenodd" d="M7.67188 1.71875C4.35817 1.71875 1.67188 4.40504 1.67188 7.71875C1.67188 11.0325 4.35817 13.7188 7.67188 13.7188C8.90426 13.7188 10.0499 13.3472 11.0028 12.71L13.6464 15.3536C14.1178 15.825 14.8821 15.825 15.3535 15.3536C15.8249 14.8822 15.8249 14.1179 15.3535 13.6465L12.7003 10.9933C13.3148 10.0518 13.6719 8.92696 13.6719 7.71875C13.6719 4.40504 10.9856 1.71875 7.67188 1.71875ZM7.67188 11.7188C9.88101 11.7188 11.6719 9.92789 11.6719 7.71875C11.6719 5.50961 9.88101 3.71875 7.67188 3.71875C5.46274 3.71875 3.67188 5.50961 3.67188 7.71875C3.67188 9.92789 5.46274 11.7188 7.67188 11.7188ZM8.711 5.07583C8.46157 4.95734 8.16331 5.06349 8.04482 5.31291C7.92633 5.56234 8.03248 5.8606 8.28191 5.97909C8.9058 6.27547 9.24845 6.61812 9.54482 7.24201C9.66331 7.49144 9.96157 7.59758 10.211 7.47909C10.4604 7.3606 10.5666 7.06234 10.4481 6.81291C10.0529 5.98111 9.54281 5.47098 8.711 5.07583Z" fill="#2B2B2C"/>
</svg>
