<svg width="24" height="24" viewBox="0 0 24 24" fill="none" xmlns="http://www.w3.org/2000/svg">
<path fill-rule="evenodd" clip-rule="evenodd" d="M10 3C5.85786 3 2.5 6.35786 2.5 10.5C2.5 14.6421 5.85786 18 10 18C11.7635 18 13.3848 17.3913 14.6654 16.3727L18.6464 20.3536C19.1178 20.825 19.8821 20.825 20.3535 20.3536C20.8249 19.8822 20.8249 19.1179 20.3535 18.6465L16.2914 14.5844C17.0558 13.4092 17.5 12.0065 17.5 10.5C17.5 6.35786 14.1421 3 10 3ZM10 15.5C12.7614 15.5 15 13.2614 15 10.5C15 7.73858 12.7614 5.5 10 5.5C7.23858 5.5 5 7.73858 5 10.5C5 13.2614 7.23858 15.5 10 15.5ZM9.49146 7.31421C9.49146 7.03807 9.71531 6.81421 9.99146 6.81421C11.941 6.81421 13.5402 8.31073 13.6807 10.2714C13.7004 10.5468 13.4931 10.7861 13.2177 10.8058C12.9422 10.8255 12.7029 10.6182 12.6832 10.3428C12.5799 8.89999 11.411 7.81421 9.99146 7.81421C9.71531 7.81421 9.49146 7.59035 9.49146 7.31421Z" fill="#2B2B2C"/>
</svg>
