<svg width="24" height="24" viewBox="0 0 24 24" fill="none" xmlns="http://www.w3.org/2000/svg">
<path fill-rule="evenodd" clip-rule="evenodd" d="M17 2C16.7239 2 16.5 2.22386 16.5 2.5V3.79289L16.2929 4H15C14.7239 4 14.5 4.22386 14.5 4.5V7C14.5 7.27614 14.7239 7.5 15 7.5H16.2929L16.5 7.70711V9C16.5 9.27614 16.7239 9.5 17 9.5H19.5C19.7761 9.5 20 9.27614 20 9V7.70711L20.2071 7.5H21.5C21.7761 7.5 22 7.27614 22 7V4.5C22 4.22386 21.7761 4 21.5 4H20.2071L20 3.79289V2.5C20 2.36739 19.9473 2.24021 19.8536 2.14645C19.7598 2.05268 19.6326 2 19.5 2H17ZM17.5 4V3H19V4C19 4.13261 19.0527 4.25979 19.1464 4.35355L19.6464 4.85355C19.7402 4.94732 19.8674 5 20 5H21V6.5H20C19.8674 6.5 19.7402 6.55268 19.6464 6.64645L19.1464 7.14645C19.0527 7.24021 19 7.36739 19 7.5V8.5H17.5V7.5C17.5 7.36739 17.4473 7.24021 17.3536 7.14645L16.8536 6.64645C16.7598 6.55268 16.6326 6.5 16.5 6.5H15.5V5H16.5C16.6326 5 16.7598 4.94732 16.8536 4.85355L17.3536 4.35355C17.4473 4.25979 17.5 4.13261 17.5 4ZM8.0544 7.07056C8.3977 7.0241 8.70029 7 9 7C9.2957 7 9.59457 7.02365 9.93877 7.06929L10.265 7.11254L10.8175 8.66589L10.8587 8.67917C11.0634 8.75006 11.2621 8.83189 11.4542 8.92443L11.4841 8.94051L12.9714 8.23358L13.2326 8.4328C13.7356 8.81652 14.1841 9.26473 14.5654 9.76576L14.7642 10.0269L14.0569 11.5111L14.1629 11.737C14.22 11.8681 14.2722 12.002 14.3196 12.1386L14.3315 12.1799L15.8853 12.7324L15.9294 13.0574C15.9759 13.3995 16 13.7012 16 14C16 14.2988 15.9759 14.6005 15.9294 14.9426L15.8853 15.2676L14.3315 15.8199L14.3196 15.8614C14.2486 16.0662 14.1666 16.2652 14.0737 16.4574L14.0569 16.4887L14.7642 17.9731L14.5654 18.2342C14.1841 18.7353 13.7356 19.1835 13.2326 19.5672L12.9714 19.7664L11.4852 19.0593L11.4542 19.0756C11.2621 19.1681 11.0634 19.2499 10.8587 19.3208L10.8175 19.3328L10.2654 20.8851L9.94075 20.9294C9.60016 20.9758 9.29812 21 9 21C8.70029 21 8.3977 20.9759 8.0544 20.9294L7.72924 20.8854L7.17645 19.3317L6.93548 19.2454C6.80229 19.1934 6.67168 19.1365 6.54381 19.0747L6.51091 19.0582L5.02664 19.764L4.76576 19.5654C4.26475 19.1841 3.81659 18.7357 3.43183 18.2316L3.23245 17.9704L3.93922 16.4833L3.92376 16.4534C3.83158 16.2621 3.74996 16.0641 3.67921 15.8607L3.66675 15.821L2.11237 15.2682L2.06925 14.9417C2.02364 14.5964 2 14.2966 2 14C2 13.7027 2.02355 13.4043 2.06925 13.0583L2.11237 12.7318L3.66568 12.1788L3.75357 11.9377C3.80554 11.8046 3.8623 11.6741 3.92376 11.5466L3.93922 11.5154L3.23262 10.0299L3.43147 9.76884C3.81589 9.26407 4.26406 8.81531 4.76576 8.43351L5.02682 8.23483L6.51198 8.94051L6.73765 8.83629C6.86822 8.77938 7.00145 8.72731 7.13717 8.68014L7.17645 8.66697L7.72924 7.11456L8.0544 7.07056ZM9 16.625C10.4497 16.625 11.625 15.4497 11.625 14C11.625 12.5503 10.4497 11.375 9 11.375C7.55025 11.375 6.375 12.5503 6.375 14C6.375 15.4497 7.55025 16.625 9 16.625Z" fill="#2B2B2C"/>
</svg>
