<svg width="18" height="18" viewBox="0 0 18 18" fill="none" xmlns="http://www.w3.org/2000/svg">
<path fill-rule="evenodd" clip-rule="evenodd" d="M10.4458 1.12862L11.0772 2.90388L11.1243 2.91906C11.3581 3.00007 11.5853 3.09359 11.8048 3.19935L11.839 3.21772L13.5387 2.4098L13.8372 2.63748C14.4121 3.07602 14.9247 3.58826 15.3605 4.16086L15.5876 4.45932L14.7793 6.15557L14.9005 6.41373C14.9657 6.56355 15.0254 6.71663 15.0795 6.87272L15.0932 6.91988L16.8689 7.55132L16.9193 7.9227C16.9724 8.31376 17 8.65849 17 9C17 9.34151 16.9724 9.68624 16.9193 10.0773L16.8689 10.4487L15.0932 11.0799L15.0795 11.1273C14.9983 11.3614 14.9046 11.5888 14.7985 11.8085L14.7793 11.8442L15.5876 13.5407L15.3605 13.8391C14.9247 14.4117 14.4121 14.924 13.8372 15.3625L13.5387 15.5902L11.8402 14.782L11.8048 14.8006C11.5853 14.9064 11.3581 14.9999 11.1243 15.0809L11.0772 15.0946L10.4462 16.8687L10.0751 16.9193C9.6859 16.9724 9.34071 17 9 17C8.65747 17 8.31166 16.9725 7.91931 16.9194L7.5477 16.8691L6.91594 15.0934L6.64054 14.9948C6.48833 14.9353 6.33906 14.8702 6.19293 14.7997L6.15532 14.7808L4.45902 15.5874L4.16086 15.3605C3.58829 14.9247 3.0761 14.4122 2.63638 13.8362L2.40851 13.5376L3.21625 11.838L3.19858 11.8039C3.09323 11.5852 2.99995 11.359 2.9191 11.1265L2.90486 11.0811L1.12842 10.4494L1.07914 10.0763C1.02702 9.68159 1 9.33895 1 9C1 8.66023 1.02692 8.31915 1.07914 7.92373L1.12842 7.55061L2.90363 6.91865L3.00408 6.64313C3.06348 6.49102 3.12835 6.34188 3.19858 6.19607L3.21625 6.16049L2.40871 4.46278L2.63596 4.16438C3.0753 3.58751 3.58749 3.07464 4.16086 2.6383L4.45922 2.41124L6.15655 3.21772L6.41445 3.09861C6.56368 3.03357 6.71594 2.97407 6.87105 2.92016L6.91594 2.90511L7.5477 1.13093L7.91931 1.08064C8.31166 1.02754 8.65747 1 9 1C9.33794 1 9.6795 1.02703 10.0729 1.07918L10.4458 1.12862ZM10.3005 3.70424L10.8068 3.86738C10.9948 3.93293 11.1768 4.00769 11.352 4.0913L11.8119 4.33783L13.4133 3.57663C13.7833 3.87844 14.1208 4.21583 14.4207 4.58361L13.6731 6.15234L13.989 6.82529C14.0385 6.93985 14.0844 7.05706 14.1265 7.17679L14.2752 7.69035L15.9572 8.28846C15.9862 8.54803 16 8.77781 16 9C16 9.22217 15.9862 9.45192 15.9572 9.71146L14.2744 10.3096L14.1263 10.8238C14.0619 11.0068 13.9887 11.184 13.9071 11.3548L13.6585 11.8167L14.4207 13.4164C14.1209 13.7841 13.7834 14.1214 13.4135 14.4232L11.8185 13.6643L11.356 13.9068C11.1835 13.9893 11.0046 14.0631 10.8198 14.1281L10.3065 14.2774L9.709 15.9572C9.45074 15.9862 9.22123 16 9 16C8.77661 16 8.5456 15.9861 8.28462 15.957L7.69924 14.3117L6.99178 14.0584C6.87007 14.0105 6.7509 13.9584 6.63437 13.9024L6.16722 13.6679L4.58375 14.4208C4.21582 14.1208 3.87814 13.783 3.5754 13.412L4.33256 11.8188L4.09348 11.3574C4.00948 11.1818 3.93434 10.9998 3.86848 10.812L3.7098 10.306L2.04236 9.71305C2.01362 9.45044 2 9.22115 2 9C2 8.7781 2.01358 8.54949 2.04237 8.28673L3.68205 7.70301L3.93954 6.99676C3.98797 6.87347 4.0405 6.75288 4.09701 6.63523L4.32809 6.16992L3.57543 4.58756C3.8779 4.21616 4.21562 3.87807 4.5841 3.57772L6.15053 4.322L6.8235 4.0112C6.94447 3.95875 7.06813 3.91048 7.19437 3.86646L7.69487 3.69867L8.28444 2.04298C8.5455 2.01388 8.77656 2 9 2C9.22001 2 9.44811 2.01359 9.70935 2.04226L10.3005 3.70424ZM11 9C11 10.1046 10.1046 11 9 11C7.89543 11 7 10.1046 7 9C7 7.89543 7.89543 7 9 7C10.1046 7 11 7.89543 11 9ZM12 9C12 10.6569 10.6569 12 9 12C7.34315 12 6 10.6569 6 9C6 7.34315 7.34315 6 9 6C10.6569 6 12 7.34315 12 9Z" fill="#2B2B2C"/>
</svg>
