<svg width="30" height="30" viewBox="0 0 30 30" fill="none" xmlns="http://www.w3.org/2000/svg">
<path fill-rule="evenodd" clip-rule="evenodd" d="M26 15C26 21.0751 21.0751 26 15 26C8.92487 26 4 21.0751 4 15C4 8.92487 8.92487 4 15 4C21.0751 4 26 8.92487 26 15ZM27 15C27 21.6274 21.6274 27 15 27C8.37258 27 3 21.6274 3 15C3 8.37258 8.37258 3 15 3C21.6274 3 27 8.37258 27 15ZM15.5 6.5C15.5 6.22386 15.2761 6 15 6C14.7239 6 14.5 6.22386 14.5 6.5V15C14.5 15.1326 14.5527 15.2598 14.6464 15.3536L18.1464 18.8536C18.3417 19.0488 18.6583 19.0488 18.8536 18.8536C19.0488 18.6583 19.0488 18.3417 18.8536 18.1464L15.5 14.7929V6.5ZM9.50001 9C9.50001 9.27614 9.27615 9.5 9.00001 9.5C8.72387 9.5 8.50001 9.27614 8.50001 9C8.50001 8.72386 8.72387 8.5 9.00001 8.5C9.27615 8.5 9.50001 8.72386 9.50001 9ZM9.50001 21C9.50001 21.2761 9.27615 21.5 9.00001 21.5C8.72387 21.5 8.50001 21.2761 8.50001 21C8.50001 20.7239 8.72387 20.5 9.00001 20.5C9.27615 20.5 9.50001 20.7239 9.50001 21ZM21 21.5C21.2761 21.5 21.5 21.2761 21.5 21C21.5 20.7239 21.2761 20.5 21 20.5C20.7239 20.5 20.5 20.7239 20.5 21C20.5 21.2761 20.7239 21.5 21 21.5ZM21.5 9C21.5 9.27614 21.2761 9.5 21 9.5C20.7239 9.5 20.5 9.27614 20.5 9C20.5 8.72386 20.7239 8.5 21 8.5C21.2761 8.5 21.5 8.72386 21.5 9ZM5.5 14.5C5.22386 14.5 5 14.7239 5 15C5 15.2761 5.22386 15.5 5.5 15.5H6.5C6.77614 15.5 7 15.2761 7 15C7 14.7239 6.77614 14.5 6.5 14.5H5.5ZM23.5 14.5C23.2239 14.5 23 14.7239 23 15C23 15.2761 23.2239 15.5 23.5 15.5H24.5C24.7761 15.5 25 15.2761 25 15C25 14.7239 24.7761 14.5 24.5 14.5H23.5ZM15.5 23.5C15.5 23.2239 15.2761 23 15 23C14.7239 23 14.5 23.2239 14.5 23.5V24.5C14.5 24.7761 14.7239 25 15 25C15.2761 25 15.5 24.7761 15.5 24.5V23.5Z" fill="#2B2B2C"/>
</svg>
