<svg width="30" height="30" viewBox="0 0 30 30" fill="none" xmlns="http://www.w3.org/2000/svg">
<path fill-rule="evenodd" clip-rule="evenodd" d="M27 15C27 21.6274 21.6274 27 15 27C8.37258 27 3 21.6274 3 15C3 8.37258 8.37258 3 15 3C21.6274 3 27 8.37258 27 15ZM15 5C15.2761 5 15.5 5.22386 15.5 5.5V14.7929L19.3536 18.6464C19.378 18.6709 19.3993 18.6972 19.4176 18.7249C19.5458 18.919 19.5244 19.1827 19.3536 19.3536C19.1583 19.5488 18.8417 19.5488 18.6464 19.3536L14.6464 15.3536C14.6462 15.3533 14.6459 15.353 14.6456 15.3527C14.6342 15.3413 14.6234 15.3293 14.6132 15.3169C14.5403 15.2279 14.5 15.116 14.5 15V5.5C14.5 5.22386 14.7239 5 15 5ZM8.5 9.00001C8.77614 9.00001 9 8.77615 9 8.50001C9 8.22387 8.77614 8.00001 8.5 8.00001C8.22386 8.00001 8 8.22387 8 8.50001C8 8.77615 8.22386 9.00001 8.5 9.00001ZM8.5 22C8.77614 22 9 21.7761 9 21.5C9 21.2239 8.77614 21 8.5 21C8.22386 21 8 21.2239 8 21.5C8 21.7761 8.22386 22 8.5 22ZM22 21.5C22 21.7761 21.7761 22 21.5 22C21.2239 22 21 21.7761 21 21.5C21 21.2239 21.2239 21 21.5 21C21.7761 21 22 21.2239 22 21.5ZM21.5 9.00001C21.7761 9.00001 22 8.77615 22 8.50001C22 8.22387 21.7761 8.00001 21.5 8.00001C21.2239 8.00001 21 8.22387 21 8.50001C21 8.77615 21.2239 9.00001 21.5 9.00001ZM5 15C5 14.7239 5.22386 14.5 5.5 14.5H6.5C6.77614 14.5 7 14.7239 7 15C7 15.2761 6.77614 15.5 6.5 15.5H5.5C5.22386 15.5 5 15.2761 5 15ZM23 15C23 14.7239 23.2239 14.5 23.5 14.5H24.5C24.7761 14.5 25 14.7239 25 15C25 15.2761 24.7761 15.5 24.5 15.5H23.5C23.2239 15.5 23 15.2761 23 15ZM15 23C15.2761 23 15.5 23.2239 15.5 23.5V24.5C15.5 24.7761 15.2761 25 15 25C14.7239 25 14.5 24.7761 14.5 24.5V23.5C14.5 23.2239 14.7239 23 15 23Z" fill="#2B2B2C"/>
</svg>
