<svg width="24" height="24" viewBox="0 0 24 24" fill="none" xmlns="http://www.w3.org/2000/svg">
<path fill-rule="evenodd" clip-rule="evenodd" d="M5.56493 10.0777C6.01278 6.92468 8.72323 4.5 12 4.5C14.4053 4.5 16.5061 5.8062 17.6307 7.75036C17.769 7.98939 18.0749 8.07107 18.3139 7.9328C18.5529 7.79453 18.6346 7.48867 18.4963 7.24964C17.2003 5.00919 14.7767 3.5 12 3.5C8.23977 3.5 5.12586 6.26722 4.58362 9.87631L3.35355 8.64624C3.15829 8.45098 2.84171 8.45098 2.64645 8.64624C2.45118 8.8415 2.45118 9.15809 2.64645 9.35335L4.92249 11.6294L7.75725 9.92854C7.99404 9.78647 8.07082 9.47934 7.92875 9.24255C7.78667 9.00576 7.47954 8.92897 7.24275 9.07105L5.56493 10.0777ZM20.6464 15.3538C20.8417 15.549 21.1583 15.549 21.3536 15.3538C21.5488 15.1585 21.5488 14.8419 21.3536 14.6467L19.0775 12.3706L16.2428 14.0715C16.006 14.2135 15.9292 14.5207 16.0713 14.7575C16.2133 14.9942 16.5205 15.071 16.7572 14.929L18.4351 13.9223C17.9872 17.0753 15.2768 19.5 12 19.5C9.59472 19.5 7.49392 18.1938 6.36929 16.2496C6.23102 16.0106 5.92515 15.9289 5.68612 16.0672C5.44709 16.2055 5.36541 16.5113 5.50368 16.7504C6.79971 18.9908 9.22332 20.5 12 20.5C15.7602 20.5 18.8741 17.7328 19.4164 14.1237L20.6464 15.3538Z" fill="#2B2B2C"/>
</svg>
