<svg width="18" height="18" viewBox="0 0 18 18" fill="none" xmlns="http://www.w3.org/2000/svg">
<path d="M2.75 15C2.75 15.4142 2.41421 15.75 2 15.75C1.58579 15.75 1.25 15.4142 1.25 15L1.25 3C1.25 2.58579 1.58579 2.25 2 2.25C2.41421 2.25 2.75 2.58579 2.75 3L2.75 15Z" fill="#2B2B2C"/>
<path d="M7.46973 5.46975C7.76269 5.17715 8.23754 5.177 8.53027 5.46975C8.82287 5.76271 8.82302 6.23756 8.53027 6.5303L6.8125 8.24612L15 8.24612C15.4142 8.24612 15.7499 8.58197 15.75 8.99612C15.75 9.41033 15.4142 9.74612 15 9.74612L6.80859 9.74612L8.53027 11.4697C8.82287 11.7627 8.82302 12.2376 8.53027 12.5303C8.23731 12.8229 7.76246 12.823 7.46973 12.5303L3.93945 8.99514L7.46973 5.46975Z" fill="#2B2B2C"/>
</svg>
