<svg width="30" height="30" viewBox="0 0 30 30" fill="none" xmlns="http://www.w3.org/2000/svg">
<path d="M24.5 25C24.5 25.2761 24.7239 25.5 25 25.5C25.2761 25.5 25.5 25.2761 25.5 25L25.5 5C25.5 4.72387 25.2761 4.5 25 4.5C24.7239 4.5 24.5 4.72387 24.5 5L24.5 25Z" fill="#2B2B2C"/>
<path d="M15.3535 9.64646C15.1582 9.45139 14.8416 9.4513 14.6465 9.64646C14.4514 9.84177 14.4513 10.1583 14.6465 10.3535L18.792 14.4941L3 14.4941C2.72386 14.4941 2.5 14.718 2.5 14.9941C2.50021 15.2701 2.72399 15.4941 3 15.4941L18.7939 15.4941L14.6465 19.6465C14.4514 19.8418 14.4513 20.1583 14.6465 20.3535C14.8418 20.5486 15.1584 20.5487 15.3535 20.3535L20.707 14.9931L15.3535 9.64646Z" fill="#2B2B2C"/>
</svg>
