<svg width="24" height="24" viewBox="0 0 24 24" fill="none" xmlns="http://www.w3.org/2000/svg">
<path d="M3.875 20C3.875 20.4832 3.48325 20.875 3 20.875C2.51675 20.875 2.125 20.4832 2.125 20L2.125 4C2.125 3.51675 2.51675 3.125 3 3.125C3.48325 3.125 3.875 3.51675 3.875 4L3.875 20Z" fill="#2B2B2C"/>
<path d="M10.3818 7.38087C10.7238 7.03947 11.2777 7.03995 11.6191 7.38184C11.9605 7.72377 11.9601 8.27769 11.6182 8.61915L9.11426 11.1201L20.5 11.1201C20.9832 11.1201 21.375 11.5119 21.375 11.9951C21.3749 12.4783 20.9832 12.8701 20.5 12.8701L9.11035 12.8701L11.6191 15.3818C11.9605 15.7238 11.9601 16.2777 11.6182 16.6191C11.2762 16.9605 10.7223 16.9601 10.3809 16.6182L5.76269 11.9941L10.3818 7.38087Z" fill="#2B2B2C"/>
</svg>
