<svg width="30" height="30" viewBox="0 0 30 30" fill="none" xmlns="http://www.w3.org/2000/svg">
<path d="M4 25C4 25.5523 3.55229 26 3 26C2.44772 26 2 25.5523 2 25L2 5C2 4.44772 2.44772 4 3 4C3.55228 4 4 4.44772 4 5L4 25Z" fill="#2B2B2C"/>
<path d="M12.293 9.29202C12.6837 8.90178 13.3177 8.90224 13.708 9.29299C14.0982 9.68377 14.0978 10.3178 13.707 10.708L10.416 13.9942L25 13.9942C25.5523 13.9942 26 14.4419 26 14.9942C25.9998 15.5463 25.5522 15.9942 25 15.9942L10.4131 15.9942L13.708 19.293C14.0982 19.6838 14.0978 20.3178 13.707 20.708C13.3163 21.0983 12.6823 21.0978 12.292 20.7071L6.58594 14.9932L12.293 9.29202Z" fill="#2B2B2C"/>
</svg>
