<svg width="18" height="18" viewBox="0 0 18 18" fill="none" xmlns="http://www.w3.org/2000/svg">
<path d="M14.25 15C14.25 15.4142 14.5858 15.75 15 15.75C15.4142 15.75 15.75 15.4142 15.75 15L15.75 3C15.75 2.58579 15.4142 2.25 15 2.25C14.5858 2.25 14.25 2.58579 14.25 3L14.25 15Z" fill="#2B2B2C"/>
<path d="M9.53027 5.46975C9.23731 5.17715 8.76246 5.177 8.46973 5.46975C8.17713 5.76271 8.17698 6.23756 8.46973 6.5303L10.1875 8.24612L2 8.24612C1.58584 8.24612 1.25008 8.58197 1.25 8.99612C1.25 9.41033 1.58579 9.74612 2 9.74612L10.1914 9.74612L8.46973 11.4697C8.17713 11.7627 8.17698 12.2376 8.46973 12.5303C8.76269 12.8229 9.23754 12.823 9.53027 12.5303L13.0605 8.99514L9.53027 5.46975Z" fill="#2B2B2C"/>
</svg>
