<svg width="24" height="24" viewBox="0 0 24 24" fill="none" xmlns="http://www.w3.org/2000/svg">
<path d="M20.25 20C20.25 20.2761 20.4739 20.5 20.75 20.5C21.0261 20.5 21.25 20.2761 21.25 20L21.25 4C21.25 3.72387 21.0261 3.5 20.75 3.5C20.4739 3.5 20.25 3.72387 20.25 4L20.25 20Z" fill="#2B2B2C"/>
<path d="M13.1035 7.64646C12.9082 7.45139 12.5916 7.4513 12.3965 7.64646C12.2014 7.84177 12.2013 8.15833 12.3965 8.35349L15.542 11.4951L3.25 11.4951C2.97386 11.4951 2.75 11.7189 2.75 11.9951C2.75007 12.2712 2.9739 12.4951 3.25 12.4951L15.5439 12.4951L12.3965 15.6465C12.2014 15.8418 12.2013 16.1583 12.3965 16.3535C12.5918 16.5486 12.9084 16.5487 13.1035 16.3535L17.457 11.9941L13.1035 7.64646Z" fill="#2B2B2C"/>
</svg>
