<svg width="30" height="30" viewBox="0 0 30 30" fill="none" xmlns="http://www.w3.org/2000/svg">
<path d="M24 25C24 25.5523 24.4477 26 25 26C25.5523 26 26 25.5523 26 25L26 5C26 4.44773 25.5523 4 25 4C24.4477 4 24 4.44773 24 5L24 25Z" fill="#2B2B2C"/>
<path d="M15.707 9.29202C15.3163 8.90178 14.6823 8.90224 14.292 9.29299C13.9018 9.68377 13.9022 10.3178 14.293 10.708L17.584 13.9942L3 13.9942C2.44772 13.9942 2 14.4419 2 14.9942C2.00021 15.5463 2.44785 15.9942 3 15.9942L17.5869 15.9942L14.292 19.293C13.9018 19.6838 13.9022 20.3178 14.293 20.708C14.6837 21.0983 15.3177 21.0978 15.708 20.7071L21.4141 14.9932L15.707 9.29202Z" fill="#2B2B2C"/>
</svg>
