<svg width="18" height="18" viewBox="0 0 18 18" fill="none" xmlns="http://www.w3.org/2000/svg">
<path d="M3 15C3 15.2761 2.77614 15.5 2.5 15.5C2.22386 15.5 2 15.2761 2 15L2 3C2 2.72386 2.22386 2.5 2.5 2.5C2.77614 2.5 3 2.72386 3 3L3 15Z" fill="#2B2B2C"/>
<path d="M8.14648 5.64646C8.34179 5.45139 8.65836 5.4513 8.85352 5.64646C9.04858 5.84177 9.04868 6.15833 8.85352 6.35349L6.70703 8.49607L15.5 8.49997C15.7761 8.50008 16 8.72392 16 8.99997C15.9999 9.27605 15.7761 9.49998 15.5 9.49997L6.70605 9.49607L8.85352 11.6465C9.04858 11.8418 9.04868 12.1583 8.85352 12.3535C8.6582 12.5486 8.34164 12.5487 8.14648 12.3535L4.79297 8.99607L8.14648 5.64646Z" fill="#2B2B2C"/>
</svg>
