<svg width="30" height="30" viewBox="0 0 30 30" fill="none" xmlns="http://www.w3.org/2000/svg">
<path d="M3.5 25C3.5 25.2761 3.27614 25.5 3 25.5C2.72386 25.5 2.5 25.2761 2.5 25L2.5 5C2.5 4.72386 2.72386 4.5 3 4.5C3.27614 4.5 3.5 4.72386 3.5 5L3.5 25Z" fill="#2B2B2C"/>
<path d="M12.6465 9.64646C12.8418 9.45139 13.1584 9.4513 13.3535 9.64646C13.5486 9.84177 13.5487 10.1583 13.3535 10.3535L9.20801 14.4941L25 14.4941C25.2761 14.4941 25.5 14.718 25.5 14.9941C25.4998 15.2701 25.276 15.4941 25 15.4941L9.20605 15.4941L13.3535 19.6465C13.5486 19.8418 13.5487 20.1583 13.3535 20.3535C13.1582 20.5486 12.8416 20.5487 12.6465 20.3535L7.29297 14.9931L12.6465 9.64646Z" fill="#2B2B2C"/>
</svg>
