<svg width="24" height="24" viewBox="0 0 24 24" fill="none" xmlns="http://www.w3.org/2000/svg">
<path d="M19.625 20C19.625 20.4832 20.0168 20.875 20.5 20.875C20.9832 20.875 21.375 20.4832 21.375 20L21.375 4C21.375 3.51675 20.9832 3.125 20.5 3.125C20.0168 3.125 19.625 3.51675 19.625 4L19.625 20Z" fill="#2B2B2C"/>
<path d="M13.1182 7.38087C12.7762 7.03947 12.2223 7.03995 11.8809 7.38184C11.5395 7.72377 11.5399 8.27769 11.8818 8.61915L14.3857 11.1201L3 11.1201C2.51675 11.1201 2.125 11.5119 2.125 11.9951C2.12507 12.4783 2.51679 12.8701 3 12.8701L14.3896 12.8701L11.8809 15.3818C11.5395 15.7238 11.5399 16.2777 11.8818 16.6191C12.2238 16.9605 12.7777 16.9601 13.1191 16.6182L17.7373 11.9941L13.1182 7.38087Z" fill="#2B2B2C"/>
</svg>
