<svg width="24" height="24" viewBox="0 0 24 24" fill="none" xmlns="http://www.w3.org/2000/svg">
<path d="M3.75 20C3.75 20.2761 3.52614 20.5 3.25 20.5C2.97386 20.5 2.75 20.2761 2.75 20L2.75 4C2.75 3.72386 2.97386 3.5 3.25 3.5C3.52614 3.5 3.75 3.72386 3.75 4L3.75 20Z" fill="#2B2B2C"/>
<path d="M10.8965 7.64646C11.0918 7.45139 11.4084 7.4513 11.6035 7.64646C11.7986 7.84177 11.7987 8.15833 11.6035 8.35349L8.45801 11.4951L20.75 11.4951C21.0261 11.4951 21.25 11.7189 21.25 11.9951C21.2499 12.2712 21.0261 12.4951 20.75 12.4951L8.45605 12.4951L11.6035 15.6465C11.7986 15.8418 11.7987 16.1583 11.6035 16.3535C11.4082 16.5486 11.0916 16.5487 10.8965 16.3535L6.54297 11.9941L10.8965 7.64646Z" fill="#2B2B2C"/>
</svg>
