<svg width="18" height="18" viewBox="0 0 18 18" fill="none" xmlns="http://www.w3.org/2000/svg">
<path d="M15 15C15 15.2761 15.2239 15.5 15.5 15.5C15.7761 15.5 16 15.2761 16 15L16 3C16 2.72387 15.7761 2.5 15.5 2.5C15.2239 2.5 15 2.72387 15 3L15 15Z" fill="#2B2B2C"/>
<path d="M9.85352 5.64646C9.65821 5.45139 9.34164 5.4513 9.14648 5.64646C8.95142 5.84177 8.95132 6.15833 9.14648 6.35349L11.292 8.49607L2.5 8.49607C2.2239 8.49607 2.00007 8.71998 2 8.99607C2 9.27221 2.22386 9.49607 2.5 9.49607L11.2939 9.49607L9.14648 11.6465C8.95142 11.8418 8.95132 12.1583 9.14648 12.3535C9.3418 12.5486 9.65836 12.5487 9.85352 12.3535L13.207 8.99607L9.85352 5.64646Z" fill="#2B2B2C"/>
</svg>
