<svg width="30" height="30" viewBox="0 0 30 30" fill="none" xmlns="http://www.w3.org/2000/svg">
<path d="M16 25C16 25.2761 15.7761 25.5 15.5 25.5C15.2239 25.5 15 25.2761 15 25L15 5C15 4.72386 15.2239 4.5 15.5 4.5C15.7761 4.5 16 4.72386 16 5V25Z" fill="#2B2B2C"/>
<path d="M23.9033 9.64649C24.0988 9.45153 24.4153 9.45114 24.6104 9.64649C24.8053 9.84192 24.8046 10.1585 24.6094 10.3535L20.459 14.4941L28 14.4941C28.2761 14.4941 28.5 14.718 28.5 14.9941C28.4998 15.2701 28.276 15.4941 28 15.4941L20.457 15.4941L24.6094 19.6465C24.8046 19.8418 24.8046 20.1583 24.6094 20.3535C24.4141 20.5486 24.0975 20.5487 23.9023 20.3535L18.542 14.9932L23.9033 9.64649Z" fill="#2B2B2C"/>
<path d="M7.10352 9.64646C6.90821 9.45139 6.59164 9.4513 6.39648 9.64646C6.20142 9.84177 6.20132 10.1583 6.39648 10.3535L10.542 14.4941L3 14.4941C2.72386 14.4941 2.5 14.718 2.5 14.9941C2.50021 15.2701 2.72399 15.4941 3 15.4941L10.5439 15.4941L6.39649 19.6465C6.20142 19.8418 6.20132 20.1583 6.39649 20.3535C6.5918 20.5486 6.90836 20.5487 7.10352 20.3535L12.457 14.9931L7.10352 9.64646Z" fill="#2B2B2C"/>
</svg>
