<svg width="30" height="30" viewBox="0 0 30 30" fill="none" xmlns="http://www.w3.org/2000/svg">
<g clip-path="url(#clip0_4960_27)">
<path fill-rule="evenodd" clip-rule="evenodd" d="M25.5 13C25.5 13.5523 25.0523 14 24.5 14H17C16.4477 14 16 13.5523 16 13V5.5C16 4.94772 16.4477 4.5 17 4.5C17.5523 4.5 18 4.94772 18 5.5V10.5858L24.7929 3.79289C25.1834 3.40237 25.8166 3.40237 26.2071 3.79289C26.5976 4.18342 26.5976 4.81658 26.2071 5.20711L19.4142 12H24.5C25.0523 12 25.5 12.4477 25.5 13Z" fill="#2B2B2C"/>
<path fill-rule="evenodd" clip-rule="evenodd" d="M4.5 17C4.5 16.4477 4.94771 16 5.5 16L13 16C13.5523 16 14 16.4477 14 17V24.5C14 25.0523 13.5523 25.5 13 25.5C12.4477 25.5 12 25.0523 12 24.5L12 19.4142L5.20711 26.2071C4.81658 26.5976 4.18342 26.5976 3.79289 26.2071C3.40237 25.8166 3.40237 25.1834 3.79289 24.7929L10.5858 18L5.5 18C4.94771 18 4.5 17.5523 4.5 17Z" fill="#2B2B2C"/>
</g>
<defs>
<clipPath id="clip0_4960_27">
<rect width="30" height="30" fill="white"/>
</clipPath>
</defs>
</svg>
