<svg width="24" height="24" viewBox="0 0 24 24" fill="none" xmlns="http://www.w3.org/2000/svg">
<g clip-path="url(#clip0_4960_29)">
<path fill-rule="evenodd" clip-rule="evenodd" d="M20 10.5C20 10.7761 19.7761 11 19.5 11H13.5C13.2239 11 13 10.7761 13 10.5V4.5C13 4.22386 13.2239 4 13.5 4C13.7761 4 14 4.22386 14 4.5V9.29289L20.1464 3.14645C20.3417 2.95118 20.6583 2.95118 20.8536 3.14645C21.0488 3.34171 21.0488 3.65829 20.8536 3.85355L14.7071 10H19.5C19.7761 10 20 10.2239 20 10.5Z" fill="#2B2B2C"/>
<path fill-rule="evenodd" clip-rule="evenodd" d="M4.5 13H10.5C10.6326 13 10.7598 13.0527 10.8536 13.1464C10.9473 13.2402 11 13.3674 11 13.5V19.5C11 19.7761 10.7761 20 10.5 20C10.2239 20 10 19.7761 10 19.5V14.7071L3.85355 20.8536C3.65829 21.0488 3.34171 21.0488 3.14645 20.8536C2.95118 20.6583 2.95118 20.3417 3.14645 20.1464L9.29289 14H4.5C4.22386 14 4 13.7761 4 13.5C4 13.2239 4.22386 13 4.5 13Z" fill="#2B2B2C"/>
</g>
<defs>
<clipPath id="clip0_4960_29">
<rect width="24" height="24" fill="white"/>
</clipPath>
</defs>
</svg>
