<svg width="24" height="24" viewBox="0 0 24 24" fill="none" xmlns="http://www.w3.org/2000/svg">
<g clip-path="url(#clip0_4960_31)">
<path fill-rule="evenodd" clip-rule="evenodd" d="M19.875 10.5C19.875 10.9832 19.4833 11.375 19 11.375H13.5C13.0168 11.375 12.625 10.9832 12.625 10.5V5C12.625 4.51675 13.0168 4.125 13.5 4.125C13.9833 4.125 14.375 4.51675 14.375 5V8.38756L19.3813 3.38128C19.723 3.03957 20.277 3.03957 20.6187 3.38128C20.9604 3.72299 20.9604 4.27701 20.6187 4.61872L15.6124 9.625H19C19.4833 9.625 19.875 10.0168 19.875 10.5Z" fill="#2B2B2C"/>
<path fill-rule="evenodd" clip-rule="evenodd" d="M5 12.625H10.5C10.7321 12.625 10.9546 12.7172 11.1187 12.8813C11.2828 13.0454 11.375 13.2679 11.375 13.5V19C11.375 19.4832 10.9832 19.875 10.5 19.875C10.0167 19.875 9.625 19.4832 9.625 19V15.6124L4.61872 20.6187C4.27701 20.9604 3.72299 20.9604 3.38128 20.6187C3.03957 20.277 3.03957 19.723 3.38128 19.3813L8.38756 14.375H5C4.51675 14.375 4.125 13.9832 4.125 13.5C4.125 13.0168 4.51675 12.625 5 12.625Z" fill="#2B2B2C"/>
</g>
<defs>
<clipPath id="clip0_4960_31">
<rect width="24" height="24" fill="white"/>
</clipPath>
</defs>
</svg>
