<svg width="30" height="30" viewBox="0 0 30 30" fill="none" xmlns="http://www.w3.org/2000/svg">
<g clip-path="url(#clip0_4960_25)">
<path fill-rule="evenodd" clip-rule="evenodd" d="M25 13C25 13.2761 24.7761 13.5 24.5 13.5H17C16.7239 13.5 16.5 13.2761 16.5 13V5.5C16.5 5.22386 16.7239 5 17 5C17.2761 5 17.5 5.22386 17.5 5.5V11.7929L25.1464 4.14645C25.3417 3.95118 25.6583 3.95118 25.8536 4.14645C26.0488 4.34171 26.0488 4.65829 25.8536 4.85355L18.2071 12.5H24.5C24.7761 12.5 25 12.7239 25 13Z" fill="#2B2B2C"/>
<path fill-rule="evenodd" clip-rule="evenodd" d="M5 17C5 16.7239 5.22386 16.5 5.5 16.5L13 16.5C13.2761 16.5 13.5 16.7239 13.5 17V24.5C13.5 24.7761 13.2761 25 13 25C12.7239 25 12.5 24.7761 12.5 24.5V18.2071L4.85355 25.8536C4.65829 26.0488 4.34171 26.0488 4.14645 25.8536C3.95118 25.6583 3.95118 25.3417 4.14645 25.1464L11.7929 17.5L5.5 17.5C5.22386 17.5 5 17.2761 5 17Z" fill="#2B2B2C"/>
</g>
<defs>
<clipPath id="clip0_4960_25">
<rect width="30" height="30" fill="white"/>
</clipPath>
</defs>
</svg>
