<svg width="30" height="30" viewBox="0 0 30 30" fill="none" xmlns="http://www.w3.org/2000/svg">
<path d="M16.5 25C16.5 25.5523 16.0523 26 15.5 26C14.9477 26 14.5 25.5523 14.5 25L14.5 5C14.5 4.44772 14.9477 4 15.5 4C16.0523 4 16.5 4.44772 16.5 5V25Z" fill="#2B2B2C"/>
<path d="M23.5498 9.29199C23.9408 8.90199 24.5738 8.90303 24.9639 9.29394C25.3538 9.68489 25.3537 10.318 24.9629 10.708L21.668 13.9941L28 13.9941C28.5523 13.9941 29 14.4419 29 14.9941C28.9998 15.5462 28.5522 15.9941 28 15.9941L21.6641 15.9941L24.9629 19.293C25.3534 19.6835 25.3534 20.3165 24.9629 20.707C24.5723 21.0974 23.9393 21.0975 23.5488 20.707L17.835 14.9932L23.5498 9.29199Z" fill="#2B2B2C"/>
<path d="M7.45703 9.29202C7.06626 8.90178 6.43226 8.90224 6.04199 9.29299C5.65176 9.68377 5.65222 10.3178 6.04297 10.708L9.33398 13.9942L3 13.9942C2.44772 13.9942 2 14.4419 2 14.9942C2.00021 15.5463 2.44785 15.9942 3 15.9942L9.33691 15.9942L6.04199 19.293C5.65176 19.6838 5.65222 20.3178 6.04297 20.708C6.43374 21.0983 7.06774 21.0978 7.45801 20.7071L13.1641 14.9932L7.45703 9.29202Z" fill="#2B2B2C"/>
</svg>
