<svg width="18" height="18" viewBox="0 0 18 18" fill="none" xmlns="http://www.w3.org/2000/svg">
<g clip-path="url(#clip0_4960_35)">
<path fill-rule="evenodd" clip-rule="evenodd" d="M15.75 7.5C15.75 7.91421 15.4142 8.25 15 8.25H10.5C10.0858 8.25 9.75 7.91421 9.75 7.5V3C9.75 2.58579 10.0858 2.25 10.5 2.25C10.9142 2.25 11.25 2.58579 11.25 3V5.68934L14.9697 1.96967C15.2626 1.67678 15.7374 1.67678 16.0303 1.96967C16.3232 2.26256 16.3232 2.73744 16.0303 3.03033L12.3107 6.75H15C15.4142 6.75 15.75 7.08579 15.75 7.5Z" fill="#2B2B2C"/>
<path fill-rule="evenodd" clip-rule="evenodd" d="M3 9.75H7.5C7.91421 9.75 8.25 10.0858 8.25 10.5V15C8.25 15.4142 7.91421 15.75 7.5 15.75C7.08579 15.75 6.75 15.4142 6.75 15V12.3107L3.03033 16.0303C2.73744 16.3232 2.26256 16.3232 1.96967 16.0303C1.67678 15.7374 1.67678 15.2626 1.96967 14.9697L5.68934 11.25H3C2.58579 11.25 2.25 10.9142 2.25 10.5C2.25 10.0858 2.58579 9.75 3 9.75Z" fill="#2B2B2C"/>
</g>
<defs>
<clipPath id="clip0_4960_35">
<rect width="18" height="18" fill="white"/>
</clipPath>
</defs>
</svg>
