<svg width="24" height="24" viewBox="0 0 24 24" fill="none" xmlns="http://www.w3.org/2000/svg">
<path d="M12.875 20C12.875 20.4832 12.4832 20.875 12 20.875C11.5168 20.875 11.125 20.4832 11.125 20L11.125 4C11.125 3.51675 11.5168 3.125 12 3.125C12.4832 3.125 12.875 3.51675 12.875 4L12.875 20Z" fill="#2B2B2C"/>
<path d="M18.3867 7.38086C18.7287 7.0397 19.2827 7.04005 19.624 7.38184C19.9652 7.7239 19.965 8.27785 19.623 8.61915L17.1162 11.1201L22 11.1201C22.4832 11.1201 22.875 11.5119 22.875 11.9951C22.8749 12.4783 22.4832 12.8701 22 12.8701L17.1133 12.8701L19.624 15.3809C19.9657 15.7226 19.9657 16.2774 19.624 16.6191C19.2825 16.9606 18.7284 16.9604 18.3867 16.6191L13.7617 11.9941L18.3867 7.38086Z" fill="#2B2B2C"/>
<path d="M5.61816 7.38087C5.27623 7.03947 4.72232 7.03995 4.38086 7.38184C4.03947 7.72377 4.03995 8.27769 4.38184 8.61915L6.88574 11.1201L2 11.1201C1.51675 11.1201 1.125 11.5119 1.125 11.9951C1.12507 12.4783 1.51679 12.8701 2 12.8701L6.88965 12.8701L4.38086 15.3818C4.03947 15.7238 4.03995 16.2777 4.38184 16.6191C4.72377 16.9605 5.27768 16.9601 5.61914 16.6182L10.2373 11.9941L5.61816 7.38087Z" fill="#2B2B2C"/>
</svg>
