<svg width="18" height="18" viewBox="0 0 18 18" fill="none" xmlns="http://www.w3.org/2000/svg">
<path d="M10.25 15C10.25 15.4142 9.91421 15.75 9.5 15.75C9.08579 15.75 8.75 15.4142 8.75 15V3C8.75 2.58579 9.08579 2.25 9.5 2.25C9.91421 2.25 10.25 2.58579 10.25 3V15Z" fill="#2B2B2C"/>
<path d="M14.4698 5.4687C14.7631 5.17617 15.2388 5.17739 15.5314 5.47065C15.8235 5.76394 15.8226 6.23879 15.5294 6.5312L13.8097 8.24604L17.0001 8.24604C17.4142 8.24612 17.75 8.58195 17.7501 8.99604C17.7501 9.4102 17.4143 9.74596 17.0001 9.74604L13.8068 9.74604L15.5304 11.4697C15.8232 11.7625 15.8232 12.2373 15.5304 12.5302C15.2375 12.8231 14.7627 12.8231 14.4698 12.5302L10.9347 8.99506L14.4698 5.4687Z" fill="#2B2B2C"/>
<path d="M4.53027 5.46975C4.23731 5.17715 3.76246 5.177 3.46973 5.46975C3.17713 5.76271 3.17698 6.23756 3.46973 6.5303L5.1875 8.24612L2 8.24612C1.58584 8.24612 1.25008 8.58197 1.25 8.99612C1.25 9.41033 1.58579 9.74612 2 9.74612L5.19141 9.74612L3.46973 11.4697C3.17713 11.7627 3.17698 12.2376 3.46973 12.5303C3.76269 12.8229 4.23754 12.823 4.53027 12.5303L8.06055 8.99514L4.53027 5.46975Z" fill="#2B2B2C"/>
</svg>
