<svg width="18" height="18" viewBox="0 0 18 18" fill="none" xmlns="http://www.w3.org/2000/svg">
<path d="M10 15C10 15.2761 9.77614 15.5 9.5 15.5C9.22386 15.5 9 15.2761 9 15V3C9 2.72386 9.22386 2.5 9.5 2.5C9.77614 2.5 10 2.72386 10 3V15Z" fill="#2B2B2C"/>
<path d="M14.6466 5.6465C14.842 5.45161 15.1586 5.45138 15.3536 5.6465C15.5487 5.842 15.5482 6.15851 15.3527 6.35353L13.2062 8.49611L17.0001 8.49611C17.2761 8.49619 17.5 8.72009 17.5001 8.99611C17.5001 9.2722 17.2762 9.49603 17.0001 9.49611L13.2032 9.49611L15.3536 11.6465C15.5488 11.8417 15.5488 12.1583 15.3536 12.3535C15.1584 12.5488 14.8419 12.5487 14.6466 12.3535L11.2892 8.99611L11.6427 8.64259L14.6466 5.6465Z" fill="#2B2B2C"/>
<path d="M4.35352 5.64646C4.15821 5.45139 3.84164 5.4513 3.64648 5.64646C3.45142 5.84177 3.45132 6.15833 3.64648 6.35349L5.79199 8.49607L2 8.49607C1.72391 8.49607 1.50008 8.72 1.5 8.99607C1.5 9.27221 1.72386 9.49607 2 9.49607L5.79395 9.49607L3.64648 11.6465C3.45142 11.8418 3.45132 12.1583 3.64648 12.3535C3.8418 12.5486 4.15836 12.5487 4.35352 12.3535L7.70703 8.99607L4.35352 5.64646Z" fill="#2B2B2C"/>
</svg>
