<svg width="18" height="18" viewBox="0 0 18 18" fill="none" xmlns="http://www.w3.org/2000/svg">
<g clip-path="url(#clip0_4960_33)">
<path fill-rule="evenodd" clip-rule="evenodd" d="M15.5 7.5C15.5 7.77614 15.2761 8 15 8H10.5C10.2239 8 10 7.77614 10 7.5V3C10 2.72386 10.2239 2.5 10.5 2.5C10.7761 2.5 11 2.72386 11 3V6.29289L15.1464 2.14645C15.3417 1.95118 15.6583 1.95118 15.8536 2.14645C16.0488 2.34171 16.0488 2.65829 15.8536 2.85355L11.7071 7H15C15.2761 7 15.5 7.22386 15.5 7.5Z" fill="#2B2B2C"/>
<path fill-rule="evenodd" clip-rule="evenodd" d="M3 10H7.5C7.77614 10 8 10.2239 8 10.5V15C8 15.2761 7.77614 15.5 7.5 15.5C7.22386 15.5 7 15.2761 7 15V11.7071L2.85355 15.8536C2.65829 16.0488 2.34171 16.0488 2.14645 15.8536C1.95118 15.6583 1.95118 15.3417 2.14645 15.1464L6.29289 11H3C2.72386 11 2.5 10.7761 2.5 10.5C2.5 10.2239 2.72386 10 3 10Z" fill="#2B2B2C"/>
</g>
<defs>
<clipPath id="clip0_4960_33">
<rect width="18" height="18" fill="white"/>
</clipPath>
</defs>
</svg>
