<svg width="24" height="24" viewBox="0 0 24 24" fill="none" xmlns="http://www.w3.org/2000/svg">
<path d="M12.5 20C12.5 20.2761 12.2761 20.5 12 20.5C11.7239 20.5 11.5 20.2761 11.5 20L11.5 4C11.5 3.72386 11.7239 3.5 12 3.5C12.2761 3.5 12.5 3.72386 12.5 4L12.5 20Z" fill="#2B2B2C"/>
<path d="M18.6523 7.64644C18.8478 7.45143 19.1644 7.45095 19.3594 7.64644C19.5543 7.84182 19.5535 8.15842 19.3584 8.35347L16.209 11.4951L22 11.4951C22.2761 11.4951 22.5 11.7189 22.5 11.9951C22.4999 12.2712 22.2761 12.4951 22 12.4951L16.207 12.4951L19.3584 15.6464C19.5537 15.8417 19.5537 16.1582 19.3584 16.3535C19.1631 16.5487 18.8466 16.5487 18.6514 16.3535L14.292 11.9941L18.6523 7.64644Z" fill="#2B2B2C"/>
<path d="M5.35352 7.64646C5.15821 7.45139 4.84164 7.4513 4.64648 7.64646C4.45142 7.84177 4.45132 8.15833 4.64648 8.35349L7.79199 11.4951L2 11.4951C1.72386 11.4951 1.5 11.7189 1.5 11.9951C1.50007 12.2712 1.7239 12.4951 2 12.4951L7.79395 12.4951L4.64649 15.6465C4.45142 15.8418 4.45132 16.1583 4.64649 16.3535C4.8418 16.5486 5.15836 16.5487 5.35352 16.3535L9.70703 11.9941L5.35352 7.64646Z" fill="#2B2B2C"/>
</svg>
