<svg width="30" height="30" viewBox="0 0 30 30" fill="none" xmlns="http://www.w3.org/2000/svg">
<g id="Type=Fill, Size=30x30">
<path id="Union" d="M10.5 21C11.6046 21 12.5 21.8954 12.5 23C12.5 24.1046 11.6046 25 10.5 25C9.39543 25 8.5 24.1046 8.5 23C8.5 21.8954 9.39543 21 10.5 21ZM19.5 21C20.6046 21 21.5 21.8954 21.5 23C21.5 24.1046 20.6046 25 19.5 25C18.3954 25 17.5 24.1046 17.5 23C17.5 21.8954 18.3954 21 19.5 21ZM10.5 13C11.6046 13 12.5 13.8954 12.5 15C12.5 16.1046 11.6046 17 10.5 17C9.39543 17 8.5 16.1046 8.5 15C8.5 13.8954 9.39543 13 10.5 13ZM19.5 13C20.6046 13 21.5 13.8954 21.5 15C21.5 16.1046 20.6046 17 19.5 17C18.3954 17 17.5 16.1046 17.5 15C17.5 13.8954 18.3954 13 19.5 13ZM10.5 5C11.6046 5 12.5 5.89543 12.5 7C12.5 8.10457 11.6046 9 10.5 9C9.39543 9 8.5 8.10457 8.5 7C8.5 5.89543 9.39543 5 10.5 5ZM19.5 5C20.6046 5 21.5 5.89543 21.5 7C21.5 8.10457 20.6046 9 19.5 9C18.3954 9 17.5 8.10457 17.5 7C17.5 5.89543 18.3954 5 19.5 5Z" fill="black" fill-opacity="0.2"/>
</g>
</svg>
