<svg width="18" height="18" viewBox="0 0 18 18" fill="none" xmlns="http://www.w3.org/2000/svg">
<path d="M9.75378 15C9.75378 15.4142 9.418 15.75 9.00378 15.75C8.58957 15.75 8.25378 15.4142 8.25378 15V3C8.25378 2.58579 8.58957 2.25 9.00378 2.25C9.418 2.25 9.75378 2.58579 9.75378 3V15Z" fill="#2B2B2C"/>
<path d="M4.47363 5.4687C4.76689 5.17617 5.24263 5.17739 5.53516 5.47065C5.82729 5.76394 5.82633 6.2388 5.5332 6.5312L3.81152 8.24702L6.50488 8.24995C6.91888 8.25055 7.25425 8.58687 7.25391 9.00092C7.25337 9.41497 6.91703 9.75029 6.50293 9.74995L3.81152 9.74702L5.53418 11.4697C5.82697 11.7625 5.82697 12.2373 5.53418 12.5302C5.24131 12.8231 4.76653 12.823 4.47363 12.5302L0.938476 8.99506L4.47363 5.4687Z" fill="#2B2B2C"/>
<path d="M13.5341 5.47341C13.2411 5.18081 12.7662 5.18067 12.4735 5.47341C12.1809 5.76638 12.1808 6.24122 12.4735 6.53396L14.1913 8.24978L11.5038 8.24978C11.0897 8.24979 10.7539 8.58568 10.7538 8.99978C10.7538 9.41399 11.0896 9.74978 11.5038 9.74978L14.1952 9.74978L12.4735 11.4734C12.1809 11.7664 12.1808 12.2412 12.4735 12.534C12.7665 12.8266 13.2413 12.8267 13.5341 12.534L17.0643 8.9988L13.5341 5.47341Z" fill="#2B2B2C"/>
</svg>
