<svg width="24" height="24" viewBox="0 0 24 24" fill="none" xmlns="http://www.w3.org/2000/svg">
<path d="M12.5 20C12.5 20.2761 12.2761 20.5 12 20.5C11.7239 20.5 11.5 20.2761 11.5 20L11.5 4C11.5 3.72386 11.7239 3.5 12 3.5C12.2761 3.5 12.5 3.72386 12.5 4L12.5 20Z" fill="#2B2B2C"/>
<path d="M5.65234 7.64644C5.84785 7.45143 6.16436 7.45095 6.35937 7.64644C6.55427 7.84182 6.55352 8.15842 6.3584 8.35347L3.20898 11.4951L9 11.4951C9.27614 11.4951 9.5 11.7189 9.5 11.9951C9.49993 12.2712 9.2761 12.4951 9 12.4951L3.20703 12.4951L6.3584 15.6464C6.55366 15.8417 6.55366 16.1582 6.3584 16.3535C6.16313 16.5487 5.84661 16.5487 5.65137 16.3535L1.29199 11.9941L5.65234 7.64644Z" fill="#2B2B2C"/>
<path d="M18.3535 7.64646C18.1582 7.45139 17.8416 7.4513 17.6465 7.64646C17.4514 7.84177 17.4513 8.15833 17.6465 8.35349L20.792 11.4951L15 11.4951C14.7239 11.4951 14.5 11.7189 14.5 11.9951C14.5001 12.2712 14.7239 12.4951 15 12.4951L20.7939 12.4951L17.6465 15.6465C17.4514 15.8418 17.4513 16.1583 17.6465 16.3535C17.8418 16.5486 18.1584 16.5487 18.3535 16.3535L22.707 11.9941L18.3535 7.64646Z" fill="#2B2B2C"/>
</svg>
