<svg width="24" height="24" viewBox="0 0 24 24" fill="none" xmlns="http://www.w3.org/2000/svg">
<path d="M12.875 20C12.875 20.4832 12.4832 20.875 12 20.875C11.5168 20.875 11.125 20.4832 11.125 20L11.125 4C11.125 3.51675 11.5168 3.125 12 3.125C12.4832 3.125 12.875 3.51675 12.875 4L12.875 20Z" fill="#2B2B2C"/>
<path d="M5.38672 7.38086C5.72874 7.0397 6.28271 7.04005 6.62402 7.38184C6.96523 7.7239 6.96496 8.27785 6.62305 8.61915L4.11621 11.1201L9 11.1201C9.48325 11.1201 9.875 11.5119 9.875 11.9951C9.87493 12.4783 9.48321 12.8701 9 12.8701L4.11328 12.8701L6.62402 15.3809C6.96573 15.7226 6.96573 16.2774 6.62402 16.6191C6.28245 16.9606 5.72844 16.9604 5.38672 16.6191L0.761718 11.9941L5.38672 7.38086Z" fill="#2B2B2C"/>
<path d="M18.6182 7.38087C18.2762 7.03947 17.7223 7.03995 17.3809 7.38184C17.0395 7.72377 17.0399 8.27769 17.3818 8.61915L19.8857 11.1201L15 11.1201C14.5168 11.1201 14.125 11.5119 14.125 11.9951C14.1251 12.4783 14.5168 12.8701 15 12.8701L19.8896 12.8701L17.3809 15.3818C17.0395 15.7238 17.0399 16.2777 17.3818 16.6191C17.7238 16.9605 18.2777 16.9601 18.6191 16.6182L23.2373 11.9941L18.6182 7.38087Z" fill="#2B2B2C"/>
</svg>
