<svg width="30" height="30" viewBox="0 0 30 30" fill="none" xmlns="http://www.w3.org/2000/svg">
<path d="M15.5 25C15.5 25.5523 15.0523 26 14.5 26C13.9477 26 13.5 25.5523 13.5 25L13.5 5C13.5 4.44772 13.9477 4 14.5 4C15.0523 4 15.5 4.44772 15.5 5L15.5 25Z" fill="#2B2B2C"/>
<path d="M6.2998 9.29199C6.69078 8.90199 7.32382 8.90303 7.71387 9.29394C8.10384 9.68489 8.1037 10.318 7.71289 10.708L4.41797 13.9941L10.75 13.9941C11.3023 13.9941 11.75 14.4419 11.75 14.9941C11.7498 15.5462 11.3022 15.9941 10.75 15.9941L4.41406 15.9941L7.71289 19.293C8.10341 19.6835 8.10341 20.3165 7.71289 20.707C7.32235 21.0974 6.68929 21.0975 6.29883 20.707L0.58496 14.9932L6.2998 9.29199Z" fill="#2B2B2C"/>
<path d="M22.707 9.29202C22.3163 8.90178 21.6823 8.90224 21.292 9.29299C20.9018 9.68377 20.9022 10.3178 21.293 10.708L24.584 13.9942L18.25 13.9942C17.6977 13.9942 17.25 14.4419 17.25 14.9942C17.2502 15.5463 17.6978 15.9942 18.25 15.9942L24.5869 15.9942L21.292 19.293C20.9018 19.6838 20.9022 20.3178 21.293 20.708C21.6837 21.0983 22.3177 21.0978 22.708 20.7071L28.4141 14.9932L22.707 9.29202Z" fill="#2B2B2C"/>
</svg>
