<svg width="24" height="24" viewBox="0 0 24 24" fill="none" xmlns="http://www.w3.org/2000/svg">
<path fill-rule="evenodd" clip-rule="evenodd" d="M14.5 3C14.2239 3 14 3.22386 14 3.5C14 3.77614 14.2239 4 14.5 4H19.2929L13.1464 10.1464C12.9512 10.3417 12.9512 10.6583 13.1464 10.8536C13.3417 11.0488 13.6583 11.0488 13.8536 10.8536L20 4.70711V9.5C20 9.77614 20.2239 10 20.5 10C20.7761 10 21 9.77614 21 9.5V3.5C21 3.22386 20.7761 3 20.5 3H14.5ZM3.5 21H9.5C9.77614 21 10 20.7761 10 20.5C10 20.2239 9.77614 20 9.5 20H4.70711L10.8536 13.8536C11.0488 13.6583 11.0488 13.3417 10.8536 13.1464C10.6583 12.9512 10.3417 12.9512 10.1464 13.1464L4 19.2929V14.5C4 14.2239 3.77614 14 3.5 14C3.22386 14 3 14.2239 3 14.5V20.5C3 20.6326 3.05268 20.7598 3.14645 20.8536C3.24021 20.9473 3.36739 21 3.5 21Z" fill="#2B2B2C"/>
</svg>
