<svg width="30" height="30" viewBox="0 0 30 30" fill="none" xmlns="http://www.w3.org/2000/svg">
<path d="M15 25C15 25.2761 14.7761 25.5 14.5 25.5C14.2239 25.5 14 25.2761 14 25L14 5C14 4.72386 14.2239 4.5 14.5 4.5C14.7761 4.5 15 4.72386 15 5L15 25Z" fill="#2B2B2C"/>
<path d="M6.65332 9.64649C6.84878 9.45153 7.16532 9.45114 7.36035 9.64649C7.55529 9.84192 7.55464 10.1585 7.35937 10.3535L3.20898 14.4941L10.75 14.4941C11.0261 14.4941 11.25 14.718 11.25 14.9941C11.2498 15.2701 11.026 15.4941 10.75 15.4941L3.20703 15.4941L7.35937 19.6465C7.55464 19.8418 7.55464 20.1583 7.35937 20.3535C7.1641 20.5486 6.84754 20.5487 6.65234 20.3535L1.29199 14.9932L6.65332 9.64649Z" fill="#2B2B2C"/>
<path d="M22.3535 9.64646C22.1582 9.45139 21.8416 9.4513 21.6465 9.64646C21.4514 9.84177 21.4513 10.1583 21.6465 10.3535L25.792 14.4941L18.25 14.4941C17.9739 14.4941 17.75 14.718 17.75 14.9941C17.7502 15.2701 17.974 15.4941 18.25 15.4941L25.7939 15.4941L21.6465 19.6465C21.4514 19.8418 21.4513 20.1583 21.6465 20.3535C21.8418 20.5486 22.1584 20.5487 22.3535 20.3535L27.707 14.9931L22.3535 9.64646Z" fill="#2B2B2C"/>
</svg>
