<svg width="30" height="30" viewBox="0 0 30 30" fill="none" xmlns="http://www.w3.org/2000/svg">
<path fill-rule="evenodd" clip-rule="evenodd" d="M18 3.5C17.4477 3.5 17 3.94772 17 4.5C17 5.05228 17.4477 5.5 18 5.5H23.0858L16.2929 12.2929C15.9024 12.6834 15.9024 13.3166 16.2929 13.7071C16.6834 14.0976 17.3166 14.0976 17.7071 13.7071L24.5 6.91421V12C24.5 12.5523 24.9477 13 25.5 13C26.0523 13 26.5 12.5523 26.5 12V4.5C26.5 3.94772 26.0523 3.5 25.5 3.5H18ZM12 26.5C12.5523 26.5 13 26.0523 13 25.5C13 24.9477 12.5523 24.5 12 24.5H6.91421L13.7071 17.7071C14.0976 17.3166 14.0976 16.6834 13.7071 16.2929C13.3166 15.9024 12.6834 15.9024 12.2929 16.2929L5.5 23.0858L5.5 18C5.5 17.4477 5.05228 17 4.5 17C3.94771 17 3.5 17.4477 3.5 18V25.5C3.5 26.0523 3.94772 26.5 4.5 26.5H12Z" fill="#2B2B2C"/>
</svg>
