<svg width="24" height="24" viewBox="0 0 24 24" fill="none" xmlns="http://www.w3.org/2000/svg">
<path fill-rule="evenodd" clip-rule="evenodd" d="M14.5 3.125C14.0167 3.125 13.625 3.51675 13.625 4C13.625 4.48325 14.0167 4.875 14.5 4.875H17.8876L12.8813 9.88128C12.5396 10.223 12.5396 10.777 12.8813 11.1187C13.223 11.4604 13.777 11.4604 14.1187 11.1187L19.125 6.11244V9.5C19.125 9.98325 19.5167 10.375 20 10.375C20.4832 10.375 20.875 9.98325 20.875 9.5V4C20.875 3.51675 20.4832 3.125 20 3.125H14.5ZM4 20.875H9.5C9.98325 20.875 10.375 20.4832 10.375 20C10.375 19.5168 9.98325 19.125 9.5 19.125H6.11244L11.1187 14.1187C11.4604 13.777 11.4604 13.223 11.1187 12.8813C10.777 12.5396 10.223 12.5396 9.88128 12.8813L4.875 17.8876L4.875 14.5C4.875 14.0168 4.48325 13.625 4 13.625C3.51675 13.625 3.125 14.0168 3.125 14.5V20C3.125 20.2321 3.21719 20.4546 3.38128 20.6187C3.54538 20.7828 3.76794 20.875 4 20.875Z" fill="#2B2B2C"/>
</svg>
