<svg width="18" height="18" viewBox="0 0 18 18" fill="none" xmlns="http://www.w3.org/2000/svg">
<path d="M9.50378 15C9.50378 15.2761 9.27993 15.5 9.00378 15.5C8.72764 15.5 8.50378 15.2761 8.50378 15V3C8.50378 2.72386 8.72764 2.5 9.00378 2.5C9.27993 2.5 9.50378 2.72386 9.50378 3V15Z" fill="#2B2B2C"/>
<path d="M4.65039 5.64651C4.84577 5.45161 5.16237 5.45137 5.35742 5.64651C5.55243 5.842 5.55192 6.15852 5.35645 6.35354L3.20801 8.49709L6.50391 8.50002C6.77991 8.50025 7.00391 8.72407 7.00391 9.00002C7.00368 9.27617 6.77907 9.50025 6.50293 9.50002L3.20801 9.49709L5.35742 11.6465C5.55258 11.8418 5.55258 12.1583 5.35742 12.3535C5.16218 12.5488 4.84566 12.5487 4.65039 12.3535L1.64648 9.34963L1.29199 8.99612L4.65039 5.64651Z" fill="#2B2B2C"/>
<path d="M13.3573 5.65012C13.162 5.45505 12.8454 5.45496 12.6503 5.65012C12.4552 5.84543 12.4551 6.16199 12.6503 6.35715L14.7958 8.49973L11.5038 8.49973C11.2277 8.49974 11.0039 8.7237 11.0038 8.99973C11.0038 9.27587 11.2276 9.49973 11.5038 9.49973L14.7977 9.49973L12.6503 11.6501C12.4552 11.8454 12.4551 12.162 12.6503 12.3572C12.8456 12.5522 13.1621 12.5523 13.3573 12.3572L16.7108 8.99973L13.3573 5.65012Z" fill="#2B2B2C"/>
</svg>
