<svg width="30" height="30" viewBox="0 0 30 30" fill="none" xmlns="http://www.w3.org/2000/svg">
<path fill-rule="evenodd" clip-rule="evenodd" d="M5.75 4C4.7835 4 4 4.7835 4 5.75V12.25C4 13.2165 4.7835 14 5.75 14H12.25C13.2165 14 14 13.2165 14 12.25V5.75C14 4.7835 13.2165 4 12.25 4H5.75ZM5.75 16C4.7835 16 4 16.7835 4 17.75V24.25C4 25.2165 4.7835 26 5.75 26H12.25C13.2165 26 14 25.2165 14 24.25V17.75C14 16.7835 13.2165 16 12.25 16H5.75ZM17.75 4C16.7835 4 16 4.7835 16 5.75V12.25C16 13.2165 16.7835 14 17.75 14H24.25C25.2165 14 26 13.2165 26 12.25V5.75C26 4.7835 25.2165 4 24.25 4H17.75ZM17.75 16C16.7835 16 16 16.7835 16 17.75V24.25C16 25.2165 16.7835 26 17.75 26H24.25C25.2165 26 26 25.2165 26 24.25V17.75C26 16.7835 25.2165 16 24.25 16H17.75Z" fill="#2B2B2C"/>
</svg>
