<svg width="30" height="30" viewBox="0 0 30 30" fill="none" xmlns="http://www.w3.org/2000/svg">
<path fill-rule="evenodd" clip-rule="evenodd" d="M5 10C6.38071 10 7.5 8.88071 7.5 7.5C7.5 6.11929 6.38071 5 5 5C3.61929 5 2.5 6.11929 2.5 7.5C2.5 8.88071 3.61929 10 5 10ZM5 17.5C6.38071 17.5 7.5 16.3807 7.5 15C7.5 13.6193 6.38071 12.5 5 12.5C3.61929 12.5 2.5 13.6193 2.5 15C2.5 16.3807 3.61929 17.5 5 17.5ZM5 25C6.38071 25 7.5 23.8807 7.5 22.5C7.5 21.1193 6.38071 20 5 20C3.61929 20 2.5 21.1193 2.5 22.5C2.5 23.8807 3.61929 25 5 25ZM12.5 5C11.1193 5 10 6.11929 10 7.5C10 8.88071 11.1193 10 12.5 10H25C26.3807 10 27.5 8.88071 27.5 7.5C27.5 6.11929 26.3807 5 25 5H12.5ZM12.5 12.5C11.1193 12.5 10 13.6193 10 15C10 16.3807 11.1193 17.5 12.5 17.5H25C26.3807 17.5 27.5 16.3807 27.5 15C27.5 13.6193 26.3807 12.5 25 12.5H12.5ZM12.5 20C11.1193 20 10 21.1193 10 22.5C10 23.8807 11.1193 25 12.5 25H25C26.3807 25 27.5 23.8807 27.5 22.5C27.5 21.1193 26.3807 20 25 20H12.5Z" fill="#2B2B2C"/>
</svg>
