<svg width="24" height="24" viewBox="0 0 24 24" fill="none" xmlns="http://www.w3.org/2000/svg">
<path fill-rule="evenodd" clip-rule="evenodd" d="M4 8C5.10457 8 6 7.10457 6 6C6 4.89543 5.10457 4 4 4C2.89543 4 2 4.89543 2 6C2 7.10457 2.89543 8 4 8ZM5 6C5 6.55228 4.55228 7 4 7C3.44772 7 3 6.55228 3 6C3 5.44772 3.44772 5 4 5C4.55228 5 5 5.44772 5 6ZM4 14C5.10457 14 6 13.1046 6 12C6 10.8954 5.10457 10 4 10C2.89543 10 2 10.8954 2 12C2 13.1046 2.89543 14 4 14ZM5 12C5 12.5523 4.55228 13 4 13C3.44772 13 3 12.5523 3 12C3 11.4477 3.44772 11 4 11C4.55228 11 5 11.4477 5 12ZM6 18C6 19.1046 5.10457 20 4 20C2.89543 20 2 19.1046 2 18C2 16.8954 2.89543 16 4 16C5.10457 16 6 16.8954 6 18ZM4 19C4.55228 19 5 18.5523 5 18C5 17.4477 4.55228 17 4 17C3.44772 17 3 17.4477 3 18C3 18.5523 3.44772 19 4 19ZM10 4C8.89543 4 8 4.89543 8 6C8 7.10457 8.89543 8 10 8H20C21.1046 8 22 7.10457 22 6C22 4.89543 21.1046 4 20 4H10ZM9 6C9 5.44772 9.44772 5 10 5H20C20.5523 5 21 5.44772 21 6C21 6.55228 20.5523 7 20 7H10C9.44772 7 9 6.55228 9 6ZM8 12C8 10.8954 8.89543 10 10 10H20C21.1046 10 22 10.8954 22 12C22 13.1046 21.1046 14 20 14H10C8.89543 14 8 13.1046 8 12ZM10 11C9.44772 11 9 11.4477 9 12C9 12.5523 9.44772 13 10 13H20C20.5523 13 21 12.5523 21 12C21 11.4477 20.5523 11 20 11H10ZM10 16C8.89543 16 8 16.8954 8 18C8 19.1046 8.89543 20 10 20H20C21.1046 20 22 19.1046 22 18C22 16.8954 21.1046 16 20 16H10ZM9 18C9 17.4477 9.44772 17 10 17H20C20.5523 17 21 17.4477 21 18C21 18.5523 20.5523 19 20 19H10C9.44772 19 9 18.5523 9 18Z" fill="#2B2B2C"/>
</svg>
