<svg width="18" height="18" viewBox="0 0 18 18" fill="none" xmlns="http://www.w3.org/2000/svg">
<path fill-rule="evenodd" clip-rule="evenodd" d="M2.5 6C3.32843 6 4 5.32843 4 4.5C4 3.67157 3.32843 3 2.5 3C1.67157 3 1 3.67157 1 4.5C1 5.32843 1.67157 6 2.5 6ZM2.5 10.5C3.32843 10.5 4 9.82843 4 9C4 8.17157 3.32843 7.5 2.5 7.5C1.67157 7.5 1 8.17157 1 9C1 9.82843 1.67157 10.5 2.5 10.5ZM2.5 15C3.32843 15 4 14.3284 4 13.5C4 12.6716 3.32843 12 2.5 12C1.67157 12 1 12.6716 1 13.5C1 14.3284 1.67157 15 2.5 15ZM7 3C6.17157 3 5.5 3.67157 5.5 4.5C5.5 5.32843 6.17157 6 7 6H15.5C16.3284 6 17 5.32843 17 4.5C17 3.67157 16.3284 3 15.5 3H7ZM7 7.5C6.17157 7.5 5.5 8.17157 5.5 9C5.5 9.82843 6.17157 10.5 7 10.5H15.5C16.3284 10.5 17 9.82843 17 9C17 8.17157 16.3284 7.5 15.5 7.5H7ZM7 12C6.17157 12 5.5 12.6716 5.5 13.5C5.5 14.3284 6.17157 15 7 15H15.5C16.3284 15 17 14.3284 17 13.5C17 12.6716 16.3284 12 15.5 12H7Z" fill="#2B2B2C"/>
</svg>
