<svg width="18" height="18" viewBox="0 0 18 18" fill="none" xmlns="http://www.w3.org/2000/svg">
<path d="M14.25 15C14.25 15.4142 14.5858 15.75 15 15.75C15.4142 15.75 15.75 15.4142 15.75 15L15.75 3C15.75 2.58579 15.4142 2.25 15 2.25C14.5858 2.25 14.25 2.58579 14.25 3L14.25 15Z" fill="#2B2B2C"/>
<path d="M4.46973 5.46975C4.76269 5.17715 5.23754 5.177 5.53027 5.46975C5.82287 5.76271 5.82302 6.23756 5.53027 6.5303L3.8125 8.24612L12 8.24612C12.4142 8.24611 12.75 8.58193 12.75 8.99612C12.75 9.41033 12.4142 9.74611 12 9.74612L3.80859 9.74612L5.53027 11.4697C5.82287 11.7627 5.82302 12.2376 5.53027 12.5303C5.23731 12.8229 4.76246 12.823 4.46973 12.5303L0.939453 8.99514L4.46973 5.46975Z" fill="#2B2B2C"/>
</svg>
