<svg width="30" height="30" viewBox="0 0 30 30" fill="none" xmlns="http://www.w3.org/2000/svg">
<path d="M24 25C24 25.5523 24.4477 26 25 26C25.5523 26 26 25.5523 26 25L26 5C26 4.44773 25.5523 4 25 4C24.4477 4 24 4.44773 24 5L24 25Z" fill="#2B2B2C"/>
<path d="M7.29297 9.29202C7.68374 8.90178 8.31774 8.90224 8.70801 9.29299C9.09824 9.68377 9.09778 10.3178 8.70703 10.708L5.41602 13.9942L20 13.9942C20.5523 13.9942 21 14.4419 21 14.9942C20.9998 15.5463 20.5522 15.9942 20 15.9942L5.41309 15.9942L8.70801 19.293C9.09824 19.6838 9.09778 20.3178 8.70703 20.708C8.31626 21.0983 7.68226 21.0978 7.29199 20.7071L1.58594 14.9932L7.29297 9.29202Z" fill="#2B2B2C"/>
</svg>
