<svg width="24" height="24" viewBox="0 0 24 24" fill="none" xmlns="http://www.w3.org/2000/svg">
<path d="M18.625 20C18.625 20.4832 19.0168 20.875 19.5 20.875C19.9832 20.875 20.375 20.4832 20.375 20L20.375 4C20.375 3.51676 19.9832 3.125 19.5 3.125C19.0168 3.125 18.625 3.51676 18.625 4L18.625 20Z" fill="#2B2B2C"/>
<path d="M5.38184 7.38087C5.72377 7.03947 6.27768 7.03995 6.61914 7.38184C6.96053 7.72377 6.96005 8.27769 6.61816 8.61915L4.11426 11.1201L15.5 11.1201C15.9832 11.1201 16.375 11.5119 16.375 11.9951C16.3749 12.4783 15.9832 12.8701 15.5 12.8701L4.11035 12.8701L6.61914 15.3818C6.96053 15.7238 6.96005 16.2777 6.61816 16.6191C6.27623 16.9605 5.72232 16.9601 5.38086 16.6182L0.762695 11.9941L5.38184 7.38087Z" fill="#2B2B2C"/>
</svg>
