<svg width="24" height="24" viewBox="0 0 24 24" fill="none" xmlns="http://www.w3.org/2000/svg">
<path d="M20.25 20C20.25 20.2761 20.4739 20.5 20.75 20.5C21.0261 20.5 21.25 20.2761 21.25 20L21.25 4C21.25 3.72387 21.0261 3.5 20.75 3.5C20.4739 3.5 20.25 3.72387 20.25 4L20.25 20Z" fill="#2B2B2C"/>
<path d="M6.89648 7.64646C7.09179 7.45139 7.40836 7.4513 7.60352 7.64646C7.79858 7.84177 7.79868 8.15833 7.60352 8.35349L4.45801 11.4951L16.75 11.4951C17.0261 11.4951 17.25 11.7189 17.25 11.9951C17.2499 12.2712 17.0261 12.4951 16.75 12.4951L4.45605 12.4951L7.60351 15.6465C7.79858 15.8418 7.79868 16.1583 7.60351 16.3535C7.4082 16.5486 7.09164 16.5487 6.89648 16.3535L2.54297 11.9941L6.89648 7.64646Z" fill="#2B2B2C"/>
</svg>
