<svg width="18" height="18" viewBox="0 0 18 18" fill="none" xmlns="http://www.w3.org/2000/svg">
<path d="M2.75 15C2.75 15.4142 2.41421 15.75 2 15.75C1.58579 15.75 1.25 15.4142 1.25 15L1.25 3C1.25 2.58579 1.58579 2.25 2 2.25C2.41421 2.25 2.75 2.58579 2.75 3L2.75 15Z" fill="#2B2B2C"/>
<path d="M12.5303 5.46975C12.2373 5.17715 11.7625 5.177 11.4697 5.46975C11.1771 5.76271 11.177 6.23756 11.4697 6.5303L13.1875 8.24612L5 8.24612C4.58584 8.24612 4.25008 8.58197 4.25 8.99612C4.25 9.41033 4.58579 9.74612 5 9.74612L13.1914 9.74612L11.4697 11.4697C11.1771 11.7627 11.177 12.2376 11.4697 12.5303C11.7627 12.8229 12.2375 12.823 12.5303 12.5303L16.0605 8.99514L12.5303 5.46975Z" fill="#2B2B2C"/>
</svg>
