<svg width="30" height="30" viewBox="0 0 30 30" fill="none" xmlns="http://www.w3.org/2000/svg">
<path d="M4 25C4 25.5523 3.55229 26 3 26C2.44772 26 2 25.5523 2 25L2 5C2 4.44772 2.44772 4 3 4C3.55228 4 4 4.44772 4 5L4 25Z" fill="#2B2B2C"/>
<path d="M20.707 9.29202C20.3163 8.90178 19.6823 8.90224 19.292 9.29299C18.9018 9.68377 18.9022 10.3178 19.293 10.708L22.584 13.9942L8 13.9942C7.44772 13.9942 7 14.4419 7 14.9942C7.00021 15.5463 7.44785 15.9942 8 15.9942L22.5869 15.9942L19.292 19.293C18.9018 19.6838 18.9022 20.3178 19.293 20.708C19.6837 21.0983 20.3177 21.0978 20.708 20.7071L26.4141 14.9932L20.707 9.29202Z" fill="#2B2B2C"/>
</svg>
