<svg width="24" height="24" viewBox="0 0 24 24" fill="none" xmlns="http://www.w3.org/2000/svg">
<path d="M3.75 20C3.75 20.2761 3.52614 20.5 3.25 20.5C2.97386 20.5 2.75 20.2761 2.75 20L2.75 4C2.75 3.72386 2.97386 3.5 3.25 3.5C3.52614 3.5 3.75 3.72386 3.75 4L3.75 20Z" fill="#2B2B2C"/>
<path d="M17.1035 7.64646C16.9082 7.45139 16.5916 7.4513 16.3965 7.64646C16.2014 7.84177 16.2013 8.15833 16.3965 8.35349L19.542 11.4951L7.25 11.4951C6.97386 11.4951 6.75 11.7189 6.75 11.9951C6.75007 12.2712 6.9739 12.4951 7.25 12.4951L19.5439 12.4951L16.3965 15.6465C16.2014 15.8418 16.2013 16.1583 16.3965 16.3535C16.5918 16.5486 16.9084 16.5487 17.1035 16.3535L21.457 11.9941L17.1035 7.64646Z" fill="#2B2B2C"/>
</svg>
