<svg width="18" height="18" viewBox="0 0 18 18" fill="none" xmlns="http://www.w3.org/2000/svg">
<path d="M3 15C3 15.2761 2.77614 15.5 2.5 15.5C2.22386 15.5 2 15.2761 2 15L2 3C2 2.72386 2.22386 2.5 2.5 2.5C2.77614 2.5 3 2.72386 3 3L3 15Z" fill="#2B2B2C"/>
<path d="M12.8535 5.64646C12.6582 5.45139 12.3416 5.4513 12.1465 5.64646C11.9514 5.84177 11.9513 6.15833 12.1465 6.35349L14.292 8.49607L5.5 8.49607C5.22391 8.49607 5.00008 8.72 5 8.99607C5 9.27221 5.22386 9.49607 5.5 9.49607L14.2939 9.49607L12.1465 11.6465C11.9514 11.8418 11.9513 12.1583 12.1465 12.3535C12.3418 12.5486 12.6584 12.5487 12.8535 12.3535L16.207 8.99607L12.8535 5.64646Z" fill="#2B2B2C"/>
</svg>
