<svg width="24" height="24" viewBox="0 0 24 24" fill="none" xmlns="http://www.w3.org/2000/svg">
<path d="M20 2.5C20.8284 2.5 21.5 3.17157 21.5 4V16C21.5 16.8284 20.8284 17.5 20 17.5H17.5V20C17.5 20.8284 16.8284 21.5 16 21.5H4C3.17157 21.5 2.5 20.8284 2.5 20V8C2.5 7.17157 3.17157 6.5 4 6.5H6.5V4C6.5 3.17157 7.17157 2.5 8 2.5H20ZM3.5 18.207V20C3.5 20.2761 3.72386 20.5 4 20.5H5.79297L8.79297 17.5H8C7.17157 17.5 6.5 16.8284 6.5 16V15.207L3.5 18.207ZM7.20703 20.5H10.793L13.793 17.5H10.207L7.20703 20.5ZM12.207 20.5H16C16.2761 20.5 16.5 20.2761 16.5 20V17.5H15.207L12.207 20.5ZM3.5 13.207V16.793L6.5 13.793V10.207L3.5 13.207ZM12.7002 6C12.4241 6.00003 12.2002 6.22388 12.2002 6.5C12.2002 6.77612 12.4241 6.99997 12.7002 7H16.293L11.1465 12.1465C10.9513 12.3417 10.9513 12.6583 11.1465 12.8535C11.3417 13.0488 11.6583 13.0487 11.8535 12.8535L17 7.70703V11.2998C17 11.5759 17.2239 11.7998 17.5 11.7998C17.7761 11.7998 18 11.5759 18 11.2998V6.5C18 6.22386 17.7761 6 17.5 6H12.7002ZM4 7.5C3.72386 7.5 3.5 7.72386 3.5 8V11.793L6.5 8.79297V7.5H4Z" fill="#2B2B2C"/>
</svg>
