<svg width="18" height="18" viewBox="0 0 18 18" fill="none" xmlns="http://www.w3.org/2000/svg">
<path d="M15.25 1.5C15.9404 1.5 16.5 2.05964 16.5 2.75V12.25C16.5 12.9404 15.9404 13.5 15.25 13.5H13.5V15.25C13.5 15.9404 12.9404 16.5 12.25 16.5H2.75C2.05964 16.5 1.5 15.9404 1.5 15.25V5.75C1.5 5.05964 2.05964 4.5 2.75 4.5H4.5V2.75C4.5 2.05964 5.05964 1.5 5.75 1.5H15.25ZM2.5 13.707V15.25C2.5 15.3881 2.61193 15.5 2.75 15.5H4.29297L6.29297 13.5H5.75C5.05964 13.5 4.5 12.9404 4.5 12.25V11.707L2.5 13.707ZM5.70703 15.5H8.29297L10.293 13.5H7.70703L5.70703 15.5ZM9.70703 15.5H12.25C12.3881 15.5 12.5 15.3881 12.5 15.25V13.5H11.707L9.70703 15.5ZM2.5 9.70703V12.293L4.5 10.293V7.70703L2.5 9.70703ZM9.5 4C9.22386 4 9 4.22386 9 4.5C9 4.77614 9.22386 5 9.5 5H12.293L8.14648 9.14648C7.95122 9.34175 7.95122 9.65825 8.14648 9.85352C8.34175 10.0488 8.65825 10.0488 8.85352 9.85352L13 5.70703V8.5C13 8.77614 13.2239 9 13.5 9C13.7761 9 14 8.77614 14 8.5V4.5C14 4.22386 13.7761 4 13.5 4H9.5ZM2.75 5.5C2.61193 5.5 2.5 5.61193 2.5 5.75V8.29297L4.5 6.29297V5.5H2.75Z" fill="#2B2B2C"/>
</svg>
