<svg width="24" height="24" viewBox="0 0 24 24" fill="none" xmlns="http://www.w3.org/2000/svg">
<path d="M3.875 20C3.875 20.4832 3.48325 20.875 3 20.875C2.51675 20.875 2.125 20.4832 2.125 20L2.125 4C2.125 3.51675 2.51675 3.125 3 3.125C3.48325 3.125 3.875 3.51675 3.875 4L3.875 20Z" fill="#2B2B2C"/>
<path d="M17.1182 7.38087C16.7762 7.03947 16.2223 7.03995 15.8809 7.38184C15.5395 7.72377 15.5399 8.27769 15.8818 8.61915L18.3857 11.1201L7 11.1201C6.51675 11.1201 6.125 11.5119 6.125 11.9951C6.12507 12.4783 6.51679 12.8701 7 12.8701L18.3896 12.8701L15.8809 15.3818C15.5395 15.7238 15.5399 16.2777 15.8818 16.6191C16.2238 16.9605 16.7777 16.9601 17.1191 16.6182L21.7373 11.9941L17.1182 7.38087Z" fill="#2B2B2C"/>
</svg>
