<svg width="18" height="18" viewBox="0 0 18 18" fill="none" xmlns="http://www.w3.org/2000/svg">
<path d="M15 15C15 15.2761 15.2239 15.5 15.5 15.5C15.7761 15.5 16 15.2761 16 15L16 3C16 2.72387 15.7761 2.5 15.5 2.5C15.2239 2.5 15 2.72387 15 3L15 15Z" fill="#2B2B2C"/>
<path d="M5.14648 5.64646C5.34179 5.45139 5.65836 5.4513 5.85352 5.64646C6.04858 5.84177 6.04868 6.15833 5.85352 6.35349L3.70801 8.49607L12.5 8.49607C12.7761 8.49607 12.9999 8.72 13 8.99607C13 9.27221 12.7761 9.49607 12.5 9.49607L3.70605 9.49607L5.85352 11.6465C6.04858 11.8418 6.04868 12.1583 5.85352 12.3535C5.6582 12.5486 5.34164 12.5487 5.14648 12.3535L1.79297 8.99607L5.14648 5.64646Z" fill="#2B2B2C"/>
</svg>
