<svg width="30" height="30" viewBox="0 0 30 30" fill="none" xmlns="http://www.w3.org/2000/svg">
<path d="M3.5 25C3.5 25.2761 3.27614 25.5 3 25.5C2.72386 25.5 2.5 25.2761 2.5 25L2.5 5C2.5 4.72386 2.72386 4.5 3 4.5C3.27614 4.5 3.5 4.72386 3.5 5L3.5 25Z" fill="#2B2B2C"/>
<path d="M20.3535 9.64646C20.1582 9.45139 19.8416 9.4513 19.6465 9.64646C19.4514 9.84177 19.4513 10.1583 19.6465 10.3535L23.792 14.4941L8 14.4941C7.72386 14.4941 7.5 14.718 7.5 14.9941C7.50021 15.2701 7.72399 15.4941 8 15.4941L23.7939 15.4941L19.6465 19.6465C19.4514 19.8418 19.4513 20.1583 19.6465 20.3535C19.8418 20.5486 20.1584 20.5487 20.3535 20.3535L25.707 14.9931L20.3535 9.64646Z" fill="#2B2B2C"/>
</svg>
