<svg width="30" height="30" viewBox="0 0 30 30" fill="none" xmlns="http://www.w3.org/2000/svg">
<path d="M24.5 25C24.5 25.2761 24.7239 25.5 25 25.5C25.2761 25.5 25.5 25.2761 25.5 25L25.5 5C25.5 4.72387 25.2761 4.5 25 4.5C24.7239 4.5 24.5 4.72387 24.5 5L24.5 25Z" fill="#2B2B2C"/>
<path d="M7.64648 9.64646C7.84179 9.45139 8.15836 9.4513 8.35352 9.64646C8.54858 9.84177 8.54868 10.1583 8.35352 10.3535L4.20801 14.4941L20 14.4941C20.2761 14.4941 20.5 14.718 20.5 14.9941C20.4998 15.2701 20.276 15.4941 20 15.4941L4.20605 15.4941L8.35351 19.6465C8.54858 19.8418 8.54868 20.1583 8.35351 20.3535C8.1582 20.5486 7.84164 20.5487 7.64648 20.3535L2.29297 14.9931L7.64648 9.64646Z" fill="#2B2B2C"/>
</svg>
