<svg width="30" height="30" viewBox="0 0 30 30" fill="none" xmlns="http://www.w3.org/2000/svg">
<path d="M24.75 3.5C25.7165 3.5 26.5 4.2835 26.5 5.25V19.75C26.5 20.7165 25.7165 21.5 24.75 21.5H21.5V24.75C21.5 25.7165 20.7165 26.5 19.75 26.5H5.25C4.2835 26.5 3.5 25.7165 3.5 24.75V10.25C3.5 9.2835 4.2835 8.5 5.25 8.5H8.5V5.25C8.5 4.2835 9.2835 3.5 10.25 3.5H24.75ZM4.5 22.707V24.75C4.5 25.1642 4.83579 25.5 5.25 25.5H7.29297L11.293 21.5H10.25C9.2835 21.5 8.5 20.7165 8.5 19.75V18.707L4.5 22.707ZM8.70703 25.5H13.793L17.793 21.5H12.707L8.70703 25.5ZM15.207 25.5H19.75C20.1642 25.5 20.5 25.1642 20.5 24.75V21.5H19.207L15.207 25.5ZM4.5 16.207V21.293L8.5 17.293V12.207L4.5 16.207ZM16 7.5C15.7239 7.5 15.5 7.72386 15.5 8C15.5 8.27614 15.7239 8.5 16 8.5H20.793L13.6465 15.6465C13.4512 15.8417 13.4512 16.1583 13.6465 16.3535C13.8417 16.5488 14.1583 16.5488 14.3535 16.3535L21.5 9.20703V14C21.5 14.2761 21.7239 14.5 22 14.5C22.2761 14.5 22.5 14.2761 22.5 14V8C22.5 7.72386 22.2761 7.5 22 7.5H16ZM5.25 9.5C4.83579 9.5 4.5 9.83579 4.5 10.25V14.793L8.5 10.793V9.5H5.25Z" fill="#2B2B2C"/>
</svg>
