<svg width="24" height="24" viewBox="0 0 24 24" fill="none" xmlns="http://www.w3.org/2000/svg">
<path d="M20 2.5C20.8284 2.5 21.5 3.17157 21.5 4V16C21.5 16.8284 20.8284 17.5 20 17.5H17.5V20C17.5 20.8284 16.8284 21.5 16 21.5H4C3.17157 21.5 2.5 20.8284 2.5 20V8C2.5 7.17157 3.17157 6.5 4 6.5H6.5V4C6.5 3.17157 7.17157 2.5 8 2.5H20ZM3.5 18.207V20C3.5 20.2761 3.72386 20.5 4 20.5H5.79297L8.79297 17.5H8C7.17157 17.5 6.5 16.8284 6.5 16V15.207L3.5 18.207ZM12.207 20.5H16C16.2761 20.5 16.5 20.2761 16.5 20V17.5H15.207L12.207 20.5ZM7.20703 20.5H10.793L13.793 17.5H10.207L7.20703 20.5ZM3.5 13.207V16.793L6.5 13.793V10.207L3.5 13.207ZM8 3.5C7.72386 3.5 7.5 3.72386 7.5 4V16C7.5 16.2761 7.72386 16.5 8 16.5H20C20.2761 16.5 20.5 16.2761 20.5 16V4C20.5 3.72386 20.2761 3.5 20 3.5H8ZM4 7.5C3.72386 7.5 3.5 7.72386 3.5 8V11.793L6.5 8.79297V7.5H4Z" fill="#2B2B2C"/>
<path d="M18.0001 11.5C18.0001 11.7761 17.7762 12 17.5001 12C17.2239 12 17.0001 11.7761 17.0001 11.5V7.70703L11.8536 12.8535C11.6583 13.0488 11.3418 13.0488 11.1466 12.8535C10.9513 12.6583 10.9513 12.3417 11.1466 12.1465L16.2931 7H12.5001C12.2239 7 12.0001 6.77614 12.0001 6.5C12.0001 6.22386 12.2239 6 12.5001 6H17.5001C17.7762 6 18.0001 6.22386 18.0001 6.5V11.5Z" fill="#2B2B2C"/>
</svg>
