<svg width="18" height="18" viewBox="0 0 18 18" fill="none" xmlns="http://www.w3.org/2000/svg">
<path fill-rule="evenodd" clip-rule="evenodd" d="M11 1.75C10.5858 1.75 10.25 2.08579 10.25 2.5C10.25 2.91421 10.5858 3.25 11 3.25H13.6893L9.96967 6.96967C9.67678 7.26256 9.67678 7.73744 9.96967 8.03033C10.2626 8.32322 10.7374 8.32322 11.0303 8.03033L14.75 4.31066V7C14.75 7.41421 15.0858 7.75 15.5 7.75C15.9142 7.75 16.25 7.41421 16.25 7V2.5C16.25 2.08579 15.9142 1.75 15.5 1.75H11ZM2.5 16.25L7 16.25C7.41421 16.25 7.75 15.9142 7.75 15.5C7.75 15.0858 7.41421 14.75 7 14.75H4.31066L8.03033 11.0303C8.32322 10.7374 8.32322 10.2626 8.03033 9.96967C7.73744 9.67678 7.26256 9.67678 6.96967 9.96967L3.25 13.6893L3.25 11C3.25 10.5858 2.91421 10.25 2.5 10.25C2.08579 10.25 1.75 10.5858 1.75 11V15.5C1.75 15.9142 2.08579 16.25 2.5 16.25Z" fill="#2B2B2C"/>
</svg>
