<svg width="18" height="18" viewBox="0 0 18 18" fill="none" xmlns="http://www.w3.org/2000/svg">
<path fill-rule="evenodd" clip-rule="evenodd" d="M3.25 2C2.55964 2 2 2.55964 2 3.25V6.75C2 7.44036 2.55964 8 3.25 8H6.75C7.44036 8 8 7.44036 8 6.75V3.25C8 2.55964 7.44036 2 6.75 2H3.25ZM3.25 10C2.55964 10 2 10.5596 2 11.25V14.75C2 15.4404 2.55964 16 3.25 16H6.75C7.44036 16 8 15.4404 8 14.75V11.25C8 10.5596 7.44036 10 6.75 10H3.25ZM11.25 2C10.5596 2 10 2.55964 10 3.25V6.75C10 7.44036 10.5596 8 11.25 8H14.75C15.4404 8 16 7.44036 16 6.75V3.25C16 2.55964 15.4404 2 14.75 2H11.25ZM11.25 10C10.5596 10 10 10.5596 10 11.25V14.75C10 15.4404 10.5596 16 11.25 16H14.75C15.4404 16 16 15.4404 16 14.75V11.25C16 10.5596 15.4404 10 14.75 10H11.25Z" fill="#2B2B2C"/>
</svg>
