<svg width="30" height="30" viewBox="0 0 30 30" fill="none" xmlns="http://www.w3.org/2000/svg">
<path fill-rule="evenodd" clip-rule="evenodd" d="M5.75 4C4.7835 4 4 4.7835 4 5.75V12.25C4 13.2165 4.7835 14 5.75 14H12.25C13.2165 14 14 13.2165 14 12.25V5.75C14 4.7835 13.2165 4 12.25 4H5.75ZM5 5.75C5 5.33579 5.33579 5 5.75 5H12.25C12.6642 5 13 5.33579 13 5.75V12.25C13 12.6642 12.6642 13 12.25 13H5.75C5.33579 13 5 12.6642 5 12.25V5.75ZM5.75 16C4.7835 16 4 16.7835 4 17.75V24.25C4 25.2165 4.7835 26 5.75 26H12.25C13.2165 26 14 25.2165 14 24.25V17.75C14 16.7835 13.2165 16 12.25 16H5.75ZM5 17.75C5 17.3358 5.33579 17 5.75 17H12.25C12.6642 17 13 17.3358 13 17.75V24.25C13 24.6642 12.6642 25 12.25 25H5.75C5.33579 25 5 24.6642 5 24.25V17.75ZM16 5.75C16 4.7835 16.7835 4 17.75 4H24.25C25.2165 4 26 4.7835 26 5.75V12.25C26 13.2165 25.2165 14 24.25 14H17.75C16.7835 14 16 13.2165 16 12.25V5.75ZM17.75 5C17.3358 5 17 5.33579 17 5.75V12.25C17 12.6642 17.3358 13 17.75 13H24.25C24.6642 13 25 12.6642 25 12.25V5.75C25 5.33579 24.6642 5 24.25 5H17.75ZM17.75 16C16.7835 16 16 16.7835 16 17.75V24.25C16 25.2165 16.7835 26 17.75 26H24.25C25.2165 26 26 25.2165 26 24.25V17.75C26 16.7835 25.2165 16 24.25 16H17.75ZM17 17.75C17 17.3358 17.3358 17 17.75 17H24.25C24.6642 17 25 17.3358 25 17.75V24.25C25 24.6642 24.6642 25 24.25 25H17.75C17.3358 25 17 24.6642 17 24.25V17.75Z" fill="#2B2B2C"/>
</svg>
