<svg width="24" height="24" viewBox="0 0 24 24" fill="none" xmlns="http://www.w3.org/2000/svg">
<path fill-rule="evenodd" clip-rule="evenodd" d="M4.5 3C3.67157 3 3 3.67157 3 4.5V9.5C3 10.3284 3.67157 11 4.5 11H9.5C10.3284 11 11 10.3284 11 9.5V4.5C11 3.67157 10.3284 3 9.5 3H4.5ZM4 4.5C4 4.22386 4.22386 4 4.5 4H9.5C9.77614 4 10 4.22386 10 4.5V9.5C10 9.77614 9.77614 10 9.5 10H4.5C4.22386 10 4 9.77614 4 9.5V4.5ZM4.5 13C3.67157 13 3 13.6716 3 14.5V19.5C3 20.3284 3.67157 21 4.5 21H9.5C10.3284 21 11 20.3284 11 19.5V14.5C11 13.6716 10.3284 13 9.5 13H4.5ZM4 14.5C4 14.2239 4.22386 14 4.5 14H9.5C9.77614 14 10 14.2239 10 14.5V19.5C10 19.7761 9.77614 20 9.5 20H4.5C4.22386 20 4 19.7761 4 19.5V14.5ZM13 4.5C13 3.67157 13.6716 3 14.5 3H19.5C20.3284 3 21 3.67157 21 4.5V9.5C21 10.3284 20.3284 11 19.5 11H14.5C13.6716 11 13 10.3284 13 9.5V4.5ZM14.5 4C14.2239 4 14 4.22386 14 4.5V9.5C14 9.77614 14.2239 10 14.5 10H19.5C19.7761 10 20 9.77614 20 9.5V4.5C20 4.22386 19.7761 4 19.5 4H14.5ZM14.5 13C13.6716 13 13 13.6716 13 14.5V19.5C13 20.3284 13.6716 21 14.5 21H19.5C20.3284 21 21 20.3284 21 19.5V14.5C21 13.6716 20.3284 13 19.5 13H14.5ZM14 14.5C14 14.2239 14.2239 14 14.5 14H19.5C19.7761 14 20 14.2239 20 14.5V19.5C20 19.7761 19.7761 20 19.5 20H14.5C14.2239 20 14 19.7761 14 19.5V14.5Z" fill="#2B2B2C"/>
</svg>
