<svg width="18" height="18" viewBox="0 0 18 18" fill="none" xmlns="http://www.w3.org/2000/svg">
<path fill-rule="evenodd" clip-rule="evenodd" d="M2 4.5C2 4.22386 2.22386 4 2.5 4C2.77614 4 3 4.22386 3 4.5C3 4.77614 2.77614 5 2.5 5C2.22386 5 2 4.77614 2 4.5ZM2.5 6C3.32843 6 4 5.32843 4 4.5C4 3.67157 3.32843 3 2.5 3C1.67157 3 1 3.67157 1 4.5C1 5.32843 1.67157 6 2.5 6ZM2 9C2 8.72386 2.22386 8.5 2.5 8.5C2.77614 8.5 3 8.72386 3 9C3 9.27614 2.77614 9.5 2.5 9.5C2.22386 9.5 2 9.27614 2 9ZM2.5 10.5C3.32843 10.5 4 9.82843 4 9C4 8.17157 3.32843 7.5 2.5 7.5C1.67157 7.5 1 8.17157 1 9C1 9.82843 1.67157 10.5 2.5 10.5ZM2.5 13C2.22386 13 2 13.2239 2 13.5C2 13.7761 2.22386 14 2.5 14C2.77614 14 3 13.7761 3 13.5C3 13.2239 2.77614 13 2.5 13ZM4 13.5C4 14.3284 3.32843 15 2.5 15C1.67157 15 1 14.3284 1 13.5C1 12.6716 1.67157 12 2.5 12C3.32843 12 4 12.6716 4 13.5ZM7 3C6.17157 3 5.5 3.67157 5.5 4.5C5.5 5.32843 6.17157 6 7 6H15.5C16.3284 6 17 5.32843 17 4.5C17 3.67157 16.3284 3 15.5 3H7ZM6.5 4.5C6.5 4.22386 6.72386 4 7 4H15.5C15.7761 4 16 4.22386 16 4.5C16 4.77614 15.7761 5 15.5 5H7C6.72386 5 6.5 4.77614 6.5 4.5ZM5.5 9C5.5 8.17157 6.17157 7.5 7 7.5H15.5C16.3284 7.5 17 8.17157 17 9C17 9.82843 16.3284 10.5 15.5 10.5H7C6.17157 10.5 5.5 9.82843 5.5 9ZM7 8.5C6.72386 8.5 6.5 8.72386 6.5 9C6.5 9.27614 6.72386 9.5 7 9.5H15.5C15.7761 9.5 16 9.27614 16 9C16 8.72386 15.7761 8.5 15.5 8.5H7ZM7 12C6.17157 12 5.5 12.6716 5.5 13.5C5.5 14.3284 6.17157 15 7 15H15.5C16.3284 15 17 14.3284 17 13.5C17 12.6716 16.3284 12 15.5 12H7ZM6.5 13.5C6.5 13.2239 6.72386 13 7 13H15.5C15.7761 13 16 13.2239 16 13.5C16 13.7761 15.7761 14 15.5 14H7C6.72386 14 6.5 13.7761 6.5 13.5Z" fill="#2B2B2C"/>
</svg>
