<svg width="24" height="24" viewBox="0 0 24 24" fill="none" xmlns="http://www.w3.org/2000/svg">
<path fill-rule="evenodd" clip-rule="evenodd" d="M18.6094 3.1681C19.2088 2.90174 20.0161 2.69904 20.7236 3.05281C20.8204 3.10119 20.8988 3.17965 20.9472 3.27641C21.301 3.98391 21.0983 4.79126 20.8319 5.39057C20.5565 6.01035 20.146 6.5611 19.8536 6.85356L19.5 6.50002L19.8536 6.85357L17.0428 9.66435L18.8853 18.8772C18.9837 19.3689 18.8298 19.8774 18.4751 20.232L17.3536 21.3536C17.2447 21.4624 17.0917 21.5151 16.9389 21.4963C16.7861 21.4774 16.6505 21.3893 16.5713 21.2572L12.4007 14.3064L10.8536 15.8536C10.4877 16.2195 9.81012 16.8333 9.01886 17.4754L9.87662 20.0487C9.9964 20.408 9.90288 20.8042 9.63505 21.072L8.85355 21.8535C8.75299 21.9541 8.61435 22.0071 8.47235 21.9992C8.33035 21.9914 8.19841 21.9234 8.10957 21.8123L6.20703 19.4342L6.16563 19.4565C5.60207 19.7581 5.00771 20 4.5 20C4.22386 20 4 19.7761 4 19.5C4 18.9923 4.24192 18.3979 4.54355 17.8344L4.56584 17.793L2.18765 15.8904C2.0766 15.8016 2.00863 15.6696 2.00077 15.5276C1.9929 15.3856 2.04588 15.247 2.14645 15.1464L2.92794 14.3649C3.19577 14.0971 3.59194 14.0036 3.95127 14.1234L6.52458 14.9811C7.16672 14.1899 7.78055 13.5123 8.14645 13.1464L9.69363 11.5993L2.74276 7.42876C2.61073 7.34955 2.52256 7.21392 2.50375 7.06111C2.48494 6.90829 2.53758 6.75533 2.64645 6.64646L3.76802 5.52489C4.12265 5.17026 4.63106 5.01632 5.12285 5.11468L14.3357 6.95724L17.1464 4.14647L17.1465 4.14647C17.4389 3.85399 17.9897 3.44355 18.6094 3.1681ZM14.8487 7.85841L14.859 7.84808L17.8536 4.85357L17.8536 4.85357C18.0611 4.64602 18.5103 4.30646 19.0156 4.08191C19.4503 3.88872 19.8282 3.82293 20.1114 3.88865C20.1771 4.17182 20.1113 4.54974 19.9181 4.98443C19.6936 5.48966 19.354 5.93892 19.1464 6.14648L16.1523 9.14058L16.1412 9.15168L12.1539 13.139C12.1486 13.1441 12.1435 13.1492 12.1385 13.1544L10.1465 15.1464C9.66492 15.628 8.55908 16.6117 7.3909 17.4725C6.80714 17.9026 6.21914 18.2936 5.69375 18.5748C5.50458 18.676 5.33223 18.7582 5.1777 18.8223C5.24182 18.6678 5.32396 18.4954 5.42521 18.3063C5.7064 17.7809 6.09739 17.1929 6.52753 16.6091C7.38829 15.4409 8.37203 14.3351 8.85356 13.8536L10.8456 11.8615C10.8508 11.8565 10.8559 11.8514 10.861 11.8462L14.8487 7.85841Z" fill="#2B2B2C"/>
</svg>
