<svg width="18" height="18" viewBox="0 0 18 18" fill="none" xmlns="http://www.w3.org/2000/svg">
<path fill-rule="evenodd" clip-rule="evenodd" d="M13.7628 2.24058C14.2684 1.94421 14.9959 1.68901 15.7236 2.05285C15.8204 2.10123 15.8988 2.17969 15.9472 2.27646C16.3111 3.00414 16.0559 3.73171 15.7595 4.2373C15.4613 4.74597 15.0495 5.15772 14.8606 5.34663L14.8536 5.35362L14.8536 5.35363L13.0283 7.1789L13.9466 14.0666C13.9981 14.4525 13.8668 14.8404 13.5915 15.1157L12.8536 15.8536C12.7447 15.9625 12.5917 16.0151 12.4389 15.9963C12.2861 15.9775 12.1505 15.8893 12.0713 15.7573L9.21323 10.9939L7.85356 12.3536C7.73957 12.4676 7.5969 12.6022 7.43266 12.7492C7.45945 12.7954 7.47924 12.8467 7.49029 12.902L7.95093 15.2052C8.00831 15.4921 7.91852 15.7886 7.71165 15.9955L6.85356 16.8536C6.74469 16.9625 6.59173 17.0151 6.43891 16.9963C6.2861 16.9775 6.15047 16.8893 6.07126 16.7573L4.7924 14.6259C4.76456 14.6397 4.7368 14.6532 4.70911 14.6663C4.31831 14.8524 3.89342 15.0001 3.5 15.0001C3.22386 15.0001 3 14.7762 3 14.5001C3 14.1067 3.14764 13.6818 3.33373 13.291C3.34691 13.2633 3.36042 13.2355 3.37422 13.2077L1.24276 11.9288C1.11073 11.8496 1.02256 11.7139 1.00375 11.5611C0.984938 11.4083 1.03758 11.2554 1.14645 11.1465L2.00454 10.2884C2.21141 10.0815 2.50798 9.99174 2.79486 10.0491L5.09806 10.5098C5.15337 10.5208 5.2047 10.5406 5.25092 10.5674C5.39788 10.4032 5.53246 10.2605 5.64645 10.1465L7.00613 8.78684L2.24276 5.92881C2.11073 5.8496 2.02256 5.71397 2.00375 5.56116C1.98494 5.40834 2.03758 5.25539 2.14645 5.14651L2.88438 4.40859C3.15968 4.13328 3.54754 4.00198 3.93346 4.05344L10.8212 4.9718L12.6464 3.14651L12.6465 3.14651L12.6533 3.13961C12.8422 2.9507 13.254 2.53882 13.7628 2.24058ZM11.35 5.85713L11.3576 5.84959L13.3536 3.85361L13.3536 3.85361C13.543 3.6642 13.8773 3.33261 14.2685 3.10328C14.5912 2.91409 14.8713 2.84012 15.1104 2.88967C15.1599 3.12874 15.086 3.40883 14.8968 3.73158C14.6675 4.12278 14.3359 4.45711 14.1464 4.64653L12.1504 6.64261L12.1431 6.6499L7.14645 11.6465C6.79229 12.0007 6.09643 12.6065 5.35559 13.1205C4.98569 13.3772 4.61545 13.6034 4.27918 13.7635C4.25218 13.7763 4.22569 13.7886 4.19972 13.8004C4.21144 13.7744 4.22373 13.7479 4.23659 13.7209C4.39672 13.3846 4.62288 13.0144 4.87955 12.6445C5.3936 11.9036 5.99939 11.2078 6.35356 10.8536L11.35 5.85713Z" fill="#2B2B2C"/>
</svg>
