<svg width="30" height="30" viewBox="0 0 30 30" fill="none" xmlns="http://www.w3.org/2000/svg">
<path fill-rule="evenodd" clip-rule="evenodd" d="M13.4954 3.05504C14.1735 1.91297 15.8268 1.91297 16.5049 3.05504L20.6284 10H25C26.6569 10 28 11.3431 28 13V22.375C28 22.9963 27.4963 23.5 26.875 23.5H24.4569C24.3861 23.9258 24.2207 24.4172 23.9058 24.8547C23.4381 25.5042 22.663 26 21.5 26C20.337 26 19.5619 25.5042 19.0942 24.8547C18.7793 24.4172 18.6139 23.9258 18.5431 23.5H11.4569C11.3861 23.9258 11.2207 24.4172 10.9058 24.8547C10.4381 25.5042 9.66296 26 8.5 26C7.33704 26 6.56193 25.5042 6.09423 24.8547C5.77928 24.4172 5.6139 23.9258 5.54315 23.5H3.12501C2.50369 23.5 2.00001 22.9963 2.00001 22.375L2 13C2 11.3431 3.34314 10 5 10H9.3718L13.4954 3.05504ZM8.77805 11H5C3.89543 11 3 11.8954 3 13L3.00001 22.375C3.00001 22.444 3.05597 22.5 3.12501 22.5H6C6.27614 22.5 6.5 22.7239 6.5 23C6.5 23.3367 6.60511 23.8528 6.90577 24.2703C7.18807 24.6624 7.66296 25 8.5 25C9.33704 25 9.81193 24.6624 10.0942 24.2703C10.3949 23.8528 10.5 23.3367 10.5 23C10.5 22.7239 10.7239 22.5 11 22.5H19C19.2761 22.5 19.5 22.7239 19.5 23C19.5 23.3367 19.6051 23.8528 19.9058 24.2703C20.1881 24.6624 20.663 25 21.5 25C22.337 25 22.8119 24.6624 23.0942 24.2703C23.3949 23.8528 23.5 23.3367 23.5 23C23.5 22.7239 23.7239 22.5 24 22.5H26.875C26.944 22.5 27 22.444 27 22.375V13C27 11.8954 26.1046 11 25 11H21.2222L23.8089 15.3566C24.5016 16.5232 23.6609 18.0001 22.3042 18.0001H7.69604C6.33937 18.0001 5.49866 16.5232 6.19129 15.3567L8.77805 11ZM15.5001 14.0001C15.5001 13.7239 15.2763 13.5001 15.0001 13.5001C14.724 13.5001 14.5001 13.7239 14.5001 14.0001V14.5001C14.5001 14.7762 14.724 15.0001 15.0001 15.0001C15.2763 15.0001 15.5001 14.7762 15.5001 14.5001V14.0001ZM15.0001 6.50009C15.2763 6.50009 15.5001 6.72395 15.5001 7.00009V11.5001C15.5001 11.7762 15.2763 12.0001 15.0001 12.0001C14.724 12.0001 14.5001 11.7762 14.5001 11.5001V7.00009C14.5001 6.72395 14.724 6.50009 15.0001 6.50009Z" fill="#2B2B2C"/>
</svg>
