<svg width="30" height="30" viewBox="0 0 30 30" fill="none" xmlns="http://www.w3.org/2000/svg">
<path fill-rule="evenodd" clip-rule="evenodd" d="M15.5 6C15.2239 6 15 6.22386 15 6.5C15 6.77614 15.2239 7 15.5 7H16.6459C17.2593 7 17.8109 7.37343 18.0386 7.94291L19.0898 10.5707C16.4086 11.1138 14.2636 12.0655 12.5501 13.1366L10.9021 10.5H11.5C11.7761 10.5 12 10.2761 12 10C12 9.72386 11.7761 9.5 11.5 9.5H9.99977H9.99941H9.41421C9.01639 9.5 8.63486 9.65804 8.35355 9.93934L8.14645 10.1464C7.95118 10.3417 7.95118 10.6583 8.14645 10.8536C8.34171 11.0488 8.65829 11.0488 8.85355 10.8536L9.06066 10.6464C9.15443 10.5527 9.28161 10.5 9.41421 10.5H9.7229L11.7163 13.6895C11.091 14.1288 10.5312 14.5793 10.0305 15.0227C9.18967 14.3811 8.13934 14 7 14C4.23858 14 2 16.2386 2 19C2 21.7614 4.23858 24 7 24C9.76142 24 12 21.7614 12 19C12 18.7503 11.9817 18.5049 11.9464 18.265C11.962 18.2503 11.9796 18.234 11.9992 18.2161C12.1 18.1236 12.252 17.9884 12.4522 17.8222C12.8529 17.4896 13.4456 17.0334 14.2071 16.5461C15.7084 15.5853 17.854 14.5106 20.4673 14.0146L20.6877 14.5656C19.0903 15.4003 18 17.0728 18 19C18 21.7614 20.2386 24 23 24C25.7614 24 28 21.7614 28 19C28 16.2386 25.7614 14 23 14C22.5199 14 22.0556 14.0677 21.6161 14.194L18.9671 7.57152C18.5875 6.62238 17.6682 6 16.6459 6H15.5ZM21.0616 15.5002C19.8321 16.1827 19 17.4942 19 19C19 21.2091 20.7909 23 23 23C25.2091 23 27 21.2091 27 19C27 16.7909 25.2091 15 23 15C22.6511 15 22.3126 15.0447 21.99 15.1286L23.1425 18.0101C23.6273 18.0793 24 18.4961 24 19C24 19.5523 23.5523 20 23 20C22.4477 20 22 19.5523 22 19C22 18.7665 22.08 18.5517 22.2141 18.3816L21.0616 15.5002ZM20.0893 13.0696L19.4676 11.5153C15.4188 12.299 12.6672 14.035 10.7648 15.7096C11.1425 16.1414 11.4472 16.6388 11.6594 17.1824C11.7075 17.1414 11.7589 17.0981 11.8135 17.0528C12.2409 16.6979 12.8669 16.2166 13.668 15.7039C15.2074 14.7186 17.4043 13.6108 20.0893 13.0696ZM9.28538 15.7167C8.63754 15.2649 7.84971 15 7 15C4.79086 15 3 16.7909 3 19C3 21.2091 4.79086 23 7 23C9.20914 23 11 21.2091 11 19C11 18.0027 10.635 17.0906 10.0313 16.3901C9.23563 17.1668 8.61695 17.8987 8.12755 18.4776C8.06641 18.5499 8.00728 18.6198 7.95008 18.6872C7.98247 18.7856 8 18.8907 8 19C8 19.5523 7.55228 20 7 20C6.44772 20 6 19.5523 6 19C6 18.4477 6.44772 18 7 18C7.06916 18 7.13667 18.007 7.20187 18.0204L7.33964 17.8566L7.33972 17.8565L7.33974 17.8565C7.81991 17.2849 8.45361 16.5307 9.28538 15.7167Z" fill="#2B2B2C"/>
</svg>
