<svg width="24" height="24" viewBox="0 0 24 24" fill="none" xmlns="http://www.w3.org/2000/svg">
<path fill-rule="evenodd" clip-rule="evenodd" d="M2.5 6C1.94771 6 1.5 6.44772 1.5 7V17C1.5 17.5523 1.94772 18 2.5 18H4.56301C4.78503 18.8626 5.56808 19.5 6.5 19.5C7.43192 19.5 8.21497 18.8626 8.43699 18H15.563C15.785 18.8626 16.5681 19.5 17.5 19.5C18.4319 19.5 19.215 18.8626 19.437 18H21.5C22.0523 18 22.5 17.5523 22.5 17V8.5C22.5 7.11929 21.3807 6 20 6H2.5ZM2.5 13H6V9H2.5V13ZM10.5 13H7V9H10.5V13ZM11.5 13V9H15V13H11.5ZM19.5 14.5H21.5V9H18V13C18 13.8284 18.6716 14.5 19.5 14.5ZM18.5 17.5C18.5 16.9477 18.0523 16.5 17.5 16.5C16.9477 16.5 16.5 16.9477 16.5 17.5C16.5 18.0523 16.9477 18.5 17.5 18.5C18.0523 18.5 18.5 18.0523 18.5 17.5ZM6.5 16.5C5.94772 16.5 5.5 16.9477 5.5 17.5C5.5 18.0523 5.94772 18.5 6.5 18.5C7.05228 18.5 7.5 18.0523 7.5 17.5C7.5 16.9477 7.05228 16.5 6.5 16.5Z" fill="#2B2B2C"/>
</svg>
