<svg width="24" height="24" viewBox="0 0 24 24" fill="none" xmlns="http://www.w3.org/2000/svg">
<path fill-rule="evenodd" clip-rule="evenodd" d="M5.57874 7.21376C5.73974 6.78443 6.15018 6.5 6.6087 6.5H8.4999V9.6578L4.69973 9.5578L5.57874 7.21376ZM3.61643 9.5986L4.64241 6.86264C4.94978 6.043 5.73333 5.5 6.6087 5.5H12.0436C13.4322 5.5 14.7431 6.14113 15.5957 7.23727L17.6659 9.89901L19.1763 9.93876C20.7477 9.98011 22 11.2658 22 12.8378V15.2001C22 15.9181 21.418 16.5001 20.7 16.5001H19.95C19.7183 17.6412 18.7095 18.5 17.5 18.5C16.2906 18.5 15.2817 17.6412 15.05 16.5001H8.94997C8.71831 17.6412 7.70945 18.5 6.5 18.5C5.29055 18.5 4.28169 17.6412 4.05003 16.5001H3.3C2.58203 16.5001 2 15.9181 2 15.2001V11.6427C2 10.6471 2.69192 9.81657 3.61643 9.5986ZM16.3726 9.86498L14.8063 7.85121C14.1432 6.99865 13.1236 6.5 12.0436 6.5H9.4999V9.68412L16.3726 9.86498ZM19.9999 12C19.7238 12 19.4999 12.2239 19.4999 12.5C19.4999 12.7761 19.7238 13 19.9999 13H21V15.2001C21 15.3658 20.8657 15.5001 20.7 15.5001H19.95C19.7184 14.3589 18.7095 13.5 17.5 13.5C16.2905 13.5 15.2816 14.3589 15.05 15.5001H8.95001C8.7184 14.3589 7.70951 13.5 6.5 13.5C5.29049 13.5 4.2816 14.3589 4.04999 15.5001H3.3C3.13431 15.5001 3 15.3658 3 15.2001V11.6427C3 11.0239 3.51031 10.5268 4.12894 10.5431L19.15 10.9384C19.8792 10.9576 20.5036 11.3858 20.8058 12H19.9999ZM6.5 17.5C7.32843 17.5 8 16.8284 8 16C8 15.1716 7.32843 14.5 6.5 14.5C5.67157 14.5 5 15.1716 5 16C5 16.8284 5.67157 17.5 6.5 17.5ZM17.5 17.5C18.3284 17.5 19 16.8284 19 16C19 15.1716 18.3284 14.5 17.5 14.5C16.6716 14.5 16 15.1716 16 16C16 16.8284 16.6716 17.5 17.5 17.5ZM9.5 12.5C9.5 12.2239 9.72386 12 10 12H11.5C11.7761 12 12 12.2239 12 12.5C12 12.7761 11.7761 13 11.5 13H10C9.72386 13 9.5 12.7761 9.5 12.5Z" fill="#2B2B2C"/>
</svg>
