<svg width="30" height="30" viewBox="0 0 30 30" fill="none" xmlns="http://www.w3.org/2000/svg">
<path fill-rule="evenodd" clip-rule="evenodd" d="M7.79986 7.5C7.20708 7.5 6.6699 7.8491 6.42915 8.39079L5.22131 11.1084L11.0001 11.3396V7.5H7.79986ZM12.0001 11.3796L21.5548 11.7618L18.611 8.81802C17.7671 7.9741 16.6225 7.5 15.4291 7.5H12.0001V11.3796ZM22.966 11.8182C22.9417 11.7556 22.9042 11.697 22.8537 11.6464L19.3181 8.11091C18.2867 7.07946 16.8877 6.5 15.4291 6.5H7.79986C6.81189 6.5 5.91659 7.08183 5.51534 7.98465L4.1267 11.1091C2.92788 11.2885 2 12.3231 2 13.5816V18.5C2 19.3284 2.67157 20 3.5 20H4.04148C4.27951 21.4188 5.5135 22.5 7 22.5C8.4865 22.5 9.72049 21.4188 9.95852 20H19.0415C19.2795 21.4188 20.5135 22.5 22 22.5C23.4865 22.5 24.7205 21.4188 24.9585 20H26.5C27.3284 20 28 19.3284 28 18.5V15.5H25.75C25.4739 15.5 25.25 15.2761 25.25 15C25.25 14.7238 25.4739 14.5 25.75 14.5H27.8877C27.5088 13.0419 26.2127 11.9481 24.6399 11.8852L22.966 11.8182ZM9 19.5C9 20.6046 8.10457 21.5 7 21.5C5.89543 21.5 5 20.6046 5 19.5C5 18.3954 5.89543 17.5 7 17.5C8.10457 17.5 9 18.3954 9 19.5ZM24 19.5C24 20.6046 23.1046 21.5 22 21.5C20.8954 21.5 20 20.6046 20 19.5C20 18.3954 20.8954 17.5 22 17.5C23.1046 17.5 24 18.3954 24 19.5ZM12.75 14.5C12.4739 14.5 12.25 14.7238 12.25 15C12.25 15.2761 12.4739 15.5 12.75 15.5H14.75C15.0261 15.5 15.25 15.2761 15.25 15C15.25 14.7238 15.0261 14.5 14.75 14.5H12.75Z" fill="#2B2B2C"/>
</svg>
