<svg width="30" height="30" viewBox="0 0 30 30" fill="none" xmlns="http://www.w3.org/2000/svg">
<path fill-rule="evenodd" clip-rule="evenodd" d="M18 3C18 2.72386 17.7761 2.5 17.5 2.5C17.2239 2.5 17 2.72386 17 3V6H16.2486C15.8205 6 15.5234 6.34227 15.4908 6.70506C15.4212 7.47653 14.963 8.18228 14.3912 8.71027C14.1089 8.97096 13.8122 9.17535 13.5493 9.31207C13.2726 9.45599 13.0814 9.5 13 9.5H9C8.86739 9.5 8.74021 9.55268 8.64645 9.64645L5.29289 13H3.5C2.67235 13 2 13.6696 2 14.4988V19.5C2 20.6413 2.43399 21.3911 2.89645 21.8536C3.12291 22.08 3.34989 22.2316 3.5228 22.3277C3.60952 22.3759 3.68358 22.4106 3.73859 22.4342C3.76613 22.446 3.78901 22.455 3.80645 22.4616L3.82849 22.4697L3.8363 22.4725L3.83938 22.4735L3.8407 22.4739C3.8407 22.4739 3.84189 22.4743 4 22L3.84189 22.4743C3.9321 22.5044 4.02901 22.5081 4.12126 22.4851L5.40386 22.1644C7.08636 21.7438 8.85392 21.8117 10.4992 22.3601L11.1993 22.5935C13.0178 23.1996 14.9923 23.1416 16.772 22.4297C18.2338 21.845 19.8484 21.7624 21.3622 22.1949L22.3626 22.4808C22.4073 22.4935 22.4535 22.5 22.5 22.5H22.7972C24.6265 22.5 26.2506 21.3294 26.8291 19.594L28.4743 14.6581C28.5252 14.5056 28.4996 14.338 28.4056 14.2076C28.3116 14.0773 28.1607 14 28 14H24.8465L22.1202 6.72998C21.9556 6.2909 21.5358 6 21.0669 6H20V4.5C20 4.22386 19.7761 4 19.5 4C19.2239 4 19 4.22386 19 4.5V6H18V3ZM15.0696 9.44497C15.7077 8.85578 16.3073 8.01124 16.4618 7H21.0669C21.119 7 21.1656 7.03232 21.1839 7.08111L21.716 8.5H18.5C17.9477 8.5 17.5 8.94772 17.5 9.5V11.5C17.5 12.0523 17.9477 12.5 18.5 12.5H23.216L23.7785 14H20C19.8106 14 19.6375 14.107 19.5528 14.2764C19.0825 15.217 18.5748 15.7627 18.0768 16.0773C17.5815 16.39 17.0552 16.5 16.5 16.5H3V14.4988C3 14.2234 3.22308 14 3.5 14H5.5C5.63261 14 5.75979 13.9473 5.85355 13.8536L9.20711 10.5H13C13.3177 10.5 13.6786 10.372 14.0107 10.1993C14.3566 10.0194 14.7256 9.76258 15.0696 9.44497ZM22 9.5C22.0301 9.5 22.0595 9.49735 22.0881 9.49226L22.841 11.5H18.5V9.5H22ZM4.00845 21.4535C4.02133 21.4607 4.03359 21.4673 4.04516 21.4733L5.16132 21.1943C7.02833 20.7275 8.98972 20.8029 10.8154 21.4114L11.5155 21.6448C13.1096 22.1762 14.8405 22.1253 16.4006 21.5012C18.0682 20.8342 19.9101 20.74 21.637 21.2334L22.57 21.5H22.7972C24.1961 21.5 25.438 20.6049 25.8804 19.2777L27.3063 15H20.3027C19.8063 15.9071 19.2384 16.5263 18.6107 16.9227C17.9185 17.36 17.1948 17.5 16.5 17.5H3V19.5C3 20.3587 3.31601 20.8589 3.60355 21.1464C3.75209 21.295 3.90011 21.3934 4.00845 21.4535ZM5.44042 24.3802C7.06756 23.8378 8.83962 23.9308 10.401 24.6406C12.3718 25.5364 14.6264 25.5723 16.6248 24.7396L16.7373 24.6928C18.5017 23.9576 20.4886 23.9676 22.2455 24.7206L22.803 24.9595C23.0569 25.0683 23.3508 24.9507 23.4596 24.6969C23.5684 24.4431 23.4508 24.1492 23.197 24.0404L22.6394 23.8014C20.6341 22.942 18.3665 22.9306 16.3527 23.7697L16.2401 23.8166C14.4982 24.5424 12.5328 24.5111 10.8148 23.7302C9.02363 22.916 6.99079 22.8093 5.1242 23.4315L3.34189 24.0256C3.07992 24.1129 2.93834 24.3961 3.02566 24.6581C3.11299 24.92 3.39615 25.0616 3.65812 24.9743L5.44042 24.3802ZM11.5 13.5C11.5 14.0523 11.0523 14.5 10.5 14.5C9.94772 14.5 9.50001 14.0523 9.50001 13.5C9.50001 12.9477 9.94772 12.5 10.5 12.5C11.0523 12.5 11.5 12.9477 11.5 13.5ZM15.5 13.5C15.5 14.0523 15.0523 14.5 14.5 14.5C13.9477 14.5 13.5 14.0523 13.5 13.5C13.5 12.9477 13.9477 12.5 14.5 12.5C15.0523 12.5 15.5 12.9477 15.5 13.5Z" fill="#2B2B2C"/>
</svg>
