<svg width="24" height="24" viewBox="0 0 24 24" fill="none" xmlns="http://www.w3.org/2000/svg">
<path fill-rule="evenodd" clip-rule="evenodd" d="M14 2.5C14 2.22386 13.7761 2 13.5 2C13.2239 2 13 2.22386 13 2.5V5H12.6988C12.2967 5 12.0249 5.3212 11.9927 5.65151C11.9393 6.19872 11.5913 6.66008 11.132 7.00199C10.9059 7.17027 10.6665 7.29856 10.4532 7.3835C10.2307 7.47208 10.071 7.5 10 7.5H7.5C7.33852 7.5 7.18699 7.57798 7.09313 7.70938L4.74269 11H2.5C2.22386 11 2 11.2239 2 11.5V14.5C2 15.891 2.77375 16.6919 3.26925 16.9436C3.33093 16.9758 3.39964 16.9953 3.47142 16.9993C3.50977 17.0015 3.54801 16.9992 3.58539 16.9927L4.62377 16.8196C5.80464 16.6228 7.01731 16.7771 8.11128 17.2633L8.17351 17.291C9.97299 18.0907 12.027 18.0907 13.8265 17.291C14.953 16.7903 16.2069 16.6513 17.4156 16.893L17.8926 16.9884C17.9096 16.9922 17.9269 16.995 17.9444 16.9969C17.9669 16.9995 17.9892 17.0005 18.0113 17H18.2679C19.8135 17 21.1762 15.9862 21.6203 14.5057L22.4789 11.6437C22.5243 11.4923 22.4955 11.3283 22.4011 11.2015C22.3068 11.0747 22.1581 11 22 11H19.5001C19.5001 10.9433 19.4904 10.8855 19.4699 10.8291L17.5896 5.65826C17.4459 5.26308 17.0703 5 16.6498 5H16V3.5C16 3.22386 15.7761 3 15.5 3C15.2239 3 15 3.22386 15 3.5V5H14V2.5ZM13.5 6H15.5H16.6498L17.0134 7H15C14.4477 7 14 7.44772 14 8V9C14 9.55228 14.4477 10 15 10H18C18.0345 10 18.0681 9.99651 18.1006 9.98987L18.468 11H16C15.8106 11 15.6375 11.107 15.5528 11.2764C15.1919 11.9981 14.757 12.4201 14.3269 12.6659C13.8936 12.9135 13.4337 13 13 13H3V12H5C5.16148 12 5.31301 11.922 5.40687 11.7906L7.75731 8.5H10C10.2482 8.5 10.5413 8.42477 10.8231 8.31255C11.1141 8.19669 11.4304 8.02651 11.7291 7.80416C12.2647 7.40545 12.7903 6.8015 12.9507 6H13.5ZM15 8H17.3771L17.7407 9H15V8ZM4.45937 15.8332L3.60747 15.9752C3.38006 15.7931 3 15.3316 3 14.5V14H13C13.5663 14 14.2064 13.8865 14.8231 13.5341C15.3755 13.2184 15.8843 12.7251 16.2993 12H21.328L20.6625 14.2184C20.3452 15.2758 19.3719 16 18.2679 16H18.0494L17.6118 15.9125C16.2002 15.6302 14.7358 15.7925 13.4204 16.3771C11.8795 17.062 10.1206 17.062 8.57965 16.3771L8.51742 16.3495C7.24448 15.7837 5.83342 15.6042 4.45937 15.8332ZM13.8816 19.3859C15.2724 18.8296 16.8085 18.751 18.2487 19.1625L19.3626 19.4808C19.6282 19.5567 19.9049 19.4029 19.9808 19.1374C20.0566 18.8719 19.9029 18.5951 19.6374 18.5193L18.5234 18.201C16.8701 17.7286 15.1067 17.8188 13.5102 18.4574C11.8988 19.102 10.1012 19.102 8.48977 18.4574C6.89328 17.8188 5.12989 17.7286 3.47657 18.201L2.36265 18.5193C2.09713 18.5951 1.94338 18.8719 2.01924 19.1374C2.09511 19.4029 2.37185 19.5567 2.63737 19.4808L3.75129 19.1625C5.19152 18.751 6.72765 18.8296 8.11838 19.3859C9.96821 20.1258 12.0318 20.1258 13.8816 19.3859ZM9.5 11C9.5 11.4142 9.16421 11.75 8.75 11.75C8.33579 11.75 8 11.4142 8 11C8 10.5858 8.33579 10.25 8.75 10.25C9.16421 10.25 9.5 10.5858 9.5 11ZM12.5 11C12.5 11.4142 12.1642 11.75 11.75 11.75C11.3358 11.75 11 11.4142 11 11C11 10.5858 11.3358 10.25 11.75 10.25C12.1642 10.25 12.5 10.5858 12.5 11Z" fill="#2B2B2C"/>
</svg>
