<svg width="18" height="18" viewBox="0 0 18 18" fill="none" xmlns="http://www.w3.org/2000/svg">
<path fill-rule="evenodd" clip-rule="evenodd" d="M10 1C10.2761 1 10.5 1.22386 10.5 1.5V3.5H11.5V2.5C11.5 2.22386 11.7239 2 12 2C12.2761 2 12.5 2.22386 12.5 2.5V3.5H12.7298C13.1064 3.5 13.4408 3.74105 13.5598 4.0983L14.8604 8H16.5C16.654 8 16.7994 8.07094 16.8941 8.19229C16.9889 8.31365 17.0224 8.4719 16.9851 8.62127L16.4112 10.917C16.1051 12.1412 15.0052 13 13.7433 13H13.5111C13.4866 13.0005 13.4619 12.9993 13.4371 12.9961C13.4136 12.9931 13.3907 12.9886 13.3684 12.9825L12.933 12.8736C12.0307 12.6481 11.0793 12.7243 10.2243 13.0907L9.96895 13.2001C8.70992 13.7397 7.27718 13.6976 6.05201 13.085C5.32469 12.7214 4.4969 12.6105 3.69952 12.77L2.59803 12.9903C2.47868 13.0142 2.36076 12.9934 2.26156 12.9395L2.25204 12.9345C2.24017 12.9281 2.22467 12.9196 2.20605 12.9088C2.16889 12.8872 2.11894 12.8565 2.06049 12.8163C1.94428 12.7364 1.79043 12.6162 1.63591 12.4521C1.32541 12.1222 1.00002 11.5992 1 10.875V8C1 7.72386 1.22386 7.5 1.5 7.5H3.29292L5.14647 5.64645C5.24024 5.55268 5.36741 5.5 5.50002 5.5H7.00002C7.00002 5.5 7.00654 5.5 7.0237 5.49735C7.04036 5.49477 7.06268 5.49025 7.09064 5.48286C7.14699 5.46798 7.21765 5.44378 7.29893 5.40874C7.46199 5.33845 7.64965 5.23241 7.82856 5.09597C8.19939 4.81318 8.45677 4.46123 8.49491 4.09776C8.52634 3.79816 8.7745 3.5 9.14916 3.5H9.5V1.5C9.5 1.22386 9.72386 1 10 1ZM12 4.5H10H9.4348C9.27471 5.10729 8.84624 5.57749 8.43495 5.89114C8.19032 6.07769 7.93183 6.22487 7.69477 6.32706C7.47091 6.42355 7.22009 6.5 7.00002 6.5H5.70713L3.85358 8.35355C3.75981 8.44732 3.63263 8.5 3.50002 8.5H2V9.5H10C10.3028 9.5 10.5474 9.44122 10.7753 9.28639C11.0121 9.12556 11.2758 8.83043 11.5528 8.27639C11.6375 8.107 11.8106 8 12 8H13.8063L12.6396 4.5H12ZM2.59655 11.9708L3.5034 11.7894C4.51884 11.5863 5.573 11.7275 6.49922 12.1906C7.4613 12.6716 8.58636 12.7047 9.57503 12.281L9.83043 12.1715C10.8862 11.7191 12.0612 11.6249 13.1755 11.9035L13.5615 12H13.7433C14.5463 12 15.2463 11.4535 15.441 10.6744L15.8596 9H14.5116C14.5038 9.00018 14.4961 9.00018 14.4883 9H12.3001C12.015 9.50159 11.6994 9.86757 11.3372 10.1136C10.9027 10.4088 10.4473 10.5 10 10.5H2V10.875C2.00001 11.2758 2.17461 11.5653 2.36411 11.7667C2.44657 11.8543 2.52954 11.9223 2.59655 11.9708ZM9.5 8.5C9.77614 8.5 10 8.27614 10 8C10 7.72386 9.77614 7.5 9.5 7.5C9.22386 7.5 9 7.72386 9 8C9 8.27614 9.22386 8.5 9.5 8.5ZM5.84459 14.8958C4.89398 14.4963 3.83887 14.4183 2.83985 14.6736L1.62383 14.9845C1.35629 15.0529 1.08397 14.8914 1.01558 14.6239C0.947185 14.3564 1.10863 14.084 1.37617 14.0156L2.59219 13.7048C3.80238 13.3954 5.08051 13.4899 6.23205 13.9739C7.36074 14.4483 8.62938 14.4666 9.77131 14.0251L9.85345 13.9933C11.1415 13.4953 12.5626 13.4608 13.8732 13.8959L14.2638 14.0255C14.5259 14.1125 14.6678 14.3955 14.5809 14.6576C14.4939 14.9197 14.2109 15.0616 13.9488 14.9746L13.5582 14.845C12.4679 14.483 11.2856 14.5117 10.2141 14.926L10.132 14.9578C8.74866 15.4927 7.21185 15.4705 5.84459 14.8958ZM8 8C8 8.27614 7.77614 8.5 7.5 8.5C7.22386 8.5 7 8.27614 7 8C7 7.72386 7.22386 7.5 7.5 7.5C7.77614 7.5 8 7.72386 8 8Z" fill="#2B2B2C"/>
</svg>
