<svg width="18" height="18" viewBox="0 0 18 18" fill="none" xmlns="http://www.w3.org/2000/svg">
<path fill-rule="evenodd" clip-rule="evenodd" d="M3.54061 4.5C3.19226 4.5 2.89691 4.75615 2.84765 5.10101L2.5713 7.03547L4.5 7.09976V4.5H3.54061ZM5.5 4.5V7.13309L7.99986 7.21642V4.5H5.5ZM1.8577 4.95958L1.51706 7.34402C1.20201 7.60033 1 7.99119 1 8.43053V11.9C1 12.5075 1.49249 13 2.1 13H2.56302C2.78505 13.8626 3.56809 14.5 4.5 14.5C5.43191 14.5 6.21495 13.8626 6.43698 13H11.563C11.7851 13.8626 12.5681 14.5 13.5 14.5C14.4339 14.5 15.2183 13.8599 15.4384 12.9945C16.3126 12.9241 17 12.1923 17 11.3V9.74103C17 8.50061 16.0164 7.48364 14.7766 7.44231L14.1582 7.4217L11.7726 4.69523C11.108 3.93568 10.1478 3.5 9.13855 3.5H3.54061C2.69461 3.5 1.97734 4.12208 1.8577 4.95958ZM11.02 5.35374L12.7895 7.37607L8.99986 7.24975V4.5H9.13855C9.85946 4.5 10.5453 4.8112 11.02 5.35374ZM14.4999 9.5C14.4999 9.22386 14.7237 9 14.9999 9H15.7682C15.5416 8.67385 15.1692 8.45595 14.7433 8.44176L2.41333 8.03076C2.18731 8.02322 2 8.2044 2 8.43053V11.9C2 11.9553 2.04477 12 2.1 12H2.563C2.78501 11.1374 3.56807 10.5 4.5 10.5C5.43193 10.5 6.21499 11.1374 6.437 12H11.563C11.785 11.1374 12.5681 10.5 13.5 10.5C14.4273 10.5 15.2073 11.1311 15.4337 11.9873C15.7563 11.9249 16 11.6409 16 11.3V10H14.9999C14.7237 10 14.4999 9.77614 14.4999 9.5ZM4.5 13.5C5.05228 13.5 5.5 13.0523 5.5 12.5C5.5 11.9477 5.05228 11.5 4.5 11.5C3.94772 11.5 3.5 11.9477 3.5 12.5C3.5 13.0523 3.94772 13.5 4.5 13.5ZM13.5 13.5C14.0523 13.5 14.5 13.0523 14.5 12.5C14.5 11.9477 14.0523 11.5 13.5 11.5C12.9477 11.5 12.5 11.9477 12.5 12.5C12.5 13.0523 12.9477 13.5 13.5 13.5Z" fill="#2B2B2C"/>
</svg>
