<svg width="18" height="18" viewBox="0 0 18 18" fill="none" xmlns="http://www.w3.org/2000/svg">
<path d="M5.36124 2.09668H3.14124V2.55702H3.96524V4.84326H4.52924V2.55702H5.36124V2.09668Z" fill="#2B2B2C"/>
<path d="M8.33536 4.84326H8.91936L7.90336 2.09668H7.16736L6.15136 4.84326H6.71136L6.90736 4.29008H8.13936L8.33536 4.84326ZM7.06736 3.84521L7.17936 3.53187C7.29936 3.19144 7.42336 2.82781 7.52336 2.50286C7.62336 2.82394 7.75136 3.17984 7.87136 3.52026L7.98336 3.84521H7.06736Z" fill="#2B2B2C"/>
<path d="M12.739 4.84326L11.703 3.38873L12.631 2.09668H12.007L11.375 3.00189L10.743 2.09668H10.107L11.031 3.38487L9.99902 4.84326H10.615L11.367 3.77944L12.111 4.84326H12.739Z" fill="#2B2B2C"/>
<path d="M14.6553 2.09668H14.0913V4.84326H14.6553V2.09668Z" fill="#2B2B2C"/>
<path fill-rule="evenodd" clip-rule="evenodd" d="M5.3612 2C5.41643 2 5.4612 2.0433 5.4612 2.09671V2.55705C5.4612 2.61046 5.41643 2.65376 5.3612 2.65376H4.6292V4.84329C4.6292 4.8967 4.58443 4.94 4.5292 4.94H3.9652C3.90997 4.94 3.8652 4.8967 3.8652 4.84329V2.65376H3.1412C3.08597 2.65376 3.0412 2.61046 3.0412 2.55705V2.09671C3.0412 2.0433 3.08597 2 3.1412 2H5.3612ZM3.1412 2.55705V2.09671H5.3612V2.55705H4.5292V4.84329H3.9652V2.55705H3.1412ZM8.33532 4.94C8.29259 4.94 8.25458 4.91374 8.24072 4.87464L8.06788 4.38682H6.97877L6.80592 4.87464C6.79207 4.91374 6.75406 4.94 6.71132 4.94H6.15132C6.11879 4.94 6.0883 4.9247 6.06957 4.89898C6.05084 4.87326 6.04621 4.84034 6.05717 4.81072L7.07317 2.06413C7.0874 2.02567 7.12508 2 7.16732 2H7.90332C7.94557 2 7.98325 2.02567 7.99748 2.06413L9.01348 4.81072C9.02444 4.84034 9.01981 4.87326 9.00108 4.89898C8.98235 4.9247 8.95185 4.94 8.91932 4.94H8.33532ZM6.90732 4.29011H8.13932L8.33532 4.84329H8.91932L7.90332 2.09671H7.16732L6.15132 4.84329H6.71132L6.90732 4.29011ZM7.17932 3.5319L7.06732 3.84524H7.98332L7.87132 3.52029C7.85466 3.47303 7.83785 3.42547 7.82098 3.37774C7.73682 3.1397 7.65123 2.89758 7.57615 2.6681C7.55786 2.6122 7.54019 2.55705 7.52332 2.5029C7.50664 2.5571 7.48929 2.61238 7.47141 2.66845C7.38207 2.94851 7.27931 3.24826 7.17932 3.5319ZM7.52332 2.5029C7.44427 2.74513 7.06732 3.84524 7.06732 3.84524H7.98332C7.96676 3.79825 8.00014 3.8928 7.98332 3.84524C7.98332 3.84524 7.5875 2.69363 7.52332 2.5029ZM12.8275 4.88828C12.8102 4.92008 12.7761 4.94 12.739 4.94H12.111C12.0778 4.94 12.0467 4.92407 12.0281 4.89747L11.3665 3.95146L10.6975 4.89787C10.6789 4.92424 10.648 4.94 10.615 4.94H9.99898C9.96188 4.94 9.92783 4.92014 9.91053 4.88841C9.89322 4.85667 9.8955 4.81828 9.91645 4.78867L10.9095 3.38527L10.0248 2.15183C10.0036 2.12226 10.0011 2.08375 10.0184 2.05187C10.0356 2.01998 10.0698 2 10.107 2H10.743C10.7762 2 10.8073 2.01596 10.8259 2.04259L11.375 2.8291L11.9241 2.04259C11.9427 2.01596 11.9738 2 12.007 2H12.631C12.6682 2 12.7023 2.01999 12.7196 2.05189C12.7368 2.08379 12.7343 2.12232 12.7131 2.15188L11.8246 3.38899L12.8213 4.78843C12.8424 4.81802 12.8448 4.85647 12.8275 4.88828ZM11.703 3.38876L12.631 2.09671H12.007L11.375 3.00192L10.743 2.09671H10.107L11.031 3.3849L9.99898 4.84329H10.615L11.367 3.77948L12.111 4.84329H12.739L11.703 3.38876ZM14.6553 2C14.7105 2 14.7553 2.0433 14.7553 2.09671V4.84329C14.7553 4.8967 14.7105 4.94 14.6553 4.94H14.0913C14.0361 4.94 13.9913 4.8967 13.9913 4.84329V2.09671C13.9913 2.0433 14.0361 2 14.0913 2H14.6553ZM14.0913 2.09671H14.6553V4.84329H14.0913V2.09671Z" fill="#2B2B2C"/>
<path fill-rule="evenodd" clip-rule="evenodd" d="M1 7.25C1 6.55964 1.55964 6 2.25 6H12.9802C13.5013 6 13.9677 6.32322 14.1506 6.81109L15.4115 10.1734L16.7774 11.084C16.9164 11.1767 17 11.3328 17 11.5H17H15.5C15.2238 11.5 15 11.7239 15 12C15 12.2761 15.2238 12.5 15.5 12.5H17H17V13.7503C17 14.4409 16.4401 15 15.75 15H14.5816C14.3007 15.5912 13.6981 16 13 16C12.3019 16 11.6993 15.5912 11.4184 15H6.58159C6.30073 15.5912 5.6981 16 5 16C4.30191 16 3.69928 15.5912 3.41842 15H2.25C1.55964 15 1 14.4404 1 13.75V7.25ZM11 10V7.5H13.341L14.2785 10L11 10ZM2 10V7.5H3.49999L3.5 10H2ZM4.5 10L4.49999 7.5H6.49998V10L4.5 10ZM7.49998 10V7.5H9.49998V10H7.49998ZM4.25 14.25C4.25 13.8358 4.58579 13.5 5 13.5C5.41421 13.5 5.75 13.8358 5.75 14.25C5.75 14.6642 5.41421 15 5 15C4.58579 15 4.25 14.6642 4.25 14.25ZM12.25 14.25C12.25 13.8358 12.5858 13.5 13 13.5C13.4142 13.5 13.75 13.8358 13.75 14.25C13.75 14.6642 13.4142 15 13 15C12.5858 15 12.25 14.6642 12.25 14.25Z" fill="#2B2B2C"/>
</svg>
