<svg width="24" height="24" viewBox="0 0 24 24" fill="none" xmlns="http://www.w3.org/2000/svg">
<path fill-rule="evenodd" clip-rule="evenodd" d="M8.19387 3.1C8.19387 3.04477 8.1491 3 8.09387 3H5.59637C5.54114 3 5.49637 3.04477 5.49637 3.1V3.6355C5.49637 3.69073 5.54114 3.7355 5.59637 3.7355H6.42337V6.295C6.42337 6.35023 6.46814 6.395 6.52337 6.395H7.15787C7.2131 6.395 7.25787 6.35023 7.25787 6.295V3.7355H8.09387C8.1491 3.7355 8.19387 3.69073 8.19387 3.6355V3.1ZM5.59637 3.63548V3.6355H6.52334V3.63548H5.59637ZM8.09384 3.1V3.63548H7.15784V6.29498H6.52337V6.295H7.15787V3.6355H8.09387V3.1H8.09384ZM11.2202 6.32742C11.234 6.36784 11.272 6.395 11.3148 6.395H11.9718C12.0043 6.395 12.0348 6.37918 12.0535 6.35258C12.0722 6.32599 12.0769 6.29194 12.0659 6.26132L10.9229 3.06632C10.9087 3.02654 10.871 3 10.8288 3H10.0008C9.95852 3 9.92083 3.02654 9.9066 3.06632L8.7636 6.26132C8.75265 6.29194 8.75727 6.32599 8.776 6.35258C8.79473 6.37918 8.82523 6.395 8.85776 6.395H9.48776C9.53049 6.395 9.56851 6.36784 9.58236 6.32742L9.7797 5.7515H11.0228L11.2202 6.32742ZM11.3148 6.29498L11.3148 6.295H11.9718L10.8288 3.1H10.8287L11.9717 6.29498H11.3148ZM11.0942 5.6515L11.0942 5.65147H9.70823L9.48773 6.29498H8.85777L8.85776 6.295H9.48776L9.70826 5.6515H11.0942ZM10.8288 5.0575H9.97659C9.97659 5.0575 10.3093 4.10158 10.4013 3.80859L10.8288 5.0575ZM10.0143 4.7695C10.1292 4.43243 10.2473 4.0758 10.3493 3.744C10.3672 3.68601 10.3845 3.62877 10.4013 3.57253C10.4012 3.57251 10.4012 3.57249 10.4012 3.57248C10.2887 3.95048 10.1492 4.37347 10.0142 4.76947L9.88823 5.13398H9.88827L10.0143 4.7695ZM16.1439 6.395C16.181 6.395 16.2151 6.3744 16.2324 6.34151C16.2497 6.30863 16.2473 6.26887 16.2262 6.23827L15.1 4.60324L16.1045 3.15705C16.1257 3.12648 16.1282 3.08664 16.111 3.05366C16.0937 3.02067 16.0596 3 16.0224 3H15.3204C15.2871 3 15.2561 3.0165 15.2375 3.04404L14.6094 3.9743L13.9812 3.04404C13.9627 3.0165 13.9316 3 13.8984 3H13.1829C13.1457 3 13.1115 3.02066 13.0943 3.05363C13.077 3.0866 13.0795 3.12642 13.1007 3.157L14.1009 4.59888L12.9788 6.23852C12.9579 6.26914 12.9556 6.30884 12.9729 6.34165C12.9902 6.37446 13.0243 6.395 13.0614 6.395H13.7544C13.7874 6.395 13.8183 6.3787 13.8369 6.35144L14.5999 5.23534L15.3545 6.35102C15.3731 6.37852 15.4042 6.395 15.4374 6.395H16.1439ZM16.0224 3.1L14.9784 4.603L14.9783 4.60297L16.0223 3.1H16.0224ZM16.1438 6.29498H15.4373L15.4374 6.295H16.1439L16.1438 6.29498ZM14.6004 5.0575L14.6003 5.05748L13.7543 6.29498H13.0614L13.0614 6.295H13.7544L14.6004 5.0575ZM18.2747 3.1C18.2747 3.04477 18.23 3 18.1747 3H17.5402C17.485 3 17.4402 3.04477 17.4402 3.1V6.295C17.4402 6.35023 17.485 6.395 17.5402 6.395H18.1747C18.23 6.395 18.2747 6.35023 18.2747 6.295V3.1ZM18.1747 3.1V6.29498H17.5402V6.295H18.1747V3.1H18.1747Z" fill="#2B2B2C"/>
<path fill-rule="evenodd" clip-rule="evenodd" d="M3.5 8C2.67157 8 2 8.67157 2 9.5V18C2 18.8284 2.67157 19.5 3.5 19.5H4.56301C4.78503 20.3626 5.56808 21 6.5 21C7.43192 21 8.21497 20.3626 8.43699 19.5H15.563C15.785 20.3626 16.5681 21 17.5 21C18.4319 21 19.215 20.3626 19.437 19.5H20.5C21.3282 19.5 22 18.829 22 18.0004V15C22 14.8328 21.9164 14.6767 21.7773 14.584C21.0076 14.0708 20.4765 13.8021 20.1232 13.6608C20.0296 13.6233 19.9478 13.5945 19.8765 13.5724L18.2093 8.98739C17.9937 8.3946 17.4303 8 16.7996 8H3.5ZM15.563 18.5H8.43699C8.21497 17.6374 7.43192 17 6.5 17C5.56808 17 4.78503 17.6374 4.56301 18.5H3.5C3.22386 18.5 3 18.2761 3 18V14.5H12.5C13.0523 14.5 13.5 14.0523 13.5 13.5V11C13.5 10.4477 13.0523 10 12.5 10H3V9.5C3 9.22386 3.22386 9 3.5 9H16.7996C17.0098 9 17.1976 9.13153 17.2695 9.32913L17.5134 10H16C15.4477 10 15 10.4477 15 11V13.5C15 14.0523 15.4477 14.5 16 14.5H19.4749C19.4793 14.5008 19.4854 14.502 19.4931 14.5037C19.5331 14.5126 19.6166 14.5351 19.7518 14.5892C19.9948 14.6864 20.3956 14.8817 21 15.2702V15.5H20C19.7239 15.5 19.5 15.7239 19.5 16C19.5 16.2761 19.7239 16.5 20 16.5H21V18.0004C21 18.2763 20.7764 18.5 20.5 18.5H19.437C19.215 17.6374 18.4319 17 17.5 17C16.5681 17 15.785 17.6374 15.563 18.5ZM16.5 19C16.5 19.5523 16.9477 20 17.5 20C18.0523 20 18.5 19.5523 18.5 19C18.5 18.4477 18.0523 18 17.5 18C16.9477 18 16.5 18.4477 16.5 19ZM7.5 19C7.5 18.4477 7.05228 18 6.5 18C5.94772 18 5.5 18.4477 5.5 19C5.5 19.5523 5.94772 20 6.5 20C7.05228 20 7.5 19.5523 7.5 19ZM16 11H17.8771L18.7861 13.5H16V11ZM3 13.5V11H5.5V13.5H3ZM6.5 13.5V11H9V13.5H6.5ZM10 13.5V11H12.5V13.5H10ZM11.5 15.5C11.2239 15.5 11 15.7239 11 16C11 16.2761 11.2239 16.5 11.5 16.5H13C13.2761 16.5 13.5 16.2761 13.5 16C13.5 15.7239 13.2761 15.5 13 15.5H11.5Z" fill="#2B2B2C"/>
</svg>
