<svg width="30" height="30" viewBox="0 0 30 30" fill="none" xmlns="http://www.w3.org/2000/svg">
<path fill-rule="evenodd" clip-rule="evenodd" d="M7 23C8.10457 23 9 22.1046 9 21C9 19.8954 8.10457 19 7 19C5.89543 19 5 19.8954 5 21C5 22.1046 5.89543 23 7 23ZM7 24C8.65685 24 10 22.6569 10 21C10 19.3431 8.65685 18 7 18C5.34315 18 4 19.3431 4 21C4 22.6569 5.34315 24 7 24Z" fill="#2B2B2C"/>
<path fill-rule="evenodd" clip-rule="evenodd" d="M23 23C24.1046 23 25 22.1046 25 21C25 19.8954 24.1046 19 23 19C21.8954 19 21 19.8954 21 21C21 22.1046 21.8954 23 23 23ZM23 24C24.6569 24 26 22.6569 26 21C26 19.3431 24.6569 18 23 18C21.3431 18 20 19.3431 20 21C20 22.6569 21.3431 24 23 24Z" fill="#2B2B2C"/>
<path fill-rule="evenodd" clip-rule="evenodd" d="M13 6.5C13 6.22386 13.2239 6 13.5 6H15.9325C16.6278 6 17.2571 6.41159 17.5358 7.04857L22.4581 18.2996C22.5688 18.5526 22.4534 18.8474 22.2004 18.9581C21.9474 19.0688 21.6526 18.9534 21.5419 18.7004L20.7648 16.9242C20.7516 16.9324 20.7378 16.9401 20.7236 16.9472C19.6169 17.5006 19.0629 18.3822 18.7814 19.1424C18.6402 19.5237 18.5694 19.8704 18.5342 20.1205C18.5166 20.2452 18.5081 20.3446 18.5039 20.4108C18.502 20.4403 18.5007 20.4698 18.5 20.4994L18.5 20.5004C18.5 20.5004 17.5405 20.0063 17.5413 20C17.5977 19.5891 17.6996 19.184 17.8436 18.7951C18.1871 17.8678 18.8831 16.7494 20.2764 16.0528C20.3063 16.0378 20.3371 16.0261 20.3682 16.0176L16.6196 7.44939C16.5002 7.1764 16.2305 7 15.9325 7H13.5C13.2239 7 13 6.77614 13 6.5ZM17.5413 20H9.5C9.22386 20 9 20.2239 9 20.5C9 20.7761 9.22386 21 9.5 21H18C18.276 21 18.4998 20.7764 18.5 20.5004" fill="#2B2B2C"/>
</svg>
