<svg width="18" height="18" viewBox="0 0 18 18" fill="none" xmlns="http://www.w3.org/2000/svg">
<path fill-rule="evenodd" clip-rule="evenodd" d="M8 3C7.72386 3 7.5 3.22386 7.5 3.5C7.5 3.77614 7.72386 4 8 4H9.98025C10.0845 4 10.1777 4.06464 10.2143 4.16222L12.1091 9.21489C11.0929 9.80341 10.5665 10.7021 10.297 11.4568C10.1535 11.8586 10.0798 12.2266 10.0416 12.5H5.93699C5.71497 11.6374 4.93192 11 4 11C2.89543 11 2 11.8954 2 13C2 14.1046 2.89543 15 4 15C4.93192 15 5.71497 14.3626 5.93699 13.5H10.5C10.776 13.5 10.9998 13.276 11 13L11.0003 12.9858C11.0007 12.9721 11.0015 12.95 11.0033 12.9203C11.0068 12.8609 11.0141 12.7716 11.0291 12.6601C11.0591 12.4361 11.1192 12.1278 11.2387 11.7932C11.4413 11.2261 11.805 10.6047 12.4669 10.169L12.9016 11.3283C12.3585 11.6859 12 12.3011 12 13C12 14.1046 12.8954 15 14 15C15.1046 15 16 14.1046 16 13C16 11.8954 15.1046 11 14 11C13.9491 11 13.8986 11.0019 13.8486 11.0056L11.1507 3.8111C10.9677 3.32322 10.5013 3 9.98025 3H8ZM5 13C5 12.4477 4.55228 12 4 12C3.44772 12 3 12.4477 3 13C3 13.5523 3.44772 14 4 14C4.55228 14 5 13.5523 5 13ZM14 14C14.5523 14 15 13.5523 15 13C15 12.4477 14.5523 12 14 12C13.4477 12 13 12.4477 13 13C13 13.5523 13.4477 14 14 14Z" fill="#2B2B2C"/>
</svg>
