<svg width="24" height="24" viewBox="0 0 24 24" fill="none" xmlns="http://www.w3.org/2000/svg">
<path fill-rule="evenodd" clip-rule="evenodd" d="M5.98331 8.37803C6.21636 7.56236 6.96189 7 7.81021 7H9.4999V9.66641L5.64855 9.5497L5.98331 8.37803ZM4.55094 9.75129L5.02179 8.10331C5.3775 6.85833 6.51541 6 7.81021 6H10.4527C12.8317 6 15.043 7.22558 16.3039 9.24301L16.705 9.88475L17.606 9.91205C19.4968 9.96935 21 11.5187 21 13.4104V14C21 14.996 20.3066 15.83 19.3762 16.0458C19.2078 17.2628 18.1633 18.2 16.8999 18.2C15.6553 18.2 14.6232 17.2905 14.4317 16.1H8.92754C8.65881 17.1909 7.67389 18 6.5 18C5.31059 18 4.31519 17.1694 4.06218 16.0566C3.45455 15.8969 3.02329 15.3167 3.08201 14.6591L3.3678 11.4582C3.43579 10.6967 3.90383 10.0623 4.55094 9.75129ZM15.503 9.84832L15.4559 9.77301C14.3861 8.06131 12.5162 7.01626 10.4999 7.00019V9.69671L15.503 9.84832ZM18.4999 11.5C18.2237 11.5 17.9999 11.7239 17.9999 12C17.9999 12.2761 18.2237 12.5 18.4999 12.5H19.8289C19.9394 12.7823 20 13.0895 20 13.4104V14C20 14.4637 19.713 14.8604 19.307 15.0222C19.0115 13.9708 18.0457 13.2 16.8999 13.2C15.726 13.2 14.7411 14.009 14.4724 15.1H8.96817C8.7767 13.9094 7.74455 13 6.5 13C5.34392 13 4.37111 13.7847 4.08518 14.8506C4.07754 14.8179 4.07488 14.7834 4.07805 14.748L4.36384 11.5471C4.41564 10.967 4.91064 10.5278 5.4928 10.5454L17.5757 10.9116C18.1619 10.9294 18.6959 11.1479 19.1126 11.5H18.4999ZM6.5 17C7.32843 17 8 16.3284 8 15.5C8 14.6716 7.32843 14 6.5 14C5.67157 14 5 14.6716 5 15.5C5 16.3284 5.67157 17 6.5 17ZM16.8999 17.2C17.7283 17.2 18.3999 16.5284 18.3999 15.7C18.3999 14.8715 17.7283 14.2 16.8999 14.2C16.0715 14.2 15.3999 14.8715 15.3999 15.7C15.3999 16.5284 16.0715 17.2 16.8999 17.2ZM10 12C10 11.7239 10.2239 11.5 10.5 11.5H11.5C11.7761 11.5 12 11.7239 12 12C12 12.2761 11.7761 12.5 11.5 12.5H10.5C10.2239 12.5 10 12.2761 10 12Z" fill="#2B2B2C"/>
</svg>
