<svg width="18" height="18" viewBox="0 0 18 18" fill="none" xmlns="http://www.w3.org/2000/svg">
<path fill-rule="evenodd" clip-rule="evenodd" d="M6.00389 5C5.33223 5 4.74244 5.4465 4.56017 6.09295L4.29 7.05119L7.0001 7.1596V5H6.00389ZM8.0001 7.19959L11.5479 7.34151L11.2177 6.76351C10.5945 5.673 9.4348 5 8.1788 5H8.0001V7.19959ZM12.7266 7.38866L12.0859 6.26738C11.2847 4.86529 9.79366 4 8.1788 4H6.00389C4.88445 4 3.90147 4.74416 3.5977 5.82159L3.18284 7.29302C2.7487 7.55871 2.4398 8.01511 2.3797 8.55599L2.15122 10.6123C2.04968 11.5262 2.68953 12.3361 3.56608 12.478C3.77407 13.2122 4.44923 13.75 5.25 13.75C6.04276 13.75 6.7124 13.2229 6.92753 12.5H11.0725C11.2876 13.2229 11.9572 13.75 12.75 13.75C13.5445 13.75 14.2154 13.2205 14.429 12.4952C15.3077 12.4293 16.0001 11.6955 16.0001 10.8V10.1618C16.0001 10.1075 15.9985 10.0535 15.9954 9.99999L14.7501 10C14.474 10 14.2501 9.77615 14.2501 9.5C14.2501 9.22386 14.474 9 14.7501 9L15.7432 8.99999C15.321 8.09546 14.4206 7.45641 13.36 7.41399L12.7266 7.38866ZM12.0001 12.0129V12C12.0001 11.9923 12.0002 11.9844 12.0004 11.9764C12.0128 11.5731 12.3437 11.25 12.75 11.25C13.1642 11.25 13.5 11.5858 13.5 12C13.5 12.4142 13.1642 12.75 12.75 12.75C12.3401 12.75 12.007 12.4212 12.0001 12.0129ZM4.50011 12.0129V12C4.50011 11.9923 4.50019 11.9844 4.50036 11.9764C4.51282 11.5731 4.84367 11.25 5.25 11.25C5.66421 11.25 6 11.5858 6 12C6 12.4142 5.66421 12.75 5.25 12.75C4.84009 12.75 4.50699 12.4212 4.50011 12.0129Z" fill="#2B2B2C"/>
</svg>
