<svg width="30" height="30" viewBox="0 0 30 30" fill="none" xmlns="http://www.w3.org/2000/svg">
<path fill-rule="evenodd" clip-rule="evenodd" d="M7.46615 10.4577C7.72034 9.31383 8.73487 8.5 9.90662 8.5H12.0001V12.1666L7.11226 12.0502L7.46615 10.4577ZM6.07023 12.1296L6.48997 10.2407C6.84583 8.63936 8.26618 7.5 9.90662 7.5H13.3349C16.1085 7.5 18.7077 8.8533 20.2983 11.1256L21.18 12.3851L22.1071 12.4072C24.55 12.4654 26.5 14.4624 26.5 16.9059V17.5C26.5 18.8807 25.3807 20 24 20H23.9585C23.7205 21.4189 22.4865 22.5 21 22.5C19.5135 22.5 18.2795 21.4189 18.0415 20H10.9585C10.7205 21.4189 9.48649 22.5 8 22.5C6.49222 22.5 5.24424 21.3877 5.03187 19.9389C4.1764 19.7098 3.58515 18.8685 3.71717 17.9444L4.25377 14.1882C4.39784 13.1797 5.13025 12.386 6.07023 12.1296ZM19.9387 12.3556L19.4791 11.699C18.0756 9.69408 15.7822 8.5 13.3349 8.5H13.0001V12.1904L19.9387 12.3556ZM23.5001 14.5C23.224 14.5 23.0001 14.7239 23.0001 15C23.0001 15.2761 23.224 15.5 23.5001 15.5H25.2061C25.3952 15.9306 25.5 16.4062 25.5 16.9059V17.5C25.5 18.3285 24.8284 19 24 19H23.9585C23.7205 17.5812 22.4865 16.5 21 16.5C19.5135 16.5 18.2795 17.5812 18.0415 19H10.9585C10.7205 17.5812 9.48651 16.5 8 16.5C6.55841 16.5 5.3543 17.5168 5.06576 18.8724C4.81356 18.7092 4.66097 18.4089 4.70712 18.0858L5.24372 14.3296C5.35121 13.5772 6.00449 13.0241 6.76434 13.0422L22.0833 13.4069C23.0529 13.43 23.9226 13.8458 24.542 14.5H23.5001ZM8 21.5C9.10457 21.5 10 20.6046 10 19.5C10 18.3954 9.10457 17.5 8 17.5C6.89543 17.5 6 18.3954 6 19.5C6 20.6046 6.89543 21.5 8 21.5ZM21 21.5C22.1046 21.5 23 20.6046 23 19.5C23 18.3954 22.1046 17.5 21 17.5C19.8954 17.5 19 18.3954 19 19.5C19 20.6046 19.8954 21.5 21 21.5ZM12.5 15C12.5 14.7239 12.7239 14.5 13 14.5H15C15.2761 14.5 15.5 14.7239 15.5 15C15.5 15.2761 15.2761 15.5 15 15.5H13C12.7239 15.5 12.5 15.2761 12.5 15Z" fill="#2B2B2C"/>
</svg>
