<svg width="24" height="24" viewBox="0 0 24 24" fill="none" xmlns="http://www.w3.org/2000/svg">
<path fill-rule="evenodd" clip-rule="evenodd" d="M4 12C4 7.58172 7.58172 4 12 4C16.4183 4 20 7.58172 20 12C20 16.4183 16.4183 20 12 20C7.58172 20 4 16.4183 4 12ZM12 3C7.02944 3 3 7.02944 3 12C3 16.9706 7.02944 21 12 21C16.9706 21 21 16.9706 21 12C21 7.02944 16.9706 3 12 3ZM8.5 9C8.22386 9 8 9.22386 8 9.5C8 9.77614 8.22386 10 8.5 10H11.5V16.5C11.5 16.7761 11.7239 17 12 17C12.2761 17 12.5 16.7761 12.5 16.5V10H15.5C15.7761 10 16 9.77614 16 9.5C16 9.22386 15.7761 9 15.5 9H8.5Z" fill="#2B2B2C"/>
</svg>
