<svg width="24" height="24" viewBox="0 0 24 24" fill="none" xmlns="http://www.w3.org/2000/svg">
<path d="M19.5 18.5C19.5 19.6046 18.6046 20.5 17.5 20.5C16.3954 20.5 15.5 19.6046 15.5 18.5C15.5 17.3954 16.3954 16.5 17.5 16.5C18.6046 16.5 19.5 17.3954 19.5 18.5Z" stroke="#2B2B2C"/>
<path d="M8.5 18.5C8.5 19.6046 7.60457 20.5 6.5 20.5C5.39543 20.5 4.5 19.6046 4.5 18.5C4.5 17.3954 5.39543 16.5 6.5 16.5C7.60457 16.5 8.5 17.3954 8.5 18.5Z" stroke="#2B2B2C"/>
<path d="M17.8947 12.693L15.5957 9.73727L14.8064 10.3512L17.1053 13.307L17.8947 12.693ZM4.64251 9.36264L3.53184 12.3244L4.46816 12.6756L5.57884 9.71376L4.64251 9.36264ZM12.0437 8H9V9H12.0437V8ZM9 8H6.6088V9H9V8ZM9.5 12.5V8.5H8.5V12.5H9.5ZM5.57884 9.71376C5.73984 9.28443 6.15027 9 6.6088 9V8C5.73343 8 4.94987 8.543 4.64251 9.36264L5.57884 9.71376ZM15.5957 9.73727C14.7432 8.64113 13.4323 8 12.0437 8V9C13.1237 9 14.1433 9.49865 14.8064 10.3512L15.5957 9.73727Z" fill="#2B2B2C"/>
<path d="M8.09384 3.09998H5.59634V3.63548H6.52334V6.29498H7.15784V3.63548H8.09384V3.09998Z" fill="#2B2B2C"/>
<path d="M11.3147 6.29498H11.9717L10.8287 3.09998H10.0007L8.85773 6.29498H9.48773L9.70823 5.65147H11.0942L11.3147 6.29498ZM9.88823 5.13398L10.0142 4.76947C10.1492 4.37347 10.2887 3.95048 10.4012 3.57248C10.5137 3.94598 10.6577 4.35998 10.7927 4.75598L10.9187 5.13398H9.88823Z" fill="#2B2B2C"/>
<path d="M16.1438 6.29498L14.9783 4.60297L16.0223 3.09998H15.3203L14.6093 4.15298L13.8983 3.09998H13.1828L14.2223 4.59848L13.0613 6.29498H13.7543L14.6003 5.05748L15.4373 6.29498H16.1438Z" fill="#2B2B2C"/>
<path d="M18.1747 3.09998H17.5402V6.29498H18.1747V3.09998Z" fill="#2B2B2C"/>
<path fill-rule="evenodd" clip-rule="evenodd" d="M8.09387 3C8.1491 3 8.19387 3.04477 8.19387 3.1V3.6355C8.19387 3.69073 8.1491 3.7355 8.09387 3.7355H7.25787V6.295C7.25787 6.35023 7.2131 6.395 7.15787 6.395H6.52337C6.46814 6.395 6.42337 6.35023 6.42337 6.295V3.7355H5.59637C5.54114 3.7355 5.49637 3.69073 5.49637 3.6355V3.1C5.49637 3.04477 5.54114 3 5.59637 3H8.09387ZM5.59637 3.6355V3.1H8.09387V3.6355H7.15787V6.295H6.52337V3.6355H5.59637ZM11.3148 6.395C11.272 6.395 11.234 6.36784 11.2202 6.32742L11.0228 5.7515H9.7797L9.58236 6.32742C9.56851 6.36784 9.53049 6.395 9.48776 6.395H8.85776C8.82523 6.395 8.79473 6.37918 8.776 6.35258C8.75727 6.32599 8.75265 6.29194 8.7636 6.26132L9.9066 3.06632C9.92083 3.02654 9.95852 3 10.0008 3H10.8288C10.871 3 10.9087 3.02654 10.9229 3.06632L12.0659 6.26132C12.0769 6.29194 12.0722 6.32599 12.0535 6.35258C12.0348 6.37918 12.0043 6.395 11.9718 6.395H11.3148ZM9.70826 5.6515H11.0943L11.3148 6.295H11.9718L10.8288 3.1H10.0008L8.85776 6.295H9.48776L9.70826 5.6515ZM9.97659 5.0575H10.8288L10.4013 3.80859C10.3093 4.10158 9.97659 5.0575 9.97659 5.0575ZM10.3493 3.744C10.2473 4.0758 10.1292 4.43243 10.0143 4.7695L9.88826 5.134H10.9188L10.7928 4.756C10.774 4.70101 10.7551 4.64568 10.7361 4.59015C10.6389 4.30598 10.5401 4.01681 10.454 3.74366C10.4358 3.68582 10.4182 3.6287 10.4013 3.5725C10.3845 3.62875 10.3672 3.686 10.3493 3.744ZM16.2324 6.34151C16.2151 6.3744 16.181 6.395 16.1439 6.395H15.4374C15.4042 6.395 15.3731 6.37852 15.3545 6.35102L14.5999 5.23534L13.8369 6.35144C13.8183 6.3787 13.7874 6.395 13.7544 6.395H13.0614C13.0243 6.395 12.9902 6.37446 12.9729 6.34165C12.9556 6.30884 12.9579 6.26914 12.9788 6.23852L14.1009 4.59888L13.1007 3.157C13.0795 3.12642 13.077 3.0866 13.0943 3.05363C13.1115 3.02066 13.1457 3 13.1829 3H13.8984C13.9316 3 13.9627 3.0165 13.9812 3.04404L14.6094 3.9743L15.2375 3.04404C15.2561 3.0165 15.2871 3 15.3204 3H16.0224C16.0596 3 16.0937 3.02067 16.111 3.05366C16.1282 3.08664 16.1257 3.12648 16.1045 3.15705L15.1 4.60324L16.2262 6.23827C16.2473 6.26887 16.2497 6.30863 16.2324 6.34151ZM14.9784 4.603L16.0224 3.1H15.3204L14.6094 4.153L13.8984 3.1H13.1829L14.2224 4.5985L13.0614 6.295H13.7544L14.6004 5.0575L15.4374 6.295H16.1439L14.9784 4.603ZM18.1747 3C18.23 3 18.2747 3.04477 18.2747 3.1V6.295C18.2747 6.35023 18.23 6.395 18.1747 6.395H17.5402C17.485 6.395 17.4402 6.35023 17.4402 6.295V3.1C17.4402 3.04477 17.485 3 17.5402 3H18.1747ZM17.5402 3.1H18.1747V6.295H17.5402V3.1Z" fill="#2B2B2C"/>
<path fill-rule="evenodd" clip-rule="evenodd" d="M4.15524 12.0433C2.97422 12.0123 2 12.9612 2 14.1426V17.7C2 18.4179 2.58203 19 3.3 19H4.6V18.2L5 17L6.5 16.5L8.5 17.5V18V18.5V19H15.5V18.5L16 17L17.5 16.5L19 17L19.5 18.5V19H20.7C21.418 19 22 18.4179 22 17.7V16H20.5C20.2239 16 20 15.7761 20 15.5C20 15.2238 20.2239 15 20.5 15H21.9805C21.8164 13.5855 20.6335 12.477 19.1763 12.4386L4.15524 12.0433ZM10 14.5C9.72386 14.5 9.5 14.7238 9.5 15C9.5 15.2761 9.72386 15.5 10 15.5H11.5C11.7761 15.5 12 15.2761 12 15C12 14.7238 11.7761 14.5 11.5 14.5H10Z" fill="#2B2B2C"/>
</svg>
