<svg width="24" height="24" viewBox="0 0 24 24" fill="none" xmlns="http://www.w3.org/2000/svg">
<path fill-rule="evenodd" clip-rule="evenodd" d="M8.09387 3C8.1491 3 8.19387 3.04477 8.19387 3.1V3.6355C8.19387 3.69073 8.1491 3.7355 8.09387 3.7355H7.25787V6.295C7.25787 6.35023 7.2131 6.395 7.15787 6.395H6.52337C6.46814 6.395 6.42337 6.35023 6.42337 6.295V3.7355H5.59637C5.54114 3.7355 5.49637 3.69073 5.49637 3.6355V3.1C5.49637 3.04477 5.54114 3 5.59637 3H8.09387ZM5.59637 3.6355V3.63548H6.52334V3.6355H5.59637ZM8.09384 3.63548V3.1H8.09387V3.6355H7.15787V6.295H6.52337V6.29498H7.15784V3.63548H8.09384ZM11.3148 6.395C11.272 6.395 11.234 6.36784 11.2202 6.32742L11.0228 5.7515H9.7797L9.58236 6.32742C9.56851 6.36784 9.53049 6.395 9.48776 6.395H8.85776C8.82523 6.395 8.79473 6.37918 8.776 6.35258C8.75727 6.32599 8.75265 6.29194 8.7636 6.26132L9.9066 3.06632C9.92083 3.02654 9.95852 3 10.0008 3H10.8288C10.871 3 10.9087 3.02654 10.9229 3.06632L12.0659 6.26132C12.0769 6.29194 12.0722 6.32599 12.0535 6.35258C12.0348 6.37918 12.0043 6.395 11.9718 6.395H11.3148ZM11.3148 6.295L11.3148 6.29498H11.9717L10.8288 3.1L11.9718 6.295H11.3148ZM11.0942 5.65147L11.0942 5.6515H9.70826L9.48776 6.295H8.85776L8.85777 6.29498H9.48773L9.70823 5.65147H11.0942ZM9.97659 5.0575H10.8288L10.4013 3.80859C10.3093 4.10158 9.97659 5.0575 9.97659 5.0575ZM10.3493 3.744C10.2473 4.0758 10.1292 4.43243 10.0143 4.7695L9.88827 5.13398H9.88823L10.0142 4.76947C10.1492 4.37347 10.2887 3.95048 10.4012 3.57248L10.4013 3.57253C10.3845 3.62877 10.3672 3.68601 10.3493 3.744ZM16.2324 6.34151C16.2151 6.3744 16.181 6.395 16.1439 6.395H15.4374C15.4042 6.395 15.3731 6.37852 15.3545 6.35102L14.5999 5.23534L13.8369 6.35144C13.8183 6.3787 13.7874 6.395 13.7544 6.395H13.0614C13.0243 6.395 12.9902 6.37446 12.9729 6.34165C12.9556 6.30884 12.9579 6.26914 12.9788 6.23852L14.1009 4.59888L13.1007 3.157C13.0795 3.12642 13.077 3.0866 13.0943 3.05363C13.1115 3.02066 13.1457 3 13.1829 3H13.8984C13.9316 3 13.9627 3.0165 13.9812 3.04404L14.6094 3.9743L15.2375 3.04404C15.2561 3.0165 15.2871 3 15.3204 3H16.0224C16.0596 3 16.0937 3.02067 16.111 3.05366C16.1282 3.08664 16.1257 3.12648 16.1045 3.15705L15.1 4.60324L16.2262 6.23827C16.2473 6.26887 16.2497 6.30863 16.2324 6.34151ZM14.9784 4.603L16.0224 3.1H16.0223L14.9783 4.60297L14.9784 4.603ZM15.4373 6.29498H16.1438L16.1439 6.295H15.4374L15.4373 6.29498ZM14.6003 5.05748L14.6004 5.0575L13.7544 6.295H13.0614L13.0614 6.29498H13.7543L14.6003 5.05748ZM18.1747 3C18.23 3 18.2747 3.04477 18.2747 3.1V6.295C18.2747 6.35023 18.23 6.395 18.1747 6.395H17.5402C17.485 6.395 17.4402 6.35023 17.4402 6.295V3.1C17.4402 3.04477 17.485 3 17.5402 3H18.1747ZM18.1747 6.29498V3.1H18.1747V6.295H17.5402V6.29498H18.1747ZM6.60886 9C6.15033 9 5.73989 9.28443 5.57889 9.71376L4.69993 12.0577L8.50006 12.1577V9H6.60886ZM4.64256 9.36264L3.61664 12.0984C2.69204 12.3163 2.00003 13.1469 2.00003 14.1426V17.7C2.00003 18.4179 2.58206 19 3.30003 19H4.05003C4.28165 20.1411 5.29054 21 6.50003 21C7.70952 21 8.71841 20.1411 8.95003 19H15.05C15.2817 20.1411 16.2905 21 17.5 21C18.7095 21 19.7184 20.1411 19.95 19H20.7C21.418 19 22 18.4179 22 17.7V15.3376C22 13.7657 20.7477 12.48 19.1763 12.4386L17.666 12.3989L15.5958 9.73727C14.7433 8.64113 13.4324 8 12.0437 8H6.60886C5.73348 8 4.94993 8.543 4.64256 9.36264ZM14.8065 10.3512L16.3726 12.3649L9.50006 12.184V9H12.0437C13.1238 9 14.1434 9.49865 14.8065 10.3512ZM19.5001 15C19.5001 14.7239 19.7239 14.5 20.0001 14.5H20.8058C20.5037 13.8858 19.8793 13.4575 19.15 13.4383L4.12897 13.043C3.51034 13.0267 3.00003 13.5238 3.00003 14.1426V17.7C3.00003 17.8656 3.13435 18 3.30003 18H4.05005C4.2817 16.8589 5.29057 16 6.50003 16C7.7095 16 8.71836 16.8589 8.95001 18H15.05C15.2817 16.8589 16.2906 16 17.5 16C18.7095 16 19.7184 16.8589 19.95 18H20.7C20.8657 18 21 17.8656 21 17.7V15.5H20.0001C19.7239 15.5 19.5001 15.2761 19.5001 15ZM8.00003 18.5C8.00003 19.3284 7.32846 20 6.50003 20C5.6716 20 5.00003 19.3284 5.00003 18.5C5.00003 17.6716 5.6716 17 6.50003 17C7.32846 17 8.00003 17.6716 8.00003 18.5ZM19 18.5C19 19.3284 18.3285 20 17.5 20C16.6716 20 16 19.3284 16 18.5C16 17.6716 16.6716 17 17.5 17C18.3285 17 19 17.6716 19 18.5ZM10 14.5C9.72389 14.5 9.50003 14.7239 9.50003 15C9.50003 15.2761 9.72389 15.5 10 15.5H11.5C11.7762 15.5 12 15.2761 12 15C12 14.7239 11.7762 14.5 11.5 14.5H10Z" fill="#2B2B2C"/>
</svg>
