<svg width="18" height="18" viewBox="0 0 18 18" fill="none" xmlns="http://www.w3.org/2000/svg">
<path d="M14.5 14C14.5 14.8284 13.8284 15.5 13 15.5C12.1716 15.5 11.5 14.8284 11.5 14C11.5 13.1716 12.1716 12.5 13 12.5C13.8284 12.5 14.5 13.1716 14.5 14Z" stroke="#2B2B2C"/>
<path d="M6 14C6 14.8284 5.32843 15.5 4.5 15.5C3.67157 15.5 3 14.8284 3 14C3 13.1716 3.67157 12.5 4.5 12.5C5.32843 12.5 6 13.1716 6 14Z" stroke="#2B2B2C"/>
<path d="M11.398 7.54763L11.0183 7.87302L11.398 7.54763ZM13.8796 9.6746L11.7776 7.22223L11.0183 7.87302L13.1204 10.3254L13.8796 9.6746ZM3.25215 7.16241L2.52566 9.34189L3.47434 9.65811L4.20083 7.47864L3.25215 7.16241ZM9.1202 6H6.5V7H9.1202V6ZM6.5 6H4.86491V7H6.5V6ZM7 9.5V6.5H6V9.5H7ZM4.20083 7.47864C4.29611 7.1928 4.56361 7 4.86491 7V6C4.13318 6 3.48354 6.46823 3.25215 7.16241L4.20083 7.47864ZM11.7776 7.22223C11.1127 6.44647 10.1419 6 9.1202 6V7C9.85001 7 10.5434 7.31891 11.0183 7.87302L11.7776 7.22223Z" fill="#2B2B2C"/>
<path d="M5.36124 2.15674H3.14124V2.61708H3.96524V4.90332H4.52924V2.61708H5.36124V2.15674Z" fill="#2B2B2C"/>
<path d="M8.33536 4.90332H8.91936L7.90336 2.15674H7.16736L6.15136 4.90332H6.71136L6.90736 4.35013H8.13936L8.33536 4.90332ZM7.06736 3.90527L7.17936 3.59192C7.29936 3.2515 7.42336 2.88787 7.52336 2.56292C7.62336 2.884 7.75136 3.2399 7.87136 3.58032L7.98336 3.90527H7.06736Z" fill="#2B2B2C"/>
<path d="M12.739 4.90332L11.703 3.44879L12.631 2.15674H12.007L11.375 3.06195L10.743 2.15674H10.107L11.031 3.44492L9.99902 4.90332H10.615L11.367 3.8395L12.111 4.90332H12.739Z" fill="#2B2B2C"/>
<path d="M14.6553 2.15674H14.0913V4.90332H14.6553V2.15674Z" fill="#2B2B2C"/>
<path fill-rule="evenodd" clip-rule="evenodd" d="M5.3612 2.06006C5.41643 2.06006 5.4612 2.10336 5.4612 2.15677V2.61711C5.4612 2.67052 5.41643 2.71382 5.3612 2.71382H4.6292V4.90335C4.6292 4.95676 4.58443 5.00006 4.5292 5.00006H3.9652C3.90997 5.00006 3.8652 4.95676 3.8652 4.90335V2.71382H3.1412C3.08597 2.71382 3.0412 2.67052 3.0412 2.61711V2.15677C3.0412 2.10336 3.08597 2.06006 3.1412 2.06006H5.3612ZM3.1412 2.61711V2.15677H5.3612V2.61711H4.5292V4.90335H3.9652V2.61711H3.1412ZM8.33532 5.00006C8.29259 5.00006 8.25458 4.9738 8.24072 4.9347L8.06788 4.44688H6.97877L6.80592 4.9347C6.79207 4.9738 6.75406 5.00006 6.71132 5.00006H6.15132C6.11879 5.00006 6.0883 4.98476 6.06957 4.95904C6.05084 4.93332 6.04621 4.9004 6.05717 4.87077L7.07317 2.12419C7.0874 2.08573 7.12508 2.06006 7.16732 2.06006H7.90332C7.94557 2.06006 7.98325 2.08573 7.99748 2.12419L9.01348 4.87077C9.02444 4.9004 9.01981 4.93332 9.00108 4.95904C8.98235 4.98476 8.95185 5.00006 8.91932 5.00006H8.33532ZM6.90732 4.35017H8.13932L8.33532 4.90335H8.91932L7.90332 2.15677H7.16732L6.15132 4.90335H6.71132L6.90732 4.35017ZM7.17932 3.59195L7.06732 3.9053H7.98332L7.87132 3.58035C7.85466 3.53309 7.83785 3.48552 7.82098 3.4378C7.73682 3.19976 7.65123 2.95764 7.57615 2.72816C7.55786 2.67226 7.54019 2.61711 7.52332 2.56295C7.50664 2.61716 7.48929 2.67244 7.47141 2.72851C7.38207 3.00857 7.27931 3.30832 7.17932 3.59195ZM7.52332 2.56295C7.44427 2.80519 7.06732 3.9053 7.06732 3.9053H7.98332C7.96676 3.85831 8.00014 3.95286 7.98332 3.9053C7.98332 3.9053 7.5875 2.75369 7.52332 2.56295ZM12.8275 4.94834C12.8102 4.98014 12.7761 5.00006 12.739 5.00006H12.111C12.0778 5.00006 12.0467 4.98413 12.0281 4.95753L11.3665 4.01152L10.6975 4.95793C10.6789 4.98429 10.648 5.00006 10.615 5.00006H9.99898C9.96188 5.00006 9.92783 4.9802 9.91053 4.94847C9.89322 4.91673 9.8955 4.87834 9.91645 4.84873L10.9095 3.44533L10.0248 2.21189C10.0036 2.18232 10.0011 2.14381 10.0184 2.11193C10.0356 2.08004 10.0698 2.06006 10.107 2.06006H10.743C10.7762 2.06006 10.8073 2.07602 10.8259 2.10265L11.375 2.88916L11.9241 2.10265C11.9427 2.07602 11.9738 2.06006 12.007 2.06006H12.631C12.6682 2.06006 12.7023 2.08005 12.7196 2.11195C12.7368 2.14385 12.7343 2.18238 12.7131 2.21194L11.8246 3.44905L12.8213 4.84849C12.8424 4.87808 12.8448 4.91653 12.8275 4.94834ZM11.703 3.44882L12.631 2.15677H12.007L11.375 3.06198L10.743 2.15677H10.107L11.031 3.44495L9.99898 4.90335H10.615L11.367 3.83953L12.111 4.90335H12.739L11.703 3.44882ZM14.6553 2.06006C14.7105 2.06006 14.7553 2.10336 14.7553 2.15677V4.90335C14.7553 4.95676 14.7105 5.00006 14.6553 5.00006H14.0913C14.0361 5.00006 13.9913 4.95676 13.9913 4.90335V2.15677C13.9913 2.10336 14.0361 2.06006 14.0913 2.06006H14.6553ZM14.0913 2.15677H14.6553V4.90335H14.0913V2.15677Z" fill="#2B2B2C"/>
<path fill-rule="evenodd" clip-rule="evenodd" d="M1 10.7407C1 9.77959 1.79609 9.00959 2.75664 9.04161L14.7766 9.44228C15.7575 9.47497 16.578 10.1184 16.8779 11H16C15.7239 11 15.5 11.2239 15.5 11.5C15.5 11.7761 15.7239 12 16 12H17V13.4C17 14.0075 16.5075 14.5 15.9 14.5H14.5V14V13.5V13L13 12.5L12 13L11.5 14V14.5H6V14L5.5 13L4.5 12.5L3.5 13L3 14V14.5H2.1C1.49249 14.5 1 14.0075 1 13.4V10.7407Z" fill="#2B2B2C"/>
</svg>
