<svg width="30" height="30" viewBox="0 0 30 30" fill="none" xmlns="http://www.w3.org/2000/svg">
<path fill-rule="evenodd" clip-rule="evenodd" d="M7.82926 3.62372C7.62144 3.44188 7.30556 3.46294 7.12372 3.67075C6.94188 3.87857 6.96294 4.19445 7.17075 4.3763L10.1693 7H3.125C2.50368 7 2 7.50368 2 8.125V10.5V17V20.875C2 21.4963 2.50368 22 3.125 22H23.2574C25.8766 22 28 19.8766 28 17.2574C28 15.9995 27.5003 14.7932 26.6109 13.9038L20.9519 8.2448C20.1549 7.44777 19.0739 7 17.9467 7H11.6879L7.82926 3.62372ZM11.4961 8C11.4986 8.00002 11.501 8.00002 11.5035 8H17.9467C18.8087 8 19.6353 8.34241 20.2448 8.9519L21.2929 10H18C17.4477 10 17 10.4477 17 11V17C17 17.2761 17.2239 17.5 17.5 17.5H26.9923C26.8672 19.4539 25.2428 21 23.2574 21H3.125C3.05596 21 3 20.944 3 20.875V17.5H14.5C14.7761 17.5 15 17.2761 15 17V10.5C15 10.2239 14.7761 10 14.5 10H3V8.125C3 8.05596 3.05596 8 3.125 8H11.4961ZM3 16.5V11H8V16.5H3ZM26.9226 16.5C26.7758 15.7897 26.4244 15.1315 25.9038 14.6109L22.2929 11H18V16.5H26.9226ZM9 11V16.5H14V11H9ZM2 23.5C2 23.2239 2.22386 23 2.5 23H23.5C23.7761 23 24 23.2239 24 23.5C24 23.7761 23.7761 24 23.5 24H2.5C2.22386 24 2 23.7761 2 23.5Z" fill="#2B2B2C"/>
</svg>
