<svg width="18" height="18" viewBox="0 0 18 18" fill="none" xmlns="http://www.w3.org/2000/svg">
<path fill-rule="evenodd" clip-rule="evenodd" d="M4.14645 1.64645C4.34171 1.45118 4.65829 1.45118 4.85355 1.64645L7.20711 4H11.068C11.7974 4 12.4968 4.28973 13.0126 4.80546L16.1287 7.92157C16.6866 8.47947 17 9.23614 17 10.0251C17 11.6681 15.6681 13 14.0251 13H1.875C1.39175 13 1 12.6082 1 12.125V6V4.875C1 4.39175 1.39175 4 1.875 4H5.79289L4.14645 2.35355C3.95118 2.15829 3.95118 1.84171 4.14645 1.64645ZM2 6.5V9.5H5.00001L5 6.5H2ZM6 6.5L6.00001 9.5H9L9 6.5H6ZM10.5 9.5H15.9289C15.8388 9.1734 15.6653 8.87246 15.4216 8.62868L12.7929 6H11C10.7239 6 10.5 6.22386 10.5 6.5V9.5ZM1.50002 14C1.22387 14 1.00002 14.2239 1.00002 14.5C1.00002 14.7761 1.22387 15 1.50002 15H14.5C14.7762 15 15 14.7761 15 14.5C15 14.2239 14.7762 14 14.5 14H1.50002Z" fill="#2B2B2C"/>
</svg>
