<svg width="24" height="24" viewBox="0 0 24 24" fill="none" xmlns="http://www.w3.org/2000/svg">
<path fill-rule="evenodd" clip-rule="evenodd" d="M15 4H13.0675L14.7342 5.99999H18.3832C19.562 5.99999 20.5807 6.82349 20.8277 7.97616L21.9445 13.188C21.9814 13.3602 22 13.5358 22 13.7119V14.5C22 15.8807 20.8807 17 19.5 17H15.5H11.5H3C2.44772 17 2 16.5523 2 16V13.5V8.49999V6.99999C2 6.4477 2.44772 5.99999 3 5.99999H13.4325L11.7658 4H10.5C10.2239 4 10 3.77614 10 3.5C10 3.22386 10.2239 3 10.5 3H11.9962H12.0033H15C15.2761 3 15.5 3.22386 15.5 3.5C15.5 3.77614 15.2761 4 15 4ZM14.4953 6.99999L3 6.99999V7.99999H9.5C9.77614 7.99999 10 8.22385 10 8.49999V13.5C10 13.7761 9.77614 14 9.5 14H3V16H11V8.49999C11 8.22385 11.2239 7.99999 11.5 7.99999H15.5C15.7761 7.99999 16 8.22385 16 8.49999V16H19.5C20.3284 16 21 15.3284 21 14.5V14H18C17.4477 14 17 13.5523 17 13V9.99999C17 8.89542 17.8954 7.99999 19 7.99999H19.7975C19.5884 7.40732 19.0254 6.99999 18.3832 6.99999H14.5053C14.5019 7.00002 14.4986 7.00002 14.4953 6.99999ZM3 13V8.99999H9V13H3ZM15 16H12V8.99999H15V16ZM20.8815 13L20.0244 8.99999H19C18.4477 8.99999 18 9.4477 18 9.99999V13H20.8815ZM2 18.5C2 18.2238 2.22386 18 2.5 18H19.5C19.7761 18 20 18.2238 20 18.5C20 18.7761 19.7761 19 19.5 19H2.5C2.22386 19 2 18.7761 2 18.5Z" fill="#2B2B2C"/>
</svg>
