<svg width="24" height="24" viewBox="0 0 24 24" fill="none" xmlns="http://www.w3.org/2000/svg">
<path fill-rule="evenodd" clip-rule="evenodd" d="M13.0675 4H15C15.2761 4 15.5 3.77614 15.5 3.5C15.5 3.22386 15.2761 3 15 3H12.0033H11.9962H10.5C10.2239 3 10 3.22386 10 3.5C10 3.77614 10.2239 4 10.5 4H11.7658L13.4325 5.99999H3C2.44772 5.99999 2 6.4477 2 6.99999V8.49999V13.5V16C2 16.5523 2.44772 17 3 17H11.5H15.5H19.5C20.8807 17 22 15.8807 22 14.5V13.7119C22 13.5358 21.9814 13.3602 21.9445 13.188L20.8277 7.97616C20.5807 6.82349 19.562 5.99999 18.3832 5.99999H14.7342L13.0675 4ZM3 8.99999V13H9V8.99999H3ZM12 16H15V8.99999H12V16ZM20.9667 13.3976C20.974 13.4315 20.9801 13.4657 20.985 13.5H18C17.7239 13.5 17.5 13.2761 17.5 13V9.49999C17.5 8.9477 17.9477 8.49999 18.5 8.49999H19.9172L20.9667 13.3976ZM2.5 18C2.22386 18 2 18.2238 2 18.5C2 18.7761 2.22386 19 2.5 19H19.5C19.7761 19 20 18.7761 20 18.5C20 18.2238 19.7761 18 19.5 18H2.5Z" fill="#2B2B2C"/>
</svg>
