<svg width="24" height="24" viewBox="0 0 24 24" fill="none" xmlns="http://www.w3.org/2000/svg">
<path fill-rule="evenodd" clip-rule="evenodd" d="M9.3254 3.12038C9.11574 2.94067 8.80009 2.96495 8.62038 3.17461C8.44067 3.38428 8.46495 3.69993 8.67461 3.87964L11.1484 6H3C2.44772 6 2 6.44772 2 7V8.5V13.5V16C2 16.5523 2.44772 17 3 17H21C21.5523 17 22 16.5523 22 16V13.5V8.5V7C22 6.44771 21.5523 6 21 6H12.685L9.3254 3.12038ZM12.4955 7C12.4984 7.00002 12.5012 7.00002 12.504 7H21V8H3V7H12.4955ZM3 13V9H8V13H3ZM3 16V14H21V16H3ZM21 9V13H16V9H21ZM9 9V13H15V9H9ZM3 18.5C3 18.2239 3.22386 18 3.5 18H20.5C20.7761 18 21 18.2239 21 18.5C21 18.7761 20.7761 19 20.5 19H3.5C3.22386 19 3 18.7761 3 18.5Z" fill="#2B2B2C"/>
</svg>
