<svg width="30" height="30" viewBox="0 0 30 30" fill="none" xmlns="http://www.w3.org/2000/svg">
<path fill-rule="evenodd" clip-rule="evenodd" d="M12.3293 3.62372C12.1214 3.44188 11.8056 3.46294 11.6237 3.67075C11.4419 3.87857 11.4629 4.19445 11.6708 4.3763L14.6693 7H3.125C2.50368 7 2 7.50368 2 8.125V10.5V17V20.875C2 21.4963 2.50368 22 3.125 22H27C27.5523 22 28 21.5523 28 21V17V10.5V8C28 7.44772 27.5523 7 27 7H16.1879L12.3293 3.62372ZM15.9961 8C15.9986 8.00002 16.001 8.00002 16.0035 8H27V10H3V8.125C3 8.05596 3.05596 8 3.125 8H15.9961ZM3 16.5V11H10.5V16.5H3ZM3 20.875V17.5H27V21H3.125C3.05596 21 3 20.944 3 20.875ZM27 11V16.5H19.5V11H27ZM11.5 11V16.5H18.5V11H11.5ZM3.5 23.5C3.5 23.2239 3.72386 23 4 23H26C26.2761 23 26.5 23.2239 26.5 23.5C26.5 23.7761 26.2761 24 26 24H4C3.72386 24 3.5 23.7761 3.5 23.5Z" fill="#2B2B2C"/>
</svg>
