<svg width="18" height="18" viewBox="0 0 18 18" fill="none" xmlns="http://www.w3.org/2000/svg">
<path fill-rule="evenodd" clip-rule="evenodd" d="M10 3C10 3.27614 9.77614 3.5 9.5 3.5C9.22386 3.5 9 3.27614 9 3C9 2.72386 9.22386 2.5 9.5 2.5C9.77614 2.5 10 2.72386 10 3ZM11 3C11 3.82843 10.3284 4.5 9.5 4.5C8.67157 4.5 8 3.82843 8 3C8 2.17157 8.67157 1.5 9.5 1.5C10.3284 1.5 11 2.17157 11 3ZM8.39811 6.44477C8.42624 6.19156 8.64027 6 8.89503 6C9.19084 6 9.42197 6.2554 9.39254 6.54974L9.06005 9.87462L8.0452 9.62091L8.39811 6.44477ZM7.88746 10.6123L8.82303 10.8461L8.06328 12.7455L6.45855 14.7514L6.16019 14.4531L7.40001 12.8C7.4448 12.7403 7.47565 12.6713 7.4903 12.5981L7.88746 10.6123ZM6.44298 7.78961L7.31761 7.11384L7.00546 9.92322L6.53196 12.2907L5.10001 14.2C4.95071 14.3991 4.97051 14.6776 5.14645 14.8536L6.14645 15.8536C6.24702 15.9541 6.38565 16.0071 6.52766 15.9992C6.66966 15.9914 6.80159 15.9234 6.89044 15.8123L8.89044 13.3123C8.92113 13.274 8.946 13.2313 8.96424 13.1857L9.11119 12.8183L9.5394 13.2465L10.0097 15.5981C10.0378 15.7387 10.125 15.8605 10.249 15.9325C10.3731 16.0045 10.5221 16.0197 10.6581 15.9744L12.1581 15.4744C12.3915 15.3966 12.5336 15.1605 12.4932 14.9178L11.9932 11.9178C11.9761 11.815 11.9272 11.7202 11.8536 11.6465L10.0666 9.85948L10.2124 8.40119L10.5377 9.19055C10.5837 9.30211 10.6685 9.39328 10.7764 9.44724L11.7764 9.94724C12.0234 10.0707 12.3237 9.97062 12.4472 9.72363C12.5707 9.47664 12.4706 9.1763 12.2236 9.05281L11.391 8.63649L10.3436 6.09529C10.3403 6.08733 10.3369 6.0795 10.3332 6.0718C10.15 5.45697 9.58036 5 8.89503 5C8.42963 5 8.00954 5.21309 7.73309 5.55126C7.6929 5.56787 7.65423 5.59004 7.61816 5.61791L5.69429 7.10437C5.60536 7.17307 5.54218 7.26974 5.51492 7.37876L5.01492 9.37876C4.94795 9.64666 5.11083 9.91812 5.37873 9.9851C5.64663 10.0521 5.91809 9.88919 5.98507 9.62129L6.44298 7.78961ZM9.82547 11.0326L9.51525 11.8082L10.3536 12.6465C10.4234 12.7163 10.4709 12.8052 10.4903 12.902L10.8792 14.8466L11.4366 14.6608L11.0331 12.2403L9.82547 11.0326Z" fill="#2B2B2C"/>
</svg>
