<svg width="24" height="25" viewBox="0 0 24 25" fill="none" xmlns="http://www.w3.org/2000/svg">
<path fill-rule="evenodd" clip-rule="evenodd" d="M12 20.9849C11.7239 20.9849 11.5 20.761 11.5 20.4849L11.5 4.48486C11.5 4.20871 11.7239 3.98486 12 3.98486C12.2761 3.98486 12.5 4.20871 12.5 4.48486L12.5 20.4849C12.5 20.761 12.2761 20.9849 12 20.9849Z" fill="#2B2B2C"/>
<path fill-rule="evenodd" clip-rule="evenodd" d="M6.14645 14.6312C6.34171 14.436 6.65829 14.436 6.85355 14.6312L12.0287 19.8064L17.1445 14.6332C17.3386 14.4369 17.6552 14.4351 17.8516 14.6293C18.0479 14.8234 18.0497 15.14 17.8555 15.3364L12.0327 21.2246L6.14645 15.3383C5.95118 15.1431 5.95118 14.8265 6.14645 14.6312Z" fill="#2B2B2C"/>
</svg>
