<svg width="24" height="25" viewBox="0 0 24 25" fill="none" xmlns="http://www.w3.org/2000/svg">
<path fill-rule="evenodd" clip-rule="evenodd" d="M12 21.4849C11.4477 21.4849 11 21.0371 11 20.4849L11 4.48486C11 3.93257 11.4477 3.48486 12 3.48486C12.5523 3.48486 13 3.93257 13 4.48486L13 20.4849C13 21.0371 12.5523 21.4849 12 21.4849Z" fill="#2B2B2C"/>
<path fill-rule="evenodd" clip-rule="evenodd" d="M5.79289 14.2776C6.18342 13.8871 6.81658 13.8871 7.20711 14.2776L12.0268 19.0972L16.789 14.2815C17.1773 13.8888 17.8104 13.8853 18.2031 14.2736C18.5958 14.662 18.5994 15.2951 18.211 15.6878L12.0347 21.9336L5.79289 15.6918C5.40237 15.3013 5.40237 14.6681 5.79289 14.2776Z" fill="#2B2B2C"/>
</svg>
