<svg width="18" height="19" viewBox="0 0 18 19" fill="none" xmlns="http://www.w3.org/2000/svg">
<path fill-rule="evenodd" clip-rule="evenodd" d="M9 15C8.72386 15 8.5 14.7761 8.5 14.5L8.5 4C8.5 3.72386 8.72386 3.5 9 3.5C9.27614 3.5 9.5 3.72386 9.5 4L9.5 14.5C9.5 14.7761 9.27614 15 9 15Z" fill="#2B2B2C"/>
<path fill-rule="evenodd" clip-rule="evenodd" d="M5.14645 11.1464C5.34171 10.9511 5.65829 10.9511 5.85355 11.1464L9 14.2928L12.1464 11.1464C12.3417 10.9511 12.6583 10.9511 12.8536 11.1464C13.0488 11.3416 13.0488 11.6582 12.8536 11.8535L9 15.707L5.14645 11.8535C4.95118 11.6582 4.95118 11.3416 5.14645 11.1464Z" fill="#2B2B2C"/>
</svg>
