<svg width="24" height="25" viewBox="0 0 24 25" fill="none" xmlns="http://www.w3.org/2000/svg">
<path fill-rule="evenodd" clip-rule="evenodd" d="M12 4.01514C12.2761 4.01514 12.5 4.23899 12.5 4.51514L12.5 20.5151C12.5 20.7913 12.2761 21.0151 12 21.0151C11.7239 21.0151 11.5 20.7913 11.5 20.5151L11.5 4.51514C11.5 4.23899 11.7239 4.01514 12 4.01514Z" fill="#2B2B2C"/>
<path fill-rule="evenodd" clip-rule="evenodd" d="M17.8536 10.3688C17.6583 10.564 17.3417 10.564 17.1464 10.3688L11.9713 5.19357L6.85552 10.3668C6.66136 10.5631 6.34478 10.5649 6.14843 10.3707C5.95208 10.1766 5.95031 9.85999 6.14448 9.66364L11.9673 3.77539L17.8536 9.66165C18.0488 9.85691 18.0488 10.1735 17.8536 10.3688Z" fill="#2B2B2C"/>
</svg>
