<svg width="18" height="19" viewBox="0 0 18 19" fill="none" xmlns="http://www.w3.org/2000/svg">
<path fill-rule="evenodd" clip-rule="evenodd" d="M9 3.75C9.41421 3.75 9.75 4.08579 9.75 4.5L9.75 15C9.75 15.4142 9.41421 15.75 9 15.75C8.58579 15.75 8.25 15.4142 8.25 15L8.25 4.5C8.25 4.08579 8.58579 3.75 9 3.75Z" fill="#2B2B2C"/>
<path fill-rule="evenodd" clip-rule="evenodd" d="M13.0303 8.03044C12.7374 8.32334 12.2626 8.32334 11.9697 8.03044L9 5.06077L6.03033 8.03044C5.73744 8.32334 5.26256 8.32334 4.96967 8.03044C4.67678 7.73755 4.67678 7.26268 4.96967 6.96978L9 2.93945L13.0303 6.96978C13.3232 7.26268 13.3232 7.73755 13.0303 8.03044Z" fill="#2B2B2C"/>
</svg>
