<svg width="24" height="25" viewBox="0 0 24 25" fill="none" xmlns="http://www.w3.org/2000/svg">
<path fill-rule="evenodd" clip-rule="evenodd" d="M12 3.51514C12.5523 3.51514 13 3.96285 13 4.51514L13 20.5151C13 21.0674 12.5523 21.5151 12 21.5151C11.4477 21.5151 11 21.0674 11 20.5151L11 4.51514C11 3.96285 11.4477 3.51514 12 3.51514Z" fill="#2B2B2C"/>
<path fill-rule="evenodd" clip-rule="evenodd" d="M18.2071 10.7224C17.8166 11.1129 17.1834 11.1129 16.7929 10.7224L11.9732 5.90276L7.21105 10.7185C6.82271 11.1112 6.18956 11.1147 5.79686 10.7264C5.40416 10.338 5.40062 9.70487 5.78895 9.31217L11.9653 3.06641L18.2071 9.3082C18.5976 9.69872 18.5976 10.3319 18.2071 10.7224Z" fill="#2B2B2C"/>
</svg>
