<svg width="18" height="19" viewBox="0 0 18 19" fill="none" xmlns="http://www.w3.org/2000/svg">
<path fill-rule="evenodd" clip-rule="evenodd" d="M9 15.25C8.58579 15.25 8.25 14.9142 8.25 14.5L8.25 4C8.25 3.58579 8.58579 3.25 9 3.25C9.41421 3.25 9.75 3.58579 9.75 4L9.75 14.5C9.75 14.9142 9.41421 15.25 9 15.25Z" fill="#2B2B2C"/>
<path fill-rule="evenodd" clip-rule="evenodd" d="M4.96967 10.9696C5.26256 10.6767 5.73744 10.6767 6.03033 10.9696L9 13.9392L11.9697 10.9696C12.2626 10.6767 12.7374 10.6767 13.0303 10.9696C13.3232 11.2624 13.3232 11.7373 13.0303 12.0302L9 16.0605L4.96967 12.0302C4.67678 11.7373 4.67678 11.2625 4.96967 10.9696Z" fill="#2B2B2C"/>
</svg>
