<svg width="30" height="31" viewBox="0 0 30 31" fill="none" xmlns="http://www.w3.org/2000/svg">
<path fill-rule="evenodd" clip-rule="evenodd" d="M15 4.76904C14.7239 4.76904 14.5 4.9929 14.5 5.26904L14.5 25.769C14.5 26.0452 14.7239 26.269 15 26.269C15.2761 26.269 15.5 26.0452 15.5 25.769L15.5 5.26904C15.5 4.9929 15.2761 4.76904 15 4.76904Z" fill="#2B2B2C"/>
<path fill-rule="evenodd" clip-rule="evenodd" d="M22.3536 12.6225C22.1583 12.8178 21.8417 12.8178 21.6464 12.6225L14.9635 5.93959L8.35549 12.6206C8.1613 12.8169 7.84472 12.8186 7.64839 12.6244C7.45206 12.4303 7.45032 12.1137 7.64451 11.9174L14.9596 4.52148L22.3536 11.9154C22.5488 12.1107 22.5488 12.4273 22.3536 12.6225Z" fill="#2B2B2C"/>
</svg>
