<svg width="30" height="31" viewBox="0 0 30 31" fill="none" xmlns="http://www.w3.org/2000/svg">
<path fill-rule="evenodd" clip-rule="evenodd" d="M15 26.731C15.5523 26.731 16 26.2832 16 25.731L16 5.23096C16 4.67867 15.5523 4.23096 15 4.23096C14.4477 4.23096 14 4.67867 14 5.23096L14 25.731C14 26.2832 14.4477 26.731 15 26.731Z" fill="#2B2B2C"/>
<path fill-rule="evenodd" clip-rule="evenodd" d="M7.29289 18.0239C7.68342 17.6333 8.31658 17.6333 8.70711 18.0239L15.0345 24.3513L21.289 18.0278C21.6774 17.6351 22.3106 17.6316 22.7032 18.02C23.0959 18.4084 23.0994 19.0415 22.711 19.4342L15.0423 27.1875L7.29289 19.4381C6.90237 19.0476 6.90237 18.4144 7.29289 18.0239Z" fill="#2B2B2C"/>
</svg>
