<svg width="30" height="31" viewBox="0 0 30 31" fill="none" xmlns="http://www.w3.org/2000/svg">
<path fill-rule="evenodd" clip-rule="evenodd" d="M15 26.2305C15.2761 26.2305 15.5 26.0066 15.5 25.7305L15.5 5.23047C15.5 4.95433 15.2761 4.73047 15 4.73047C14.7239 4.73047 14.5 4.95433 14.5 5.23047L14.5 25.7305C14.5 26.0066 14.7239 26.2305 15 26.2305Z" fill="#2B2B2C"/>
<path fill-rule="evenodd" clip-rule="evenodd" d="M7.64644 18.377C7.84171 18.1817 8.15829 18.1817 8.35355 18.377L15.0365 25.0599L21.6445 18.3789C21.8387 18.1826 22.1553 18.1809 22.3516 18.3751C22.5479 18.5692 22.5497 18.8858 22.3555 19.0822L15.0404 26.478L7.64644 19.0841C7.45118 18.8888 7.45118 18.5723 7.64644 18.377Z" fill="#2B2B2C"/>
</svg>
