<svg width="30" height="31" viewBox="0 0 30 31" fill="none" xmlns="http://www.w3.org/2000/svg">
<path fill-rule="evenodd" clip-rule="evenodd" d="M15 4.26904C14.4477 4.26904 14 4.71676 14 5.26904L14 25.769C14 26.3213 14.4477 26.769 15 26.769C15.5523 26.769 16 26.3213 16 25.769L16 5.26904C16 4.71676 15.5523 4.26904 15 4.26904Z" fill="#2B2B2C"/>
<path fill-rule="evenodd" clip-rule="evenodd" d="M22.7071 12.9761C22.3166 13.3667 21.6834 13.3667 21.2929 12.9761L14.9655 6.64871L8.71098 12.9722C8.3226 13.3649 7.68945 13.3684 7.29678 12.98C6.90412 12.5916 6.90065 11.9585 7.28902 11.5658L14.9577 3.8125L22.7071 11.5619C23.0976 11.9524 23.0976 12.5856 22.7071 12.9761Z" fill="#2B2B2C"/>
</svg>
