<svg width="18" height="19" viewBox="0 0 18 19" fill="none" xmlns="http://www.w3.org/2000/svg">
<path fill-rule="evenodd" clip-rule="evenodd" d="M9 4C9.27614 4 9.5 4.22386 9.5 4.5L9.5 15C9.5 15.2761 9.27614 15.5 9 15.5C8.72386 15.5 8.5 15.2761 8.5 15L8.5 4.5C8.5 4.22386 8.72386 4 9 4Z" fill="#2B2B2C"/>
<path fill-rule="evenodd" clip-rule="evenodd" d="M12.8536 7.85363C12.6583 8.04889 12.3417 8.04889 12.1464 7.85363L9 4.70718L5.85355 7.85363C5.65829 8.04889 5.34171 8.04889 5.14645 7.85363C4.95118 7.65837 4.95118 7.34178 5.14645 7.14652L9 3.29297L12.8536 7.14652C13.0488 7.34178 13.0488 7.65837 12.8536 7.85363Z" fill="#2B2B2C"/>
</svg>
