<svg width="24" height="24" viewBox="0 0 24 24" fill="none" xmlns="http://www.w3.org/2000/svg">
<path fill-rule="evenodd" clip-rule="evenodd" d="M14.1464 17.1464C13.9512 17.3417 13.9512 17.6583 14.1464 17.8536C14.3417 18.0488 14.6583 18.0488 14.8535 17.8536L20.3487 12.3584C20.352 12.3552 20.3553 12.3519 20.3585 12.3486L20.7398 11.9673L14.8516 6.14448C14.6552 5.95031 14.3386 5.95208 14.1445 6.14843C13.9503 6.34478 13.9521 6.66136 14.1484 6.85552L18.8451 11.5L4.00005 11.5C3.72391 11.5 3.50005 11.7239 3.50005 12C3.50005 12.2761 3.72391 12.5 4.00005 12.5L18.7929 12.5L14.1464 17.1464Z" fill="#2B2B2C"/>
</svg>
