<svg width="30" height="30" viewBox="0 0 30 30" fill="none" xmlns="http://www.w3.org/2000/svg">
<path fill-rule="evenodd" clip-rule="evenodd" d="M3 9.25C3 8.83579 3.33579 8.5 3.75 8.5H24.25C24.6642 8.5 25 8.83579 25 9.25V20.75C25 21.1642 24.6642 21.5 24.25 21.5H3.75C3.33579 21.5 3 21.1642 3 20.75V9.25ZM3.75 7.5C2.7835 7.5 2 8.2835 2 9.25V20.75C2 21.7165 2.7835 22.5 3.75 22.5H24.25C25.2165 22.5 26 21.7165 26 20.75V18.5H27.5C27.7761 18.5 28 18.2761 28 18V12C28 11.7239 27.7761 11.5 27.5 11.5H26V9.25C26 8.2835 25.2165 7.5 24.25 7.5H3.75ZM27 17.5H26V12.5H27V17.5ZM4.5 9.5C4.22386 9.5 4 9.72386 4 10V20C4 20.2761 4.22386 20.5 4.5 20.5H18.5C18.7761 20.5 19 20.2761 19 20V10C19 9.72386 18.7761 9.5 18.5 9.5H4.5ZM5 19.5V10.5H18V19.5H5Z" fill="#2B2B2C"/>
</svg>
