<svg width="24" height="24" viewBox="0 0 24 24" fill="none" xmlns="http://www.w3.org/2000/svg">
<path fill-rule="evenodd" clip-rule="evenodd" d="M3 7.5C3 7.22386 3.22386 7 3.5 7H18.5C18.7761 7 19 7.22386 19 7.5V16.5C19 16.7761 18.7761 17 18.5 17H3.5C3.22386 17 3 16.7761 3 16.5V7.5ZM3.5 6C2.67157 6 2 6.67157 2 7.5V16.5C2 17.3284 2.67157 18 3.5 18H18.5C19.3284 18 20 17.3284 20 16.5V15H21.5C21.7761 15 22 14.7761 22 14.5V9.5C22 9.22386 21.7761 9 21.5 9H20V7.5C20 6.67157 19.3284 6 18.5 6H3.5ZM21 14H20V10H21V14ZM4.5 8C4.22386 8 4 8.22386 4 8.5V15.5C4 15.7761 4.22386 16 4.5 16H14.5C14.7761 16 15 15.7761 15 15.5V8.5C15 8.22386 14.7761 8 14.5 8H4.5ZM5 15V9H14V15H5Z" fill="#2B2B2C"/>
</svg>
