<svg width="18" height="18" viewBox="0 0 18 18" fill="none" xmlns="http://www.w3.org/2000/svg">
<path fill-rule="evenodd" clip-rule="evenodd" d="M2 5.25C2 5.11193 2.11193 5 2.25 5H14.25C14.3881 5 14.5 5.11193 14.5 5.25V12.75C14.5 12.8881 14.3881 13 14.25 13H2.25C2.11193 13 2 12.8881 2 12.75V5.25ZM2.25 4C1.55964 4 1 4.55964 1 5.25V12.75C1 13.4404 1.55964 14 2.25 14H14.25C14.9404 14 15.5 13.4404 15.5 12.75V11.5H16.5C16.7761 11.5 17 11.2761 17 11V7C17 6.72386 16.7761 6.5 16.5 6.5H15.5V5.25C15.5 4.55964 14.9404 4 14.25 4H2.25ZM16 10.5H15.5V7.5H16V10.5ZM3.5 6C3.22386 6 3 6.22386 3 6.5V11.5C3 11.7761 3.22386 12 3.5 12H10.5C10.7761 12 11 11.7761 11 11.5V6.5C11 6.22386 10.7761 6 10.5 6H3.5ZM4 11V7H10V11H4Z" fill="#2B2B2C"/>
</svg>
