<svg width="24" height="24" viewBox="0 0 24 24" fill="none" xmlns="http://www.w3.org/2000/svg">
<path fill-rule="evenodd" clip-rule="evenodd" d="M17 4C17 3.44772 17.4477 3 18 3C18.5523 3 19 3.44772 19 4V12H17V4ZM19.5 13H17V21.5C17 21.6801 16.9031 21.8463 16.7463 21.9351C16.5896 22.0239 16.3972 22.0214 16.2428 21.9287L11.5 19.0831L6.75725 21.9287C6.60278 22.0214 6.4104 22.0239 6.25365 21.9351C6.0969 21.8463 6 21.6801 6 21.5V4.5C6 3.11929 7.11929 2 8.5 2H18C19.1046 2 20 2.89543 20 4V12.5C20 12.7761 19.7761 13 19.5 13ZM8.5 6C8.22386 6 8 6.22386 8 6.5C8 6.77614 8.22386 7 8.5 7H14.5C14.7761 7 15 6.77614 15 6.5C15 6.22386 14.7761 6 14.5 6H8.5ZM8 10C8 9.72386 8.22386 9.5 8.5 9.5H14.5C14.7761 9.5 15 9.72386 15 10C15 10.2761 14.7761 10.5 14.5 10.5H8.5C8.22386 10.5 8 10.2761 8 10Z" fill="#2B2B2C"/>
</svg>
