<svg width="18" height="18" viewBox="0 0 18 18" fill="none" xmlns="http://www.w3.org/2000/svg">
<path fill-rule="evenodd" clip-rule="evenodd" d="M5.5 1C5.77614 1 6 1.22386 6 1.5V2H12V1.5C12 1.22386 12.2239 1 12.5 1C12.7761 1 13 1.22386 13 1.5V2H14.75C15.4404 2 16 2.55964 16 3.25V5.5V14.75C16 15.4404 15.4404 16 14.75 16H3.25C2.55964 16 2 15.4404 2 14.75V5.5V3.25C2 2.55964 2.55964 2 3.25 2H5V1.5C5 1.22386 5.22386 1 5.5 1ZM12 3V4C12 4.27614 12.2239 4.5 12.5 4.5C12.7761 4.5 13 4.27614 13 4V3H14.75C14.8881 3 15 3.11193 15 3.25V5H3V3.25C3 3.11193 3.11193 3 3.25 3H5V4C5 4.27614 5.22386 4.5 5.5 4.5C5.77614 4.5 6 4.27614 6 4V3H12ZM3 6H15V14.75C15 14.8881 14.8881 15 14.75 15H3.25C3.11193 15 3 14.8881 3 14.75V6ZM7.00006 6.99978C7.2762 6.99978 7.50006 7.22364 7.50006 7.49978V8.5H10.5V7.5C10.5 7.22386 10.7239 7 11 7C11.2761 7 11.5 7.22386 11.5 7.5V8.5H13C13.2761 8.5 13.5 8.72386 13.5 9C13.5 9.27614 13.2761 9.5 13 9.5H11.5V11.5H13C13.2761 11.5 13.5 11.7239 13.5 12C13.5 12.2761 13.2761 12.5 13 12.5H11.5V13.5C11.5 13.7761 11.2761 14 11 14C10.7239 14 10.5 13.7761 10.5 13.5V12.5H7.50006V13.4998C7.50006 13.7759 7.2762 13.9998 7.00006 13.9998C6.72392 13.9998 6.50006 13.7759 6.50006 13.4998V12.5H5C4.72386 12.5 4.5 12.2761 4.5 12C4.5 11.7239 4.72386 11.5 5 11.5H6.50006V9.5H5C4.72386 9.5 4.5 9.27614 4.5 9C4.5 8.72386 4.72386 8.5 5 8.5H6.50006V7.49978C6.50006 7.22364 6.72392 6.99978 7.00006 6.99978ZM7.50006 11.5H10.5V9.5H7.50006L7.50006 11.5Z" fill="#2B2B2C"/>
</svg>
