<svg width="18" height="18" viewBox="0 0 18 18" fill="none" xmlns="http://www.w3.org/2000/svg">
<path fill-rule="evenodd" clip-rule="evenodd" d="M7.35351 2.85355C7.54877 2.65829 7.54877 2.34171 7.35351 2.14645C7.15825 1.95118 6.84166 1.95118 6.6464 2.14645L3.29285 5.5L6.6464 8.85355C6.84166 9.04882 7.15825 9.04882 7.35351 8.85355C7.54877 8.65829 7.54877 8.34171 7.35351 8.14645L5.20706 6L14 6C14.2761 6 14.5 5.77614 14.5 5.5C14.5 5.22386 14.2761 5 14 5L5.20706 5L7.35351 2.85355ZM10.6465 15.1464L12.7929 13H4C3.72386 13 3.5 12.7761 3.5 12.5C3.5 12.2239 3.72386 12 4 12L12.7929 12L10.6465 9.85355C10.4512 9.65829 10.4512 9.34171 10.6465 9.14645C10.8418 8.95118 11.1583 8.95118 11.3536 9.14645L14.7072 12.5L11.3536 15.8536C11.1583 16.0488 10.8418 16.0488 10.6465 15.8536C10.4512 15.6583 10.4512 15.3417 10.6465 15.1464Z" fill="#2B2B2C"/>
</svg>
