<svg width="18" height="18" viewBox="0 0 18 18" fill="none" xmlns="http://www.w3.org/2000/svg">
<path fill-rule="evenodd" clip-rule="evenodd" d="M5.53033 4.46967C5.23744 4.17678 4.76256 4.17678 4.46967 4.46967C4.17678 4.76256 4.17678 5.23744 4.46967 5.53033L7.89493 8.95559L4.46967 12.3808C4.17678 12.6737 4.17678 13.1486 4.46967 13.4415C4.76256 13.7344 5.23744 13.7344 5.53033 13.4415L8.95559 10.0162L12.3808 13.4415C12.6737 13.7344 13.1486 13.7344 13.4415 13.4415C13.7344 13.1486 13.7344 12.6737 13.4415 12.3808L10.0162 8.95559L13.4415 5.53033C13.7344 5.23744 13.7344 4.76256 13.4415 4.46967C13.1486 4.17678 12.6737 4.17678 12.3808 4.46967L8.95559 7.89493L5.53033 4.46967Z" fill="#2B2B2C"/>
</svg>
