<svg width="18" height="18" viewBox="0 0 18 18" fill="none" xmlns="http://www.w3.org/2000/svg">
<path fill-rule="evenodd" clip-rule="evenodd" d="M5.35355 4.64645C5.15829 4.45118 4.84171 4.45118 4.64645 4.64645C4.45118 4.84171 4.45118 5.15829 4.64645 5.35355L8.24848 8.95559L4.64645 12.5576C4.45118 12.7529 4.45118 13.0695 4.64645 13.2647C4.84171 13.46 5.15829 13.46 5.35355 13.2647L8.95559 9.6627L12.5576 13.2647C12.7529 13.46 13.0695 13.46 13.2647 13.2647C13.46 13.0695 13.46 12.7529 13.2647 12.5576L9.6627 8.95559L13.2647 5.35355C13.46 5.15829 13.46 4.84171 13.2647 4.64645C13.0695 4.45118 12.7529 4.45118 12.5576 4.64645L8.95559 8.24848L5.35355 4.64645Z" fill="#2B2B2C"/>
</svg>
