<svg width="30" height="30" viewBox="0 0 30 30" fill="none" xmlns="http://www.w3.org/2000/svg">
<path fill-rule="evenodd" clip-rule="evenodd" d="M12.75 4C12.3358 4 12 4.33579 12 4.75V5H18V4.75C18 4.33579 17.6642 4 17.25 4H12.75ZM19 5V4.75C19 3.7835 18.2165 3 17.25 3H12.75C11.7835 3 11 3.7835 11 4.75V5L8.125 5.00001C7.50368 5.00001 7 5.50369 7 6.12501V8.875C7 9.49632 7.50368 10 8.125 10H8.5V25.25C8.5 26.2165 9.2835 27 10.25 27H19.75C20.7165 27 21.5 26.2165 21.5 25.25V10H21.875C22.4963 10 23 9.49632 23 8.875V6.12501C23 5.50369 22.4963 5.00001 21.875 5.00001L19 5ZM21.875 9C21.944 9 22 8.94404 22 8.875V6.12501C22 6.05598 21.944 6.00001 21.875 6.00001H8.125C8.05596 6.00001 8 6.05598 8 6.12501V8.875C8 8.94404 8.05596 9 8.125 9H21.875ZM9.5 10H20.5V25.25C20.5 25.6642 20.1642 26 19.75 26H10.25C9.83579 26 9.5 25.6642 9.5 25.25V10ZM13 12.5C13.2761 12.5 13.5 12.7239 13.5 13V23C13.5 23.2762 13.2761 23.5 13 23.5C12.7239 23.5 12.5 23.2762 12.5 23V13C12.5 12.7239 12.7239 12.5 13 12.5ZM17 12.5C17.2761 12.5 17.5 12.7239 17.5 13V23C17.5 23.2762 17.2761 23.5 17 23.5C16.7239 23.5 16.5 23.2762 16.5 23V13C16.5 12.7239 16.7239 12.5 17 12.5Z" fill="#2B2B2C"/>
</svg>
