<svg width="24" height="24" viewBox="0 0 24 24" fill="none" xmlns="http://www.w3.org/2000/svg">
<path fill-rule="evenodd" clip-rule="evenodd" d="M10 3C9.72386 3 9.5 3.22386 9.5 3.5V4H14.5V3.5C14.5 3.22386 14.2761 3 14 3H10ZM15.5 4V3.5C15.5 2.67157 14.8284 2 14 2H10C9.17157 2 8.5 2.67157 8.5 3.5V4H6.5C5.94772 4 5.5 4.44772 5.5 5V7C5.5 7.55229 5.94772 8 6.5 8L6.5 20.5C6.5 21.3284 7.17157 22 8 22H16C16.8284 22 17.5 21.3284 17.5 20.5V8C18.0523 8 18.5 7.55228 18.5 7V5C18.5 4.44772 18.0523 4 17.5 4H15.5ZM17.5 7V5H6.5V7H17.5ZM7.5 8H16.5V20.5C16.5 20.7761 16.2761 21 16 21H8C7.72386 21 7.5 20.7761 7.5 20.5V8ZM10.5 10C10.7761 10 11 10.2239 11 10.5V18.5C11 18.7761 10.7761 19 10.5 19C10.2239 19 10 18.7761 10 18.5V10.5C10 10.2239 10.2239 10 10.5 10ZM13.5 10C13.7761 10 14 10.2239 14 10.5V18.5C14 18.7761 13.7761 19 13.5 19C13.2239 19 13 18.7761 13 18.5V10.5C13 10.2239 13.2239 10 13.5 10Z" fill="#2B2B2C"/>
</svg>
