<svg width="42" height="42" viewBox="0 0 42 42" fill="none" xmlns="http://www.w3.org/2000/svg">
<path d="M36.5 21C36.5 12.5615 29.4385 5.5 21 5.5C12.4396 5.5 5.5 12.4396 5.5 21C5.5 29.5604 12.4396 36.5 21 36.5C29.5604 36.5 36.5 29.5604 36.5 21ZM37.5 21C37.5 30.1127 30.1127 37.5 21 37.5C11.8873 37.5 4.5 30.1127 4.5 21C4.5 11.8873 11.8873 4.5 21 4.5C29.9908 4.5 37.5 12.0092 37.5 21Z" fill="#2B2B2C"/>
<path d="M30.1965 21.0002C30.1965 15.921 26.0795 11.8031 21.0002 11.803C15.9209 11.803 11.803 15.9209 11.803 21.0002C11.8031 26.0795 15.921 30.1965 21.0002 30.1965C26.0794 30.1964 30.1964 26.0794 30.1965 21.0002ZM31.1965 21.0002C31.1964 26.6316 26.6316 31.1964 21.0002 31.1965C15.3687 31.1965 10.8031 26.6317 10.803 21.0002C10.803 15.3686 15.3686 10.803 21.0002 10.803C26.6317 10.8031 31.1965 15.3687 31.1965 21.0002Z" fill="#2B2B2C"/>
</svg>
