<svg width="24" height="24" viewBox="0 0 24 24" fill="none" xmlns="http://www.w3.org/2000/svg">
<path fill-rule="evenodd" clip-rule="evenodd" d="M2 12C2 6.47715 6.47715 2 12 2C17.4505 2 22 6.54952 22 12C22 17.5228 17.5228 22 12 22C6.47715 22 2 17.5228 2 12ZM12 3C7.02944 3 3 7.02944 3 12C3 16.9706 7.02944 21 12 21C16.9706 21 21 16.9706 21 12C21 7.10181 16.8982 3 12 3ZM12 6.50001C8.96244 6.50001 6.50001 8.96244 6.50001 12C6.50001 15.0376 8.96244 17.5 12 17.5C15.0376 17.5 17.5 15.0376 17.5 12C17.5 8.96244 15.0376 6.50001 12 6.50001ZM5.50001 12C5.50001 8.41016 8.41016 5.50001 12 5.50001C15.5899 5.50001 18.5 8.41016 18.5 12C18.5 15.5899 15.5899 18.5 12 18.5C8.41016 18.5 5.50001 15.5899 5.50001 12Z" fill="#2B2B2C"/>
</svg>
