<svg width="30" height="30" viewBox="0 0 30 30" fill="none" xmlns="http://www.w3.org/2000/svg">
<path d="M26.5 15C26.5 8.74014 21.2599 3.5 15 3.5C8.64873 3.5 3.5 8.64873 3.5 15C3.5 21.3513 8.64873 26.5 15 26.5C21.3513 26.5 26.5 21.3513 26.5 15ZM27.5 15C27.5 21.9036 21.9036 27.5 15 27.5C8.09644 27.5 2.5 21.9036 2.5 15C2.5 8.09644 8.09644 2.5 15 2.5C21.8121 2.5 27.5 8.18786 27.5 15Z" fill="#2B2B2C"/>
<path d="M21.5 15C21.5 11.4101 18.5899 8.5 15 8.5C11.4101 8.5 8.5 11.4101 8.5 15C8.5 18.5899 11.4101 21.5 15 21.5C18.5899 21.5 21.5 18.5899 21.5 15ZM22.5 15C22.5 19.1421 19.1421 22.5 15 22.5C10.8579 22.5 7.5 19.1421 7.5 15C7.5 10.8579 10.8579 7.5 15 7.5C19.1421 7.5 22.5 10.8579 22.5 15Z" fill="#2B2B2C"/>
</svg>
