<svg width="24" height="24" viewBox="0 0 24 24" fill="none" xmlns="http://www.w3.org/2000/svg">
<mask id="path-1-inside-1_3223_3697" fill="white">
<path fill-rule="evenodd" clip-rule="evenodd" d="M3 12C3 7.02944 7.02944 3 12 3C16.902 3 21 7.098 21 12C21 16.9706 16.9706 21 12 21C7.02944 21 3 16.9706 3 12ZM12 16.5C14.4853 16.5 16.5 14.4853 16.5 12C16.5 9.51472 14.4853 7.5 12 7.5C9.51472 7.5 7.5 9.51472 7.5 12C7.5 14.4853 9.51472 16.5 12 16.5Z"/>
</mask>
<path d="M12 2C6.47715 2 2 6.47715 2 12H4C4 7.58172 7.58172 4 12 4V2ZM22 12C22 6.54571 17.4543 2 12 2V4C16.3497 4 20 7.65028 20 12H22ZM12 22C17.5228 22 22 17.5228 22 12H20C20 16.4183 16.4183 20 12 20V22ZM2 12C2 17.5228 6.47715 22 12 22V20C7.58172 20 4 16.4183 4 12H2ZM15.5 12C15.5 13.933 13.933 15.5 12 15.5V17.5C15.0376 17.5 17.5 15.0376 17.5 12H15.5ZM12 8.5C13.933 8.5 15.5 10.067 15.5 12H17.5C17.5 8.96243 15.0376 6.5 12 6.5V8.5ZM8.5 12C8.5 10.067 10.067 8.5 12 8.5V6.5C8.96243 6.5 6.5 8.96243 6.5 12H8.5ZM12 15.5C10.067 15.5 8.5 13.933 8.5 12H6.5C6.5 15.0376 8.96243 17.5 12 17.5V15.5Z" fill="#2B2B2C" mask="url(#path-1-inside-1_3223_3697)"/>
</svg>
