<svg width="42" height="42" viewBox="0 0 42 42" fill="none" xmlns="http://www.w3.org/2000/svg">
<path d="M21 4.5C11.8873 4.5 4.5 11.8873 4.5 21H5.5C5.5 12.4396 12.4396 5.5 21 5.5V4.5ZM37.5 21C37.5 12.0092 29.9908 4.5 21 4.5V5.5C29.4385 5.5 36.5 12.5615 36.5 21H37.5ZM21 37.5C30.1127 37.5 37.5 30.1127 37.5 21H36.5C36.5 29.5604 29.5604 36.5 21 36.5V37.5ZM4.5 21C4.5 30.1127 11.8873 37.5 21 37.5V36.5C12.4396 36.5 5.5 29.5604 5.5 21H4.5ZM30.1969 21C30.1969 26.0794 26.0793 30.197 20.9999 30.197V31.197C26.6316 31.197 31.1969 26.6317 31.1969 21H30.1969ZM20.9999 11.8031C26.0793 11.8031 30.1969 15.9207 30.1969 21H31.1969C31.1969 15.3684 26.6316 10.8031 20.9999 10.8031V11.8031ZM11.803 21C11.803 15.9207 15.9206 11.8031 20.9999 11.8031V10.8031C15.3683 10.8031 10.803 15.3684 10.803 21H11.803ZM20.9999 30.197C15.9206 30.197 11.803 26.0794 11.803 21H10.803C10.803 26.6317 15.3683 31.197 20.9999 31.197V30.197Z" fill="#2B2B2C"/>
</svg>
