<svg width="24" height="24" viewBox="0 0 24 24" fill="none" xmlns="http://www.w3.org/2000/svg">
<mask id="path-1-outside-1_3223_3696" maskUnits="userSpaceOnUse" x="3" y="3" width="18" height="18" fill="black">
<rect fill="white" x="3" y="3" width="18" height="18"/>
<path fill-rule="evenodd" clip-rule="evenodd" d="M4 12C4 7.58172 7.58172 4 12 4C16.3573 4 20 7.64267 20 12C20 16.4183 16.4183 20 12 20C7.58172 20 4 16.4183 4 12ZM12 18C15.3137 18 18 15.3137 18 12C18 8.68629 15.3137 6 12 6C8.68629 6 6 8.68629 6 12C6 15.3137 8.68629 18 12 18Z"/>
</mask>
<path fill-rule="evenodd" clip-rule="evenodd" d="M4 12C4 7.58172 7.58172 4 12 4C16.3573 4 20 7.64267 20 12C20 16.4183 16.4183 20 12 20C7.58172 20 4 16.4183 4 12ZM12 18C15.3137 18 18 15.3137 18 12C18 8.68629 15.3137 6 12 6C8.68629 6 6 8.68629 6 12C6 15.3137 8.68629 18 12 18Z" fill="#2B2B2C"/>
<path d="M12 3C7.02944 3 3 7.02944 3 12H5C5 8.13401 8.13401 5 12 5V3ZM21 12C21 7.09038 16.9096 3 12 3V5C15.805 5 19 8.19495 19 12H21ZM12 21C16.9706 21 21 16.9706 21 12H19C19 15.866 15.866 19 12 19V21ZM3 12C3 16.9706 7.02944 21 12 21V19C8.13401 19 5 15.866 5 12H3ZM17 12C17 14.7614 14.7614 17 12 17V19C15.866 19 19 15.866 19 12H17ZM12 7C14.7614 7 17 9.23858 17 12H19C19 8.13401 15.866 5 12 5V7ZM7 12C7 9.23858 9.23858 7 12 7V5C8.13401 5 5 8.13401 5 12H7ZM12 17C9.23858 17 7 14.7614 7 12H5C5 15.866 8.13401 19 12 19V17Z" fill="#2B2B2C" mask="url(#path-1-outside-1_3223_3696)"/>
</svg>
