<svg width="42" height="42" viewBox="0 0 42 42" fill="none" xmlns="http://www.w3.org/2000/svg">
<path fill-rule="evenodd" clip-rule="evenodd" d="M5 21C5 12.1634 12.1634 5 21 5C29.7147 5 37 12.2853 37 21C37 29.8366 29.8366 37 21 37C12.1634 37 5 29.8366 5 21ZM21 30.697C26.3555 30.697 30.697 26.3555 30.697 21C30.697 15.6445 26.3555 11.303 21 11.303C15.6445 11.303 11.303 15.6445 11.303 21C11.303 26.3555 15.6445 30.697 21 30.697Z" fill="#2B2B2C"/>
<path d="M21 4.5C11.8873 4.5 4.5 11.8873 4.5 21H5.5C5.5 12.4396 12.4396 5.5 21 5.5V4.5ZM37.5 21C37.5 12.0092 29.9908 4.5 21 4.5V5.5C29.4385 5.5 36.5 12.5615 36.5 21H37.5ZM21 37.5C30.1127 37.5 37.5 30.1127 37.5 21H36.5C36.5 29.5604 29.5604 36.5 21 36.5V37.5ZM4.5 21C4.5 30.1127 11.8873 37.5 21 37.5V36.5C12.4396 36.5 5.5 29.5604 5.5 21H4.5ZM30.197 21C30.197 26.0793 26.0793 30.197 21 30.197V31.197C26.6316 31.197 31.197 26.6316 31.197 21H30.197ZM21 11.803C26.0793 11.803 30.197 15.9207 30.197 21H31.197C31.197 15.3684 26.6316 10.803 21 10.803V11.803ZM11.803 21C11.803 15.9207 15.9207 11.803 21 11.803V10.803C15.3684 10.803 10.803 15.3684 10.803 21H11.803ZM21 30.197C15.9207 30.197 11.803 26.0793 11.803 21H10.803C10.803 26.6316 15.3684 31.197 21 31.197V30.197Z" fill="#2B2B2C"/>
</svg>
