<svg width="18" height="18" viewBox="0 0 18 18" fill="none" xmlns="http://www.w3.org/2000/svg">
<mask id="path-1-inside-1_3223_3692" fill="white">
<path fill-rule="evenodd" clip-rule="evenodd" d="M1.5 9C1.5 4.85786 4.85786 1.5 9 1.5C13.085 1.5 16.5 4.915 16.5 9C16.5 13.1421 13.1421 16.5 9 16.5C4.85786 16.5 1.5 13.1421 1.5 9ZM9 12.5C10.933 12.5 12.5 10.933 12.5 9C12.5 7.067 10.933 5.5 9 5.5C7.067 5.5 5.5 7.067 5.5 9C5.5 10.933 7.067 12.5 9 12.5Z"/>
</mask>
<path d="M9 0.5C4.30558 0.5 0.5 4.30558 0.5 9H2.5C2.5 5.41015 5.41015 2.5 9 2.5V0.5ZM17.5 9C17.5 4.36271 13.6373 0.5 9 0.5V2.5C12.5327 2.5 15.5 5.46728 15.5 9H17.5ZM9 17.5C13.6944 17.5 17.5 13.6944 17.5 9H15.5C15.5 12.5899 12.5899 15.5 9 15.5V17.5ZM0.5 9C0.5 13.6944 4.30558 17.5 9 17.5V15.5C5.41015 15.5 2.5 12.5899 2.5 9H0.5ZM11.5 9C11.5 10.3807 10.3807 11.5 9 11.5V13.5C11.4853 13.5 13.5 11.4853 13.5 9H11.5ZM9 6.5C10.3807 6.5 11.5 7.61929 11.5 9H13.5C13.5 6.51472 11.4853 4.5 9 4.5V6.5ZM6.5 9C6.5 7.61929 7.61929 6.5 9 6.5V4.5C6.51472 4.5 4.5 6.51472 4.5 9H6.5ZM9 11.5C7.61929 11.5 6.5 10.3807 6.5 9H4.5C4.5 11.4853 6.51472 13.5 9 13.5V11.5Z" fill="#2B2B2C" mask="url(#path-1-inside-1_3223_3692)"/>
</svg>
