<svg width="30" height="30" viewBox="0 0 30 30" fill="none" xmlns="http://www.w3.org/2000/svg">
<mask id="path-1-inside-1_3223_3695" fill="white">
<path fill-rule="evenodd" clip-rule="evenodd" d="M3 15C3 8.37258 8.37258 3 15 3C21.536 3 27 8.464 27 15C27 21.6274 21.6274 27 15 27C8.37258 27 3 21.6274 3 15ZM15 21C18.3137 21 21 18.3137 21 15C21 11.6863 18.3137 9 15 9C11.6863 9 9 11.6863 9 15C9 18.3137 11.6863 21 15 21Z"/>
</mask>
<path d="M15 2C7.8203 2 2 7.8203 2 15H4C4 8.92487 8.92487 4 15 4V2ZM28 15C28 7.91171 22.0883 2 15 2V4C20.9837 4 26 9.01628 26 15H28ZM15 28C22.1797 28 28 22.1797 28 15H26C26 21.0751 21.0751 26 15 26V28ZM2 15C2 22.1797 7.8203 28 15 28V26C8.92487 26 4 21.0751 4 15H2ZM20 15C20 17.7614 17.7614 20 15 20V22C18.866 22 22 18.866 22 15H20ZM15 10C17.7614 10 20 12.2386 20 15H22C22 11.134 18.866 8 15 8V10ZM10 15C10 12.2386 12.2386 10 15 10V8C11.134 8 8 11.134 8 15H10ZM15 20C12.2386 20 10 17.7614 10 15H8C8 18.866 11.134 22 15 22V20Z" fill="#2B2B2C" mask="url(#path-1-inside-1_3223_3695)"/>
</svg>
