<svg width="18" height="18" viewBox="0 0 18 18" fill="none" xmlns="http://www.w3.org/2000/svg">
<mask id="path-1-inside-1_3223_3693" fill="white">
<path fill-rule="evenodd" clip-rule="evenodd" d="M1.5 9C1.5 4.85786 4.85786 1.5 9 1.5C13.085 1.5 16.5 4.915 16.5 9C16.5 13.1421 13.1421 16.5 9 16.5C4.85786 16.5 1.5 13.1421 1.5 9ZM9 13C11.2091 13 13 11.2091 13 9C13 6.79086 11.2091 5 9 5C6.79086 5 5 6.79086 5 9C5 11.2091 6.79086 13 9 13Z"/>
</mask>
<path fill-rule="evenodd" clip-rule="evenodd" d="M1.5 9C1.5 4.85786 4.85786 1.5 9 1.5C13.085 1.5 16.5 4.915 16.5 9C16.5 13.1421 13.1421 16.5 9 16.5C4.85786 16.5 1.5 13.1421 1.5 9ZM9 13C11.2091 13 13 11.2091 13 9C13 6.79086 11.2091 5 9 5C6.79086 5 5 6.79086 5 9C5 11.2091 6.79086 13 9 13Z" fill="#2B2B2C"/>
<path d="M9 0.5C4.30558 0.5 0.5 4.30558 0.5 9H2.5C2.5 5.41015 5.41015 2.5 9 2.5V0.5ZM17.5 9C17.5 4.36271 13.6373 0.5 9 0.5V2.5C12.5327 2.5 15.5 5.46728 15.5 9H17.5ZM9 17.5C13.6944 17.5 17.5 13.6944 17.5 9H15.5C15.5 12.5899 12.5899 15.5 9 15.5V17.5ZM0.5 9C0.5 13.6944 4.30558 17.5 9 17.5V15.5C5.41015 15.5 2.5 12.5899 2.5 9H0.5ZM12 9C12 10.6569 10.6569 12 9 12V14C11.7614 14 14 11.7614 14 9H12ZM9 6C10.6569 6 12 7.34315 12 9H14C14 6.23858 11.7614 4 9 4V6ZM6 9C6 7.34315 7.34315 6 9 6V4C6.23858 4 4 6.23858 4 9H6ZM9 12C7.34315 12 6 10.6569 6 9H4C4 11.7614 6.23858 14 9 14V12Z" fill="#2B2B2C" mask="url(#path-1-inside-1_3223_3693)"/>
</svg>
