<svg width="18" height="18" viewBox="0 0 18 18" fill="none" xmlns="http://www.w3.org/2000/svg">
<path fill-rule="evenodd" clip-rule="evenodd" d="M8.71299 16.9094C8.71314 16.9095 8.71327 16.9096 9 16.5L8.71327 16.9096L9 17.1103L9.28673 16.9096L9 16.5C9.28673 16.9096 9.28686 16.9095 9.28701 16.9094L9.28744 16.9091L9.28869 16.9082L9.29282 16.9053L9.30746 16.8949C9.32001 16.886 9.33808 16.873 9.36131 16.8561C9.40776 16.8224 9.47485 16.773 9.55963 16.7088C9.72915 16.5804 9.96969 16.3928 10.2576 16.1529C10.8327 15.6736 11.6005 14.9827 12.37 14.1363C13.8899 12.4644 15.5 10.0945 15.5 7.5C15.5 3.91015 12.5899 1 9 1C5.41015 1 2.5 3.91015 2.5 7.5C2.5 10.0945 4.1101 12.4644 5.63003 14.1363C6.39947 14.9827 7.16734 15.6736 7.74241 16.1529C8.03031 16.3928 8.27085 16.5804 8.44037 16.7088C8.52515 16.773 8.59224 16.8224 8.63869 16.8561C8.66192 16.873 8.67999 16.886 8.69254 16.8949L8.70718 16.9053L8.71131 16.9082L8.71256 16.9091L8.71299 16.9094ZM6 7C6 5.34315 7.34315 4 9 4C10.6569 4 12 5.34315 12 7C12 8.65685 10.6569 10 9 10C7.34315 10 6 8.65685 6 7Z" fill="#2B2B2C"/>
</svg>
