<svg width="24" height="24" viewBox="0 0 24 24" fill="none" xmlns="http://www.w3.org/2000/svg">
<path fill-rule="evenodd" clip-rule="evenodd" d="M12.5 3.5C12.5 3.22386 12.2761 3 12 3C11.7239 3 11.5 3.22386 11.5 3.5V16.2929L6.35355 11.1464C6.15829 10.9512 5.84171 10.9512 5.64645 11.1464C5.45118 11.3417 5.45118 11.6583 5.64645 11.8536L12 18.2071L18.3536 11.8536C18.5488 11.6583 18.5488 11.3417 18.3536 11.1464C18.1583 10.9512 17.8417 10.9512 17.6464 11.1464L12.5 16.2929V3.5ZM3.5 19.5C3.22386 19.5 3 19.7239 3 20C3 20.2761 3.22386 20.5 3.5 20.5H20.5C20.7761 20.5 21 20.2761 21 20C21 19.7239 20.7761 19.5 20.5 19.5H3.5Z" fill="#2B2B2C"/>
</svg>
