<svg width="30" height="30" viewBox="0 0 30 30" fill="none" xmlns="http://www.w3.org/2000/svg">
<path fill-rule="evenodd" clip-rule="evenodd" d="M3.5 25.5C3.5 24.9477 3.94772 24.5 4.5 24.5H25.5C26.0523 24.5 26.5 24.9477 26.5 25.5C26.5 26.0523 26.0523 26.5 25.5 26.5H4.5C3.94772 26.5 3.5 26.0523 3.5 25.5Z" fill="#2B2B2C"/>
<path fill-rule="evenodd" clip-rule="evenodd" d="M15 3.5C15.5523 3.5 16 3.94772 16 4.5V19.5858L21.7929 13.7929C22.1834 13.4024 22.8166 13.4024 23.2071 13.7929C23.5976 14.1834 23.5976 14.8166 23.2071 15.2071L15 23.4142L6.79289 15.2071C6.40237 14.8166 6.40237 14.1834 6.79289 13.7929C7.18342 13.4024 7.81658 13.4024 8.20711 13.7929L14 19.5858V4.5C14 3.94772 14.4477 3.5 15 3.5Z" fill="#2B2B2C"/>
</svg>
