<svg width="24" height="24" viewBox="0 0 24 24" fill="none" xmlns="http://www.w3.org/2000/svg">
<path fill-rule="evenodd" clip-rule="evenodd" d="M13 3.5C13 2.94772 12.5523 2.5 12 2.5C11.4477 2.5 11 2.94772 11 3.5V14.0858L6.70711 9.79289C6.31658 9.40237 5.68342 9.40237 5.29289 9.79289C4.90237 10.1834 4.90237 10.8166 5.29289 11.2071L12 17.9142L18.7071 11.2071C19.0976 10.8166 19.0976 10.1834 18.7071 9.79289C18.3166 9.40237 17.6834 9.40237 17.2929 9.79289L13 14.0858V3.5ZM3.5 19C2.94772 19 2.5 19.4477 2.5 20C2.5 20.5523 2.94772 21 3.5 21H20.5C21.0523 21 21.5 20.5523 21.5 20C21.5 19.4477 21.0523 19 20.5 19H3.5Z" fill="#2B2B2C"/>
</svg>
