<svg width="18" height="18" viewBox="0 0 18 18" fill="none" xmlns="http://www.w3.org/2000/svg">
<path fill-rule="evenodd" clip-rule="evenodd" d="M9.74999 2.5C9.74999 2.08579 9.4142 1.75 8.99999 1.75C8.58577 1.75 8.24999 2.08579 8.24999 2.5V10.6893L5.03033 7.46967C4.73744 7.17678 4.26256 7.17678 3.96967 7.46967C3.67678 7.76256 3.67678 8.23744 3.96967 8.53033L8.99999 13.5607L14.0303 8.53033C14.3232 8.23744 14.3232 7.76256 14.0303 7.46967C13.7374 7.17678 13.2626 7.17678 12.9697 7.46967L9.74999 10.6893V2.5ZM3 14.25C2.58579 14.25 2.25 14.5858 2.25 15C2.25 15.4142 2.58579 15.75 3 15.75H16C16.4142 15.75 16.75 15.4142 16.75 15C16.75 14.5858 16.4142 14.25 16 14.25H3Z" fill="#2B2B2C"/>
</svg>
