<svg width="30" height="30" viewBox="0 0 30 30" fill="none" xmlns="http://www.w3.org/2000/svg">
<path fill-rule="evenodd" clip-rule="evenodd" d="M2.5 7.75C2.5 7.57987 2.52428 7.4154 2.56956 7.25989L10.9693 15.3236L2.91332 23.3796C2.65547 23.0747 2.5 22.6805 2.5 22.25V7.75ZM3.77293 23.9342C3.92459 23.9771 4.08461 24 4.25 24H25.75C25.9154 24 26.0754 23.9771 26.2271 23.9342L18.3092 16.0163L17.0776 17.1986C15.9167 18.3131 14.0833 18.3131 12.9224 17.1986L11.6908 16.0163L3.77293 23.9342ZM19.0307 15.3236L27.0867 23.3796C27.3445 23.0747 27.5 22.6805 27.5 22.25V7.75C27.5 7.57987 27.4757 7.4154 27.4304 7.25989L19.0307 15.3236ZM25.75 6C26.1777 6 26.5696 6.15344 26.8736 6.40827L16.3851 16.4772C15.6111 17.2202 14.3889 17.2202 13.6149 16.4772L3.12643 6.40827C3.43042 6.15344 3.82229 6 4.25 6H25.75Z" fill="#2B2B2C"/>
</svg>
