<svg width="18" height="18" viewBox="0 0 18 18" fill="none" xmlns="http://www.w3.org/2000/svg">
<path fill-rule="evenodd" clip-rule="evenodd" d="M2.25 4C2.11193 4 2 4.11193 2 4.25V4.28272L8.31769 10.1792C8.70189 10.5378 9.29811 10.5378 9.68232 10.1792L16 4.28273V4.25C16 4.11193 15.8881 4 15.75 4H2.25ZM1 4.49983V4.49996V13.75C1 14.4404 1.55964 15 2.25 15H15.75C16.4404 15 17 14.4404 17 13.75V4.50203V4.49776V4.25C17 3.55964 16.4404 3 15.75 3H2.25C1.55964 3 1 3.55964 1 4.25V4.49983ZM16 13.2929V5.65061L12.0471 9.33999L16 13.2929ZM15.2929 14L11.3156 10.0227L10.3646 10.9103C9.59623 11.6275 8.40378 11.6275 7.63537 10.9103L6.68439 10.0227L2.70711 14H15.2929ZM2 13.2929V5.65061L5.95291 9.33999L2 13.2929Z" fill="#2B2B2C"/>
</svg>
