<svg width="24" height="24" viewBox="0 0 24 24" fill="none" xmlns="http://www.w3.org/2000/svg">
<path fill-rule="evenodd" clip-rule="evenodd" d="M3.5 4.5C2.88365 4.5 2.35413 4.87174 2.1234 5.40324L10.9655 13.8243C11.5448 14.376 12.4552 14.376 13.0345 13.8243L21.8766 5.40324C21.6459 4.87174 21.1163 4.5 20.5 4.5H3.5ZM2 18V6.66667L8.46709 12.8258L2.34082 18.9521C2.12786 18.6931 2 18.3615 2 18ZM3.23114 19.476C3.31837 19.4918 3.40822 19.5 3.5 19.5H20.5C20.5918 19.5 20.6816 19.4918 20.7689 19.476L14.8086 13.5157L13.7241 14.5484C12.7586 15.468 11.2414 15.468 10.2759 14.5484L9.19144 13.5157L3.23114 19.476ZM15.5329 12.8258L21.6592 18.9521C21.8721 18.6931 22 18.3615 22 18V6.66667L15.5329 12.8258Z" fill="#2B2B2C"/>
</svg>
