<svg width="24" height="24" viewBox="0 0 24 24" fill="none" xmlns="http://www.w3.org/2000/svg">
<path fill-rule="evenodd" clip-rule="evenodd" d="M11.0583 3.65048C11.3743 2.7656 12.6257 2.76559 12.9418 3.65048L14.8618 9.02656L19.7747 9.40447C20.6793 9.47406 21.0312 10.6156 20.3227 11.1824L16.5722 14.1828L18.1391 19.6669C18.3866 20.5332 17.452 21.2594 16.6737 20.8054L12 18.0791L7.32636 20.8054C6.54805 21.2594 5.61343 20.5332 5.86097 19.6669L7.42785 14.1828L3.67736 11.1824C2.96885 10.6156 3.3207 9.47406 4.22536 9.40447L9.13825 9.02656L11.0583 3.65048ZM13.92 9.3629L12 3.98682L10.08 9.3629C9.94726 9.73453 9.6084 9.99335 9.21494 10.0236L4.30206 10.4015L8.05254 13.4019C8.36731 13.6537 8.50011 14.0699 8.38937 14.4575L6.82249 19.9416L11.4961 17.2153C11.8075 17.0337 12.1925 17.0337 12.5039 17.2153L17.1775 19.9416L15.6107 14.4575C15.4999 14.0699 15.6327 13.6537 15.9475 13.4019L19.698 10.4015L14.7851 10.0236C14.3916 9.99335 14.0528 9.73453 13.92 9.3629Z" fill="#2B2B2C"/>
</svg>
