<svg width="18" height="18" viewBox="0 0 18 18" fill="none" xmlns="http://www.w3.org/2000/svg">
<path fill-rule="evenodd" clip-rule="evenodd" d="M3.56301 5H2.5C2.22386 5 2 4.77614 2 4.5C2 4.22386 2.22386 4 2.5 4H3.56301C3.78503 3.13739 4.56808 2.5 5.5 2.5C6.43192 2.5 7.21497 3.13739 7.43699 4H15.5C15.7761 4 16 4.22386 16 4.5C16 4.77614 15.7761 5 15.5 5H7.43699C7.21497 5.86261 6.43192 6.5 5.5 6.5C4.56808 6.5 3.78503 5.86261 3.56301 5ZM2 13.5C2 13.2239 2.22386 13 2.5 13H5.56301C5.78503 12.1374 6.56808 11.5 7.5 11.5C8.43192 11.5 9.21497 12.1374 9.43699 13H15.5C15.7761 13 16 13.2239 16 13.5C16 13.7761 15.7761 14 15.5 14H9.43699C9.21497 14.8626 8.43192 15.5 7.5 15.5C6.56808 15.5 5.78503 14.8626 5.56301 14H2.5C2.22386 14 2 13.7761 2 13.5ZM14.437 9.5C14.215 10.3626 13.4319 11 12.5 11C11.5681 11 10.785 10.3626 10.563 9.5L2.5 9.5C2.22386 9.5 2 9.27614 2 9C2 8.72386 2.22386 8.5 2.5 8.5L10.563 8.5C10.785 7.63738 11.5681 7 12.5 7C13.4319 7 14.215 7.63738 14.437 8.5H15.5C15.7761 8.5 16 8.72385 16 9C16 9.27614 15.7761 9.5 15.5 9.5H14.437Z" fill="#2B2B2C"/>
</svg>
