<svg width="24" height="24" viewBox="0 0 24 24" fill="none" xmlns="http://www.w3.org/2000/svg">
<path fill-rule="evenodd" clip-rule="evenodd" d="M5.05001 6.5H3.5C3.22386 6.5 3 6.27614 3 6C3 5.72386 3.22386 5.5 3.5 5.5H5.05001C5.28164 4.35888 6.29052 3.5 7.5 3.5C8.70948 3.5 9.71836 4.35888 9.94999 5.5H20.5C20.7761 5.5 21 5.72386 21 6C21 6.27614 20.7761 6.5 20.5 6.5H9.94999C9.71836 7.64112 8.70948 8.5 7.5 8.5C6.29052 8.5 5.28164 7.64112 5.05001 6.5ZM3 18C3 17.7239 3.22386 17.5 3.5 17.5H7.55001C7.78164 16.3589 8.79052 15.5 10 15.5C11.2095 15.5 12.2184 16.3589 12.45 17.5H20.5C20.7761 17.5 21 17.7239 21 18C21 18.2761 20.7761 18.5 20.5 18.5H12.45C12.2184 19.6411 11.2095 20.5 10 20.5C8.79052 20.5 7.78164 19.6411 7.55001 18.5H3.5C3.22386 18.5 3 18.2761 3 18ZM18.95 12.5C18.7184 13.6411 17.7095 14.5 16.5 14.5C15.2905 14.5 14.2816 13.6411 14.05 12.5L3.5 12.5C3.22386 12.5 3 12.2761 3 12C3 11.7239 3.22386 11.5 3.5 11.5L14.05 11.5C14.2816 10.3589 15.2905 9.5 16.5 9.5C17.7095 9.5 18.7184 10.3589 18.95 11.5L20.5 11.5C20.7761 11.5 21 11.7239 21 12C21 12.2761 20.7761 12.5 20.5 12.5L18.95 12.5Z" fill="#2B2B2C"/>
</svg>
