<svg width="24" height="24" viewBox="0 0 24 24" fill="none" xmlns="http://www.w3.org/2000/svg">
<path fill-rule="evenodd" clip-rule="evenodd" d="M4 6C4 5.72386 4.22386 5.5 4.5 5.5H19.5C19.7761 5.5 20 5.72386 20 6C20 6.27614 19.7761 6.5 19.5 6.5H4.5C4.22386 6.5 4 6.27614 4 6ZM4 12C4 11.7239 4.22386 11.5 4.5 11.5H19.5C19.7761 11.5 20 11.7239 20 12C20 12.2761 19.7761 12.5 19.5 12.5H4.5C4.22386 12.5 4 12.2761 4 12ZM4.5 17.5C4.22386 17.5 4 17.7239 4 18C4 18.2761 4.22386 18.5 4.5 18.5H19.5C19.7761 18.5 20 18.2761 20 18C20 17.7239 19.7761 17.5 19.5 17.5H4.5Z" fill="#2B2B2C"/>
</svg>
