<svg width="30" height="30" viewBox="0 0 30 30" fill="none" xmlns="http://www.w3.org/2000/svg">
<path fill-rule="evenodd" clip-rule="evenodd" d="M5 7.5C5 6.94772 5.44772 6.5 6 6.5H24C24.5523 6.5 25 6.94772 25 7.5C25 8.05228 24.5523 8.5 24 8.5H6C5.44772 8.5 5 8.05228 5 7.5ZM5 15C5 14.4477 5.44772 14 6 14H24C24.5523 14 25 14.4477 25 15C25 15.5523 24.5523 16 24 16H6C5.44772 16 5 15.5523 5 15ZM6 21.5C5.44772 21.5 5 21.9477 5 22.5C5 23.0523 5.44772 23.5 6 23.5H24C24.5523 23.5 25 23.0523 25 22.5C25 21.9477 24.5523 21.5 24 21.5H6Z" fill="#2B2B2C"/>
</svg>
