<svg width="24" height="24" viewBox="0 0 24 24" fill="none" xmlns="http://www.w3.org/2000/svg">
<path fill-rule="evenodd" clip-rule="evenodd" d="M4 6C4 5.51675 4.39175 5.125 4.875 5.125H19.125C19.6082 5.125 20 5.51675 20 6C20 6.48325 19.6082 6.875 19.125 6.875H4.875C4.39175 6.875 4 6.48325 4 6ZM4 12C4 11.5168 4.39175 11.125 4.875 11.125H19.125C19.6082 11.125 20 11.5168 20 12C20 12.4832 19.6082 12.875 19.125 12.875H4.875C4.39175 12.875 4 12.4832 4 12ZM4.875 17.125C4.39175 17.125 4 17.5168 4 18C4 18.4832 4.39175 18.875 4.875 18.875H19.125C19.6082 18.875 20 18.4832 20 18C20 17.5168 19.6082 17.125 19.125 17.125H4.875Z" fill="#2B2B2C"/>
</svg>
