<svg width="30" height="30" viewBox="0 0 30 30" fill="none" xmlns="http://www.w3.org/2000/svg">
<path fill-rule="evenodd" clip-rule="evenodd" d="M8.3616 7C10.1831 5.46714 12.4987 4.5 15 4.5C20.799 4.5 25.5 9.20101 25.5 15C25.5 20.799 20.799 25.5 15 25.5C9.20101 25.5 4.5 20.799 4.5 15C4.5 14.4477 4.05228 14 3.5 14C2.94772 14 2.5 14.4477 2.5 15C2.5 21.9036 8.09644 27.5 15 27.5C21.9036 27.5 27.5 21.9036 27.5 15C27.5 8.09644 21.9036 2.5 15 2.5C11.7937 2.5 8.89014 3.80929 6.69597 5.80071L6.48995 4.35858C6.41184 3.81184 5.90531 3.43195 5.35858 3.51005C4.81184 3.58816 4.43195 4.09469 4.51005 4.64142L5.1327 9H9.5C10.0523 9 10.5 8.55228 10.5 8C10.5 7.44772 10.0523 7 9.5 7H8.3616ZM15.5 6.5C15.5 6.22386 15.2761 6 15 6C14.7239 6 14.5 6.22386 14.5 6.5V15.2071L18.6464 19.3536C18.8417 19.5488 19.1583 19.5488 19.3536 19.3536C19.5488 19.1583 19.5488 18.8417 19.3536 18.6464L15.5 14.7929V6.5Z" fill="#2B2B2C"/>
</svg>
