<svg width="18" height="18" viewBox="0 0 18 18" fill="none" xmlns="http://www.w3.org/2000/svg">
<path fill-rule="evenodd" clip-rule="evenodd" d="M4.64518 4.51667C5.77127 3.42259 7.30718 2.75 8.99988 2.75C12.4517 2.75 15.2499 5.54822 15.2499 9C15.2499 12.4518 12.4517 15.25 8.99988 15.25C5.5481 15.25 2.74988 12.4518 2.74988 9C2.74988 8.58579 2.41409 8.25 1.99988 8.25C1.58566 8.25 1.24988 8.58579 1.24988 9C1.24988 13.2802 4.71967 16.75 8.99988 16.75C13.2801 16.75 16.7499 13.2802 16.7499 9C16.7499 4.71979 13.2801 1.25 8.99988 1.25C6.80881 1.25 4.83053 2.1596 3.42161 3.62L3.19209 2.74337C3.08717 2.34266 2.67729 2.10288 2.27658 2.20779C1.87587 2.3127 1.63609 2.72259 1.741 3.1233L2.49856 6.01667H5.26654C5.68076 6.01667 6.01654 5.68088 6.01654 5.26667C6.01654 4.85245 5.68076 4.51667 5.26654 4.51667H4.64518ZM9.5 4C9.5 3.72386 9.27614 3.5 9 3.5C8.72386 3.5 8.5 3.72386 8.5 4V9.20711L11.1464 11.8536C11.3417 12.0488 11.6583 12.0488 11.8536 11.8536C12.0488 11.6583 12.0488 11.3417 11.8536 11.1464L9.5 8.79289V4Z" fill="#2B2B2C"/>
</svg>
