<svg width="30" height="30" viewBox="0 0 30 30" fill="none" xmlns="http://www.w3.org/2000/svg">
<path fill-rule="evenodd" clip-rule="evenodd" d="M14.3994 7.03262C11.908 3.71084 6.81376 4.08615 4.83612 7.73718C3.7741 9.69783 3.95407 12.0979 5.2966 13.8783L14.2016 25.6874C14.6017 26.2179 15.3984 26.2179 15.7985 25.6874L24.7035 13.8783C26.046 12.0979 26.226 9.69784 25.1639 7.73719C23.1863 4.08616 18.092 3.71085 15.6007 7.03265L15.4 7.30016C15.3056 7.42607 15.1574 7.50017 15 7.50017C14.8427 7.50017 14.6945 7.42607 14.6 7.30017L14.3994 7.03262ZM15 6.17917C12.0067 2.549 6.23017 3.06396 3.95683 7.2609C2.70832 9.56584 2.91989 12.3874 4.49817 14.4804L13.4032 26.2895C14.2033 27.3506 15.7967 27.3506 16.5969 26.2895L25.5019 14.4804C27.0802 12.3874 27.2917 9.56584 26.0432 7.26091C23.7699 3.06398 17.9934 2.54902 15 6.17917ZM7.85366 8.14645C8.04892 8.34171 8.04892 8.65829 7.85366 8.85355C7.38159 9.32563 7.22237 10.1118 7.29508 10.9407C7.33042 11.3436 7.41893 11.7273 7.53124 12.04C7.64839 12.3662 7.77393 12.5667 7.85367 12.6464C8.04893 12.8417 8.04893 13.1583 7.85367 13.3536C7.6584 13.5488 7.34182 13.5488 7.14656 13.3536C6.9138 13.1208 6.72685 12.7588 6.59009 12.378C6.44849 11.9837 6.34168 11.5158 6.2989 11.0281C6.21536 10.0757 6.36863 8.92437 7.14656 8.14645C7.34182 7.95118 7.6584 7.95118 7.85366 8.14645ZM9 7.5C9.27614 7.5 9.5 7.27614 9.5 7C9.5 6.72386 9.27614 6.5 9 6.5C8.72386 6.5 8.5 6.72386 8.5 7C8.5 7.27614 8.72386 7.5 9 7.5Z" fill="#2B2B2C"/>
</svg>
