<svg width="30" height="30" viewBox="0 0 30 30" fill="none" xmlns="http://www.w3.org/2000/svg">
<path fill-rule="evenodd" clip-rule="evenodd" d="M19.5 3.5C18.9477 3.5 18.5 3.94772 18.5 4.5C18.5 5.05228 18.9477 5.5 19.5 5.5H23.0858L13.7929 14.7929C13.4024 15.1834 13.4024 15.8166 13.7929 16.2071C14.1834 16.5976 14.8166 16.5976 15.2071 16.2071L24.5 6.91421V10.5C24.5 11.0523 24.9477 11.5 25.5 11.5C26.0523 11.5 26.5 11.0523 26.5 10.5V4.5C26.5 3.94772 26.0523 3.5 25.5 3.5H19.5ZM6.25 6.5C5.00736 6.5 4 7.50736 4 8.75V23.75C4 24.9926 5.00736 26 6.25 26H21.25C22.4926 26 23.5 24.9926 23.5 23.75V14.5C23.5 13.9477 23.0523 13.5 22.5 13.5C21.9477 13.5 21.5 13.9477 21.5 14.5V23.75C21.5 23.8881 21.3881 24 21.25 24H6.25C6.11193 24 6 23.8881 6 23.75V8.75C6 8.61193 6.11193 8.5 6.25 8.5H15.5C16.0523 8.5 16.5 8.05228 16.5 7.5C16.5 6.94772 16.0523 6.5 15.5 6.5H6.25Z" fill="#2B2B2C"/>
</svg>
