<svg width="30" height="30" viewBox="0 0 30 30" fill="none" xmlns="http://www.w3.org/2000/svg">
<path fill-rule="evenodd" clip-rule="evenodd" d="M19 4.5C19 4.77614 19.2239 5 19.5 5H24.2929L14.1464 15.1464C13.9512 15.3417 13.9512 15.6583 14.1464 15.8536C14.3417 16.0488 14.6583 16.0488 14.8536 15.8536L25 5.70711V10.5C25 10.7761 25.2239 11 25.5 11C25.7761 11 26 10.7761 26 10.5V4.5C26 4.22386 25.7761 4 25.5 4H19.5C19.2239 4 19 4.22386 19 4.5ZM6.25 7C5.2835 7 4.5 7.7835 4.5 8.75V23.75C4.5 24.7165 5.2835 25.5 6.25 25.5H21.25C22.2165 25.5 23 24.7165 23 23.75V13.5C23 13.2239 22.7761 13 22.5 13C22.2239 13 22 13.2239 22 13.5V23.75C22 24.1642 21.6642 24.5 21.25 24.5H6.25C5.83579 24.5 5.5 24.1642 5.5 23.75V8.75C5.5 8.33579 5.83579 8 6.25 8H16.5C16.7761 8 17 7.77614 17 7.5C17 7.22386 16.7761 7 16.5 7H6.25Z" fill="#2B2B2C"/>
</svg>
