<svg width="24" height="24" viewBox="0 0 24 24" fill="none" xmlns="http://www.w3.org/2000/svg">
<path fill-rule="evenodd" clip-rule="evenodd" d="M14.625 3.5C14.625 3.98325 15.0168 4.375 15.5 4.375H18.3876L11.3813 11.3813C11.0396 11.723 11.0396 12.277 11.3813 12.6187C11.723 12.9604 12.277 12.9604 12.6187 12.6187L19.625 5.61244V8.5C19.625 8.98325 20.0168 9.375 20.5 9.375C20.9832 9.375 21.375 8.98325 21.375 8.5V3.5C21.375 3.01675 20.9832 2.625 20.5 2.625H15.5C15.0168 2.625 14.625 3.01675 14.625 3.5ZM5 5.125C3.96447 5.125 3.125 5.96447 3.125 7V19C3.125 20.0355 3.96447 20.875 5 20.875H17C18.0355 20.875 18.875 20.0355 18.875 19V12C18.875 11.5168 18.4832 11.125 18 11.125C17.5168 11.125 17.125 11.5168 17.125 12V19C17.125 19.069 17.069 19.125 17 19.125H5C4.93096 19.125 4.875 19.069 4.875 19V7C4.875 6.93096 4.93096 6.875 5 6.875H12C12.4832 6.875 12.875 6.48325 12.875 6C12.875 5.51675 12.4832 5.125 12 5.125H5Z" fill="#2B2B2C"/>
</svg>
