<svg width="30" height="30" viewBox="0 0 30 30" fill="none" xmlns="http://www.w3.org/2000/svg">
<path fill-rule="evenodd" clip-rule="evenodd" d="M9 9C9 5.68629 11.6863 3 15 3C18.3137 3 21 5.68629 21 9V13.3939L24.9569 22.2969C25.0256 22.4516 25.0115 22.6305 24.9192 22.7725C24.827 22.9144 24.6693 23 24.5 23H19C19 25.2091 17.2091 27 15 27C12.7909 27 11 25.2091 11 23H5.5C5.33075 23 5.17298 22.9144 5.08076 22.7725C4.98853 22.6305 4.97436 22.4516 5.0431 22.2969L9 13.3939V9ZM12 23C12 24.6569 13.3431 26 15 26C16.6569 26 18 24.6569 18 23H12Z" fill="#2B2B2C"/>
</svg>
