<svg width="24" height="24" viewBox="0 0 24 24" fill="none" xmlns="http://www.w3.org/2000/svg">
<path fill-rule="evenodd" clip-rule="evenodd" d="M12.0046 2.50278C12.0382 2.50129 12.0714 2.5011 12.1044 2.50226C12.1666 2.50444 12.2542 2.50874 12.3602 2.51722C12.571 2.53408 12.8607 2.56796 13.171 2.63691C13.4786 2.70526 13.8245 2.81201 14.1379 2.98293C14.2691 3.05452 14.4001 3.1404 14.5216 3.24341C15.2323 2.77356 16.0842 2.5 17 2.5C19.4853 2.5 21.5 4.51472 21.5 7C21.5 9.39207 19.6336 11.3482 17.2776 11.4916L19.954 17.2905C20.0254 17.4453 20.0131 17.6258 19.9212 17.7695C19.8293 17.9131 19.6705 18 19.5 18H15.5C15.5 19.933 13.933 21.5 12 21.5C10.067 21.5 8.5 19.933 8.5 18H4.5C4.32949 18 4.17073 17.9131 4.07883 17.7695C3.98694 17.6258 3.97457 17.4453 4.04602 17.2905L7 10.8902V7.5C7 4.73858 9.23858 2.5 12 2.5L12.0046 2.50278ZM12 20.5C10.6193 20.5 9.5 19.3807 9.5 18H14.5C14.5 19.3807 13.3807 20.5 12 20.5ZM13.5 7C13.5 5.067 15.067 3.5 17 3.5C18.933 3.5 20.5 5.067 20.5 7C20.5 8.933 18.933 10.5 17 10.5C15.067 10.5 13.5 8.933 13.5 7ZM16 5C16 4.72386 16.2239 4.5 16.5 4.5H17C17.2761 4.5 17.5 4.72386 17.5 5V9C17.5 9.27614 17.2761 9.5 17 9.5C16.7239 9.5 16.5 9.27614 16.5 9V5.5C16.2239 5.5 16 5.27614 16 5Z" fill="#2B2B2C"/>
</svg>
