<svg width="30" height="30" viewBox="0 0 30 30" fill="none" xmlns="http://www.w3.org/2000/svg">
<path fill-rule="evenodd" clip-rule="evenodd" d="M15 3C11.6863 3 9 5.68629 9 9V13.3939L5.04309 22.2969C4.97435 22.4516 4.98852 22.6305 5.08075 22.7725C5.17298 22.9144 5.33075 23 5.5 23H11C11 25.2091 12.7909 27 15 27C17.2091 27 19 25.2091 19 23H24.5C24.6693 23 24.827 22.9144 24.9192 22.7725C25.0115 22.6305 25.0256 22.4516 24.9569 22.2969L21 13.3939V9C21 5.68629 18.3137 3 15 3ZM18 23H12C12 24.6569 13.3431 26 15 26C16.6569 26 18 24.6569 18 23ZM10 9C10 6.23858 12.2386 4 15 4C17.7614 4 20 6.23858 20 9V13.5C20 13.57 20.0147 13.6391 20.0431 13.7031L23.7306 22H6.26938L9.95691 13.7031C9.98532 13.6391 10 13.57 10 13.5V9Z" fill="#2B2B2C"/>
</svg>
