<svg width="30" height="30" viewBox="0 0 30 30" fill="none" xmlns="http://www.w3.org/2000/svg">
<path fill-rule="evenodd" clip-rule="evenodd" d="M15 3C11.6863 3 9 5.68629 9 9V13.3939L5.04309 22.2969C4.97435 22.4516 4.98852 22.6305 5.08075 22.7725C5.17298 22.9144 5.33075 23 5.5 23H8.17356L5.61039 26.1866C5.43732 26.4018 5.47145 26.7165 5.68662 26.8896C5.90179 27.0627 6.21653 27.0286 6.38961 26.8134L6.65147 26.4878C6.66892 26.4476 6.69198 26.4091 6.72079 26.3732L24.9589 3.6988C25.0463 3.49738 24.9927 3.25468 24.8134 3.11041C24.5982 2.93734 24.2835 2.97146 24.1104 3.18664L20.768 7.34205C20.0486 4.83473 17.7386 3 15 3ZM8.97791 22L19.958 8.34906C19.639 5.89519 17.5408 4 15 4C12.2386 4 10 6.23858 10 9V13.5C10 13.57 9.98532 13.6391 9.95691 13.7031L6.26938 22H8.97791Z" fill="#2B2B2C"/>
<path fill-rule="evenodd" clip-rule="evenodd" d="M21 10.2162L20 11.4595V13.5C20 13.57 20.0147 13.6391 20.0431 13.7031L23.7306 22H11.6962L11 23C11 25.2091 12.7909 27 15 27C17.2091 27 19 25.2091 19 23H24.5C24.6693 23 24.827 22.9144 24.9192 22.7725C25.0115 22.6305 25.0256 22.4516 24.9569 22.2969L21 13.3939V10.2162ZM12 23C12 24.6569 13.3431 26 15 26C16.6569 26 18 24.6569 18 23H12Z" fill="#2B2B2C"/>
</svg>
