<svg width="30" height="30" viewBox="0 0 30 30" fill="none" xmlns="http://www.w3.org/2000/svg">
<circle cx="21.5" cy="8.5" r="5.5" fill="#ED0000"/>
<path fill-rule="evenodd" clip-rule="evenodd" d="M15 3C15.8393 3 16.6392 3.17261 17.3653 3.48437C17.0818 3.71835 16.8184 3.97592 16.5783 4.25406C16.0824 4.08925 15.5519 4 15 4C12.2386 4 10 6.23858 10 9V13.5C10 13.57 9.98532 13.6391 9.95691 13.7031L6.26938 22H23.7306L20.5915 14.937C20.8884 14.9785 21.1917 15 21.5 15C21.571 15 21.6418 14.9989 21.7123 14.9966L24.9569 22.2969C25.0256 22.4516 25.0115 22.6305 24.9192 22.7725C24.827 22.9144 24.6693 23 24.5 23H19C19 25.2091 17.2091 27 15 27C12.7909 27 11 25.2091 11 23H5.5C5.33075 23 5.17298 22.9144 5.08075 22.7725C4.98852 22.6305 4.97435 22.4516 5.04309 22.2969L9 13.3939V9C9 5.68629 11.6863 3 15 3ZM12 23C12 24.6569 13.3431 26 15 26C16.6569 26 18 24.6569 18 23H12Z" fill="#2B2B2C"/>
</svg>
