<svg width="24" height="24" viewBox="0 0 24 24" fill="none" xmlns="http://www.w3.org/2000/svg">
<path d="M21 7C21 9.20914 19.2091 11 17 11C14.7909 11 13 9.20914 13 7C13 4.79086 14.7909 3 17 3C19.2091 3 21 4.79086 21 7Z" fill="#ED0000"/>
<path fill-rule="evenodd" clip-rule="evenodd" d="M14.0707 2.94754C13.7756 2.79709 13.4567 2.70045 13.171 2.63695C12.8607 2.568 12.571 2.53412 12.3602 2.51726C12.2542 2.50878 12.1666 2.50448 12.1044 2.5023C12.0733 2.50121 12.0485 2.50064 12.0308 2.50035L12.0098 2.50009L12.0063 2.50008L12.0031 2.50005C9.30313 2.48778 7 4.80761 7 7.50004V10.8902L4.04602 17.2905C3.97457 17.4453 3.98694 17.6259 4.07883 17.7695C4.17073 17.9131 4.32949 18 4.5 18H8.5C8.5 19.933 10.067 21.5 12 21.5C13.933 21.5 15.5 19.933 15.5 18H19.5C19.6705 18 19.8293 17.9131 19.9212 17.7695C20.0131 17.6259 20.0254 17.4453 19.954 17.2905L17.5008 11.9753C17.3361 11.9917 17.169 12 17 12C16.7949 12 16.5927 11.9877 16.3941 11.9637L18.7185 17H5.28146L7.95398 11.2096C7.9843 11.1439 8 11.0724 8 11V7.50004C8 5.2909 9.79086 3.50004 12 3.50004L12.0017 3.50005C12.0243 3.50034 12.0468 3.50089 12.0694 3.50168C12.1186 3.50341 12.1911 3.50693 12.2804 3.51407C12.4603 3.52846 12.7018 3.55708 12.954 3.61313C13.0548 3.63553 13.1545 3.6617 13.2507 3.69197C13.4955 3.41475 13.7705 3.16488 14.0707 2.94754ZM12 20.5C10.6193 20.5 9.5 19.3808 9.5 18H14.5C14.5 19.3808 13.3807 20.5 12 20.5Z" fill="#2B2B2C"/>
</svg>
