<svg width="18" height="18" viewBox="0 0 18 18" fill="none" xmlns="http://www.w3.org/2000/svg">
<path fill-rule="evenodd" clip-rule="evenodd" d="M9 1.5C6.79086 1.5 5 3.29086 5 5.5V8.38197L2.55279 13.2764C2.47529 13.4314 2.48357 13.6155 2.57468 13.7629C2.66578 13.9103 2.82671 14 3 14H6.5C6.5 15.3807 7.61929 16.5 9 16.5C10.3807 16.5 11.5 15.3807 11.5 14H15C15.1733 14 15.3342 13.9103 15.4253 13.7629C15.5164 13.6155 15.5247 13.4314 15.4472 13.2764L13 8.38197V5.5C13 3.29086 11.2091 1.5 9 1.5ZM10.5 14H7.5C7.5 14.8284 8.17157 15.5 9 15.5C9.82843 15.5 10.5 14.8284 10.5 14ZM6 5.5C6 3.84315 7.34315 2.5 9 2.5C10.6569 2.5 12 3.84315 12 5.5V8.5C12 8.57762 12.0181 8.65418 12.0528 8.72361L14.191 13H3.80902L5.94721 8.72361C5.98193 8.65418 6 8.57762 6 8.5V5.5Z" fill="#2B2B2C"/>
</svg>
