<svg width="24" height="24" viewBox="0 0 24 24" fill="none" xmlns="http://www.w3.org/2000/svg">
<path d="M21 7C21 9.20914 19.2091 11 17 11C14.7909 11 13 9.20914 13 7C13 4.79086 14.7909 3 17 3C19.2091 3 21 4.79086 21 7Z" fill="#ED0000"/>
<path fill-rule="evenodd" clip-rule="evenodd" d="M13.171 2.63695C13.4567 2.70046 13.7756 2.79709 14.0706 2.94753C12.8161 3.85596 12 5.33268 12 7C12 9.76142 14.2386 12 17 12C17.169 12 17.3361 11.9916 17.5008 11.9752L19.954 17.2905C20.0254 17.4453 20.0131 17.6259 19.9212 17.7695C19.8293 17.9132 19.6705 18 19.5 18H15.5C15.5 19.933 13.933 21.5 12 21.5C10.067 21.5 8.50003 19.933 8.5 18H4.5C4.32949 18 4.17073 17.9132 4.07883 17.7695C3.98694 17.6259 3.97457 17.4453 4.04602 17.2905L7 10.8902V7.50005C7 4.80762 8.80003 2.48778 11.5 2.50005L12.0063 2.50009C12.2391 2.51088 12.1755 2.50695 12.1297 2.50412C12.1108 2.50295 12.0949 2.50197 12.1044 2.50231C12.1666 2.50449 12.2542 2.50878 12.3602 2.51727C12.571 2.53413 12.8607 2.56801 13.171 2.63695ZM9.5 18C9.50003 19.3807 10.6193 20.5 12 20.5C13.3807 20.5 14.5 19.3807 14.5 18H9.5Z" fill="#2B2B2C"/>
</svg>
