<svg width="18" height="18" viewBox="0 0 18 18" fill="none" xmlns="http://www.w3.org/2000/svg">
<path fill-rule="evenodd" clip-rule="evenodd" d="M9.00117 1.5L9.0027 1.50001L9.0062 1.50004C9.07169 1.50078 9.13712 1.50427 9.20241 1.50929C9.31881 1.51824 9.48005 1.53611 9.66056 1.57221C9.95233 1.63057 10.3556 1.74809 10.689 2.00279C11.2311 1.72146 11.847 1.5625 12.5 1.5625C14.6746 1.5625 16.4375 3.32538 16.4375 5.5C16.4375 7.34066 15.1745 8.88634 13.4678 9.31767L15.4472 13.2764C15.5247 13.4314 15.5164 13.6155 15.4253 13.7629C15.3342 13.9103 15.1733 14 15 14L11.5 14C11.5 15.3807 10.3807 16.5 9 16.5C7.61929 16.5 6.5 15.3807 6.5 14L3 14C2.82671 14 2.66578 13.9103 2.57468 13.7629C2.48357 13.6155 2.47529 13.4314 2.55279 13.2764L5 8.38197V5.5C5 3.32076 6.8207 1.49777 9.00117 1.5ZM9 15.5C8.17157 15.5 7.5 14.8284 7.5 14H10.5C10.5 14.8284 9.82843 15.5 9 15.5ZM9.4375 5.5C9.4375 3.80863 10.8086 2.4375 12.5 2.4375C14.1914 2.4375 15.5625 3.80863 15.5625 5.5C15.5625 7.19137 14.1914 8.5625 12.5 8.5625C10.8086 8.5625 9.4375 7.19137 9.4375 5.5ZM11.5 4C11.5 3.72386 11.7239 3.5 12 3.5H12.5C12.7761 3.5 13 3.72386 13 4V7C13 7.27614 12.7761 7.5 12.5 7.5C12.2239 7.5 12 7.27614 12 7V4.5C11.7239 4.5 11.5 4.27614 11.5 4Z" fill="#2B2B2C"/>
</svg>
