<svg width="18" height="18" viewBox="0 0 18 18" fill="none" xmlns="http://www.w3.org/2000/svg">
<path fill-rule="evenodd" clip-rule="evenodd" d="M9 1.5C6.79086 1.5 5 3.29086 5 5.5V8.38197L2.55279 13.2764C2.47529 13.4314 2.48357 13.6155 2.57468 13.7629C2.66578 13.9103 2.82671 14 3 14H4.43559L3.10686 15.6911C2.93626 15.9082 2.97397 16.2226 3.19111 16.3932C3.40825 16.5638 3.72257 16.5261 3.89318 16.3089L14.8932 2.30893C15.0638 2.0918 15.0261 1.77747 14.8089 1.60686C14.5918 1.43626 14.2775 1.47397 14.1069 1.69111L12.5555 3.66557C11.8905 2.37926 10.5479 1.5 9 1.5ZM11.8507 4.56264C11.457 3.36485 10.3295 2.5 9 2.5C7.34315 2.5 6 3.84315 6 5.5V8.5C6 8.57762 5.98193 8.65418 5.94721 8.72361L3.80902 13H5.22131L11.8507 4.56264Z" fill="#2B2B2C"/>
<path fill-rule="evenodd" clip-rule="evenodd" d="M9 16.5C7.80279 16.5 6.80213 15.6585 6.5573 14.5346L7.76307 13H14.191L12.0528 8.72361C12.0181 8.65418 12 8.57762 12 8.5V7.60755L13 6.33482V8.38197L15.4472 13.2764C15.5247 13.4314 15.5164 13.6155 15.4253 13.7629C15.3342 13.9103 15.1733 14 15 14H11.5C11.5 15.3807 10.3807 16.5 9 16.5ZM7.5 14C7.5 14.8284 8.17157 15.5 9 15.5C9.82843 15.5 10.5 14.8284 10.5 14H7.5Z" fill="#2B2B2C"/>
</svg>
