<svg width="18" height="18" viewBox="0 0 18 18" fill="none" xmlns="http://www.w3.org/2000/svg">
<path fill-rule="evenodd" clip-rule="evenodd" d="M5 5.5C5 3.29086 6.79086 1.5 9 1.5C11.2091 1.5 13 3.29086 13 5.5V8.38197L15.4472 13.2764C15.5247 13.4314 15.5164 13.6155 15.4253 13.7629C15.3342 13.9103 15.1733 14 15 14H11.5C11.5 15.3807 10.3807 16.5 9 16.5C7.61929 16.5 6.5 15.3807 6.5 14H3C2.82671 14 2.66578 13.9103 2.57468 13.7629C2.48357 13.6155 2.47529 13.4314 2.55279 13.2764L5 8.38197V5.5ZM7.5 14C7.5 14.8284 8.17157 15.5 9 15.5C9.82843 15.5 10.5 14.8284 10.5 14H7.5Z" fill="#2B2B2C"/>
</svg>
