<svg width="30" height="30" viewBox="0 0 30 30" fill="none" xmlns="http://www.w3.org/2000/svg">
<path d="M27 8.5C27 11.5376 24.5376 14 21.5 14C18.4624 14 16 11.5376 16 8.5C16 5.46243 18.4624 3 21.5 3C24.5376 3 27 5.46243 27 8.5Z" fill="#ED0000"/>
<path fill-rule="evenodd" clip-rule="evenodd" d="M15 3C15.8393 3 16.6392 3.17261 17.3653 3.48436C15.9207 4.67656 15 6.48075 15 8.5C15 12.0899 17.9101 15 21.5 15C21.571 15 21.6418 14.9989 21.7123 14.9966L24.9569 22.2969C25.0256 22.4516 25.0115 22.6305 24.9192 22.7725C24.827 22.9144 24.6693 23 24.5 23H19C19 25.2091 17.2091 27 15 27C12.7909 27 11 25.2091 11 23H5.5C5.33075 23 5.17298 22.9144 5.08076 22.7725C4.98853 22.6305 4.97436 22.4516 5.0431 22.2969L9 13.3939V9C9 5.68629 11.6863 3 15 3ZM12 23C12 24.6569 13.3431 26 15 26C16.6569 26 18 24.6569 18 23H12Z" fill="#2B2B2C"/>
</svg>
