<svg width="18" height="18" viewBox="0 0 18 18" fill="none" xmlns="http://www.w3.org/2000/svg">
<path d="M16 5.5C16 7.433 14.433 9 12.5 9C10.567 9 9 7.433 9 5.5C9 3.567 10.567 2 12.5 2C14.433 2 16 3.567 16 5.5Z" fill="#ED0000"/>
<path fill-rule="evenodd" clip-rule="evenodd" d="M12.5 10C12.9245 10 13.3353 9.94121 13.7247 9.83134L15.4472 13.2764C15.5247 13.4314 15.5164 13.6155 15.4253 13.7629C15.3342 13.9103 15.1733 14 15 14L11.5 14C11.5 15.3807 10.3807 16.5 9 16.5C7.61929 16.5 6.5 15.3807 6.5 14L3 14C2.82671 14 2.66578 13.9103 2.57467 13.7629C2.48357 13.6155 2.47529 13.4314 2.55279 13.2764L5 8.38196V5.5C5 3.29086 6.79086 1.5 9 1.5H9.00117L9.0027 1.50001L9.00688 1.50003L9.01955 1.50019C9.02986 1.50036 9.04386 1.50068 9.06118 1.50127C9.09577 1.50247 9.14387 1.50478 9.20241 1.50928C9.31881 1.51824 9.48005 1.53611 9.66056 1.57221C9.79051 1.5982 9.94257 1.63593 10.1007 1.69228C8.83842 2.48934 8 3.89676 8 5.5C8 7.98528 10.0147 10 12.5 10ZM7.5 14C7.5 14.8284 8.17157 15.5 9 15.5C9.82843 15.5 10.5 14.8284 10.5 14H7.5Z" fill="#2B2B2C"/>
</svg>
