<svg width="18" height="18" viewBox="0 0 18 18" fill="none" xmlns="http://www.w3.org/2000/svg">
<path fill-rule="evenodd" clip-rule="evenodd" d="M5 5.5C5 3.29086 6.79086 1.5 9 1.5C10.5479 1.5 11.8905 2.37926 12.5555 3.66557L14.1069 1.69111C14.2775 1.47397 14.5918 1.43626 14.8089 1.60686C15.0261 1.77747 15.0638 2.0918 14.8932 2.30893L12.9384 4.79684C12.9789 5.02512 13 5.26009 13 5.5V8.38197L15.4472 13.2764C15.5247 13.4314 15.5164 13.6155 15.4253 13.7629C15.3342 13.9103 15.1733 14 15 14H11.5C11.5 15.3807 10.3807 16.5 9 16.5C7.61929 16.5 6.5 15.3807 6.5 14H5.70734L3.89318 16.3089C3.72257 16.5261 3.40825 16.5638 3.19111 16.3932C2.97397 16.2226 2.93626 15.9082 3.10686 15.6911L4.43559 14H3C2.82671 14 2.66578 13.9103 2.57468 13.7629C2.48357 13.6155 2.47529 13.4314 2.55279 13.2764L5 8.38197V5.5ZM6.49306 13H14.191L12.0528 8.72361C12.0181 8.65418 12 8.57762 12 8.5V5.99116L6.49306 13ZM11.8507 4.56264L5.22131 13H3.80902L5.94721 8.72361C5.98193 8.65418 6 8.57762 6 8.5V5.5C6 3.84315 7.34315 2.5 9 2.5C10.3295 2.5 11.457 3.36485 11.8507 4.56264ZM9 15.5C8.17157 15.5 7.5 14.8284 7.5 14H10.5C10.5 14.8284 9.82843 15.5 9 15.5Z" fill="#2B2B2C"/>
</svg>
