<svg width="30" height="30" viewBox="0 0 30 30" fill="none" xmlns="http://www.w3.org/2000/svg">
<path fill-rule="evenodd" clip-rule="evenodd" d="M20.8801 7.80046C20.3243 5.06154 17.9029 3 15 3C11.6863 3 9 5.68629 9 9V13.3939L5.0431 22.2969C4.97436 22.4516 4.98853 22.6305 5.08076 22.7725C5.17298 22.9144 5.33075 23 5.5 23H8.59108L5.61119 26.6857C5.43757 26.9004 5.4709 27.2152 5.68564 27.3888C5.90038 27.5624 6.2152 27.5291 6.38882 27.3144L25.3888 3.81438C25.5624 3.59964 25.5291 3.28482 25.3144 3.1112C25.0996 2.93758 24.7848 2.97092 24.6112 3.18566L20.8801 7.80046ZM15 27C12.8338 27 11.0698 25.2781 11.002 23.1283L21 10.8052V13.3939L24.9569 22.2969C25.0256 22.4516 25.0115 22.6305 24.9192 22.7725C24.827 22.9144 24.6693 23 24.5 23H19C19 25.2091 17.2091 27 15 27ZM12 23C12 24.6569 13.3431 26 15 26C16.6569 26 18 24.6569 18 23H12Z" fill="#2B2B2C"/>
</svg>
