<svg width="18" height="18" viewBox="0 0 18 18" fill="none" xmlns="http://www.w3.org/2000/svg">
<path fill-rule="evenodd" clip-rule="evenodd" d="M5.5 6C5.5 4.067 7.067 2.5 9 2.5C10.933 2.5 12.5 4.067 12.5 6V7.5H11.5V6C11.5 4.61929 10.3807 3.5 9 3.5C7.61929 3.5 6.5 4.61929 6.5 6V7.5H5.5V6ZM4.5 7.5V6C4.5 3.51472 6.51472 1.5 9 1.5C11.4853 1.5 13.5 3.51472 13.5 6V7.5H13.75C14.4404 7.5 15 8.05964 15 8.75V15.25C15 15.9404 14.4404 16.5 13.75 16.5H4.25C3.55964 16.5 3 15.9404 3 15.25V8.75C3 8.05964 3.55964 7.5 4.25 7.5H4.5ZM7.5 7.5H10.5V6C10.5 5.17157 9.82843 4.5 9 4.5C8.17157 4.5 7.5 5.17157 7.5 6V7.5ZM9.5 11.8662C9.7989 11.6933 10 11.3701 10 11C10 10.4477 9.55228 10 9 10C8.44772 10 8 10.4477 8 11C8 11.3701 8.2011 11.6933 8.5 11.8662V13C8.5 13.2761 8.72386 13.5 9 13.5C9.27614 13.5 9.5 13.2761 9.5 13V11.8662Z" fill="#2B2B2C"/>
</svg>
