<svg width="24" height="24" viewBox="0 0 24 24" fill="none" xmlns="http://www.w3.org/2000/svg">
<path fill-rule="evenodd" clip-rule="evenodd" d="M7 8C7 5.23858 9.23858 3 12 3C14.7614 3 17 5.23858 17 8V10H16V8C16 5.79086 14.2091 4 12 4C9.79086 4 8 5.79086 8 8V10H7V8ZM6 10V8C6 4.68629 8.68629 2 12 2C15.3137 2 18 4.68629 18 8V10H18.5C19.3284 10 20 10.6716 20 11.5V20.5C20 21.3284 19.3284 22 18.5 22H5.5C4.67157 22 4 21.3284 4 20.5V11.5C4 10.6716 4.67157 10 5.5 10H6ZM9 10V8C9 6.34315 10.3431 5 12 5C13.6569 5 15 6.34315 15 8V10H9ZM8.5 11H6.5H5.5C5.22386 11 5 11.2239 5 11.5V20.5C5 20.7761 5.22386 21 5.5 21H18.5C18.7761 21 19 20.7761 19 20.5V11.5C19 11.2239 18.7761 11 18.5 11H17.5H15.5H8.5ZM12 14C11.4477 14 11 14.4477 11 15C11 15.5523 11.4477 16 12 16C12.5523 16 13 15.5523 13 15C13 14.4477 12.5523 14 12 14ZM12.5 16.937C13.3626 16.715 14 15.9319 14 15C14 13.8954 13.1046 13 12 13C10.8954 13 10 13.8954 10 15C10 15.9319 10.6374 16.715 11.5 16.937V18.5C11.5 18.7761 11.7239 19 12 19C12.2761 19 12.5 18.7761 12.5 18.5V16.937Z" fill="#2B2B2C"/>
</svg>
