<svg width="24" height="24" viewBox="0 0 24 24" fill="none" xmlns="http://www.w3.org/2000/svg">
<path d="M18 8.5H14C13.4477 8.5 13 8.05228 13 7.5V3" stroke="#2B2B2C" stroke-linejoin="round"/>
<path fill-rule="evenodd" clip-rule="evenodd" d="M18 8V7.88374C18 7.76021 17.9543 7.64107 17.8716 7.54925L13.9263 3.16552C13.8315 3.06016 13.6964 3 13.5546 3H13.5V8H18ZM6.5 2C5.67157 2 5 2.67157 5 3.5V20.5C5 21.3284 5.67157 22 6.5 22H17.5C18.3284 22 19 21.3284 19 20.5V7.88374C19 7.51317 18.8628 7.15573 18.6149 6.88029L14.6696 2.49655C14.3851 2.18048 13.9799 2 13.5546 2H6.5ZM7 10.2446H8.81424C9.56532 10.2446 10.0466 10.7153 10.0466 11.4294C10.0466 12.1434 9.56532 12.6089 8.81424 12.6089H7.74579V14H7V10.2446ZM9.31143 11.4294C9.31143 11.0591 9.06284 10.8581 8.67671 10.8581H7.74051V11.9953H8.67671C9.06284 11.9953 9.31143 11.7944 9.31143 11.4294ZM10.5796 10.2446H12.0976C13.1819 10.2446 13.8061 11.0274 13.8061 12.1223C13.8061 13.2172 13.1819 14 12.0976 14H10.5796V10.2446ZM13.0391 12.1223C13.0391 11.2654 12.6001 10.8634 11.9813 10.8634H11.3201V13.3812H11.9813C12.6001 13.3812 13.0391 12.9792 13.0391 12.1223ZM17 10.2446H14.3606V14H15.1064V12.4661H16.8625V11.8472H15.1064V10.8634H17V10.2446Z" fill="#2B2B2C"/>
</svg>
