<svg width="18" height="18" viewBox="0 0 18 18" fill="none" xmlns="http://www.w3.org/2000/svg">
<path d="M14 6H10.75C10.3358 6 10 5.66421 10 5.25V1.5" stroke="#2B2B2C" stroke-linejoin="round"/>
<path fill-rule="evenodd" clip-rule="evenodd" d="M13.8356 5.5L10.8478 2.08537C10.8003 2.03112 10.7318 2 10.6597 2H10.5V5.5H13.8356ZM4.25 1C3.55964 1 3 1.55964 3 2.25V15.75C3 16.4404 3.55964 17 4.25 17H13.75C14.4404 17 15 16.4404 15 15.75V5.7818C15 5.47902 14.8901 5.18653 14.6907 4.95867L11.6004 1.42687C11.363 1.1556 11.0201 1 10.6597 1H4.25ZM5 7.99565H6.45139C7.05226 7.99565 7.43732 8.37225 7.43732 8.9435C7.43732 9.51474 7.05226 9.88711 6.45139 9.88711H5.59664V11H5V7.99565ZM6.84915 8.9435C6.84915 8.6473 6.65027 8.4865 6.34137 8.4865H5.5924V9.39626H6.34137C6.65027 9.39626 6.84915 9.23547 6.84915 8.9435ZM7.86367 7.99565H9.0781C9.94555 7.99565 10.4449 8.62191 10.4449 9.49782C10.4449 10.3737 9.94555 11 9.0781 11H7.86367V7.99565ZM9.8313 9.49782C9.8313 8.81232 9.48009 8.49073 8.98501 8.49073H8.45608V10.5049H8.98501C9.48009 10.5049 9.8313 10.1833 9.8313 9.49782ZM13 7.99565H10.8885V11H11.4851V9.77286H12.89V9.27778H11.4851V8.49073H13V7.99565Z" fill="#2B2B2C"/>
</svg>
