<svg width="18" height="18" viewBox="0 0 18 18" fill="none" xmlns="http://www.w3.org/2000/svg">
<path fill-rule="evenodd" clip-rule="evenodd" d="M9 2.5C5.41015 2.5 2.5 5.41015 2.5 9C2.5 10.6963 3.14976 12.2408 4.21396 13.3982L5.15084 11.2122C5.466 10.4768 6.18908 10 6.98913 10H11.0109C11.811 10 12.5341 10.4768 12.8492 11.2122L13.7861 13.3982C14.8503 12.2407 15.5 10.6962 15.5 9C15.5 5.41015 12.5899 2.5 9 2.5ZM1.5 9C1.5 4.85786 4.85786 1.5 9 1.5C13.1421 1.5 16.5 4.85786 16.5 9C16.5 13.1421 13.1421 16.5 9 16.5C4.85786 16.5 1.5 13.1421 1.5 9ZM9 4C7.61929 4 6.5 5.11929 6.5 6.5C6.5 7.88071 7.61929 9 9 9C10.3807 9 11.5 7.88071 11.5 6.5C11.5 5.11929 10.3807 4 9 4Z" fill="#2B2B2C"/>
</svg>
