<svg width="24" height="24" viewBox="0 0 24 24" fill="none" xmlns="http://www.w3.org/2000/svg">
<path fill-rule="evenodd" clip-rule="evenodd" d="M12 4C7.58172 4 4 7.58172 4 12C4 14.1107 4.81741 16.0305 6.15294 17.4601L7.18379 14.3675C7.45601 13.5509 8.22029 13 9.08115 13H14.9189C15.7797 13 16.544 13.5509 16.8162 14.3675L17.8471 17.4601C19.1826 16.0305 20 14.1107 20 12C20 7.58172 16.4183 4 12 4ZM3 12C3 7.02944 7.02944 3 12 3C16.9706 3 21 7.02944 21 12C21 16.9706 16.9706 21 12 21C7.02944 21 3 16.9706 3 12ZM12 5.5C10.2051 5.5 8.75 6.95507 8.75 8.75C8.75 10.5449 10.2051 12 12 12C13.7949 12 15.25 10.5449 15.25 8.75C15.25 6.95507 13.7949 5.5 12 5.5Z" fill="#2B2B2C"/>
</svg>
