<svg width="18" height="18" viewBox="0 0 18 18" fill="none" xmlns="http://www.w3.org/2000/svg">
<path fill-rule="evenodd" clip-rule="evenodd" d="M9 2.25C10.8751 2.25 12.5721 3.01427 13.7959 4.25H13C12.5858 4.25 12.25 4.58579 12.25 5C12.25 5.41421 12.5858 5.75 13 5.75H15.9244L16.7255 2.68997C16.8305 2.28926 16.5907 1.87937 16.19 1.77446C15.7893 1.66954 15.3794 1.90933 15.2745 2.31003L15.0042 3.34217C13.5005 1.74704 11.3668 0.75 9 0.75C4.44365 0.75 0.75 4.44365 0.75 9C0.75 13.5563 4.44365 17.25 9 17.25C13.5563 17.25 17.25 13.5563 17.25 9C17.25 8.58579 16.9142 8.25 16.5 8.25C16.0858 8.25 15.75 8.58579 15.75 9C15.75 12.7279 12.7279 15.75 9 15.75C5.27208 15.75 2.25 12.7279 2.25 9C2.25 5.27208 5.27208 2.25 9 2.25Z" fill="#2B2B2C"/>
</svg>
