<svg width="18" height="18" viewBox="0 0 18 18" fill="none" xmlns="http://www.w3.org/2000/svg">
<path fill-rule="evenodd" clip-rule="evenodd" d="M8.99988 2.5C10.9723 2.5 12.7399 3.37832 13.9325 4.76667H12.7332C12.4571 4.76667 12.2332 4.99052 12.2332 5.26667C12.2332 5.54281 12.4571 5.76667 12.7332 5.76667H15.3082L16.0169 3.05998C16.0869 2.79284 15.927 2.51958 15.6599 2.44964C15.3927 2.37969 15.1195 2.53955 15.0495 2.80669L14.7032 4.12933C13.3281 2.52073 11.2833 1.5 8.99988 1.5C4.85774 1.5 1.49988 4.85786 1.49988 9C1.49988 13.1421 4.85774 16.5 8.99988 16.5C13.142 16.5 16.4999 13.1421 16.4999 9C16.4999 8.72386 16.276 8.5 15.9999 8.5C15.7237 8.5 15.4999 8.72386 15.4999 9C15.4999 12.5899 12.5897 15.5 8.99988 15.5C5.41003 15.5 2.49988 12.5899 2.49988 9C2.49988 5.41015 5.41003 2.5 8.99988 2.5Z" fill="#2B2B2C"/>
</svg>
