<svg width="24" height="24" viewBox="0 0 24 24" fill="none" xmlns="http://www.w3.org/2000/svg">
<path fill-rule="evenodd" clip-rule="evenodd" d="M11.9999 3.5C14.5343 3.5 16.7428 4.67885 18.1981 6.52632H16.9209C16.6448 6.52632 16.4209 6.75017 16.4209 7.02632C16.4209 7.30246 16.6448 7.52632 16.9209 7.52632H19.5677L20.0954 4.88753C20.1496 4.61675 19.974 4.35334 19.7032 4.29918C19.4324 4.24503 19.169 4.42064 19.1149 4.69142L18.894 5.79572C17.2601 3.78695 14.8093 2.5 11.9999 2.5C7.02931 2.5 2.99988 6.52944 2.99988 11.5C2.99988 16.4706 7.02931 20.5 11.9999 20.5C16.9704 20.5 20.9999 16.4706 20.9999 11.5C20.9999 11.2239 20.776 11 20.4999 11C20.2237 11 19.9999 11.2239 19.9999 11.5C19.9999 15.9183 16.4182 19.5 11.9999 19.5C7.5816 19.5 3.99988 15.9183 3.99988 11.5C3.99988 7.08172 7.5816 3.5 11.9999 3.5Z" fill="#2B2B2C"/>
</svg>
