<svg width="18" height="18" viewBox="0 0 18 18" fill="none" xmlns="http://www.w3.org/2000/svg">
<path fill-rule="evenodd" clip-rule="evenodd" d="M7.64165 1.76339C8.04841 1.84161 8.31474 2.23477 8.23652 2.64153L7.63874 5.75H11.6113L12.2635 2.35826C12.3417 1.9515 12.7349 1.68517 13.1417 1.76339C13.5484 1.84161 13.8147 2.23477 13.7365 2.64153L13.1387 5.75H15.5C15.9142 5.75 16.25 6.08579 16.25 6.5C16.25 6.91421 15.9142 7.25 15.5 7.25H12.8503L12.1772 10.75H14.5C14.9142 10.75 15.25 11.0858 15.25 11.5C15.25 11.9142 14.9142 12.25 14.5 12.25H11.8887L11.2365 15.6415C11.1583 16.0483 10.7651 16.3146 10.3584 16.2364C9.95162 16.1582 9.68529 15.765 9.76351 15.3583L10.3613 12.25H6.38874L5.73652 15.6415C5.6583 16.0483 5.26514 16.3146 4.85838 16.2364C4.45162 16.1582 4.18529 15.765 4.26351 15.3583L4.86125 12.25H2.5C2.08579 12.25 1.75 11.9142 1.75 11.5C1.75 11.0858 2.08579 10.75 2.5 10.75H5.14972L5.82279 7.25H3.5C3.08579 7.25 2.75 6.91421 2.75 6.5C2.75 6.08579 3.08579 5.75 3.5 5.75H6.11125L6.76351 2.35826C6.84173 1.9515 7.23489 1.68517 7.64165 1.76339ZM7.35028 7.25L6.6772 10.75H10.6497L11.3228 7.25H7.35028Z" fill="#2B2B2C"/>
</svg>
