<svg width="30" height="30" viewBox="0 0 30 30" fill="none" xmlns="http://www.w3.org/2000/svg">
<path fill-rule="evenodd" clip-rule="evenodd" d="M13 3C7.47715 3 3 7.47715 3 13C3 18.5228 7.47715 23 13 23C15.3264 23 17.4672 22.2056 19.1661 20.8733L24.6464 26.3536C25.1178 26.825 25.8821 26.825 26.3536 26.3536C26.825 25.8822 26.825 25.1179 26.3536 24.6465L20.8732 19.1662C22.2056 17.4673 23 15.3264 23 13C23 7.47715 18.5228 3 13 3ZM13 5C8.58172 5 5 8.58172 5 13C5 17.4183 8.58172 21 13 21C17.4183 21 21 17.4183 21 13C21 8.58172 17.4183 5 13 5ZM4 13C4 8.02944 8.02944 4 13 4C17.9706 4 22 8.02944 22 13C22 17.9706 17.9706 22 13 22C8.02944 22 4 17.9706 4 13ZM13 6.5C12.7239 6.5 12.5 6.72386 12.5 7C12.5 7.27614 12.7239 7.5 13 7.5C16.2239 7.5 18.5 9.77614 18.5 13C18.5 13.2761 18.7239 13.5 19 13.5C19.2761 13.5 19.5 13.2761 19.5 13C19.5 9.22386 16.7761 6.5 13 6.5Z" fill="#2B2B2C"/>
</svg>
