<svg width="24" height="24" viewBox="0 0 24 24" fill="none" xmlns="http://www.w3.org/2000/svg">
<path fill-rule="evenodd" clip-rule="evenodd" d="M10 3C5.85786 3 2.5 6.35786 2.5 10.5C2.5 14.6421 5.85786 18 10 18C11.7635 18 13.3848 17.3914 14.6654 16.3727L18.6464 20.3536C19.1178 20.825 19.8821 20.825 20.3535 20.3536C20.8249 19.8822 20.8249 19.1179 20.3535 18.6465L16.2914 14.5844C17.0558 13.4092 17.5 12.0065 17.5 10.5C17.5 6.35786 14.1421 3 10 3ZM10 5C6.96243 5 4.5 7.46243 4.5 10.5C4.5 13.5376 6.96243 16 10 16C13.0376 16 15.5 13.5376 15.5 10.5C15.5 7.46243 13.0376 5 10 5ZM3.5 10.5C3.5 6.91015 6.41015 4 10 4C13.5899 4 16.5 6.91015 16.5 10.5C16.5 14.0899 13.5899 17 10 17C6.41015 17 3.5 14.0899 3.5 10.5ZM10 6.5C9.72386 6.5 9.5 6.72386 9.5 7C9.5 7.27614 9.72386 7.5 10 7.5C11.7239 7.5 13 8.77614 13 10.5C13 10.7761 13.2239 11 13.5 11C13.7761 11 14 10.7761 14 10.5C14 8.22386 12.2761 6.5 10 6.5Z" fill="#2B2B2C"/>
</svg>
