<svg width="18" height="18" viewBox="0 0 18 18" fill="none" xmlns="http://www.w3.org/2000/svg">
<path fill-rule="evenodd" clip-rule="evenodd" d="M1.5 7.5C1.5 4.18629 4.18629 1.5 7.5 1.5C10.8137 1.5 13.5 4.18629 13.5 7.5C13.5 8.72033 13.1357 9.85557 12.5099 10.8029L15.3535 13.6465C15.8249 14.1179 15.8249 14.8822 15.3535 15.3536C14.8821 15.825 14.1178 15.825 13.6464 15.3536L10.8027 12.51C9.85545 13.1357 8.72027 13.5 7.5 13.5C4.18629 13.5 1.5 10.8137 1.5 7.5ZM3.5 7.5C3.5 5.29086 5.29086 3.5 7.5 3.5C9.70914 3.5 11.5 5.29086 11.5 7.5C11.5 9.70914 9.70914 11.5 7.5 11.5C5.29086 11.5 3.5 9.70914 3.5 7.5ZM7.5 2.5C4.73858 2.5 2.5 4.73858 2.5 7.5C2.5 10.2614 4.73858 12.5 7.5 12.5C10.2614 12.5 12.5 10.2614 12.5 7.5C12.5 4.73858 10.2614 2.5 7.5 2.5ZM7.48723 4.99979C7.50411 4.72417 7.74123 4.51441 8.01685 4.53128L8.01802 4.53135L8.01935 4.53144L8.02248 4.53165L8.0306 4.53226L8.05411 4.53436C8.0729 4.53621 8.0979 4.53903 8.12832 4.54329C8.18907 4.55179 8.27209 4.5661 8.37107 4.59C8.56804 4.63754 8.83444 4.72454 9.11565 4.88393C9.69237 5.21083 10.3026 5.82848 10.5125 6.9381C10.5638 7.20943 10.3855 7.471 10.1141 7.52233C9.84282 7.57367 9.58125 7.39532 9.52991 7.12399C9.38075 6.33552 8.97348 5.95282 8.62253 5.75389C8.4399 5.65037 8.26491 5.59309 8.13643 5.56208C8.0727 5.54669 8.022 5.53816 7.98969 5.53364C7.97359 5.53138 7.96223 5.53015 7.9563 5.52957L7.95192 5.52916C7.67818 5.51034 7.47044 5.27414 7.48723 4.99979Z" fill="#2B2B2C"/>
</svg>
