<svg width="24" height="24" viewBox="0 0 24 24" fill="none" xmlns="http://www.w3.org/2000/svg">
<path fill-rule="evenodd" clip-rule="evenodd" d="M10 4C6.41015 4 3.5 6.91015 3.5 10.5C3.5 14.0899 6.41015 17 10 17C13.5899 17 16.5 14.0899 16.5 10.5C16.5 6.91015 13.5899 4 10 4ZM2.5 10.5C2.5 6.35786 5.85786 3 10 3C14.1421 3 17.5 6.35786 17.5 10.5C17.5 12.0064 17.0559 13.4092 16.2914 14.5843L20.3535 18.6465C20.8249 19.1179 20.8249 19.8822 20.3535 20.3536C19.8821 20.825 19.1178 20.825 18.6464 20.3536L14.6655 16.3726C13.3849 17.3913 11.7635 18 10 18C5.85786 18 2.5 14.6421 2.5 10.5ZM15.4058 15.6988L19.3535 19.6465C19.4344 19.7274 19.5655 19.7274 19.6464 19.6465C19.7273 19.5656 19.7273 19.4345 19.6464 19.3536L15.685 15.3921C15.5947 15.4969 15.5016 15.5992 15.4058 15.6988ZM9.5 6C9.5 5.72386 9.72386 5.5 10 5.5C11.6165 5.5 12.874 6.04184 13.7286 6.89645C14.5785 7.74634 15 8.87632 15 10C15 10.2761 14.7761 10.5 14.5 10.5C14.2239 10.5 14 10.2761 14 10C14 9.12368 13.6715 8.25366 13.0214 7.60355C12.376 6.95815 11.3835 6.5 10 6.5C9.72386 6.5 9.5 6.27614 9.5 6Z" fill="#2B2B2C"/>
</svg>
