<svg width="30" height="30" viewBox="0 0 30 30" fill="none" xmlns="http://www.w3.org/2000/svg">
<path fill-rule="evenodd" clip-rule="evenodd" d="M18.1794 4.5427L18.3754 5.0938L18.452 5.11847C18.832 5.25012 19.2011 5.40208 19.5577 5.57395L19.6134 5.6038L20.1389 5.354L20.5433 5.16182L22.3755 4.29093L22.8605 4.66091C23.7947 5.37353 24.6277 6.20592 25.3358 7.1364L25.7049 7.6214L24.8306 9.45612L24.6389 9.85836L24.3914 10.3778L24.5883 10.7973C24.6943 11.0408 24.7913 11.2895 24.8792 11.5432L24.9014 11.6198L25.453 11.8159L25.8712 11.9646L27.7869 12.6459L27.8689 13.2494C27.9552 13.8849 28 14.445 28 15C28 15.555 27.9552 16.1151 27.8689 16.7506L27.7869 17.3541L25.8704 18.0354L25.4526 18.1839L24.9014 18.3798L24.8792 18.4568C24.7473 18.8373 24.595 19.2068 24.4226 19.5638L24.3914 19.6218L24.639 20.1415L24.8319 20.5464L25.7049 22.3786L25.3358 22.8636C24.6277 23.7941 23.7947 24.6265 22.8605 25.3391L22.3755 25.7091L20.5438 24.8376L20.1383 24.6446L19.6154 24.3958L19.5577 24.4261C19.2011 24.5979 18.832 24.7499 18.452 24.8815L18.3754 24.9038L18.179 25.456L18.0322 25.8688L17.3501 27.7866L16.7471 27.8688C16.1146 27.9551 15.5537 28 15 28C14.4434 28 13.8814 27.9553 13.2439 27.869L12.64 27.7872L11.9574 25.8686L11.8107 25.4563L11.6134 24.9018L11.1659 24.7415C10.9185 24.6449 10.676 24.5391 10.4385 24.4245L10.3774 24.3938L9.85349 24.6429L9.45869 24.8306L7.6209 25.7045L7.1364 25.3358C6.20597 24.6277 5.37367 23.7948 4.65912 22.8588L4.28883 22.3737L5.16276 20.5348L5.35015 20.1405L5.6014 19.6118L5.57269 19.5564C5.4015 19.201 5.24992 18.8334 5.11854 18.4556L5.0954 18.3818L4.53913 18.184L4.12868 18.038L2.20869 17.3553L2.12861 16.7489C2.0439 16.1076 2 15.5508 2 15C2 14.4479 2.04374 13.8936 2.12861 13.2511L2.20869 12.6447L4.1266 11.962L4.53804 11.8155L5.0934 11.6178L5.25663 11.1701C5.35315 10.9229 5.45856 10.6805 5.57269 10.4436L5.6014 10.3858L5.3498 9.85685L5.16365 9.4655L4.28916 7.62702L4.65844 7.14212C5.37236 6.2047 6.20468 5.37129 7.1364 4.66223L7.62124 4.29326L9.46053 5.1672L9.8517 5.35306L10.3794 5.6038L10.7985 5.41025C11.041 5.30456 11.2884 5.20787 11.5405 5.12025L11.6134 5.0958L11.8108 4.54153L11.9586 4.12634L12.64 2.21276L13.2439 2.13103C13.8814 2.04475 14.4434 2 15 2C15.5492 2 16.1042 2.04393 16.7434 2.12867L17.3494 2.20901L18.0338 4.13342L18.1794 4.5427ZM15 20C17.7614 20 20 17.7614 20 15C20 12.2386 17.7614 10 15 10C12.2386 10 10 12.2386 10 15C10 17.7614 12.2386 20 15 20Z" fill="#2B2B2C"/>
</svg>
