<svg width="24" height="24" viewBox="0 0 24 24" fill="none" xmlns="http://www.w3.org/2000/svg">
<path fill-rule="evenodd" clip-rule="evenodd" d="M17 2C16.7239 2 16.5 2.22386 16.5 2.5V3.79289L16.2929 4H15C14.7239 4 14.5 4.22386 14.5 4.5V7C14.5 7.27614 14.7239 7.5 15 7.5H16.2929L16.5 7.70711V9C16.5 9.27614 16.7239 9.5 17 9.5H19.5C19.7761 9.5 20 9.27614 20 9V7.70711L20.2071 7.5H21.5C21.7761 7.5 22 7.27614 22 7V4.5C22 4.22386 21.7761 4 21.5 4H20.2071L20 3.79289V2.5C20 2.36739 19.9473 2.24021 19.8536 2.14645C19.7598 2.05268 19.6326 2 19.5 2H17ZM17.5 4V3H19V4C19 4.13261 19.0527 4.25979 19.1464 4.35355L19.6464 4.85355C19.7402 4.94732 19.8674 5 20 5H21V6.5H20C19.8674 6.5 19.7402 6.55268 19.6464 6.64645L19.1464 7.14645C19.0527 7.24021 19 7.36739 19 7.5V8.5H17.5V7.5C17.5 7.36739 17.4473 7.24021 17.3536 7.14645L16.8536 6.64645C16.7598 6.55268 16.6326 6.5 16.5 6.5H15.5V5H16.5C16.6326 5 16.7598 4.94732 16.8536 4.85355L17.3536 4.35355C17.4473 4.25979 17.5 4.13261 17.5 4ZM10.8175 8.66589L10.265 7.11254L9.93877 7.06929C9.59457 7.02365 9.2957 7 9 7C8.70029 7 8.3977 7.0241 8.0544 7.07056L7.72924 7.11456L7.17645 8.66697L7.13717 8.68014C7.00145 8.72731 6.86822 8.77938 6.73765 8.83629L6.51198 8.94051L5.02682 8.23483L4.76576 8.43351C4.26406 8.81531 3.81589 9.26407 3.43147 9.76884L3.23262 10.0299L3.93922 11.5154L3.92376 11.5466C3.8623 11.6741 3.80554 11.8046 3.75357 11.9377L3.66568 12.1788L2.11237 12.7318L2.06925 13.0583C2.02355 13.4043 2 13.7027 2 14C2 14.2966 2.02364 14.5964 2.06925 14.9417L2.11237 15.2682L3.66675 15.821L3.67921 15.8607C3.74996 16.0641 3.83158 16.2621 3.92376 16.4534L3.93922 16.4833L3.23245 17.9704L3.43183 18.2316C3.81659 18.7357 4.26475 19.1841 4.76576 19.5654L5.02664 19.764L6.51091 19.0582L6.54381 19.0747C6.67168 19.1365 6.80229 19.1934 6.93548 19.2454L7.17645 19.3317L7.72924 20.8854L8.0544 20.9294C8.3977 20.9759 8.70029 21 9 21C9.29812 21 9.60016 20.9758 9.94075 20.9294L10.2654 20.8851L10.8175 19.3328L10.8587 19.3208C11.0634 19.2499 11.2621 19.1681 11.4542 19.0756L11.4852 19.0593L12.9714 19.7664L13.2326 19.5672C13.7356 19.1835 14.1841 18.7353 14.5654 18.2342L14.7642 17.9731L14.0569 16.4887L14.0737 16.4574C14.1666 16.2652 14.2486 16.0662 14.3196 15.8614L14.3315 15.8199L15.8853 15.2676L15.9294 14.9426C15.9759 14.6005 16 14.2988 16 14C16 13.7012 15.9759 13.3995 15.9294 13.0574L15.8853 12.7324L14.3315 12.1799L14.3196 12.1386C14.2722 12.002 14.22 11.8681 14.1629 11.737L14.0569 11.5111L14.7642 10.0269L14.5654 9.76576C14.1841 9.26473 13.7356 8.81652 13.2326 8.4328L12.9714 8.23358L11.4841 8.94051L11.4542 8.92443C11.2621 8.83189 11.0634 8.75006 10.8587 8.67917L10.8175 8.66589ZM10.5412 9.62748L10.0408 9.46626L9.52932 8.02811C9.33659 8.009 9.16524 8 9 8C8.83206 8 8.65837 8.0092 8.46526 8.02861L7.95538 9.46053L7.46053 9.62643C7.35364 9.66372 7.24899 9.70456 7.14663 9.7489L6.50596 10.0448L5.15433 9.40256C4.88206 9.63054 4.62995 9.88294 4.40056 10.1573L5.05106 11.5249L4.8222 11.9857C4.77445 12.0851 4.73001 12.1871 4.68901 12.2914L4.44409 12.9632L3.02822 13.4672C3.00901 13.6612 3 13.8332 3 14C3 14.1663 3.00904 14.3386 3.02822 14.5326L4.47169 15.0459L4.62857 15.5461C4.68433 15.7048 4.74783 15.8587 4.8187 16.007L5.05553 16.4641L4.40056 17.8422C4.6301 18.1163 4.88215 18.3684 5.15402 18.5961L6.5228 17.9453L6.98521 18.1774C7.08352 18.2246 7.18408 18.2686 7.2868 18.3091L7.95974 18.5501L8.46544 19.9714C8.65848 19.9908 8.83212 20 9 20C9.16598 20 9.33815 19.9909 9.52895 19.9716L10.0468 18.5155L10.5541 18.368C10.7098 18.3132 10.8604 18.251 11.0055 18.1817L11.4635 17.9415L12.8436 18.5982C13.1168 18.3694 13.3685 18.1177 13.596 17.8461L12.9361 16.4612L13.1822 16.0038C13.2507 15.8604 13.3121 15.7116 13.3664 15.5578L13.5127 15.0496L14.9715 14.5311C14.9909 14.3393 15 14.1668 15 14C15 13.8332 14.9908 13.6606 14.9715 13.4688L13.5136 12.9504L13.3666 12.4429C13.3312 12.3426 13.2928 12.2444 13.2514 12.1485L12.9507 11.5079L13.5959 10.1538C13.3685 9.88218 13.1166 9.63046 12.8434 9.40163L11.457 10.0606L11.0016 9.81645C10.8537 9.74602 10.7001 9.68292 10.5412 9.62748ZM9 15.625C9.89746 15.625 10.625 14.8975 10.625 14C10.625 13.1025 9.89746 12.375 9 12.375C8.10254 12.375 7.375 13.1025 7.375 14C7.375 14.8975 8.10254 15.625 9 15.625ZM9 16.625C10.4497 16.625 11.625 15.4497 11.625 14C11.625 12.5503 10.4497 11.375 9 11.375C7.55025 11.375 6.375 12.5503 6.375 14C6.375 15.4497 7.55025 16.625 9 16.625Z" fill="#2B2B2C"/>
</svg>
