<svg width="18" height="18" viewBox="0 0 18 18" fill="none" xmlns="http://www.w3.org/2000/svg">
<path fill-rule="evenodd" clip-rule="evenodd" d="M12.5 2C12.2239 2 12 2.22386 12 2.5V3.29289L11.7929 3.5H11C10.7239 3.5 10.5 3.72386 10.5 4V5.5C10.5 5.77614 10.7239 6 11 6H11.7929L12 6.20711V7C12 7.27614 12.2239 7.5 12.5 7.5H14C14.2761 7.5 14.5 7.27614 14.5 7V6.20711L14.7071 6H15.5C15.6326 6 15.7598 5.94732 15.8536 5.85355C15.9473 5.75979 16 5.63261 16 5.5L16 4C16 3.72386 15.7761 3.5 15.5 3.5H14.7071L14.5 3.29289L14.5 2.5C14.5 2.36739 14.4473 2.24021 14.3536 2.14645C14.2598 2.05268 14.1326 2 14 2H12.5ZM13 3.5V3H13.5V3.5C13.5 3.63261 13.5527 3.75979 13.6464 3.85355L14.1464 4.35355C14.2402 4.44732 14.3674 4.5 14.5 4.5H15V5H14.5C14.3674 5 14.2402 5.05268 14.1464 5.14645L13.6464 5.64645C13.5527 5.74022 13.5 5.86739 13.5 6V6.5H13V6C13 5.86739 12.9473 5.74022 12.8536 5.64645L12.3536 5.14645C12.2598 5.05268 12.1326 5 12 5H11.5V4.5H12C12.1326 4.5 12.2598 4.44732 12.3536 4.35355L12.8536 3.85355C12.9473 3.75979 13 3.63261 13 3.5ZM6.32457 6.0504C6.56979 6.01721 6.78592 6 7 6C7.21122 6 7.42469 6.0169 7.67055 6.04949L7.9036 6.08039L8.29823 7.18992L8.32767 7.19941C8.47383 7.25005 8.61581 7.30849 8.75297 7.3746L8.77438 7.38608L9.83671 6.88113L10.0233 7.02343C10.3826 7.29751 10.7029 7.61766 10.9753 7.97554L11.1173 8.16208L10.6121 9.22223L10.6878 9.38358C10.7286 9.47722 10.7659 9.57289 10.7997 9.67045L10.8082 9.69992L11.918 10.0946L11.9496 10.3267C11.9828 10.5711 12 10.7866 12 11C12 11.2134 11.9828 11.4289 11.9496 11.6733L11.918 11.9054L10.8082 12.2999L10.7997 12.3295C10.749 12.4759 10.6904 12.618 10.6241 12.7553L10.6121 12.7776L11.1173 13.8379L10.9753 14.0245C10.7029 14.3823 10.3826 14.7025 10.0233 14.9766L9.83671 15.1189L8.77515 14.6138L8.75297 14.6254C8.61581 14.6915 8.47383 14.75 8.32767 14.8006L8.29823 14.8092L7.90387 15.9179L7.67197 15.9495C7.42869 15.9827 7.21294 16 7 16C6.78592 16 6.56979 15.9828 6.32457 15.9496L6.09231 15.9182L5.69746 14.8084L5.52534 14.7467C5.43021 14.7096 5.33691 14.6689 5.24558 14.6248L5.22208 14.613L4.16189 15.1171L3.97554 14.9753C3.61768 14.703 3.29757 14.3826 3.02274 14.0226L2.88032 13.836L3.38515 12.7738L3.37411 12.7525C3.30827 12.6158 3.24997 12.4744 3.19944 12.3291L3.19054 12.3007L2.08026 11.9059L2.04947 11.6727C2.01689 11.426 2 11.2118 2 11C2 10.7876 2.01682 10.5745 2.04947 10.3273L2.08026 10.0941L3.18977 9.69915L3.25255 9.52696C3.28967 9.43189 3.33022 9.33867 3.37411 9.24754L3.38515 9.22531L2.88044 8.16424L3.02248 7.97774C3.29706 7.61719 3.61718 7.29665 3.97554 7.02393L4.16201 6.88202L5.22285 7.38608L5.38403 7.31163C5.4773 7.27098 5.57246 7.2338 5.66941 7.2001L5.69746 7.19069L6.09231 6.08183L6.32457 6.0504ZM7 13C8.10457 13 9 12.1046 9 11C9 9.89543 8.10457 9 7 9C5.89543 9 5 9.89543 5 11C5 12.1046 5.89543 13 7 13Z" fill="#2B2B2C"/>
</svg>
