<svg width="18" height="18" viewBox="0 0 18 18" fill="none" xmlns="http://www.w3.org/2000/svg">
<path fill-rule="evenodd" clip-rule="evenodd" d="M16 9C16 12.866 12.866 16 9 16C5.13401 16 2 12.866 2 9C2 5.13401 5.13401 2 9 2C12.866 2 16 5.13401 16 9ZM9 4C9.27614 4 9.5 4.22386 9.5 4.5V8.79289L11.3536 10.6464C11.5488 10.8417 11.5488 11.1583 11.3536 11.3536C11.1583 11.5488 10.8417 11.5488 10.6464 11.3536L8.64645 9.35355C8.55268 9.25979 8.5 9.13261 8.5 9V4.5C8.5 4.22386 8.72386 4 9 4Z" fill="#2B2B2C"/>
</svg>
