<svg width="30" height="30" viewBox="0 0 30 30" fill="none" xmlns="http://www.w3.org/2000/svg">
<path fill-rule="evenodd" clip-rule="evenodd" d="M7.29071 11.9375C8.24519 8.59159 11.4274 6 15 6C17.831 6 20.2733 7.64775 21.6344 10.0007C21.911 10.4788 22.5227 10.6421 23.0007 10.3656C23.4788 10.0891 23.6422 9.47733 23.3656 8.99927C21.7009 6.12149 18.6465 4 15 4C10.3542 4 6.28126 7.43539 5.25084 11.8365L4.20711 10.7927C3.81658 10.4022 3.18342 10.4022 2.79289 10.7927C2.40237 11.1832 2.40237 11.8164 2.79289 12.2069L5.87258 15.2866L9.5547 12.8319C10.0142 12.5255 10.1384 11.9047 9.83205 11.4451C9.5257 10.9856 8.90483 10.8614 8.4453 11.1678L7.29071 11.9375ZM25.7929 19.2073C26.1834 19.5978 26.8166 19.5978 27.2071 19.2073C27.5976 18.8168 27.5976 18.1836 27.2071 17.7931L24.1274 14.7134L20.4453 17.1681C19.9858 17.4745 19.8616 18.0953 20.1679 18.5549C20.4743 19.0144 21.0952 19.1386 21.5547 18.8322L22.7093 18.0625C21.7548 21.4084 18.5726 24 15 24C12.169 24 9.72671 22.3523 8.36559 19.9993C8.08905 19.5212 7.47732 19.3579 6.99926 19.6344C6.5212 19.9109 6.35783 20.5227 6.63438 21.0007C8.29909 23.8785 11.3535 26 15 26C19.6458 26 23.7187 22.5646 24.7492 18.1635L25.7929 19.2073Z" fill="#2B2B2C"/>
</svg>
