<svg width="18" height="18" viewBox="0 0 18 18" fill="none" xmlns="http://www.w3.org/2000/svg">
<path fill-rule="evenodd" clip-rule="evenodd" d="M4.92526 6.69887C5.42899 4.92112 6.9754 3.75 9 3.75C10.6922 3.75 12.0852 4.55213 12.8508 5.87554C13.0582 6.23409 13.517 6.35661 13.8755 6.1492C14.2341 5.9418 14.3566 5.483 14.1492 5.12446C13.0993 3.30941 11.1943 2.25 9 2.25C6.24986 2.25 4.10407 3.92807 3.45374 6.3931L3.03033 5.9697C2.73744 5.6768 2.26256 5.6768 1.96967 5.9697C1.67678 6.26259 1.67678 6.73746 1.96967 7.03036L3.85191 8.9126L6.33541 7.67085C6.70589 7.48561 6.85606 7.0351 6.67082 6.66462C6.48558 6.29413 6.03507 6.14397 5.66459 6.32921L4.92526 6.69887ZM14.9697 12.0303C15.2626 12.3232 15.7374 12.3232 16.0303 12.0303C16.3232 11.7374 16.3232 11.2625 16.0303 10.9696L14.1481 9.0874L11.6646 10.3292C11.2941 10.5144 11.1439 10.9649 11.3292 11.3354C11.5144 11.7059 11.9649 11.856 12.3354 11.6708L13.0747 11.3011C12.571 13.0789 11.0246 14.25 8.99998 14.25C7.3078 14.25 5.91476 13.4479 5.14921 12.1245C4.9418 11.7659 4.483 11.6434 4.12446 11.8508C3.76591 12.0582 3.64339 12.517 3.8508 12.8755C4.90074 14.6906 6.80568 15.75 8.99998 15.75C11.7501 15.75 13.8959 14.0719 14.5463 11.6069L14.9697 12.0303Z" fill="#2B2B2C"/>
</svg>
