<svg width="18" height="18" viewBox="0 0 18 18" fill="none" xmlns="http://www.w3.org/2000/svg">
<path fill-rule="evenodd" clip-rule="evenodd" d="M9 2.5C5.41015 2.5 2.5 5.41015 2.5 9C2.5 12.5899 5.41015 15.5 9 15.5C12.5899 15.5 15.5 12.5899 15.5 9C15.5 5.41015 12.5899 2.5 9 2.5ZM1.5 9C1.5 4.85786 4.85786 1.5 9 1.5C13.1421 1.5 16.5 4.85786 16.5 9C16.5 13.1421 13.1421 16.5 9 16.5C4.85786 16.5 1.5 13.1421 1.5 9ZM9 4.96443C9.27614 4.96443 9.5 5.18829 9.5 5.46443V8.49996H12.5355C12.8117 8.49996 13.0355 8.72382 13.0355 8.99996C13.0355 9.27611 12.8117 9.49997 12.5355 9.49996H9.5V12.5355C9.5 12.8116 9.27614 13.0355 9 13.0355C8.72386 13.0355 8.5 12.8116 8.5 12.5355V9.49996H5.46447C5.18832 9.49997 4.96447 9.27611 4.96447 8.99996C4.96447 8.72382 5.18832 8.49996 5.46447 8.49996H8.5V5.46443C8.5 5.18829 8.72386 4.96443 9 4.96443Z" fill="#2B2B2C"/>
</svg>
