<svg width="18" height="18" viewBox="0 0 18 18" fill="none" xmlns="http://www.w3.org/2000/svg">
<path fill-rule="evenodd" clip-rule="evenodd" d="M9 2.5C5.41015 2.5 2.5 5.41015 2.5 9C2.5 12.5899 5.41015 15.5 9 15.5C12.5899 15.5 15.5 12.5899 15.5 9C15.5 5.41015 12.5899 2.5 9 2.5ZM1.5 9C1.5 4.85786 4.85786 1.5 9 1.5C13.1421 1.5 16.5 4.85786 16.5 9C16.5 13.1421 13.1421 16.5 9 16.5C4.85786 16.5 1.5 13.1421 1.5 9ZM9 5.49995C9.27614 5.49995 9.5 5.72381 9.5 5.99995V8.49995H12C12.2761 8.49995 12.5 8.72381 12.5 8.99995C12.5 9.2761 12.2761 9.49995 12 9.49995H9.5V12C9.5 12.2761 9.27614 12.5 9 12.5C8.72386 12.5 8.5 12.2761 8.5 12V9.49995H6C5.72386 9.49995 5.5 9.2761 5.5 8.99995C5.5 8.72381 5.72386 8.49995 6 8.49995H8.5V5.99995C8.5 5.72381 8.72386 5.49995 9 5.49995Z" fill="#2B2B2C"/>
</svg>
