<svg width="30" height="30" viewBox="0 0 30 30" fill="none" xmlns="http://www.w3.org/2000/svg">
<path fill-rule="evenodd" clip-rule="evenodd" d="M15 4C8.92487 4 4 8.92487 4 15C4 21.0751 8.92487 26 15 26C21.0751 26 26 21.0751 26 15C26 8.92487 21.0751 4 15 4ZM3 15C3 8.37258 8.37258 3 15 3C21.6274 3 27 8.37258 27 15C27 21.6274 21.6274 27 15 27C8.37258 27 3 21.6274 3 15ZM15 8.49995C15.2761 8.49995 15.5 8.72381 15.5 8.99995V14.5H21C21.2762 14.5 21.5 14.7238 21.5 15C21.5 15.2761 21.2762 15.5 21 15.5H15.5V21C15.5 21.2761 15.2761 21.5 15 21.5C14.7239 21.5 14.5 21.2761 14.5 21V15.5H9.00001C8.72387 15.5 8.50001 15.2761 8.50001 15C8.50002 14.7238 8.72387 14.5 9.00002 14.5H14.5V8.99995C14.5 8.72381 14.7239 8.49995 15 8.49995Z" fill="#2B2B2C"/>
</svg>
