<svg width="24" height="24" viewBox="0 0 24 24" fill="none" xmlns="http://www.w3.org/2000/svg">
<path fill-rule="evenodd" clip-rule="evenodd" d="M12 4C7.58172 4 4 7.58172 4 12C4 16.4183 7.58172 20 12 20C16.4183 20 20 16.4183 20 12C20 7.58172 16.4183 4 12 4ZM3 12C3 7.02944 7.02944 3 12 3C16.9706 3 21 7.02944 21 12C21 16.9706 16.9706 21 12 21C7.02944 21 3 16.9706 3 12ZM12 7.2574C12.2761 7.2574 12.5 7.48126 12.5 7.7574V11.5H16.2426C16.5188 11.5 16.7426 11.7239 16.7426 12C16.7426 12.2762 16.5188 12.5 16.2426 12.5H12.5V16.2427C12.5 16.5188 12.2761 16.7427 12 16.7427C11.7239 16.7427 11.5 16.5188 11.5 16.2427V12.5H7.75736C7.48122 12.5 7.25736 12.2762 7.25736 12C7.25736 11.7239 7.48122 11.5 7.75736 11.5H11.5V7.7574C11.5 7.48126 11.7239 7.2574 12 7.2574Z" fill="#2B2B2C"/>
</svg>
