<svg width="30" height="30" viewBox="0 0 30 30" fill="none" xmlns="http://www.w3.org/2000/svg">
<path fill-rule="evenodd" clip-rule="evenodd" d="M15 3C8.37258 3 3 8.37258 3 15C3 21.6274 8.37258 27 15 27C21.6274 27 27 21.6274 27 15C27 8.37258 21.6274 3 15 3ZM15 8.5C15.2761 8.5 15.5 8.72386 15.5 9V14.5H21C21.2761 14.5 21.5 14.7238 21.5 15C21.5 15.2761 21.2761 15.5 21 15.5H15.5V21C15.5 21.2761 15.2761 21.5 15 21.5C14.7239 21.5 14.5 21.2761 14.5 21V15.5H9C8.72386 15.5 8.5 15.2761 8.5 15C8.5 14.7238 8.72386 14.5 9 14.5H14.5V9C14.5 8.72386 14.7239 8.5 15 8.5Z" fill="#2B2B2C"/>
</svg>
