<svg width="18" height="18" viewBox="0 0 18 18" fill="none" xmlns="http://www.w3.org/2000/svg">
<path fill-rule="evenodd" clip-rule="evenodd" d="M9 1.5C4.85786 1.5 1.5 4.85786 1.5 9C1.5 13.1421 4.85786 16.5 9 16.5C13.1421 16.5 16.5 13.1421 16.5 9C16.5 4.85786 13.1421 1.5 9 1.5ZM9 5.50001C9.27614 5.50001 9.5 5.72387 9.5 6.00001V8.50001H12C12.2761 8.50001 12.5 8.72386 12.5 9.00001C12.5 9.27615 12.2761 9.50001 12 9.50001H9.5V12C9.5 12.2762 9.27614 12.5 9 12.5C8.72386 12.5 8.5 12.2762 8.5 12V9.50001H6.00001C5.72386 9.50001 5.50001 9.27615 5.50001 9.00001C5.50001 8.72386 5.72386 8.50001 6.00001 8.50001H8.5V6.00001C8.5 5.72387 8.72386 5.50001 9 5.50001Z" fill="#2B2B2C"/>
</svg>
