<svg width="24" height="24" viewBox="0 0 24 24" fill="none" xmlns="http://www.w3.org/2000/svg">
<path fill-rule="evenodd" clip-rule="evenodd" d="M12 3C7.02944 3 3 7.02944 3 12C3 16.9706 7.02944 21 12 21C16.9706 21 21 16.9706 21 12C21 7.02944 16.9706 3 12 3ZM12 7.5C12.2761 7.5 12.5 7.72386 12.5 8V11.5L16 11.5C16.2761 11.5 16.5 11.7239 16.5 12C16.5 12.2762 16.2761 12.5 16 12.5L12.5 12.5V16C12.5 16.2761 12.2761 16.5 12 16.5C11.7239 16.5 11.5 16.2761 11.5 16V12.5L7.99999 12.5C7.72384 12.5 7.49999 12.2762 7.49999 12C7.49999 11.7239 7.72384 11.5 7.99999 11.5L11.5 11.5V8C11.5 7.72386 11.7239 7.5 12 7.5Z" fill="#2B2B2C"/>
</svg>
