<svg width="24" height="24" viewBox="0 0 24 24" fill="none" xmlns="http://www.w3.org/2000/svg">
<g clip-path="url(#clip0_6837_345)">
<path d="M12 3C7.02944 3 3 7.02944 3 12C3 16.9706 7.02944 21 12 21C16.9706 21 21 16.9706 21 12C21 7.02944 16.9706 3 12 3Z" fill="#ED0000"/>
<path fill-rule="evenodd" clip-rule="evenodd" d="M9.61872 8.38128C9.27701 8.03957 8.72299 8.03957 8.38128 8.38128C8.03957 8.72299 8.03957 9.27701 8.38128 9.61872L10.7626 12L8.38128 14.3813C8.03957 14.723 8.03957 15.277 8.38128 15.6187C8.72299 15.9604 9.27701 15.9604 9.61872 15.6187L12 13.2374L14.3813 15.6187C14.723 15.9604 15.277 15.9604 15.6187 15.6187C15.9604 15.277 15.9604 14.723 15.6187 14.3813L13.2374 12L15.6187 9.61872C15.9604 9.27701 15.9604 8.72299 15.6187 8.38128C15.277 8.03957 14.723 8.03957 14.3813 8.38128L12 10.7626L9.61872 8.38128Z" fill="#FBCCCC"/>
</g>
<defs>
<clipPath id="clip0_6837_345">
<rect width="24" height="24" fill="white"/>
</clipPath>
</defs>
</svg>
