<svg width="18" height="18" viewBox="0 0 18 18" fill="none" xmlns="http://www.w3.org/2000/svg">
<g clip-path="url(#clip0_6837_344)">
<path d="M9 1.5C4.85786 1.5 1.5 4.85786 1.5 9C1.5 13.1421 4.85786 16.5 9 16.5C13.1421 16.5 16.5 13.1421 16.5 9C16.5 4.85786 13.1421 1.5 9 1.5Z" fill="#ED0000"/>
<path fill-rule="evenodd" clip-rule="evenodd" d="M7.03033 5.96967C6.73744 5.67678 6.26256 5.67678 5.96967 5.96967C5.67678 6.26256 5.67678 6.73744 5.96967 7.03033L7.93934 9L5.96967 10.9697C5.67678 11.2626 5.67678 11.7374 5.96967 12.0303C6.26256 12.3232 6.73744 12.3232 7.03033 12.0303L9 10.0607L10.9697 12.0303C11.2626 12.3232 11.7374 12.3232 12.0303 12.0303C12.3232 11.7374 12.3232 11.2626 12.0303 10.9697L10.0607 9L12.0303 7.03033C12.3232 6.73744 12.3232 6.26256 12.0303 5.96967C11.7374 5.67678 11.2626 5.67678 10.9697 5.96967L9 7.93934L7.03033 5.96967Z" fill="#FBCCCC"/>
</g>
<defs>
<clipPath id="clip0_6837_344">
<rect width="18" height="18" fill="white"/>
</clipPath>
</defs>
</svg>
