<svg width="30" height="30" viewBox="0 0 30 30" fill="none" xmlns="http://www.w3.org/2000/svg">
<g clip-path="url(#clip0_6837_340)">
<path d="M15 3C8.37258 3 3 8.37258 3 15C3 21.6274 8.37258 27 15 27C21.6274 27 27 21.6274 27 15C27 8.37258 21.6274 3 15 3Z" fill="#ED0000"/>
<path fill-rule="evenodd" clip-rule="evenodd" d="M11.2071 9.79289C10.8166 9.40237 10.1834 9.40237 9.79289 9.79289C9.40237 10.1834 9.40237 10.8166 9.79289 11.2071L13.5858 15L9.79289 18.7929C9.40237 19.1834 9.40237 19.8166 9.79289 20.2071C10.1834 20.5976 10.8166 20.5976 11.2071 20.2071L15 16.4142L18.7929 20.2071C19.1834 20.5976 19.8166 20.5976 20.2071 20.2071C20.5976 19.8166 20.5976 19.1834 20.2071 18.7929L16.4142 15L20.2071 11.2071C20.5976 10.8166 20.5976 10.1834 20.2071 9.79289C19.8166 9.40237 19.1834 9.40237 18.7929 9.79289L15 13.5858L11.2071 9.79289Z" fill="#FBCCCC"/>
</g>
<defs>
<clipPath id="clip0_6837_340">
<rect width="30" height="30" fill="white"/>
</clipPath>
</defs>
</svg>
