<svg width="30" height="30" viewBox="0 0 30 30" fill="none" xmlns="http://www.w3.org/2000/svg">
<path d="M26.5 15C26.5 21.3513 21.3513 26.5 15 26.5C8.64873 26.5 3.5 21.3513 3.5 15C3.5 8.64873 8.64873 3.5 15 3.5C21.3513 3.5 26.5 8.64873 26.5 15Z" fill="#B2DFD7"/>
<path fill-rule="evenodd" clip-rule="evenodd" d="M15 4C8.92487 4 4 8.92487 4 15C4 21.0751 8.92487 26 15 26C21.0751 26 26 21.0751 26 15C26 8.92487 21.0751 4 15 4ZM3 15C3 8.37258 8.37258 3 15 3C21.6274 3 27 8.37258 27 15C27 21.6274 21.6274 27 15 27C8.37258 27 3 21.6274 3 15ZM15 18C13.6094 18 12.3128 18.7023 11.5531 19.8672L11.0438 20.6481C10.893 20.8794 10.5832 20.9447 10.3519 20.7938C10.1206 20.643 10.0553 20.3332 10.2062 20.1019L10.7155 19.3209C11.6598 17.873 13.2714 17 15 17C16.7286 17 18.3402 17.873 19.2845 19.3209L19.7938 20.1019C19.9446 20.3332 19.8794 20.643 19.6481 20.7938C19.4168 20.9447 19.107 20.8794 18.9562 20.6481L18.4469 19.8672C17.6872 18.7023 16.3906 18 15 18ZM16.118 19.5C15.4142 19.1481 14.5858 19.1481 13.882 19.5L13.7764 19.5528C13.5294 19.6763 13.4293 19.9766 13.5528 20.2236C13.6763 20.4706 13.9766 20.5707 14.2236 20.4472L14.3292 20.3944C14.7515 20.1833 15.2485 20.1833 15.6708 20.3944L15.7764 20.4472C16.0234 20.5707 16.3237 20.4706 16.4472 20.2236C16.5707 19.9766 16.4706 19.6763 16.2236 19.5528L16.118 19.5ZM12.6213 11.515C12.8892 11.5819 13.0521 11.8534 12.9851 12.1213L12.9664 12.1959C12.5646 13.8033 10.9358 14.7806 9.3284 14.3787L9.25377 14.3601C8.98587 14.2931 8.82299 14.0216 8.88997 13.7537C8.95694 13.4858 9.22841 13.323 9.4963 13.3899L9.57094 13.4086C10.6425 13.6765 11.7284 13.025 11.9963 11.9534L12.0149 11.8788C12.0819 11.6109 12.3534 11.448 12.6213 11.515ZM17.9851 12.1288C17.9181 11.8609 17.6467 11.698 17.3788 11.765C17.1109 11.8319 16.948 12.1034 17.015 12.3713L17.0336 12.4459C17.4355 14.0533 19.0643 15.0306 20.6716 14.6288L20.7463 14.6101C21.0142 14.5431 21.1771 14.2717 21.1101 14.0038C21.0432 13.7359 20.7717 13.573 20.5038 13.64L20.4291 13.6586C19.3575 13.9265 18.2717 13.275 18.0038 12.2034L17.9851 12.1288Z" fill="#2B2B2C"/>
</svg>
