<svg width="24" height="24" viewBox="0 0 24 24" fill="none" xmlns="http://www.w3.org/2000/svg">
<path d="M20.5 12C20.5 16.6944 16.6944 20.5 12 20.5C7.30558 20.5 3.5 16.6944 3.5 12C3.5 7.30558 7.30558 3.5 12 3.5C16.6944 3.5 20.5 7.30558 20.5 12Z" fill="#B2DFD7"/>
<path fill-rule="evenodd" clip-rule="evenodd" d="M4 12C4 7.58172 7.58172 4 12 4C16.4183 4 20 7.58172 20 12C20 16.4183 16.4183 20 12 20C7.58172 20 4 16.4183 4 12ZM12 3C7.02944 3 3 7.02944 3 12C3 16.9706 7.02944 21 12 21C16.9706 21 21 16.9706 21 12C21 7.02944 16.9706 3 12 3ZM9.20003 15.9C9.86102 15.0187 10.8984 14.5 12 14.5C13.1017 14.5 14.139 15.0187 14.8 15.9L15.1 16.3C15.2657 16.5209 15.5791 16.5657 15.8 16.4C16.0209 16.2343 16.0657 15.9209 15.9 15.7L15.6 15.3C14.7502 14.1669 13.4164 13.5 12 13.5C10.5836 13.5 9.24987 14.1669 8.40003 15.3L8.10003 15.7C7.93434 15.9209 7.97912 16.2343 8.20003 16.4C8.42094 16.5657 8.73434 16.5209 8.90003 16.3L9.20003 15.9ZM10.1213 9.01495C10.3892 9.08193 10.552 9.35339 10.4851 9.62129L10.4701 9.68098C10.1353 11.0205 8.77794 11.8349 7.43845 11.5L7.37874 11.4851C7.11085 11.4181 6.94797 11.1466 7.01494 10.8787C7.08191 10.6108 7.35338 10.448 7.62128 10.5149L7.68098 10.5299C8.48468 10.7308 9.29908 10.2421 9.5 9.43845L9.51493 9.37876C9.5819 9.11086 9.85336 8.94798 10.1213 9.01495ZM14.4851 9.37876C14.4181 9.11086 14.1467 8.94798 13.8788 9.01496C13.6109 9.08193 13.448 9.3534 13.515 9.6213L13.5299 9.68102C13.8648 11.0205 15.2221 11.8349 16.5616 11.5L16.6213 11.4851C16.8892 11.4181 17.0521 11.1467 16.9851 10.8788C16.9182 10.6109 16.6467 10.448 16.3788 10.515L16.319 10.5299C15.5154 10.7308 14.701 10.2422 14.5 9.43848L14.4851 9.37876Z" fill="#2B2B2C"/>
</svg>
