<svg width="30" height="30" viewBox="0 0 30 30" fill="none" xmlns="http://www.w3.org/2000/svg">
<circle cx="15" cy="15" r="7" fill="white"/>
<path fill-rule="evenodd" clip-rule="evenodd" d="M15 3C8.37258 3 3 8.37258 3 15C3 21.6274 8.37258 27 15 27C21.6274 27 27 21.6274 27 15C27 8.37258 21.6274 3 15 3ZM15.75 9.75C15.75 10.1642 15.4142 10.5 15 10.5C14.5858 10.5 14.25 10.1642 14.25 9.75C14.25 9.33579 14.5858 9 15 9C15.4142 9 15.75 9.33579 15.75 9.75ZM15.5 12.5C15.5 12.2239 15.2761 12 15 12C14.7239 12 14.5 12.2239 14.5 12.5V20C14.5 20.2761 14.7239 20.5 15 20.5C15.2761 20.5 15.5 20.2761 15.5 20V12.5Z" fill="#2B2B2C"/>
</svg>
