<svg width="24" height="24" viewBox="0 0 24 24" fill="none" xmlns="http://www.w3.org/2000/svg">
<circle cx="12" cy="12" r="9" fill="white"  stroke-width="none"/>
<path fill-rule="evenodd" clip-rule="evenodd" d="M12 3C7.02944 3 3 7.02944 3 12C3 16.9706 7.02944 21 12 21C16.9706 21 21 16.9706 21 12C21 7.02944 16.9706 3 12 3ZM12.75 7.75C12.75 8.16421 12.4142 8.5 12 8.5C11.5858 8.5 11.25 8.16421 11.25 7.75C11.25 7.33579 11.5858 7 12 7C12.4142 7 12.75 7.33579 12.75 7.75ZM12.5 10.5C12.5 10.2239 12.2761 10 12 10C11.7239 10 11.5 10.2239 11.5 10.5V16C11.5 16.2761 11.7239 16.5 12 16.5C12.2761 16.5 12.5 16.2761 12.5 16V10.5Z" fill="#2B2B2C"/>
</svg>
