<svg width="12" height="12" viewBox="0 0 12 12" fill="none" xmlns="http://www.w3.org/2000/svg">
<path d="M11 6C11 8.76142 8.76142 11 6 11C3.23858 11 1 8.76142 1 6C1 3.23858 3.23858 1 6 1C8.76142 1 11 3.23858 11 6Z" fill="white" stroke-width="0" />
<path fill-rule="evenodd" clip-rule="evenodd" d="M6 1C3.23858 1 1 3.23858 1 6C1 8.76142 3.23858 11 6 11C8.76142 11 11 8.76142 11 6C11 3.23858 8.76142 1 6 1ZM6.5 4C6.5 4.27614 6.27614 4.5 6 4.5C5.72386 4.5 5.5 4.27614 5.5 4C5.5 3.72386 5.72386 3.5 6 3.5C6.27614 3.5 6.5 3.72386 6.5 4ZM6.5 5.5C6.5 5.22386 6.27614 5 6 5C5.72386 5 5.5 5.22386 5.5 5.5V8C5.5 8.27614 5.72386 8.5 6 8.5C6.27614 8.5 6.5 8.27614 6.5 8V5.5Z" fill="#2B2B2C"/>
</svg>
