<svg width="30" height="30" viewBox="0 0 30 30" fill="none" xmlns="http://www.w3.org/2000/svg">
<g clip-path="url(#clip0_6837_348)">
<path d="M15 3C8.37258 3 3 8.37258 3 15C3 21.6274 8.37258 27 15 27C21.6274 27 27 21.6274 27 15C27 8.37258 21.6274 3 15 3Z" fill="#003A70"/>
<path d="M16.25 9.25C16.25 9.94036 15.6904 10.5 15 10.5C14.3096 10.5 13.75 9.94036 13.75 9.25C13.75 8.55964 14.3096 8 15 8C15.6904 8 16.25 8.55964 16.25 9.25Z" fill="#DCE4EF"/>
<path fill-rule="evenodd" clip-rule="evenodd" d="M15 12C15.5523 12 16 12.4477 16 13V20.5C16 21.0523 15.5523 21.5 15 21.5C14.4477 21.5 14 21.0523 14 20.5V13C14 12.4477 14.4477 12 15 12Z" fill="#DCE4EF"/>
</g>
<defs>
<clipPath id="clip0_6837_348">
<rect width="30" height="30" fill="white"/>
</clipPath>
</defs>
</svg>
