<svg width="18" height="18" viewBox="0 0 18 18" fill="none" xmlns="http://www.w3.org/2000/svg">
<path d="M9 1.5C4.85786 1.5 1.5 4.85786 1.5 9C1.5 13.1421 4.85786 16.5 9 16.5C13.1421 16.5 16.5 13.1421 16.5 9C16.5 4.85786 13.1421 1.5 9 1.5Z" fill="#003A70"/>
<path d="M10 5.5C10 6.05228 9.55228 6.5 9 6.5C8.44772 6.5 8 6.05228 8 5.5C8 4.94772 8.44772 4.5 9 4.5C9.55228 4.5 10 4.94772 10 5.5Z" fill="#DCE4EF"/>
<path fill-rule="evenodd" clip-rule="evenodd" d="M9 7.75C9.41421 7.75 9.75 8.08579 9.75 8.5V12.5C9.75 12.9142 9.41421 13.25 9 13.25C8.58579 13.25 8.25 12.9142 8.25 12.5V8.5C8.25 8.08579 8.58579 7.75 9 7.75Z" fill="#DCE4EF"/>
</svg>
