<svg width="18" height="18" viewBox="0 0 18 18" fill="none" xmlns="http://www.w3.org/2000/svg">
<path fill-rule="evenodd" clip-rule="evenodd" d="M9 2.5C5.41015 2.5 2.5 5.41015 2.5 9C2.5 12.5899 5.41015 15.5 9 15.5C12.5899 15.5 15.5 12.5899 15.5 9C15.5 5.41015 12.5899 2.5 9 2.5ZM1.5 9C1.5 4.85786 4.85786 1.5 9 1.5C13.1421 1.5 16.5 4.85786 16.5 9C16.5 13.1421 13.1421 16.5 9 16.5C4.85786 16.5 1.5 13.1421 1.5 9ZM9.625 5.625C9.625 5.97018 9.34518 6.25 9 6.25C8.65482 6.25 8.375 5.97018 8.375 5.625C8.375 5.27982 8.65482 5 9 5C9.34518 5 9.625 5.27982 9.625 5.625ZM9.5 8C9.5 7.72386 9.27614 7.5 9 7.5C8.72386 7.5 8.5 7.72386 8.5 8V12C8.5 12.2761 8.72386 12.5 9 12.5C9.27614 12.5 9.5 12.2761 9.5 12V8Z" fill="#2B2B2C"/>
</svg>
