<svg width="12" height="12" viewBox="0 0 12 12" fill="none" xmlns="http://www.w3.org/2000/svg">
<path fill-rule="evenodd" clip-rule="evenodd" d="M6 2C3.79086 2 2 3.79086 2 6C2 8.20914 3.79086 10 6 10C8.20914 10 10 8.20914 10 6C10 3.79086 8.20914 2 6 2ZM1 6C1 3.23858 3.23858 1 6 1C8.76142 1 11 3.23858 11 6C11 8.76142 8.76142 11 6 11C3.23858 11 1 8.76142 1 6ZM6.5 4C6.5 4.27614 6.27614 4.5 6 4.5C5.72386 4.5 5.5 4.27614 5.5 4C5.5 3.72386 5.72386 3.5 6 3.5C6.27614 3.5 6.5 3.72386 6.5 4ZM6.5 5.5C6.5 5.22386 6.27614 5 6 5C5.72386 5 5.5 5.22386 5.5 5.5V8C5.5 8.27614 5.72386 8.5 6 8.5C6.27614 8.5 6.5 8.27614 6.5 8V5.5Z" fill="#2B2B2C"/>
</svg>
