<svg width="24" height="24" viewBox="0 0 24 24" fill="none" xmlns="http://www.w3.org/2000/svg">
<g clip-path="url(#clip0_6837_343)">
<path d="M12 3C7.02944 3 3 7.02944 3 12C3 16.9706 7.02944 21 12 21C16.9706 21 21 16.9706 21 12C21 7.02944 16.9706 3 12 3Z" fill="#003A70"/>
<path d="M13 7.5C13 8.05228 12.5523 8.5 12 8.5C11.4477 8.5 11 8.05228 11 7.5C11 6.94772 11.4477 6.5 12 6.5C12.5523 6.5 13 6.94772 13 7.5Z" fill="#DCE4EF"/>
<path fill-rule="evenodd" clip-rule="evenodd" d="M12 10.125C12.4832 10.125 12.875 10.5168 12.875 11V16.5C12.875 16.9832 12.4832 17.375 12 17.375C11.5168 17.375 11.125 16.9832 11.125 16.5V11C11.125 10.5168 11.5168 10.125 12 10.125Z" fill="#DCE4EF"/>
</g>
<defs>
<clipPath id="clip0_6837_343">
<rect width="24" height="24" fill="white"/>
</clipPath>
</defs>
</svg>
