<svg width="60" height="60" viewBox="0 0 60 60" fill="none" xmlns="http://www.w3.org/2000/svg">
<path d="M53 30C53 42.7025 42.7025 53 30 53C17.2975 53 7 42.7025 7 30C7 17.2975 17.2975 7 30 7C42.7025 7 53 17.2975 53 30Z" fill="#B2DFD7"/>
<path fill-rule="evenodd" clip-rule="evenodd" d="M8 30C8 17.8497 17.8497 8 30 8C42.1503 8 52 17.8497 52 30C52 42.1503 42.1503 52 30 52C17.8497 52 8 42.1503 8 30ZM30 6C16.7452 6 6 16.7452 6 30C6 43.2548 16.7452 54 30 54C43.2548 54 54 43.2548 54 30C54 16.7452 43.2548 6 30 6ZM21.0314 37C20.8937 37.5342 20.6438 38.046 20.2816 38.4988L19.7809 39.1247C19.4359 39.5559 18.8066 39.6259 18.3753 39.2808C17.944 38.9358 17.8741 38.3065 18.2191 37.8753L18.7199 37.2494C19.3042 36.5189 19.3042 35.481 18.7199 34.7506L18.2191 34.1247C17.8741 33.6934 17.944 33.0641 18.3753 32.7191C18.8066 32.3741 19.4359 32.444 19.7809 32.8753L20.2816 33.5012C20.6438 33.9539 20.8937 34.4657 21.0314 35H38.9686C39.1063 34.4657 39.3562 33.9539 39.7184 33.5012L40.2191 32.8753C40.5641 32.444 41.1934 32.3741 41.6247 32.7191C42.056 33.0641 42.1259 33.6934 41.7809 34.1247L41.2801 34.7506C40.6958 35.481 40.6958 36.5189 41.2801 37.2494L41.7809 37.8753C42.1259 38.3065 42.056 38.9358 41.6247 39.2808C41.1934 39.6259 40.5641 39.5559 40.2191 39.1247L39.7184 38.4988C39.3562 38.046 39.1063 37.5342 38.9686 37H21.0314ZM18.0429 23.0429C18.4334 22.6524 19.0666 22.6524 19.4571 23.0429L19.6716 23.2574C21.2337 24.8195 23.7663 24.8195 25.3284 23.2574L25.5429 23.0429C25.9334 22.6524 26.5666 22.6524 26.9571 23.0429C27.3476 23.4334 27.3476 24.0666 26.9571 24.4571L26.7426 24.6716C24.3995 27.0147 20.6005 27.0147 18.2574 24.6716L18.0429 24.4571C17.6524 24.0666 17.6524 23.4334 18.0429 23.0429ZM34.4571 23.0429C34.0666 22.6524 33.4334 22.6524 33.0429 23.0429C32.6524 23.4334 32.6524 24.0666 33.0429 24.4571L33.2574 24.6716C35.6005 27.0147 39.3995 27.0147 41.7426 24.6716L41.9571 24.4571C42.3476 24.0666 42.3476 23.4334 41.9571 23.0429C41.5666 22.6524 40.9334 22.6524 40.5429 23.0429L40.3284 23.2574C38.7663 24.8195 36.2337 24.8195 34.6716 23.2574L34.4571 23.0429Z" fill="#2B2B2C"/>
</svg>
