<svg width="24" height="24" viewBox="0 0 24 24" fill="none" xmlns="http://www.w3.org/2000/svg">
<circle cx="12" cy="12" r="6" fill="white"/>
<path fill-rule="evenodd" clip-rule="evenodd" d="M12 3C7.02944 3 3 7.02944 3 12C3 16.9706 7.02944 21 12 21C16.9706 21 21 16.9706 21 12C21 7.02944 16.9706 3 12 3ZM10.0509 8.02643C10.4363 7.49429 11.0728 7 12 7C12.855 7 13.502 7.3089 13.9266 7.81331C14.3392 8.30335 14.5 8.92741 14.5 9.5C14.5 10.0877 14.3417 10.522 14.0909 10.8848C13.911 11.145 13.6744 11.3737 13.4709 11.5705L13.4709 11.5705L13.4708 11.5706L13.4704 11.5709C13.4171 11.6225 13.3661 11.6718 13.3189 11.719L13.2839 11.754C13.0857 11.9519 12.9076 12.1296 12.7642 12.3786C12.6191 12.6306 12.5 12.9764 12.5 13.5C12.5 13.7761 12.2761 14 12 14C11.7239 14 11.5 13.7761 11.5 13.5C11.5 12.8093 11.6612 12.2902 11.8976 11.8796C12.1099 11.5109 12.3757 11.2467 12.5666 11.0569L12.5666 11.0569L12.6118 11.0119C12.6876 10.9361 12.757 10.8688 12.8209 10.8067L12.821 10.8067C13.0087 10.6245 13.1499 10.4875 13.2683 10.3161C13.4035 10.1206 13.5 9.8847 13.5 9.5C13.5 9.10015 13.3863 8.72421 13.1616 8.45736C12.9491 8.20488 12.5961 8 12 8C11.4762 8 11.1126 8.26534 10.8608 8.61302C10.5929 8.98291 10.5 9.3824 10.5 9.5C10.5 9.77614 10.2761 10 10 10C9.72386 10 9.5 9.77614 9.5 9.5C9.5 9.13687 9.68158 8.53636 10.0509 8.02643ZM12 16.5C12.4142 16.5 12.75 16.1642 12.75 15.75C12.75 15.3358 12.4142 15 12 15C11.5858 15 11.25 15.3358 11.25 15.75C11.25 16.1642 11.5858 16.5 12 16.5Z" fill="#2B2B2C"/>
</svg>
