<svg width="18" height="18" viewBox="0 0 18 18" fill="none" xmlns="http://www.w3.org/2000/svg">
<g clip-path="url(#clip0_6837_341)">
<path d="M9 1.5C4.85786 1.5 1.5 4.85786 1.5 9C1.5 13.1421 4.85786 16.5 9 16.5C13.1421 16.5 16.5 13.1421 16.5 9C16.5 4.85786 13.1421 1.5 9 1.5Z" fill="#2B2B2C"/>
<path fill-rule="evenodd" clip-rule="evenodd" d="M7.23954 5.49918C7.58799 5.11076 8.1584 4.75 9.00001 4.75C10.4577 4.75 11.25 5.93677 11.25 7C11.25 7.47429 11.0712 7.87695 10.8753 8.18388C10.68 8.48985 10.4391 8.74471 10.2544 8.9294C10.1707 9.0131 10.0342 9.19475 9.92003 9.42486C9.80379 9.65913 9.75001 9.86471 9.75001 10C9.75001 10.4142 9.41423 10.75 9.00001 10.75C8.5858 10.75 8.25001 10.4142 8.25001 10C8.25001 9.54363 8.40646 9.10053 8.57634 8.75815C8.74829 8.4116 8.97384 8.08862 9.19371 7.86874C9.35861 7.70385 9.50567 7.54169 9.61095 7.37678C9.7156 7.21283 9.75001 7.09075 9.75001 7C9.75001 6.81031 9.67869 6.61602 9.554 6.47671C9.44051 6.34993 9.26791 6.25 9.00001 6.25C8.63579 6.25 8.4562 6.38924 8.3561 6.50082C8.29888 6.56461 8.26026 6.62944 8.23694 6.67654C8.22558 6.69948 8.21885 6.7162 8.21603 6.72363C8.21572 6.72444 8.21546 6.72512 8.21526 6.72568C8.09278 7.11436 7.68104 7.33503 7.28836 7.21951C6.89098 7.10262 6.6636 6.68572 6.7805 6.28834L7.50001 6.5C6.7805 6.28834 6.78038 6.28874 6.7805 6.28834L6.78097 6.28673L6.78148 6.28502L6.7826 6.28131L6.78526 6.2727L6.79232 6.25094C6.79782 6.23449 6.80498 6.21414 6.81399 6.19044C6.83196 6.14317 6.85763 6.08177 6.89269 6.01096C6.96221 5.87056 7.0725 5.68539 7.23954 5.49918Z" fill="white"/>
<path d="M9.75001 12.75C9.75001 13.1642 9.41423 13.5 9.00001 13.5C8.5858 13.5 8.25001 13.1642 8.25001 12.75C8.25001 12.3358 8.5858 12 9.00001 12C9.41423 12 9.75001 12.3358 9.75001 12.75Z" fill="white"/>
</g>
<defs>
<clipPath id="clip0_6837_341">
<rect width="18" height="18" fill="white"/>
</clipPath>
</defs>
</svg>
