<svg width="30" height="30" viewBox="0 0 30 30" fill="none" xmlns="http://www.w3.org/2000/svg">
<g clip-path="url(#clip0_6837_354)">
<path d="M15 3C8.37258 3 3 8.37258 3 15C3 21.6274 8.37258 27 15 27C21.6274 27 27 21.6274 27 15C27 8.37258 21.6274 3 15 3Z" fill="#2B2B2C"/>
<path fill-rule="evenodd" clip-rule="evenodd" d="M12.1679 10.0078C12.6886 9.22679 13.5998 8.5 15 8.5C16.2855 8.5 17.2193 9.00071 17.8 9.775C18.3444 10.5008 18.5 11.3604 18.5 12C18.5 13.1857 17.9361 13.9781 17.2071 14.7071C16.6923 15.2219 16 15.9557 16 17C16 17.5523 15.5523 18 15 18C14.4477 18 14 17.5523 14 17C14 15.0829 15.2566 13.8283 15.7632 13.3225C15.7734 13.3123 15.7833 13.3025 15.7929 13.2929C16.3612 12.7246 16.5 12.4143 16.5 12C16.5 11.6396 16.4056 11.2492 16.2 10.975C16.0307 10.7493 15.7145 10.5 15 10.5C14.4002 10.5 14.0614 10.7732 13.8321 11.1172C13.7089 11.3019 13.6218 11.5056 13.5664 11.6884C13.5102 11.874 13.5008 11.9896 13.5001 11.9993C13.5 11.9999 13.5001 11.9994 13.5001 11.9993C13.5001 12.5516 13.0523 13 12.5 13C11.9477 13 11.5 12.5523 11.5 12C11.5 11.5523 11.6836 10.7343 12.1679 10.0078Z" fill="white"/>
<path d="M16.25 20.75C16.25 21.4404 15.6904 22 15 22C14.3096 22 13.75 21.4404 13.75 20.75C13.75 20.0596 14.3096 19.5 15 19.5C15.6904 19.5 16.25 20.0596 16.25 20.75Z" fill="white"/>
</g>
<defs>
<clipPath id="clip0_6837_354">
<rect width="30" height="30" fill="white"/>
</clipPath>
</defs>
</svg>
