<svg width="12" height="12" viewBox="0 0 12 12" fill="none" xmlns="http://www.w3.org/2000/svg">
<path fill-rule="evenodd" clip-rule="evenodd" d="M6 1C3.23858 1 1 3.23858 1 6C1 8.76142 3.23858 11 6 11C8.76142 11 11 8.76142 11 6C11 3.23858 8.76142 1 6 1ZM4.78503 4.12878C5.01388 3.79211 5.40943 3.5 6 3.5C6.9718 3.5 7.5 4.29118 7.5 5C7.5 5.6221 7.1486 5.95717 6.91019 6.17879L6.90661 6.18212C6.669 6.403 6.54186 6.52118 6.48777 6.76123C6.42707 7.03062 6.15948 7.1998 5.89009 7.1391C5.62071 7.0784 5.45153 6.81081 5.51223 6.54142C5.63586 5.99273 5.97122 5.68406 6.18851 5.48407L6.22934 5.44637C6.44442 5.24644 6.5 5.16867 6.5 5C6.5 4.87354 6.45245 4.74401 6.36932 4.65114C6.29367 4.56662 6.1786 4.5 6 4.5C5.78668 4.5 5.68223 4.58771 5.61205 4.69095C5.57163 4.75041 5.54197 4.81868 5.52281 4.88368C5.51343 4.91552 5.50739 4.94383 5.50384 4.96623C5.50058 4.98681 5.50009 4.9982 5.50001 4.99989L5.5 5C5.5 5.27614 5.27614 5.5 5 5.5C4.72386 5.5 4.5 5.27614 4.5 5C4.5 4.78806 4.57457 4.43839 4.78503 4.12878ZM5.5 5.0001L5.5 5C5.5 5.00009 5.5 5.00013 5.5 5.0001ZM6 8.51324C6.27614 8.51324 6.5 8.28939 6.5 8.01324C6.5 7.7371 6.27614 7.51324 6 7.51324C5.72386 7.51324 5.5 7.7371 5.5 8.01324C5.5 8.28939 5.72386 8.51324 6 8.51324Z" fill="#2B2B2C"/>
</svg>
