<svg width="24" height="24" viewBox="0 0 24 24" fill="none" xmlns="http://www.w3.org/2000/svg">
<g clip-path="url(#clip0_6837_329)">
<path d="M12 3C7.02944 3 3 7.02944 3 12C3 16.9706 7.02944 21 12 21C16.9706 21 21 16.9706 21 12C21 7.02944 16.9706 3 12 3Z" fill="#2B2B2C"/>
<path fill-rule="evenodd" clip-rule="evenodd" d="M9.74721 7.80646C10.1827 7.20515 10.9215 6.625 12 6.625C12.952 6.625 13.7093 6.9729 14.2135 7.57179C14.6965 8.14552 14.875 8.86263 14.875 9.5C14.875 10.1639 14.6935 10.6726 14.3993 11.0981C14.1955 11.3928 13.9209 11.6578 13.717 11.8545C13.6679 11.9019 13.623 11.9453 13.5841 11.9842C13.5758 11.9924 13.5676 12.0006 13.5595 12.0087C13.3529 12.2152 13.2072 12.3608 13.0892 12.5658C12.9783 12.7583 12.875 13.0391 12.875 13.5C12.875 13.9832 12.4832 14.375 12 14.375C11.5168 14.375 11.125 13.9832 11.125 13.5C11.125 12.7466 11.302 12.1625 11.5726 11.6925C11.8112 11.2783 12.1102 10.9815 12.3005 10.7926C12.3167 10.7765 12.3321 10.7612 12.3467 10.7467C12.4368 10.6566 12.5139 10.5817 12.5811 10.5165C12.7558 10.3467 12.8637 10.242 12.9599 10.1028C13.0517 9.97004 13.125 9.80856 13.125 9.5C13.125 9.16493 13.029 8.88204 12.8748 8.69888C12.7418 8.54088 12.499 8.375 12 8.375C11.6274 8.375 11.3662 8.55448 11.1645 8.83299C11.0607 8.97628 10.9835 9.13439 10.9336 9.27594C10.8893 9.4012 10.8783 9.47887 10.8758 9.49713C10.8751 9.50143 10.875 9.50244 10.875 9.5C10.875 9.98325 10.4832 10.375 10 10.375C9.51675 10.375 9.125 9.98325 9.125 9.5C9.125 9.0448 9.33984 8.36891 9.74721 7.80646Z" fill="white"/>
<path d="M13 16.5C13 17.0523 12.5523 17.5 12 17.5C11.4477 17.5 11 17.0523 11 16.5C11 15.9477 11.4477 15.5 12 15.5C12.5523 15.5 13 15.9477 13 16.5Z" fill="white"/>
</g>
<defs>
<clipPath id="clip0_6837_329">
<rect width="24" height="24" fill="white"/>
</clipPath>
</defs>
</svg>
