<svg width="30" height="30" viewBox="0 0 30 30" fill="none" xmlns="http://www.w3.org/2000/svg">
<path fill-rule="evenodd" clip-rule="evenodd" d="M15 4C8.92487 4 4 8.92487 4 15C4 21.0751 8.92487 26 15 26C21.0751 26 26 21.0751 26 15C26 8.92487 21.0751 4 15 4ZM3 15C3 8.37258 8.37258 3 15 3C21.6274 3 27 8.37258 27 15C27 21.6274 21.6274 27 15 27C8.37258 27 3 21.6274 3 15ZM12.584 10.2851C13.0318 9.61339 13.7999 9 15 9C16.1428 9 16.9221 9.43785 17.4 10.075C17.8597 10.6879 18 11.4302 18 12C18 12.9929 17.5424 13.6647 16.8536 14.3536C16.3461 14.861 15.5 15.7279 15.5 17C15.5 17.2761 15.2761 17.5 15 17.5C14.7239 17.5 14.5 17.2761 14.5 17C14.5 15.2921 15.6273 14.1653 16.1291 13.6638L16.1464 13.6464C16.7549 13.038 17 12.6071 17 12C17 11.5698 16.8903 11.0621 16.6 10.675C16.3279 10.3121 15.8572 10 15 10C14.2001 10 13.7182 10.3866 13.416 10.8398C13.0957 11.3204 13 11.8489 13 12C13 12.2761 12.7761 12.5 12.5 12.5C12.2239 12.5 12 12.2761 12 12C12 11.6511 12.1543 10.9296 12.584 10.2851ZM15 20.5C15.4142 20.5 15.75 20.1642 15.75 19.75C15.75 19.3358 15.4142 19 15 19C14.5858 19 14.25 19.3358 14.25 19.75C14.25 20.1642 14.5858 20.5 15 20.5Z" fill="#2B2B2C"/>
</svg>
