<svg width="18" height="18" viewBox="0 0 18 18" fill="none" xmlns="http://www.w3.org/2000/svg">
    <path fill-rule="evenodd" clip-rule="evenodd" d="M10.6264 1.4192C9.72816 0.520993 8.27188 0.520993 7.37368 1.4192L1.41926 7.37361C0.521054 8.27182 0.521054 9.7281 1.41926 10.6263L7.37368 16.5807C8.27188 17.4789 9.72816 17.4789 10.6264 16.5807L16.5808 10.6263C17.479 9.7281 17.479 8.27182 16.5808 7.37361L10.6264 1.4192ZM8.08078 2.12631C8.58846 1.61862 9.41158 1.61862 9.91926 2.12631L15.8737 8.08072C16.3814 8.5884 16.3814 9.41152 15.8737 9.9192L9.91926 15.8736C9.41158 16.3813 8.58846 16.3813 8.08078 15.8736L2.12637 9.9192C1.61869 9.41152 1.61869 8.5884 2.12637 8.08072L8.08078 2.12631ZM10.5 8.49998V6.33549C11.1204 6.76607 11.5 7.47876 11.5 8.2481C11.5 9.1316 11.0007 9.94061 10.2112 10.3354L9.77641 10.5528C9.60702 10.6375 9.50002 10.8106 9.50002 11V13.5C9.50002 13.7761 9.72388 14 10 14C10.2762 14 10.5 13.7761 10.5 13.5V11.309L10.6584 11.2298C11.7874 10.6653 12.5 9.50963 12.5 8.2481C12.5 6.98888 11.7887 5.8353 10.6617 5.27182C10.128 5.00496 9.50002 5.39307 9.50002 5.98981V8.19096L9.00002 8.44096L8.50002 8.19096V5.98981C8.50002 5.39307 7.87204 5.00496 7.3383 5.27182C6.21135 5.8353 5.50002 6.98888 5.50002 8.2481C5.50002 9.50963 6.21265 10.6653 7.34166 11.2298L7.50002 11.309V13.5C7.50002 13.7761 7.72388 14 8.00002 14C8.27616 14 8.50002 13.7761 8.50002 13.5V11C8.50002 10.8106 8.39302 10.6375 8.22363 10.5528L7.78887 10.3354C6.99932 9.94061 6.50002 9.1316 6.50002 8.2481C6.50002 7.47876 6.8796 6.76607 7.50002 6.33549V8.49998C7.50002 8.68937 7.60702 8.8625 7.77641 8.94719L8.77641 9.44719C8.91718 9.51758 9.08286 9.51758 9.22363 9.44719L10.2236 8.94719C10.393 8.8625 10.5 8.68937 10.5 8.49998Z" fill="#2B2B2C"/>
</svg>
