<svg width="18" height="18" viewBox="0 0 18 18" fill="none" xmlns="http://www.w3.org/2000/svg">
<path fill-rule="evenodd" clip-rule="evenodd" d="M10.6263 1.41914C9.72813 0.520932 8.27185 0.520932 7.37364 1.41914L1.41923 7.37355C0.521023 8.27176 0.521024 9.72804 1.41923 10.6262L7.37364 16.5807C8.27185 17.4789 9.72813 17.4789 10.6263 16.5807L16.5808 10.6262C17.479 9.72804 17.479 8.27176 16.5808 7.37355L10.6263 1.41914Z" fill="#E5A80C"/>
<path d="M8 11.0001V13.5001L8.10557 13.5528C8.66863 13.8344 9.33137 13.8344 9.89443 13.5528L10 13.5001V11.0001L10.4348 10.7827C11.394 10.303 12 9.3207 12 8.24818C12 7.17797 11.3953 6.19773 10.4381 5.71912C10.2368 5.61848 10 5.76484 10 5.98989V8.37645C10 8.45221 9.9572 8.52146 9.88944 8.55534L9.08944 8.95534C9.03314 8.98349 8.96686 8.98349 8.91056 8.95534L8.11056 8.55534C8.0428 8.52146 8 8.45221 8 8.37645V5.98989C8 5.76484 7.76317 5.61848 7.56189 5.71912C6.60466 6.19773 6 7.17797 6 8.24818C6 9.3207 6.60596 10.303 7.56525 10.7827L8 11.0001Z" fill="#2B2B2C"/>
</svg>
