<svg width="18" height="18" viewBox="0 0 18 18" fill="none" xmlns="http://www.w3.org/2000/svg">
<path fill-rule="evenodd" clip-rule="evenodd" d="M10.6263 1.41914C9.72813 0.520932 8.27185 0.520932 7.37364 1.41914L1.41923 7.37355C0.521023 8.27176 0.521024 9.72804 1.41923 10.6262L7.37364 16.5807C8.27185 17.4789 9.72813 17.4789 10.6263 16.5807L16.5808 10.6262C17.479 9.72804 17.479 8.27176 16.5808 7.37355L10.6263 1.41914ZM8.08075 2.12624C8.58843 1.61856 9.41155 1.61856 9.91923 2.12624L15.8736 8.08066C16.3813 8.58834 16.3813 9.41146 15.8736 9.91914L9.91923 15.8736C9.41155 16.3812 8.58843 16.3812 8.08075 15.8736L2.12634 9.91914C1.61865 9.41146 1.61865 8.58834 2.12634 8.08066L8.08075 2.12624ZM10.5 8.49992V6.33543C11.1204 6.76601 11.5 7.4787 11.5 8.24804C11.5 9.13154 11.0007 9.94055 10.2111 10.3353L9.77638 10.5527C9.60699 10.6374 9.49999 10.8105 9.49999 10.9999V13.4999C9.49999 13.7761 9.72385 13.9999 9.99999 13.9999C10.2761 13.9999 10.5 13.7761 10.5 13.4999V11.3089L10.6583 11.2298C11.7874 10.6652 12.5 9.50956 12.5 8.24804C12.5 6.98881 11.7887 5.83524 10.6617 5.27176C10.128 5.00489 9.49999 5.39301 9.49999 5.98975V8.1909L8.99999 8.4409L8.49999 8.1909V5.98975C8.49999 5.39301 7.872 5.00489 7.33827 5.27176C6.21131 5.83524 5.49999 6.98882 5.49999 8.24804C5.49999 9.50956 6.21262 10.6652 7.34163 11.2298L7.49999 11.3089V13.4999C7.49999 13.7761 7.72385 13.9999 7.99999 13.9999C8.27613 13.9999 8.49999 13.7761 8.49999 13.4999V10.9999C8.49999 10.8105 8.39299 10.6374 8.2236 10.5527L7.78884 10.3353C6.99928 9.94055 6.49999 9.13154 6.49999 8.24804C6.49999 7.4787 6.87957 6.76601 7.49999 6.33543V8.49992C7.49999 8.68931 7.60699 8.86244 7.77638 8.94713L8.77638 9.44713C8.91715 9.51752 9.08283 9.51752 9.2236 9.44713L10.2236 8.94713C10.393 8.86244 10.5 8.68931 10.5 8.49992Z" fill="#2B2B2C"/>
</svg>
