<svg width="30" height="30" viewBox="0 0 30 30" fill="none" xmlns="http://www.w3.org/2000/svg">
<path fill-rule="evenodd" clip-rule="evenodd" d="M17.4749 3.26768C16.108 1.90084 13.892 1.90085 12.5251 3.26768L3.26776 12.525C1.90093 13.8919 1.90093 16.108 3.26776 17.4748L12.5251 26.7321C13.8919 28.099 16.108 28.099 17.4749 26.7321L26.7322 17.4748C28.0991 16.108 28.0991 13.8919 26.7322 12.525L17.4749 3.26768ZM13.2322 3.97479C14.2085 2.99848 15.7915 2.99848 16.7678 3.97479L26.0251 13.2321C27.0014 14.2085 27.0014 15.7914 26.0251 16.7677L16.7677 26.025C15.7914 27.0014 14.2085 27.0013 13.2322 26.025L3.97487 16.7677C2.99856 15.7914 2.99856 14.2085 3.97487 13.2321L13.2322 3.97479ZM11 12.6193C11 11.2283 11.7721 9.95459 13 9.30981V13C13 13.2152 13.1377 13.4062 13.3419 13.4743L14.8419 13.9743C14.9445 14.0085 15.0555 14.0085 15.1581 13.9743L16.6581 13.4743C16.8623 13.4062 17 13.2152 17 13V9.30981C18.2279 9.95459 19 11.2283 19 12.6193V12.75C19 14.246 18.1548 15.6136 16.8167 16.2826L16.2764 16.5527C16.107 16.6374 16 16.8106 16 17V22C16 22.2761 16.2239 22.5 16.5 22.5C16.7761 22.5 17 22.2761 17 22V17.309L17.2639 17.177C18.9408 16.3386 20 14.6247 20 12.75V12.6193C20 10.8246 18.986 9.18395 17.3808 8.38133C16.7464 8.06415 16 8.52545 16 9.2347V12.6396L15 12.9729L14 12.6396V9.2347C14 8.52545 13.2536 8.06415 12.6192 8.38133C11.014 9.18395 10 10.8246 10 12.6193V12.75C10 14.6247 11.0592 16.3386 12.7361 17.177L13 17.309V22C13 22.2761 13.2239 22.5 13.5 22.5C13.7761 22.5 14 22.2761 14 22V17C14 16.8106 13.893 16.6374 13.7236 16.5527L13.1833 16.2826C11.8452 15.6136 11 14.246 11 12.75V12.6193Z" fill="#2B2B2C"/>
</svg>
