<svg width="18" height="18" viewBox="0 0 18 18" fill="none" xmlns="http://www.w3.org/2000/svg">
    <path fill-rule="evenodd" clip-rule="evenodd" d="M10.6264 1.4192C9.72816 0.520993 8.27188 0.520993 7.37368 1.4192L1.41926 7.37361C0.521054 8.27182 0.521054 9.7281 1.41926 10.6263L7.37368 16.5807C8.27188 17.4789 9.72816 17.4789 10.6264 16.5807L16.5808 10.6263C17.479 9.7281 17.479 8.27182 16.5808 7.37361L10.6264 1.4192Z" fill="#E5A80C"/>
    <path d="M8 11V13.5L8.10557 13.5528C8.66863 13.8343 9.33137 13.8343 9.89443 13.5528L10 13.5V11L10.4348 10.7826C11.394 10.303 12 9.32063 12 8.24812C12 7.17791 11.3953 6.19767 10.4381 5.71906C10.2368 5.61841 10 5.76478 10 5.98983V8.37639C10 8.45215 9.9572 8.5214 9.88944 8.55528L9.08944 8.95528C9.03314 8.98343 8.96686 8.98343 8.91056 8.95528L8.11056 8.55528C8.0428 8.5214 8 8.45215 8 8.37639V5.98983C8 5.76478 7.76317 5.61841 7.56189 5.71906C6.60466 6.19767 6 7.17791 6 8.24812C6 9.32063 6.60596 10.303 7.56525 10.7826L8 11Z" fill="#2B2B2C"/>
</svg>
