<svg width="24" height="24" viewBox="0 0 24 24" fill="none" xmlns="http://www.w3.org/2000/svg">
    <path fill-rule="evenodd" clip-rule="evenodd" d="M14.0506 2.84347C12.9181 1.71095 11.0819 1.71095 9.94942 2.84347L2.84353 9.94936C1.71101 11.0819 1.71101 12.9181 2.84353 14.0506L9.94942 21.1565C11.0819 22.289 12.9181 22.289 14.0506 21.1565L21.1565 14.0506C22.289 12.9181 22.289 11.0819 21.1565 9.94936L14.0506 2.84347Z" fill="#E5A80C"/>
    <path d="M10.5 14.5V17.8558C10.5 17.9419 10.5551 18.0183 10.6368 18.0456L11.0513 18.1837C11.6671 18.389 12.3329 18.389 12.9487 18.1837L13.3632 18.0456C13.4449 18.0183 13.5 17.9419 13.5 17.8558V14.5L13.6624 14.435C15.0742 13.8703 16 12.5029 16 10.9823V10.6851C16 9.32946 15.2887 8.07321 14.1263 7.37573C13.8506 7.21036 13.5 7.40889 13.5 7.73031V10.6815C13.5 10.8758 13.3875 11.0525 13.2114 11.1346L12.2114 11.6013C12.0774 11.6638 11.9226 11.6638 11.7886 11.6013L10.7886 11.1346C10.6125 11.0525 10.5 10.8758 10.5 10.6815V7.73031C10.5 7.40889 10.1494 7.21036 9.87375 7.37573C8.71128 8.07321 8 9.32946 8 10.6851V10.8935C8 12.4677 8.95844 13.8834 10.4201 14.468L10.5 14.5Z" fill="#2B2B2C"/>
</svg>
