<svg width="30" height="30" viewBox="0 0 30 30" fill="none" xmlns="http://www.w3.org/2000/svg">
    <path fill-rule="evenodd" clip-rule="evenodd" d="M17.4749 3.26774C16.1081 1.9009 13.892 1.90091 12.5252 3.26774L3.2678 12.5251C1.90097 13.8919 1.90097 16.108 3.2678 17.4748L12.5251 26.7322C13.892 28.099 16.1081 28.099 17.4749 26.7322L26.7323 17.4748C28.0991 16.108 28.0991 13.8919 26.7323 12.5251L17.4749 3.26774Z" fill="#E5A80C"/>
    <path d="M12.9597 16.7298L13.5 17V21.8558C13.5 21.9419 13.5551 22.0183 13.6368 22.0456L13.8932 22.131C14.6116 22.3705 15.3884 22.3705 16.1068 22.131L16.3632 22.0456C16.4449 22.0183 16.5 21.9419 16.5 21.8558V17L17.0403 16.7298C18.5478 15.9761 19.5 14.4354 19.5 12.75V12.6193C19.5 11.014 18.593 9.54648 17.1572 8.82856C16.8552 8.67759 16.5 8.89714 16.5 9.23471V12.8558C16.5 12.9419 16.4449 13.0183 16.3632 13.0456L15.0632 13.4789C15.0222 13.4926 14.9778 13.4926 14.9368 13.4789L13.6368 13.0456C13.5551 13.0183 13.5 12.9419 13.5 12.8558V9.23471C13.5 8.89714 13.1448 8.67759 12.8428 8.82856C11.407 9.54648 10.5 11.014 10.5 12.6193V12.75C10.5 14.4354 11.4522 15.9761 12.9597 16.7298Z" fill="#2B2B2C"/>
</svg>
