<svg width="24" height="24" viewBox="0 0 24 24" fill="none" xmlns="http://www.w3.org/2000/svg">
    <path fill-rule="evenodd" clip-rule="evenodd" d="M14.0506 2.84347C12.9181 1.71095 11.0819 1.71095 9.94942 2.84347L2.84353 9.94936C1.71101 11.0819 1.71101 12.9181 2.84353 14.0506L9.94942 21.1565C11.0819 22.289 12.9181 22.289 14.0506 21.1565L21.1565 14.0506C22.289 12.9181 22.289 11.0819 21.1565 9.94936L14.0506 2.84347ZM10.6565 3.55058C11.3985 2.80858 12.6015 2.80858 13.3435 3.55058L20.4494 10.6565C21.1914 11.3985 21.1914 12.6015 20.4494 13.3435L13.3435 20.4494C12.6015 21.1914 11.3985 21.1914 10.6565 20.4494L3.55064 13.3435C2.80864 12.6015 2.80864 11.3985 3.55064 10.6565L10.6565 3.55058ZM8.50001 10.6852C8.50001 9.55696 9.06597 8.50784 10 7.88728V11C10 11.1943 10.1125 11.371 10.2886 11.4531L11.7886 12.1531C11.9226 12.2157 12.0774 12.2157 12.2114 12.1531L13.7115 11.4531C13.8875 11.371 14 11.1943 14 11V7.88728C14.9341 8.50784 15.5 9.55696 15.5 10.6852V10.9823C15.5 12.2985 14.6987 13.482 13.4767 13.9708L13.3143 14.0358C13.1245 14.1117 13 14.2956 13 14.5V18C13 18.2762 13.2239 18.5 13.5 18.5C13.7762 18.5 14 18.2762 14 18V14.8351C15.5158 14.1593 16.5 12.6522 16.5 10.9823V10.6852C16.5 9.15389 15.6966 7.73488 14.3835 6.94703C13.7746 6.58171 13 7.0203 13 7.73036V10.6816L12 11.1483L11 10.6816V7.73036C11 7.0203 10.2254 6.58171 9.61651 6.94703C8.30344 7.73488 7.50001 9.15389 7.50001 10.6852V10.8935C7.50001 12.5866 8.48122 14.1174 10 14.8305V18C10 18.2762 10.2239 18.5 10.5 18.5C10.7762 18.5 11 18.2762 11 18V14.5C11 14.2956 10.8755 14.1117 10.6857 14.0358L10.6058 14.0038C9.33398 13.4951 8.50001 12.2633 8.50001 10.8935V10.6852Z" fill="#2B2B2C"/>
</svg>
