<svg width="30" height="30" viewBox="0 0 30 30" fill="none" xmlns="http://www.w3.org/2000/svg">
    <path fill-rule="evenodd" clip-rule="evenodd" d="M17.4749 3.26774C16.1081 1.9009 13.892 1.90091 12.5252 3.26774L3.2678 12.5251C1.90097 13.8919 1.90097 16.108 3.2678 17.4748L12.5251 26.7322C13.892 28.099 16.1081 28.099 17.4749 26.7322L26.7323 17.4748C28.0991 16.108 28.0991 13.8919 26.7323 12.5251L17.4749 3.26774ZM13.2323 3.97485C14.2086 2.99854 15.7915 2.99854 16.7678 3.97485L26.0252 13.2322C27.0015 14.2085 27.0015 15.7914 26.0252 16.7677L16.7678 26.0251C15.7915 27.0014 14.2086 27.0014 13.2323 26.0251L3.97491 16.7677C2.9986 15.7914 2.9986 14.2085 3.97491 13.2322L13.2323 3.97485ZM11 12.6194C11 11.2284 11.7721 9.95465 13 9.30987V13C13 13.2152 13.1378 13.4063 13.3419 13.4744L14.8419 13.9744C14.9446 14.0086 15.0555 14.0086 15.1581 13.9744L16.6581 13.4744C16.8623 13.4063 17 13.2152 17 13V9.30987C18.228 9.95465 19 11.2284 19 12.6194V12.75C19 14.246 18.1548 15.6136 16.8168 16.2826L16.2764 16.5528C16.107 16.6375 16 16.8106 16 17V22C16 22.2762 16.2239 22.5 16.5 22.5C16.7762 22.5 17 22.2762 17 22V17.309L17.264 17.1771C18.9408 16.3387 20 14.6248 20 12.75V12.6194C20 10.8247 18.986 9.18401 17.3808 8.3814C16.7464 8.06421 16 8.52551 16 9.23476V12.6396L15 12.973L14 12.6396V9.23476C14 8.52551 13.2536 8.06421 12.6193 8.3814C11.014 9.18401 10 10.8247 10 12.6194V12.75C10 14.6248 11.0593 16.3387 12.7361 17.1771L13 17.309V22C13 22.2762 13.2239 22.5 13.5 22.5C13.7762 22.5 14 22.2762 14 22V17C14 16.8106 13.893 16.6375 13.7236 16.5528L13.1833 16.2826C11.8453 15.6136 11 14.246 11 12.75V12.6194Z" fill="#2B2B2C"/>
</svg>
