<svg width="24" height="24" viewBox="0 0 24 24" fill="none" xmlns="http://www.w3.org/2000/svg">
<path fill-rule="evenodd" clip-rule="evenodd" d="M14.0506 2.84341C12.9181 1.71089 11.0819 1.71089 9.9494 2.84341L2.84352 9.9493C1.711 11.0818 1.711 12.918 2.84352 14.0505L9.9494 21.1564C11.0819 22.2889 12.9181 22.2889 14.0506 21.1564L21.1565 14.0505C22.289 12.918 22.289 11.0818 21.1565 9.9493L14.0506 2.84341ZM10.6565 3.55052C11.3985 2.80852 12.6015 2.80852 13.3435 3.55052L20.4494 10.6564C21.1914 11.3984 21.1914 12.6014 20.4494 13.3434L13.3435 20.4493C12.6015 21.1913 11.3985 21.1913 10.6565 20.4493L3.55062 13.3434C2.80863 12.6014 2.80863 11.3984 3.55062 10.6564L10.6565 3.55052ZM8.5 10.6851C8.5 9.5569 9.06595 8.50778 10 7.88722V11C10 11.1942 10.1125 11.3709 10.2886 11.4531L11.7886 12.153C11.9226 12.2156 12.0774 12.2156 12.2114 12.1531L13.7114 11.4531C13.8875 11.3709 14 11.1942 14 11V7.88722C14.934 8.50778 15.5 9.5569 15.5 10.6851V10.9823C15.5 12.2984 14.6987 13.482 13.4767 13.9708L13.3143 14.0357C13.1245 14.1117 13 14.2955 13 14.5V18C13 18.2761 13.2239 18.5 13.5 18.5C13.7761 18.5 14 18.2761 14 18V14.835C15.5158 14.1592 16.5 12.6522 16.5 10.9823V10.6851C16.5 9.15383 15.6966 7.73482 14.3835 6.94697C13.7746 6.58165 13 7.02024 13 7.7303V10.6815L12 11.1482L11 10.6815V7.7303C11 7.02024 10.2254 6.58165 9.6165 6.94697C8.30343 7.73482 7.5 9.15383 7.5 10.6851V10.8935C7.5 12.5866 8.4812 14.1173 10 14.8304V18C10 18.2761 10.2239 18.5 10.5 18.5C10.7761 18.5 11 18.2761 11 18V14.5C11 14.2955 10.8755 14.1117 10.6857 14.0357L10.6058 14.0038C9.33396 13.495 8.5 12.2632 8.5 10.8935V10.6851Z" fill="#2B2B2C"/>
</svg>
