<svg width="30" height="30" viewBox="0 0 30 30" fill="none" xmlns="http://www.w3.org/2000/svg">
<path d="M26.5 15C26.5 21.3513 21.3513 26.5 15 26.5C8.64873 26.5 3.5 21.3513 3.5 15C3.5 8.64873 8.64873 3.5 15 3.5C21.3513 3.5 26.5 8.64873 26.5 15Z" fill="#B2DFD7"/>
<path d="M9 17.5L8.5 14.5H21.5L21 17.5L19 20.5L16 21.5H13.5L11 20.5L9 17.5Z" fill="white"/>
<path fill-rule="evenodd" clip-rule="evenodd" d="M4 15C4 8.92487 8.92487 4 15 4C21.0751 4 26 8.92487 26 15C26 21.0751 21.0751 26 15 26C8.92487 26 4 21.0751 4 15ZM15 3C8.37258 3 3 8.37258 3 15C3 21.6274 8.37258 27 15 27C21.6274 27 27 21.6274 27 15C27 8.37258 21.6274 3 15 3ZM9.08579 10.6213C9.86684 9.84026 11.1332 9.84026 11.9142 10.6213L12.1464 10.8535C12.3417 11.0488 12.6583 11.0488 12.8536 10.8535C13.0488 10.6583 13.0488 10.3417 12.8536 10.1464L12.6213 9.9142C11.4497 8.74263 9.55025 8.74263 8.37868 9.9142L8.14645 10.1464C7.95118 10.3417 7.95118 10.6583 8.14645 10.8535C8.34171 11.0488 8.65829 11.0488 8.85355 10.8535L9.08579 10.6213ZM18.0858 10.6213C18.8668 9.84026 20.1332 9.84026 20.9142 10.6213L21.1464 10.8535C21.3417 11.0488 21.6583 11.0488 21.8536 10.8535C22.0488 10.6583 22.0488 10.3417 21.8536 10.1464L21.6213 9.9142C20.4497 8.74263 18.5503 8.74263 17.3787 9.9142L17.1464 10.1464C16.9512 10.3417 16.9512 10.6583 17.1464 10.8535C17.3417 11.0488 17.6583 11.0488 17.8536 10.8535L18.0858 10.6213ZM22 15.25V14.5C22 14.2239 21.7761 14 21.5 14H8.5C8.22386 14 8 14.2239 8 14.5V15.25C8 18.9779 11.0221 22 14.75 22H15.25C18.9779 22 22 18.9779 22 15.25ZM9 15.25V15H21V15.25C21 16.899 20.3059 18.3858 19.1939 19.4343C17.0253 16.806 12.9747 16.806 10.8061 19.4343C9.69411 18.3858 9 16.899 9 15.25ZM11.5906 20.055C12.4972 20.6524 13.583 21 14.75 21H15.25C16.417 21 17.5028 20.6524 18.4094 20.055C16.6404 17.9324 13.3596 17.9324 11.5906 20.055Z" fill="#2B2B2C"/>
</svg>
