<svg width="24" height="24" viewBox="0 0 24 24" fill="none" xmlns="http://www.w3.org/2000/svg">
<path d="M20.5 12C20.5 16.6944 16.6944 20.5 12 20.5C7.30558 20.5 3.5 16.6944 3.5 12C3.5 7.30558 7.30558 3.5 12 3.5C16.6944 3.5 20.5 7.30558 20.5 12Z" fill="#B2DFD7"/>
<path d="M16.5 11.5H7.5V12C7.5 14.4853 9.51472 16.5 12 16.5C14.4853 16.5 16.5 14.4853 16.5 12V11.5Z" fill="white"/>
<path fill-rule="evenodd" clip-rule="evenodd" d="M4 12C4 7.58172 7.58172 4 12 4C16.4183 4 20 7.58172 20 12C20 16.4183 16.4183 20 12 20C7.58172 20 4 16.4183 4 12ZM12 3C7.02944 3 3 7.02944 3 12C3 16.9706 7.02944 21 12 21C16.9706 21 21 16.9706 21 12C21 7.02944 16.9706 3 12 3ZM7.5 11C7.22386 11 7 11.2239 7 11.5V12C7 14.7614 9.23858 17 12 17C14.7614 17 17 14.7614 17 12V11.5C17 11.2239 16.7761 11 16.5 11H7.5ZM12 16C9.79086 16 8 14.2091 8 12H16C16 14.2091 14.2091 16 12 16ZM10.0607 8.76777C9.47487 8.18198 8.52513 8.18198 7.93934 8.76777L7.85355 8.85356C7.65829 9.04882 7.34171 9.04882 7.14645 8.85356C6.95118 8.65829 6.95118 8.34171 7.14645 8.14645L7.23223 8.06066C8.20854 7.08435 9.79146 7.08435 10.7678 8.06066L10.8536 8.14645C11.0488 8.34171 11.0488 8.65829 10.8536 8.85356C10.6583 9.04882 10.3417 9.04882 10.1464 8.85356L10.0607 8.76777ZM13.9393 8.76777C14.5251 8.18198 15.4749 8.18198 16.0607 8.76777L16.1464 8.85356C16.3417 9.04882 16.6583 9.04882 16.8536 8.85356C17.0488 8.65829 17.0488 8.34171 16.8536 8.14645L16.7678 8.06066C15.7915 7.08435 14.2085 7.08435 13.2322 8.06066L13.1464 8.14645C12.9512 8.34171 12.9512 8.65829 13.1464 8.85356C13.3417 9.04882 13.6583 9.04882 13.8536 8.85356L13.9393 8.76777Z" fill="#2B2B2C"/>
</svg>
