<svg width="30" height="30" viewBox="0 0 30 30" fill="none" xmlns="http://www.w3.org/2000/svg">
<path fill-rule="evenodd" clip-rule="evenodd" d="M4 15C4 8.92487 8.92487 4 15 4C21.0751 4 26 8.92487 26 15C26 21.0751 21.0751 26 15 26C8.92487 26 4 21.0751 4 15ZM15 3C8.37258 3 3 8.37258 3 15C3 21.6274 8.37258 27 15 27C21.6274 27 27 21.6274 27 15C27 8.37258 21.6274 3 15 3ZM9.5 14.5C9.22386 14.5 9 14.7239 9 15C9 15.2761 9.22386 15.5 9.5 15.5H20.5C20.7761 15.5 21 15.2761 21 15C21 14.7239 20.7761 14.5 20.5 14.5H9.5Z" fill="#2B2B2C"/>
</svg>
