<svg width="18" height="18" viewBox="0 0 18 18" fill="none" xmlns="http://www.w3.org/2000/svg">
<path fill-rule="evenodd" clip-rule="evenodd" d="M2.5 9C2.5 5.41015 5.41015 2.5 9 2.5C12.5899 2.5 15.5 5.41015 15.5 9C15.5 12.5899 12.5899 15.5 9 15.5C5.41015 15.5 2.5 12.5899 2.5 9ZM9 1.5C4.85786 1.5 1.5 4.85786 1.5 9C1.5 13.1421 4.85786 16.5 9 16.5C13.1421 16.5 16.5 13.1421 16.5 9C16.5 4.85786 13.1421 1.5 9 1.5ZM12.8536 6.85355C13.0488 6.65829 13.0488 6.34171 12.8536 6.14645C12.6583 5.95118 12.3417 5.95118 12.1464 6.14645L8 10.2929L6.35355 8.64645C6.15829 8.45118 5.84171 8.45118 5.64645 8.64645C5.45118 8.84171 5.45118 9.15829 5.64645 9.35355L7.64645 11.3536C7.84171 11.5488 8.15829 11.5488 8.35355 11.3536L12.8536 6.85355Z" fill="#2B2B2C"/>
</svg>
