<svg width="30" height="30" viewBox="0 0 30 30" fill="none" xmlns="http://www.w3.org/2000/svg">
<g clip-path="url(#clip0_6837_334)">
<path d="M15 3C8.37258 3 3 8.37258 3 15C3 21.6274 8.37258 27 15 27C21.6274 27 27 21.6274 27 15C27 8.37258 21.6274 3 15 3Z" fill="#037D67"/>
<path fill-rule="evenodd" clip-rule="evenodd" d="M22.2071 9.79289C22.5976 10.1834 22.5976 10.8166 22.2071 11.2071L14.2071 19.2071C13.8166 19.5976 13.1834 19.5976 12.7929 19.2071L8.79289 15.2071C8.40237 14.8166 8.40237 14.1834 8.79289 13.7929C9.18342 13.4024 9.81658 13.4024 10.2071 13.7929L13.5 17.0858L20.7929 9.79289C21.1834 9.40237 21.8166 9.40237 22.2071 9.79289Z" fill="#CCEAE4"/>
</g>
<defs>
<clipPath id="clip0_6837_334">
<rect width="30" height="30" fill="white"/>
</clipPath>
</defs>
</svg>
