<svg width="30" height="30" viewBox="0 0 30 30" fill="none" xmlns="http://www.w3.org/2000/svg">
<circle cx="15" cy="15" r="9" fill="white" stroke-width="0"/>
<path fill-rule="evenodd" clip-rule="evenodd" d="M3 15C3 8.37258 8.37258 3 15 3C21.6274 3 27 8.37258 27 15C27 21.6274 21.6274 27 15 27C8.37258 27 3 21.6274 3 15ZM21.8536 10.8536C22.0488 10.6583 22.0488 10.3417 21.8536 10.1464C21.6583 9.95118 21.3417 9.95118 21.1464 10.1464L13.5 17.7929L9.85355 14.1464C9.65829 13.9512 9.34171 13.9512 9.14645 14.1464C8.95118 14.3417 8.95118 14.6583 9.14645 14.8536L13.1464 18.8536C13.3417 19.0488 13.6583 19.0488 13.8536 18.8536L21.8536 10.8536Z" fill="#037D67"/>
</svg>
