<svg width="24" height="24" viewBox="0 0 24 24" fill="none" xmlns="http://www.w3.org/2000/svg">
<g clip-path="url(#clip0_6837_333)">
<path d="M12 3C7.02944 3 3 7.02944 3 12C3 16.9706 7.02944 21 12 21C16.9706 21 21 16.9706 21 12C21 7.02944 16.9706 3 12 3Z" fill="#037D67"/>
<path fill-rule="evenodd" clip-rule="evenodd" d="M17.1187 8.38128C17.4604 8.72299 17.4604 9.27701 17.1187 9.61872L11.6187 15.1187C11.277 15.4604 10.723 15.4604 10.3813 15.1187L7.88128 12.6187C7.53957 12.277 7.53957 11.723 7.88128 11.3813C8.22299 11.0396 8.77701 11.0396 9.11872 11.3813L11 13.2626L15.8813 8.38128C16.223 8.03957 16.777 8.03957 17.1187 8.38128Z" fill="#CCEAE4"/>
</g>
<defs>
<clipPath id="clip0_6837_333">
<rect width="24" height="24" fill="white"/>
</clipPath>
</defs>
</svg>
