<svg width="24" height="24" viewBox="0 0 24 24" fill="none" xmlns="http://www.w3.org/2000/svg">
<path d="M16 4L16 12.5L19 12.5C19.8284 12.5 20.5 11.8284 20.5 11L20.5 5.5C20.5 4.67157 19.8284 4 19 4L16 4Z" fill="#2B2B2C"/>
<path d="M16 13C15.7239 13 15.5 12.7761 15.5 12.5L15.5 4C15.5 3.72386 15.7239 3.5 16 3.5L19 3.5C20.1046 3.5 21 4.39543 21 5.5L21 11C21 12.1046 20.1046 13 19 13L16 13ZM20 5.5C20 4.94772 19.5523 4.5 19 4.5L16.5 4.5L16.5 12L19 12C19.5523 12 20 11.5523 20 11L20 5.5Z" fill="#2B2B2C"/>
<path d="M12.7109 21.2413C12.217 21.2989 11.7084 21.1473 11.2998 20.7657C10.9023 20.3944 10.6288 19.8342 10.5117 19.1085L9.77246 15.7833C9.6708 15.3258 9.26552 15.0002 8.79688 15.0001L4.27051 15.0001C3.03472 15 2.09468 13.89 2.29785 12.671L2.4541 11.7355C2.5006 11.4565 2.60584 11.1906 2.7627 10.9552L3.40527 9.99035C3.48374 9.87264 3.53631 9.73927 3.55957 9.59973L4.29785 5.17102C4.45862 4.20676 5.29295 3.5002 6.27051 3.50012L19 3.50012C20.1046 3.50012 21 4.39555 21 5.50012L21 11.0001C20.9999 12.1046 20.1045 13.0001 19 13.0001L16.4814 13.0001C16.3855 14.3906 15.9071 15.5587 15.4521 16.5255C15.1905 17.0815 14.9561 17.5341 14.7734 17.9679C14.5929 18.3968 14.5 18.7278 14.5 19.0001C14.4999 20.2215 13.6927 21.1268 12.7109 21.2413ZM20 5.50012C20 4.94783 19.5523 4.50012 19 4.50012L16.5 4.50012L16.5 12.0001L19 12.0001C19.5522 12.0001 19.9999 11.5523 20 11.0001L20 5.50012ZM13.5 19.0001C13.5 18.5226 13.6572 18.0407 13.8516 17.5792C14.0439 17.1225 14.3096 16.6061 14.5479 16.0997C15.0393 15.0554 15.5 13.887 15.5 12.5001L15.5 4.50012L6.27051 4.50012C5.78189 4.5002 5.36471 4.85317 5.28418 5.33508L4.5459 9.76476C4.49936 10.0438 4.39421 10.3097 4.23731 10.545L3.59473 11.5099C3.51639 11.6275 3.46369 11.7602 3.44043 11.8995L3.28418 12.8351C3.1826 13.4445 3.65266 14 4.27051 14.0001L8.79688 14.0001C9.73422 14.0002 10.5457 14.6515 10.749 15.5665L11.4883 18.8917C11.4906 18.9024 11.4925 18.9132 11.4941 18.9239C11.5841 19.5084 11.7852 19.85 11.9824 20.0343C12.1744 20.2136 12.3899 20.272 12.5947 20.2482C13.0109 20.1996 13.4999 19.7785 13.5 19.0001Z" fill="#2B2B2C"/>
</svg>
