<svg width="18" height="18" viewBox="0 0 18 18" fill="none" xmlns="http://www.w3.org/2000/svg">
<path d="M11.9999 3L11.9999 9.5L14.5 9.5C15.0523 9.5 15.5 9.05228 15.5 8.5L15.5 4C15.5 3.44771 15.0523 3 14.5 3L11.9999 3Z" fill="currentColor"/>
<path d="M12 10C11.7239 10 11.5 9.77614 11.5 9.5L11.5 3C11.5 2.72386 11.7239 2.5 12 2.5L14.5 2.5C15.3284 2.5 16 3.17157 16 4L16 8.5C16 9.32843 15.3284 10 14.5 10L12 10ZM15 4C15 3.72386 14.7761 3.5 14.5 3.5L12.5 3.5L12.5 9L14.5 9C14.7761 9 15 8.77614 15 8.5L15 4Z" fill="currentColor"/>
<path d="M9.57629 16.168C8.80342 16.4256 7.9802 15.9459 7.82336 15.1465L7.18665 11.9033C7.14045 11.669 6.93525 11.5001 6.69641 11.5L3.28137 11.5C2.30552 11.5 1.58864 10.5825 1.82532 9.63576L3.32532 3.63576C3.49237 2.96819 4.09319 2.50002 4.78137 2.50002L14.5001 2.50002C15.3286 2.50002 16.0001 3.17159 16.0001 4.00002L16.0001 8.50002C16.0001 9.32845 15.3285 10 14.5001 10L12.4493 10C12.3978 10.2731 12.3112 10.5505 12.2101 10.8223C12.0444 11.2674 11.8222 11.742 11.6007 12.211C11.145 13.1759 10.6952 14.1177 10.548 14.9746C10.4625 15.4719 10.1384 15.9806 9.57629 16.168ZM9.25989 15.2197C9.39275 15.1755 9.52391 15.0303 9.56262 14.8057C9.73795 13.7854 10.2605 12.7072 10.6964 11.7842C10.9207 11.3093 11.1241 10.8724 11.2726 10.4737C11.4229 10.0699 11.5001 9.74811 11.5001 9.50002L11.5001 3.50002L4.78137 3.50002C4.55194 3.50002 4.35167 3.65634 4.29602 3.87893L2.79602 9.87893C2.71722 10.1945 2.95613 10.5 3.28137 10.5L6.69641 10.5C7.41336 10.5001 8.02992 11.0075 8.16809 11.711L8.80481 14.9541C8.84556 15.1618 9.0591 15.2866 9.25989 15.2197ZM15.0001 4.00002C15.0001 3.72388 14.7763 3.50002 14.5001 3.50002L12.5001 3.50002L12.5001 9.00002L14.5001 9.00002C14.7763 9.00002 15.0001 8.77616 15.0001 8.50002L15.0001 4.00002Z" fill="currentColor"/>
</svg>
