<svg width="30" height="30" viewBox="0 0 30 30" fill="none" xmlns="http://www.w3.org/2000/svg">
<path d="M20 5.50002L20 16L25.0015 16C25.5538 16 26 15.5523 26 15L26 6.08681C26 5.50176 25.5 5.04167 24.917 5.09026L20 5.50002Z" fill="#2B2B2C"/>
<path d="M20 16.5C19.7239 16.5 19.5 16.2761 19.5 16L19.5 5.5C19.5001 5.24012 19.6991 5.02378 19.9581 5.00195L24.875 4.5918C25.7496 4.51892 26.5 5.20935 26.5 6.08691L26.5 15C26.5 15.8273 25.8312 16.4997 25.002 16.5L20 16.5ZM25.5 6.08691C25.5 5.79439 25.2496 5.56457 24.9581 5.58887L20.5 5.95996L20.5 15.5L25.002 15.5C25.277 15.4997 25.5 15.2769 25.5 15L25.5 6.08691Z" fill="#2B2B2C"/>
<path d="M6.00004 9.68193C5.99993 10.3384 5.73867 10.9677 5.27446 11.4319C4.85708 11.8494 4.72911 12.4756 4.94829 13.0237L5.08696 13.3724C5.383 14.1126 5.30832 14.9492 4.88579 15.6253L4.51372 16.221C4.02987 16.9954 4.58684 18.0003 5.50005 18.0003L10.8604 18.0003C12.0521 18.0003 13.0779 18.8415 13.3116 20.0101L14.2569 24.7327C14.312 25.0083 14.4413 25.2498 14.6016 25.4036C14.754 25.5497 14.9234 25.6107 15.1114 25.5843C15.4102 25.5422 15.7045 25.433 15.9444 25.2054C16.1813 24.9804 16.4093 24.5981 16.5049 23.929C16.7683 22.0855 17.5568 20.5177 18.2442 19.2054C18.5933 18.539 18.9095 17.9531 19.1416 17.4065C19.3737 16.8602 19.5 16.4014 19.5 16.0003L19.5 5.98076L8.89165 5.55595C8.25717 5.53077 7.67548 5.90786 7.4395 6.49736L7.11626 7.304C6.99053 7.61832 6.80289 7.90445 6.56352 8.14384L6.4395 8.26787C6.15821 8.54917 6.00004 8.9306 6.00004 9.32841L6.00004 9.68193ZM5.00004 9.32841C5.00004 8.66538 5.26364 8.02967 5.73247 7.56083L5.85649 7.43681C6.0001 7.29318 6.11309 7.12149 6.18852 6.9329L6.51079 6.12626C6.90399 5.14331 7.87387 4.51477 8.93168 4.55693L19.9864 4.99931L24.875 4.59208C25.7496 4.5192 26.5 5.20964 26.5 6.0872L26.5 15.0003C26.4999 15.8274 25.8311 16.5 25.002 16.5003C23.8755 16.5003 21.999 16.5003 20.4581 16.5003C20.3901 16.9338 20.2437 17.3683 20.0616 17.7972C19.8094 18.3909 19.4692 19.0235 19.1309 19.6692C18.4434 20.9818 17.7318 22.4143 17.4952 24.0706C17.3746 24.9148 17.0653 25.5205 16.6329 25.931C16.2033 26.3386 15.6958 26.5118 15.251 26.5745C14.7119 26.6504 14.2463 26.4478 13.9092 26.1243C13.5799 25.8082 13.3653 25.3736 13.2764 24.929L12.3311 20.2054C12.1907 19.5045 11.5753 19.0003 10.8604 19.0003L5.50005 19.0003C3.80135 19.0003 2.76576 17.1312 3.66606 15.6907L4.03813 15.095C4.29147 14.6895 4.33678 14.1875 4.15922 13.7435L4.01958 13.3958C3.65176 12.4762 3.86715 11.4252 4.56743 10.7249C4.84411 10.4482 4.99993 10.0732 5.00004 9.68193L5.00004 9.32841ZM25.5 6.0872C25.5 5.79468 25.2496 5.56388 24.9581 5.58818L20.5 5.96025L20.5 15.5003C22.033 15.5003 23.8857 15.5003 25.002 15.5003C25.2769 15.5 25.4999 15.2771 25.5 15.0003L25.5 6.0872Z" fill="#2B2B2C"/>
</svg>
