<svg width="18" height="18" viewBox="0 0 18 18" fill="none" xmlns="http://www.w3.org/2000/svg">
<path d="M6.00011 15V8.5H3.5C2.94772 8.5 2.5 8.94772 2.5 9.5V14C2.5 14.5523 2.94772 15 3.5 15H6.00011Z" fill="#2B2B2C"/>
<path d="M6 8C6.27614 8 6.5 8.22386 6.5 8.5V15C6.5 15.2761 6.27614 15.5 6 15.5H3.5C2.67157 15.5 2 14.8284 2 14V9.5C2 8.67157 2.67157 8 3.5 8H6ZM3 14C3 14.2761 3.22386 14.5 3.5 14.5H5.5V9H3.5C3.22386 9 3 9.22386 3 9.5V14Z" fill="#2B2B2C"/>
<path d="M8.42371 1.83201C9.19658 1.57438 10.0198 2.05405 10.1766 2.85349L10.8134 6.09666C10.8595 6.33095 11.0647 6.49994 11.3036 6.49998H14.7186C15.6945 6.49998 16.4114 7.41752 16.1747 8.36424L14.6747 14.3642C14.5076 15.0318 13.9068 15.5 13.2186 15.5H3.49988C2.67145 15.5 1.99988 14.8284 1.99988 14V9.49998C1.99988 8.67155 2.67145 7.99998 3.49988 7.99998H5.55066C5.6022 7.7269 5.68876 7.44946 5.78992 7.17771C5.95561 6.73263 6.17782 6.258 6.39929 5.78904C6.85498 4.82415 7.30477 3.8823 7.45203 3.02537C7.53747 2.52813 7.86163 2.01943 8.42371 1.83201ZM8.74011 2.78025C8.60725 2.82454 8.47609 2.96969 8.43738 3.19431C8.26205 4.21462 7.7395 5.29278 7.30359 6.2158C7.07928 6.69075 6.87589 7.12755 6.72742 7.52635C6.57709 7.93014 6.49986 8.25189 6.49988 8.49998V14.5H13.2186C13.4481 14.5 13.6483 14.3437 13.704 14.1211L15.204 8.12107C15.2828 7.80554 15.0439 7.49998 14.7186 7.49998H11.3036C10.5866 7.49994 9.97008 6.99253 9.83191 6.28904L9.19519 3.04588C9.15444 2.8382 8.9409 2.71343 8.74011 2.78025ZM2.99988 14C2.99988 14.2761 3.22374 14.5 3.49988 14.5H5.49988V8.99998H3.49988C3.22374 8.99998 2.99988 9.22384 2.99988 9.49998V14Z" fill="#2B2B2C"/>
</svg>
