<svg width="24" height="24" viewBox="0 0 24 24" fill="none" xmlns="http://www.w3.org/2000/svg">
<path d="M8 20V11.5H5C4.17157 11.5 3.5 12.1716 3.5 13V18.5C3.5 19.3284 4.17157 20 5 20H8Z" fill="#2B2B2C"/>
<path d="M8 11C8.27614 11 8.5 11.2239 8.5 11.5V20C8.5 20.2761 8.27614 20.5 8 20.5H5C3.89543 20.5 3 19.6046 3 18.5V13C3 11.8954 3.89543 11 5 11H8ZM4 18.5C4 19.0523 4.44772 19.5 5 19.5H7.5V12H5C4.44772 12 4 12.4477 4 13V18.5Z" fill="#2B2B2C"/>
<path d="M11.2891 2.75867C11.783 2.70106 12.2916 2.85267 12.7002 3.23426C13.0977 3.60558 13.3712 4.16582 13.4883 4.89148L14.2275 8.21668C14.3292 8.67417 14.7345 8.99982 15.2031 8.99988H19.7295C20.9653 8.99999 21.9053 10.11 21.7021 11.329L21.5459 12.2645C21.4994 12.5435 21.3942 12.8094 21.2373 13.0448L20.5947 14.0096C20.5163 14.1274 20.4637 14.2607 20.4404 14.4003L19.7021 18.829C19.5414 19.7932 18.7071 20.4998 17.7295 20.4999H5C3.89543 20.4999 3 19.6045 3 18.4999V12.9999C3.0001 11.8954 3.89549 10.9999 5 10.9999H7.51855C7.61448 9.60942 8.09288 8.4413 8.54785 7.47449C8.80951 6.91849 9.0439 6.46593 9.22656 6.03211C9.40715 5.60316 9.5 5.27224 9.5 4.99988C9.50008 3.77846 10.3073 2.87319 11.2891 2.75867ZM4 18.4999C4 19.0522 4.44772 19.4999 5 19.4999H7.5V11.9999H5C4.44777 11.9999 4.0001 12.4477 4 12.9999V18.4999ZM10.5 4.99988C10.5 5.47744 10.3428 5.95929 10.1484 6.42078C9.95614 6.87749 9.69043 7.39393 9.45215 7.90027C8.96069 8.94463 8.50004 10.113 8.5 11.4999V19.4999H17.7295C18.2181 19.4998 18.6353 19.1468 18.7158 18.6649L19.4541 14.2352C19.5006 13.9562 19.6058 13.6903 19.7627 13.455L20.4053 12.4901C20.4836 12.3725 20.5363 12.2398 20.5596 12.1005L20.7158 11.1649C20.8174 10.5555 20.3473 9.99999 19.7295 9.99988H15.2031C14.2658 9.99982 13.4543 9.34851 13.251 8.43348L12.5117 5.10828C12.5094 5.09762 12.5075 5.08685 12.5059 5.07605C12.4159 4.49155 12.2148 4.15 12.0176 3.9657C11.8256 3.78641 11.6101 3.72805 11.4053 3.75184C10.9891 3.80038 10.5001 4.22151 10.5 4.99988Z" fill="#2B2B2C"/>
</svg>
