<svg width="30" height="30" viewBox="0 0 30 30" fill="none" xmlns="http://www.w3.org/2000/svg">
<path d="M10 24.5V14L4.99852 14C4.44624 14 4 14.4477 4 15V23.9132C4 24.4982 4.50003 24.9583 5.08305 24.9097L10 24.5Z" fill="#2B2B2C"/>
<path d="M10 13.5C10.2761 13.5 10.5 13.7239 10.5 14V24.5C10.5 24.7599 10.3009 24.9762 10.042 24.998L5.125 25.4082C4.25047 25.4811 3.5 24.7906 3.5 23.9131V15C3.5 14.1727 4.16888 13.5003 4.99805 13.5H10ZM4.5 23.9131C4.5 24.2056 4.75048 24.4354 5.04199 24.4111L9.5 24.04V14.5H4.99805C4.72309 14.5003 4.5 14.7231 4.5 15V23.9131Z" fill="#2B2B2C"/>
<path d="M24 20.3181C24.0001 19.6616 24.2614 19.0323 24.7256 18.5681C25.143 18.1506 25.2709 17.5244 25.0518 16.9763L24.9131 16.6276C24.617 15.8874 24.6917 15.0508 25.1143 14.3747L25.4863 13.779C25.9702 13.0046 25.4132 11.9997 24.5 11.9997H19.1396C17.9479 11.9997 16.9222 11.1585 16.6885 9.98995L15.7432 5.26729C15.6881 4.99175 15.5587 4.75022 15.3984 4.59639C15.246 4.45029 15.0766 4.38926 14.8887 4.41573C14.5898 4.45782 14.2955 4.56697 14.0557 4.79464C13.8187 5.01959 13.5907 5.40189 13.4951 6.071C13.2317 7.91452 12.4433 9.48231 11.7559 10.7946C11.4068 11.4611 11.0905 12.0469 10.8584 12.5935C10.6264 13.1398 10.5001 13.5986 10.5 13.9997V24.0192L21.1084 24.444C21.7429 24.4692 22.3246 24.0921 22.5605 23.5026L22.8838 22.696C23.0095 22.3817 23.1972 22.0955 23.4365 21.8562L23.5605 21.7321C23.8418 21.4508 24 21.0694 24 20.6716V20.3181ZM25 20.6716C25 21.3346 24.7364 21.9703 24.2676 22.4392L24.1436 22.5632C23.9999 22.7068 23.887 22.8785 23.8115 23.0671L23.4893 23.8737C23.0961 24.8567 22.1262 25.4852 21.0684 25.4431L10.0137 25.0007L5.125 25.4079C4.25047 25.4808 3.5 24.7904 3.5 23.9128V14.9997C3.50017 14.1726 4.16899 13.5 4.99805 13.4997C6.12455 13.4997 8.00101 13.4997 9.54199 13.4997C9.60997 13.0662 9.75635 12.6317 9.93848 12.2028C10.1907 11.6091 10.5309 10.9765 10.8691 10.3308C11.5567 9.01819 12.2683 7.58571 12.5049 5.9294C12.6255 5.08523 12.9347 4.47951 13.3672 4.06905C13.7967 3.66137 14.3042 3.48817 14.749 3.42549C15.2881 3.34956 15.7537 3.55217 16.0908 3.87569C16.4202 4.19177 16.6347 4.62643 16.7236 5.071L17.6689 9.79464C17.8093 10.4955 18.4248 10.9997 19.1396 10.9997H24.5C26.1987 10.9997 27.2343 12.8688 26.334 14.3093L25.9619 14.905C25.7086 15.3105 25.6633 15.8125 25.8408 16.2565L25.9805 16.6042C26.3483 17.5238 26.1329 18.5748 25.4326 19.2751C25.1559 19.5518 25.0001 19.9268 25 20.3181V20.6716ZM4.5 23.9128C4.5 24.2053 4.75048 24.4361 5.04199 24.4118L9.5 24.0398V14.4997C7.96706 14.4997 6.11434 14.4997 4.99805 14.4997C4.72319 14.5 4.50017 14.7229 4.5 14.9997V23.9128Z" fill="#2B2B2C"/>
</svg>
