<svg width="30" height="30" viewBox="0 0 30 30" fill="none" xmlns="http://www.w3.org/2000/svg">
<path d="M6 9.68192C5.99989 10.3384 5.73863 10.9677 5.27442 11.4319C4.85704 11.8494 4.72907 12.4756 4.94824 13.0237L5.08692 13.3724C5.38295 14.1126 5.30827 14.9492 4.88574 15.6253L4.51367 16.221C4.02983 16.9954 4.5868 18.0003 5.5 18.0003L10.8604 18.0003C12.0521 18.0003 13.0778 18.8415 13.3115 20.0101L14.2568 24.7327C14.3119 25.0083 14.4413 25.2498 14.6016 25.4036C14.754 25.5497 14.9234 25.6107 15.1113 25.5843C15.4102 25.5422 15.7045 25.433 15.9443 25.2054C16.1813 24.9804 16.4093 24.5981 16.5049 23.929C16.7683 22.0855 17.5567 20.5177 18.2441 19.2054C18.5932 18.5389 18.9095 17.9531 19.1416 17.4065C19.3736 16.8602 19.4999 16.4014 19.5 16.0003L19.5 5.98075L8.8916 5.55595C8.25713 5.53076 7.67544 5.90786 7.43945 6.49735L7.11621 7.304C6.99048 7.61831 6.80285 7.90445 6.56348 8.14384L6.43945 8.26786C6.15817 8.54917 6 8.9306 6 9.32841L6 9.68192ZM5 9.32841C5 8.66538 5.2636 8.02967 5.73242 7.56083L5.85645 7.43681C6.00006 7.29318 6.11304 7.12148 6.18848 6.9329L6.51074 6.12626C6.90394 5.14331 7.87383 4.51477 8.93164 4.55693L19.9863 4.99931L24.875 4.59208C25.7495 4.5192 26.5 5.20964 26.5 6.0872L26.5 15.0003C26.4998 15.8274 25.831 16.5 25.002 16.5003C23.8755 16.5003 21.999 16.5003 20.458 16.5003C20.39 16.9338 20.2436 17.3683 20.0615 17.7972C19.8093 18.3909 19.4691 19.0235 19.1309 19.6692C18.4433 20.9818 17.7317 22.4143 17.4951 24.0706C17.3745 24.9148 17.0653 25.5205 16.6328 25.9309C16.2033 26.3386 15.6958 26.5118 15.251 26.5745C14.7119 26.6504 14.2463 26.4478 13.9092 26.1243C13.5798 25.8082 13.3653 25.3736 13.2764 24.929L12.3311 20.2054C12.1907 19.5045 11.5752 19.0003 10.8604 19.0003L5.5 19.0003C3.8013 19.0003 2.76572 17.1312 3.66602 15.6907L4.03809 15.095C4.29143 14.6894 4.33673 14.1875 4.15918 13.7434L4.01953 13.3958C3.65171 12.4762 3.86711 11.4252 4.56738 10.7249C4.84406 10.4482 4.99989 10.0732 5 9.68192L5 9.32841ZM25.5 6.0872C25.5 5.79468 25.2495 5.56388 24.958 5.58818L20.5 5.96025L20.5 15.5003C22.0329 15.5003 23.8857 15.5003 25.002 15.5003C25.2768 15.5 25.4998 15.2771 25.5 15.0003L25.5 6.0872Z" fill="#2B2B2C"/>
</svg>
