<svg width="18" height="18" viewBox="0 0 18 18" fill="none" xmlns="http://www.w3.org/2000/svg">
<path fill-rule="evenodd" clip-rule="evenodd" d="M10.1029 2.08364C9.63234 1.20129 8.36763 1.20129 7.89705 2.08364L1.14705 14.7399C0.702975 15.5725 1.30634 16.5781 2.24999 16.5781H15.75C16.6936 16.5781 17.297 15.5725 16.8529 14.7399L10.1029 2.08364ZM8.7794 2.55423C8.87352 2.37776 9.12646 2.37776 9.22057 2.55423L15.9706 15.2105C16.0594 15.377 15.9387 15.5781 15.75 15.5781H2.24999C2.06126 15.5781 1.94058 15.377 2.0294 15.2105L8.7794 2.55423ZM9.49999 7.07812C9.49999 6.80198 9.27613 6.57812 8.99999 6.57812C8.72384 6.57812 8.49999 6.80198 8.49999 7.07812V11.0781C8.49999 11.3543 8.72384 11.5781 8.99999 11.5781C9.27613 11.5781 9.49999 11.3543 9.49999 11.0781V7.07812ZM8.99997 13.5781C9.34515 13.5781 9.62497 13.2983 9.62497 12.9531C9.62497 12.6079 9.34515 12.3281 8.99997 12.3281C8.65479 12.3281 8.37497 12.6079 8.37497 12.9531C8.37497 13.2983 8.65479 13.5781 8.99997 13.5781Z" fill="#2B2B2C"/>
</svg>
