<svg width="18" height="18" viewBox="0 0 18 18" fill="none" xmlns="http://www.w3.org/2000/svg">
<path d="M15.7501 15.5H2.25006C1.68387 15.5 1.32185 14.8966 1.58829 14.3971L8.33829 1.74081C8.62065 1.2114 9.37947 1.2114 9.66182 1.74081L16.4118 14.3971C16.6783 14.8966 16.3162 15.5 15.7501 15.5Z" fill="#FDF3BA"/>
<path fill-rule="evenodd" clip-rule="evenodd" d="M7.89708 1.50551C8.36766 0.623162 9.63237 0.623161 10.103 1.50552L16.853 14.1618C17.297 14.9944 16.6937 16 15.75 16H2.25002C1.30637 16 0.703006 14.9944 1.14708 14.1618L7.89708 1.50551ZM9.2206 1.9761C9.12649 1.79963 8.87355 1.79963 8.77943 1.9761L2.02943 14.6324C1.94061 14.7989 2.06129 15 2.25002 15H15.75C15.9387 15 16.0594 14.7989 15.9706 14.6324L9.2206 1.9761Z" fill="#E5A80C"/>
<path fill-rule="evenodd" clip-rule="evenodd" d="M9.5 6.5C9.5 6.22386 9.27614 6 9 6C8.72386 6 8.5 6.22386 8.5 6.5V10.5C8.5 10.7761 8.72386 11 9 11C9.27614 11 9.5 10.7761 9.5 10.5V6.5ZM9 13C9.34518 13 9.625 12.7202 9.625 12.375C9.625 12.0298 9.34518 11.75 9 11.75C8.65482 11.75 8.375 12.0298 8.375 12.375C8.375 12.7202 8.65482 13 9 13Z" fill="#2B2B2C"/>
</svg>
