<svg width="30" height="30" viewBox="0 0 30 30" fill="none" xmlns="http://www.w3.org/2000/svg">
<g clip-path="url(#clip0_6837_336)">
<path d="M16.7608 4.37214C16.0034 2.97556 13.9966 2.97556 13.2392 4.37214L2.74453 23.7228C2.0218 25.0554 2.98788 26.6753 4.50531 26.6753H25.4947C27.0121 26.6753 27.9782 25.0554 27.2555 23.7228L16.7608 4.37214Z" fill="#E5A80C"/>
<path d="M16.0012 21.6753C16.0012 22.2276 15.553 22.6753 15 22.6753C14.447 22.6753 13.9987 22.2276 13.9987 21.6753C13.9987 21.123 14.447 20.6753 15 20.6753C15.553 20.6753 16.0012 21.123 16.0012 21.6753Z" fill="#2B2B2C"/>
<path fill-rule="evenodd" clip-rule="evenodd" d="M15 9.67529C15.553 9.67529 16.0012 10.123 16.0012 10.6753V18.1753C16.0012 18.7276 15.553 19.1753 15 19.1753C14.447 19.1753 13.9987 18.7276 13.9987 18.1753V10.6753C13.9987 10.123 14.447 9.67529 15 9.67529Z" fill="#2B2B2C"/>
</g>
<defs>
<clipPath id="clip0_6837_336">
<rect width="30" height="30" fill="white"/>
</clipPath>
</defs>
</svg>
