<svg width="24" height="24" viewBox="0 0 24 24" fill="none" xmlns="http://www.w3.org/2000/svg">
<path d="M20.8048 20.5H3.19516C2.43366 20.5 1.95159 19.6829 2.31991 19.0164L11.1247 3.08382C11.5052 2.3954 12.4948 2.3954 12.8752 3.08382L21.6801 19.0164C22.0484 19.6829 21.5663 20.5 20.8048 20.5Z" fill="#FDF3BA"/>
<path fill-rule="evenodd" clip-rule="evenodd" d="M10.6872 2.84198C11.2578 1.80935 12.7422 1.80935 13.3129 2.84198L22.1177 18.7745C22.6702 19.7743 21.9471 21 20.8049 21H3.1952C2.05296 21 1.32985 19.7743 1.88234 18.7745L10.6872 2.84198ZM12.4376 3.32566C12.2474 2.98145 11.7526 2.98145 11.5624 3.32566L2.75758 19.2582C2.57342 19.5915 2.81445 20 3.1952 20H20.8049C21.1856 20 21.4266 19.5914 21.2425 19.2582L12.4376 3.32566Z" fill="#E5A80C"/>
<path fill-rule="evenodd" clip-rule="evenodd" d="M12.5 8.5C12.5 8.22386 12.2761 8 12 8C11.7239 8 11.5 8.22386 11.5 8.5V14.5C11.5 14.7761 11.7239 15 12 15C12.2761 15 12.5 14.7761 12.5 14.5V8.5ZM12 17.5C12.4142 17.5 12.75 17.1642 12.75 16.75C12.75 16.3358 12.4142 16 12 16C11.5858 16 11.25 16.3358 11.25 16.75C11.25 17.1642 11.5858 17.5 12 17.5Z" fill="#2B2B2C"/>
</svg>
