<svg width="30" height="30" viewBox="0 0 30 30" fill="none" xmlns="http://www.w3.org/2000/svg">
<g clip-path="url(#clip0_2107_3307)">
<path fill-rule="evenodd" clip-rule="evenodd" d="M16.7608 4.37214C16.0034 2.97556 13.9966 2.97556 13.2392 4.37214L2.74453 23.7228C2.0218 25.0554 2.98788 26.6753 4.50531 26.6753H25.4947C27.0121 26.6753 27.9782 25.0554 27.2555 23.7228L16.7608 4.37214ZM14.1196 4.84842C14.4983 4.15013 15.5017 4.15013 15.8804 4.84842L26.3751 24.199C26.7364 24.8653 26.2534 25.6753 25.4947 25.6753H4.50531C3.74659 25.6753 3.26355 24.8653 3.62492 24.199L14.1196 4.84842ZM15 10.1753C15.2765 10.1753 15.5006 10.3992 15.5006 10.6753V18.6753C15.5006 18.9514 15.2765 19.1753 15 19.1753C14.7235 19.1753 14.4994 18.9514 14.4994 18.6753V10.6753C14.4994 10.3992 14.7235 10.1753 15 10.1753ZM15.8761 21.5503C15.8761 22.0335 15.4839 22.4253 15 22.4253C14.5161 22.4253 14.1239 22.0335 14.1239 21.5503C14.1239 21.067 14.5161 20.6753 15 20.6753C15.4839 20.6753 15.8761 21.067 15.8761 21.5503Z" fill="#2B2B2C"/>
</g>
<defs>
<clipPath id="clip0_2107_3307">
<rect width="30" height="30" fill="white"/>
</clipPath>
</defs>
</svg>
