<svg width="12" height="12" viewBox="0 0 12 12" fill="none" xmlns="http://www.w3.org/2000/svg">
<g clip-path="url(#clip0_2107_3306)">
<path fill-rule="evenodd" clip-rule="evenodd" d="M6.88494 1.571C6.51003 0.858661 5.49002 0.858656 5.11511 1.571L0.943287 9.49745C0.59281 10.1634 1.07569 10.9632 1.82821 10.9632H10.1718C10.9244 10.9632 11.4072 10.1634 11.0568 9.49745L6.88494 1.571ZM1.82821 9.9632L6.00002 2.03674L10.1718 9.9632L1.82821 9.9632ZM6.50002 4.9632C6.50002 4.68705 6.27617 4.4632 6.00002 4.4632C5.72388 4.4632 5.50002 4.68705 5.50002 4.9632V6.9632C5.50002 7.23934 5.72388 7.4632 6.00002 7.4632C6.27617 7.4632 6.50002 7.23934 6.50002 6.9632V4.9632ZM5.99994 8.96326C6.27608 8.96326 6.49994 8.7394 6.49994 8.46326C6.49994 8.18711 6.27608 7.96326 5.99994 7.96326C5.7238 7.96326 5.49994 8.18711 5.49994 8.46326C5.49994 8.7394 5.7238 8.96326 5.99994 8.96326Z" fill="#2B2B2C"/>
</g>
<defs>
<clipPath id="clip0_2107_3306">
<rect width="12" height="12" fill="white"/>
</clipPath>
</defs>
</svg>
