<svg width="24" height="24" viewBox="0 0 24 24" fill="none" xmlns="http://www.w3.org/2000/svg">
<path fill-rule="evenodd" clip-rule="evenodd" d="M13.3129 3.30816C12.7422 2.27553 11.2578 2.27553 10.6871 3.30816L1.88231 19.2407C1.32982 20.2404 2.05293 21.4662 3.19517 21.4662H20.8048C21.9471 21.4662 22.6702 20.2404 22.1177 19.2407L13.3129 3.30816ZM11.5624 3.79185C11.7526 3.44764 12.2474 3.44764 12.4376 3.79185L21.2424 19.7244C21.4266 20.0576 21.1856 20.4662 20.8048 20.4662H3.19517C2.81442 20.4662 2.57339 20.0576 2.75755 19.7244L11.5624 3.79185ZM12.5 8.96624C12.5 8.69009 12.2761 8.46624 12 8.46624C11.7239 8.46624 11.5 8.69009 11.5 8.96624V14.9662C11.5 15.2424 11.7239 15.4662 12 15.4662C12.2761 15.4662 12.5 15.2424 12.5 14.9662V8.96624ZM12 17.9662C12.4142 17.9662 12.75 17.6304 12.75 17.2162C12.75 16.802 12.4142 16.4662 12 16.4662C11.5858 16.4662 11.25 16.802 11.25 17.2162C11.25 17.6304 11.5858 17.9662 12 17.9662Z" fill="#2B2B2C"/>
</svg>
