<svg width="30" height="30" viewBox="0 0 30 30" fill="none" xmlns="http://www.w3.org/2000/svg">
<path fill-rule="evenodd" clip-rule="evenodd" d="M16.7586 3.69685C16.0021 2.30027 13.9979 2.30027 13.2414 3.69685L2.75983 23.0475C2.03801 24.3801 3.00288 26 4.51842 26H25.4816C26.9971 26 27.962 24.3801 27.2402 23.0475L16.7586 3.69685ZM14.1207 4.17313C14.4989 3.47484 15.501 3.47484 15.8793 4.17313L26.3609 23.5237C26.7218 24.19 26.2393 25 25.4816 25H4.51842C3.76065 25 3.27821 24.19 3.63912 23.5237L14.1207 4.17313ZM15 9.5C15.2761 9.5 15.5 9.72386 15.5 10V18C15.5 18.2761 15.2761 18.5 15 18.5C14.7239 18.5 14.5 18.2761 14.5 18V10C14.5 9.72386 14.7239 9.5 15 9.5ZM15.875 20.875C15.875 21.3582 15.4832 21.75 15 21.75C14.5168 21.75 14.125 21.3582 14.125 20.875C14.125 20.3918 14.5168 20 15 20C15.4832 20 15.875 20.3918 15.875 20.875Z" fill="#2B2B2C"/>
</svg>
