<svg width="12" height="12" viewBox="0 0 12 12" fill="none" xmlns="http://www.w3.org/2000/svg">
<path fill-rule="evenodd" clip-rule="evenodd" d="M6.885 1.10774C6.51009 0.395404 5.49008 0.3954 5.11517 1.10774L0.943348 9.03419C0.592871 9.7001 1.07575 10.4999 1.82827 10.4999H10.1719C10.9244 10.4999 11.4073 9.7001 11.0568 9.03419L6.885 1.10774Z" fill="#2B2B2C" stroke-width="0"/>
<path fill-rule="evenodd" clip-rule="evenodd" d="M5.11517 1.10774C5.49008 0.3954 6.51009 0.395404 6.885 1.10774L11.0568 9.03419C11.4073 9.7001 10.9244 10.4999 10.1719 10.4999H1.82827C1.07575 10.4999 0.592871 9.7001 0.943348 9.03419L5.11517 1.10774ZM6 4C6.27614 4 6.5 4.22386 6.5 4.5V6.5C6.5 6.77614 6.27614 7 6 7C5.72386 7 5.5 6.77614 5.5 6.5V4.5C5.5 4.22386 5.72386 4 6 4ZM6.5 8C6.5 8.27614 6.27614 8.5 6 8.5C5.72386 8.5 5.5 8.27614 5.5 8C5.5 7.72386 5.72386 7.5 6 7.5C6.27614 7.5 6.5 7.72386 6.5 8Z" fill="#E5A80C"/>
</svg>
