<svg width="30" height="30" viewBox="0 0 30 30" fill="none" xmlns="http://www.w3.org/2000/svg">
<path d="M22.5 25L16 7L13.5 6L8.5 24L22.5 25Z" fill="#2B2B2C"/>
<path fill-rule="evenodd" clip-rule="evenodd" d="M13.2414 3.69685C13.9979 2.30027 16.0021 2.30027 16.7586 3.69685L27.2402 23.0475C27.962 24.3801 26.9971 26 25.4816 26H4.51842C3.00288 26 2.03801 24.3801 2.75983 23.0475L13.2414 3.69685ZM15 9.5C15.2761 9.5 15.5 9.72386 15.5 10V18C15.5 18.2761 15.2761 18.5 15 18.5C14.7239 18.5 14.5 18.2761 14.5 18V10C14.5 9.72386 14.7239 9.5 15 9.5ZM15.875 20.875C15.875 21.3582 15.4832 21.75 15 21.75C14.5168 21.75 14.125 21.3582 14.125 20.875C14.125 20.3918 14.5168 20 15 20C15.4832 20 15.875 20.3918 15.875 20.875Z" fill="#E5A80C"/>
</svg>
