<svg width="12" height="12" viewBox="0 0 12 12" fill="none" xmlns="http://www.w3.org/2000/svg">
<g clip-path="url(#clip0_2107_3300)">
<path fill-rule="evenodd" clip-rule="evenodd" d="M6.88494 1.571C6.51003 0.858661 5.49002 0.858656 5.1151 1.571L0.943287 9.49745C0.59281 10.1634 1.07569 10.9632 1.8282 10.9632H10.1718C10.9244 10.9632 11.4072 10.1634 11.0568 9.49745L6.88494 1.571Z" fill="#E5A80C"/>
<path fill-rule="evenodd" clip-rule="evenodd" d="M6.49994 4.96326C6.49994 4.68711 6.27608 4.46326 5.99994 4.46326C5.7238 4.46326 5.49994 4.68711 5.49994 4.96326V6.96326C5.49994 7.2394 5.7238 7.46326 5.99994 7.46326C6.27608 7.46326 6.49994 7.2394 6.49994 6.96326V4.96326ZM5.99994 8.96326C6.27608 8.96326 6.49994 8.7394 6.49994 8.46326C6.49994 8.18711 6.27608 7.96326 5.99994 7.96326C5.7238 7.96326 5.49994 8.18711 5.49994 8.46326C5.49994 8.7394 5.7238 8.96326 5.99994 8.96326Z" fill="#2B2B2C"/>
</g>
<defs>
<clipPath id="clip0_2107_3300">
<rect width="12" height="12" fill="white"/>
</clipPath>
</defs>
</svg>
