<svg width="12" height="12" viewBox="0 0 12 12" fill="none" xmlns="http://www.w3.org/2000/svg">
<path d="M10.172 9.99994H1.82832C1.45206 9.99994 1.21062 9.60002 1.38586 9.26707L5.55768 1.34061C5.74513 0.984444 6.25514 0.984445 6.4426 1.34061L10.6144 9.26707C10.7897 9.60002 10.5482 9.99994 10.172 9.99994Z" fill="#FDF3BA"/>
<path fill-rule="evenodd" clip-rule="evenodd" d="M5.11517 1.10774C5.49008 0.3954 6.51009 0.395404 6.885 1.10774L11.0568 9.03419C11.4073 9.7001 10.9244 10.4999 10.1719 10.4999H1.82827C1.07575 10.4999 0.592871 9.7001 0.943348 9.03419L5.11517 1.10774ZM6.00008 1.57349L1.82827 9.49994L10.1719 9.49994L6.00008 1.57349Z" fill="#E5A80C"/>
<path fill-rule="evenodd" clip-rule="evenodd" d="M6.5 4.5C6.5 4.22386 6.27614 4 6 4C5.72386 4 5.5 4.22386 5.5 4.5V6.5C5.5 6.77614 5.72386 7 6 7C6.27614 7 6.5 6.77614 6.5 6.5V4.5ZM6 8.5C6.27614 8.5 6.5 8.27614 6.5 8C6.5 7.72386 6.27614 7.5 6 7.5C5.72386 7.5 5.5 7.72386 5.5 8C5.5 8.27614 5.72386 8.5 6 8.5Z" fill="#2B2B2C"/>
</svg>
