<svg width="18" height="18" viewBox="0 0 18 18" fill="none" xmlns="http://www.w3.org/2000/svg">
<path d="M13.5 14.5L9 4L5 14.5H13.5Z" fill="#2B2B2C"/>
<path fill-rule="evenodd" clip-rule="evenodd" d="M7.89708 1.50551C8.36766 0.623162 9.63237 0.623161 10.103 1.50551L16.853 14.1618C17.297 14.9944 16.6937 16 15.75 16H2.25002C1.30637 16 0.703006 14.9944 1.14708 14.1618L7.89708 1.50551ZM9 6C9.27614 6 9.5 6.22386 9.5 6.5V10.5C9.5 10.7761 9.27614 11 9 11C8.72386 11 8.5 10.7761 8.5 10.5V6.5C8.5 6.22386 8.72386 6 9 6ZM9.625 12.375C9.625 12.7202 9.34518 13 9 13C8.65482 13 8.375 12.7202 8.375 12.375C8.375 12.0298 8.65482 11.75 9 11.75C9.34518 11.75 9.625 12.0298 9.625 12.375Z" fill="#E5A80C"/>
</svg>
