<svg width="24" height="24" viewBox="0 0 24 24" fill="none" xmlns="http://www.w3.org/2000/svg">
<path d="M13.3129 3.30816C12.7422 2.27553 11.2578 2.27553 10.6871 3.30816L1.88231 19.2407C1.32982 20.2404 2.05293 21.4662 3.19517 21.4662H20.8048C21.9471 21.4662 22.6702 20.2404 22.1177 19.2407L13.3129 3.30816Z" fill="#E5A80C"/>
<path fill-rule="evenodd" clip-rule="evenodd" d="M12 8.09119C12.4832 8.09119 12.875 8.48294 12.875 8.96619V14.4662C12.875 14.9494 12.4832 15.3412 12 15.3412C11.5168 15.3412 11.125 14.9494 11.125 14.4662V8.96619C11.125 8.48294 11.5168 8.09119 12 8.09119Z" fill="#2B2B2C"/>
<path d="M12.5 17.4662C12.5 17.7423 12.2761 17.9662 12 17.9662C11.7239 17.9662 11.5 17.7423 11.5 17.4662C11.5 17.19 11.7239 16.9662 12 16.9662C12.2761 16.9662 12.5 17.19 12.5 17.4662Z" fill="#2B2B2C" stroke="#2B2B2C"/>
</svg>
