<svg width="18" height="18" viewBox="0 0 18 18" fill="none" xmlns="http://www.w3.org/2000/svg">
<path d="M10.1029 2.08364C9.63234 1.20129 8.36763 1.20129 7.89705 2.08364L1.14705 14.7399C0.702975 15.5725 1.30634 16.5781 2.24999 16.5781H15.75C16.6936 16.5781 17.297 15.5725 16.8529 14.7399L10.1029 2.08364Z" fill="#E5A80C"/>
<path fill-rule="evenodd" clip-rule="evenodd" d="M9 5.82812C9.41421 5.82812 9.75 6.16391 9.75 6.57812V10.5781C9.75 10.9923 9.41421 11.3281 9 11.3281C8.58579 11.3281 8.25 10.9923 8.25 10.5781V6.57812C8.25 6.16391 8.58579 5.82812 9 5.82812Z" fill="#2B2B2C"/>
<path d="M9.5 13.2031C9.5 13.4793 9.27614 13.7031 9 13.7031C8.72386 13.7031 8.5 13.4793 8.5 13.2031C8.5 12.927 8.72386 12.7031 9 12.7031C9.27614 12.7031 9.5 12.927 9.5 13.2031Z" fill="#2B2B2C" stroke="#2B2B2C" stroke-width="0.75"/>
</svg>
