<svg width="12" height="12" viewBox="0 0 12 12" fill="none" xmlns="http://www.w3.org/2000/svg">
<path fill-rule="evenodd" clip-rule="evenodd" d="M6.885 1.10774C6.51009 0.395404 5.49008 0.3954 5.11517 1.10774L0.943349 9.03419C0.592871 9.7001 1.07575 10.4999 1.82827 10.4999H10.1719C10.9244 10.4999 11.4073 9.7001 11.0568 9.03419L6.885 1.10774ZM1.82827 9.49994L6.00008 1.57349L10.1719 9.49994L1.82827 9.49994ZM6.50008 4.49994C6.50008 4.2238 6.27623 3.99994 6.00008 3.99994C5.72394 3.99994 5.50008 4.2238 5.50008 4.49994V6.49994C5.50008 6.77608 5.72394 6.99994 6.00008 6.99994C6.27623 6.99994 6.50008 6.77608 6.50008 6.49994V4.49994ZM6 8.5C6.27614 8.5 6.5 8.27614 6.5 8C6.5 7.72386 6.27614 7.5 6 7.5C5.72386 7.5 5.5 7.72386 5.5 8C5.5 8.27614 5.72386 8.5 6 8.5Z" fill="#2B2B2C"/>
</svg>
