<svg width="24" height="24" viewBox="0 0 24 24" fill="none" xmlns="http://www.w3.org/2000/svg">
<path fill-rule="evenodd" clip-rule="evenodd" d="M13.3129 2.84198C12.7422 1.80935 11.2578 1.80935 10.6872 2.84198L1.88234 18.7745C1.32985 19.7743 2.05296 21 3.1952 21H20.8049C21.9471 21 22.6702 19.7743 22.1177 18.7745L13.3129 2.84198Z" fill="#2B2B2C" stroke-width="none"/>
<path fill-rule="evenodd" clip-rule="evenodd" d="M10.6872 2.84198C11.2578 1.80935 12.7422 1.80935 13.3129 2.84198L22.1177 18.7745C22.6702 19.7743 21.9471 21 20.8049 21H3.1952C2.05296 21 1.32985 19.7743 1.88234 18.7745L10.6872 2.84198ZM12 8C12.2761 8 12.5 8.22386 12.5 8.5V14.5C12.5 14.7761 12.2761 15 12 15C11.7239 15 11.5 14.7761 11.5 14.5V8.5C11.5 8.22386 11.7239 8 12 8ZM12.75 16.75C12.75 17.1642 12.4142 17.5 12 17.5C11.5858 17.5 11.25 17.1642 11.25 16.75C11.25 16.3358 11.5858 16 12 16C12.4142 16 12.75 16.3358 12.75 16.75Z" fill="#E5A80C"/>
</svg>
