<svg width="963" height="643" viewBox="0 0 963 643" fill="none" xmlns="http://www.w3.org/2000/svg">
<path d="M871 387.5C837.152 377.545 827.5 367.667 814.5 360L942.5 358L949.5 360L956 377V404.5C956 399.333 896.5 395 871 387.5Z" fill="#8E8695"/>
<path d="M542 43C542 45.4 546 46 548 46L585.5 47L587 54.5L582 58.5L572.5 61L571 64.5L575 67L618.5 68L636 76.5L647 79.5L696 78.5C693 70.5 685.6 70 662 68C632.5 65.5 639.5 52 642 49C644.5 46 649 34 630.5 36.5C620.479 37.8542 583.5 37.5 561 34C538.5 30.5 542 40 542 43Z" fill="#A7BCD6"/>
<path d="M535.782 526.573C533.058 526.573 530.373 525.923 527.95 524.678C525.527 523.434 523.435 521.629 521.848 519.415C520.261 517.201 519.225 514.64 518.825 511.946C518.424 509.251 518.672 506.5 519.547 503.92C524.505 489.291 524.671 473.546 520.037 457.036C519.517 455.194 518.959 453.44 518.4 451.794L556.897 467.265C558.839 483.321 557.165 499.608 551.998 514.933C550.849 518.323 548.667 521.269 545.759 523.356C542.851 525.444 539.362 526.568 535.782 526.573V526.573Z" fill="#FAE053"/>
<path d="M501.196 630.1C498.453 630.097 495.752 629.436 493.317 628.174C490.883 626.911 488.786 625.083 487.204 622.844C485.621 620.604 484.599 618.017 484.222 615.301C483.845 612.585 484.125 609.817 485.038 607.232L494.141 581.511L532.138 576.936L517.372 618.676C516.189 622.019 513.997 624.914 511.1 626.96C508.203 629.006 504.742 630.103 501.196 630.1V630.1Z" fill="#FAE053"/>
<path d="M281.894 230.398C281.894 230.398 279.495 306.528 280.818 308.682C299.216 338.613 313.094 352.944 312.094 362.426C311.093 371.907 303.874 379.471 301.098 383.612C298.323 387.753 294.406 402.537 294.901 415.608C295.396 428.68 294.299 439.903 290.146 447.644C285.316 457.104 283.287 467.557 284.261 477.958C285.337 489.309 286.348 506.325 269.694 518.462C253.039 530.6 233.19 523.016 199.762 527.748C166.335 532.479 145.399 538.105 119.675 560.836C93.9507 583.566 79.6632 611.097 54.9183 613.34C28.1076 615.779 10.1514 601.35 10.1514 558.052V424.008L52.1102 309.44C52.1102 309.44 43.428 272.781 111.068 276.371C144.85 278.161 197.395 278.122 224.507 268.729C253.33 258.686 281.894 230.398 281.894 230.398Z" fill="#FAE053"/>
<path d="M43.1006 15.6279C116.911 12.4634 197.109 15.6279 244.126 51.4696C291.143 87.3114 313.414 163.063 250.964 221.941C204.001 266.235 165.589 273.281 113.482 280.023C62.6813 286.588 53.4643 322.518 48.3628 364.286C45.2977 389.288 47.902 408.285 23.5521 438.662C13.0598 451.753 7.96908 454.161 3.9072 453.659C1.91377 453.424 0.220419 452.166 0.220419 448.048V108.579C0.220419 65.1105 -5.64201 17.7114 43.1006 15.6279Z" fill="#00685E"/>
<path d="M366.735 465.942C372.124 470.978 386.596 476.259 402.087 468.46C417.578 460.661 430.57 465.873 433.019 481.472C435.263 495.767 422.898 506.183 407.436 510.866C394.999 514.72 381.597 514.025 369.625 508.907L359.181 501.489L355.359 488.546L357.035 474.897L362.669 467.059L366.735 465.942Z" fill="#66A49E"/>
<path d="M388.331 525.906C388.909 521.987 391.947 520.027 395.543 520.909C400.246 522.105 400.373 527.474 400.021 534.088C399.678 540.486 398.953 545.375 394.318 551.088C390.134 556.251 380.934 558.211 381.012 549.559C381.012 549.559 387.675 543.798 388.498 539.271C389.321 534.744 388.331 525.906 388.331 525.906Z" fill="#CC9B74"/>
<path d="M597.178 489.222C598.657 471.027 602.361 448.511 626.366 435.812C653.576 421.419 661.15 403.811 658.818 369.185" stroke="#FAE053" stroke-width="20" stroke-linecap="round" stroke-linejoin="round"/>
<path d="M602.36 566.284L599.921 572.06L602.36 566.284ZM429.628 577.68L431.159 583.759L431.16 583.759L429.628 577.68ZM375.006 583.952C371.609 584.622 369.398 587.919 370.068 591.316C370.737 594.713 374.034 596.924 377.431 596.255L375.006 583.952ZM789.903 581.411C791.964 578.629 791.379 574.702 788.597 572.641C785.814 570.581 781.888 571.166 779.827 573.948L789.903 581.411ZM604.798 560.508C562.583 542.685 514.463 549.845 428.097 571.6L431.16 583.759C518.202 561.834 562.165 556.119 599.921 572.06L604.798 560.508ZM428.098 571.6C407.25 576.848 389.699 581.057 375.006 583.952L377.431 596.255C392.466 593.291 410.286 589.014 431.159 583.759L428.098 571.6ZM599.921 572.06C607.941 575.446 619.417 582.233 634.255 590.043C648.723 597.658 665.734 605.857 683.589 611.239C701.426 616.615 720.512 619.305 738.996 615.49C757.668 611.636 775.214 601.244 789.903 581.411L779.827 573.948C766.891 591.414 751.979 600.007 736.461 603.21C720.757 606.451 703.922 604.271 687.207 599.233C670.511 594.201 654.34 586.444 640.095 578.947C626.22 571.644 613.452 564.162 604.798 560.508L599.921 572.06Z" fill="#FFB466"/>
<path d="M579.531 366.275C573.73 353.107 574.396 341.329 574.396 327.612C574.396 313.895 575.513 291.81 575.513 291.81" stroke="#CC9B74" stroke-width="15" stroke-linecap="round" stroke-linejoin="round"/>
<path d="M536.154 384.892C541.778 384.226 556.27 383.129 562.776 368.235" stroke="#CC9B74" stroke-width="15.0469" stroke-linecap="round" stroke-linejoin="round"/>
<path d="M492.073 312.102C492.073 306.487 496.62 303.803 502.224 303.803C507.829 303.803 512.385 306.487 512.385 312.102C512.303 314.741 511.197 317.244 509.301 319.082C507.406 320.919 504.869 321.947 502.229 321.947C499.589 321.947 497.052 320.919 495.157 319.082C493.261 317.244 492.155 314.741 492.073 312.102V312.102Z" fill="#FAE053"/>
<path d="M476.222 353.469C476.222 351.459 476.818 349.495 477.934 347.824C479.051 346.153 480.637 344.851 482.494 344.082C484.351 343.313 486.394 343.112 488.365 343.504C490.336 343.896 492.146 344.863 493.567 346.284C494.988 347.705 495.956 349.516 496.348 351.487C496.74 353.458 496.539 355.501 495.77 357.357C495.001 359.214 493.698 360.801 492.027 361.917C490.356 363.034 488.392 363.63 486.382 363.63C483.688 363.63 481.103 362.559 479.198 360.654C477.292 358.748 476.222 356.164 476.222 353.469V353.469Z" fill="#FAE053"/>
<path d="M507.75 276.132C507.749 274.798 508.01 273.477 508.52 272.244C509.029 271.012 509.777 269.891 510.72 268.948C511.662 268.004 512.782 267.256 514.014 266.745C515.246 266.234 516.567 265.971 517.901 265.971L528.062 276.132C527.98 278.771 526.874 281.274 524.978 283.112C523.082 284.949 520.546 285.977 517.906 285.977C515.266 285.977 512.729 284.949 510.834 283.112C508.938 281.274 507.832 278.771 507.75 276.132V276.132Z" fill="#FAE053"/>
<path d="M696.777 113.179H625.251C625.251 113.179 591.78 113.179 583.765 152.597C583.05 156.094 583.56 158.701 585.627 160.984C586.631 162.086 587.722 163.105 588.89 164.031C590.193 165.119 592.496 167.147 597.708 167.147H719.454" stroke="white" stroke-width="3.5" stroke-linecap="round" stroke-linejoin="round"/>
<path d="M625.241 142.29V127.015H618.324C614.306 127.544 604.606 131.228 600.236 142.29H625.241Z" stroke="white" stroke-width="3.5" stroke-linecap="round" stroke-linejoin="round"/>
<path d="M757.368 114.042C767.529 116.256 786.518 124.183 792.299 152.597C793.014 156.095 792.505 158.702 790.437 160.985C789.433 162.087 788.342 163.106 787.174 164.032C785.871 165.119 783.569 167.148 778.356 167.148H738.184" stroke="white" stroke-width="3.5" stroke-linecap="round" stroke-linejoin="round"/>
<path d="M757.731 127.015C761.748 127.544 771.448 131.228 775.808 142.29H752.444L751.175 143.659" stroke="white" stroke-width="3.5" stroke-linecap="round" stroke-linejoin="round"/>
<path d="M522.113 300.921C517.416 298.928 513.472 295.498 510.845 291.123C505.172 282.207 505.417 271.879 511.404 268.078C512.57 267.379 513.866 266.923 515.212 266.736C516.559 266.549 517.93 266.636 519.242 266.99" stroke="white" stroke-width="3.5" stroke-linecap="round" stroke-linejoin="round"/>
<path d="M381.668 95.2978V57.6239L426.798 22.9091L435.969 29.9638V15.972H451.254V36.8617" stroke="white" stroke-width="3.5" stroke-linecap="round" stroke-linejoin="round"/>
<path d="M452.842 83.7651H429.787V103.273H452.842V83.7651Z" stroke="white" stroke-width="3.5" stroke-linecap="round" stroke-linejoin="round"/>
<path d="M413.747 84.0099H394.308V122.389H413.747V84.0099Z" stroke="white" stroke-width="3.5" stroke-linecap="round" stroke-linejoin="round"/>
<path d="M426.25 38.1853L412.366 47.9051H438.753L426.25 38.1853Z" stroke="white" stroke-width="3.5" stroke-linecap="round" stroke-linejoin="round"/>
<path d="M379.218 115.442C373.682 105.585 372.526 93.4453 372.526 83.7255C372.526 74.0058 364.198 75.3873 361.415 80.9429C358.632 86.4984 354.478 86.4984 347.531 86.4984C340.584 86.4984 337.811 92.054 337.811 97.6095C337.811 105.938 338.556 109.975 333.814 112.934C325.348 118.195 329.012 130.09 339.996 135.127C353.155 141.162 383.764 143.945 433.686 127.033C470.547 114.56 478.62 93.0142 458.368 75.6519C448.648 67.3234 441.799 58.3875 446.698 44.9249C451.528 31.6386 466.02 23.1828 480.511 25.6029C511.865 30.8254 516.765 67.735 494.474 89.5456C480.756 102.91 491.123 109.985 514.893 106.065C514.893 106.065 381.638 172.369 366.941 178.836C354.204 184.45 346.698 198.717 357.623 209.788C366.216 218.499 377.513 216.647 391.662 214.991C423.32 211.229 444.807 206.369 456.682 218.499C467.901 229.963 466.539 248.129 446.502 261.856C433.03 271.095 403.968 282.177 376.445 301.822C340.3 327.601 349.99 364.099 363.561 379.12" stroke="white" stroke-width="3.5" stroke-linecap="round" stroke-linejoin="round"/>
<path d="M704.066 182.326H550.167" stroke="white" stroke-width="3.5" stroke-linecap="round" stroke-linejoin="round"/>
<path d="M704.508 195.993C724.105 191.584 726.995 168.088 709.995 152.215C694.945 138.174 694.593 120.714 699.639 108.711C704.685 96.7086 718.52 88.9387 734.079 92.0545C761.975 97.6395 763.464 128.425 746.102 150.687C734.873 165.08 735.862 176.387 745.22 191.378C748.708 196.963 756.693 204.253 770.803 208.466C779.827 211.18 788.273 213.708 791.379 220.146C794.573 226.75 791.065 235.764 781.267 241.515C769.558 248.394 754.983 252.782 732.374 244.22C710.303 233.962 657.787 220.553 634.439 248.976" stroke="white" stroke-width="3.5" stroke-linecap="round" stroke-linejoin="round"/>
<path d="M550.169 182.325C499.939 177.919 485.913 213.374 508.821 222.33" stroke="white" stroke-width="3.5" stroke-linecap="round" stroke-linejoin="round"/>
<path d="M228.399 254.507C299.413 213.271 315.619 136.974 295.778 89.9436C275.56 42.0632 237.923 2 101.511 2" stroke="white" stroke-width="3.5" stroke-linecap="round" stroke-linejoin="round"/>
<path d="M104.048 621.213C124.891 541.738 174.877 536.772 230.821 536.772C286.765 536.772 285.762 502.557 283.473 484.961C277.828 441.655 299.016 453.875 294.44 417.07C293.112 406.385 293.037 392.23 303.215 383.295C316.578 371.564 313.469 355.483 303.55 342.237C286.884 319.969 279.652 322.285 279.328 294.308C279.134 276.536 282.308 244.178 282.308 232.936" stroke="white" stroke-width="3.5" stroke-linecap="round" stroke-linejoin="round"/>
<path d="M147.189 302.459C122.437 287.309 101.539 294.576 88.6911 305.574C75.8428 316.573 75.5903 337.036 86.5498 350.847C97.5093 364.658 110.478 375.491 117.298 384.946C124.117 394.401 135.033 398.845 145.246 392.125" stroke="#2B2B2C" stroke-width="3.5" stroke-linecap="round" stroke-linejoin="round"/>
<path d="M636.029 261.435L652.245 268.137C657.463 270.303 661.609 274.45 663.773 279.669C665.937 284.887 665.942 290.751 663.787 295.974L616.962 409.172" stroke="white" stroke-width="3.5" stroke-linecap="round" stroke-linejoin="round"/>
<path d="M479.083 404.929L531.033 279.376" stroke="white" stroke-width="3.5" stroke-linecap="round" stroke-linejoin="round"/>
<path d="M567.96 471.89L489.231 439.321" stroke="white" stroke-width="3.5" stroke-linecap="round" stroke-linejoin="round"/>
<path d="M632.756 271.292L648.296 277.719C650.971 278.839 653.092 280.974 654.195 283.656C655.297 286.338 655.29 289.348 654.175 292.025L603.322 414.952" stroke="white" stroke-width="3.5" stroke-linecap="round" stroke-linejoin="round"/>
<path d="M873.507 242.752H830.099C825.068 242.752 821.238 242.239 818.771 241.219C817.554 240.716 816.785 240.136 816.337 239.545C815.916 238.99 815.698 238.322 815.761 237.425C815.861 236.078 816.717 234.968 818.637 234.07C820.588 233.159 823.335 232.633 826.458 232.424C829.932 232.207 832.474 231.626 834.538 230.559C836.623 229.482 838.064 227.988 839.444 226.245C840.521 224.883 841.539 224.281 842.902 223.961C844.422 223.604 846.357 223.593 849.382 223.593C852.772 223.593 855.108 222.466 856.797 220.739C858.25 219.253 859.153 217.372 859.877 215.862C859.942 215.726 860.006 215.593 860.069 215.464C860.83 213.89 862.47 210.908 865.023 208.341C867.565 205.785 870.896 203.75 875.102 203.75C883.561 203.75 892.06 212.094 891.566 224.559C891.32 230.776 889.08 235.285 885.85 238.245C882.603 241.22 878.223 242.752 873.507 242.752Z" stroke="white" stroke-width="3.5"/>
<path d="M955.912 165.081L955.912 165.085C955.531 173.097 952.738 178.921 948.495 182.751C944.237 186.595 938.34 188.592 931.472 188.592H868.621C864.215 188.592 860.592 187.751 858.144 186.369C855.73 185.007 854.605 183.235 854.619 181.231C854.632 179.44 855.795 177.992 858.539 176.81C861.281 175.629 865.115 174.958 869.317 174.574C873.628 174.18 876.644 173.561 879.079 172.467C881.555 171.354 883.297 169.811 885.142 167.836C888.201 164.56 891.975 163.278 899.545 163.39C903.7 163.469 906.629 162.082 908.786 160.007C910.834 158.036 912.115 155.5 913.148 153.455L913.184 153.384C914.201 151.371 916.397 147.541 919.828 144.236C923.247 140.942 927.794 138.256 933.58 138.256C945.287 138.256 956.768 147.942 955.912 165.081Z" stroke="white" stroke-width="3.5"/>
<path d="M492.876 398.667L540.407 283.774" stroke="white" stroke-width="3.5" stroke-linecap="round" stroke-linejoin="round"/>
<path d="M571.909 462.326L496.747 431.227" stroke="white" stroke-width="3.5" stroke-linecap="round" stroke-linejoin="round"/>
<path d="M607.603 552.891C612.502 530.913 620.624 518.421 626.621 512.081C638.232 499.795 640.093 497.384 653.801 482.344C686.791 446.15 684.175 415.717 681.402 399.569C678.159 380.59 673.877 360.935 677.551 347.551C680.06 338.439 688.408 326.318 686.478 319.048C683.097 306.311 658.641 313.453 649.245 331.247C638.996 350.726 639.104 366.471 638.261 382.491C636.301 420.116 616.293 411.376 597.305 431.737C580.903 449.373 576.974 469.107 574.348 486.126" stroke="white" stroke-width="3.5" stroke-linecap="round" stroke-linejoin="round"/>
<path d="M592.916 619.538C595.63 607.202 598.55 596.943 600.999 585.793" stroke="white" stroke-width="3.5" stroke-linecap="round" stroke-linejoin="round"/>
<path d="M496.188 358.603C496.188 367.118 491.074 374.035 484.754 374.035C478.434 374.035 473.329 367.118 473.329 358.603C473.329 350.089 478.444 343.171 484.754 343.171C491.064 343.171 496.188 350.079 496.188 358.603Z" stroke="white" stroke-width="3.5" stroke-linecap="round" stroke-linejoin="round"/>
<path d="M510.572 322.742C507.632 330.747 500.46 335.48 494.532 333.314C488.604 331.149 486.174 322.899 489.094 314.894C492.014 306.889 499.206 302.156 505.134 304.322C511.062 306.487 513.452 314.737 510.572 322.742Z" stroke="white" stroke-width="3.5" stroke-linecap="round" stroke-linejoin="round"/>
<path d="M484.754 391.231C479.15 376.759 474.397 365.109 474.397 365.109" stroke="white" stroke-width="3.5" stroke-linecap="round" stroke-linejoin="round"/>
<path d="M505.74 446.149C508.474 453.488 510.669 459.534 511.893 463.208C515.262 471.472 518.2 496 503 528" stroke="white" stroke-width="3.5" stroke-linecap="round" stroke-linejoin="round"/>
<path d="M464.313 619.537C469.409 607.26 471.848 601.469 478.776 584.577" stroke="white" stroke-width="3.5" stroke-linecap="round" stroke-linejoin="round"/>
<path d="M865.343 580.751C872.3 581.221 883.548 575.362 882.706 564.094C881.863 552.826 883.685 546.143 886.801 540.382C889.917 534.621 893.66 521.609 886.37 511.184C884.535 508.534 882.193 506.275 879.48 504.537C876.766 502.799 873.734 501.616 870.56 501.057C867.386 500.499 864.133 500.575 860.989 501.282C857.845 501.99 854.872 503.314 852.243 505.177C841.23 512.712 838.996 524.725 844.238 535.689C848.265 544.135 849.02 549.494 848.324 556.598C847.109 569.159 850.656 579.761 865.343 580.751Z" stroke="white" stroke-width="3.5" stroke-linecap="round" stroke-linejoin="round"/>
<path d="M373.868 524.917C373.868 524.917 362.179 537.096 318.087 541.721" stroke="white" stroke-width="3.5" stroke-linecap="round" stroke-linejoin="round"/>
<path d="M570.175 390.154C574.398 374.271 594.278 373.193 602.362 380.042" stroke="white" stroke-width="3.5" stroke-linecap="round" stroke-linejoin="round"/>
<path d="M842.805 608.542C861.838 608.542 858.779 590.656 858.838 579.466" stroke="white" stroke-width="3.5" stroke-linecap="round" stroke-linejoin="round"/>
<path d="M729.942 581.139C728.992 580.958 728.076 581.582 727.895 582.531C727.714 583.48 728.337 584.397 729.287 584.577L729.942 581.139ZM774.95 551.69L776.561 552.372L774.95 551.69ZM765.302 467.155C765.561 466.224 765.015 465.259 764.084 465.001C763.153 464.742 762.188 465.287 761.93 466.218L765.302 467.155ZM729.287 584.577C739.953 586.609 763.749 582.655 776.561 552.372L773.338 551.009C761.215 579.662 739.109 582.886 729.942 581.139L729.287 584.577ZM776.561 552.372C784.635 533.288 779.805 517.848 774.083 504.259C771.197 497.405 768.176 491.207 766.261 485.029C764.369 478.921 763.654 473.089 765.302 467.155L761.93 466.218C760.036 473.035 760.915 479.599 762.918 486.065C764.9 492.461 768.076 499.012 770.857 505.617C776.47 518.946 780.848 533.258 773.338 551.009L776.561 552.372Z" fill="white"/>
<path d="M761 448.5C761 448.5 734.929 461 752.497 502C759.708 518.829 765.499 542.5 747.499 553.5" stroke="#FF8264" stroke-width="12" stroke-linecap="round" stroke-linejoin="round"/>
<path d="M874.127 589.383C873.617 597.457 878.688 600.661 885.547 604.61C895.178 610.165 895.021 617.446 891.122 621.11C748.032 669.279 645.483 616.275 622.164 599.109C587.684 573.732 568.127 574.035 522.526 577.68C486.195 580.62 423.879 596.718 353.322 613.071C336.156 617.049 303.773 623.849 290.056 592.495" stroke="white" stroke-width="3.5" stroke-linecap="round" stroke-linejoin="round"/>
<path d="M361.188 422.674C361.187 420.289 361.773 417.941 362.895 415.837C364.018 413.734 365.641 411.939 367.623 410.613C369.604 409.286 371.882 408.469 374.255 408.233C376.628 407.997 379.022 408.35 381.226 409.26" stroke="white" stroke-width="3.5" stroke-linecap="round" stroke-linejoin="round"/>
<path d="M409.348 422.673C409.348 419.803 410.199 416.998 411.793 414.611C413.388 412.225 415.654 410.365 418.306 409.267C420.957 408.169 423.875 407.881 426.69 408.441C429.505 409.001 432.09 410.383 434.12 412.412C436.149 414.442 437.531 417.027 438.091 419.842C438.651 422.657 438.363 425.575 437.265 428.226C436.167 430.878 434.307 433.144 431.921 434.739C429.534 436.333 426.729 437.184 423.859 437.184C420.01 437.184 416.319 435.655 413.598 432.934C410.877 430.213 409.348 426.522 409.348 422.673V422.673Z" stroke="white" stroke-width="3.5" stroke-linecap="round" stroke-linejoin="round"/>
<path d="M411.619 394.396L399.46 388.742L392.052 379.15C389.573 382.089 384.214 395.552 388.731 401.372C391.524 404.908 395.366 407.467 399.705 408.681C393.473 413.365 393.934 424.006 394.6 426.7C394.6 426.7 395.06 429.512 397.216 430.012C399.372 430.512 400.498 429.346 401.331 426.827C401.929 424.995 401.488 418.362 406.485 411.552C410.071 406.653 408.905 401.872 401.586 399.902" stroke="white" stroke-width="3.5" stroke-linecap="round" stroke-linejoin="round"/>
<path d="M404.654 368.084C404.419 372.003 402.136 375.109 399.539 374.943C396.943 374.776 395.032 371.464 395.267 367.516C395.503 363.567 397.786 360.49 400.382 360.657C402.979 360.824 404.879 364.135 404.654 368.084Z" stroke="white" stroke-width="3.5" stroke-linecap="round" stroke-linejoin="round"/>
<path d="M384.764 422.879H375.799L386.204 405.046" stroke="white" stroke-width="3.5" stroke-linecap="round" stroke-linejoin="round"/>
<path d="M423.848 422.673L417.156 399.04" stroke="white" stroke-width="3.5" stroke-linecap="round" stroke-linejoin="round"/>
<path d="M336.576 431.923C341.73 416.942 365.314 423.105 384.029 430.326C414.765 442.231 438.369 441.79 462.502 417.834C479.551 400.922 502.949 390.164 538.487 396.591C564.177 401.235 582.02 398.835 593.454 390.164" stroke="white" stroke-width="3.5" stroke-linecap="round" stroke-linejoin="round"/>
<path d="M576.71 418.587C552.303 415.285 529.16 412.65 507.359 423.555C489.634 432.373 489.36 448.795 462.483 454.909" stroke="white" stroke-width="3.5" stroke-linecap="round" stroke-linejoin="round"/>
<path d="M550.198 279.072C566.698 282.785 586.186 281.541 598.934 274.829C611.681 268.118 617.05 251.833 603.833 240.291C590.615 228.749 590.644 224.947 587.284 220.028C583.923 215.11 579.808 211.974 571.136 212.425C562.465 212.876 557.821 218.137 554.734 221.175C550.256 225.574 547.209 228.327 537.999 232.08C530.689 235.02 522.488 241.545 523.988 255.723C525.457 269.323 537.244 276.182 550.198 279.072Z" fill="#66A49E"/>
<path d="M533.413 374.889C557.908 369.99 561.259 346.533 561.259 311.691C561.259 297.885 555.468 288.067 543.622 284.765C526.172 279.915 517.305 269.176 517.305 254.391C517.305 238.459 525.976 230.709 536.627 226.731C555.939 219.51 553.283 208.232 574.418 204.94C584.99 203.304 596.777 207.213 602.999 215.169C609.858 223.938 614.434 230.513 623.33 236.921C631.561 242.849 639.527 253.627 634.686 267.599C631.531 276.701 619.284 282.394 602.588 288.361C588.057 293.554 586.195 303.823 586.195 316.58C586.195 352.294 585.598 370.058 612.65 374.732" stroke="white" stroke-width="3.5" stroke-linecap="round" stroke-linejoin="round"/>
<path d="M722.499 143.857C709.634 136.019 705.842 116.423 719.56 105.645" stroke="#00957A" stroke-width="20" stroke-miterlimit="10" stroke-linecap="round"/>
<path d="M370.833 365.11C364.729 353.469 358.86 326.897 399.571 303.803" stroke="#93D7DE" stroke-width="15" stroke-linecap="round" stroke-linejoin="round"/>
<path d="M441.57 233.749C422.537 218.323 356.555 257.858 341.613 218.323" stroke="#FFB466" stroke-width="15" stroke-linecap="round" stroke-linejoin="round"/>
<path d="M862.807 513.368C854.645 519.345 855.497 527.497 859.309 536.041C862.865 544.017 863.375 551.924 863.375 567.718" stroke="#00957A" stroke-width="12.5391" stroke-miterlimit="10" stroke-linecap="round"/>
<path d="M255.105 116.199C270.23 171.305 239.904 223.638 157.798 244.227C91.6804 260.832 41.9087 267.62 20.3018 303.993" stroke="#66A49E" stroke-width="12.5391" stroke-linecap="round" stroke-linejoin="round"/>
<path d="M427.367 552.165C413.317 551.969 402.313 550.598 402.872 533.951C403.254 521.487 411.494 515.765 424.006 509.455C427.537 507.776 430.688 505.395 433.269 502.458C435.85 499.521 437.806 496.089 439.018 492.372C440.229 488.655 440.672 484.73 440.318 480.836C439.964 476.943 438.822 473.162 436.96 469.724C429.591 456.986 418.676 455.683 409.799 458.525C406.056 459.73 400.442 463.287 394.926 464.198C390.48 464.905 385.938 464.709 381.571 463.62C364.786 459.602 355.968 471.272 355.351 482.726C354.685 495.228 358.467 502.998 369.676 508.887C376.28 512.356 388.949 519.067 388.949 529.826C388.949 543.543 383.305 547.942 376.329 549.922C371.684 551.225 363.905 552.695 358.261 554.164C348.022 556.81 343.936 562.679 344.759 569.224C345.621 576.083 351.97 579.346 361.925 576.857C441.29 557.025 553.655 525.906 553.655 525.906" stroke="white" stroke-width="3.5" stroke-linecap="round" stroke-linejoin="round"/>
<path d="M729.71 166.393C729.71 178.151 730.689 193.936 719.539 202.215" stroke="#CC9B74" stroke-width="7.5" stroke-linecap="round" stroke-linejoin="round"/>
<path d="M474.898 39.9967C461.004 43.0439 456.115 63.3261 477.681 70.2142" stroke="#00957A" stroke-width="20" stroke-miterlimit="10" stroke-linecap="round"/>
<path d="M378.59 195.161L447.608 154.018" stroke="#FF8264" stroke-width="15" stroke-linecap="round" stroke-linejoin="round"/>
<path d="M663.154 22.6963L663.157 22.696C663.375 22.679 663.595 22.6615 663.816 22.6438C667.051 22.3864 670.702 22.0959 673.852 22.6102C677.17 23.1518 679.414 24.4834 680.22 27.2506C681.192 30.5864 680.743 32.9651 679.169 34.6805C677.481 36.5189 674.165 37.9883 668.501 38.5814L668.683 40.3219L668.501 38.5814C663.586 39.0965 659.428 40.6326 656.704 43.0017C653.905 45.4366 652.618 48.7963 653.8 52.4765C654.457 54.5229 656.112 56.0419 658.132 57.1747C660.168 58.3168 662.782 59.1866 665.742 59.8472C671.672 61.1704 679.345 61.7295 687.443 61.7295C692.792 61.7295 696.974 62.424 699.759 63.8395C701.126 64.5347 702.104 65.3773 702.744 66.3507C703.378 67.3142 703.747 68.5045 703.747 70.0134C703.747 73.0159 702.435 75.3112 699.927 76.9343C697.334 78.6131 693.382 79.6096 688.176 79.6096H666.578C665.114 79.6096 663.554 79.6376 661.922 79.6669C657.622 79.7443 652.825 79.8305 647.982 79.4359C641.317 78.8928 634.926 77.4525 630.128 74.0295C619.734 66.6136 607.399 66.6299 593.383 66.6484C592.679 66.6494 591.971 66.6503 591.259 66.6503H576.15C574.58 66.6503 573.467 66.2134 572.776 65.6284C572.112 65.0648 571.718 64.2661 571.718 63.2193C571.718 62.1554 572.123 61.2622 572.822 60.6223C573.526 59.977 574.63 59.5013 576.15 59.5013C578.286 59.5013 580.926 58.9677 583.09 57.8599C585.204 56.777 587.346 54.863 587.346 51.9415L587.346 51.9069C587.347 51.0363 587.347 49.1806 585.875 47.6495C584.415 46.1302 581.908 45.3249 577.975 45.3249H540.269C536.551 45.3249 533.834 44.0358 532.09 42.1841C530.334 40.32 529.453 37.77 529.625 35.0459C529.801 32.244 530.759 29.3004 533.963 26.983C537.268 24.5928 543.185 22.7014 553.686 22.7014C563.432 22.7014 569.978 23.8376 577.365 25.1199C578.242 25.2722 579.131 25.4266 580.039 25.5814C588.63 27.0457 598.724 28.5112 615.815 28.5112C625.396 28.5112 636.368 27.1126 645.361 25.6925C649.824 24.9879 653.819 24.2747 656.933 23.719L657.022 23.703C660.216 23.1329 662.329 22.7594 663.154 22.6963Z" stroke="white" stroke-width="3.5"/>
<path d="M932.659 420.07H945.705C951.679 420.07 955.774 417.411 955.774 411.021C955.774 407.945 956.199 394.669 956.412 385.38C956.409 381.032 955.795 376.706 954.586 372.529C953.851 369.805 952.918 367.139 951.794 364.552C949.853 360.892 947.611 358.587 940.654 358.587H823.608C814.036 358.587 810.234 360.431 806.768 363.595C802.009 368.026 799.19 373.344 796.842 377.59C793.529 383.799 791.107 390.443 789.645 397.328C789.015 400.752 788.636 404.218 788.51 407.697C787.987 417.606 795.167 420.106 800.919 420.106H814.001" stroke="white" stroke-width="3.5" stroke-linecap="round" stroke-linejoin="round"/>
<path d="M756.325 369.346C771.099 377.172 780.202 369.515 780.973 357.106C781.829 343.329 797.166 360.107 809.546 343.329C809.546 343.329 805.763 331.341 793.434 332.99C793.434 332.99 779.962 325.093 768.201 327.885C756.44 330.677 747.816 339.256 748.702 348.093C749.589 356.929 756.325 369.346 756.325 369.346Z" fill="#66A49E"/>
<path d="M856.1 450.22C862.738 442.11 861.808 437.874 863.004 430.597C864.201 423.321 872.151 421.335 876.13 428.887C880.11 436.438 888.476 438.538 898.004 439.185C909.402 439.957 919.39 454.111 928.82 458.596L957.484 454.102L877.327 466.67L816.065 486.169L803 487.5L790.602 484.573C785.284 476.703 787.057 462.699 805.323 462.699C823.59 462.699 846.014 462.531 856.1 450.22Z" fill="#66A49E"/>
<path d="M824.364 430.404C822.033 430.138 805.521 430.404 797.775 430.404C762.943 430.404 733.033 445.333 718.187 458.796C703.384 473.82 686.367 492.34 680.121 527.316C673.777 562.844 638.248 566.651 615.408 532.391" stroke="white" stroke-width="3.5" stroke-linecap="round" stroke-linejoin="round"/>
<path d="M814.037 420.069C814.037 418.025 814.643 416.027 815.779 414.327C816.915 412.627 818.53 411.303 820.419 410.521C822.308 409.739 824.386 409.535 826.391 409.934C828.396 410.334 830.237 411.319 831.682 412.765C833.127 414.211 834.11 416.054 834.508 418.059C834.906 420.064 834.7 422.142 833.917 424.03C833.133 425.919 831.807 427.532 830.106 428.666C828.406 429.801 826.407 430.405 824.363 430.404C823.006 430.404 821.662 430.136 820.409 429.617C819.156 429.097 818.017 428.336 817.058 427.376C816.099 426.417 815.339 425.277 814.821 424.024C814.302 422.77 814.036 421.426 814.037 420.069Z" stroke="white" stroke-width="3.5" stroke-linecap="round" stroke-linejoin="round"/>
<path d="M911.956 420.069C911.956 418.026 912.562 416.027 913.698 414.328C914.833 412.629 916.447 411.304 918.336 410.522C920.224 409.74 922.302 409.535 924.306 409.934C926.311 410.332 928.153 411.317 929.598 412.762C931.043 414.207 932.027 416.049 932.426 418.053C932.825 420.058 932.62 422.136 931.838 424.024C931.056 425.913 929.731 427.527 928.032 428.662C926.332 429.798 924.334 430.404 922.29 430.404C919.55 430.404 916.921 429.315 914.983 427.377C913.045 425.439 911.956 422.81 911.956 420.069V420.069Z" stroke="white" stroke-width="3.5" stroke-linecap="round" stroke-linejoin="round"/>
<path d="M888.217 420.069C888.217 418.026 888.823 416.027 889.958 414.328C891.094 412.629 892.708 411.304 894.596 410.522C896.485 409.74 898.563 409.535 900.567 409.934C902.572 410.332 904.413 411.317 905.859 412.762C907.304 414.207 908.288 416.049 908.687 418.053C909.086 420.058 908.881 422.136 908.099 424.024C907.317 425.913 905.992 427.527 904.293 428.662C902.593 429.798 900.595 430.404 898.551 430.404C895.81 430.404 893.182 429.315 891.244 427.377C889.306 425.439 888.217 422.81 888.217 420.069V420.069Z" stroke="white" stroke-width="3.5" stroke-linecap="round" stroke-linejoin="round"/>
<path d="M748.738 413.262C765.578 410.603 770.896 405.507 770.01 389.97C769.265 376.285 759.436 376.436 752.221 364.595C746.487 355.182 747.79 339.264 761.085 330.845C770.834 324.64 787.674 325.819 792.522 333.087C792.522 333.087 806.703 330.534 810.966 342.73" stroke="white" stroke-width="3.5" stroke-linecap="round" stroke-linejoin="round"/>
<path d="M835.03 453.234C849.362 453.234 855.504 441.286 856.177 433.576C857.117 423.002 859.723 416 866.388 413.811C873.992 411.294 879.842 415.929 882.128 422.78C884.415 429.632 889.414 432.344 896.309 432.344C910.215 432.344 914.168 438.752 921.675 442.554C940.731 452.223 949.12 433.576 960.54 454.99C960.54 454.99 914.434 457.497 884.069 464.18C848.192 472.077 830.182 482.331 811.277 486.479C796.635 489.688 785.698 483.466 784.334 473.105C782.8 461.406 791.903 453.234 807.12 453.234H835.039" stroke="white" stroke-width="3.5" stroke-linecap="round" stroke-linejoin="round"/>
<path d="M825.566 387.622H937.241C941.158 387.622 943.135 385.123 943.135 381.214V370.774" stroke="white" stroke-width="3.5" stroke-linecap="round" stroke-linejoin="round"/>
<path d="M743.564 310.674C751.648 303.743 756.567 299.781 762.762 294.18C776.819 281.488 788.013 280.885 796.982 289.305C805.951 297.725 810.277 298.868 814.708 298.868C822.472 298.868 828.207 294.57 833.657 290.005C842.964 282.197 853.422 283.704 859.75 292.815C864.953 300.313 870.466 312.446 883.893 322.426" stroke="white" stroke-width="3.5" stroke-linecap="round" stroke-linejoin="round"/>
<path fill-rule="evenodd" clip-rule="evenodd" d="M850.376 284.665C850.784 283.01 851 281.281 851 279.5C851 267.626 841.374 258 829.5 258C817.626 258 808 267.626 808 279.5C808 287.048 811.89 293.688 817.775 297.524L827.309 294.092L838.222 286.974C838.812 286.59 839.465 286.312 840.151 286.154L846.651 284.654C847.244 284.517 847.854 284.471 848.46 284.518L850.376 284.665Z" fill="#FAE053"/>
<path d="M918.5 175.5C933.667 176.833 944.9 179.7 942.5 156.5" stroke="#A7BCD6" stroke-width="12" stroke-linecap="round" stroke-linejoin="round"/>
</svg>
