<svg width="429" height="288" viewBox="0 0 429 288" fill="none" xmlns="http://www.w3.org/2000/svg">
  <path d="M238.667 235.132C237.456 235.132 236.263 234.843 235.186 234.29C234.109 233.737 233.18 232.935 232.474 231.951C231.769 230.967 231.309 229.829 231.131 228.631C230.953 227.434 231.063 226.211 231.452 225.064C233.655 218.563 233.729 211.565 231.669 204.228C231.439 203.409 231.19 202.63 230.942 201.898L248.051 208.774C248.914 215.91 248.17 223.148 245.874 229.959C245.363 231.466 244.393 232.775 243.101 233.702C241.808 234.63 240.258 235.13 238.667 235.132V235.132Z" fill="#F9DE5F" />
  <path d="M223.296 281.142C222.077 281.14 220.876 280.847 219.794 280.286C218.713 279.724 217.781 278.912 217.078 277.917C216.374 276.921 215.92 275.772 215.752 274.565C215.585 273.357 215.709 272.128 216.115 270.978L220.161 259.548L237.047 257.514L230.485 276.064C229.959 277.55 228.985 278.837 227.698 279.746C226.41 280.655 224.872 281.143 223.296 281.142V281.142Z" fill="#F9DE5F" />
  <path d="M125.833 103.505C125.833 103.505 124.767 137.339 125.355 138.297C133.531 151.598 139.699 157.967 139.255 162.181C138.81 166.395 135.602 169.757 134.368 171.597C133.134 173.437 131.394 180.007 131.614 185.817C131.834 191.626 131.346 196.614 129.501 200.054C127.354 204.258 126.452 208.904 126.885 213.527C127.363 218.571 127.813 226.133 120.411 231.528C113.01 236.922 104.188 233.551 89.3321 235.654C74.4763 237.757 65.1717 240.257 53.7393 250.359C42.307 260.461 35.9573 272.696 24.9601 273.693C13.0449 274.777 5.0647 268.364 5.0647 249.122V189.55L23.7122 138.633C23.7122 138.633 19.8536 122.341 49.9142 123.937C64.9278 124.732 88.2802 124.715 100.329 120.54C113.139 116.077 125.833 103.505 125.833 103.505Z" fill="#F9DE5F" />
  <path d="M19.7082 8.0567C52.5113 6.65032 88.1531 8.0567 109.049 23.9856C129.944 39.9144 139.842 73.5803 112.087 99.747C91.2158 119.432 74.145 122.564 50.9871 125.56C28.4103 128.477 24.3141 144.446 22.0469 163.008C20.6846 174.12 21.8421 182.562 11.0204 196.063C6.35742 201.88 4.09498 202.95 2.28979 202.728C1.40387 202.623 0.651304 202.064 0.651304 200.234V49.366C0.651304 30.0479 -1.95409 8.98265 19.7082 8.0567Z" fill="#0B685E" />
  <path d="M163.539 208.186C165.934 210.424 172.366 212.771 179.25 209.305C186.135 205.839 191.909 208.156 192.997 215.088C193.994 221.441 188.499 226.07 181.628 228.152C176.1 229.864 170.144 229.556 164.824 227.281L160.182 223.984L158.483 218.232L159.228 212.166L161.732 208.683L163.539 208.186Z" fill="#5DAA97" />
  <path d="M173.137 234.836C173.393 233.094 174.743 232.223 176.341 232.615C178.432 233.146 178.488 235.532 178.332 238.472C178.179 241.315 177.857 243.488 175.797 246.027C173.938 248.322 169.849 249.193 169.884 245.348C169.884 245.348 172.845 242.787 173.211 240.775C173.576 238.764 173.137 234.836 173.137 234.836Z" fill="#CC8A55" />
  <path d="M265.953 218.532C266.61 210.446 268.256 200.439 278.925 194.796C291.017 188.399 294.383 180.574 293.347 165.185" stroke="#F9DE5F" stroke-width="5.57264" stroke-linecap="round" stroke-linejoin="round" />
  <path d="M268.256 252.781L267.172 255.348L267.172 255.348L268.256 252.781ZM191.49 257.845L192.171 260.547L192.171 260.547L191.49 257.845ZM167.215 260.633C165.705 260.93 164.723 262.396 165.02 263.905C165.318 265.415 166.783 266.398 168.293 266.1L167.215 260.633ZM351.605 259.503C352.521 258.267 352.261 256.522 351.024 255.606C349.787 254.69 348.042 254.95 347.127 256.187L351.605 259.503ZM269.34 250.214C250.578 242.293 229.193 245.475 190.81 255.143L192.171 260.547C230.854 250.803 250.392 248.263 267.172 255.348L269.34 250.214ZM190.81 255.143C181.545 257.476 173.745 259.346 167.215 260.633L168.293 266.1C174.975 264.783 182.894 262.882 192.171 260.547L190.81 255.143ZM267.172 255.348C270.736 256.852 275.837 259.869 282.431 263.339C288.861 266.724 296.421 270.368 304.356 272.759C312.283 275.149 320.765 276.344 328.98 274.649C337.278 272.936 345.076 268.318 351.605 259.503L347.127 256.187C341.377 263.949 334.75 267.768 327.854 269.191C320.874 270.632 313.392 269.663 305.964 267.424C298.544 265.187 291.357 261.74 285.026 258.408C278.86 255.163 273.186 251.838 269.34 250.214L267.172 255.348Z" fill="#00685E" />
  <path d="M258.11 163.892C255.532 158.04 255.828 152.806 255.828 146.709C255.828 140.613 256.325 130.798 256.325 130.798" stroke="#CC8A55" stroke-width="2.22906" stroke-linecap="round" stroke-linejoin="round" />
  <path d="M238.833 172.166C241.332 171.87 247.773 171.382 250.664 164.763" stroke="#CC8A55" stroke-width="6.68717" stroke-linecap="round" stroke-linejoin="round" />
  <path d="M219.242 139.816C219.242 137.321 221.262 136.128 223.753 136.128C226.244 136.128 228.269 137.321 228.269 139.816C228.232 140.989 227.741 142.102 226.898 142.918C226.056 143.735 224.929 144.192 223.755 144.192C222.582 144.192 221.455 143.735 220.612 142.918C219.77 142.102 219.278 140.989 219.242 139.816V139.816Z" fill="#F9DE5F" />
  <path d="M212.197 158.201C212.197 157.308 212.461 156.435 212.958 155.692C213.454 154.949 214.159 154.371 214.984 154.029C215.809 153.687 216.717 153.598 217.593 153.772C218.469 153.946 219.274 154.376 219.905 155.008C220.537 155.639 220.967 156.444 221.141 157.32C221.315 158.196 221.226 159.104 220.884 159.929C220.542 160.754 219.964 161.459 219.221 161.955C218.478 162.451 217.605 162.716 216.712 162.716C215.515 162.716 214.366 162.241 213.519 161.394C212.672 160.547 212.197 159.398 212.197 158.201V158.201Z" fill="#F9DE5F" />
  <path d="M226.209 123.83C226.208 123.238 226.324 122.65 226.551 122.103C226.777 121.555 227.11 121.057 227.529 120.638C227.947 120.218 228.445 119.885 228.993 119.659C229.54 119.432 230.127 119.315 230.72 119.315L235.236 123.83C235.199 125.003 234.708 126.116 233.865 126.932C233.023 127.749 231.896 128.206 230.722 128.206C229.549 128.206 228.422 127.749 227.579 126.932C226.737 126.116 226.245 125.003 226.209 123.83V123.83Z" fill="#F9DE5F" />
  <path d="M310.217 51.4104H278.429C278.429 51.4104 263.554 51.4104 259.992 68.9286C259.674 70.4832 259.901 71.6415 260.819 72.6561C261.265 73.1459 261.75 73.5987 262.269 74.0103C262.849 74.4937 263.872 75.3951 266.188 75.3951H320.295" stroke="white" stroke-width="2.22906" stroke-linecap="round" stroke-linejoin="round" />
  <path d="M278.425 64.348V57.5593H275.35C273.565 57.7945 269.254 59.4318 267.312 64.348H278.425Z" stroke="white" stroke-width="2.22906" stroke-linecap="round" stroke-linejoin="round" />
  <path d="M337.145 51.7939C341.661 52.7781 350.1 56.3009 352.669 68.929C352.987 70.4835 352.761 71.6418 351.842 72.6564C351.396 73.1462 350.911 73.5991 350.392 74.0107C349.813 74.494 348.789 75.3954 346.473 75.3954H328.619" stroke="white" stroke-width="2.22906" stroke-linecap="round" stroke-linejoin="round" />
  <path d="M337.306 57.5593C339.092 57.7945 343.402 59.4318 345.34 64.348H334.956L334.393 64.9563" stroke="white" stroke-width="2.22906" stroke-linecap="round" stroke-linejoin="round" />
  <path d="M232.593 134.847C230.505 133.961 228.752 132.437 227.585 130.493C225.064 126.53 225.173 121.941 227.833 120.251C228.352 119.941 228.927 119.738 229.526 119.655C230.124 119.572 230.734 119.61 231.317 119.768" stroke="white" stroke-width="2.22906" stroke-linecap="round" stroke-linejoin="round" />
  <path d="M170.175 43.4636V26.7205L190.232 11.2925L194.308 14.4277V8.20947H201.101V17.4933" stroke="white" stroke-width="2.22906" stroke-linecap="round" stroke-linejoin="round" />
  <path d="M201.807 38.3381H191.561V47.008H201.807V38.3381Z" stroke="white" stroke-width="2.22906" stroke-linecap="round" stroke-linejoin="round" />
  <path d="M184.432 38.447H175.793V55.5037H184.432V38.447Z" stroke="white" stroke-width="2.22906" stroke-linecap="round" stroke-linejoin="round" />
  <path d="M189.988 18.0815L183.818 22.4012H195.544L189.988 18.0815Z" stroke="white" stroke-width="2.22906" stroke-linecap="round" stroke-linejoin="round" />
  <path d="M169.086 52.4163C166.626 48.0357 166.112 42.6404 166.112 38.3208C166.112 34.0011 162.411 34.6151 161.174 37.0841C159.937 39.5531 158.091 39.5531 155.004 39.5531C151.916 39.5531 150.684 42.0221 150.684 44.4911C150.684 48.1925 151.015 49.9865 148.907 51.3016C145.145 53.6399 146.774 58.9263 151.655 61.1645C157.503 63.8469 171.107 65.0836 193.293 57.5677C209.675 52.0244 213.263 42.4488 204.262 34.7326C199.942 31.0313 196.898 27.06 199.076 21.0769C201.222 15.1722 207.663 11.4142 214.103 12.4898C228.038 14.8107 230.215 31.2142 220.308 40.9073C214.212 46.8469 218.819 49.9909 229.383 48.2491C229.383 48.2491 170.162 77.7161 163.63 80.59C157.969 83.0852 154.633 89.4254 159.489 94.346C163.308 98.2171 168.328 97.3941 174.616 96.6582C188.686 94.9861 198.235 92.8262 203.513 98.2171C208.499 103.312 207.894 111.385 198.989 117.486C193.001 121.592 180.086 126.517 167.854 135.248C151.79 146.705 156.097 162.925 162.128 169.601" stroke="white" stroke-width="2.22906" stroke-linecap="round" stroke-linejoin="round" />
  <path d="M313.457 82.1406H245.06" stroke="white" stroke-width="2.22906" stroke-linecap="round" stroke-linejoin="round" />
  <path d="M313.653 88.2148C322.362 86.2553 323.647 75.8132 316.091 68.7588C309.403 62.5188 309.246 54.7591 311.489 49.4248C313.731 44.0905 319.88 40.6374 326.795 42.0221C339.192 44.5042 339.854 58.1861 332.138 68.0795C327.148 74.4763 327.587 79.5014 331.746 86.1638C333.296 88.6459 336.845 91.8857 343.116 93.7581C347.126 94.9643 350.88 96.0878 352.26 98.9487C353.68 101.884 352.121 105.89 347.766 108.446C342.563 111.503 336.085 113.453 326.037 109.648C316.228 105.089 292.889 99.1296 282.513 111.761" stroke="white" stroke-width="2.22906" stroke-linecap="round" stroke-linejoin="round" />
  <path d="M245.06 82.1406C222.737 80.1822 216.504 95.9394 226.684 99.9194" stroke="white" stroke-width="2.22906" stroke-linecap="round" stroke-linejoin="round" />
  <path d="M102.059 114.22C133.619 95.8936 140.821 61.9854 132.004 41.0841C123.018 19.805 106.291 2 45.6669 2" stroke="white" stroke-width="2.22906" stroke-linecap="round" stroke-linejoin="round" />
  <path d="M46.7947 277.192C56.0577 241.872 78.2726 239.665 103.136 239.665C127.998 239.665 127.552 224.459 126.535 216.639C124.027 197.393 133.443 202.823 131.409 186.466C130.819 181.718 130.786 175.427 135.309 171.456C141.248 166.243 139.866 159.096 135.458 153.209C128.051 143.312 124.837 144.342 124.693 131.908C124.607 124.01 126.017 109.629 126.017 104.633" stroke="white" stroke-width="2.22906" stroke-linecap="round" stroke-linejoin="round" />
  <path d="M65.9678 135.531C54.9674 128.798 45.68 132.028 39.9699 136.915C34.2598 141.803 34.1476 150.898 39.0182 157.036C43.8889 163.174 49.6526 167.988 52.6834 172.19C55.7141 176.392 60.5652 178.367 65.104 175.38" stroke="white" stroke-width="2.5185" stroke-linecap="round" stroke-linejoin="round" />
  <path d="M283.218 117.299L290.425 120.277C292.744 121.24 294.587 123.083 295.548 125.402C296.51 127.721 296.512 130.327 295.555 132.648L274.744 182.956" stroke="white" stroke-width="2.22906" stroke-linecap="round" stroke-linejoin="round" />
  <path d="M213.468 181.071L236.556 125.272" stroke="white" stroke-width="2.22906" stroke-linecap="round" stroke-linejoin="round" />
  <path d="M252.967 210.829L217.979 196.355" stroke="white" stroke-width="2.22906" stroke-linecap="round" stroke-linejoin="round" />
  <path d="M281.764 121.679L288.67 124.536C289.859 125.033 290.802 125.982 291.292 127.174C291.782 128.366 291.779 129.704 291.283 130.893L268.683 185.525" stroke="white" stroke-width="2.22906" stroke-linecap="round" stroke-linejoin="round" />
  <path d="M385.886 116.592H366.594C364.375 116.592 362.751 116.364 361.744 115.947C361.253 115.744 360.993 115.53 360.862 115.357C360.75 115.21 360.682 115.031 360.702 114.741C360.729 114.381 360.939 114.009 361.705 113.651C362.492 113.283 363.643 113.055 365.008 112.964C366.586 112.865 367.789 112.599 368.789 112.083C369.802 111.559 370.493 110.834 371.125 110.036C371.539 109.513 371.899 109.308 372.394 109.191C373.003 109.048 373.799 109.04 375.164 109.04C376.793 109.04 377.958 108.492 378.804 107.627C379.509 106.906 379.943 105.999 380.26 105.336C380.29 105.274 380.319 105.213 380.347 105.156C380.674 104.479 381.376 103.207 382.457 102.12C383.531 101.04 384.896 100.222 386.595 100.222C390.027 100.222 393.642 103.646 393.431 108.969C393.326 111.62 392.376 113.497 391.046 114.715C389.704 115.945 387.879 116.592 385.886 116.592Z" stroke="white" stroke-width="2.5185" />
  <path d="M424.901 78.8971L424.901 78.9C424.737 82.3556 423.538 84.8147 421.763 86.4166C419.978 88.0287 417.481 88.8882 414.521 88.8882H386.588C384.682 88.8882 383.162 88.5229 382.168 87.9624C381.2 87.4162 380.842 86.7689 380.847 86.1016C380.851 85.5886 381.151 85.0702 382.298 84.5759C383.444 84.0822 385.085 83.7892 386.941 83.6196C388.876 83.4428 390.279 83.1613 391.433 82.6427C392.618 82.1106 393.443 81.3727 394.282 80.4741C395.508 79.162 397.02 78.6021 400.323 78.6511C402.297 78.6884 403.722 78.0236 404.772 77.013C405.742 76.0796 406.343 74.8899 406.796 73.993L406.823 73.9396C407.262 73.0687 408.209 71.42 409.68 70.0037C411.141 68.5959 413.048 67.4809 415.457 67.4809C420.372 67.4809 425.269 71.5423 424.901 78.8971Z" stroke="white" stroke-width="2.5185" />
  <path d="M219.599 178.288L240.722 127.227" stroke="white" stroke-width="2.22906" stroke-linecap="round" stroke-linejoin="round" />
  <path d="M254.722 206.579L221.319 192.758" stroke="white" stroke-width="2.22906" stroke-linecap="round" stroke-linejoin="round" />
  <path d="M270.586 246.828C272.763 237.061 276.373 231.509 279.038 228.692C284.198 223.231 285.025 222.16 291.117 215.476C305.779 199.39 304.616 185.865 303.384 178.689C301.943 170.254 300.04 161.519 301.673 155.571C302.787 151.521 306.498 146.134 305.64 142.903C304.137 137.243 293.269 140.417 289.093 148.325C284.538 156.982 284.586 163.979 284.211 171.099C283.34 187.82 274.448 183.936 266.009 192.985C258.72 200.823 256.974 209.593 255.807 217.157" stroke="white" stroke-width="2.22906" stroke-linecap="round" stroke-linejoin="round" />
  <path d="M264.059 276.448C265.265 270.965 266.562 266.406 267.651 261.451" stroke="white" stroke-width="2.22906" stroke-linecap="round" stroke-linejoin="round" />
  <path d="M221.071 160.482C221.071 164.266 218.798 167.341 215.989 167.341C213.18 167.341 210.912 164.266 210.912 160.482C210.912 156.698 213.185 153.624 215.989 153.624C218.793 153.624 221.071 156.694 221.071 160.482Z" stroke="white" stroke-width="2.22906" stroke-linecap="round" stroke-linejoin="round" />
  <path d="M227.463 144.545C226.157 148.103 222.969 150.206 220.335 149.243C217.7 148.281 216.62 144.615 217.918 141.057C219.216 137.499 222.412 135.396 225.046 136.358C227.681 137.321 228.743 140.987 227.463 144.545Z" stroke="white" stroke-width="2.22906" stroke-linecap="round" stroke-linejoin="round" />
  <path d="M215.989 174.983C213.498 168.551 211.386 163.374 211.386 163.374" stroke="white" stroke-width="2.22906" stroke-linecap="round" stroke-linejoin="round" />
  <path d="M228.051 206.971C227.507 205.338 226.531 202.652 225.316 199.39" stroke="white" stroke-width="2.22906" stroke-linecap="round" stroke-linejoin="round" />
  <path d="M206.905 276.447C209.17 270.991 210.254 268.417 213.333 260.91" stroke="white" stroke-width="2.22906" stroke-linecap="round" stroke-linejoin="round" />
  <path d="M385.132 259.21C388.223 259.419 393.222 256.815 392.848 251.807C392.473 246.799 393.283 243.829 394.668 241.269C396.053 238.708 397.716 232.926 394.476 228.292C393.661 227.115 392.62 226.111 391.414 225.338C390.208 224.566 388.861 224.04 387.45 223.792C386.04 223.544 384.594 223.578 383.197 223.892C381.799 224.206 380.478 224.795 379.31 225.623C374.415 228.972 373.422 234.31 375.752 239.183C377.542 242.937 377.877 245.319 377.568 248.476C377.028 254.058 378.604 258.77 385.132 259.21Z" stroke="white" stroke-width="2.22906" stroke-linecap="round" stroke-linejoin="round" />
  <path d="M166.709 234.396C166.709 234.396 161.514 239.809 141.919 241.864" stroke="white" stroke-width="2.22906" stroke-linecap="round" stroke-linejoin="round" />
  <path d="M253.952 174.504C255.828 167.446 264.664 166.967 268.256 170.01" stroke="white" stroke-width="2.22906" stroke-linecap="round" stroke-linejoin="round" />
  <path d="M375.115 271.561C383.574 271.561 382.215 263.612 382.241 258.639" stroke="white" stroke-width="2.22906" stroke-linecap="round" stroke-linejoin="round" />
  <path d="M325.046 258.909C324.363 258.779 323.703 259.228 323.573 259.911C323.443 260.594 323.891 261.253 324.575 261.383L325.046 258.909ZM344.958 246.295L346.118 246.785L346.118 246.785L344.958 246.295ZM341.135 208.854C341.321 208.184 340.928 207.49 340.258 207.304C339.588 207.118 338.894 207.51 338.708 208.18L341.135 208.854ZM324.575 261.383C329.521 262.326 340.329 260.468 346.118 246.785L343.799 245.804C338.506 258.314 328.914 259.646 325.046 258.909L324.575 261.383ZM346.118 246.785C349.784 238.12 347.575 231.103 345.017 225.028C343.72 221.948 342.398 219.242 341.557 216.526C340.731 213.861 340.436 211.37 341.135 208.854L338.708 208.18C337.833 211.331 338.246 214.349 339.151 217.272C340.041 220.144 341.474 223.104 342.696 226.006C345.175 231.894 347.059 238.098 343.799 245.804L346.118 246.785Z" fill="white" />
  <path d="M389.035 263.046C388.808 266.635 391.062 268.059 394.11 269.813C398.39 272.282 398.321 275.518 396.588 277.146C332.996 298.554 287.42 274.998 277.057 267.369C261.733 256.09 253.042 256.225 232.776 257.845C216.629 259.152 188.934 266.306 157.578 273.574C149.948 275.342 135.557 278.364 129.46 264.429" stroke="white" stroke-width="2.22906" stroke-linecap="round" stroke-linejoin="round" />
  <path d="M161.074 188.957C161.073 187.897 161.334 186.854 161.833 185.919C162.332 184.984 163.053 184.186 163.934 183.597C164.814 183.007 165.827 182.644 166.881 182.539C167.936 182.434 169 182.591 169.979 182.995" stroke="white" stroke-width="2.22906" stroke-linecap="round" stroke-linejoin="round" />
  <path d="M182.477 188.957C182.477 187.681 182.855 186.434 183.563 185.374C184.272 184.313 185.279 183.487 186.458 182.998C187.636 182.51 188.933 182.383 190.184 182.631C191.435 182.88 192.584 183.495 193.486 184.396C194.388 185.298 195.002 186.447 195.251 187.698C195.5 188.949 195.372 190.246 194.884 191.425C194.396 192.603 193.569 193.61 192.509 194.319C191.448 195.027 190.201 195.406 188.926 195.406C187.215 195.406 185.575 194.726 184.365 193.517C183.156 192.307 182.477 190.667 182.477 188.957V188.957Z" stroke="white" stroke-width="2.22906" stroke-linecap="round" stroke-linejoin="round" />
  <path d="M183.487 176.389L178.083 173.877L174.791 169.614C173.689 170.92 171.307 176.903 173.314 179.49C174.556 181.061 176.263 182.199 178.192 182.738C175.422 184.82 175.627 189.549 175.923 190.746C175.923 190.746 176.127 191.996 177.085 192.218C178.043 192.44 178.544 191.922 178.914 190.803C179.18 189.989 178.984 187.041 181.205 184.014C182.799 181.837 182.28 179.712 179.028 178.837" stroke="white" stroke-width="2.22906" stroke-linecap="round" stroke-linejoin="round" />
  <path d="M180.39 164.696C180.286 166.438 179.271 167.818 178.117 167.744C176.963 167.67 176.114 166.198 176.219 164.443C176.323 162.688 177.338 161.321 178.492 161.395C179.646 161.469 180.491 162.941 180.39 164.696Z" stroke="white" stroke-width="2.22906" stroke-linecap="round" stroke-linejoin="round" />
  <path d="M171.552 189.048H167.567L172.192 181.123" stroke="white" stroke-width="2.22906" stroke-linecap="round" stroke-linejoin="round" />
  <path d="M188.921 188.956L185.947 178.453" stroke="white" stroke-width="2.22906" stroke-linecap="round" stroke-linejoin="round" />
  <path d="M150.136 193.067C152.426 186.409 162.908 189.148 171.225 192.358C184.885 197.648 195.375 197.452 206.1 186.806C213.677 179.29 224.075 174.509 239.869 177.365C251.287 179.429 259.216 178.362 264.298 174.509" stroke="white" stroke-width="2.22906" stroke-linecap="round" stroke-linejoin="round" />
  <path d="M256.856 187.141C246.009 185.673 235.724 184.502 226.035 189.348C218.157 193.267 218.035 200.566 206.091 203.283" stroke="white" stroke-width="2.22906" stroke-linecap="round" stroke-linejoin="round" />
  <path d="M245.073 125.137C252.406 126.787 261.067 126.234 266.732 123.252C272.397 120.269 274.784 113.031 268.909 107.902C263.035 102.772 263.048 101.083 261.555 98.8967C260.061 96.7107 258.232 95.3173 254.378 95.5176C250.525 95.7179 248.461 98.0563 247.089 99.4062C245.099 101.361 243.745 102.585 239.651 104.253C236.403 105.559 232.758 108.459 233.425 114.76C234.078 120.804 239.316 123.852 245.073 125.137Z" fill="#5DAA97" />
  <path d="M237.613 167.72C248.5 165.543 249.989 155.118 249.989 139.633C249.989 133.498 247.415 129.135 242.151 127.667C234.395 125.512 230.455 120.739 230.455 114.168C230.455 107.088 234.308 103.643 239.042 101.875C247.624 98.6661 246.444 93.6541 255.837 92.191C260.536 91.4638 265.774 93.2012 268.539 96.7371C271.587 100.634 273.621 103.556 277.575 106.404C281.233 109.039 284.773 113.829 282.622 120.038C281.22 124.083 275.776 126.613 268.356 129.265C261.899 131.573 261.071 136.137 261.071 141.806C261.071 157.678 260.806 165.573 272.828 167.65" stroke="white" stroke-width="2.22906" stroke-linecap="round" stroke-linejoin="round" />
  <path d="M321.648 65.0446C315.93 61.561 314.245 52.852 320.341 48.062" stroke="#0B685E" stroke-width="5.57264" stroke-miterlimit="10" stroke-linecap="round" />
  <path d="M165.359 163.374C162.646 158.201 160.038 146.392 178.131 136.128" stroke="#D3D4D3" stroke-width="2.22906" stroke-linecap="round" stroke-linejoin="round" />
  <path d="M196.797 104.994C188.338 98.1389 159.014 115.709 152.374 98.1389" stroke="#00685E" stroke-width="5.57264" stroke-linecap="round" stroke-linejoin="round" />
  <path d="M384.004 229.263C380.377 231.92 380.756 235.543 382.45 239.34C384.03 242.884 384.257 246.398 384.257 253.418" stroke="#0B685E" stroke-width="5.57264" stroke-miterlimit="10" stroke-linecap="round" />
  <path d="M113.928 52.7524C120.649 77.243 107.172 100.501 70.6822 109.651C41.2982 117.031 19.1786 120.047 9.57593 136.212" stroke="#5DAA97" stroke-width="5.57264" stroke-linecap="round" stroke-linejoin="round" />
  <path d="M190.485 246.506C184.24 246.419 179.35 245.809 179.598 238.411C179.768 232.872 183.43 230.329 188.991 227.525C190.56 226.778 191.961 225.72 193.108 224.415C194.255 223.109 195.124 221.584 195.662 219.932C196.201 218.28 196.398 216.536 196.24 214.806C196.083 213.075 195.575 211.395 194.748 209.867C191.473 204.206 186.622 203.627 182.677 204.89C181.014 205.425 178.518 207.006 176.067 207.411C174.091 207.725 172.073 207.638 170.132 207.154C162.672 205.369 158.753 210.555 158.479 215.645C158.183 221.202 159.864 224.655 164.845 227.272C167.78 228.813 173.411 231.796 173.411 236.578C173.411 242.674 170.902 244.629 167.802 245.509C165.738 246.088 162.28 246.741 159.772 247.394C155.222 248.57 153.406 251.178 153.772 254.087C154.155 257.135 156.977 258.585 161.401 257.479C196.672 248.666 246.61 234.836 246.61 234.836" stroke="white" stroke-width="2.22906" stroke-linecap="round" stroke-linejoin="round" />
  <path d="M232.767 219.064C232.523 214.958 228.386 212.737 223.623 215.65C216.002 220.301 210.124 217.879 210.124 217.879" stroke="#5DAA97" stroke-width="5.57264" stroke-linecap="round" stroke-linejoin="round" />
  <path d="M324.853 75.0601C324.853 80.2855 325.288 87.3006 320.333 90.9802" stroke="#CC8A55" stroke-width="2.22906" stroke-linecap="round" stroke-linejoin="round" />
  <path d="M211.608 18.8867C205.434 20.241 203.261 29.2548 212.845 32.316" stroke="#0B685E" stroke-width="5.57264" stroke-miterlimit="10" stroke-linecap="round" />
  <path d="M168.807 87.8449L199.481 69.5603" stroke="#C7C9C7" stroke-width="2.22906" stroke-linecap="round" stroke-linejoin="round" />
  <path d="M297.615 17.9225L297.615 17.9225C295.389 18.1558 293.466 18.8546 292.187 19.9679C290.859 21.123 290.223 22.751 290.796 24.5357C291.125 25.5595 291.943 26.2905 292.877 26.8145C293.822 27.3444 295.019 27.7399 296.351 28.0372C299.021 28.633 302.459 28.8818 306.069 28.8818C308.428 28.8818 310.223 29.1899 311.389 29.783C311.957 30.0715 312.342 30.4103 312.588 30.7839C312.829 31.1511 312.978 31.6142 312.978 32.2266C312.978 33.4416 312.457 34.3576 311.434 35.0197C310.356 35.7173 308.673 36.1545 306.394 36.1545H296.796C296.134 36.1545 295.434 36.1671 294.704 36.1802C292.798 36.2145 290.693 36.2524 288.559 36.0785C285.618 35.8388 282.85 35.2056 280.792 33.7372C276.082 30.3767 270.495 30.385 264.302 30.3942C263.977 30.3947 263.651 30.3951 263.322 30.3951H256.608C255.971 30.3951 255.559 30.2182 255.326 30.0209C255.109 29.8372 254.975 29.5778 254.975 29.2071C254.975 28.8255 255.118 28.5197 255.356 28.3013C255.598 28.0794 256.004 27.8915 256.608 27.8915C257.604 27.8915 258.831 27.6444 259.845 27.125C260.829 26.6215 261.92 25.6821 261.92 24.195C261.92 24.1872 261.92 24.1791 261.92 24.1708C261.921 23.7763 261.922 22.8332 261.173 22.0541C260.428 21.2793 259.197 20.9177 257.419 20.9177H240.661C239.091 20.9177 237.976 20.3755 237.271 19.6277C236.56 18.8719 236.196 17.832 236.267 16.7074C236.341 15.5333 236.735 14.3315 238.056 13.3758C239.442 12.3738 241.987 11.5368 246.624 11.5368C250.925 11.5368 253.808 12.0372 257.09 12.6068C257.48 12.6744 257.875 12.7431 258.28 12.812C262.111 13.4651 266.616 14.1188 274.235 14.1188C278.521 14.1188 283.418 13.4938 287.419 12.862C289.406 12.5484 291.184 12.2309 292.568 11.984L292.608 11.9768C294.041 11.7211 294.955 11.56 295.3 11.5336L295.302 11.5334C295.396 11.5261 295.49 11.5186 295.585 11.5111C297.033 11.396 298.616 11.2702 299.974 11.4919C301.391 11.723 302.23 12.2666 302.535 13.316C302.947 14.7275 302.738 15.6486 302.143 16.2961C301.477 17.022 300.105 17.6619 297.615 17.9225Z" stroke="white" stroke-width="2.22906" />
  <path d="M415.048 187.8H420.846C423.501 187.8 425.321 186.618 425.321 183.778C425.321 182.411 425.51 176.511 425.604 172.383C425.603 170.45 425.33 168.528 424.793 166.671C424.466 165.461 424.051 164.276 423.552 163.126C422.689 161.499 421.693 160.475 418.601 160.475H366.583C362.329 160.475 360.639 161.295 359.099 162.701C356.984 164.67 355.731 167.034 354.688 168.92C353.215 171.68 352.139 174.633 351.489 177.692C351.209 179.214 351.041 180.755 350.985 182.301C350.753 186.705 353.943 187.815 356.499 187.815H362.313" stroke="white" stroke-width="2.22906" stroke-linecap="round" stroke-linejoin="round" />
  <path d="M336.68 165.257C343.247 168.735 347.292 165.332 347.635 159.817C348.015 153.694 354.831 161.151 360.333 153.694C360.333 153.694 358.652 148.367 353.173 149.099C353.173 149.099 347.186 145.59 341.959 146.831C336.732 148.071 332.899 151.884 333.293 155.811C333.687 159.738 336.68 165.257 336.68 165.257Z" fill="#5DAA97" />
  <path d="M381.023 201.199C383.973 197.595 383.56 195.712 384.091 192.478C384.623 189.244 388.156 188.362 389.925 191.718C391.694 195.074 395.412 196.007 399.646 196.295C404.712 196.638 409.151 202.928 413.342 204.921L426.08 202.924L390.457 208.51L363.231 217.175L351.914 216.466C349.551 212.968 350.339 206.745 358.457 206.745C366.575 206.745 376.54 206.67 381.023 201.199Z" fill="#5DAA97" />
  <path d="M366.919 192.392C365.883 192.274 358.545 192.392 355.102 192.392C339.622 192.392 326.329 199.027 319.732 205.011C313.153 211.687 305.59 219.918 302.814 235.462C299.994 251.252 284.205 252.944 274.054 237.718" stroke="white" stroke-width="2.22906" stroke-linecap="round" stroke-linejoin="round" />
  <path d="M362.33 187.8C362.33 186.891 362.599 186.003 363.104 185.248C363.609 184.492 364.326 183.904 365.166 183.556C366.005 183.209 366.929 183.118 367.82 183.295C368.711 183.473 369.529 183.911 370.172 184.553C370.814 185.196 371.251 186.015 371.428 186.906C371.604 187.797 371.513 188.721 371.165 189.56C370.816 190.399 370.227 191.116 369.471 191.62C368.716 192.124 367.827 192.393 366.919 192.392C366.316 192.392 365.719 192.274 365.162 192.043C364.605 191.812 364.099 191.473 363.672 191.047C363.246 190.62 362.908 190.114 362.678 189.557C362.448 189 362.329 188.403 362.33 187.8Z" stroke="white" stroke-width="2.22906" stroke-linecap="round" stroke-linejoin="round" />
  <path d="M405.847 187.8C405.847 186.891 406.117 186.003 406.621 185.248C407.126 184.493 407.843 183.904 408.682 183.556C409.522 183.209 410.445 183.118 411.336 183.295C412.227 183.472 413.045 183.91 413.688 184.552C414.33 185.194 414.767 186.013 414.945 186.904C415.122 187.794 415.031 188.718 414.683 189.557C414.336 190.396 413.747 191.114 412.992 191.618C412.236 192.123 411.348 192.392 410.44 192.392C409.222 192.392 408.054 191.909 407.192 191.047C406.331 190.186 405.847 189.018 405.847 187.8V187.8Z" stroke="white" stroke-width="2.22906" stroke-linecap="round" stroke-linejoin="round" />
  <path d="M395.296 187.8C395.296 186.891 395.566 186.003 396.07 185.248C396.575 184.493 397.292 183.904 398.132 183.556C398.971 183.209 399.894 183.118 400.785 183.295C401.676 183.472 402.494 183.91 403.137 184.552C403.779 185.194 404.217 186.013 404.394 186.904C404.571 187.794 404.48 188.718 404.132 189.557C403.785 190.396 403.196 191.114 402.441 191.618C401.686 192.123 400.798 192.392 399.889 192.392C398.671 192.392 397.503 191.909 396.642 191.047C395.78 190.186 395.296 189.018 395.296 187.8V187.8Z" stroke="white" stroke-width="2.22906" stroke-linecap="round" stroke-linejoin="round" />
  <path d="M333.309 184.774C340.793 183.593 343.156 181.328 342.763 174.423C342.432 168.341 338.063 168.408 334.857 163.145C332.309 158.962 332.888 151.888 338.796 148.146C343.129 145.389 350.613 145.913 352.767 149.143C352.767 149.143 359.07 148.008 360.964 153.428" stroke="white" stroke-width="2.22906" stroke-linecap="round" stroke-linejoin="round" />
  <path d="M371.66 202.538C378.029 202.538 380.759 197.229 381.058 193.802C381.476 189.103 382.634 185.991 385.596 185.018C388.975 183.899 391.575 185.959 392.591 189.004C393.608 192.049 395.829 193.254 398.894 193.254C405.074 193.254 406.831 196.102 410.167 197.792C418.636 202.089 422.364 193.802 427.439 203.319C427.439 203.319 406.949 204.433 393.454 207.403C377.509 210.913 369.505 215.47 361.103 217.313C354.596 218.739 349.736 215.974 349.129 211.369C348.448 206.17 352.493 202.538 359.256 202.538H371.664" stroke="white" stroke-width="2.22906" stroke-linecap="round" stroke-linejoin="round" />
  <path d="M367.454 173.379H417.085C418.826 173.379 419.704 172.268 419.704 170.531V165.891" stroke="white" stroke-width="2.22906" stroke-linecap="round" stroke-linejoin="round" />
  <path d="M331.01 139.182C334.602 136.101 336.788 134.341 339.541 131.851C345.789 126.211 350.764 125.943 354.75 129.685C358.736 133.427 360.658 133.935 362.628 133.935C366.078 133.935 368.627 132.025 371.049 129.996C375.185 126.526 379.833 127.195 382.645 131.245C384.957 134.577 387.407 139.969 393.375 144.405" stroke="white" stroke-width="2.22906" stroke-linecap="round" stroke-linejoin="round" />
</svg>