<svg width="707" height="307" fill="none" xmlns="http://www.w3.org/2000/svg">
  <path opacity=".4" d="M92.5 146.5C29.64 161.74 49.58 277.94 0 306.06h681.88s20.3 0 24.62-23.34c9.33-98.44-113.72-37.34-143-154.02C534.22 12 476.09 25.59 451.9 42.56c-19.35 13.58-46.53 16.69-57.7 16.55l-14.86 180.76h-91.23V33.52c-19.8-12.73-63.03-14.26-94.26 56.01-39.04 87.84-47.03 43.82-101.35 56.98Z" fill="#00453E" />
  <path d="M470.87 274.1c9.81-13.25 13.59-31.92 5.95-46.54a75.98 75.98 0 0 1-35.97 37.78c-6.21 3.05-13.44 5.79-16.3 12.08-1.8 3.91-1.46 8.53-.02 12.59 1.44 4.06 3.88 7.67 6.3 11.23l.13 1.06c15.24-6.31 30.1-14.93 39.91-28.2Z" fill="#CCEAE4" />
  <path d="M476.5 227.68a64.95 64.95 0 0 1-13.51 37.6 27.95 27.95 0 0 1-6.27 6.13 16.04 16.04 0 0 1-8.02 2.63c-2.66.2-5.41.08-7.98.92a9.84 9.84 0 0 0-5.88 5.47c-1.42 3.15-1.63 6.61-1.72 10.01-.1 3.77-.14 7.7-1.92 11.12-.21.42.44.73.66.31 3.1-5.96 1.08-12.94 2.93-19.21.86-2.93 2.6-5.61 5.53-6.79 2.56-1.02 5.39-.9 8.09-1.08 2.8-.1 5.52-.89 7.94-2.28a25.86 25.86 0 0 0 6.48-5.86 63.01 63.01 0 0 0 9.87-17.04 66.1 66.1 0 0 0 4.52-22c.02-.46-.7-.4-.72.07Z" fill="#037D67" />
  <path d="M465.88 261.96a9.74 9.74 0 0 0 12.41-2.27c.3-.37-.25-.84-.55-.48a9.02 9.02 0 0 1-11.55 2.1c-.4-.24-.71.42-.3.65Zm-15.82 12.17a18.78 18.78 0 0 1 1.39-13.62c.21-.42-.44-.73-.66-.31a19.53 19.53 0 0 0-1.41 14.17c.13.45.81.2.69-.24Zm24.43-31.51a5.51 5.51 0 0 1-3.6-3.8c-.13-.45-.81-.2-.69.25a6.17 6.17 0 0 0 3.98 4.2.38.38 0 0 0 .48-.17.36.36 0 0 0-.17-.48Z" fill="#037D67" />
  <path d="m422.21 215.93.2.85a72.66 72.66 0 0 1 1.79 12.57 76.58 76.58 0 0 1-3.65 27.96 74.32 74.32 0 0 1-4.32 10.44c-2.35 4.65-5.27 9.5-5.93 14.51-.07.52-.11 1.05-.12 1.57l19.47 18.54.2.07.74.77.3-.5c.05-.1.1-.2.17-.3a3.99 3.99 0 0 1 .14-.25l.1-.17 1.67-2.96v-.01c4.17-7.58 7.75-15.57 10-23.84l.2-.76a72.27 72.27 0 0 0 2.05-11.4c.2-2.11.28-4.23.26-6.34a52.18 52.18 0 0 0-2.7-16.09c-3.48-10.34-10.22-19.45-19.83-24.3l-.74-.36Z" fill="#CCEAE4" />
  <path d="M422.02 216.22a64.95 64.95 0 0 1 11.86 38.16c.01 2.94-.43 5.86-1.32 8.66-.96 2.7-2.62 5.1-4.82 6.93-2.01 1.76-4.27 3.32-5.82 5.54a9.83 9.83 0 0 0-1.4 7.91c.76 3.37 2.68 6.26 4.65 9.03 2.2 3.07 4.52 6.22 5.17 10.03.08.46.79.31.7-.15-1.11-6.62-6.92-10.98-9.22-17.1-1.07-2.86-1.3-6.06.33-8.75 1.42-2.36 3.75-3.97 5.8-5.73a17.12 17.12 0 0 0 4.97-6.6 25.85 25.85 0 0 0 1.65-8.59 63 63 0 0 0-2.38-19.55 66.07 66.07 0 0 0-9.63-20.28c-.27-.38-.8.1-.54.49Z" fill="#037D67" />
  <path d="M434.18 249.98a9.74 9.74 0 0 0 8.54-9.29c.02-.47-.7-.51-.72-.04a9.02 9.02 0 0 1-7.96 8.62c-.47.06-.32.77.14.71Zm-5.3 19.24a18.79 18.79 0 0 1-7.1-11.7c-.07-.47-.79-.32-.7.14a19.46 19.46 0 0 0 7.4 12.16c.37.29.77-.32.4-.6Zm.53-39.86a5.51 5.51 0 0 1-5.16-.86c-.37-.3-.77.32-.4.6a6.17 6.17 0 0 0 5.7.97c.1-.02.18-.08.23-.16a.37.37 0 0 0 .06-.27.36.36 0 0 0-.16-.23.37.37 0 0 0-.27-.05Z" fill="#037D67" />
  <path d="M165.94 199.86c-8.7-14-10.94-32.92-2.15-46.87a75.98 75.98 0 0 0 32.79 40.57c5.94 3.54 12.92 6.86 15.27 13.37 1.47 4.04.75 8.62-1 12.55-1.77 3.92-4.5 7.32-7.2 10.67l-.22 1.06c-14.67-7.54-28.78-17.34-37.49-31.35Z" fill="#CCEAE4" />
  <path d="M164.1 153.13a64.95 64.95 0 0 0 10.42 38.58c1.56 2.5 3.5 4.72 5.75 6.61a16.05 16.05 0 0 0 7.78 3.28c2.64.4 5.39.52 7.88 1.56a9.83 9.83 0 0 1 5.41 5.94c1.17 3.24 1.1 6.72.9 10.11-.2 3.77-.48 7.68 1.01 11.24.18.43-.5.69-.68.26-2.6-6.2-.03-13-1.36-19.4-.62-2.98-2.14-5.8-4.96-7.2-2.46-1.23-5.3-1.35-7.97-1.74a17.12 17.12 0 0 1-7.73-2.92 25.85 25.85 0 0 1-5.98-6.37 63.01 63.01 0 0 1-8.45-17.79 66.11 66.11 0 0 1-2.73-22.28c.03-.47.74-.34.72.12Z" fill="#037D67" />
  <path d="M171.9 188.16a9.75 9.75 0 0 1-12.18-3.28c-.26-.38.33-.81.59-.42a9.02 9.02 0 0 0 11.34 3.02c.42-.2.68.48.26.68Zm14.78 13.41a18.78 18.78 0 0 0-.27-13.68c-.18-.43.5-.7.68-.26a19.53 19.53 0 0 1 .25 14.24c-.16.44-.82.14-.66-.3Zm-21.78-33.38a5.52 5.52 0 0 0 3.9-3.5c.16-.44.82-.13.66.3a6.17 6.17 0 0 1-4.3 3.88.38.38 0 0 1-.47-.22.37.37 0 0 1 .21-.46Z" fill="#037D67" />
  <path d="m219.17 145.83-.27.84a72.7 72.7 0 0 0-2.8 12.38 76.54 76.54 0 0 0 1.37 28.16 74.17 74.17 0 0 0 3.45 10.76c1.97 4.82 4.48 9.9 4.73 14.94.03.53.03 1.05 0 1.58l-20.92 16.9-.2.04-.8.72-.25-.54-.15-.3-.1-.2c0-.03-.02-.05-.03-.07l-.08-.17c-.48-1.03-.96-2.05-1.42-3.09v-.01c-3.55-7.89-6.46-16.14-8.03-24.58a70.99 70.99 0 0 1-1.25-12.3c-.03-2.11.06-4.23.24-6.34a52.16 52.16 0 0 1 4.01-15.8c4.3-10.03 11.77-18.56 21.74-22.62l.76-.3Z" fill="#CCEAE4" />
  <path d="M219.34 146.13a64.95 64.95 0 0 0-14.92 37.07 28.2 28.2 0 0 0 .61 8.74 16 16 0 0 0 4.24 7.3c1.86 1.92 3.99 3.66 5.36 6a9.83 9.83 0 0 1 .74 8c-1.02 3.29-3.17 6.02-5.37 8.61-2.43 2.89-5 5.84-5.96 9.59-.12.45-.81.24-.7-.2 1.66-6.52 7.8-10.4 10.6-16.31 1.3-2.76 1.77-5.93.37-8.75-1.22-2.46-3.42-4.26-5.32-6.18a17.11 17.11 0 0 1-4.4-6.99 25.87 25.87 0 0 1-.95-8.68c.3-6.6 1.64-13.11 3.96-19.3a66.08 66.08 0 0 1 11.24-19.43c.3-.35.8.18.5.53Z" fill="#037D67" />
  <path d="M204.47 178.8a9.75 9.75 0 0 1-7.75-9.95.36.36 0 0 1 .72 0 9.02 9.02 0 0 0 7.24 9.25c.45.1.25.8-.2.7Zm3.73 19.6a18.78 18.78 0 0 0 8.02-11.09c.12-.45.81-.25.7.2a19.53 19.53 0 0 1-8.38 11.53c-.39.25-.74-.39-.34-.64Zm2.7-39.77a5.5 5.5 0 0 0 5.22-.44c.4-.26.74.38.35.64a6.18 6.18 0 0 1-5.77.5.38.38 0 0 1-.24-.45.37.37 0 0 1 .45-.25Z" fill="#037D67" />
  <path d="M327.46 56.86a23.03 23.03 0 1 0 0-46.06 23.03 23.03 0 0 0 0 46.06Z" fill="#fff" />
  <path d="M397.97 32.63a84.66 84.66 0 0 0-6.56-6.23c-4.49-3.8-9.45-7.04-14.99-9.08a34.56 34.56 0 0 0-6.43-1.7l-.79-.11a.3.3 0 0 0-.06 0 28.07 28.07 0 0 0-15.24 2.27 43.06 43.06 0 0 0-4.5 2.55 29.96 29.96 0 0 1-9.96 3.72c-1.76.31-3.55.49-5.34.52-1.56.03-3.03.09-4.5.65a10.8 10.8 0 0 0-6.58 7.12.7.7 0 0 0 .31.76c.4.29.79.61 1.2.87.38.17.78.28 1.19.32a173.15 173.15 0 0 0 24.56 3.31 169.46 169.46 0 0 0 47.4-3.84.68.68 0 0 0 .46-.48.69.69 0 0 0-.17-.65Zm-47.87 30.7a75.2 75.2 0 0 0-10.96-9.65 51.53 51.53 0 0 0-4.06-2.59 42.96 42.96 0 0 0-6.52-3.06 34.32 34.32 0 0 0-7.22-1.82h-.06l-.12-.02a26.65 26.65 0 0 0-6.2-.1 28.67 28.67 0 0 0-8.92 2.4l-.04.01c-1.54.76-3.03 1.6-4.46 2.54l-.1.05a28.14 28.14 0 0 1-5.14 2.41 31.33 31.33 0 0 1-10.07 1.77c-1.56.04-3.03.09-4.5.66a10.79 10.79 0 0 0-6.58 7.12.7.7 0 0 0 .31.76c.4.29.8.6 1.21.86.38.17.77.28 1.18.32l2 .42a162.88 162.88 0 0 0 17.68 2.53 171 171 0 0 0 20.03.6 168.47 168.47 0 0 0 32.25-4.08.68.68 0 0 0 .3-1.13Z" fill="#00453E" />
  <path d="M292.7 1.53 313 281.88l-40.58 3.6V5.1c4.83-3.78 11.77-4.37 20.29-3.57Zm100.15 0-20.29 280.35 40.58 3.6V5.1c-4.84-3.78-11.78-4.37-20.29-3.57Z" fill="#CCC" />
  <path d="M414.1 5.22C412.82 2.13 410.15 0 407.05 0h-129c-4.3 0-7.8 4.13-7.8 9.21v278.65a9.96 9.96 0 0 0 2.69 6.95 7.4 7.4 0 0 0 3.38 2.03c.56.16 1.15.23 1.73.23h129a6.4 6.4 0 0 0 1.74-.23c3.47-.93 6.06-4.6 6.06-8.98V9.21c0-1.37-.25-2.72-.77-4Zm-1.82 282.64c0 3.4-2.34 6.16-5.22 6.16h-129c-2.38 0-4.4-1.9-5.01-4.48a7.15 7.15 0 0 1-.2-1.68V9.21c0-3.4 2.34-6.15 5.21-6.15h129c.53 0 1.06.1 1.55.28 2.12.78 3.67 3.11 3.67 5.87v278.65Z" fill="#CCC" />
  <path d="M413.57 84.7H271.56v2.59h142.01V84.7Zm0-53.46H271.56v2.59h142.01v-2.6Zm0 96.62H271.56v2.6h142.01v-2.6Z" fill="#CCC" />
  <path d="M317.64 1.16h-2.59v163.4h2.6V1.16Zm52.43 0h-2.58v163.4h2.58V1.16Zm59.69 279.73H259.69a11.66 11.66 0 0 0 0 23.3h170.07a11.64 11.64 0 0 0 8.23-19.89 11.67 11.67 0 0 0-8.23-3.41Z" fill="#CCC" />
  <path d="M413.57 158.51H272.42v8.64h141.15v-8.64Z" fill="#CCC" />
  <path d="M341.7 155.92h2.59a4.75 4.75 0 0 1 4.75 4.75h-12.09a4.74 4.74 0 0 1 4.75-4.75Z" fill="#CCC" />
  <path d="M345.49 182.86a26.75 26.75 0 1 0 0-53.5 26.75 26.75 0 0 0 0 53.5Z" fill="#FBCCCC" />
  <path d="M315.64 130.38c.2-3.08 2.24-6.22 8.7-7.86 0 0 11.07-14.17 26.12-6.74 0 0 7.3-1.25 12.7 6.32 0 0 5.37-3.17 7.64 2.44 0 0 6.29 11.44 3.97 23.1-2.31 11.68-3.5 13.13-3.5 13.13s2.95-24.13-14.05-22.46c-17 1.68-30.7-4.3-34.55 8.79-3.2 10.87-2.8 16.52-2.8 16.52s-10.7-10.85-7.06-19.39c1.87-4.37 2.52-9.12 2.83-13.85Z" fill="#2B2B2C" />
  <path d="M272.74 302.3H420.7c-.99-11.29-1.63-54.43-1.63-57.27 0-12.53-10.25-26.2-10.25-26.2l-3.67-2.02-30.63-9.56-7.93-10.3a8.8 8.8 0 0 0-7.06-3.44l-25.04.19a8.8 8.8 0 0 0-5.94 2.35l-15.5 14.38-22.75 10.86-.04-.03-.24.17-3.37 2.43-2.17 1.57s-5.7 6.84-10.25 27.33c-.69 3.09-1.17 43-1.49 49.54Z" fill="#00866E" />
  <path d="m454.95 296.87-1.08.97a174.9 174.9 0 0 1-10.64 8.72H244.05a162.63 162.63 0 0 1-11.72-9.69h222.62Z" fill="#CCC" />
  <path d="M381.94 299.2h-73.22l1.55-7.36h70.12l1.55 7.36Z" fill="#2B2B2C" />
  <path d="M448.18 267.43h-19.05a2.93 2.93 0 0 0-2.26 1.05 4.53 4.53 0 1 0-.8 8.96c.68 0 1.35-.16 1.96-.46l.32 3.9 1.26 15.44a2.97 2.97 0 0 0 2.85 2.1h12.39a2.98 2.98 0 0 0 2.85-2.1l3.33-25.03a2.98 2.98 0 0 0-2.85-3.86Zm-22.12 8.72a3.23 3.23 0 0 1 0-6.46l.17.02c-.12.52-.1 1.06.05 1.58l1.37 4.43a3.3 3.3 0 0 1-1.59.43Zm-20.91-90.63H284.54a3.91 3.91 0 0 0-3.91 3.9v81.4a3.91 3.91 0 0 0 3.9 3.9h120.62a3.91 3.91 0 0 0 3.9-3.9v-81.4a3.91 3.91 0 0 0-3.9-3.9Z" fill="#606568" />
  <path d="M358.43 250.73H330.2a1.51 1.51 0 0 0-1.5 1.51v44.57h31.22v-44.57a1.5 1.5 0 0 0-1.5-1.5Zm-14.02 25.33a3.35 3.35 0 0 1-3.33-3.33v-5.14a3.33 3.33 0 0 1 6.66 0v5.14a3.35 3.35 0 0 1-3.33 3.33Z" fill="#2B2B2C" />
  <path d="M328.61 295.39v4.3a.84.84 0 0 0 .84.84h29.74a.85.85 0 0 0 .84-.84v-4.3H328.6Z" fill="#606568" />
  <path d="M402.58 269.97a1.9 1.9 0 1 0 0-3.81 1.9 1.9 0 0 0 0 3.8Zm-102.82-4.67a.66.66 0 0 0-.47.2.68.68 0 0 0-.2.47v3.43a.67.67 0 0 0 .67.66.67.67 0 0 0 .67-.67v-3.42a.68.68 0 0 0-.2-.48.65.65 0 0 0-.47-.19Zm3.62 0a.66.66 0 0 0-.61.41.66.66 0 0 0-.06.26v3.42a.67.67 0 1 0 1.34 0v-3.42a.66.66 0 0 0-.41-.62.65.65 0 0 0-.26-.05Zm3.62 0a.66.66 0 0 0-.47.2.68.68 0 0 0-.2.47v3.42a.67.67 0 0 0 .67.67.66.66 0 0 0 .67-.67v-3.42a.68.68 0 0 0-.2-.48.65.65 0 0 0-.47-.19Zm3.62 0a.66.66 0 0 0-.62.41.66.66 0 0 0-.05.26v3.42a.67.67 0 0 0 .67.67.66.66 0 0 0 .67-.67v-3.42a.66.66 0 0 0-.42-.62.65.65 0 0 0-.25-.05Z" fill="#2F2E41" />
  <path d="M313.5 297.26a10.07 10.07 0 1 0 0-20.14 10.07 10.07 0 0 0 0 20.14Zm70.38 1.94a10.07 10.07 0 1 0 0-20.15 10.07 10.07 0 0 0 0 20.15Z" fill="#FFB8B8" />
  <path d="M487.84 167.54c-1-1.64-2.17-3.4-4.02-3.94-2.14-.62-4.33.62-6.2 1.84a180.44 180.44 0 0 0-16.08 11.84v.07c4-.28 7.33 10.36 11.33 10.08 2.88-.2 6.56-11.34 9.1-12.7.98-.52 1.92-1.21 3.02-1.26 1.36-.06 2.55.9 3.49 1.89 5.53 5.88 7.13 14.89 13.33 20.06a196.82 196.82 0 0 0-13.97-27.88Z" fill="#606568" />
  <path d="M498.49 181.85a264.57 264.57 0 0 0 9.28 15.49l-.07.54a262.47 262.47 0 0 1-16.67-29.74c-.57-1.23-1.14-2.46-1.74-3.67-.7-1.38-1.53-2.82-2.8-3.75a3.82 3.82 0 0 0-1.99-.76c-1.02 0-2.01.29-2.88.82a94.97 94.97 0 0 0-33.02 29c-.13.18-.44 0-.3-.19.52-.73 1.04-1.46 1.59-2.18a95.38 95.38 0 0 1 31.67-27c.8-.47 1.71-.75 2.65-.82 3.21-.05 4.88 3.6 6.02 6.04l1.09 2.31a266.21 266.21 0 0 0 7.17 13.9Zm-35.4-10.3-.56-.63c-1.49-1.63-3.08-3.26-5.11-4.2a7.42 7.42 0 0 0-3.1-.72 8.91 8.91 0 0 0-3.23.7c-.49.2-.96.42-1.43.66A69.17 69.17 0 0 0 434.52 178c-.17.15-.42-.1-.25-.25a56.48 56.48 0 0 1 2.44-2.16 68.43 68.43 0 0 1 13.03-8.67c.7-.36 1.43-.66 2.18-.9a7.78 7.78 0 0 1 3.31-.32c1.07.16 2.11.51 3.05 1.05 2 1.12 3.55 2.85 5.06 4.53.15.18-.1.43-.25.26Z" fill="#fff" />
  <path d="M448.46 179.44a2.3 2.3 0 0 1-1.43-.41c-1.1-.84-1.07-2.85.09-6.16a6.95 6.95 0 0 1 6.35-4.6 6.43 6.43 0 0 1 3.02.73c.95.53 1.83 1.16 2.65 1.88.7.6 1.43 1.15 2.2 1.63l.27.16-.25.17c-6.28 4.42-10.53 6.6-12.9 6.6Zm24.14-26.3a8.92 8.92 0 0 1-8.75-7.18 8.91 8.91 0 1 0 10.51 7c-.58.13-1.17.18-1.77.18Z" fill="#606568" />
  <path opacity=".74" d="M234.07 167.48a13.3 13.3 0 1 0 0-26.6 13.3 13.3 0 0 0 0 26.6Z" fill="#2B2B2C" />
  <path opacity=".74" d="M247.37 167.48a13.3 13.3 0 1 0 0-26.6 13.3 13.3 0 0 0 0 26.6Z" fill="#00866E" />
  <path opacity=".74" d="M240.83 156.88a13.3 13.3 0 1 0 0-26.6 13.3 13.3 0 0 0 0 26.6Z" fill="#FBCCCC" />
  <path d="m275.6 139.77-34.15 10.73.23.74 34.15-10.73-.23-.74Z" fill="#3F3D56" />
  <path d="M275.82 141.57a1.55 1.55 0 1 0 0-3.1 1.55 1.55 0 0 0 0 3.1Z" fill="#3F3D56" />
  <path d="M497.55 209.75c2.27 1.6 4.45 3.23 6.95 4.46l-.15.57-.9-.44c-2.53-1.33-4.7-3.13-7.08-4.7a15.28 15.28 0 0 0-3.82-1.91 12.6 12.6 0 0 0-4.37-.51c-6.15.3-11.42 3.97-17.13 5.82-2.8.9-5.77 1.39-8.69.82s-5.5-2.12-8.09-3.52c-2.54-1.39-5.3-2.78-8.27-2.78-2.42 0-4.96.97-6.26 3.1a.29.29 0 0 1-.39.1.29.29 0 0 1-.1-.39 6.1 6.1 0 0 1 1.05-1.32 8.46 8.46 0 0 1 6.46-2.04c2.95.24 5.64 1.63 8.2 3.03 2.7 1.5 5.48 3.1 8.6 3.42 3.1.32 6.16-.49 9.02-1.58 5.56-2.1 11.03-5.63 17.21-5.23 2.91.18 5.4 1.44 7.76 3.1Z" fill="#fff" />
  <path d="M254.55 97.7v.8a4.08 4.08 0 0 0-.8-.09h-4.04v8.7a4.86 4.86 0 0 1-4.86 4.86h-6v1.34c0 .54.11 1.07.32 1.57h-.83a4.77 4.77 0 0 1-.26-1.57v-1.34h-3.29v-.77h3.3v-8.7a4.86 4.86 0 0 1 4.85-4.86h5.99v-1.36h.78v1.36h4.05c.26 0 .53.02.79.06Z" fill="#00866E" />
  <path d="M244.85 91.44h-10.82a4.86 4.86 0 0 0-4.86 4.86v10.81a4.86 4.86 0 0 0 4.86 4.86h10.82a4.86 4.86 0 0 0 4.86-4.86V96.28a4.86 4.86 0 0 0-4.86-4.84Zm4.08 15.67a4.09 4.09 0 0 1-4.08 4.09h-10.82a4.1 4.1 0 0 1-4.08-4.09V96.3a4.09 4.09 0 0 1 4.08-4.08h10.82a4.09 4.09 0 0 1 4.08 4.06v10.83Z" fill="#fff" />
  <path d="M238.08 111.2v.77h.78v-.77h-.78Zm0 0v.77h.78v-.77h-.78Zm16.47-13.5a4.83 4.83 0 0 0-.8-.06h-10.8a4.86 4.86 0 0 0-4.87 4.86v10.81a4.86 4.86 0 0 0 4.86 4.86h10.82a4.86 4.86 0 0 0 4.86-4.86V102.5a4.86 4.86 0 0 0-4.07-4.8Zm3.3 15.61a4.08 4.08 0 0 1-4.1 4.09h-10.8a4.1 4.1 0 0 1-4.1-4.09V102.5a4.09 4.09 0 0 1 4.1-4.09h10.8a4.09 4.09 0 0 1 4.1 4.09v10.81Zm-19.77-2.11v.77h.78v-.77h-.78Z" fill="#fff" />
  <path d="M230.43 212.2h-45.95a1.21 1.21 0 0 0-1.2 1.2v2.72c1.51 5.8 3.35 11.53 5.5 17.13h41.65a1.21 1.21 0 0 0 1.11-.74c.07-.15.1-.3.1-.47V213.4a1.2 1.2 0 0 0-1.2-1.2Z" fill="#00866E" />
  <path d="M226.05 239.3h-34.83c.42.97.84 1.93 1.28 2.9h33.55c1.9.02 1.88-2.93 0-2.9Zm0 6.64h-31.8c.46.97.94 1.94 1.43 2.9h30.37c1.9.02 1.88-2.93 0-2.9Zm0 6.64h-28.41c.52.97 1.05 1.94 1.6 2.9h26.81c1.9.03 1.88-2.93 0-2.9Z" fill="#E4E4E4" />
  <path d="M464.26 74h-.22c.68 0 1.36.16 1.97.47h-1a4.09 4.09 0 0 0-4.08 4.08v10.82a4.08 4.08 0 0 0 4.08 4.08h.64c-.51.2-1.06.3-1.61.3h.22a4.47 4.47 0 0 0 4.47-4.47V78.47a4.47 4.47 0 0 0-4.47-4.47Z" fill="#3F3D56" />
  <path opacity=".21" d="M464.26 74h-.22c.68 0 1.36.16 1.97.47h-1a4.09 4.09 0 0 0-4.08 4.08v10.82a4.08 4.08 0 0 0 4.08 4.08h.64c-.51.2-1.06.3-1.61.3h.22a4.47 4.47 0 0 0 4.47-4.47V78.47a4.47 4.47 0 0 0-4.47-4.47Z" fill="#2B2B2C" />
  <path d="M435.59 74h-.22c.68 0 1.36.16 1.98.47h-1a4.09 4.09 0 0 0-4.1 4.08v10.82a4.09 4.09 0 0 0 4.1 4.08h.63c-.51.2-1.06.3-1.61.3h.22a4.48 4.48 0 0 0 4.47-4.47V78.47a4.48 4.48 0 0 0-4.47-4.47Z" fill="#00866E" />
  <path opacity=".21" d="M435.59 74h-.22c.68 0 1.36.16 1.98.47h-1a4.09 4.09 0 0 0-4.1 4.08v10.82a4.09 4.09 0 0 0 4.1 4.08h.63c-.51.2-1.06.3-1.61.3h.22a4.48 4.48 0 0 0 4.47-4.47V78.47a4.48 4.48 0 0 0-4.47-4.47Z" fill="#000" />
  <path d="M436.38 93.48a4.09 4.09 0 0 1-4.08-4.08V78.58a4.09 4.09 0 0 1 4.08-4.08h1c-.6-.3-1.28-.47-1.97-.47h-10.82a4.48 4.48 0 0 0-4.47 4.47v10.82a4.47 4.47 0 0 0 4.47 4.47h10.82c.55 0 1.1-.1 1.61-.3h-.64Z" fill="#00866E" />
  <path d="M465.05 93.48a4.09 4.09 0 0 1-4.08-4.08V78.58a4.08 4.08 0 0 1 4.08-4.08h1c-.6-.3-1.29-.47-1.97-.47h-10.82a4.48 4.48 0 0 0-4.47 4.47v10.82a4.47 4.47 0 0 0 4.47 4.47h10.82c.55 0 1.1-.1 1.61-.3h-.64Z" fill="#606568" />
  <path d="M477.83 76.72a164.2 164.2 0 0 1 10.87 17.07h-6.77a4.48 4.48 0 0 1-4.47-4.47V78.5c0-.61.12-1.22.37-1.78Z" fill="#FBCCCC" />
  <path d="m464.25 99.46-3.8-5.67-2.76-4.15a1.54 1.54 0 0 0-2.76.4l-1.16 3.75-2.35 7.53a1.54 1.54 0 0 0 1.4 2c.3.02.62-.06.89-.23l.83-.51a1.16 1.16 0 0 1 1.56.33c.11.16.18.35.2.55l.76 8.33a1.54 1.54 0 0 0 1.54 1.4h.14l1.17-.11a1.54 1.54 0 0 0 1.4-1.68l-.8-8.6a1.16 1.16 0 0 1 1.64-1.16l.17.08a1.53 1.53 0 0 0 1.82-.4 1.55 1.55 0 0 0 .1-1.86Z" fill="#CCC" />
</svg>