<svg width="18" height="18" viewBox="0 0 18 18" fill="none" xmlns="http://www.w3.org/2000/svg">
<path fill-rule="evenodd" clip-rule="evenodd" d="M15.7236 2.05285C14.9959 1.68901 14.2684 1.94421 13.7628 2.24058C13.254 2.53882 12.8422 2.9507 12.6533 3.13961L12.6465 3.14651L12.6464 3.14651L10.8212 4.9718L3.93346 4.05344C3.54754 4.00198 3.15968 4.13328 2.88438 4.40859L2.14645 5.14651C2.03758 5.25539 1.98494 5.40834 2.00375 5.56116C2.02256 5.71397 2.11073 5.8496 2.24276 5.92881L7.00613 8.78684L5.64645 10.1465C5.53246 10.2605 5.39788 10.4032 5.25092 10.5674C5.2047 10.5406 5.15337 10.5208 5.09806 10.5098L2.79486 10.0491C2.50798 9.99174 2.21141 10.0815 2.00454 10.2884L1.14645 11.1465C1.03758 11.2554 0.984938 11.4083 1.00375 11.5611C1.02256 11.7139 1.11073 11.8496 1.24276 11.9288L3.37422 13.2077C3.36042 13.2355 3.34691 13.2633 3.33373 13.291C3.14764 13.6818 3 14.1067 3 14.5001C3 14.7762 3.22386 15.0001 3.5 15.0001C3.89342 15.0001 4.31831 14.8524 4.70911 14.6663C4.7368 14.6532 4.76456 14.6397 4.7924 14.6259L6.07126 16.7573C6.15047 16.8893 6.2861 16.9775 6.43891 16.9963C6.59173 17.0151 6.74469 16.9625 6.85356 16.8536L7.71165 15.9955C7.91852 15.7886 8.00831 15.4921 7.95093 15.2052L7.49029 12.902C7.47924 12.8467 7.45945 12.7954 7.43266 12.7492C7.5969 12.6022 7.73957 12.4676 7.85356 12.3536L9.21323 10.9939L12.0713 15.7573C12.1505 15.8893 12.2861 15.9775 12.4389 15.9963C12.5917 16.0151 12.7447 15.9625 12.8536 15.8536L13.5915 15.1157C13.8668 14.8404 13.9981 14.4525 13.9466 14.0666L13.0283 7.1789L14.8536 5.35363L14.8536 5.35362L14.8606 5.34663C15.0495 5.15772 15.4613 4.74597 15.7595 4.2373C16.0559 3.73171 16.3111 3.00414 15.9472 2.27646C15.8988 2.17969 15.8204 2.10123 15.7236 2.05285ZM6.5818 13.4585C6.3716 13.6222 6.15061 13.786 5.92567 13.9421C5.83715 14.0035 5.74747 14.0641 5.65709 14.1234L6.59927 15.6937L6.95723 15.3357L6.5818 13.4585ZM3.87672 12.343C3.93594 12.2526 3.99654 12.1629 4.05796 12.0744C4.21405 11.8495 4.37789 11.6285 4.54155 11.4183L2.66434 11.0428L2.30638 11.4008L3.87672 12.343ZM11.3576 5.84959L11.35 5.85713L6.35356 10.8536C5.99939 11.2078 5.3936 11.9036 4.87955 12.6445C4.62288 13.0144 4.39672 13.3846 4.23659 13.7209C4.22373 13.7479 4.21144 13.7744 4.19972 13.8004C4.22569 13.7886 4.25218 13.7763 4.27918 13.7635C4.61545 13.6034 4.98569 13.3772 5.35559 13.1205C6.09643 12.6065 6.79229 12.0007 7.14645 11.6465L12.1431 6.6499L12.1504 6.64261L14.1464 4.64653C14.3359 4.45711 14.6675 4.12278 14.8968 3.73158C15.086 3.40883 15.1599 3.12874 15.1104 2.88967C14.8713 2.84012 14.5912 2.91409 14.2685 3.10328C13.8773 3.33261 13.543 3.6642 13.3536 3.85361L13.3536 3.85361L11.3576 5.84959ZM3.8013 5.04466L9.931 5.86196L7.735 8.05797L3.30638 5.4008L3.59148 5.11569C3.64654 5.06063 3.72412 5.03437 3.8013 5.04466ZM9.9421 10.2651L12.1381 8.06907L12.9554 14.1988C12.9657 14.276 12.9394 14.3535 12.8844 14.4086L12.5993 14.6937L9.9421 10.2651Z" fill="#2B2B2C"/>
</svg>
