<svg width="30" height="30" viewBox="0 0 30 30" fill="none" xmlns="http://www.w3.org/2000/svg">
<path fill-rule="evenodd" clip-rule="evenodd" d="M24.8554 3.38913C25.3038 3.31629 25.7866 3.33411 26.2236 3.55265C26.3204 3.60103 26.3988 3.67949 26.4472 3.77625C26.6657 4.21331 26.6836 4.69605 26.6107 5.14447C26.5377 5.5938 26.3684 6.04466 26.1678 6.45415C25.7688 7.2688 25.2054 8.00156 24.8536 8.35341L24.5 7.99987L24.8536 8.35342L21.0428 12.1642L23.3591 23.7458C23.4738 24.3196 23.2943 24.9127 22.8805 25.3265L21.3536 26.8534C21.2437 26.9633 21.0891 27.0158 20.935 26.9956C20.781 26.9754 20.6451 26.8848 20.5673 26.7504L15.3934 17.8136L13.3536 19.8534C12.8884 20.3186 12.0146 21.1092 10.998 21.9302L11.8992 25.5353C11.9951 25.9187 11.8828 26.3242 11.6033 26.6037L10.8536 27.3534C10.7503 27.4567 10.6071 27.5096 10.4615 27.4984C10.3159 27.4871 10.1825 27.4128 10.0963 27.2949L7.81524 24.1734C7.71692 24.2296 7.61945 24.2836 7.52305 24.3352C6.82082 24.7111 6.10146 24.9999 5.5 24.9999C5.22386 24.9999 5 24.776 5 24.4999C5 23.8984 5.2888 23.1791 5.66464 22.4768C5.71623 22.3804 5.77025 22.283 5.82644 22.1846L2.70499 19.9036C2.58709 19.8174 2.51275 19.684 2.50149 19.5384C2.49023 19.3928 2.54319 19.2496 2.64645 19.1463L3.39623 18.3965C3.67565 18.1171 4.0812 18.0048 4.46457 18.1006L8.06962 19.0019C8.89065 17.9853 9.68128 17.1115 10.1465 16.6463L12.1863 14.6065L3.24949 9.43258C3.11505 9.35475 3.02443 9.21886 3.00424 9.06483C2.98406 8.91081 3.03661 8.75616 3.14645 8.64631L4.67341 7.11935C5.08715 6.70561 5.6803 6.52602 6.25405 6.64077L17.8357 8.9571L21.6464 5.14632C21.9983 4.79446 22.731 4.23108 23.5457 3.83207C23.9552 3.6315 24.406 3.46212 24.8554 3.38913ZM18.3487 9.85829L18.3591 9.8479L22.3536 5.85342L22 5.49987L22.3536 5.85341C22.6267 5.58025 23.269 5.08112 23.9856 4.73013C24.3417 4.55569 24.6955 4.4282 25.0157 4.37619C25.2518 4.33785 25.4503 4.3434 25.6135 4.38635C25.6565 4.5496 25.662 4.74809 25.6237 4.98413C25.5716 5.30432 25.4442 5.65815 25.2697 6.01428C24.9187 6.73088 24.4196 7.37315 24.1464 7.64632L20.1519 11.6409L20.1417 11.6511L15.154 16.6387L15.1494 16.6432L15.1384 16.6544L12.6465 19.1463C12.0399 19.7528 10.6528 20.9866 9.18778 22.0661C8.45557 22.6056 7.71523 23.0982 7.05118 23.4536C6.70278 23.64 6.39423 23.7782 6.13092 23.8689C6.22166 23.6056 6.35984 23.2971 6.54631 22.9487C6.90172 22.2846 7.39426 21.5443 7.93378 20.8121C9.01329 19.347 10.247 17.9599 10.8536 17.3534L13.3454 14.8615L13.3513 14.8558L13.3612 14.8458L18.3487 9.85829Z" fill="#2B2B2C"/>
</svg>
