<svg width="30" height="30" viewBox="0 0 30 30" fill="none" xmlns="http://www.w3.org/2000/svg">
<path fill-rule="evenodd" clip-rule="evenodd" d="M26.2236 3.55265C25.7865 3.33411 25.3038 3.31629 24.8554 3.38913C24.406 3.46212 23.9552 3.6315 23.5457 3.83207C22.731 4.23108 21.9983 4.79446 21.6464 5.14632L17.8357 8.9571L6.25404 6.64077C5.68029 6.52602 5.08715 6.70561 4.6734 7.11935L3.14644 8.64631C3.0366 8.75616 2.98405 8.91081 3.00424 9.06483C3.02442 9.21886 3.11504 9.35475 3.24948 9.43258L12.1863 14.6065L10.1464 16.6463C9.68127 17.1115 8.89064 17.9853 8.06962 19.0019L4.46457 18.1006C4.0812 18.0048 3.67565 18.1171 3.39623 18.3965L2.64645 19.1463C2.54319 19.2496 2.49023 19.3928 2.50149 19.5384C2.51275 19.684 2.58709 19.8174 2.70499 19.9036L5.82643 22.1846C5.77024 22.283 5.71622 22.3804 5.66463 22.4768C5.28879 23.1791 5 23.8984 5 24.4999C5 24.776 5.22385 24.9999 5.5 24.9999C6.10146 24.9999 6.82081 24.7111 7.52304 24.3352C7.61944 24.2836 7.71691 24.2296 7.81524 24.1734L10.0963 27.2949C10.1825 27.4128 10.3159 27.4871 10.4615 27.4984C10.6071 27.5096 10.7503 27.4567 10.8536 27.3534L11.6033 26.6037C11.8828 26.3242 11.9951 25.9187 11.8992 25.5353L10.998 21.9302C12.0146 21.1092 12.8884 20.3186 13.3536 19.8534L15.3934 17.8136L20.5673 26.7504C20.6451 26.8848 20.781 26.9754 20.935 26.9956C21.0891 27.0158 21.2437 26.9633 21.3535 26.8534L22.8805 25.3265C23.2943 24.9127 23.4738 24.3196 23.3591 23.7458L21.0428 12.1642L24.8535 8.35342L24.5 7.99987L24.8536 8.35341C25.2054 8.00156 25.7688 7.2688 26.1678 6.45415C26.3683 6.04466 26.5377 5.5938 26.6107 5.14447C26.6836 4.69605 26.6657 4.21331 26.4472 3.77625C26.3988 3.67949 26.3204 3.60103 26.2236 3.55265ZM10.136 22.6056C10.0184 22.6948 9.89993 22.7835 9.78097 22.8711C9.41426 23.1414 9.0402 23.4042 8.66937 23.6474L10.5593 26.2335L10.8962 25.8965C10.9273 25.8655 10.9398 25.8204 10.9291 25.7778L10.136 22.6056ZM6.35249 21.3305C6.59571 20.9597 6.85851 20.5856 7.12872 20.2189C7.21637 20.0999 7.30502 19.9815 7.39427 19.8638L4.22204 19.0708C4.17944 19.0601 4.13438 19.0726 4.10333 19.1037L3.76636 19.4406L6.35249 21.3305ZM18.3591 9.8479L18.3487 9.85829L13.3612 14.8458C13.3561 14.8511 13.3508 14.8564 13.3454 14.8615L10.8535 17.3534C10.247 17.9599 9.01329 19.347 7.93377 20.8121C7.39426 21.5443 6.90171 22.2846 6.5463 22.9487C6.35983 23.2971 6.22165 23.6056 6.13091 23.8689C6.39422 23.7782 6.70277 23.64 7.05117 23.4536C7.71523 23.0982 8.45557 22.6056 9.18777 22.0661C10.6528 20.9866 12.0399 19.7528 12.6464 19.1463L15.1384 16.6544C15.142 16.6506 15.1457 16.6469 15.1494 16.6432C15.151 16.6417 15.1525 16.6402 15.154 16.6387L20.1417 11.6511L20.1518 11.6409L24.1464 7.64632C24.4196 7.37315 24.9187 6.73088 25.2697 6.01428C25.4441 5.65815 25.5716 5.30432 25.6237 4.98413C25.662 4.74809 25.6564 4.5496 25.6135 4.38635C25.4502 4.3434 25.2518 4.33785 25.0157 4.37619C24.6955 4.4282 24.3417 4.55569 23.9856 4.73013C23.269 5.08112 22.6267 5.58025 22.3536 5.85341L22 5.49987L22.3535 5.85342L18.3591 9.8479ZM6.05793 7.62136L16.9858 9.80693L12.9181 13.8747L4.31374 8.89323L5.38051 7.82646C5.55783 7.64914 5.81203 7.57218 6.05793 7.62136ZM21.1066 25.6861L16.1252 17.0818L20.1929 13.014L22.3785 23.9419C22.4277 24.1878 22.3507 24.442 22.1734 24.6194L21.1066 25.6861Z" fill="#2B2B2C"/>
</svg>
