<svg width="24" height="24" viewBox="0 0 24 24" fill="none" xmlns="http://www.w3.org/2000/svg">
<path fill-rule="evenodd" clip-rule="evenodd" d="M10.7138 3.17186C11.2964 2.20085 12.7037 2.20085 13.2863 3.17186L16.1832 8H19.5C20.8807 8 22 9.11929 22 10.5V17C22 17.5523 21.5523 18 21 18H19.4489C19.3832 18.3334 19.2476 18.7063 19.0058 19.0422C18.6131 19.5876 17.963 20 17 20C16.037 20 15.3869 19.5876 14.9942 19.0422C14.7524 18.7063 14.6168 18.3334 14.5511 18H9.44893C9.38319 18.3334 9.24756 18.7063 9.00577 19.0422C8.61307 19.5876 7.96296 20 7 20C6.03704 20 5.38693 19.5876 4.99423 19.0422C4.75244 18.7063 4.61681 18.3334 4.55107 18H3C2.44771 18 2 17.5523 2 17V10.5C2 9.11929 3.11929 8 4.5 8H7.81692L10.7138 3.17186ZM7.21692 9H4.5C3.67157 9 3 9.67157 3 10.5V17H5C5.27614 17 5.5 17.2239 5.5 17.5C5.5 17.7533 5.58011 18.1444 5.80577 18.4578C6.01307 18.7458 6.36296 19 7 19C7.63704 19 7.98693 18.7458 8.19423 18.4578C8.41989 18.1444 8.5 17.7533 8.5 17.5C8.5 17.2239 8.72386 17 9 17H15C15.2761 17 15.5 17.2239 15.5 17.5C15.5 17.7533 15.5801 18.1444 15.8058 18.4578C16.0131 18.7458 16.363 19 17 19C17.637 19 17.9869 18.7458 18.1942 18.4578C18.4199 18.1444 18.5 17.7533 18.5 17.5C18.5 17.2239 18.7239 17 19 17H21V10.5C21 9.67157 20.3284 9 19.5 9H16.7832L19.0201 12.7282C19.62 13.728 18.8998 15 17.7339 15H6.26623C5.10029 15 4.38012 13.728 4.97999 12.7282L7.21692 9ZM12.5 11.4999C12.5 11.2238 12.2762 10.9999 12 10.9999C11.7239 10.9999 11.5 11.2238 11.5 11.4999V11.9999C11.5 12.2761 11.7239 12.4999 12 12.4999C12.2762 12.4999 12.5 12.2761 12.5 11.9999V11.4999ZM12 5.99994C12.2762 5.99994 12.5 6.2238 12.5 6.49994V9.49994C12.5 9.77608 12.2762 9.99994 12 9.99994C11.7239 9.99994 11.5 9.77608 11.5 9.49994V6.49994C11.5 6.2238 11.7239 5.99994 12 5.99994Z" fill="#2B2B2C"/>
</svg>
