<svg width="18" height="18" viewBox="0 0 18 18" fill="none" xmlns="http://www.w3.org/2000/svg">
<path fill-rule="evenodd" clip-rule="evenodd" d="M8.78351 2.37157C8.8798 2.20525 9.11993 2.20524 9.21622 2.37157L13.4154 9.62467C13.5119 9.79134 13.3916 9.99993 13.199 9.99993H4.8007C4.60811 9.99993 4.48785 9.79134 4.58434 9.62467L8.78351 2.37157ZM10.0816 1.87053C9.60019 1.03893 8.39954 1.03892 7.91808 1.87053L5.81681 5.5H3C1.89543 5.5 1 6.39543 1 7.5V12.625C1 13.1082 1.39175 13.5 1.875 13.5H3.06295C3.12132 13.7383 3.22517 13.9948 3.39423 14.2297C3.71193 14.6709 4.23704 15 5 15C5.76296 15 6.28807 14.6709 6.60577 14.2297C6.77483 13.9948 6.87868 13.7383 6.93705 13.5H11.0629C11.1213 13.7383 11.2252 13.9948 11.3942 14.2297C11.7119 14.6709 12.237 15 13 15C13.763 15 14.2881 14.6709 14.6058 14.2297C14.7748 13.9948 14.8787 13.7383 14.9371 13.5H16.125C16.6082 13.5 17 13.1082 17 12.625V7.5C17 6.39543 16.1046 5.5 15 5.5H12.1829L10.0816 1.87053ZM12.7619 6.5L14.2808 9.12364C14.7633 9.95697 14.1619 10.9999 13.199 10.9999H4.8007C3.83778 10.9999 3.23646 9.95697 3.71891 9.12363L5.23786 6.5H3C2.44772 6.5 2 6.94772 2 7.5V12.5H3.5C3.77614 12.5 4 12.7239 4 13C4 13.17 4.05511 13.4361 4.20577 13.6453C4.33807 13.8291 4.56296 14 5 14C5.43704 14 5.66193 13.8291 5.79423 13.6453C5.94489 13.4361 6 13.17 6 13C6 12.7239 6.22386 12.5 6.5 12.5H11.5C11.7761 12.5 12 12.7239 12 13C12 13.17 12.0551 13.4361 12.2058 13.6453C12.3381 13.8291 12.563 14 13 14C13.437 14 13.6619 13.8291 13.7942 13.6453C13.9449 13.4361 14 13.17 14 13C14 12.7239 14.2239 12.5 14.5 12.5H16V7.5C16 6.94772 15.5523 6.5 15 6.5H12.7619ZM9 4C9.27614 4 9.5 4.22386 9.5 4.5V6.5C9.5 6.77614 9.27614 7 9 7C8.72386 7 8.5 6.77614 8.5 6.5V4.5C8.5 4.22386 8.72386 4 9 4ZM9.5 8C9.5 7.72386 9.27614 7.5 9 7.5C8.72386 7.5 8.5 7.72386 8.5 8V8.5C8.5 8.77614 8.72386 9 9 9C9.27614 9 9.5 8.77614 9.5 8.5V8Z" fill="#2B2B2C"/>
</svg>
