<svg width="24" height="24" viewBox="0 0 24 24" fill="none" xmlns="http://www.w3.org/2000/svg">
<path fill-rule="evenodd" clip-rule="evenodd" d="M13 5C12.7239 5 12.5 5.22386 12.5 5.5C12.5 5.77614 12.7239 6 13 6H13.8027C14.0122 6 14.1995 6.13058 14.2719 6.32715L15.1039 8.58556C13.1366 9.10354 11.5762 9.7997 10.3192 10.5508L8.86163 8H9.5C9.77614 8 10 7.77614 10 7.5C10 7.22386 9.77614 7 9.5 7H7.9997H7.99955H7.91421C7.51639 7 7.13486 7.15804 6.85355 7.43934L6.64645 7.64645C6.45118 7.84171 6.45118 8.15829 6.64645 8.35355C6.84171 8.54882 7.15829 8.54882 7.35355 8.35355L7.56066 8.14645C7.60939 8.09772 7.66713 8.06009 7.72998 8.03518L9.47648 11.0916C9.19794 11.2832 8.93668 11.4765 8.69109 11.6695C8.61451 11.7296 8.53938 11.7899 8.46565 11.8501C7.78624 11.3175 6.9302 11 6 11C3.79086 11 2 12.7909 2 15C2 17.2091 3.79086 19 6 19C8.20914 19 10 17.2091 10 15C10 14.9052 9.9967 14.8112 9.99022 14.7181C11.2644 13.4654 13.3722 11.7055 16.0324 11.5166C14.8189 12.2035 14 13.5061 14 15C14 17.2091 15.7909 19 18 19C20.2091 19 22 17.2091 22 15C22 12.7909 20.2091 11 18 11C17.6894 11 17.3871 11.0354 17.0969 11.1024L15.2102 5.98144C14.993 5.39175 14.4312 5 13.8027 5H13ZM16.508 12.3967L17.5308 15.1729C17.6263 15.432 17.9137 15.5646 18.1729 15.4692C18.432 15.3737 18.5646 15.0863 18.4692 14.8271L17.4464 12.051C17.6258 12.0175 17.8109 12 18 12C19.6569 12 21 13.3431 21 15C21 16.6569 19.6569 18 18 18C16.3431 18 15 16.6569 15 15C15 13.8863 15.6069 12.9143 16.508 12.3967ZM15.8205 10.5304L15.4513 9.52841C12.6156 10.2616 10.6868 11.3731 9.30891 12.4558C9.26293 12.4919 9.2176 12.528 9.17289 12.5639C9.40767 12.8693 9.59937 13.2095 9.73888 13.5754C11.0704 12.3439 13.1715 10.7675 15.8205 10.5304ZM7.69353 12.5234C7.21157 12.1932 6.62835 12 6 12C4.34315 12 3 13.3431 3 15C3 16.6569 4.34315 18 6 18C7.65685 18 9 16.6569 9 15C9 14.3327 8.78211 13.7162 8.4136 13.218C7.84219 13.7439 7.38974 14.239 6.99399 14.672L6.99398 14.672C6.7656 14.9219 6.55612 15.1511 6.35355 15.3537C6.15829 15.5489 5.84171 15.5489 5.64645 15.3537C5.45118 15.1584 5.45118 14.8418 5.64645 14.6466C5.8072 14.4858 5.99054 14.2853 6.2003 14.0558L6.20032 14.0558L6.20033 14.0558C6.59563 13.6233 7.08478 13.0883 7.69353 12.5234Z" fill="#2B2B2C"/>
</svg>
