<svg width="24" height="24" viewBox="0 0 24 24" fill="none" xmlns="http://www.w3.org/2000/svg">
<path fill-rule="evenodd" clip-rule="evenodd" d="M6.6087 6.5C6.15018 6.5 5.73974 6.78443 5.57874 7.21376L4.69973 9.5578L8.4999 9.6578V6.5H6.6087ZM9.4999 9.68412L16.3726 9.86498L14.8063 7.85121C14.1432 6.99865 13.1236 6.5 12.0436 6.5H9.4999V9.68412ZM17.6659 9.89901L15.5957 7.23727C14.7431 6.14113 13.4322 5.5 12.0436 5.5H6.6087C5.73333 5.5 4.94978 6.043 4.64241 6.86264L3.61643 9.5986C2.69192 9.81657 2 10.6471 2 11.6427V15.2001C2 15.9181 2.58203 16.5001 3.3 16.5001H4.05003C4.28169 17.6412 5.29055 18.5 6.5 18.5C7.70945 18.5 8.71831 17.6412 8.94997 16.5001H15.05C15.2817 17.6412 16.2906 18.5 17.5 18.5C18.7095 18.5 19.7183 17.6412 19.95 16.5001H20.7C21.418 16.5001 22 15.9181 22 15.2001V13.0001H21.25H20.25C19.9739 13.0001 19.75 12.7762 19.75 12.5001C19.75 12.2239 19.9739 12.0001 20.25 12.0001H21.25H21.8771C21.5253 10.8324 20.4567 9.97245 19.1763 9.93876L17.6659 9.89901ZM8 16C8 16.8284 7.32843 17.5 6.5 17.5C5.67157 17.5 5 16.8284 5 16C5 15.1716 5.67157 14.5 6.5 14.5C7.32843 14.5 8 15.1716 8 16ZM19 16C19 16.8284 18.3284 17.5 17.5 17.5C16.6716 17.5 16 16.8284 16 16C16 15.1716 16.6716 14.5 17.5 14.5C18.3284 14.5 19 15.1716 19 16ZM9.75 12.0001C9.47386 12.0001 9.25 12.2239 9.25 12.5001C9.25 12.7762 9.47386 13.0001 9.75 13.0001H11.25C11.5261 13.0001 11.75 12.7762 11.75 12.5001C11.75 12.2239 11.5261 12.0001 11.25 12.0001H9.75Z" fill="#2B2B2C"/>
</svg>
