<svg width="18" height="18" viewBox="0 0 18 18" fill="none" xmlns="http://www.w3.org/2000/svg">
<path fill-rule="evenodd" clip-rule="evenodd" d="M4.30107 5.45421C4.40353 5.181 4.66471 5 4.9565 5H6.2499V7.15793L3.69413 7.07274L4.30107 5.45421ZM2.6378 7.04161L3.36474 5.10309C3.61356 4.43957 4.24787 4 4.9565 4H9.03265C10.1127 4 11.1323 4.49865 11.7954 5.35121L13.3856 7.39579L14.7766 7.44216C16.0164 7.48348 17 8.50045 17 9.74088V11.3999C17 12.0074 16.5075 12.4999 15.9 12.4999H14.937C14.715 13.3626 13.932 14 13 14C12.068 14 11.285 13.3626 11.063 12.4999H6.43702C6.21504 13.3626 5.43196 14 4.5 14C3.56804 14 2.78496 13.3626 2.56298 12.4999H2.1C1.49249 12.4999 1 12.0074 1 11.3999V8.74055C1 7.8194 1.73131 7.07379 2.6378 7.04161ZM12.085 7.35244L11.006 5.96515C10.5324 5.35618 9.80413 5 9.03265 5H7.2499V7.19127L12.085 7.35244ZM14.9999 9C14.7238 9 14.4999 9.22386 14.4999 9.5C14.4999 9.77614 14.7238 10 14.9999 10H16V11.3999C16 11.4551 15.9552 11.4999 15.9 11.4999H14.937C14.7149 10.6373 13.9319 10 13 10C12.0681 10 11.2851 10.6373 11.063 11.4999H6.43696C6.2149 10.6373 5.43188 10 4.5 10C3.56812 10 2.7851 10.6373 2.56304 11.4999H2.1C2.04477 11.4999 2 11.4551 2 11.3999V8.74055C2 8.34481 2.3278 8.02775 2.72332 8.04094L14.7433 8.4416C15.1693 8.4558 15.5417 8.67376 15.7683 9H14.9999ZM5.5 12C5.5 12.5523 5.05228 13 4.5 13C3.94772 13 3.5 12.5523 3.5 12C3.5 11.4477 3.94772 11 4.5 11C5.05228 11 5.5 11.4477 5.5 12ZM14 12C14 12.5523 13.5523 13 13 13C12.4477 13 12 12.5523 12 12C12 11.4477 12.4477 11 13 11C13.5523 11 14 11.4477 14 12Z" fill="#2B2B2C"/>
</svg>
