<svg width="24" height="24" viewBox="0 0 24 24" fill="none" xmlns="http://www.w3.org/2000/svg">
<path d="M11.8 11.8C12.2418 11.8 12.6 11.4418 12.6 11C12.6 10.5581 12.2418 10.2 11.8 10.2C11.3582 10.2 11 10.5581 11 11C11 11.4418 11.3582 11.8 11.8 11.8Z" fill="#2B2B2C"/>
<path d="M8.8 11.8C9.24183 11.8 9.6 11.4418 9.6 11C9.6 10.5581 9.24183 10.2 8.8 10.2C8.35817 10.2 8 10.5581 8 11C8 11.4418 8.35817 11.8 8.8 11.8Z" fill="#2B2B2C"/>
<path d="M22.4 11.2C22.3 11.1 22.2 11 22 11H19.5C19.5 10.9 19.5 10.9 19.5 10.8L17.6 5.6C17.4 5.3 17.1 5 16.6 5H16V3.5C16 3.2 15.8 3 15.5 3C15.2 3 15 3.2 15 3.5V5H14V2.5C14 2.2 13.8 2 13.5 2C13.2 2 13 2.2 13 2.5V5H12.7C12.3 5 12 5.3 12 5.7C11.9 6.2 11.6 6.7 11.1 7.1C10.9 7.3 10.6 7.4 10.4 7.5C10.2 7.6 10 7.6 9.9 7.6H7.5C7.3 7.6 7.2 7.7 7.1 7.8L4.7 11H2.5C2.2 11 2 11.2 2 11.5V14.5C2 15.9 2.8 16.7 3.3 16.9C3.3 17 3.4 17 3.5 17H3.6L4.6 16.8C5.8 16.6 7 16.8 8.1 17.2H8.2C10 18 12.1 18 13.9 17.2C15 16.7 16.3 16.6 17.5 16.8L18 16.9C18 16.9 18 16.9 18.1 16.9H18.4C19.9 16.9 21.3 15.9 21.8 14.4L22.7 11.5C22.5 11.5 22.5 11.3 22.4 11.2ZM17.7 9H15V8H17.4L17.7 9ZM16 11C15.8 11 15.6 11.1 15.6 11.3C15.2 12 14.8 12.4 14.4 12.7C13.9 12.9 13.4 13 13 13H3V12H5C5.2 12 5.3 11.9 5.4 11.8L7.8 8.5H10C10.2 8.5 10.5 8.4 10.8 8.3C11.1 8.2 11.4 8 11.7 7.8C12.2 7.4 12.8 6.8 12.9 6H13.4H15.4H16.5L17 7H15C14.4 7 14 7.4 14 8V9C14 9.6 14.4 10 15 10H18H18.1L18.5 11H16Z" fill="#2B2B2C"/>
<path d="M19.6 18.5L18.5 18.2C16.8 17.7 15.1 17.8 13.5 18.5C11.9 19.1 10.1 19.1 8.5 18.5C6.9 17.9 5.1 17.8 3.5 18.2L2.4 18.5C2.1 18.6 2 18.9 2.1 19.1C2.2 19.3 2.5 19.5 2.7 19.4L3.8 19.1C5.2 18.7 6.8 18.7999 8.2 19.2999C10 19.9999 12.1 19.9999 14 19.2999C15.4 18.6999 16.9 18.7 18.4 19.1L19.5 19.4C19.8 19.5 20 19.3 20.1 19.1C20.1 18.9 19.9 18.6 19.6 18.5Z" fill="#2B2B2C"/>
</svg>
