<svg width="30" height="30" viewBox="0 0 30 30" fill="none" xmlns="http://www.w3.org/2000/svg">
<g clip-path="url(#clip0_1541_88242)">
<path fill-rule="evenodd" clip-rule="evenodd" d="M4.33249 8.8642C4.40273 8.09158 5.05052 7.5 5.82633 7.5H7V12.0899L4.04462 12.0308L4.33249 8.8642ZM8 12.1099L13.4999 12.2199V7.5H8V12.1099ZM22.6151 12.4022L14.4999 12.2399V7.5H15.545C16.6762 7.5 17.766 7.92608 18.5972 8.69338L22.6151 12.4022ZM19.2755 7.95858L24.1221 12.4323L24.57 12.4413C25.9622 12.4691 27.1512 13.3071 27.6906 14.5H25.75C25.4739 14.5 25.25 14.7238 25.25 15C25.25 15.2761 25.4739 15.5 25.75 15.5H27.9725C27.9907 15.6443 28 15.7914 28 15.9406V18.5C28 19.8807 26.8807 21 25.5 21H24.9585C24.7205 22.4188 23.4865 23.5 22 23.5C20.5135 23.5 19.2795 22.4188 19.0415 21H9.95852C9.72049 22.4188 8.4865 23.5 7 23.5C5.5135 23.5 4.27951 22.4188 4.04148 21H3.5C2.67157 21 2 20.3284 2 19.5V14.0303C2 13.2819 2.41059 12.631 3.0171 12.2881L3.3366 8.77366C3.45366 7.48596 4.53332 6.5 5.82633 6.5H15.545C16.9276 6.5 18.2595 7.02076 19.2755 7.95858ZM7 22.5C8.10457 22.5 9 21.6046 9 20.5C9 19.3954 8.10457 18.5 7 18.5C5.89543 18.5 5 19.3954 5 20.5C5 21.6046 5.89543 22.5 7 22.5ZM22 22.5C23.1046 22.5 24 21.6046 24 20.5C24 19.3954 23.1046 18.5 22 18.5C20.8954 18.5 20 19.3954 20 20.5C20 21.6046 20.8954 22.5 22 22.5ZM15.25 14.5C14.9739 14.5 14.75 14.7238 14.75 15C14.75 15.2761 14.9739 15.5 15.25 15.5H16.75C17.0261 15.5 17.25 15.2761 17.25 15C17.25 14.7238 17.0261 14.5 16.75 14.5H15.25ZM7.75 15C7.75 14.7238 7.97386 14.5 8.25 14.5H9.75C10.0261 14.5 10.25 14.7238 10.25 15C10.25 15.2761 10.0261 15.5 9.75 15.5H8.25C7.97386 15.5 7.75 15.2761 7.75 15Z" fill="#2B2B2C"/>
</g>
<defs>
<clipPath id="clip0_1541_88242">
<rect width="30" height="30" fill="white"/>
</clipPath>
</defs>
</svg>
