<svg width="24" height="24" viewBox="0 0 24 24" fill="none" xmlns="http://www.w3.org/2000/svg">
<path fill-rule="evenodd" clip-rule="evenodd" d="M4.94794 6C4.38281 6 3.90963 6.42822 3.8534 6.99055L3.59896 9.53489C3.64705 9.53209 3.69567 9.53129 3.74472 9.53258L6 9.59193V6H4.94794ZM7 6V9.61825L11 9.72351V6H7ZM2.85836 6.89104L2.54941 9.98053C2.212 10.2909 2 10.7361 2 11.232V15.7C2 16.418 2.58203 17 3.3 17H4.05001C4.28164 18.1411 5.29052 19 6.5 19C7.70948 19 8.71836 18.1411 8.94999 17H15.05C15.2816 18.1411 16.2905 19 17.5 19C18.7097 19 19.7187 18.1408 19.9501 16.9994C21.0868 16.9728 22 16.043 22 14.9V12.8377C22 11.2658 20.7477 9.98003 19.1763 9.93868L18.6551 9.92496L15.5633 6.48966C14.7099 5.54145 13.4942 5 12.2185 5H4.94794C3.86906 5 2.96571 5.81752 2.85836 6.89104ZM14.82 7.15862L17.2771 9.8887L12 9.74983V6H12.2185C13.2107 6 14.1563 6.42113 14.82 7.15862ZM19.5 12.5C19.5 12.2239 19.7238 12 20 12H20.8058C20.5036 11.3858 19.8792 10.9575 19.15 10.9383L3.71841 10.5322C3.32474 10.5219 3 10.8382 3 11.232V15.7C3 15.8657 3.13431 16 3.3 16H4.05001C4.28164 14.8589 5.29052 14 6.5 14C7.70948 14 8.71836 14.8589 8.94999 16H15.05C15.2816 14.8589 16.2905 14 17.5 14C18.7091 14 19.7177 14.8583 19.9498 15.9989C20.5342 15.9729 21 15.4908 21 14.9V13H20C19.7238 13 19.5 12.7761 19.5 12.5ZM6.5 18C7.32843 18 8 17.3284 8 16.5C8 15.6716 7.32843 15 6.5 15C5.67157 15 5 15.6716 5 16.5C5 17.3284 5.67157 18 6.5 18ZM17.5 18C18.3284 18 19 17.3284 19 16.5C19 15.6716 18.3284 15 17.5 15C16.6716 15 16 15.6716 16 16.5C16 17.3284 16.6716 18 17.5 18ZM12 12.5C12 12.2239 12.2239 12 12.5 12H13.5C13.7761 12 14 12.2239 14 12.5C14 12.7761 13.7761 13 13.5 13H12.5C12.2239 13 12 12.7761 12 12.5ZM6.5 12C6.22386 12 6 12.2239 6 12.5C6 12.7761 6.22386 13 6.5 13H7.5C7.77614 13 8 12.7761 8 12.5C8 12.2239 7.77614 12 7.5 12H6.5Z" fill="#2B2B2C"/>
</svg>
