<svg width="30" height="30" viewBox="0 0 30 30" fill="none" xmlns="http://www.w3.org/2000/svg">
<path fill-rule="evenodd" clip-rule="evenodd" d="M8.89182 3.1C8.89182 3.04477 8.84705 3 8.79182 3H5.46182C5.40659 3 5.36182 3.04477 5.36182 3.1V3.814C5.36182 3.86923 5.40659 3.914 5.46182 3.914H6.59782V7.36C6.59782 7.41523 6.64259 7.46 6.69782 7.46H7.54382C7.59905 7.46 7.64382 7.41523 7.64382 7.36V3.914H8.79182C8.84705 3.914 8.89182 3.86923 8.89182 3.814V3.1ZM5.46182 3.81398V3.814H6.69779V3.81398H5.46182ZM8.79179 3.1V3.81398H7.54379V7.35998H6.69782V7.36H7.54382V3.814H8.79182V3.1H8.79179ZM13.6584 7.39242C13.6723 7.43284 13.7103 7.46 13.753 7.46H14.629C14.6615 7.46 14.692 7.44418 14.7108 7.41758C14.7295 7.39099 14.7341 7.35694 14.7232 7.32632L13.1992 3.06632C13.1849 3.02654 13.1472 3 13.105 3H12.001C11.9588 3 11.9211 3.02654 11.9068 3.06632L10.3828 7.32632C10.3719 7.35694 10.3765 7.39099 10.3952 7.41758C10.414 7.44418 10.4445 7.46 10.477 7.46H11.317C11.3597 7.46 11.3978 7.43284 11.4116 7.39242L11.6824 6.602H13.3876L13.6584 7.39242ZM13.459 6.502L13.459 6.50198H11.611L11.317 7.35998H10.477L10.477 7.36H11.317L11.611 6.502H13.459ZM13.753 7.36L13.753 7.35998H14.629L14.629 7.36H13.753ZM11.9914 5.712L12.1135 5.35867C12.2574 4.93649 12.4055 4.49033 12.536 4.0702C12.6449 4.41146 12.7671 4.76895 12.8869 5.11949L12.9624 5.34027L13.0863 5.712H11.9914ZM12.019 5.326C12.1788 4.85738 12.3432 4.36039 12.4831 3.90217C12.5008 3.84412 12.5181 3.7867 12.535 3.73003C12.535 3.73001 12.535 3.72999 12.535 3.72998C12.385 4.23398 12.199 4.79798 12.019 5.32598L11.851 5.81198H11.851L12.019 5.326ZM20.8585 7.46C20.8956 7.46 20.9297 7.4394 20.947 7.40651C20.9643 7.37363 20.9619 7.33387 20.9408 7.30327L19.4261 5.10424L20.7786 3.15705C20.7999 3.12648 20.8024 3.08664 20.7851 3.05366C20.7679 3.02067 20.7337 3 20.6965 3H19.7605C19.7273 3 19.6962 3.0165 19.6776 3.04404L18.8125 4.3253L17.9474 3.04404C17.9288 3.0165 17.8977 3 17.8645 3H16.9105C16.8733 3 16.8391 3.02066 16.8219 3.05363C16.8046 3.0866 16.8071 3.12642 16.8283 3.157L18.175 5.09838L16.666 7.30352C16.645 7.33414 16.6427 7.37384 16.66 7.40665C16.6773 7.43946 16.7114 7.46 16.7485 7.46H17.6725C17.7055 7.46 17.7364 7.4437 17.755 7.41644L18.8 5.88784L19.8337 7.41602C19.8523 7.44352 19.8833 7.46 19.9165 7.46H20.8585ZM20.6965 3.1L19.3045 5.104L19.3045 5.10398L20.6964 3.1H20.6965ZM20.8585 7.35998H19.9165L19.9165 7.36H20.8585L20.8585 7.35998ZM18.8005 5.71L18.8005 5.70998L17.6725 7.35998H16.7485L16.7485 7.36H17.6725L18.8005 5.71ZM24.333 3.1C24.333 3.04477 24.2882 3 24.233 3H23.387C23.3317 3 23.287 3.04477 23.287 3.1V7.36C23.287 7.41523 23.3317 7.46 23.387 7.46H24.233C24.2882 7.46 24.333 7.41523 24.333 7.36V3.1ZM24.2329 3.1V7.35998H23.387V7.36H24.233V3.1H24.2329Z" fill="#2B2B2C"/>
<path fill-rule="evenodd" clip-rule="evenodd" d="M2 12.25C2 11.2835 2.7835 10.5 3.75 10.5H21.1758C21.8758 10.5 22.5085 10.9172 22.7843 11.5606L25.3846 17.6282C25.4804 17.6759 25.6138 17.7456 25.7912 17.845C26.1955 18.0714 26.8317 18.4535 27.7773 19.084C27.9164 19.1767 28 19.3328 28 19.5L28 20L26.5 20C26.2239 20 26 20.2239 26 20.5C26 20.7762 26.2239 21 26.5 21L28 21V23.2504C28 24.2172 27.2163 25 26.25 25H24.95C24.7184 26.1411 23.7095 27 22.5 27C21.2905 27 20.2816 26.1411 20.05 25H9.94999C9.71836 26.1411 8.70948 27 7.5 27C6.29052 27 5.28164 26.1411 5.05001 25H3.75C2.7835 25 2 24.2165 2 23.25V12.25ZM3 17.5V13.5H3.00002H6.50001L6.5 17.5H3ZM7.5 17.5L7.50001 13.5H11L11 17.5H7.5ZM12 17.5L12 13.5H15.375C15.444 13.5 15.5 13.556 15.5 13.625V17.375C15.5 17.444 15.444 17.5 15.375 17.5H12ZM22.5275 13.5L19.125 13.5C19.056 13.5 19 13.556 19 13.625V17.375C19 17.444 19.056 17.5 19.125 17.5H24.2417L22.5275 13.5ZM13.125 19.5C13.125 19.2239 13.3489 19 13.625 19H15.5C15.7762 19 16 19.2239 16 19.5C16 19.7762 15.7762 20 15.5 20H13.625C13.3489 20 13.125 19.7762 13.125 19.5ZM6 24.5C6 23.6716 6.67157 23 7.5 23C8.32843 23 9 23.6716 9 24.5C9 25.3284 8.32843 26 7.5 26C6.67157 26 6 25.3284 6 24.5ZM22.5 26C21.6716 26 21 25.3284 21 24.5C21 23.6716 21.6716 23 22.5 23C23.3284 23 24 23.6716 24 24.5C24 25.3284 23.3284 26 22.5 26Z" fill="#2B2B2C"/>
</svg>
