<svg width="24" height="24" viewBox="0 0 24 24" fill="none" xmlns="http://www.w3.org/2000/svg">
<path fill-rule="evenodd" clip-rule="evenodd" d="M8.19387 3.1C8.19387 3.04477 8.1491 3 8.09387 3H5.59637C5.54114 3 5.49637 3.04477 5.49637 3.1V3.6355C5.49637 3.69073 5.54114 3.7355 5.59637 3.7355H6.42337V6.295C6.42337 6.35023 6.46814 6.395 6.52337 6.395H7.15787C7.2131 6.395 7.25787 6.35023 7.25787 6.295V3.7355H8.09387C8.1491 3.7355 8.19387 3.69073 8.19387 3.6355V3.1ZM5.59637 3.63548V3.6355H6.52334V3.63548H5.59637ZM8.09384 3.1V3.63548H7.15784V6.29498H6.52337V6.295H7.15787V3.6355H8.09387V3.1H8.09384ZM11.2202 6.32742C11.234 6.36784 11.272 6.395 11.3148 6.395H11.9718C12.0043 6.395 12.0348 6.37918 12.0535 6.35258C12.0722 6.32599 12.0769 6.29194 12.0659 6.26132L10.9229 3.06632C10.9087 3.02654 10.871 3 10.8288 3H10.0008C9.95852 3 9.92083 3.02654 9.9066 3.06632L8.7636 6.26132C8.75265 6.29194 8.75727 6.32599 8.776 6.35258C8.79473 6.37918 8.82523 6.395 8.85776 6.395H9.48776C9.53049 6.395 9.56851 6.36784 9.58236 6.32742L9.7797 5.7515H11.0228L11.2202 6.32742ZM11.3148 6.29498L11.3148 6.295H11.9718L10.8288 3.1H10.8287L11.9717 6.29498H11.3148ZM11.0942 5.6515L11.0942 5.65147H9.70823L9.48773 6.29498H8.85777L8.85776 6.295H9.48776L9.70826 5.6515H11.0942ZM10.8288 5.0575H9.97659C9.97659 5.0575 10.3093 4.10158 10.4013 3.80859L10.8288 5.0575ZM10.0143 4.7695C10.1292 4.43243 10.2473 4.0758 10.3493 3.744C10.3672 3.68601 10.3845 3.62877 10.4013 3.57253C10.4012 3.57251 10.4012 3.57249 10.4012 3.57248C10.2887 3.95048 10.1492 4.37347 10.0142 4.76947L9.88823 5.13398H9.88827L10.0143 4.7695ZM16.1439 6.395C16.181 6.395 16.2151 6.3744 16.2324 6.34151C16.2497 6.30863 16.2473 6.26887 16.2262 6.23827L15.1 4.60324L16.1045 3.15705C16.1257 3.12648 16.1282 3.08664 16.111 3.05366C16.0937 3.02067 16.0596 3 16.0224 3H15.3204C15.2871 3 15.2561 3.0165 15.2375 3.04404L14.6094 3.9743L13.9812 3.04404C13.9627 3.0165 13.9316 3 13.8984 3H13.1829C13.1457 3 13.1115 3.02066 13.0943 3.05363C13.077 3.0866 13.0795 3.12642 13.1007 3.157L14.1009 4.59888L12.9788 6.23852C12.9579 6.26914 12.9556 6.30884 12.9729 6.34165C12.9902 6.37446 13.0243 6.395 13.0614 6.395H13.7544C13.7874 6.395 13.8183 6.3787 13.8369 6.35144L14.5999 5.23534L15.3545 6.35102C15.3731 6.37852 15.4042 6.395 15.4374 6.395H16.1439ZM16.0224 3.1L14.9784 4.603L14.9783 4.60297L16.0223 3.1H16.0224ZM16.1438 6.29498H15.4373L15.4374 6.295H16.1439L16.1438 6.29498ZM14.6004 5.0575L14.6003 5.05748L13.7543 6.29498H13.0614L13.0614 6.295H13.7544L14.6004 5.0575ZM18.2747 3.1C18.2747 3.04477 18.23 3 18.1747 3H17.5402C17.485 3 17.4402 3.04477 17.4402 3.1V6.295C17.4402 6.35023 17.485 6.395 17.5402 6.395H18.1747C18.23 6.395 18.2747 6.35023 18.2747 6.295V3.1ZM18.1747 3.1V6.29498H17.5402V6.295H18.1747V3.1H18.1747Z" fill="#2B2B2C"/>
<path fill-rule="evenodd" clip-rule="evenodd" d="M2 9.5C2 8.67157 2.67157 8 3.5 8H16.7996C17.4303 8 17.9937 8.3946 18.2093 8.98739L19.8765 13.5724C19.9478 13.5945 20.0296 13.6233 20.1232 13.6608C20.4765 13.8021 21.0076 14.0708 21.7773 14.584C21.9164 14.6767 22 14.8328 22 15V15.0001V15.0002V15.0003V15.0005V15.0007V15.0009V15.0012V15.0016V15.0019V15.0023V15.0028V15.0032V15.0038V15.0043V15.0049V15.0055V15.0062V15.0069V15.0076V15.0084V15.0092V15.0101V15.0109V15.0119V15.0128V15.0138V15.0148V15.0159V15.017V15.0182V15.0193V15.0205V15.0218V15.0231V15.0244V15.0257V15.0271V15.0285V15.03V15.0315V15.033V15.0346V15.0362V15.0378V15.0395V15.0412V15.0429V15.0447V15.0465V15.0483V15.0502V15.0521V15.0541V15.056V15.058V15.0601V15.0622V15.0643V15.0664V15.0686V15.0708V15.073V15.0753V15.0776V15.0799V15.0823V15.0847V15.0872V15.0896V15.0921V15.0947V15.0972V15.0998V15.1024V15.1051V15.1078V15.1105V15.1133V15.1161V15.1189V15.1217V15.1246V15.1275V15.1305V15.1334V15.1364V15.1395V15.1425V15.1456V15.1488V15.1519V15.1551V15.1583V15.1616V15.1648V15.1682V15.1715V15.1749V15.1783V15.1817V15.1851V15.1886V15.1921V15.1957V15.1992V15.2028V15.2065V15.2101V15.2138V15.2175V15.2213V15.225V15.2288V15.2327V15.2365V15.2404V15.2443V15.2483V15.2522V15.2562V15.2602V15.2643V15.2684V15.2725V15.2766V15.2808V15.2849V15.2892V15.2934V15.2977V15.3019V15.3063V15.3106V15.315V15.3194V15.3238V15.3283V15.3327V15.3372V15.3418V15.3463V15.3509V15.3555V15.3601V15.3648V15.3695V15.3742V15.3789V15.3836V15.3884V15.3932V15.3981V15.4029V15.4078V15.4127V15.4176V15.4226V15.4275V15.4325V15.4376V15.4426V15.4477V15.4528V15.4579V15.463V15.4682V15.4734V15.4786V15.4838V15.4891V15.4944V15.4997V15.5H20.5C20.2239 15.5 20 15.7239 20 16C20 16.2761 20.2239 16.5 20.5 16.5H22V16.5071V16.5148V16.5225V16.5302V16.5379V16.5456V16.5533V16.561V16.5688V16.5765V16.5843V16.592V16.5998V16.6076V16.6154V16.6232V16.631V16.6388V16.6466V16.6544V16.6622V16.6701V16.6779V16.6858V16.6936V16.7015V16.7094V16.7172V16.7251V16.733V16.7409V16.7488V16.7567V16.7646V16.7725V16.7804V16.7884V16.7963V16.8042V16.8122V16.8201V16.8281V16.836V16.844V16.852V16.8599V16.8679V16.8759V16.8839V16.8918V16.8998V16.9078V16.9158V16.9238V16.9318V16.9399V16.9479V16.9559V16.9639V16.9719V16.98V16.988V16.996V17.0041V17.0121V17.0201V17.0282V17.0362V17.0443V17.0523V17.0604V17.0684V17.0765V17.0846V17.0926V17.1007V17.1088V17.1168V17.1249V17.133V17.141V17.1491V17.1572V17.1653V17.1733V17.1814V17.1895V17.1976V17.2056V17.2137V17.2218V17.2299V17.238V17.246V17.2541V17.2622V17.2703V17.2783V17.2864V17.2945V17.3026V17.3107V17.3187V17.3268V17.3349V17.343V17.351V17.3591V17.3672V17.3752V17.3833V17.3914V17.3994V17.4075V17.4156V17.4236V17.4317V17.4397V17.4478V17.4558V17.4639V17.4719V17.48V17.488V17.496V17.5041V17.5121V17.5201V17.5282V17.5362V17.5442V17.5522V17.5602V17.5682V17.5762V17.5842V17.5922V17.6002V17.6082V17.6162V17.6242V17.6322V17.6401V17.6481V17.6561V17.664V17.672V17.6799V17.6878V17.6958V17.7037V17.7116V17.7196V17.7275V17.7354V17.7433V17.7512V17.7591V17.767V17.7749V17.7827V17.7906V17.7985V17.8063V17.8142V17.822V17.8298V17.8377V17.8455V17.8533V17.8611V17.8689V17.8767V17.8845V17.8923V17.9001V17.9078V17.9156V17.9233V17.9311V17.9388V17.9465V17.9542V17.9619V17.9696V17.9773V17.985V17.9927V18.0004C22 18.829 21.3282 19.5 20.5 19.5H19.437C19.215 20.3626 18.4319 21 17.5 21C16.5681 21 15.785 20.3626 15.563 19.5H8.43699C8.21497 20.3626 7.43192 21 6.5 21C5.56808 21 4.78503 20.3626 4.56301 19.5H3.5C2.67157 19.5 2 18.8284 2 18V14.5V9.5ZM3 13.5V10.5H5.5V13.5H3ZM6.5 13.5V10.5H9V13.5H6.5ZM10 13.5V10.5H12.5V13.5H10ZM17.6952 10.5H15V13.5H18.7861L17.6952 10.5ZM10.5 15.5C10.5 15.2239 10.7239 15 11 15H12.5C12.7761 15 13 15.2239 13 15.5C13 15.7761 12.7761 16 12.5 16H11C10.7239 16 10.5 15.7761 10.5 15.5ZM5.5 19C5.5 18.4477 5.94772 18 6.5 18C7.05228 18 7.5 18.4477 7.5 19C7.5 19.5523 7.05228 20 6.5 20C5.94772 20 5.5 19.5523 5.5 19ZM17.5 20C16.9477 20 16.5 19.5523 16.5 19C16.5 18.4477 16.9477 18 17.5 18C18.0523 18 18.5 18.4477 18.5 19C18.5 19.5523 18.0523 20 17.5 20Z" fill="#2B2B2C"/>
</svg>
