<svg width="24" height="24" viewBox="0 0 24 24" fill="none" xmlns="http://www.w3.org/2000/svg">
<path fill-rule="evenodd" clip-rule="evenodd" d="M10 5.5C10 5.22386 10.2239 5 10.5 5H12.8501C13.4429 5 13.9801 5.3491 14.2208 5.89079L17.8615 14.0823C18.0653 14.0286 18.2793 14 18.5 14C19.8807 14 21 15.1193 21 16.5C21 17.8807 19.8807 19 18.5 19C17.1193 19 16 17.8807 16 16.5C16 15.698 16.3776 14.9843 16.9647 14.5268L16.531 13.5509C15.7903 13.98 15.4121 14.5662 15.2142 15.0607C15.1061 15.3312 15.0521 15.5744 15.0254 15.7479C15.0121 15.8343 15.0058 15.9024 15.0027 15.9465C15.0012 15.9685 15.0005 15.9845 15.0002 15.9937L15 16.0021V17C15 17.2761 14.7761 17.5 14.5 17.5H7.79198C7.4062 18.383 6.52516 19 5.5 19C4.11929 19 3 17.8807 3 16.5C3 15.1193 4.11929 14 5.5 14C6.52516 14 7.4062 14.617 7.79198 15.5H14.053C14.0927 15.2788 14.1625 14.9974 14.2858 14.6893C14.5583 14.008 15.093 13.1972 16.1231 12.633L13.307 6.29693C13.2268 6.11637 13.0477 6 12.8501 6H10.5C10.2239 6 10 5.77614 10 5.5Z" fill="#2B2B2C"/>
</svg>
