<svg width="30" height="30" viewBox="0 0 30 30" fill="none" xmlns="http://www.w3.org/2000/svg">
<path fill-rule="evenodd" clip-rule="evenodd" d="M13 6.5C13 6.22386 13.2239 6 13.5 6H15.9325C16.6278 6 17.2571 6.41159 17.5358 7.04857L22.3572 18.069C22.5643 18.0238 22.7794 18 23 18C24.6569 18 26 19.3431 26 21C26 22.6569 24.6569 24 23 24C21.3431 24 20 22.6569 20 21C20 19.9189 20.5718 18.9714 21.4295 18.4434L20.7648 16.9242C20.7516 16.9324 20.7378 16.9401 20.7236 16.9472C19.6169 17.5006 19.0629 18.3822 18.7814 19.1424C18.6402 19.5237 18.5694 19.8704 18.5342 20.1205C18.5165 20.246 18.503 20.3726 18.5 20.4994L18.4912 20.4948C18.4913 20.4951 18.4913 20.4954 18.4913 20.4956L18.5 20.5V21V21.5C18.5 21.7761 18.2761 22 18 22H9.82929C9.41746 23.1652 8.30622 24 7 24C5.34315 24 4 22.6569 4 21C4 19.3431 5.34315 18 7 18C8.30622 18 9.41746 18.8348 9.82929 20H17.5H17.5413C17.5842 19.6954 17.6723 19.2576 17.8436 18.7951C18.1871 17.8678 18.8831 16.7494 20.2764 16.0528C20.3063 16.0378 20.3371 16.0261 20.3682 16.0176L16.6196 7.44939C16.5002 7.1764 16.2305 7 15.9325 7H13.5C13.2239 7 13 6.77614 13 6.5Z" fill="#2B2B2C"/>
</svg>
