<svg width="18" height="18" viewBox="0 0 18 18" fill="none" xmlns="http://www.w3.org/2000/svg">
<path fill-rule="evenodd" clip-rule="evenodd" d="M8 3C7.72386 3 7.5 3.22386 7.5 3.5C7.5 3.77614 7.72386 4 8 4H9.98025C10.0845 4 10.1777 4.06464 10.2143 4.16222L12.1081 9.21231C11.1189 9.76573 10.5878 10.5259 10.3083 11.178C10.1744 11.4905 10.0989 11.7761 10.0562 12H5.73244C5.38663 11.4022 4.74028 11 4 11C2.89543 11 2 11.8954 2 13C2 14.1046 2.89543 15 4 15C4.74028 15 5.38663 14.5978 5.73244 14H10.5C10.7761 14 11 13.7761 11 13.5V12.5025L11.0002 12.4948C11.0005 12.4861 11.0012 12.4705 11.0028 12.449C11.006 12.4057 11.0127 12.3386 11.0268 12.2532C11.0551 12.0818 11.1123 11.8406 11.2274 11.572C11.4208 11.1208 11.7801 10.5838 12.4644 10.1625L12.9016 11.3283C12.3585 11.6859 12 12.3011 12 13C12 14.1046 12.8954 15 14 15C15.1046 15 16 14.1046 16 13C16 11.8954 15.1046 11 14 11C13.9491 11 13.8986 11.0019 13.8486 11.0056L11.1507 3.8111C10.9677 3.32322 10.5013 3 9.98025 3H8Z" fill="#2B2B2C"/>
</svg>
