<svg width="24" height="24" viewBox="0 0 24 24" fill="none" xmlns="http://www.w3.org/2000/svg">
<path fill-rule="evenodd" clip-rule="evenodd" d="M7.81021 7C6.96189 7 6.21636 7.56236 5.98331 8.37803L5.64855 9.5497L9.4999 9.66641V7H7.81021ZM10.4999 9.69671L15.503 9.84832L15.4559 9.77301C14.3861 8.06131 12.5162 7.01626 10.4999 7.00019V9.69671ZM16.705 9.88475L16.3039 9.24301C15.043 7.22558 12.8317 6 10.4527 6H7.81021C6.51541 6 5.3775 6.85833 5.02179 8.10331L4.55094 9.75129C3.90383 10.0623 3.43579 10.6967 3.3678 11.4582L3.08201 14.6591C3.02329 15.3167 3.45455 15.8969 4.06218 16.0566C4.31519 17.1694 5.31059 18 6.5 18C7.67389 18 8.65881 17.1909 8.92754 16.1H14.4317C14.6232 17.2905 15.6553 18.2 16.8999 18.2C18.1574 18.2 19.198 17.2715 19.3738 16.0628C20.3005 15.8823 21 15.0661 21 14.0866V13.4104C21 13.0957 20.9584 12.7904 20.8803 12.5H19.25C18.9739 12.5 18.75 12.2761 18.75 12C18.75 11.7238 18.9739 11.5 19.25 11.5H20.433C19.8275 10.5722 18.7932 9.94803 17.606 9.91205L16.705 9.88475ZM8 15.5C8 16.3284 7.32843 17 6.5 17C5.67157 17 5 16.3284 5 15.5C5 14.6716 5.67157 14 6.5 14C7.32843 14 8 14.6716 8 15.5ZM18.3999 15.7C18.3999 16.5284 17.7283 17.2 16.8999 17.2C16.0715 17.2 15.3999 16.5284 15.3999 15.7C15.3999 14.8715 16.0715 14.2 16.8999 14.2C17.7283 14.2 18.3999 14.8715 18.3999 15.7ZM10.5 11.5C10.2239 11.5 10 11.7238 10 12C10 12.2761 10.2239 12.5 10.5 12.5H11.5C11.7761 12.5 12 12.2761 12 12C12 11.7238 11.7761 11.5 11.5 11.5H10.5Z" fill="#2B2B2C"/>
</svg>
