<svg width="30" height="30" viewBox="0 0 30 30" fill="none" xmlns="http://www.w3.org/2000/svg">
<path fill-rule="evenodd" clip-rule="evenodd" d="M9.90662 8.5C8.73487 8.5 7.72034 9.31383 7.46615 10.4577L7.11226 12.0502L12.0001 12.1666V8.5H9.90662ZM13.0001 12.1904L19.9387 12.3556L19.4791 11.699C18.0756 9.69408 15.7822 8.5 13.3349 8.5H13.0001V12.1904ZM21.18 12.3851L20.2983 11.1256C18.7077 8.8533 16.1085 7.5 13.3349 7.5H9.90662C8.26618 7.5 6.84583 8.63936 6.48997 10.2407L6.07023 12.1296C5.13025 12.386 4.39784 13.1797 4.25377 14.1882L3.71717 17.9444C3.58515 18.8685 4.1764 19.7098 5.03187 19.9389C5.24424 21.3877 6.49222 22.5 8 22.5C9.48649 22.5 10.7205 21.4189 10.9585 20H18.0415C18.2795 21.4189 19.5135 22.5 21 22.5C22.4865 22.5 23.7205 21.4189 23.9585 20H24C25.3807 20 26.5 18.8807 26.5 17.5V16.9059C26.5 16.4153 26.4214 15.9426 26.2759 15.5H24.25C23.9739 15.5 23.75 15.2762 23.75 15C23.75 14.7239 23.9739 14.5 24.25 14.5H25.8034C25.0247 13.2713 23.6663 12.4443 22.1071 12.4072L21.18 12.3851ZM6 19.5035C6.00002 19.5012 6.00002 19.4989 6 19.4966C6.00186 18.3936 6.89658 17.5 8 17.5C9.10457 17.5 10 18.3954 10 19.5C10 20.6046 9.10457 21.5 8 21.5C6.8966 21.5 6.0019 20.6065 6 19.5035ZM23 19.5C23 20.6046 22.1046 21.5 21 21.5C19.8954 21.5 19 20.6046 19 19.5C19 18.3954 19.8954 17.5 21 17.5C22.1046 17.5 23 18.3954 23 19.5ZM13.25 14.5C12.9739 14.5 12.75 14.7239 12.75 15C12.75 15.2762 12.9739 15.5 13.25 15.5H14.75C15.0261 15.5 15.25 15.2762 15.25 15C15.25 14.7239 15.0261 14.5 14.75 14.5H13.25Z" fill="#2B2B2C"/>
</svg>
