<svg width="30" height="30" viewBox="0 0 30 30" fill="none" xmlns="http://www.w3.org/2000/svg">
<path fill-rule="evenodd" clip-rule="evenodd" d="M8.89182 3.1C8.89182 3.04477 8.84704 3 8.79182 3H5.46182C5.40659 3 5.36182 3.04477 5.36182 3.1V3.814C5.36182 3.86923 5.40659 3.914 5.46182 3.914H6.59782V7.36C6.59782 7.41523 6.64259 7.46 6.69782 7.46H7.54382C7.59904 7.46 7.64382 7.41523 7.64382 7.36V3.914H8.79182C8.84704 3.914 8.89182 3.86923 8.89182 3.814V3.1ZM5.46182 3.81398V3.814H6.69779V3.81398H5.46182ZM8.79179 3.1V3.81398H7.54379V7.35998H6.69782V7.36H7.54382V3.814H8.79182V3.1H8.79179ZM13.6584 7.39242C13.6723 7.43284 13.7103 7.46 13.753 7.46H14.629C14.6615 7.46 14.692 7.44418 14.7108 7.41758C14.7295 7.39099 14.7341 7.35694 14.7232 7.32632L13.1992 3.06632C13.1849 3.02654 13.1472 3 13.105 3H12.001C11.9588 3 11.9211 3.02654 11.9068 3.06632L10.3828 7.32632C10.3719 7.35694 10.3765 7.39099 10.3952 7.41758C10.414 7.44418 10.4445 7.46 10.477 7.46H11.317C11.3597 7.46 11.3978 7.43284 11.4116 7.39242L11.6824 6.602H13.3876L13.6584 7.39242ZM13.459 6.502L13.459 6.50198H11.611L11.317 7.35998H10.477L10.477 7.36H11.317L11.611 6.502H13.459ZM13.753 7.36L13.753 7.35998H14.629L14.629 7.36H13.753ZM11.9914 5.712L12.1135 5.35867C12.2574 4.93649 12.4055 4.49033 12.536 4.0702C12.6449 4.41146 12.7671 4.76895 12.8869 5.11949L12.9624 5.34027L13.0863 5.712H11.9914ZM12.019 5.326C12.1788 4.85738 12.3432 4.36039 12.4831 3.90217C12.5008 3.84412 12.5181 3.7867 12.535 3.73003C12.535 3.73001 12.535 3.72999 12.535 3.72998C12.385 4.23398 12.199 4.79798 12.019 5.32598L11.851 5.81198H11.851L12.019 5.326ZM20.8585 7.46C20.8956 7.46 20.9297 7.4394 20.947 7.40651C20.9643 7.37363 20.9619 7.33387 20.9408 7.30327L19.4261 5.10424L20.7786 3.15705C20.7999 3.12648 20.8024 3.08664 20.7851 3.05366C20.7679 3.02067 20.7337 3 20.6965 3H19.7605C19.7273 3 19.6962 3.0165 19.6776 3.04404L18.8125 4.3253L17.9474 3.04404C17.9288 3.0165 17.8977 3 17.8645 3H16.9105C16.8733 3 16.8391 3.02066 16.8219 3.05363C16.8046 3.0866 16.8071 3.12642 16.8283 3.157L18.175 5.09838L16.666 7.30352C16.645 7.33414 16.6427 7.37384 16.66 7.40665C16.6773 7.43946 16.7114 7.46 16.7485 7.46H17.6725C17.7055 7.46 17.7364 7.4437 17.755 7.41644L18.8 5.88784L19.8337 7.41602C19.8523 7.44352 19.8833 7.46 19.9165 7.46H20.8585ZM20.6965 3.1L19.3045 5.104L19.3045 5.10398L20.6964 3.1H20.6965ZM20.8585 7.35998H19.9165L19.9165 7.36H20.8585L20.8585 7.35998ZM18.8005 5.71L18.8005 5.70998L17.6725 7.35998H16.7485L16.7485 7.36H17.6725L18.8005 5.71ZM24.333 3.1C24.333 3.04477 24.2882 3 24.233 3H23.387C23.3317 3 23.287 3.04477 23.287 3.1V7.36C23.287 7.41523 23.3317 7.46 23.387 7.46H24.233C24.2882 7.46 24.333 7.41523 24.333 7.36V3.1ZM24.2329 3.1V7.35998H23.387V7.36H24.233V3.1H24.2329ZM6.42903 12.3908C6.66978 11.8491 7.20696 11.5 7.79974 11.5H11V15.3396L5.22119 15.1084L6.42903 12.3908ZM4.12657 15.1091L5.51521 11.9847C5.91647 11.0818 6.81177 10.5 7.79974 10.5H15.4289C16.8876 10.5 18.2866 11.0795 19.318 12.1109L22.8535 15.6464C22.9041 15.697 22.9415 15.7556 22.9659 15.8182L24.6399 15.8852C26.517 15.9603 28 17.5038 28 19.3824V22.5C28 23.3284 27.3284 24 26.5 24H24.9585C24.7205 25.4188 23.4865 26.5 22 26.5C20.5135 26.5 19.2795 25.4188 19.0415 24H9.95852C9.72049 25.4188 8.4865 26.5 7 26.5C5.5135 26.5 4.27951 25.4188 4.04148 24H3.5C2.67157 24 2 23.3284 2 22.5V17.5816C2 16.3231 2.92782 15.2886 4.12657 15.1091ZM21.5547 15.7618L18.6109 12.818C17.767 11.9741 16.6224 11.5 15.4289 11.5H12V15.3796L21.5547 15.7618ZM25.5 18.5C25.2239 18.5 25 18.7239 25 19C25 19.2761 25.2239 19.5 25.5 19.5H27V22.5C27 22.7761 26.7761 23 26.5 23H24.9585C24.7205 21.5811 23.4865 20.5 22 20.5C20.5135 20.5 19.2795 21.5811 19.0415 23H9.95852C9.72047 21.5811 8.48649 20.5 7 20.5C5.51351 20.5 4.27953 21.5811 4.04148 23H3.5C3.22386 23 3 22.7761 3 22.5V17.5816C3 16.7296 3.70869 16.0487 4.55995 16.0828L24.5999 16.8844C25.6307 16.9256 26.4951 17.5868 26.8397 18.5H25.5ZM7 25.5C8.10457 25.5 9 24.6046 9 23.5C9 22.3954 8.10457 21.5 7 21.5C5.89543 21.5 5 22.3954 5 23.5C5 24.6046 5.89543 25.5 7 25.5ZM22 25.5C23.1046 25.5 24 24.6046 24 23.5C24 22.3954 23.1046 21.5 22 21.5C20.8954 21.5 20 22.3954 20 23.5C20 24.6046 20.8954 25.5 22 25.5ZM12.5 19C12.5 18.7239 12.7239 18.5 13 18.5H15C15.2761 18.5 15.5 18.7239 15.5 19C15.5 19.2761 15.2761 19.5 15 19.5H13C12.7239 19.5 12.5 19.2761 12.5 19Z" fill="#2B2B2C"/>
</svg>
