<svg width="24" height="24" viewBox="0 0 24 24" fill="none" xmlns="http://www.w3.org/2000/svg">
<path fill-rule="evenodd" clip-rule="evenodd" d="M6.12038 3.17461C6.30009 2.96495 6.61574 2.94067 6.8254 3.12038L10.185 6H14.4796C15.2515 6 16.0018 6.25518 16.6136 6.72582L20.9973 10.0979C21.9448 10.8267 22.5 11.9543 22.5 13.1497C22.5 15.2762 20.7762 17 18.6497 17H3C2.44772 17 2 16.5523 2 16V13.5V8.5V7C2 6.44772 2.44772 6 3 6H8.64837L6.17461 3.87964C5.96495 3.69993 5.94067 3.38428 6.12038 3.17461ZM3 9V13H7V9H3ZM20.3876 10.8905C21.0493 11.3995 21.4526 12.1712 21.4961 13H14.5V9C14.5 8.72386 14.7239 8.5 15 8.5H17H17.2799L20.3876 10.8905ZM8 13V9H12V13H8ZM2.5 18C2.22386 18 2 18.2239 2 18.5C2 18.7761 2.22386 19 2.5 19H18.5C18.7761 19 19 18.7761 19 18.5C19 18.2239 18.7761 18 18.5 18H2.5Z" fill="#2B2B2C"/>
</svg>
