<svg width="18" height="18" viewBox="0 0 18 18" fill="none" xmlns="http://www.w3.org/2000/svg">
<path fill-rule="evenodd" clip-rule="evenodd" d="M4.85355 1.64645C4.65829 1.45118 4.34171 1.45118 4.14645 1.64645C3.95118 1.84171 3.95118 2.15829 4.14645 2.35355L5.79289 4H1.875C1.39175 4 1 4.39175 1 4.875V6.5V10V12.125C1 12.6082 1.39175 13 1.875 13H14.0251C15.6681 13 17 11.6681 17 10.0251C17 9.23614 16.6866 8.47947 16.1287 7.92157L13.0126 4.80546C12.4968 4.28973 11.7974 4 11.068 4H7.20711L4.85355 1.64645ZM7 5H2V6H9.5C9.77614 6 10 6.22386 10 6.5V10C10 10.2761 9.77614 10.5 9.5 10.5H2V12H14.0251C14.9521 12 15.7299 11.3613 15.9425 10.5H11.5C11.2239 10.5 11 10.2761 11 10V6.5C11 6.22386 11.2239 6 11.5 6H12.7929L12.3055 5.51256C11.9773 5.18437 11.5321 5 11.068 5H7ZM2 9.5V7H5V9.5H2ZM15.9289 9.5C15.8388 9.1734 15.6653 8.87246 15.4216 8.62868L13.7929 7H12V9.5H15.9289ZM6 7V9.5H9V7H6ZM1 14.5C1 14.2239 1.22386 14 1.5 14H14.5C14.7761 14 15 14.2239 15 14.5C15 14.7761 14.7761 15 14.5 15H1.5C1.22386 15 1 14.7761 1 14.5Z" fill="#2B2B2C"/>
</svg>
