<svg width="30" height="30" viewBox="0 0 30 30" fill="none" xmlns="http://www.w3.org/2000/svg">
<path fill-rule="evenodd" clip-rule="evenodd" d="M12.5 3C12.2239 3 12 3.22386 12 3.5C12 3.77614 12.2239 4 12.5 4H14.2731L16.8981 7H3.125C2.50368 7 2 7.50368 2 8.125V10.5V17.5V20.875C2 21.4963 2.50368 22 3.125 22H13.5H19.5H24.8543C26.5916 22 28 20.5916 28 18.8543C28 18.5747 27.9627 18.2964 27.8892 18.0266L25.3843 8.84221C25.0877 7.75455 24.0998 7 22.9724 7H18.2269L15.6019 4H18C18.2761 4 18.5 3.77614 18.5 3.5C18.5 3.22386 18.2761 3 18 3H12.5ZM19 21H14V11H19V21ZM3 17V11H11V17H3ZM26.8454 18L24.9363 11H23.5C22.6716 11 22 11.6716 22 12.5V17.5C22 17.7761 22.2239 18 22.5 18H26.8454ZM2 23.5C2 23.2239 2.22386 23 2.5 23H23.5C23.7761 23 24 23.2239 24 23.5C24 23.7761 23.7761 24 23.5 24H2.5C2.22386 24 2 23.7761 2 23.5Z" fill="#2B2B2C"/>
</svg>
