<svg width="30" height="30" viewBox="0 0 30 30" fill="none" xmlns="http://www.w3.org/2000/svg">
<path fill-rule="evenodd" clip-rule="evenodd" d="M12 3.5C12 3.22386 12.2239 3 12.5 3H18C18.2761 3 18.5 3.22386 18.5 3.5C18.5 3.77614 18.2761 4 18 4H15.6019L18.2269 7H22.9724C24.0998 7 25.0877 7.75455 25.3843 8.84221L27.8892 18.0266C27.9627 18.2964 28 18.5747 28 18.8543C28 20.5916 26.5916 22 24.8543 22H19.5H13.5H3.125C2.50368 22 2 21.4963 2 20.875V17.5V10.5V8.125C2 7.50368 2.50368 7 3.125 7H16.8981L14.2731 4H12.5C12.2239 4 12 3.77614 12 3.5ZM14 21H19V11H14V21ZM20 21V10.5C20 10.2239 19.7761 10 19.5 10H13.5C13.2239 10 13 10.2239 13 10.5V21H3.125C3.05596 21 3 20.944 3 20.875V18H11.5C11.7761 18 12 17.7761 12 17.5V10.5C12 10.2239 11.7761 10 11.5 10H3V8.125C3 8.05596 3.05596 8 3.125 8H17.9976H18.0028H22.9724C23.6488 8 24.2416 8.45273 24.4196 9.10532L24.6636 10H23.5C22.1193 10 21 11.1193 21 12.5V16.5C21 17.3284 21.6716 18 22.5 18H26.8454L26.9244 18.2897C26.9746 18.4737 27 18.6636 27 18.8543C27 20.0393 26.0393 21 24.8543 21H20ZM3 11V17H11V11H3ZM24.9363 11L26.5726 17H22.5C22.2239 17 22 16.7761 22 16.5V12.5C22 11.6716 22.6716 11 23.5 11H24.9363ZM2.5 23C2.22386 23 2 23.2239 2 23.5C2 23.7761 2.22386 24 2.5 24H23.5C23.7761 24 24 23.7761 24 23.5C24 23.2239 23.7761 23 23.5 23H2.5Z" fill="#2B2B2C"/>
</svg>
