<svg width="18" height="18" viewBox="0 0 18 18" fill="none" xmlns="http://www.w3.org/2000/svg">
<path fill-rule="evenodd" clip-rule="evenodd" d="M7 1.5C6.72386 1.5 6.5 1.72386 6.5 2C6.5 2.27614 6.72386 2.5 7 2.5H8.25969L9.45969 4H1.875C1.39175 4 1 4.39175 1 4.875V6.5V10V12.125C1 12.6082 1.39175 13 1.875 13H14.7192C15.9789 13 17 11.9789 17 10.7192C17 10.5327 16.9771 10.347 16.9319 10.1661L15.8638 5.89366C15.5856 4.78074 14.5856 4 13.4384 4H10.7403L9.54031 2.5H10.5C10.7761 2.5 11 2.27614 11 2C11 1.72386 10.7761 1.5 10.5 1.5H7ZM10.496 5C10.4989 5.00002 10.5017 5.00002 10.5046 5H13.4384C14.0789 5 14.6429 5.40562 14.8527 6H14C13.1716 6 12.5 6.67157 12.5 7.5V9.5C12.5 10.0523 12.9477 10.5 13.5 10.5H15.9811C15.9937 10.5723 16 10.6457 16 10.7192C16 11.4266 15.4266 12 14.7192 12H11.5V6C11.5 5.72386 11.2761 5.5 11 5.5H8C7.72386 5.5 7.5 5.72386 7.5 6V12H2V10.5H6C6.27614 10.5 6.5 10.2761 6.5 10V6.5C6.5 6.22386 6.27614 6 6 6H2V5H10.496ZM2 7V9.5H5.5V7H2ZM10.5 6.5V12H8.5V6.5H10.5ZM15.1096 7L15.7346 9.5H13.5V7.5C13.5 7.22386 13.7239 7 14 7H15.1096ZM1.5 14C1.22386 14 1 14.2239 1 14.5C1 14.7761 1.22386 15 1.5 15H14.5C14.7761 15 15 14.7761 15 14.5C15 14.2239 14.7761 14 14.5 14H1.5Z" fill="#2B2B2C"/>
</svg>
