<svg width="24" height="24" viewBox="0 0 24 24" fill="none" xmlns="http://www.w3.org/2000/svg">
<path fill-rule="evenodd" clip-rule="evenodd" d="M12.5 6.5C13.6046 6.5 14.5 5.60457 14.5 4.5C14.5 3.39543 13.6046 2.5 12.5 2.5C11.3954 2.5 10.5 3.39543 10.5 4.5C10.5 5.60457 11.3954 6.5 12.5 6.5ZM10.8795 8.84843C10.8908 8.72352 10.9265 8.60622 10.9815 8.50101C10.9906 8.48646 10.9989 8.47153 11.0064 8.45627C11.1699 8.18161 11.4696 8 11.8085 8C12.385 8 12.8235 8.51763 12.7287 9.08625L12.0917 12.9084L10.5386 12.5978L10.8795 8.84843ZM8.9633 10.2613L9.81318 9.53246L9.50206 12.9547C9.50069 12.9698 9.50001 12.9849 9.50001 13V16.3486L7.58398 19.2226C7.52755 19.3073 7.49997 19.4039 7.5 19.5C7.50004 19.629 7.54986 19.757 7.64646 19.8536L8.64646 20.8536C8.75038 20.9575 8.89477 21.0104 9.04125 20.9983C9.18772 20.9862 9.32145 20.9102 9.40688 20.7906L11.9069 17.2906C11.9401 17.2441 11.9651 17.1923 11.9808 17.1374L12.1918 16.3988L13.0548 17.2619L14.0192 20.6373C14.0601 20.7803 14.1625 20.8977 14.2987 20.9576C14.4348 21.0175 14.5906 21.0137 14.7236 20.9472L15.7236 20.4472C15.9332 20.3424 16.0419 20.106 15.9851 19.8787L14.9851 15.8787C14.9714 15.8241 14.9486 15.7722 14.9177 15.7251L13.1272 13.0037C13.1176 12.9891 13.1074 12.9752 13.0966 12.962L13.4699 10.7219L14.0336 12.1803C14.0708 12.2765 14.1368 12.3588 14.2226 12.416L15.7226 13.416C15.9524 13.5692 16.2628 13.5071 16.416 13.2774C16.5692 13.0476 16.5071 12.7372 16.2773 12.584L14.9092 11.6719L13.7079 8.56384L13.7058 8.5584C13.5332 7.68339 12.762 7 11.8085 7C11.1203 7 10.5102 7.36131 10.1674 7.91132L8.17446 9.62047C8.08541 9.69685 8.02605 9.8021 8.00676 9.91781L7.50676 12.9178C7.46136 13.1902 7.64537 13.4478 7.91776 13.4932C8.19014 13.5386 8.44776 13.3546 8.49315 13.0822L8.9633 10.2613Z" fill="#2B2B2C"/>
</svg>
