<svg width="18" height="18" viewBox="0 0 18 18" fill="none" xmlns="http://www.w3.org/2000/svg">
<path fill-rule="evenodd" clip-rule="evenodd" d="M9.5 4.5C10.3284 4.5 11 3.82843 11 3C11 2.17157 10.3284 1.5 9.5 1.5C8.67157 1.5 8 2.17157 8 3C8 3.82843 8.67157 4.5 9.5 4.5ZM8.39811 6.44477C8.42625 6.19156 8.64027 6 8.89504 6C9.19084 6 9.42198 6.2554 9.39254 6.54974L9.06005 9.87462L8.04521 9.62091L8.39811 6.44477ZM9.14194 12.7415L8.96425 13.1857C8.946 13.2313 8.92114 13.274 8.89045 13.3123L6.89045 15.8123C6.8016 15.9234 6.66967 15.9914 6.52766 15.9992C6.38566 16.0071 6.24702 15.9541 6.14646 15.8536L5.64646 15.3536C5.48422 15.1913 5.45322 14.9395 5.57126 14.7428L7.00001 12.3615V10C7.00001 9.98155 7.00103 9.96312 7.00307 9.94478L7.31762 7.11383L6.44298 7.78961L5.98507 9.62129C5.91809 9.88919 5.64663 10.0521 5.37873 9.9851C5.11083 9.91812 4.94795 9.64666 5.01492 9.37876L5.51492 7.37876C5.54218 7.26974 5.60536 7.17307 5.69429 7.10437L7.61816 5.61791C7.65423 5.59004 7.69291 5.56787 7.7331 5.55126C8.00955 5.21308 8.42964 5 8.89504 5C9.58038 5 10.15 5.45698 10.3332 6.07183C10.3369 6.07952 10.3403 6.08734 10.3436 6.09529L11.391 8.63649L12.2236 9.05281C12.4706 9.1763 12.5707 9.47664 12.4472 9.72363C12.3237 9.97062 12.0234 10.0707 11.7764 9.94724L10.7764 9.44724C10.6685 9.39328 10.5837 9.30211 10.5377 9.19055L10.2124 8.4012L10.0085 10.4402L11.3921 12.1899C11.4491 12.2619 11.4851 12.3482 11.4962 12.4392L11.8364 15.2162C11.8667 15.464 11.7097 15.6962 11.4684 15.7602L10.6282 15.9833C10.4949 16.0187 10.3528 15.9974 10.2356 15.9245C10.1185 15.8515 10.0367 15.7334 10.0097 15.5981L9.53411 13.2204L9.14194 12.7415Z" fill="#2B2B2C"/>
</svg>
