<svg width="24" height="24" viewBox="0 0 24 24" fill="none" xmlns="http://www.w3.org/2000/svg">
<path fill-rule="evenodd" clip-rule="evenodd" d="M13.5 4.5C13.5 5.05228 13.0523 5.5 12.5 5.5C11.9477 5.5 11.5 5.05228 11.5 4.5C11.5 3.94772 11.9477 3.5 12.5 3.5C13.0523 3.5 13.5 3.94772 13.5 4.5ZM14.5 4.5C14.5 5.60457 13.6046 6.5 12.5 6.5C11.3954 6.5 10.5 5.60457 10.5 4.5C10.5 3.39543 11.3954 2.5 12.5 2.5C13.6046 2.5 14.5 3.39543 14.5 4.5ZM10.8795 8.84843C10.8908 8.7238 10.9263 8.60675 10.9811 8.50173C10.9905 8.48672 10.9991 8.4713 11.0069 8.45553C11.1704 8.18128 11.4698 8 11.8085 8C12.385 8 12.8235 8.51763 12.7287 9.08625L12.0917 12.9084L10.5386 12.5978L10.8795 8.84843ZM8.96336 10.2613L9.81315 9.53254L9.50321 12.942L9.02106 16.317L7.08397 19.2226C6.93079 19.4524 6.99288 19.7628 7.22264 19.916L8.72264 20.916C8.94718 21.0657 9.25 21.0102 9.40686 20.7906L11.9069 17.2906C11.9401 17.2441 11.9651 17.1923 11.9808 17.1374L12.0337 16.9519L12.5468 17.7216L13.5257 20.6581C13.613 20.92 13.8961 21.0616 14.1581 20.9743L15.6581 20.4743C15.906 20.3917 16.0484 20.1321 15.9851 19.8787L14.9851 15.8787C14.9714 15.8241 14.9486 15.7722 14.9177 15.7251L13.1272 13.0037C13.1176 12.9891 13.1074 12.9752 13.0966 12.962L13.4699 10.7218L14.0336 12.1803C14.0708 12.2765 14.1368 12.3588 14.2227 12.416L15.7227 13.416C15.9524 13.5692 16.2629 13.5071 16.416 13.2774C16.5692 13.0476 16.5071 12.7372 16.2774 12.584L14.9093 11.6719L13.708 8.56384L13.7057 8.55801C13.533 7.68319 12.7618 7 11.8085 7C11.1202 7 10.5101 7.36138 10.1673 7.91146L8.17452 9.62047C8.08547 9.69685 8.02611 9.8021 8.00682 9.91781L7.50682 12.9178C7.46142 13.1902 7.64543 13.4478 7.91782 13.4932C8.1902 13.5386 8.44782 13.3546 8.49321 13.0822L8.96336 10.2613ZM10.4202 13.5939L11.8703 13.884L11.0429 16.7796L8.87452 19.8154L8.19337 19.3613L9.91602 16.7774C9.95743 16.7152 9.98441 16.6446 9.99497 16.5707L10.4202 13.5939ZM12.7889 14.3089L12.3938 15.6918C12.4015 15.7017 12.4089 15.712 12.416 15.7226L13.416 17.2226C13.4407 17.2596 13.4603 17.2997 13.4743 17.3418L14.3162 19.8675L14.9026 19.672L14.0355 16.2037L12.7889 14.3089Z" fill="#2B2B2C"/>
</svg>
