<svg width="30" height="30" viewBox="0 0 30 30" fill="none" xmlns="http://www.w3.org/2000/svg">
<path fill-rule="evenodd" clip-rule="evenodd" d="M14.5 6C14.5 5.17157 15.1716 4.5 16 4.5C16.8284 4.5 17.5 5.17157 17.5 6C17.5 6.82843 16.8284 7.5 16 7.5C15.1716 7.5 14.5 6.82843 14.5 6ZM16 3.5C14.6193 3.5 13.5 4.61929 13.5 6C13.5 7.38071 14.6193 8.5 16 8.5C17.3807 8.5 18.5 7.38071 18.5 6C18.5 4.61929 17.3807 3.5 16 3.5ZM13.7805 11.0188C13.8197 10.7536 13.9444 10.5195 14.1241 10.3428L14.2567 10.2408C14.276 10.2259 14.2939 10.21 14.3104 10.193C14.4986 10.0705 14.7227 10 14.9613 10C15.4756 10 15.9029 10.3215 16.0745 10.7615L16.1309 10.9519C16.1613 11.0987 16.1643 11.2543 16.1348 11.4125L15.2263 16.2854L13.0643 15.853L13.7805 11.0188ZM10.9703 12.7691L12.7083 11.432L12.0054 16.1767L12.0034 16.1916L11.515 20.3435L9.06292 24.7572C8.99669 24.8764 8.98203 25.0175 9.02234 25.1478C9.06264 25.2781 9.15442 25.3862 9.27639 25.4472L11.2764 26.4472C11.5101 26.5641 11.7943 26.4813 11.9287 26.2572L14.9287 21.2572C14.9523 21.218 14.9703 21.1757 14.9824 21.1316L15.0771 20.7842L16.0435 21.7506L17.0119 26.1084C17.0412 26.2401 17.1224 26.3544 17.2371 26.4253C17.3519 26.4962 17.4904 26.5178 17.6213 26.485L19.6213 25.985C19.8769 25.9211 20.0391 25.6698 19.9919 25.4105L18.9919 19.9105C18.9756 19.8204 18.9348 19.7366 18.874 19.6681L16.1792 16.6308L16.8104 13.2451L17.5206 15.6421C17.5641 15.7887 17.6723 15.9074 17.8143 15.9643L20.3143 16.9643C20.5707 17.0668 20.8617 16.9421 20.9642 16.6857C21.0668 16.4293 20.9421 16.1383 20.6857 16.0358L18.4106 15.1257L17.1022 10.7099C17.0811 10.6168 17.0541 10.5258 17.0214 10.4372L17.009 10.3954C16.9953 10.349 16.9753 10.306 16.9504 10.2671C16.6042 9.52722 15.8541 9 14.9613 9C14.3915 9 13.8668 9.21871 13.4734 9.58169L10.1951 12.1037C10.0893 12.1851 10.0204 12.3055 10.0039 12.438L9.50387 16.438C9.46962 16.712 9.66398 16.9619 9.93799 16.9962C10.212 17.0304 10.4619 16.8361 10.4961 16.562L10.9703 12.7691ZM12.9333 16.8466L15.0017 17.2602L14.0358 20.8019L11.3095 25.3457L10.1907 24.7863L12.4371 20.7428C12.4687 20.6858 12.489 20.6232 12.4966 20.5584L12.9333 16.8466ZM15.8883 17.8097L15.3802 19.673L16.8536 21.1464C16.9208 21.2136 16.9675 21.2987 16.9881 21.3915L17.8767 25.3904L18.9243 25.1285L18.0331 20.2271L15.8883 17.8097Z" fill="#2B2B2C"/>
</svg>
