<svg width="30" height="30" viewBox="0 0 30 30" fill="none" xmlns="http://www.w3.org/2000/svg">
<path fill-rule="evenodd" clip-rule="evenodd" d="M13.5 6C13.5 4.61929 14.6193 3.5 16 3.5C17.3807 3.5 18.5 4.61929 18.5 6C18.5 7.38071 17.3807 8.5 16 8.5C14.6193 8.5 13.5 7.38071 13.5 6ZM13.7804 11.0188C13.8197 10.7536 13.9444 10.5196 14.124 10.3429L14.2567 10.2408C14.276 10.2259 14.2939 10.2099 14.3105 10.193C14.4986 10.0705 14.7227 10 14.9613 10C15.4757 10 15.9031 10.3216 16.0746 10.7617L16.1309 10.9516C16.1613 11.0985 16.1643 11.2542 16.1348 11.4125L15.2263 16.2854L13.0643 15.853L13.7804 11.0188ZM10.9703 12.7691L12.7083 11.432L12.0054 16.1767C12.0018 16.201 12 16.2255 12 16.25V20.3704L9.56292 24.7572C9.43642 24.9849 9.50592 25.2715 9.72265 25.416L11.2226 26.416C11.3364 26.4919 11.4763 26.5178 11.6097 26.4878C11.7431 26.4578 11.8584 26.3745 11.9287 26.2572L14.9287 21.2572C14.9523 21.218 14.9703 21.1757 14.9824 21.1316L15.0771 20.7842L16.0435 21.7506L17.0119 26.1085C17.0426 26.2467 17.1305 26.3654 17.2537 26.4351C17.3768 26.5049 17.5238 26.5191 17.6581 26.4744L19.1581 25.9744C19.3942 25.8957 19.5364 25.6554 19.4919 25.4106L18.4919 19.9106C18.4765 19.8257 18.4394 19.7462 18.3841 19.6799L16.1177 16.9602L16.8104 13.245L17.5206 15.6421C17.5641 15.7887 17.6723 15.9074 17.8143 15.9643L20.3143 16.9643C20.5707 17.0668 20.8617 16.9421 20.9643 16.6857C21.0668 16.4293 20.9421 16.1383 20.6857 16.0358L18.4106 15.1257L17.1021 10.7096C17.0811 10.6167 17.0541 10.5259 17.0215 10.4375L17.009 10.3954C16.9953 10.3489 16.9753 10.3059 16.9503 10.267C16.6041 9.52718 15.854 9 14.9613 9C14.3915 9 13.8667 9.21875 13.4733 9.58178L10.1951 12.1037C10.0893 12.1851 10.0204 12.3055 10.0039 12.438L9.50388 16.438C9.46963 16.712 9.66399 16.9619 9.938 16.9962C10.212 17.0304 10.4619 16.8361 10.4962 16.562L10.9703 12.7691Z" fill="#2B2B2C"/>
</svg>
