<svg width="30" height="30" viewBox="0 0 30 30" fill="none" xmlns="http://www.w3.org/2000/svg">
<path fill-rule="evenodd" clip-rule="evenodd" d="M10 5C8.47208 5 7.31959 5.12734 6.5428 5.2568C6.15446 5.32153 5.86018 5.38676 5.65998 5.4368C5.55989 5.46183 5.48333 5.48305 5.43031 5.49852C5.4038 5.50625 5.38318 5.51254 5.36844 5.51714L5.35075 5.52276L5.34521 5.52456L5.34327 5.5252L5.34189 5.52566C5.13772 5.59372 5 5.78478 5 6V6.99988C4.94761 6.99989 4.89432 7.00819 4.84189 7.02567L3.34189 7.52567C3.13772 7.59373 3 7.7848 3 8.00001V24.5C3 24.6782 3.09488 24.843 3.24904 24.9325C3.40316 25.0219 3.59335 25.0225 3.74808 24.9341L3.74935 24.9334L3.75564 24.9299L3.78286 24.9146C3.8074 24.901 3.84454 24.8806 3.8933 24.8543C3.99085 24.8018 4.13479 24.726 4.31736 24.6347C4.68283 24.452 5.20123 24.208 5.8107 23.9643C7.04101 23.4721 8.59547 23 10 23C11.3135 23 12.4963 23.3527 13.3577 23.7116C13.7868 23.8903 14.1316 24.0688 14.3674 24.2014C14.4852 24.2677 14.5754 24.3223 14.635 24.3596C14.6648 24.3782 14.6869 24.3924 14.7009 24.4016L14.7125 24.4092C14.7367 24.4263 14.7623 24.441 14.7888 24.4533C14.8563 24.4849 14.9285 24.5001 15 24.5001C15.0715 24.5001 15.1436 24.4849 15.2112 24.4533C15.2377 24.441 15.2633 24.4263 15.2875 24.4092L15.2991 24.4016C15.3131 24.3924 15.3352 24.3782 15.365 24.3596C15.4246 24.3223 15.5148 24.2677 15.6326 24.2014C15.8684 24.0688 16.2132 23.8903 16.6423 23.7116C17.5037 23.3527 18.6865 23 20 23C21.4045 23 22.959 23.4721 24.1893 23.9643C24.7988 24.208 25.3172 24.452 25.6826 24.6347C25.8652 24.726 26.0091 24.8018 26.1067 24.8543C26.1555 24.8806 26.1926 24.901 26.2171 24.9146L26.2444 24.9299L26.2506 24.9334L26.2519 24.9341C26.4067 25.0225 26.5968 25.0219 26.751 24.9325C26.9051 24.843 27 24.6782 27 24.5V8.00001C27 7.7848 26.8623 7.59373 26.6581 7.52567L25.1581 7.02567C25.1057 7.00819 25.0524 6.99989 25 6.99988V6C25 5.78478 24.8623 5.59372 24.6581 5.52566L24.6567 5.5252L24.6548 5.52456L24.6493 5.52276L24.6316 5.51714C24.6168 5.51254 24.5962 5.50625 24.5697 5.49852C24.5167 5.48305 24.4401 5.46183 24.34 5.4368C24.1398 5.38676 23.8455 5.32153 23.4572 5.2568C22.6804 5.12734 21.5279 5 20 5C18.4843 5 17.1489 5.53972 16.2072 6.06292C15.7336 6.32601 15.352 6.58913 15.0875 6.7875C15.0568 6.81055 15.0276 6.83275 15 6.85399C14.9724 6.83275 14.9432 6.81055 14.9125 6.7875C14.648 6.58913 14.2664 6.32601 13.7928 6.06292C12.8511 5.53972 11.5157 5 10 5ZM25 8.02706V20.9806C25.0023 21.0392 24.9942 21.0992 24.9746 21.1581C24.9369 21.2711 24.8628 21.3616 24.7697 21.4211C24.7079 21.4608 24.6368 21.4872 24.5604 21.4964C24.5255 21.5006 24.49 21.5013 24.4542 21.4979C24.4124 21.4941 24.372 21.4852 24.3337 21.4717L24.3335 21.4716L24.3211 21.4678L24.2899 21.4585C24.2492 21.4466 24.1851 21.4288 24.0977 21.4069C23.9229 21.3632 23.6547 21.3035 23.293 21.2432C22.5698 21.1227 21.4723 21 20.0002 21H20.0001C18.114 21 16.978 21.586 16.3202 22.1341C15.9873 22.4115 15.7685 22.6863 15.6349 22.8867C15.5681 22.9869 15.5229 23.0681 15.4956 23.1213C15.4906 23.131 15.4862 23.1397 15.4824 23.1475C15.7006 23.0357 15.9612 22.912 16.2577 22.7885C17.1963 22.3974 18.5135 22 20 22C21.5955 22 23.291 22.5279 24.5607 23.0358C25.1322 23.2644 25.6269 23.4928 26 23.676V8.36039L25 8.02706ZM14.5178 23.1475C14.514 23.1398 14.5096 23.131 14.5046 23.1213C14.4773 23.0681 14.432 22.9869 14.3652 22.8867C14.2316 22.6863 14.0128 22.4115 13.6799 22.1341C13.0221 21.586 11.8861 21 10 21H9.99989C8.52781 21 7.4303 21.1227 6.70709 21.2432C6.34543 21.3035 6.07722 21.3632 5.90241 21.4069C5.815 21.4288 5.75093 21.4466 5.7102 21.4585C5.68984 21.4645 5.67531 21.4689 5.66661 21.4716L5.66508 21.4721C5.62911 21.4847 5.59127 21.4933 5.55208 21.4973C5.51634 21.5011 5.48075 21.5009 5.44583 21.4971C5.35538 21.4874 5.27215 21.4535 5.20272 21.4021C5.13358 21.3511 5.07697 21.2819 5.04101 21.1986C5.03104 21.1756 5.02274 21.1517 5.01628 21.127C5.00374 21.0795 4.99852 21.0315 5 20.9844V8.02706L4 8.36039V23.676C4.37312 23.4928 4.86783 23.2644 5.4393 23.0358C6.70899 22.5279 8.40453 22 10 22C11.4865 22 12.8037 22.3974 13.7423 22.7885C14.0389 22.9121 14.2995 23.0358 14.5178 23.1475ZM6.54269 20.2568C6.33485 20.2914 6.15395 20.3262 6 20.3588V6.38329C6.17143 6.34286 6.40716 6.2932 6.7072 6.2432C7.43041 6.12266 8.52792 6 10 6C11.2843 6 12.4489 6.46028 13.3072 6.93708C13.7336 7.17399 14.077 7.41087 14.3125 7.5875C14.3859 7.64258 14.4487 7.69166 14.5 7.73285V21.5234C14.4431 21.471 14.3831 21.4184 14.3201 21.3659C13.4779 20.664 12.1139 20 10 20H9.99989C8.47197 20 7.31948 20.1273 6.54269 20.2568ZM15.68 21.3659C15.617 21.4185 15.557 21.4711 15.5 21.5235V7.73285C15.5513 7.69166 15.6141 7.64258 15.6875 7.5875C15.923 7.41087 16.2664 7.17399 16.6928 6.93708C17.5511 6.46028 18.7157 6 20 6C21.4721 6 22.5696 6.12266 23.2928 6.2432C23.5928 6.2932 23.8286 6.34286 24 6.38329V20.3587C23.8461 20.3262 23.6652 20.2914 23.4574 20.2568C22.6806 20.1273 21.5282 20 20.0002 20H20.0001C17.8863 20 16.5223 20.664 15.68 21.3659ZM17.2237 10.9472C17.7872 10.6655 19.7156 10.1073 22.4294 10.495C22.7028 10.534 22.956 10.3441 22.9951 10.0707C23.0341 9.79736 22.8442 9.5441 22.5708 9.50504C19.6846 9.09272 17.5464 9.66788 16.7765 10.0528C16.5295 10.1763 16.4294 10.4766 16.5529 10.7236C16.6764 10.9706 16.9767 11.0707 17.2237 10.9472ZM7.5706 10.495C10.2844 10.1073 12.2128 10.6655 12.7763 10.9472C13.0233 11.0707 13.3236 10.9706 13.4471 10.7236C13.5706 10.4766 13.4705 10.1763 13.2235 10.0528C12.4536 9.66788 10.3154 9.09272 7.42918 9.50504C7.15581 9.5441 6.96586 9.79736 7.00492 10.0707C7.04397 10.3441 7.29723 10.534 7.5706 10.495ZM17.2237 14.4472C17.7872 14.1655 19.7156 13.6073 22.4294 13.995C22.7028 14.034 22.956 13.8441 22.9951 13.5707C23.0341 13.2974 22.8442 13.0441 22.5708 13.005C19.6846 12.5927 17.5464 13.1679 16.7765 13.5528C16.5295 13.6763 16.4294 13.9766 16.5529 14.2236C16.6764 14.4706 16.9767 14.5707 17.2237 14.4472ZM7.5706 13.995C10.2844 13.6073 12.2128 14.1655 12.7763 14.4472C13.0233 14.5707 13.3236 14.4706 13.4471 14.2236C13.5706 13.9766 13.4705 13.6763 13.2235 13.5528C12.4536 13.1679 10.3154 12.5927 7.42918 13.005C7.15581 13.0441 6.96586 13.2974 7.00492 13.5707C7.04397 13.8441 7.29723 14.034 7.5706 13.995ZM17.2237 17.9472C17.7872 17.6655 19.7156 17.1073 22.4294 17.495C22.7028 17.534 22.956 17.3441 22.9951 17.0707C23.0341 16.7974 22.8442 16.5441 22.5708 16.505C19.6846 16.0927 17.5464 16.6679 16.7765 17.0528C16.5295 17.1763 16.4294 17.4766 16.5529 17.7236C16.6764 17.9706 16.9767 18.0707 17.2237 17.9472ZM7.5706 17.495C10.2844 17.1073 12.2128 17.6655 12.7763 17.9472C13.0233 18.0707 13.3236 17.9706 13.4471 17.7236C13.5706 17.4766 13.4705 17.1763 13.2235 17.0528C12.4536 16.6679 10.3154 16.0927 7.42918 16.505C7.15581 16.5441 6.96586 16.7974 7.00492 17.0707C7.04397 17.3441 7.29723 17.534 7.5706 17.495Z" fill="#2B2B2C"/>
</svg>
