<svg width="30" height="30" viewBox="0 0 30 30" fill="none" xmlns="http://www.w3.org/2000/svg">
<path fill-rule="evenodd" clip-rule="evenodd" d="M4 5.75C4 4.7835 4.7835 4 5.75 4H24.25C25.2165 4 26 4.7835 26 5.75V24.25C26 25.2165 25.2165 26 24.25 26H5.75C4.7835 26 4 25.2165 4 24.25V5.75ZM5.75 5C5.33579 5 5 5.33579 5 5.75V7H25V5.75C25 5.33579 24.6642 5 24.25 5H5.75ZM18.8536 12.1464C18.6583 11.9512 18.3417 11.9512 18.1464 12.1464C17.9512 12.3417 17.9512 12.6583 18.1464 12.8536L21.7929 16.5L18.1464 20.1464C17.9512 20.3417 17.9512 20.6583 18.1464 20.8536C18.3417 21.0488 18.6583 21.0488 18.8536 20.8536L22.8536 16.8536C23.0488 16.6583 23.0488 16.3417 22.8536 16.1464L18.8536 12.1464ZM11.8536 20.8535C11.6583 21.0488 11.3417 21.0488 11.1464 20.8535L7.14645 16.8536C6.95118 16.6583 6.95118 16.3417 7.14645 16.1464L11.1464 12.1464C11.3417 11.9512 11.6583 11.9512 11.8536 12.1464C12.0488 12.3417 12.0488 12.6583 11.8536 12.8535L8.20711 16.5L11.8536 20.1464C12.0488 20.3417 12.0488 20.6583 11.8536 20.8535ZM17.4743 10.6581C17.5617 10.3961 17.4201 10.113 17.1581 10.0257C16.8961 9.93833 16.613 10.0799 16.5257 10.3419L12.5257 22.3419C12.4383 22.6039 12.5799 22.887 12.8419 22.9743C13.1039 23.0617 13.387 22.9201 13.4743 22.6581L17.4743 10.6581Z" fill="#2B2B2C"/>
</svg>
