<svg width="24" height="24" viewBox="0 0 24 24" fill="none" xmlns="http://www.w3.org/2000/svg">
<path fill-rule="evenodd" clip-rule="evenodd" d="M3 4.5C3 3.67157 3.67157 3 4.5 3H19.5C20.3284 3 21 3.67157 21 4.5V19.5C21 20.3284 20.3284 21 19.5 21H4.5C3.67157 21 3 20.3284 3 19.5V4.5ZM4.5 4C4.22386 4 4 4.22386 4 4.5V5H20V4.5C20 4.22386 19.7761 4 19.5 4H4.5ZM14.6464 9.64645C14.8417 9.45118 15.1583 9.45118 15.3536 9.64645L18.3536 12.6464C18.5488 12.8417 18.5488 13.1583 18.3536 13.3536L15.3536 16.3536C15.1583 16.5488 14.8417 16.5488 14.6464 16.3536C14.4512 16.1583 14.4512 15.8417 14.6464 15.6464L17.2929 13L14.6464 10.3536C14.4512 10.1583 14.4512 9.84171 14.6464 9.64645ZM8.64645 16.3536C8.84171 16.5488 9.15829 16.5488 9.35355 16.3536C9.54882 16.1583 9.54882 15.8417 9.35355 15.6464L6.70711 13L9.35355 10.3536C9.54882 10.1583 9.54882 9.84171 9.35355 9.64645C9.15829 9.45118 8.84171 9.45118 8.64645 9.64645L5.64645 12.6464C5.45118 12.8417 5.45118 13.1583 5.64645 13.3536L8.64645 16.3536ZM13.6581 8.02566C13.9201 8.11298 14.0617 8.39614 13.9743 8.65811L10.9743 17.6581C10.887 17.9201 10.6039 18.0617 10.3419 17.9743C10.0799 17.887 9.93833 17.6039 10.0257 17.3419L13.0257 8.34189C13.113 8.07991 13.3961 7.93833 13.6581 8.02566Z" fill="#2B2B2C"/>
</svg>
