<svg width="18" height="18" viewBox="0 0 18 18" fill="none" xmlns="http://www.w3.org/2000/svg">
<path fill-rule="evenodd" clip-rule="evenodd" d="M7 2.25C7 2.11193 7.11193 2 7.25 2H11V3.75006C11 4.44042 11.5596 5.00006 12.25 5.00006H14V12.7501C14 12.8881 13.8881 13.0001 13.75 13.0001H11.5078C11.5052 13 11.5026 13 11.5 13C11.4974 13 11.4948 13 11.4922 13.0001H7.25C7.11193 13.0001 7 12.8881 7 12.7501V5.5V2.25ZM6 5V2.25C6 1.55964 6.55964 1 7.25 1H11.5C11.6326 1 11.7598 1.05268 11.8536 1.14645L14.8536 4.14651C14.9473 4.24028 15 4.36745 15 4.50006V12.7501C15 13.4404 14.4404 14.0001 13.75 14.0001H12V15.75C12 16.4404 11.4404 17 10.75 17H4.25C3.55964 17 3 16.4404 3 15.75V6.25C3 5.55964 3.55964 5 4.25 5H6ZM11 14.0001V15.75C11 15.8881 10.8881 16 10.75 16H4.25C4.11193 16 4 15.8881 4 15.75L4 6.25C4 6.11193 4.11193 6 4.25 6H6V12.7501C6 13.4404 6.55964 14.0001 7.25 14.0001H11ZM13.2929 4.00006L12 2.70712V3.75006C12 3.88813 12.1119 4.00006 12.25 4.00006H13.2929Z" fill="#2B2B2C"/>
</svg>
