<svg width="30" height="30" viewBox="0 0 30 30" fill="none" xmlns="http://www.w3.org/2000/svg">
<path fill-rule="evenodd" clip-rule="evenodd" d="M10.75 4C10.3358 4 10 4.33579 10 4.75L10 7.50001L10 22.25C10 22.6642 10.3358 23 10.75 23H20.4946L20.5 23L20.5054 23H23.25C23.6642 23 24 22.6642 24 22.25V9H20.75C19.7835 9 19 8.2165 19 7.25V4H10.75ZM9 4.75V7L6.75001 6.99998C5.78351 6.99997 5 7.78348 5 8.74998V25.25C5 26.2165 5.7835 27 6.75 27L19.25 27C20.2165 27 21 26.2165 21 25.25V24H23.25C24.2165 24 25 23.2165 25 22.25V8.5C25 8.36739 24.9473 8.24021 24.8536 8.14645L19.8536 3.14645C19.7598 3.05268 19.6326 3 19.5 3H10.75C9.7835 3 9 3.7835 9 4.75ZM20 25.25V24H10.75C9.7835 24 9 23.2165 9 22.25V8L6.75 7.99998C6.33579 7.99998 6 8.33577 6 8.74998L6 25.25C6 25.6642 6.33579 26 6.75 26L19.25 26C19.6642 26 20 25.6642 20 25.25ZM20 4.70711L23.2929 8H20.75C20.3358 8 20 7.66421 20 7.25V4.70711ZM12.5 10C12.2239 10 12 10.2239 12 10.5C12 10.7761 12.2239 11 12.5 11H18.5C18.7761 11 19 10.7761 19 10.5C19 10.2239 18.7761 10 18.5 10H12.5ZM12 14.5C12 14.2239 12.2239 14 12.5 14H21.5C21.7761 14 22 14.2239 22 14.5C22 14.7761 21.7761 15 21.5 15H12.5C12.2239 15 12 14.7761 12 14.5ZM12.5 18C12.2239 18 12 18.2239 12 18.5C12 18.7761 12.2239 19 12.5 19H21.5C21.7761 19 22 18.7761 22 18.5C22 18.2239 21.7761 18 21.5 18H12.5Z" fill="#2B2B2C"/>
</svg>
