<svg width="30" height="30" viewBox="0 0 30 30" fill="none" xmlns="http://www.w3.org/2000/svg">
<path fill-rule="evenodd" clip-rule="evenodd" d="M20.3206 3.97223C21.2481 3.04474 22.7519 3.04474 23.6794 3.97223L26.0277 6.32058C26.9552 7.24808 26.9552 8.75184 26.0277 9.67934L10.8536 24.8535C10.7799 24.9272 10.685 24.976 10.5822 24.9932L4.58221 25.9932C4.42293 26.0197 4.26063 25.9677 4.14645 25.8535C4.03227 25.7393 3.98026 25.577 4.00681 25.4178L5.00681 19.4178C5.02394 19.315 5.07276 19.2201 5.14645 19.1464L20.3206 3.97223ZM22.9723 4.67934C22.4353 4.14237 21.5647 4.14237 21.0277 4.67934L20.7071 4.99998L25 9.29288L25.3206 8.97223C25.8576 8.43526 25.8576 7.56466 25.3206 7.02769L22.9723 4.67934ZM19.2071 6.49998L20 5.70709L24.2929 9.99998L23.5 10.7929L19.2071 6.49998ZM18.5 7.20709L22.7929 11.5L11 23.2929V22C11 21.7239 10.7761 21.5 10.5 21.5H8.5V19.5C8.5 19.2239 8.27614 19 8 19H6.70707L18.5 7.20709ZM5.92356 20L5.10828 24.8917L10 24.0764V22.5H8C7.72386 22.5 7.5 22.2761 7.5 22V20H5.92356Z" fill="#2B2B2C"/>
</svg>
