<svg width="30" height="30" viewBox="0 0 30 30" fill="none" xmlns="http://www.w3.org/2000/svg">
<path fill-rule="evenodd" clip-rule="evenodd" d="M23.6794 3.97223C22.7519 3.04474 21.2481 3.04474 20.3206 3.97223L20 4.29286L25.7071 9.99997L26.0277 9.67934C26.9552 8.75184 26.9552 7.24808 26.0277 6.32058L23.6794 3.97223ZM18.5 5.79286L19.2929 4.99997L25 10.7071L24.2071 11.5L18.5 5.79286ZM17.7929 6.49997L23.5 12.2071L11 24.7071V22C11 21.7238 10.7761 21.5 10.5 21.5H8.5V19.5C8.5 19.2238 8.27614 19 8 19H5.29289L17.7929 6.49997ZM4.90977 20L4.00681 25.4178C3.98026 25.577 4.03227 25.7393 4.14645 25.8535C4.26063 25.9677 4.42293 26.0197 4.58221 25.9932L10 25.0902V22.5H8C7.72386 22.5 7.5 22.2761 7.5 22V20H4.90977Z" fill="#2B2B2C"/>
</svg>
