<svg width="18" height="18" viewBox="0 0 18 18" fill="none" xmlns="http://www.w3.org/2000/svg">
<path fill-rule="evenodd" clip-rule="evenodd" d="M12.3509 1.94189C12.9855 1.30729 14.0144 1.30729 14.649 1.94189L16.0581 3.3509C16.6927 3.98551 16.6927 5.0144 16.0581 5.649L6.85355 14.8535C6.78947 14.9176 6.70918 14.963 6.62126 14.985L2.62126 15.985C2.45088 16.0276 2.27063 15.9777 2.14644 15.8535C2.02225 15.7293 1.97233 15.5491 2.01492 15.3787L3.01492 11.3787C3.0369 11.2908 3.08236 11.2105 3.14644 11.1464L12.3509 1.94189ZM13.9419 2.649C13.6979 2.40492 13.3021 2.40492 13.0581 2.649L12.7071 2.99999L15 5.29288L15.3509 4.94189C15.595 4.69782 15.595 4.30209 15.3509 4.05801L13.9419 2.649ZM4.20707 11.5L12 3.7071L14.2929 5.99999L6.49996 13.7929L4.20707 11.5ZM3.77087 12.478L3.18718 14.8128L5.52194 14.2291L3.77087 12.478Z" fill="#2B2B2C"/>
</svg>
