<svg width="30" height="30" viewBox="0 0 30 30" fill="none" xmlns="http://www.w3.org/2000/svg">
<path fill-rule="evenodd" clip-rule="evenodd" d="M3.75 6C2.7835 6 2 6.7835 2 7.75V22.25C2 23.2165 2.7835 24 3.75 24H26.25C27.2165 24 28 23.2165 28 22.25V7.75C28 6.7835 27.2165 6 26.25 6H3.75ZM19.75 19H10.25C9.83579 19 9.5 19.3358 9.5 19.75C9.5 20.1642 9.83579 20.5 10.25 20.5H19.75C20.1642 20.5 20.5 20.1642 20.5 19.75C20.5 19.3358 20.1642 19 19.75 19ZM5 11V10C5 9.72386 5.22386 9.5 5.5 9.5H6.5C6.77614 9.5 7 9.72386 7 10V11C7 11.2761 6.77614 11.5 6.5 11.5H5.5C5.22386 11.5 5 11.2761 5 11ZM5 14.5V15.5C5 15.7761 5.22386 16 5.5 16H6.5C6.77614 16 7 15.7761 7 15.5V14.5C7 14.2239 6.77614 14 6.5 14H5.5C5.22386 14 5 14.2239 5 14.5ZM9.5 14.5V15.5C9.5 15.7761 9.72386 16 10 16H11C11.2761 16 11.5 15.7761 11.5 15.5V14.5C11.5 14.2239 11.2761 14 11 14H10C9.72386 14 9.5 14.2239 9.5 14.5ZM18.5 15.5V14.5C18.5 14.2239 18.7239 14 19 14H20C20.2761 14 20.5 14.2239 20.5 14.5V15.5C20.5 15.7761 20.2761 16 20 16H19C18.7239 16 18.5 15.7761 18.5 15.5ZM23 14.5V15.5C23 15.7761 23.2239 16 23.5 16H24.5C24.7761 16 25 15.7761 25 15.5V14.5C25 14.2239 24.7761 14 24.5 14H23.5C23.2239 14 23 14.2239 23 14.5ZM9.5 10V11C9.5 11.2761 9.72386 11.5 10 11.5H11C11.2761 11.5 11.5 11.2761 11.5 11V10C11.5 9.72386 11.2761 9.5 11 9.5H10C9.72386 9.5 9.5 9.72386 9.5 10ZM18.5 11V10C18.5 9.72386 18.7239 9.5 19 9.5H20C20.2761 9.5 20.5 9.72386 20.5 10V11C20.5 11.2761 20.2761 11.5 20 11.5H19C18.7239 11.5 18.5 11.2761 18.5 11ZM23 10V11C23 11.2761 23.2239 11.5 23.5 11.5H24.5C24.7761 11.5 25 11.2761 25 11V10C25 9.72386 24.7761 9.5 24.5 9.5H23.5C23.2239 9.5 23 9.72386 23 10ZM14 15.5V14.5C14 14.2239 14.2239 14 14.5 14H15.5C15.7761 14 16 14.2239 16 14.5V15.5C16 15.7761 15.7761 16 15.5 16H14.5C14.2239 16 14 15.7761 14 15.5ZM14 10V11C14 11.2761 14.2239 11.5 14.5 11.5H15.5C15.7761 11.5 16 11.2761 16 11V10C16 9.72386 15.7761 9.5 15.5 9.5H14.5C14.2239 9.5 14 9.72386 14 10Z" fill="#2B2B2C"/>
</svg>
