<svg width="30" height="30" viewBox="0 0 30 30" fill="none" xmlns="http://www.w3.org/2000/svg">
<path fill-rule="evenodd" clip-rule="evenodd" d="M2 7.75C2 6.7835 2.7835 6 3.75 6H26.25C27.2165 6 28 6.7835 28 7.75V22.25C28 23.2165 27.2165 24 26.25 24H3.75C2.7835 24 2 23.2165 2 22.25V7.75ZM3.75 7C3.33579 7 3 7.33579 3 7.75V22.25C3 22.6642 3.33579 23 3.75 23H26.25C26.6642 23 27 22.6642 27 22.25V7.75C27 7.33579 26.6642 7 26.25 7H3.75ZM9 19.75C9 19.0596 9.55964 18.5 10.25 18.5H19.75C20.4404 18.5 21 19.0596 21 19.75C21 20.4404 20.4404 21 19.75 21H10.25C9.55964 21 9 20.4404 9 19.75ZM10.25 19.5C10.1119 19.5 10 19.6119 10 19.75C10 19.8881 10.1119 20 10.25 20H19.75C19.8881 20 20 19.8881 20 19.75C20 19.6119 19.8881 19.5 19.75 19.5H10.25ZM5.5 9C4.94772 9 4.5 9.44772 4.5 10V11C4.5 11.5523 4.94772 12 5.5 12H6.5C7.05228 12 7.5 11.5523 7.5 11V10C7.5 9.44772 7.05228 9 6.5 9H5.5ZM5.5 10H6.5V11H5.5V10ZM10 9C9.44772 9 9 9.44772 9 10V11C9 11.5523 9.44772 12 10 12H11C11.5523 12 12 11.5523 12 11V10C12 9.44772 11.5523 9 11 9H10ZM10 10H11V11H10V10ZM14.5 9C13.9477 9 13.5 9.44772 13.5 10V11C13.5 11.5523 13.9477 12 14.5 12H15.5C16.0523 12 16.5 11.5523 16.5 11V10C16.5 9.44772 16.0523 9 15.5 9H14.5ZM14.5 10H15.5V11H14.5V10ZM19 9C18.4477 9 18 9.44772 18 10V11C18 11.5523 18.4477 12 19 12H20C20.5523 12 21 11.5523 21 11V10C21 9.44772 20.5523 9 20 9H19ZM19 10H20V11H19V10ZM23.5 9C22.9477 9 22.5 9.44772 22.5 10V11C22.5 11.5523 22.9477 12 23.5 12H24.5C25.0523 12 25.5 11.5523 25.5 11V10C25.5 9.44772 25.0523 9 24.5 9H23.5ZM23.5 10H24.5V11H23.5V10ZM5.5 13.5C4.94772 13.5 4.5 13.9477 4.5 14.5V15.5C4.5 16.0523 4.94772 16.5 5.5 16.5H6.5C7.05228 16.5 7.5 16.0523 7.5 15.5V14.5C7.5 13.9477 7.05228 13.5 6.5 13.5H5.5ZM5.5 14.5H6.5V15.5H5.5V14.5ZM10 13.5C9.44772 13.5 9 13.9477 9 14.5V15.5C9 16.0523 9.44772 16.5 10 16.5H11C11.5523 16.5 12 16.0523 12 15.5V14.5C12 13.9477 11.5523 13.5 11 13.5H10ZM10 14.5H11V15.5H10V14.5ZM14.5 13.5C13.9477 13.5 13.5 13.9477 13.5 14.5V15.5C13.5 16.0523 13.9477 16.5 14.5 16.5H15.5C16.0523 16.5 16.5 16.0523 16.5 15.5V14.5C16.5 13.9477 16.0523 13.5 15.5 13.5H14.5ZM14.5 14.5H15.5V15.5H14.5V14.5ZM19 13.5C18.4477 13.5 18 13.9477 18 14.5V15.5C18 16.0523 18.4477 16.5 19 16.5H20C20.5523 16.5 21 16.0523 21 15.5V14.5C21 13.9477 20.5523 13.5 20 13.5H19ZM19 14.5H20V15.5H19V14.5ZM23.5 13.5C22.9477 13.5 22.5 13.9477 22.5 14.5V15.5C22.5 16.0523 22.9477 16.5 23.5 16.5H24.5C25.0523 16.5 25.5 16.0523 25.5 15.5V14.5C25.5 13.9477 25.0523 13.5 24.5 13.5H23.5ZM23.5 14.5H24.5V15.5H23.5V14.5Z" fill="#2B2B2C"/>
</svg>
