<svg width="18" height="18" viewBox="0 0 18 18" fill="none" xmlns="http://www.w3.org/2000/svg">
<path fill-rule="evenodd" clip-rule="evenodd" d="M1 4.25C1 3.55964 1.55964 3 2.25 3H15.75C16.4404 3 17 3.55964 17 4.25V13.75C17 14.4404 16.4404 15 15.75 15H2.25C1.55964 15 1 14.4404 1 13.75V4.25ZM2.25 4C2.11193 4 2 4.11193 2 4.25V13.75C2 13.8881 2.11193 14 2.25 14H15.75C15.8881 14 16 13.8881 16 13.75V4.25C16 4.11193 15.8881 4 15.75 4H2.25ZM5.5 12C5.5 11.7239 5.72386 11.5 6 11.5H12C12.2761 11.5 12.5 11.7239 12.5 12C12.5 12.2761 12.2761 12.5 12 12.5H6C5.72386 12.5 5.5 12.2761 5.5 12ZM3.5 5.5C3.22386 5.5 3 5.72386 3 6V6.5C3 6.77614 3.22386 7 3.5 7H4C4.27614 7 4.5 6.77614 4.5 6.5V6C4.5 5.72386 4.27614 5.5 4 5.5H3.5ZM3.5 8.5C3.22386 8.5 3 8.72386 3 9V9.5C3 9.77614 3.22386 10 3.5 10H4C4.27614 10 4.5 9.77614 4.5 9.5V9.25V9C4.5 8.72386 4.27614 8.5 4 8.5H3.5ZM6.5 6C6.5 5.72386 6.72386 5.5 7 5.5H7.5C7.77614 5.5 8 5.72386 8 6V6.5C8 6.77614 7.77614 7 7.5 7H7C6.72386 7 6.5 6.77614 6.5 6.5V6ZM6.5 9C6.5 8.72386 6.72386 8.5 7 8.5H7.5C7.77614 8.5 8 8.72386 8 9V9.25V9.5C8 9.77614 7.77614 10 7.5 10H7C6.72386 10 6.5 9.77614 6.5 9.5V9ZM14 5.5C13.7239 5.5 13.5 5.72386 13.5 6V6.5C13.5 6.77614 13.7239 7 14 7H14.5C14.7761 7 15 6.77614 15 6.5V6C15 5.72386 14.7761 5.5 14.5 5.5H14ZM14 8.5C13.7239 8.5 13.5 8.72386 13.5 9V9.5C13.5 9.77614 13.7239 10 14 10H14.5C14.7761 10 15 9.77614 15 9.5V9.25V9C15 8.72386 14.7761 8.5 14.5 8.5H14ZM10 9C10 8.72386 10.2239 8.5 10.5 8.5H11C11.2761 8.5 11.5 8.72386 11.5 9V9.25V9.5C11.5 9.77614 11.2761 10 11 10H10.5C10.2239 10 10 9.77614 10 9.5V9ZM10.5 5.5C10.2239 5.5 10 5.72386 10 6V6.5C10 6.77614 10.2239 7 10.5 7H11C11.2761 7 11.5 6.77614 11.5 6.5V6C11.5 5.72386 11.2761 5.5 11 5.5H10.5Z" fill="#2B2B2C"/>
</svg>
