<svg width="24" height="24" viewBox="0 0 24 24" fill="none" xmlns="http://www.w3.org/2000/svg">
<path fill-rule="evenodd" clip-rule="evenodd" d="M7 4.5C7 3.67157 7.67157 3 8.5 3H15.5C16.3284 3 17 3.67157 17 4.5V18H7V4.5ZM7 19V19.5C7 20.3284 7.67157 21 8.5 21H15.5C16.3284 21 17 20.3284 17 19.5V19H7ZM10.5 5C10.5 4.72386 10.7239 4.5 11 4.5H13C13.2761 4.5 13.5 4.72386 13.5 5C13.5 5.27614 13.2761 5.5 13 5.5H11C10.7239 5.5 10.5 5.27614 10.5 5ZM15 5.50001C15.2761 5.50001 15.5 5.27615 15.5 5.00001C15.5 4.72387 15.2761 4.50001 15 4.50001C14.7238 4.50001 14.5 4.72387 14.5 5.00001C14.5 5.27615 14.7238 5.50001 15 5.50001Z" fill="#2B2B2C"/>
</svg>
