<svg width="30" height="30" viewBox="0 0 30 30" fill="none" xmlns="http://www.w3.org/2000/svg">
<circle cx="18.5" cy="5.5" r="0.5" fill="#2B2B2C"/>
<path fill-rule="evenodd" clip-rule="evenodd" d="M8.5 4.75C8.5 3.7835 9.2835 3 10.25 3H19.75C20.7165 3 21.5 3.7835 21.5 4.75V24V25.25C21.5 26.2165 20.7165 27 19.75 27H10.25C9.2835 27 8.5 26.2165 8.5 25.25V24V4.75ZM9.5 24.5V25.25C9.5 25.6642 9.83579 26 10.25 26H19.75C20.1642 26 20.5 25.6642 20.5 25.25V24.5H9.5ZM20.5 23.5H9.5V4.75C9.5 4.33579 9.83579 4 10.25 4H19.75C20.1642 4 20.5 4.33579 20.5 4.75V23.5ZM13 5.5C13 5.22386 13.2239 5 13.5 5H16.5C16.7761 5 17 5.22386 17 5.5C17 5.77614 16.7761 6 16.5 6H13.5C13.2239 6 13 5.77614 13 5.5Z" fill="#2B2B2C"/>
</svg>
