<svg width="18" height="18" viewBox="0 0 18 18" fill="none" xmlns="http://www.w3.org/2000/svg">
<path fill-rule="evenodd" clip-rule="evenodd" d="M5 3.25C5 2.55964 5.55964 2 6.25 2H11.75C12.4404 2 13 2.55964 13 3.25V13H5V3.25ZM5 14V14.75C5 15.4404 5.55964 16 6.25 16H11.75C12.4404 16 13 15.4404 13 14.75V14H5ZM8 3.49998C7.72386 3.49998 7.5 3.72384 7.5 3.99998C7.5 4.27613 7.72386 4.49998 8 4.49998H10C10.2761 4.49998 10.5 4.27613 10.5 3.99998C10.5 3.72384 10.2761 3.49998 10 3.49998H8Z" fill="#2B2B2C"/>
</svg>
