<svg width="24" height="24" viewBox="0 0 24 24" fill="none" xmlns="http://www.w3.org/2000/svg">
<path fill-rule="evenodd" clip-rule="evenodd" d="M3 3.5C3 3.22386 3.22386 3 3.5 3H16.5C16.7761 3 17 3.22386 17 3.5V6H20.5C20.7761 6 21 6.22386 21 6.5V18.5C21 19.8807 19.8807 21 18.5 21H6.5C4.567 21 3 19.433 3 17.5V3.5ZM17 18.5V9V7H20V18.5C20 19.3284 19.3284 20 18.5 20C17.6716 20 17 19.3284 17 18.5ZM5.5 5.5C5.22386 5.5 5 5.72386 5 6C5 6.27614 5.22386 6.5 5.5 6.5H14.5C14.7761 6.5 15 6.27614 15 6C15 5.72386 14.7761 5.5 14.5 5.5H5.5ZM5 8.5C5 8.22386 5.22386 8 5.5 8H14.5C14.7761 8 15 8.22386 15 8.5C15 8.77614 14.7761 9 14.5 9H5.5C5.22386 9 5 8.77614 5 8.5ZM10.5 10.5C10.2239 10.5 10 10.7239 10 11V14.5C10 14.7761 10.2239 15 10.5 15H14.5C14.7761 15 15 14.7761 15 14.5V11C15 10.7239 14.7761 10.5 14.5 10.5H10.5ZM11 14V11.5H14V14H11ZM5 11.5C5 11.2239 5.22386 11 5.5 11H8.5C8.77614 11 9 11.2239 9 11.5C9 11.7761 8.77614 12 8.5 12H5.5C5.22386 12 5 11.7761 5 11.5ZM5.5 13.5C5.22386 13.5 5 13.7239 5 14C5 14.2761 5.22386 14.5 5.5 14.5H8.5C8.77614 14.5 9 14.2761 9 14C9 13.7239 8.77614 13.5 8.5 13.5H5.5ZM5 17C5 16.7239 5.22386 16.5 5.5 16.5H14.5C14.7761 16.5 15 16.7239 15 17C15 17.2761 14.7761 17.5 14.5 17.5H5.5C5.22386 17.5 5 17.2761 5 17Z" fill="#2B2B2C"/>
</svg>
