<svg width="30" height="30" viewBox="0 0 30 30" fill="none" xmlns="http://www.w3.org/2000/svg">
<path fill-rule="evenodd" clip-rule="evenodd" d="M4.5 4C4.22386 4 4 4.22386 4 4.5V21.75C4 24.0972 5.90279 26 8.25 26H23C24.6569 26 26 24.6569 26 23V8C26 7.72386 25.7761 7.5 25.5 7.5H21V4.5C21 4.22386 20.7761 4 20.5 4H4.5ZM25 8.5H21V11.5V23C21 24.1046 21.8954 25 23 25C24.1046 25 25 24.1046 25 23V8.5ZM20.7639 25C20.2889 24.4692 20 23.7684 20 23V11.5V8V5H5V21.75C5 23.5449 6.45507 25 8.25 25H20.7639ZM6.5 7.5C6.5 7.22386 6.72386 7 7 7H18C18.2761 7 18.5 7.22386 18.5 7.5C18.5 7.77614 18.2761 8 18 8H7C6.72386 8 6.5 7.77614 6.5 7.5ZM7 10C6.72386 10 6.5 10.2239 6.5 10.5C6.5 10.7761 6.72386 11 7 11H18C18.2761 11 18.5 10.7761 18.5 10.5C18.5 10.2239 18.2761 10 18 10H7ZM12.5 13.5C12.5 13.2239 12.7239 13 13 13H18C18.2761 13 18.5 13.2239 18.5 13.5V19.5C18.5 19.7761 18.2761 20 18 20H13C12.7239 20 12.5 19.7761 12.5 19.5V13.5ZM13.5 19H17.5V14H13.5V19ZM7 13C6.72386 13 6.5 13.2239 6.5 13.5C6.5 13.7761 6.72386 14 7 14H10.5C10.7761 14 11 13.7761 11 13.5C11 13.2239 10.7761 13 10.5 13H7ZM6.5 16.5C6.5 16.2239 6.72386 16 7 16H10.5C10.7761 16 11 16.2239 11 16.5C11 16.7761 10.7761 17 10.5 17H7C6.72386 17 6.5 16.7761 6.5 16.5ZM6.5 19.5C6.5 19.2239 6.72386 19 7 19H10.5C10.7761 19 11 19.2239 11 19.5C11 19.7761 10.7761 20 10.5 20H7C6.72386 20 6.5 19.7761 6.5 19.5ZM7 22C6.72386 22 6.5 22.2239 6.5 22.5C6.5 22.7761 6.72386 23 7 23H18C18.2761 23 18.5 22.7761 18.5 22.5C18.5 22.2239 18.2761 22 18 22H7Z" fill="#2B2B2C"/>
</svg>
