<svg width="30" height="30" viewBox="0 0 30 30" fill="none" xmlns="http://www.w3.org/2000/svg">
<path fill-rule="evenodd" clip-rule="evenodd" d="M4.75 5C3.7835 5 3 5.7835 3 6.75V19H27V6.75C27 5.7835 26.2165 5 25.25 5H4.75ZM3 20.25V20H27V20.25C27 21.2165 26.2165 22 25.25 22H17.1404L17.8904 25H19.5C19.7761 25 20 25.2239 20 25.5C20 25.7761 19.7761 26 19.5 26H17.5103C17.5032 26.0002 17.496 26.0002 17.489 26H12.511C12.5039 26.0002 12.4968 26.0002 12.4897 26H10.5C10.2239 26 10 25.7761 10 25.5C10 25.2239 10.2239 25 10.5 25H12.1096L12.8596 22H4.75C3.7835 22 3 21.2165 3 20.25ZM13.8904 22L13.1404 25H16.8596L16.1096 22H13.8904Z" fill="#2B2B2C"/>
</svg>
