<svg width="24" height="24" viewBox="0 0 24 24" fill="none" xmlns="http://www.w3.org/2000/svg">
<path fill-rule="evenodd" clip-rule="evenodd" d="M8.0926 3.2376C7.56754 2.45001 6.4532 2.33967 5.78387 3.00899L5.43602 3.35684C3.9036 4.88926 3.41393 7.1787 4.18543 9.2039L4.47936 9.97548C6.15448 14.3727 9.62729 17.8455 14.0245 19.5206L14.7961 19.8145C16.8213 20.586 19.1107 20.0964 20.6431 18.5639L20.991 18.2161C21.6603 17.5468 21.55 16.4324 20.7624 15.9074L18.0401 14.0925C17.3928 13.661 16.5228 13.796 16.0368 14.4036L15.1145 15.5564C14.9672 15.7405 14.7114 15.7967 14.5005 15.6913L14.0994 15.4907C11.6803 14.2812 9.71879 12.3196 8.50924 9.90056L8.3087 9.49948C8.20326 9.2886 8.25946 9.03272 8.44357 8.88544L9.59639 7.96318C10.204 7.47713 10.339 6.60721 9.90742 5.95983L8.0926 3.2376Z" fill="#2B2B2C"/>
<path fill-rule="evenodd" clip-rule="evenodd" d="M12 5.5C12 5.22386 12.2239 5 12.5 5V5.5C12.5 5 12.5003 5 12.5006 5L12.5013 5L12.5031 5.00001L12.5083 5.00004L12.5253 5.00025C12.5394 5.00048 12.5591 5.00091 12.584 5.00174C12.6339 5.0034 12.7047 5.00665 12.7934 5.01299C12.9708 5.02566 13.2209 5.05075 13.5197 5.10055C14.1149 5.19976 14.9162 5.39911 15.7236 5.80279C16.5329 6.20744 17.3574 6.82228 17.9785 7.7539C18.6017 8.68865 19 9.91251 19 11.5C19 11.7761 18.7761 12 18.5 12C18.2239 12 18 11.7761 18 11.5C18 10.0875 17.6483 9.06135 17.1465 8.3086C16.6426 7.55272 15.9671 7.04256 15.2764 6.69721C14.5838 6.35089 13.8851 6.17524 13.3553 6.08695C13.0916 6.043 12.873 6.02122 12.7222 6.01045C12.6469 6.00507 12.5888 6.00246 12.5507 6.00119C12.5317 6.00055 12.5177 6.00026 12.5091 6.00012L12.5004 6.00001L12.5 6C12.4999 6 12.4997 6 12.4996 6M12 5.5C12 5.776 12.2236 5.99977 12.4996 6Z" fill="#2B2B2C"/>
<path fill-rule="evenodd" clip-rule="evenodd" d="M12 8C12 7.72386 12.2239 7.5 12.5 7.5V8C12.5 7.5 12.4997 7.5 12.5 7.5L12.5011 7.5L12.5026 7.50001L12.5065 7.50003L12.5181 7.50017C12.5275 7.50032 12.5402 7.50061 12.556 7.50113C12.5875 7.50218 12.6314 7.50421 12.686 7.50811C12.795 7.51589 12.9475 7.53122 13.1291 7.56149C13.4899 7.62164 13.9787 7.74286 14.4736 7.99029C14.9704 8.23869 15.4824 8.61916 15.8692 9.19921C16.2579 9.7824 16.5 10.5375 16.5 11.5C16.5 11.7761 16.2761 12 16 12C15.7239 12 15.5 11.7761 15.5 11.5C15.5 10.7125 15.3046 10.1551 15.0371 9.75391C14.7676 9.34959 14.4046 9.07381 14.0264 8.88471C13.6463 8.69464 13.2601 8.59711 12.9647 8.54788C12.8182 8.52347 12.6972 8.51145 12.6148 8.50557C12.5736 8.50263 12.5424 8.50123 12.5226 8.50058L12.502 8.50004L12.4996 8.5C12.2236 8.49976 12 8.27599 12 8Z" fill="#2B2B2C"/>
</svg>
