<svg width="24" height="24" viewBox="0 0 24 24" fill="none" xmlns="http://www.w3.org/2000/svg">
<path fill-rule="evenodd" clip-rule="evenodd" d="M7.26055 3.7923C7.08553 3.52977 6.71408 3.49299 6.49098 3.7161L6.14313 4.06394C4.88933 5.31774 4.48869 7.19093 5.11991 8.8479L5.41385 9.61948C6.98745 13.7502 10.2498 17.0125 14.3805 18.5861L15.1521 18.8801C16.809 19.5113 18.6822 19.1106 19.936 17.8568L20.2839 17.509C20.507 17.2859 20.4702 16.9144 20.2077 16.7394L17.4854 14.9246C17.2696 14.7807 16.9797 14.8258 16.8177 15.0283L15.8954 16.1811C15.4535 16.7334 14.6859 16.902 14.0533 16.5857L13.6522 16.3852C11.0396 15.0788 8.92112 12.9604 7.61481 10.3478L7.41427 9.94669C7.09796 9.31406 7.26656 8.54642 7.81887 8.10457L8.97169 7.18231C9.17421 7.02029 9.21923 6.73032 9.07537 6.51453L7.26055 3.7923ZM5.78387 3.00899C6.4532 2.33967 7.56754 2.45001 8.0926 3.2376L9.90742 5.95983C10.339 6.60721 10.204 7.47713 9.59639 7.96318L8.44357 8.88544C8.25946 9.03272 8.20326 9.2886 8.3087 9.49948L8.50924 9.90056C9.71879 12.3196 11.6803 14.2812 14.0994 15.4907L14.5005 15.6913C14.7114 15.7967 14.9672 15.7405 15.1145 15.5564L16.0368 14.4036C16.5228 13.796 17.3928 13.661 18.0401 14.0925L20.7624 15.9074C21.55 16.4324 21.6603 17.5468 20.991 18.2161L20.6431 18.5639C19.1107 20.0964 16.8213 20.586 14.7961 19.8145L14.0245 19.5206C9.62729 17.8455 6.15448 14.3727 4.47936 9.97548L4.18543 9.2039C3.41393 7.1787 3.9036 4.88926 5.43602 3.35684L5.78387 3.00899Z" fill="#2B2B2C"/>
<path fill-rule="evenodd" clip-rule="evenodd" d="M12 5.5C12 5.22386 12.2239 5 12.5 5V5.5C12.5 5 12.5003 5 12.5006 5L12.5013 5L12.5031 5.00001L12.5083 5.00004L12.5253 5.00025C12.5394 5.00048 12.5591 5.00091 12.584 5.00174C12.6339 5.0034 12.7047 5.00665 12.7934 5.01299C12.9708 5.02566 13.2209 5.05075 13.5197 5.10055C14.1149 5.19976 14.9162 5.39911 15.7236 5.80279C16.5329 6.20744 17.3574 6.82228 17.9785 7.7539C18.6017 8.68865 19 9.91251 19 11.5C19 11.7761 18.7761 12 18.5 12C18.2239 12 18 11.7761 18 11.5C18 10.0875 17.6483 9.06135 17.1465 8.3086C16.6426 7.55272 15.9671 7.04256 15.2764 6.69721C14.5838 6.35089 13.8851 6.17524 13.3553 6.08695C13.0916 6.043 12.873 6.02122 12.7222 6.01045C12.6469 6.00507 12.5888 6.00246 12.5507 6.00119C12.5317 6.00055 12.5177 6.00026 12.5091 6.00012L12.5004 6.00001L12.5 6C12.4999 6 12.4997 6 12.4996 6M12 5.5C12 5.776 12.2236 5.99977 12.4996 6Z" fill="#2B2B2C"/>
<path fill-rule="evenodd" clip-rule="evenodd" d="M12 8C12 7.72386 12.2239 7.5 12.5 7.5V8C12.5 7.5 12.5003 7.5 12.5005 7.5L12.5011 7.5L12.5026 7.50001L12.5065 7.50003L12.5181 7.50017C12.5275 7.50032 12.5402 7.50061 12.556 7.50113C12.5875 7.50218 12.6314 7.50421 12.686 7.50811C12.795 7.51589 12.9475 7.53122 13.1291 7.56149C13.4899 7.62164 13.9787 7.74286 14.4736 7.99029C14.9704 8.23869 15.4824 8.61916 15.8692 9.19921C16.2579 9.7824 16.5 10.5375 16.5 11.5C16.5 11.7761 16.2761 12 16 12C15.7239 12 15.5 11.7761 15.5 11.5C15.5 10.7125 15.3046 10.1551 15.0371 9.75391C14.7676 9.34959 14.4046 9.07381 14.0264 8.88471C13.6463 8.69464 13.2601 8.59711 12.9647 8.54788C12.8182 8.52347 12.6972 8.51145 12.6148 8.50557C12.5736 8.50263 12.5424 8.50123 12.5226 8.50058L12.502 8.50004L12.4996 8.5C12.2236 8.49976 12 8.27599 12 8ZM12.4996 8.5L12.4992 8.5L12.4987 8.5C12.4985 8.5 12.4985 8.5 12.4985 8.5L12.4986 8.5L12.4996 8.5Z" fill="#2B2B2C"/>
</svg>
