<svg width="18" height="18" viewBox="0 0 18 18" fill="none" xmlns="http://www.w3.org/2000/svg">
<path fill-rule="evenodd" clip-rule="evenodd" d="M2 3.25C2 2.55964 2.55964 2 3.25 2H14.75C15.4404 2 16 2.55964 16 3.25V10.4995V10.5004V14.75C16 15.4404 15.4404 16 14.75 16H3.25C2.55964 16 2 15.4404 2 14.75V3.25ZM15 3.25V9.29284L13.1187 7.41156C12.777 7.06985 12.223 7.06985 11.8813 7.41155L8 11.2928L6.11872 9.41156C5.77701 9.06985 5.22299 9.06985 4.88128 9.41156L3 11.2928V3.25C3 3.11193 3.11193 3 3.25 3H14.75C14.8881 3 15 3.11193 15 3.25ZM5 6C5 4.89543 5.89543 4 7 4C8.10457 4 9 4.89543 9 6C9 7.10457 8.10457 8 7 8C5.89543 8 5 7.10457 5 6Z" fill="#2B2B2C"/>
</svg>
