<svg width="18" height="18" viewBox="0 0 18 18" fill="none" xmlns="http://www.w3.org/2000/svg">
<path fill-rule="evenodd" clip-rule="evenodd" d="M2 3.25C2 2.55964 2.55964 2 3.25 2H14.75C15.4404 2 16 2.55964 16 3.25V10.4995V10.5004V14.75C16 15.4404 15.4404 16 14.75 16H3.25C2.55964 16 2 15.4404 2 14.75V3.25ZM15 3.25V9.29284L13.1187 7.41156C12.777 7.06985 12.223 7.06985 11.8813 7.41155L8 11.2928L6.11872 9.41156C5.77701 9.06985 5.22299 9.06985 4.88128 9.41156L3 11.2928V3.25C3 3.11193 3.11193 3 3.25 3H14.75C14.8881 3 15 3.11193 15 3.25ZM3 14.75V12.7071L5.5 10.2071L7.38128 12.0883C7.72299 12.43 8.27701 12.43 8.61872 12.0883L12.5 8.20705L15 10.7071V14.75C15 14.8881 14.8881 15 14.75 15H3.25C3.11193 15 3 14.8881 3 14.75ZM6 6C6 5.44772 6.44772 5 7 5C7.55228 5 8 5.44772 8 6C8 6.55228 7.55228 7 7 7C6.44772 7 6 6.55228 6 6ZM7 4C5.89543 4 5 4.89543 5 6C5 7.10457 5.89543 8 7 8C8.10457 8 9 7.10457 9 6C9 4.89543 8.10457 4 7 4Z" fill="#2B2B2C"/>
</svg>
