<svg width="30" height="30" viewBox="0 0 30 30" fill="none" xmlns="http://www.w3.org/2000/svg">
<path fill-rule="evenodd" clip-rule="evenodd" d="M4 5.75C4 4.7835 4.7835 4 5.75 4H24.25C25.2165 4 26 4.7835 26 5.75V24.25C26 25.2165 25.2165 26 24.25 26H5.75C4.7835 26 4 25.2165 4 24.25V20.5001V20.4999V5.75ZM25 5.75V16.2929L21.2955 12.5884C20.8562 12.1491 20.1438 12.1491 19.7045 12.5884L13.5884 18.7045C13.5396 18.7533 13.4604 18.7533 13.4116 18.7045L10.2955 15.5884C9.85616 15.1491 9.14385 15.1491 8.70451 15.5884L5 19.2929V5.75C5 5.33579 5.33579 5 5.75 5H24.25C24.6642 5 25 5.33579 25 5.75ZM9 10C9 8.34315 10.3431 7 12 7C13.6569 7 15 8.34315 15 10C15 11.6569 13.6569 13 12 13C10.3431 13 9 11.6569 9 10Z" fill="#2B2B2C"/>
</svg>
