<svg width="18" height="18" viewBox="0 0 18 18" fill="none" xmlns="http://www.w3.org/2000/svg">
<path fill-rule="evenodd" clip-rule="evenodd" d="M7 5C7 3.89543 7.89543 3 9 3C10.1046 3 11 3.89543 11 5V9H7V5ZM6 9.5V5C6 3.34315 7.34315 2 9 2C10.6569 2 12 3.34315 12 5V9.5V10C12 11.4865 10.9189 12.7205 9.5 12.9585V15H11.5C11.7762 15 12 15.2239 12 15.5C12 15.7761 11.7762 16 11.5 16H6.50002C6.22387 16 6.00002 15.7761 6.00002 15.5C6.00002 15.2239 6.22387 15 6.50002 15H8.5V12.9585C7.08114 12.7205 6 11.4865 6 10V9.5ZM11 10C11 11.1046 10.1046 12 9 12C7.89543 12 7 11.1046 7 10H11Z" fill="#2B2B2C"/>
<path fill-rule="evenodd" clip-rule="evenodd" d="M13.2226 6.08403C13.4524 5.93085 13.7628 5.99294 13.916 6.2227L13.5 6.50005C13.916 6.2227 13.9161 6.2229 13.9163 6.2231L13.9166 6.22352L13.9172 6.22449L13.9188 6.22684L13.9229 6.23324L13.9352 6.25268C13.9451 6.26854 13.9583 6.2902 13.9739 6.3173C14.0052 6.37141 14.0467 6.44761 14.092 6.5429C14.1824 6.73257 14.2906 7.00298 14.3631 7.32909C14.509 7.98553 14.5113 8.8845 13.916 9.7774C13.7628 10.0072 13.4524 10.0693 13.2226 9.91608C12.9929 9.7629 12.9308 9.45247 13.084 9.2227C13.4887 8.61561 13.491 8.01458 13.3869 7.54602C13.3344 7.30962 13.2551 7.11128 13.1892 6.97283C13.1564 6.90406 13.1276 6.85135 13.1081 6.81757C13.0983 6.80072 13.091 6.7887 13.0867 6.78185L13.0827 6.77557C13.0825 6.77519 13.0825 6.77515 13.0827 6.77545L13.0831 6.77617L13.0835 6.77672L13.0837 6.77704C12.9309 6.54732 12.993 6.23712 13.2226 6.08403Z" fill="#2B2B2C"/>
<path fill-rule="evenodd" clip-rule="evenodd" d="M4.77734 9.91597C4.54758 10.0691 4.23714 10.0071 4.08397 9.7773L4.49999 9.49995C4.08397 9.7773 4.08384 9.7771 4.08371 9.7769L4.08342 9.77648L4.08278 9.77551L4.08123 9.77316L4.07707 9.76676L4.06475 9.74732C4.05486 9.73146 4.0417 9.7098 4.02604 9.6827C3.99478 9.62859 3.95331 9.55239 3.90794 9.4571C3.81762 9.26743 3.70937 8.99702 3.6369 8.67091C3.49102 8.01447 3.4887 7.1155 4.08397 6.2226C4.23714 5.99283 4.54758 5.93075 4.77734 6.08392C5.00711 6.2371 5.06919 6.54753 4.91602 6.7773C4.51129 7.38439 4.50896 7.98542 4.61309 8.45398C4.66562 8.69038 4.74487 8.88872 4.8108 9.02717C4.84355 9.09594 4.87239 9.14865 4.89191 9.18243C4.90165 9.19928 4.909 9.2113 4.91326 9.21815L4.91724 9.22443C4.91748 9.22481 4.91751 9.22485 4.91731 9.22455L4.91684 9.22383L4.91647 9.22328L4.91626 9.22296C5.06913 9.45268 5.00699 9.76288 4.77734 9.91597Z" fill="#2B2B2C"/>
<path fill-rule="evenodd" clip-rule="evenodd" d="M14.6464 4.64645C14.8417 4.45118 15.1583 4.45118 15.3536 4.64645L15 5C15.3536 4.64645 15.3537 4.64662 15.3539 4.6468L15.3543 4.64718L15.3551 4.64802L15.3571 4.64997L15.362 4.65503L15.376 4.66975C15.3871 4.6816 15.4017 4.69756 15.4193 4.71762C15.4544 4.75774 15.5014 4.81435 15.5562 4.8875C15.6659 5.03373 15.8073 5.24664 15.9472 5.52639C16.2278 6.08754 16.5 6.91362 16.5 8C16.5 9.08638 16.2278 9.91246 15.9472 10.4736C15.8073 10.7534 15.6659 10.9663 15.5562 11.1125C15.5014 11.1856 15.4544 11.2423 15.4193 11.2824C15.4017 11.3024 15.3871 11.3184 15.376 11.3303L15.362 11.345L15.3571 11.35L15.3551 11.352L15.3543 11.3528L15.3539 11.3532C15.3537 11.3534 15.3536 11.3536 15 11L15.3536 11.3536C15.1583 11.5488 14.8417 11.5488 14.6464 11.3536C14.452 11.1591 14.4512 10.8444 14.6439 10.649L14.6465 10.6463C14.65 10.6425 14.6569 10.6351 14.6667 10.6239C14.6863 10.6015 14.7174 10.5644 14.7562 10.5125C14.8341 10.4087 14.9427 10.2466 15.0528 10.0264C15.2722 9.58754 15.5 8.91362 15.5 8C15.5 7.08638 15.2722 6.41246 15.0528 5.97361C14.9427 5.75336 14.8341 5.59127 14.7562 5.4875C14.7174 5.43565 14.6863 5.39851 14.6667 5.37613C14.6569 5.36494 14.65 5.35746 14.6465 5.35369L14.6439 5.35103C14.4512 5.15557 14.452 4.84087 14.6464 4.64645Z" fill="#2B2B2C"/>
<path fill-rule="evenodd" clip-rule="evenodd" d="M3.35355 11.3536C3.15829 11.5488 2.84171 11.5488 2.64645 11.3536L3 11C2.64645 11.3536 2.64627 11.3534 2.64609 11.3532L2.64571 11.3528L2.64488 11.352L2.64295 11.35L2.63801 11.345L2.624 11.3303C2.61289 11.3184 2.5983 11.3024 2.58074 11.2824C2.54564 11.2423 2.49861 11.1856 2.44375 11.1125C2.33408 10.9663 2.19266 10.7534 2.05279 10.4736C1.77221 9.91246 1.5 9.08638 1.5 8C1.5 6.91362 1.77221 6.08754 2.05279 5.52639C2.19266 5.24664 2.33408 5.03373 2.44375 4.8875C2.49861 4.81435 2.54564 4.75774 2.58074 4.71762C2.5983 4.69756 2.61289 4.6816 2.624 4.66975L2.63801 4.65503L2.64295 4.64997L2.64488 4.64802L2.64571 4.64718L2.64609 4.6468C2.64627 4.64663 2.64644 4.64645 2.97733 4.97733L2.64645 4.64645C2.84171 4.45118 3.15829 4.45118 3.35355 4.64645C3.54798 4.84087 3.54881 5.15557 3.35606 5.35103L3.35354 5.35369C3.35 5.35746 3.34311 5.36494 3.33332 5.37613C3.31373 5.39851 3.28264 5.43565 3.24375 5.4875C3.16592 5.59127 3.05734 5.75336 2.94721 5.97361C2.72779 6.41246 2.5 7.08638 2.5 8C2.5 8.91362 2.72779 9.58754 2.94721 10.0264C3.05734 10.2466 3.16592 10.4087 3.24375 10.5125C3.28264 10.5644 3.31373 10.6015 3.33332 10.6239C3.34311 10.6351 3.35 10.6425 3.35354 10.6463L3.35605 10.649C3.35595 10.6489 3.3558 10.6487 3.3556 10.6485L3.35476 10.6477L3.3542 10.6471M3.35355 11.3536C3.54798 11.1591 3.54881 10.8444 3.35606 10.649ZM3.35606 10.649L3.35605 10.649C3.35619 10.6491 3.35626 10.6492 3.35625 10.6492L3.35606 10.649Z" fill="#2B2B2C"/>
</svg>
