<svg width="30" height="30" viewBox="0 0 30 30" fill="none" xmlns="http://www.w3.org/2000/svg">
<path fill-rule="evenodd" clip-rule="evenodd" d="M22.2428 10.0712C22.4796 9.92913 22.7867 10.0059 22.9288 10.2427L22.5001 10.5C22.9288 10.2427 22.9289 10.2429 22.9291 10.2431L22.9293 10.2436L22.93 10.2447L22.9317 10.2475L22.9367 10.256L22.9526 10.2839C22.9657 10.3072 22.9836 10.34 23.0052 10.3816C23.0484 10.4647 23.1066 10.5834 23.1706 10.7327C23.2982 11.0306 23.4509 11.4547 23.5529 11.9644C23.757 12.9849 23.7607 14.3708 22.9288 15.7572C22.7867 15.994 22.4796 16.0708 22.2428 15.9287C22.006 15.7866 21.9293 15.4795 22.0713 15.2427C22.7395 14.1291 22.7432 13.015 22.5723 12.1605C22.4867 11.7328 22.3582 11.3756 22.2514 11.1266C22.1982 11.0025 22.151 10.9063 22.118 10.8429C22.1015 10.8113 22.0887 10.7879 22.0805 10.7734L22.072 10.7584L22.0706 10.756C22.0706 10.7559 22.0706 10.756 22.0707 10.7562L22.071 10.7566L22.0711 10.7569C21.9293 10.5201 22.0062 10.2132 22.2428 10.0712Z" fill="#2B2B2C"/>
<path fill-rule="evenodd" clip-rule="evenodd" d="M7.75717 15.9288C7.52038 16.0709 7.21325 15.9941 7.07118 15.7573L7.49992 15.5C7.07118 15.7573 7.07106 15.7571 7.07094 15.7569L7.07067 15.7564L7.07002 15.7553L7.06831 15.7525L7.06333 15.744L7.04743 15.7161C7.03434 15.6928 7.01641 15.66 6.99479 15.6184C6.95158 15.5353 6.89341 15.4166 6.82941 15.2673C6.70175 14.9694 6.54908 14.5453 6.44713 14.0356C6.24303 13.0151 6.23933 11.6292 7.07118 10.2428C7.21325 10.006 7.52038 9.92923 7.75717 10.0713C7.99396 10.2134 8.07074 10.5205 7.92867 10.7573C7.26052 11.8709 7.25682 12.985 7.42771 13.8395C7.51327 14.2672 7.64185 14.6244 7.74856 14.8734C7.80176 14.9975 7.84905 15.0937 7.88201 15.1571C7.89847 15.1887 7.91131 15.2121 7.91946 15.2266L7.928 15.2416L7.92937 15.244C7.92943 15.2441 7.9294 15.244 7.92929 15.2438L7.92905 15.2434L7.92888 15.2431C8.07067 15.4799 7.99385 15.7868 7.75717 15.9288Z" fill="#2B2B2C"/>
<path fill-rule="evenodd" clip-rule="evenodd" d="M23.1465 7.14645C23.3418 6.95118 23.6584 6.95118 23.8536 7.14645L23.5001 7.5C23.8536 7.14645 23.8535 7.14628 23.8536 7.14645L23.8552 7.14803L23.8575 7.15036L23.8643 7.15724L23.886 7.17992C23.904 7.19898 23.9289 7.22591 23.9597 7.26059C24.0214 7.32994 24.1068 7.43043 24.208 7.5611C24.4101 7.82226 24.6762 8.20518 24.9413 8.70221C25.4717 9.69675 26.0001 11.1521 26.0001 13C26.0001 14.8479 25.4717 16.3033 24.9413 17.2978C24.6762 17.7948 24.4101 18.1777 24.208 18.4389C24.1068 18.5696 24.0214 18.6701 23.9597 18.7394C23.9289 18.7741 23.904 18.801 23.886 18.8201L23.8643 18.8428L23.8575 18.8496L23.8552 18.852L23.8543 18.8529C23.8542 18.853 23.8536 18.8536 23.5001 18.5L23.8543 18.8529C23.6591 19.0481 23.3418 19.0488 23.1465 18.8536C22.9516 18.6586 22.9513 18.3427 23.1456 18.1474C23.1457 18.1473 23.1464 18.1465 23.1465 18.1464L23.1591 18.1333C23.1704 18.1213 23.1885 18.1019 23.2123 18.075C23.2601 18.0213 23.3309 17.9382 23.4172 17.8267C23.59 17.6035 23.824 17.2677 24.0589 16.8272C24.5285 15.9467 25.0001 14.6521 25.0001 13C25.0001 11.3479 24.5285 10.0533 24.0589 9.17279C23.824 8.73232 23.59 8.39649 23.4172 8.17327C23.3309 8.06176 23.2601 7.97865 23.2123 7.92496C23.1885 7.89812 23.1704 7.87866 23.1591 7.86671L23.1474 7.85444L23.1456 7.8526C23.1456 7.85263 23.1455 7.85256 23.1456 7.8526C22.9506 7.65732 22.9514 7.34162 23.1465 7.14645Z" fill="#2B2B2C"/>
<path fill-rule="evenodd" clip-rule="evenodd" d="M6.85346 18.8536C6.6582 19.0488 6.34162 19.0488 6.14635 18.8536L6.49991 18.5C6.14635 18.8536 6.14652 18.8537 6.14635 18.8536L6.14478 18.852L6.14248 18.8496L6.13573 18.8428L6.11402 18.8201C6.09602 18.801 6.0711 18.7741 6.04027 18.7394C5.97862 18.6701 5.89321 18.5696 5.79205 18.4389C5.58986 18.1777 5.32381 17.7948 5.05873 17.2978C4.52831 16.3033 3.99991 14.8479 3.99991 13C3.99991 11.1521 4.52831 9.69675 5.05873 8.70221C5.32381 8.20518 5.58986 7.82226 5.79205 7.5611C5.89321 7.43043 5.97862 7.32994 6.04027 7.26059C6.0711 7.22591 6.09602 7.19898 6.11402 7.17992L6.13573 7.15724L6.14248 7.15036L6.14478 7.14803L6.14566 7.14714C6.14582 7.14698 6.14635 7.14646 6.4687 7.46879L6.14566 7.14714C6.34092 6.95188 6.6582 6.95118 6.85346 7.14645C7.04842 7.34141 7.04872 7.65731 6.85437 7.85264C6.85428 7.85274 6.85356 7.85346 6.85346 7.85355L6.84087 7.86671C6.82958 7.87866 6.81153 7.89812 6.78768 7.92496C6.73995 7.97865 6.66911 8.06176 6.58277 8.17327C6.40996 8.39649 6.17601 8.73231 5.94108 9.17279C5.47151 10.0533 4.99991 11.3479 4.99991 13C4.99991 14.6521 5.47151 15.9467 5.94108 16.8272C6.17601 17.2677 6.40996 17.6035 6.58277 17.8267C6.66911 17.9382 6.73995 18.0213 6.78768 18.075C6.81153 18.1019 6.82958 18.1213 6.84087 18.1333L6.85261 18.1456L6.85441 18.1474C7.04939 18.3427 7.04863 18.6584 6.85346 18.8536Z" fill="#2B2B2C"/>
<path fill-rule="evenodd" clip-rule="evenodd" d="M11 8C11 5.79086 12.7909 4 15 4C17.2091 4 19 5.79086 19 8V9H17C16.7239 9 16.5 9.22386 16.5 9.5C16.5 9.77614 16.7239 10 17 10H19V12.5H17C16.7239 12.5 16.5 12.7239 16.5 13C16.5 13.2761 16.7239 13.5 17 13.5H19V16H17C16.7239 16 16.5 16.2239 16.5 16.5C16.5 16.7761 16.7239 17 17 17H19V18C19 20.2091 17.2091 22 15 22C12.7909 22 11 20.2091 11 18V17H13C13.2761 17 13.5 16.7761 13.5 16.5C13.5 16.2239 13.2761 16 13 16H11V13.5H13C13.2761 13.5 13.5 13.2761 13.5 13C13.5 12.7239 13.2761 12.5 13 12.5H11V10H13C13.2761 10 13.5 9.77614 13.5 9.5C13.5 9.22386 13.2761 9 13 9H11V8ZM10 9.5V8C10 5.23858 12.2386 3 15 3C17.7614 3 20 5.23858 20 8V9.5V13V16.5V18C20 20.5927 18.0267 22.7245 15.5 22.9753V26H19.5C19.7761 26 20 26.2239 20 26.5C20 26.7761 19.7761 27 19.5 27H15H10.5C10.2239 27 10 26.7761 10 26.5C10 26.2239 10.2239 26 10.5 26H14.5V22.9753C11.9733 22.7245 10 20.5927 10 18V16.5V13V9.5Z" fill="#2B2B2C"/>
</svg>
