<svg width="18" height="18" viewBox="0 0 18 18" fill="none" xmlns="http://www.w3.org/2000/svg">
<path fill-rule="evenodd" clip-rule="evenodd" d="M12.6103 2.02878C13.1887 1.60816 14 2.0213 14 2.73642V4.0896L15.6183 2.17704C15.7967 1.96624 16.1122 1.93995 16.323 2.11832C16.5338 2.29669 16.5601 2.61218 16.3817 2.82298L14 5.63772V15.2636C14 15.9787 13.1887 16.3919 12.6103 15.9712L8.05781 12.6603L5.3817 15.823C5.20333 16.0338 4.88784 16.0601 4.67704 15.8817C4.46624 15.7033 4.43995 15.3878 4.61832 15.177L6.8835 12.5H4.25C3.55964 12.5 3 11.9404 3 11.25V6.75001C3 6.05965 3.55964 5.50001 4.25 5.50001H7.83741L12.6103 2.02878ZM8.7055 11.8949L13 15.0181V6.81954L8.7055 11.8949ZM13 5.27141L8.5 10.5896V6.25462L13 2.98189V5.27141ZM4.25 6.50001H7.5V11.5H4.25C4.11193 11.5 4 11.3881 4 11.25V6.75001C4 6.61194 4.11193 6.50001 4.25 6.50001Z" fill="#2B2B2C"/>
</svg>
