<svg width="24" height="24" viewBox="0 0 24 24" fill="none" xmlns="http://www.w3.org/2000/svg">
<path fill-rule="evenodd" clip-rule="evenodd" d="M18 4.51539C18 3.68572 17.0479 3.21691 16.3903 3.72277L10.8299 7.99996H6.5C5.67157 7.99996 5 8.67153 5 9.49996V14.5C5 15.3284 5.67157 16 6.5 16H10.8299L16.3903 20.2772C17.0479 20.783 18 20.3142 18 19.4845V4.51539ZM11.5 8.74616L17 4.51539V19.4845L11.5 15.2538V8.74616ZM10.5 8.99996H6.5C6.22386 8.99996 6 9.22382 6 9.49996V14.5C6 14.7761 6.22386 15 6.5 15H10.5V8.99996Z" fill="#2B2B2C"/>
</svg>
