<svg width="30" height="30" viewBox="0 0 30 30" fill="none" xmlns="http://www.w3.org/2000/svg">
<path fill-rule="evenodd" clip-rule="evenodd" d="M23 5.16779C23 4.26925 21.9986 3.73331 21.251 4.23173L13.3486 9.49996H7.75C6.7835 9.49996 6 10.2835 6 11.25V18.75C6 19.7165 6.7835 20.5 7.75 20.5H13.3486L21.251 25.7682C21.9986 26.2666 23 25.7307 23 24.8321V5.16779ZM21.8057 5.06378C21.8887 5.0084 22 5.06795 22 5.16779V24.8321C22 24.932 21.8887 24.9915 21.8057 24.9361L14 19.7324V10.2676L21.8057 5.06378ZM13 10.5H7.75C7.33579 10.5 7 10.8357 7 11.25V18.75C7 19.1642 7.33579 19.5 7.75 19.5H13V10.5Z" fill="#2B2B2C"/>
</svg>
