<svg width="30" height="30" viewBox="0 0 30 30" fill="none" xmlns="http://www.w3.org/2000/svg">
<path fill-rule="evenodd" clip-rule="evenodd" d="M25.8932 4.80893C26.0638 4.5918 26.026 4.27747 25.8089 4.10686C25.5918 3.93626 25.2774 3.97397 25.1068 4.19111L23 6.87254V5.16779C23 4.26925 21.9986 3.73331 21.251 4.23173L13.3486 9.49996H7.75C6.7835 9.49996 6 10.2835 6 11.25V18.75C6 19.7165 6.7835 20.5 7.75 20.5H12.2927L8.60684 25.1911C8.43623 25.4082 8.47395 25.7226 8.69109 25.8932C8.90822 26.0638 9.22255 26.0261 9.39316 25.8089L13.4903 20.5944L21.251 25.7682C21.9986 26.2666 23 25.7307 23 24.8321V8.49113L25.8932 4.80893ZM22 8.14527V5.16779C22 5.06795 21.8887 5.0084 21.8057 5.06378L14 10.2676V18.3271L22 8.14527ZM14.11 19.8057L22 9.76386V24.8321C22 24.932 21.8887 24.9915 21.8057 24.9361L14.11 19.8057ZM7.75 10.5H13V19.5H7.75C7.33579 19.5 7 19.1642 7 18.75V11.25C7 10.8357 7.33579 10.5 7.75 10.5Z" fill="#2B2B2C"/>
</svg>
