<svg width="18" height="18" viewBox="0 0 18 18" fill="none" xmlns="http://www.w3.org/2000/svg">
<path fill-rule="evenodd" clip-rule="evenodd" d="M12.6103 2.02878C13.1887 1.60816 14 2.0213 14 2.73642V4.0896L15.6183 2.17704C15.7967 1.96624 16.1122 1.93995 16.323 2.11832C16.5338 2.29669 16.5601 2.61218 16.3817 2.82298L5.3817 15.823C5.20333 16.0338 4.88784 16.0601 4.67704 15.8817C4.46624 15.7033 4.43995 15.3878 4.61832 15.177L6.8835 12.5H4.25C3.55964 12.5 3 11.9404 3 11.25V6.75001C3 6.05965 3.55964 5.50001 4.25 5.50001H7.5V11.7714L8.5 10.5896V5.01812L12.6103 2.02878ZM8.83766 13.2275L14 7.12651V15.2636C14 15.9787 13.1887 16.3919 12.6103 15.9712L8.83766 13.2275Z" fill="#2B2B2C"/>
</svg>
