<svg width="18" height="18" viewBox="0 0 18 18" fill="none" xmlns="http://www.w3.org/2000/svg">
<path fill-rule="evenodd" clip-rule="evenodd" d="M14 2.73642C14 2.0213 13.1887 1.60816 12.6103 2.02878L7.83741 5.50001H4.25C3.55964 5.50001 3 6.05965 3 6.75001V11.25C3 11.9404 3.55964 12.5 4.25 12.5H7.83741L12.6103 15.9712C13.1887 16.3919 14 15.9787 14 15.2636V2.73642ZM8.5 6.25462L13 2.98189V15.0181L8.5 11.7454V6.25462ZM7.5 6.50001H4.25C4.11193 6.50001 4 6.61194 4 6.75001V11.25C4 11.3881 4.11193 11.5 4.25 11.5H7.5V6.50001Z" fill="#2B2B2C"/>
</svg>
