<svg width="18" height="18" viewBox="0 0 18 18" fill="none" xmlns="http://www.w3.org/2000/svg">
<path fill-rule="evenodd" clip-rule="evenodd" d="M3.5 3C2.67157 3 2 3.67157 2 4.5V12C2 12.8284 2.67157 13.5 3.5 13.5H8.5V15.5C8.5 15.6818 8.59864 15.8492 8.75762 15.9373C8.91659 16.0254 9.11087 16.0203 9.265 15.924L13.1434 13.5H14.5C15.3284 13.5 16 12.8284 16 12V4.5C16 3.67157 15.3284 3 14.5 3H3.5ZM5 6.5C4.72386 6.5 4.5 6.72386 4.5 7C4.5 7.27614 4.72386 7.5 5 7.5H13C13.2761 7.5 13.5 7.27614 13.5 7C13.5 6.72386 13.2761 6.5 13 6.5H5ZM10 9.5C10 9.77615 9.77615 10 9.50001 10L5 9.99999C4.72386 9.99998 4.5 9.77613 4.5 9.49998C4.5 9.22384 4.72386 8.99998 5.00001 8.99999L9.50001 9C9.77615 9 10 9.22386 10 9.5Z" fill="#2B2B2C"/>
</svg>
