<svg width="18" height="18" viewBox="0 0 18 18" fill="none" xmlns="http://www.w3.org/2000/svg">
<path fill-rule="evenodd" clip-rule="evenodd" d="M3.5 3.25C3.5 2.55964 4.05964 2 4.75 2H13.25C13.9404 2 14.5 2.55964 14.5 3.25V13H3.5V3.25ZM3.5 14V14.75C3.5 15.4404 4.05964 16 4.75 16H13.25C13.9404 16 14.5 15.4404 14.5 14.75V14H3.5ZM8 3.99999C8 3.72385 8.22386 3.49999 8.5 3.49999H9.5C9.77614 3.49999 10 3.72385 10 3.99999C10 4.27613 9.77614 4.49999 9.5 4.49999H8.5C8.22386 4.49999 8 4.27613 8 3.99999ZM12.5 4.49999C12.7762 4.49999 13 4.27613 13 3.99999C13 3.72384 12.7762 3.49999 12.5 3.49999C12.2239 3.49999 12 3.72384 12 3.99999C12 4.27613 12.2239 4.49999 12.5 4.49999Z" fill="#2B2B2C"/>
</svg>
