<svg width="18" height="18" viewBox="0 0 18 18" fill="none" xmlns="http://www.w3.org/2000/svg">
<path d="M12.5 4.5C12.5 4.77614 12.2762 5 12 5C11.7239 5 11.5 4.77614 11.5 4.5C11.5 4.22386 11.7239 4 12 4C12.2762 4 12.5 4.22386 12.5 4.5Z" fill="#2B2B2C"/>
<path fill-rule="evenodd" clip-rule="evenodd" d="M4.75 2C4.05964 2 3.5 2.55964 3.5 3.25V13.5V14.75C3.5 15.4404 4.05964 16 4.75 16H13.25C13.9404 16 14.5 15.4404 14.5 14.75V13.5V3.25C14.5 2.55964 13.9404 2 13.25 2H4.75ZM13.5 13V3.25C13.5 3.11193 13.3881 3 13.25 3H4.75C4.61193 3 4.5 3.11193 4.5 3.25V13H13.5ZM4.5 14H13.5V14.75C13.5 14.8881 13.3881 15 13.25 15H4.75C4.61193 15 4.5 14.8881 4.5 14.75V14ZM8.5 4C8.22386 4 8 4.22386 8 4.5C8 4.77614 8.22386 5 8.5 5H9.5C9.77614 5 10 4.77614 10 4.5C10 4.22386 9.77614 4 9.5 4H8.5Z" fill="#2B2B2C"/>
</svg>
