<svg width="30" height="30" viewBox="0 0 30 30" fill="none" xmlns="http://www.w3.org/2000/svg">
<path fill-rule="evenodd" clip-rule="evenodd" d="M15 2.5C15.2761 2.5 15.5 2.72386 15.5 3V7.95969L17.8127 6.10957C18.0283 5.93706 18.3429 5.97202 18.5154 6.18765C18.6879 6.40328 18.653 6.71793 18.4373 6.89043L15.5 9.24031V14.0979L19.7746 11.63L20.3998 8.01267C20.4468 7.74056 20.7055 7.55809 20.9776 7.60512C21.2497 7.65215 21.4322 7.91086 21.3852 8.18297L20.9019 10.9791L25.1736 8.51288C25.4127 8.37481 25.7185 8.45675 25.8566 8.69589C25.9946 8.93504 25.9127 9.24084 25.6736 9.37891L21.3783 11.8588L24.1369 12.9365C24.3941 13.037 24.5212 13.327 24.4207 13.5842C24.3202 13.8414 24.0302 13.9684 23.773 13.8679L20.2693 12.4991L15.9375 15L20.2693 17.5009L23.773 16.1321C24.0302 16.0316 24.3202 16.1586 24.4207 16.4158C24.5212 16.673 24.3941 16.963 24.1369 17.0635L21.3783 18.1412L25.6736 20.6211C25.9127 20.7592 25.9946 21.065 25.8566 21.3041C25.7185 21.5433 25.4127 21.6252 25.1736 21.4871L20.9019 19.0209L21.3852 21.817C21.4322 22.0891 21.2497 22.3478 20.9776 22.3949C20.7055 22.4419 20.4468 22.2594 20.3998 21.9873L19.7746 18.37L15.5 15.9021V20.7597L18.4373 23.1096C18.653 23.2821 18.6879 23.5967 18.5154 23.8123C18.3429 24.028 18.0283 24.0629 17.8127 23.8904L15.5 22.0403V27C15.5 27.2761 15.2761 27.5 15 27.5C14.7239 27.5 14.5 27.2761 14.5 27V22.0675L12.3201 23.8841C12.108 24.0609 11.7927 24.0322 11.6159 23.8201C11.4391 23.608 11.4678 23.2927 11.6799 23.1159L14.5 20.7658V15.83L10.2932 18.2588L9.72684 21.9775C9.68526 22.2505 9.43025 22.4381 9.15726 22.3965C8.88426 22.3549 8.69666 22.0999 8.73824 21.8269L9.18417 18.8991L4.88895 21.3789C4.64981 21.517 4.34401 21.435 4.20594 21.1959C4.06787 20.9567 4.14981 20.651 4.38895 20.5129L8.6606 18.0466L5.99744 17.0671C5.73827 16.9718 5.60545 16.6844 5.70078 16.4252C5.7961 16.166 6.08348 16.0332 6.34265 16.1286L9.78792 17.3958L13.9375 15L9.78791 12.6042L6.34264 13.8714C6.08347 13.9668 5.7961 13.834 5.70077 13.5748C5.60545 13.3156 5.73826 13.0282 5.99743 12.9329L8.6606 11.9534L4.38895 9.48712C4.1498 9.34905 4.06786 9.04325 4.20593 8.80411C4.344 8.56496 4.6498 8.48302 4.88895 8.62109L9.18416 11.1009L8.73823 8.17306C8.69666 7.90007 8.88426 7.64505 9.15725 7.60348C9.43025 7.5619 9.68526 7.7495 9.72683 8.02249L10.2932 11.7412L14.5 14.17V9.23419L11.6799 6.88411C11.4678 6.70733 11.4391 6.39205 11.6159 6.17991C11.7927 5.96777 12.108 5.93911 12.3201 6.11589L14.5 7.93248V3C14.5 2.72386 14.7239 2.5 15 2.5Z" fill="#2B2B2C"/>
</svg>
