<svg width="18" height="18" viewBox="0 0 18 18" fill="none" xmlns="http://www.w3.org/2000/svg">
<path fill-rule="evenodd" clip-rule="evenodd" d="M8.99995 1C9.27609 1 9.49995 1.22386 9.49995 1.5V4L10.6999 3.1C10.9209 2.93431 11.2343 2.97909 11.3999 3.2C11.5656 3.42091 11.5209 3.73431 11.2999 3.9L9.49995 5.25V8.13403L11.9975 6.69204L12.2667 4.45819C12.2997 4.18403 12.5487 3.98856 12.8229 4.02159C13.0971 4.05462 13.2925 4.30365 13.2595 4.57781L13.0801 6.06704L15.2451 4.81704C15.4843 4.67897 15.7901 4.7609 15.9282 5.00005C16.0662 5.2392 15.9843 5.54499 15.7451 5.68306L13.5801 6.93306L14.9595 7.52229C15.2134 7.63077 15.3314 7.92457 15.2229 8.17851C15.1144 8.43246 14.8206 8.55038 14.5667 8.44191L12.4975 7.55806L10 9.00001L12.5079 10.4479L14.6929 9.61332C14.9509 9.51478 15.2399 9.64402 15.3384 9.90198C15.4369 10.1599 15.3077 10.4489 15.0497 10.5475L13.6238 11.0922L15.7451 12.3169C15.9843 12.455 16.0662 12.7608 15.9281 12.9999C15.79 13.2391 15.4843 13.321 15.2451 13.183L13.1238 11.9582L13.365 13.4655C13.4087 13.7381 13.223 13.9946 12.9503 14.0382C12.6777 14.0819 12.4212 13.8962 12.3776 13.6235L12.0079 11.314L9.49995 9.86599V12.762L11.3152 14.2369C11.5296 14.4111 11.5621 14.726 11.388 14.9403C11.2139 15.1546 10.899 15.1872 10.6847 15.0131L9.49995 14.0505V16.5C9.49995 16.7761 9.27609 17 8.99995 17C8.7238 17 8.49995 16.7761 8.49995 16.5V14.0505L7.31524 15.0131C7.10093 15.1872 6.78602 15.1546 6.61189 14.9403C6.43776 14.726 6.47033 14.4111 6.68465 14.2369L8.49995 12.762V9.86608L5.99195 11.3141L5.62227 13.6236C5.57863 13.8963 5.3222 14.082 5.04953 14.0383C4.77686 13.9947 4.5912 13.7382 4.63484 13.4656L4.8761 11.9583L2.75476 13.1831C2.51561 13.3211 2.20982 13.2392 2.07175 13C1.93368 12.7609 2.01561 12.4551 2.25476 12.317L4.3761 11.0923L2.95014 10.5476C2.69218 10.449 2.56294 10.16 2.66148 9.90208C2.76001 9.64412 3.04901 9.51488 3.30698 9.61342L5.49195 10.448L8.00002 9.00001L5.50232 7.55796L3.43318 8.44181C3.17924 8.55028 2.88544 8.43236 2.77697 8.17841C2.66849 7.92447 2.78642 7.63067 3.04036 7.52219L4.41979 6.93296L2.25472 5.68296C2.01558 5.54489 1.93364 5.2391 2.07171 4.99995C2.20978 4.7608 2.51558 4.67887 2.75472 4.81694L4.91979 6.06694L4.74036 4.57771C4.70733 4.30355 4.90281 4.05452 5.17697 4.02149C5.45113 3.98846 5.70015 4.18393 5.73318 4.45809L6.00232 6.69194L8.49995 8.13394V5.25L6.69995 3.9C6.47903 3.73431 6.43426 3.42091 6.59995 3.2C6.76563 2.97909 7.07903 2.93431 7.29995 3.1L8.49995 4V1.5C8.49995 1.22386 8.7238 1 8.99995 1Z" fill="#2B2B2C"/>
</svg>
