<svg width="30" height="30" viewBox="0 0 30 30" fill="none" xmlns="http://www.w3.org/2000/svg">
<path fill-rule="evenodd" clip-rule="evenodd" d="M13 5.75C13 4.23122 14.2312 3 15.75 3C17.2688 3 18.5 4.23122 18.5 5.75C18.5 7.26878 17.2688 8.5 15.75 8.5C14.2312 8.5 13 7.26878 13 5.75ZM15.75 4C14.7835 4 14 4.7835 14 5.75C14 6.7165 14.7835 7.5 15.75 7.5C16.7165 7.5 17.5 6.7165 17.5 5.75C17.5 4.7835 16.7165 4 15.75 4Z" fill="#2B2B2C"/>
<path fill-rule="evenodd" clip-rule="evenodd" d="M8.2974 17.8228L11.2394 17.0873C13.0549 16.6334 14.8136 18.0066 14.8136 19.8779L14.8135 20.3341H15.8136C16.0897 20.3341 16.3136 20.558 16.3136 20.8341C16.3136 21.1103 16.0897 21.3341 15.8136 21.3341H14.3165L14.3133 21.3341L14.3104 21.3341H4.5C4.22386 21.3341 4 21.1103 4 20.8341C4 20.558 4.22386 20.3341 4.5 20.3341H5.255C5.08483 20.04 4.98743 19.6984 4.98743 19.3341C4.98743 18.2296 5.88286 17.3341 6.98743 17.3341C7.48847 17.3341 7.94648 17.5184 8.2974 17.8228ZM11.482 18.0574C12.6663 17.7614 13.8135 18.6571 13.8136 19.8778L13.8135 20.3341H8.71987C8.89004 20.04 8.98743 19.6984 8.98743 19.3341C8.98743 19.1148 8.95212 18.9037 8.88687 18.7062L11.482 18.0574ZM6.98743 18.3341C7.53972 18.3341 7.98743 18.7819 7.98743 19.3341C7.98743 19.8864 7.53972 20.3341 6.98743 20.3341C6.43515 20.3341 5.98743 19.8864 5.98743 19.3341C5.98743 18.7819 6.43515 18.3341 6.98743 18.3341Z" fill="#2B2B2C"/>
<path fill-rule="evenodd" clip-rule="evenodd" d="M19.0958 8.29909C20.2939 7.76657 21.7 8.25023 22.317 9.40715L25.2424 14.8922C25.4156 15.217 25.4958 15.5833 25.4742 15.9508L24.9991 24.0294L24.9991 24.0307C24.9652 24.5805 24.8253 25.1999 24.4276 25.6895C24.0118 26.2014 23.3732 26.5 22.5 26.5C21.621 26.5 20.9902 26.1905 20.5807 25.6755C20.1916 25.1862 20.052 24.5725 20.0022 24.0472L20.0011 24.0356L19.5153 17.2338C19.5106 17.1684 19.4931 17.1045 19.4638 17.0459L18.7342 15.5868L16.6969 16.4596C16.4431 16.5684 16.1492 16.4507 16.0405 16.1969C15.9317 15.9431 16.0493 15.6492 16.3032 15.5404L18.2862 14.6908L16.9886 12.0956C16.3512 10.8208 16.9069 9.27192 18.2093 8.69306L19.0958 8.29909ZM20.259 16.4003L19.655 15.1924L20.339 14.8993C20.74 14.7275 21.0001 14.3332 21.0001 13.8969L21.0001 10.5C21.0001 10.2239 20.7762 10 20.5001 10C20.2239 10 20.0001 10.2239 20.0001 10.5L20.0001 13.8969C20.0001 13.9331 19.9785 13.9659 19.9452 13.9801L19.207 14.2964L17.883 11.6484C17.5006 10.8835 17.834 9.95419 18.6155 9.60687L19.5019 9.2129C20.2208 8.89339 21.0644 9.18358 21.4346 9.87774L24.2714 15.1966L20.259 16.4003ZM24.4587 16.1844L20.5271 17.3639L20.9983 23.9584C21.041 24.4023 21.1513 24.7865 21.3634 25.0532C21.5559 25.2952 21.879 25.5 22.5 25.5C23.1268 25.5 23.4575 25.2977 23.6514 25.059C23.8632 24.7983 23.9732 24.418 24.0009 23.9699L24.4587 16.1844Z" fill="#2B2B2C"/>
</svg>
