<svg width="18" height="18" viewBox="0 0 18 18" fill="none" xmlns="http://www.w3.org/2000/svg">
<path fill-rule="evenodd" clip-rule="evenodd" d="M8.99994 11.5V11.3263C8.99994 10.0789 7.80598 9.17827 6.60657 9.52096L5.07855 9.95753C4.80581 9.67542 4.42339 9.5 4 9.5C3.17157 9.5 2.5 10.1716 2.5 11C2.5 11.1753 2.53008 11.3436 2.58535 11.5H2.5C2.22386 11.5 2 11.7239 2 12C2 12.2761 2.22386 12.5 2.5 12.5H3.99915H4.00085H9C9.27614 12.5 9.5 12.2761 9.5 12C9.5 11.7239 9.27608 11.5 8.99994 11.5ZM4.00049 11.5C3.72458 11.4997 3.5 11.276 3.5 11C3.5 10.7239 3.72386 10.5 4 10.5C4.27614 10.5 4.5 10.7239 4.5 11C4.5 11.276 4.27641 11.4997 4.00049 11.5Z" fill="#2B2B2C"/>
<path fill-rule="evenodd" clip-rule="evenodd" d="M8 2.75C8 1.7835 8.7835 1 9.75 1C10.7165 1 11.5 1.7835 11.5 2.75C11.5 3.7165 10.7165 4.5 9.75 4.5C8.7835 4.5 8 3.7165 8 2.75Z" fill="#2B2B2C"/>
<path fill-rule="evenodd" clip-rule="evenodd" d="M13.9021 5.09439C13.6415 4.62525 13.2142 4.3815 12.767 4.31128C12.3338 4.24327 11.8837 4.33534 11.5051 4.5155C11.1277 4.69504 10.7738 4.98494 10.5671 5.36641C10.3504 5.76643 10.3074 6.25339 10.5569 6.73135C10.5598 6.73697 10.5628 6.74254 10.566 6.74805L11.523 8.42296L10.2745 9.05372C10.028 9.17825 9.92918 9.479 10.0537 9.72547C10.1782 9.97194 10.479 10.0708 10.7255 9.94627L12.0197 9.29237L12.5118 10.1536L12.9346 14.8036C12.9962 15.4812 13.5643 16 14.2447 16C14.9322 16 15.5037 15.4707 15.5564 14.7853L15.9754 9.338C15.998 9.04483 15.9339 8.7515 15.7911 8.49446L13.9021 5.09439ZM12.8578 8.74336L13.2229 9.38239L14.8098 8.7873L13.0279 5.58005C12.9362 5.41485 12.7964 5.32815 12.6118 5.29918C12.4133 5.268 12.167 5.30799 11.9347 5.4185C11.7012 5.52963 11.5297 5.689 11.4464 5.84275C11.3743 5.97584 11.3621 6.10799 11.4396 6.2614L11.9997 7.24163L11.9997 6.50002C11.9997 6.22388 12.2235 6.00001 12.4996 5.99999C12.7758 5.99998 12.9997 6.22382 12.9997 6.49997L12.9998 8.27163C12.9998 8.44268 12.9487 8.60601 12.8578 8.74336Z" fill="#2B2B2C"/>
</svg>
