<svg xmlns="http://www.w3.org/2000/svg" width="24" height="24" fill="none"><path fill="#2B2B2C" fill-rule="evenodd" d="M10.171 6.399a.5.5 0 0 1 .696.122l1.88 2.684c.454.109.862.362 1.185.716a3.38 3.38 0 0 1 6.61.986 3.376 3.376 0 0 1-1.628 2.89h1.454c.715 0 1.294.58 1.294 1.294v1.288c0 .715-.58 1.294-1.294 1.294H3.633c-.715 0-1.295-.58-1.295-1.294V15.09c0-.714.58-1.294 1.295-1.294h1.253a3.019 3.019 0 0 1-.62-1.86c0-1.542 1.092-2.791 2.44-2.791h4.779l-1.437-2.051a.5.5 0 0 1 .123-.696Zm6.993 6.886a2.378 2.378 0 1 1 0-4.757 2.378 2.378 0 0 1 0 4.757Zm-1.75.512a3.397 3.397 0 0 1-.91-.807c-.105.298-.255.57-.44.807h1.35Zm-7.252-.069v-3.582H6.705c-.672 0-1.439.67-1.439 1.791 0 1.12.767 1.791 1.44 1.791h1.456Z" clip-rule="evenodd"/></svg>