<svg width="24" height="24" viewBox="0 0 24 24" fill="none" xmlns="http://www.w3.org/2000/svg">
<path fill-rule="evenodd" clip-rule="evenodd" d="M11.9999 15.5V15.1744C11.9999 13.7232 10.6508 12.6487 9.23636 12.9735L6.9687 13.4942C6.6536 13.1883 6.22376 13 5.74994 13C4.78344 13 3.99994 13.7835 3.99994 14.75C3.99994 15.0184 4.06036 15.2727 4.16835 15.5H3.49988C3.22374 15.5 2.99988 15.7239 2.99988 16C2.99988 16.2761 3.22374 16.5 3.49988 16.5H11.4985L11.4999 16.5L11.5013 16.5H12.4999C12.776 16.5 12.9999 16.2761 12.9999 16C12.9999 15.7239 12.776 15.5 12.4999 15.5H11.9999ZM5.74994 15.5C6.16415 15.5 6.49994 15.1642 6.49994 14.75C6.49994 14.3358 6.16415 14 5.74994 14C5.33573 14 4.99994 14.3358 4.99994 14.75C4.99994 15.1642 5.33573 15.5 5.74994 15.5Z" fill="#2B2B2C"/>
<path fill-rule="evenodd" clip-rule="evenodd" d="M20.6868 11.769L18.3474 7.21417C17.8408 6.22785 16.6286 5.84185 15.645 6.35372L14.7572 6.81574C13.7832 7.32262 13.4 8.51998 13.8987 9.49821L15.0619 11.7797L13.7426 12.5713C13.5058 12.7133 13.429 13.0205 13.5711 13.2573C13.7132 13.494 14.0203 13.5708 14.2571 13.4288L15.5171 12.6727L15.9651 13.5514C15.9947 13.6094 16.0126 13.6726 16.018 13.7375L16.4696 19.2326C16.5555 20.2783 17.4293 21.0833 18.4786 21.0833C19.5323 21.0833 20.4083 20.2717 20.4885 19.221L20.9557 13.1014C20.9908 12.641 20.8977 12.1798 20.6868 11.769ZM16.3767 12.157L16.7648 12.9184L19.7674 12.1677L17.4578 7.67101C17.2046 7.17784 16.5984 6.98485 16.1066 7.24078L15.2189 7.7028C14.7319 7.95624 14.5403 8.5549 14.7896 9.04401L15.9214 11.264L15.9999 11.2169L15.9999 8.50001C15.9999 8.22386 16.2237 8 16.4999 8C16.776 8 16.9999 8.22385 16.9999 8.49999L16.9999 11.2325C16.9999 11.5741 16.8207 11.8906 16.5278 12.0664L16.3767 12.157Z" fill="#2B2B2C"/>
<path fill-rule="evenodd" clip-rule="evenodd" d="M10.9999 4.25C10.9999 3.00736 12.0073 2 13.2499 2C14.4926 2 15.4999 3.00736 15.4999 4.25C15.4999 5.49264 14.4926 6.5 13.2499 6.5C12.0073 6.5 10.9999 5.49264 10.9999 4.25Z" fill="#2B2B2C"/>
</svg>
