<svg xmlns="http://www.w3.org/2000/svg" width="30" height="30" fill="none"><path fill="#2B2B2C" fill-rule="evenodd" d="M12.611 8.136a.5.5 0 0 1 .697.122l2.285 3.264c.702.094 1.33.466 1.8 1.019a4.225 4.225 0 0 1 8.285 1.158c0 1.653-.95 3.085-2.333 3.778h2.115c.893 0 1.618.724 1.618 1.618v1.378c0 .894-.725 1.618-1.618 1.618H4.54a1.618 1.618 0 0 1-1.618-1.618v-1.378c0-.894.725-1.618 1.618-1.618h1.723c-.558-.633-.904-1.515-.904-2.49 0-1.927 1.352-3.489 3.02-3.489h5.976l-1.867-2.666a.5.5 0 0 1 .122-.696Zm-2.41 4.362v4.978H8.38c-.985 0-2.02-.973-2.02-2.489 0-1.515 1.035-2.489 2.02-2.489h1.822Zm11.255 4.424a3.223 3.223 0 1 1 0-6.446 3.223 3.223 0 0 1 0 6.446Zm-1.89.555a4.242 4.242 0 0 1-1.5-1.258c-.156.478-.4.906-.71 1.258h2.21Z" clip-rule="evenodd"/></svg>