<svg xmlns="http://www.w3.org/2000/svg" width="19" height="18" fill="none"><path fill="#2B2B2C" fill-rule="evenodd" d="M7.912 4.78a.5.5 0 0 1 .696.123l1.194 1.706c.014.02.026.04.036.06.327.048.626.198.874.422a2.533 2.533 0 1 1 4.23 2.762h.7a1 1 0 0 1 1 1v1.37a1 1 0 0 1-1 1H3.15a1 1 0 0 1-1-1v-1.37a1 1 0 0 1 1-1h.845a2.341 2.341 0 0 1-.272-1.108c0-1.156.805-2.093 1.8-2.093h3.09l-.823-1.176a.5.5 0 0 1 .123-.696Zm5.024 5.059a1.534 1.534 0 1 1 0-3.067 1.534 1.534 0 0 1 0 3.067Zm-6.537 0V7.652h-.878c-.305 0-.8.342-.8 1.093 0 .752.495 1.094.8 1.094H6.4Z" clip-rule="evenodd"/></svg>