<svg xmlns="http://www.w3.org/2000/svg" width="25" height="24" fill="none"><path fill="#2B2B2C" fill-rule="evenodd" d="M11.367 6.521a.5.5 0 0 0-.82.574l1.437 2.051h-4.78c-1.346 0-2.438 1.25-2.438 2.791 0 .715.234 1.366.62 1.86H4.133c-.715 0-1.295.58-1.295 1.294v1.288c0 .715.58 1.294 1.295 1.294h16.734c.715 0 1.295-.58 1.295-1.294V15.09c0-.714-.58-1.294-1.295-1.294h-1.453a3.378 3.378 0 1 0-4.982-3.876 2.351 2.351 0 0 0-1.186-.716L11.367 6.52Zm3.919 4.386a2.378 2.378 0 1 0 4.756 0 2.378 2.378 0 0 0-4.756 0Zm-.281 2.083c.251.32.56.595.91.807h-1.351a2.88 2.88 0 0 0 .44-.807Zm-6.4-2.844h-1.4c-.673 0-1.44.67-1.44 1.791 0 1.12.767 1.791 1.44 1.791h1.4v-3.582Zm1 0h3.14c.673 0 1.439.67 1.439 1.791 0 1.12-.766 1.791-1.439 1.791h-3.14v-3.582Zm11.262 4.651H4.132a.295.295 0 0 0-.294.294v1.288c0 .162.132.294.295.294h16.734a.295.295 0 0 0 .295-.294V15.09a.295.295 0 0 0-.295-.294Z" clip-rule="evenodd"/></svg>