<svg xmlns="http://www.w3.org/2000/svg" width="19" height="18" fill="none"><path fill="#2B2B2C" fill-rule="evenodd" d="M8.712 4.903a.5.5 0 0 0-.819.573l.823 1.176h-3.09c-.994 0-1.8.937-1.8 2.093 0 .407.1.787.272 1.108h-.844a1 1 0 0 0-1 1v1.37a1 1 0 0 0 1 1h12.493a1 1 0 0 0 1-1v-1.37a1 1 0 0 0-1-1h-.7a2.534 2.534 0 1 0-4.23-2.762 1.667 1.667 0 0 0-.874-.422.504.504 0 0 0-.036-.06L8.712 4.903Zm2.795 3.402a1.534 1.534 0 1 0 3.067 0 1.534 1.534 0 0 0-3.067 0Zm-5.052-.653h-.83c-.305 0-.799.342-.799 1.093 0 .752.494 1.094.8 1.094h.829V7.652Zm1 2.187V7.652h2.259c.305 0 .8.342.8 1.093 0 .752-.495 1.094-.8 1.094h-2.26Zm8.292 1.014H3.254v1.37h12.493v-1.37Z" clip-rule="evenodd"/></svg>