<svg width="18" height="18" viewBox="0 0 18 18" fill="none" xmlns="http://www.w3.org/2000/svg">
<path fill-rule="evenodd" clip-rule="evenodd" d="M3 4C3 3.72386 3.22386 3.5 3.5 3.5H8C8.27614 3.5 8.5 3.72386 8.5 4V5H9C9.27614 5 9.5 5.22386 9.5 5.5V7.5C9.5 7.77614 9.27614 8 9 8H8.93372L7.99504 14.5708C7.95985 14.8171 7.74889 15.0001 7.50006 15.0001H4.00006C3.75124 15.0001 3.54028 14.8171 3.50509 14.5708L2.56641 8H2.5C2.22386 8 2 7.77614 2 7.5V5.5C2 5.22386 2.22386 5 2.5 5H3V4ZM4 5H7.5V4.5H4V5ZM3.57656 8L4.43371 14.0001H7.06642L7.92357 8H3.57656ZM3.00069 7H8.49944H8.5V6H3V7H3.00069Z" fill="#2B2B2C"/>
<path fill-rule="evenodd" clip-rule="evenodd" d="M10.5193 10.4314L10.7875 10.2973C11.2504 10.0658 11.8018 10.1002 12.2323 10.3872C12.6973 10.6972 13.303 10.6972 13.7679 10.3872C14.1985 10.1002 14.7498 10.0658 15.2127 10.2973L15.4808 10.4313C15.3558 9.75461 15.1329 9.16248 14.7736 8.73702C14.4064 8.30213 13.8628 8 13.0001 8C12.1374 8 11.5938 8.30213 11.2266 8.73702C10.8673 9.16248 10.6444 9.75462 10.5193 10.4314ZM11.046 11.2861L11.4337 14.0001H14.5664L14.9541 11.286L14.7655 11.1917C14.6236 11.1207 14.4546 11.1313 14.3226 11.2193C13.5218 11.7531 12.4785 11.7531 11.6776 11.2193C11.5456 11.1313 11.3766 11.1207 11.2347 11.1917L11.046 11.2861ZM9.80476 11.2608C9.88222 11.326 9.96684 11.3756 10.0539 11.4122L10.5051 14.5708C10.5403 14.8171 10.7512 15.0001 11.0001 15.0001H15.0001C15.2489 15.0001 15.4598 14.8171 15.495 14.5708L15.9568 11.3382C15.9791 11.3252 16.0019 11.3111 16.0249 11.296C16.186 11.19 16.5001 10.9345 16.5001 10.5C16.5001 10.4733 16.498 10.4467 16.4937 10.4204C16.361 9.59724 16.0894 8.74519 15.5377 8.09183C14.9679 7.4171 14.1374 7 13.0001 7C11.8628 7 11.0323 7.4171 10.4625 8.09183C9.9108 8.74519 9.63924 9.59724 9.50648 10.4204C9.45169 10.7601 9.56892 11.0623 9.80476 11.2608Z" fill="#2B2B2C"/>
</svg>
