<svg width="24" height="24" viewBox="0 0 24 24" fill="none" xmlns="http://www.w3.org/2000/svg">
<path fill-rule="evenodd" clip-rule="evenodd" d="M7 3C6.83797 3 6.68597 3.07852 6.59221 3.21068C6.49845 3.34284 6.47455 3.51223 6.52807 3.66518L10.0281 13.6652C10.0983 13.8657 10.2875 14 10.5 14H17.5C17.7761 14 18 13.7761 18 13.5V11.595C18 10.713 17.2426 10.0213 16.3642 10.1012L12.3343 10.4675L11.124 7.24007C11.098 7.17054 11.1149 7.09218 11.1674 7.03967L11.3714 6.83567C12.3688 5.83826 12.2516 4.18871 11.1232 3.34238C10.8269 3.12014 10.4664 3 10.096 3H7ZM10.8547 13L7.70474 4H10.096C10.2501 4 10.4 4.04996 10.5232 4.14238C11.1648 4.62358 11.2314 5.56147 10.6643 6.12856L10.4603 6.33257C10.1305 6.66236 10.0239 7.15448 10.1877 7.59119L11.5318 11.1756C11.6109 11.3864 11.8211 11.5183 12.0453 11.4979L16.4547 11.0971C16.7475 11.0705 17 11.301 17 11.595V13H10.8547ZM12.5 15.9999H8.64527L5.02809 5.66507C4.93686 5.40443 5.0742 5.11919 5.33484 5.02796C5.59548 4.93674 5.88072 5.07408 5.97194 5.33472L9.35475 14.9999H16.5C16.7762 14.9999 17 15.2238 17 15.4999C17 15.776 16.7762 15.9999 16.5 15.9999H13.5V20H16C16.2761 20 16.5 20.2239 16.5 20.5C16.5 20.7761 16.2761 21 16 21H10C9.72386 21 9.5 20.7761 9.5 20.5C9.5 20.2239 9.72386 20 10 20H12.5V15.9999Z" fill="#2B2B2C"/>
</svg>
