<svg width="30" height="30" viewBox="0 0 30 30" fill="none" xmlns="http://www.w3.org/2000/svg">
<path fill-rule="evenodd" clip-rule="evenodd" d="M8.49999 4C8.33717 4 8.18454 4.07928 8.09092 4.21249C7.99729 4.34571 7.97439 4.51616 8.02954 4.66936L12.5295 17.1694C12.601 17.3677 12.7891 17.5 13 17.5H22C22.2761 17.5 22.5 17.2761 22.5 17V14.4413C22.5 13.3763 21.5568 12.5582 20.5025 12.7089L15.3312 13.4476L13.6391 8.7946C13.6023 8.6932 13.6275 8.57962 13.7038 8.50333L13.7863 8.42078C14.8471 7.35996 14.8471 5.64004 13.7863 4.57922C13.4154 4.20835 12.9124 4 12.3879 4H8.49999ZM13.3514 16.5L9.2114 5H12.3879C12.6472 5 12.8959 5.103 13.0792 5.28633C13.7495 5.95662 13.7495 7.04338 13.0792 7.71367L12.9967 7.79622C12.6456 8.14724 12.5297 8.66981 12.6994 9.13635L14.5301 14.1709C14.6109 14.3932 14.8365 14.5284 15.0707 14.495L20.6439 13.6988C21.0957 13.6343 21.5 13.9848 21.5 14.4413V16.5H13.3514ZM15 19.9999H10.644L6.0275 6.66345C5.93717 6.4025 6.07549 6.11773 6.33644 6.0274C6.59739 5.93707 6.88215 6.07539 6.97248 6.33634L11.356 18.9999H20.5C20.7761 18.9999 21 19.2238 21 19.4999C21 19.776 20.7761 19.9999 20.5 19.9999H16V25H20C20.2761 25 20.5 25.2239 20.5 25.5C20.5 25.7761 20.2761 26 20 26H11.25C10.9738 26 10.75 25.7761 10.75 25.5C10.75 25.2239 10.9738 25 11.25 25H15V19.9999Z" fill="#2B2B2C"/>
</svg>
