<svg xmlns="http://www.w3.org/2000/svg" width="30" height="30" fill="none"><path fill="#2B2B2C" fill-rule="evenodd" d="M19.195 26.622a1.21 1.21 0 0 1-1.2-1.362l1.144-8.99c-.195 0-.405-.025-.62-.078-1.193-.295-2.552-1.433-2.553-3.707v-3.34c0-2.775 2.378-5.383 6.74-5.729a12.65 12.65 0 0 1 1-.038v22.035a1.21 1.21 0 0 1-1.21 1.21h-3.3Zm-.056-11.351c-.76 0-2.172-.687-2.173-2.786v-3.34c0-2.08 1.794-4.392 5.74-4.726v10.854h-2.431v-.002h-1.136Zm-.148 10.091-.003.024a.21.21 0 0 0 .204.236 1.215 1.215 0 0 1-.201-.26Z" clip-rule="evenodd"/><path fill="#2B2B2C" d="M11.116 3.976a.5.5 0 0 0-1 0v4.361a.5.5 0 1 0 1 0v-4.36ZM8.419 3.476a.5.5 0 0 1 .5.5v4.361a.5.5 0 1 1-1 0v-4.36a.5.5 0 0 1 .5-.5Z"/><path fill="#2B2B2C" d="M6.794 3.976a.5.5 0 0 0-1 0v5.806c0 .842.352 1.54.791 2.057.33.389.72.69 1.083.895L6.539 25.08a1.273 1.273 0 0 0 1.268 1.389h3.38c.747 0 1.334-.642 1.268-1.387L11.35 12.735a4.103 4.103 0 0 0 1.09-.894c.443-.517.8-1.215.8-2.06V3.977a.5.5 0 1 0-1 0v5.806c0 .547-.23 1.023-.56 1.408-.334.39-.749.66-1.051.786l-.214.09a2.877 2.877 0 0 1-1.797.006l-.229-.096a2.935 2.935 0 0 1-1.041-.784c-.326-.384-.554-.86-.554-1.41V3.976Z"/></svg>