<svg width="24" height="24" viewBox="0 0 24 24" fill="none" xmlns="http://www.w3.org/2000/svg">
<path fill-rule="evenodd" clip-rule="evenodd" d="M6 3C5.72386 3 5.5 3.22386 5.5 3.5V5.95721L3.00727 20.415C2.98222 20.5604 3.02259 20.7093 3.11759 20.8221C3.2126 20.9349 3.35254 21 3.5 21H20C20.2761 21 20.5 20.7761 20.5 20.5V17.5C20.5 17.2239 20.2761 17 20 17H16.1589C16.6956 16.6431 17.1108 16.118 17.3293 15.5H17.75C18.7165 15.5 19.5 14.7165 19.5 13.75C19.5 12.7835 18.7165 12 17.75 12H17.5V11.5C17.5 11.2239 17.2761 11 17 11H15V8.5H14V11H12C11.7239 11 11.5 11.2239 11.5 11.5V14.5C11.5 15.5435 12.0328 16.4625 12.8411 17H9V6H11.6615L12.5358 8.1856C12.6117 8.37543 12.7956 8.4999 13 8.4999H16C16.2045 8.4999 16.3883 8.37543 16.4642 8.1856L17.3385 6H19C19.8284 6 20.5 5.32843 20.5 4.5C20.5 3.67157 19.8284 3 19 3H6ZM17.5 13V14.5H17.75C18.1642 14.5 18.5 14.1642 18.5 13.75C18.5 13.3358 18.1642 13 17.75 13H17.5ZM16.2614 6H12.7386L13.3385 7.4999H15.6615L16.2614 6ZM6.49273 6.08495C6.49757 6.05689 6.5 6.02847 6.5 6H8V17.5C8 17.7761 8.22386 18 8.5 18H19.5V20H4.09359L6.49273 6.08495ZM19 5H6.5V4H19C19.2761 4 19.5 4.22386 19.5 4.5C19.5 4.77614 19.2761 5 19 5ZM12.5 12V14.5C12.5 15.6046 13.3954 16.5 14.5 16.5C15.6046 16.5 16.5 15.6046 16.5 14.5V12H12.5ZM6.5 19C6.77614 19 7 18.7761 7 18.5C7 18.2239 6.77614 18 6.5 18C6.22386 18 6 18.2239 6 18.5C6 18.7761 6.22386 19 6.5 19Z" fill="#2B2B2C"/>
</svg>
