<svg width="30" height="30" viewBox="0 0 30 30" fill="none" xmlns="http://www.w3.org/2000/svg">
<path fill-rule="evenodd" clip-rule="evenodd" d="M7.5 4C7.22386 4 7 4.22386 7 4.5V6.95972L4.00645 25.42C3.98299 25.5647 4.0242 25.7124 4.1192 25.824C4.2142 25.9357 4.35341 26 4.5 26H25.5C25.7761 26 26 25.7761 26 25.5V22C26 21.7239 25.7761 21.5 25.5 21.5H19.3038C20.1847 20.9692 20.8127 20.0614 20.9646 19H21.5C22.6046 19 23.5 18.1046 23.5 17C23.5 15.8954 22.6046 15 21.5 15H21V14.5C21 14.2239 20.7761 14 20.5 14H18V10.5H19C19.1894 10.5 19.3625 10.393 19.4472 10.2236L20.809 7.5H24.25C25.2165 7.5 26 6.7165 26 5.75C26 4.7835 25.2165 4 24.25 4H7.5ZM17 10.5V14H14.5C14.2239 14 14 14.2239 14 14.5V18.5C14 19.7732 14.6798 20.8876 15.6962 21.5H11V7.5H14.191L15.5528 10.2236C15.6375 10.393 15.8106 10.5 16 10.5H17ZM21 16V18H21.5C22.0523 18 22.5 17.5523 22.5 17C22.5 16.4477 22.0523 16 21.5 16H21ZM19.691 7.5H15.309L16.309 9.49997H18.691L19.691 7.5ZM5.08762 25L7.92545 7.5H10V22C10 22.2761 10.2239 22.5 10.5 22.5H25V25H5.08762ZM24.25 6.5H8V5H24.25C24.6642 5 25 5.33579 25 5.75C25 6.16421 24.6642 6.5 24.25 6.5ZM15 15V18.5C15 19.8807 16.1193 21 17.5 21C18.8807 21 20 19.8807 20 18.5V15H15ZM8 24C8.41421 24 8.75 23.6642 8.75 23.25C8.75 22.8358 8.41421 22.5 8 22.5C7.58579 22.5 7.25 22.8358 7.25 23.25C7.25 23.6642 7.58579 24 8 24Z" fill="#2B2B2C"/>
</svg>
