<svg xmlns="http://www.w3.org/2000/svg" width="24" height="24" fill="none"><path fill="#2B2B2C" d="M9.009 3.181a.515.515 0 0 0-1.031 0V6.67a.515.515 0 0 0 1.03 0V3.18ZM6.735 2.666c.285 0 .515.23.515.515V6.67a.515.515 0 1 1-1.03 0V3.18c0-.285.23-.515.515-.515Z"/><path fill="#2B2B2C" d="M5.035 2.666c.285 0 .516.23.516.515v4.645c0 .406.167.761.415 1.053.252.297.565.502.79.595l.089.037a2.263 2.263 0 0 0 1.545-.009l.068-.028c.226-.094.543-.3.799-.597.25-.293.42-.647.42-1.051V3.18a.515.515 0 1 1 1.031 0v4.645c0 .71-.301 1.293-.669 1.722a3.404 3.404 0 0 1-.838.703l.878 9.805a1.134 1.134 0 0 1-1.13 1.235H6.246c-.667 0-1.19-.572-1.13-1.237l.896-9.804a3.36 3.36 0 0 1-.832-.704c-.365-.43-.66-1.013-.66-1.72V3.18c0-.284.23-.515.515-.515Z"/><path fill="#2B2B2C" fill-rule="evenodd" d="M15.356 21.298a.968.968 0 0 1-.96-1.09l.916-7.191c-.157 0-.325-.02-.497-.063-.954-.236-2.041-1.146-2.042-2.966V7.316c0-2.17 1.819-4.213 5.16-4.562a9.936 9.936 0 0 1 1.032-.052V20.33a.967.967 0 0 1-.968.968h-2.64Zm-.044-9.312c-.489 0-1.507-.454-1.508-1.998V7.316c0-1.465 1.236-3.194 4.13-3.526v8.199h-1.452v-.003h-1.17Z" clip-rule="evenodd"/></svg>