<svg xmlns="http://www.w3.org/2000/svg" width="19" height="19" fill="none"><path fill="#2B2B2C" fill-rule="evenodd" d="M11.242 15.914a.703.703 0 0 0 .697.792h2.212a.703.703 0 0 0 .703-.703V3.192c-.348 0-.682.023-1 .067-2.33.323-3.792 1.76-3.792 3.286v1.942c0 1.322.79 1.983 1.484 2.155.125.03.247.046.36.046l-.664 5.226Zm-.18-7.428c0 .527.177.812.338.967a.799.799 0 0 0 .507.235h1.135l-.766 6.018h1.578V4.266c-1.937.305-2.792 1.478-2.792 2.279v1.941ZM4.438 3.04a.5.5 0 0 1 .5.5v3.375c0 .55.418.951.744 1.078l.347.136-.634 7.697h2.057L6.77 8.13l.35-.136c.157-.061.373-.198.545-.397.168-.195.274-.424.274-.681V3.54a.5.5 0 0 1 1 0v3.375c0 .552-.232 1.005-.517 1.335-.18.207-.387.375-.593.501l.625 7.042a.95.95 0 0 1-.946 1.033H5.34a.95.95 0 0 1-.946-1.027l.58-7.051c-.516-.33-1.036-.961-1.036-1.833V3.54a.5.5 0 0 1 .5-.5Z" clip-rule="evenodd"/><path fill="#2B2B2C" fill-rule="evenodd" d="M6.438 3.04a.5.5 0 0 1 .5.5v2.535a.5.5 0 1 1-1 0V3.54a.5.5 0 0 1 .5-.5Z" clip-rule="evenodd"/></svg>