<svg xmlns="http://www.w3.org/2000/svg" width="19" height="18" fill="none"><path fill="#2B2B2C" d="M6.606 2.386a.5.5 0 0 0-1 0v2.616a.5.5 0 0 0 1 0V2.386Z"/><path fill="#2B2B2C" d="M4.672 2.386a.5.5 0 0 0-1 0v3.483a2.1 2.1 0 0 0 .522 1.364c.18.212.388.385.591.514L4.12 15.03a.964.964 0 0 0 .96 1.052h2.027a.964.964 0 0 0 .96-1.05l-.652-7.284c.204-.128.414-.3.596-.513.289-.337.529-.8.529-1.366V2.386a.5.5 0 1 0-1 0v3.483c0 .27-.113.51-.288.715-.18.21-.403.353-.556.417l-.036.015a1.703 1.703 0 0 1-1.104.006l-.05-.02a1.562 1.562 0 0 1-.55-.416 1.102 1.102 0 0 1-.284-.717V2.386Z"/><path fill="#2B2B2C" fill-rule="evenodd" d="M11.194 15.156a.726.726 0 0 0 .72.817h1.98c.4 0 .726-.325.726-.725V2.027c-.352 0-.686.023-1 .066-2.362.328-3.644 1.816-3.644 3.394v2.004c0 1.365.816 2.047 1.531 2.224.13.032.255.048.373.048l-.687 5.393Zm-.218-7.665c0 .551.186.854.358 1.02a.856.856 0 0 0 .546.252h1.74V3.103c-1.902.305-2.644 1.475-2.644 2.385v2.004Z" clip-rule="evenodd"/></svg>