<svg xmlns="http://www.w3.org/2000/svg" width="25" height="24" fill="none"><path fill="#2B2B2C" fill-rule="evenodd" d="M14.822 19.954a.937.937 0 0 0 .93 1.055h2.559c.518 0 .937-.42.937-.937V2.99c-.347 0-.68.018-.999.051-3.238.338-5 2.317-5 4.42v2.59c0 1.763 1.054 2.644 1.978 2.873.167.041.33.061.482.061l-.887 6.969Zm-.575-9.904c.001 1.496.988 1.936 1.462 1.936h1.134l-1.021 8.024h2.427V4.045c-2.804.322-4.002 1.997-4.002 3.417v2.59ZM5.751 2.955a.5.5 0 0 1 .5.5v4.5c0 .397.16.742.394 1.024.24.287.537.484.752.573l.338.141-.912 10.202a.1.1 0 0 0 .1.11l2.617-.001a.1.1 0 0 0 .1-.11l-.966-10.2.34-.142c.224-.093.547-.296.808-.587.257-.287.427-.628.427-1.01v-4.5a.5.5 0 1 1 .999 0v4.5c0 .696-.313 1.265-.682 1.677a3.477 3.477 0 0 1-.83.674l.898 9.495a1.099 1.099 0 0 1-1.094 1.202H6.923a1.099 1.099 0 0 1-1.095-1.197l.85-9.502a3.193 3.193 0 0 1-.8-.685c-.348-.418-.627-.982-.627-1.664v-4.5a.5.5 0 0 1 .5-.5Z" clip-rule="evenodd"/><path fill="#2B2B2C" fill-rule="evenodd" d="M7.403 2.955a.5.5 0 0 1 .5.5v3.38a.5.5 0 0 1-1 0v-3.38a.5.5 0 0 1 .5-.5ZM9.106 2.955a.5.5 0 0 1 .5.5v3.38a.5.5 0 0 1-1 0v-3.38a.5.5 0 0 1 .5-.5Z" clip-rule="evenodd"/></svg>