<svg width="24" height="24" viewBox="0 0 24 24" fill="none" xmlns="http://www.w3.org/2000/svg">
<path fill-rule="evenodd" clip-rule="evenodd" d="M9.82555 4.31791C9.6733 4.21641 9.47056 4.23648 9.34117 4.36588L8.49999 5.20705L7.65882 4.36588C7.52942 4.23648 7.32669 4.21641 7.17443 4.31791C6.97287 4.45229 6.94463 4.73748 7.11592 4.90877L8.49999 6.29284L9.88406 4.90877C10.0554 4.73748 10.0271 4.45229 9.82555 4.31791ZM8.63406 3.65877C9.10052 3.19231 9.83138 3.11994 10.3803 3.48586C11.1069 3.97028 11.2087 4.99837 10.5912 5.61588L8.49999 7.70705L6.40882 5.61588C5.7913 4.99836 5.8931 3.97028 6.61973 3.48586C7.16861 3.11994 7.89947 3.19231 8.36592 3.65877L8.49999 3.79284L8.63406 3.65877ZM5.55408 8.04047C4.64625 7.35959 3.34872 7.61376 2.76487 8.58684C2.23931 9.46279 2.49437 10.5971 3.34433 11.1637L3.45374 11.2367L3.28672 12.2388C3.09284 13.4021 3.07905 14.5883 3.24583 15.7557L3.46976 17.3232L3.14654 17.6464C2.39899 18.394 2.39899 19.606 3.14653 20.3535C3.89408 21.1011 5.10609 21.1011 5.85364 20.3535L6.18966 20.0175L7.80629 20.1522C10.5973 20.3848 13.4029 20.3848 16.1939 20.1522L17.8105 20.0175L18.1465 20.3535C18.8941 21.1011 20.1061 21.1011 20.8536 20.3535C21.6012 19.606 21.6012 18.394 20.8536 17.6464L20.5304 17.3232L20.6887 16.2153C20.899 14.7432 20.8816 13.2476 20.6371 11.7809L20.5464 11.2367L20.6558 11.1637C21.5058 10.5971 21.7609 9.46279 21.2353 8.58684C20.6515 7.61376 19.3539 7.35959 18.4461 8.04047L17.8334 8.49998H17.1232C17.5495 7.7603 17.3787 6.78401 16.6587 6.24399C15.9669 5.72521 14.999 5.794 14.3876 6.40539L14.0001 6.79295L13.6125 6.40539C13.0011 5.794 12.0332 5.72521 11.3415 6.24399C10.6215 6.78401 10.4507 7.7603 10.877 8.49998H6.16675L5.55408 8.04047ZM11.7929 9.49998H6.00009C5.8919 9.49998 5.78664 9.46489 5.70009 9.39998L4.95408 8.84047C4.52063 8.51538 3.90113 8.63674 3.62237 9.10134C3.37143 9.51956 3.49322 10.0611 3.89903 10.3317L4.27744 10.584C4.44115 10.6931 4.52563 10.8881 4.49328 11.0822L4.27312 12.4032C4.09609 13.4653 4.0835 14.5483 4.23578 15.6143L4.49506 17.4293C4.51732 17.5851 4.46492 17.7422 4.35364 17.8535L3.85364 18.3535C3.49662 18.7106 3.49662 19.2894 3.85364 19.6464C4.21066 20.0034 4.78951 20.0034 5.14653 19.6464L5.64653 19.1464C5.75053 19.0424 5.89504 18.9895 6.04161 19.0017L7.88934 19.1557C10.6251 19.3837 13.3751 19.3837 16.1108 19.1557L17.9586 19.0017C18.1051 18.9895 18.2496 19.0424 18.3536 19.1464L18.8536 19.6464C19.2107 20.0034 19.7895 20.0034 20.1465 19.6464C20.5036 19.2894 20.5036 18.7106 20.1465 18.3535L19.6465 17.8535C19.5353 17.7422 19.4829 17.5851 19.5051 17.4293L19.6987 16.0739C19.8945 14.7033 19.8783 13.3109 19.6507 11.9453L19.5069 11.0822C19.4745 10.8881 19.559 10.6931 19.7227 10.584L20.1011 10.3317C20.507 10.0611 20.6287 9.51956 20.3778 9.10134C20.099 8.63674 19.4795 8.51538 19.0461 8.84047L18.3001 9.39998C18.2135 9.46489 18.1083 9.49998 18.0001 9.49998H16.2073L14.0001 11.7072L11.7929 9.49998ZM6.99328 10.9179C6.94788 10.6455 6.69026 10.4615 6.41788 10.5069C6.14549 10.5523 5.96148 10.8099 6.00688 11.0823L6.25249 12.5559C6.41265 13.5169 6.42404 14.4968 6.28627 15.4612L6.0051 17.4294C5.96605 17.7027 6.156 17.956 6.42937 17.9951C6.70273 18.0341 6.956 17.8442 6.99505 17.5708L7.27622 15.6026C7.4285 14.5367 7.4159 13.4537 7.23888 12.3915L6.99328 10.9179ZM11.9415 7.04399C12.2351 6.8238 12.6459 6.85299 12.9054 7.11249L14.0001 8.20716L15.0947 7.11249C15.3542 6.853 15.7651 6.8238 16.0587 7.04399C16.4177 7.31325 16.455 7.83806 16.1376 8.15539L14.0001 10.2929L11.8625 8.15539C11.5452 7.83806 11.5825 7.31325 11.9415 7.04399Z" fill="#2B2B2C"/>
</svg>
