<svg width="24" height="24" viewBox="0 0 24 24" fill="none" xmlns="http://www.w3.org/2000/svg">
<path fill-rule="evenodd" clip-rule="evenodd" d="M9.47543 7.7962L11.4112 4.78499C11.5501 4.60166 11.7625 4.4406 12.0527 4.33484L12.9113 9.05719C12.4926 9.07556 11.9699 9.04806 11.4373 8.92535C10.6971 8.75481 9.97969 8.41105 9.47543 7.7962ZM8.91462 8.66857L7.40543 11.0162C9.97725 11.2226 12 13.3751 12 16C12 18.7614 9.76142 21 7 21C4.23858 21 2 18.7614 2 16C2 13.5163 3.81097 11.4555 6.1845 11.0662L10.5795 4.22954C10.5852 4.22059 10.5913 4.21182 10.5976 4.20326C11.3573 3.17253 12.8759 2.9315 14.6582 3.52558C15.6391 3.85255 16.6152 4.31553 17.308 4.64413L17.4331 4.70344C18.0873 5.01319 18.4048 5.70147 18.4629 6.30272C18.5363 7.06254 19.0101 8.22128 21.2463 9.3288C21.729 9.56786 21.9853 10.1803 21.6918 10.7061C21.326 11.3614 20.9121 11.9675 20.5265 12.477C19.7341 13.5244 18.3912 13.8521 17.1889 13.5242L15.9626 13.1898C15.958 13.2011 15.9528 13.2124 15.9473 13.2235C15.4995 14.119 15.0001 16.0255 15.0001 19.9999C15.0001 20.2761 14.7762 20.4999 14.5001 20.4999C14.2239 20.4999 14.0001 20.2761 14.0001 19.9999C14.0001 16.1455 14.459 14.0622 14.9828 12.9226L13.3685 12.4823C13.1021 12.4096 12.945 12.1348 13.0177 11.8684C13.0903 11.6019 13.3652 11.4449 13.6316 11.5175L17.452 12.5595C18.3269 12.7981 19.2224 12.5434 19.7291 11.8736C20.0909 11.3954 20.4747 10.8329 20.8114 10.2315C20.8093 10.2292 20.8065 10.2269 20.8025 10.2249C18.3407 9.00568 17.5823 7.58687 17.4675 6.39884C17.431 6.02051 17.2405 5.71867 17.0051 5.60724L16.8888 5.55213C16.189 5.22031 15.263 4.78129 14.3419 4.47427C13.8489 4.30991 13.4178 4.22821 13.0462 4.20868L13.992 9.41064C14.0159 9.54237 13.986 9.67819 13.909 9.78771C13.832 9.89722 13.7143 9.97127 13.5822 9.99328C13.0244 10.0863 12.1329 10.1118 11.2128 9.89982C10.4224 9.71773 9.57676 9.35169 8.91462 8.66857ZM7 20C9.20914 20 11 18.2091 11 16C11 13.7909 9.20914 12 7 12C4.79086 12 3 13.7909 3 16C3 18.2091 4.79086 20 7 20ZM9.35355 15.3536C9.54882 15.1583 9.54882 14.8417 9.35355 14.6464C9.15829 14.4512 8.84171 14.4512 8.64645 14.6464L6.5 16.7929L5.35355 15.6464C5.15829 15.4512 4.84171 15.4512 4.64645 15.6464C4.45118 15.8417 4.45118 16.1583 4.64645 16.3536L6.14645 17.8536C6.34171 18.0488 6.65829 18.0488 6.85355 17.8536L9.35355 15.3536Z" fill="#2B2B2C"/>
</svg>
