<svg width="18" height="18" viewBox="0 0 18 18" fill="none" xmlns="http://www.w3.org/2000/svg">
<path fill-rule="evenodd" clip-rule="evenodd" d="M4.69976 7.67474C2.63085 7.82826 1 9.5555 1 11.6636C1 13.8728 2.79086 15.6636 5 15.6636C7.20914 15.6636 9 13.8728 9 11.6636C9 9.7302 7.62824 8.11715 5.80488 7.74465L6.72303 6.09197C7.84974 7.1636 9.23214 7.29859 10.0822 7.15692C10.2135 7.13504 10.3306 7.06172 10.4077 6.9532C10.4847 6.84469 10.5153 6.70992 10.4927 6.57877L9.87582 3.0007C10.2113 2.99406 10.5447 3.03894 10.842 3.13804C11.5339 3.36869 12.1796 3.64911 12.6667 3.86069L12.7084 3.87881C12.833 3.93292 12.9735 4.11488 13.0341 4.40301C13.2308 5.33838 13.9906 6.46079 15.8024 7.38516C15.5624 7.76964 15.284 8.11909 15.0161 8.42013C14.6312 8.85264 13.9977 9.02271 13.3855 8.86966L10.6214 8.17863C10.3535 8.11166 10.082 8.27454 10.015 8.54243C9.94805 8.81033 10.1109 9.0818 10.3788 9.14877L11.35 9.39157C10.9587 10.3559 10.5001 12.0647 10.5001 14.6637C10.5001 14.9399 10.7239 15.1637 11.0001 15.1637C11.2762 15.1637 11.5001 14.9399 11.5001 14.6637C11.5001 12.0455 11.9873 10.4316 12.3314 9.63692L13.1429 9.8398C14.0642 10.0701 15.0972 9.83323 15.7631 9.08494C16.0884 8.71942 16.4434 8.27158 16.7434 7.76194C17.0184 7.29465 16.7819 6.75404 16.3645 6.54832C14.6579 5.70735 14.1335 4.77159 14.0126 4.19717C13.9213 3.76299 13.6591 3.20144 13.1067 2.96155L13.057 2.93995C12.5731 2.72978 11.8927 2.43421 11.1582 2.18936C10.4181 1.94267 9.56667 1.94616 8.82885 2.14719C8.10585 2.34419 7.39843 2.75933 7.05813 3.42967L4.69976 7.67474ZM6.85355 10.3101C7.04882 10.5053 7.04882 10.8219 6.85355 11.0172L4.85355 13.0172C4.65829 13.2125 4.34171 13.2125 4.14645 13.0172L3.14645 12.0172C2.95118 11.8219 2.95118 11.5053 3.14645 11.3101C3.34171 11.1148 3.65829 11.1148 3.85355 11.3101L4.5 11.9565L6.14645 10.3101C6.34171 10.1148 6.65829 10.1148 6.85355 10.3101Z" fill="#2B2B2C"/>
</svg>
