<svg xmlns="http://www.w3.org/2000/svg" width="24" height="25" fill="none"><path fill="#2B2B2C" d="M12.609 6.276c.261-1.685 1.533-2.887 2.84-2.684 1.306.203 2.154 1.734 1.892 3.419-.261 1.685-1.533 2.887-2.84 2.684-1.306-.202-2.153-1.733-1.892-3.419ZM12.023 10.883a.532.532 0 0 0-.051-.002c-2.26 0-3.926 1.057-5.013 2.508-1.075 1.438-1.586 3.261-1.586 4.855 0 .952.396 1.637 1.048 1.986.618.33 1.37.307 2.015.082.205-.071.403-.144.598-.216.903-.335 1.742-.646 2.938-.646a.5.5 0 0 0 .05-.002.5.5 0 0 0 .051.002c1.197 0 2.035.31 2.938.645.195.073.393.146.598.217.645.225 1.397.248 2.015-.082.652-.35 1.048-1.034 1.048-1.986 0-1.594-.51-3.418-1.586-4.854-1.086-1.452-2.752-2.51-5.012-2.51-.018 0-.035.002-.051.003ZM11.382 6.276c-.261-1.685-1.533-2.887-2.84-2.684-1.306.203-2.154 1.734-1.892 3.419.261 1.685 1.533 2.887 2.84 2.684 1.306-.202 2.154-1.733 1.892-3.419ZM17.918 9.169c.739-1.281 2.143-1.854 3.136-1.281.994.573 1.2 2.076.46 3.357-.74 1.28-2.144 1.854-3.137 1.28-.993-.573-1.199-2.076-.46-3.356ZM6.083 9.169C5.344 7.888 3.94 7.315 2.946 7.888c-.993.573-1.198 2.076-.46 3.357.74 1.28 2.145 1.854 3.138 1.28.993-.573 1.199-2.076.46-3.356Z"/><path fill="#fff" fill-rule="evenodd" d="M8.293 16.07a.5.5 0 0 1-.282-.648c.044-.112.235-.57.624-1.059.39-.49.997-1.037 1.874-1.271a.5.5 0 0 1 .26.965c-.606.163-1.046.545-1.35.928a3.373 3.373 0 0 0-.478.802.5.5 0 0 1-.648.283Z" clip-rule="evenodd"/></svg>