<svg width="18" height="18" viewBox="0 0 18 18" fill="none" xmlns="http://www.w3.org/2000/svg">
<path fill-rule="evenodd" clip-rule="evenodd" d="M4.69976 7.67468C2.63085 7.82821 1 9.55544 1 11.6636C1 13.8727 2.79086 15.6636 5 15.6636C7.20914 15.6636 9 13.8727 9 11.6636C9 9.73014 7.62824 8.11709 5.80488 7.74459L6.72303 6.09191C7.84974 7.16355 9.23214 7.29854 10.0822 7.15686C10.2135 7.13498 10.3306 7.06166 10.4077 6.95314C10.4847 6.84463 10.5153 6.70987 10.4927 6.57871L9.87582 3.00064C10.2113 2.99401 10.5447 3.03889 10.842 3.13799C11.5339 3.36863 12.1796 3.64905 12.6667 3.86063L12.7084 3.87875C12.833 3.93286 12.9735 4.11482 13.0341 4.40295C13.2308 5.33832 13.9906 6.46073 15.8024 7.3851C15.5624 7.76958 15.284 8.11903 15.0161 8.42008C14.6312 8.85258 13.9977 9.02265 13.3855 8.8696L10.6214 8.17857C10.3535 8.1116 10.082 8.27448 10.015 8.54238C9.94805 8.81027 10.1109 9.08174 10.3788 9.14871L11.35 9.39151C10.9587 10.3559 10.5001 12.0646 10.5001 14.6637C10.5001 14.9398 10.7239 15.1637 11.0001 15.1637C11.2762 15.1637 11.5001 14.9398 11.5001 14.6637C11.5001 12.0455 11.9873 10.4316 12.3314 9.63686L13.1429 9.83974C14.0642 10.0701 15.0972 9.83317 15.7631 9.08488C16.0884 8.71936 16.4434 8.27152 16.7434 7.76188C17.0184 7.29459 16.7819 6.75398 16.3645 6.54826C14.6579 5.70729 14.1335 4.77153 14.0126 4.19711C13.9213 3.76293 13.6591 3.20138 13.1067 2.9615L13.057 2.93989C12.5731 2.72972 11.8927 2.43415 11.1582 2.1893C10.4181 1.94261 9.56667 1.9461 8.82885 2.14713C8.10585 2.34413 7.39844 2.75927 7.05813 3.42961L4.69976 7.67468ZM6.35355 11.0171C6.54882 10.8219 6.54882 10.5053 6.35355 10.31C6.15829 10.1148 5.84171 10.1148 5.64645 10.31L5 10.9565L4.35355 10.31C4.15829 10.1148 3.84171 10.1148 3.64645 10.31C3.45118 10.5053 3.45118 10.8219 3.64645 11.0171L4.29289 11.6636L3.64645 12.31C3.45118 12.5053 3.45118 12.8219 3.64645 13.0171C3.84171 13.2124 4.15829 13.2124 4.35355 13.0171L5 12.3707L5.64645 13.0171C5.84171 13.2124 6.15829 13.2124 6.35355 13.0171C6.54882 12.8219 6.54882 12.5053 6.35355 12.31L5.70711 11.6636L6.35355 11.0171Z" fill="#2B2B2C"/>
</svg>
