<svg width="24" height="24" viewBox="0 0 24 24" fill="none" xmlns="http://www.w3.org/2000/svg">
<path fill-rule="evenodd" clip-rule="evenodd" d="M6.18449 10.8596C3.81097 11.249 2 13.3097 2 15.7935C2 18.5549 4.23858 20.7935 7 20.7935C9.76142 20.7935 12 18.5549 12 15.7935C12 13.1685 9.97725 11.016 7.40543 10.8097L8.91462 8.46204C9.57676 9.14515 10.4224 9.51119 11.2128 9.69329C12.1329 9.90528 13.0244 9.87972 13.5822 9.78675C13.7143 9.76474 13.832 9.69068 13.909 9.58117C13.986 9.47166 14.0159 9.33583 13.992 9.20411L13.0462 4.00214C13.4178 4.02167 13.8489 4.10337 14.3419 4.26773C15.263 4.57476 16.189 5.01377 16.8888 5.34559L17.0051 5.40071C17.2405 5.51213 17.431 5.81397 17.4675 6.19231C17.5823 7.38034 18.3407 8.79914 20.8025 10.0184C20.8065 10.0203 20.8093 10.0227 20.8114 10.025C20.4747 10.6264 20.0909 11.1889 19.7291 11.6671C19.2224 12.3368 18.3269 12.5915 17.452 12.3529L13.6316 11.311C13.3652 11.2383 13.0903 11.3954 13.0177 11.6618C12.945 11.9282 13.1021 12.2031 13.3685 12.2758L14.9828 12.716C14.459 13.8557 14.0001 15.9389 14.0001 19.7934C14.0001 20.0695 14.2239 20.2934 14.5001 20.2934C14.7762 20.2934 15.0001 20.0695 15.0001 19.7934C15.0001 15.8189 15.4995 13.9125 15.9473 13.017C15.9528 13.0058 15.958 12.9946 15.9626 12.9833L17.1889 13.3177C18.3912 13.6456 19.7341 13.3178 20.5265 12.2705C20.9121 11.761 21.326 11.1549 21.6918 10.4995C21.9853 9.97378 21.729 9.36132 21.2463 9.12226C19.0101 8.01475 18.5363 6.856 18.4629 6.09619C18.4048 5.49493 18.0873 4.80666 17.4331 4.49691L17.308 4.43759C16.6152 4.10899 15.6391 3.64601 14.6582 3.31905C12.8759 2.72496 11.3573 2.96599 10.5976 3.99672C10.5913 4.00529 10.5852 4.01405 10.5795 4.02301L6.18449 10.8596ZM9.35355 14.4399C9.54882 14.6352 9.54882 14.9518 9.35355 15.147L6.85355 17.647C6.65829 17.8423 6.34171 17.8423 6.14645 17.647L4.64645 16.147C4.45118 15.9518 4.45118 15.6352 4.64645 15.4399C4.84171 15.2446 5.15829 15.2446 5.35355 15.4399L6.5 16.5864L8.64645 14.4399C8.84171 14.2446 9.15829 14.2446 9.35355 14.4399Z" fill="#2B2B2C"/>
</svg>
