<svg xmlns="http://www.w3.org/2000/svg" width="24" height="24" fill="none"><path fill="#2B2B2C" fill-rule="evenodd" d="M17.484 5.596v-.003l2.21-2.814a.5.5 0 0 0-.785-.618l-1.707 2.172c-.34-.791-.96-1.36-1.735-1.48-1.361-.212-2.686 1.04-2.958 2.796-.211 1.358.27 2.62 1.13 3.22l-1.114 1.416a7.037 7.037 0 0 0-.557-.014c-2.26 0-3.927 1.057-5.013 2.508C5.88 14.216 5.37 16.04 5.37 17.634c0 .528.122.974.341 1.325l-1.777 2.262a.5.5 0 0 0 .786.618l1.73-2.202h.002l7.21-9.176h-.001l.969-1.234h.002l2.853-3.631Zm-2.823 5.21-7.12 9.063c.304-.008.608-.068.89-.167.206-.071.403-.144.598-.216.904-.335 1.742-.646 2.939-.646a.5.5 0 0 0 .05-.002.502.502 0 0 0 .051.002c1.196 0 2.035.31 2.938.645.195.072.393.146.598.217.645.225 1.397.248 2.015-.083.652-.348 1.048-1.033 1.048-1.985 0-1.594-.511-3.418-1.586-4.855-.618-.826-1.424-1.524-2.42-1.972ZM11.48 5.65C11.207 3.893 9.883 2.64 8.52 2.853c-1.36.21-2.244 1.805-1.971 3.56.272 1.756 1.597 3.008 2.958 2.797 1.361-.211 2.244-1.806 1.972-3.561Zm6.362 2.861c.77-1.333 2.233-1.93 3.268-1.334 1.034.598 1.248 2.164.478 3.498-.77 1.333-2.233 1.93-3.268 1.333-1.034-.597-1.248-2.163-.478-3.497Zm-11.684 0c-.77-1.333-2.233-1.93-3.267-1.334-1.035.598-1.25 2.164-.48 3.498.771 1.333 2.234 1.93 3.269 1.333 1.034-.597 1.248-2.163.478-3.497Z" clip-rule="evenodd"/></svg>