<svg width="24" height="24" viewBox="0 0 24 24" fill="none" xmlns="http://www.w3.org/2000/svg">
<path fill-rule="evenodd" clip-rule="evenodd" d="M18.5 6C19.0523 6 19.5 5.55228 19.5 5C19.5 4.44772 19.0523 4 18.5 4C17.9477 4 17.5 4.44772 17.5 5C17.5 5.55228 17.9477 6 18.5 6ZM5.5 6C6.05228 6 6.5 5.55228 6.5 5C6.5 4.44772 6.05228 4 5.5 4C4.94772 4 4.5 4.44772 4.5 5C4.5 5.55228 4.94772 6 5.5 6ZM5.5 7C6.60457 7 7.5 6.10457 7.5 5C7.5 3.89543 6.60457 3 5.5 3C4.39543 3 3.5 3.89543 3.5 5C3.5 6.10457 4.39543 7 5.5 7ZM18.5 7C19.6046 7 20.5 6.10457 20.5 5C20.5 3.89543 19.6046 3 18.5 3C17.3954 3 16.5 3.89543 16.5 5C16.5 6.10457 17.3954 7 18.5 7ZM4.54251 9C4.2582 9 4.03111 9.23675 4.04294 9.52082L4.22957 14H6.77037L6.95701 9.52082C6.96884 9.23675 6.74175 9 6.45744 9H4.54251ZM4.43709 18.9805L4.27124 15H6.72871L6.56285 18.9805C6.53911 19.5503 6.07027 20 5.49997 20C4.92968 20 4.46084 19.5503 4.43709 18.9805ZM2.48507 15.6214L3.18038 12.8401L3.43796 19.0221C3.48402 20.1275 4.39359 21 5.49997 21C6.60636 21 7.51593 20.1275 7.56199 19.0221L7.76562 14.1349L8.00518 15.5723C8.01044 15.6082 8.01958 15.6434 8.0324 15.6773C8.04042 15.6985 8.04988 15.7192 8.06074 15.7392C8.10359 15.8181 8.16821 15.8864 8.25189 15.9342C8.35935 15.9956 8.48 16.0128 8.59277 15.9914C8.67608 15.9757 8.75081 15.9401 8.81282 15.8903C8.84325 15.8659 8.87114 15.8377 8.89569 15.8058C8.91173 15.785 8.92613 15.763 8.93875 15.74L10.1383 13.6408L10.4481 19.5277C10.4916 20.353 11.1735 21 12 21C12.8265 21 13.5084 20.353 13.5519 19.5277L13.8617 13.6408L15.0613 15.74C15.0739 15.763 15.0883 15.785 15.1043 15.8058C15.1288 15.8376 15.1567 15.8659 15.1872 15.8903C15.2492 15.9401 15.3239 15.9757 15.4072 15.9914C15.52 16.0128 15.6406 15.9956 15.7481 15.9342C15.832 15.8863 15.8967 15.8178 15.9395 15.7387C15.9503 15.7188 15.9596 15.6983 15.9676 15.6773C15.9804 15.6434 15.9896 15.6082 15.9948 15.5723L16.2343 14.1352L16.438 19.0221C16.484 20.1275 17.3936 21 18.5 21C19.6064 21 20.5159 20.1275 20.562 19.0221L20.8196 12.84L21.5149 15.6214C21.5819 15.8893 21.8534 16.0522 22.1213 15.9852C22.3892 15.9182 22.552 15.6467 22.4851 15.3789L20.9851 9.37885C20.9744 9.33618 20.9586 9.29617 20.9383 9.25933C20.8237 8.54826 20.2068 8 19.4574 8H17.5425C16.7932 8 16.1763 8.54822 16.0616 9.25927C16.0352 9.30737 16.0163 9.36068 16.0068 9.41788L15.2376 14.033L13.9342 11.752C13.9303 11.7453 13.9264 11.7387 13.9223 11.7323C13.7966 11.0351 13.1865 10.5 12.446 10.5H11.554C10.8134 10.5 10.2033 11.0352 10.0777 11.7324L10.071 11.7432L10.0658 11.752L8.76243 14.033L7.99324 9.41788C7.9837 9.36062 7.96478 9.30727 7.93832 9.25913C7.82356 8.54815 7.20674 8 6.45744 8H4.54251C3.79309 8 3.17619 8.54833 3.06158 9.25947C3.04141 9.29627 3.02558 9.33623 3.01492 9.37885L1.51492 15.3789C1.44795 15.6467 1.61083 15.9182 1.87873 15.9852C2.14663 16.0522 2.41809 15.8893 2.48507 15.6214ZM17.0429 9.52082C17.0311 9.23675 17.2582 9 17.5425 9H19.4574C19.7417 9 19.9688 9.23675 19.957 9.52082L19.7704 14H17.2296L17.0429 9.52082ZM17.2712 15H19.7287L19.5629 18.9805C19.5391 19.5503 19.0703 20 18.5 20C17.9297 20 17.4608 19.5503 17.4371 18.9805L17.2712 15ZM11.0547 12.0263C11.0396 11.7402 11.2675 11.5 11.554 11.5H12.446C12.7324 11.5 12.9603 11.7402 12.9453 12.0263L12.7624 15.5H11.2375L11.0547 12.0263ZM11.2901 16.5H12.7098L12.5532 19.4751C12.5377 19.7694 12.2946 20 12 20C11.7053 20 11.4622 19.7694 11.4467 19.4751L11.2901 16.5ZM11.25 8.25C11.25 7.83579 11.5858 7.5 12 7.5C12.4142 7.5 12.75 7.83579 12.75 8.25C12.75 8.66421 12.4142 9 12 9C11.5858 9 11.25 8.66421 11.25 8.25ZM12 6.5C11.0335 6.5 10.25 7.2835 10.25 8.25C10.25 9.2165 11.0335 10 12 10C12.9665 10 13.75 9.2165 13.75 8.25C13.75 7.2835 12.9665 6.5 12 6.5Z" fill="#2B2B2C"/>
</svg>
