<svg width="30" height="30" viewBox="0 0 30 30" fill="none" xmlns="http://www.w3.org/2000/svg">
<path fill-rule="evenodd" clip-rule="evenodd" d="M7 9C8.38071 9 9.5 7.88071 9.5 6.5C9.5 5.11929 8.38071 4 7 4C5.61929 4 4.5 5.11929 4.5 6.5C4.5 7.88071 5.61929 9 7 9ZM5.08701 11.7995C5.0584 11.3667 5.40169 11 5.83537 11H8.16463C8.59831 11 8.9416 11.3667 8.91299 11.7995L8.56916 17H5.43084L5.08701 11.7995ZM4.26169 14.4746L2.97789 18.6469C2.89668 18.9109 2.61688 19.059 2.35295 18.9778C2.08902 18.8966 1.9409 18.6168 2.02211 18.3528L4.02211 11.8528C4.037 11.8044 4.05858 11.7599 4.08552 11.72C4.10046 10.7749 4.87242 10 5.83537 10H8.16463C9.12765 10 9.89965 10.775 9.91449 11.7202C9.95462 11.7796 9.98257 11.8485 9.99419 11.924L10.8134 17.2488L12.6845 14.7541C12.8972 14.0342 13.5634 13.5 14.3634 13.5H15.6312C16.4271 13.5 17.0901 14.0285 17.3066 14.7421L19.1866 17.2488L20.0058 11.924C20.0175 11.8481 20.0457 11.7787 20.0863 11.7191C20.1017 10.7745 20.8734 10 21.8361 10H24.1639C25.1265 10 25.8982 10.7743 25.9137 11.7189C25.941 11.7591 25.9629 11.804 25.9779 11.8528L27.9779 18.3528C28.0591 18.6168 27.911 18.8966 27.647 18.9778C27.3831 19.059 27.1033 18.9109 27.0221 18.6469L25.7365 14.4688L25.0987 24.0366C25.025 25.1415 24.1073 26 23 26C21.8927 26 20.975 25.1415 20.9013 24.0366L20.3731 16.1131L19.9942 18.5758L19.9942 18.5761L19.9936 18.5796C19.9817 18.6539 19.9539 18.7218 19.9142 18.7803C19.8945 18.8095 19.8714 18.8369 19.8451 18.8619C19.8159 18.8897 19.7835 18.9139 19.7486 18.9339C19.7221 18.9491 19.6947 18.9617 19.6667 18.9716C19.5913 18.9983 19.5085 19.0073 19.424 18.9943C19.3429 18.9818 19.2694 18.9505 19.2072 18.9055C19.1802 18.886 19.1549 18.8636 19.1318 18.8383C19.1193 18.8247 19.1076 18.8105 19.0968 18.7957L17.2856 16.3809L16.9979 19.5453L16.5815 24.5432C16.5128 25.3666 15.8245 26 14.9982 26C14.1741 26 13.4868 25.3699 13.4154 24.5489L12.9807 19.5493L12.9797 19.5384L12.7061 16.3919L10.9033 18.7956C10.8857 18.8196 10.8661 18.842 10.8445 18.8625C10.8333 18.8732 10.8217 18.8832 10.8098 18.8927C10.7442 18.9445 10.6646 18.9806 10.576 18.9943C10.492 19.0072 10.4097 18.9984 10.3347 18.9721C10.3062 18.9621 10.2783 18.9494 10.2514 18.9339C10.2165 18.9139 10.1841 18.8897 10.1549 18.8619C10.1277 18.836 10.1039 18.8075 10.0837 18.7772C10.0445 18.7185 10.0173 18.6505 10.0058 18.5761L10.0057 18.575L9.62905 16.1271L9.09787 24.1613C9.02482 25.2661 8.10731 26.125 7 26.125C5.89269 26.125 4.97518 25.2661 4.90213 24.1613L4.26169 14.4746ZM21.8361 11C21.4023 11 21.0589 11.367 21.0878 11.7999L21.4344 17H24.5656L24.9122 11.7999C24.9411 11.367 24.5977 11 24.1639 11H21.8361ZM16.0434 19L16.3781 15.3179C16.4181 14.8787 16.0722 14.5 15.6312 14.5H14.3634C13.9236 14.5 13.5781 14.8768 13.6162 15.315L13.9367 19H16.0434ZM23 9C24.3807 9 25.5 7.88071 25.5 6.5C25.5 5.11929 24.3807 4 23 4C21.6193 4 20.5 5.11929 20.5 6.5C20.5 7.88071 21.6193 9 23 9ZM13 10.5C13 9.39543 13.8954 8.5 15 8.5C16.1046 8.5 17 9.39543 17 10.5C17 11.6046 16.1046 12.5 15 12.5C13.8954 12.5 13 11.6046 13 10.5Z" fill="#2B2B2C"/>
</svg>
