<svg width="24" height="24" viewBox="0 0 24 24" fill="none" xmlns="http://www.w3.org/2000/svg">
<path fill-rule="evenodd" clip-rule="evenodd" d="M16.8736 2.98194L16.8736 2.98194C16.9908 2.98683 17.1029 2.9915 17.207 2.99477C17.5725 3.00624 17.9153 3.21259 18.0854 3.55282L18.6708 4.72364C18.7555 4.89304 18.9287 5.00004 19.118 5.00004H20C20.5413 5.00004 21.0239 5.44634 20.9813 6.03582C20.9284 6.76907 20.7556 7.49659 20.367 8.05376C20.0451 8.51546 19.589 8.83786 19 8.95321L19 12.5C19 13.5088 18.4611 14.1504 17.8988 14.5184C17.6229 14.699 17.3387 14.817 17.1002 14.8904C17.0665 14.9008 17.0331 14.9105 17 14.9194V19.5C17 20.3285 16.3284 21 15.5 21C14.6716 21 14 20.3285 14 19.5V15L7.95987 15C7.84376 15.6935 7.48724 16.1853 7.04215 16.5058C6.70633 16.7476 6.33339 16.8832 6 16.949V19.5C6 20.3285 5.32843 21 4.5 21C3.67157 21 3 20.3285 3 19.5V12C3 10.3432 4.34314 9.00003 6 9.00003L8.29289 9.00003L5.64645 6.35357C5.50345 6.21057 5.46067 5.99552 5.53806 5.80868C5.61545 5.62184 5.79777 5.50002 6 5.50002H9C9.13261 5.50002 9.25979 5.5527 9.35355 5.64647L12.3181 8.61103C12.6227 8.30056 12.8916 7.78037 13 6.9676V6.50454L13 6.49989L13 6.49594V5.50004C13 4.83834 13.1554 4.30295 13.4658 3.893C13.7762 3.48317 14.2008 3.25251 14.6386 3.12405C15.0708 2.99722 15.5385 2.96303 15.9734 2.95953C16.277 2.95708 16.5904 2.97014 16.8736 2.98194ZM13.0262 9.31909C13.4443 8.88742 13.7643 8.2627 13.9266 7.48023C14.0808 7.54759 14.2439 7.60825 14.4044 7.66173C14.7051 7.76197 15.0203 7.84486 15.2947 7.90307C15.5577 7.95887 15.8195 7.99989 16 7.99989C16.2761 7.99989 16.5 7.77603 16.5 7.49989C16.5 7.18533 16.4243 6.79193 16.3288 6.40987C16.2308 6.01777 16.1015 5.59825 15.9743 5.21677C15.8469 4.8343 15.7196 4.4845 15.6244 4.23058C15.587 4.1307 15.5544 4.04542 15.5285 3.97855C15.6727 3.96656 15.8242 3.96076 15.9815 3.95949C16.2594 3.95725 16.5305 3.9686 16.8026 3.97998L16.8026 3.97998C16.9265 3.98516 17.0506 3.99035 17.1756 3.99427C17.1813 3.99445 17.1857 3.99613 17.1884 3.99785C17.1897 3.99867 17.1907 3.99974 17.191 4.00004L17.7764 5.17086C18.0305 5.67903 18.5499 6.00004 19.118 6.00004H19.9812C19.9316 6.6309 19.7848 7.1405 19.5468 7.48172C19.3244 7.80062 19.0074 7.9987 18.5051 8.00003C18.5034 8.00001 18.5017 8 18.5 8H18C17.7239 8 17.5 8.22386 17.5 8.5C17.5 8.77614 17.7239 9 18 9H18L18 11H14.7071L13.0262 9.31909ZM14.263 4.49672C14.3406 4.3943 14.4377 4.30855 14.5563 4.23763L14.577 4.29049C14.6037 4.35915 14.642 4.45882 14.6881 4.5817C14.7804 4.82778 14.9031 5.16547 15.0257 5.533C15.1485 5.90152 15.2692 6.29451 15.3587 6.65241C15.381 6.74157 15.4008 6.8264 15.4179 6.9064C15.1974 6.85669 14.9524 6.79032 14.7206 6.71305C14.4538 6.62412 14.2275 6.5283 14.0776 6.43833C14.0522 6.4231 14.0314 6.40947 14.0147 6.3977C14.0144 6.31112 14.0135 6.22526 14.0125 6.14529C14.0104 5.97215 14.0072 5.80763 14.0046 5.68654L14.0012 5.54133L14 5.49366C14.001 4.99158 14.1179 4.68833 14.263 4.49672ZM18 12H15L15 19.5C15 19.7762 15.2239 20 15.5 20C15.7762 20 16 19.7762 16 19.5V14.5C16 14.2239 16.2239 14 16.5 14L16.5003 14C16.5017 14 16.509 13.9996 16.5233 13.9981C16.5406 13.9962 16.5638 13.9929 16.5924 13.9878C16.6497 13.9774 16.7229 13.9603 16.8061 13.9346C16.9739 13.883 17.1688 13.8011 17.3512 13.6817C17.7056 13.4497 18 13.0913 18 12.5L18 12ZM14 11.7071L12.1749 9.88205C11.9594 9.95983 11.7329 10 11.5 10L6 10C4.89543 10 4 10.8955 4 12V19.5C4 19.7762 4.22386 20 4.5 20C4.77614 20 5 19.7762 5 19.5V16.5C5 16.3674 5.05268 16.2402 5.14645 16.1465C5.24022 16.0527 5.36739 16 5.5 16C5.75332 16 6.14443 15.9199 6.45785 15.6943C6.74577 15.487 7 15.1371 7 14.5C7 14.2239 7.22386 14 7.5 14L14 14L14 11.7071ZM11.2929 9.00002L8.79289 6.50002H7.2071L9.7071 9.00003L11.2929 9.00002Z" fill="#2B2B2C"/>
</svg>
