<svg width="18" height="18" viewBox="0 0 18 18" fill="none" xmlns="http://www.w3.org/2000/svg">
<path fill-rule="evenodd" clip-rule="evenodd" d="M12.8139 1.99709C12.7315 1.99474 12.6394 1.99092 12.5416 1.98686C12.3347 1.97827 12.1021 1.96862 11.8819 1.96954C11.5491 1.97094 11.1816 1.99477 10.8379 2.09263C10.4888 2.19201 10.1392 2.37514 9.88159 2.71033C9.6236 3.04605 9.5 3.47949 9.5 4.00009V4.96764C9.45227 5.32473 9.37467 5.60061 9.27977 5.81223L7.3737 3.66791C7.27882 3.56116 7.14282 3.50009 7 3.50009H4.5C4.30599 3.50009 4.1295 3.61232 4.04721 3.78801C3.96492 3.9637 3.99169 4.17114 4.11589 4.32018L5.93248 6.50009H4.5C3.11929 6.50009 2 7.61939 2 9.0001V14.7501C2 15.4405 2.55964 16.0001 3.25 16.0001C3.94036 16.0001 4.5 15.4405 4.5 14.7501V12.9371C4.73829 12.8788 4.99484 12.7749 5.22965 12.6059C5.56695 12.363 5.83872 11.999 5.94805 11.5001H10.5V14.7501C10.5 15.4405 11.0596 16.0001 11.75 16.0001C12.4404 16.0001 13 15.4405 13 14.7501V11.4083C13.185 11.3503 13.404 11.2582 13.6176 11.1184C14.0653 10.8254 14.5 10.3089 14.5 9.5001V6.45047C14.8933 6.3673 15.2235 6.1788 15.4742 5.87934C15.8067 5.48215 15.9431 4.95512 15.9849 4.41352C16.0253 3.8901 15.5962 3.5001 15.125 3.5001H14.5352C14.368 3.5001 14.2119 3.41655 14.1192 3.27745L13.5274 2.38973C13.3643 2.14513 13.0947 2.00512 12.8139 1.99709ZM10.5008 4.02071L10.5 3.99284C10.5011 3.63427 10.5853 3.43578 10.6745 3.31966C10.7566 3.21288 10.8779 3.13021 11.0565 3.07133L11.0195 3.13809L11.0204 3.14142L11.0243 3.15529L11.0397 3.21012C11.0529 3.25805 11.072 3.32775 11.095 3.41387C11.141 3.58636 11.2022 3.82359 11.2633 4.08315C11.3357 4.39099 11.4025 4.70843 11.4466 4.98147C11.3434 4.97317 11.235 4.96113 11.1259 4.94366C10.8685 4.90249 10.6589 4.83866 10.5106 4.75872C10.5119 4.64382 10.5108 4.52149 10.5094 4.41916C10.5078 4.30408 10.5054 4.19562 10.5034 4.11609L10.5008 4.02071ZM10.3527 5.7785C10.2629 6.09069 10.1408 6.36653 9.98263 6.60295L11.2245 8.0001H13.5V6.50009C13.2239 6.50008 13 6.27622 13 6.00008C13 5.72394 13.2239 5.50008 13.5 5.50009L14 5.5001C14.3863 5.5001 14.5849 5.38374 14.7074 5.23741C14.8302 5.09075 14.9259 4.85479 14.9712 4.5001H14.5352C14.0337 4.5001 13.5653 4.24944 13.2871 3.83215L12.729 2.99495C12.6397 2.99203 12.5525 2.98837 12.4662 2.98473L12.4661 2.98473C12.3142 2.97834 12.1648 2.97206 12.0108 2.9701C12.0241 3.01839 12.0413 3.08147 12.0612 3.15621C12.109 3.33529 12.1728 3.58243 12.2367 3.85412C12.3597 4.37688 12.5 5.0576 12.5 5.49988C12.5 5.77603 12.2761 5.99988 12 5.99988H11.9951C11.8049 5.99989 11.3979 5.9999 10.9679 5.9311C10.7801 5.90105 10.5654 5.85472 10.3527 5.7785ZM11.5 14.7501V9.0001H13.5V9.5001C13.5 9.89133 13.3097 10.1248 13.0699 10.2817C12.9448 10.3636 12.8098 10.4206 12.6928 10.4566C12.585 10.4897 12.5165 10.498 12.5024 10.4997C12.5 10.5 12.4992 10.5001 12.5 10.5001C12.2239 10.5001 12 10.724 12 11.0001V14.7501C12 14.8882 11.8881 15.0001 11.75 15.0001C11.6119 15.0001 11.5 14.8882 11.5 14.7501ZM9.24439 7.27763L10.5 8.6902V10.5001H5.5C5.22386 10.5001 5 10.724 5 11.0001C5 11.4371 4.8291 11.662 4.64535 11.7943C4.4361 11.945 4.16999 12.0001 4 12.0001C3.86739 12.0001 3.74022 12.0528 3.64645 12.1465C3.55268 12.2403 3.5 12.3675 3.5 12.5001V14.7501C3.5 14.8882 3.38807 15.0001 3.25 15.0001C3.11193 15.0001 3 14.8882 3 14.7501V9.0001C3 8.17167 3.67158 7.50009 4.5 7.50009H8.5C8.52579 7.50009 8.55154 7.49809 8.57702 7.49412C8.81448 7.4571 9.03857 7.38599 9.24439 7.27763ZM6.77547 4.50009L8.53808 6.48304C8.51214 6.48946 8.48557 6.49514 8.45834 6.50009H7.23419L5.56752 4.50009H6.77547Z" fill="#2B2B2C"/>
</svg>
