<svg width="18" height="18" viewBox="0 0 18 18" fill="none" xmlns="http://www.w3.org/2000/svg">
<path fill-rule="evenodd" clip-rule="evenodd" d="M4.90885 4.78819L3.94481 6.23424C4.59229 6.8325 5.34439 7.0273 5.93419 7.03966L5.56146 4.24422C5.25717 4.42243 5.02712 4.63133 4.90885 4.78819ZM1.91608 9.27733L3.38475 7.07433C4.47948 8.01211 5.7724 8.12822 6.5822 7.99325C6.84833 7.9489 7.03127 7.70141 6.99561 7.43398L6.5247 3.90212C6.7961 3.86688 7.07288 3.88464 7.34194 3.97433C8.03389 4.20498 8.67951 4.4854 9.16664 4.69699L9.20836 4.7151C9.32648 4.76639 9.44575 4.92737 9.45565 5.15906C9.47539 5.62126 9.60421 6.16717 9.98726 6.72255C10.3545 7.25499 10.937 7.76964 11.823 8.22939C11.6667 8.53255 11.5177 8.81067 11.3774 9.0588C11.0893 9.56844 10.4656 9.76557 9.81905 9.52311L7.17562 8.53181C6.91706 8.43485 6.62885 8.56585 6.53189 8.82441C6.43493 9.08297 6.56593 9.37118 6.82449 9.46814L7.56854 9.74716C7.54567 9.78624 7.52765 9.82956 7.51578 9.87558L7.5146 9.88017L7.51116 9.89365L7.49829 9.94453C7.48722 9.98858 7.47136 10.0523 7.45203 10.1317C7.41337 10.2905 7.36067 10.5127 7.30434 10.7668C7.2242 11.1282 7.13467 11.5633 7.06846 11.9751C6.60923 11.9295 5.98546 11.8203 5.31638 11.6419C4.4041 11.3986 3.46301 11.041 2.7774 10.584C2.54764 10.4308 2.2372 10.4929 2.08403 10.7226C1.93085 10.9524 1.99294 11.2628 2.2227 11.416C3.03709 11.9589 4.09601 12.3514 5.05872 12.6081C5.77187 12.7983 6.46272 12.9219 7.00005 12.9731V14.5C7.00005 14.7761 7.22391 15 7.50005 15C7.7762 15 8.00005 14.7761 8.00005 14.5V12.5287C8.05499 12.0603 8.17266 11.4702 8.28063 10.9832C8.33516 10.7373 8.38624 10.522 8.42365 10.3683C8.44235 10.2915 8.4576 10.2302 8.46813 10.1883L8.48021 10.1405L8.48328 10.1285L8.48422 10.1248C8.48694 10.1143 8.4893 10.1037 8.49131 10.0932L9.46793 10.4594C10.4737 10.8366 11.6676 10.5775 12.2479 9.55094C12.4133 9.25847 12.5875 8.93123 12.7681 8.57802C13.0015 8.12175 12.7879 7.5957 12.3681 7.3849C11.5408 6.96958 11.0743 6.53729 10.8104 6.15479C10.5493 5.77615 10.4677 5.41877 10.4547 5.11638C10.4331 4.61064 10.1656 4.04055 9.60666 3.79785L9.55691 3.77624C9.0731 3.56607 8.39271 3.27049 7.65817 3.02565C6.87334 2.76404 6.10016 2.90058 5.48567 3.16424C4.8786 3.42472 4.37109 3.83226 4.09757 4.20333C4.09291 4.20966 4.08839 4.2161 4.08403 4.22265L1.08403 8.72262C0.930852 8.95239 0.992938 9.26282 1.2227 9.416C1.45247 9.56918 1.7629 9.50709 1.91608 9.27733ZM15 4.70711V13.2929L14.8536 13.1464C14.6583 12.9512 14.3417 12.9512 14.1464 13.1464C13.9512 13.3417 13.9512 13.6583 14.1464 13.8536L15.1464 14.8536C15.3417 15.0488 15.6583 15.0488 15.8536 14.8536L16.8536 13.8536C17.0488 13.6583 17.0488 13.3417 16.8536 13.1464C16.6583 12.9512 16.3417 12.9512 16.1464 13.1464L16 13.2929V4.70711L16.1464 4.85355C16.3417 5.04882 16.6583 5.04882 16.8536 4.85355C17.0488 4.65829 17.0488 4.34171 16.8536 4.14645L15.8536 3.14645C15.7598 3.05268 15.6326 3 15.5 3C15.3674 3 15.2402 3.05268 15.1464 3.14645L14.1464 4.14645C13.9512 4.34171 13.9512 4.65829 14.1464 4.85355C14.3417 5.04882 14.6583 5.04882 14.8536 4.85355L15 4.70711Z" fill="#2B2B2C"/>
</svg>
