<svg width="18" height="18" viewBox="0 0 18 18" fill="none" xmlns="http://www.w3.org/2000/svg">
<path fill-rule="evenodd" clip-rule="evenodd" d="M8 1C7.72386 1 7.5 1.22386 7.5 1.5V4H6.25C5.55964 4 5 4.55964 5 5.25V10C5 10.0119 5.00041 10.0236 5.00122 10.0353C3.30448 10.2774 2 11.7363 2 13.5C2 15.433 3.567 17 5.5 17C7.26324 17 8.72194 15.6961 8.96456 14H10.0854C10.0301 14.1564 10 14.3247 10 14.5C10 15.3284 10.6716 16 11.5 16C12.3284 16 13 15.3284 13 14.5C13 14.3208 12.9686 14.149 12.911 13.9897C13.5253 13.9108 14 13.3858 14 12.75V5.25C14 4.55964 13.4404 4 12.75 4H11.5V1.5C11.5 1.22386 11.2761 1 11 1H8ZM8.96456 13H11.5H12.75C12.8881 13 13 12.8881 13 12.75V5.25C13 5.11193 12.8881 5 12.75 5H11.5V5.79289L12.3536 6.64645C12.4473 6.74021 12.5 6.86739 12.5 7V9.5C12.5 9.77614 12.2761 10 12 10H10C9.72386 10 9.5 9.77614 9.5 9.5V7C9.5 6.86739 9.55268 6.74021 9.64645 6.64645L10.5 5.79289V5H6.25C6.11193 5 6 5.11193 6 5.25V10C6 10.0119 5.99959 10.0236 5.99878 10.0353C7.5322 10.2541 8.74524 11.4667 8.96456 13ZM11 14.5C11 14.2239 11.2239 14 11.5 14C11.7761 14 12 14.2239 12 14.5C12 14.7761 11.7761 15 11.5 15C11.2239 15 11 14.7761 11 14.5ZM10.5 4V2H8.5V4H10.5ZM10.5 7.20711L11 6.70711L11.5 7.20711V9H10.5V7.20711ZM6 12.5C6 12.2239 5.77614 12 5.5 12C5.22386 12 5 12.2239 5 12.5V13H4.5C4.22386 13 4 13.2239 4 13.5C4 13.7761 4.22386 14 4.5 14H5V14.5C5 14.7761 5.22386 15 5.5 15C5.77614 15 6 14.7761 6 14.5V14H6.5C6.77614 14 7 13.7761 7 13.5C7 13.2239 6.77614 13 6.5 13H6V12.5ZM8 13.5C8 14.8807 6.88071 16 5.5 16C4.11929 16 3 14.8807 3 13.5C3 12.1193 4.11929 11 5.5 11C6.88071 11 8 12.1193 8 13.5Z" fill="#2B2B2C"/>
</svg>
