<svg width="18" height="18" viewBox="0 0 18 18" fill="none" xmlns="http://www.w3.org/2000/svg">
<path fill-rule="evenodd" clip-rule="evenodd" d="M7.5 1.5C7.5 1.22386 7.72386 1 8 1H11C11.2761 1 11.5 1.22386 11.5 1.5V4H12.75C13.4404 4 14 4.55964 14 5.25V12.75C14 13.3858 13.5253 13.9108 12.911 13.9897C12.9686 14.149 13 14.3208 13 14.5C13 15.3284 12.3284 16 11.5 16C10.6716 16 10 15.3284 10 14.5C10 14.3247 10.0301 14.1564 10.0854 14H8.96456C8.72194 15.6961 7.26324 17 5.5 17C3.567 17 2 15.433 2 13.5C2 11.7363 3.30448 10.2774 5.00122 10.0353C5.00041 10.0236 5 10.0119 5 10V5.25C5 4.55964 5.55964 4 6.25 4H7.5V1.5ZM11.5 14C11.2239 14 11 14.2239 11 14.5C11 14.7761 11.2239 15 11.5 15C11.7761 15 12 14.7761 12 14.5C12 14.2239 11.7761 14 11.5 14ZM10.5 2V4H8.5V2H10.5ZM5.5 12C5.77614 12 6 12.2239 6 12.5V13H6.5C6.77614 13 7 13.2239 7 13.5C7 13.7761 6.77614 14 6.5 14H6V14.5C6 14.7761 5.77614 15 5.5 15C5.22386 15 5 14.7761 5 14.5V14H4.5C4.22386 14 4 13.7761 4 13.5C4 13.2239 4.22386 13 4.5 13H5V12.5C5 12.2239 5.22386 12 5.5 12ZM5.5 16C6.88071 16 8 14.8807 8 13.5C8 12.1193 6.88071 11 5.5 11C4.11929 11 3 12.1193 3 13.5C3 14.8807 4.11929 16 5.5 16ZM10 8.8V6.58284C10 6.5298 10.0211 6.47893 10.0586 6.44142L10.8586 5.64142C10.9367 5.56332 11.0633 5.56332 11.1414 5.64142L11.9414 6.44142C11.9789 6.47893 12 6.5298 12 6.58284V8.8C12 8.91046 11.9105 9 11.8 9H10.2C10.0895 9 10 8.91046 10 8.8Z" fill="#2B2B2C"/>
</svg>
