<svg width="30" height="30" viewBox="0 0 30 30" fill="none" xmlns="http://www.w3.org/2000/svg">
<path fill-rule="evenodd" clip-rule="evenodd" d="M13.6908 4.60205C14.7183 3.57457 16.1995 3.14324 17.618 3.45846L23.1264 4.68255C24.2192 4.92539 25.0859 5.75647 25.3743 6.83812L26.8095 12.2201C26.9396 12.7081 26.9817 13.2154 26.9339 13.7181L26.1055 22.4159C26.02 23.3141 25.2656 24 24.3634 24H22.7324C22.9026 24.2942 23 24.6357 23 25C23 26.1046 22.1046 27 21 27C19.8954 27 19 26.1046 19 25C19 24.6357 19.0974 24.2942 19.2676 24H9.73243C9.9026 24.2942 10 24.6357 10 25C10 26.1046 9.10457 27 8 27C6.89543 27 6 26.1046 6 25C6 24.6357 6.0974 24.2942 6.26757 24H4.75C3.7835 24 3 23.2165 3 22.25V17.0533C3 15.9261 3.44777 14.8451 4.2448 14.0481L6.79289 11.5L6.03039 10.7375C5.34697 10.0541 5.34697 8.94604 6.03039 8.26262L9.26262 5.03038C9.94604 4.34697 11.0541 4.34697 11.7375 5.03039L12.5 5.79289L13.6908 4.60205ZM7.85361 11.8536L7.84703 11.8601L4.9519 14.7552C4.34241 15.3647 4 16.1913 4 17.0533V22.25C4 22.6642 4.33579 23 4.75 23H24.3634C24.7501 23 25.0734 22.706 25.11 22.3211L25.9384 13.6233C25.975 13.2389 25.9428 12.851 25.8433 12.4778L24.4081 7.09579C24.2158 6.37469 23.638 5.82063 22.9095 5.65874L18 4.56775V7.79289L19.3536 9.14645C19.4473 9.24021 19.5 9.36739 19.5 9.5V13.5C19.5 13.7761 19.2761 14 19 14H16C15.7239 14 15.5 13.7761 15.5 13.5V9.5C15.5 9.36739 15.5527 9.24021 15.6464 9.14645L17 7.79289V4.37146C16.0434 4.28149 15.0872 4.61993 14.3979 5.30916L12.8601 6.84703L12.8536 6.85361L12.847 6.86007L7.86007 11.847L7.85361 11.8536ZM7.5 10.7929L11.7929 6.5L11.0304 5.73749C10.7375 5.4446 10.2626 5.4446 9.96973 5.73749L6.73749 8.96973C6.4446 9.26262 6.4446 9.73749 6.73749 10.0304L7.5 10.7929ZM9 25C9 25.5523 8.55228 26 8 26C7.44772 26 7 25.5523 7 25C7 24.4477 7.44772 24 8 24C8.55228 24 9 24.4477 9 25ZM21 26C21.5523 26 22 25.5523 22 25C22 24.4477 21.5523 24 21 24C20.4477 24 20 24.4477 20 25C20 25.5523 20.4477 26 21 26ZM16.5 13V9.70711L17.5 8.70711L18.5 9.70711V13H16.5Z" fill="#2B2B2C"/>
</svg>
