<svg width="24" height="24" viewBox="0 0 24 24" fill="none" xmlns="http://www.w3.org/2000/svg">
<path fill-rule="evenodd" clip-rule="evenodd" d="M18.4248 3.26386C18.5589 3.04853 18.5105 2.76238 18.3054 2.60413C18.0868 2.43546 17.7728 2.47598 17.6041 2.69462L15.453 5.48313C14.3563 5.16855 13.1978 5.00002 12.0001 5.00002C8.29797 5.00002 4.97122 6.61008 2.6831 9.16657C2.49894 9.37233 2.51645 9.68843 2.72221 9.87259C2.92798 10.0568 3.24407 10.0392 3.42824 9.83348C5.53468 7.47998 8.59423 6.00002 12.0001 6.00002C12.9627 6.00002 13.8976 6.11824 14.7912 6.34099L13.0765 8.56376C12.7235 8.52168 12.3643 8.50002 12 8.50002C9.23897 8.50002 6.76798 9.74393 5.11782 11.7001C4.93977 11.9112 4.96654 12.2266 5.17761 12.4047C5.38869 12.5827 5.70413 12.556 5.88219 12.3449C7.35046 10.6043 9.54603 9.50002 12 9.50002C12.1168 9.50002 12.2329 9.50252 12.3485 9.50747L10.1907 12.3047C9.14877 12.6675 8.24968 13.3348 7.60026 14.1992C7.43439 14.42 7.47889 14.7334 7.69967 14.8993C7.82572 14.994 7.98198 15.0201 8.12373 14.984L4.10411 20.1946C3.93544 20.4133 3.97596 20.7272 4.1946 20.8959C4.41325 21.0646 4.72723 21.0241 4.8959 20.8054L5.33502 20.2362C5.34385 20.222 5.35348 20.2081 5.3639 20.1946L18.4248 3.26386ZM17.4034 6.2251L16.7777 7.03618C18.2298 7.70028 19.5198 8.65791 20.572 9.83348C20.7561 10.0392 21.0722 10.0568 21.278 9.87259C21.4837 9.68843 21.5013 9.37233 21.3171 9.16657C20.2251 7.94645 18.8964 6.94192 17.4034 6.2251ZM15.1974 9.08466L14.5555 9.91676C15.9566 10.3887 17.1842 11.2382 18.1178 12.3449C18.2959 12.556 18.6113 12.5827 18.8224 12.4047C19.0335 12.2266 19.0602 11.9112 18.8822 11.7001C17.905 10.5417 16.64 9.63312 15.1974 9.08466ZM12.8928 12.0721L12.1744 13.0033C13.5747 13.0567 14.811 13.7494 15.6003 14.7999C15.7661 15.0206 16.0796 15.0652 16.3003 14.8993C16.5211 14.7334 16.5656 14.42 16.3998 14.1992C15.5665 13.0902 14.3223 12.3056 12.8928 12.0721ZM11 17C11 16.4477 11.4477 16 12 16C12.5523 16 13 16.4477 13 17C13 17.5523 12.5523 18 12 18C11.4477 18 11 17.5523 11 17ZM12 15C10.8954 15 10 15.8955 10 17C10 18.1046 10.8954 19 12 19C13.1046 19 14 18.1046 14 17C14 15.8955 13.1046 15 12 15Z" fill="#2B2B2C"/>
</svg>
