<svg width="30" height="30" viewBox="0 0 30 30" fill="none" xmlns="http://www.w3.org/2000/svg">
<path fill-rule="evenodd" clip-rule="evenodd" d="M22.8 3.60003C23.0209 3.76571 23.0657 4.07912 22.9 4.30003L21.0976 6.70322L19.8524 8.36354L18.2742 10.4677L16.9732 12.2024L15.2469 14.5042L13.6108 16.6857L6.85 25.7L6.4 26.3C6.23431 26.5209 5.92091 26.5657 5.7 26.4C5.47908 26.2343 5.43431 25.9209 5.6 25.7L11.4923 17.8436C11.2378 18.0724 11.0056 18.3258 10.7995 18.6001C10.4677 19.0416 9.84087 19.1307 9.39932 18.7989C8.95777 18.4672 8.86876 17.8403 9.2005 17.3987C10.3215 15.9067 12.0079 14.8595 13.9425 14.5766L15.8474 12.0368C15.5682 12.0125 15.2855 12 15 12C12.0477 12 9.40648 13.3281 7.63934 15.4229C7.28324 15.8451 6.65234 15.8986 6.23019 15.5425C5.80805 15.1864 5.75451 14.5555 6.11062 14.1334C8.24151 11.6073 11.4335 10 15 10C15.758 10 16.499 10.0726 17.2166 10.2112L18.8484 8.03543C17.6258 7.68669 16.3347 7.50003 15 7.50003C10.8537 7.50003 7.12951 9.30118 4.56459 12.1669C4.19626 12.5785 3.56407 12.6135 3.15254 12.2452C2.74101 11.8768 2.70599 11.2446 3.07432 10.8331C6.0026 7.56138 10.2612 5.50003 15 5.50003C16.7912 5.50003 18.5137 5.79454 20.1218 6.33761L22.1 3.70003C22.2657 3.47912 22.5791 3.43434 22.8 3.60003ZM15 16.5C16.7167 16.5 18.241 17.323 19.2005 18.6001C19.5322 19.0416 20.1591 19.1307 20.6007 18.7989C21.0422 18.4672 21.1312 17.8403 20.7995 17.3987C19.7449 15.9951 18.19 14.9852 16.3988 14.6349L15 16.5ZM18.0141 12.4812C19.7248 13.0447 21.2236 14.0751 22.3606 15.4229C22.7167 15.8451 23.3476 15.8986 23.7698 15.5425C24.1919 15.1864 24.2455 14.5555 23.8893 14.1334C22.6588 12.6746 21.0744 11.5223 19.2683 10.8089L18.0141 12.4812ZM20.8071 8.7572C22.5785 9.56577 24.1521 10.7331 25.4354 12.1669C25.8037 12.5785 26.4359 12.6135 26.8474 12.2452C27.259 11.8768 27.294 11.2446 26.9257 10.8331C25.5563 9.30316 23.896 8.03788 22.0318 7.12431L20.8071 8.7572ZM12.5 21.5C12.5 20.1193 13.6193 19 15 19C16.3807 19 17.5 20.1193 17.5 21.5C17.5 22.8807 16.3807 24 15 24C13.6193 24 12.5 22.8807 12.5 21.5Z" fill="#2B2B2C"/>
</svg>
