<svg width="18" height="18" viewBox="0 0 18 18" fill="none" xmlns="http://www.w3.org/2000/svg">
<path fill-rule="evenodd" clip-rule="evenodd" d="M13.4614 3.1933C13.546 2.9916 13.4903 2.75042 13.3104 2.608C13.0939 2.43659 12.7795 2.47316 12.6081 2.68967L11.5103 4.07634C10.7093 3.86349 9.86792 3.75002 9.00007 3.75002C6.11238 3.75002 3.51712 5.00635 1.7329 6.99983C1.45666 7.30848 1.48292 7.78263 1.79157 8.05887C2.10021 8.33512 2.57436 8.30885 2.85061 8.00021C4.36231 6.3112 6.55677 5.25002 9.00007 5.25002C9.50419 5.25002 9.99772 5.2952 10.4768 5.38174L9.75789 6.28989C9.50889 6.26354 9.25607 6.25003 9.0001 6.25003C6.81418 6.25003 4.85765 7.23532 3.55183 8.78331C3.28475 9.09992 3.3249 9.57309 3.64151 9.84017C3.95812 10.1072 4.43129 10.0671 4.69837 9.75049C5.64886 8.62372 7.03146 7.87684 8.59032 7.76472L7.64571 8.9579C6.7396 9.24362 5.95747 9.80815 5.40047 10.5495C5.15166 10.8807 5.21842 11.3508 5.54958 11.5996L5.55257 11.6019L3.10806 14.6897C2.93666 14.9062 2.97323 15.2206 3.18974 15.392C3.40624 15.5634 3.72071 15.5269 3.89211 15.3104L7.64091 10.575C7.6449 10.573 7.64889 10.571 7.65288 10.569L13.4614 3.1933ZM13.4508 4.82302L12.502 6.02779C13.5133 6.50256 14.4125 7.17677 15.1495 8.00021C15.4258 8.30885 15.8999 8.33512 16.2086 8.05887C16.5172 7.78263 16.5435 7.30848 16.2672 6.99983C15.4737 6.11317 14.5196 5.37234 13.4508 4.82302ZM11.8574 6.84629L10.8897 8.07512C11.8361 8.41252 12.6657 8.99644 13.3018 9.75049C13.5689 10.0671 14.0421 10.1072 14.3587 9.84017C14.6753 9.57309 14.7155 9.09992 14.4484 8.78331C13.7496 7.95489 12.8644 7.28763 11.8574 6.84629ZM10.225 8.91921L9.17281 10.2553C10.0828 10.3068 10.8843 10.7635 11.4005 11.4505C11.6493 11.7817 12.1194 11.8484 12.4506 11.5996C12.7818 11.3508 12.8485 10.8807 12.5997 10.5495C12.0163 9.77306 11.186 9.19058 10.225 8.91921ZM9.00009 11.5C8.17166 11.5 7.50009 12.1716 7.50009 13C7.50009 13.8284 8.17166 14.5 9.00009 14.5C9.82851 14.5 10.5001 13.8284 10.5001 13C10.5001 12.1716 9.82851 11.5 9.00009 11.5Z" fill="#2B2B2C"/>
</svg>
