<svg width="24" height="24" viewBox="0 0 24 24" fill="none" xmlns="http://www.w3.org/2000/svg">
<path fill-rule="evenodd" clip-rule="evenodd" d="M18.4249 3.26367C18.5589 3.04837 18.5105 2.76233 18.3054 2.60413C18.0868 2.43546 17.7728 2.47598 17.6041 2.69462L15.6989 5.1644C14.5273 4.81357 13.2857 4.62502 12.0001 4.62502C8.18687 4.62502 4.75993 6.28386 2.40368 8.91647C2.08139 9.27656 2.11204 9.82973 2.47212 10.152C2.83221 10.4743 3.38538 10.4437 3.70767 10.0836C5.74598 7.80619 8.70533 6.37502 12.0001 6.37502C12.8741 6.37502 13.7245 6.47573 14.5403 6.66622L13.3414 8.22033C12.9033 8.15753 12.4555 8.12502 12 8.12502C9.12383 8.12502 6.54955 9.42129 4.83119 11.4583C4.5196 11.8277 4.56644 12.3797 4.93582 12.6913C5.3052 13.0029 5.85723 12.9561 6.16883 12.5867C7.5689 10.927 9.66118 9.87502 12 9.87502L12.0647 9.87529L10.582 11.7974C9.25059 12.1275 8.0986 12.9116 7.30045 13.9739C7.01018 14.3603 7.08806 14.9088 7.47442 15.1991C7.58452 15.2818 7.70779 15.3346 7.8345 15.3589L4.10412 20.1946C3.93545 20.4133 3.97596 20.7272 4.19461 20.8959C4.41325 21.0646 4.72723 21.0241 4.8959 20.8054L5.33489 20.2364C5.34375 20.2221 5.35341 20.2082 5.36387 20.1946L18.4249 3.26367ZM17.6374 5.92174L16.5423 7.34127C17.9794 7.98483 19.2552 8.92463 20.2925 10.0836C20.6148 10.4437 21.168 10.4743 21.5281 10.152C21.8882 9.82973 21.9188 9.27656 21.5965 8.91647C20.4895 7.6796 19.1461 6.65767 17.6374 5.92174ZM15.4363 8.775L14.3125 10.2318C15.699 10.6725 16.9137 11.4991 17.8312 12.5867C18.1428 12.9561 18.6948 13.0029 19.0642 12.6913C19.4336 12.3797 19.4804 11.8277 19.1688 11.4583C18.1752 10.2804 16.8953 9.35012 15.4363 8.775ZM13.1507 11.7377L11.8865 13.3766C11.9242 13.3755 11.9621 13.375 12 13.375C13.3488 13.375 14.5464 14.0215 15.3005 15.0251C15.5907 15.4115 16.1392 15.4894 16.5256 15.1991C16.912 14.9088 16.9898 14.3603 16.6996 13.9739C15.8485 12.8411 14.595 12.0247 13.1507 11.7377ZM12 15C10.8954 15 10 15.8955 10 17C10 18.1046 10.8954 19 12 19C13.1046 19 14 18.1046 14 17C14 15.8955 13.1046 15 12 15Z" fill="#2B2B2C"/>
</svg>
