<svg width="18" height="18" viewBox="0 0 18 18" fill="none" xmlns="http://www.w3.org/2000/svg">
<path fill-rule="evenodd" clip-rule="evenodd" d="M13.4611 3.19364C13.5459 2.99187 13.4903 2.75049 13.3103 2.608C13.0938 2.43659 12.7793 2.47316 12.6079 2.68967L11.3405 4.29061C10.5918 4.10086 9.80762 4.00002 8.99995 4.00002C6.18632 4.00002 3.65786 5.22382 1.91906 7.16656C1.7349 7.37233 1.75241 7.68842 1.95817 7.87259C2.16394 8.05675 2.48004 8.03924 2.6642 7.83348C4.22132 6.09372 6.48258 5.00002 8.99995 5.00002C9.56522 5.00002 10.1176 5.05517 10.652 5.16039L9.57277 6.52357C9.3839 6.50798 9.19286 6.50003 8.99998 6.50003C6.89082 6.50003 5.00314 7.45042 3.74279 8.9445C3.56474 9.15558 3.59151 9.47103 3.80258 9.64908C4.01366 9.82713 4.3291 9.80036 4.50716 9.58929C5.54497 8.359 7.07708 7.56182 8.79701 7.50347L7.34836 9.33334C6.65085 9.62783 6.04848 10.103 5.60022 10.6997C5.43434 10.9205 5.47885 11.2339 5.69963 11.3998L5.70773 11.4057L3.10794 14.6897C2.93654 14.9062 2.9731 15.2206 3.18961 15.392C3.40612 15.5634 3.72058 15.5269 3.89199 15.3104L7.96171 10.1697C7.96427 10.1688 7.96682 10.1679 7.96938 10.1671L8.88702 9.00186C8.88675 9.00187 8.88648 9.00187 8.88621 9.00188L9.03832 8.80974L13.4611 3.19364ZM13.2931 5.02326L12.6606 5.82636C13.6812 6.31411 14.5893 6.99958 15.3357 7.83348C15.5199 8.03924 15.836 8.05675 16.0417 7.87259C16.2475 7.68842 16.265 7.37233 16.0808 7.16656C15.2967 6.2905 14.3521 5.56064 13.2931 5.02326ZM11.6974 7.04951L11.0525 7.86842C12.0083 8.22479 12.8464 8.82304 13.4928 9.58929C13.6708 9.80036 13.9863 9.82713 14.1974 9.64908C14.4084 9.47103 14.4352 9.15558 14.2572 8.9445C13.5689 8.12864 12.6937 7.47491 11.6974 7.04951ZM10.0567 9.13287L9.35817 10.0199C10.2732 10.1201 11.0741 10.6 11.6002 11.3004C11.7661 11.5211 12.0795 11.5656 12.3003 11.3998C12.5211 11.2339 12.5656 10.9205 12.3997 10.6997C11.8284 9.93922 11.0067 9.37603 10.0567 9.13287ZM8.49996 13C8.49996 12.7239 8.72382 12.5 8.99996 12.5C9.2761 12.5 9.49996 12.7239 9.49996 13C9.49996 13.2762 9.2761 13.5 8.99996 13.5C8.72382 13.5 8.49996 13.2762 8.49996 13ZM8.99996 11.5C8.17154 11.5 7.49996 12.1716 7.49996 13C7.49996 13.8284 8.17154 14.5 8.99996 14.5C9.82839 14.5 10.5 13.8284 10.5 13C10.5 12.1716 9.82839 11.5 8.99996 11.5Z" fill="#2B2B2C"/>
</svg>
