<svg width="30" height="30" viewBox="0 0 30 30" fill="none" xmlns="http://www.w3.org/2000/svg">
<path fill-rule="evenodd" clip-rule="evenodd" d="M22.9 4.30003C23.0657 4.07912 23.0209 3.76571 22.8 3.60003C22.5791 3.43434 22.2657 3.47912 22.1 3.70003L19.8054 6.75946C18.2925 6.26655 16.6773 6.00003 15 6.00003C10.4094 6.00003 6.28433 7.99633 3.44689 11.1666C3.26272 11.3723 3.28023 11.6884 3.486 11.8726C3.69176 12.0568 4.00786 12.0392 4.19202 11.8335C6.84779 8.86623 10.7056 7.00003 15 7.00003C16.4491 7.00003 17.8486 7.21254 19.1689 7.60817L16.8812 10.6585C16.2697 10.5543 15.6412 10.5 15 10.5C11.5871 10.5 8.53276 12.0375 6.4928 14.4557C6.31475 14.6668 6.34152 14.9823 6.55259 15.1603C6.76366 15.3384 7.07911 15.3116 7.25716 15.1005C9.11524 12.8979 11.8941 11.5 15 11.5C15.4051 11.5 15.8047 11.5238 16.1975 11.5701L13.4994 15.1675C11.9156 15.5271 10.5435 16.4436 9.60025 17.6991C9.43438 17.9199 9.47889 18.2333 9.69966 18.3992C9.92043 18.565 10.2339 18.5205 10.3997 18.2998C10.9309 17.5928 11.6207 17.0125 12.4162 16.6117L5.6 25.7C5.43431 25.9209 5.47908 26.2343 5.7 26.4C5.92091 26.5657 6.23431 26.5209 6.4 26.3L6.85 25.7L14.0688 16.075L14.8741 15.0012L17.3028 11.763L17.9528 10.8962L20.1649 7.94679L20.7875 7.11674L22.9 4.30003ZM21.7262 7.5317L21.114 8.34809C22.9083 9.18363 24.5032 10.3757 25.808 11.8335C25.9921 12.0392 26.3082 12.0568 26.514 11.8726C26.7197 11.6884 26.7373 11.3723 26.5531 11.1666C25.2053 9.6607 23.567 8.41969 21.7262 7.5317ZM18.9568 11.2244L18.3299 12.0602C20.0635 12.6636 21.5826 13.7252 22.7428 15.1005C22.9209 15.3116 23.2363 15.3384 23.4474 15.1603C23.6585 14.9823 23.6852 14.6668 23.5072 14.4557C22.3002 13.0249 20.7381 11.9025 18.9568 11.2244ZM16.0626 15.0832L15.3664 16.0115C17.0965 16.1202 18.619 16.9938 19.6003 18.2998C19.7661 18.5205 20.0796 18.565 20.3003 18.3992C20.5211 18.2333 20.5656 17.9199 20.3997 17.6991C19.3706 16.3292 17.8308 15.3629 16.0626 15.0832ZM13.5 21.5C13.5 20.6716 14.1716 20 15 20C15.8284 20 16.5 20.6716 16.5 21.5C16.5 22.3285 15.8284 23 15 23C14.1716 23 13.5 22.3285 13.5 21.5ZM15 19C13.6193 19 12.5 20.1193 12.5 21.5C12.5 22.8807 13.6193 24 15 24C16.3807 24 17.5 22.8807 17.5 21.5C17.5 20.1193 16.3807 19 15 19Z" fill="#2B2B2C"/>
</svg>
