<svg xmlns="http://www.w3.org/2000/svg" width="25" height="24" fill="none"><path fill="#2B2B2C" fill-rule="evenodd" d="M20.382 2.834a.5.5 0 0 0-.786-.617l-1.922 2.445c-.31-.838-.933-1.45-1.726-1.573-1.306-.203-2.578.999-2.84 2.684-.211 1.366.305 2.63 1.204 3.169l-1.147 1.46a6.956 6.956 0 0 0-.691-.024c-2.26 0-3.927 1.057-5.013 2.508-1.075 1.437-1.586 3.261-1.586 4.855 0 .578.146 1.057.406 1.422l-1.66 2.114a.5.5 0 1 0 .786.618l14.975-19.06ZM6.956 18.304l5.442-6.926c-1.868.023-3.227.893-4.136 2.107-.932 1.246-1.387 2.854-1.387 4.256 0 .227.03.412.081.563ZM16.92 5.622 14.918 8.17c-.518-.244-1.05-1.034-.86-2.25.217-1.4 1.17-1.972 1.743-1.884.463.072 1.034.632 1.12 1.585Z" clip-rule="evenodd"/><path fill="#2B2B2C" d="M12.474 17.947c-1.374 0-2.387.371-3.292.709L8.148 19.97c.27-.017.538-.074.79-.162.205-.071.403-.145.598-.217.903-.334 1.741-.645 2.938-.645a.5.5 0 0 0 .05-.002.5.5 0 0 0 .051.002c1.197 0 2.035.31 2.938.645.195.072.393.146.598.217.645.225 1.397.248 2.015-.082.652-.35 1.048-1.034 1.048-1.986 0-1.594-.511-3.418-1.586-4.855-.604-.806-1.386-1.49-2.349-1.94l-.638.813c.906.37 1.63.984 2.186 1.726.932 1.246 1.387 2.854 1.387 4.256 0 .652-.25.96-.52 1.104-.304.163-.751.181-1.214.02-.177-.062-.357-.129-.54-.197-.914-.34-1.934-.72-3.325-.72-.017 0-.034 0-.05.002a.532.532 0 0 0-.051-.003Z"/><path fill="#2B2B2C" fill-rule="evenodd" d="M9.042 3.089c1.307-.203 2.578.999 2.84 2.684.261 1.686-.586 3.217-1.893 3.42-1.307.202-2.578-1-2.84-2.685-.261-1.686.586-3.216 1.893-3.42Zm.147.948c.573-.088 1.527.483 1.744 1.884.217 1.4-.519 2.234-1.091 2.323-.572.089-1.527-.483-1.744-1.883-.217-1.4.519-2.235 1.091-2.324ZM18.417 8.661c.74-1.28 2.144-1.854 3.137-1.28.993.573 1.199 2.076.46 3.357-.74 1.28-2.144 1.854-3.137 1.28-.993-.573-1.199-2.076-.46-3.357Zm.832.48c.595-1.03 1.476-1.13 1.825-.929.35.202.703 1.015.108 2.046-.595 1.03-1.476 1.131-1.825.93-.35-.203-.703-1.016-.108-2.046ZM3.446 7.38c.993-.573 2.398 0 3.137 1.281.74 1.281.534 2.784-.46 3.358-.993.573-2.397 0-3.136-1.281-.74-1.28-.534-2.784.46-3.357Zm.48.832c.35-.202 1.23-.101 1.826.93.595 1.03.241 1.843-.108 2.045-.35.202-1.231.102-1.826-.929-.595-1.03-.242-1.844.108-2.046Z" clip-rule="evenodd"/></svg>