<svg xmlns="http://www.w3.org/2000/svg" width="30" height="30" fill="none"><path fill="#2B2B2C" fill-rule="evenodd" d="M18.257 13.676 9.539 24.772c.329-.02.657-.089.967-.197.253-.088.498-.179.74-.269 1.131-.419 2.201-.815 3.721-.815a.512.512 0 0 0 .063-.004c.021.002.043.004.064.004 1.52 0 2.59.396 3.72.815.243.09.488.181.741.27.784.272 1.686.296 2.419-.096.767-.411 1.243-1.22 1.243-2.373 0-1.968-.631-4.22-1.957-5.993-.767-1.024-1.766-1.887-3.003-2.438ZM6.783 26.671l-.433.55a.5.5 0 1 1-.786-.617l1.985-2.527c-.445-.454-.705-1.118-.705-1.97 0-1.968.631-4.22 1.957-5.993 1.338-1.786 3.385-3.085 6.166-3.085.021 0 .043.001.063.004a.512.512 0 0 1 .064-.004c.374 0 .735.023 1.082.068l1.328-1.69c-1.352-.584-2.163-2.354-1.865-4.278.34-2.194 1.997-3.76 3.698-3.495 1.148.178 2.024 1.143 2.368 2.427l2.579-3.282a.5.5 0 0 1 .83.55L6.829 26.604a.501.501 0 0 0-.045.067Zm3.87-23.037c1.702-.264 3.357 1.3 3.698 3.495.34 2.194-.763 4.188-2.465 4.452-1.701.264-3.357-1.301-3.698-3.496-.34-2.194.763-4.187 2.465-4.451Zm11.649 7.072c.962-1.667 2.791-2.414 4.085-1.667 1.293.746 1.56 2.704.598 4.371-.963 1.668-2.792 2.414-4.085 1.668-1.293-.747-1.561-2.704-.598-4.372ZM3.614 9.04c1.293-.747 3.122 0 4.084 1.667.963 1.668.695 3.625-.598 4.372-1.293.746-3.122 0-4.085-1.668-.962-1.667-.695-3.625.599-4.371Z" clip-rule="evenodd"/></svg>