<svg xmlns="http://www.w3.org/2000/svg" width="19" height="18" fill="none"><path fill="#2B2B2C" fill-rule="evenodd" d="M15.567 2.068a.5.5 0 0 0-.845-.525l-1.447 1.842c-.218-.585-.655-1.01-1.21-1.097-.919-.142-1.813.703-1.997 1.888-.148.956.212 1.842.84 2.223l-.872 1.11a5.341 5.341 0 0 0-.557-.022c-1.739 0-3.024.815-3.859 1.932-.824 1.101-1.214 2.496-1.214 3.715 0 .452.113.835.321 1.131L3.491 15.84a.5.5 0 0 0 .786.617l.412-.524a.505.505 0 0 1 .058-.093l10.82-13.771Zm-9.146 7.95c.634-.849 1.567-1.463 2.842-1.526l-3.838 4.885a1.418 1.418 0 0 1-.02-.243c0-1.027.335-2.206 1.016-3.116Zm5.056-4.344 1.053-1.34c.039-.765-.391-1.124-.603-1.156-.23-.036-.827.218-.97 1.136-.13.843.275 1.269.52 1.36Z" clip-rule="evenodd"/><path fill="#2B2B2C" d="m12.05 8.163-.624.793c.475.268.87.635 1.188 1.062.681.91 1.015 2.089 1.015 3.116 0 .452-.168.635-.323.718-.19.101-.486.12-.81.008-.13-.046-.263-.095-.4-.146-.685-.256-1.473-.55-2.54-.55a.48.48 0 0 0-.038.002 5.715 5.715 0 0 0-1.56.206l-1.14 1.448.05-.016c.158-.055.31-.111.457-.166.675-.25 1.281-.474 2.154-.474l.039-.001.038.001c.873 0 1.479.224 2.155.474.147.055.298.11.455.166.507.176 1.11.199 1.612-.07.537-.287.851-.848.851-1.6 0-1.219-.39-2.614-1.214-3.715a4.893 4.893 0 0 0-1.365-1.256Z"/><path fill="#2B2B2C" fill-rule="evenodd" d="M8.924 4.176C8.74 2.99 7.846 2.146 6.927 2.288c-.919.143-1.515 1.22-1.331 2.404.184 1.185 1.078 2.03 1.997 1.887.919-.142 1.515-1.218 1.33-2.403Zm-.89.138c-.142-.918-.739-1.172-.97-1.136-.23.035-.721.459-.579 1.376.143.917.74 1.172.97 1.136.23-.036.722-.459.58-1.376ZM16.228 5.473c-.698-.403-1.686 0-2.206.9-.52.901-.375 1.958.323 2.361.699.403 1.687 0 2.207-.9.52-.9.375-1.958-.324-2.361Zm-.83.795c-.199.081-.428.264-.596.556a1.285 1.285 0 0 0-.183.794c.029.212.117.302.177.337.06.034.181.065.38-.015.199-.082.428-.265.596-.556.168-.292.212-.582.183-.795-.029-.212-.117-.302-.177-.336-.06-.035-.181-.066-.38.015ZM4.978 6.374c-.52-.901-1.508-1.304-2.206-.901-.699.403-.844 1.46-.324 2.36.52.901 1.508 1.304 2.206.901.699-.403.843-1.46.324-2.36Zm-.78.45a1.285 1.285 0 0 0-.597-.556c-.198-.081-.32-.05-.38-.015-.06.034-.147.124-.176.336-.03.213.015.503.183.795.168.291.397.474.597.556.198.08.32.05.38.015s.147-.125.176-.337a1.285 1.285 0 0 0-.183-.794Z" clip-rule="evenodd"/></svg>