<svg xmlns="http://www.w3.org/2000/svg" width="30" height="30" fill="none"><path fill="#2B2B2C" fill-rule="evenodd" d="M15.028 13.316a.493.493 0 0 0-.063-.004c-2.786 0-4.836 1.301-6.175 3.09-1.328 1.776-1.96 4.032-1.96 6.003 0 1.154.476 1.964 1.245 2.375.734.393 1.637.37 2.421.096.253-.089.499-.18.742-.27 1.133-.42 2.205-.817 3.727-.817a.493.493 0 0 0 .063-.004c.021.003.042.005.064.005 1.522 0 2.594.397 3.727.817.243.09.488.18.741.269.785.273 1.688.297 2.422-.096.768-.411 1.245-1.22 1.245-2.375 0-1.971-.632-4.227-1.96-6.002-1.34-1.79-3.39-3.09-6.175-3.09a.493.493 0 0 0-.064.003Zm0 9.478a.512.512 0 0 1 .064-.005c1.716 0 2.97.467 4.113.893.232.086.46.17.685.25.602.21 1.2.191 1.62-.034.386-.206.717-.638.717-1.493 0-1.78-.576-3.82-1.761-5.403-1.174-1.57-2.942-2.69-5.374-2.69a.512.512 0 0 1-.064-.004.512.512 0 0 1-.063.004c-2.433 0-4.2 1.12-5.374 2.69-1.185 1.583-1.762 3.623-1.762 5.403 0 .855.331 1.287.717 1.493.42.225 1.019.243 1.621.034.226-.08.453-.164.684-.25 1.143-.425 2.398-.892 4.114-.892.021 0 .043 0 .063.004ZM19.19 4.889c-.939-.146-2.267.765-2.562 2.666-.294 1.9.695 3.171 1.634 3.317.94.146 2.268-.765 2.563-2.666.295-1.9-.695-3.171-1.634-3.317Zm.154-.988c-1.704-.265-3.363 1.303-3.704 3.5-.34 2.198.765 4.195 2.469 4.46 1.704.264 3.363-1.304 3.704-3.502.34-2.197-.764-4.194-2.469-4.458ZM10.8 4.889c.94-.146 2.267.765 2.562 2.666.295 1.9-.694 3.171-1.634 3.317-.94.146-2.268-.765-2.562-2.666-.295-1.9.694-3.171 1.633-3.317Zm-.154-.988c1.704-.265 3.363 1.303 3.704 3.5.341 2.198-.764 4.195-2.469 4.46-1.704.264-3.363-1.304-3.704-3.502-.34-2.197.765-4.194 2.47-4.458ZM25.904 10.18c-.625-.36-1.912-.104-2.725 1.305-.814 1.41-.392 2.651.233 3.012.625.361 1.911.106 2.725-1.304.814-1.41.392-2.651-.233-3.012Zm.5-.865c-1.295-.748-3.127 0-4.091 1.67-.965 1.67-.696 3.63.599 4.378 1.295.748 3.127 0 4.091-1.67.964-1.67.696-3.63-.6-4.378ZM4.096 10.18c.625-.36 1.912-.104 2.725 1.305.814 1.41.392 2.651-.233 3.012-.625.361-1.911.106-2.725-1.304-.814-1.41-.392-2.651.233-3.012Zm-.5-.865c1.295-.748 3.127 0 4.091 1.67.965 1.67.696 3.63-.599 4.378-1.295.748-3.127 0-4.091-1.67-.964-1.67-.696-3.63.6-4.378Z" clip-rule="evenodd"/><path fill="#2B2B2C" fill-rule="evenodd" d="M10.442 19.11a.5.5 0 0 1-.283-.648c.052-.134.287-.693.763-1.291.476-.6 1.214-1.262 2.277-1.547a.5.5 0 1 1 .258.966c-.79.212-1.361.71-1.753 1.203a4.337 4.337 0 0 0-.614 1.034.5.5 0 0 1-.648.283Z" clip-rule="evenodd"/></svg>