<svg xmlns="http://www.w3.org/2000/svg" width="30" height="30" fill="none"><path fill="#2B2B2C" fill-rule="evenodd" d="M25.115 3.398a.5.5 0 0 0-.831-.55l-2.578 3.28c-.344-1.282-1.22-2.247-2.368-2.425-1.701-.264-3.357 1.3-3.698 3.495-.298 1.924.513 3.693 1.864 4.278l-1.329 1.692a8.414 8.414 0 0 0-1.082-.069.512.512 0 0 0-.063.004.512.512 0 0 0-.064-.004c-2.78 0-4.828 1.299-6.165 3.086-1.326 1.772-1.958 4.025-1.958 5.993 0 .851.26 1.515.705 1.97l-1.984 2.525a.5.5 0 1 0 .786.618l.433-.551a.502.502 0 0 1 .045-.067L25.115 3.398Zm-9.678 10.709a7.783 7.783 0 0 0-.344-.008.493.493 0 0 1-.063-.004.493.493 0 0 1-.064.004c-2.428 0-4.192 1.118-5.365 2.685-1.182 1.58-1.758 3.617-1.758 5.394 0 .545.135.918.333 1.17l7.261-9.241Zm5.428-6.909-2.705 3.444c-.906-.216-1.816-1.46-1.532-3.29.295-1.898 1.62-2.806 2.557-2.66.797.123 1.632 1.06 1.68 2.506Z" clip-rule="evenodd"/><path fill="#2B2B2C" d="m18.256 13.746-.64.816c1.181.468 2.123 1.26 2.842 2.222 1.183 1.58 1.759 3.617 1.759 5.394 0 .853-.33 1.284-.716 1.49-.42.225-1.016.243-1.617.033-.225-.078-.452-.163-.683-.249-1.142-.425-2.394-.89-4.108-.89a.493.493 0 0 0-.063.003.493.493 0 0 0-.064-.004c-1.713 0-2.966.466-4.107.891l-.324.12-.997 1.27c.329-.02.657-.088.967-.197.253-.087.497-.178.739-.268 1.132-.42 2.203-.816 3.722-.816a.512.512 0 0 0 .064-.004c.02.003.042.004.063.004 1.52 0 2.59.397 3.721.816.242.09.488.18.74.268.784.274 1.686.297 2.419-.095.767-.41 1.244-1.22 1.244-2.372 0-1.968-.632-4.22-1.958-5.993-.766-1.024-1.766-1.888-3.003-2.439Z"/><path fill="#2B2B2C" fill-rule="evenodd" d="M10.654 3.703c1.701-.264 3.357 1.3 3.698 3.495.34 2.194-.763 4.188-2.465 4.452-1.702.264-3.357-1.301-3.698-3.496-.34-2.194.763-4.187 2.465-4.451Zm.153.988c.937-.145 2.262.763 2.556 2.66.295 1.897-.692 3.165-1.63 3.31-.936.146-2.261-.763-2.556-2.66-.294-1.897.693-3.165 1.63-3.31ZM22.302 10.775c.963-1.668 2.791-2.414 4.085-1.668 1.293.747 1.56 2.704.598 4.372-.963 1.667-2.792 2.414-4.085 1.667-1.293-.747-1.56-2.704-.598-4.371Zm.866.5c.812-1.407 2.096-1.661 2.719-1.302.622.36 1.044 1.599.232 3.006-.812 1.407-2.096 1.66-2.719 1.301-.623-.36-1.044-1.598-.232-3.005ZM3.614 9.107c1.293-.746 3.122 0 4.084 1.668.963 1.667.695 3.624-.598 4.371-1.293.747-3.122 0-4.085-1.667-.962-1.668-.695-3.625.599-4.372Zm.5.866c.622-.36 1.906-.105 2.718 1.302.813 1.407.39 2.646-.232 3.005-.623.36-1.906.106-2.719-1.301-.812-1.407-.39-2.646.233-3.006Z" clip-rule="evenodd"/></svg>