<svg xmlns="http://www.w3.org/2000/svg" width="25" height="24" fill="none"><path fill="#2B2B2C" fill-rule="evenodd" d="M15.948 2.988c-1.306-.202-2.578 1-2.84 2.685-.26 1.685.587 3.216 1.893 3.419 1.307.203 2.579-1 2.84-2.685.261-1.685-.586-3.216-1.893-3.419Zm-.147.949c-.572-.089-1.527.483-1.744 1.883-.217 1.4.52 2.234 1.091 2.323.573.09 1.527-.483 1.744-1.883.218-1.4-.518-2.234-1.09-2.323Z" clip-rule="evenodd"/><path fill="#2B2B2C" d="M8.793 15.466a.5.5 0 0 1-.283-.648 4.36 4.36 0 0 1 .625-1.059c.39-.49.997-1.036 1.874-1.271a.5.5 0 0 1 .259.966c-.606.162-1.046.545-1.35.928a3.373 3.373 0 0 0-.477.802.5.5 0 0 1-.648.282Z"/><path fill="#2B2B2C" fill-rule="evenodd" d="M12.521 10.28a.5.5 0 0 0-.05-.003c-2.26 0-3.927 1.058-5.013 2.509-1.075 1.437-1.586 3.26-1.586 4.854 0 .953.396 1.637 1.048 1.986.618.33 1.37.308 2.015.083.205-.072.403-.145.597-.217.904-.335 1.742-.645 2.939-.645a.5.5 0 0 0 .05-.003.502.502 0 0 0 .051.003c1.197 0 2.035.31 2.938.645.195.072.393.145.598.217.645.225 1.397.248 2.015-.083.652-.349 1.048-1.033 1.048-1.986 0-1.593-.511-3.417-1.586-4.854-1.086-1.451-2.752-2.509-5.013-2.509-.017 0-.034.001-.05.003Zm0 7.57a.502.502 0 0 1 .051-.003c1.39 0 2.411.38 3.324.72.184.069.364.136.541.198.463.16.91.142 1.214-.02.27-.145.52-.452.52-1.105 0-1.402-.455-3.01-1.387-4.255-.921-1.231-2.304-2.108-4.212-2.108-.017 0-.034 0-.05-.002a.5.5 0 0 1-.051.002c-1.908 0-3.29.877-4.212 2.108-.932 1.246-1.387 2.853-1.387 4.255 0 .653.25.96.52 1.104.304.163.751.182 1.214.02.177-.061.357-.128.54-.197.914-.34 1.934-.72 3.325-.72a.5.5 0 0 1 .05.002ZM11.882 5.673c-.262-1.685-1.533-2.887-2.84-2.685-1.307.203-2.154 1.734-1.893 3.42.262 1.685 1.533 2.887 2.84 2.684 1.307-.203 2.154-1.734 1.893-3.42Zm-.949.147c-.217-1.4-1.171-1.972-1.744-1.883-.572.089-1.308.923-1.091 2.323.217 1.4 1.171 1.972 1.744 1.883.572-.089 1.308-.923 1.091-2.323ZM21.554 7.284c-.993-.573-2.397 0-3.137 1.281-.74 1.28-.533 2.784.46 3.357.993.574 2.397 0 3.137-1.28.739-1.281.533-2.784-.46-3.358Zm-.48.832c-.35-.202-1.23-.101-1.825.93-.595 1.03-.242 1.843.108 2.045.35.202 1.23.101 1.825-.93.595-1.03.242-1.843-.108-2.045ZM6.583 8.565c-.74-1.28-2.144-1.854-3.137-1.28-.993.573-1.199 2.076-.46 3.357.74 1.28 2.144 1.854 3.137 1.28.993-.573 1.2-2.076.46-3.357Zm-.831.48c-.595-1.03-1.476-1.131-1.826-.93-.35.203-.703 1.016-.108 2.047.595 1.03 1.476 1.13 1.825.929.35-.202.703-1.015.109-2.046Z" clip-rule="evenodd"/></svg>