<svg xmlns="http://www.w3.org/2000/svg" width="30" height="30" fill="none"><path fill="#2B2B2C" d="M15.64 7.151c.341-2.197 2-3.765 3.704-3.5 1.704.264 2.81 2.26 2.469 4.458-.341 2.198-2 3.766-3.704 3.501-1.704-.264-2.81-2.26-2.469-4.459ZM15.03 13.066a.493.493 0 0 0-.064-.004c-2.786 0-4.836 1.301-6.175 3.09-1.329 1.776-1.96 4.032-1.96 6.003 0 1.154.476 1.964 1.244 2.375.734.393 1.637.37 2.422.096.253-.089.499-.18.741-.27 1.133-.42 2.205-.817 3.728-.817a.493.493 0 0 0 .063-.004c.02.003.042.005.064.005 1.522 0 2.594.397 3.727.817.242.09.488.18.741.269.785.273 1.688.297 2.422-.096.768-.411 1.245-1.22 1.245-2.375 0-1.971-.632-4.227-1.96-6.002-1.34-1.79-3.39-3.09-6.175-3.09a.493.493 0 0 0-.064.003ZM14.35 7.151c-.341-2.197-2-3.765-3.704-3.5-1.704.264-2.81 2.26-2.469 4.458.341 2.198 2 3.766 3.704 3.501 1.705-.264 2.81-2.26 2.469-4.459ZM22.313 10.735c.964-1.67 2.796-2.418 4.09-1.67 1.296.748 1.564 2.708.6 4.378-.964 1.67-2.796 2.418-4.091 1.67-1.295-.747-1.564-2.708-.6-4.378ZM7.687 10.735c-.964-1.67-2.796-2.418-4.09-1.67-1.296.748-1.564 2.708-.6 4.378.964 1.67 2.796 2.418 4.091 1.67 1.295-.747 1.564-2.708.6-4.378Z"/><path fill="#fff" fill-rule="evenodd" d="M10.442 18.86a.5.5 0 0 1-.283-.648c.052-.134.287-.693.763-1.291.476-.6 1.214-1.262 2.277-1.547a.5.5 0 1 1 .258.966c-.79.212-1.361.71-1.753 1.203a4.337 4.337 0 0 0-.614 1.034.5.5 0 0 1-.648.283Z" clip-rule="evenodd"/></svg>