<svg xmlns="http://www.w3.org/2000/svg" width="19" height="18" fill="none"><path fill="#2B2B2C" fill-rule="evenodd" d="m11.945 8.163-5.23 6.657.049-.016c.157-.055.308-.111.456-.166.675-.25 1.281-.474 2.155-.474l.038-.001.038.001c.873 0 1.479.224 2.155.474.148.055.298.11.456.166.506.176 1.108.199 1.61-.07.537-.287.853-.848.853-1.6 0-1.219-.39-2.614-1.215-3.715a4.893 4.893 0 0 0-1.365-1.256Zm-7.36 7.769-.413.524a.5.5 0 0 1-.786-.617l1.236-1.574c-.207-.296-.321-.679-.321-1.13 0-1.22.39-2.615 1.214-3.716.835-1.117 2.12-1.932 3.86-1.932l.038.001a5.337 5.337 0 0 1 .518.02l.872-1.11c-.628-.38-.988-1.266-.84-2.222.185-1.185 1.079-2.03 1.998-1.888.554.086.991.512 1.21 1.097l1.447-1.842a.5.5 0 0 1 .844.525l-10.82 13.77a.505.505 0 0 0-.058.094ZM8.818 4.176c-.184-1.185-1.078-2.03-1.997-1.888-.919.143-1.515 1.22-1.33 2.404.183 1.185 1.077 2.03 1.996 1.887.92-.142 1.515-1.218 1.331-2.403Zm5.099 2.198c.52-.901 1.508-1.304 2.206-.901s.843 1.46.323 2.36c-.52.901-1.508 1.304-2.206.901s-.843-1.46-.323-2.36Zm-9.045 0c-.52-.901-1.508-1.304-2.206-.901s-.843 1.46-.323 2.36c.52.901 1.507 1.304 2.206.901.698-.403.843-1.46.323-2.36Z" clip-rule="evenodd"/></svg>