<svg xmlns="http://www.w3.org/2000/svg" width="30" height="30" fill="none"><path fill="#2B2B2C" fill-rule="evenodd" d="M13.49 20.922c.377-.087.715-.377.934-.674v-1.425H12.86c-.38 0-.747-.32-.706-.762v-.002a2.78 2.78 0 0 1 2.77-2.508 2.78 2.78 0 0 1 2.77 2.508v.002c.04.442-.327.762-.706.762h-1.564v1.427c.218.296.556.585.932.672.361.083.908.01 1.587-.832a.5.5 0 1 1 .778.628c-.846 1.05-1.753 1.37-2.59 1.178-.493-.113-.901-.394-1.208-.7-.306.306-.715.587-1.208.7-.836.193-1.744-.129-2.59-1.178a.5.5 0 1 1 .778-.628c.68.843 1.226.915 1.588.832Zm3.144-3.099h-3.42c.216-.734.9-1.272 1.71-1.272.81 0 1.493.538 1.71 1.273Z" clip-rule="evenodd"/><path fill="#2B2B2C" d="M12.376 14.294a.5.5 0 0 1-.685-.176 2.412 2.412 0 0 0-.407-.495c-.246-.227-.54-.396-.868-.396-.325 0-.617.166-.862.39-.241.223-.388.46-.412.5a.5.5 0 1 1-.86-.512c.049-.08.254-.41.596-.724.34-.312.863-.654 1.538-.654.681 0 1.208.348 1.547.662.343.318.546.647.59.72a.5.5 0 0 1-.178.685ZM20.703 14.118a.5.5 0 1 0 .862-.508 3.398 3.398 0 0 0-.589-.72c-.34-.315-.866-.663-1.547-.663-.675 0-1.2.342-1.539.654a3.406 3.406 0 0 0-.595.724.5.5 0 1 0 .86.511c.023-.039.17-.276.412-.499.245-.224.537-.39.862-.39.327 0 .622.169.868.396.242.225.388.463.406.495ZM5.415 9.004a.5.5 0 0 1-.302-.64c.032-.088.17-.45.446-.824.274-.371.723-.806 1.385-.935a.5.5 0 1 1 .191.981c-.319.062-.574.28-.771.547a2.417 2.417 0 0 0-.31.569.5.5 0 0 1-.639.302ZM25.122 8.364a.5.5 0 1 1-.942.338 2.419 2.419 0 0 0-.309-.569c-.197-.267-.452-.485-.771-.547a.5.5 0 1 1 .19-.981c.663.129 1.113.564 1.386.935.276.374.414.736.446.824Z"/><path fill="#2B2B2C" fill-rule="evenodd" d="M22.386 4.205a5.102 5.102 0 0 0-3.86 1.76A10.206 10.206 0 0 0 15 5.342c-1.24 0-2.427.22-3.525.623a5.113 5.113 0 1 0-6.528 7.717 10.284 10.284 0 0 0-.174 1.886c0 5.648 4.579 10.227 10.227 10.227 5.648 0 10.226-4.579 10.226-10.227 0-.644-.06-1.275-.173-1.886a5.113 5.113 0 0 0-2.667-9.477ZM10.72 6.621l.452.52.647-.237A9.206 9.206 0 0 1 15 6.341c1.12 0 2.191.2 3.181.563l.648.238.452-.52a4.113 4.113 0 1 1 5.25 6.208l-.586.359.126.676a9.227 9.227 0 1 1-18.14 0l.126-.676-.587-.36a4.113 4.113 0 1 1 5.25-6.208Z" clip-rule="evenodd"/></svg>