<svg xmlns="http://www.w3.org/2000/svg" width="19" height="19" fill="none"><path fill="#2B2B2C" fill-rule="evenodd" d="m7.082 5.522-.452-.52a2.068 2.068 0 1 0-2.64 3.121l.587.36-.126.676a5.136 5.136 0 1 0 10.097 0l-.126-.677.587-.36a2.068 2.068 0 1 0-2.64-3.121l-.452.52-.647-.237a5.124 5.124 0 0 0-1.77-.313c-.624 0-1.22.111-1.77.313l-.648.238Zm.303-1.176A6.124 6.124 0 0 1 9.5 3.97c.743 0 1.456.132 2.115.375a3.068 3.068 0 1 1 3.917 4.63 6.136 6.136 0 1 1-12.064 0 3.068 3.068 0 1 1 3.917-4.63Z" clip-rule="evenodd"/><path fill="#2B2B2C" fill-rule="evenodd" d="M8.23 9.453a.5.5 0 0 1-.691-.15s-.016-.023-.043-.057a.935.935 0 0 0-.116-.117.47.47 0 0 0-.296-.13.467.467 0 0 0-.295.128.907.907 0 0 0-.16.177.5.5 0 1 1-.84-.545c.033-.05.155-.228.357-.398A1.46 1.46 0 0 1 7.084 8c.42 0 .742.196.943.367.202.171.322.35.352.396a.5.5 0 0 1-.149.69ZM13.062 9.453a.5.5 0 0 1-.692-.15s-.015-.023-.043-.057a.942.942 0 0 0-.115-.117.47.47 0 0 0-.297-.13.467.467 0 0 0-.294.128.904.904 0 0 0-.161.177.5.5 0 0 1-.839-.545c.033-.05.154-.228.356-.398A1.46 1.46 0 0 1 11.915 8c.42 0 .742.196.943.367.202.171.323.35.353.396a.5.5 0 0 1-.15.69ZM9.75 12.163a.5.5 0 0 0-.683.183c-.006.011-.08.136-.203.251-.126.12-.25.18-.364.18-.114 0-.237-.06-.362-.177a1.246 1.246 0 0 1-.206-.254.5.5 0 1 0-.864.503c.033.056.164.272.385.48.218.204.574.449 1.047.449.476 0 .835-.249 1.052-.455.22-.209.351-.425.381-.477a.5.5 0 0 0-.183-.683Z" clip-rule="evenodd"/><path fill="#2B2B2C" fill-rule="evenodd" d="M11.75 12.163a.5.5 0 0 0-.683.183c-.006.011-.08.136-.203.251-.126.12-.25.18-.364.18-.114 0-.237-.06-.362-.177a1.244 1.244 0 0 1-.206-.254.5.5 0 1 0-.864.503c.033.056.164.272.385.48.218.204.574.449 1.047.449.476 0 .835-.249 1.052-.455.22-.209.351-.425.381-.477a.5.5 0 0 0-.183-.683Z" clip-rule="evenodd"/><path fill="#2B2B2C" fill-rule="evenodd" d="M9 12.596v-1.849h1v1.849H9Z" clip-rule="evenodd"/><path fill="#2B2B2C" fill-rule="evenodd" d="M10.584 11.285a.5.5 0 0 1-.706-.04v.001s-.039-.042-.108-.084a.517.517 0 0 0-.27-.08.516.516 0 0 0-.269.079c-.07.042-.11.085-.11.085a.5.5 0 1 1-.742-.67c.056-.061.46-.494 1.12-.494.667 0 1.073.44 1.124.497a.5.5 0 0 1-.04.706Z" clip-rule="evenodd"/></svg>