<svg xmlns="http://www.w3.org/2000/svg" width="24" height="24" fill="none"><path fill="#2B2B2C" fill-rule="evenodd" d="M9.18 4.772a4.09 4.09 0 1 0-5.222 6.173 8.181 8.181 0 1 0 16.085 0 4.09 4.09 0 1 0-5.222-6.173c-.88-.323-1.83-.499-2.82-.499-.992 0-1.942.176-2.821.5Z" clip-rule="evenodd"/><path fill="#fff" d="M4.298 7.297a.5.5 0 0 1-.301-.64c.026-.075.141-.374.37-.685.226-.307.605-.677 1.17-.787a.5.5 0 1 1 .19.982c-.22.043-.405.196-.555.399-.148.2-.224.4-.234.43a.5.5 0 0 1-.64.301ZM9.951 11.522a.5.5 0 0 1-.684-.177 1.829 1.829 0 0 0-.308-.373c-.187-.173-.4-.29-.626-.29-.225 0-.435.114-.622.285-.183.17-.295.35-.31.377a.5.5 0 0 1-.86-.51c.04-.07.21-.342.494-.603.28-.258.723-.549 1.298-.549.58 0 1.025.296 1.306.556.284.263.452.536.49.599a.5.5 0 0 1-.178.685Z"/><path fill="#fff" fill-rule="evenodd" d="M11.939 12.34c-1.208 0-2.203.816-2.315 1.861v.002c-.039.37.308.638.664.638h1.15v1.324c-.165.216-.408.415-.668.475-.242.055-.643.023-1.17-.63a.5.5 0 0 0-.778.627c.694.86 1.456 1.142 2.173.977.379-.087.697-.29.944-.519.246.23.564.432.944.52.716.165 1.478-.118 2.172-.978a.5.5 0 0 0-.778-.628c-.527.654-.928.687-1.17.63-.26-.059-.502-.258-.668-.473v-1.325h1.151c.356 0 .703-.267.664-.638V14.2c-.112-1.045-1.107-1.86-2.315-1.86Zm0 .888c.555 0 1.029.3 1.227.726h-2.454c.198-.426.672-.726 1.227-.726Z" clip-rule="evenodd"/><path fill="#fff" d="M16.477 11.345a.5.5 0 0 0 .861-.508 2.817 2.817 0 0 0-.489-.599c-.28-.26-.726-.556-1.306-.556-.575 0-1.017.291-1.298.55-.284.26-.453.533-.494.601a.5.5 0 1 0 .86.511c.015-.027.127-.208.31-.377.187-.17.398-.285.622-.285.227 0 .44.117.627.29.184.17.294.352.307.373ZM20.192 6.658a.5.5 0 1 1-.942.337 1.838 1.838 0 0 0-.233-.429c-.15-.203-.335-.356-.556-.399a.5.5 0 1 1 .19-.982c.565.11.944.48 1.17.787.23.31.344.61.37.686Z"/></svg>