<svg xmlns="http://www.w3.org/2000/svg" width="19" height="19" fill="none"><path fill="#2B2B2C" fill-rule="evenodd" d="M9.395 3.971c-.743 0-1.455.132-2.115.375a3.068 3.068 0 1 0-3.917 4.63 6.136 6.136 0 1 0 12.064 0 3.068 3.068 0 1 0-3.917-4.63 6.124 6.124 0 0 0-2.115-.375Zm-1.96 5.333a.5.5 0 0 0 .84-.542 1.887 1.887 0 0 0-.353-.396 1.462 1.462 0 0 0-.943-.367 1.46 1.46 0 0 0-.938.362c-.202.17-.323.348-.356.398a.5.5 0 1 0 .839.545.907.907 0 0 1 .16-.177.467.467 0 0 1 .295-.128.47.47 0 0 1 .297.13.937.937 0 0 1 .158.175Zm4.83 0a.5.5 0 1 0 .841-.542 1.887 1.887 0 0 0-.352-.396 1.463 1.463 0 0 0-.943-.367 1.46 1.46 0 0 0-.938.362c-.202.17-.324.348-.356.398a.5.5 0 0 0 .838.545.904.904 0 0 1 .161-.177.467.467 0 0 1 .295-.128.47.47 0 0 1 .296.13c.048.04.087.082.116.117.027.034.042.057.043.058Zm-2.37 2.041v1.1c.035.046.082.102.139.155.125.118.247.178.361.178.115 0 .239-.061.365-.18.122-.117.196-.241.203-.252a.5.5 0 0 1 .866.5c-.03.052-.16.268-.382.477-.217.206-.575.455-1.052.455-.44 0-.78-.212-1-.407-.22.195-.56.407-1 .407-.472 0-.829-.245-1.046-.45a2.24 2.24 0 0 1-.386-.48.5.5 0 0 1 .865-.502c.009.016.084.14.206.254.125.118.247.178.361.178.115 0 .239-.061.365-.18a1.25 1.25 0 0 0 .136-.154v-1.1a.5.5 0 0 1-.622-.767c.056-.062.46-.495 1.121-.495.666 0 1.072.44 1.124.497a.5.5 0 0 1-.623.766Z" clip-rule="evenodd"/></svg>