<svg width="18" height="18" viewBox="0 0 18 18" fill="none" xmlns="http://www.w3.org/2000/svg">
<path fill-rule="evenodd" clip-rule="evenodd" d="M5.25 2C5.11193 2 5 2.11193 5 2.25V5.98636C5.00023 5.99512 5.00023 6.00387 5 6.0126V9.75C5 9.88807 5.11193 10 5.25 10H12.75C12.8881 10 13 9.88807 13 9.75V2.25C13 2.11193 12.8881 2 12.75 2H5.25ZM4 6.88311V9.75C4 10.4404 4.55964 11 5.25 11H12.75C13.4404 11 14 10.4404 14 9.75V2.25C14 1.55964 13.4404 1 12.75 1H5.25C4.55964 1 4 1.55964 4 2.25V5.71692L2.7963 6.43913C1.98854 6.92379 1.52178 7.82137 1.5889 8.76098L1.8521 12.4459C1.9549 13.885 3.15236 15 4.59511 15H6V15C6 16.1046 6.89543 17 8 17H10.5C10.6326 17 10.7598 16.9473 10.8536 16.8536C10.9473 16.7598 11 16.6326 11 16.5L11 16H12.5C12.7761 16 13 15.7761 13 15.5C13 15.2239 12.7761 15 12.5 15H11V14H12.5C12.7761 14 13 13.7761 13 13.5C13 13.2239 12.7761 13 12.5 13H11V12.5C11 12.2239 10.7761 12 10.5 12H8C6.89545 12 6.00003 12.8954 6 14H4.59511C3.677 14 2.91498 13.2904 2.84956 12.3746L2.58636 8.68974C2.54609 8.12597 2.82614 7.58742 3.3108 7.29663L4 6.88311ZM7 14.5099C7.00006 14.5066 7.0001 14.5033 7.0001 14.5C7.0001 14.4966 7.00006 14.4933 7 14.49V14C7 13.4477 7.44771 13 8 13H10V15.4989V15.5V15.5011L10 16H8C7.44772 16 7 15.5523 7 15V14.5099ZM9 4C7.89543 4 7 4.89543 7 6C7 7.10457 7.89543 8 9 8C10.1046 8 11 7.10457 11 6C11 4.89543 10.1046 4 9 4ZM6 6C6 4.34315 7.34315 3 9 3C10.6569 3 12 4.34315 12 6C12 7.65685 10.6569 9 9 9C7.34315 9 6 7.65685 6 6ZM8 6.5C8.27614 6.5 8.5 6.27614 8.5 6C8.5 5.72386 8.27614 5.5 8 5.5C7.72386 5.5 7.5 5.72386 7.5 6C7.5 6.27614 7.72386 6.5 8 6.5ZM10 6.5C10.2761 6.5 10.5 6.27614 10.5 6C10.5 5.72386 10.2761 5.5 10 5.5C9.72386 5.5 9.5 5.72386 9.5 6C9.5 6.27614 9.72386 6.5 10 6.5Z" fill="#2B2B2C"/>
</svg>
