<svg width="30" height="30" viewBox="0 0 30 30" fill="none" xmlns="http://www.w3.org/2000/svg">
<path fill-rule="evenodd" clip-rule="evenodd" d="M9.25 3C8.2835 3 7.5 3.7835 7.5 4.75V10H5.18848C3.97981 10 3 10.9798 3 12.1885C3 12.8533 3.30221 13.4821 3.82135 13.8974L4.56174 14.4897C5.15478 14.9641 5.5 15.6824 5.5 16.4419V16.5581C5.5 17.3176 5.15478 18.0359 4.56174 18.5103L4.02998 18.9357C3.36981 19.4638 3.03801 20.3016 3.15758 21.1386C3.39213 22.7804 4.79828 24 6.45682 24L10 24C10 25.6569 11.3431 27 13 27H16.5C16.7761 27 17 26.7761 17 26.5V25.5H19.5C19.7761 25.5 20 25.2761 20 25C20 24.7239 19.7761 24.5 19.5 24.5H17V22.5H19.5C19.7761 22.5 20 22.2761 20 22C20 21.7239 19.7761 21.5 19.5 21.5H17V20.5C17 20.2239 16.7761 20 16.5 20H13C11.3431 20 10 21.3431 10 23L6.45682 23C5.29593 23 4.3117 22.1464 4.14753 20.9972C4.07802 20.5106 4.2709 20.0236 4.65468 19.7166L5.18643 19.2912C6.01669 18.627 6.5 17.6214 6.5 16.5581V16.4419C6.5 15.3786 6.01669 14.373 5.18643 13.7088L4.44604 13.1165C4.16412 12.891 4 12.5495 4 12.1885C4 11.5321 4.5321 11 5.18848 11H7.5V16.25C7.5 17.2165 8.2835 18 9.25 18H20.75C21.7165 18 22.5 17.2165 22.5 16.25V4.75C22.5 3.7835 21.7165 3 20.75 3H9.25ZM11 23.5V24C11 25.1046 11.8954 26 13 26H16V21H13C11.8954 21 11 21.8954 11 23V23.5ZM17.5 10.5C17.5 10.9142 17.1642 11.25 16.75 11.25C16.3358 11.25 16 10.9142 16 10.5C16 10.0858 16.3358 9.75 16.75 9.75C17.1642 9.75 17.5 10.0858 17.5 10.5ZM13.25 11.25C13.6642 11.25 14 10.9142 14 10.5C14 10.0858 13.6642 9.75 13.25 9.75C12.8358 9.75 12.5 10.0858 12.5 10.5C12.5 10.9142 12.8358 11.25 13.25 11.25ZM15 6.5C12.7909 6.5 11 8.29086 11 10.5C11 12.7091 12.7909 14.5 15 14.5C17.2091 14.5 19 12.7091 19 10.5C19 8.29086 17.2091 6.5 15 6.5Z" fill="#2B2B2C"/>
</svg>
