<svg width="30" height="30" viewBox="0 0 30 30" fill="none" xmlns="http://www.w3.org/2000/svg">
<path fill-rule="evenodd" clip-rule="evenodd" d="M7.89874 11.4397L9.62956 13.0918C9.70483 12.7453 9.87712 12.4157 10.1464 12.1464C10.894 11.3989 12.106 11.3989 12.8535 12.1464L14.7072 14H25.9999C26.1658 14 26.3209 14.0823 26.4139 14.2197C26.5069 14.3571 26.5257 14.5316 26.4641 14.6857L26.0927 15.6142C25.9602 15.9455 25.7728 16.2437 25.5435 16.5H27.0001C27.1644 16.5 27.3182 16.5807 27.4116 16.716C27.5049 16.8512 27.5258 17.0237 27.4675 17.1774L26.5268 19.6569C26.2539 20.3749 25.589 21.0043 24.7008 21.0043L17.5 21.0017V25H20.5C20.7761 25 21 25.2239 21 25.5C21 25.7761 20.7761 26 20.5 26H13.5C13.2239 26 13 25.7761 13 25.5C13 25.2239 13.2239 25 13.5 25H16.5V21.0014L12.4998 21C12.3677 21 12.2409 20.9476 12.1472 20.8543L4.18006 12.9221C4.05633 12.7989 3.95506 12.6551 3.88081 12.497L2.15355 8.82129C1.70239 7.86118 2.15252 6.71932 3.13748 6.32534C4.04411 5.96268 5.07626 6.36981 5.49119 7.25374L5.64396 7.57919C6.03261 6.37282 7.16438 5.5 8.5 5.5C10.1569 5.5 11.5 6.84315 11.5 8.5C11.5 10.1569 10.1569 11.5 8.5 11.5C8.29408 11.5 8.093 11.4793 7.89874 11.4397ZM6.5 8.5C6.5 7.39543 7.39543 6.5 8.5 6.5C9.60457 6.5 10.5 7.39543 10.5 8.5C10.5 9.60457 9.60457 10.5 8.5 10.5C7.39543 10.5 6.5 9.60457 6.5 8.5ZM13.2072 16.5H23.3121C24.128 16.4981 24.8611 16.0006 25.1642 15.2428L25.2614 15L14.5001 15C14.3675 15 14.2403 14.9473 14.1466 14.8536L12.1464 12.8535C11.7894 12.4965 11.2106 12.4965 10.8535 12.8535C10.4965 13.2106 10.4965 13.7894 10.8536 14.1464L13.2072 16.5Z" fill="#2B2B2C"/>
</svg>
