<svg width="18" height="18" viewBox="0 0 18 18" fill="none" xmlns="http://www.w3.org/2000/svg">
<path fill-rule="evenodd" clip-rule="evenodd" d="M4.00012 4C4.00012 3.44772 4.44784 3 5.00012 3C5.55241 3 6.00012 3.44772 6.00012 4C6.00012 4.55228 5.55241 5 5.00012 5C4.44784 5 4.00012 4.55228 4.00012 4ZM4.27108 5.86297C4.49697 5.95143 4.74287 6 5.00012 6C6.10469 6 7.00012 5.10457 7.00012 4C7.00012 2.89543 6.10469 2 5.00012 2C4.11751 2 3.36843 2.57173 3.10302 3.36504C2.65391 2.89974 1.91239 2.79101 1.33633 3.17499C0.780209 3.54566 0.567719 4.26035 0.830985 4.87465L2.04057 7.69705C2.06562 7.75552 2.10161 7.80867 2.14659 7.85365L7.14671 12.8536C7.24048 12.9473 7.36766 13 7.50027 13L9.50012 12.9999V15H8.00012C7.72398 15 7.50012 15.2239 7.50012 15.5C7.50012 15.7761 7.72398 16 8.00012 16H12.0001C12.2763 16 12.5001 15.7761 12.5001 15.5C12.5001 15.2239 12.2763 15 12.0001 15H10.5001V12.9999L15.0677 12.9998C15.6972 12.9998 16.1556 12.5594 16.3446 12.077L16.9569 10.7036C17.0259 10.5489 17.0119 10.3698 16.9197 10.2278C16.8275 10.0857 16.6696 10 16.5003 10H15.8053C15.8253 9.96535 15.8444 9.92996 15.8624 9.89387L16.4475 8.72361C16.525 8.5686 16.5168 8.38452 16.4256 8.23711C16.3345 8.0897 16.1736 7.99998 16.0003 8L9.29135 8.00069L7.69062 6.45237C7.11898 5.89945 6.22103 5.87069 5.61519 6.3859C5.41931 6.55248 5.27577 6.75664 5.18544 6.97823L4.42178 6.21462L4.27108 5.86297ZM6.26302 7.14769C6.4768 6.96589 6.79366 6.97604 6.99537 7.17114L8.7415 8.86009C8.83475 8.9503 8.95942 9.00072 9.08917 9.00071L15.1913 9.00008L14.968 9.44666C14.7985 9.78563 14.4519 9.99967 14.073 9.99944L8.25363 9.99594L6.2284 7.94634C6.00546 7.72072 6.0214 7.35317 6.26302 7.14769Z" fill="#2B2B2C"/>
</svg>
