<svg width="24" height="24" viewBox="0 0 24 24" fill="none" xmlns="http://www.w3.org/2000/svg">
<path fill-rule="evenodd" clip-rule="evenodd" d="M5.5 6.5C5.5 5.67157 6.17157 5 7 5C7.82843 5 8.5 5.67157 8.5 6.5C8.5 7.32843 7.82843 8 7 8C6.17157 8 5.5 7.32843 5.5 6.5ZM6.68768 8.98068C6.78999 8.99343 6.89423 9 7 9C8.38071 9 9.5 7.88071 9.5 6.5C9.5 5.11929 8.38071 4 7 4C5.99375 4 5.12635 4.59449 4.72987 5.45141C4.25807 4.8967 3.45247 4.71332 2.77226 5.05397C1.97518 5.45317 1.6508 6.42163 2.04663 7.22038L3.55193 10.2579C3.57626 10.307 3.6085 10.3518 3.64736 10.3904L10.1474 16.8545C10.2411 16.9477 10.3679 17 10.5 17L13 17V20H11C10.7239 20 10.5 20.2239 10.5 20.5C10.5 20.7761 10.7239 21 11 21H16C16.2761 21 16.5 20.7761 16.5 20.5C16.5 20.2239 16.2761 20 16 20H14V17L20.2014 17C20.9634 17 21.5264 16.4609 21.7555 15.8579C21.7584 15.8505 21.761 15.843 21.7635 15.8354L22.4753 13.6552C22.525 13.5029 22.4988 13.336 22.4047 13.2064C22.3106 13.0767 22.1602 13 22 13H20.3064C20.3801 12.9016 20.4472 12.797 20.5067 12.6867L21.0057 11.7614C21.0891 11.6067 21.0852 11.4195 20.9953 11.2684C20.9054 11.1174 20.7428 11.0246 20.567 11.0241L12.2027 11.0006L10.8845 9.72637C10.1885 9.05364 9.07476 9.08733 8.42073 9.80091C8.26511 9.97069 8.14984 10.1636 8.07465 10.3676L6.68768 8.98068ZM9.1796 11.4725L9.65794 11.9509L10.7071 13H18.3131C18.8619 12.9975 19.3658 12.6954 19.6265 12.212L19.7291 12.0217L11.9985 12C11.8694 11.9996 11.7453 11.9493 11.6524 11.8595L10.1895 10.4454C9.89809 10.1637 9.43176 10.1778 9.15793 10.4766C8.89738 10.7608 8.90694 11.1999 9.1796 11.4725Z" fill="#2B2B2C"/>
</svg>
