<svg width="30" height="30" viewBox="0 0 30 30" fill="none" xmlns="http://www.w3.org/2000/svg">
<path fill-rule="evenodd" clip-rule="evenodd" d="M7.89875 11.4397L9.62957 13.0918C9.70484 12.7453 9.87713 12.4157 10.1464 12.1464C10.894 11.3989 12.106 11.3989 12.8535 12.1464L14.7072 14H25.9999C26.1658 14 26.3209 14.0823 26.4139 14.2197C26.5069 14.3571 26.5257 14.5316 26.4641 14.6857L26.0927 15.6142C25.9602 15.9455 25.7728 16.2437 25.5435 16.5H27.0001C27.1644 16.5 27.3182 16.5807 27.4116 16.716C27.5049 16.8512 27.5258 17.0237 27.4676 17.1774L26.5268 19.6569C26.254 20.3749 25.589 21.0043 24.7008 21.0043L17.5 21.0017V25H20.5C20.7761 25 21 25.2239 21 25.5C21 25.7761 20.7761 26 20.5 26H13.5C13.2239 26 13 25.7761 13 25.5C13 25.2239 13.2239 25 13.5 25H16.5V21.0014L12.4998 21C12.3677 21 12.2409 20.9476 12.1472 20.8543L4.18007 12.9221C4.05634 12.7989 3.95507 12.6551 3.88081 12.497L2.15356 8.82129C1.70239 7.86118 2.15252 6.71932 3.13748 6.32534C4.04412 5.96268 5.07627 6.36981 5.4912 7.25374L5.64396 7.57918C6.03262 6.37281 7.16438 5.5 8.5 5.5C10.1569 5.5 11.5 6.84315 11.5 8.5C11.5 10.1569 10.1569 11.5 8.5 11.5C8.29408 11.5 8.093 11.4793 7.89875 11.4397ZM6.5 8.5C6.5 7.39543 7.39543 6.5 8.5 6.5C9.60457 6.5 10.5 7.39543 10.5 8.5C10.5 9.60457 9.60457 10.5 8.5 10.5C7.39543 10.5 6.5 9.60457 6.5 8.5ZM13.2072 16.5H23.3121C24.128 16.4981 24.8611 16.0006 25.1643 15.2428L25.2614 15L14.5001 15C14.3675 15 14.2403 14.9473 14.1466 14.8536L12.1464 12.8535C11.7894 12.4965 11.2106 12.4965 10.8535 12.8535C10.4965 13.2106 10.4965 13.7894 10.8536 14.1464L13.2072 16.5ZM10.1955 17.5H26.2756L25.5919 19.3022C25.4277 19.7339 25.0741 20.0042 24.7008 20.0043L17.5 20.0017V20H16.5V20.0014L12.7065 20.0001L10.1955 17.5ZM11.752 16.5L6.46955 11.458L6.46728 11.4558C6.33624 11.3291 6.22938 11.1797 6.15194 11.0147L4.58597 7.67866C4.39609 7.27416 3.92376 7.08786 3.50888 7.25381C3.05814 7.43411 2.85216 7.95664 3.05862 8.396L4.78587 12.0717C4.81062 12.1244 4.84438 12.1724 4.88562 12.2134L9.19106 16.5H11.752Z" fill="#2B2B2C"/>
</svg>
