<svg width="18" height="18" viewBox="0 0 18 18" fill="none" xmlns="http://www.w3.org/2000/svg">
<path fill-rule="evenodd" clip-rule="evenodd" d="M4 4C4 3.44772 4.44772 3 5 3C5.55228 3 6 3.44772 6 4C6 4.55228 5.55228 5 5 5C4.44772 5 4 4.55228 4 4ZM4.27096 5.86297C4.49685 5.95143 4.74275 6 5 6C6.10457 6 7 5.10457 7 4C7 2.89543 6.10457 2 5 2C4.11738 2 3.3683 2.57173 3.1029 3.36504C2.65379 2.89974 1.91227 2.79101 1.33621 3.17499C0.780087 3.54566 0.567597 4.26035 0.830863 4.87465L2.04044 7.69705C2.0655 7.75552 2.10149 7.80867 2.14647 7.85365L7.14658 12.8536C7.24036 12.9473 7.36754 13 7.50014 13L9.5 12.9999V15H8C7.72386 15 7.5 15.2239 7.5 15.5C7.5 15.7761 7.72386 16 8 16H12C12.2761 16 12.5 15.7761 12.5 15.5C12.5 15.2239 12.2761 15 12 15H10.5V12.9999L15.0675 12.9998C15.6971 12.9998 16.1554 12.5594 16.3445 12.077L16.9568 10.7036C17.0258 10.5489 17.0117 10.3698 16.9195 10.2278C16.8273 10.0857 16.6695 10 16.5001 10H15.8052C15.8252 9.96535 15.8442 9.92996 15.8623 9.89387L16.4474 8.72361C16.5249 8.5686 16.5166 8.38452 16.4255 8.23711C16.3344 8.0897 16.1735 7.99998 16.0002 8L9.29122 8.00069L7.69049 6.45237C7.11886 5.89945 6.22091 5.87069 5.61507 6.3859C5.41919 6.55248 5.27565 6.75664 5.18532 6.97823L4.42166 6.21462L4.27096 5.86297ZM6.2629 7.14769C6.47668 6.96589 6.79354 6.97604 6.99525 7.17114L8.74137 8.86009C8.83463 8.9503 8.9593 9.00072 9.08905 9.00071L15.1911 9.00008L14.9679 9.44666C14.7984 9.78563 14.4518 9.99967 14.0728 9.99944L8.2535 9.99594L6.22828 7.94634C6.00534 7.72072 6.02127 7.35317 6.2629 7.14769ZM7.99979 11H8.00064H15.7298L15.426 11.6814C15.4222 11.6899 15.4186 11.6986 15.4153 11.7073C15.3385 11.9093 15.1887 11.9998 15.0675 11.9998L7.70723 12L6.70719 11H7.99979ZM6.79304 10H5.70715L2.92166 7.21462L1.75001 4.48073C1.67665 4.30954 1.73586 4.11038 1.89084 4.00708C2.09182 3.87312 2.36506 3.95437 2.4602 4.17637L3.54044 6.69704C3.5655 6.75552 3.60149 6.80867 3.64648 6.85366L6.79304 10Z" fill="#2B2B2C"/>
</svg>
