<svg width="24" height="24" viewBox="0 0 24 24" fill="none" xmlns="http://www.w3.org/2000/svg">
<path fill-rule="evenodd" clip-rule="evenodd" d="M8.4865 3.64C8.19607 4.10468 8 4.63484 8 5V12H10V5C10 4.63484 9.80393 4.10468 9.5135 3.64C9.37284 3.41495 9.22631 3.2319 9.10048 3.11207C9.06068 3.07415 9.02694 3.04641 9 3.02684C8.97306 3.04641 8.93932 3.07415 8.89952 3.11207C8.77369 3.2319 8.62716 3.41495 8.4865 3.64ZM10 13H8V20H10V13ZM7 12.5V20.5C7 20.7761 7.22386 21 7.5 21H10.5C10.7761 21 11 20.7761 11 20.5V12.5V5C11 4.36516 10.6961 3.64532 10.3615 3.11C10.1897 2.83505 9.99244 2.5806 9.79014 2.38793C9.68911 2.29171 9.57676 2.20125 9.45608 2.13228C9.33999 2.06595 9.18223 2 9 2C8.81777 2 8.66001 2.06595 8.54392 2.13228C8.42324 2.20125 8.31089 2.29171 8.20986 2.38793C8.00756 2.5806 7.81034 2.83505 7.6385 3.11C7.30393 3.64532 7 4.36516 7 5V12.5ZM9.05766 2.99168L9.05547 2.99254C9.05695 2.99189 9.05767 2.99164 9.05766 2.99168ZM8.94453 2.99254L8.94234 2.99168C8.94233 2.99164 8.94305 2.99189 8.94453 2.99254ZM13.4865 3.64C13.1961 4.10468 13 4.63484 13 5V12H15V5C15 4.63484 14.8039 4.10468 14.5135 3.64C14.3728 3.41495 14.2263 3.2319 14.1005 3.11207C14.0607 3.07415 14.0269 3.04641 14 3.02684C13.9731 3.04641 13.9393 3.07415 13.8995 3.11207C13.7737 3.2319 13.6272 3.41495 13.4865 3.64ZM15 13H13V20H15V13ZM12 12.5V20.5C12 20.7761 12.2239 21 12.5 21H15.5C15.7761 21 16 20.7761 16 20.5V12.5V5C16 4.36516 15.6961 3.64532 15.3615 3.11C15.1897 2.83505 14.9924 2.5806 14.7901 2.38793C14.6891 2.29171 14.5768 2.20125 14.4561 2.13228C14.34 2.06595 14.1822 2 14 2C13.8178 2 13.66 2.06595 13.5439 2.13228C13.4232 2.20125 13.3109 2.29171 13.2099 2.38793C13.0076 2.5806 12.8103 2.83505 12.6385 3.11C12.3039 3.64532 12 4.36516 12 5V12.5ZM14.0577 2.99168L14.0555 2.99254C14.0569 2.99189 14.0577 2.99164 14.0577 2.99168ZM13.9445 2.99254L13.9423 2.99168C13.9423 2.99164 13.9431 2.99189 13.9445 2.99254ZM17.5 8C17.2239 8 17 8.22386 17 8.5V11.5C17 11.7761 17.2239 12 17.5 12H18V19H17.5C17.2239 19 17 19.2239 17 19.5C17 19.7761 17.2239 20 17.5 20H18V20.5C18 20.7761 18.2239 21 18.5 21C18.7761 21 19 20.7761 19 20.5V20H19.5C19.7761 20 20 19.7761 20 19.5C20 19.2239 19.7761 19 19.5 19H19V12H19.5C19.7761 12 20 11.7761 20 11.5V8.5C20 8.22386 19.7761 8 19.5 8H17.5ZM18.5 11H19V9H18V11H18.5ZM3 8.5C3 8.22386 3.22386 8 3.5 8H5.5C5.77614 8 6 8.22386 6 8.5V11.5C6 11.7761 5.77614 12 5.5 12H5V19H5.5C5.77614 19 6 19.2239 6 19.5C6 19.7761 5.77614 20 5.5 20H5V20.5C5 20.7761 4.77614 21 4.5 21C4.22386 21 4 20.7761 4 20.5V20H3.5C3.22386 20 3 19.7761 3 19.5C3 19.2239 3.22386 19 3.5 19H4V12H3.5C3.22386 12 3 11.7761 3 11.5V8.5ZM5 11H4.5H4V9H5V11Z" fill="#2B2B2C"/>
</svg>
