<svg width="18" height="18" viewBox="0 0 18 18" fill="none" xmlns="http://www.w3.org/2000/svg">
<path fill-rule="evenodd" clip-rule="evenodd" d="M5.93931 1.35365C6.5251 0.767861 7.47484 0.767859 8.06063 1.35365L16.6464 9.93943C17.2322 10.5252 17.2322 11.475 16.6464 12.0608L12.0606 16.6465C11.4748 17.2323 10.5251 17.2323 9.93931 16.6465L1.35352 8.06075C0.767737 7.47497 0.767739 6.52522 1.35352 5.93943L5.93931 1.35365ZM7.35352 2.06075C7.15826 1.86549 6.84168 1.86549 6.64642 2.06075L2.06063 6.64654C1.86537 6.8418 1.86537 7.15838 2.06063 7.35365L7.74998 13.043L13.0429 7.7501L7.35352 2.06075ZM9.24998 14.543L8.45708 13.7501L13.75 8.45721L14.5429 9.2501L9.24998 14.543ZM9.95708 15.2501L15.25 9.9572L15.9393 10.6465C16.1346 10.8418 16.1346 11.1584 15.9393 11.3536L11.3535 15.9394C11.1583 16.1347 10.8417 16.1347 10.6464 15.9394L9.95708 15.2501ZM5.4472 5.7765C5.32371 5.52951 5.02337 5.4294 4.77638 5.5529C4.52939 5.67639 4.42928 5.97673 4.55277 6.22372L4.69097 6.50011H4C3.72386 6.50011 3.5 6.72397 3.5 7.00011C3.5 7.27625 3.72386 7.50011 4 7.50011H4.69097L4.55277 7.7765C4.42928 8.02349 4.52939 8.32383 4.77638 8.44732C5.02337 8.57082 5.32371 8.47071 5.4472 8.22372L5.809 7.50011H6.49999V8.19098L5.77638 8.55279C5.52939 8.67628 5.42928 8.97662 5.55277 9.22361C5.67627 9.4706 5.9766 9.57071 6.22359 9.44721L6.49999 9.30902V10C6.49999 10.2761 6.72385 10.5 6.99999 10.5C7.27613 10.5 7.49999 10.2761 7.49999 10V9.30902L7.77638 9.44721C8.02337 9.57071 8.32371 9.4706 8.4472 9.22361C8.5707 8.97662 8.47058 8.67628 8.22359 8.55279L7.49999 8.19098V7.50011H8.19098L8.55279 8.22372C8.67628 8.47071 8.97662 8.57082 9.22361 8.44732C9.4706 8.32383 9.57071 8.02349 9.44721 7.7765L9.30902 7.50011L10 7.50011C10.2761 7.50011 10.5 7.27625 10.5 7.00011C10.5 6.72397 10.2761 6.50011 10 6.50011H9.30902L9.44721 6.22372C9.57071 5.97673 9.4706 5.67639 9.22361 5.5529C8.97662 5.4294 8.67628 5.52951 8.55279 5.7765L8.19098 6.50011H7.49999V5.80902L8.22359 5.44721C8.47058 5.32372 8.5707 5.02338 8.4472 4.77639C8.32371 4.5294 8.02337 4.42929 7.77638 4.55279L7.49999 4.69098V4C7.49999 3.72386 7.27613 3.5 6.99999 3.5C6.72385 3.5 6.49999 3.72386 6.49999 4V4.69098L6.22359 4.55279C5.9766 4.42929 5.67627 4.5294 5.55277 4.77639C5.42928 5.02338 5.52939 5.32372 5.77638 5.44721L6.49999 5.80902V6.50011H5.809L5.4472 5.7765Z" fill="#2B2B2C"/>
</svg>
