<svg width="30" height="30" viewBox="0 0 30 30" fill="none" xmlns="http://www.w3.org/2000/svg">
<path fill-rule="evenodd" clip-rule="evenodd" d="M11.4999 3C11.2238 3 10.9999 3.22386 10.9999 3.5V4.76378C10.4692 4.28881 9.76832 4 9.00003 4C7.34318 4 6.00003 5.34314 6.00003 7C6.00003 7.76836 6.28889 8.46925 6.76394 9.00001L4.00005 9.00001L4 4.50001C4 4.22386 3.77614 4.00001 3.49999 4.00001C3.22385 4.00001 3 4.22387 3 4.50002L3.00005 12.4784C3.00005 12.7545 3.22391 12.9784 3.50005 12.9784L26.5 12.9784C26.6326 12.9784 26.7598 12.9257 26.8536 12.832C26.9473 12.7382 27 12.611 27 12.4784V9.50001C27 9.22387 26.7761 9.00001 26.5 9.00001H25.9999V5.5C25.9999 4.11929 24.8806 3 23.4999 3H11.4999ZM9.00003 5C10.0969 5 10.9875 5.88297 10.9999 6.9769V7.0231C10.9875 8.11702 10.0969 8.99999 9.00003 8.99999C7.89546 8.99999 7.00003 8.10456 7.00003 7C7.00003 5.89543 7.89546 5 9.00003 5ZM4.00005 11.9784L4.00005 10L26 10V11.9784L4.00005 11.9784ZM11.4999 16C11.2238 16 10.9999 16.2239 10.9999 16.5V17.7638C10.4692 17.2888 9.76832 17 9.00003 17C7.34318 17 6.00003 18.3431 6.00003 20C6.00003 20.7684 6.28889 21.4692 6.76394 22H4.00005L4 17.5C4 17.2239 3.77614 17 3.49999 17C3.22385 17 3 17.2239 3 17.5L3.00005 25.4784C3.00005 25.611 3.05273 25.7382 3.1465 25.832C3.24027 25.9257 3.36745 25.9784 3.50005 25.9784L26.5 25.9784C26.6326 25.9784 26.7598 25.9257 26.8536 25.832C26.9473 25.7382 27 25.611 27 25.4784V22.5C27 22.2239 26.7761 22 26.5 22H25.9999V18.5C25.9999 17.1193 24.8806 16 23.4999 16H11.4999ZM10.9999 20.0231V19.9769C10.9875 18.883 10.0969 18 9.00003 18C7.89546 18 7.00003 18.8954 7.00003 20C7.00003 21.1046 7.89546 22 9.00003 22C10.0969 22 10.9875 21.117 10.9999 20.0231ZM4.00005 24.9784L4.00005 23L26 23V24.9784L4.00005 24.9784Z" fill="#2B2B2C"/>
</svg>
