<svg width="18" height="18" viewBox="0 0 18 18" fill="none" xmlns="http://www.w3.org/2000/svg">
<path fill-rule="evenodd" clip-rule="evenodd" d="M7.5 1.5C7.22386 1.5 7 1.72386 7 2C7 2.27614 7.22386 2.5 7.5 2.5H8.45969L7.10957 4.18765C6.9895 4.33774 6.96609 4.54336 7.04935 4.71659C7.13261 4.88983 7.3078 5 7.5 5H9.5C9.77615 5 10 4.77614 10 4.5C10 4.22386 9.77615 4 9.5 4H8.54032L9.89044 2.31235C10.0105 2.16226 10.0339 1.95664 9.95066 1.78341C9.8674 1.61017 9.69221 1.5 9.5 1.5H7.5ZM3.5 4C3.5 3.72386 3.72386 3.5 4 3.5H5.5C5.68939 3.5 5.86252 3.607 5.94722 3.77639C6.03191 3.94579 6.01363 4.14849 5.9 4.3L5 5.5H5.5C5.77614 5.5 6 5.72386 6 6C6 6.27614 5.77614 6.5 5.5 6.5H4C3.81062 6.5 3.63749 6.393 3.55279 6.22361C3.46809 6.05421 3.48637 5.85151 3.6 5.7L4.5 4.5H4C3.72386 4.5 3.5 4.27614 3.5 4ZM6.5 7C6.5 6.72386 6.72386 6.5 7 6.5H13.25C14.7688 6.5 16 7.73122 16 9.25V10.5H16.5C16.7761 10.5 17 10.7239 17 11V14.5C17 14.7761 16.7761 15 16.5 15H1.5C1.22386 15 1 14.7761 1 14.5V8C1 7.72386 1.22386 7.5 1.5 7.5C1.77614 7.5 2 7.72386 2 8V10.5H3.26756C3.09739 10.2058 3 9.86429 3 9.5C3 8.39543 3.89543 7.5 5 7.5C5.59735 7.5 6.13353 7.76188 6.5 8.17709V7ZM5 10.5C5.55228 10.5 6 10.0523 6 9.5C6 8.94772 5.55228 8.5 5 8.5C4.44772 8.5 4 8.94772 4 9.5C4 10.0523 4.44772 10.5 5 10.5ZM2 14V12.5H16V14H2Z" fill="#2B2B2C"/>
</svg>
