<svg width="24" height="24" viewBox="0 0 24 24" fill="none" xmlns="http://www.w3.org/2000/svg">
<path fill-rule="evenodd" clip-rule="evenodd" d="M9.00055 3.50005C9.00055 3.22408 9.22426 3.00037 9.50023 3.00037H18.0002C19.1046 3.00037 19.9999 3.89566 19.9999 5.00005V8.00036H20.5001C20.776 8.00036 20.9997 8.22407 20.9997 8.50004V10.5C20.9997 10.776 20.776 10.9997 20.5001 10.9997H3.50005C3.22408 10.9997 3.00037 10.776 3.00037 10.5V4.50004C3.00037 4.22407 3.22408 4.00036 3.50005 4.00036C3.77602 4.00036 3.99974 4.22407 3.99974 4.50004V8.00036H5.50049C5.18646 7.58249 5.00037 7.06301 5.00037 6.50005C5.00037 5.11952 6.11951 4.00037 7.50005 4.00037C8.06309 4.00037 8.58265 4.18652 9.00055 4.50063V3.50005ZM7.50598 8.00036C8.33185 7.99716 9.00037 7.32668 9.00037 6.50005C9.00037 5.67145 8.32865 4.99974 7.50005 4.99974C6.67145 4.99974 5.99974 5.67145 5.99974 6.50005C5.99974 7.32668 6.66826 7.99716 7.49413 8.00036H7.50598ZM7.49241 8.99973C7.49496 8.99974 7.4975 8.99974 7.50005 8.99974C7.5026 8.99974 7.50515 8.99974 7.5077 8.99973H9.49696C9.49805 8.99974 9.49914 8.99974 9.50023 8.99974H19.5002C19.5013 8.99974 19.5024 8.99974 19.5035 8.99973H20.0004V10.0004H3.99974V8.99973H7.49241ZM19.0005 8.00036H9.99992V3.99974H18.0002C18.5527 3.99974 19.0005 4.4476 19.0005 5.00005V8.00036ZM9.00055 13.5001C9.00055 13.2241 9.22426 13.0004 9.50023 13.0004H18.0002C19.1046 13.0004 19.9999 13.8957 19.9999 15.0001V18.0004H20.5001C20.776 18.0004 20.9997 18.2241 20.9997 18.5V20.5C20.9997 20.776 20.776 20.9997 20.5001 20.9997H3.50005C3.22408 20.9997 3.00037 20.776 3.00037 20.5V14.5C3.00037 14.2241 3.22408 14.0004 3.50005 14.0004C3.77602 14.0004 3.99974 14.2241 3.99974 14.5V18.0004H5.50049C5.18646 17.5825 5.00037 17.063 5.00037 16.5001C5.00037 15.1195 6.11951 14.0004 7.50005 14.0004C8.06309 14.0004 8.58265 14.1865 9.00055 14.5006V13.5001ZM7.50598 18.0004C8.33185 17.9972 9.00037 17.3267 9.00037 16.5001C9.00037 15.6715 8.32865 14.9997 7.50005 14.9997C6.67145 14.9997 5.99974 15.6715 5.99974 16.5001C5.99974 17.3267 6.66826 17.9972 7.49413 18.0004H7.50598ZM7.49241 18.9997C7.49496 18.9997 7.4975 18.9997 7.50005 18.9997C7.5026 18.9997 7.50515 18.9997 7.5077 18.9997H9.49682C9.49795 18.9997 9.49909 18.9997 9.50023 18.9997H19.5002C19.5014 18.9997 19.5025 18.9997 19.5037 18.9997H20.0004V20.0004H3.99974V18.9997H7.49241ZM19.0005 18.0004H9.99992V13.9997H18.0002C18.5527 13.9997 19.0005 14.4476 19.0005 15.0001V18.0004Z" fill="#2B2B2C"/>
</svg>
