<svg width="24" height="24" viewBox="0 0 24 24" fill="none" xmlns="http://www.w3.org/2000/svg">
<path fill-rule="evenodd" clip-rule="evenodd" d="M9.50001 3C9.22386 3 9.00001 3.22386 9.00001 3.5C9.00001 3.77614 9.22386 4 9.50001 4H10.9325L9.1159 6.17991C8.99169 6.32895 8.96492 6.53639 9.04721 6.71208C9.1295 6.88777 9.306 7 9.50001 7H12C12.2761 7 12.5 6.77614 12.5 6.5C12.5 6.22386 12.2761 6 12 6H10.5675L12.3841 3.82009C12.5083 3.67105 12.5351 3.46361 12.4528 3.28792C12.3705 3.11223 12.194 3 12 3H9.50001ZM5 5.5C5 5.22386 5.22386 5 5.5 5H7.5C7.69221 5 7.8674 5.11017 7.95066 5.28341C8.03392 5.45664 8.01051 5.66226 7.89044 5.81235L6.54032 7.5H7.5C7.77615 7.5 8 7.72386 8 8C8 8.27614 7.77615 8.5 7.5 8.5H5.5C5.3078 8.5 5.13261 8.38983 5.04935 8.21659C4.96609 8.04336 4.9895 7.83774 5.10957 7.68765L6.45969 6H5.5C5.22386 6 5 5.77614 5 5.5ZM8.5 9.5C8.5 9.22386 8.72386 9 9 9H17.5C19.433 9 21 10.567 21 12.5V14H21.5C21.7761 14 22 14.2239 22 14.5V18.5C22 18.7761 21.7761 19 21.5 19H2.5C2.22386 19 2 18.7761 2 18.5V10.5C2 10.2239 2.22386 10 2.5 10C2.77614 10 3 10.2239 3 10.5V14H4.49982C4.18597 13.5822 4 13.0628 4 12.5C4 11.1193 5.11929 10 6.5 10C7.3178 10 8.04389 10.3927 8.5 10.9998V9.5ZM6.5 14C7.32843 14 8 13.3284 8 12.5C8 11.6716 7.32843 11 6.5 11C5.67157 11 5 11.6716 5 12.5C5 13.3284 5.67157 14 6.5 14ZM21 15.5H3V18H21V15.5Z" fill="#2B2B2C"/>
</svg>
