<svg width="24" height="24" viewBox="0 0 24 24" fill="none" xmlns="http://www.w3.org/2000/svg">
<path fill-rule="evenodd" clip-rule="evenodd" d="M9.50023 3.00024C9.22426 3.00024 9.00055 3.22396 9.00055 3.49993V4.50051C8.58265 4.1864 8.06309 4.00024 7.50005 4.00024C6.11951 4.00024 5.00037 5.11939 5.00037 6.49993C5.00037 7.06288 5.18646 7.58237 5.50049 8.00023H3.99974V4.49992C3.99974 4.22395 3.77602 4.00023 3.50005 4.00023C3.22408 4.00023 3.00037 4.22395 3.00037 4.49992V10.4999C3.00037 10.7759 3.22408 10.9996 3.50005 10.9996H20.5001C20.776 10.9996 20.9997 10.7759 20.9997 10.4999V8.49992C20.9997 8.22395 20.776 8.00023 20.5001 8.00023H19.9999V4.99993C19.9999 3.89554 19.1046 3.00024 18.0002 3.00024H9.50023ZM9.00037 6.49993C9.00037 7.32656 8.33185 7.99704 7.50598 8.00023H7.49413C6.66826 7.99704 5.99974 7.32656 5.99974 6.49993C5.99974 5.67133 6.67145 4.99962 7.50005 4.99962C8.32865 4.99962 9.00037 5.67133 9.00037 6.49993ZM7.50005 8.99962L7.49241 8.99961H3.99974V10.0002H20.0004V8.99961H19.5035L19.5002 8.99962H9.50023L9.49696 8.99961H7.5077L7.50005 8.99962ZM9.50023 13.0002C9.22426 13.0002 9.00055 13.224 9.00055 13.4999V14.5005C8.58265 14.1864 8.06309 14.0002 7.50005 14.0002C6.11951 14.0002 5.00037 15.1194 5.00037 16.4999C5.00037 17.0629 5.18646 17.5824 5.50049 18.0002H3.99974V14.4999C3.99974 14.224 3.77602 14.0002 3.50005 14.0002C3.22408 14.0002 3.00037 14.224 3.00037 14.4999V20.4999C3.00037 20.7759 3.22408 20.9996 3.50005 20.9996H20.5001C20.776 20.9996 20.9997 20.7759 20.9997 20.4999V18.4999C20.9997 18.224 20.776 18.0002 20.5001 18.0002H19.9999V14.9999C19.9999 13.8955 19.1046 13.0002 18.0002 13.0002H9.50023ZM9.00037 16.4999C9.00037 17.3266 8.33185 17.997 7.50598 18.0002H7.49413C6.66826 17.997 5.99974 17.3266 5.99974 16.4999C5.99974 15.6713 6.67145 14.9996 7.50005 14.9996C8.32865 14.9996 9.00037 15.6713 9.00037 16.4999ZM7.50005 18.9996L7.49241 18.9996H3.99974V20.0002H20.0004V18.9996H19.5037L19.5002 18.9996H9.50023L9.49682 18.9996H7.5077L7.50005 18.9996Z" fill="#2B2B2C"/>
</svg>
