<svg width="30" height="30" viewBox="0 0 30 30" fill="none" xmlns="http://www.w3.org/2000/svg">
<path fill-rule="evenodd" clip-rule="evenodd" d="M10.9999 3.5C10.9999 3.22386 11.2238 3 11.4999 3H23.4999C24.8806 3 25.9999 4.11929 25.9999 5.5V9.00001H26.5C26.7761 9.00001 27 9.22387 27 9.50001V12.4784C27 12.611 26.9473 12.7382 26.8536 12.832C26.7598 12.9257 26.6326 12.9784 26.5 12.9784L3.50005 12.9784C3.22391 12.9784 3.00005 12.7545 3.00005 12.4784L3 4.50002C3 4.22387 3.22385 4.00001 3.49999 4.00001C3.77614 4.00001 4 4.22386 4 4.50001L4.00005 9.00001L6.76394 9.00001C6.28889 8.46925 6.00003 7.76836 6.00003 7C6.00003 5.34314 7.34318 4 9.00003 4C9.76832 4 10.4692 4.28881 10.9999 4.76378V3.5ZM11.9999 7.02829C12 7.01887 12 7.00944 12 7C12 6.99056 12 6.98112 11.9999 6.9717V4H23.4999C24.3283 4 24.9999 4.67157 24.9999 5.5V9H11.9999V7.02829ZM10.9999 6.9769C10.9875 5.88297 10.0969 5 9.00003 5C7.89546 5 7.00003 5.89543 7.00003 7C7.00003 8.10456 7.89546 8.99999 9.00003 8.99999C10.0969 8.99999 10.9875 8.11702 10.9999 7.0231V6.9769ZM4.00005 10L4.00005 11.9784L26 11.9784V10L4.00005 10ZM10.9999 16.5C10.9999 16.2239 11.2238 16 11.4999 16H23.4999C24.8806 16 25.9999 17.1193 25.9999 18.5V22H26.5C26.7761 22 27 22.2239 27 22.5V25.4784C27 25.611 26.9473 25.7382 26.8536 25.832C26.7598 25.9257 26.6326 25.9784 26.5 25.9784L3.50005 25.9784C3.36745 25.9784 3.24027 25.9257 3.1465 25.832C3.05273 25.7382 3.00005 25.611 3.00005 25.4784L3 17.5C3 17.2239 3.22385 17 3.49999 17C3.77614 17 4 17.2239 4 17.5L4.00005 22H6.76394C6.28889 21.4692 6.00003 20.7684 6.00003 20C6.00003 18.3431 7.34318 17 9.00003 17C9.76832 17 10.4692 17.2888 10.9999 17.7638V16.5ZM11.9999 20.0283C12 20.0189 12 20.0094 12 20C12 19.9906 12 19.9811 11.9999 19.9717V17H23.4999C24.3283 17 24.9999 17.6716 24.9999 18.5V22H11.9999V20.0283ZM10.9999 19.9769V20.0231C10.9875 21.117 10.0969 22 9.00003 22C7.89546 22 7.00003 21.1046 7.00003 20C7.00003 18.8954 7.89546 18 9.00003 18C10.0969 18 10.9875 18.883 10.9999 19.9769ZM4.00005 23L4.00005 24.9784L26 24.9784V23L4.00005 23Z" fill="#2B2B2C"/>
</svg>
