<svg width="18" height="18" viewBox="0 0 18 18" fill="none" xmlns="http://www.w3.org/2000/svg">
<path fill-rule="evenodd" clip-rule="evenodd" d="M16 4.50903V6.99999H16.5C16.7761 6.99999 17 7.22385 17 7.49999C17 7.77613 16.7761 7.99999 16.5 7.99999H1.5C1.22386 7.99999 1 7.77613 1 7.49999V4.49999C1 4.22385 1.22386 3.99999 1.5 3.99999C1.77614 3.99999 2 4.22385 2 4.49999V6.99999H3.26759C3.09742 6.70582 3.00002 6.36428 3.00002 5.99999C3.00002 4.89542 3.89545 3.99999 5.00002 3.99999C5.36431 3.99999 5.70585 4.09738 6.00002 4.26755V3.58102C6.00002 3.30664 6.22115 3.08351 6.49552 3.08104L14.4865 3.0091C15.3202 3.00159 16 3.67533 16 4.50903ZM6.00002 5.99999C6.00002 6.55228 5.55231 6.99999 5.00002 6.99999C4.44774 6.99999 4.00002 6.55228 4.00002 5.99999C4.00002 5.44771 4.44774 4.99999 5.00002 4.99999C5.55231 4.99999 6.00002 5.44771 6.00002 5.99999ZM6.50022 9.99999C6.22408 9.99999 6.00022 10.2238 6.00022 10.5V11.2677C5.706 11.0974 5.36439 11 5.00002 11C3.89545 11 3.00002 11.8954 3.00002 13C3.00002 13.3643 3.09741 13.7058 3.26758 14H2.00002V11.5C2.00002 11.2238 1.77616 11 1.50002 11C1.22388 11 1.00002 11.2238 1.00002 11.5V14.5C1.00002 14.7761 1.22388 15 1.50002 15L4.99469 15L5.00002 15L5.00535 15L16.5 15C16.7762 15 17 14.7761 17 14.5C17 14.2238 16.7762 14 16.5 14H15.9998L16.0001 11.5002C16.0002 10.6717 15.3286 9.99999 14.5001 9.99999H6.50022ZM6.00002 13C6.00002 13.551 5.55434 13.998 5.00379 14H4.99625C4.4457 13.998 4.00002 13.551 4.00002 13C4.00002 12.4477 4.44774 12 5.00002 12C5.55231 12 6.00002 12.4477 6.00002 13Z" fill="#2B2B2C"/>
</svg>
