<svg width="24" height="24" viewBox="0 0 24 24" fill="none" xmlns="http://www.w3.org/2000/svg">
<path fill-rule="evenodd" clip-rule="evenodd" d="M13.6665 3.12744C13.7725 3.03259 13.9139 2.98735 14.0552 3.00306L18.5552 3.50306C18.687 3.5177 18.8076 3.58411 18.8904 3.68765L20.8904 6.18765C20.9614 6.27631 21 6.38647 21 6.5V8V8.5V9.5C21 11.9853 18.9853 14 16.5 14H13.7071L15.2618 15.5546C15.7522 15.2054 16.3521 15 17 15C18.6569 15 20 16.3431 20 18C20 19.6569 18.6569 21 17 21C15.3431 21 14 19.6569 14 18C14 17.3521 14.2054 16.7521 14.5546 16.2617L12.4738 14.1809L9.65323 16.5986C9.87462 17.0169 10 17.4938 10 18C10 19.6569 8.65685 21 7 21C5.34315 21 4 19.6569 4 18C4 16.3431 5.34315 15 7 15C7.78968 15 8.5081 15.3051 9.0438 15.8039L11.7646 13.4717L4.65621 6.36328C4.50403 6.2111 4.27154 6.17338 4.07905 6.26962L3.72372 6.44729C3.47673 6.57079 3.17639 6.47067 3.0529 6.22368C2.9294 5.9767 3.02951 5.67636 3.2765 5.55286L3.63184 5.3752C4.20932 5.08646 4.90678 5.19964 5.36332 5.65618L7.70714 8H13.5V3.5C13.5 3.35778 13.5606 3.22229 13.6665 3.12744ZM20 6.67539V8H14.5V4.05863L18.2389 4.47407L20 6.67539ZM17 16C15.8954 16 15 16.8954 15 18C15 19.1046 15.8954 20 17 20C18.1046 20 19 19.1046 19 18C19 16.8954 18.1046 16 17 16ZM5 18C5 16.8954 5.89543 16 7 16C8.10457 16 9 16.8954 9 18C9 19.1046 8.10457 20 7 20C5.89543 20 5 19.1046 5 18Z" fill="#2B2B2C"/>
</svg>
