<svg width="24" height="24" viewBox="0 0 24 24" fill="none" xmlns="http://www.w3.org/2000/svg">
<path fill-rule="evenodd" clip-rule="evenodd" d="M14.0552 3.00306C13.9139 2.98735 13.7725 3.03259 13.6665 3.12744C13.5606 3.22229 13.5 3.35778 13.5 3.5V8H7.70714L5.36332 5.65618C4.90678 5.19964 4.20932 5.08646 3.63184 5.3752L3.2765 5.55286C3.02951 5.67636 2.9294 5.9767 3.0529 6.22368C3.17639 6.47067 3.47673 6.57079 3.72372 6.44729L4.07905 6.26962C4.27154 6.17338 4.50403 6.2111 4.65621 6.36328L11.7648 13.4718L9.04391 15.804C8.5082 15.3052 7.78974 15 7 15C5.34315 15 4 16.3431 4 18C4 19.6569 5.34315 21 7 21C8.65685 21 10 19.6569 10 18C10 17.4938 9.87465 17.017 9.65331 16.5987L12.474 14.181L14.5546 16.2617C14.2054 16.7521 14 17.3521 14 18C14 19.6569 15.3431 21 17 21C18.6569 21 20 19.6569 20 18C20 16.3431 18.6569 15 17 15C16.3521 15 15.7522 15.2054 15.2618 15.5546L13.7071 14H16.5C18.9853 14 21 11.9853 21 9.5V8.5V8V6.5C21 6.38647 20.9614 6.27631 20.8904 6.18765L18.8904 3.68765C18.8076 3.58411 18.687 3.5177 18.5552 3.50306L14.0552 3.00306ZM20 8V6.67539L18.2389 4.47407L14.5 4.05863V8H20ZM13.9984 9C13.999 9 13.9995 9 14 9C14.0005 9 14.001 9 14.0016 9H20V9.5C20 11.433 18.433 13 16.5 13H12.7071L8.70714 9H13.9984ZM15 18C15 16.8954 15.8954 16 17 16C18.1046 16 19 16.8954 19 18C19 19.1046 18.1046 20 17 20C15.8954 20 15 19.1046 15 18ZM7 16C5.89543 16 5 16.8954 5 18C5 19.1046 5.89543 20 7 20C8.10457 20 9 19.1046 9 18C9 16.8954 8.10457 16 7 16Z" fill="#2B2B2C"/>
</svg>
