<svg width="30" height="30" viewBox="0 0 30 30" fill="none" xmlns="http://www.w3.org/2000/svg">
<path fill-rule="evenodd" clip-rule="evenodd" d="M17.1665 4.12744C17.2725 4.03259 17.4139 3.98735 17.5552 4.00306L22.0552 4.50306C22.1347 4.51189 22.2108 4.53964 22.2773 4.58398L25.2773 6.58398C25.3615 6.64008 25.4267 6.72039 25.4642 6.81431L26.4642 9.31431C26.4879 9.37337 26.5 9.43639 26.5 9.5V11.5V12V14.5C26.5 16.9853 24.4853 19 22 19H16.2072L18.9642 21.757C19.5684 20.707 20.7016 20 22 20C23.933 20 25.5 21.567 25.5 23.5C25.5 25.433 23.933 27 22 27C20.067 27 18.5 25.433 18.5 23.5C18.5 23.2535 18.5255 23.013 18.5739 22.7809L15.1774 19.3843L11.7029 22.0867C11.8939 22.5189 12 22.9971 12 23.5C12 25.433 10.433 27 8.5 27C6.567 27 5 25.433 5 23.5C5 21.567 6.567 20 8.5 20C9.56934 20 10.5267 20.4796 11.1687 21.2353L14.4647 18.6717L6.72652 10.9335C6.09435 10.3013 5.05304 10.359 4.49455 11.0571L3.89045 11.8123C3.71795 12.0279 3.4033 12.0628 3.18767 11.8903C2.97204 11.7178 2.93708 11.4032 3.10958 11.1876L3.71368 10.4324C4.6445 9.26892 6.38002 9.1728 7.43363 10.2264L8.70722 11.5L17 11.5V4.5C17 4.35778 17.0606 4.22229 17.1665 4.12744ZM25.5 9.59629V11.5L18 11.5V5.05863L21.8239 5.48351L24.5934 7.32989L25.5 9.59629ZM22 21C20.6193 21 19.5 22.1193 19.5 23.5C19.5 24.8807 20.6193 26 22 26C23.3807 26 24.5 24.8807 24.5 23.5C24.5 22.1193 23.3807 21 22 21ZM6 23.5C6 22.1193 7.11929 21 8.5 21C9.88071 21 11 22.1193 11 23.5C11 24.8807 9.88071 26 8.5 26C7.11929 26 6 24.8807 6 23.5Z" fill="#2B2B2C"/>
</svg>
