<svg xmlns="http://www.w3.org/2000/svg" width="30" height="30" fill="none"><path fill="#2B2B2C" d="m17.41 9.898-2.861 10.224h-3.082l-.76-2.781c-.28-.987-.614-2.354-1-4.102-.4 1.814-.714 3.182-.94 4.102l-.721 2.781H4.925L2.083 9.898h2.762l.8 3.361c.24.987.573 2.508 1 4.562.414-2 .76-3.521 1.04-4.562l.881-3.361h2.381l.9 3.361c.28 1.094.567 2.321.86 3.682.04.147.107.44.2.88.334-1.72.661-3.241.981-4.562l.82-3.361h2.702ZM26.116 13.1c-.534-.56-1.007-.934-1.42-1.121-.4-.2-.828-.3-1.281-.3-.84 0-1.5.32-1.981.96-.467.627-.7 1.414-.7 2.361 0 .947.233 1.734.7 2.361.48.627 1.134.94 1.96.94.508 0 .974-.12 1.401-.36.427-.253.887-.687 1.38-1.3l1.741 1.44c-.72.867-1.44 1.48-2.16 1.841-.707.347-1.508.52-2.401.52-1.027 0-1.941-.22-2.741-.66a4.762 4.762 0 0 1-1.861-1.88c-.44-.828-.66-1.795-.66-2.902 0-1.107.226-2.067.68-2.881a4.693 4.693 0 0 1 1.88-1.9c.8-.441 1.715-.661 2.742-.661.84 0 1.607.147 2.3.44.694.293 1.361.787 2.001 1.48l-1.58 1.621Z"/></svg>