<svg xmlns="http://www.w3.org/2000/svg" width="30" height="30" fill="none"><path fill="#2B2B2C" d="m17.067 9.85-2.91 10.3h-2.156l-.941-3.308c-.545-1.912-.97-3.51-1.277-4.793-.224 1.032-.635 2.637-1.235 4.814l-.921 3.286H5.47L2.56 9.851h1.884l1.005 3.83c.405 1.577.802 3.224 1.193 4.94.433-1.814.858-3.46 1.277-4.94l1.067-3.83h1.696l1.088 3.83c.419 1.507.844 3.161 1.277 4.961.405-1.814.802-3.467 1.193-4.96l1.005-3.831h1.82ZM26.162 12.593c-.544-.614-1.054-1.033-1.528-1.256a3.409 3.409 0 0 0-1.507-.335c-.67 0-1.242.188-1.716.565-.475.363-.83.851-1.068 1.466A5.412 5.412 0 0 0 19.987 15c0 .698.119 1.354.356 1.968a3.45 3.45 0 0 0 1.067 1.465c.489.363 1.075.544 1.759.544.572 0 1.088-.126 1.549-.377.46-.25.976-.711 1.549-1.381l1.172.984c-.656.823-1.319 1.402-1.989 1.737-.67.335-1.43.502-2.281.502-.991 0-1.87-.223-2.638-.67-.753-.446-1.34-1.081-1.758-1.904-.418-.824-.628-1.78-.628-2.868 0-1.074.21-2.023.628-2.847.419-.823 1.005-1.458 1.758-1.904.768-.46 1.64-.691 2.617-.691.851 0 1.605.153 2.26.46.656.307 1.291.81 1.905 1.507l-1.151 1.068Z"/></svg>