<svg xmlns="http://www.w3.org/2000/svg" width="19" height="18" fill="none"><path fill="#2B2B2C" d="m10.841 5.939-1.716 6.134h-1.85l-.455-1.668a45.754 45.754 0 0 1-.6-2.461c-.24 1.088-.429 1.908-.565 2.46l-.432 1.67H3.35L1.646 5.938h1.656l.48 2.017c.144.592.345 1.504.6 2.737a51.2 51.2 0 0 1 .625-2.737l.528-2.017h1.429l.54 2.017c.168.656.34 1.392.516 2.208.024.089.064.265.12.529.2-1.033.396-1.945.588-2.737l.493-2.017h1.62ZM16.065 7.86c-.32-.337-.604-.56-.852-.673-.24-.12-.497-.18-.769-.18-.504 0-.9.192-1.188.576-.28.377-.42.849-.42 1.417 0 .568.14 1.04.42 1.417.288.376.68.564 1.176.564.304 0 .585-.072.84-.216.257-.152.533-.412.829-.78l1.044.864c-.432.52-.864.888-1.296 1.104a3.228 3.228 0 0 1-1.44.312c-.617 0-1.165-.132-1.645-.396a2.857 2.857 0 0 1-1.117-1.128c-.264-.496-.396-1.077-.396-1.74 0-.665.136-1.241.408-1.73a2.816 2.816 0 0 1 1.129-1.14c.48-.264 1.028-.396 1.644-.396.505 0 .965.088 1.38.264.417.176.817.472 1.201.888l-.948.973Z"/></svg>