<svg xmlns="http://www.w3.org/2000/svg" width="25" height="24" fill="none"><path fill="#2B2B2C" d="m14.153 7.88-2.328 8.24h-1.724l-.754-2.646a96.072 96.072 0 0 1-1.021-3.835c-.179.826-.508 2.11-.988 3.851L6.6 16.12H4.876L2.55 7.88h1.507l.804 3.065c.323 1.261.641 2.579.954 3.952a98.58 98.58 0 0 1 1.021-3.952l.854-3.064h1.357l.87 3.064c.335 1.206.676 2.529 1.022 3.969.324-1.452.642-2.774.954-3.969l.804-3.064h1.457ZM21.43 10.074c-.436-.49-.844-.826-1.223-1.004A2.727 2.727 0 0 0 19 8.802c-.536 0-.993.15-1.373.452a2.63 2.63 0 0 0-.854 1.172A4.33 4.33 0 0 0 16.489 12c0 .558.095 1.083.285 1.574.19.48.474.87.854 1.172.39.29.86.436 1.407.436.457 0 .87-.1 1.239-.302.368-.2.781-.57 1.239-1.105l.938.787c-.525.659-1.055 1.122-1.591 1.39-.536.268-1.144.402-1.825.402-.793 0-1.496-.179-2.11-.536a3.647 3.647 0 0 1-1.407-1.524c-.335-.659-.502-1.423-.502-2.294 0-.86.167-1.619.502-2.277a3.647 3.647 0 0 1 1.407-1.524c.614-.369 1.311-.553 2.093-.553.68 0 1.284.123 1.808.369.525.245 1.033.647 1.524 1.205l-.92.854Z"/></svg>