<svg xmlns="http://www.w3.org/2000/svg" width="19" height="18" fill="none"><path fill="#2B2B2C" d="m10.74 5.91-1.746 6.18H7.701l-.565-1.985A72.04 72.04 0 0 1 6.37 7.23c-.134.62-.381 1.583-.741 2.889l-.553 1.971H3.782L2.037 5.911h1.13l.603 2.298c.243.946.481 1.934.716 2.964.26-1.089.515-2.077.766-2.964l.64-2.298H6.91l.653 2.298c.25.904.506 1.896.766 2.976.243-1.088.481-2.08.716-2.976l.602-2.298h1.093ZM16.197 7.556c-.326-.369-.632-.62-.917-.754a2.045 2.045 0 0 0-.904-.2c-.402 0-.745.112-1.03.338-.284.218-.498.511-.64.88A3.248 3.248 0 0 0 12.492 9c0 .419.071.812.214 1.18.142.36.356.654.64.88.293.217.645.326 1.055.326.343 0 .653-.075.93-.226.276-.15.586-.427.929-.829l.703.59c-.393.495-.791.842-1.193 1.043a3.02 3.02 0 0 1-1.369.301c-.594 0-1.122-.134-1.582-.402a2.735 2.735 0 0 1-1.055-1.142c-.251-.494-.377-1.068-.377-1.721 0-.645.126-1.214.377-1.708a2.735 2.735 0 0 1 1.055-1.143c.46-.276.983-.414 1.57-.414.51 0 .962.092 1.356.276.394.184.774.486 1.143.904l-.69.64Z"/></svg>