<svg xmlns="http://www.w3.org/2000/svg" width="24" height="24" fill="none"><path fill="#2B2B2C" d="m13.928 7.918-2.29 8.18H9.175l-.608-2.225c-.225-.79-.491-1.884-.8-3.282-.32 1.452-.572 2.545-.753 3.282l-.576 2.225H3.94l-2.273-8.18h2.209l.64 2.69c.192.79.459 2.006.8 3.649.331-1.6.608-2.817.833-3.65l.704-2.689h1.905l.72 2.69c.224.874.453 1.856.688 2.945.032.117.085.352.16.704.267-1.377.528-2.593.785-3.65l.656-2.689h2.16ZM20.893 10.48c-.427-.449-.806-.748-1.137-.897a2.26 2.26 0 0 0-1.024-.24c-.672 0-1.2.256-1.585.768-.373.502-.56 1.131-.56 1.889s.187 1.387.56 1.889c.384.501.907.752 1.569.752.405 0 .779-.096 1.12-.288.342-.203.71-.55 1.105-1.04l1.392 1.152c-.576.694-1.152 1.184-1.728 1.473-.566.277-1.206.416-1.921.416-.822 0-1.553-.176-2.193-.528a3.809 3.809 0 0 1-1.489-1.505c-.352-.662-.528-1.435-.528-2.321 0-.886.181-1.654.544-2.305a3.754 3.754 0 0 1 1.505-1.52c.64-.353 1.371-.529 2.193-.529.672 0 1.286.118 1.84.352.555.235 1.089.63 1.601 1.185l-1.264 1.296Z"/></svg>