<svg width="18" height="18" viewBox="0 0 18 18" fill="none" xmlns="http://www.w3.org/2000/svg">
<g clip-path="url(#clip0_8413_86)">
<g clip-path="url(#clip1_8413_86)">
<path d="M14.75 4C15.4404 4 16 4.55964 16 5.25V6.5H17C17.2761 6.5 17.5 6.72386 17.5 7V11C17.5 11.2761 17.2761 11.5 17 11.5H16V12.75C16 13.4404 15.4404 14 14.75 14H2.75C2.05964 14 1.5 13.4404 1.5 12.75V5.25C1.5 4.55964 2.05964 4 2.75 4H14.75ZM2.75 5C2.61193 5 2.5 5.11193 2.5 5.25V12.75C2.5 12.8881 2.61193 13 2.75 13H14.75C14.8881 13 15 12.8881 15 12.75V5.25C15 5.11193 14.8881 5 14.75 5H2.75ZM8.39453 6.08789C8.5598 5.81227 8.98306 5.95409 8.94922 6.27344L8.7207 8.39844L10.4336 8.05078C10.6891 7.99918 10.8843 8.27643 10.75 8.5L8.80664 11.7344C8.64021 12.0095 8.21567 11.8649 8.25195 11.5449L8.49023 9.44531L6.76172 9.78711C6.50698 9.83738 6.31273 9.5627 6.44531 9.33984L8.39453 6.08789ZM16 10.5H16.5V7.5H16V10.5Z" fill="#2B2B2C"/>
</g>
</g>
<defs>
<clipPath id="clip0_8413_86">
<rect width="18" height="18" fill="white"/>
</clipPath>
<clipPath id="clip1_8413_86">
<rect width="18" height="18" fill="white" transform="translate(0.5)"/>
</clipPath>
</defs>
</svg>
