<svg width="30" height="30" viewBox="0 0 30 30" fill="none" xmlns="http://www.w3.org/2000/svg">
<g clip-path="url(#clip0_8413_90)">
<path d="M24.041 7.5C25.0075 7.5 25.791 8.2835 25.791 9.25V11.5H27.291C27.5672 11.5 27.791 11.7239 27.791 12V18C27.791 18.2761 27.5672 18.5 27.291 18.5H25.791V20.75C25.791 21.7165 25.0075 22.5 24.041 22.5H3.54102C2.57452 22.5 1.79102 21.7165 1.79102 20.75V9.25C1.79102 8.2835 2.57452 7.5 3.54102 7.5H24.041ZM13.9297 10.6865C13.9847 10.1676 13.2969 9.93691 13.0283 10.3848L9.86035 15.6689C9.6449 16.0311 9.96105 16.4782 10.375 16.3965L13.1836 15.8408L12.7969 19.2529C12.7382 19.7727 13.4279 20.0075 13.6982 19.5605L16.8555 14.3047C17.0738 13.9413 16.7572 13.4902 16.3418 13.5742L13.5586 14.1396L13.9297 10.6865ZM25.791 17.5H26.791V12.5H25.791V17.5Z" fill="#2B2B2C"/>
</g>
<defs>
<clipPath id="clip0_8413_90">
<rect width="30" height="30" fill="white"/>
</clipPath>
</defs>
</svg>
