<svg width="18" height="18" viewBox="0 0 18 18" fill="none" xmlns="http://www.w3.org/2000/svg">
<g clip-path="url(#clip0_8413_81)">
<path d="M14.25 4C14.9404 4 15.5 4.55964 15.5 5.25V6.5H16.5C16.7761 6.5 17 6.72386 17 7V11C17 11.2761 16.7761 11.5 16.5 11.5H15.5V12.75C15.5 13.4404 14.9404 14 14.25 14H2.25C1.55964 14 1 13.4404 1 12.75V5.25C1 4.55964 1.55964 4 2.25 4H14.25ZM8.44922 6.27344C8.48284 5.95429 8.05982 5.8125 7.89453 6.08789L5.94531 9.33984C5.81273 9.5627 6.00698 9.83738 6.26172 9.78711L7.99023 9.44531L7.75195 11.5449C7.71564 11.8649 8.14021 12.0095 8.30664 11.7344L10.25 8.5C10.3841 8.27642 10.1891 7.99908 9.93359 8.05078L8.2207 8.39844L8.44922 6.27344ZM15.5 10.5H16V7.5H15.5V10.5Z" fill="#2B2B2C"/>
</g>
<defs>
<clipPath id="clip0_8413_81">
<rect width="18" height="18" fill="white"/>
</clipPath>
</defs>
</svg>
