<svg width="24" height="24" viewBox="0 0 24 24" fill="none" xmlns="http://www.w3.org/2000/svg">
<g clip-path="url(#clip0_8413_77)">
<path d="M18.5 6C19.3284 6 20 6.67157 20 7.5V9H21.5C21.7761 9 22 9.22386 22 9.5V14.5C22 14.7761 21.7761 15 21.5 15H20V16.5C20 17.3284 19.3284 18 18.5 18H3.5C2.67157 18 2 17.3284 2 16.5V7.5C2 6.67157 2.67157 6 3.5 6H18.5ZM3.5 7C3.22386 7 3 7.22386 3 7.5V16.5C3 16.7761 3.22386 17 3.5 17H18.5C18.7761 17 19 16.7761 19 16.5V7.5C19 7.22386 18.7761 7 18.5 7H3.5ZM10.6895 8.27441C10.9125 7.90229 11.4839 8.09348 11.4385 8.52441L11.1299 11.3936L13.4424 10.9238C13.7873 10.8542 14.0503 11.2285 13.8691 11.5303L11.2461 15.8965C11.0215 16.2678 10.4484 16.0733 10.4971 15.6416L10.8184 12.8066L8.48535 13.2686C8.14145 13.3364 7.87863 12.9649 8.05762 12.6641L10.6895 8.27441ZM20 14H21V10H20V14Z" fill="#2B2B2C"/>
</g>
<defs>
<clipPath id="clip0_8413_77">
<rect width="24" height="24" fill="white"/>
</clipPath>
</defs>
</svg>
