<svg width="30" height="30" viewBox="0 0 30 30" fill="none" xmlns="http://www.w3.org/2000/svg">
<g clip-path="url(#clip0_8413_97)">
<path d="M24.25 7.5C25.2165 7.5 26 8.2835 26 9.25V11.5H27.5C27.7761 11.5 28 11.7239 28 12V18C28 18.2761 27.7761 18.5 27.5 18.5H26V20.75C26 21.7165 25.2165 22.5 24.25 22.5H3.75C2.7835 22.5 2 21.7165 2 20.75V9.25C2 8.2835 2.7835 7.5 3.75 7.5H24.25ZM3.75 8.5C3.33579 8.5 3 8.83579 3 9.25V20.75C3 21.1642 3.33579 21.5 3.75 21.5H24.25C24.6642 21.5 25 21.1642 25 20.75V9.25C25 8.83579 24.6642 8.5 24.25 8.5H3.75ZM13.2373 10.3848C13.5059 9.93691 14.1937 10.1676 14.1387 10.6865L13.7676 14.1396L16.5508 13.5742C16.9661 13.4902 17.2828 13.9413 17.0645 14.3047L13.9072 19.5605C13.6368 20.0075 12.9472 19.7727 13.0059 19.2529L13.3926 15.8408L10.584 16.3965C10.17 16.4782 9.85389 16.0311 10.0693 15.6689L13.2373 10.3848ZM26 17.5H27V12.5H26V17.5Z" fill="#2B2B2C"/>
</g>
<defs>
<clipPath id="clip0_8413_97">
<rect width="30" height="30" fill="white"/>
</clipPath>
</defs>
</svg>
