<svg width="24" height="24" viewBox="0 0 24 24" fill="none" xmlns="http://www.w3.org/2000/svg">
<g clip-path="url(#clip0_8413_69)">
<path d="M18.291 6C19.1194 6 19.791 6.67157 19.791 7.5V9H21.291C21.5672 9 21.791 9.22386 21.791 9.5V14.5C21.791 14.7761 21.5672 15 21.291 15H19.791V16.5C19.791 17.3284 19.1194 18 18.291 18H3.29102C2.46259 18 1.79102 17.3284 1.79102 16.5V7.5C1.79102 6.67157 2.46259 6 3.29102 6H18.291ZM11.2295 8.52441C11.2749 8.09348 10.7035 7.90229 10.4805 8.27441L7.84863 12.6641C7.66964 12.9649 7.93247 13.3364 8.27637 13.2686L10.6094 12.8066L10.2881 15.6416C10.2394 16.0733 10.8125 16.2678 11.0371 15.8965L13.6602 11.5303C13.8413 11.2285 13.5783 10.8542 13.2334 10.9238L10.9209 11.3936L11.2295 8.52441ZM19.791 14H20.791V10H19.791V14Z" fill="#2B2B2C"/>
</g>
<defs>
<clipPath id="clip0_8413_69">
<rect width="24" height="24" fill="white"/>
</clipPath>
</defs>
</svg>
