<svg width="24" height="24" viewBox="0 0 24 24" fill="none" xmlns="http://www.w3.org/2000/svg">
<path fill-rule="evenodd" clip-rule="evenodd" d="M4.5 2C4.22386 2 4 2.22386 4 2.5V21.5C4 21.7761 4.22386 22 4.5 22H19.5C19.7761 22 20 21.7761 20 21.5V2.5C20 2.22386 19.7761 2 19.5 2H4.5ZM5 21V3H19V21H5ZM6.5 5C6.22386 5 6 5.22386 6 5.5V15.5C6 15.7761 6.22386 16 6.5 16H13.5C13.7761 16 14 15.7761 14 15.5V5.5C14 5.22386 13.7761 5 13.5 5H6.5ZM7 15V6H13V15H7ZM15 5.5C15 5.22386 15.2239 5 15.5 5H17.5C17.7761 5 18 5.22386 18 5.5V7.5C18 7.77614 17.7761 8 17.5 8H15.5C15.2239 8 15 7.77614 15 7.5V5.5ZM16 6V7H17V6H16ZM15.5 9C15.2239 9 15 9.22386 15 9.5V11.5C15 11.7761 15.2239 12 15.5 12H17.5C17.7761 12 18 11.7761 18 11.5V9.5C18 9.22386 17.7761 9 17.5 9H15.5ZM16 11V10H17V11H16ZM15 13.5C15 13.2239 15.2239 13 15.5 13H17.5C17.7761 13 18 13.2239 18 13.5V15.5C18 15.7761 17.7761 16 17.5 16H15.5C15.2239 16 15 15.7761 15 15.5V13.5ZM16 14V15H17V14H16ZM6.5 18C6.22386 18 6 18.2239 6 18.5C6 18.7761 6.22386 19 6.5 19H17.5C17.7761 19 18 18.7761 18 18.5C18 18.2239 17.7761 18 17.5 18H6.5Z" fill="#2B2B2C"/>
</svg>
