<svg width="24" height="24" viewBox="0 0 24 24" fill="none" xmlns="http://www.w3.org/2000/svg">
<path fill-rule="evenodd" clip-rule="evenodd" d="M21.002 4.18884H19.306H18.988C18.338 4.18884 17.984 4.51484 17.759 5.29484L16.991 7.87384L17.1253 8.32495L17.1257 8.32634L17.1259 8.32707C17.2393 8.70823 17.3321 9.02002 17.383 9.18884C17.537 9.70784 17.837 10.2368 18.253 10.3738C18.924 10.3278 19.16 9.81484 19.367 9.12584C19.57 8.44684 20.762 4.46684 20.762 4.46684C20.796 4.35484 20.893 4.23784 21.005 4.20484V4.20384C21.009 4.20284 21.006 4.18884 21.002 4.18884ZM7.24523 11.3634L7.24487 11.3646C6.95968 12.3275 6.751 13.032 6.74611 13.0496C6.64011 13.4086 6.51811 13.7856 6.26511 13.9916C6.17811 14.0676 6.06911 14.1106 5.95611 14.1306C5.61711 14.0566 5.26111 13.7886 5.04811 13.0336L2.69111 4.99564C2.55211 4.51264 2.34511 4.27064 1.99211 4.21064C1.98811 4.20964 1.98511 4.20664 1.98511 4.20264C1.98511 4.19864 1.98911 4.19564 1.99311 4.19564L4.28411 4.19064C4.93411 4.19064 5.28811 4.51564 5.51411 5.29564C5.51411 5.29564 6.76711 9.59564 7.26411 11.2996L7.24523 11.3634ZM11.1962 4.20294C11.2462 4.20494 11.2822 4.20594 11.2832 4.20594L11.2931 4.20722C11.3882 4.21867 11.9835 4.29036 12.3612 5.23894C12.2992 5.40394 12.2442 5.56994 12.1972 5.72494C12.1802 5.77994 10.2992 12.1859 10.0942 12.8879C9.81121 13.8469 9.48121 14.1279 8.82021 14.1549C8.80221 14.1559 8.70921 14.1569 8.70921 14.1569H8.57921C8.57862 14.1569 8.57838 14.1563 8.57808 14.1557C8.57786 14.1553 8.57762 14.1549 8.57721 14.1549L7.83321 14.1559C7.83082 14.1559 7.82867 14.1564 7.82641 14.1569L7.82641 14.1569C7.82393 14.1574 7.82134 14.1579 7.81821 14.1579H7.48421H7.48321L7.48269 14.1578L7.48243 14.1576C7.48221 14.1573 7.48221 14.1569 7.48221 14.1569L6.72521 14.1579H6.49421H6.49321C6.48921 14.1579 6.48621 14.1539 6.48621 14.1499C6.48621 14.1459 6.48921 14.1429 6.49221 14.1429C6.61621 14.1259 6.73221 14.0739 6.82621 13.9919C7.08021 13.7859 7.20121 13.4089 7.30821 13.0499C7.32421 12.9959 9.34321 6.16794 9.46021 5.72494C9.75521 4.61594 10.4872 4.26194 11.1962 4.20294ZM16.7487 8.91477L16.7486 8.91439C16.7255 8.83652 16.6972 8.74052 16.6645 8.63064L16.5816 8.35213L16.5815 8.3518L16.581 8.35037C16.3304 7.50856 15.9741 6.31192 15.7315 5.51264C15.4085 4.45064 14.4635 4.22764 13.9275 4.19664L13.9215 4.19464H13.8755C13.8639 4.19423 13.8518 4.19347 13.8399 4.19273C13.823 4.19167 13.8066 4.19064 13.7925 4.19064C13.7914 4.19064 13.7906 4.19161 13.7897 4.19263C13.7891 4.1934 13.7884 4.19421 13.7875 4.19464L13.1075 4.19364L13.1039 4.19255C13.101 4.19162 13.098 4.19064 13.0945 4.19064H12.8285C12.828 4.19064 12.8278 4.19114 12.8275 4.19164C12.8273 4.19214 12.827 4.19264 12.8265 4.19264L12.1215 4.19064H11.8335C11.8285 4.19064 11.8255 4.19364 11.8245 4.19764C11.8245 4.20164 11.8275 4.20564 11.8315 4.20564C11.834 4.20607 11.8381 4.20652 11.8436 4.20713C11.9551 4.21949 12.6513 4.2967 13.0105 5.51264L13.0732 5.72471L13.0733 5.7252C13.4362 6.95338 13.8469 8.34323 13.9905 8.85164C14.3195 10.0156 14.7465 10.3966 15.4295 10.3966L15.7565 10.3936C15.7565 10.3936 17.5225 10.3966 17.6155 10.3966H17.7015C17.7035 10.3966 17.7055 10.3936 17.7065 10.3916C17.6005 10.3626 17.5005 10.3216 17.4095 10.2616C17.1336 10.0842 17.0088 9.7129 16.8276 9.17364L16.8276 9.17363L16.8135 9.13164C16.8086 9.11749 16.7855 9.03938 16.7487 8.91477ZM21.5244 4.19534C21.8024 4.23734 22.1134 4.51534 21.9844 4.95934C21.8554 5.40334 19.5524 13.2443 19.5524 13.2443C19.3564 13.9003 19.5654 14.0843 19.7314 14.1323C19.7354 14.1323 19.7384 14.1353 19.7384 14.1393C19.7374 14.1433 19.7344 14.1473 19.7304 14.1473H19.5504H19.3994H19.2974H19.1194H18.9674H18.3984H17.9784H17.4164H17.1524H16.9864C16.7834 14.1473 16.2504 14.0303 16.5884 12.8973C16.6657 12.6366 16.8278 12.1005 16.9991 11.5341L17.2344 10.7553C17.2344 10.7553 18.4774 10.7513 19.0024 10.6353C19.5274 10.5203 19.7134 9.70534 19.7134 9.70534L19.7284 9.65334C19.7301 9.64949 19.7324 9.64563 19.7347 9.64177C19.7377 9.63663 19.7407 9.63149 19.7424 9.62634L19.7425 9.62531C19.7427 9.62482 19.7429 9.62434 19.7434 9.62434L21.2714 4.42034C21.3044 4.30534 21.2434 4.23834 21.1874 4.20934C21.1854 4.20834 21.1774 4.20434 21.1794 4.19834C21.1813 4.19264 21.49 4.19507 21.5218 4.19532L21.5244 4.19534ZM6.39501 17.3504C6.78601 17.3504 7.04101 17.5514 7.04101 17.9314C7.04101 18.3064 6.78601 18.5074 6.39501 18.5074H5.48401V17.3504H6.39501ZM6.50601 19.0324C7.21101 19.0324 7.67201 18.6064 7.67201 17.9314C7.67201 17.2554 7.21101 16.8254 6.50601 16.8254H4.75901V16.8304C4.83901 16.8854 4.84401 16.9754 4.84401 17.1704V20.0934C4.84401 20.2834 4.86401 20.3784 5.01901 20.3784H5.56901V20.3734C5.48901 20.3184 5.48401 20.2284 5.48401 20.0334V19.0324H6.50601ZM10.3311 19.7981V20.2481C10.3311 20.3681 10.2111 20.3791 10.0361 20.3791H8.29911C8.14311 20.3791 8.09911 20.2831 8.09911 20.0931V17.1711C8.09911 16.9751 8.08911 16.8851 8.00911 16.8301V16.8251H8.56011C8.71511 16.8251 8.73911 16.9201 8.73911 17.1101V19.8381H10.0161C10.1811 19.8381 10.2911 19.8331 10.3261 19.7981H10.3311ZM13.3867 19.1976V17.1106C13.3867 16.9206 13.3657 16.8256 13.2117 16.8256H12.6607V16.8306C12.7407 16.8846 12.7457 16.9756 12.7457 17.1706V19.1726C12.7457 19.6326 12.4957 19.9026 11.9857 19.9026C11.4647 19.9026 11.2197 19.6326 11.2197 19.1726V17.1106C11.2197 16.9206 11.1987 16.8256 11.0437 16.8256H10.4937V16.8306C10.5737 16.8846 10.5787 16.9756 10.5787 17.1706V19.1976C10.5787 20.0736 11.1097 20.4586 11.9857 20.4586C12.8567 20.4586 13.3867 20.0736 13.3867 19.1976ZM13.9639 20.0184C13.8629 19.9434 13.7289 19.8084 13.8039 19.7184L14.1239 19.3484C14.1489 19.4224 14.2289 19.5024 14.3039 19.5584C14.5549 19.7434 14.8449 19.9134 15.2949 19.9134C15.7209 19.9134 16.0409 19.7134 16.0409 19.3674C16.0409 19.0441 15.733 18.9696 15.2511 18.8531C15.204 18.8417 15.1552 18.8299 15.1049 18.8174C14.1689 18.5874 13.8839 18.3414 13.8839 17.8014C13.8839 17.2054 14.4399 16.7454 15.2099 16.7454C15.6759 16.7454 16.0659 16.8654 16.3709 17.0954C16.4709 17.1704 16.6069 17.3064 16.5309 17.3914L16.2159 17.7564C16.2009 17.6854 16.1159 17.5914 16.0009 17.5164C15.7609 17.3604 15.5349 17.2904 15.1999 17.2904C14.7789 17.2904 14.4989 17.5004 14.4989 17.7714C14.4989 18.0685 14.774 18.1331 15.3574 18.2703L15.3574 18.2703L15.4049 18.2814C16.2709 18.4864 16.6609 18.7224 16.6609 19.3224C16.6609 19.9934 16.1259 20.4634 15.2849 20.4634C14.6689 20.4634 14.2689 20.2584 13.9639 20.0184ZM16.9035 19.7184C16.8285 19.8084 16.9635 19.9434 17.0635 20.0184C17.3695 20.2584 17.7695 20.4634 18.3845 20.4634C19.2255 20.4634 19.7615 19.9934 19.7615 19.3224C19.7615 18.7224 19.3715 18.4864 18.5045 18.2814C18.4883 18.2776 18.4723 18.2738 18.4565 18.2701C17.8744 18.1331 17.5995 18.0684 17.5995 17.7714C17.5995 17.5004 17.8795 17.2904 18.2995 17.2904C18.6355 17.2904 18.8605 17.3604 19.1005 17.5164C19.2155 17.5914 19.3005 17.6854 19.3165 17.7564L19.6305 17.3914C19.7065 17.3064 19.5715 17.1704 19.4705 17.0954C19.1665 16.8654 18.7755 16.7454 18.3095 16.7454C17.5395 16.7454 16.9835 17.2054 16.9835 17.8014C16.9835 18.3414 17.2685 18.5874 18.2055 18.8174C18.2555 18.8298 18.304 18.8416 18.3509 18.8529C18.8331 18.9695 19.1405 19.0439 19.1405 19.3674C19.1405 19.7134 18.8205 19.9134 18.3955 19.9134C17.9445 19.9134 17.6545 19.7434 17.4045 19.5584C17.3295 19.5024 17.2495 19.4224 17.2235 19.3484L16.9035 19.7184Z" fill="#2B2B2C"/>
</svg>
