<svg width="30" height="30" viewBox="0 0 30 30" fill="none" xmlns="http://www.w3.org/2000/svg">
<path fill-rule="evenodd" clip-rule="evenodd" d="M7 3.5C7 3.22386 7.22386 3 7.5 3H10.5C10.7761 3 11 3.22386 11 3.5V6.11151C13.004 6.56624 14.5 8.35841 14.5 10.5V14.9827C14.5 15.7157 14.303 16.4352 13.9297 17.066C13.3936 17.9718 13.3554 19.0881 13.8283 20.0284L14.0203 20.4102C14.3357 21.0374 14.5 21.7298 14.5 22.4319V25C14.5 26.1046 13.6046 27 12.5 27H5.5C4.39543 27 3.5 26.1046 3.5 25V22.4443C3.5 21.7457 3.66265 21.0567 3.97508 20.4318L4.18621 20.0096C4.64949 19.083 4.60728 17.984 4.07429 17.0957C3.69851 16.4693 3.5 15.7527 3.5 15.0223V10.5C3.5 8.35842 4.99601 6.56624 7 6.11151V3.5ZM8 7H10C11.7632 7 13.2219 8.30385 13.4646 10H4.53544C4.77806 8.30385 6.23677 7 8 7ZM4.5 11V15.0223C4.5 15.3563 4.55523 15.6866 4.66209 16H13.3278C13.4413 15.6743 13.5 15.3305 13.5 14.9827V11H4.5ZM5.08063 20.4568C5.62581 19.3664 5.64469 18.0965 5.15083 17H12.8419C12.3572 18.1072 12.3842 19.3827 12.9349 20.4777L13.1269 20.8594C13.3722 21.3473 13.5 21.8858 13.5 22.4319V25C13.5 25.5523 13.0523 26 12.5 26H5.5C4.94772 26 4.5 25.5523 4.5 25V22.4443C4.5 21.9009 4.62651 21.365 4.8695 20.879L5.08063 20.4568ZM10 4V6H8V4H10ZM17 15C16.8595 15 16.7255 15.0591 16.6308 15.1628C16.5361 15.2666 16.4893 15.4054 16.5021 15.5453L17.5021 26.5453C17.5255 26.8028 17.7414 27 18 27H25C25.2586 27 25.4745 26.8028 25.4979 26.5453L26.4979 15.5453C26.5107 15.4054 26.4639 15.2666 26.3692 15.1628C26.2745 15.0591 26.1405 15 26 15H17ZM17.8363 19.1761L17.5475 16H25.4525L25.2178 18.582L24.9699 18.7059C24.0143 19.1837 22.903 19.2421 21.9026 18.8669C20.5579 18.3627 19.0704 18.4846 17.8363 19.1761ZM17.9381 20.2967L18.4566 26H24.5434L25.1125 19.7397C23.9806 20.211 22.7073 20.2367 21.5515 19.8033C20.3397 19.3489 18.9818 19.5353 17.9381 20.2967Z" fill="#2B2B2C"/>
</svg>
