<svg width="24" height="24" viewBox="0 0 24 24" fill="none" xmlns="http://www.w3.org/2000/svg">
<path fill-rule="evenodd" clip-rule="evenodd" d="M6.5 3C6.22386 3 6 3.22386 6 3.5V5.64494C4.55426 6.07521 3.5 7.41449 3.5 9V11.3235C3.5 12.1954 3.78278 13.0437 4.30588 13.7412C4.64314 14.1908 4.64314 14.8092 4.30588 15.2588C3.78278 15.9563 3.5 16.8046 3.5 17.6765V19.5C3.5 20.3284 4.17157 21 5 21H10.5C11.3284 21 12 20.3284 12 19.5V17.6765C12 16.8046 11.7172 15.9563 11.1941 15.2588C10.8569 14.8092 10.8569 14.1908 11.1941 13.7412C11.7172 13.0437 12 12.1954 12 11.3235V9C12 7.41449 10.9457 6.07521 9.5 5.64494V3.5C9.5 3.22386 9.27614 3 9 3H6.5ZM8.5 6.5H7C5.97484 6.5 5.0938 7.11705 4.70802 8H10.792C10.4062 7.11705 9.52516 6.5 8.5 6.5ZM5.00616 13C5.03798 13.0479 5.07123 13.095 5.10588 13.1412C5.7098 13.9464 5.7098 15.0536 5.10588 15.8588C4.7126 16.3832 4.5 17.021 4.5 17.6765V19.5C4.5 19.7761 4.72386 20 5 20H10.5C10.7761 20 11 19.7761 11 19.5V17.6765C11 17.021 10.7874 16.3832 10.3941 15.8588C9.7902 15.0536 9.7902 13.9464 10.3941 13.1412C10.4288 13.095 10.462 13.0479 10.4938 13H5.00616ZM13.6356 12.1577C13.7301 12.0571 13.862 12 14 12H20C20.138 12 20.2699 12.0571 20.3644 12.1577C20.4589 12.2582 20.5076 12.3934 20.499 12.5312L19.999 20.5312C19.9826 20.7947 19.764 21 19.5 21H14.5C14.236 21 14.0174 20.7947 14.001 20.5312L13.501 12.5312C13.4924 12.3934 13.5411 12.2582 13.6356 12.1577ZM14.9697 20L14.7318 16.1932L15.1297 15.9943C15.6776 15.7203 16.3224 15.7203 16.8702 15.9943C17.569 16.3437 18.378 16.4012 19.1192 16.1541L19.2739 16.1025L19.0303 20H14.9697Z" fill="#2B2B2C"/>
</svg>
