<svg width="24" height="24" viewBox="0 0 24 24" fill="none" xmlns="http://www.w3.org/2000/svg">
<path fill-rule="evenodd" clip-rule="evenodd" d="M12 4C12 3.44772 12.4477 3 13 3C13.5523 3 14 3.44772 14 4C14 4.55228 13.5523 5 13 5C12.4477 5 12 4.55228 12 4ZM13 2C11.8954 2 11 2.89543 11 4C11 5.10457 11.8954 6 13 6C14.1046 6 15 5.10457 15 4C15 2.89543 14.1046 2 13 2ZM5 16.5C5 14.4392 6.38522 12.702 8.27533 12.1687L10.0528 15.7236C10.1763 15.9706 10.4766 16.0707 10.7236 15.9472C10.9706 15.8237 11.0707 15.5233 10.9472 15.2764L9.31099 12.0039C9.37367 12.0013 9.43668 12 9.5 12C11.9853 12 14 14.0147 14 16.5C14 18.9853 11.9853 21 9.5 21C7.01472 21 5 18.9853 5 16.5ZM4 16.5C4 13.9504 5.73477 11.8061 8.08833 11.1828L9.40016 7.90326C9.8554 6.76518 11.1188 6.17919 12.2817 6.56681C13.3083 6.909 13.9608 7.91667 13.8532 8.99339L13.5025 12.5H16C16.195 12.5 16.3723 12.6134 16.454 12.7905L19.454 19.2905C19.5254 19.4453 19.5131 19.6258 19.4212 19.7695C19.3293 19.9131 19.1705 20 19 20H17.7797C16.8045 20 15.9184 19.433 15.5098 18.5476L14.9402 17.3137C14.547 19.9654 12.2611 22 9.5 22C6.46243 22 4 19.5376 4 16.5Z" fill="#2B2B2C"/>
</svg>
