<svg width="24" height="24" viewBox="0 0 24 24" fill="none" xmlns="http://www.w3.org/2000/svg">
<path d="M12 15C10.8954 15 10 15.8954 10 17C10 18.1046 10.8954 19 12 19C13.1046 19 14 18.1046 14 17C14 15.8954 13.1046 15 12 15Z" fill="#2B2B2C"/>
<path fill-rule="evenodd" clip-rule="evenodd" d="M12.0001 6.375C8.70533 6.375 5.74598 7.80616 3.70767 10.0835C3.38538 10.4436 2.83221 10.4743 2.47212 10.152C2.11204 9.82971 2.08139 9.27654 2.40368 8.91645C4.75993 6.28384 8.18687 4.625 12.0001 4.625C15.8133 4.625 19.2403 6.28384 21.5965 8.91645C21.9188 9.27654 21.8882 9.82971 21.5281 10.152C21.168 10.4743 20.6148 10.4436 20.2925 10.0835C18.2542 7.80616 15.2949 6.375 12.0001 6.375ZM12 9.875C9.66118 9.875 7.5689 10.927 6.16883 12.5867C5.85723 12.9561 5.3052 13.0029 4.93582 12.6913C4.56644 12.3797 4.5196 11.8277 4.83119 11.4583C6.54955 9.42126 9.12383 8.125 12 8.125C14.8762 8.125 17.4505 9.42126 19.1688 11.4583C19.4804 11.8277 19.4336 12.3797 19.0642 12.6913C18.6948 13.0029 18.1428 12.9561 17.8312 12.5867C16.4311 10.927 14.3388 9.875 12 9.875ZM12 13.375C10.6512 13.375 9.45364 14.0214 8.69956 15.0251C8.40929 15.4115 7.86077 15.4893 7.47442 15.1991C7.08806 14.9088 7.01018 14.3603 7.30045 13.9739C8.37084 12.5492 10.0776 11.625 12 11.625C13.9224 11.625 15.6292 12.5492 16.6996 13.9739C16.9898 14.3603 16.912 14.9088 16.5256 15.1991C16.1392 15.4893 15.5907 15.4115 15.3005 15.0251C14.5464 14.0214 13.3488 13.375 12 13.375Z" fill="#2B2B2C"/>
</svg>
