<svg width="24" height="24" viewBox="0 0 24 24" fill="none" xmlns="http://www.w3.org/2000/svg">
<path fill-rule="evenodd" clip-rule="evenodd" d="M12.0001 6C8.59423 6 5.53468 7.47995 3.42824 9.83346C3.24407 10.0392 2.92798 10.0567 2.72221 9.87257C2.51645 9.6884 2.49894 9.37231 2.6831 9.16654C4.97122 6.61005 8.29797 5 12.0001 5C15.7022 5 19.029 6.61005 21.3171 9.16654C21.5013 9.37231 21.4837 9.6884 21.278 9.87257C21.0722 10.0567 20.7561 10.0392 20.572 9.83346C18.4655 7.47995 15.406 6 12.0001 6ZM12 9.5C9.54603 9.5 7.35046 10.6043 5.88219 12.3449C5.70413 12.556 5.38869 12.5827 5.17761 12.4047C4.96654 12.2266 4.93977 11.9112 5.11782 11.7001C6.76798 9.74391 9.23897 8.5 12 8.5C14.761 8.5 17.232 9.74391 18.8822 11.7001C19.0602 11.9112 19.0335 12.2266 18.8224 12.4047C18.6113 12.5827 18.2959 12.556 18.1178 12.3449C16.6496 10.6043 14.454 9.5 12 9.5ZM12 13C10.5283 13 9.2216 13.706 8.39975 14.7999C8.23388 15.0206 7.92044 15.0651 7.69967 14.8993C7.47889 14.7334 7.43439 14.4199 7.60026 14.1992C8.60286 12.8647 10.2005 12 12 12C13.7995 12 15.3971 12.8647 16.3998 14.1992C16.5656 14.4199 16.5211 14.7334 16.3003 14.8993C16.0796 15.0651 15.7661 15.0206 15.6003 14.7999C14.7784 13.706 13.4717 13 12 13ZM12 16C11.4477 16 11 16.4477 11 17C11 17.5523 11.4477 18 12 18C12.5523 18 13 17.5523 13 17C13 16.4477 12.5523 16 12 16ZM10 17C10 15.8954 10.8954 15 12 15C13.1046 15 14 15.8954 14 17C14 18.1046 13.1046 19 12 19C10.8954 19 10 18.1046 10 17Z" fill="#2B2B2C"/>
</svg>
