<svg width="30" height="30" viewBox="0 0 30 30" fill="none" xmlns="http://www.w3.org/2000/svg">
<path fill-rule="evenodd" clip-rule="evenodd" d="M3 15C3 8.37258 8.37258 3 15 3C21.6274 3 27 8.37258 27 15C27 21.6274 21.6274 27 15 27C8.37258 27 3 21.6274 3 15ZM5.5 14.5C5.22386 14.5 5 14.7239 5 15C5 15.2761 5.22386 15.5 5.5 15.5H7.5C7.77614 15.5 8 15.2761 8 15C8 14.7239 7.77614 14.5 7.5 14.5H5.5ZM22.5 14.5C22.2239 14.5 22 14.7239 22 15C22 15.2761 22.2239 15.5 22.5 15.5H24.5C24.7761 15.5 25 15.2761 25 15C25 14.7239 24.7761 14.5 24.5 14.5H22.5ZM15.5 22.5C15.5 22.2239 15.2761 22 15 22C14.7239 22 14.5 22.2239 14.5 22.5V24.5C14.5 24.7761 14.7239 25 15 25C15.2761 25 15.5 24.7761 15.5 24.5V22.5ZM12.8454 13.5245C13.0513 13.4575 13.277 13.5308 13.4044 13.7059L16.5 17.9624V14C16.5 13.7239 16.7239 13.5 17 13.5C17.2761 13.5 17.5 13.7239 17.5 14V19.5C17.5 19.7166 17.3606 19.9085 17.1546 19.9755C16.9487 20.0425 16.723 19.9692 16.5956 19.7941L13.5 15.5376V19.5C13.5 19.7761 13.2761 20 13 20C12.7239 20 12.5 19.7761 12.5 19.5V14C12.5 13.7834 12.6394 13.5915 12.8454 13.5245ZM13.2095 11H16.7905C17.1363 11 17.3777 10.6575 17.2614 10.3318L15.4709 5.31844C15.3129 4.876 14.6871 4.876 14.5291 5.31844L12.7386 10.3318C12.6223 10.6575 12.8637 11 13.2095 11Z" fill="#2B2B2C"/>
</svg>
