<svg width="24" height="24" viewBox="0 0 24 24" fill="none" xmlns="http://www.w3.org/2000/svg">
<path fill-rule="evenodd" clip-rule="evenodd" d="M9.70265 3.54277C9.64071 3.51528 9.57214 3.5 9.5 3.5C9.42786 3.5 9.35929 3.51528 9.29735 3.54277L3.30769 6.03846C3.12137 6.1161 3 6.29815 3 6.5V20C3 20.1672 3.08355 20.3233 3.22265 20.416C3.36175 20.5088 3.53799 20.5258 3.69231 20.4615L9.5 18.0417L15.2975 20.4573C15.3496 20.4804 15.4064 20.4949 15.466 20.4989C15.4772 20.4996 15.4886 20.5 15.5 20.5C15.5086 20.5 15.5172 20.4998 15.5257 20.4993C15.6001 20.4956 15.6701 20.4756 15.7324 20.4428L20.7236 17.9472C20.893 17.8625 21 17.6894 21 17.5V4C21 3.82671 20.9103 3.66578 20.7629 3.57468C20.6155 3.48357 20.4314 3.47529 20.2764 3.55279L15.4811 5.95045L9.70265 3.54277ZM16 19.191L20 17.191V4.80902L16 6.80902V19.191ZM9 17.1667V4.75L4 6.83333V19.25L9 17.1667Z" fill="#2B2B2C"/>
</svg>
