<svg width="30" height="30" viewBox="0 0 30 30" fill="none" xmlns="http://www.w3.org/2000/svg">
<path fill-rule="evenodd" clip-rule="evenodd" d="M25.3536 4.64646C25.4996 4.79247 25.5408 5.01322 25.4573 5.2021L15.9573 26.7021C15.8764 26.8853 15.6939 27.0025 15.4936 27C15.2934 26.9974 15.1139 26.8756 15.0377 26.6904L11.617 18.383L3.30963 14.9624C3.12442 14.8861 3.00259 14.7067 3.00004 14.5064C2.99749 14.3061 3.11471 14.1236 3.29792 14.0427L24.7979 4.54267C24.9868 4.45921 25.2075 4.50045 25.3536 4.64646ZM4.77382 14.4838L12.1904 17.5377C12.3137 17.5884 12.4116 17.6863 12.4623 17.8096L15.5162 25.2262L24.0206 5.9794L4.77382 14.4838Z" fill="#2B2B2C"/>
</svg>
