<svg width="18" height="18" viewBox="0 0 18 18" fill="none" xmlns="http://www.w3.org/2000/svg">
<path fill-rule="evenodd" clip-rule="evenodd" d="M14.8536 3.14646C14.9968 3.28973 15.0395 3.5053 14.9615 3.69232L9.96154 15.6923C9.8834 15.8798 9.69957 16.0015 9.49643 16C9.29328 15.9986 9.11121 15.8743 9.03576 15.6857L7.11535 10.8847L2.3143 8.96425C2.12568 8.8888 2.00146 8.70673 2.00001 8.50359C1.99856 8.30044 2.12017 8.11661 2.30769 8.03848L14.3077 3.03848C14.4947 2.96055 14.7103 3.00319 14.8536 3.14646ZM3.82267 8.49057L7.6857 10.0358C7.81275 10.0866 7.91342 10.1873 7.96424 10.3143L9.50945 14.1773L13.5714 4.42859L3.82267 8.49057Z" fill="#2B2B2C"/>
</svg>
