<svg width="24" height="24" viewBox="0 0 24 24" fill="none" xmlns="http://www.w3.org/2000/svg">
<path fill-rule="evenodd" clip-rule="evenodd" d="M19.3536 4.64646C19.4971 4.79002 19.5396 5.00615 19.4611 5.19338L12.9611 20.6934C12.8821 20.8817 12.6967 21.003 12.4925 21C12.2884 20.9969 12.1066 20.8701 12.0333 20.6795L9.6131 14.3869L3.32051 11.9667C3.12996 11.8934 3.00311 11.7116 3.00006 11.5075C2.997 11.3034 3.11836 11.1179 3.30664 11.0389L18.8066 4.53892C18.9939 4.4604 19.21 4.5029 19.3536 4.64646ZM4.84071 11.48L10.1795 13.5333C10.3115 13.5841 10.4159 13.6885 10.4667 13.8205L12.52 19.1593L18.0662 5.93378L4.84071 11.48Z" fill="#2B2B2C"/>
</svg>
