<svg width="30" height="30" viewBox="0 0 30 30" fill="none" xmlns="http://www.w3.org/2000/svg">
<path fill-rule="evenodd" clip-rule="evenodd" d="M8.99999 9.5C8.99999 6.04507 11.641 3 15 3C18.359 3 21 6.04507 21 9.5C21 11.983 19.4743 14.4915 17.8652 16.4307C17.0698 17.3893 16.273 18.1862 15.6748 18.7435C15.4012 18.9984 15.1698 19.2026 15 19.3485C14.8302 19.2026 14.5988 18.9984 14.3252 18.7435C13.727 18.1862 12.9302 17.3893 12.1348 16.4307C10.5256 14.4915 8.99999 11.983 8.99999 9.5ZM14.6886 20.3912C14.6887 20.3913 14.6889 20.3914 15 20L14.6889 20.3914L15 20.6387L15.3111 20.3914L15 20C15.3111 20.3914 15.3112 20.3913 15.3114 20.3912L15.3118 20.3909L15.3131 20.3899L15.3174 20.3864L15.3329 20.3739C15.3463 20.3631 15.3656 20.3474 15.3905 20.3269C15.4404 20.2859 15.5126 20.2258 15.6039 20.1479C15.7865 19.9921 16.0459 19.7646 16.3564 19.4752C16.977 18.8971 17.8052 18.069 18.6348 17.0693C18.7615 16.9166 18.8887 16.7593 19.0156 16.5977C19.0443 16.6273 19.0771 16.6539 19.1139 16.6764L24.5948 20.032L15 26.8855L5.40516 20.032L10.8861 16.6764C10.9229 16.6539 10.9557 16.6274 10.9844 16.5978C11.1113 16.7593 11.2385 16.9166 11.3652 17.0693C12.1948 18.069 13.023 18.8971 13.6435 19.4752C13.9541 19.7646 14.2135 19.9921 14.3961 20.1479C14.4874 20.2258 14.5596 20.2859 14.6094 20.3269C14.6344 20.3474 14.6537 20.3631 14.6671 20.3739L14.6826 20.3864L14.6869 20.3899L14.6882 20.3909L14.6886 20.3912ZM10.3928 15.8071C10.3831 15.8122 10.3734 15.8177 10.3639 15.8235L4.23892 19.5735C4.09587 19.6611 4.00626 19.8146 4.00031 19.9822C3.99437 20.1499 4.07288 20.3093 4.20938 20.4068L14.7094 27.9068C14.8832 28.031 15.1168 28.031 15.2906 27.9068L25.7906 20.4068C25.9271 20.3093 26.0056 20.1499 25.9997 19.9822C25.9937 19.8146 25.9041 19.6611 25.7611 19.5735L19.6361 15.8235C19.6266 15.8177 19.6169 15.8122 19.6072 15.8071C20.892 13.9997 22 11.7848 22 9.5C22 5.59113 19.0048 2 15 2C10.9952 2 7.99999 5.59113 7.99999 9.5C7.99999 11.7848 9.10797 13.9997 10.3928 15.8071ZM12 9.00001C12 7.34316 13.3431 6.00001 15 6.00001C16.6569 6.00001 18 7.34316 18 9.00001C18 10.6569 16.6569 12 15 12C13.3431 12 12 10.6569 12 9.00001ZM15 5.00001C12.7909 5.00001 11 6.79087 11 9.00001C11 11.2092 12.7909 13 15 13C17.2091 13 19 11.2092 19 9.00001C19 6.79087 17.2091 5.00001 15 5.00001Z" fill="#2B2B2C"/>
</svg>
