<svg width="18" height="18" viewBox="0 0 18 18" fill="none" xmlns="http://www.w3.org/2000/svg">
<path fill-rule="evenodd" clip-rule="evenodd" d="M5.5 6C5.5 4.84657 5.84601 3.84241 6.44419 3.13547C7.03533 2.43685 7.89496 2 9 2C10.105 2 10.9647 2.43685 11.5558 3.13547C12.154 3.84241 12.5 4.84657 12.5 6C12.5 7.40553 11.6101 8.78559 10.63 9.86366C10.1495 10.3923 9.66734 10.8264 9.30491 11.1284C9.18938 11.2247 9.0864 11.3072 9 11.3748C8.91359 11.3072 8.81062 11.2247 8.69509 11.1284C8.33266 10.8264 7.85053 10.3923 7.36997 9.86366C6.3899 8.78559 5.5 7.40553 5.5 6ZM8.71301 12.4094C8.71301 12.4094 8.71327 12.4096 9 12C9.28673 12.4096 9.28734 12.4092 9.28734 12.4092L9 12.6103L8.71301 12.4094ZM11.5905 10.2872C11.6172 10.3252 11.6496 10.36 11.6877 10.3905L13.7051 12.0044L9 15.854L4.29493 12.0044L6.31235 10.3905C6.35039 10.36 6.38282 10.3252 6.40947 10.2872C6.48316 10.3727 6.55683 10.4558 6.63003 10.5363C7.14947 11.1077 7.66734 11.5736 8.05491 11.8966C8.24906 12.0584 8.41147 12.1851 8.52631 12.2721C8.58375 12.3156 8.62935 12.3491 8.66115 12.3723L8.69828 12.399L8.70863 12.4064L8.71168 12.4085L8.71301 12.4094L9 12L9.28734 12.4092L9.28832 12.4085L9.29137 12.4064L9.30172 12.399L9.33885 12.3723C9.37065 12.3491 9.41625 12.3156 9.47369 12.2721C9.58853 12.1851 9.75094 12.0584 9.94509 11.8966C10.3327 11.5736 10.8505 11.1077 11.37 10.5363C11.4432 10.4558 11.5168 10.3727 11.5905 10.2872ZM12.1848 9.53529C12.9044 8.53527 13.5 7.31446 13.5 6C13.5 4.65343 13.096 3.40759 12.3192 2.48953C11.5353 1.56315 10.395 1 9 1C7.60504 1 6.46467 1.56315 5.68081 2.48953C4.90399 3.40759 4.5 4.65343 4.5 6C4.5 7.31446 5.09564 8.53527 5.81517 9.53529C5.77031 9.55315 5.72731 9.57786 5.68765 9.60958L3.18765 11.6096C3.0698 11.7039 3.00084 11.8463 3.00001 11.9973C2.99918 12.1482 3.06657 12.2914 3.18338 12.387L8.68338 16.887C8.86756 17.0377 9.13244 17.0377 9.31662 16.887L14.8166 12.387C14.9334 12.2914 15.0008 12.1482 15 11.9973C14.9992 11.8463 14.9302 11.7039 14.8123 11.6096L12.3123 9.60958C12.2727 9.57786 12.2297 9.55315 12.1848 9.53529ZM7.5 5.5C7.5 4.67157 8.17157 4 9 4C9.82843 4 10.5 4.67157 10.5 5.5C10.5 6.32843 9.82843 7 9 7C8.17157 7 7.5 6.32843 7.5 5.5ZM9 3C7.61929 3 6.5 4.11929 6.5 5.5C6.5 6.88071 7.61929 8 9 8C10.3807 8 11.5 6.88071 11.5 5.5C11.5 4.11929 10.3807 3 9 3Z" fill="#2B2B2C"/>
</svg>
