<svg width="24" height="24" viewBox="0 0 24 24" fill="none" xmlns="http://www.w3.org/2000/svg">
<path fill-rule="evenodd" clip-rule="evenodd" d="M7.5 8C7.5 5.2663 9.39083 3 12 3C14.6092 3 16.5 5.2663 16.5 8C16.5 9.95039 15.3478 11.8344 14.1195 13.2757C13.5131 13.9871 12.9054 14.5707 12.4491 14.9763C12.2735 15.1323 12.1209 15.2616 12 15.3612C11.8791 15.2616 11.7265 15.1323 11.5509 14.9763C11.0946 14.5707 10.4869 13.9871 9.88054 13.2757C8.65219 11.8344 7.5 9.95039 7.5 8ZM11.7006 16.4004C11.7007 16.4005 11.7009 16.4006 12 16C12.2991 16.4006 12.2997 16.4003 12.2998 16.4001L12 16.624L11.7006 16.4004ZM15.2685 13.4514L18.6607 15.9955L12 20.88L5.33935 15.9955L8.73155 13.4514C8.86064 13.6151 8.99044 13.7729 9.11946 13.9243C9.7631 14.6795 10.4054 15.296 10.8866 15.7237C11.1275 15.9379 11.3289 16.1054 11.471 16.2202C11.5421 16.2776 11.5984 16.3219 11.6375 16.3522C11.6571 16.3674 11.6724 16.3791 11.683 16.3872L11.6955 16.3966L11.6991 16.3993L11.7006 16.4004L12 16L12.2998 16.4001L12.3009 16.3993L12.3045 16.3966L12.317 16.3872C12.3276 16.3791 12.3429 16.3674 12.3625 16.3522C12.4016 16.3219 12.4579 16.2776 12.529 16.2202C12.6711 16.1054 12.8725 15.9379 13.1134 15.7237C13.5946 15.296 14.2369 14.6795 14.8805 13.9243C15.0096 13.7729 15.1394 13.6151 15.2685 13.4514ZM15.8603 12.6452C16.7605 11.3215 17.5 9.71568 17.5 8C17.5 4.84266 15.2819 2 12 2C8.71813 2 6.5 4.84266 6.5 8C6.5 9.71568 7.23948 11.3215 8.13974 12.6452L4.2 15.6C4.07334 15.695 3.99916 15.8444 4.00001 16.0027C4.00086 16.161 4.07664 16.3096 4.20432 16.4032L11.7043 21.9032C11.8803 22.0323 12.1197 22.0323 12.2957 21.9032L19.7957 16.4032C19.9234 16.3096 19.9991 16.161 20 16.0027C20.0008 15.8444 19.9267 15.695 19.8 15.6L15.8603 12.6452ZM10 7.5C10 6.39543 10.8954 5.5 12 5.5C13.1046 5.5 14 6.39543 14 7.5C14 8.60457 13.1046 9.5 12 9.5C10.8954 9.5 10 8.60457 10 7.5ZM12 4.5C10.3431 4.5 9 5.84315 9 7.5C9 9.15685 10.3431 10.5 12 10.5C13.6569 10.5 15 9.15685 15 7.5C15 5.84315 13.6569 4.5 12 4.5Z" fill="#2B2B2C"/>
</svg>
