<svg width="24" height="24" viewBox="0 0 24 24" fill="none" xmlns="http://www.w3.org/2000/svg">
<path fill-rule="evenodd" clip-rule="evenodd" d="M12 3C9.39083 3 7.5 5.2663 7.5 8C7.5 9.95039 8.65219 11.8344 9.88054 13.2757C10.4869 13.9871 11.0946 14.5707 11.5509 14.9763C11.7265 15.1323 11.8791 15.2616 12 15.3612C12.1209 15.2616 12.2735 15.1323 12.4491 14.9763C12.9054 14.5707 13.5131 13.9871 14.1195 13.2757C15.3478 11.8344 16.5 9.95039 16.5 8C16.5 5.2663 14.6092 3 12 3ZM17.5 8C17.5 9.71568 16.7605 11.3215 15.8603 12.6452L19.8 15.6C19.9267 15.695 20.0008 15.8444 20 16.0027C19.9991 16.161 19.9234 16.3096 19.7957 16.4032L12.2957 21.9032C12.1197 22.0323 11.8803 22.0323 11.7043 21.9032L4.20432 16.4032C4.07664 16.3096 4.00086 16.161 4.00001 16.0027C3.99916 15.8444 4.07334 15.695 4.2 15.6L8.13974 12.6452C7.23948 11.3215 6.5 9.71568 6.5 8C6.5 4.84266 8.71813 2 12 2C15.2819 2 17.5 4.84266 17.5 8ZM12 5.5C10.8954 5.5 10 6.39543 10 7.5C10 8.60457 10.8954 9.5 12 9.5C13.1046 9.5 14 8.60457 14 7.5C14 6.39543 13.1046 5.5 12 5.5ZM9 7.5C9 5.84315 10.3431 4.5 12 4.5C13.6569 4.5 15 5.84315 15 7.5C15 9.15685 13.6569 10.5 12 10.5C10.3431 10.5 9 9.15685 9 7.5Z" fill="#2B2B2C"/>
</svg>
