<svg width="18" height="18" viewBox="0 0 18 18" fill="none" xmlns="http://www.w3.org/2000/svg">
<path fill-rule="evenodd" clip-rule="evenodd" d="M9.32009 2.11589C9.13467 1.96137 8.86533 1.96137 8.67991 2.11589L2.67991 7.11589C2.56591 7.21089 2.5 7.35161 2.5 7.5C2.5 7.64839 2.56591 7.78911 2.67991 7.88411L8.67991 12.8841C8.86533 13.0386 9.13467 13.0386 9.32009 12.8841L15.3201 7.88411C15.4341 7.78911 15.5 7.64839 15.5 7.5C15.5 7.35161 15.4341 7.21089 15.3201 7.11589L9.32009 2.11589ZM9 11.8491L3.78102 7.5L9 3.15085L14.219 7.5L9 11.8491ZM3.3201 10.1159C3.10797 9.93912 2.79268 9.96778 2.6159 10.1799C2.43912 10.3921 2.46778 10.7073 2.67992 10.8841L8.67992 15.8841C8.86534 16.0386 9.13468 16.0386 9.3201 15.8841L15.3201 10.8841C15.5322 10.7073 15.5609 10.3921 15.3841 10.1799C15.2073 9.96778 14.8921 9.93912 14.6799 10.1159L9.00001 14.8492L3.3201 10.1159Z" fill="#2B2B2C"/>
</svg>
