<svg width="24" height="24" viewBox="0 0 24 24" fill="none" xmlns="http://www.w3.org/2000/svg">
<path d="M15 11C15.0786 6.17111 12.669 4.55899 11.5 4.00001C10.4567 4.76843 8.51666 7.27164 9.5 12C9.5 12 7.6548 10.7487 5 11C5.14661 12.5486 5.55584 14.4868 9 15.5C9 15.5 6.53804 16.6098 6 18C6.96871 18.8012 9.46504 19.8945 12.5 18C15.8366 19.2913 18.6988 17.4687 19.5 16.5C18.7106 15.2354 16.5 15 16.5 15C19.6928 13.3584 19.6466 11.0486 19.5 9.5C17 9 15 11 15 11Z" fill="#2B2B2C"/>
<path fill-rule="evenodd" clip-rule="evenodd" d="M11.7157 3.54892C11.5491 3.46926 11.3522 3.4879 11.2035 3.59741C10.0831 4.42256 8.26659 6.8168 8.83876 11.0996C8.70876 11.0448 8.56649 10.9891 8.41274 10.9345C7.5684 10.635 6.36922 10.3682 4.95288 10.5022C4.67797 10.5283 4.4762 10.7722 4.50223 11.0471C4.57735 11.8406 4.72494 12.8193 5.35089 13.7333C5.84391 14.4532 6.60555 15.0941 7.77185 15.5928C7.66036 15.6604 7.54426 15.7334 7.42609 15.8115C7.06858 16.0478 6.68277 16.3364 6.34625 16.6653C6.01324 16.9908 5.70409 17.3793 5.53371 17.8195C5.45603 18.0203 5.5155 18.2481 5.68134 18.3853C6.68362 19.2142 9.04363 20.2533 11.9202 18.8878C11.8418 19.2749 11.7597 19.593 11.6914 19.8304C11.6442 19.9942 11.6037 20.1194 11.5755 20.2021C11.5614 20.2435 11.5504 20.2742 11.5433 20.2938L11.5355 20.3148L11.5338 20.3194C11.4341 20.5766 11.5616 20.866 11.8188 20.966C12.0761 21.0661 12.3662 20.9379 12.4663 20.6805L12.4667 20.6795L12.4678 20.6767L12.4711 20.6677L12.4826 20.6369C12.4922 20.6106 12.5056 20.573 12.5221 20.5245C12.5551 20.4275 12.6005 20.2871 12.6524 20.1071C12.7504 19.7666 12.8716 19.2838 12.9756 18.6855C14.5204 19.1211 15.9492 18.9625 17.1104 18.5713C18.4197 18.1302 19.418 17.3837 19.8853 16.8187C20.0225 16.6528 20.0381 16.4178 19.9241 16.2352C19.4339 15.4499 18.5419 15.0278 17.862 14.8014L17.8118 14.7849C18.816 14.0569 19.4016 13.2338 19.72 12.392C20.1321 11.3023 20.0723 10.2399 19.9978 9.45287C19.977 9.23311 19.8145 9.053 19.598 9.00971C18.1924 8.72858 16.9457 9.15369 16.0754 9.62226C15.8539 9.74157 15.6541 9.86504 15.4791 9.98301C15.3637 8.02638 14.8207 6.62223 14.1301 5.61588C13.3265 4.44476 12.3508 3.85259 11.7157 3.54892ZM12 20.5L12.4663 20.6805C12.4662 20.6807 12.466 20.6812 12 20.5Z" fill="#2B2B2C"/>
<path fill-rule="evenodd" clip-rule="evenodd" d="M9.36753 3.161C9.55475 3.36398 9.54198 3.68031 9.339 3.86753C8.84564 4.3226 8.21663 5.36965 7.99172 6.59058C7.9417 6.86215 7.68099 7.04175 7.40942 6.99173C7.13784 6.9417 6.95824 6.681 7.00827 6.40942C7.2668 5.00593 7.98735 3.75383 8.66099 3.13247C8.86398 2.94525 9.1803 2.95802 9.36753 3.161Z" fill="#2B2B2C"/>
<path fill-rule="evenodd" clip-rule="evenodd" d="M18.4476 19.7771C18.5707 20.0243 18.4701 20.3244 18.2229 20.4475L18 20C18.2229 20.4475 18.223 20.4475 18.2229 20.4475L18.2218 20.4481L18.2203 20.4488L18.2159 20.451L18.2017 20.4579C18.1898 20.4635 18.1734 20.4713 18.1526 20.4808C18.1109 20.4999 18.0518 20.5261 17.9775 20.5567C17.8293 20.6178 17.6192 20.6972 17.3666 20.7727C16.8678 20.9217 16.1739 21.0641 15.4542 20.9979C15.1792 20.9726 14.9768 20.7291 15.0021 20.4542C15.0274 20.1792 15.2709 19.9768 15.5458 20.0021C16.0889 20.0521 16.645 19.9445 17.0805 19.8145C17.2951 19.7504 17.4732 19.683 17.5964 19.6322C17.6578 19.6069 17.7052 19.5858 17.7362 19.5716C17.7517 19.5646 17.763 19.5592 17.7699 19.5559L17.7769 19.5525C17.777 19.5525 17.7769 19.5525 17.7769 19.5525M18.4476 19.7771C18.3245 19.53 18.0241 19.4295 17.7769 19.5525L18.4476 19.7771Z" fill="#2B2B2C"/>
</svg>
