<svg width="30" height="30" viewBox="0 0 30 30" fill="none" xmlns="http://www.w3.org/2000/svg">
<path fill-rule="evenodd" clip-rule="evenodd" d="M13.7035 4.0974C13.8522 3.9879 14.0491 3.96925 14.2157 4.04891C15.0081 4.4278 16.234 5.22123 17.2487 6.7179C18.1649 8.06946 18.8918 9.96969 18.9908 12.605C19.299 12.4332 19.6882 12.2369 20.1391 12.0527C21.2964 11.58 22.9021 11.1705 24.5981 11.5097C24.8145 11.553 24.977 11.7331 24.9978 11.9529C25.0972 13.0034 24.9588 14.2233 24.2486 15.456C23.6811 16.4411 22.7639 17.4077 21.363 18.2974C21.5011 18.338 21.6453 18.3836 21.7931 18.4346C22.6873 18.743 23.8337 19.2894 24.4241 20.2352C24.5381 20.4178 24.5225 20.6528 24.3853 20.8187C23.3476 22.0734 20.0487 24.4785 15.8606 23.1564C15.8421 23.262 15.8231 23.3658 15.8038 23.4678C15.6233 24.4237 15.4161 25.2207 15.2536 25.7801C15.1723 26.0599 15.1021 26.2807 15.0518 26.4326C15.0267 26.5085 15.0065 26.5672 14.9924 26.6076L14.976 26.6541L14.9714 26.6667L14.9701 26.6703L14.9697 26.6715L14.9696 26.6719C14.9695 26.672 14.9695 26.6721 14.5 26.5L14.9695 26.6721C14.8744 26.9314 14.5871 27.0645 14.3279 26.9694C14.0687 26.8744 13.9356 26.5873 14.0305 26.328L14.0305 26.328L14.0306 26.3279L14.0306 26.3278L14.0313 26.326L14.0345 26.3169L14.0484 26.2777C14.0607 26.2423 14.0791 26.1888 14.1025 26.1182C14.1492 25.9771 14.2157 25.7682 14.2933 25.5012C14.4383 25.0021 14.6215 24.3014 14.7865 23.4623C11.1618 25.1942 7.9171 23.9073 6.68134 22.8853C6.5155 22.7481 6.45603 22.5202 6.5337 22.3195C6.92033 21.3205 7.88733 20.3752 8.6825 19.7139C8.93432 19.5045 9.17752 19.3166 9.3935 19.1569C7.74037 18.5306 6.69899 17.7134 6.04597 16.7895C5.27854 15.7038 5.09579 14.5354 5.00223 13.5471C4.9765 13.2754 5.17349 13.0332 5.44479 13.003C7.75625 12.7462 9.33017 12.9997 10.3456 13.3381C10.5202 13.3963 10.6778 13.4569 10.8195 13.5176C10.0429 8.10765 12.3271 5.11113 13.7035 4.0974Z" fill="#2B2B2C"/>
<path fill-rule="evenodd" clip-rule="evenodd" d="M11.916 3.22266C12.0692 3.45242 12.0071 3.76286 11.7773 3.91603C10.4503 4.80075 9.78672 6.48911 9.49172 8.09059C9.4417 8.36216 9.18099 8.54176 8.90942 8.49173C8.63784 8.44171 8.45824 8.181 8.50827 7.90943C8.81756 6.23037 9.54972 4.19927 11.2226 3.08398C11.4524 2.93081 11.7628 2.99289 11.916 3.22266Z" fill="#2B2B2C"/>
<path fill-rule="evenodd" clip-rule="evenodd" d="M23.416 24.2227C23.5692 24.4524 23.5071 24.7629 23.2774 24.916L23 24.5C23.2774 24.916 23.2775 24.9159 23.2774 24.916L23.2761 24.9169L23.2742 24.9181L23.2689 24.9216L23.2517 24.9327C23.2373 24.9419 23.2172 24.9545 23.1916 24.9701C23.1404 25.0012 23.0672 25.0443 22.9738 25.0952C22.7873 25.197 22.5193 25.3308 22.1857 25.4642C21.5209 25.7302 20.5815 26 19.5 26C19.2239 26 19 25.7762 19 25.5C19 25.2239 19.2239 25 19.5 25C20.4185 25 21.2291 24.7698 21.8143 24.5358C22.1057 24.4192 22.3377 24.3031 22.4949 24.2173C22.5735 24.1745 22.633 24.1394 22.6717 24.1159C22.691 24.1041 22.7051 24.0953 22.7136 24.0898L22.7224 24.0842C22.7224 24.0841 22.7223 24.0842 22.7224 24.0842M23.416 24.2227C23.2629 23.993 22.9521 23.9312 22.7224 24.0842L23.416 24.2227Z" fill="#2B2B2C"/>
</svg>
