<svg width="18" height="18" viewBox="0 0 18 18" fill="none" xmlns="http://www.w3.org/2000/svg">
<path fill-rule="evenodd" clip-rule="evenodd" d="M8.20351 2.59741C8.35219 2.4879 8.54912 2.46926 8.71571 2.54892C9.66932 3.00491 11.2041 4.37656 11.4637 7.40553C11.5973 7.32345 11.741 7.24529 11.8926 7.17203C12.5413 6.85865 13.4035 6.60157 14.4529 6.50223C14.5849 6.48973 14.7165 6.53019 14.8187 6.6147C14.9209 6.69921 14.9853 6.82086 14.9978 6.95288C15.0538 7.54489 15.1057 8.38337 14.7927 9.24634C14.5572 9.89573 14.1272 10.5287 13.4 11.0835C13.8746 11.308 14.4689 11.6759 14.8235 12.2441C14.9375 12.4267 14.9219 12.6617 14.7847 12.8275C14.1321 13.6165 12.3485 14.842 9.89183 14.1569C9.80328 14.5915 9.70591 14.9492 9.62662 15.2086C9.58133 15.3569 9.54185 15.4734 9.51315 15.5541C9.49881 15.5945 9.48714 15.626 9.47879 15.6481L9.46881 15.6741L9.46583 15.6817L9.46486 15.6842L9.46437 15.6854L9.00001 15.5C9.46425 15.6857 9.46431 15.6856 9.46437 15.6854C9.36181 15.9418 9.07071 16.0668 8.81432 15.9643C8.55811 15.8618 8.43339 15.5711 8.53556 15.3149L8.53692 15.3114L8.54345 15.2943C8.5495 15.2783 8.55883 15.2532 8.57085 15.2194C8.59489 15.1517 8.62963 15.0494 8.67027 14.9164C8.71221 14.7791 8.76034 14.6095 8.80945 14.4116C6.71267 15.2495 4.92576 14.4788 4.18138 13.8632C4.01553 13.726 3.95606 13.4981 4.03374 13.2974C4.28602 12.6455 4.87745 12.0814 5.33665 11.7094C5.3679 11.6841 5.3989 11.6594 5.42955 11.6353C4.58532 11.2464 4.02278 10.7404 3.6536 10.1734C3.17109 9.43242 3.05887 8.64507 3.00226 8.04714C2.97623 7.77223 3.178 7.52827 3.45291 7.50224C4.68853 7.38527 5.64734 7.59463 6.33246 7.91209C6.06789 4.9224 7.36491 3.21504 8.20351 2.59741Z" fill="#2B2B2C"/>
<path fill-rule="evenodd" clip-rule="evenodd" d="M6.86753 2.161C7.05475 2.36398 7.04198 2.68031 6.839 2.86753C6.68375 3.01073 6.4642 3.31647 6.2566 3.73103C6.05332 4.13698 5.88348 4.60355 5.80303 5.04026C5.75301 5.31183 5.4923 5.49143 5.22073 5.44141C4.94915 5.39138 4.76955 5.13067 4.81958 4.8591C4.92042 4.31165 5.12612 3.75521 5.36245 3.28327C5.59447 2.81995 5.87862 2.39293 6.161 2.13247C6.36398 1.94525 6.6803 1.95802 6.86753 2.161Z" fill="#2B2B2C"/>
</svg>
