<svg width="30" height="30" viewBox="0 0 30 30" fill="none" xmlns="http://www.w3.org/2000/svg">
<path fill-rule="evenodd" clip-rule="evenodd" d="M15.4178 16.0069C15.6902 15.9615 15.9478 16.1455 15.9932 16.4179C16.4231 18.9974 16.1639 21.5614 15.8038 23.4679C15.6233 24.4238 15.4161 25.2208 15.2536 25.7802C15.1723 26.06 15.1021 26.2808 15.0518 26.4326C15.0267 26.5086 15.0065 26.5673 14.9924 26.6077L14.976 26.6542L14.9714 26.6668L14.9701 26.6704L14.9697 26.6715L14.9696 26.6719C14.9695 26.6721 14.9695 26.6722 14.5 26.5001L14.9695 26.6722C14.8744 26.9315 14.5871 27.0646 14.3279 26.9695C14.0687 26.8745 13.9356 26.5873 14.0305 26.3281C14.0305 26.3281 14.0305 26.3281 14.0305 26.328C14.0306 26.328 14.0306 26.328 14.0306 26.328L14.0306 26.3279L14.0313 26.326L14.0345 26.317L14.0484 26.2778C14.0607 26.2424 14.0791 26.1888 14.1025 26.1183C14.1492 25.9772 14.2157 25.7683 14.2933 25.5012C14.4485 24.9669 14.6476 24.2014 14.8212 23.2823C15.1694 21.4388 15.4102 19.0028 15.0068 16.5823C14.9614 16.3099 15.1454 16.0523 15.4178 16.0069Z" fill="#2B2B2C"/>
<path fill-rule="evenodd" clip-rule="evenodd" d="M11.9161 3.22266C12.0692 3.45242 12.0071 3.76286 11.7774 3.91603C10.4503 4.80075 9.78675 6.48911 9.49175 8.09059C9.44173 8.36216 9.18102 8.54176 8.90945 8.49173C8.63788 8.44171 8.45827 8.181 8.5083 7.90943C8.81759 6.23037 9.54975 4.19927 11.2227 3.08398C11.4524 2.93081 11.7629 2.99289 11.9161 3.22266Z" fill="#2B2B2C"/>
<path fill-rule="evenodd" clip-rule="evenodd" d="M23.416 24.2225C23.5692 24.4522 23.5071 24.7627 23.2774 24.9158L23.2761 24.9167L23.2742 24.9179L23.2689 24.9214L23.2517 24.9325C23.2373 24.9417 23.2172 24.9543 23.1916 24.9699C23.1404 25.001 23.0672 25.0441 22.9738 25.095C22.7873 25.1968 22.5193 25.3306 22.1857 25.4641C21.5209 25.73 20.5815 25.9998 19.5 25.9998C19.2239 25.9998 19 25.776 19 25.4998C19 25.2237 19.2239 24.9998 19.5 24.9998C20.4185 24.9998 21.2291 24.7697 21.8143 24.5356C22.1057 24.419 22.3377 24.3029 22.4949 24.2171C22.5735 24.1743 22.633 24.1392 22.6717 24.1157C22.691 24.1039 22.7051 24.0951 22.7136 24.0896L22.7224 24.084M23.416 24.2225C23.2629 23.9928 22.9521 23.931 22.7224 24.084L23.416 24.2225Z" fill="#2B2B2C"/>
<path fill-rule="evenodd" clip-rule="evenodd" d="M11.7935 14.0952C12.0169 14.2575 12.0668 14.5706 11.9044 14.7939C11.7421 15.0173 11.4294 15.0668 11.206 14.9044L11.1977 14.8988C10.9013 14.7282 11.0125 14.7855 10.9013 14.7282C10.6789 14.6138 10.3349 14.4604 9.86762 14.3179C8.93461 14.0335 7.50206 13.7907 5.55266 13.9972C5.27805 14.0263 5.03186 13.8273 5.00276 13.5527C4.97367 13.2781 5.1727 13.0319 5.4473 13.0028C7.53369 12.7817 9.10114 13.0389 10.1592 13.3614C10.6874 13.5224 11.0867 13.6991 11.3587 13.839C11.4947 13.9089 11.5988 13.9696 11.6712 14.0146C11.7075 14.037 11.7358 14.0556 11.7562 14.0693C11.7664 14.0762 11.7747 14.0819 11.781 14.0863L11.7889 14.0919L11.7918 14.094L11.7935 14.0952Z" fill="#2B2B2C"/>
<path fill-rule="evenodd" clip-rule="evenodd" d="M13.7035 4.09741C13.8521 3.9879 14.0491 3.96926 14.2157 4.04892C15.008 4.4278 16.234 5.22124 17.2486 6.71791C18.1647 8.06915 18.8915 9.9688 18.9907 12.6032C19.2993 12.431 19.6894 12.2341 20.1416 12.0494C21.2989 11.5767 22.9046 11.1672 24.6005 11.5064C24.817 11.5497 24.9795 11.7298 25.0003 11.9496C25.0997 13.0001 24.9613 14.22 24.2511 15.4527C23.6836 16.4378 22.7664 17.4044 21.3655 18.2941C21.5036 18.3347 21.6478 18.3803 21.7955 18.4313C22.6897 18.7397 23.8362 19.2861 24.4266 20.2319C24.5406 20.4145 24.5249 20.6495 24.3878 20.8154C23.3249 22.1005 19.89 24.5924 15.5572 23.0504C11.6286 25.3767 8.00409 23.9793 6.68131 22.8853C6.51547 22.7481 6.456 22.5202 6.53368 22.3195C6.9203 21.3205 7.8873 20.3752 8.68247 19.7139C8.93429 19.5045 9.17749 19.3166 9.39347 19.157C7.74034 18.5306 6.69897 17.7134 6.04594 16.7895C5.27851 15.7038 5.09576 14.5354 5.0022 13.5471C4.97617 13.2722 5.17794 13.0282 5.45285 13.0022C5.72776 12.9762 5.97172 13.178 5.99775 13.4529C6.08745 14.4004 6.25209 15.3487 6.86255 16.2124C7.46849 17.0696 8.56223 17.9087 10.6411 18.5203C10.83 18.5759 10.9688 18.7372 10.9954 18.9324C11.022 19.1275 10.9316 19.3201 10.7645 19.4243L10.7645 19.4243L10.7644 19.4243L10.7635 19.4249L10.7586 19.428L10.7372 19.4416C10.7179 19.4539 10.6889 19.4726 10.6514 19.4972C10.5763 19.5464 10.4673 19.6194 10.3339 19.7125C10.0665 19.8991 9.70386 20.1651 9.32189 20.4827C8.65426 21.038 7.9893 21.7015 7.62855 22.3412C8.93091 23.1932 11.9332 24.1203 15.2059 22.0941C15.339 21.9963 15.5176 21.9664 15.683 22.0304C19.2663 23.4172 22.1881 21.63 23.3519 20.4674C22.9057 19.9839 22.1895 19.625 21.4694 19.3766C21.0549 19.2336 20.6677 19.1368 20.3837 19.0758C20.2422 19.0453 20.1273 19.024 20.0489 19.0105C20.0097 19.0038 19.9797 18.9989 19.96 18.9959L19.9386 18.9926L19.9334 18.9919C19.7176 18.9618 19.5461 18.7953 19.5096 18.5805C19.4731 18.3655 19.58 18.1517 19.7739 18.052C21.7065 17.0584 22.7949 15.9771 23.3846 14.9535C23.8894 14.0773 24.0463 13.213 24.0275 12.4256C22.7321 12.2619 21.4875 12.5799 20.5197 12.9752C19.9926 13.1905 19.558 13.4245 19.2563 13.6041C19.1056 13.6937 18.9888 13.7694 18.9109 13.8217C18.8719 13.8478 18.8428 13.8681 18.824 13.8814L18.8194 13.8846C18.7307 13.9584 18.6162 14.002 18.4918 13.9999C18.2157 13.9954 17.9955 13.768 18 13.4919C18.0476 10.5664 17.3124 8.59406 16.4209 7.27905C15.641 6.1286 14.7254 5.45783 14.0602 5.09282C12.8634 6.13581 10.8762 9.04516 11.9895 14.3982C12.0457 14.6685 11.8721 14.9333 11.6018 14.9895C11.3314 15.0457 11.0667 14.8722 11.0104 14.6018C9.74251 8.50506 12.2377 5.17695 13.7035 4.09741Z" fill="#2B2B2C"/>
</svg>
