<svg width="18" height="18" viewBox="0 0 18 18" fill="none" xmlns="http://www.w3.org/2000/svg">
<path fill-rule="evenodd" clip-rule="evenodd" d="M11 3.75C11 3.19772 11.4477 2.75 12 2.75C12.5523 2.75 13 3.19772 13 3.75C13 4.30228 12.5523 4.75 12 4.75C11.4477 4.75 11 4.30228 11 3.75ZM12 1.75C10.8954 1.75 10 2.64543 10 3.75C10 4.34414 10.2591 4.87777 10.6704 5.24409L9.9629 6.42329C9.66322 6.31125 9.33876 6.25 9 6.25C8.42124 6.25 7.88424 6.42879 7.44122 6.73414L5.44481 4.73773C5.63736 4.45662 5.75 4.11646 5.75 3.75C5.75 2.7835 4.9665 2 4 2C3.0335 2 2.25 2.7835 2.25 3.75C2.25 4.7165 3.0335 5.5 4 5.5C4.23463 5.5 4.45847 5.45383 4.66293 5.37007L6.73412 7.44126C6.51886 7.75357 6.36651 8.11258 6.29534 8.5H5.41465C5.20873 7.9174 4.65311 7.5 4 7.5C3.17157 7.5 2.5 8.17157 2.5 9C2.5 9.82843 3.17157 10.5 4 10.5C4.65311 10.5 5.20873 10.0826 5.41465 9.5H6.29534C6.40337 10.0881 6.69848 10.6107 7.11669 11.0039L5.96775 12.3827C5.74497 12.297 5.50297 12.25 5.25 12.25C4.14543 12.25 3.25 13.1454 3.25 14.25C3.25 15.3546 4.14543 16.25 5.25 16.25C6.35457 16.25 7.25 15.3546 7.25 14.25C7.25 13.7612 7.07464 13.3133 6.7834 12.9659L7.96464 11.5484C8.28421 11.6784 8.63375 11.75 9 11.75C9.57875 11.75 10.1157 11.5712 10.5588 11.2659L11.3052 12.0123C11.1126 12.2934 11 12.6335 11 13C11 13.9665 11.7835 14.75 12.75 14.75C13.7165 14.75 14.5 13.9665 14.5 13C14.5 12.0335 13.7165 11.25 12.75 11.25C12.5154 11.25 12.2915 11.2962 12.087 11.3799L11.2659 10.5588C11.4811 10.2465 11.6335 9.88743 11.7047 9.5H13.0854C13.2913 10.0826 13.8469 10.5 14.5 10.5C15.3284 10.5 16 9.82843 16 9C16 8.17157 15.3284 7.5 14.5 7.5C13.8469 7.5 13.2913 7.9174 13.0854 8.5H11.7047C11.5913 7.88267 11.2717 7.33746 10.82 6.9384L11.5619 5.70188C11.7029 5.73338 11.8495 5.75 12 5.75C13.1046 5.75 14 4.85457 14 3.75C14 2.64543 13.1046 1.75 12 1.75ZM4 3C3.58579 3 3.25 3.33579 3.25 3.75C3.25 4.16421 3.58579 4.5 4 4.5C4.41421 4.5 4.75 4.16421 4.75 3.75C4.75 3.33579 4.41421 3 4 3ZM9 7.25C8.0335 7.25 7.25 8.0335 7.25 9C7.25 9.9665 8.0335 10.75 9 10.75C9.9665 10.75 10.75 9.9665 10.75 9C10.75 8.0335 9.9665 7.25 9 7.25ZM12 13C12 12.5858 12.3358 12.25 12.75 12.25C13.1642 12.25 13.5 12.5858 13.5 13C13.5 13.4142 13.1642 13.75 12.75 13.75C12.3358 13.75 12 13.4142 12 13ZM4 8.5C3.72386 8.5 3.5 8.72386 3.5 9C3.5 9.27614 3.72386 9.5 4 9.5C4.27614 9.5 4.5 9.27614 4.5 9C4.5 8.72386 4.27614 8.5 4 8.5ZM14 9C14 8.72386 14.2239 8.5 14.5 8.5C14.7761 8.5 15 8.72386 15 9C15 9.27614 14.7761 9.5 14.5 9.5C14.2239 9.5 14 9.27614 14 9ZM5.25 13.25C4.69772 13.25 4.25 13.6977 4.25 14.25C4.25 14.8023 4.69772 15.25 5.25 15.25C5.80228 15.25 6.25 14.8023 6.25 14.25C6.25 13.6977 5.80228 13.25 5.25 13.25Z" fill="#2B2B2C"/>
</svg>
