<svg width="24" height="24" viewBox="0 0 24 24" fill="none" xmlns="http://www.w3.org/2000/svg">
<path fill-rule="evenodd" clip-rule="evenodd" d="M14.5 5C14.5 4.17157 15.1716 3.5 16 3.5C16.8284 3.5 17.5 4.17157 17.5 5C17.5 5.82843 16.8284 6.5 16 6.5C15.1716 6.5 14.5 5.82843 14.5 5ZM16 2.5C14.6193 2.5 13.5 3.61929 13.5 5C13.5 5.7921 13.8684 6.49817 14.4432 6.95621L13.354 8.77152C12.9375 8.59664 12.48 8.5 12 8.5C11.2138 8.5 10.4882 8.7592 9.90391 9.19681L7.22309 6.51598C7.39904 6.21823 7.5 5.8709 7.5 5.5C7.5 4.39543 6.60457 3.5 5.5 3.5C4.39543 3.5 3.5 4.39543 3.5 5.5C3.5 6.60457 4.39543 7.5 5.5 7.5C5.8709 7.5 6.21823 7.39903 6.51598 7.22309L9.19681 9.90391C8.8537 10.362 8.62026 10.907 8.53544 11.5H6.91465C6.70873 10.9174 6.15311 10.5 5.5 10.5C4.67157 10.5 4 11.1716 4 12C4 12.8284 4.67157 13.5 5.5 13.5C6.15311 13.5 6.70873 13.0826 6.91465 12.5H8.53544C8.65821 13.3582 9.09233 14.1161 9.71972 14.6553L8.00669 16.711C7.6987 16.5753 7.35814 16.5 7 16.5C5.61929 16.5 4.5 17.6193 4.5 19C4.5 20.3807 5.61929 21.5 7 21.5C8.38071 21.5 9.5 20.3807 9.5 19C9.5 18.3392 9.2436 17.7382 8.82486 17.2912L10.5709 15.1959C11.0073 15.3913 11.491 15.5 12 15.5C12.7862 15.5 13.5118 15.2408 14.0961 14.8032L15.7769 16.484C15.601 16.7818 15.5 17.1291 15.5 17.5C15.5 18.6046 16.3954 19.5 17.5 19.5C18.6046 19.5 19.5 18.6046 19.5 17.5C19.5 16.3954 18.6046 15.5 17.5 15.5C17.1291 15.5 16.7818 15.601 16.484 15.7769L14.8032 14.0961C15.1463 13.638 15.3797 13.0929 15.4646 12.5H18.0854C18.2913 13.0826 18.8469 13.5 19.5 13.5C20.3284 13.5 21 12.8284 21 12C21 11.1716 20.3284 10.5 19.5 10.5C18.8469 10.5 18.2913 10.9174 18.0854 11.5H15.4646C15.3373 10.6105 14.8757 9.82896 14.2111 9.28671L15.3365 7.411C15.5478 7.46902 15.7703 7.5 16 7.5C17.3807 7.5 18.5 6.38071 18.5 5C18.5 3.61929 17.3807 2.5 16 2.5ZM4.5 5.5C4.5 4.94772 4.94772 4.5 5.5 4.5C6.05228 4.5 6.5 4.94772 6.5 5.5C6.5 6.05228 6.05228 6.5 5.5 6.5C4.94772 6.5 4.5 6.05228 4.5 5.5ZM9.5 12C9.5 10.6193 10.6193 9.5 12 9.5C13.3807 9.5 14.5 10.6193 14.5 12C14.5 13.3807 13.3807 14.5 12 14.5C10.6193 14.5 9.5 13.3807 9.5 12ZM17.5 16.5C16.9477 16.5 16.5 16.9477 16.5 17.5C16.5 18.0523 16.9477 18.5 17.5 18.5C18.0523 18.5 18.5 18.0523 18.5 17.5C18.5 16.9477 18.0523 16.5 17.5 16.5ZM5 12C5 11.7239 5.22386 11.5 5.5 11.5C5.77614 11.5 6 11.7239 6 12C6 12.2761 5.77614 12.5 5.5 12.5C5.22386 12.5 5 12.2761 5 12ZM19 12C19 11.7239 19.2239 11.5 19.5 11.5C19.7761 11.5 20 11.7239 20 12C20 12.2761 19.7761 12.5 19.5 12.5C19.2239 12.5 19 12.2761 19 12ZM7 17.5C6.17157 17.5 5.5 18.1716 5.5 19C5.5 19.8284 6.17157 20.5 7 20.5C7.82843 20.5 8.5 19.8284 8.5 19C8.5 18.1716 7.82843 17.5 7 17.5Z" fill="#2B2B2C"/>
</svg>
