<svg width="24" height="24" viewBox="0 0 24 24" fill="none" xmlns="http://www.w3.org/2000/svg">
<path fill-rule="evenodd" clip-rule="evenodd" d="M17.5 2.5C17.701 2.5 17.8824 2.62031 17.9606 2.80543L18.921 5.07897L21.1946 6.03941C21.3797 6.11761 21.5 6.29904 21.5 6.5C21.5 6.70096 21.3797 6.88239 21.1946 6.96059L18.921 7.92103L17.9606 10.1946C17.8824 10.3797 17.701 10.5 17.5 10.5C17.299 10.5 17.1176 10.3797 17.0394 10.1946L16.079 7.92103L13.8054 6.96059C13.6203 6.88239 13.5 6.70096 13.5 6.5C13.5 6.29904 13.6203 6.11761 13.8054 6.03941L16.079 5.07897L17.0394 2.80543C17.1176 2.62031 17.299 2.5 17.5 2.5ZM17.5 4.28487L16.9211 5.65513C16.8705 5.77505 16.775 5.87048 16.6551 5.92114L15.2849 6.5L16.6551 7.07886C16.775 7.12952 16.8705 7.22495 16.9211 7.34487L17.5 8.71513L18.0789 7.34487C18.1295 7.22495 18.225 7.12952 18.3449 7.07886L19.7151 6.5L18.3449 5.92114C18.225 5.87048 18.1295 5.77505 18.0789 5.65513L17.5 4.28487ZM9 4.5C9.20096 4.5 9.38239 4.62031 9.46059 4.80543L11.4605 9.53952L16.1946 11.5394C16.3797 11.6176 16.5 11.799 16.5 12C16.5 12.201 16.3797 12.3824 16.1946 12.4606L11.4605 14.4605L9.46059 19.1946C9.38239 19.3797 9.20096 19.5 9 19.5C8.79904 19.5 8.61761 19.3797 8.53941 19.1946L6.53952 14.4605L1.80543 12.4606C1.62031 12.3824 1.5 12.201 1.5 12C1.5 11.799 1.62031 11.6176 1.80543 11.5394L6.53952 9.53952L8.53941 4.80543C8.61761 4.62031 8.79904 4.5 9 4.5ZM9 6.28487L7.38169 10.1157C7.33103 10.2356 7.2356 10.331 7.11568 10.3817L3.28487 12L7.11568 13.6183C7.2356 13.669 7.33103 13.7644 7.38169 13.8843L9 17.7151L10.6183 13.8843C10.669 13.7644 10.7644 13.669 10.8843 13.6183L14.7151 12L10.8843 10.3817C10.7644 10.331 10.669 10.2356 10.6183 10.1157L9 6.28487ZM17.9606 13.8054C17.8824 13.6203 17.701 13.5 17.5 13.5C17.299 13.5 17.1176 13.6203 17.0394 13.8054L16.079 16.079L13.8054 17.0394C13.6203 17.1176 13.5 17.299 13.5 17.5C13.5 17.701 13.6203 17.8824 13.8054 17.9606L16.079 18.921L17.0394 21.1946C17.1176 21.3797 17.299 21.5 17.5 21.5C17.701 21.5 17.8824 21.3797 17.9606 21.1946L18.921 18.921L21.1946 17.9606C21.3797 17.8824 21.5 17.701 21.5 17.5C21.5 17.299 21.3797 17.1176 21.1946 17.0394L18.921 16.079L17.9606 13.8054ZM16.9211 16.6551L17.5 15.2849L18.0789 16.6551C18.1295 16.775 18.225 16.8705 18.3449 16.9211L19.7151 17.5L18.3449 18.0789C18.225 18.1295 18.1295 18.225 18.0789 18.3449L17.5 19.7151L16.9211 18.3449C16.8705 18.225 16.775 18.1295 16.6551 18.0789L15.2849 17.5L16.6551 16.9211C16.775 16.8705 16.8705 16.775 16.9211 16.6551Z" fill="#2B2B2C"/>
</svg>
