<svg width="30" height="30" viewBox="0 0 30 30" fill="none" xmlns="http://www.w3.org/2000/svg">
<path fill-rule="evenodd" clip-rule="evenodd" d="M21.5 3.25C21.701 3.25 21.8824 3.37031 21.9606 3.55543L23.0695 6.18047L25.6946 7.28941C25.8797 7.36761 26 7.54904 26 7.75C26 7.95096 25.8797 8.13239 25.6946 8.21059L23.0695 9.31953L21.9606 11.9446C21.8824 12.1297 21.701 12.25 21.5 12.25C21.299 12.25 21.1176 12.1297 21.0394 11.9446L19.9305 9.31953L17.3054 8.21059C17.1203 8.13239 17 7.95096 17 7.75C17 7.54904 17.1203 7.36761 17.3054 7.28941L19.9305 6.18047L21.0394 3.55543C21.1176 3.37031 21.299 3.25 21.5 3.25ZM21.5 5.03487L20.7726 6.75663C20.722 6.87655 20.6266 6.97199 20.5066 7.02265L18.7849 7.75L20.5066 8.47735C20.6266 8.52801 20.722 8.62345 20.7726 8.74337L21.5 10.4651L22.2274 8.74337C22.278 8.62345 22.3734 8.52801 22.4934 8.47735L24.2151 7.75L22.4934 7.02265C22.3734 6.97199 22.278 6.87655 22.2274 6.75663L21.5 5.03487ZM12 4.5C12.201 4.5 12.3824 4.62031 12.4606 4.80543L15.3514 11.6486L22.1946 14.5394C22.3797 14.6176 22.5 14.799 22.5 15C22.5 15.201 22.3797 15.3824 22.1946 15.4606L15.3514 18.3514L12.4606 25.1946C12.3824 25.3797 12.201 25.5 12 25.5C11.799 25.5 11.6176 25.3797 11.5394 25.1946L8.64857 18.3514L1.80543 15.4606C1.62031 15.3824 1.5 15.201 1.5 15C1.5 14.799 1.62031 14.6176 1.80543 14.5394L8.64857 11.6486L11.5394 4.80543C11.6176 4.62031 11.799 4.5 12 4.5ZM12 6.28487L9.49074 12.2247C9.44008 12.3446 9.34465 12.4401 9.22472 12.4907L3.28487 15L9.22472 17.5093C9.34465 17.5599 9.44008 17.6554 9.49074 17.7753L12 23.7151L14.5093 17.7753C14.5599 17.6554 14.6554 17.5599 14.7753 17.5093L20.7151 15L14.7753 12.4907C14.6554 12.4401 14.5599 12.3446 14.5093 12.2247L12 6.28487ZM21.9606 18.3054C21.8824 18.1203 21.701 18 21.5 18C21.299 18 21.1176 18.1203 21.0394 18.3054L19.9305 20.9305L17.3054 22.0394C17.1203 22.1176 17 22.299 17 22.5C17 22.701 17.1203 22.8824 17.3054 22.9606L19.9305 24.0695L21.0394 26.6946C21.1176 26.8797 21.299 27 21.5 27C21.701 27 21.8824 26.8797 21.9606 26.6946L23.0695 24.0695L25.6946 22.9606C25.8797 22.8824 26 22.701 26 22.5C26 22.299 25.8797 22.1176 25.6946 22.0394L23.0695 20.9305L21.9606 18.3054ZM20.7726 21.5066L21.5 19.7849L22.2274 21.5066C22.278 21.6266 22.3734 21.722 22.4934 21.7726L24.2151 22.5L22.4934 23.2274C22.3734 23.278 22.278 23.3734 22.2274 23.4934L21.5 25.2151L20.7726 23.4934C20.722 23.3734 20.6266 23.278 20.5066 23.2274L18.7849 22.5L20.5066 21.7726C20.6266 21.722 20.722 21.6266 20.7726 21.5066Z" fill="#2B2B2C"/>
</svg>
