<svg width="18" height="18" viewBox="0 0 18 18" fill="none" xmlns="http://www.w3.org/2000/svg">
<path fill-rule="evenodd" clip-rule="evenodd" d="M10 13C9.64645 12.6464 9.64619 12.6467 9.64592 12.647L9.64539 12.6475L9.64429 12.6486L9.64195 12.651L9.63676 12.6564L9.62441 12.6696C9.61534 12.6796 9.60463 12.6919 9.59255 12.7066C9.56838 12.7359 9.53879 12.7748 9.50585 12.8242C9.43986 12.9232 9.36117 13.0633 9.28576 13.2518C9.13459 13.6297 9 14.1936 9 15C9 15.2761 9.22386 15.5 9.5 15.5C9.77614 15.5 10 15.2761 10 15C10 14.3064 10.1154 13.8703 10.2142 13.6232C10.2638 13.4992 10.3101 13.4205 10.3379 13.3789C10.3517 13.3582 10.3611 13.3464 10.3644 13.3424C10.5487 13.1464 10.5451 12.838 10.3536 12.6464C10.1583 12.4512 9.84171 12.4512 9.64645 12.6464L10 13Z" fill="#2B2B2C"/>
<path d="M9.99996 13C11.5 13.5 13.5 11.5 13 10C12 10 9 11 9.99996 13Z" fill="#2B2B2C" stroke="#2B2B2C" stroke-linecap="round" stroke-linejoin="round"/>
<path fill-rule="evenodd" clip-rule="evenodd" d="M15.5552 2.00305C13.1192 1.73239 11.1999 2.81671 10.1625 4.19999C9.64639 4.88808 9.33303 5.67132 9.305 6.41876C9.2874 6.88818 9.38398 7.3475 9.61498 7.74562C9.12208 8.45708 8.72553 9.19836 8.41483 9.92942L8.40822 9.94501C8.11116 8.82209 7.35524 7.96076 6.46036 7.37791C5.18007 6.54404 3.53875 6.22492 2.37871 6.51493C2.19125 6.5618 2.04758 6.71247 2.00968 6.90194C1.46297 9.63546 4.04425 12.9247 7.70071 12.1813C7.53044 12.9841 7.46439 13.7254 7.48993 14.342C6.6433 14.1762 5.76241 14.2565 4.95388 14.5799L3.81432 15.0358C3.55792 15.1383 3.43322 15.4293 3.53577 15.6857C3.63833 15.9421 3.92931 16.0668 4.18571 15.9642L5.32527 15.5084C6.09389 15.201 6.9466 15.1759 7.73194 15.4377L9.57699 16.0527C10.5007 16.3606 11.4993 16.3606 12.423 16.0527L14.1581 15.4743C14.4201 15.387 14.5617 15.1039 14.4744 14.8419C14.387 14.5799 14.1039 14.4383 13.8419 14.5257L12.1068 15.104C11.3884 15.3435 10.6116 15.3435 9.89321 15.104L8.48196 14.6336C8.49705 14.5792 8.50311 14.5212 8.49853 14.4616C8.42248 13.4731 8.65178 11.9285 9.33516 10.3206C9.59945 9.69871 9.92931 9.07294 10.3312 8.47064C10.3542 8.47889 10.3778 8.48546 10.4019 8.49028C11.8118 8.77225 13.3503 8.34913 14.4669 7.30226C15.5952 6.24447 16.2639 4.58023 15.9961 2.43798C15.9674 2.20847 15.7851 2.02859 15.5552 2.00305Z" fill="#2B2B2C"/>
</svg>
