<svg width="30" height="30" viewBox="0 0 30 30" fill="none" xmlns="http://www.w3.org/2000/svg">
<path fill-rule="evenodd" clip-rule="evenodd" d="M15.5 3.50001C15.5 3.22387 15.2761 3.00001 15 3.00001C14.7239 3.00001 14.5 3.22387 14.5 3.50001V6.50001C14.5 6.77615 14.7239 7.00001 15 7.00001C15.2761 7.00001 15.5 6.77615 15.5 6.50001V3.50001ZM4.68571 11.0358C4.42931 10.9332 4.13833 11.0579 4.03577 11.3143C3.93322 11.5707 4.05792 11.8617 4.31432 11.9642L6.81432 12.9642C7.07071 13.0668 7.36169 12.9421 7.46425 12.6857C7.56681 12.4293 7.4421 12.1383 7.18571 12.0358L4.68571 11.0358ZM24.7129 17.8022C22.0867 17.6146 19.4787 18.361 17.3494 19.9096L15.7673 21.0602L16.901 22.1938C18.0574 23.3503 19.6259 24 21.2614 24H23.5C23.7762 24 24 24.2239 24 24.5C24 24.7762 23.7762 25 23.5 25H21.2614C19.3607 25 17.5379 24.245 16.1938 22.9009L14.6519 21.359L14.6419 21.349L13.9375 20.6446C12.3002 19.0073 9.97286 18.2614 7.6888 18.6421L2.58222 19.4932C2.30983 19.5386 2.05222 19.3546 2.00682 19.0822C1.96142 18.8098 2.14543 18.5522 2.41782 18.5068L7.5244 17.6557C8.16279 17.5493 8.80414 17.5202 9.43612 17.5643C9.07594 16.7839 8.875 15.915 8.875 15C8.875 11.6173 11.6173 8.875 15 8.875C18.3827 8.875 21.125 11.6173 21.125 15C21.125 15.7759 20.9805 16.5186 20.717 17.2023C22.0307 16.8441 23.4051 16.7062 24.7842 16.8047L27.5357 17.0013C27.8111 17.0209 28.0184 17.2602 27.9988 17.5356C27.9791 17.8111 27.7399 18.0184 27.4644 17.9987L24.7129 17.8022ZM19.3889 17.6479C19.8561 16.8754 20.125 15.9697 20.125 15C20.125 12.1695 17.8305 9.875 15 9.875C12.1695 9.875 9.875 12.1695 9.875 15C9.875 16.0112 10.1674 16.9527 10.6721 17.7463C12.1565 18.0826 13.5387 18.8316 14.6446 19.9375L15.0515 20.3443L16.7613 19.1009C17.5796 18.5057 18.4628 18.0193 19.3889 17.6479ZM25.9642 11.3143C26.0668 11.5707 25.9421 11.8617 25.6857 11.9642L23.1857 12.9642C22.9293 13.0668 22.6383 12.9421 22.5358 12.6857C22.4332 12.4293 22.5579 12.1383 22.8143 12.0358L25.3143 11.0358C25.5707 10.9332 25.8617 11.0579 25.9642 11.3143ZM7.64645 5.64644C7.84171 5.45117 8.15829 5.45117 8.35355 5.64644L10.3536 7.64644C10.5488 7.8417 10.5488 8.15828 10.3536 8.35354C10.1583 8.5488 9.84171 8.5488 9.64645 8.35354L7.64645 6.35354C7.45118 6.15828 7.45118 5.8417 7.64645 5.64644ZM22.3536 6.35354C22.5488 6.15828 22.5488 5.8417 22.3536 5.64644C22.1583 5.45117 21.8417 5.45117 21.6464 5.64644L19.6464 7.64644C19.4512 7.8417 19.4512 8.15828 19.6464 8.35354C19.8417 8.5488 20.1583 8.5488 20.3536 8.35354L22.3536 6.35354ZM11.4989 22.706C10.4547 21.6619 8.96473 21.1964 7.5119 21.4606L4.58941 21.9919C4.31772 22.0413 4.05743 21.8611 4.00803 21.5894C3.95863 21.3178 4.13883 21.0575 4.41052 21.0081L7.33301 20.4767C9.1087 20.1539 10.9298 20.7227 12.206 21.9989L13.3535 23.1464C13.5488 23.3417 13.5488 23.6583 13.3535 23.8536C13.1583 24.0488 12.8417 24.0488 12.6464 23.8536L11.4989 22.706Z" fill="#2B2B2C"/>
</svg>
