<svg width="24" height="24" viewBox="0 0 24 24" fill="none" xmlns="http://www.w3.org/2000/svg">
<circle cx="12" cy="12" r="3" fill="#2B2B2C" stroke="#2B2B2C"/>
<path d="M19 16.8232C19.946 15.4529 20.5 13.7911 20.5 12C20.5 7.30558 16.6944 3.5 12 3.5C7.30558 3.5 3.5 7.30558 3.5 12C3.5 16.6944 7.30558 20.5 12 20.5C13.7911 20.5 15.4529 19.946 16.8232 19" stroke="#2B2B2C"/>
<path d="M19.5 18C19.5 18.8284 18.8284 19.5 18 19.5C17.1716 19.5 16.5 18.8284 16.5 18C16.5 17.1716 17.1716 16.5 18 16.5C18.8284 16.5 19.5 17.1716 19.5 18Z" fill="#2B2B2C" stroke="#2B2B2C"/>
</svg>
