<svg width="30" height="30" viewBox="0 0 30 30" fill="none" xmlns="http://www.w3.org/2000/svg">
<path fill-rule="evenodd" clip-rule="evenodd" d="M15 3.5C15.5523 3.5 16 3.94772 16 4.5V7.36496L17.3598 6.23178C17.7841 5.87821 18.4147 5.93554 18.7682 6.35982C19.1218 6.78409 19.0645 7.41466 18.6402 7.76822L16 9.96838V13.268L18.8575 11.6182L19.4428 8.23162C19.5369 7.6874 20.0543 7.32247 20.5985 7.41653C21.1427 7.51059 21.5077 8.02801 21.4136 8.57223L21.1122 10.3165L23.5933 8.88397C24.0716 8.60783 24.6832 8.7717 24.9593 9.25C25.2354 9.72829 25.0716 10.3399 24.5933 10.616L22.1122 12.0485L23.7734 12.6595C24.2918 12.8502 24.5574 13.4249 24.3667 13.9433C24.1761 14.4616 23.6013 14.7273 23.083 14.5366L19.8575 13.3502L17 15L19.8575 16.6498L23.083 15.4634C23.6013 15.2727 24.1761 15.5384 24.3667 16.0567C24.5574 16.575 24.2917 17.1498 23.7734 17.3404L22.1121 17.9515L24.5933 19.384C25.0715 19.6601 25.2354 20.2717 24.9593 20.75C24.6831 21.2283 24.0715 21.3922 23.5933 21.116L21.1121 19.6835L21.4136 21.4278C21.5076 21.972 21.1427 22.4894 20.5985 22.5835C20.0543 22.6775 19.5369 22.3126 19.4428 21.7684L18.8575 18.3818L16 16.7321V20.0316L18.6402 22.2318C19.0645 22.5853 19.1218 23.2159 18.7682 23.6402C18.4147 24.0645 17.7841 24.1218 17.3598 23.7682L16 22.635V25.5C16 26.0523 15.5523 26.5 15 26.5C14.4477 26.5 14 26.0523 14 25.5V22.635L12.6402 23.7682C12.2159 24.1218 11.5853 24.0645 11.2318 23.6402C10.8782 23.2159 10.9355 22.5853 11.3598 22.2318L14 20.0316V16.7321L11.1425 18.3818L10.5572 21.7684C10.4631 22.3126 9.94572 22.6775 9.4015 22.5835C8.85729 22.4894 8.49236 21.972 8.58642 21.4278L8.88787 19.6835L6.40675 21.116C5.92845 21.3922 5.31686 21.2283 5.04072 20.75C4.76458 20.2717 4.92845 19.6601 5.40675 19.384L7.88787 17.9515L6.2266 17.3404C5.70827 17.1498 5.44263 16.575 5.63328 16.0567C5.82394 15.5384 6.39868 15.2727 6.91702 15.4634L10.1425 16.6498L13 15L10.1425 13.3502L6.91699 14.5366C6.39866 14.7273 5.82391 14.4616 5.63326 13.9433C5.44261 13.4249 5.70824 12.8502 6.22658 12.6595L7.88785 12.0485L5.40672 10.616C4.92843 10.3399 4.76455 9.72829 5.0407 9.25C5.31684 8.7717 5.92843 8.60783 6.40672 8.88397L8.88785 10.3165L8.58639 8.57223C8.49234 8.02801 8.85726 7.51059 9.40148 7.41653C9.9457 7.32247 10.4631 7.6874 10.5572 8.23161L11.1425 11.6182L14 13.268V9.96838L11.3598 7.76822C10.9355 7.41466 10.8782 6.78409 11.2318 6.35982C11.5853 5.93554 12.2159 5.87821 12.6402 6.23178L14 7.36496V4.5C14 3.94772 14.4477 3.5 15 3.5Z" fill="#2B2B2C"/>
<path d="M8.125 4.375C8.125 4.72018 7.84518 5 7.5 5C7.15482 5 6.875 4.72018 6.875 4.375C6.875 4.02982 7.15482 3.75 7.5 3.75C7.84518 3.75 8.125 4.02982 8.125 4.375Z" fill="#2B2B2C"/>
<path d="M5 15C5 15.3452 4.72018 15.625 4.375 15.625C4.02982 15.625 3.75 15.3452 3.75 15C3.75 14.6548 4.02982 14.375 4.375 14.375C4.72018 14.375 5 14.6548 5 15Z" fill="#2B2B2C"/>
<path d="M8.75 24.375C8.75 24.7202 8.47018 25 8.125 25C7.77982 25 7.5 24.7202 7.5 24.375C7.5 24.0298 7.77982 23.75 8.125 23.75C8.47018 23.75 8.75 24.0298 8.75 24.375Z" fill="#2B2B2C"/>
<path d="M25.625 25C25.625 25.3452 25.3452 25.625 25 25.625C24.6548 25.625 24.375 25.3452 24.375 25C24.375 24.6548 24.6548 24.375 25 24.375C25.3452 24.375 25.625 24.6548 25.625 25Z" fill="#2B2B2C"/>
<path d="M27.5 13.125C27.5 13.4702 27.2202 13.75 26.875 13.75C26.5298 13.75 26.25 13.4702 26.25 13.125C26.25 12.7798 26.5298 12.5 26.875 12.5C27.2202 12.5 27.5 12.7798 27.5 13.125Z" fill="#2B2B2C"/>
<path d="M23.125 5.625C23.125 5.97018 22.8452 6.25 22.5 6.25C22.1548 6.25 21.875 5.97018 21.875 5.625C21.875 5.27982 22.1548 5 22.5 5C22.8452 5 23.125 5.27982 23.125 5.625Z" fill="#2B2B2C"/>
</svg>
