<svg width="24" height="24" viewBox="0 0 24 24" fill="none" xmlns="http://www.w3.org/2000/svg">
<path fill-rule="evenodd" clip-rule="evenodd" d="M12 3.49998C12.2762 3.49998 12.5 3.72384 12.5 3.99998V6.79288L13.6465 5.64643C13.8417 5.45117 14.1583 5.45117 14.3536 5.64643C14.5488 5.84169 14.5488 6.15828 14.3536 6.35354L12.5 8.20709V11.134L15.0347 9.67053L15.7132 7.13853C15.7847 6.8718 16.0588 6.71351 16.3256 6.78498C16.5923 6.85645 16.7506 7.13062 16.6791 7.39735L16.2595 8.96343L18.6782 7.56698C18.9174 7.42891 19.2231 7.51085 19.3612 7.74999C19.4993 7.98914 19.4174 8.29494 19.1782 8.43301L16.7595 9.82945L18.3256 10.2491C18.5923 10.3206 18.7506 10.5947 18.6791 10.8615C18.6076 11.1282 18.3335 11.2865 18.0667 11.215L15.5347 10.5366L13 12L15.5348 13.4634L18.0668 12.785C18.3335 12.7135 18.6077 12.8718 18.6792 13.1385C18.7507 13.4053 18.5924 13.6795 18.3256 13.7509L16.7596 14.1705L19.1783 15.567C19.4174 15.7051 19.4994 16.0109 19.3613 16.25C19.2232 16.4892 18.9174 16.5711 18.6783 16.433L16.2596 15.0366L16.6792 16.6027C16.7507 16.8694 16.5924 17.1436 16.3256 17.215C16.0589 17.2865 15.7847 17.1282 15.7133 16.8615L15.0348 14.3295L12.5 12.866V15.7929L14.3536 17.6464C14.5488 17.8417 14.5488 18.1583 14.3536 18.3535C14.1583 18.5488 13.8417 18.5488 13.6465 18.3535L12.5 17.2071V20C12.5 20.2761 12.2762 20.5 12 20.5C11.7239 20.5 11.5 20.2761 11.5 20V17.2071L10.3536 18.3535C10.1583 18.5488 9.84172 18.5488 9.64646 18.3535C9.4512 18.1583 9.4512 17.8417 9.64646 17.6464L11.5 15.7929V12.866L8.96526 14.3295L8.28681 16.8615C8.21534 17.1282 7.94117 17.2865 7.67444 17.215C7.40771 17.1435 7.24942 16.8694 7.32089 16.6026L7.74052 15.0366L5.3218 16.433C5.08265 16.5711 4.77686 16.4891 4.63879 16.25C4.50072 16.0108 4.58265 15.7051 4.8218 15.567L7.24052 14.1705L5.67444 13.7509C5.40771 13.6794 5.24942 13.4053 5.32089 13.1385C5.39236 12.8718 5.66653 12.7135 5.93326 12.785L8.46526 13.4634L11 12L8.46532 10.5366L5.93332 11.215C5.66659 11.2865 5.39242 11.1282 5.32095 10.8615C5.24948 10.5947 5.40777 10.3206 5.6745 10.2491L7.24058 9.82947L4.82186 8.43302C4.58272 8.29495 4.50078 7.98915 4.63885 7.75001C4.77692 7.51086 5.08272 7.42892 5.32186 7.567L7.74058 8.96344L7.32095 7.39737C7.24948 7.13063 7.40777 6.85647 7.6745 6.78499C7.94124 6.71352 8.2154 6.87181 8.28688 7.13855L8.96532 9.67055L11.5 11.134V8.20709L9.64646 6.35354C9.4512 6.15828 9.4512 5.84169 9.64646 5.64643C9.84172 5.45117 10.1583 5.45117 10.3536 5.64643L11.5 6.79288V3.99998C11.5 3.72384 11.7239 3.49998 12 3.49998Z" fill="#2B2B2C"/>
<path d="M6.5 3.49998C6.5 3.77613 6.27614 3.99998 6 3.99998C5.72386 3.99998 5.5 3.77613 5.5 3.49998C5.5 3.22384 5.72386 2.99998 6 2.99998C6.27614 2.99998 6.5 3.22384 6.5 3.49998Z" fill="#2B2B2C"/>
<path d="M4 12C4 12.2761 3.77614 12.5 3.5 12.5C3.22386 12.5 3 12.2761 3 12C3 11.7239 3.22386 11.5 3.5 11.5C3.77614 11.5 4 11.7239 4 12Z" fill="#2B2B2C"/>
<path d="M7 19.5C7 19.7761 6.77614 20 6.5 20C6.22386 20 6 19.7761 6 19.5C6 19.2239 6.22386 19 6.5 19C6.77614 19 7 19.2239 7 19.5Z" fill="#2B2B2C"/>
<path d="M20.5 20C20.5 20.2761 20.2761 20.5 20 20.5C19.7239 20.5 19.5 20.2761 19.5 20C19.5 19.7239 19.7239 19.5 20 19.5C20.2761 19.5 20.5 19.7239 20.5 20Z" fill="#2B2B2C"/>
<path d="M22 10.5C22 10.7761 21.7761 11 21.5 11C21.2239 11 21 10.7761 21 10.5C21 10.2239 21.2239 10 21.5 10C21.7761 10 22 10.2239 22 10.5Z" fill="#2B2B2C"/>
<path d="M18.5 4.49998C18.5 4.77613 18.2761 4.99998 18 4.99998C17.7239 4.99998 17.5 4.77613 17.5 4.49998C17.5 4.22384 17.7239 3.99998 18 3.99998C18.2761 3.99998 18.5 4.22384 18.5 4.49998Z" fill="#2B2B2C"/>
</svg>
