<svg width="12" height="12" viewBox="0 0 12 12" fill="none" xmlns="http://www.w3.org/2000/svg">
<path fill-rule="evenodd" clip-rule="evenodd" d="M6 1C3.23858 1 1 3.23858 1 6C1 8.76142 3.23858 11 6 11C8.76142 11 11 8.76142 11 6C11 3.23858 8.76142 1 6 1ZM6 3.5C6.27614 3.5 6.5 3.72386 6.5 4V5.5H8C8.27614 5.5 8.5 5.72386 8.5 6C8.5 6.27614 8.27614 6.5 8 6.5H6.5V8C6.5 8.27614 6.27614 8.5 6 8.5C5.72386 8.5 5.5 8.27614 5.5 8V6.5H4C3.72386 6.5 3.5 6.27614 3.5 6C3.5 5.72386 3.72386 5.5 4 5.5H5.5V4C5.5 3.72386 5.72386 3.5 6 3.5Z" fill="#2B2B2C"/>
</svg>
