<svg width="18" height="18" viewBox="0 0 18 18" fill="none" xmlns="http://www.w3.org/2000/svg">
<path fill-rule="evenodd" clip-rule="evenodd" d="M9 1.5C4.85786 1.5 1.5 4.85786 1.5 9C1.5 13.1421 4.85786 16.5 9 16.5C13.1421 16.5 16.5 13.1421 16.5 9C16.5 4.85786 13.1421 1.5 9 1.5ZM9 4.96448C9.27614 4.96448 9.5 5.18834 9.5 5.46448V8.50001H12.5355C12.8117 8.50001 13.0355 8.72387 13.0355 9.00001C13.0355 9.27615 12.8117 9.50001 12.5355 9.50001H9.5V12.5355C9.5 12.8117 9.27614 13.0355 9 13.0355C8.72386 13.0355 8.5 12.8117 8.5 12.5355V9.50001H5.46447C5.18832 9.50001 4.96447 9.27615 4.96447 9.00001C4.96447 8.72387 5.18832 8.50001 5.46447 8.50001H8.5V5.46448C8.5 5.18834 8.72386 4.96448 9 4.96448Z" fill="#2B2B2C"/>
</svg>
