<svg width="30" height="30" viewBox="0 0 30 30" fill="none" xmlns="http://www.w3.org/2000/svg">
<path fill-rule="evenodd" clip-rule="evenodd" d="M26.875 15C26.875 21.2128 21.8378 26.25 15.625 26.25C9.41219 26.25 4.375 21.2128 4.375 15C4.375 8.78719 9.41219 3.75 15.625 3.75C21.8378 3.75 26.875 8.78719 26.875 15ZM16.2399 9.82177C16.187 9.53021 15.9318 9.30912 15.625 9.30912C15.2798 9.30912 15 9.58894 15 9.93412V14.375H10.5577L10.4454 14.3851C10.1538 14.438 9.93275 14.6932 9.93275 15C9.93275 15.3452 10.2126 15.625 10.5577 15.625H15V20.0647L15.0101 20.1771C15.063 20.4686 15.3182 20.6897 15.625 20.6897C15.9702 20.6897 16.25 20.4099 16.25 20.0647V15.625H20.6912L20.8035 15.6149C21.0951 15.562 21.3162 15.3068 21.3162 15C21.3162 14.6548 21.0364 14.375 20.6912 14.375H16.25V9.93412L16.2399 9.82177Z" fill="#2B2B2C"/>
</svg>
