<svg width="12" height="12" viewBox="0 0 12 12" fill="none" xmlns="http://www.w3.org/2000/svg">
<path fill-rule="evenodd" clip-rule="evenodd" d="M6 2C3.79086 2 2 3.79086 2 6C2 8.20914 3.79086 10 6 10C8.20914 10 10 8.20914 10 6C10 3.79086 8.20914 2 6 2ZM1 6C1 3.23858 3.23858 1 6 1C8.76142 1 11 3.23858 11 6C11 8.76142 8.76142 11 6 11C3.23858 11 1 8.76142 1 6ZM4.14645 4.14645C4.34171 3.95118 4.65829 3.95118 4.85355 4.14645L6 5.29289L7.14645 4.14645C7.34171 3.95118 7.65829 3.95118 7.85355 4.14645C8.04882 4.34171 8.04882 4.65829 7.85355 4.85355L6.70711 6L7.85355 7.14645C8.04882 7.34171 8.04882 7.65829 7.85355 7.85355C7.65829 8.04882 7.34171 8.04882 7.14645 7.85355L6 6.70711L4.85355 7.85355C4.65829 8.04882 4.34171 8.04882 4.14645 7.85355C3.95118 7.65829 3.95118 7.34171 4.14645 7.14645L5.29289 6L4.14645 4.85355C3.95118 4.65829 3.95118 4.34171 4.14645 4.14645Z" fill="#ED0000"/>
</svg>
