<svg width="60" height="60" viewBox="0 0 60 60" fill="none" xmlns="http://www.w3.org/2000/svg">
<path fill-rule="evenodd" clip-rule="evenodd" d="M30 8C17.8497 8 8 17.8497 8 30C8 42.1503 17.8497 52 30 52C42.1503 52 52 42.1503 52 30C52 17.8497 42.1503 8 30 8ZM6 30C6 16.7452 16.7452 6 30 6C43.2548 6 54 16.7452 54 30C54 43.2548 43.2548 54 30 54C16.7452 54 6 43.2548 6 30ZM25.2425 23.0299C25.7783 23.1639 26.1041 23.7068 25.9701 24.2426L25.9328 24.3918C25.1291 27.6066 21.8715 29.5612 18.6567 28.7575L18.5075 28.7202C17.9717 28.5862 17.6459 28.0433 17.7799 27.5075C17.9138 26.9717 18.4568 26.6459 18.9925 26.7799L19.1418 26.8172C21.285 27.353 23.4567 26.0499 23.9925 23.9068L24.0298 23.7575C24.1638 23.2217 24.7067 22.896 25.2425 23.0299ZM34.7575 23.5299C35.2933 23.3959 35.8362 23.7217 35.9701 24.2575L36.0075 24.4068C36.5433 26.5499 38.715 27.853 40.8582 27.3172L41.0075 27.2799C41.5433 27.1459 42.0863 27.4717 42.2202 28.0075C42.3541 28.5433 42.0284 29.0862 41.4926 29.2201L41.3432 29.2575C38.1285 30.0612 34.8709 28.1066 34.0672 24.8918L34.0299 24.7425C33.8959 24.2067 34.2217 23.6638 34.7575 23.5299ZM30 36C27.2187 36 24.6256 37.4047 23.1063 39.7343L22.0876 41.2963C21.7859 41.7589 21.1663 41.8893 20.7037 41.5876C20.2411 41.2859 20.1107 40.6663 20.4124 40.2037L21.431 38.6418C23.3196 35.746 26.5429 34 30 34C33.4571 34 36.6804 35.746 38.569 38.6418L39.5876 40.2037C39.8893 40.6663 39.7589 41.2859 39.2963 41.5876C38.8337 41.8893 38.2141 41.7589 37.9124 41.2963L36.8937 39.7343C35.3744 37.4047 32.7813 36 30 36ZM28.6584 40.7889L28.4472 40.8944C27.9532 41.1414 27.3526 40.9412 27.1056 40.4472C26.8586 39.9532 27.0588 39.3526 27.5528 39.1056L27.7639 39C29.1716 38.2962 30.8284 38.2962 32.2361 39L32.4472 39.1056C32.9412 39.3526 33.1414 39.9532 32.8944 40.4472C32.6474 40.9412 32.0468 41.1414 31.5528 40.8944L31.3416 40.7889C30.4971 40.3666 29.5029 40.3666 28.6584 40.7889Z" fill="#2B2B2C"/>
</svg>
