<svg width="30" height="30" viewBox="0 0 30 30" fill="none" xmlns="http://www.w3.org/2000/svg">
<path fill-rule="evenodd" clip-rule="evenodd" d="M15 4C8.92487 4 4 8.92487 4 15C4 21.0751 8.92487 26 15 26C21.0751 26 26 21.0751 26 15C26 8.92487 21.0751 4 15 4ZM3 15C3 8.37258 8.37258 3 15 3C21.6274 3 27 8.37258 27 15C27 21.6274 21.6274 27 15 27C8.37258 27 3 21.6274 3 15ZM15.75 9.75C15.75 10.1642 15.4142 10.5 15 10.5C14.5858 10.5 14.25 10.1642 14.25 9.75C14.25 9.33579 14.5858 9 15 9C15.4142 9 15.75 9.33579 15.75 9.75ZM15.5 12.5C15.5 12.2239 15.2761 12 15 12C14.7239 12 14.5 12.2239 14.5 12.5V20C14.5 20.2761 14.7239 20.5 15 20.5C15.2761 20.5 15.5 20.2761 15.5 20V12.5Z" fill="#2B2B2C"/>
</svg>
