<svg width="18" height="18" viewBox="0 0 18 18" fill="none" xmlns="http://www.w3.org/2000/svg">
<path d="M16 9C16 12.866 12.866 16 9 16C5.13401 16 2 12.866 2 9C2 5.13401 5.13401 2 9 2C12.866 2 16 5.13401 16 9Z" fill="#B2DFD7"/>
<path fill-rule="evenodd" clip-rule="evenodd" d="M2.5 9C2.5 5.41015 5.41015 2.5 9 2.5C12.5899 2.5 15.5 5.41015 15.5 9C15.5 12.5899 12.5899 15.5 9 15.5C5.41015 15.5 2.5 12.5899 2.5 9ZM9 1.5C4.85786 1.5 1.5 4.85786 1.5 9C1.5 13.1421 4.85786 16.5 9 16.5C13.1421 16.5 16.5 13.1421 16.5 9C16.5 4.85786 13.1421 1.5 9 1.5ZM6 10.5C5.72386 10.5 5.5 10.7239 5.5 11C5.5 11.2761 5.72386 11.5 6 11.5H12C12.2761 11.5 12.5 11.2761 12.5 11C12.5 10.7239 12.2761 10.5 12 10.5H6ZM5.0529 6.77638C5.17639 6.52939 5.47673 6.42928 5.72372 6.55277L6.0529 6.71736C6.33442 6.85813 6.6658 6.85813 6.94732 6.71736L7.2765 6.55277C7.52349 6.42928 7.82383 6.52939 7.94732 6.77638C8.07082 7.02337 7.97071 7.32371 7.72372 7.4472L7.39454 7.61179C6.83148 7.89332 6.16874 7.89332 5.60568 7.61179L5.2765 7.4472C5.02951 7.32371 4.9294 7.02337 5.0529 6.77638ZM10.7237 6.55277C10.4767 6.42928 10.1764 6.52939 10.0529 6.77638C9.9294 7.02337 10.0295 7.32371 10.2765 7.4472L10.6057 7.61179C11.1687 7.89332 11.8315 7.89332 12.3945 7.61179L12.7237 7.4472C12.9707 7.32371 13.0708 7.02337 12.9473 6.77638C12.8238 6.52939 12.5235 6.42928 12.2765 6.55277L11.9473 6.71736C11.6658 6.85813 11.3344 6.85813 11.0529 6.71736L10.7237 6.55277Z" fill="#2B2B2C"/>
</svg>
