<svg width="24" height="24" viewBox="0 0 24 24" fill="none" xmlns="http://www.w3.org/2000/svg">
<path d="M20.5 12C20.5 16.6944 16.6944 20.5 12 20.5C7.30558 20.5 3.5 16.6944 3.5 12C3.5 7.30558 7.30558 3.5 12 3.5C16.6944 3.5 20.5 7.30558 20.5 12Z" fill="#B2DFD7"/>
<path fill-rule="evenodd" clip-rule="evenodd" d="M4 12C4 7.58172 7.58172 4 12 4C16.4183 4 20 7.58172 20 12C20 16.4183 16.4183 20 12 20C7.58172 20 4 16.4183 4 12ZM12 3C7.02944 3 3 7.02944 3 12C3 16.9706 7.02944 21 12 21C16.9706 21 21 16.9706 21 12C21 7.02944 16.9706 3 12 3ZM8.5 14C8.22386 14 8 14.2239 8 14.5C8 14.7761 8.22386 15 8.5 15H15.5C15.7761 15 16 14.7761 16 14.5C16 14.2239 15.7761 14 15.5 14H8.5ZM7.14645 9.14645C7.34171 8.95118 7.65829 8.95118 7.85355 9.14645L7.93934 9.23223C8.52513 9.81802 9.47487 9.81802 10.0607 9.23223L10.1464 9.14645C10.3417 8.95118 10.6583 8.95118 10.8536 9.14645C11.0488 9.34171 11.0488 9.65829 10.8536 9.85355L10.7678 9.93934C9.79146 10.9156 8.20854 10.9157 7.23223 9.93934L7.14645 9.85355C6.95118 9.65829 6.95118 9.34171 7.14645 9.14645ZM13.8536 9.14645C13.6583 8.95118 13.3417 8.95118 13.1464 9.14645C12.9512 9.34171 12.9512 9.65829 13.1464 9.85355L13.2322 9.93934C14.2085 10.9157 15.7915 10.9156 16.7678 9.93934L16.8536 9.85355C17.0488 9.65829 17.0488 9.34171 16.8536 9.14645C16.6583 8.95118 16.3417 8.95118 16.1464 9.14645L16.0607 9.23223C15.4749 9.81802 14.5251 9.81802 13.9393 9.23223L13.8536 9.14645Z" fill="#2B2B2C"/>
</svg>
