<svg width="30" height="30" viewBox="0 0 30 30" fill="none" xmlns="http://www.w3.org/2000/svg">
<path d="M26.5 15.5C26.5 21.8513 21.3513 27 15 27C8.64873 27 3.5 21.8513 3.5 15.5C3.5 9.14873 8.64873 4 15 4C21.3513 4 26.5 9.14873 26.5 15.5Z" fill="#B2DFD7"/>
<path fill-rule="evenodd" clip-rule="evenodd" d="M4 15.5C4 9.42487 8.92487 4.5 15 4.5C21.0751 4.5 26 9.42487 26 15.5C26 21.5751 21.0751 26.5 15 26.5C8.92487 26.5 4 21.5751 4 15.5ZM15 3.5C8.37258 3.5 3 8.87258 3 15.5C3 22.1274 8.37258 27.5 15 27.5C21.6274 27.5 27 22.1274 27 15.5C27 8.87258 21.6274 3.5 15 3.5ZM10.5459 18.5C10.4825 18.8109 10.3593 19.1124 10.1764 19.3867L9.91604 19.7773C9.76286 20.0071 9.45243 20.0692 9.22266 19.916C8.9929 19.7628 8.93081 19.4524 9.08399 19.2226L9.34439 18.832C9.68029 18.3282 9.68029 17.6718 9.34439 17.1679L9.08399 16.7773C8.93081 16.5476 8.9929 16.2371 9.22266 16.084C9.45243 15.9308 9.76286 15.9929 9.91604 16.2226L10.1764 16.6132C10.3593 16.8876 10.4825 17.1891 10.5459 17.5H19.4541C19.5175 17.1891 19.6407 16.8876 19.8236 16.6132L20.084 16.2226C20.2371 15.9929 20.5476 15.9308 20.7773 16.084C21.0071 16.2371 21.0692 16.5476 20.916 16.7773L20.6556 17.1679C20.3197 17.6718 20.3197 18.3282 20.6556 18.832L20.916 19.2226C21.0692 19.4524 21.0071 19.7628 20.7773 19.916C20.5476 20.0692 20.2371 20.0071 20.084 19.7773L19.8236 19.3867C19.6407 19.1124 19.5175 18.8109 19.4541 18.5H10.5459ZM9.02145 11.5214C9.21671 11.3262 9.53329 11.3262 9.72855 11.5214L9.83579 11.6287C10.6168 12.4097 11.8832 12.4097 12.6642 11.6287L12.7714 11.5214C12.9667 11.3262 13.2833 11.3262 13.4786 11.5214C13.6738 11.7167 13.6738 12.0333 13.4786 12.2286L13.3713 12.3358C12.1997 13.5074 10.3003 13.5074 9.12868 12.3358L9.02145 12.2286C8.82618 12.0333 8.82618 11.7167 9.02145 11.5214ZM17.2286 11.5214C17.0333 11.3262 16.7167 11.3262 16.5214 11.5214C16.3262 11.7167 16.3262 12.0333 16.5214 12.2286L16.6287 12.3358C17.8003 13.5074 19.6997 13.5074 20.8713 12.3358L20.9786 12.2286C21.1738 12.0333 21.1738 11.7167 20.9786 11.5214C20.7833 11.3262 20.4667 11.3262 20.2714 11.5214L20.1642 11.6287C19.3832 12.4097 18.1168 12.4097 17.3358 11.6287L17.2286 11.5214Z" fill="#2B2B2C"/>
</svg>
