<svg width="18" height="18" viewBox="0 0 18 18" fill="none" xmlns="http://www.w3.org/2000/svg">
<path fill-rule="evenodd" clip-rule="evenodd" d="M9 1.5C4.85786 1.5 1.5 4.85786 1.5 9C1.5 13.1421 4.85786 16.5 9 16.5C13.1421 16.5 16.5 13.1421 16.5 9C16.5 4.85786 13.1421 1.5 9 1.5ZM7.3843 5.83371C7.68791 5.38706 8.20846 5 9 5C10.2943 5 11 6.04807 11 7C11 7.41037 10.8453 7.76626 10.6646 8.04936C10.4843 8.33182 10.259 8.57123 10.0776 8.75263C9.97119 8.85902 9.81987 9.06423 9.69607 9.31374C9.57089 9.56603 9.5 9.8112 9.5 10C9.5 10.2761 9.27614 10.5 9 10.5C8.72386 10.5 8.5 10.2761 8.5 10C8.5 9.59714 8.63934 9.19363 8.80028 8.86927C8.9626 8.54213 9.1733 8.2427 9.37048 8.04552C9.53867 7.87733 9.70138 7.69972 9.82166 7.5113C9.94153 7.32352 10 7.15467 10 7C10 6.49327 9.64069 6 9 6C8.58571 6 8.35626 6.18266 8.21132 6.39588C8.048 6.63615 8 6.91148 8 7C8 7.27614 7.77614 7.5 7.5 7.5C7.22386 7.5 7 7.27614 7 7C7 6.72797 7.09908 6.2533 7.3843 5.83371ZM9 12.5C9.34518 12.5 9.625 12.2202 9.625 11.875C9.625 11.5298 9.34518 11.25 9 11.25C8.65482 11.25 8.375 11.5298 8.375 11.875C8.375 12.2202 8.65482 12.5 9 12.5Z" fill="#2B2B2C"/>
</svg>
