<svg width="18" height="18" viewBox="0 0 18 18" fill="none" xmlns="http://www.w3.org/2000/svg">
<path fill-rule="evenodd" clip-rule="evenodd" d="M2.5 9C2.5 5.41015 5.41015 2.5 9 2.5C12.5899 2.5 15.5 5.41015 15.5 9C15.5 12.5899 12.5899 15.5 9 15.5C5.41015 15.5 2.5 12.5899 2.5 9ZM9 1.5C4.85786 1.5 1.5 4.85786 1.5 9C1.5 13.1421 4.85786 16.5 9 16.5C13.1421 16.5 16.5 13.1421 16.5 9C16.5 4.85786 13.1421 1.5 9 1.5ZM6 8.5C5.72386 8.5 5.5 8.72386 5.5 9C5.5 9.27614 5.72386 9.5 6 9.5H12C12.2761 9.5 12.5 9.27614 12.5 9C12.5 8.72386 12.2761 8.5 12 8.5H6Z" fill="#2B2B2C"/>
</svg>
