<svg width="24" height="24" viewBox="0 0 24 24" fill="none" xmlns="http://www.w3.org/2000/svg">
<path fill-rule="evenodd" clip-rule="evenodd" d="M3 12C3 7.02944 7.02944 3 12 3C16.9706 3 21 7.02944 21 12C21 16.9706 16.9706 21 12 21C7.02944 21 3 16.9706 3 12ZM16.8536 9.35355C17.0488 9.15829 17.0488 8.84171 16.8536 8.64645C16.6583 8.45118 16.3417 8.45118 16.1464 8.64645L11 13.7929L8.85355 11.6464C8.65829 11.4512 8.34171 11.4512 8.14645 11.6464C7.95118 11.8417 7.95118 12.1583 8.14645 12.3536L10.6464 14.8536C10.8417 15.0488 11.1583 15.0488 11.3536 14.8536L16.8536 9.35355Z" fill="#037D67"/>
</svg>
