<svg width="24" height="24" viewBox="0 0 24 24" fill="none" xmlns="http://www.w3.org/2000/svg">
<path fill-rule="evenodd" clip-rule="evenodd" d="M12 4C7.58172 4 4 7.58172 4 12C4 16.4183 7.58172 20 12 20C16.4183 20 20 16.4183 20 12C20 7.58172 16.4183 4 12 4ZM3 12C3 7.02944 7.02944 3 12 3C16.9706 3 21 7.02944 21 12C21 16.9706 16.9706 21 12 21C7.02944 21 3 16.9706 3 12Z" fill="#037D67"/>
<path fill-rule="evenodd" clip-rule="evenodd" d="M16.8536 8.64645C17.0488 8.84171 17.0488 9.15829 16.8536 9.35355L11.3536 14.8536C11.1583 15.0488 10.8417 15.0488 10.6464 14.8536L8.14645 12.3536C7.95118 12.1583 7.95118 11.8417 8.14645 11.6464C8.34171 11.4512 8.65829 11.4512 8.85355 11.6464L11 13.7929L16.1464 8.64645C16.3417 8.45118 16.6583 8.45118 16.8536 8.64645Z" fill="#037D67"/>
</svg>
