<svg width="24" height="24" viewBox="0 0 24 24" fill="none" xmlns="http://www.w3.org/2000/svg">
<path fill-rule="evenodd" clip-rule="evenodd" d="M13.3129 2.84198C12.7422 1.80935 11.2578 1.80935 10.6872 2.84198L1.88234 18.7745C1.32985 19.7743 2.05296 21 3.1952 21H20.8049C21.9471 21 22.6702 19.7743 22.1177 18.7745L13.3129 2.84198ZM11.5624 3.32566C11.7526 2.98145 12.2474 2.98145 12.4376 3.32566L21.2425 19.2582C21.4266 19.5915 21.1856 20 20.8049 20H3.1952C2.81445 20 2.57342 19.5915 2.75758 19.2582L11.5624 3.32566ZM12.5 8.50005C12.5 8.22391 12.2762 8.00005 12 8.00005C11.7239 8.00005 11.5 8.22391 11.5 8.50005V14.5C11.5 14.7762 11.7239 15 12 15C12.2762 15 12.5 14.7762 12.5 14.5V8.50005ZM12 17.5C12.4142 17.5 12.75 17.1642 12.75 16.75C12.75 16.3358 12.4142 16 12 16C11.5858 16 11.25 16.3358 11.25 16.75C11.25 17.1642 11.5858 17.5 12 17.5Z" fill="#2B2B2C"/>
</svg>
