<svg width="30" height="30" viewBox="0 0 30 30" fill="none" xmlns="http://www.w3.org/2000/svg">
<path fill-rule="evenodd" clip-rule="evenodd" d="M7 6.25C7 5.97386 6.77614 5.75 6.5 5.75C6.22386 5.75 6 5.97386 6 6.25V7H4C3.44772 7 3 7.44772 3 8V18H2.75C2.33579 18 2 18.3358 2 18.75V21.25C2 21.6642 2.33579 22 2.75 22H27.25C27.6642 22 28 21.6642 28 21.25V18.75C28 18.3358 27.6642 18 27.25 18H27V8C27 7.44772 26.5523 7 26 7H24V6.25C24 5.97386 23.7761 5.75 23.5 5.75C23.2239 5.75 23 5.97386 23 6.25V7H7V6.25ZM26 18V8H4V18H26ZM3.5 19H3V21H27V19H26.5H3.5ZM4 23.5C4 23.2239 4.22386 23 4.5 23H25.5C25.7761 23 26 23.2239 26 23.5C26 23.7761 25.7761 24 25.5 24H4.5C4.22386 24 4 23.7761 4 23.5ZM8.5 10C8.5 9.72386 8.27614 9.5 8 9.5C7.72386 9.5 7.5 9.72386 7.5 10V16C7.5 16.2761 7.72386 16.5 8 16.5C8.27614 16.5 8.5 16.2761 8.5 16V10ZM15 9.5C15.2761 9.5 15.5 9.72386 15.5 10V16C15.5 16.2761 15.2761 16.5 15 16.5C14.7239 16.5 14.5 16.2761 14.5 16V10C14.5 9.72386 14.7239 9.5 15 9.5ZM22.5 10C22.5 9.72386 22.2761 9.5 22 9.5C21.7239 9.5 21.5 9.72386 21.5 10V16C21.5 16.2761 21.7239 16.5 22 16.5C22.2761 16.5 22.5 16.2761 22.5 16V10ZM18.5 9.5C18.7761 9.5 19 9.72386 19 10V16C19 16.2761 18.7761 16.5 18.5 16.5C18.2239 16.5 18 16.2761 18 16V10C18 9.72386 18.2239 9.5 18.5 9.5ZM12 10C12 9.72386 11.7761 9.5 11.5 9.5C11.2239 9.5 11 9.72386 11 10V16C11 16.2761 11.2239 16.5 11.5 16.5C11.7761 16.5 12 16.2761 12 16V10Z" fill="#2B2B2C"/>
</svg>
