<svg width="24" height="24" viewBox="0 0 24 24" fill="none" xmlns="http://www.w3.org/2000/svg">
<path fill-rule="evenodd" clip-rule="evenodd" d="M21 2.92383H17.4V6.52383H21V2.92383ZM13.8 6.5238H17.4V10.1238H13.8V6.5238ZM13.8 6.5238L10.2 6.52383L10.2 10.1238H6.6V6.5238H10.2L10.2 2.92383H13.8L13.8 6.5238ZM17.4 13.7238H13.8L13.8 10.1238H10.2L10.2 13.7238H6.6V17.3238H10.2L10.2 13.7238H13.8L13.8 17.3238H17.4V13.7238ZM21 17.3239H17.4V20.9239H21V17.3239ZM10.2 17.3239H13.8V20.9239H10.2V17.3239ZM6.6 10.1238H3V13.7238H6.6V10.1238Z" fill="#2B2B2C"/>
</svg>
