<svg width="24" height="24" viewBox="0 0 24 24" fill="none" xmlns="http://www.w3.org/2000/svg">
<path fill-rule="evenodd" clip-rule="evenodd" d="M4.49999 5C4.77613 5 4.99999 5.22386 4.99999 5.5V6H18.5V5.5C18.5 5.22386 18.7238 5 19 5C19.2761 5 19.5 5.22386 19.5 5.5V6H21C21.5523 6 22 6.44772 22 7V14.029C22.2891 14.1151 22.5 14.3829 22.5 14.7V16.3C22.5 16.6866 22.1866 17 21.8 17H2.2C1.8134 17 1.5 16.6866 1.5 16.3V14.7C1.5 14.3829 1.71085 14.1151 2 14.029V7C2 6.44772 2.44772 6 3 6H3.99999V5.5C3.99999 5.22386 4.22385 5 4.49999 5ZM3 7V14H21V7H3ZM2.5 15V16H21.5V15H2.5ZM4.5 18C4.22386 18 4 18.2239 4 18.5C4 18.7761 4.22386 19 4.5 19H19.5C19.7761 19 20 18.7761 20 18.5C20 18.2239 19.7761 18 19.5 18H4.5ZM6 8C6.27614 8 6.5 8.22386 6.5 8.5V12.5C6.5 12.7761 6.27614 13 6 13C5.72386 13 5.5 12.7761 5.5 12.5V8.5C5.5 8.22386 5.72386 8 6 8ZM14.5 8.5C14.5 8.22386 14.2761 8 14 8C13.7239 8 13.5 8.22386 13.5 8.5V12.5C13.5 12.7761 13.7239 13 14 13C14.2761 13 14.5 12.7761 14.5 12.5V8.5ZM18 8C18.2761 8 18.5 8.22386 18.5 8.5V12.5C18.5 12.7761 18.2761 13 18 13C17.7239 13 17.5 12.7761 17.5 12.5V8.5C17.5 8.22386 17.7239 8 18 8ZM10.5 8.5C10.5 8.22386 10.2761 8 10 8C9.72386 8 9.5 8.22386 9.5 8.5V12.5C9.5 12.7761 9.72386 13 10 13C10.2761 13 10.5 12.7761 10.5 12.5V8.5Z" fill="#2B2B2C"/>
</svg>
