<svg width="18" height="18" viewBox="0 0 18 18" fill="none" xmlns="http://www.w3.org/2000/svg">
<path fill-rule="evenodd" clip-rule="evenodd" d="M4.5 3.50002C4.5 3.22387 4.27614 3.00002 4 3.00002C3.72386 3.00002 3.5 3.22387 3.5 3.50002V4.00002H2.3C1.85817 4.00002 1.5 4.35819 1.5 4.80002V10.0174C1.21333 10.0851 1 10.3426 1 10.65V12.35C1 12.709 1.29101 13 1.65 13H16.35C16.709 13 17 12.709 17 12.35V10.65C17 10.3426 16.7867 10.0851 16.5 10.0174V4.80002C16.5 4.35819 16.1418 4.00002 15.7 4.00002H14.5V3.50002C14.5 3.22387 14.2761 3.00002 14 3.00002C13.7239 3.00002 13.5 3.22387 13.5 3.50002V4.00002H4.5V3.50002ZM2 11H16V12H2V11ZM2.5 14.5C2.5 14.2239 2.72386 14 3 14H15C15.2761 14 15.5 14.2239 15.5 14.5C15.5 14.7761 15.2761 15 15 15H3C2.72386 15 2.5 14.7761 2.5 14.5ZM8 6.5C8 6.22386 7.77614 6 7.5 6C7.22386 6 7 6.22386 7 6.5V8.5C7 8.77614 7.22386 9 7.5 9C7.77614 9 8 8.77614 8 8.5V6.5ZM13.5 6C13.7761 6 14 6.22386 14 6.5V8.5C14 8.77614 13.7761 9 13.5 9C13.2239 9 13 8.77614 13 8.5V6.5C13 6.22386 13.2239 6 13.5 6ZM11 6.5C11 6.22386 10.7761 6 10.5 6C10.2239 6 10 6.22386 10 6.5V8.5C10 8.77614 10.2239 9 10.5 9C10.7761 9 11 8.77614 11 8.5V6.5ZM4.5 6C4.77614 6 5 6.22386 5 6.5V8.5C5 8.77614 4.77614 9 4.5 9C4.22386 9 4 8.77614 4 8.5V6.5C4 6.22386 4.22386 6 4.5 6Z" fill="#2B2B2C"/>
</svg>
