<svg width="18" height="18" viewBox="0 0 18 18" fill="none" xmlns="http://www.w3.org/2000/svg">
<path fill-rule="evenodd" clip-rule="evenodd" d="M4 3.00002C4.27614 3.00002 4.5 3.22387 4.5 3.50002V4.00002H13.5V3.50002C13.5 3.22387 13.7239 3.00002 14 3.00002C14.2761 3.00002 14.5 3.22387 14.5 3.50002V4.00002H15.7C16.1418 4.00002 16.5 4.35819 16.5 4.80002V10.0174C16.7867 10.0851 17 10.3426 17 10.65V12.35C17 12.709 16.709 13 16.35 13H1.65C1.29101 13 1 12.709 1 12.35V10.65C1 10.3426 1.21333 10.0851 1.5 10.0174V4.80002C1.5 4.35819 1.85817 4.00002 2.3 4.00002H3.5V3.50002C3.5 3.22387 3.72386 3.00002 4 3.00002ZM16 11H2V12H16V11ZM15.5 5.00002V10H2.5V5.00002H15.5ZM3 14C2.72386 14 2.5 14.2239 2.5 14.5C2.5 14.7761 2.72386 15 3 15H15C15.2761 15 15.5 14.7761 15.5 14.5C15.5 14.2239 15.2761 14 15 14H3ZM7.5 6C7.77614 6 8 6.22386 8 6.5V8.5C8 8.77614 7.77614 9 7.5 9C7.22386 9 7 8.77614 7 8.5V6.5C7 6.22386 7.22386 6 7.5 6ZM14 6.5C14 6.22386 13.7761 6 13.5 6C13.2239 6 13 6.22386 13 6.5V8.5C13 8.77614 13.2239 9 13.5 9C13.7761 9 14 8.77614 14 8.5V6.5ZM10.5 6.00002C10.7761 6.00002 11 6.22387 11 6.50002V8.50002C11 8.77616 10.7761 9.00002 10.5 9.00002C10.2239 9.00002 10 8.77616 10 8.50002V6.50002C10 6.22387 10.2239 6.00002 10.5 6.00002ZM5 6.5C5 6.22386 4.77614 6 4.5 6C4.22386 6 4 6.22386 4 6.5V8.5C4 8.77614 4.22386 9 4.5 9C4.77614 9 5 8.77614 5 8.5V6.5Z" fill="#2B2B2C"/>
</svg>
