<svg width="30" height="30" viewBox="0 0 30 30" fill="none" xmlns="http://www.w3.org/2000/svg">
<path fill-rule="evenodd" clip-rule="evenodd" d="M5 4.5C5 4.22386 5.22386 4 5.5 4H10.5C10.7761 4 11 4.22386 11 4.5C11 4.77614 10.7761 5 10.5 5H9.43426L10.7676 7H19.25C20.2165 7 21 7.7835 21 8.75V11H23.5C23.6326 11 23.7598 11.0527 23.8536 11.1464L24.8536 12.1464C24.9473 12.2402 25 12.3674 25 12.5V13V14.5V16.5V17V18H27V14.5C27 14.2239 27.2239 14 27.5 14C27.7761 14 28 14.2239 28 14.5V20.875C28 21.4963 27.4963 22 26.875 22H3.125C2.50368 22 2 21.4963 2 20.875V8.125C2 7.50368 2.50368 7 3.125 7H9.56574L8.23241 5H5.5C5.22386 5 5 4.77614 5 4.5ZM24 16.5V14.5H23.5C23.2239 14.5 23 14.7239 23 15V16C23 16.2761 23.2239 16.5 23.5 16.5H24ZM24.5 19H3V20.875C3 20.944 3.05596 21 3.125 21H26.875C26.944 21 27 20.944 27 20.875V19H24.5ZM13 8V10.25C13 10.6642 13.3358 11 13.75 11H16V8H13ZM17 8V11H20V8.75C20 8.33579 19.6642 8 19.25 8H17ZM2.5 23C2.22386 23 2 23.2239 2 23.5C2 23.7761 2.22386 24 2.5 24H23.5C23.7761 24 24 23.7761 24 23.5C24 23.2239 23.7761 23 23.5 23H2.5ZM6 15.5C5.72386 15.5 5.5 15.7239 5.5 16C5.5 16.2761 5.72386 16.5 6 16.5H8C8.27614 16.5 8.5 16.2761 8.5 16C8.5 15.7239 8.27614 15.5 8 15.5H6ZM5.5 14C5.5 13.7239 5.72386 13.5 6 13.5H8C8.27614 13.5 8.5 13.7239 8.5 14C8.5 14.2761 8.27614 14.5 8 14.5H6C5.72386 14.5 5.5 14.2761 5.5 14ZM6 11.5C5.72386 11.5 5.5 11.7239 5.5 12C5.5 12.2761 5.72386 12.5 6 12.5H8C8.27614 12.5 8.5 12.2761 8.5 12C8.5 11.7239 8.27614 11.5 8 11.5H6Z" fill="#2B2B2C"/>
</svg>
