<svg width="18" height="18" viewBox="0 0 18 18" fill="none" xmlns="http://www.w3.org/2000/svg">
<path fill-rule="evenodd" clip-rule="evenodd" d="M3.5 2C3.22386 2 3 2.22386 3 2.5C3 2.77614 3.22386 3 3.5 3H4.79289L5.7929 4.00001H1.875C1.39175 4.00001 1 4.39176 1 4.87501V12.4C1 12.7314 1.26864 13 1.6 13H16.4C16.7314 13 17 12.7314 17 12.4V8.5C17 8.22386 16.7761 8 16.5 8C16.2239 8 16 8.22386 16 8.5V10H15V7.50001C15 7.3674 14.9473 7.24022 14.8536 7.14645L14.3536 6.64645C14.2598 6.55269 14.1326 6.50001 14 6.50001H13V5.25001C13 4.55965 12.4404 4.00001 11.75 4.00001H7.20711L6.20711 3H7C7.27614 3 7.5 2.77614 7.5 2.5C7.5 2.22386 7.27614 2 7 2H5.00009H4.99991H3.5ZM16 11H2V12H16V11ZM2 10H14V7.70711L13.7929 7.50001H12.5V7.50002H8.25C7.55964 7.50002 7 6.94037 7 6.25002V5.00001H2V10ZM12 5.25001V6.50002H10.5V5.00001H11.75C11.8881 5.00001 12 5.11194 12 5.25001ZM9.5 6.50002V5.00001H8V6.25002C8 6.38809 8.11193 6.50002 8.25 6.50002H9.5ZM1 14.5C1 14.2239 1.22386 14 1.5 14H14.5C14.7761 14 15 14.2239 15 14.5C15 14.7761 14.7761 15 14.5 15H1.5C1.22386 15 1 14.7761 1 14.5ZM3.5 8C3.22386 8 3 8.22386 3 8.5C3 8.77614 3.22386 9 3.5 9H4.5C4.77614 9 5 8.77614 5 8.5C5 8.22386 4.77614 8 4.5 8H3.5Z" fill="#2B2B2C"/>
</svg>
