<svg width="24" height="24" viewBox="0 0 24 24" fill="none" xmlns="http://www.w3.org/2000/svg">
<path fill-rule="evenodd" clip-rule="evenodd" d="M9 4.5H8.04031L9.24031 6H15.5C16.3284 6 17 6.67157 17 7.5V9H18.5C18.6326 9 18.7598 9.05268 18.8536 9.14644L19.8536 10.1464C19.9473 10.2402 20 10.3674 20 10.5V14H21V11.5C21 11.2239 21.2239 11 21.5 11C21.7761 11 22 11.2239 22 11.5V16C22 16.5523 21.5523 17 21 17H3C2.44772 17 2 16.5523 2 16V7C2 6.44771 2.44772 6 3 6H7.95969L6.75969 4.5H5C4.72386 4.5 4.5 4.27614 4.5 4C4.5 3.72386 4.72386 3.5 5 3.5H6.99538H7.00398H9C9.27614 3.5 9.5 3.72386 9.5 4C9.5 4.27614 9.27614 4.5 9 4.5ZM16 7.5V9H14V7H15.5C15.7761 7 16 7.22385 16 7.5ZM11 7H13V9H11.5C11.2239 9 11 8.77614 11 8.5V7ZM21 15H3V16H21V15ZM2 18.5C2 18.2239 2.22386 18 2.5 18H19.5C19.7761 18 20 18.2239 20 18.5C20 18.7761 19.7761 19 19.5 19H2.5C2.22386 19 2 18.7761 2 18.5ZM4.5 12.5C4.5 12.2239 4.72386 12 5 12H6.5C6.77614 12 7 12.2239 7 12.5C7 12.7761 6.77614 13 6.5 13H5C4.72386 13 4.5 12.7761 4.5 12.5ZM5 10.5C4.72386 10.5 4.5 10.7239 4.5 11C4.5 11.2761 4.72386 11.5 5 11.5H6.5C6.77614 11.5 7 11.2761 7 11C7 10.7239 6.77614 10.5 6.5 10.5H5ZM4.5 9.5C4.5 9.22385 4.72386 9 5 9H6.5C6.77614 9 7 9.22385 7 9.5C7 9.77614 6.77614 10 6.5 10H5C4.72386 10 4.5 9.77614 4.5 9.5Z" fill="#2B2B2C"/>
</svg>
