<svg width="18" height="18" viewBox="0 0 18 18" fill="none" xmlns="http://www.w3.org/2000/svg">
<path fill-rule="evenodd" clip-rule="evenodd" d="M14.6125 2.55542H3.26954C2.88104 2.55542 2.56604 2.87042 2.56604 3.25892V14.6019C2.56604 14.9904 2.88104 15.3054 3.26954 15.3054H9.37679V10.3682H7.71479V8.44442H9.37679V7.02467C9.37679 5.37842 10.3818 4.48067 11.851 4.48067C12.5553 4.48067 13.1598 4.53392 13.336 4.55717V6.27842H12.3168C11.518 6.27842 11.3635 6.65867 11.3635 7.21517V8.44442H13.2685L13.021 10.3682H11.3635V15.3054H14.6125C15.001 15.3054 15.316 14.9904 15.316 14.6019V3.25892C15.316 2.87042 15.001 2.55542 14.6125 2.55542Z" fill="#2B2B2C"/>
</svg>
