<svg width="30" height="30" viewBox="0 0 30 30" fill="none" xmlns="http://www.w3.org/2000/svg">
<path fill-rule="evenodd" clip-rule="evenodd" d="M24.3542 4.25897H5.44925C4.80175 4.25897 4.27675 4.78397 4.27675 5.43147V24.3365C4.27675 24.984 4.80175 25.509 5.44925 25.509H15.628V17.2802H12.858V14.074H15.628V11.7077C15.628 8.96397 17.303 7.46772 19.7517 7.46772C20.9255 7.46772 21.933 7.55647 22.2267 7.59522V10.464H20.528C19.1967 10.464 18.9392 11.0977 18.9392 12.0252V14.074H22.1142L21.7017 17.2802H18.9392V25.509H24.3542C25.0017 25.509 25.5267 24.984 25.5267 24.3365V5.43147C25.5267 4.78397 25.0017 4.25897 24.3542 4.25897Z" fill="#2B2B2C"/>
</svg>
