<svg width="30" height="30" viewBox="0 0 30 30" fill="none" xmlns="http://www.w3.org/2000/svg">
<path fill-rule="evenodd" clip-rule="evenodd" d="M18.2659 22.7241C20.7284 22.7241 22.7246 20.7291 22.7246 18.2654V11.7341C22.7246 9.27162 20.7284 7.27537 18.2659 7.27537H11.7346C9.27212 7.27537 7.27587 9.27162 7.27587 11.7341V18.2654C7.27587 20.7291 9.27212 22.7241 11.7346 22.7241H18.2659ZM6.87462 4.37537H23.1246C24.5059 4.37537 25.6246 5.49412 25.6246 6.87537V23.1254C25.6246 24.5054 24.5059 25.6254 23.1246 25.6254H6.87462C5.49462 25.6254 4.37462 24.5054 4.37462 23.1254V6.87537C4.37462 5.49412 5.49462 4.37537 6.87462 4.37537ZM19.1425 11.8115C18.6262 11.8115 18.2087 11.3927 18.2087 10.8777C18.2087 10.3615 18.6262 9.94399 19.1425 9.94399C19.6587 9.94399 20.0762 10.3615 20.0762 10.8777C20.0762 11.3927 19.6587 11.8115 19.1425 11.8115ZM15 19.0465C12.7862 19.0465 10.9912 17.2527 10.9912 15.0377C10.9912 12.8252 12.7862 11.0302 15 11.0302C17.2137 11.0302 19.0087 12.8252 19.0087 15.0377C19.0087 17.2527 17.2137 19.0465 15 19.0465ZM18.3425 8.73649H11.6587C10.0237 8.73649 8.69874 10.0615 8.69874 11.6965V18.3802C8.69874 20.014 10.0237 21.3402 11.6587 21.3402H18.3425C19.9762 21.3402 21.3025 20.014 21.3025 18.3802V11.6965C21.3025 10.0615 19.9762 8.73649 18.3425 8.73649ZM15 12.4401C13.565 12.4401 12.4012 13.6039 12.4012 15.0376C12.4012 16.4739 13.565 17.6364 15 17.6364C16.435 17.6364 17.5987 16.4739 17.5987 15.0376C17.5987 13.6039 16.435 12.4401 15 12.4401Z" fill="#2B2B2C"/>
</svg>
