<svg width="30" height="30" viewBox="0 0 30 30" fill="none" xmlns="http://www.w3.org/2000/svg">
<path fill-rule="evenodd" clip-rule="evenodd" d="M6.87 4.38C5.48928 4.38 4.37 5.49929 4.37 6.88V23.13C4.37 24.5107 5.48928 25.63 6.87 25.63H23.12C24.5007 25.63 25.62 24.5107 25.62 23.13V6.88C25.62 5.49929 24.5007 4.38 23.12 4.38H6.87ZM10.8277 12.5966V22.1634H7.64779V12.5966H10.8277ZM11.0372 9.63796C11.0372 10.5561 10.3471 11.2907 9.23838 11.2907L9.21756 11.2906C8.15037 11.2906 7.46038 10.556 7.46038 9.63787C7.46038 8.69903 8.17119 7.9849 9.25946 7.9849C10.347 7.9849 11.0165 8.69895 11.0372 9.63796ZM15.7674 22.1634H12.5878C12.5878 22.1634 12.6294 13.4944 12.5879 12.5969H15.7677V13.9511C16.1904 13.2993 16.9469 12.3723 18.6335 12.3723C20.7256 12.3723 22.2941 13.7397 22.2941 16.6781V22.1634H19.1145V17.046C19.1145 15.7598 18.6541 14.8826 17.5038 14.8826C16.6251 14.8826 16.1019 15.4742 15.8721 16.0457C15.7882 16.2496 15.7674 16.5359 15.7674 16.8215V22.1634Z" fill="#2B2B2C"/>
</svg>
