<svg width="24" height="24" viewBox="0 0 24 24" fill="none" xmlns="http://www.w3.org/2000/svg">
<path fill-rule="evenodd" clip-rule="evenodd" d="M5.99597 3.50403C4.61526 3.50403 3.49597 4.62332 3.49597 6.00403V18.004C3.49597 19.3847 4.61526 20.504 5.99597 20.504H17.996C19.3767 20.504 20.496 19.3847 20.496 18.004V6.00403C20.496 4.62332 19.3767 3.50403 17.996 3.50403H5.99597ZM8.66213 10.0773V17.7308H6.11821V10.0773H8.66213ZM8.82974 7.71039C8.82974 8.44487 8.27762 9.03257 7.39068 9.03257L7.37402 9.0325C6.52027 9.0325 5.96828 8.44481 5.96828 7.71032C5.96828 6.95925 6.53693 6.38794 7.40754 6.38794C8.27755 6.38794 8.81315 6.95918 8.82974 7.71039ZM12.6139 17.7308H10.0702C10.0702 17.7308 10.1035 10.7955 10.0703 10.0776H12.6141V11.1609C12.9523 10.6395 13.5575 9.89786 14.9068 9.89786C16.5804 9.89786 17.8352 10.9918 17.8352 13.3425V17.7308H15.2916V13.6368C15.2916 12.6079 14.9233 11.9061 14.003 11.9061C13.3001 11.9061 12.8815 12.3794 12.6977 12.8366C12.6305 12.9997 12.6139 13.2288 12.6139 13.4572V17.7308Z" fill="#2B2B2C"/>
</svg>
