<svg width="24" height="24" viewBox="0 0 24 24" fill="none" xmlns="http://www.w3.org/2000/svg">
<path fill-rule="evenodd" clip-rule="evenodd" d="M10.0278 16.3184C14.0358 16.3184 16.2288 12.9944 16.2288 10.1174C16.2288 10.0234 16.2288 9.93043 16.2248 9.83743C16.6498 9.53043 17.0188 9.14343 17.3128 8.70643C16.9218 8.88143 16.5008 8.99543 16.0588 9.05043C16.5088 8.78343 16.8538 8.35343 17.0188 7.84343C16.5988 8.09443 16.1308 8.27243 15.6338 8.37043C15.2348 7.94543 14.6688 7.68143 14.0448 7.68143C12.8408 7.68143 11.8638 8.65943 11.8638 9.86243C11.8638 10.0324 11.8848 10.1984 11.9198 10.3594C10.1088 10.2704 8.50282 9.39943 7.42682 8.08143C7.23982 8.40443 7.13382 8.77843 7.13382 9.17743C7.13382 9.93443 7.52082 10.6014 8.10282 10.9934C7.74582 10.9804 7.40982 10.8814 7.11682 10.7204V10.7514C7.11682 11.8044 7.86882 12.6884 8.86282 12.8884C8.68082 12.9394 8.48882 12.9644 8.28982 12.9644C8.14982 12.9644 8.01382 12.9524 7.88182 12.9264C8.15782 13.7944 8.96582 14.4224 9.91782 14.4394C9.16982 15.0264 8.23082 15.3744 7.21082 15.3744C7.03582 15.3744 6.86182 15.3664 6.69182 15.3444C7.65282 15.9574 8.79982 16.3184 10.0278 16.3184ZM18.3748 20.5004H5.62482C4.45182 20.5004 3.49982 19.5474 3.49982 18.3754V5.62543C3.49982 4.45243 4.45182 3.50043 5.62482 3.50043H18.3748C19.5478 3.50043 20.4998 4.45243 20.4998 5.62543V18.3754C20.4998 19.5474 19.5478 20.5004 18.3748 20.5004Z" fill="#2B2B2C"/>
</svg>
