<svg width="30" height="30" viewBox="0 0 30 30" fill="none" xmlns="http://www.w3.org/2000/svg">
<path fill-rule="evenodd" clip-rule="evenodd" d="M12.5348 20.398C17.5448 20.398 20.286 16.243 20.286 12.6467C20.286 12.5292 20.286 12.413 20.281 12.2967C20.8123 11.913 21.2735 11.4292 21.641 10.883C21.1523 11.1017 20.626 11.2442 20.0735 11.313C20.636 10.9792 21.0673 10.4417 21.2735 9.80424C20.7485 10.118 20.1635 10.3405 19.5423 10.463C19.0435 9.93174 18.336 9.60174 17.556 9.60174C16.051 9.60174 14.8298 10.8242 14.8298 12.328C14.8298 12.5405 14.856 12.748 14.8998 12.9492C12.636 12.838 10.6285 11.7492 9.28351 10.1017C9.04976 10.5055 8.91726 10.973 8.91726 11.4717C8.91726 12.418 9.40101 13.2517 10.1285 13.7417C9.68226 13.7255 9.26226 13.6017 8.89601 13.4005V13.4392C8.89601 14.7555 9.83601 15.8605 11.0785 16.1105C10.851 16.1742 10.611 16.2055 10.3623 16.2055C10.1873 16.2055 10.0173 16.1905 9.85226 16.158C10.1973 17.243 11.2073 18.028 12.3973 18.0492C11.4623 18.783 10.2885 19.218 9.01351 19.218C8.79476 19.218 8.57726 19.208 8.36476 19.1805C9.56601 19.9467 10.9998 20.398 12.5348 20.398ZM22.9685 25.6255H7.03101C5.56476 25.6255 4.37476 24.4342 4.37476 22.9692V7.03174C4.37476 5.56549 5.56476 4.37549 7.03101 4.37549H22.9685C24.4348 4.37549 25.6248 5.56549 25.6248 7.03174V22.9692C25.6248 24.4342 24.4348 25.6255 22.9685 25.6255Z" fill="#2B2B2C"/>
</svg>
