<svg width="24" height="24" viewBox="0 0 24 24" fill="none" xmlns="http://www.w3.org/2000/svg">
<path fill-rule="evenodd" clip-rule="evenodd" d="M9.75 15.3037V8.76171L15.5 12.0327L9.75 15.3037ZM22.54 6.70271C22.287 5.74971 21.542 4.99971 20.595 4.74471C18.88 4.28271 12 4.28271 12 4.28271C12 4.28271 5.121 4.28271 3.405 4.74471C2.458 4.99971 1.713 5.74971 1.46 6.70271C1 8.42972 1 12.0327 1 12.0327C1 12.0327 1 15.6357 1.46 17.3627C1.713 18.3147 2.458 19.0657 3.405 19.3197C5.121 19.7827 12 19.7827 12 19.7827C12 19.7827 18.88 19.7827 20.595 19.3197C21.542 19.0657 22.287 18.3147 22.54 17.3627C23 15.6357 23 12.0327 23 12.0327C23 12.0327 23 8.42972 22.54 6.70271Z" fill="#2B2B2C"/>
</svg>
