<svg width="18" height="18" viewBox="0 0 18 18" fill="none" xmlns="http://www.w3.org/2000/svg">
<path d="M3.5 9.00002C3.5 7.71202 4.61989 6.66669 5.99975 6.66669H8.4995V11.3334H5.99975C4.61989 11.3334 3.5 10.288 3.5 9.00002Z" fill="#AFB2B3"/>
<path d="M13.5 9.00002C13.5 10.288 12.3801 11.3334 11.0002 11.3334C9.62038 11.3334 8.50049 10.288 8.50049 9.00002C8.50049 7.71202 9.62038 6.66669 11.0002 6.66669C12.3801 6.66669 13.5 7.71202 13.5 9.00002Z" fill="#AFB2B3"/>
<path d="M5.99975 16C7.37961 16 8.4995 14.9546 8.4995 13.6666V11.3333H5.99975C4.61989 11.3333 3.5 12.3786 3.5 13.6666C3.5 14.9546 4.61989 16 5.99975 16Z" fill="#D7D8D9"/>
<path d="M5.99975 2C4.61989 2 3.5 3.04533 3.5 4.33333C3.5 5.62133 4.61989 6.66667 5.99975 6.66667H10.9993C12.3791 6.66667 13.499 5.62133 13.499 4.33333C13.499 3.04533 12.3791 2 10.9993 2H5.99975Z" fill="#888B8E"/>
</svg>
