<svg width="24" height="24" viewBox="0 0 24 24" fill="none" xmlns="http://www.w3.org/2000/svg">
<path d="M17.3988 8.90911C18.0613 8.43639 18.5549 7.76859 18.8088 7.00163C19.0627 6.23467 19.0638 5.40802 18.8119 4.64042C18.56 3.87281 18.0681 3.20376 17.4069 2.72935C16.7456 2.25495 15.949 1.9996 15.1316 2H8.86842C8.05095 1.9996 7.25439 2.25495 6.59315 2.72935C5.9319 3.20376 5.44001 3.87281 5.18813 4.64042C4.93624 5.40802 4.93732 6.23467 5.19122 7.00163C5.44511 7.76859 5.93875 8.43639 6.60123 8.90911C6.10553 9.26245 5.70189 9.7269 5.42352 10.2643C5.14515 10.8016 5 11.3965 5 12C5 12.6035 5.14517 13.1984 5.42354 13.7358C5.70192 14.2731 6.10556 14.7376 6.60127 15.0909C6.06506 15.4741 5.63748 15.9868 5.35949 16.5798C5.08149 17.1729 4.96238 17.8264 5.01356 18.4779C5.06474 19.1293 5.2845 19.7569 5.65179 20.3006C6.01908 20.8442 6.52161 21.2857 7.11127 21.5828C7.70093 21.8798 8.35797 22.0225 9.01949 21.9971C9.68102 21.9718 10.3249 21.7792 10.8894 21.4379C11.454 21.0966 11.9203 20.618 12.2438 20.0479C12.5672 19.4778 12.737 18.8353 12.7368 18.1818V14.9953C13.1406 15.3103 13.6041 15.5425 14.1 15.6784C14.5959 15.8143 15.1143 15.851 15.6248 15.7865C16.1354 15.722 16.6277 15.5576 17.0729 15.3028C17.5182 15.048 17.9074 14.7081 18.2178 14.3029C18.5282 13.8976 18.7535 13.4353 18.8805 12.943C19.0075 12.4507 19.0336 11.9384 18.9573 11.436C18.881 10.9336 18.7039 10.4513 18.4362 10.0174C18.1686 9.5835 17.8159 9.2067 17.3988 8.90911V8.90911ZM17.5263 5.81822C17.5256 6.44457 17.2733 7.04509 16.8247 7.48815C16.3762 7.9312 15.768 8.18066 15.1334 8.18183L15.1316 8.18178L15.128 8.18187L12.7368 8.18178V3.45456H15.1316C15.7665 3.45527 16.3752 3.70452 16.8241 4.14764C17.2731 4.59076 17.5256 5.19155 17.5263 5.81822V5.81822ZM6.47368 5.81822C6.4744 5.19155 6.72694 4.59076 7.17588 4.14764C7.62482 3.70452 8.23352 3.45527 8.86842 3.45456H11.2632V8.18178H8.86842L8.86667 8.18183C8.23208 8.18067 7.62384 7.93122 7.17527 7.48816C6.72671 7.0451 6.47441 6.44457 6.47368 5.81822V5.81822ZM6.47368 12C6.47441 11.3736 6.7267 10.7731 7.17527 10.3301C7.62384 9.887 8.23208 9.63755 8.86667 9.63639L8.86842 9.63643L11.2632 9.63637V14.3636L8.86842 14.3637C8.23352 14.3629 7.62482 14.1137 7.17588 13.6706C6.72694 13.2275 6.4744 12.6267 6.47368 12V12ZM8.86842 20.5454C8.55377 20.5457 8.24215 20.4848 7.95137 20.3661C7.66059 20.2475 7.39635 20.0734 7.17376 19.8539C6.95117 19.6344 6.77459 19.3737 6.65411 19.0868C6.53364 18.7999 6.47163 18.4924 6.47163 18.1818C6.47163 17.8713 6.53364 17.5637 6.65411 17.2768C6.77459 16.9899 6.95117 16.7293 7.17376 16.5098C7.39635 16.2903 7.66059 16.1162 7.95137 15.9975C8.24215 15.8789 8.55377 15.8179 8.86842 15.8182L11.2632 15.8181V18.1818C11.2624 18.8085 11.0099 19.4093 10.5609 19.8524C10.112 20.2955 9.50332 20.5447 8.86842 20.5454V20.5454ZM15.1316 14.3637C14.4969 14.3635 13.8882 14.1146 13.4393 13.6718C12.9904 13.2289 12.738 12.6283 12.7375 12.0018C12.737 11.3753 12.9885 10.7743 13.4368 10.3308C13.885 9.88726 14.4933 9.63752 15.128 9.63643H15.1316L15.1333 9.63639C15.768 9.63725 16.3764 9.88677 16.8248 10.3301C17.2732 10.7735 17.525 11.3744 17.5247 12.0009C17.5245 12.6273 17.2723 13.2281 16.8236 13.6711C16.3749 14.1142 15.7663 14.3633 15.1316 14.3637V14.3637Z" fill="#2B2B2C"/>
</svg>
