<svg width="24" height="24" viewBox="0 0 24 24" fill="none" xmlns="http://www.w3.org/2000/svg">
<path d="M4.5 12C4.5 10.16 6.06784 8.66669 7.99965 8.66669H11.4993V15.3334H7.99965C6.06784 15.3334 4.5 13.84 4.5 12Z" fill="#AFB2B3"/>
<path d="M18.5 12C18.5 13.84 16.9322 15.3334 15.0004 15.3334C13.0685 15.3334 11.5007 13.84 11.5007 12C11.5007 10.16 13.0685 8.66669 15.0004 8.66669C16.9322 8.66669 18.5 10.16 18.5 12Z" fill="#AFB2B3"/>
<path d="M7.99965 22C9.93146 22 11.4993 20.5066 11.4993 18.6666V15.3333H7.99965C6.06784 15.3333 4.5 16.8266 4.5 18.6666C4.5 20.5066 6.06784 22 7.99965 22Z" fill="#D7D8D9"/>
<path d="M7.99965 2C6.06784 2 4.5 3.49333 4.5 5.33333C4.5 7.17333 6.06784 8.66667 7.99965 8.66667H14.9992C16.931 8.66667 18.4988 7.17333 18.4988 5.33333C18.4988 3.49333 16.931 2 14.9992 2H7.99965Z" fill="#888B8E"/>
</svg>
