<svg width="30" height="30" viewBox="0 0 30 30" fill="none" xmlns="http://www.w3.org/2000/svg">
<path d="M21.9413 10.9818C22.793 10.3673 23.4277 9.49917 23.7541 8.50212C24.0806 7.50507 24.082 6.43043 23.7581 5.43254C23.4343 4.43466 22.8018 3.56489 21.9517 2.94816C21.1015 2.33143 20.0773 1.99948 19.0263 2H10.9737C9.92265 1.99948 8.8985 2.33143 8.04833 2.94816C7.19816 3.56489 6.56573 4.43466 6.24188 5.43254C5.91803 6.43043 5.91942 7.50507 6.24585 8.50212C6.57228 9.49917 7.20696 10.3673 8.05872 10.9818C7.42139 11.4412 6.90243 12.045 6.54452 12.7435C6.18662 13.4421 5.99999 14.2155 6 15C6.00001 15.7846 6.18664 16.558 6.54456 17.2565C6.90247 17.9551 7.42144 18.5589 8.05878 19.0182C7.36936 19.5164 6.81962 20.1829 6.4622 20.9538C6.10478 21.7247 5.95164 22.5743 6.01744 23.4212C6.08324 24.2681 6.36578 25.084 6.83802 25.7908C7.31025 26.4975 7.95636 27.0714 8.71449 27.4576C9.47262 27.8437 10.3174 28.0292 11.1679 27.9963C12.0184 27.9633 12.8463 27.713 13.5721 27.2693C14.2979 26.8256 14.8975 26.2034 15.3134 25.4623C15.7293 24.7211 15.9476 23.8858 15.9474 23.0364V18.8939C16.4665 19.3034 17.0624 19.6053 17.7 19.7819C18.3376 19.9586 19.0041 20.0064 19.6605 19.9225C20.3169 19.8387 20.9499 19.6249 21.5223 19.2937C22.0948 18.9624 22.5953 18.5205 22.9944 17.9937C23.3934 17.4669 23.6831 16.8659 23.8463 16.2259C24.0096 15.586 24.0432 14.9199 23.9451 14.2668C23.847 13.6137 23.6192 12.9867 23.2751 12.4226C22.9311 11.8586 22.4776 11.3687 21.9413 10.9818V10.9818ZM22.1053 6.96368C22.1043 7.77794 21.78 8.55861 21.2032 9.13459C20.6265 9.71057 19.8445 10.0349 19.0286 10.0364L19.0263 10.0363L19.0217 10.0364L15.9474 10.0363V3.89093H19.0263C19.8426 3.89185 20.6252 4.21588 21.2024 4.79193C21.7797 5.36799 22.1043 6.14902 22.1053 6.96368V6.96368ZM7.89474 6.96368C7.89566 6.14902 8.22035 5.36799 8.79756 4.79193C9.37477 4.21588 10.1574 3.89185 10.9737 3.89093H14.0526V10.0363H10.9737L10.9714 10.0364C10.1555 10.0349 9.37351 9.71058 8.79678 9.1346C8.22005 8.55863 7.89567 7.77795 7.89474 6.96368V6.96368ZM7.89474 15C7.89567 14.1857 8.22005 13.4051 8.79678 12.8291C9.3735 12.2531 10.1555 11.9288 10.9714 11.9273L10.9737 11.9274L14.0526 11.9273V18.0726L10.9737 18.0728C10.1574 18.0718 9.37477 17.7478 8.79756 17.1717C8.22035 16.5957 7.89566 15.8147 7.89474 15V15ZM10.9737 26.1091C10.5691 26.1094 10.1685 26.0302 9.79461 25.876C9.42076 25.7217 9.08102 25.4954 8.79483 25.2101C8.50865 24.9247 8.28162 24.5858 8.12672 24.2129C7.97182 23.8399 7.89209 23.4401 7.89209 23.0364C7.89209 22.6326 7.97182 22.2329 8.12672 21.8599C8.28162 21.4869 8.50865 21.1481 8.79483 20.8627C9.08102 20.5773 9.42076 20.3511 9.79461 20.1968C10.1685 20.0425 10.5691 19.9633 10.9737 19.9637L14.0526 19.9636V23.0364C14.0517 23.851 13.727 24.632 13.1498 25.2081C12.5726 25.7841 11.79 26.1082 10.9737 26.1091V26.1091ZM19.0263 18.0728C18.2103 18.0726 17.4277 17.749 16.8505 17.1733C16.2733 16.5976 15.9488 15.8167 15.9482 15.0023C15.9476 14.1879 16.271 13.4066 16.8473 12.83C17.4236 12.2534 18.2057 11.9288 19.0217 11.9274H19.0263L19.0286 11.9273C19.8446 11.9284 20.6268 12.2528 21.2033 12.8292C21.7799 13.4055 22.1035 14.1868 22.1032 15.0012C22.1029 15.8156 21.7787 16.5965 21.2018 17.1725C20.6248 17.7484 19.8424 18.0722 19.0263 18.0728V18.0728Z" fill="#2B2B2C"/>
</svg>
