<svg width="18" height="18" viewBox="0 0 18 18" fill="none" xmlns="http://www.w3.org/2000/svg">
<path d="M4 9.00002C4 7.71202 5.11989 6.66669 6.49975 6.66669H8.9995V11.3334H6.49975C5.11989 11.3334 4 10.288 4 9.00002Z" fill="#A259FF"/>
<path d="M14 9.00002C14 10.288 12.8801 11.3334 11.5002 11.3334C10.1204 11.3334 9.00049 10.288 9.00049 9.00002C9.00049 7.71202 10.1204 6.66669 11.5002 6.66669C12.8801 6.66669 14 7.71202 14 9.00002Z" fill="#1ABCFE"/>
<path d="M6.49975 16C7.87961 16 8.9995 14.9546 8.9995 13.6666V11.3333H6.49975C5.11989 11.3333 4 12.3786 4 13.6666C4 14.9546 5.11989 16 6.49975 16Z" fill="#0ACF83"/>
<path d="M4 4.33333C4 3.04533 5.11989 2 6.49975 2H8.9995V6.66667H6.49975C5.11989 6.66667 4 5.62133 4 4.33333Z" fill="#F24E1E"/>
<path d="M8.99963 2H11.4994C12.8792 2 13.9991 3.04533 13.9991 4.33333C13.9991 5.62133 12.8792 6.66667 11.4994 6.66667H8.99963V2Z" fill="#FF7262"/>
</svg>
