<svg width="24" height="24" viewBox="0 0 24 24" fill="none" xmlns="http://www.w3.org/2000/svg">
<path d="M5 12C5 10.16 6.56784 8.66669 8.49965 8.66669H11.9993V15.3334H8.49965C6.56784 15.3334 5 13.84 5 12Z" fill="#A259FF"/>
<path d="M19 12C19 13.84 17.4322 15.3334 15.5004 15.3334C13.5685 15.3334 12.0007 13.84 12.0007 12C12.0007 10.16 13.5685 8.66669 15.5004 8.66669C17.4322 8.66669 19 10.16 19 12Z" fill="#1ABCFE"/>
<path d="M8.49965 22C10.4315 22 11.9993 20.5066 11.9993 18.6666V15.3333H8.49965C6.56784 15.3333 5 16.8266 5 18.6666C5 20.5066 6.56784 22 8.49965 22Z" fill="#0ACF83"/>
<path d="M5 5.33333C5 3.49333 6.56784 2 8.49965 2H11.9993V8.66667H8.49965C6.56784 8.66667 5 7.17333 5 5.33333Z" fill="#F24E1E"/>
<path d="M11.9995 2H15.4991C17.4309 2 18.9988 3.49333 18.9988 5.33333C18.9988 7.17333 17.4309 8.66667 15.4991 8.66667H11.9995V2Z" fill="#FF7262"/>
</svg>
