<svg width="30" height="30" viewBox="0 0 30 30" fill="none" xmlns="http://www.w3.org/2000/svg">
<path d="M6 14.75C6 12.404 8.0156 10.5 10.4991 10.5H14.9982V19H10.4991C8.0156 19 6 17.096 6 14.75Z" fill="#AFB2B3"/>
<path d="M23.9982 14.75C23.9982 17.096 21.9826 19 19.4991 19C17.0156 19 15 17.096 15 14.75C15 12.404 17.0156 10.5 19.4991 10.5C21.9826 10.5 23.9982 12.404 23.9982 14.75Z" fill="#AFB2B3"/>
<path d="M10.4991 27.5C12.9826 27.5 14.9982 25.596 14.9982 23.25V19H10.4991C8.0156 19 6 20.904 6 23.25C6 25.596 8.0156 27.5 10.4991 27.5Z" fill="#D7D8D9"/>
<path d="M10.4991 2C8.0156 2 6 3.904 6 6.25C6 8.596 8.0156 10.5 10.4991 10.5H19.4975C21.981 10.5 23.9966 8.596 23.9966 6.25C23.9966 3.904 21.981 2 19.4975 2H10.4991Z" fill="#888B8E"/>
</svg>
