<svg width="18" height="18" viewBox="0 0 18 18" fill="none" xmlns="http://www.w3.org/2000/svg">
<path d="M12.8563 6.83638C13.3295 6.50547 13.6821 6.03801 13.8634 5.50114C14.0448 4.96427 14.0455 4.38561 13.8656 3.84829C13.6857 3.31097 13.3344 2.84263 12.862 2.51055C12.3897 2.17846 11.8207 1.99972 11.2368 2H6.76316C6.17925 1.99972 5.61028 2.17846 5.13796 2.51055C4.66565 2.84263 4.3143 3.31097 4.13438 3.84829C3.95446 4.38561 3.95523 4.96427 4.13658 5.50114C4.31794 6.03801 4.67054 6.50547 5.14373 6.83638C4.78966 7.08372 4.50135 7.40883 4.30251 7.78498C4.10368 8.16112 4 8.57755 4 9.00002C4 9.42248 4.10369 9.83891 4.30253 10.2151C4.50137 10.5912 4.78969 10.9163 5.14377 11.1636C4.76075 11.4319 4.45535 11.7908 4.25678 12.2059C4.05821 12.621 3.97313 13.0785 4.00969 13.5345C4.04625 13.9905 4.20321 14.4299 4.46557 14.8104C4.72792 15.191 5.08687 15.5 5.50805 15.7079C5.92924 15.9159 6.39855 16.0157 6.87107 15.998C7.34358 15.9802 7.80348 15.8455 8.20672 15.6066C8.60997 15.3676 8.94306 15.0326 9.17411 14.6335C9.40516 14.2345 9.52643 13.7847 9.52632 13.3273V11.0967C9.81473 11.3172 10.1458 11.4798 10.5 11.5749C10.8542 11.67 11.2245 11.6957 11.5892 11.6506C11.9538 11.6054 12.3055 11.4903 12.6235 11.312C12.9416 11.1336 13.2196 10.8956 13.4413 10.612C13.663 10.3283 13.8239 10.0047 13.9146 9.66012C14.0053 9.31552 14.024 8.95687 13.9695 8.6052C13.915 8.25353 13.7885 7.91593 13.5973 7.61219C13.4061 7.30845 13.1542 7.04469 12.8563 6.83638V6.83638ZM12.9474 4.67275C12.9469 5.1112 12.7666 5.53156 12.4462 5.8417C12.1259 6.15184 11.6914 6.32646 11.2381 6.32728L11.2368 6.32725L11.2343 6.32731L9.52632 6.32725V3.01819H11.2368C11.6903 3.01869 12.1251 3.19317 12.4458 3.50335C12.7665 3.81353 12.9469 4.23409 12.9474 4.67275V4.67275ZM5.05263 4.67275C5.05314 4.23409 5.23353 3.81353 5.5542 3.50335C5.87487 3.19317 6.30966 3.01869 6.76316 3.01819H8.47368V6.32725H6.76316L6.76191 6.32728C6.30863 6.32647 5.87417 6.15185 5.55377 5.84171C5.23336 5.53157 5.05315 5.1112 5.05263 4.67275V4.67275ZM5.05263 9C5.05315 8.56155 5.23336 8.14118 5.55376 7.83104C5.87417 7.5209 6.30863 7.34628 6.76191 7.34547L6.76316 7.3455L8.47368 7.34546V10.6545L6.76316 10.6546C6.30966 10.6541 5.87487 10.4796 5.5542 10.1694C5.23353 9.85922 5.05314 9.43866 5.05263 9V9ZM6.76316 14.9818C6.53841 14.982 6.31582 14.9393 6.10812 14.8563C5.90042 14.7732 5.71168 14.6514 5.55269 14.4977C5.39369 14.3441 5.26756 14.1616 5.18151 13.9608C5.09546 13.7599 5.05116 13.5447 5.05116 13.3273C5.05116 13.1099 5.09546 12.8946 5.18151 12.6938C5.26756 12.493 5.39369 12.3105 5.55269 12.1568C5.71168 12.0032 5.90042 11.8813 6.10812 11.7983C6.31582 11.7152 6.53841 11.6726 6.76316 11.6728L8.47368 11.6727V13.3273C8.47316 13.7659 8.29278 14.1865 7.97211 14.4967C7.65143 14.8068 7.21665 14.9813 6.76316 14.9818V14.9818ZM11.2368 10.6546C10.7835 10.6544 10.3487 10.4803 10.0281 10.1702C9.70742 9.86024 9.52712 9.43978 9.52678 9.00126C9.52644 8.56273 9.7061 8.14202 10.0263 7.83155C10.3464 7.52108 10.7809 7.34626 11.2343 7.3455H11.2368L11.2381 7.34547C11.6914 7.34608 12.126 7.52074 12.4463 7.83109C12.7666 8.14145 12.9464 8.5621 12.9462 9.00062C12.9461 9.43914 12.7659 9.85967 12.4454 10.1698C12.1249 10.4799 11.6902 10.6543 11.2368 10.6546V10.6546Z" fill="#2B2B2C"/>
</svg>
