<svg width="30" height="30" viewBox="0 0 30 30" fill="none" xmlns="http://www.w3.org/2000/svg">
<path d="M17.8901 27C23.1215 25.6873 27 20.8922 27 15.1778C27 8.45217 21.6274 3 15 3C8.37258 3 3 8.45217 3 15.1778C3 20.8851 6.86888 25.6754 12.0903 26.9951C12.0944 26.2562 12.0992 25.3516 12.0992 25.1736C12.0992 25.0761 12.0975 24.9001 12.0952 24.6704C12.0909 24.2391 12.0847 23.6184 12.0847 22.9726C9.16012 23.5192 8.40352 22.2488 8.17072 21.5841C8.03977 21.2444 7.47232 20.1956 6.97762 19.9149C6.57023 19.6933 5.98823 19.1468 6.96307 19.132C7.87972 19.1172 8.53447 19.9888 8.75272 20.3433C9.80032 22.1307 11.4736 21.6284 12.1429 21.3182C12.2447 20.5501 12.5503 20.0331 12.8849 19.7377C10.295 19.4422 7.58872 18.423 7.58872 13.9029C7.58872 12.6177 8.03977 11.5542 8.78182 10.727C8.66542 10.4315 8.25802 9.22027 8.89822 7.59539C8.89822 7.59539 9.87307 7.28519 12.0992 8.80666C13.0304 8.54077 14.0198 8.40783 15.0092 8.40783C15.9986 8.40783 16.988 8.54077 17.9192 8.80666C20.1453 7.27041 21.1202 7.59539 21.1202 7.59539C21.7604 9.22027 21.353 10.4315 21.2366 10.727C21.9786 11.5542 22.4297 12.603 22.4297 13.9029C22.4297 18.4377 19.7088 19.4422 17.119 19.7377C17.5409 20.1069 17.9047 20.816 17.9047 21.9239C17.9047 22.9759 17.8982 23.8906 17.8939 24.5022C17.8917 24.8091 17.8901 25.0404 17.8901 25.1736V27Z" fill="url(#paint0_linear_2622_3874)"/>
<defs>
<linearGradient id="paint0_linear_2622_3874" x1="15" y1="3" x2="15" y2="27" gradientUnits="userSpaceOnUse">
<stop stop-color="#3062CF"/>
<stop offset="0.5" stop-color="#132C71"/>
<stop offset="1" stop-color="#8E3496"/>
</linearGradient>
</defs>
</svg>
