<svg width="18" height="18" viewBox="0 0 18 18" fill="none" xmlns="http://www.w3.org/2000/svg">
<path fill-rule="evenodd" clip-rule="evenodd" d="M10.6859 16C13.7375 15.2343 16 12.4371 16 9.10369C16 5.18043 12.866 2 9 2C5.13401 2 2 5.18043 2 9.10369C2 12.433 4.25684 15.2273 7.30269 15.9971C7.30507 15.5661 7.30786 15.0384 7.30786 14.9346C7.30786 14.8777 7.30684 14.7751 7.3055 14.6412L7.3055 14.6411L7.3055 14.6409C7.30299 14.3893 7.29938 14.0274 7.29938 13.6507C5.59339 13.9695 5.15204 13.2285 5.01624 12.8407C4.93986 12.6425 4.60884 12.0308 4.32027 11.867C4.08262 11.7378 3.74312 11.419 4.31178 11.4103C4.84649 11.4017 5.22843 11.9101 5.35574 12.1169C5.96684 13.1595 6.9429 12.8666 7.33333 12.6856C7.39274 12.2376 7.57098 11.936 7.76619 11.7636C6.25541 11.5913 4.67674 10.9967 4.67674 8.36001C4.67674 7.61035 4.93986 6.98994 5.37272 6.5074C5.30482 6.33507 5.06717 5.62849 5.44062 4.68065C5.44062 4.68065 6.00928 4.49969 7.30786 5.38722C7.85106 5.23212 8.42821 5.15457 9.00536 5.15457C9.58251 5.15457 10.1597 5.23212 10.7029 5.38722C12.0014 4.49108 12.5701 4.68065 12.5701 4.68065C12.9436 5.62849 12.7059 6.33507 12.638 6.5074C13.0709 6.98994 13.334 7.60173 13.334 8.36001C13.334 11.0054 11.7468 11.5913 10.236 11.7636C10.4822 11.9791 10.6944 12.3927 10.6944 13.0389C10.6944 13.6526 10.6906 14.1862 10.6881 14.543L10.6881 14.5434C10.6868 14.7224 10.6859 14.8569 10.6859 14.9346V16Z" fill="url(#paint0_linear_2622_3882)"/>
<defs>
<linearGradient id="paint0_linear_2622_3882" x1="9" y1="2" x2="9" y2="16" gradientUnits="userSpaceOnUse">
<stop stop-color="#3062CF"/>
<stop offset="0.5" stop-color="#132C71"/>
<stop offset="1" stop-color="#8E3496"/>
</linearGradient>
</defs>
</svg>
