<svg width="18" height="18" viewBox="0 0 18 18" fill="none" xmlns="http://www.w3.org/2000/svg">
<path fill-rule="evenodd" clip-rule="evenodd" d="M16 9C16 12.866 12.866 16 9 16C5.13401 16 2 12.866 2 9C2 5.13401 5.13401 2 9 2C12.866 2 16 5.13401 16 9ZM7.30662 14.8879C7.30737 14.8382 7.30787 14.789 7.30787 14.7458C7.30787 14.6898 7.30685 14.5887 7.30551 14.4568C7.303 14.2089 7.29938 13.8518 7.29938 13.4806C5.5934 13.7948 5.15205 13.0646 5.01625 12.6825C4.93986 12.4872 4.60885 11.8843 4.32028 11.723C4.08263 11.5956 3.74313 11.2815 4.31179 11.273C4.8465 11.2645 5.22844 11.7655 5.35575 11.9692C5.96685 12.9966 6.94291 12.708 7.33333 12.5296C7.39275 12.0881 7.57098 11.7909 7.76619 11.6211C6.25542 11.4513 4.67675 10.8654 4.67675 8.26716C4.67675 7.52845 4.93986 6.9171 5.37272 6.4416C5.30482 6.27178 5.06718 5.57552 5.44062 4.64151C5.44062 4.64151 6.00929 4.4632 7.30787 5.33777C7.85107 5.18493 8.42822 5.10851 9.00537 5.10851C9.58252 5.10851 10.1597 5.18493 10.7029 5.33777C12.0015 4.45471 12.5701 4.64151 12.5701 4.64151C12.9436 5.57552 12.7059 6.27178 12.638 6.4416C13.0709 6.9171 13.334 7.51996 13.334 8.26716C13.334 10.8739 11.7468 11.4513 10.2361 11.6211C10.4822 11.8334 10.6944 12.241 10.6944 12.8778C10.6944 13.4825 10.6906 14.0083 10.6881 14.3599C10.6868 14.5363 10.6859 14.6692 10.6859 14.7458V14.8901C13.2488 14.1578 15.125 11.798 15.125 9C15.125 5.61726 12.3827 2.875 9 2.875C5.61726 2.875 2.875 5.61726 2.875 9C2.875 11.7953 4.74752 14.1532 7.30662 14.8879Z" fill="#2B2B2C"/>
</svg>
