<svg width="30" height="30" viewBox="0 0 30 30" fill="none" xmlns="http://www.w3.org/2000/svg">
<path fill-rule="evenodd" clip-rule="evenodd" d="M27 15C27 21.6274 21.6274 27 15 27C8.37258 27 3 21.6274 3 15C3 8.37258 8.37258 3 15 3C21.6274 3 27 8.37258 27 15ZM12.0971 25.0936C12.0984 25.0083 12.0992 24.924 12.0992 24.8499C12.0992 24.7539 12.0975 24.5806 12.0952 24.3545C12.0909 23.9295 12.0847 23.3174 12.0847 22.6811C9.16011 23.2197 8.40351 21.9678 8.17071 21.3128C8.03976 20.978 7.47232 19.9446 6.97762 19.668C6.57022 19.4497 5.98822 18.9111 6.96307 18.8965C7.87972 18.882 8.53446 19.7408 8.75271 20.0901C9.80031 21.8514 11.4736 21.3565 12.1429 21.0508C12.2447 20.2939 12.5503 19.7844 12.8849 19.4933C10.295 19.2022 7.58872 18.1978 7.58872 13.7437C7.58872 12.4773 8.03976 11.4293 8.78181 10.6142C8.66541 10.3231 8.25801 9.12946 8.89821 7.5283C8.89821 7.5283 9.87306 7.22263 12.0992 8.7219C13.0304 8.45989 14.0198 8.32888 15.0092 8.32888C15.9986 8.32888 16.988 8.45989 17.9192 8.7219C20.1453 7.20807 21.1202 7.5283 21.1202 7.5283C21.7604 9.12946 21.353 10.3231 21.2366 10.6142C21.9786 11.4293 22.4297 12.4628 22.4297 13.7437C22.4297 18.2124 19.7088 19.2022 17.1189 19.4933C17.5409 19.8572 17.9046 20.5559 17.9046 21.6476C17.9046 22.6843 17.8982 23.5856 17.8939 24.1883C17.8917 24.4907 17.8901 24.7186 17.8901 24.8499V25.0972C22.2837 23.842 25.5 19.7966 25.5 15C25.5 9.20101 20.799 4.5 15 4.5C9.20101 4.5 4.5 9.20101 4.5 15C4.5 19.7919 7.71003 23.8341 12.0971 25.0936Z" fill="#2B2B2C"/>
</svg>
