<svg width="24" height="24" viewBox="0 0 24 24" fill="none" xmlns="http://www.w3.org/2000/svg">
<path fill-rule="evenodd" clip-rule="evenodd" d="M22 12C22 17.5228 17.5228 22 12 22C6.47715 22 2 17.5228 2 12C2 6.47715 6.47715 2 12 2C17.5228 2 22 6.47715 22 12ZM9.58088 20.4113C9.58196 20.3402 9.58267 20.27 9.58267 20.2083C9.58267 20.1282 9.58121 19.9839 9.5793 19.7954C9.57572 19.4412 9.57055 18.9312 9.57055 18.4009C7.13343 18.8497 6.50293 17.8065 6.30893 17.2607C6.1998 16.9817 5.72693 16.1205 5.31468 15.89C4.97518 15.708 4.49018 15.2592 5.30256 15.2471C6.06643 15.235 6.61205 15.9506 6.79393 16.2418C7.66693 17.7095 9.0613 17.2971 9.61905 17.0423C9.70392 16.4116 9.95855 15.987 10.2374 15.7444C8.07917 15.5018 5.82393 14.6649 5.82393 10.9531C5.82393 9.89778 6.1998 9.02442 6.81818 8.34514C6.72118 8.10254 6.38168 7.10789 6.91518 5.77359C6.91518 5.77359 7.72755 5.51886 9.58267 6.76825C10.3587 6.54991 11.1832 6.44074 12.0077 6.44074C12.8322 6.44074 13.6567 6.54991 14.4327 6.76825C16.2878 5.50673 17.1002 5.77359 17.1002 5.77359C17.6337 7.10789 17.2942 8.10254 17.1972 8.34514C17.8155 9.02442 18.1914 9.88565 18.1914 10.9531C18.1914 14.677 15.924 15.5018 13.7658 15.7444C14.1174 16.0477 14.4205 16.6299 14.4205 17.5397C14.4205 18.4036 14.4152 19.1547 14.4116 19.6569C14.4098 19.9089 14.4084 20.0989 14.4084 20.2083V20.4144C18.0698 19.3684 20.75 15.9972 20.75 12C20.75 7.16751 16.8325 3.25 12 3.25C7.16751 3.25 3.25 7.16751 3.25 12C3.25 15.9933 5.92503 19.3618 9.58088 20.4113Z" fill="#2B2B2C"/>
</svg>
