<svg width="24" height="24" viewBox="0 0 24 24" fill="none" xmlns="http://www.w3.org/2000/svg">
<path d="M14.4084 22C18.7679 20.9061 22 16.9102 22 12.1481C22 6.54347 17.5228 2 12 2C6.47715 2 2 6.54347 2 12.1481C2 16.9042 5.22407 20.8961 9.57528 21.9959C9.57868 21.3801 9.58267 20.6263 9.58267 20.478C9.58267 20.3968 9.58121 20.2501 9.5793 20.0588C9.57571 19.6993 9.57055 19.182 9.57055 18.6439C7.13343 19.0993 6.50293 18.0407 6.30893 17.4868C6.1998 17.2036 5.72693 16.3296 5.31468 16.0958C4.97518 15.9111 4.49018 15.4557 5.30256 15.4433C6.06643 15.431 6.61205 16.1573 6.79393 16.4527C7.66693 17.9422 9.0613 17.5237 9.61905 17.2652C9.70392 16.6251 9.95855 16.1942 10.2374 15.948C8.07917 15.7018 5.82393 14.8525 5.82393 11.0857C5.82393 10.0148 6.1998 9.12848 6.81818 8.43914C6.72118 8.19295 6.38168 7.18355 6.91518 5.82949C6.91518 5.82949 7.72755 5.57099 9.58267 6.83888C10.3587 6.61731 11.1832 6.50652 12.0077 6.50652C12.8322 6.50652 13.6567 6.61731 14.4327 6.83888C16.2878 5.55868 17.1002 5.82949 17.1002 5.82949C17.6337 7.18355 17.2942 8.19295 17.1972 8.43914C17.8155 9.12848 18.1914 10.0025 18.1914 11.0857C18.1914 14.8648 15.924 15.7018 13.7658 15.948C14.1174 16.2558 14.4205 16.8467 14.4205 17.7699C14.4205 18.6466 14.4152 19.4088 14.4116 19.9185C14.4098 20.1745 14.4084 20.3669 14.4084 20.478V22Z" fill="#2B2B2C"/>
</svg>
