<svg width="24" height="24" viewBox="0 0 24 24" fill="none" xmlns="http://www.w3.org/2000/svg">
<path fill-rule="evenodd" clip-rule="evenodd" d="M14.6127 18.1793C16.5827 18.1793 18.1797 16.5833 18.1797 14.6123V9.38731C18.1797 7.4173 16.5827 5.82031 14.6127 5.82031H9.38769C7.41769 5.82031 5.82069 7.4173 5.82069 9.38731V14.6123C5.82069 16.5833 7.41769 18.1793 9.38769 18.1793H14.6127ZM5.49969 3.50031H18.4997C19.6047 3.50031 20.4997 4.39531 20.4997 5.50031V18.5003C20.4997 19.6043 19.6047 20.5003 18.4997 20.5003H5.49969C4.39569 20.5003 3.49969 19.6043 3.49969 18.5003V5.50031C3.49969 4.39531 4.39569 3.50031 5.49969 3.50031ZM15.314 9.44921C14.901 9.44921 14.567 9.11421 14.567 8.70221C14.567 8.28921 14.901 7.9552 15.314 7.9552C15.727 7.9552 16.061 8.28921 16.061 8.70221C16.061 9.11421 15.727 9.44921 15.314 9.44921ZM12 15.2372C10.229 15.2372 8.79299 13.8022 8.79299 12.0302C8.79299 10.2602 10.229 8.82421 12 8.82421C13.771 8.82421 15.207 10.2602 15.207 12.0302C15.207 13.8022 13.771 15.2372 12 15.2372ZM14.674 6.98921H9.32699C8.01899 6.98921 6.95899 8.04921 6.95899 9.35721V14.7042C6.95899 16.0112 8.01899 17.0722 9.32699 17.0722H14.674C15.981 17.0722 17.042 16.0112 17.042 14.7042V9.35721C17.042 8.04921 15.981 6.98921 14.674 6.98921ZM12 9.95211C10.852 9.95211 9.92099 10.8831 9.92099 12.0301C9.92099 13.1791 10.852 14.1091 12 14.1091C13.148 14.1091 14.079 13.1791 14.079 12.0301C14.079 10.8831 13.148 9.95211 12 9.95211Z" fill="#2B2B2C"/>
</svg>
