<svg width="18" height="18" viewBox="0 0 18 18" fill="none" xmlns="http://www.w3.org/2000/svg">
<path fill-rule="evenodd" clip-rule="evenodd" d="M10.9595 13.6345C12.437 13.6345 13.6348 12.4375 13.6348 10.9592V7.04049C13.6348 5.56299 12.437 4.36524 10.9595 4.36524H7.04076C5.56326 4.36524 4.36551 5.56299 4.36551 7.04049V10.9592C4.36551 12.4375 5.56326 13.6345 7.04076 13.6345H10.9595ZM4.12476 2.62524H13.8748C14.7035 2.62524 15.3748 3.29649 15.3748 4.12524V13.8752C15.3748 14.7032 14.7035 15.3752 13.8748 15.3752H4.12476C3.29676 15.3752 2.62476 14.7032 2.62476 13.8752V4.12524C2.62476 3.29649 3.29676 2.62524 4.12476 2.62524ZM11.4855 7.08692C11.1757 7.08692 10.9252 6.83567 10.9252 6.52667C10.9252 6.21692 11.1757 5.96642 11.4855 5.96642C11.7952 5.96642 12.0457 6.21692 12.0457 6.52667C12.0457 6.83567 11.7952 7.08692 11.4855 7.08692ZM8.99998 11.4279C7.67173 11.4279 6.59473 10.3517 6.59473 9.02267C6.59473 7.69517 7.67173 6.61817 8.99998 6.61817C10.3282 6.61817 11.4052 7.69517 11.4052 9.02267C11.4052 10.3517 10.3282 11.4279 8.99998 11.4279ZM11.0055 5.24192H6.99523C6.01423 5.24192 5.21923 6.03692 5.21923 7.01792V11.0282C5.21923 12.0084 6.01423 12.8042 6.99523 12.8042H11.0055C11.9857 12.8042 12.7815 12.0084 12.7815 11.0282V7.01792C12.7815 6.03692 11.9857 5.24192 11.0055 5.24192ZM8.99998 7.46409C8.13898 7.46409 7.44073 8.16234 7.44073 9.02259C7.44073 9.88434 8.13898 10.5818 8.99998 10.5818C9.86098 10.5818 10.5592 9.88434 10.5592 9.02259C10.5592 8.16234 9.86098 7.46409 8.99998 7.46409Z" fill="#2B2B2C"/>
</svg>
