<svg width="24" height="24" viewBox="0 0 24 24" fill="none" xmlns="http://www.w3.org/2000/svg">
<g clip-path="url(#clip0_8582_239)">
<path d="M18.375 3.5C19.5486 3.5 20.5 4.45139 20.5 5.625V18.375C20.5 19.5486 19.5486 20.5 18.375 20.5H5.625C4.45139 20.5 3.5 19.5486 3.5 18.375V5.625C3.5 4.45139 4.45139 3.5 5.625 3.5H18.375ZM12.3555 13.499C12.3553 14.4247 11.6914 15.0205 10.8838 15.0205C10.0762 15.0205 9.35858 14.4247 9.3584 13.499C9.3584 12.4293 10.1928 11.8645 11.3057 11.9814V10.1904C11.1442 10.1634 10.9824 10.1553 10.8477 10.1553C9.02582 10.1554 7.50006 11.62 7.5 13.4355C7.5 15.3591 9.00758 16.8328 10.8564 16.833C12.481 16.833 14.205 15.6379 14.2051 13.3818V9.70508C14.923 10.424 15.7933 10.6494 16.7266 10.6494V8.99512C15.5778 8.91408 14.3028 8.1593 14.0156 6.43359H12.3555V13.499Z" fill="#2B2B2C"/>
</g>
<defs>
<clipPath id="clip0_8582_239">
<rect width="17" height="17" fill="white" transform="translate(3.5 3.5)"/>
</clipPath>
</defs>
</svg>
