<svg width="18" height="18" viewBox="0 0 18 18" fill="none" xmlns="http://www.w3.org/2000/svg">
<g clip-path="url(#clip0_8582_171)">
<path d="M13.7812 2.625C14.6615 2.625 15.375 3.33855 15.375 4.21875V13.7812C15.375 14.6615 14.6615 15.375 13.7812 15.375H4.21875C3.33855 15.375 2.625 14.6615 2.625 13.7812V4.21875C2.625 3.33855 3.33855 2.625 4.21875 2.625H13.7812ZM9.2666 10.124C9.26659 10.8183 8.76877 11.2645 8.16309 11.2646C7.5573 11.2646 7.01856 10.8184 7.01855 10.124C7.01855 9.32174 7.64484 8.89763 8.47949 8.98535V7.64355C8.35833 7.62325 8.23679 7.61621 8.13574 7.61621C6.76934 7.61631 5.625 8.71548 5.625 10.0771C5.62522 11.5197 6.75595 12.625 8.14258 12.625C9.36098 12.625 10.6533 11.7283 10.6533 10.0361V7.2793C11.1918 7.8185 11.845 7.98729 12.5449 7.9873V6.74609C11.6834 6.68531 10.7271 6.11946 10.5117 4.8252H9.2666V10.124Z" fill="#2B2B2C"/>
</g>
<defs>
<clipPath id="clip0_8582_171">
<rect width="12.75" height="12.75" fill="white" transform="translate(2.625 2.625)"/>
</clipPath>
</defs>
</svg>
