<svg width="30" height="30" viewBox="0 0 30 30" fill="none" xmlns="http://www.w3.org/2000/svg">
<g clip-path="url(#clip0_8582_244)">
<path d="M22.9688 4.375C24.4358 4.375 25.625 5.56424 25.625 7.03125V22.9688C25.625 24.4358 24.4358 25.625 22.9688 25.625H7.03125C5.56424 25.625 4.375 24.4358 4.375 22.9688V7.03125C4.375 5.56424 5.56424 4.375 7.03125 4.375H22.9688ZM15.4443 16.873C15.4443 18.0304 14.6141 18.7754 13.6045 18.7754C12.5949 18.7753 11.6973 18.0303 11.6973 16.873C11.6974 15.5362 12.741 14.8305 14.1318 14.9766V12.7383C13.93 12.7045 13.7279 12.6934 13.5596 12.6934C11.2822 12.6935 9.375 14.5255 9.375 16.7949C9.37519 19.1994 11.2601 21.042 13.5713 21.042C15.6018 21.0418 17.7557 19.5473 17.7559 16.7275V12.1318C18.6533 13.0305 19.7416 13.3115 20.9082 13.3115V11.2441C19.4723 11.1428 17.8795 10.1991 17.5205 8.04199H15.4443V16.873Z" fill="#2B2B2C"/>
</g>
<defs>
<clipPath id="clip0_8582_244">
<rect width="21.25" height="21.25" fill="white" transform="translate(4.375 4.375)"/>
</clipPath>
</defs>
</svg>
