<svg width="18" height="18" viewBox="0 0 18 18" fill="none" xmlns="http://www.w3.org/2000/svg">
<path d="M13.3633 3C14.267 3 15 3.73298 15 4.63672V13.3633C15 14.267 14.267 15 13.3633 15H4.63672C3.73298 15 3 14.267 3 13.3633V4.63672C3 3.73298 3.73298 3 4.63672 3H13.3633ZM4.57812 5.00684L7.9082 9.36816L4.75488 12.9932H6.11035L8.55664 10.1992L10.6934 12.9932H13.4219L9.94434 8.39551L12.9209 5.00684H11.5654L9.30469 7.55859L7.375 5.00684H4.57812ZM6.97949 5.77344L11.8428 12.1973H11.0908L6.17285 5.77344H6.97949Z" fill="#2B2B2C"/>
</svg>
