<svg width="24" height="24" viewBox="0 0 24 24" fill="none" xmlns="http://www.w3.org/2000/svg">
<path d="M17.8184 4C19.0232 4.0001 19.9999 4.9768 20 6.18164V17.8184C19.9999 19.0232 19.0232 19.9999 17.8184 20H6.18164C4.9768 19.9999 4.0001 19.0232 4 17.8184V6.18164C4.0001 4.9768 4.9768 4.0001 6.18164 4H17.8184ZM6.10449 6.67578L10.5439 12.4912L6.33984 17.3242H8.14746L11.4092 13.5996L14.2578 17.3242H17.8965L13.2598 11.1943L17.2285 6.67578H15.4209L12.4072 10.0791L9.83301 6.67578H6.10449ZM9.30664 7.69727L15.79 16.2637H14.7881L8.22949 7.69727H9.30664Z" fill="#2B2B2C"/>
</svg>
