<svg width="12" height="12" viewBox="0 0 12 12" fill="none" xmlns="http://www.w3.org/2000/svg">
<path fill-rule="evenodd" clip-rule="evenodd" d="M6 2C3.79086 2 2 3.79086 2 6C2 8.20914 3.79086 10 6 10C8.20914 10 10 8.20914 10 6C10 3.79086 8.20914 2 6 2ZM1 6C1 3.23858 3.23858 1 6 1C8.76142 1 11 3.23858 11 6C11 8.76142 8.76142 11 6 11C3.23858 11 1 8.76142 1 6ZM6 3.49995C6.27614 3.49995 6.5 3.72381 6.5 3.99995V5.49995H8C8.27614 5.49995 8.5 5.72381 8.5 5.99995C8.5 6.2761 8.27614 6.49995 8 6.49995H6.5V7.99995C6.5 8.2761 6.27614 8.49995 6 8.49995C5.72386 8.49995 5.5 8.2761 5.5 7.99995V6.49995H4C3.72386 6.49995 3.5 6.2761 3.5 5.99995C3.5 5.72381 3.72386 5.49995 4 5.49995H5.5V3.99995C5.5 3.72381 5.72386 3.49995 6 3.49995Z" fill="#2B2B2C"/>
</svg>
