<svg width="18" height="18" viewBox="0 0 18 18" fill="none" xmlns="http://www.w3.org/2000/svg">
<path d="M16 9C16 12.866 12.866 16 9 16C5.13401 16 2 12.866 2 9C2 5.13401 5.13401 2 9 2C12.866 2 16 5.13401 16 9Z" fill="#B2DFD7"/>
<path fill-rule="evenodd" clip-rule="evenodd" d="M2.5 9C2.5 5.41015 5.41015 2.5 9 2.5C12.5899 2.5 15.5 5.41015 15.5 9C15.5 12.5899 12.5899 15.5 9 15.5C5.41015 15.5 2.5 12.5899 2.5 9ZM9 1.5C4.85786 1.5 1.5 4.85786 1.5 9C1.5 13.1421 4.85786 16.5 9 16.5C13.1421 16.5 16.5 13.1421 16.5 9C16.5 4.85786 13.1421 1.5 9 1.5ZM7.08403 12.0254C7.51111 11.3848 8.23011 11 9.00005 11C9.76999 11 10.489 11.3848 10.9161 12.0254L11.084 12.2773C11.2372 12.5071 11.5476 12.5692 11.7774 12.416C12.0072 12.2628 12.0693 11.9524 11.9161 11.7226L11.7481 11.4707C11.1356 10.5519 10.1043 10 9.00005 10C7.89576 10 6.86453 10.5519 6.25198 11.4707L6.08403 11.7226C5.93085 11.9524 5.99294 12.2628 6.2227 12.416C6.45247 12.5692 6.7629 12.5071 6.91608 12.2773L7.08403 12.0254ZM7.65821 6.02564C7.92019 6.11297 8.06177 6.39613 7.97444 6.6581L7.81633 7.13245C7.5441 7.94914 6.77981 8.5 5.91895 8.49999L5.50008 8.49999C5.22394 8.49999 5.00008 8.27613 5.00008 7.99999C5.00009 7.72384 5.22395 7.49999 5.50009 7.49999L5.91895 7.49999C6.34939 7.5 6.73153 7.22456 6.86764 6.81622L7.02576 6.34187C7.11308 6.0799 7.39624 5.93832 7.65821 6.02564ZM10.9743 6.34186C10.8869 6.07989 10.6038 5.93831 10.3418 6.02563C10.0798 6.11296 9.93824 6.39612 10.0256 6.65809L10.1837 7.13243C10.4559 7.94912 11.2202 8.49998 12.081 8.49998L12.4999 8.49998C12.776 8.49998 12.9999 8.27612 12.9999 7.99998C12.9999 7.72383 12.776 7.49998 12.4999 7.49998H12.081C11.6506 7.49998 11.2685 7.22455 11.1324 6.8162L10.9743 6.34186Z" fill="#2B2B2C"/>
</svg>
