<svg width="60" height="60" viewBox="0 0 60 60" fill="none" xmlns="http://www.w3.org/2000/svg">
<path d="M53 30C53 42.7025 42.7025 53 30 53C17.2975 53 7 42.7025 7 30C7 17.2975 17.2975 7 30 7C42.7025 7 53 17.2975 53 30Z" fill="#B2DFD7"/>
<path fill-rule="evenodd" clip-rule="evenodd" d="M30 8C17.8497 8 8 17.8497 8 30C8 42.1503 17.8497 52 30 52C42.1503 52 52 42.1503 52 30C52 17.8497 42.1503 8 30 8ZM6 30C6 16.7452 16.7452 6 30 6C43.2548 6 54 16.7452 54 30C54 43.2548 43.2548 54 30 54C16.7452 54 6 43.2548 6 30ZM30 36C27.2187 36 24.6256 37.4047 23.1063 39.7343L22.0876 41.2963C21.7859 41.7589 21.1663 41.8893 20.7037 41.5876C20.2411 41.2859 20.1107 40.6663 20.4124 40.2037L21.431 38.6418C23.3196 35.746 26.5429 34 30 34C33.4571 34 36.6804 35.746 38.569 38.6418L39.5876 40.2037C39.8893 40.6663 39.7589 41.2859 39.2963 41.5876C38.8337 41.8893 38.2141 41.7589 37.9124 41.2963L36.8937 39.7343C35.3744 37.4047 32.7813 36 30 36ZM32.4472 39.1056L32.2361 39C30.8284 38.2962 29.1716 38.2962 27.7639 39L27.5528 39.1056C27.0588 39.3526 26.8586 39.9533 27.1056 40.4472C27.3526 40.9412 27.9532 41.1414 28.4472 40.8945L28.6584 40.7889C29.5029 40.3666 30.4971 40.3666 31.3416 40.7889L31.5528 40.8945C32.0468 41.1414 32.6474 40.9412 32.8944 40.4472C33.1414 39.9533 32.9412 39.3526 32.4472 39.1056ZM25.2425 23.0299C25.7783 23.1639 26.1041 23.7068 25.9701 24.2426L25.9328 24.3918C25.1291 27.6066 21.8715 29.5612 18.6567 28.7575L18.5075 28.7202C17.9717 28.5862 17.6459 28.0433 17.7799 27.5075C17.9138 26.9717 18.4568 26.6459 18.9926 26.7799L19.1418 26.8172C21.285 27.353 23.4567 26.0499 23.9925 23.9067L24.0298 23.7575C24.1638 23.2217 24.7067 22.896 25.2425 23.0299ZM35.9701 24.2575C35.8362 23.7217 35.2933 23.3959 34.7575 23.5299C34.2217 23.6638 33.8959 24.2067 34.0299 24.7425L34.0672 24.8918C34.8709 28.1066 38.1285 30.0612 41.3432 29.2575L41.4926 29.2201C42.0284 29.0862 42.3541 28.5433 42.2202 28.0075C42.0863 27.4717 41.5433 27.1459 41.0075 27.2799L40.8582 27.3172C38.715 27.853 36.5433 26.5499 36.0075 24.4068L35.9701 24.2575Z" fill="#2B2B2C"/>
</svg>
