<svg width="18" height="18" viewBox="0 0 18 18" fill="none" xmlns="http://www.w3.org/2000/svg">
<path d="M16 9C16 12.866 12.866 16 9 16C5.13401 16 2 12.866 2 9C2 5.13401 5.13401 2 9 2C12.866 2 16 5.13401 16 9Z" fill="#B2DFD7"/>
<path d="M12.5 9H5.5V9.1C5.5 10.9778 7.02223 12.5 8.9 12.5H9.1C10.9778 12.5 12.5 10.9778 12.5 9.1V9Z" fill="white"/>
<path fill-rule="evenodd" clip-rule="evenodd" d="M2.5 9C2.5 5.41015 5.41015 2.5 9 2.5C12.5899 2.5 15.5 5.41015 15.5 9C15.5 12.5899 12.5899 15.5 9 15.5C5.41015 15.5 2.5 12.5899 2.5 9ZM9 1.5C4.85786 1.5 1.5 4.85786 1.5 9C1.5 13.1421 4.85786 16.5 9 16.5C13.1421 16.5 16.5 13.1421 16.5 9C16.5 4.85786 13.1421 1.5 9 1.5ZM5 9V9.1C5 11.2539 6.74609 13 8.9 13H9.1C11.2539 13 13 11.2539 13 9.1V9C13 8.72386 12.7761 8.5 12.5 8.5H5.5C5.22386 8.5 5 8.72386 5 9ZM8.9 12C7.43409 12 6.22221 10.9123 6.02736 9.5H11.9726C11.7778 10.9123 10.5659 12 9.1 12H8.9ZM6.99498 6.7021C6.72161 6.42873 6.27839 6.42873 6.00503 6.7021L5.85355 6.85357C5.65829 7.04883 5.34171 7.04883 5.14645 6.85357C4.95118 6.65831 4.95118 6.34172 5.14645 6.14646L5.29792 5.99499C5.96181 5.3311 7.03819 5.3311 7.70208 5.99499L7.85355 6.14646C8.04882 6.34172 8.04882 6.65831 7.85355 6.85357C7.65829 7.04883 7.34171 7.04883 7.14645 6.85357L6.99498 6.7021ZM11.005 6.7021C11.2784 6.42873 11.7216 6.42873 11.995 6.7021L12.1464 6.85357C12.3417 7.04883 12.6583 7.04883 12.8536 6.85357C13.0488 6.65831 13.0488 6.34172 12.8536 6.14646L12.7021 5.99499C12.0382 5.3311 10.9618 5.3311 10.2979 5.99499L10.1464 6.14646C9.95118 6.34172 9.95118 6.65831 10.1464 6.85357C10.3417 7.04883 10.6583 7.04883 10.8536 6.85357L11.005 6.7021Z" fill="#2B2B2C"/>
</svg>
