<svg width="30" height="30" viewBox="0 0 30 30" fill="none" xmlns="http://www.w3.org/2000/svg">
<path fill-rule="evenodd" clip-rule="evenodd" d="M15 4C8.92487 4 4 8.92487 4 15C4 21.0751 8.92487 26 15 26C21.0751 26 26 21.0751 26 15C26 8.92487 21.0751 4 15 4ZM3 15C3 8.37258 8.37258 3 15 3C21.6274 3 27 8.37258 27 15C27 21.6274 21.6274 27 15 27C8.37258 27 3 21.6274 3 15ZM8 14.5C8 14.2239 8.22386 14 8.5 14H21.5C21.7761 14 22 14.2239 22 14.5V15.25C22 18.9779 18.9779 22 15.25 22H14.75C11.0221 22 8 18.9779 8 15.25V14.5ZM9 15V15.25C9 16.899 9.69411 18.3858 10.8061 19.4343C12.9747 16.806 17.0253 16.806 19.1939 19.4343C20.3059 18.3858 21 16.899 21 15.25V15H9ZM18.4094 20.055C16.6404 17.9324 13.3596 17.9324 11.5906 20.055C12.4972 20.6524 13.583 21 14.75 21H15.25C16.417 21 17.5028 20.6524 18.4094 20.055ZM11.9142 10.6213C11.1332 9.84026 9.86684 9.84026 9.08579 10.6213L8.85355 10.8535C8.65829 11.0488 8.34171 11.0488 8.14645 10.8535C7.95118 10.6583 7.95118 10.3417 8.14645 10.1464L8.37868 9.9142C9.55025 8.74263 11.4497 8.74263 12.6213 9.9142L12.8536 10.1464C13.0488 10.3417 13.0488 10.6583 12.8536 10.8535C12.6583 11.0488 12.3417 11.0488 12.1464 10.8535L11.9142 10.6213ZM18.0858 10.6213C18.8668 9.84026 20.1332 9.84026 20.9142 10.6213L21.1464 10.8535C21.3417 11.0488 21.6583 11.0488 21.8536 10.8535C22.0488 10.6583 22.0488 10.3417 21.8536 10.1464L21.6213 9.9142C20.4497 8.74263 18.5503 8.74263 17.3787 9.9142L17.1464 10.1464C16.9512 10.3417 16.9512 10.6583 17.1464 10.8535C17.3417 11.0488 17.6583 11.0488 17.8536 10.8535L18.0858 10.6213Z" fill="#2B2B2C"/>
</svg>
