<svg width="60" height="60" viewBox="0 0 60 60" fill="none" xmlns="http://www.w3.org/2000/svg">
<path d="M53 30C53 42.7025 42.7025 53 30 53C17.2975 53 7 42.7025 7 30C7 17.2975 17.2975 7 30 7C42.7025 7 53 17.2975 53 30Z" fill="#B2DFD7"/>
<path d="M43 29H17V30.5C17 37.4036 22.5964 43 29.5 43H30.5C37.4036 43 43 37.4036 43 30.5V29Z" fill="white"/>
<path fill-rule="evenodd" clip-rule="evenodd" d="M30 8C17.8497 8 8 17.8497 8 30C8 42.1503 17.8497 52 30 52C42.1503 52 52 42.1503 52 30C52 17.8497 42.1503 8 30 8ZM6 30C6 16.7452 16.7452 6 30 6C43.2548 6 54 16.7452 54 30C54 43.2548 43.2548 54 30 54C16.7452 54 6 43.2548 6 30ZM16 29C16 28.4477 16.4477 28 17 28H43C43.5523 28 44 28.4477 44 29V30.5C44 37.9558 37.9558 44 30.5 44H29.5C22.0442 44 16 37.9558 16 30.5V29ZM18 30V30.5C18 33.5573 19.193 36.3359 21.1389 38.3958L22.2 37.6C26.8222 34.1333 33.1778 34.1333 37.8 37.6L38.8611 38.3958C40.807 36.3359 42 33.5573 42 30.5V30H18ZM37.3337 39.7503L36.6 39.2C32.6889 36.2667 27.3111 36.2667 23.4 39.2L22.6663 39.7503C24.5768 41.164 26.9408 42 29.5 42H30.5C33.0592 42 35.4232 41.164 37.3337 39.7503ZM18.1716 21.2426C19.7337 19.6805 22.2663 19.6805 23.8284 21.2426L24.2929 21.7071C24.6834 22.0976 25.3166 22.0976 25.7071 21.7071C26.0976 21.3166 26.0976 20.6834 25.7071 20.2929L25.2426 19.8284C22.8995 17.4853 19.1005 17.4853 16.7574 19.8284L16.2929 20.2929C15.9024 20.6834 15.9024 21.3166 16.2929 21.7071C16.6834 22.0976 17.3166 22.0976 17.7071 21.7071L18.1716 21.2426ZM41.8284 21.2426C40.2663 19.6805 37.7337 19.6805 36.1716 21.2426L35.7071 21.7071C35.3166 22.0976 34.6834 22.0976 34.2929 21.7071C33.9024 21.3166 33.9024 20.6834 34.2929 20.2929L34.7574 19.8284C37.1005 17.4853 40.8995 17.4853 43.2426 19.8284L43.7071 20.2929C44.0976 20.6834 44.0976 21.3166 43.7071 21.7071C43.3166 22.0976 42.6834 22.0976 42.2929 21.7071L41.8284 21.2426Z" fill="#2B2B2C"/>
</svg>
