<svg width="18" height="18" viewBox="0 0 18 18" fill="none" xmlns="http://www.w3.org/2000/svg">
<path fill-rule="evenodd" clip-rule="evenodd" d="M10.103 1.50551C9.63237 0.623161 8.36766 0.623162 7.89708 1.50551L1.14708 14.1618C0.703006 14.9944 1.30637 16 2.25002 16H15.75C16.6937 16 17.297 14.9944 16.853 14.1618L10.103 1.50551ZM8.77943 1.9761C8.87355 1.79963 9.12649 1.79963 9.2206 1.9761L15.9706 14.6324C16.0594 14.7989 15.9387 15 15.75 15H2.25002C2.06129 15 1.94061 14.7989 2.02943 14.6324L8.77943 1.9761ZM9.50002 6.5C9.50002 6.22386 9.27616 6 9.00002 6C8.72387 6 8.50002 6.22386 8.50002 6.5V10.5C8.50002 10.7761 8.72387 11 9.00002 11C9.27616 11 9.50002 10.7761 9.50002 10.5V6.5ZM9 13C9.34518 13 9.625 12.7202 9.625 12.375C9.625 12.0298 9.34518 11.75 9 11.75C8.65482 11.75 8.375 12.0298 8.375 12.375C8.375 12.7202 8.65482 13 9 13Z" fill="#2B2B2C"/>
</svg>
