<svg width="30" height="30" viewBox="0 0 30 30" fill="none" xmlns="http://www.w3.org/2000/svg">
<path fill-rule="evenodd" clip-rule="evenodd" d="M15.4112 2.5894C15.2123 2.30353 14.7893 2.30353 14.5904 2.5894L12.6127 5.43135L9.55064 3.84082C9.24212 3.68057 8.86828 3.87629 8.8242 4.22113L8.38365 7.66724L4.93483 7.69239C4.58854 7.69492 4.34961 8.04021 4.46929 8.36518L5.67049 11.6268L2.62447 13.2657C2.3203 13.4293 2.26973 13.8448 2.52576 14.0766L5.09479 16.4029L3.15305 19.2811C2.95969 19.5677 3.10859 19.9593 3.44352 20.0451L6.78844 20.9015L6.39722 24.356C6.35817 24.7008 6.67362 24.9796 7.01099 24.8984L10.3634 24.0919L11.6091 27.3296C11.7341 27.6545 12.1445 27.7554 12.4059 27.5255L15.0008 25.2433L17.5957 27.5255C17.8571 27.7554 18.2675 27.6545 18.3925 27.3296L19.6382 24.0919L22.9906 24.8984C23.328 24.9796 23.6434 24.7008 23.6044 24.356L23.2132 20.9015L26.5581 20.0451C26.893 19.9593 27.0419 19.5677 26.8485 19.2811L24.9068 16.4029L27.4758 14.0766C27.7319 13.8448 27.6813 13.4293 27.3771 13.2657L24.3311 11.6268L25.5323 8.36518C25.652 8.04021 25.413 7.69492 25.0668 7.69239L21.6179 7.66724L21.1774 4.22113C21.1333 3.87629 20.7595 3.68057 20.451 3.84082L17.3889 5.43135L15.4112 2.5894ZM15.0008 22.085C15.8292 22.085 16.5008 21.4134 16.5008 20.585C16.5008 19.7566 15.8292 19.085 15.0008 19.085C14.1724 19.085 13.5008 19.7566 13.5008 20.585C13.5008 21.4134 14.1724 22.085 15.0008 22.085ZM13.5008 8.49964C13.353 8.49964 13.2128 8.56504 13.1178 8.67827C13.0228 8.79151 12.9827 8.94097 13.0084 9.08653L14.5084 17.5865C14.5506 17.8255 14.7582 17.9996 15.0008 17.9996C15.2434 17.9996 15.451 17.8255 15.4932 17.5865L16.9932 9.08653C17.0189 8.94097 16.9788 8.79151 16.8838 8.67827C16.7888 8.56504 16.6486 8.49964 16.5008 8.49964H13.5008Z" fill="#00685E"/>
</svg>
