<svg width="18" height="18" viewBox="0 0 18 18" fill="none" xmlns="http://www.w3.org/2000/svg">
<mask id="path-1-inside-1_784_4985" fill="white">
<path fill-rule="evenodd" clip-rule="evenodd" d="M8.58641 1.60739C8.78485 1.31576 9.21474 1.31576 9.41317 1.60739L10.8193 3.67396L13.2295 2.78985C13.5672 2.66598 13.9213 2.9285 13.9009 3.28761L13.7634 5.70828L16.2196 6.33019C16.5789 6.42118 16.7178 6.85782 16.4771 7.13966L14.888 8.99987L16.4771 10.8601C16.7178 11.1419 16.5789 11.5786 16.2196 11.6696L13.7634 12.2915L13.9009 14.7121C13.9213 15.0712 13.5672 15.3338 13.2295 15.2099L10.8193 14.3258L9.41317 16.3924C9.21474 16.684 8.78485 16.684 8.58641 16.3924L7.18024 14.3258L4.77006 15.2099C4.43237 15.3338 4.07828 15.0712 4.09868 14.7121L4.23615 12.2915L1.77996 11.6696C1.42064 11.5786 1.28177 11.1419 1.52252 10.8601L3.1116 8.99987L1.52252 7.13966C1.28177 6.85782 1.42064 6.42118 1.77997 6.33019L4.23615 5.70828L4.09868 3.28761C4.07828 2.9285 4.43237 2.66598 4.77006 2.78985L7.18024 3.67396L8.58641 1.60739ZM8.12207 5.67227C8.21704 5.56277 8.35485 5.49987 8.49979 5.49987L9.4998 5.49988C9.64474 5.49988 9.78256 5.56278 9.87752 5.67228C9.97249 5.78178 10.0153 5.9271 9.99477 6.07059L9.49476 9.57059C9.45957 9.81691 9.24861 9.99988 8.99979 9.99988C8.75096 9.99988 8.54 9.81691 8.50481 9.57059L8.00482 6.07058C7.98432 5.9271 8.0271 5.78177 8.12207 5.67227ZM8.99979 12.4999C9.55208 12.4999 9.99979 12.0522 9.99979 11.4999C9.99979 10.9476 9.55208 10.4999 8.99979 10.4999C8.44751 10.4999 7.99979 10.9476 7.99979 11.4999C7.99979 12.0522 8.44751 12.4999 8.99979 12.4999Z"/>
</mask>
<path fill-rule="evenodd" clip-rule="evenodd" d="M8.58641 1.60739C8.78485 1.31576 9.21474 1.31576 9.41317 1.60739L10.8193 3.67396L13.2295 2.78985C13.5672 2.66598 13.9213 2.9285 13.9009 3.28761L13.7634 5.70828L16.2196 6.33019C16.5789 6.42118 16.7178 6.85782 16.4771 7.13966L14.888 8.99987L16.4771 10.8601C16.7178 11.1419 16.5789 11.5786 16.2196 11.6696L13.7634 12.2915L13.9009 14.7121C13.9213 15.0712 13.5672 15.3338 13.2295 15.2099L10.8193 14.3258L9.41317 16.3924C9.21474 16.684 8.78485 16.684 8.58641 16.3924L7.18024 14.3258L4.77006 15.2099C4.43237 15.3338 4.07828 15.0712 4.09868 14.7121L4.23615 12.2915L1.77996 11.6696C1.42064 11.5786 1.28177 11.1419 1.52252 10.8601L3.1116 8.99987L1.52252 7.13966C1.28177 6.85782 1.42064 6.42118 1.77997 6.33019L4.23615 5.70828L4.09868 3.28761C4.07828 2.9285 4.43237 2.66598 4.77006 2.78985L7.18024 3.67396L8.58641 1.60739ZM8.12207 5.67227C8.21704 5.56277 8.35485 5.49987 8.49979 5.49987L9.4998 5.49988C9.64474 5.49988 9.78256 5.56278 9.87752 5.67228C9.97249 5.78178 10.0153 5.9271 9.99477 6.07059L9.49476 9.57059C9.45957 9.81691 9.24861 9.99988 8.99979 9.99988C8.75096 9.99988 8.54 9.81691 8.50481 9.57059L8.00482 6.07058C7.98432 5.9271 8.0271 5.78177 8.12207 5.67227ZM8.99979 12.4999C9.55208 12.4999 9.99979 12.0522 9.99979 11.4999C9.99979 10.9476 9.55208 10.4999 8.99979 10.4999C8.44751 10.4999 7.99979 10.9476 7.99979 11.4999C7.99979 12.0522 8.44751 12.4999 8.99979 12.4999Z" fill="#2B2B2C"/>
<path d="M9.41317 1.60739L8.58641 2.16995V2.16995L9.41317 1.60739ZM8.58641 1.60739L9.41317 2.16995V2.16995L8.58641 1.60739ZM10.8193 3.67396L9.99259 4.23652C10.2505 4.61561 10.7332 4.7707 11.1637 4.61279L10.8193 3.67396ZM13.2295 2.78985L12.8851 1.85102L12.8851 1.85102L13.2295 2.78985ZM13.9009 3.28761L14.8993 3.34431V3.34431L13.9009 3.28761ZM13.7634 5.70828L12.765 5.65158C12.7379 6.12979 13.0536 6.56011 13.518 6.67768L13.7634 5.70828ZM16.2196 6.33019L16.4651 5.36079L16.4651 5.36079L16.2196 6.33019ZM16.4771 7.13966L15.7167 6.49014L15.7167 6.49014L16.4771 7.13966ZM14.888 8.99987L14.1276 8.35035C13.8081 8.72442 13.8081 9.27533 14.1276 9.64939L14.888 8.99987ZM16.4771 10.8601L15.7167 11.5096L16.4771 10.8601ZM16.2196 11.6696L16.4651 12.639H16.4651L16.2196 11.6696ZM13.7634 12.2915L13.518 11.3221C13.0536 11.4396 12.7379 11.87 12.765 12.3482L13.7634 12.2915ZM13.9009 14.7121L14.8993 14.6554V14.6554L13.9009 14.7121ZM13.2295 15.2099L13.5739 14.2711L13.5739 14.2711L13.2295 15.2099ZM10.8193 14.3258L11.1637 13.387C10.7332 13.2291 10.2505 13.3841 9.99259 13.7632L10.8193 14.3258ZM9.41317 16.3924L8.58641 15.8298L9.41317 16.3924ZM8.58641 16.3924L9.41317 15.8298L8.58641 16.3924ZM7.18024 14.3258L8.007 13.7632C7.74905 13.3841 7.26634 13.2291 6.83586 13.387L7.18024 14.3258ZM4.77006 15.2099L4.42568 14.2711L4.42568 14.2711L4.77006 15.2099ZM4.09868 14.7121L3.10028 14.6554L4.09868 14.7121ZM4.23615 12.2915L5.23454 12.3482C5.2617 11.87 4.94594 11.4396 4.48161 11.3221L4.23615 12.2915ZM1.77996 11.6696L2.02542 10.7001H2.02542L1.77996 11.6696ZM1.52252 10.8601L0.762179 10.2106L0.762178 10.2106L1.52252 10.8601ZM3.1116 8.99987L3.87195 9.64939C4.19149 9.27533 4.19149 8.72442 3.87195 8.35035L3.1116 8.99987ZM1.52252 7.13966L0.762178 7.78918L0.762178 7.78918L1.52252 7.13966ZM1.77997 6.33019L2.02542 7.2996H2.02542L1.77997 6.33019ZM4.23615 5.70828L4.48161 6.67768C4.94594 6.56011 5.2617 6.12979 5.23454 5.65158L4.23615 5.70828ZM4.09868 3.28761L3.10028 3.34431V3.34431L4.09868 3.28761ZM4.77006 2.78985L5.11445 1.85102L5.11445 1.85102L4.77006 2.78985ZM7.18024 3.67396L6.83586 4.61279C7.26634 4.7707 7.74905 4.61561 8.007 4.23652L7.18024 3.67396ZM8.49979 5.49987L8.49979 6.49987H8.49979L8.49979 5.49987ZM8.12207 5.67227L8.87752 6.32748L8.87752 6.32748L8.12207 5.67227ZM9.4998 5.49988L9.4998 4.49988H9.4998L9.4998 5.49988ZM9.99477 6.07059L9.00482 5.92916L9.00482 5.92916L9.99477 6.07059ZM9.49476 9.57059L8.50481 9.42917V9.42917L9.49476 9.57059ZM8.99979 9.99988L8.99979 8.99988H8.99979V9.99988ZM8.50481 9.57059L7.51486 9.71201L8.50481 9.57059ZM8.00482 6.07058L8.99477 5.92916V5.92916L8.00482 6.07058ZM10.2399 1.04483C9.64462 0.16995 8.35496 0.169951 7.75966 1.04483L9.41317 2.16995C9.21474 2.46158 8.78485 2.46158 8.58641 2.16995L10.2399 1.04483ZM11.6461 3.1114L10.2399 1.04483L8.58641 2.16995L9.99259 4.23652L11.6461 3.1114ZM12.8851 1.85102L10.475 2.73513L11.1637 4.61279L13.5739 3.72868L12.8851 1.85102ZM14.8993 3.34431C14.9605 2.26697 13.8982 1.4794 12.8851 1.85102L13.5739 3.72868C13.2362 3.85255 12.8821 3.59003 12.9025 3.23091L14.8993 3.34431ZM14.7618 5.76498L14.8993 3.34431L12.9025 3.23091L12.765 5.65158L14.7618 5.76498ZM16.4651 5.36079L14.0089 4.73887L13.518 6.67768L15.9742 7.2996L16.4651 5.36079ZM17.2374 7.78918C17.9597 6.94367 17.5431 5.63374 16.4651 5.36079L15.9742 7.2996C15.6148 7.20862 15.476 6.77197 15.7167 6.49014L17.2374 7.78918ZM15.6483 9.64939L17.2374 7.78918L15.7167 6.49014L14.1276 8.35035L15.6483 9.64939ZM17.2374 10.2106L15.6483 8.35035L14.1276 9.64939L15.7167 11.5096L17.2374 10.2106ZM16.4651 12.639C17.5431 12.366 17.9597 11.0561 17.2374 10.2106L15.7167 11.5096C15.476 11.2278 15.6148 10.7911 15.9742 10.7001L16.4651 12.639ZM14.0089 13.2609L16.4651 12.639L15.9742 10.7001L13.518 11.3221L14.0089 13.2609ZM14.8993 14.6554L14.7618 12.2348L12.765 12.3482L12.9025 14.7688L14.8993 14.6554ZM12.8851 16.1487C13.8982 16.5203 14.9605 15.7328 14.8993 14.6554L12.9025 14.7688C12.8821 14.4097 13.2362 14.1472 13.5739 14.2711L12.8851 16.1487ZM10.475 15.2646L12.8851 16.1487L13.5739 14.2711L11.1637 13.387L10.475 15.2646ZM10.2399 16.9549L11.6461 14.8883L9.99259 13.7632L8.58641 15.8298L10.2399 16.9549ZM7.75966 16.9549C8.35496 17.8298 9.64462 17.8298 10.2399 16.9549L8.58641 15.8298C8.78485 15.5382 9.21474 15.5382 9.41317 15.8298L7.75966 16.9549ZM6.35348 14.8883L7.75966 16.9549L9.41317 15.8298L8.007 13.7632L6.35348 14.8883ZM5.11445 16.1487L7.52463 15.2646L6.83586 13.387L4.42568 14.2711L5.11445 16.1487ZM3.10028 14.6554C3.0391 15.7328 4.10138 16.5203 5.11445 16.1487L4.42568 14.2711C4.76337 14.1472 5.11746 14.4097 5.09707 14.7688L3.10028 14.6554ZM3.23776 12.2348L3.10028 14.6554L5.09707 14.7688L5.23454 12.3482L3.23776 12.2348ZM1.53451 12.639L3.99069 13.2609L4.48161 11.3221L2.02542 10.7001L1.53451 12.639ZM0.762178 10.2106C0.0399123 11.0561 0.456518 12.366 1.53451 12.639L2.02542 10.7001C2.38475 10.7911 2.52362 11.2278 2.28287 11.5096L0.762178 10.2106ZM2.35126 8.35035L0.762179 10.2106L2.28287 11.5096L3.87195 9.64939L2.35126 8.35035ZM0.762178 7.78918L2.35126 9.64939L3.87195 8.35035L2.28287 6.49014L0.762178 7.78918ZM1.53451 5.36079C0.456524 5.63374 0.0399079 6.94367 0.762178 7.78918L2.28287 6.49014C2.52362 6.77197 2.38475 7.20862 2.02542 7.2996L1.53451 5.36079ZM3.99069 4.73887L1.53451 5.36079L2.02542 7.2996L4.48161 6.67768L3.99069 4.73887ZM3.10028 3.34431L3.23776 5.76498L5.23454 5.65158L5.09707 3.23091L3.10028 3.34431ZM5.11445 1.85102C4.10137 1.4794 3.0391 2.26697 3.10028 3.34431L5.09707 3.23091C5.11746 3.59003 4.76337 3.85255 4.42568 3.72868L5.11445 1.85102ZM7.52463 2.73513L5.11445 1.85102L4.42568 3.72868L6.83586 4.61279L7.52463 2.73513ZM7.75966 1.04483L6.35348 3.1114L8.007 4.23652L9.41317 2.16995L7.75966 1.04483ZM8.4998 4.49987C8.06496 4.49987 7.65152 4.68857 7.36661 5.01707L8.87752 6.32748C8.78255 6.43698 8.64474 6.49988 8.49979 6.49987L8.4998 4.49987ZM9.4998 4.49988L8.4998 4.49987L8.49979 6.49987L9.4998 6.49988L9.4998 4.49988ZM10.633 5.01707C10.3481 4.68858 9.93464 4.49988 9.4998 4.49988L9.49979 6.49988C9.35485 6.49988 9.21704 6.43698 9.12207 6.32748L10.633 5.01707ZM10.9847 6.21202C11.0462 5.78155 10.9179 5.34558 10.633 5.01707L9.12207 6.32748C9.0271 6.21798 8.98432 6.07265 9.00482 5.92916L10.9847 6.21202ZM10.4847 9.71201L10.9847 6.21201L9.00482 5.92916L8.50481 9.42917L10.4847 9.71201ZM8.99978 10.9999C9.74626 10.9999 10.3791 10.451 10.4847 9.71201L8.50481 9.42917C8.54 9.18284 8.75096 8.99988 8.99979 8.99988L8.99978 10.9999ZM7.51486 9.71201C7.62043 10.451 8.25331 10.9999 8.99979 10.9999V8.99988C9.24861 8.99988 9.45957 9.18285 9.49476 9.42917L7.51486 9.71201ZM7.01487 6.212L7.51486 9.71201L9.49476 9.42917L8.99477 5.92916L7.01487 6.212ZM7.36661 5.01707C7.08171 5.34557 6.95337 5.78154 7.01487 6.212L8.99477 5.92916C9.01527 6.07265 8.97249 6.21798 8.87752 6.32748L7.36661 5.01707ZM8.99979 11.4999V13.4999C10.1044 13.4999 10.9998 12.6044 10.9998 11.4999H8.99979ZM8.99979 11.4999H10.9998C10.9998 10.3953 10.1044 9.49987 8.99979 9.49987V11.4999ZM8.99979 11.4999V9.49987C7.89522 9.49987 6.99979 10.3953 6.99979 11.4999H8.99979ZM8.99979 11.4999H6.99979C6.99979 12.6044 7.89522 13.4999 8.99979 13.4999V11.4999Z" fill="#2B2B2C" mask="url(#path-1-inside-1_784_4985)"/>
</svg>
