<svg width="30" height="30" viewBox="0 0 30 30" fill="none" xmlns="http://www.w3.org/2000/svg">
<path d="M16.5 20.5859C16.5 21.4144 15.8284 22.0859 15 22.0859C14.1716 22.0859 13.5 21.4144 13.5 20.5859C13.5 19.7575 14.1716 19.0859 15 19.0859C15.8284 19.0859 16.5 19.7575 16.5 20.5859Z" fill="#2B2B2C"/>
<path fill-rule="evenodd" clip-rule="evenodd" d="M17.8491 6.31926C17.4031 6.55093 16.8544 6.41557 16.5673 6.00303L15.0001 3.75085L13.4328 6.00303C13.1457 6.41557 12.5971 6.55093 12.151 6.31926L9.72457 5.05889L9.37485 7.79453C9.31139 8.29097 8.89069 8.66405 8.39022 8.6677L5.65281 8.68767L6.60815 11.2817C6.78028 11.7491 6.5822 12.2719 6.14357 12.5079L3.72123 13.8112L5.76529 15.6622C6.13405 15.9961 6.20127 16.5503 5.92304 16.9627L4.37803 19.2528L7.03574 19.9333C7.51932 20.0571 7.83753 20.5185 7.78135 21.0145L7.47047 23.7597L10.1288 23.1202C10.6166 23.0028 11.1159 23.2651 11.296 23.7334L12.2839 26.301L14.3396 24.4929C14.7173 24.1608 15.2828 24.1608 15.6605 24.4929L17.7163 26.301L18.7041 23.7334C18.8843 23.2651 19.3835 23.0028 19.8713 23.1202L22.5297 23.7597L22.2188 21.0145C22.1626 20.5185 22.4808 20.0571 22.9644 19.9333L25.6221 19.2528L24.0771 16.9627C23.7989 16.5503 23.8661 15.9961 24.2348 15.6622L26.2789 13.8112L23.8566 12.5079C23.4179 12.2719 23.2198 11.7491 23.392 11.2817L24.3473 8.68767L21.6099 8.6677C21.1094 8.66405 20.6887 8.29097 20.6253 7.79453L20.2756 5.05889L17.8491 6.31926ZM21.6172 7.66772L21.1767 4.22162C21.1326 3.87678 20.7587 3.68106 20.4502 3.84131L17.3881 5.43184L15.4105 2.58989C15.2115 2.30402 14.7886 2.30402 14.5897 2.58989L12.612 5.43184L9.5499 3.84131C9.24139 3.68106 8.86755 3.87678 8.82346 4.22162L8.38292 7.66772L4.9341 7.69288C4.58781 7.69541 4.34888 8.0407 4.46856 8.36566L5.66976 11.6273L2.62374 13.2661C2.31957 13.4298 2.269 13.8452 2.52503 14.0771L5.09406 16.4034L3.15231 19.2816C2.95895 19.5682 3.10786 19.9598 3.44278 20.0456L6.78771 20.902L6.39649 24.3565C6.35744 24.7013 6.67288 24.9801 7.01026 24.8989L10.3627 24.0924L11.6083 27.3301C11.7333 27.655 12.1438 27.7559 12.4052 27.526L15.0001 25.2438L17.5949 27.526C17.8563 27.7559 18.2668 27.655 18.3918 27.3301L19.6374 24.0924L22.9899 24.8989C23.3272 24.9801 23.6427 24.7013 23.6036 24.3565L23.2124 20.902L26.5573 20.0456C26.8923 19.9598 27.0412 19.5682 26.8478 19.2816L24.9061 16.4034L27.4751 14.0771C27.7311 13.8452 27.6806 13.4298 27.3764 13.2661L24.3304 11.6273L25.5316 8.36566C25.6512 8.0407 25.4123 7.69541 25.066 7.69288L21.6172 7.66772ZM13.5 8.5C13.3522 8.5 13.212 8.5654 13.117 8.67863C13.022 8.79187 12.9819 8.94133 13.0076 9.08689L14.5076 17.5869C14.5498 17.8258 14.7574 18 15 18C15.2426 18 15.4502 17.8258 15.4924 17.5869L16.9924 9.08689C17.0181 8.94133 16.9781 8.79187 16.883 8.67863C16.788 8.5654 16.6478 8.5 16.5 8.5H13.5Z" fill="#2B2B2C"/>
</svg>
