<svg width="18" height="18" viewBox="0 0 18 18" fill="none" xmlns="http://www.w3.org/2000/svg">
<path fill-rule="evenodd" clip-rule="evenodd" d="M8.58641 1.60739C8.78485 1.31576 9.21473 1.31576 9.41317 1.60739L10.8193 3.67396L13.2295 2.78985C13.5672 2.66598 13.9213 2.9285 13.9009 3.28761L13.7634 5.70828L16.2196 6.33019C16.5789 6.42118 16.7178 6.85782 16.4771 7.13966L14.888 8.99987L16.4771 10.8601C16.7178 11.1419 16.5789 11.5786 16.2196 11.6696L13.7634 12.2915L13.9009 14.7121C13.9213 15.0712 13.5672 15.3338 13.2295 15.2099L10.8193 14.3258L9.41317 16.3924C9.21473 16.684 8.78485 16.684 8.58641 16.3924L7.18024 14.3258L4.77006 15.2099C4.43237 15.3338 4.07828 15.0713 4.09867 14.7121L4.23614 12.2915L1.77996 11.6696C1.42063 11.5786 1.28176 11.1419 1.52252 10.8601L3.1116 8.99987L1.52252 7.13966C1.28176 6.85782 1.42063 6.42118 1.77996 6.33019L4.23614 5.70828L4.09867 3.28761C4.07828 2.9285 4.43237 2.66598 4.77006 2.78985L7.18024 3.67396L8.58641 1.60739ZM8.12206 5.67227C8.21703 5.56277 8.35485 5.49987 8.49979 5.49988L9.49979 5.49988C9.64474 5.49988 9.78255 5.56278 9.87752 5.67228C9.97249 5.78178 10.0153 5.9271 9.99477 6.07059L9.49476 9.57059C9.45957 9.81692 9.24861 9.99988 8.99978 9.99988C8.75096 9.99988 8.54 9.81691 8.50481 9.57059L8.00482 6.07058C7.98432 5.9271 8.02709 5.78177 8.12206 5.67227ZM8.99979 12.4999C9.55207 12.4999 9.99979 12.0522 9.99979 11.4999C9.99979 10.9476 9.55207 10.4999 8.99979 10.4999C8.4475 10.4999 7.99979 10.9476 7.99979 11.4999C7.99979 12.0522 8.4475 12.4999 8.99979 12.4999Z" fill="#00685E"/>
</svg>
