<svg width="30" height="30" viewBox="0 0 30 30" fill="none" xmlns="http://www.w3.org/2000/svg">
<path fill-rule="evenodd" clip-rule="evenodd" d="M15 26C21.0751 26 26 21.0751 26 15C26 8.92487 21.0751 4 15 4C8.92487 4 4 8.92487 4 15C4 21.0751 8.92487 26 15 26ZM15 27C21.6274 27 27 21.6274 27 15C27 8.37258 21.6274 3 15 3C8.37258 3 3 8.37258 3 15C3 21.6274 8.37258 27 15 27ZM8 16.5V11.75C8 10.7835 8.7835 10 9.75 10H20.25C21.2165 10 22 10.7835 22 11.75V16.5V18.25C22 19.2165 21.2165 20 20.25 20H9.75C8.7835 20 8 19.2165 8 18.25V16.5ZM21 17V18.25C21 18.6642 20.6642 19 20.25 19H9.75C9.33579 19 9 18.6642 9 18.25V17H21ZM21 16H9V11.75C9 11.3358 9.33579 11 9.75 11H20.25C20.6642 11 21 11.3358 21 11.75V16Z" fill="#2B2B2C"/>
</svg>
