<svg width="30" height="30" viewBox="0 0 30 30" fill="none" xmlns="http://www.w3.org/2000/svg">
<path fill-rule="evenodd" clip-rule="evenodd" d="M4.75001 7C3.78352 7 3.00001 7.7835 3.00001 8.75V13C3.00001 13.1326 3.05269 13.2598 3.14646 13.3535C3.24023 13.4473 3.36741 13.5 3.50001 13.5H3.60001C4.37321 13.5 5.00001 14.1268 5.00001 14.9L5.00001 15.1C5.00001 15.8732 4.37321 16.5 3.60001 16.5H3.50001C3.22387 16.5 3.00001 16.7238 3.00001 17L3 21.25C3 22.2165 3.7835 23 4.75 23L20.9934 23L21 23L21.0067 23L25.25 23C26.2165 23 27 22.2165 27 21.25V17C27 16.7238 26.7762 16.5 26.5 16.5H26.4C25.6268 16.5 25 15.8732 25 15.1V14.9C25 14.1268 25.6268 13.5 26.4 13.5H26.5C26.6326 13.5 26.7598 13.4473 26.8536 13.3535C26.9473 13.2598 27 13.1326 27 13V8.75C27 7.7835 26.2165 7 25.25 7H4.75001ZM21.5 22L25.25 22C25.6642 22 26 21.6642 26 21.25V17.4668C24.8649 17.2763 24 16.2892 24 15.1V14.9C24 13.7108 24.8649 12.7236 26 12.5332L26 8.75C26 8.33579 25.6642 8 25.25 8H21.5V9.00001C21.5 9.27616 21.2762 9.50001 21 9.50001C20.7239 9.50001 20.5 9.27616 20.5 9.00001V8L4.75001 8C4.3358 8 4.00001 8.33579 4.00001 8.75L4.00001 12.5332C5.1351 12.7236 6.00001 13.7108 6.00001 14.9V15.1C6.00001 16.2892 5.1351 17.2764 4.00001 17.4668L4 21.25C4 21.6642 4.33579 22 4.75 22L20.5 22V21C20.5 20.7239 20.7239 20.5 21 20.5C21.2762 20.5 21.5 20.7239 21.5 21V22ZM21 16C21.2762 16 21.5 16.2239 21.5 16.5V18C21.5 18.2762 21.2762 18.5 21 18.5C20.7239 18.5 20.5 18.2762 20.5 18V16.5C20.5 16.2239 20.7239 16 21 16ZM21.5 12C21.5 11.7239 21.2762 11.5 21 11.5C20.7239 11.5 20.5 11.7239 20.5 12V13.5C20.5 13.7762 20.7239 14 21 14C21.2762 14 21.5 13.7762 21.5 13.5V12ZM15.916 10.7774C16.0692 10.5477 16.0071 10.2372 15.7774 10.084C15.5476 9.93087 15.2372 9.99295 15.084 10.2227L9.084 19.2227C8.93082 19.4525 8.99291 19.7629 9.22267 19.9161C9.45244 20.0693 9.76287 20.0072 9.91605 19.7774L15.916 10.7774ZM10 13C10.5523 13 11 12.5523 11 12C11 11.4477 10.5523 11 10 11C9.44774 11 9.00002 11.4477 9.00002 12C9.00002 12.5523 9.44774 13 10 13ZM10 14C11.1046 14 12 13.1046 12 12C12 10.8954 11.1046 10 10 10C8.89545 10 8.00002 10.8954 8.00002 12C8.00002 13.1046 8.89545 14 10 14ZM16 18C16 18.5523 15.5523 19 15 19C14.4477 19 14 18.5523 14 18C14 17.4477 14.4477 17 15 17C15.5523 17 16 17.4477 16 18ZM17 18C17 19.1046 16.1046 20 15 20C13.8955 20 13 19.1046 13 18C13 16.8954 13.8955 16 15 16C16.1046 16 17 16.8954 17 18Z" fill="#2B2B2C"/>
</svg>
