<svg width="24" height="24" viewBox="0 0 24 24" fill="none" xmlns="http://www.w3.org/2000/svg">
<path fill-rule="evenodd" clip-rule="evenodd" d="M12 20C16.4183 20 20 16.4183 20 12C20 7.58172 16.4183 4 12 4C7.58172 4 4 7.58172 4 12C4 16.4183 7.58172 20 12 20ZM12 21C16.9706 21 21 16.9706 21 12C21 7.02944 16.9706 3 12 3C7.02944 3 3 7.02944 3 12C3 16.9706 7.02944 21 12 21Z" fill="#2B2B2C"/>
<path fill-rule="evenodd" clip-rule="evenodd" d="M12 21C16.9706 21 21 16.9706 21 12C21 7.02944 16.9706 3 12 3C7.02944 3 3 7.02944 3 12C3 16.9706 7.02944 21 12 21ZM15.3536 9.15355C15.5488 8.95829 15.5488 8.64171 15.3536 8.44645C15.1583 8.25118 14.8417 8.25118 14.6464 8.44645L8.24645 14.8464C8.05118 15.0417 8.05118 15.3583 8.24645 15.5536C8.44171 15.7488 8.75829 15.7488 8.95355 15.5536L15.3536 9.15355ZM9 11C9.55228 11 10 10.5523 10 10C10 9.44772 9.55228 9 9 9C8.44772 9 8 9.44772 8 10C8 10.5523 8.44772 11 9 11ZM9 12C10.1046 12 11 11.1046 11 10C11 8.89543 10.1046 8 9 8C7.89543 8 7 8.89543 7 10C7 11.1046 7.89543 12 9 12ZM15.6 14C15.6 14.5523 15.1523 15 14.6 15C14.0477 15 13.6 14.5523 13.6 14C13.6 13.4477 14.0477 13 14.6 13C15.1523 13 15.6 13.4477 15.6 14ZM16.6 14C16.6 15.1046 15.7046 16 14.6 16C13.4954 16 12.6 15.1046 12.6 14C12.6 12.8954 13.4954 12 14.6 12C15.7046 12 16.6 12.8954 16.6 14Z" fill="#2B2B2C"/>
</svg>
