<svg width="30" height="30" viewBox="0 0 30 30" fill="none" xmlns="http://www.w3.org/2000/svg">
<path fill-rule="evenodd" clip-rule="evenodd" d="M26 15C26 21.0751 21.0751 26 15 26C8.92487 26 4 21.0751 4 15C4 8.92487 8.92487 4 15 4C21.0751 4 26 8.92487 26 15ZM27 15C27 21.6274 21.6274 27 15 27C8.37258 27 3 21.6274 3 15C3 8.37258 8.37258 3 15 3C21.6274 3 27 8.37258 27 15ZM19.3536 10.6464C19.1583 10.4512 18.8417 10.4512 18.6464 10.6464L10.6464 18.6464C10.4512 18.8417 10.4512 19.1583 10.6464 19.3536C10.8417 19.5488 11.1583 19.5488 11.3536 19.3536L19.3536 11.3536C19.5488 11.1583 19.5488 10.8417 19.3536 10.6464ZM11.5 14C12.3284 14 13 13.3284 13 12.5C13 11.6716 12.3284 11 11.5 11C10.6716 11 10 11.6716 10 12.5C10 13.3284 10.6716 14 11.5 14ZM11.5 15C12.8807 15 14 13.8807 14 12.5C14 11.1193 12.8807 10 11.5 10C10.1193 10 9 11.1193 9 12.5C9 13.8807 10.1193 15 11.5 15ZM20 17.5C20 18.3284 19.3284 19 18.5 19C17.6716 19 17 18.3284 17 17.5C17 16.6716 17.6716 16 18.5 16C19.3284 16 20 16.6716 20 17.5ZM21 17.5C21 18.8807 19.8807 20 18.5 20C17.1193 20 16 18.8807 16 17.5C16 16.1193 17.1193 15 18.5 15C19.8807 15 21 16.1193 21 17.5Z" fill="#2B2B2C"/>
</svg>
