<svg width="24" height="24" viewBox="0 0 24 24" fill="none" xmlns="http://www.w3.org/2000/svg">
<path fill-rule="evenodd" clip-rule="evenodd" d="M10.7021 1.99499C10.0382 1.3311 8.96182 1.3311 8.29793 1.99499L5.50002 4.7929L5.85356 5.14645C6.04882 5.34171 6.04882 5.65829 5.85356 5.85355C5.6583 6.04882 5.34172 6.04882 5.14645 5.85355L4.79291 5.50001L1.99499 8.29793C1.3311 8.96182 1.3311 10.0382 1.99499 10.7021L4.2929 13L5.14645 12.1464C5.34172 11.9512 5.6583 11.9512 5.85356 12.1464C6.04882 12.3417 6.04882 12.6583 5.85356 12.8536L5 13.7071L8.2929 17L12.6465 12.6464C12.8417 12.4512 13.1583 12.4512 13.3536 12.6464L17.7071 17L20.505 14.2021C21.1689 13.5382 21.1689 12.4618 20.505 11.7979L17.7071 9L16.8536 9.85355C16.6583 10.0488 16.3417 10.0488 16.1465 9.85355C15.9512 9.65829 15.9512 9.34171 16.1465 9.14645L17 8.2929L13.7071 5L12.8536 5.85355C12.6583 6.04882 12.3417 6.04882 12.1465 5.85355C11.9512 5.65829 11.9512 5.34171 12.1465 5.14645L13 4.2929L10.7021 1.99499ZM6.14645 6.14645C6.34172 5.95118 6.6583 5.95118 6.85356 6.14645L7.85356 7.14645C8.04882 7.34171 8.04882 7.65829 7.85356 7.85355C7.6583 8.04882 7.34172 8.04882 7.14645 7.85355L6.14645 6.85355C5.95119 6.65829 5.95119 6.34171 6.14645 6.14645ZM8.85356 8.14645C8.6583 7.95118 8.34172 7.95118 8.14645 8.14645C7.95119 8.34171 7.95119 8.65829 8.14645 8.85355L8.2929 9L8.14645 9.14645C7.95119 9.34171 7.95119 9.65829 8.14645 9.85355C8.34172 10.0488 8.6583 10.0488 8.85356 9.85355L9.00001 9.70711L9.14645 9.85355C9.34172 10.0488 9.6583 10.0488 9.85356 9.85355C10.0488 9.65829 10.0488 9.34171 9.85356 9.14645L9.70711 9L9.85356 8.85355C10.0488 8.65829 10.0488 8.34171 9.85356 8.14645C9.6583 7.95118 9.34172 7.95118 9.14645 8.14645L9.00001 8.29289L8.85356 8.14645ZM10.1465 10.1464C10.3417 9.95118 10.6583 9.95118 10.8536 10.1464L11.8536 11.1464C12.0488 11.3417 12.0488 11.6583 11.8536 11.8536C11.6583 12.0488 11.3417 12.0488 11.1465 11.8536L10.1465 10.8536C9.95119 10.6583 9.95119 10.3417 10.1465 10.1464ZM11.8536 6.85355C12.0488 6.65829 12.0488 6.34171 11.8536 6.14645C11.6583 5.95118 11.3417 5.95118 11.1465 6.14645L10.1465 7.14645C9.95119 7.34171 9.95119 7.65829 10.1465 7.85355C10.3417 8.04882 10.6583 8.04882 10.8536 7.85355L11.8536 6.85355ZM7.85356 10.8536C8.04882 10.6583 8.04882 10.3417 7.85356 10.1464C7.6583 9.95118 7.34172 9.95118 7.14645 10.1464L6.14645 11.1464C5.95119 11.3417 5.95119 11.6583 6.14645 11.8536C6.34172 12.0488 6.6583 12.0488 6.85356 11.8536L7.85356 10.8536ZM15.8536 10.1464C16.0488 10.3417 16.0488 10.6583 15.8536 10.8536L14.8536 11.8536C14.6583 12.0488 14.3417 12.0488 14.1465 11.8536C13.9512 11.6583 13.9512 11.3417 14.1465 11.1464L15.1465 10.1464C15.3417 9.95118 15.6583 9.95118 15.8536 10.1464ZM12.6464 15.1464C12.8417 14.9512 13.1583 14.9512 13.3536 15.1464L16.8536 18.6464C17.0488 18.8417 17.0488 19.1583 16.8536 19.3536L14.2021 22.005C13.5382 22.6689 12.4618 22.6689 11.7979 22.005L9.14645 19.3536C9.05268 19.2598 9 19.1326 9 19C9 18.8674 9.05268 18.7402 9.14645 18.6464L12.6464 15.1464Z" fill="#2B2B2C"/>
</svg>
