<svg width="24" height="24" viewBox="0 0 24 24" fill="none" xmlns="http://www.w3.org/2000/svg">
<path fill-rule="evenodd" clip-rule="evenodd" d="M12.0002 4.49999C10.0228 4.49999 8.25608 5.26571 6.9314 6.52631H7.07919C7.63148 6.52631 8.07919 6.97402 8.07919 7.52631C8.07919 8.07859 7.63148 8.52631 7.07919 8.52631H4.02255L3.4144 5.48558C3.30609 4.94402 3.65731 4.4172 4.19886 4.30889C4.74042 4.20057 5.26725 4.55179 5.37556 5.09335L5.40185 5.22478C7.09251 3.5438 9.40045 2.49999 12.0002 2.49999C17.2469 2.49999 21.5002 6.75329 21.5002 12C21.5002 17.2467 17.2469 21.5 12.0002 21.5C6.75354 21.5 2.50024 17.2467 2.50024 12C2.50024 11.4477 2.94796 11 3.50024 11C4.05253 11 4.50024 11.4477 4.50024 12C4.50024 16.1421 7.85811 19.5 12.0002 19.5C16.1424 19.5 19.5002 16.1421 19.5002 12C19.5002 7.85786 16.1424 4.49999 12.0002 4.49999Z" fill="#2B2B2C"/>
<path fill-rule="evenodd" clip-rule="evenodd" d="M7 10C7 9.17157 7.67157 8.5 8.5 8.5H15.5C16.3284 8.5 17 9.17157 17 10V12.5H7V10ZM7 13.5V14C7 14.8284 7.67157 15.5 8.5 15.5H15.5C16.3284 15.5 17 14.8284 17 14V13.5H7Z" fill="#2B2B2C"/>
</svg>
