<svg width="18" height="18" viewBox="0 0 18 18" fill="none" xmlns="http://www.w3.org/2000/svg">
<path fill-rule="evenodd" clip-rule="evenodd" d="M4.06748 4.76667C5.26006 3.37832 7.02765 2.5 9.00012 2.5C12.59 2.5 15.5001 5.41015 15.5001 9C15.5001 12.5899 12.59 15.5 9.00012 15.5C5.41027 15.5 2.50012 12.5899 2.50012 9C2.50012 8.72386 2.27626 8.5 2.00012 8.5C1.72398 8.5 1.50012 8.72386 1.50012 9C1.50012 13.1421 4.85799 16.5 9.00012 16.5C13.1423 16.5 16.5001 13.1421 16.5001 9C16.5001 4.85786 13.1423 1.5 9.00012 1.5C6.71666 1.5 4.67187 2.52073 3.29678 4.12933L2.95048 2.80669C2.88054 2.53955 2.60728 2.37969 2.34015 2.44964C2.07301 2.51958 1.91315 2.79284 1.98309 3.05998L2.69177 5.76667H5.26679C5.54293 5.76667 5.76679 5.54281 5.76679 5.26667C5.76679 4.99052 5.54293 4.76667 5.26679 4.76667H4.06748ZM9.99859 11H9.10845L7.90845 9.10141L7.29437 9.7493V11H6.5V7H7.29437V8.79155L8.94507 7H9.90845L8.44366 8.53803L9.99859 11ZM11.0036 8.61127C11.1444 8.27887 11.3754 8.07042 11.7585 8.07042C11.9388 8.07042 12.1134 8.10423 12.2599 8.16056L12.1191 8.80282C11.9838 8.76338 11.8317 8.73521 11.6909 8.73521C11.2909 8.73521 11.0543 9.0507 11.0543 9.58592V11H10.3219V8.97183C10.3219 8.5831 10.2993 8.31268 10.2655 8.12113H10.9472C10.9754 8.22817 10.9979 8.39718 11.0036 8.61127Z" fill="#2B2B2C"/>
</svg>
