<svg width="18" height="18" viewBox="0 0 18 18" fill="none" xmlns="http://www.w3.org/2000/svg">
<path fill-rule="evenodd" clip-rule="evenodd" d="M8.99988 2.5C7.02741 2.5 5.25982 3.37832 4.06724 4.76667H5.26654C5.54269 4.76667 5.76654 4.99052 5.76654 5.26667C5.76654 5.54281 5.54269 5.76667 5.26654 5.76667H2.69153L1.98285 3.05998C1.91291 2.79284 2.07276 2.51958 2.3399 2.44964C2.60704 2.37969 2.8803 2.53955 2.95024 2.80669L3.29654 4.12933C4.67163 2.52073 6.71642 1.5 8.99988 1.5C13.142 1.5 16.4999 4.85786 16.4999 9C16.4999 13.1421 13.142 16.5 8.99988 16.5C4.85774 16.5 1.49988 13.1421 1.49988 9C1.49988 8.72386 1.72374 8.5 1.99988 8.5C2.27602 8.5 2.49988 8.72386 2.49988 9C2.49988 12.5899 5.41003 15.5 8.99988 15.5C12.5897 15.5 15.4999 12.5899 15.4999 9C15.4999 5.41015 12.5897 2.5 8.99988 2.5ZM5 7.25C5 6.55964 5.55964 6 6.25 6H11.75C12.4404 6 13 6.55964 13 7.25V9.5V10.75C13 11.4404 12.4404 12 11.75 12H6.25C5.55964 12 5 11.4404 5 10.75V9.5V7.25ZM6 10V10.75C6 10.8881 6.11193 11 6.25 11H11.75C11.8881 11 12 10.8881 12 10.75V10H6ZM12 9H6V7.25C6 7.11193 6.11193 7 6.25 7H11.75C11.8881 7 12 7.11193 12 7.25V9Z" fill="#2B2B2C"/>
</svg>
