<svg width="18" height="18" viewBox="0 0 18 18" fill="none" xmlns="http://www.w3.org/2000/svg">
<path fill-rule="evenodd" clip-rule="evenodd" d="M4.64555 4.51667C5.77163 3.42259 7.30755 2.75 9.00024 2.75C12.452 2.75 15.2502 5.54822 15.2502 9C15.2502 12.4518 12.452 15.25 9.00024 15.25C5.54846 15.25 2.75024 12.4518 2.75024 9C2.75024 8.58579 2.41446 8.25 2.00024 8.25C1.58603 8.25 1.25024 8.58579 1.25024 9C1.25024 13.2802 4.72004 16.75 9.00024 16.75C13.2805 16.75 16.7502 13.2802 16.7502 9C16.7502 4.71979 13.2805 1.25 9.00024 1.25C6.80917 1.25 4.83089 2.1596 3.42198 3.62L3.19245 2.74337C3.08754 2.34266 2.67765 2.10288 2.27695 2.20779C1.87624 2.3127 1.63645 2.72259 1.74137 3.1233L2.49892 6.01667H5.26691C5.68112 6.01667 6.01691 5.68088 6.01691 5.26667C6.01691 4.85245 5.68112 4.51667 5.26691 4.51667H4.64555ZM9.99859 11H9.10845L7.90845 9.10141L7.29437 9.7493V11H6.5V7H7.29437V8.79155L8.94507 7H9.90845L8.44366 8.53803L9.99859 11ZM11.0036 8.61127C11.1444 8.27887 11.3754 8.07042 11.7585 8.07042C11.9388 8.07042 12.1134 8.10423 12.2599 8.16056L12.1191 8.80282C11.9838 8.76338 11.8317 8.73521 11.6909 8.73521C11.2909 8.73521 11.0543 9.0507 11.0543 9.58592V11H10.3219V8.97183C10.3219 8.5831 10.2993 8.31268 10.2655 8.12113H10.9472C10.9754 8.22817 10.9979 8.39718 11.0036 8.61127Z" fill="#2B2B2C"/>
</svg>
