<svg width="18" height="18" viewBox="0 0 18 18" fill="none" xmlns="http://www.w3.org/2000/svg">
<path fill-rule="evenodd" clip-rule="evenodd" d="M9.41338 1.60751C9.21495 1.31589 8.78506 1.31589 8.58662 1.60751L7.18045 3.67408L4.77027 2.78997C4.43258 2.6661 4.07849 2.92862 4.09889 3.28774L4.23636 5.7084L1.78018 6.33032C1.42085 6.4213 1.28198 6.85795 1.52273 7.13978L3.11181 9L1.52273 10.8602C1.28198 11.142 1.42085 11.5787 1.78017 11.6697L4.23636 12.2916L4.09889 14.7123C4.07849 15.0714 4.43258 15.3339 4.77027 15.21L7.18045 14.3259L8.58662 16.3925C8.78506 16.6841 9.21495 16.6841 9.41338 16.3925L10.8196 14.3259L13.2297 15.21C13.5674 15.3339 13.9215 15.0714 13.9011 14.7123L13.7636 12.2916L16.2198 11.6697C16.5792 11.5787 16.718 11.142 16.4773 10.8602L14.8882 9L16.4773 7.13978C16.718 6.85795 16.5792 6.4213 16.2198 6.33032L13.7636 5.7084L13.9011 3.28774C13.9215 2.92862 13.5674 2.6661 13.2297 2.78997L10.8196 3.67408L9.41338 1.60751ZM10.5 10.5C10.5 10.2239 10.7239 10 11 10C11.2761 10 11.5 10.2239 11.5 10.5C11.5 10.7761 11.2761 11 11 11C10.7239 11 10.5 10.7761 10.5 10.5ZM12.5 10.5C12.5 11.3284 11.8284 12 11 12C10.1716 12 9.5 11.3284 9.5 10.5C9.5 9.67157 10.1716 9 11 9C11.8284 9 12.5 9.67157 12.5 10.5ZM6.5 7.5C6.5 7.77614 6.72386 8 7 8C7.27614 8 7.5 7.77614 7.5 7.5C7.5 7.22385 7.27614 7 7 7C6.72386 7 6.5 7.22385 6.5 7.5ZM7 9C7.82843 9 8.5 8.32842 8.5 7.5C8.5 6.67157 7.82843 6 7 6C6.17158 6 5.5 6.67157 5.5 7.5C5.5 8.32842 6.17158 9 7 9ZM11.3536 7.35355C11.5488 7.15829 11.5488 6.84171 11.3536 6.64644C11.1583 6.45118 10.8417 6.45118 10.6464 6.64644L6.64645 10.6464C6.45119 10.8417 6.45119 11.1583 6.64645 11.3535C6.84171 11.5488 7.15829 11.5488 7.35356 11.3535L11.3536 7.35355Z" fill="#325D93"/>
</svg>
