<svg width="30" height="30" viewBox="0 0 30 30" fill="none" xmlns="http://www.w3.org/2000/svg">
<path fill-rule="evenodd" clip-rule="evenodd" d="M15 26C21.0751 26 26 21.0751 26 15C26 8.92487 21.0751 4 15 4C8.92487 4 4 8.92487 4 15C4 21.0751 8.92487 26 15 26ZM15 27C21.6274 27 27 21.6274 27 15C27 8.37258 21.6274 3 15 3C8.37258 3 3 8.37258 3 15C3 21.6274 8.37258 27 15 27Z" fill="#2B2B2C"/>
<path fill-rule="evenodd" clip-rule="evenodd" d="M15 27C21.6274 27 27 21.6274 27 15C27 8.37258 21.6274 3 15 3C8.37258 3 3 8.37258 3 15C3 21.6274 8.37258 27 15 27ZM9.75 11C8.7835 11 8 11.7835 8 12.75V19.25C8 20.2165 8.7835 21 9.75 21H20.25C21.2165 21 22 20.2165 22 19.25V17.3662C22.2989 17.1933 22.5 16.8701 22.5 16.5V15.5C22.5 15.1299 22.2989 14.8067 22 14.6338V12.75C22 11.7835 21.2165 11 20.25 11H19.7071L17.3631 8.65601C16.879 8.17191 16.0784 8.22881 15.6676 8.7765L14.9459 9.7388L13.8375 8.63039C13.3697 8.16261 12.6013 8.19747 12.1778 8.70567L10.2658 11H9.75ZM11.5675 11H14.7929L13.1304 9.33749C13.0784 9.28552 12.993 9.28939 12.946 9.34586L11.5675 11ZM16.2071 11H18.2929L16.656 9.36312C16.6022 9.30933 16.5133 9.31565 16.4676 9.3765L15.6602 10.4531L16.2071 11ZM17.5 17.5H21V19.25C21 19.6642 20.6642 20 20.25 20H9.75C9.33579 20 9 19.6642 9 19.25V12.75C9 12.3358 9.33579 12 9.75 12H20.25C20.6642 12 21 12.3358 21 12.75V14.5H17.5C16.6716 14.5 16 15.1716 16 16C16 16.8284 16.6716 17.5 17.5 17.5ZM17.5 15.5C17.2239 15.5 17 15.7239 17 16C17 16.2761 17.2239 16.5 17.5 16.5H21.5V15.5H17.5Z" fill="#2B2B2C"/>
</svg>
