<svg width="24" height="24" viewBox="0 0 24 24" fill="none" xmlns="http://www.w3.org/2000/svg">
<path fill-rule="evenodd" clip-rule="evenodd" d="M4 12C4 7.58172 7.58172 4 12 4C16.4183 4 20 7.58172 20 12C20 16.4183 16.4183 20 12 20C7.58172 20 4 16.4183 4 12ZM12 3C7.02944 3 3 7.02944 3 12C3 16.9706 7.02944 21 12 21C16.9706 21 21 16.9706 21 12C21 7.02944 16.9706 3 12 3ZM12.4682 4.82444C12.395 4.62929 12.2084 4.5 12 4.5C11.7916 4.5 11.605 4.62929 11.5318 4.82444L10.0318 8.82444C9.97425 8.97799 9.99563 9.15001 10.089 9.2848C10.1824 9.41958 10.336 9.5 10.5 9.5H13.5C13.664 9.5 13.8176 9.41958 13.911 9.2848C14.0044 9.15001 14.0257 8.97799 13.9682 8.82444L12.4682 4.82444ZM12 6.424L12.7785 8.5H11.2215L12 6.424ZM10.9 11.2C10.7709 11.0278 10.5461 10.9576 10.3419 11.0257C10.1377 11.0937 10 11.2848 10 11.5V15.5C10 15.7761 10.2239 16 10.5 16C10.7761 16 11 15.7761 11 15.5V13L13.1 15.8C13.2291 15.9722 13.4539 16.0424 13.6581 15.9743C13.8623 15.9063 14 15.7152 14 15.5V11.5C14 11.2239 13.7761 11 13.5 11C13.2239 11 13 11.2239 13 11.5V14L10.9 11.2ZM5 11.5C4.72386 11.5 4.5 11.7239 4.5 12C4.5 12.2761 4.72386 12.5 5 12.5H6C6.27614 12.5 6.5 12.2761 6.5 12C6.5 11.7239 6.27614 11.5 6 11.5H5ZM18 11.5C17.7239 11.5 17.5 11.7239 17.5 12C17.5 12.2761 17.7239 12.5 18 12.5H19C19.2761 12.5 19.5 12.2761 19.5 12C19.5 11.7239 19.2761 11.5 19 11.5H18ZM12.5 18C12.5 17.7239 12.2761 17.5 12 17.5C11.7239 17.5 11.5 17.7239 11.5 18V19C11.5 19.2761 11.7239 19.5 12 19.5C12.2761 19.5 12.5 19.2761 12.5 19V18Z" fill="#2B2B2C"/>
</svg>
