<svg width="24" height="24" viewBox="0 0 24 24" fill="none" xmlns="http://www.w3.org/2000/svg">
<path fill-rule="evenodd" clip-rule="evenodd" d="M3 12C3 7.02944 7.02944 3 12 3C16.9706 3 21 7.02944 21 12C21 16.9706 16.9706 21 12 21C7.02944 21 3 16.9706 3 12ZM10.9 11.2C10.7709 11.0278 10.5461 10.9576 10.3419 11.0257C10.1377 11.0937 10 11.2848 10 11.5V15.5C10 15.7761 10.2239 16 10.5 16C10.7761 16 11 15.7761 11 15.5V13L13.1 15.8C13.2291 15.9722 13.4539 16.0424 13.6581 15.9743C13.8623 15.9063 14 15.7152 14 15.5V11.5C14 11.2239 13.7761 11 13.5 11C13.2239 11 13 11.2239 13 11.5V14L10.9 11.2ZM4.5 12C4.5 11.7239 4.72386 11.5 5 11.5H6C6.27614 11.5 6.5 11.7239 6.5 12C6.5 12.2761 6.27614 12.5 6 12.5H5C4.72386 12.5 4.5 12.2761 4.5 12ZM17.5 12C17.5 11.7239 17.7239 11.5 18 11.5H19C19.2761 11.5 19.5 11.7239 19.5 12C19.5 12.2761 19.2761 12.5 19 12.5H18C17.7239 12.5 17.5 12.2761 17.5 12ZM12 17.5C12.2761 17.5 12.5 17.7239 12.5 18V19C12.5 19.2761 12.2761 19.5 12 19.5C11.7239 19.5 11.5 19.2761 11.5 19V18C11.5 17.7239 11.7239 17.5 12 17.5ZM10.5908 9H13.4092C13.6922 9 13.8857 8.71419 13.7806 8.45144L12.3714 4.92848C12.2373 4.59322 11.7627 4.59322 11.6286 4.92848L10.2194 8.45144C10.1143 8.71419 10.3078 9 10.5908 9Z" fill="#2B2B2C"/>
</svg>
