<svg width="18" height="18" viewBox="0 0 18 18" fill="none" xmlns="http://www.w3.org/2000/svg">
<path fill-rule="evenodd" clip-rule="evenodd" d="M7 2.5C7.07619 2.5 7.14839 2.51704 7.21302 2.54752L11.4874 4.44726L15.2764 2.55279C15.4314 2.47529 15.6155 2.48357 15.7629 2.57468C15.9103 2.66578 16 2.82671 16 3V13C16 13.1894 15.893 13.3625 15.7236 13.4472L11.7326 15.4427C11.6646 15.4785 11.5874 15.4991 11.5055 15.5C11.5037 15.5 11.5018 15.5 11.5 15.5C11.4992 15.5 11.4985 15.5 11.4977 15.5C11.4913 15.5 11.4849 15.4998 11.4785 15.4995C11.4102 15.4967 11.3455 15.4801 11.287 15.4525L7 13.5472L2.70307 15.4569C2.5484 15.5256 2.36946 15.5115 2.22754 15.4192C2.08563 15.327 2 15.1693 2 15V5C2 4.80241 2.11637 4.62335 2.29693 4.54309L6.78698 2.54752C6.8516 2.51704 6.92381 2.5 7 2.5ZM12 14.191L15 12.691V3.80902L12 5.30902V14.191ZM11 5.32494V14.2306L7.5 12.6751V3.76938L11 5.32494ZM3 5.32494L6.5 3.76938V12.6751L3 14.2306V5.32494Z" fill="#2B2B2C"/>
</svg>
