<svg width="18" height="18" viewBox="0 0 18 18" fill="none" xmlns="http://www.w3.org/2000/svg">
<path fill-rule="evenodd" clip-rule="evenodd" d="M2.5 9C2.5 5.41015 5.41015 2.5 9 2.5C12.5899 2.5 15.5 5.41015 15.5 9C15.5 12.5899 12.5899 15.5 9 15.5C5.41015 15.5 2.5 12.5899 2.5 9ZM9 1.5C4.85786 1.5 1.5 4.85786 1.5 9C1.5 13.1421 4.85786 16.5 9 16.5C13.1421 16.5 16.5 13.1421 16.5 9C16.5 4.85786 13.1421 1.5 9 1.5ZM7.5 5C7.22386 5 7 5.22386 7 5.5V12.5C7 12.7761 7.22386 13 7.5 13C7.77614 13 8 12.7761 8 12.5V10H9.5C10.8807 10 12 8.88071 12 7.5C12 6.11929 10.8807 5 9.5 5H7.5ZM9.5 9H8V6H9.5C10.3284 6 11 6.67157 11 7.5C11 8.32843 10.3284 9 9.5 9Z" fill="#2B2B2C"/>
</svg>
