<svg width="30" height="30" viewBox="0 0 30 30" fill="none" xmlns="http://www.w3.org/2000/svg">
<path fill-rule="evenodd" clip-rule="evenodd" d="M15 3C11.641 3 8.99998 6.04507 8.99998 9.5C8.99998 11.983 10.5256 14.4915 12.1348 16.4307C12.9302 17.3893 13.727 18.1862 14.3252 18.7435C14.5988 18.9984 14.8302 19.2026 15 19.3485C15.1698 19.2026 15.4012 18.9984 15.6748 18.7435C16.273 18.1862 17.0698 17.3893 17.8652 16.4307C19.4743 14.4915 21 11.983 21 9.5C21 6.04507 18.359 3 15 3ZM10.3639 15.8235C10.3734 15.8177 10.3831 15.8122 10.3928 15.8071C9.10796 13.9997 7.99998 11.7848 7.99998 9.5C7.99998 5.59113 10.9952 2 15 2C19.0048 2 22 5.59113 22 9.5C22 11.7848 20.892 13.9997 19.6072 15.8071C19.6169 15.8122 19.6266 15.8177 19.6361 15.8235L25.7611 19.5735C25.9041 19.6611 25.9937 19.8146 25.9997 19.9822C26.0056 20.1499 25.9271 20.3093 25.7906 20.4068L15.2906 27.9068C15.1168 28.031 14.8832 28.031 14.7094 27.9068L4.20938 20.4068C4.07288 20.3093 3.99437 20.1499 4.00031 19.9822C4.00626 19.8146 4.09587 19.6611 4.23892 19.5735L10.3639 15.8235ZM15 6.00001C13.3431 6.00001 12 7.34316 12 9.00001C12 10.6569 13.3431 12 15 12C16.6568 12 18 10.6569 18 9.00001C18 7.34316 16.6568 6.00001 15 6.00001ZM11 9.00001C11 6.79087 12.7909 5.00001 15 5.00001C17.2091 5.00001 19 6.79087 19 9.00001C19 11.2092 17.2091 13 15 13C12.7909 13 11 11.2092 11 9.00001Z" fill="#2B2B2C"/>
</svg>
