<svg width="24" height="24" viewBox="0 0 24 24" fill="none" xmlns="http://www.w3.org/2000/svg">
<path fill-rule="evenodd" clip-rule="evenodd" d="M12.3293 3.12371C12.1407 2.95876 11.8593 2.95876 11.6707 3.12371L3.67075 10.1237C3.56224 10.2187 3.5 10.3558 3.5 10.5C3.5 10.6442 3.56224 10.7813 3.67075 10.8763L11.6707 17.8763C11.8593 18.0412 12.1407 18.0412 12.3293 17.8763L20.3293 10.8763C20.4378 10.7813 20.5 10.6442 20.5 10.5C20.5 10.3558 20.4378 10.2187 20.3293 10.1237L12.3293 3.12371ZM3.62372 13.1708C3.80556 12.9629 4.12144 12.9419 4.32926 13.1237L12 19.8356L19.6708 13.1237C19.8786 12.9419 20.1945 12.9629 20.3763 13.1708C20.5581 13.3786 20.5371 13.6945 20.3293 13.8763L12.3293 20.8763C12.1407 21.0412 11.8593 21.0412 11.6708 20.8763L3.67075 13.8763C3.46294 13.6945 3.44188 13.3786 3.62372 13.1708Z" fill="#2B2B2C"/>
</svg>
