<svg width="30" height="30" viewBox="0 0 30 30" fill="none" xmlns="http://www.w3.org/2000/svg">
<path fill-rule="evenodd" clip-rule="evenodd" d="M18 4C17.7239 4 17.5 4.22386 17.5 4.5C17.5 4.77614 17.7239 5 18 5H24.2929L16.6464 12.6464C16.4512 12.8417 16.4512 13.1583 16.6464 13.3536C16.8417 13.5488 17.1583 13.5488 17.3536 13.3536L25 5.70711V12C25 12.2761 25.2239 12.5 25.5 12.5C25.7761 12.5 26 12.2761 26 12V4.5C26 4.22386 25.7761 4 25.5 4H18ZM12 26C12.2761 26 12.5 25.7761 12.5 25.5C12.5 25.2239 12.2761 25 12 25H5.70711L13.3536 17.3536C13.5488 17.1583 13.5488 16.8417 13.3536 16.6464C13.1583 16.4512 12.8417 16.4512 12.6464 16.6464L5 24.2929L5 18C5 17.7239 4.77614 17.5 4.5 17.5C4.22386 17.5 4 17.7239 4 18V25.5C4 25.7761 4.22386 26 4.5 26H12Z" fill="#2B2B2C"/>
</svg>
