<svg width="18" height="18" viewBox="0 0 18 18" fill="none" xmlns="http://www.w3.org/2000/svg">
<path fill-rule="evenodd" clip-rule="evenodd" d="M11 2C10.7239 2 10.5 2.22386 10.5 2.5C10.5 2.77614 10.7239 3 11 3H14.2929L10.1464 7.14645C9.95118 7.34171 9.95118 7.65829 10.1464 7.85355C10.3417 8.04882 10.6583 8.04882 10.8536 7.85355L15 3.70711V7C15 7.27614 15.2239 7.5 15.5 7.5C15.7761 7.5 16 7.27614 16 7V2.5C16 2.22386 15.7761 2 15.5 2H11ZM2.5 16L7 16C7.27614 16 7.5 15.7761 7.5 15.5C7.5 15.2239 7.27614 15 7 15L3.70711 15L7.85355 10.8536C8.04882 10.6583 8.04882 10.3417 7.85355 10.1464C7.65829 9.95118 7.34171 9.95118 7.14645 10.1464L3 14.2929L3 11C3 10.7239 2.77614 10.5 2.5 10.5C2.22386 10.5 2 10.7239 2 11V15.5C2 15.7761 2.22386 16 2.5 16Z" fill="#2B2B2C"/>
</svg>
