<svg width="18" height="18" viewBox="0 0 18 18" fill="none" xmlns="http://www.w3.org/2000/svg">
<path fill-rule="evenodd" clip-rule="evenodd" d="M3.25 2C2.55964 2 2 2.55964 2 3.25V6.75C2 7.44036 2.55964 8 3.25 8H6.75C7.44036 8 8 7.44036 8 6.75V3.25C8 2.55964 7.44036 2 6.75 2H3.25ZM3 3.25C3 3.11193 3.11193 3 3.25 3H6.75C6.88807 3 7 3.11193 7 3.25V6.75C7 6.88807 6.88807 7 6.75 7H3.25C3.11193 7 3 6.88807 3 6.75V3.25ZM3.25 10C2.55964 10 2 10.5596 2 11.25V14.75C2 15.4404 2.55964 16 3.25 16H6.75C7.44036 16 8 15.4404 8 14.75V11.25C8 10.5596 7.44036 10 6.75 10H3.25ZM3 11.25C3 11.1119 3.11193 11 3.25 11H6.75C6.88807 11 7 11.1119 7 11.25V14.75C7 14.8881 6.88807 15 6.75 15H3.25C3.11193 15 3 14.8881 3 14.75V11.25ZM10 3.25C10 2.55964 10.5596 2 11.25 2H14.75C15.4404 2 16 2.55964 16 3.25V6.75C16 7.44036 15.4404 8 14.75 8H11.25C10.5596 8 10 7.44036 10 6.75V3.25ZM11.25 3C11.1119 3 11 3.11193 11 3.25V6.75C11 6.88807 11.1119 7 11.25 7H14.75C14.8881 7 15 6.88807 15 6.75V3.25C15 3.11193 14.8881 3 14.75 3H11.25ZM11.25 10C10.5596 10 10 10.5596 10 11.25V14.75C10 15.4404 10.5596 16 11.25 16H14.75C15.4404 16 16 15.4404 16 14.75V11.25C16 10.5596 15.4404 10 14.75 10H11.25ZM11 11.25C11 11.1119 11.1119 11 11.25 11H14.75C14.8881 11 15 11.1119 15 11.25V14.75C15 14.8881 14.8881 15 14.75 15H11.25C11.1119 15 11 14.8881 11 14.75V11.25Z" fill="#2B2B2C"/>
</svg>
