<svg width="24" height="24" viewBox="0 0 24 24" fill="none" xmlns="http://www.w3.org/2000/svg">
<path fill-rule="evenodd" clip-rule="evenodd" d="M4 8C5.10457 8 6 7.10457 6 6C6 4.89543 5.10457 4 4 4C2.89543 4 2 4.89543 2 6C2 7.10457 2.89543 8 4 8ZM4 14C5.10457 14 6 13.1046 6 12C6 10.8954 5.10457 10 4 10C2.89543 10 2 10.8954 2 12C2 13.1046 2.89543 14 4 14ZM4 20C5.10457 20 6 19.1046 6 18C6 16.8954 5.10457 16 4 16C2.89543 16 2 16.8954 2 18C2 19.1046 2.89543 20 4 20ZM10 4C8.89543 4 8 4.89543 8 6C8 7.10457 8.89543 8 10 8H20C21.1046 8 22 7.10457 22 6C22 4.89543 21.1046 4 20 4H10ZM10 10C8.89543 10 8 10.8954 8 12C8 13.1046 8.89543 14 10 14H20C21.1046 14 22 13.1046 22 12C22 10.8954 21.1046 10 20 10H10ZM10 16C8.89543 16 8 16.8954 8 18C8 19.1046 8.89543 20 10 20H20C21.1046 20 22 19.1046 22 18C22 16.8954 21.1046 16 20 16H10Z" fill="#2B2B2C"/>
</svg>
