<svg width="30" height="30" viewBox="0 0 30 30" fill="none" xmlns="http://www.w3.org/2000/svg">
<path fill-rule="evenodd" clip-rule="evenodd" d="M5 10C6.38071 10 7.5 8.88071 7.5 7.5C7.5 6.11929 6.38071 5 5 5C3.61929 5 2.5 6.11929 2.5 7.5C2.5 8.88071 3.61929 10 5 10ZM6.5 7.5C6.5 8.32843 5.82843 9 5 9C4.17157 9 3.5 8.32843 3.5 7.5C3.5 6.67157 4.17157 6 5 6C5.82843 6 6.5 6.67157 6.5 7.5ZM5 17.5C6.38071 17.5 7.5 16.3807 7.5 15C7.5 13.6193 6.38071 12.5 5 12.5C3.61929 12.5 2.5 13.6193 2.5 15C2.5 16.3807 3.61929 17.5 5 17.5ZM6.5 15C6.5 15.8284 5.82843 16.5 5 16.5C4.17157 16.5 3.5 15.8284 3.5 15C3.5 14.1716 4.17157 13.5 5 13.5C5.82843 13.5 6.5 14.1716 6.5 15ZM7.5 22.5C7.5 23.8807 6.38071 25 5 25C3.61929 25 2.5 23.8807 2.5 22.5C2.5 21.1193 3.61929 20 5 20C6.38071 20 7.5 21.1193 7.5 22.5ZM5 24C5.82843 24 6.5 23.3284 6.5 22.5C6.5 21.6716 5.82843 21 5 21C4.17157 21 3.5 21.6716 3.5 22.5C3.5 23.3284 4.17157 24 5 24ZM12.5 5C11.1193 5 10 6.11929 10 7.5C10 8.88071 11.1193 10 12.5 10H25C26.3807 10 27.5 8.88071 27.5 7.5C27.5 6.11929 26.3807 5 25 5H12.5ZM11 7.5C11 6.67157 11.6716 6 12.5 6H25C25.8284 6 26.5 6.67157 26.5 7.5C26.5 8.32843 25.8284 9 25 9H12.5C11.6716 9 11 8.32843 11 7.5ZM10 15C10 13.6193 11.1193 12.5 12.5 12.5H25C26.3807 12.5 27.5 13.6193 27.5 15C27.5 16.3807 26.3807 17.5 25 17.5H12.5C11.1193 17.5 10 16.3807 10 15ZM12.5 13.5C11.6716 13.5 11 14.1716 11 15C11 15.8284 11.6716 16.5 12.5 16.5H25C25.8284 16.5 26.5 15.8284 26.5 15C26.5 14.1716 25.8284 13.5 25 13.5H12.5ZM12.5 20C11.1193 20 10 21.1193 10 22.5C10 23.8807 11.1193 25 12.5 25H25C26.3807 25 27.5 23.8807 27.5 22.5C27.5 21.1193 26.3807 20 25 20H12.5ZM11 22.5C11 21.6716 11.6716 21 12.5 21H25C25.8284 21 26.5 21.6716 26.5 22.5C26.5 23.3284 25.8284 24 25 24H12.5C11.6716 24 11 23.3284 11 22.5Z" fill="#2B2B2C"/>
</svg>
