<svg width="24" height="24" viewBox="0 0 24 24" fill="none" xmlns="http://www.w3.org/2000/svg">
<path fill-rule="evenodd" clip-rule="evenodd" d="M20.7236 3.05281C20.0161 2.69904 19.2088 2.90174 18.6094 3.1681C17.9897 3.44355 17.4389 3.85399 17.1465 4.14647L17.1464 4.14647L14.3357 6.95724L5.12285 5.11468C4.63106 5.01632 4.12265 5.17026 3.76802 5.52489L2.64645 6.64646C2.53758 6.75533 2.48494 6.90829 2.50375 7.06111C2.52256 7.21392 2.61073 7.34955 2.74276 7.42876L9.69363 11.5993L8.14645 13.1464C7.78055 13.5123 7.16672 14.1899 6.52458 14.9811L3.95127 14.1234C3.59194 14.0036 3.19577 14.0971 2.92794 14.3649L2.14645 15.1464C2.04588 15.247 1.9929 15.3856 2.00077 15.5276C2.00863 15.6696 2.0766 15.8016 2.18765 15.8904L4.56584 17.793C4.55835 17.8068 4.55092 17.8206 4.54355 17.8344C4.24192 18.3979 4 18.9923 4 19.5C4 19.7761 4.22386 20 4.5 20C5.00771 20 5.60207 19.7581 6.16563 19.4565C6.1794 19.4491 6.1932 19.4417 6.20703 19.4342L8.10957 21.8123C8.19841 21.9234 8.33035 21.9914 8.47235 21.9992C8.61435 22.0071 8.75299 21.9541 8.85355 21.8535L9.63505 21.072C9.90288 20.8042 9.9964 20.408 9.87662 20.0487L9.01886 17.4754C9.81012 16.8333 10.4877 16.2195 10.8536 15.8536L12.4007 14.3064L16.5713 21.2572C16.6505 21.3893 16.7861 21.4774 16.9389 21.4963C17.0917 21.5151 17.2447 21.4624 17.3536 21.3536L18.4751 20.232C18.8298 19.8774 18.9837 19.3689 18.8853 18.8772L17.0428 9.66435L19.8536 6.85357L19.5 6.50002L19.8536 6.85356C20.146 6.5611 20.5565 6.01035 20.8319 5.39057C21.0983 4.79126 21.301 3.98391 20.9472 3.27641C20.8988 3.17965 20.8204 3.10119 20.7236 3.05281ZM8.18282 18.1296C8.11683 18.1792 8.05056 18.2286 7.9841 18.2775C7.68356 18.499 7.37633 18.7146 7.0715 18.914L8.54146 20.7514L8.92794 20.3649L8.18282 18.1296ZM5.08604 16.9285C5.28536 16.6237 5.50103 16.3164 5.72248 16.0159C5.77145 15.9494 5.82081 15.8832 5.87044 15.8172L3.63505 15.072L3.24857 15.4585L5.08604 16.9285ZM14.859 7.84808L14.8487 7.85841L10.861 11.8462C10.8559 11.8514 10.8508 11.8565 10.8456 11.8615L8.85356 13.8536C8.37203 14.3351 7.38829 15.4409 6.52753 16.6091C6.09739 17.1929 5.7064 17.7809 5.42521 18.3063C5.32396 18.4954 5.24182 18.6678 5.1777 18.8223C5.33223 18.7582 5.50458 18.676 5.69375 18.5748C6.21914 18.2936 6.80714 17.9026 7.3909 17.4725C8.55908 16.6117 9.66492 15.628 10.1465 15.1464L12.1385 13.1544C12.1435 13.1492 12.1486 13.1441 12.1539 13.139L16.1412 9.15168L16.1523 9.14058L19.1464 6.14648C19.354 5.93892 19.6936 5.48966 19.9181 4.98443C20.1113 4.54974 20.1771 4.17182 20.1114 3.88865C19.8282 3.82293 19.4503 3.88872 19.0156 4.08191C18.5103 4.30646 18.0611 4.64602 17.8536 4.85357L17.8536 4.85357L14.859 7.84808ZM4.92674 6.09526L13.4858 7.80708L10.4225 10.8704L3.80638 6.90074L4.47513 6.232C4.59334 6.11379 4.76281 6.06248 4.92674 6.09526ZM17.0993 20.1936L13.1296 13.5775L16.1929 10.5142L17.9048 19.0733C17.9375 19.2372 17.8862 19.4067 17.768 19.5249L17.0993 20.1936Z" fill="#2B2B2C"/>
</svg>
