<svg width="18" height="18" viewBox="0 0 18 18" fill="none" xmlns="http://www.w3.org/2000/svg">
<path fill-rule="evenodd" clip-rule="evenodd" d="M7.91808 1.87053C8.39954 1.03892 9.60019 1.03893 10.0816 1.87053L12.1829 5.5H15C16.1046 5.5 17 6.39543 17 7.5V12.625C17 13.1082 16.6082 13.5 16.125 13.5H14.9371C14.8787 13.7383 14.7748 13.9948 14.6058 14.2297C14.2881 14.6709 13.763 15 13 15C12.237 15 11.7119 14.6709 11.3942 14.2297C11.2252 13.9948 11.1213 13.7383 11.0629 13.5H6.93705C6.87868 13.7383 6.77483 13.9948 6.60577 14.2297C6.28807 14.6709 5.76296 15 5 15C4.23704 15 3.71193 14.6709 3.39423 14.2297C3.22517 13.9948 3.12132 13.7383 3.06295 13.5H1.875C1.39175 13.5 1 13.1082 1 12.625V7.5C1 6.39543 1.89543 5.5 3 5.5H5.81681L7.91808 1.87053ZM5.23786 6.5H3C2.44772 6.5 2 6.94772 2 7.5V12.5H3.5C3.77614 12.5 4 12.7239 4 13C4 13.17 4.05511 13.4361 4.20577 13.6453C4.33807 13.8291 4.56296 14 5 14C5.43704 14 5.66193 13.8291 5.79423 13.6453C5.94489 13.4361 6 13.17 6 13C6 12.7239 6.22386 12.5 6.5 12.5H11.5C11.7761 12.5 12 12.7239 12 13C12 13.17 12.0551 13.4361 12.2058 13.6453C12.3381 13.8291 12.563 14 13 14C13.437 14 13.6619 13.8291 13.7942 13.6453C13.9449 13.4361 14 13.17 14 13C14 12.7239 14.2239 12.5 14.5 12.5H16V7.5C16 6.94772 15.5523 6.5 15 6.5H12.7619L14.2808 9.12364C14.7633 9.95697 14.1619 10.9999 13.199 10.9999H4.8007C3.83778 10.9999 3.23646 9.95697 3.71891 9.12363L5.23786 6.5ZM9.49985 8.49994C9.49985 8.2238 9.27599 7.99994 8.99985 7.99994C8.7237 7.99994 8.49985 8.2238 8.49985 8.49994V8.99994C8.49985 9.27608 8.7237 9.49994 8.99985 9.49994C9.27599 9.49994 9.49985 9.27608 9.49985 8.99994V8.49994ZM8.99985 3.99994C9.27599 3.99994 9.49985 4.2238 9.49985 4.49994V6.49994C9.49985 6.77608 9.27599 6.99994 8.99985 6.99994C8.7237 6.99994 8.49985 6.77608 8.49985 6.49994V4.49994C8.49985 4.2238 8.7237 3.99994 8.99985 3.99994Z" fill="#2B2B2C"/>
</svg>
