<svg width="30" height="30" viewBox="0 0 30 30" fill="none" xmlns="http://www.w3.org/2000/svg">
<path d="M15 14.5V14" stroke="#2B2B2C" stroke-linecap="round" stroke-linejoin="round"/>
<path fill-rule="evenodd" clip-rule="evenodd" d="M15.645 3.56558C15.3544 3.07612 14.6458 3.07612 14.3552 3.56558L7.05115 15.8672C6.7543 16.3671 7.11461 17.0001 7.69604 17.0001H22.3042C22.8856 17.0001 23.2459 16.3671 22.9491 15.8672L15.645 3.56558ZM13.4954 3.05504C14.1735 1.91297 15.8268 1.91297 16.5049 3.05504L20.6284 10H25C26.6569 10 28 11.3431 28 13V22.375C28 22.9963 27.4963 23.5 26.875 23.5H24.4569C24.3861 23.9258 24.2207 24.4172 23.9058 24.8547C23.4381 25.5042 22.663 26 21.5 26C20.337 26 19.5619 25.5042 19.0942 24.8547C18.7793 24.4172 18.6139 23.9258 18.5431 23.5H11.4569C11.3861 23.9258 11.2207 24.4172 10.9058 24.8547C10.4381 25.5042 9.66296 26 8.5 26C7.33704 26 6.56193 25.5042 6.09423 24.8547C5.77928 24.4172 5.6139 23.9258 5.54315 23.5H3.12501C2.50369 23.5 2.00001 22.9963 2.00001 22.375L2 13C2 11.3431 3.34314 10 5 10H9.3718L13.4954 3.05504ZM23.8089 15.3566L21.2222 11H25C26.1046 11 27 11.8954 27 13V22.375C27 22.444 26.944 22.5 26.875 22.5H24C23.7239 22.5 23.5 22.7239 23.5 23C23.5 23.3367 23.3949 23.8528 23.0942 24.2703C22.8119 24.6624 22.337 25 21.5 25C20.663 25 20.1881 24.6624 19.9058 24.2703C19.6051 23.8528 19.5 23.3367 19.5 23C19.5 22.7239 19.2761 22.5 19 22.5H11C10.7239 22.5 10.5 22.7239 10.5 23C10.5 23.3367 10.3949 23.8528 10.0942 24.2703C9.81193 24.6624 9.33704 25 8.5 25C7.66296 25 7.18807 24.6624 6.90577 24.2703C6.60511 23.8528 6.5 23.3367 6.5 23C6.5 22.7239 6.27614 22.5 6 22.5H3.12501C3.05597 22.5 3.00001 22.444 3.00001 22.375L3 13C3 11.8954 3.89543 11 5 11H8.77805L6.19129 15.3567C5.49866 16.5232 6.33937 18.0001 7.69604 18.0001H22.3042C23.6609 18.0001 24.5016 16.5232 23.8089 15.3566ZM15.5 7C15.5 6.72386 15.2761 6.5 15 6.5C14.7239 6.5 14.5 6.72386 14.5 7V11.5C14.5 11.7761 14.7239 12 15 12C15.2761 12 15.5 11.7761 15.5 11.5V7Z" fill="#2B2B2C"/>
</svg>
