<svg width="18" height="18" viewBox="0 0 18 18" fill="none" xmlns="http://www.w3.org/2000/svg">
<path fill-rule="evenodd" clip-rule="evenodd" d="M10 3.5C9.72386 3.5 9.5 3.72386 9.5 4C9.5 4.27614 9.72386 4.5 10 4.5H10.323C10.5274 4.5 10.7113 4.62448 10.7872 4.81431L11.4928 6.57819C10.1697 6.83198 8.90827 7.36381 7.78129 7.99694L6.88313 6.5H7.5C7.77614 6.5 8 6.27614 8 6C8 5.72386 7.77614 5.5 7.5 5.5H5.99975H5.99946H5.91421C5.51639 5.5 5.13486 5.65804 4.85355 5.93934L4.64645 6.14645C4.45118 6.34171 4.45118 6.65829 4.64645 6.85355C4.84171 7.04882 5.15829 7.04882 5.35355 6.85355L5.56066 6.64645C5.61107 6.59603 5.67114 6.5575 5.73652 6.53264L6.92434 8.51234C6.57332 8.73737 6.23941 8.96853 5.92533 9.19924C5.40431 8.76277 4.73285 8.5 4 8.5C2.34315 8.5 1 9.84315 1 11.5C1 13.1569 2.34315 14.5 4 14.5C5.58356 14.5 6.88056 13.2731 6.9922 11.7179C8.32359 10.4425 10.0673 9.55251 12.248 9.0645C11.4921 9.60922 11 10.4971 11 11.5C11 13.1569 12.3431 14.5 14 14.5C15.6569 14.5 17 13.1569 17 11.5C17 9.84315 15.6569 8.5 14 8.5C13.7823 8.5 13.57 8.52319 13.3654 8.56725L11.7157 4.44291C11.4879 3.87343 10.9363 3.5 10.323 3.5H10ZM12.8165 9.88758L13.5358 11.6857C13.6383 11.9421 13.9293 12.0668 14.1857 11.9642C14.4421 11.8617 14.5668 11.5707 14.4642 11.3143L13.745 9.51611C13.8285 9.50548 13.9136 9.5 14 9.5C15.1046 9.5 16 10.3954 16 11.5C16 12.6046 15.1046 13.5 14 13.5C12.8954 13.5 12 12.6046 12 11.5C12 10.8383 12.3214 10.2516 12.8165 9.88758ZM12.0915 8.07492L11.8719 7.52595C9.89963 7.85732 8.03048 8.90249 6.57636 9.96211C6.68085 10.1368 6.76809 10.323 6.83571 10.5183C8.25103 9.3432 10.0088 8.53264 12.0915 8.07492ZM5.10626 9.83355C4.78942 9.6228 4.40905 9.5 4 9.5C2.89543 9.5 2 10.3954 2 11.5C2 12.6046 2.89543 13.5 4 13.5C5.10457 13.5 6 12.6046 6 11.5C6 11.1676 5.91892 10.8542 5.77546 10.5784C5.19338 11.0505 4.70964 11.4975 4.35355 11.8536C4.15829 12.0489 3.84171 12.0489 3.64645 11.8536C3.45118 11.6584 3.45118 11.3418 3.64645 11.1465C4.00618 10.7868 4.50235 10.3259 5.10626 9.83355Z" fill="#2B2B2C"/>
</svg>
