<svg width="18" height="18" viewBox="0 0 18 18" fill="none" xmlns="http://www.w3.org/2000/svg">
<path fill-rule="evenodd" clip-rule="evenodd" d="M9.5 4C9.5 3.72386 9.72386 3.5 10 3.5H10.323C10.9363 3.5 11.4879 3.87343 11.7157 4.44291L13.3654 8.56725C13.57 8.52319 13.7823 8.5 14 8.5C15.6569 8.5 17 9.84315 17 11.5C17 13.1569 15.6569 14.5 14 14.5C12.3431 14.5 11 13.1569 11 11.5C11 10.4971 11.4921 9.60922 12.248 9.0645C10.0673 9.55251 8.32359 10.4425 6.9922 11.7179C6.88056 13.2731 5.58356 14.5 4 14.5C2.34315 14.5 1 13.1569 1 11.5C1 9.84315 2.34315 8.5 4 8.5C4.73285 8.5 5.40431 8.76277 5.92533 9.19924C6.23941 8.96853 6.57332 8.73737 6.92434 8.51234L5.73652 6.53264C5.67114 6.5575 5.61107 6.59603 5.56066 6.64645L5.35355 6.85355C5.15829 7.04882 4.84171 7.04882 4.64645 6.85355C4.45118 6.65829 4.45118 6.34171 4.64645 6.14645L4.85355 5.93934C5.13486 5.65804 5.51639 5.5 5.91421 5.5H5.99946H5.99975H7.5C7.77614 5.5 8 5.72386 8 6C8 6.27614 7.77614 6.5 7.5 6.5H6.88313L7.78129 7.99694C8.90827 7.36381 10.1697 6.83198 11.4928 6.57819L10.7872 4.81431C10.7113 4.62448 10.5274 4.5 10.323 4.5H10C9.72386 4.5 9.5 4.27614 9.5 4ZM13.5358 11.6857L12.8165 9.88758C12.3214 10.2516 12 10.8383 12 11.5C12 12.6046 12.8954 13.5 14 13.5C15.1046 13.5 16 12.6046 16 11.5C16 10.3954 15.1046 9.5 14 9.5C13.9136 9.5 13.8285 9.50548 13.745 9.51611L14.4642 11.3143C14.5668 11.5707 14.4421 11.8617 14.1857 11.9642C13.9293 12.0668 13.6383 11.9421 13.5358 11.6857ZM4 9.5C4.40905 9.5 4.78942 9.6228 5.10626 9.83355C4.50235 10.3259 4.00618 10.7868 3.64645 11.1465C3.45118 11.3418 3.45118 11.6584 3.64645 11.8536C3.84171 12.0489 4.15829 12.0489 4.35355 11.8536C4.70964 11.4975 5.19338 11.0505 5.77546 10.5784C5.91892 10.8542 6 11.1676 6 11.5C6 12.6046 5.10457 13.5 4 13.5C2.89543 13.5 2 12.6046 2 11.5C2 10.3954 2.89543 9.5 4 9.5Z" fill="#2B2B2C"/>
</svg>
