<svg width="30" height="30" viewBox="0 0 30 30" fill="none" xmlns="http://www.w3.org/2000/svg">
<path fill-rule="evenodd" clip-rule="evenodd" d="M15 6.5C15 6.22386 15.2239 6 15.5 6H16.6459C17.6682 6 18.5875 6.62238 18.9671 7.57152L21.6161 14.194C22.0556 14.0677 22.5199 14 23 14C25.7614 14 28 16.2386 28 19C28 21.7614 25.7614 24 23 24C20.2386 24 18 21.7614 18 19C18 17.0728 19.0903 15.4003 20.6877 14.5656L20.4673 14.0146C17.854 14.5106 15.7084 15.5853 14.2071 16.5461C13.4456 17.0334 12.8529 17.4896 12.4522 17.8222C12.252 17.9884 12.1 18.1236 11.9992 18.2161C11.9796 18.234 11.962 18.2503 11.9464 18.265C11.9817 18.5049 12 18.7503 12 19C12 21.7614 9.76142 24 7 24C4.23858 24 2 21.7614 2 19C2 16.2386 4.23858 14 7 14C8.13934 14 9.18967 14.3811 10.0305 15.0227C10.5312 14.5793 11.091 14.1288 11.7163 13.6895L9.7229 10.5H9.41421C9.28161 10.5 9.15443 10.5527 9.06066 10.6464L8.85355 10.8536C8.65829 11.0488 8.34171 11.0488 8.14645 10.8536C7.95118 10.6583 7.95118 10.3417 8.14645 10.1464L8.35355 9.93934C8.63486 9.65804 9.01639 9.5 9.41421 9.5H9.99941H9.99977H11.5C11.7761 9.5 12 9.72386 12 10C12 10.2761 11.7761 10.5 11.5 10.5H10.9021L12.5501 13.1366C14.2636 12.0655 16.4086 11.1138 19.0898 10.5707L18.0386 7.94291C17.8109 7.37343 17.2593 7 16.6459 7H15.5C15.2239 7 15 6.77614 15 6.5ZM19 19C19 17.4942 19.8321 16.1827 21.0616 15.5002L22.2141 18.3816C22.08 18.5517 22 18.7665 22 19C22 19.5523 22.4477 20 23 20C23.5523 20 24 19.5523 24 19C24 18.4961 23.6273 18.0793 23.1425 18.0101L21.99 15.1286C22.3126 15.0447 22.6511 15 23 15C25.2091 15 27 16.7909 27 19C27 21.2091 25.2091 23 23 23C20.7909 23 19 21.2091 19 19ZM7 15C7.84971 15 8.63754 15.2649 9.28538 15.7167C8.45361 16.5307 7.81991 17.2849 7.33974 17.8565L7.33972 17.8565L7.33964 17.8566L7.20187 18.0204C7.13667 18.007 7.06916 18 7 18C6.44772 18 6 18.4477 6 19C6 19.5523 6.44772 20 7 20C7.55228 20 8 19.5523 8 19C8 18.8907 7.98247 18.7856 7.95008 18.6872C8.00728 18.6198 8.06641 18.5499 8.12755 18.4776C8.61695 17.8987 9.23563 17.1668 10.0313 16.3901C10.635 17.0906 11 18.0027 11 19C11 21.2091 9.20914 23 7 23C4.79086 23 3 21.2091 3 19C3 16.7909 4.79086 15 7 15Z" fill="#2B2B2C"/>
</svg>
