<svg width="24" height="24" viewBox="0 0 24 24" fill="none" xmlns="http://www.w3.org/2000/svg">
<path fill-rule="evenodd" clip-rule="evenodd" d="M12.5 5.5C12.5 5.22386 12.7239 5 13 5H13.8027C14.4312 5 14.993 5.39175 15.2102 5.98144L17.0969 11.1024C17.3871 11.0354 17.6894 11 18 11C20.2091 11 22 12.7909 22 15C22 17.2091 20.2091 19 18 19C15.7909 19 14 17.2091 14 15C14 13.5061 14.8189 12.2035 16.0324 11.5166C13.3722 11.7055 11.2644 13.4654 9.99022 14.7181C9.9967 14.8112 10 14.9052 10 15C10 17.2091 8.20914 19 6 19C3.79086 19 2 17.2091 2 15C2 12.7909 3.79086 11 6 11C6.9302 11 7.78624 11.3175 8.46565 11.8501C8.53938 11.7899 8.61451 11.7296 8.69109 11.6695C8.93668 11.4765 9.19794 11.2832 9.47648 11.0916L7.72998 8.03518C7.66713 8.06009 7.60939 8.09772 7.56066 8.14645L7.35355 8.35355C7.15829 8.54882 6.84171 8.54882 6.64645 8.35355C6.45118 8.15829 6.45118 7.84171 6.64645 7.64645L6.85355 7.43934C7.13486 7.15804 7.51639 7 7.91421 7H7.99955H7.9997H9.5C9.77614 7 10 7.22386 10 7.5C10 7.77614 9.77614 8 9.5 8H8.86163L10.3192 10.5508C11.5762 9.7997 13.1366 9.10354 15.1039 8.58556L14.2719 6.32715C14.1995 6.13058 14.0122 6 13.8027 6H13C12.7239 6 12.5 5.77614 12.5 5.5ZM17.5308 15.1729L16.508 12.3967C15.6069 12.9143 15 13.8863 15 15C15 16.6569 16.3431 18 18 18C19.6569 18 21 16.6569 21 15C21 13.3431 19.6569 12 18 12C17.8109 12 17.6258 12.0175 17.4464 12.051L18.4692 14.8271C18.5646 15.0863 18.432 15.3737 18.1729 15.4692C17.9137 15.5646 17.6263 15.432 17.5308 15.1729ZM6 12C6.62835 12 7.21157 12.1932 7.69353 12.5234C7.08478 13.0883 6.59563 13.6233 6.20033 14.0558L6.20032 14.0558L6.2003 14.0558C5.99054 14.2853 5.8072 14.4858 5.64645 14.6466C5.45118 14.8418 5.45118 15.1584 5.64645 15.3537C5.84171 15.5489 6.15829 15.5489 6.35355 15.3537C6.55612 15.1511 6.7656 14.9219 6.99398 14.672L6.99399 14.672C7.38974 14.239 7.84219 13.7439 8.4136 13.218C8.78211 13.7162 9 14.3327 9 15C9 16.6569 7.65685 18 6 18C4.34315 18 3 16.6569 3 15C3 13.3431 4.34315 12 6 12Z" fill="#2B2B2C"/>
</svg>
