<svg width="30" height="30" viewBox="0 0 30 30" fill="none" xmlns="http://www.w3.org/2000/svg">
<path fill-rule="evenodd" clip-rule="evenodd" d="M3.5 7C2.67157 7 2 7.67157 2 8.5V16.5V20.5C2 21.3284 2.67157 22 3.5 22H6.05001C6.28164 23.1411 7.29052 24 8.5 24C9.71033 24 10.7198 23.1399 10.9505 21.9976C10.9668 21.9992 10.9833 22 11 22H19C19.0167 22 19.0332 21.9992 19.0495 21.9976C19.2802 23.1399 20.2897 24 21.5 24C22.7095 24 23.7184 23.1411 23.95 22H26.5C27.3284 22 28 21.3284 28 20.5V18V10.5C28 8.567 26.433 7 24.5 7H3.5ZM7.5 16H3V10.5H7.5V16ZM13.5 16H8.5V10.5H13.5V16ZM14.5 16H19V10.5H14.5V16ZM27 10.5V17.5H25.5C24.1193 17.5 23 16.3807 23 15V10.5L27 10.5ZM7 21.5C7 22.3284 7.67157 23 8.5 23C9.32843 23 10 22.3284 10 21.5C10 20.6716 9.32843 20 8.5 20C7.67157 20 7 20.6716 7 21.5ZM21.5 20C20.6716 20 20 20.6716 20 21.5C20 22.3284 20.6716 23 21.5 23C22.3284 23 23 22.3284 23 21.5C23 20.6716 22.3284 20 21.5 20Z" fill="#2B2B2C"/>
</svg>
