<svg width="24" height="24" viewBox="0 0 24 24" fill="none" xmlns="http://www.w3.org/2000/svg">
<path fill-rule="evenodd" clip-rule="evenodd" d="M1.5 7C1.5 6.44772 1.94771 6 2.5 6H20C21.3807 6 22.5 7.11929 22.5 8.5V17C22.5 17.5523 22.0523 18 21.5 18H19.437C19.215 18.8626 18.4319 19.5 17.5 19.5C16.5681 19.5 15.785 18.8626 15.563 18H8.43699C8.21497 18.8626 7.43192 19.5 6.5 19.5C5.56808 19.5 4.78503 18.8626 4.56301 18H2.5C1.94772 18 1.5 17.5523 1.5 17V7ZM21.5 17H19.437C19.215 16.1374 18.4319 15.5 17.5 15.5C16.5681 15.5 15.785 16.1374 15.563 17H8.43699C8.21497 16.1374 7.43192 15.5 6.5 15.5C5.56808 15.5 4.78503 16.1374 4.56301 17H2.5V14H15.5C15.7761 14 16 13.7761 16 13.5V8.5C16 8.22386 15.7761 8 15.5 8H2.5V7H20C20.6531 7 21.2087 7.4174 21.4146 8H18C17.7239 8 17.5 8.22386 17.5 8.5V12.5C17.5 13.8807 18.6193 15 20 15H21.5V17ZM6 13H2.5V9H6V13ZM7 13H10.5V9H7V13ZM11.5 9V13H15V9H11.5ZM21.5 14H20C19.1716 14 18.5 13.3284 18.5 12.5V9H21.5V14ZM17.5 16.5C18.0523 16.5 18.5 16.9477 18.5 17.5C18.5 18.0523 18.0523 18.5 17.5 18.5C16.9477 18.5 16.5 18.0523 16.5 17.5C16.5 16.9477 16.9477 16.5 17.5 16.5ZM5.5 17.5C5.5 16.9477 5.94772 16.5 6.5 16.5C7.05228 16.5 7.5 16.9477 7.5 17.5C7.5 18.0523 7.05228 18.5 6.5 18.5C5.94772 18.5 5.5 18.0523 5.5 17.5Z" fill="#2B2B2C"/>
</svg>
