<svg width="18" height="18" viewBox="0 0 18 18" fill="none" xmlns="http://www.w3.org/2000/svg">
<path fill-rule="evenodd" clip-rule="evenodd" d="M2 4C1.44772 4 1 4.44771 1 5V12.5C1 13.0523 1.44772 13.5 2 13.5H3.07247C3.28761 14.2229 3.95724 14.75 4.75 14.75C5.54276 14.75 6.21239 14.2229 6.42753 13.5H11.5725C11.7876 14.2229 12.4572 14.75 13.25 14.75C14.0428 14.75 14.7124 14.2229 14.9275 13.5H16C16.5523 13.5 17 13.0523 17 12.5V6.5C17 5.11929 15.8807 4 14.5 4H2ZM2 6.5V9.5H4.5V6.5H2ZM5.5 6.5V9.5H8V6.5H5.5ZM9 6.5V9.5H11.5V6.5H9ZM15 10.5H16V6.5H13.5V9C13.5 9.82843 14.1716 10.5 15 10.5ZM14 13C14 12.5858 13.6642 12.25 13.25 12.25C12.8358 12.25 12.5 12.5858 12.5 13C12.5 13.4142 12.8358 13.75 13.25 13.75C13.6642 13.75 14 13.4142 14 13ZM4.75 12.25C4.33579 12.25 4 12.5858 4 13C4 13.4142 4.33579 13.75 4.75 13.75C5.16421 13.75 5.5 13.4142 5.5 13C5.5 12.5858 5.16421 12.25 4.75 12.25Z" fill="#2B2B2C"/>
</svg>
