<svg width="18" height="18" viewBox="0 0 18 18" fill="none" xmlns="http://www.w3.org/2000/svg">
<path fill-rule="evenodd" clip-rule="evenodd" d="M1 5C1 4.44771 1.44772 4 2 4H14.5C15.8807 4 17 5.11929 17 6.5V12.5C17 13.0523 16.5523 13.5 16 13.5H14.9275C14.7124 14.2229 14.0428 14.75 13.25 14.75C12.4572 14.75 11.7876 14.2229 11.5725 13.5H6.42753C6.21239 14.2229 5.54276 14.75 4.75 14.75C3.95724 14.75 3.28761 14.2229 3.07247 13.5H2C1.44772 13.5 1 13.0523 1 12.5V5ZM16 12.5H14.9275C14.7124 11.7771 14.0428 11.25 13.25 11.25C12.4572 11.25 11.7876 11.7771 11.5725 12.5H6.42753C6.21239 11.7771 5.54276 11.25 4.75 11.25C3.95724 11.25 3.28761 11.7771 3.07247 12.5H2V10.5H11.5C11.7761 10.5 12 10.2761 12 10V6.5C12 6.22386 11.7761 6 11.5 6H9H8H2V5H14.5C15.1531 5 15.7087 5.4174 15.9146 6H13.5C13.2239 6 13 6.22386 13 6.5V8.5C13 9.88071 14.1193 11 15.5 11H16V12.5ZM8 7H5.5V9.5H8V7ZM9 9.5H11V7H9V9.5ZM4.5 9.5V7H2V9.5H4.5ZM16 10H15.5C14.6716 10 14 9.32843 14 8.5V7H16V10ZM13.25 12.25C13.6642 12.25 14 12.5858 14 13C14 13.4142 13.6642 13.75 13.25 13.75C12.8358 13.75 12.5 13.4142 12.5 13C12.5 12.5858 12.8358 12.25 13.25 12.25ZM4 13C4 12.5858 4.33579 12.25 4.75 12.25C5.16421 12.25 5.5 12.5858 5.5 13C5.5 13.4142 5.16421 13.75 4.75 13.75C4.33579 13.75 4 13.4142 4 13Z" fill="#2B2B2C"/>
</svg>
