<svg width="30" height="30" viewBox="0 0 30 30" fill="none" xmlns="http://www.w3.org/2000/svg">
<path fill-rule="evenodd" clip-rule="evenodd" d="M2 8.5C2 7.67157 2.67157 7 3.5 7H24.5C26.433 7 28 8.567 28 10.5V17.5V20.5C28 21.3284 27.3284 22 26.5 22H23.95C23.7184 23.1411 22.7095 24 21.5 24C20.2897 24 19.2802 23.1399 19.0495 21.9976C19.0332 21.9992 19.0167 22 19 22H11C10.9833 22 10.9668 21.9992 10.9505 21.9976C10.7198 23.1399 9.71033 24 8.5 24C7.29052 24 6.28164 23.1411 6.05001 22H3.5C2.67157 22 2 21.3284 2 20.5V16.5V8.5ZM3 20.5V17H19.5C19.7761 17 20 16.7761 20 16.5V10.5C20 10.2239 19.7761 10 19.5 10H3V8.5C3 8.22386 3.22386 8 3.5 8H24.5C25.7095 8 26.7184 8.85888 26.95 10H22.5C22.2239 10 22 10.2239 22 10.5V14.5C22 16.433 23.567 18 25.5 18H27V20.5C27 20.7761 26.7761 21 26.5 21H23.95C23.7184 19.8589 22.7095 19 21.5 19C20.2897 19 19.2802 19.8601 19.0495 21.0024C19.0332 21.0008 19.0167 21 19 21H11C10.9833 21 10.9668 21.0008 10.9505 21.0024C10.7198 19.8601 9.71033 19 8.5 19C7.29052 19 6.28164 19.8589 6.05001 21H3.5C3.22386 21 3 20.7761 3 20.5ZM7.5 11H3V16H7.5V11ZM8.5 11V16H13.5V11H8.5ZM14.5 11V16H19V11H14.5ZM27 17V11H23V14.5C23 15.8807 24.1193 17 25.5 17H27ZM8.5 23C7.67157 23 7 22.3284 7 21.5C7 20.6716 7.67157 20 8.5 20C9.32843 20 10 20.6716 10 21.5C10 22.3284 9.32843 23 8.5 23ZM20 21.5C20 20.6716 20.6716 20 21.5 20C22.3284 20 23 20.6716 23 21.5C23 22.3284 22.3284 23 21.5 23C20.6716 23 20 22.3284 20 21.5Z" fill="#2B2B2C"/>
</svg>
