<svg width="30" height="30" viewBox="0 0 30 30" fill="none" xmlns="http://www.w3.org/2000/svg">
<path fill-rule="evenodd" clip-rule="evenodd" d="M6.42915 8.39079C6.6699 7.8491 7.20708 7.5 7.79986 7.5H11.0001V11.3396L5.22131 11.1084L6.42915 8.39079ZM4.1267 11.1091L5.51534 7.98465C5.91659 7.08183 6.81189 6.5 7.79986 6.5H15.4291C16.8877 6.5 18.2867 7.07946 19.3181 8.11091L22.8537 11.6464C22.9042 11.697 22.9417 11.7556 22.966 11.8182L24.6399 11.8852C26.517 11.9603 28 13.5038 28 15.3824V18.5C28 19.3284 27.3284 20 26.5 20H24.9585C24.7205 21.4188 23.4865 22.5 22 22.5C20.5135 22.5 19.2795 21.4188 19.0415 20H9.95852C9.72049 21.4188 8.4865 22.5 7 22.5C5.5135 22.5 4.27951 21.4188 4.04148 20H3.5C2.67157 20 2 19.3284 2 18.5V13.5816C2 12.3231 2.92788 11.2885 4.1267 11.1091ZM21.5548 11.7618L18.611 8.81802C17.7671 7.9741 16.6225 7.5 15.4291 7.5H12.0001V11.3796L21.5548 11.7618ZM25.5001 14.5C25.224 14.5 25.0001 14.7239 25.0001 15C25.0001 15.2761 25.224 15.5 25.5001 15.5H27V18.5C27 18.7761 26.7761 19 26.5 19H24.9585C24.7205 17.5811 23.4865 16.5 22 16.5C20.5135 16.5 19.2795 17.5811 19.0415 19H9.95852C9.72047 17.5811 8.48649 16.5 7 16.5C5.51351 16.5 4.27953 17.5811 4.04148 19H3.5C3.22386 19 3 18.7761 3 18.5V13.5816C3 12.7296 3.70869 12.0487 4.55995 12.0828L24.5999 12.8844C25.6307 12.9256 26.4951 13.5868 26.8397 14.5H25.5001ZM7 21.5C8.10457 21.5 9 20.6046 9 19.5C9 18.3954 8.10457 17.5 7 17.5C5.89543 17.5 5 18.3954 5 19.5C5 20.6046 5.89543 21.5 7 21.5ZM22 21.5C23.1046 21.5 24 20.6046 24 19.5C24 18.3954 23.1046 17.5 22 17.5C20.8954 17.5 20 18.3954 20 19.5C20 20.6046 20.8954 21.5 22 21.5ZM12.5 15C12.5 14.7239 12.7239 14.5 13 14.5H15C15.2761 14.5 15.5 14.7239 15.5 15C15.5 15.2761 15.2761 15.5 15 15.5H13C12.7239 15.5 12.5 15.2761 12.5 15Z" fill="#2B2B2C"/>
</svg>
