<svg width="18" height="18" viewBox="0 0 18 18" fill="none" xmlns="http://www.w3.org/2000/svg">
<path fill-rule="evenodd" clip-rule="evenodd" d="M4.9565 5C4.66471 5 4.40353 5.181 4.30107 5.45421L3.69413 7.07274L6.2499 7.15793V5H4.9565ZM7.2499 7.19127L12.085 7.35244L11.006 5.96515C10.5324 5.35618 9.80413 5 9.03265 5H7.2499V7.19127ZM13.3856 7.39579L11.7954 5.35121C11.1323 4.49865 10.1127 4 9.03265 4H4.9565C4.24787 4 3.61356 4.43957 3.36474 5.10309L2.6378 7.04161C1.73131 7.07379 1 7.8194 1 8.74055V11.3999C1 12.0074 1.49249 12.4999 2.1 12.4999H2.56298C2.78496 13.3626 3.56804 14 4.5 14C5.43196 14 6.21504 13.3626 6.43702 12.4999H11.063C11.285 13.3626 12.068 14 13 14C13.932 14 14.715 13.3626 14.937 12.4999H15.9C16.5075 12.4999 17 12.0074 17 11.3999V9.99988H15.75C15.4739 9.99988 15.25 9.77602 15.25 9.49988C15.25 9.22374 15.4739 8.99988 15.75 8.99988H16.8779C16.578 8.11827 15.7575 7.47485 14.7766 7.44216L13.3856 7.39579ZM5.5 12C5.5 12.5523 5.05228 13 4.5 13C3.94772 13 3.5 12.5523 3.5 12C3.5 11.4477 3.94772 11 4.5 11C5.05228 11 5.5 11.4477 5.5 12ZM14 12C14 12.5523 13.5523 13 13 13C12.4477 13 12 12.5523 12 12C12 11.4477 12.4477 11 13 11C13.5523 11 14 11.4477 14 12Z" fill="#2B2B2C"/>
</svg>
