<svg width="24" height="24" viewBox="0 0 24 24" fill="none" xmlns="http://www.w3.org/2000/svg">
<path fill-rule="evenodd" clip-rule="evenodd" d="M3 6C2.17157 6 1.5 6.67157 1.5 7.5V17C1.5 17.5523 1.94772 18 2.5 18H3.06301C3.28503 18.8626 4.06808 19.5 5 19.5C5.93192 19.5 6.71497 18.8626 6.93699 18H7.06301C7.28503 18.8626 8.06808 19.5 9 19.5C9.93192 19.5 10.715 18.8626 10.937 18H16.063C16.285 18.8626 17.0681 19.5 18 19.5C18.9319 19.5 19.715 18.8626 19.937 18H21.5C22.0523 18 22.5 17.5523 22.5 17V10.5C22.5 8.01472 20.4853 6 18 6H3ZM6.93699 17H7.06301C7.28503 16.1374 8.06808 15.5 9 15.5C9.93192 15.5 10.715 16.1374 10.937 17H16.063C16.285 16.1374 17.0681 15.5 18 15.5C18.9319 15.5 19.715 16.1374 19.937 17H21.5V14.5H21.5H19.1982C18.2623 14.5 17.555 13.6524 17.7224 12.7317L18.4334 8.82111C18.5198 8.34562 18.934 8 19.4173 8H20.4495C19.8182 7.38141 18.9537 7 18 7H3C2.72386 7 2.5 7.22386 2.5 7.5V8H15.8767C16.5164 8 16.9917 8.59242 16.8529 9.21693L16.0751 12.7169C15.9734 13.1745 15.5676 13.5 15.0989 13.5H2.5V17H3.06301C3.28503 16.1374 4.06808 15.5 5 15.5C5.93192 15.5 6.71497 16.1374 6.93699 17ZM2.5 12.5V9H6.87669L6.09891 12.5H2.5ZM10.5989 12.5H7.1233L7.90108 9H11.3767L10.5989 12.5ZM11.6233 12.5H15.0989L15.8767 9H12.4011L11.6233 12.5ZM21.1632 9H19.4173L18.7063 12.9106C18.6504 13.2175 18.8862 13.5 19.1982 13.5H21.5H21.5V10.5C21.5 9.9632 21.3792 9.45463 21.1632 9ZM5 18.5C5.55228 18.5 6 18.0523 6 17.5C6 16.9477 5.55228 16.5 5 16.5C4.44772 16.5 4 16.9477 4 17.5C4 18.0523 4.44772 18.5 5 18.5ZM9 18.5C8.44772 18.5 8 18.0523 8 17.5C8 16.9477 8.44772 16.5 9 16.5C9.55228 16.5 10 16.9477 10 17.5C10 18.0523 9.55228 18.5 9 18.5ZM17 17.5C17 18.0523 17.4477 18.5 18 18.5C18.5523 18.5 19 18.0523 19 17.5C19 16.9477 18.5523 16.5 18 16.5C17.4477 16.5 17 16.9477 17 17.5Z" fill="#2B2B2C"/>
</svg>
