<svg width="24" height="24" viewBox="0 0 24 24" fill="none" xmlns="http://www.w3.org/2000/svg">
<path fill-rule="evenodd" clip-rule="evenodd" d="M3 6C2.17157 6 1.5 6.67157 1.5 7.5V17C1.5 17.5523 1.94772 18 2.5 18H3.06301C3.28503 18.8626 4.06808 19.5 5 19.5C5.93192 19.5 6.71497 18.8626 6.93699 18H7.06301C7.28503 18.8626 8.06808 19.5 9 19.5C9.93192 19.5 10.715 18.8626 10.937 18H16.063C16.285 18.8626 17.0681 19.5 18 19.5C18.9319 19.5 19.715 18.8626 19.937 18H21.5C22.0523 18 22.5 17.5523 22.5 17V10.5C22.5 8.01472 20.4853 6 18 6H3ZM21.5 13.5V10.5C21.5 9.75638 21.2681 9.06692 20.8727 8.5H18.8471C18.6027 8.5 18.3941 8.67671 18.3539 8.9178L17.6872 12.9178C17.6364 13.2226 17.8715 13.5 18.1804 13.5H21.5C21.5 13.5 21.5 13.5 21.5 13.5ZM2.5 8.5V12.5H5.59015L6.39015 8.5H2.5ZM17 17.5C17 18.0523 17.4477 18.5 18 18.5C18.5523 18.5 19 18.0523 19 17.5C19 16.9477 18.5523 16.5 18 16.5C17.4477 16.5 17 16.9477 17 17.5ZM4 17.5C4 18.0523 4.44772 18.5 5 18.5C5.55228 18.5 6 18.0523 6 17.5C6 16.9477 5.55228 16.5 5 16.5C4.44772 16.5 4 16.9477 4 17.5ZM16 13H15.9563C15.9766 12.9647 15.9949 12.928 16.011 12.8901L16 13ZM7.40995 8.5L6.60995 12.5L10.5901 12.5L11.3901 8.5H7.40995ZM12.41 8.5L11.61 12.5H15.0901L15.8901 8.5H12.41ZM9 18.5C8.44772 18.5 8 18.0523 8 17.5C8 16.9477 8.44772 16.5 9 16.5C9.55228 16.5 10 16.9477 10 17.5C10 18.0523 9.55228 18.5 9 18.5Z" fill="#2B2B2C"/>
</svg>
