<svg width="18" height="18" viewBox="0 0 18 18" fill="none" xmlns="http://www.w3.org/2000/svg">
<path fill-rule="evenodd" clip-rule="evenodd" d="M2.5 5C2.22386 5 2 5.22386 2 5.5V6H11.4098C12.0277 6 12.4978 6.55487 12.3962 7.1644L12.0628 9.1644C11.9825 9.64659 11.5653 10 11.0764 10H2V12.5H2.57247C2.78761 11.7771 3.45724 11.25 4.25 11.25C4.88658 11.25 5.44378 11.5899 5.75 12.0981C6.05622 11.5899 6.61342 11.25 7.25 11.25C8.04276 11.25 8.71239 11.7771 8.92753 12.5H11.5725C11.7876 11.7771 12.4572 11.25 13.25 11.25C14.0428 11.25 14.7124 11.7771 14.9275 12.5H16V10.5H16H14.0765C13.4679 10.5 13.0005 9.96101 13.0865 9.35858L13.4437 6.85858C13.5141 6.36593 13.936 6 14.4336 6H15.5002C15.0441 5.39278 14.3179 5 13.5 5H2.5ZM2 9V7H4.4098L4.07647 9H2ZM5.09026 9H7.57647L7.9098 7H5.42359L5.09026 9ZM8.92359 7L8.59026 9H11.0764L11.4098 7H8.92359ZM15.95 7H14.4336L14.0765 9.5L16 9.5H16V7.5C16 7.32877 15.9828 7.16155 15.95 7ZM2 13.5H2.57247C2.78761 14.2229 3.45724 14.75 4.25 14.75C4.88658 14.75 5.44378 14.4101 5.75 13.9019C6.05622 14.4101 6.61342 14.75 7.25 14.75C8.04276 14.75 8.71239 14.2229 8.92753 13.5H11.5725C11.7876 14.2229 12.4572 14.75 13.25 14.75C14.0428 14.75 14.7124 14.2229 14.9275 13.5H16C16.5523 13.5 17 13.0523 17 12.5V7.5C17 5.567 15.433 4 13.5 4H2.5C1.67157 4 1 4.67157 1 5.5V12.5C1 13.0523 1.44772 13.5 2 13.5ZM13.25 12.25C13.6642 12.25 14 12.5858 14 13C14 13.4142 13.6642 13.75 13.25 13.75C12.8358 13.75 12.5 13.4142 12.5 13C12.5 12.5858 12.8358 12.25 13.25 12.25ZM4.25 12.25C3.83579 12.25 3.5 12.5858 3.5 13C3.5 13.4142 3.83579 13.75 4.25 13.75C4.66421 13.75 5 13.4142 5 13C5 12.5858 4.66421 12.25 4.25 12.25ZM7.25 12.25C6.83579 12.25 6.5 12.5858 6.5 13C6.5 13.4142 6.83579 13.75 7.25 13.75C7.66421 13.75 8 13.4142 8 13C8 12.5858 7.66421 12.25 7.25 12.25Z" fill="#2B2B2C"/>
</svg>
