<svg width="30" height="30" viewBox="0 0 30 30" fill="none" xmlns="http://www.w3.org/2000/svg">
<path fill-rule="evenodd" clip-rule="evenodd" d="M2 8.5C2 7.67157 2.67157 7 3.5 7H22.5C25.5376 7 28 9.46243 28 12.5V16.9972L28 17L28 17.0028V20.5C28 21.3284 27.3284 22 26.5 22H25.5C25.4833 22 25.4668 21.9992 25.4505 21.9976C25.2198 23.1399 24.2103 24 23 24C21.7897 24 20.7802 23.1399 20.5495 21.9976C20.5332 21.9992 20.5167 22 20.5 22H13.5C13.4833 22 13.4668 21.9992 13.4505 21.9976C13.2198 23.1399 12.2103 24 11 24C9.79052 24 8.78164 23.1411 8.55001 22H8.44999C8.21836 23.1411 7.20948 24 6 24C4.79052 24 3.78164 23.1411 3.55001 22H3.5C2.67157 22 2 21.3284 2 20.5V15.5V8.5ZM7.58271 15H3V10.5H8.40089L7.58271 15ZM13.5827 15L8.5991 15L9.41728 10.5H14.4009L13.5827 15ZM15.4173 10.5H19.9009L19.0827 15H14.5991L15.4173 10.5ZM27 16.5H23.2133C22.6085 16.5 22.1421 15.9673 22.2221 15.3678L22.8221 10.8678C22.8883 10.371 23.3121 10 23.8133 10H26.2422C26.7209 10.715 27 11.5749 27 12.5V16.5ZM11 23C10.1716 23 9.5 22.3284 9.5 21.5C9.5 20.6716 10.1716 20 11 20C11.8284 20 12.5 20.6716 12.5 21.5C12.5 22.3284 11.8284 23 11 23ZM6 20C6.82843 20 7.5 20.6716 7.5 21.5C7.5 22.3284 6.82843 23 6 23C5.17157 23 4.5 22.3284 4.5 21.5C4.5 20.6716 5.17157 20 6 20ZM21.5 21.5C21.5 20.6716 22.1716 20 23 20C23.8284 20 24.5 20.6716 24.5 21.5C24.5 22.3284 23.8284 23 23 23C22.1716 23 21.5 22.3284 21.5 21.5Z" fill="#2B2B2C"/>
</svg>
