<svg width="30" height="30" viewBox="0 0 30 30" fill="none" xmlns="http://www.w3.org/2000/svg">
<path fill-rule="evenodd" clip-rule="evenodd" d="M3.5 7C2.67157 7 2 7.67157 2 8.5V15.5V20.5C2 21.3284 2.67157 22 3.5 22H3.55001C3.78164 23.1411 4.79052 24 6 24C7.20948 24 8.21836 23.1411 8.44999 22H8.55001C8.78164 23.1411 9.79052 24 11 24C12.2103 24 13.2198 23.1399 13.4505 21.9976C13.4668 21.9992 13.4833 22 13.5 22H20.5C20.5167 22 20.5332 21.9992 20.5495 21.9976C20.7802 23.1399 21.7897 24 23 24C24.2103 24 25.2198 23.1399 25.4505 21.9976C25.4668 21.9992 25.4833 22 25.5 22H26.5C27.3284 22 28 21.3284 28 20.5V12.5C28 9.46243 25.5376 7 22.5 7H3.5ZM8.55001 21H8.44999C8.21836 19.8589 7.20948 19 6 19C4.79052 19 3.78164 19.8589 3.55001 21H3.5C3.22386 21 3 20.7761 3 20.5V16H19.0827C19.566 16 19.9801 15.6544 20.0666 15.1789L20.8848 10.6789C20.9964 10.065 20.5248 9.5 19.9009 9.5H3V8.5C3 8.22386 3.22386 8 3.5 8H22.5C23.8328 8 25.0302 8.57938 25.8542 9.5H23.929C23.4354 9.5 23.0156 9.86011 22.9406 10.3479L22.183 15.2719C22.0433 16.1806 22.7463 17 23.6656 17H27V20.5C27 20.7761 26.7761 21 26.5 21H25.5C25.4833 21 25.4668 21.0008 25.4505 21.0024C25.2198 19.8601 24.2103 19 23 19C21.7897 19 20.7802 19.8601 20.5495 21.0024C20.5332 21.0008 20.5167 21 20.5 21H13.5C13.4833 21 13.4668 21.0008 13.4505 21.0024C13.2198 19.8601 12.2103 19 11 19C9.79052 19 8.78164 19.8589 8.55001 21ZM9.5 21.5C9.5 22.3284 10.1716 23 11 23C11.8284 23 12.5 22.3284 12.5 21.5C12.5 20.6716 11.8284 20 11 20C10.1716 20 9.5 20.6716 9.5 21.5ZM7.5 21.5C7.5 20.6716 6.82843 20 6 20C5.17157 20 4.5 20.6716 4.5 21.5C4.5 22.3284 5.17157 23 6 23C6.82843 23 7.5 22.3284 7.5 21.5ZM3 15H7.58272L8.40091 10.5H3V15ZM13.5827 15L8.59912 15L9.4173 10.5H14.4009L13.5827 15ZM14.5991 15L15.4173 10.5H19.9009L19.0827 15H14.5991ZM26.5 10.5C26.5107 10.5 26.5212 10.4997 26.5317 10.499C26.8315 11.1017 27 11.7812 27 12.5V16H23.6656C23.3592 16 23.1248 15.7269 23.1714 15.424L23.929 10.5H26.5ZM23 20C22.1716 20 21.5 20.6716 21.5 21.5C21.5 22.3284 22.1716 23 23 23C23.8284 23 24.5 22.3284 24.5 21.5C24.5 20.6716 23.8284 20 23 20Z" fill="#2B2B2C"/>
</svg>
