<svg width="18" height="18" viewBox="0 0 18 18" fill="none" xmlns="http://www.w3.org/2000/svg">
<path fill-rule="evenodd" clip-rule="evenodd" d="M2 9V6H4.85957L4.10957 9H2ZM5.14035 9L5.89035 6H8.35957L7.60957 9H5.14035ZM8.64035 9L9.39035 6H11.8596L11.1096 9H8.64035ZM15.4999 6L15.5002 6C15.814 6.41783 16 6.9372 16 7.5V10H15.9999H13.7197C13.4042 10 13.1676 9.71134 13.2295 9.40194L13.8295 6.40194C13.8762 6.16823 14.0814 6 14.3197 6H15.4999ZM2.57247 13.5H2C1.44772 13.5 1 13.0523 1 12.5V5.5C1 4.67157 1.67157 4 2.5 4H13.5C15.433 4 17 5.567 17 7.5V12.5C17 13.0523 16.5523 13.5 16 13.5H14.9275C14.7124 14.2229 14.0428 14.75 13.25 14.75C12.4572 14.75 11.7876 14.2229 11.5725 13.5H8.92753C8.71239 14.2229 8.04276 14.75 7.25 14.75C6.61342 14.75 6.05622 14.4101 5.75 13.9019C5.44378 14.4101 4.88658 14.75 4.25 14.75C3.45724 14.75 2.78761 14.2229 2.57247 13.5ZM14 13C14 12.5858 13.6642 12.25 13.25 12.25C12.8358 12.25 12.5 12.5858 12.5 13C12.5 13.4142 12.8358 13.75 13.25 13.75C13.6642 13.75 14 13.4142 14 13ZM3.5 13C3.5 12.5858 3.83579 12.25 4.25 12.25C4.66421 12.25 5 12.5858 5 13C5 13.4142 4.66421 13.75 4.25 13.75C3.83579 13.75 3.5 13.4142 3.5 13ZM6.5 13C6.5 12.5858 6.83579 12.25 7.25 12.25C7.66421 12.25 8 12.5858 8 13C8 13.4142 7.66421 13.75 7.25 13.75C6.83579 13.75 6.5 13.4142 6.5 13Z" fill="#2B2B2C"/>
</svg>
