<svg width="30" height="30" viewBox="0 0 30 30" fill="none" xmlns="http://www.w3.org/2000/svg">
<path d="M28.4 14.2C28.3 14.1 28.2 14 28 14H24.8L22.1 6.7C22 6.3 21.5 6 21.1 6H20V4.5C20 4.2 19.8 4 19.5 4C19.2 4 19 4.2 19 4.5V6H18V3C18 2.7 17.8 2.5 17.5 2.5C17.2 2.5 17 2.7 17 3V6H16.2C15.8 6 15.5 6.3 15.4 6.7C15.3 7.5 14.9 8.2 14.3 8.7C14 9 13.7 9.2 13.5 9.3C13.2 9.4 13 9.5 13 9.5H9C8.9 9.5 8.7 9.6 8.6 9.6L5.3 13H3.5C2.7 13 2 13.7 2 14.5V19.5C2 20.6 2.4 21.4 2.9 21.9C3.1 22.1 3.4 22.3 3.5 22.4C3.6 22.4 3.7 22.5 3.7 22.5H3.8C3.9 22.5 3.9 22.5 4 22.5H4.1L5.4 22.2C7.1 21.8 8.9 21.8 10.5 22.4L11.2 22.6C13 23.2 15 23.1 16.8 22.4C18.3 21.8 19.9 21.7 21.4 22.2L22.4 22.5C22.4 22.5 22.4 22.5 22.5 22.5H22.6H22.9C24.7 22.5 26.4 21.3 26.9 19.6L28.5 14.7C28.5 14.5 28.5 14.3 28.4 14.2ZM22 9.5C22 9.5 22.1 9.5 22 9.5L22.8 11.5H18.5V9.5H22ZM20 14C19.8 14 19.6 14.1 19.6 14.3C19.1 15.2 18.6 15.8 18.1 16.1C17.6 16.4 17.1 16.5 16.5 16.5H3V14.5C3 14.2 3.2 14 3.5 14H5.5C5.6 14 5.8 13.9 5.9 13.9L9.3 10.5H13C13.3 10.5 13.7 10.4 14 10.2C14.3 10 14.7 9.8 15.1 9.4C15.7 8.9 16.3 8 16.5 7H21.1C21.2 7 21.2 7 21.2 7.1L21.7 8.5H18.5C17.9 8.5 17.5 8.9 17.5 9.5V11.5C17.5 12.1 17.9 12.5 18.5 12.5H23.2L23.8 14H20Z" fill="#2B2B2C"/>
<path d="M10.5 14.5C11.0523 14.5 11.5 14.0523 11.5 13.5C11.5 12.9477 11.0523 12.5 10.5 12.5C9.94772 12.5 9.5 12.9477 9.5 13.5C9.5 14.0523 9.94772 14.5 10.5 14.5Z" fill="#2B2B2C"/>
<path d="M23.2 24L22.6 23.8C20.6 22.9 18.3 22.9 16.3 23.8H16.2C14.5 24.5 12.5 24.5 10.8 23.7C9.00002 22.9 7.00002 22.8 5.10002 23.4L3.30002 24C3.00002 24.1 2.90002 24.4 3.00002 24.6C3.10002 24.9 3.40002 25 3.60002 24.9L5.40002 24.3C7.00002 23.8 8.80002 23.9 10.4 24.6C12.4 25.5 14.6 25.5 16.6 24.7H16.7C18.5 24 20.5 24 22.2 24.7L22.8 24.9C23.1 25 23.3 24.9 23.5 24.6C23.6 24.4 23.5 24.1 23.2 24Z" fill="#2B2B2C"/>
<path d="M14.5 14.5C15.0523 14.5 15.5 14.0523 15.5 13.5C15.5 12.9477 15.0523 12.5 14.5 12.5C13.9477 12.5 13.5 12.9477 13.5 13.5C13.5 14.0523 13.9477 14.5 14.5 14.5Z" fill="#2B2B2C"/>
</svg>
