<svg width="18" height="18" viewBox="0 0 18 18" fill="none" xmlns="http://www.w3.org/2000/svg">
<path fill-rule="evenodd" clip-rule="evenodd" d="M16.9 8.2C16.8 8.1 16.7 8 16.5 8H14.9L13.6 4.1C13.5 3.7 13.1 3.5 12.8 3.5H12.5156V2.5C12.5156 2.13672 12.3 2 12 2C11.7 2 11.5 2.2 11.5 2.5V3.5H10.5V1.5C10.5 1.2 10.3 1 10 1C9.7 1 9.5 1.2 9.5 1.5V3.5H9.1C8.7 3.5 8.5 3.8 8.4 4.1C8.4 4.5 8.1 4.8 7.7 5.1C7.6 5.2 7.5 5.3 7.3 5.4L7.1 5.5H7H5.37891L5.1 5.6L3.3 7.5H1.5C1.2 7.5 1 7.7 1 8V10.9C1 11.6 1.3 12.1 1.6 12.5C1.8 12.7 1.9 12.8 2 12.9C2 12.9 2.125 13 2.2 13H2.3H2.4C2.4 13 2.4 13 2.5 13L3.6 12.8C4.4 12.6 5.2 12.8 6 13.1C7.2 13.7 8.7 13.8 9.9 13.2L10.2 13.1C11.1 12.7 12 12.7 12.9 12.9L13.3 13C13.3 13 13.3 13 13.4 13C13.4 13 13.4 13 13.5 13H13.7C15 13 16.1 12.1 16.4 10.9L17 8.6C17 8.5 17 8.3 16.9 8.2ZM2 8.5H3.59375C3.8125 8.5 3.9 8.4 3.9 8.4L5.8 6.5H7C7.2 6.5 7.5 6.4 7.7 6.3C7.9 6.2 8.2 6.1 8.4 5.9C8.8 5.6 9.2 5.1 9.4 4.5H10H12H12.6L13.8 8H12C11.8 8 11.7006 8.14247 11.6 8.3C11.2852 8.79297 11.0273 9.12109 10.8281 9.35156C10.6281 9.55156 10.3 9.5 10 9.5H2V8.5Z" fill="#2B2B2C"/>
<path fill-rule="evenodd" clip-rule="evenodd" d="M14.3 14L13.9 13.9C12.6 13.5 11.2 13.5 9.9 14H9.8C8.7 14.4 7.4 14.4 6.3 13.9C5.1 13.4 3.9 13.3 2.7 13.6L1.4 14C1.1 14.1 1 14.3 1 14.6C1.1 14.9 1.3 15 1.6 15L2.8 14.7C3.8 14.4 4.9 14.5 5.8 14.9C7.2 15.5 8.7 15.5 10.1 15H10.2C11.3 14.6 12.5 14.6 13.5 14.9L13.9 15C14.2 15.1 14.4 14.9 14.5 14.7C14.7 14.4 14.5 14.1 14.3 14Z" fill="#2B2B2C"/>
<path d="M7.5 8.5C7.77614 8.5 8 8.27614 8 8C8 7.72386 7.77614 7.5 7.5 7.5C7.22386 7.5 7 7.72386 7 8C7 8.27614 7.22386 8.5 7.5 8.5Z" fill="#2B2B2C"/>
<path d="M9.5 8.5C9.77614 8.5 10 8.27614 10 8C10 7.72386 9.77614 7.5 9.5 7.5C9.22386 7.5 9 7.72386 9 8C9 8.27614 9.22386 8.5 9.5 8.5Z" fill="#2B2B2C"/>
</svg>
