<svg width="24" height="24" viewBox="0 0 24 24" fill="none" xmlns="http://www.w3.org/2000/svg">
<path fill-rule="evenodd" clip-rule="evenodd" d="M3.8534 6.99055C3.90963 6.42822 4.38281 6 4.94794 6H6V9.59193L3.74472 9.53258C3.69567 9.53129 3.64705 9.53209 3.59896 9.53489L3.8534 6.99055ZM7 9.61825L11 9.72351V6H7V9.61825ZM17.2771 9.8887L12 9.74983V6H12.2185C13.2107 6 14.1563 6.42113 14.82 7.15862L17.2771 9.8887ZM15.5633 6.48966L18.6551 9.92496L19.1763 9.93868C20.4567 9.97237 21.5253 10.8323 21.8771 12H20C19.7239 12 19.5 12.2239 19.5 12.5C19.5 12.7761 19.7239 13 20 13H22V14.9C22 16.043 21.0868 16.9728 19.9501 16.9994C19.7187 18.1408 18.7097 19 17.5 19C16.2905 19 15.2816 18.1411 15.05 17H8.94999C8.71836 18.1411 7.70948 19 6.5 19C5.29052 19 4.28164 18.1411 4.05001 17H3.3C2.58203 17 2 16.418 2 15.7V11.232C2 10.7361 2.212 10.2909 2.54941 9.98053L2.85836 6.89104C2.96571 5.81752 3.86906 5 4.94794 5H12.2185C13.4942 5 14.7099 5.54145 15.5633 6.48966ZM6.5 18C7.32843 18 8 17.3284 8 16.5C8 15.6716 7.32843 15 6.5 15C5.67157 15 5 15.6716 5 16.5C5 17.3284 5.67157 18 6.5 18ZM17.5 18C18.3284 18 19 17.3284 19 16.5C19 15.6716 18.3284 15 17.5 15C16.6716 15 16 15.6716 16 16.5C16 17.3284 16.6716 18 17.5 18ZM12.5 12C12.2239 12 12 12.2239 12 12.5C12 12.7761 12.2239 13 12.5 13H13.5C13.7761 13 14 12.7761 14 12.5C14 12.2239 13.7761 12 13.5 12H12.5ZM6 12.5C6 12.2239 6.22386 12 6.5 12H7.5C7.77614 12 8 12.2239 8 12.5C8 12.7761 7.77614 13 7.5 13H6.5C6.22386 13 6 12.7761 6 12.5Z" fill="#2B2B2C"/>
</svg>
