<svg width="30" height="30" viewBox="0 0 30 30" fill="none" xmlns="http://www.w3.org/2000/svg">
<g clip-path="url(#clip0_1541_88232)">
<path fill-rule="evenodd" clip-rule="evenodd" d="M5.82633 7.5C5.05052 7.5 4.40273 8.09158 4.33249 8.8642L4.04462 12.0308L7 12.0899V7.5H5.82633ZM8 7.5V12.1099L13.4999 12.2199V7.5H8ZM3.3366 8.77366L3.0171 12.2881C2.41059 12.631 2 13.2819 2 14.0303V19.5C2 20.3284 2.67157 21 3.5 21H4.04148C4.27951 22.4188 5.5135 23.5 7 23.5C8.4865 23.5 9.72049 22.4188 9.95852 21H19.0415C19.2795 22.4188 20.5135 23.5 22 23.5C23.4865 23.5 24.7205 22.4188 24.9585 21H25.5C26.8807 21 28 19.8807 28 18.5V15.9406C28 14.0349 26.4753 12.4794 24.57 12.4413L24.1221 12.4323L19.2755 7.95858C18.2595 7.02076 16.9276 6.5 15.545 6.5H5.82633C4.53332 6.5 3.45366 7.48596 3.3366 8.77366ZM18.5972 8.69338L22.6151 12.4022L14.4999 12.2399V7.5H15.545C16.6762 7.5 17.766 7.92608 18.5972 8.69338ZM24.4999 15C24.4999 14.7239 24.7238 14.5 24.9999 14.5H26.5434C26.1003 13.8725 25.3751 13.4576 24.55 13.4411L4.02 13.0305C3.46 13.0193 3 13.4702 3 14.0303V19.5C3 19.7761 3.22386 20 3.5 20H4.04148C4.27953 18.5811 5.51351 17.5 7 17.5C8.48649 17.5 9.72047 18.5811 9.95852 20H19.0415C19.2795 18.5811 20.5135 17.5 22 17.5C23.4865 17.5 24.7205 18.5811 24.9585 20H25.5C26.3284 20 27 19.3284 27 18.5V15.9406C27 15.7903 26.9867 15.6431 26.9613 15.5H24.9999C24.7238 15.5 24.4999 15.2761 24.4999 15ZM7 22.5C8.10457 22.5 9 21.6046 9 20.5C9 19.3954 8.10457 18.5 7 18.5C5.89543 18.5 5 19.3954 5 20.5C5 21.6046 5.89543 22.5 7 22.5ZM22 22.5C23.1046 22.5 24 21.6046 24 20.5C24 19.3954 23.1046 18.5 22 18.5C20.8954 18.5 20 19.3954 20 20.5C20 21.6046 20.8954 22.5 22 22.5ZM15 15C15 14.7239 15.2239 14.5 15.5 14.5H17C17.2761 14.5 17.5 14.7239 17.5 15C17.5 15.2761 17.2761 15.5 17 15.5H15.5C15.2239 15.5 15 15.2761 15 15ZM8.5 14.5C8.22386 14.5 8 14.7239 8 15C8 15.2761 8.22386 15.5 8.5 15.5H10C10.2761 15.5 10.5 15.2761 10.5 15C10.5 14.7239 10.2761 14.5 10 14.5H8.5Z" fill="#2B2B2C"/>
</g>
<defs>
<clipPath id="clip0_1541_88232">
<rect width="30" height="30" fill="white"/>
</clipPath>
</defs>
</svg>
