<svg width="18" height="18" viewBox="0 0 18 18" fill="none" xmlns="http://www.w3.org/2000/svg">
<path d="M15 12.5C15 13.3284 14.3284 14 13.5 14C12.6716 14 12 13.3284 12 12.5C12 11.6716 12.6716 11 13.5 11C14.3284 11 15 11.6716 15 12.5Z" stroke="#2B2B2C"/>
<path fill-rule="evenodd" clip-rule="evenodd" d="M2.84765 5.10101C2.89691 4.75615 3.19226 4.5 3.54061 4.5H4.5V7.09976L2.5713 7.03547L2.84765 5.10101ZM1.51706 7.34402L1.8577 4.95958C1.97734 4.12208 2.69461 3.5 3.54061 3.5H9.13855C10.1478 3.5 11.108 3.93568 11.7726 4.69523L14.1582 7.4217L14.7766 7.44231C15.7575 7.47501 16.578 8.11842 16.8779 9.00003H15.25C14.9739 9.00003 14.75 9.22389 14.75 9.50003C14.75 9.77617 14.9739 10 15.25 10H17V11.3C17 12.1923 16.3126 12.9241 15.4384 12.9945C15.2183 13.8599 14.4339 14.5 13.5 14.5C12.5681 14.5 11.7851 13.8626 11.563 13L8.7 13L6.43698 13C6.21495 13.8626 5.43191 14.5 4.5 14.5C3.56809 14.5 2.78505 13.8626 2.56302 13L2.1 13C1.49248 13 1 12.5075 1 11.9V8.43053C1 7.99119 1.20201 7.60033 1.51706 7.34402ZM4.4921 11.5C3.94345 11.5043 3.5 11.9503 3.5 12.5C3.5 13.0523 3.94772 13.5 4.5 13.5C5.05228 13.5 5.5 13.0523 5.5 12.5C5.5 11.9503 5.05655 11.5043 4.5079 11.5H4.4921ZM12.7895 7.37607L11.02 5.35374C10.5453 4.8112 9.85946 4.5 9.13855 4.5H8.99986V7.24975L12.7895 7.37607ZM7.99986 7.21642V4.5H5.5V7.13309L7.99986 7.21642ZM13.5 13.5C14.0523 13.5 14.5 13.0523 14.5 12.5C14.5 11.9477 14.0523 11.5 13.5 11.5C12.9477 11.5 12.5 11.9477 12.5 12.5C12.5 13.0523 12.9477 13.5 13.5 13.5Z" fill="#2B2B2C"/>
</svg>
