<svg width="30" height="30" viewBox="0 0 30 30" fill="none" xmlns="http://www.w3.org/2000/svg">
<path fill-rule="evenodd" clip-rule="evenodd" d="M2 8.75C2 7.7835 2.7835 7 3.75 7H21.1758C21.8758 7 22.5085 7.41719 22.7843 8.06064L25.3846 14.5739C25.4804 14.6216 25.6138 14.6913 25.7912 14.7907C26.0716 14.9477 26.4637 15.2129 26.9931 15.571C27.227 15.7292 27.4876 15.9055 27.7773 16.0986C27.9164 16.1913 28 16.3475 28 16.5146L28 17.018L26.5 17.018C26.2239 17.018 26 17.2418 26 17.518C26 17.7941 26.2239 18.018 26.5 18.018L28 18.018V20.2451C28 21.2118 27.2163 21.9947 26.25 21.9947H24.9511C24.7215 23.1384 23.7114 24 22.5 24C21.2905 24 20.2816 23.1411 20.05 22H9.94999C9.71836 23.1411 8.70948 24 7.5 24C6.28863 24 5.2785 23.1384 5.04893 21.9947H3.75C2.7835 21.9947 2 21.2112 2 20.2447V8.75ZM3 14V10H3.00002H6.50001L6.5 14H3ZM7.5 14L7.50001 10H11L11 14H7.5ZM12 14L12 10H15.375C15.444 10 15.5 10.056 15.5 10.125V13.875C15.5 13.944 15.444 14 15.375 14H12ZM22.5275 10L19.125 10C19.056 10 19 10.056 19 10.125V14.3049C19 14.3739 19.056 14.4299 19.125 14.4299L24.2417 14.4457L22.5275 10ZM13.125 16C13.125 15.7239 13.3489 15.5 13.625 15.5H15.5C15.7762 15.5 16 15.7239 16 16C16 16.2762 15.7762 16.5 15.5 16.5H13.625C13.3489 16.5 13.125 16.2762 13.125 16ZM6 21.5C6 20.6716 6.67157 20 7.5 20C8.32843 20 9 20.6716 9 21.5C9 22.3284 8.32843 23 7.5 23C6.67157 23 6 22.3284 6 21.5ZM22.5 23C21.6716 23 21 22.3284 21 21.5C21 20.6716 21.6716 20 22.5 20C23.3284 20 24 20.6716 24 21.5C24 22.3284 23.3284 23 22.5 23Z" fill="#2B2B2C"/>
</svg>
