<svg width="30" height="30" viewBox="0 0 30 30" fill="none" xmlns="http://www.w3.org/2000/svg">
<path fill-rule="evenodd" clip-rule="evenodd" d="M3.75 7C2.7835 7 2 7.7835 2 8.75V20.25C2 21.2165 2.7835 22 3.75 22H5.05001C5.28164 23.1411 6.29052 24 7.5 24C8.70948 24 9.71836 23.1411 9.94999 22H20.05C20.2816 23.1411 21.2905 24 22.5 24C23.7095 24 24.7184 23.1411 24.95 22H26.25C27.2163 22 28 21.2172 28 20.2504V16.5C28 16.3328 27.9164 16.1767 27.7773 16.084C26.8317 15.4535 26.1955 15.0714 25.7912 14.845C25.6177 14.7479 25.4864 14.6791 25.3911 14.6314L22.7785 8.10007C22.5128 7.43566 21.8693 7 21.1537 7H3.75ZM20.05 21H9.94999C9.71836 19.8589 8.70948 19 7.5 19C6.29052 19 5.28164 19.8589 5.05001 21H3.75C3.33579 21 3 20.6642 3 20.25V15H15.375C15.9963 15 16.5 14.4963 16.5 13.875V10.625C16.5 10.0037 15.9963 9.5 15.375 9.5H3V8.75C3 8.33579 3.33579 8 3.75 8H21.1537C21.4604 8 21.7362 8.18671 21.8501 8.47146L22.2615 9.5H20.125C19.5037 9.5 19 10.0037 19 10.625V14.375C19 14.9963 19.5037 15.5 20.125 15.5L24.8913 15.5L24.9073 15.5078C24.9858 15.5461 25.1142 15.612 25.3026 15.7175C25.6485 15.9112 26.1941 16.2371 27 16.7684V17H25.5C25.2239 17 25 17.2239 25 17.5C25 17.7761 25.2239 18 25.5 18H27V20.2504C27 20.6644 26.6644 21 26.25 21H24.95C24.7184 19.8589 23.7095 19 22.5 19C21.2905 19 20.2816 19.8589 20.05 21ZM21 21.5C21 22.3284 21.6716 23 22.5 23C23.3284 23 24 22.3284 24 21.5C24 20.6716 23.3284 20 22.5 20C21.6716 20 21 20.6716 21 21.5ZM9 21.5C9 20.6716 8.32843 20 7.5 20C6.67157 20 6 20.6716 6 21.5C6 22.3284 6.67157 23 7.5 23C8.32843 23 9 22.3284 9 21.5ZM20.125 10.5H22.6615L24.2615 14.5L20.125 14.5C20.056 14.5 20 14.444 20 14.375V10.625C20 10.556 20.056 10.5 20.125 10.5ZM3 14V10.5H6.5V14H3ZM7.5 14V10.5H11V14H7.5ZM12 14V10.5H15.375C15.444 10.5 15.5 10.556 15.5 10.625V13.875C15.5 13.944 15.444 14 15.375 14H12ZM14.125 16.5C13.8489 16.5 13.625 16.7239 13.625 17C13.625 17.2761 13.8489 17.5 14.125 17.5H16C16.2761 17.5 16.5 17.2761 16.5 17C16.5 16.7239 16.2761 16.5 16 16.5H14.125Z" fill="#2B2B2C"/>
</svg>
