<svg width="24" height="24" viewBox="0 0 24 24" fill="none" xmlns="http://www.w3.org/2000/svg">
<path fill-rule="evenodd" clip-rule="evenodd" d="M3.5 5.5C2.67157 5.5 2 6.17157 2 7V16C2 16.8284 2.67157 17.5 3.5 17.5H4.56301C4.78503 18.3626 5.56808 19 6.5 19C7.43192 19 8.21497 18.3626 8.43699 17.5H15.563C15.785 18.3626 16.5681 19 17.5 19C18.4319 19 19.215 18.3626 19.437 17.5H20.5C21.3282 17.5 22 16.829 22 16.0004V13C22 12.8106 21.893 12.6375 21.7236 12.5528L19.9088 11.6454L18.2023 6.52566C17.9981 5.91315 17.4249 5.5 16.7792 5.5H3.5ZM15.563 16.5H8.43699C8.21497 15.6374 7.43192 15 6.5 15C5.56808 15 4.78503 15.6374 4.56301 16.5H3.5C3.22386 16.5 3 16.2761 3 16V12H12.5C13.0523 12 13.5 11.5523 13.5 11V8.5C13.5 7.94772 13.0523 7.5 12.5 7.5H3V7C3 6.72386 3.22386 6.5 3.5 6.5H16.7792C16.9945 6.5 17.1855 6.63772 17.2536 6.84189L17.473 7.5H16C15.4477 7.5 15 7.94772 15 8.5V11.5C15 12.0523 15.4477 12.5 16 12.5H19.382L21 13.309V13.5H20C19.7239 13.5 19.5 13.7239 19.5 14C19.5 14.2761 19.7239 14.5 20 14.5H21V16.0004C21 16.2763 20.7764 16.5 20.5 16.5H19.437C19.215 15.6374 18.4319 15 17.5 15C16.5681 15 15.785 15.6374 15.563 16.5ZM16.5 17C16.5 17.5523 16.9477 18 17.5 18C18.0523 18 18.5 17.5523 18.5 17C18.5 16.4477 18.0523 16 17.5 16C16.9477 16 16.5 16.4477 16.5 17ZM7.5 17C7.5 16.4477 7.05228 16 6.5 16C5.94772 16 5.5 16.4477 5.5 17C5.5 17.5523 5.94772 18 6.5 18C7.05228 18 7.5 17.5523 7.5 17ZM16 8.5H17.8063L18.8063 11.5H16V8.5ZM3 11V8.5H5.5V11H3ZM6.5 11V8.5H9V11H6.5ZM10 11V8.5H12.5V11H10ZM11.5 13C11.2239 13 11 13.2239 11 13.5C11 13.7761 11.2239 14 11.5 14H13C13.2761 14 13.5 13.7761 13.5 13.5C13.5 13.2239 13.2761 13 13 13H11.5Z" fill="#2B2B2C"/>
</svg>
