<svg width="24" height="24" viewBox="0 0 24 24" fill="none" xmlns="http://www.w3.org/2000/svg">
<path fill-rule="evenodd" clip-rule="evenodd" d="M2 7C2 6.17157 2.67157 5.5 3.5 5.5H16.7792C17.4249 5.5 17.9981 5.91315 18.2023 6.52566L19.9088 11.6454L21.7236 12.5528C21.893 12.6375 22 12.8106 22 13V13.0001V13.0002V13.0003V13.0005V13.0007V13.0009V13.0012V13.0016V13.0019V13.0023V13.0028V13.0032V13.0038V13.0043V13.0049V13.0055V13.0062V13.0069V13.0076V13.0084V13.0092V13.0101V13.0109V13.0119V13.0128V13.0138V13.0148V13.0159V13.017V13.0182V13.0193V13.0205V13.0218V13.0231V13.0244V13.0257V13.0271V13.0285V13.03V13.0315V13.033V13.0346V13.0362V13.0378V13.0395V13.0412V13.0429V13.0447V13.0465V13.0483V13.0502V13.0521V13.0541V13.056V13.058V13.0601V13.0622V13.0643V13.0664V13.0686V13.0708V13.073V13.0753V13.0776V13.0799V13.0823V13.0847V13.0872V13.0896V13.0921V13.0947V13.0972V13.0998V13.1024V13.1051V13.1078V13.1105V13.1133V13.1161V13.1189V13.1217V13.1246V13.1275V13.1305V13.1334V13.1364V13.1395V13.1425V13.1456V13.1488V13.1519V13.1551V13.1583V13.1616V13.1648V13.1682V13.1715V13.1749V13.1783V13.1817V13.1851V13.1886V13.1921V13.1957V13.1992V13.2028V13.2065V13.2101V13.2138V13.2175V13.2213V13.225V13.2288V13.2327V13.2365V13.2404V13.2443V13.2483V13.2522V13.2562V13.2602V13.2643V13.2684V13.2725V13.2766V13.2808V13.2849V13.2892V13.2934V13.2977V13.3019V13.3063V13.3106V13.315V13.3194V13.3238V13.3283V13.3327V13.3372V13.3418V13.3463V13.3509V13.3555V13.3601V13.3648V13.3695V13.3742V13.3789V13.3836V13.3884V13.3932V13.3981V13.4029V13.4078V13.4127V13.4176V13.4226V13.4275V13.4325V13.4376V13.4426V13.4477V13.4528V13.4579V13.463V13.4682V13.4734V13.4786V13.4838V13.4891V13.4944V13.4997V13.5H20.5C20.2239 13.5 20 13.7239 20 14C20 14.2761 20.2239 14.5 20.5 14.5H22V14.5071V14.5148V14.5225V14.5302V14.5379V14.5456V14.5533V14.561V14.5688V14.5765V14.5843V14.592V14.5998V14.6076V14.6154V14.6232V14.631V14.6388V14.6466V14.6544V14.6622V14.6701V14.6779V14.6858V14.6936V14.7015V14.7094V14.7172V14.7251V14.733V14.7409V14.7488V14.7567V14.7646V14.7725V14.7804V14.7884V14.7963V14.8042V14.8122V14.8201V14.8281V14.836V14.844V14.852V14.8599V14.8679V14.8759V14.8839V14.8918V14.8998V14.9078V14.9158V14.9238V14.9318V14.9399V14.9479V14.9559V14.9639V14.9719V14.98V14.988V14.996V15.0041V15.0121V15.0201V15.0282V15.0362V15.0443V15.0523V15.0604V15.0684V15.0765V15.0846V15.0926V15.1007V15.1088V15.1168V15.1249V15.133V15.141V15.1491V15.1572V15.1653V15.1733V15.1814V15.1895V15.1976V15.2056V15.2137V15.2218V15.2299V15.238V15.246V15.2541V15.2622V15.2703V15.2783V15.2864V15.2945V15.3026V15.3107V15.3187V15.3268V15.3349V15.343V15.351V15.3591V15.3672V15.3752V15.3833V15.3914V15.3994V15.4075V15.4156V15.4236V15.4317V15.4397V15.4478V15.4558V15.4639V15.4719V15.48V15.488V15.496V15.5041V15.5121V15.5201V15.5282V15.5362V15.5442V15.5522V15.5602V15.5682V15.5762V15.5842V15.5922V15.6002V15.6082V15.6162V15.6242V15.6322V15.6401V15.6481V15.6561V15.664V15.672V15.6799V15.6878V15.6958V15.7037V15.7116V15.7196V15.7275V15.7354V15.7433V15.7512V15.7591V15.767V15.7749V15.7827V15.7906V15.7985V15.8063V15.8142V15.822V15.8298V15.8377V15.8455V15.8533V15.8611V15.8689V15.8767V15.8845V15.8923V15.9001V15.9078V15.9156V15.9233V15.9311V15.9388V15.9465V15.9542V15.9619V15.9696V15.9773V15.985V15.9927V16.0004C22 16.829 21.3282 17.5 20.5 17.5H19.437C19.215 18.3626 18.4319 19 17.5 19C16.5681 19 15.785 18.3626 15.563 17.5H8.43699C8.21497 18.3626 7.43192 19 6.5 19C5.56808 19 4.78503 18.3626 4.56301 17.5H3.5C2.67157 17.5 2 16.8284 2 16V12.5V7ZM17.6396 8H15.5C15.2239 8 15 8.22386 15 8.5V11C15 11.2761 15.2239 11.5 15.5 11.5H18.8063L17.6396 8ZM3 8V11H5.5V8H3ZM6.5 8V11H9V8H6.5ZM10 8V11H12.5V8H10ZM10.5 13.5C10.5 13.2239 10.7239 13 11 13H12.5C12.7761 13 13 13.2239 13 13.5C13 13.7761 12.7761 14 12.5 14H11C10.7239 14 10.5 13.7761 10.5 13.5ZM5.5 17C5.5 16.4477 5.94772 16 6.5 16C7.05228 16 7.5 16.4477 7.5 17C7.5 17.5523 7.05228 18 6.5 18C5.94772 18 5.5 17.5523 5.5 17ZM17.5 18C16.9477 18 16.5 17.5523 16.5 17C16.5 16.4477 16.9477 16 17.5 16C18.0523 16 18.5 16.4477 18.5 17C18.5 17.5523 18.0523 18 17.5 18Z" fill="#2B2B2C"/>
</svg>
