<svg width="18" height="18" viewBox="0 0 18 18" fill="none" xmlns="http://www.w3.org/2000/svg">
<path fill-rule="evenodd" clip-rule="evenodd" d="M2.25 4C1.55964 4 1 4.55964 1 5.25V12.25C1 12.9404 1.55964 13.5 2.25 13.5H3.26772C3.38903 14.3481 4.11838 15 5 15C5.88162 15 6.61097 14.3481 6.73228 13.5H11.2677C11.389 14.3481 12.1184 15 13 15C13.8816 15 14.611 14.3481 14.7323 13.5H15.75C16.4401 13.5 17 12.9409 17 12.2503V10.5V10C17 9.83284 16.9164 9.67672 16.7774 9.58399L15.4201 8.67915L14.1453 4.85472C13.9751 4.34429 13.4975 4 12.9594 4H2.25ZM11.4184 12.5C11.6993 11.9088 12.3019 11.5 13 11.5C13.6981 11.5 14.3007 11.9088 14.5816 12.5H15.75C15.8883 12.5 16 12.3881 16 12.2503V11H15C14.7239 11 14.5 10.7761 14.5 10.5C14.5 10.2239 14.7239 10 15 10H15.5986L14.8488 9.50012L11.5 9.50002C11.2239 9.50002 11 9.27616 11 9.00002V6.50002C11 6.22387 11.2239 6.00002 11.5 6.00002H13.473L13.1966 5.17094C13.1626 5.06886 13.067 5 12.9594 5H2.25C2.11193 5 2 5.11193 2 5.25V6.00002H9C9.27614 6.00002 9.5 6.22387 9.5 6.50002V9.00002C9.5 9.27616 9.27614 9.50002 9 9.50002H2V12.25C2 12.3881 2.11193 12.5 2.25 12.5H3.41841C3.69927 11.9088 4.3019 11.5 5 11.5C5.6981 11.5 6.30073 11.9088 6.58159 12.5H11.4184ZM3.5 8.50002H2V7.00002H3.5V8.50002ZM4.5 8.50002V7.00002H6V8.50002H4.5ZM7 8.50002V7.00002H8.5V8.50002H7ZM12 7.00002H13.8063L14.3063 8.50002H12V7.00002ZM5 12.5C4.58579 12.5 4.25 12.8358 4.25 13.25C4.25 13.6642 4.58579 14 5 14C5.41421 14 5.75 13.6642 5.75 13.25C5.75 12.8358 5.41421 12.5 5 12.5ZM13 12.5C12.5858 12.5 12.25 12.8358 12.25 13.25C12.25 13.6642 12.5858 14 13 14C13.4142 14 13.75 13.6642 13.75 13.25C13.75 12.8358 13.4142 12.5 13 12.5Z" fill="#2B2B2C"/>
</svg>
