<svg width="18" height="18" viewBox="0 0 18 18" fill="none" xmlns="http://www.w3.org/2000/svg">
<path fill-rule="evenodd" clip-rule="evenodd" d="M2.25 4C1.55964 4 1 4.55964 1 5.25V12.25C1 12.9404 1.55964 13.5 2.25 13.5H3.26772C3.38903 14.3481 4.11838 15 5 15C5.88162 15 6.61097 14.3481 6.73228 13.5H11.2677C11.389 14.3481 12.1184 15 13 15C13.8816 15 14.611 14.3481 14.7323 13.5H15.75C16.4401 13.5 17 12.9409 17 12.2503V10.5H17H15.5C15.2238 10.5 15 10.2761 15 10C15 9.72386 15.2238 9.5 15.5 9.5H17H17C17 9.33283 16.9164 9.17672 16.7774 9.08399L15.4115 8.17345L14.1506 4.81109C13.9677 4.32322 13.5013 4 12.9802 4H2.25ZM9.49998 5.99998H7.49998V8.49998H9.49998V5.99998ZM3.5 8.5L3.49999 5.99998H2V8.5H3.5ZM13.341 5.99998H11V8.49999L14.2785 8.5L13.341 5.99998ZM4.5 8.5L4.49999 5.99998H6.49998V8.49999L4.5 8.5ZM4.25 13.25C4.25 12.8358 4.58579 12.5 5 12.5C5.41421 12.5 5.75 12.8358 5.75 13.25C5.75 13.6642 5.41421 14 5 14C4.58579 14 4.25 13.6642 4.25 13.25ZM12.25 13.25C12.25 12.8358 12.5858 12.5 13 12.5C13.4142 12.5 13.75 12.8358 13.75 13.25C13.75 13.6642 13.4142 14 13 14C12.5858 14 12.25 13.6642 12.25 13.25Z" fill="#2B2B2C"/>
</svg>
