<svg width="18" height="18" viewBox="0 0 18 18" fill="none" xmlns="http://www.w3.org/2000/svg">
<path fill-rule="evenodd" clip-rule="evenodd" d="M10.3 3C10.3 3.27614 10.0762 3.5 9.80005 3.5C9.52391 3.5 9.30005 3.27614 9.30005 3C9.30005 2.72386 9.52391 2.5 9.80005 2.5C10.0762 2.5 10.3 2.72386 10.3 3ZM11.3 3C11.3 3.82843 10.6285 4.5 9.80005 4.5C8.97162 4.5 8.30005 3.82843 8.30005 3C8.30005 2.17157 8.97162 1.5 9.80005 1.5C10.6285 1.5 11.3 2.17157 11.3 3ZM8.51921 6.40149C8.58097 6.19304 8.77248 6.05005 8.98988 6.05005C9.32285 6.05005 9.55922 6.37449 9.45715 6.69143L8.58577 9.3973L7.68494 9.21713L8.51921 6.40149ZM7.42598 10.1851L8.22994 10.3459L7.24629 12.7183L4.96699 14.2378L4.61536 13.9741L6.72735 12.5661C6.83284 12.4957 6.90767 12.388 6.93671 12.2646L7.42598 10.1851ZM7.43418 6.54344L5.94896 6.87349L5.43072 8.68732C5.35486 8.95284 5.07811 9.10658 4.8126 9.03072C4.54708 8.95486 4.39333 8.67812 4.4692 8.4126L5.0692 6.3126C5.11958 6.13626 5.26246 6.00165 5.44149 5.96187L8.05241 5.38166C8.31135 5.17231 8.63955 5.05005 8.98988 5.05005C9.68216 5.05005 10.237 5.51185 10.4186 6.11198C10.4493 6.14547 10.4759 6.18372 10.4972 6.22635L11.6122 8.45632L12.9357 8.98572C13.192 9.08828 13.3168 9.37926 13.2142 9.63566C13.1116 9.89205 12.8207 10.0168 12.5643 9.9142L11.0643 9.3142C10.9506 9.26872 10.8575 9.1831 10.8027 9.07357L10.1567 7.78147L9.514 9.77721L11.5975 11.7904C11.6727 11.8631 11.7233 11.9576 11.742 12.0605L12.342 15.3605C12.3891 15.6198 12.227 15.8711 11.9713 15.935L10.7713 16.235C10.6405 16.2678 10.5019 16.2462 10.3872 16.1753C10.2724 16.1044 10.1912 15.9901 10.162 15.8584L9.59354 13.3006L8.52886 12.2359L8.11187 13.2416C8.07395 13.333 8.00973 13.4112 7.92735 13.4661L5.22735 15.2661C5.05096 15.3837 4.81959 15.3772 4.65 15.25L3.45 14.35C3.32018 14.2527 3.24569 14.0984 3.25019 13.9362C3.2547 13.774 3.33763 13.624 3.47265 13.534L6.00848 11.8435L6.56329 9.48553C6.56547 9.47629 6.5679 9.46711 6.5706 9.458L7.43418 6.54344ZM10.4036 12.6964L8.94337 11.2362L9.12684 10.7937L10.7869 12.3977L11.2743 15.0785L11.0268 15.1404L10.5381 12.9415C10.5175 12.8487 10.4708 12.7637 10.4036 12.6964Z" fill="#2B2B2C"/>
</svg>
