<svg width="30" height="30" viewBox="0 0 30 30" fill="none" xmlns="http://www.w3.org/2000/svg">
<path fill-rule="evenodd" clip-rule="evenodd" d="M14.5 6C14.5 4.61929 15.6193 3.5 17 3.5C18.3807 3.5 19.5 4.61929 19.5 6C19.5 7.38071 18.3807 8.5 17 8.5C15.6193 8.5 14.5 7.38071 14.5 6ZM15.7331 10C15.2232 10 14.774 10.3354 14.6291 10.8244L13.1349 15.8671L15.2858 16.2973L16.8292 11.5045C17.0686 10.761 16.5142 10 15.7331 10ZM14.3221 9.52733C14.7042 9.19552 15.2009 9 15.7331 9C16.7632 9 17.5824 9.70849 17.8178 10.6138C17.8703 10.657 17.9148 10.7116 17.9472 10.7764L19.8622 14.6063L22.1857 15.5357C22.4421 15.6383 22.5668 15.9293 22.4642 16.1857C22.3617 16.4421 22.0707 16.5668 21.8143 16.4642L19.3143 15.4642C19.2006 15.4187 19.1076 15.3331 19.0528 15.2236L17.6108 12.3397L16.2257 16.6408L19.8474 20.1404C19.9227 20.2131 19.9732 20.3076 19.9919 20.4105L20.9919 25.9105C21.0391 26.1698 20.8769 26.4211 20.6213 26.485L18.6213 26.985C18.4904 27.0177 18.3519 26.9962 18.2371 26.9253C18.1224 26.8544 18.0412 26.7401 18.0119 26.6084L17.0435 22.2505L14.8478 20.0549L13.9619 22.1915C13.924 22.283 13.8597 22.3611 13.7774 22.416L9.27735 25.416C9.10096 25.5336 8.86959 25.5272 8.7 25.4L6.7 23.9C6.57018 23.8026 6.49569 23.6483 6.50019 23.4861C6.5047 23.3239 6.58763 23.174 6.72265 23.084L11.0585 20.1934L12.0133 16.1355C12.0155 16.1262 12.0179 16.1171 12.0206 16.108L13.6207 10.7076L10.399 11.4235L9.48077 14.6373C9.40491 14.9029 9.12816 15.0566 8.86265 14.9807C8.59713 14.9049 8.44338 14.6281 8.51924 14.3626L9.51924 10.8626C9.56963 10.6863 9.71251 10.5517 9.89154 10.5119L14.3221 9.52733Z" fill="#2B2B2C"/>
</svg>
