<svg width="30" height="30" viewBox="0 0 30 30" fill="none" xmlns="http://www.w3.org/2000/svg">
<path fill-rule="evenodd" clip-rule="evenodd" d="M15.5 6C15.5 5.17157 16.1716 4.5 17 4.5C17.8284 4.5 18.5 5.17157 18.5 6C18.5 6.82843 17.8284 7.5 17 7.5C16.1716 7.5 15.5 6.82843 15.5 6ZM17 3.5C15.6193 3.5 14.5 4.61929 14.5 6C14.5 7.38071 15.6193 8.5 17 8.5C18.3807 8.5 19.5 7.38071 19.5 6C19.5 4.61929 18.3807 3.5 17 3.5ZM14.6291 10.8244C14.774 10.3354 15.2232 10 15.7331 10C16.5142 10 17.0686 10.761 16.8292 11.5045L15.2858 16.2973L13.1349 15.8671L14.6291 10.8244ZM12.876 16.8351L14.9299 17.2459L13.0963 21.6682L9.01699 24.3877L7.86536 23.524L11.7774 20.916C11.8828 20.8457 11.9577 20.7379 11.9867 20.6145L12.876 16.8351ZM15.7331 9C15.2009 9 14.7041 9.19553 14.3221 9.52735L9.89155 10.5119C9.71252 10.5517 9.56964 10.6863 9.51925 10.8626L8.51925 14.3626C8.44339 14.6282 8.59714 14.9049 8.86266 14.9808C9.12817 15.0566 9.40492 14.9029 9.48078 14.6374L10.399 11.4235L13.6207 10.7076L12.0206 16.108C12.0179 16.1171 12.0155 16.1262 12.0133 16.1355L11.0585 20.1934L6.72265 23.084C6.58763 23.174 6.5047 23.3239 6.50019 23.4861C6.49569 23.6483 6.57019 23.8026 6.7 23.9L8.7 25.4C8.86959 25.5272 9.10096 25.5336 9.27735 25.416L13.7774 22.416C13.8597 22.3611 13.924 22.283 13.9619 22.1915L14.8478 20.0549L17.0435 22.2505L18.0119 26.6084C18.0412 26.7401 18.1224 26.8544 18.2371 26.9253C18.3519 26.9962 18.4904 27.0177 18.6213 26.985L20.6213 26.485C20.8769 26.4211 21.0391 26.1698 20.9919 25.9105L19.9919 20.4105C19.9732 20.3076 19.9227 20.2131 19.8474 20.1404L16.2257 16.6408L17.6108 12.3396L19.0528 15.2236C19.1076 15.3331 19.2006 15.4188 19.3143 15.4642L21.8143 16.4642C22.0707 16.5668 22.3617 16.4421 22.4643 16.1857C22.5668 15.9293 22.4421 15.6383 22.1857 15.5358L19.8622 14.6064L17.9472 10.7764C17.9149 10.7116 17.8703 10.657 17.8178 10.6138C17.5824 9.70849 16.7632 9 15.7331 9ZM15.8409 17.6596L15.256 19.0703C15.2908 19.0911 15.3236 19.1165 15.3536 19.1464L17.8536 21.6464C17.9208 21.7136 17.9675 21.7987 17.9881 21.8915L18.8767 25.8904L19.9243 25.6285L19.0368 20.7477L15.8409 17.6596Z" fill="#2B2B2C"/>
</svg>
