<svg width="24" height="24" viewBox="0 0 24 24" fill="none" xmlns="http://www.w3.org/2000/svg">
<path fill-rule="evenodd" clip-rule="evenodd" d="M13 6.5C14.1046 6.5 15 5.60457 15 4.5C15 3.39543 14.1046 2.5 13 2.5C11.8954 2.5 11 3.39543 11 4.5C11 5.60457 11.8954 6.5 13 6.5ZM11.9865 7.90002C11.6228 7.90002 11.3025 8.13923 11.1991 8.48793L10.0349 12.4171L11.5608 12.7223L12.7682 8.97295C12.9389 8.44277 12.5435 7.90002 11.9865 7.90002ZM10.8116 7.32971C11.1323 7.05898 11.545 6.90002 11.9865 6.90002C12.8471 6.90002 13.5337 7.48418 13.7431 8.23612C13.7846 8.27531 13.8202 8.32234 13.8472 8.37643L15.3622 11.4064L17.1857 12.1358C17.4421 12.2384 17.5668 12.5293 17.4642 12.7857C17.3617 13.0421 17.0707 13.1668 16.8143 13.0643L14.8143 12.2643C14.7006 12.2188 14.6075 12.1332 14.5528 12.0236L13.5087 9.9356L12.4948 13.084L15.3475 15.8404C15.4227 15.9131 15.4732 16.0076 15.492 16.1105L16.292 20.5105C16.3391 20.7698 16.1769 21.0211 15.9213 21.085L14.3213 21.485C14.1904 21.5178 14.0519 21.4962 13.9372 21.4253C13.8224 21.3544 13.7412 21.2401 13.7119 21.1084L12.9435 17.6506L11.3133 16.0204L10.6619 17.5915C10.624 17.683 10.5597 17.7611 10.4774 17.816L6.87735 20.216C6.70096 20.3336 6.46959 20.3272 6.3 20.2L4.7 19C4.57018 18.9027 4.49569 18.7484 4.50019 18.5862C4.5047 18.4239 4.58763 18.274 4.72265 18.184L8.15848 15.8934L8.91329 12.6855C8.91547 12.6763 8.9179 12.6671 8.9206 12.658L10.1524 8.50058L7.79898 9.02356L7.08074 11.5374C7.00488 11.8029 6.72814 11.9567 6.46262 11.8808C6.1971 11.8049 6.04336 11.5282 6.11922 11.2627L6.91922 8.46267C6.9696 8.28633 7.11249 8.15172 7.29152 8.11194L10.8116 7.32971Z" fill="#2B2B2C"/>
</svg>
