<svg width="24" height="24" viewBox="0 0 24 24" fill="none" xmlns="http://www.w3.org/2000/svg">
<path fill-rule="evenodd" clip-rule="evenodd" d="M10.5 5C10.2239 5 10 5.22386 10 5.5C10 5.77614 10.2239 6 10.5 6H12.8501C13.0477 6 13.2268 6.11637 13.307 6.29693L16.1234 12.6337C15.0656 13.2236 14.5377 14.1808 14.2757 14.9669C14.1431 15.3645 14.0747 15.7287 14.0392 16H7.94999C7.71836 14.8589 6.70948 14 5.5 14C4.11929 14 3 15.1193 3 16.5C3 17.8807 4.11929 19 5.5 19C6.70948 19 7.71836 18.1411 7.94999 17H14.5C14.776 17 14.9998 16.7763 15 16.5004C15.0006 16.473 15.0016 16.4457 15.0031 16.4184C15.0065 16.3582 15.0133 16.2681 15.0274 16.1558C15.0556 15.93 15.1121 15.6197 15.2243 15.2831C15.4321 14.6598 15.8167 13.9836 16.5318 13.5527L16.9647 14.5268C16.3776 14.9843 16 15.698 16 16.5C16 17.8807 17.1193 19 18.5 19C19.8807 19 21 17.8807 21 16.5C21 15.1193 19.8807 14 18.5 14C18.2793 14 18.0653 14.0286 17.8615 14.0823L14.2208 5.89079C13.9801 5.3491 13.4429 5 12.8501 5H10.5ZM7 16.5C7 15.6716 6.32843 15 5.5 15C4.67157 15 4 15.6716 4 16.5C4 17.3284 4.67157 18 5.5 18C6.32843 18 7 17.3284 7 16.5ZM18.5 18C19.3284 18 20 17.3284 20 16.5C20 15.6716 19.3284 15 18.5 15C17.6716 15 17 15.6716 17 16.5C17 17.3284 17.6716 18 18.5 18Z" fill="#2B2B2C"/>
</svg>
