<svg width="18" height="18" viewBox="0 0 18 18" fill="none" xmlns="http://www.w3.org/2000/svg">
<path fill-rule="evenodd" clip-rule="evenodd" d="M4.56017 6.09295C4.74244 5.4465 5.33223 5 6.00389 5H7.0001V7.1596L4.29 7.05119L4.56017 6.09295ZM3.18284 7.29302L3.5977 5.82159C3.90147 4.74416 4.88445 4 6.00389 4H8.1788C9.79366 4 11.2847 4.86529 12.0859 6.26738L12.7266 7.38866L13.36 7.41399C14.8349 7.47299 16.0001 8.68577 16.0001 10.1618V10.8C16.0001 11.6955 15.3076 12.4293 14.429 12.4952C14.2154 13.2205 13.5445 13.75 12.75 13.75C11.9572 13.75 11.2876 13.2229 11.0725 12.5H6.92753C6.7124 13.2229 6.04276 13.75 5.25 13.75C4.44922 13.75 3.77407 13.2122 3.56608 12.478C2.68954 12.3361 2.04968 11.5262 2.15122 10.6123L2.3797 8.55599C2.4398 8.01511 2.7487 7.55871 3.18284 7.29302ZM11.5479 7.34151L11.2177 6.76351C10.5945 5.673 9.4348 5 8.1788 5H8.0001V7.19959L11.5479 7.34151ZM14.0001 9C13.7239 9 13.5001 9.22386 13.5001 9.5C13.5001 9.77614 13.7239 10 14.0001 10H14.9927C14.9976 10.0533 15.0001 10.1073 15.0001 10.1618V10.8C15.0001 11.1442 14.7516 11.4304 14.4242 11.489C14.2056 10.7718 13.5387 10.25 12.75 10.25C11.9572 10.25 11.2876 10.7771 11.0725 11.5H6.92753C6.71239 10.7771 6.04275 10.25 5.25 10.25C4.47462 10.25 3.81702 10.7543 3.58727 11.4528C3.30115 11.3416 3.10894 11.0482 3.14511 10.7227L3.37358 8.66642C3.41416 8.30125 3.73016 8.0296 4.09728 8.04428L13.3201 8.41319C13.814 8.43295 14.2534 8.65609 14.5588 9H14.0001ZM6 12C6 12.4142 5.66421 12.75 5.25 12.75C4.83579 12.75 4.5 12.4142 4.5 12C4.5 11.5858 4.83579 11.25 5.25 11.25C5.66421 11.25 6 11.5858 6 12ZM13.5 12C13.5 12.4142 13.1642 12.75 12.75 12.75C12.3358 12.75 12 12.4142 12 12C12 11.5858 12.3358 11.25 12.75 11.25C13.1642 11.25 13.5 11.5858 13.5 12Z" fill="#2B2B2C"/>
</svg>
