<svg width="24" height="24" viewBox="0 0 24 24" fill="none" xmlns="http://www.w3.org/2000/svg">
<path fill-rule="evenodd" clip-rule="evenodd" d="M13.5 4.5C13.5 5.05228 13.0523 5.5 12.5 5.5C11.9477 5.5 11.5 5.05228 11.5 4.5C11.5 3.94772 11.9477 3.5 12.5 3.5C13.0523 3.5 13.5 3.94772 13.5 4.5ZM14.5 4.5C14.5 5.60457 13.6046 6.5 12.5 6.5C11.3954 6.5 10.5 5.60457 10.5 4.5C10.5 3.39543 11.3954 2.5 12.5 2.5C13.6046 2.5 14.5 3.39543 14.5 4.5ZM11.1202 8.22722C11.2513 8.14626 11.4054 8.09998 11.569 8.09998C11.92 8.09998 12.2144 8.30904 12.3477 8.60136L12.4235 8.98894C12.4218 9.02946 12.4172 9.07044 12.4095 9.11167L11.7013 12.9103L10.1643 12.6029L10.7233 8.82967C10.7315 8.77426 10.7449 8.72075 10.7629 8.6696L11.1202 8.22722ZM9.89787 8.14918C10.2002 7.52207 10.8411 7.09998 11.569 7.09998C12.3216 7.09998 12.9543 7.54302 13.2482 8.16559C13.2754 8.20927 13.2962 8.25781 13.3091 8.31019C13.3774 8.4936 13.4172 8.68977 13.4236 8.89275L14.0739 12.218L15.2287 14.1428C15.3708 14.3796 15.294 14.6867 15.0572 14.8288C14.8204 14.9709 14.5133 14.8941 14.3712 14.6573L13.1712 12.6573C13.1414 12.6075 13.1204 12.5529 13.1093 12.496L12.9488 11.6753L12.6369 13.3479L14.0323 15.7488C14.0614 15.7988 14.0816 15.8536 14.0919 15.9106L14.8919 20.3106C14.9391 20.5698 14.7769 20.8212 14.5213 20.8851L12.9213 21.2851C12.7904 21.3178 12.6519 21.2962 12.5371 21.2253C12.4224 21.1544 12.3412 21.0401 12.3119 20.9085L11.5364 17.419L10.4789 20.9436C10.4365 21.085 10.3338 21.2004 10.1983 21.259C10.0628 21.3175 9.90838 21.3132 9.77637 21.2472L8.17637 20.4472C7.95382 20.3359 7.84695 20.0779 7.92564 19.8419L9.09998 16.3188V13C9.09998 12.9755 9.10178 12.951 9.10538 12.9267L9.50532 10.2271L8.87847 11.0034L8.49613 14.0621C8.46188 14.3361 8.21198 14.5304 7.93797 14.4962C7.66396 14.4619 7.4696 14.212 7.50385 13.938L7.90385 10.738C7.9154 10.6457 7.9525 10.5583 8.01098 10.4859L9.89787 8.14918ZM10.1 13.6099L11.4767 13.8852L10.7193 16.6623L9.69188 20.0869L9.01145 19.7467L10.0743 16.5581C10.0913 16.5071 10.1 16.4537 10.1 16.4V13.6099ZM12.0743 15.8419C12.0594 15.797 12.0386 15.7556 12.0132 15.7183L12.283 14.7291L13.1237 16.1756L13.8243 20.0286L13.1767 20.1904L12.4881 17.0915C12.4844 17.0748 12.4798 17.0582 12.4743 17.0419L12.0743 15.8419Z" fill="#2B2B2C"/>
</svg>
