<svg width="18" height="18" viewBox="0 0 18 18" fill="none" xmlns="http://www.w3.org/2000/svg">
<path fill-rule="evenodd" clip-rule="evenodd" d="M10 3C10 3.27614 9.77614 3.5 9.5 3.5C9.22386 3.5 9 3.27614 9 3C9 2.72386 9.22386 2.5 9.5 2.5C9.77614 2.5 10 2.72386 10 3ZM11 3C11 3.82843 10.3284 4.5 9.5 4.5C8.67157 4.5 8 3.82843 8 3C8 2.17157 8.67157 1.5 9.5 1.5C10.3284 1.5 11 2.17157 11 3ZM8.4119 6.0731C8.48972 6.02653 8.58052 6 8.67678 6C8.88375 6 9.05815 6.12041 9.14117 6.29047L9.19198 6.55029C9.19061 6.57034 9.18806 6.59055 9.18428 6.61086L8.67632 9.33536L7.76428 9.15295L8.16611 6.44059C8.17601 6.37382 8.1984 6.31162 8.23072 6.25623L8.4119 6.0731ZM7.45405 5.61941L5.64457 7.44831C5.56701 7.5267 5.51754 7.62853 5.50386 7.73796L5.20386 10.138C5.16961 10.412 5.36398 10.6619 5.63799 10.6961C5.912 10.7304 6.16189 10.536 6.19614 10.262L6.47505 8.03074L6.99791 7.50226L6.7054 9.47673C6.70181 9.50099 6.7 9.52548 6.7 9.55V12.0189L5.82566 14.6419C5.74698 14.8779 5.85384 15.1359 6.0764 15.2472L7.2764 15.8472C7.40841 15.9132 7.56283 15.9175 7.69832 15.859C7.83381 15.8004 7.93651 15.685 7.97892 15.5437L8.63431 13.3594L9.11187 15.5085C9.14113 15.6402 9.22236 15.7544 9.3371 15.8253C9.45184 15.8963 9.59037 15.9178 9.72123 15.8851L10.9212 15.5851C11.1769 15.5212 11.339 15.2698 11.2919 15.0106L10.6919 11.7106C10.6815 11.6536 10.6614 11.5988 10.6323 11.5488L9.60911 9.78829L9.71488 9.22097C9.72683 9.26888 9.74582 9.3148 9.77127 9.35722L10.6713 10.8572C10.8133 11.094 11.1205 11.1708 11.3573 11.0287C11.5941 10.8866 11.6708 10.5795 11.5288 10.3427L10.6739 8.91794L10.1924 6.45549C10.1863 6.29531 10.1547 6.14042 10.1013 5.99522C10.089 5.94811 10.0702 5.90417 10.0461 5.8642C9.80444 5.3589 9.28916 5 8.67678 5C8.17953 5 7.73193 5.241 7.45405 5.61941ZM7.7 10.1599L8.45168 10.3102L7.91928 12.2624L7.19191 14.6869L6.91148 14.5467L7.67435 12.2581C7.69134 12.2071 7.7 12.1537 7.7 12.1V10.1599ZM9.17431 11.6419C9.16604 11.6171 9.15601 11.5934 9.14441 11.5708L9.25429 11.1679L9.72369 11.9756L10.2242 14.7286L9.9767 14.7904L9.48806 12.5915C9.48433 12.5748 9.47974 12.5582 9.47431 12.5419L9.17431 11.6419Z" fill="#2B2B2C"/>
</svg>
