<svg width="30" height="30" viewBox="0 0 30 30" fill="none" xmlns="http://www.w3.org/2000/svg">
<path fill-rule="evenodd" clip-rule="evenodd" d="M14.5 6C14.5 5.17157 15.1716 4.5 16 4.5C16.8284 4.5 17.5 5.17157 17.5 6C17.5 6.82843 16.8284 7.5 16 7.5C15.1716 7.5 14.5 6.82843 14.5 6ZM16 3.5C14.6193 3.5 13.5 4.61929 13.5 6C13.5 7.38071 14.6193 8.5 16 8.5C17.3807 8.5 18.5 7.38071 18.5 6C18.5 4.61929 17.3807 3.5 16 3.5ZM13.7804 11.0188C13.793 10.9339 13.8143 10.8522 13.8434 10.7746L14.3159 10.1895C14.5029 10.0691 14.725 10 14.9613 10C15.4567 10 15.8714 10.2984 16.0546 10.7136L16.1549 11.2264C16.1531 11.2877 16.1465 11.3499 16.1348 11.4125L15.2263 16.2854L13.0643 15.853L13.7804 11.0188ZM11.4785 13.7033L12.5726 12.3484L12.0054 16.1767C12.0018 16.201 12 16.2255 12 16.25V20.4189L10.5257 24.8419C10.447 25.0779 10.5538 25.3359 10.7764 25.4472L12.7764 26.4472C12.9084 26.5132 13.0628 26.5175 13.1983 26.459C13.3338 26.4004 13.4365 26.285 13.4789 26.1437L14.9198 21.3406L15.0175 21.6336L16.0119 26.1084C16.0412 26.2401 16.1224 26.3544 16.2371 26.4253C16.3519 26.4962 16.4904 26.5178 16.6213 26.485L18.6213 25.985C18.8769 25.9211 19.0391 25.6698 18.9919 25.4105L17.9919 19.9105C17.9816 19.8535 17.9614 19.7988 17.9323 19.7487L16.1648 16.7076L16.6831 13.9277L17.0093 15.596C17.0204 15.6529 17.0414 15.7075 17.0713 15.7572L18.5713 18.2572C18.7133 18.494 19.0205 18.5708 19.2573 18.4287C19.4941 18.2867 19.5708 17.9795 19.4288 17.7428L17.9739 15.318L17.1549 11.1295C17.1482 10.8838 17.1 10.6464 17.0168 10.4248C17.0035 10.3672 16.9807 10.3142 16.9503 10.267C16.6041 9.52715 15.854 9 14.9613 9C14.0957 9 13.334 9.50482 12.979 10.2534L10.611 13.1859C10.5525 13.2583 10.5154 13.3456 10.5039 13.438L10.0039 17.438C9.96962 17.712 10.164 17.9619 10.438 17.9961C10.712 18.0304 10.9619 17.836 10.9962 17.562L11.4785 13.7033ZM13 16.8599L15.0017 17.2602L14.0193 20.8624L12.6919 25.2869L11.6115 24.7467L12.9743 20.6581C12.9913 20.6071 13 20.5537 13 20.5V16.8599ZM15.8118 18.0903L15.3798 19.6745C15.4207 19.7222 15.4532 19.7785 15.4743 19.8419L15.9743 21.3418C15.9798 21.3581 15.9844 21.3747 15.9881 21.3915L16.8767 25.3904L17.9243 25.1285L17.0237 20.1755L15.8118 18.0903Z" fill="#2B2B2C"/>
</svg>
