<svg width="18" height="18" viewBox="0 0 18 18" fill="none" xmlns="http://www.w3.org/2000/svg">
<path fill-rule="evenodd" clip-rule="evenodd" d="M9.5 4.5C10.3284 4.5 11 3.82843 11 3C11 2.17157 10.3284 1.5 9.5 1.5C8.67157 1.5 8 2.17157 8 3C8 3.82843 8.67157 4.5 9.5 4.5ZM8.67678 6C8.58052 6 8.48972 6.02653 8.4119 6.0731L8.23072 6.25623C8.1984 6.31162 8.17601 6.37382 8.16611 6.44059L7.76428 9.15295L8.67632 9.33536L9.18428 6.61086C9.18806 6.59055 9.19061 6.57034 9.19198 6.55029L9.14117 6.29047C9.05815 6.12041 8.88375 6 8.67678 6ZM5.64457 7.44831L7.45405 5.61941C7.73193 5.241 8.17953 5 8.67678 5C9.28916 5 9.80444 5.3589 10.0461 5.8642C10.0702 5.90417 10.089 5.94811 10.1013 5.99522C10.1547 6.14042 10.1863 6.29531 10.1924 6.45549L10.6739 8.91794L11.5288 10.3427C11.6708 10.5795 11.5941 10.8866 11.3573 11.0287C11.1205 11.1708 10.8133 11.094 10.6713 10.8572L9.77127 9.35722C9.74582 9.3148 9.72683 9.26888 9.71488 9.22097L9.60911 9.78829L10.6323 11.5488C10.6614 11.5988 10.6815 11.6536 10.6919 11.7106L11.2919 15.0106C11.339 15.2698 11.1769 15.5212 10.9212 15.5851L9.72123 15.8851C9.59037 15.9178 9.45184 15.8963 9.3371 15.8253C9.22236 15.7544 9.14113 15.6402 9.11187 15.5085L8.63431 13.3594L7.97892 15.5437C7.93651 15.685 7.83381 15.8004 7.69832 15.859C7.56283 15.9175 7.40841 15.9132 7.2764 15.8472L6.0764 15.2472C5.85384 15.1359 5.74698 14.8779 5.82566 14.6419L6.7 12.0189V9.55C6.7 9.52548 6.70181 9.50099 6.7054 9.47673L6.99791 7.50226L6.47505 8.03074L6.19614 10.262C6.16189 10.536 5.912 10.7304 5.63799 10.6961C5.36398 10.6619 5.16961 10.412 5.20386 10.138L5.50386 7.73796C5.51754 7.62853 5.56701 7.5267 5.64457 7.44831Z" fill="#2B2B2C"/>
</svg>
