<svg width="24" height="24" viewBox="0 0 24 24" fill="none" xmlns="http://www.w3.org/2000/svg">
<path fill-rule="evenodd" clip-rule="evenodd" d="M12.5 6.5C13.6046 6.5 14.5 5.60457 14.5 4.5C14.5 3.39543 13.6046 2.5 12.5 2.5C11.3954 2.5 10.5 3.39543 10.5 4.5C10.5 5.60457 11.3954 6.5 12.5 6.5ZM10.7629 8.66974C10.7449 8.72084 10.7315 8.77431 10.7233 8.82967L10.1643 12.6029L11.7013 12.9103L12.4095 9.11167C12.4172 9.07035 12.4218 9.02928 12.4235 8.98868L12.3478 8.6016C12.2146 8.30916 11.9201 8.09998 11.569 8.09998C11.4054 8.09998 11.2514 8.14623 11.1203 8.22715L10.7629 8.66974ZM9.50531 10.2272L8.87853 11.0034L8.49619 14.0621C8.46194 14.3361 8.21205 14.5304 7.93804 14.4962C7.66403 14.4619 7.46966 14.212 7.50391 13.938L7.90391 10.738C7.91546 10.6457 7.95256 10.5583 8.01104 10.4859L9.89778 8.14937C10.2001 7.52215 10.8411 7.09998 11.569 7.09998C12.3214 7.09998 12.954 7.54283 13.248 8.16519C13.2754 8.2091 13.2964 8.25795 13.3093 8.31068C13.3774 8.49383 13.4172 8.68971 13.4236 8.89237L14.0739 12.218L15.2288 14.1428C15.3709 14.3796 15.2941 14.6867 15.0573 14.8288C14.8205 14.9709 14.5134 14.8941 14.3713 14.6573L13.1713 12.6573C13.1414 12.6075 13.1205 12.5529 13.1093 12.496L12.9488 11.6751L12.6369 13.3479L14.0323 15.7488C14.0614 15.7988 14.0816 15.8536 14.0919 15.9106L14.8919 20.3106C14.9391 20.5698 14.7769 20.8212 14.5213 20.8851L12.9213 21.2851C12.7904 21.3178 12.6519 21.2962 12.5371 21.2253C12.4224 21.1544 12.3412 21.0401 12.3119 20.9085L11.5364 17.419L10.4789 20.9436C10.4365 21.085 10.3338 21.2004 10.1983 21.259C10.0628 21.3175 9.90838 21.3132 9.77637 21.2472L8.17637 20.4472C7.95382 20.3359 7.84695 20.0779 7.92564 19.8419L9.09998 16.3188V13C9.09998 12.9755 9.10178 12.951 9.10538 12.9267L9.50531 10.2272Z" fill="#2B2B2C"/>
</svg>
