<svg width="24" height="24" viewBox="0 0 24 24" fill="none" xmlns="http://www.w3.org/2000/svg">
<path fill-rule="evenodd" clip-rule="evenodd" d="M6.5 2C6.77614 2 7 2.22386 7 2.5V3.5V5.5V11V13V18.5V20.5V21.5C7 21.7761 6.77614 22 6.5 22C6.22386 22 6 21.7761 6 21.5V21H5C4.44772 21 4 20.5523 4 20V19C4 18.4477 4.44772 18 5 18H6V13.5H5C4.44772 13.5 4 13.0523 4 12.5V11.5C4 10.9477 4.44772 10.5 5 10.5H6V6H5C4.44772 6 4 5.55228 4 5V4C4 3.44772 4.44772 3 5 3H6V2.5C6 2.22386 6.22386 2 6.5 2ZM6 11.5H5V12.5H6V11.5ZM5 19H6V20H5V19ZM6 4H5V5H6V4ZM17.5 2C17.7761 2 18 2.22386 18 2.5V3L19 3C19.5523 3 20 3.44772 20 4V5C20 5.55228 19.5523 6 19 6H18.5003H18.5L18 6V10.5H18.5H19C19.5523 10.5 20 10.9477 20 11.5V12.5C20 13.0523 19.5523 13.5 19 13.5H18.5H18V18H18.5H19C19.5523 18 20 18.4477 20 19V20C20 20.5523 19.5523 21 19 21H18.5H18V21.5C18 21.7761 17.7761 22 17.5 22C17.2239 22 17 21.7761 17 21.5V21H8V20H17V19H8V18H17V13.5H8V12.5H17V11.5H8V10.5H17V6H8V5H17V4H8V3H17V2.5C17 2.22386 17.2239 2 17.5 2ZM18 11.5V12.5H18.5H19V11.5H18.5H18ZM18 19H18.5H19V20H18.5H18V19ZM18.5004 4L18.5 4L18 4V5L18.5 5H19V4H18.5004Z" fill="#2B2B2C"/>
</svg>
