<svg width="18" height="18" viewBox="0 0 18 18" fill="none" xmlns="http://www.w3.org/2000/svg">
<path fill-rule="evenodd" clip-rule="evenodd" d="M5.5 1C5.77614 1 6 1.22386 6 1.5V2.49637L6.00001 2.5L6 2.50363V7.99717L6.00001 8L6 8.00283V15.5V16.5C6 16.7761 5.77614 17 5.5 17C5.22386 17 5 16.7761 5 16.5V16H3.875C3.39175 16 3 15.6082 3 15.125V13.875C3 13.3918 3.39175 13 3.875 13H5V10.5H3.875C3.39175 10.5 3 10.1082 3 9.625L3.00001 8.375C3.00001 7.89175 3.39176 7.5 3.87501 7.5H5V5H3.875C3.39175 5 3 4.60824 3 4.12499L3.00001 2.87499C3.00001 2.39175 3.39176 2 3.87501 2H5V1.5C5 1.22386 5.22386 1 5.5 1ZM5 8.5H4.00001L4 9.5H5V8.5ZM5 14V15H4V14H5ZM5 3H4.00001L4 4H5V3ZM12.5 1C12.7761 1 13 1.22386 13 1.5V2L14.125 2C14.6082 2 15 2.39175 15 2.875V4.125C15 4.60825 14.6082 5 14.125 5H13V7.5H14.125C14.6082 7.5 15 7.89175 15 8.375V9.625C15 10.1082 14.6082 10.5 14.125 10.5H13V13H14.125C14.6082 13 15 13.3917 15 13.875L15 15.125C15 15.6082 14.6083 16 14.125 16H13V16.5C13 16.7761 12.7761 17 12.5 17C12.2239 17 12 16.7761 12 16.5V16H7V15H12V14H7V13H12V10.5H7V9.5H12V8.5H7V7.5H12V5H7V4H12V3H7V2H12V1.5C12 1.22386 12.2239 1 12.5 1ZM13 9.5V8.5H14V9.5H13ZM13 14V15H14L14 14H13ZM13 4V3L14 3V4H13Z" fill="#2B2B2C"/>
</svg>
