<svg width="30" height="30" viewBox="0 0 30 30" fill="none" xmlns="http://www.w3.org/2000/svg">
<path fill-rule="evenodd" clip-rule="evenodd" d="M9 3C8.44772 3 8 3.44771 8 4L7.125 4C6.50368 4 6 4.50368 6 5.125V6.875C6 7.49632 6.50368 8 7.125 8H8V13H7.125C6.50368 13 6 13.5037 6 14.125V15.875C6 16.4963 6.50368 17 7.125 17H8V22H7.125C6.50368 22 6 22.5037 6 23.125V24.875C6 25.4963 6.50368 26 7.125 26H8C8 26.5523 8.44772 27 9 27H10C10.5523 27 11 26.5523 11 26H19C19 26.5523 19.4477 27 20 27H21C21.5523 27 22 26.5523 22 26H22.875C23.4963 26 24 25.4963 24 24.875V23.125C24 22.5037 23.4963 22 22.875 22H22V17H22.875C23.4963 17 24 16.4963 24 15.875V14.125C24 13.5037 23.4963 13 22.875 13H22V8L22.875 8C23.4963 8 24 7.49632 24 6.875V5.125C24 4.50368 23.4963 4 22.875 4L22 4C22 3.44772 21.5523 3 21 3H20C19.4477 3 19 3.44771 19 4L11 4C11 3.44772 10.5523 3 10 3H9ZM19 22H11V17H19V22ZM9.99997 16H10V14H9.99997V13H10V4L9 4V4.5V7.5V13.5V16.5V22.5V25.5V26H10V25V23V22V17H9.99997V16ZM19 13H11V8H19V13ZM20 22.5V25.5V26H21V25.5V22.5V16.5V13.5V7.5V4.5V4L20 4V22.5Z" fill="#2B2B2C"/>
</svg>
