<svg width="30" height="30" viewBox="0 0 30 30" fill="none" xmlns="http://www.w3.org/2000/svg">
<path fill-rule="evenodd" clip-rule="evenodd" d="M8 4C8 3.44771 8.44772 3 9 3H10C10.5523 3 11 3.44772 11 4L19 4C19 3.44771 19.4477 3 20 3H21C21.5523 3 22 3.44772 22 4L22.875 4C23.4963 4 24 4.50368 24 5.125V6.875C24 7.49632 23.4963 8 22.875 8L22 8V13H22.875C23.4963 13 24 13.5037 24 14.125V15.875C24 16.4963 23.4963 17 22.875 17H22V22H22.875C23.4963 22 24 22.5037 24 23.125V24.875C24 25.4963 23.4963 26 22.875 26H22C22 26.5523 21.5523 27 21 27H20C19.4477 27 19 26.5523 19 26H11C11 26.5523 10.5523 27 10 27H9C8.44772 27 8 26.5523 8 26H7.125C6.50368 26 6 25.4963 6 24.875V23.125C6 22.5037 6.50368 22 7.125 22H8V17H7.125C6.50368 17 6 16.4963 6 15.875V14.125C6 13.5037 6.50368 13 7.125 13H8V8H7.125C6.50368 8 6 7.49632 6 6.875V5.125C6 4.50368 6.50368 4 7.125 4L8 4ZM11 25H19V23H11V25ZM11 22H19V17H11V22ZM10 16H9.99998V17H10V22V23V25V26H9V25.5V22.5V16.5V13.5V7.5V4.5V4L10 4V13H9.99998V14H10V16ZM11 16H19V14H11V16ZM11 13H19V8H11V13ZM20 25.5V22.5V4L21 4V4.5V7.5V13.5V16.5V22.5V25.5V26H20V25.5ZM11 7H19V5H11V7ZM7.125 7H8V5H7.125C7.05596 5 7 5.05596 7 5.125V6.875C7 6.94404 7.05596 7 7.125 7ZM7.125 25H8V23H7.125C7.05596 23 7 23.056 7 23.125V24.875C7 24.944 7.05596 25 7.125 25ZM8 14H7.125C7.05596 14 7 14.056 7 14.125V15.875C7 15.944 7.05596 16 7.125 16H8V14ZM22 7L22.875 7C22.944 7 23 6.94404 23 6.875V5.125C23 5.05596 22.944 5 22.875 5L22 5V7ZM22.875 14H22V16H22.875C22.944 16 23 15.944 23 15.875V14.125C23 14.056 22.944 14 22.875 14ZM22 25H22.875C22.944 25 23 24.944 23 24.875V23.125C23 23.056 22.944 23 22.875 23H22V25Z" fill="#2B2B2C"/>
</svg>
