<svg width="18" height="18" viewBox="0 0 18 18" fill="none" xmlns="http://www.w3.org/2000/svg">
<path fill-rule="evenodd" clip-rule="evenodd" d="M6 1.5C6 1.22386 5.77614 1 5.5 1C5.22386 1 5 1.22386 5 1.5V2H3.87501C3.39176 2 3.00001 2.39175 3.00001 2.87499L3 4.12499V4.12499C2.99999 4.60825 3.39175 5 3.875 5H5V8H3.87501C3.6679 8 3.50001 8.16789 3.50001 8.375L3.5 9.625C3.5 9.83211 3.66789 10 3.875 10H5V13H3.875C3.39175 13 3 13.3918 3 13.875V15.125C3 15.6082 3.39175 16 3.875 16H5V16.5C5 16.7761 5.22386 17 5.5 17C5.77614 17 6 16.7761 6 16.5V15.125V13.875V4.12501L6.00001 2.87501L6 2.87077V1.5ZM13 1.5C13 1.22386 12.7761 1 12.5 1C12.2239 1 12 1.22386 12 1.5V2H7V3V4V5H12V7.5H7V8.5V9.5V10.5H12V13H7V14V15V16H12V16.5C12 16.7761 12.2239 17 12.5 17C12.7761 17 13 16.7761 13 16.5V16H14.125C14.6083 16 15 15.6082 15 15.125L15 13.875C15 13.3917 14.6082 13 14.125 13H13V10.5H14.125C14.6082 10.5 15 10.1082 15 9.625V8.375C15 7.89175 14.6082 7.5 14.125 7.5H13V5H14.125C14.6082 5 15 4.60825 15 4.125V2.875C15 2.39175 14.6082 2 14.125 2L13 2V1.5Z" fill="#2B2B2C"/>
</svg>
