<svg width="24" height="24" viewBox="0 0 24 24" fill="none" xmlns="http://www.w3.org/2000/svg">
<path fill-rule="evenodd" clip-rule="evenodd" d="M6.8254 3.12038C6.61574 2.94067 6.30009 2.96495 6.12038 3.17461C5.94067 3.38428 5.96495 3.69993 6.17461 3.87964L8.64837 6H3C2.44772 6 2 6.44772 2 7V8.5V13.5V16C2 16.5523 2.44772 17 3 17H18.6497C20.7762 17 22.5 15.2762 22.5 13.1497C22.5 11.9543 21.9448 10.8267 20.9973 10.0979L16.6136 6.72582C16.0018 6.25518 15.2515 6 14.4796 6H10.185L6.8254 3.12038ZM9.99553 7C9.99836 7.00002 10.0012 7.00002 10.004 7H14.4796C15.031 7 15.5669 7.18227 16.0039 7.51844L16.6299 8H15C14.4477 8 14 8.44772 14 9V13.5C14 13.7761 14.2239 14 14.5 14H21.371C21.0093 15.1589 19.9277 16 18.6497 16H3V14H12.5C12.7761 14 13 13.7761 13 13.5V8.5C13 8.22386 12.7761 8 12.5 8H3V7H9.99553ZM3 13V9H7V13H3ZM21.4961 13C21.4526 12.1712 21.0493 11.3995 20.3876 10.8905L17.9299 9H15V13H21.4961ZM8 9V13H12V9H8ZM2 18.5C2 18.2239 2.22386 18 2.5 18H18.5C18.7761 18 19 18.2239 19 18.5C19 18.7761 18.7761 19 18.5 19H2.5C2.22386 19 2 18.7761 2 18.5Z" fill="#2B2B2C"/>
</svg>
