<svg width="30" height="30" viewBox="0 0 30 30" fill="none" xmlns="http://www.w3.org/2000/svg">
<path fill-rule="evenodd" clip-rule="evenodd" d="M7.12372 3.67075C7.30556 3.46294 7.62144 3.44188 7.82926 3.62372L11.6879 7H17.9467C19.0739 7 20.1549 7.44777 20.9519 8.2448L26.6109 13.9038C27.5003 14.7932 28 15.9995 28 17.2574C28 19.8766 25.8766 22 23.2574 22H3.125C2.50368 22 2 21.4963 2 20.875V17V10V8.125C2 7.50368 2.50368 7 3.125 7H10.1693L7.17075 4.3763C6.96294 4.19445 6.94188 3.87857 7.12372 3.67075ZM3 11V16.5H8.5V11H3ZM9.5 11V16.5H15V11H9.5ZM17.5 16.5H26.9226C26.7758 15.7897 26.4244 15.1315 25.9038 14.6109L21.7929 10.5H18C17.7239 10.5 17.5 10.7239 17.5 11V16.5ZM2.5 23C2.22386 23 2 23.2239 2 23.5C2 23.7761 2.22386 24 2.5 24H23.5C23.7761 24 24 23.7761 24 23.5C24 23.2239 23.7761 23 23.5 23H2.5Z" fill="#2B2B2C"/>
</svg>
