<svg width="18" height="18" viewBox="0 0 18 18" fill="none" xmlns="http://www.w3.org/2000/svg">
<path fill-rule="evenodd" clip-rule="evenodd" d="M6.5 2C6.5 1.72386 6.72386 1.5 7 1.5H10.5C10.7761 1.5 11 1.72386 11 2C11 2.27614 10.7761 2.5 10.5 2.5H9.54031L10.7403 4H13.4384C14.2442 4 14.9773 4.38514 15.4387 5H15.5V5.08539C15.665 5.32576 15.7899 5.59799 15.8638 5.89366L16.9319 10.1661C16.9771 10.347 17 10.5327 17 10.7192C17 11.9789 15.9789 13 14.7192 13H1.875C1.39175 13 1 12.6082 1 12.125V10V5.5V4.875C1 4.39175 1.39175 4 1.875 4H9.45969L8.25969 2.5H7C6.72386 2.5 6.5 2.27614 6.5 2ZM2 9.5V6H6V9.5H2ZM7.5 12H10.5V6H7.5V12ZM12.5 9.5C12.5 9.77614 12.7239 10 13 10H15.8596L14.8937 6.1362C14.8821 6.08981 14.8684 6.04438 14.8527 6H13C12.7239 6 12.5 6.22386 12.5 6.5V9.5ZM1.00002 14.5C1.00002 14.2239 1.22387 14 1.50002 14H14.5C14.7762 14 15 14.2239 15 14.5C15 14.7761 14.7762 15 14.5 15H1.50002C1.22387 15 1.00002 14.7761 1.00002 14.5Z" fill="#2B2B2C"/>
</svg>
