<svg width="18" height="18" viewBox="0 0 18 18" fill="none" xmlns="http://www.w3.org/2000/svg">
<path fill-rule="evenodd" clip-rule="evenodd" d="M7.35355 1.64645C7.15829 1.45118 6.84171 1.45118 6.64645 1.64645C6.45118 1.84171 6.45118 2.15829 6.64645 2.35355L8.29289 4H1.875C1.39175 4 1 4.39175 1 4.875V6.5V10V12.125C1 12.6082 1.39175 13 1.875 13H16C16.5523 13 17 12.5523 17 12V10V6.5V5C17 4.44771 16.5523 4 16 4H9.70711L7.35355 1.64645ZM2 9.5V7H6V9.5H2ZM16 7V9.5H12V7H16ZM7 7V9.5H11V7H7ZM2.5 14.5C2.5 14.2239 2.72386 14 3 14H15C15.2761 14 15.5 14.2239 15.5 14.5C15.5 14.7761 15.2761 15 15 15H3C2.72386 15 2.5 14.7761 2.5 14.5Z" fill="#2B2B2C"/>
</svg>
