<svg width="18" height="18" viewBox="0 0 18 18" fill="none" xmlns="http://www.w3.org/2000/svg">
<path fill-rule="evenodd" clip-rule="evenodd" d="M11.7798 11.0913C11.8421 10.8223 12.1106 10.6546 12.3796 10.7169L12.3809 10.7172L12.3827 10.7176C12.4594 10.7362 12.5364 10.7566 12.6666 10.7975C12.8345 10.8502 13.0651 10.9312 13.3172 11.0452C13.8036 11.2652 14.448 11.6424 14.8236 12.2441C14.9375 12.4267 14.9219 12.6617 14.7847 12.8275C14.0825 13.6766 12.0705 15.031 9.31956 13.9663C9.06204 13.8666 8.93406 13.5771 9.03373 13.3195C9.1334 13.062 9.42296 12.934 9.68049 13.0337C11.6058 13.7788 13.0396 13.0762 13.728 12.479C13.5028 12.2678 13.2064 12.0926 12.9051 11.9563C12.6981 11.8627 12.5066 11.7954 12.3672 11.7516C12.297 11.7296 12.2263 11.7088 12.1548 11.6913M11.7798 11.0913C11.7176 11.3602 11.886 11.6289 12.1548 11.6913L11.7798 11.0913Z" fill="#2B2B2C"/>
<path fill-rule="evenodd" clip-rule="evenodd" d="M6.86753 2.161C7.05475 2.36398 7.04198 2.68031 6.839 2.86753C6.68375 3.01073 6.4642 3.31647 6.2566 3.73103C6.05332 4.13698 5.88348 4.60355 5.80303 5.04026C5.75301 5.31183 5.4923 5.49143 5.22073 5.44141C4.94915 5.39138 4.76955 5.13067 4.81958 4.8591C4.92042 4.31165 5.12612 3.75521 5.36245 3.28327C5.59447 2.81995 5.87862 2.39293 6.161 2.13247C6.36398 1.94525 6.6803 1.95802 6.86753 2.161Z" fill="#2B2B2C"/>
<path fill-rule="evenodd" clip-rule="evenodd" d="M8.67106 2.53014C8.68944 2.53681 8.70746 2.54457 8.72503 2.55341C9.67928 3.01387 11.2049 4.38644 11.4636 7.40554C11.5973 7.32345 11.7409 7.24529 11.8926 7.17203C12.5412 6.85865 13.4035 6.60157 14.4529 6.50223C14.7278 6.4762 14.9717 6.67796 14.9978 6.95288C15.0538 7.54489 15.1057 8.38337 14.7927 9.24634C14.4725 10.1292 13.7928 10.9817 12.4955 11.6487C12.2499 11.775 11.9485 11.6782 11.8222 11.4326C11.696 11.1871 11.7927 10.8856 12.0383 10.7594C13.1357 10.1951 13.6274 9.52639 13.8526 8.90542C14.0174 8.45101 14.0508 7.99306 14.0371 7.56205C13.3328 7.67376 12.7599 7.86358 12.3276 8.07245C11.7808 8.33664 11.5159 8.60233 11.4431 8.73176C11.4342 8.74878 11.4243 8.76521 11.4136 8.781C11.3691 8.8467 11.311 8.89891 11.2451 8.93585C11.1875 8.96834 11.1229 8.98971 11.0541 8.99711C10.9936 9.00375 10.9315 8.99941 10.8708 8.98316C10.8128 8.96769 10.7589 8.94206 10.7113 8.9083C10.5948 8.82578 10.5153 8.69473 10.502 8.54514C10.5001 8.52433 10.4995 8.50335 10.5002 8.48233C10.5469 5.45345 9.32123 4.10777 8.55859 3.60726C7.88694 4.26437 6.87038 5.92121 7.4895 8.89821C7.53645 9.12399 7.4229 9.35259 7.21462 9.45159C7.00634 9.55059 6.75737 9.4943 6.61194 9.31534C6.38196 9.03233 5.58279 8.45094 4.06398 8.46965C4.13243 8.86541 4.25187 9.25968 4.49154 9.62776C4.82744 10.1436 5.43989 10.667 6.64109 11.0203C6.83243 11.0766 6.97201 11.2412 6.99626 11.4392C7.02051 11.6371 6.92484 11.8305 6.75284 11.9314L6.75282 11.9314L6.7527 11.9314L6.7507 11.9326L6.73997 11.939C6.73003 11.945 6.71462 11.9544 6.69443 11.967C6.65401 11.9921 6.5946 12.0298 6.52154 12.0785C6.3749 12.1762 6.17584 12.3165 5.966 12.4865C5.651 12.7416 5.35207 13.0318 5.15217 13.3196C5.90824 13.752 7.3662 14.1419 9.041 13.1915C9.15854 12.3131 9.19885 11.2344 9.00681 10.0822C8.96142 9.80982 9.14543 9.5522 9.41781 9.5068C9.6902 9.46141 9.94781 9.64542 9.99321 9.9178C10.2555 11.4914 10.1238 12.9279 9.92895 13.9672C9.8313 14.4879 9.71716 14.9123 9.62662 15.2086C9.58133 15.3569 9.54185 15.4734 9.51315 15.5541C9.49881 15.5945 9.48714 15.626 9.47879 15.6481L9.46881 15.6741L9.46583 15.6817L9.46486 15.6842L9.46437 15.6854L9.00001 15.5C9.46425 15.6857 9.46431 15.6856 9.46437 15.6854C9.36181 15.9418 9.07071 16.0668 8.81432 15.9643C8.55811 15.8618 8.43339 15.5711 8.53556 15.3149L8.53692 15.3114L8.54345 15.2943C8.5495 15.2783 8.55883 15.2532 8.57085 15.2194C8.59489 15.1517 8.62963 15.0494 8.67027 14.9164C8.71222 14.7791 8.76035 14.6094 8.80946 14.4115C6.71265 15.2495 4.92571 14.4788 4.18131 13.8632C4.01547 13.726 3.956 13.4981 4.03368 13.2974C4.28596 12.6455 4.87739 12.0813 5.33659 11.7094C5.36784 11.6841 5.39884 11.6594 5.42949 11.6353C4.58526 11.2464 4.02272 10.7404 3.65354 10.1734C3.17103 9.43242 3.0588 8.64507 3.0022 8.04713C2.97617 7.77222 3.17794 7.52826 3.45285 7.50224C4.68847 7.38526 5.64728 7.59463 6.3324 7.91208C6.06886 4.93395 7.35486 3.22826 8.19372 2.60463C8.21339 2.58941 8.23411 2.57574 8.25567 2.5637C8.31507 2.53034 8.37911 2.51033 8.4439 2.50308C8.51886 2.49455 8.59651 2.50289 8.67106 2.53014Z" fill="#2B2B2C"/>
</svg>
