<svg width="24" height="24" viewBox="0 0 24 24" fill="none" xmlns="http://www.w3.org/2000/svg">
<path fill-rule="evenodd" clip-rule="evenodd" d="M9.78063 11.5862C10.0092 11.7412 10.0688 12.0521 9.91382 12.2806C9.75908 12.5088 9.43672 12.5607 9.20827 12.4066C9.19768 12.3998 9.25616 12.4356 9.20827 12.4066C9.16039 12.3776 9.03452 12.3023 8.93652 12.2504C8.74031 12.1467 8.44895 12.0085 8.07836 11.877C7.44092 11.6508 6.57551 11.4468 5.55899 11.4682C5.64636 12.052 5.80783 12.6307 6.17595 13.1683C6.64612 13.8548 7.49907 14.5373 9.14112 15.0203C9.34176 15.0794 9.48447 15.257 9.49882 15.4657C9.51317 15.6743 9.39623 15.8697 9.20569 15.9557L9.20122 15.9578L9.18349 15.966C9.16735 15.9735 9.14277 15.9851 9.11083 16.0005C9.0469 16.0315 8.95367 16.0777 8.83958 16.1377C8.61075 16.258 8.30133 16.4318 7.97745 16.6458C7.65221 16.8608 7.32165 17.1103 7.04522 17.3805C6.88339 17.5386 6.74814 17.6961 6.64378 17.8501C7.65873 18.4993 9.72733 19.1413 12.2352 17.5759C12.4695 17.4296 12.7779 17.501 12.9242 17.7352C13.0704 17.9695 12.999 18.2779 12.7648 18.4242C9.51073 20.4554 6.78013 19.294 5.68134 18.3853C5.5155 18.2481 5.45603 18.0203 5.5337 17.8195C5.70409 17.3793 6.01323 16.9908 6.34625 16.6653C6.68277 16.3364 7.06858 16.0478 7.42608 15.8115C7.54426 15.7334 7.66036 15.6604 7.77185 15.5928C6.60555 15.0941 5.84391 14.4532 5.35089 13.7333C4.72494 12.8193 4.57734 11.8406 4.50223 11.0471C4.48973 10.9151 4.53019 10.7835 4.6147 10.6814C4.69921 10.5792 4.82086 10.5147 4.95288 10.5022C6.36922 10.3682 7.5684 10.635 8.41274 10.9345C8.83531 11.0845 9.17117 11.2433 9.4039 11.3664C9.53111 11.4336 9.65664 11.5043 9.7768 11.5836L9.77906 11.5851L9.78063 11.5862Z" fill="#2B2B2C"/>
<path fill-rule="evenodd" clip-rule="evenodd" d="M11.7157 3.54893C11.5491 3.46927 11.3522 3.48791 11.2035 3.59742C9.99854 4.48486 7.98839 7.18719 9.01047 12.1018C9.0667 12.3722 9.33145 12.5458 9.6018 12.4895C9.87216 12.4333 10.0458 12.1686 9.98953 11.8982C9.12189 7.7262 10.6287 5.44233 11.5633 4.59461C12.0776 4.87866 12.7407 5.3585 13.3056 6.18169C13.9773 7.16064 14.5379 8.66561 14.5001 10.9919L14.5 11.0024C14.5006 11.1273 14.5477 11.252 14.6413 11.3484C14.6463 11.3535 14.6515 11.3586 14.6567 11.3636C14.7004 11.4048 14.7497 11.4367 14.802 11.4593C14.8603 11.4844 14.9244 11.4988 14.9919 11.4999C15.0621 11.5011 15.1292 11.4877 15.1903 11.4625C15.2448 11.4401 15.2961 11.4077 15.3414 11.3653L15.3536 11.3535L15.3551 11.3521L15.3678 11.3398C15.38 11.3282 15.3994 11.3101 15.4256 11.2864C15.4782 11.239 15.5581 11.1697 15.6622 11.0871C15.8712 10.9213 16.1748 10.7045 16.5495 10.5027C17.2188 10.1423 18.0835 9.84606 19.0338 9.93617C19.0764 10.5976 19.0565 11.3193 18.7846 12.0383C18.4657 12.8815 17.7759 13.7801 16.2781 14.5519C16.2646 14.5585 16.2515 14.5658 16.2388 14.5736C16.1766 14.6116 16.1253 14.6615 16.0864 14.7188C16.0058 14.8376 15.9785 14.9881 16.0173 15.1307C16.0262 15.1638 16.0386 15.1957 16.054 15.226L16.0553 15.2286C16.1022 15.3198 16.1733 15.3905 16.2567 15.4369C16.3165 15.4701 16.3828 15.4909 16.451 15.4977L16.4634 15.4992C16.4768 15.5008 16.4977 15.5035 16.5254 15.5075C16.5808 15.5155 16.6627 15.5284 16.7642 15.5477C16.9681 15.5866 17.2466 15.6505 17.546 15.7502C18.0322 15.9121 18.5095 16.1476 18.8377 16.4711C17.9159 17.3278 15.7555 18.5186 13.1212 17.6328C13.2426 16.4627 13.2599 15.018 12.9932 13.4178C12.9478 13.1454 12.6902 12.9614 12.4178 13.0068C12.1454 13.0522 11.9614 13.3098 12.0068 13.5822C12.3291 15.5161 12.2082 17.2092 12.0068 18.4178C11.9062 19.0216 11.7857 19.5028 11.6914 19.8304C11.6442 19.9942 11.6037 20.1194 11.5755 20.2021C11.5614 20.2435 11.5504 20.2742 11.5433 20.2938L11.5355 20.3148L11.5338 20.3194C11.4341 20.5766 11.5616 20.866 11.8188 20.966C12.0761 21.0661 12.3662 20.9379 12.4663 20.6805L12.4667 20.6795L12.4678 20.6767L12.4712 20.6677L12.4826 20.6369C12.4922 20.6106 12.5056 20.573 12.5221 20.5245C12.5551 20.4275 12.6005 20.2871 12.6524 20.1071C12.7529 19.7579 12.8779 19.2589 12.9836 18.6392C16.3479 19.6774 19.0329 17.8493 19.8853 16.8187C20.0224 16.6528 20.0381 16.4178 19.9241 16.2352C19.4339 15.4499 18.5419 15.0278 17.862 14.8014L17.8118 14.7849C18.816 14.0569 19.4016 13.2338 19.7199 12.392C20.1321 11.3023 20.0723 10.2399 19.9978 9.45288C19.977 9.23312 19.8145 9.053 19.598 9.00971C18.1924 8.72858 16.9456 9.15369 16.0754 9.62227C15.8539 9.74157 15.6541 9.86505 15.4791 9.98301C15.3637 8.02638 14.8206 6.62224 14.1301 5.61589C13.3265 4.44477 12.3507 3.8526 11.7157 3.54893ZM12 20.5L12.4663 20.6805C12.4662 20.6807 12.466 20.6812 12 20.5Z" fill="#2B2B2C"/>
<path fill-rule="evenodd" clip-rule="evenodd" d="M9.36753 3.161C9.55475 3.36398 9.54198 3.68031 9.339 3.86753C8.84564 4.3226 8.21663 5.36965 7.99172 6.59058C7.9417 6.86215 7.68099 7.04175 7.40942 6.99173C7.13784 6.9417 6.95824 6.681 7.00827 6.40942C7.2668 5.00593 7.98735 3.75383 8.66099 3.13247C8.86398 2.94525 9.1803 2.95802 9.36753 3.161Z" fill="#2B2B2C"/>
<path fill-rule="evenodd" clip-rule="evenodd" d="M18.4476 19.7771C18.5707 20.0243 18.4701 20.3244 18.2229 20.4475L18 20C18.2229 20.4475 18.223 20.4475 18.2229 20.4475L18.2218 20.4481L18.2203 20.4488L18.2159 20.451L18.2017 20.4579C18.1898 20.4635 18.1734 20.4713 18.1526 20.4808C18.1109 20.4999 18.0518 20.5261 17.9775 20.5567C17.8293 20.6178 17.6192 20.6972 17.3666 20.7727C16.8678 20.9217 16.1739 21.0641 15.4542 20.9979C15.1792 20.9726 14.9768 20.7291 15.0021 20.4542C15.0274 20.1792 15.2709 19.9768 15.5458 20.0021C16.0889 20.0521 16.645 19.9445 17.0805 19.8145C17.2951 19.7504 17.4732 19.683 17.5964 19.6322C17.6578 19.6069 17.7052 19.5858 17.7362 19.5716C17.7517 19.5646 17.763 19.5592 17.7699 19.5559L17.7769 19.5525C17.777 19.5525 17.7769 19.5525 17.7769 19.5525M18.4476 19.7771C18.3245 19.53 18.0241 19.4295 17.7769 19.5525L18.4476 19.7771Z" fill="#2B2B2C"/>
</svg>
