<svg width="30" height="30" viewBox="0 0 30 30" fill="none" xmlns="http://www.w3.org/2000/svg">
<path fill-rule="evenodd" clip-rule="evenodd" d="M18 6C18 4.89543 18.8954 4 20 4C21.1046 4 22 4.89543 22 6C22 7.10457 21.1046 8 20 8C18.8954 8 18 7.10457 18 6ZM20 3C18.3431 3 17 4.34315 17 6C17 6.98005 17.4699 7.85033 18.1968 8.3978L16.7852 10.868C16.2379 10.6312 15.6343 10.5 15 10.5C13.9375 10.5 12.961 10.8682 12.1911 11.4841L8.86829 8.16121C9.26126 7.71957 9.5 7.13767 9.5 6.5C9.5 5.11929 8.38071 4 7 4C5.61929 4 4.5 5.11929 4.5 6.5C4.5 7.88071 5.61929 9 7 9C7.37831 9 7.737 8.91597 8.05842 8.76555L11.484 12.1912C10.9662 12.8386 10.6234 13.6321 10.5275 14.5H8.93699C8.71497 13.6374 7.93192 13 7 13C5.89543 13 5 13.8954 5 15C5 16.1046 5.89543 17 7 17C7.93192 17 8.71497 16.3626 8.93699 15.5H10.5275C10.6664 16.7567 11.3228 17.8574 12.2788 18.5843L10.1748 21.1093C9.75091 20.8801 9.26565 20.75 8.75 20.75C7.09315 20.75 5.75 22.0931 5.75 23.75C5.75 25.4069 7.09315 26.75 8.75 26.75C10.4069 26.75 11.75 25.4069 11.75 23.75C11.75 22.9695 11.4519 22.2586 10.9634 21.7249L13.1486 19.1027C13.7133 19.3579 14.34 19.5 15 19.5C16.0625 19.5 17.039 19.1318 17.8088 18.516L19.9142 20.6213C19.6524 21.0165 19.5 21.4905 19.5 22C19.5 23.3807 20.6193 24.5 22 24.5C23.3807 24.5 24.5 23.3807 24.5 22C24.5 20.6193 23.3807 19.5 22 19.5C21.4905 19.5 21.0165 19.6524 20.6213 19.9142L18.5159 17.8089C19.0338 17.1615 19.3766 16.3679 19.4725 15.5H22.563C22.785 16.3626 23.5681 17 24.5 17C25.6046 17 26.5 16.1046 26.5 15C26.5 13.8954 25.6046 13 24.5 13C23.5681 13 22.785 13.6374 22.563 14.5H19.4725C19.3303 13.2137 18.646 12.0908 17.6531 11.3649L19.0855 8.85807C19.3738 8.95024 19.6811 9 20 9C21.6569 9 23 7.65685 23 6C23 4.34315 21.6569 3 20 3ZM7 5C6.17157 5 5.5 5.67157 5.5 6.5C5.5 7.32843 6.17157 8 7 8C7.82843 8 8.5 7.32843 8.5 6.5C8.5 5.67157 7.82843 5 7 5ZM15 11.5C13.067 11.5 11.5 13.067 11.5 15C11.5 16.933 13.067 18.5 15 18.5C16.933 18.5 18.5 16.933 18.5 15C18.5 13.067 16.933 11.5 15 11.5ZM20.5 22C20.5 21.1716 21.1716 20.5 22 20.5C22.8284 20.5 23.5 21.1716 23.5 22C23.5 22.8284 22.8284 23.5 22 23.5C21.1716 23.5 20.5 22.8284 20.5 22ZM7 14C6.44772 14 6 14.4477 6 15C6 15.5523 6.44772 16 7 16C7.55228 16 8 15.5523 8 15C8 14.4477 7.55228 14 7 14ZM23.5 15C23.5 14.4477 23.9477 14 24.5 14C25.0523 14 25.5 14.4477 25.5 15C25.5 15.5523 25.0523 16 24.5 16C23.9477 16 23.5 15.5523 23.5 15ZM8.75 21.75C7.64543 21.75 6.75 22.6454 6.75 23.75C6.75 24.8546 7.64543 25.75 8.75 25.75C9.85457 25.75 10.75 24.8546 10.75 23.75C10.75 22.6454 9.85457 21.75 8.75 21.75Z" fill="#2B2B2C"/>
</svg>
