<svg width="24" height="24" viewBox="0 0 24 24" fill="none" xmlns="http://www.w3.org/2000/svg">
<path fill-rule="evenodd" clip-rule="evenodd" d="M2.50004 7.00453C2.49882 6.87036 2.55158 6.74132 2.64646 6.64644L6.64646 2.64645C6.83922 2.45369 7.15085 2.45086 7.34708 2.64008L12.0846 7.20836L14.7929 4.50002L19.5 9.20713L16.8772 11.8299L21.3471 16.1401C21.4437 16.2332 21.4988 16.3613 21.5 16.4955C21.5012 16.6296 21.4484 16.7587 21.3536 16.8536L17.3536 20.8536C17.1608 21.0463 16.8492 21.0491 16.6529 20.8599L12.17 16.5371L9.20711 19.5L6.85355 17.1465L4.50001 14.7929L7.37734 11.9156L2.65295 7.35991C2.55636 7.26677 2.50126 7.13871 2.50004 7.00453ZM14.9136 17.7935L16.9936 19.7993L20.2864 16.5065L7.00638 3.70074L3.71361 6.9935L6.04819 9.24471L7.64645 7.64645C7.84172 7.45118 8.1583 7.45118 8.35356 7.64645C8.54882 7.84171 8.54882 8.15829 8.35356 8.35355L6.76815 9.93896L8.08455 11.2083L9.14645 10.1464C9.34172 9.95118 9.6583 9.95118 9.85356 10.1464C10.0488 10.3417 10.0488 10.6583 9.85356 10.8536L8.80452 11.9026L10.1209 13.172L11.6465 11.6464C11.8417 11.4512 12.1583 11.4512 12.3536 11.6464C12.5488 11.8417 12.5488 12.1583 12.3536 12.3536L10.8409 13.8662L12.1573 15.1356L13.1465 14.1464C13.3417 13.9512 13.6583 13.9512 13.8536 14.1464C14.0488 14.3417 14.0488 14.6583 13.8536 14.8536L12.8772 15.8299L14.1936 17.0993L15.6465 15.6464C15.8417 15.4512 16.1583 15.4512 16.3536 15.6464C16.5488 15.8417 16.5488 16.1583 16.3536 16.3536L14.9136 17.7935ZM16.0858 3.20713C16.8668 2.42608 18.1332 2.42608 18.9142 3.20712L20.7929 5.08581C21.574 5.86685 21.5739 7.13318 20.7929 7.91423L20.2071 8.50002L15.5 3.79291L16.0858 3.20713ZM8.33567 20.0428L3.59807 20.9903C3.43414 21.0231 3.26467 20.9718 3.14646 20.8536C3.02824 20.7354 2.97693 20.5659 3.00972 20.402L3.95724 15.6644L6.14645 17.8536L8.33567 20.0428Z" fill="#2B2B2C"/>
</svg>
