<svg width="18" height="18" viewBox="0 0 18 18" fill="none" xmlns="http://www.w3.org/2000/svg">
<path fill-rule="evenodd" clip-rule="evenodd" d="M14.6491 1.94196C14.0145 1.30735 12.9856 1.30735 12.351 1.94195L9.00001 5.29291L5.85355 2.14645C5.65829 1.95118 5.34171 1.95118 5.14645 2.14645L2.14645 5.14645C2.05268 5.24021 2 5.36739 2 5.5C2 5.63261 2.05268 5.75979 2.14645 5.85355L5.29291 9.00001L3.14646 11.1465C3.08238 11.2105 3.03692 11.2908 3.01494 11.3787L2.01494 15.3787C1.97234 15.5491 2.02227 15.7294 2.14646 15.8536C2.27065 15.9778 2.45089 16.0277 2.62128 15.9851L6.62128 14.9851C6.7092 14.9631 6.78948 14.9176 6.85356 14.8536L9.00001 12.7071L12.1464 15.8536C12.3417 16.0488 12.6583 16.0488 12.8536 15.8536L15.8536 12.8536C15.9473 12.7598 16 12.6326 16 12.5C16 12.3674 15.9473 12.2402 15.8536 12.1464L12.7071 9.00001L16.0581 5.64906C16.6927 5.01446 16.6927 3.98557 16.0581 3.35096L14.6491 1.94196ZM12 8.2929L14.2929 6.00003L12 3.70713L9.70712 6.00001L12 8.2929ZM15.351 4.94196L15 5.29292L12.7071 3.00003L13.0581 2.64906C13.3021 2.40498 13.6979 2.40498 13.942 2.64906L15.351 4.05807C15.595 4.30215 15.595 4.69788 15.351 4.94196ZM8.29291 12L6.00001 9.70712L4.2071 11.5L6.5 13.7929L8.29291 12ZM5.52199 14.2291L3.77089 12.478L3.1872 14.8128L5.52199 14.2291ZM12.5 14.7929L14.7929 12.5L5.5 3.20711L3.20711 5.5L4.49999 6.79288L5.64642 5.64645C5.84169 5.45118 6.15827 5.45118 6.35353 5.64645C6.54879 5.84171 6.54879 6.15829 6.35353 6.35355L5.2071 7.49999L5.99999 8.29288L6.77142 7.52145C6.96669 7.32618 7.28327 7.32618 7.47853 7.52145C7.67379 7.71671 7.67379 8.03329 7.47853 8.22855L6.7071 8.99999L7.49999 9.79288L8.64642 8.64645C8.84169 8.45118 9.15827 8.45118 9.35353 8.64645C9.54879 8.84171 9.54879 9.15829 9.35353 9.35355L8.2071 10.5L8.99999 11.2929L9.77142 10.5214C9.96669 10.3262 10.2833 10.3262 10.4785 10.5214C10.6738 10.7167 10.6738 11.0333 10.4785 11.2286L9.7071 12L10.5 12.7929L11.6464 11.6464C11.8417 11.4512 12.1583 11.4512 12.3535 11.6464C12.5488 11.8417 12.5488 12.1583 12.3535 12.3536L11.2071 13.5L12.5 14.7929Z" fill="#2B2B2C"/>
</svg>
