<svg width="18" height="18" viewBox="0 0 18 18" fill="none" xmlns="http://www.w3.org/2000/svg">
<path fill-rule="evenodd" clip-rule="evenodd" d="M8.5264 1.77762C8.43703 1.56606 8.22968 1.42856 8.00002 1.42856C7.77035 1.42856 7.563 1.56606 7.47363 1.77762L5.78201 5.78198L1.77765 7.4736C1.56609 7.56297 1.42859 7.77032 1.42859 7.99999C1.42859 8.22965 1.56609 8.437 1.77765 8.52637L5.78201 10.218L7.47363 14.2224C7.563 14.4339 7.77035 14.5714 8.00002 14.5714C8.22968 14.5714 8.43703 14.4339 8.5264 14.2224L10.218 10.218L14.2224 8.52637C14.4339 8.437 14.5714 8.22965 14.5714 7.99999C14.5714 7.77032 14.4339 7.56297 14.2224 7.4736L10.218 5.78198L8.5264 1.77762ZM14.4825 11.2962C14.4006 11.1022 14.2105 10.9762 14 10.9762C13.7895 10.9762 13.5994 11.1022 13.5175 11.2962L12.8578 12.8578L11.2962 13.5175C11.1022 13.5994 10.9762 13.7895 10.9762 14C10.9762 14.2105 11.1022 14.4006 11.2962 14.4825L12.8578 15.1422L13.5175 16.7038C13.5994 16.8978 13.7895 17.0238 14 17.0238C14.2105 17.0238 14.4006 16.8978 14.4825 16.7038L15.1422 15.1422L16.7038 14.4825C16.8978 14.4006 17.0238 14.2105 17.0238 14C17.0238 13.7895 16.8978 13.5994 16.7038 13.5175L15.1422 12.8578L14.4825 11.2962Z" fill="#2B2B2C"/>
</svg>
