<svg width="18" height="18" viewBox="0 0 18 18" fill="none" xmlns="http://www.w3.org/2000/svg">
<path fill-rule="evenodd" clip-rule="evenodd" d="M13 7C13 9.20914 11.2092 11 9.00003 11C6.79089 11 5.00003 9.20914 5.00003 7C5.00003 4.79086 6.79089 3 9.00003 3C11.2092 3 13 4.79086 13 7ZM14 7C14 7.82094 13.8022 8.59568 13.4516 9.27912L15.924 13.235C16.0203 13.3891 16.0254 13.5834 15.9373 13.7424C15.8492 13.9013 15.6818 14 15.5 14H13.25L11.9 15.8C11.796 15.9386 11.6277 16.0135 11.4551 15.998C11.2825 15.9824 11.1302 15.8786 11.0528 15.7236L9.18921 11.9965C9.12644 11.9988 9.06337 12 9.00003 12C8.93667 12 8.87358 11.9988 8.81079 11.9965L6.94725 15.7236C6.86975 15.8786 6.71752 15.9824 6.54493 15.998C6.37235 16.0135 6.204 15.9386 6.10003 15.8L4.75003 14L2.5 14C2.31824 14 2.15079 13.9013 2.06268 13.7424C1.97457 13.5834 1.97967 13.3891 2.076 13.235L4.54847 9.27907C4.19787 8.59564 4.00003 7.82092 4.00003 7C4.00003 4.23858 6.23861 2 9.00003 2C11.7615 2 14 4.23858 14 7ZM10.2325 11.847C11.2713 11.5836 12.1805 10.9951 12.8454 10.196L14.5979 13H13C12.8426 13 12.6944 13.0741 12.6 13.2L11.5854 14.5528L10.2325 11.847ZM5.15464 10.196L3.40213 13H5.00003C5.15741 13 5.3056 13.0741 5.40003 13.2L6.41462 14.5528L7.76753 11.8469C6.72868 11.5836 5.81949 10.995 5.15464 10.196ZM11.3841 5.8201C11.5609 5.60797 11.5323 5.29268 11.3201 5.1159C11.108 4.93912 10.7927 4.96778 10.6159 5.17992L8.46643 7.75931L7.35358 6.64646C7.15832 6.4512 6.84174 6.4512 6.64648 6.64646C6.45121 6.84172 6.45121 7.1583 6.64648 7.35357L8.14648 8.85357C8.24581 8.9529 8.38235 9.00587 8.52269 8.9995C8.66302 8.99313 8.79421 8.92802 8.88414 8.8201L11.3841 5.8201Z" fill="#2B2B2C"/>
</svg>
