<svg width="30" height="30" viewBox="0 0 30 30" fill="none" xmlns="http://www.w3.org/2000/svg">
<path fill-rule="evenodd" clip-rule="evenodd" d="M15 20C19.4183 20 23 16.4183 23 12C23 7.58172 19.4183 4 15 4C10.5817 4 6.99998 7.58172 6.99998 12C6.99998 16.4183 10.5817 20 15 20ZM22.1118 17.5163C23.2953 15.9927 24 14.0786 24 12C24 7.02944 19.9705 3 15 3C10.0294 3 5.99998 7.02944 5.99998 12C5.99998 14.0786 6.70467 15.9927 7.88818 17.5163L4.08398 23.2226C3.98191 23.3757 3.97218 23.5725 4.05864 23.7349C4.1451 23.8974 4.31379 23.9992 4.49778 24L7.69103 24.0141L9.05325 26.7245C9.1332 26.8836 9.29172 26.9882 9.46944 26.999C9.64716 27.0099 9.81725 26.9255 9.91602 26.7773L13.8188 20.9232C14.2054 20.9739 14.5996 21 15 21C15.4004 21 15.7946 20.9739 16.1812 20.9232L20.084 26.7774C20.1828 26.9255 20.3529 27.01 20.5306 26.9991C20.7083 26.9882 20.8668 26.8836 20.9468 26.7246L22.309 24.0142L25.5022 24C25.6862 23.9992 25.8549 23.8974 25.9414 23.735C26.0278 23.5726 26.0181 23.3758 25.916 23.2227L22.1118 17.5163ZM21.4303 18.2969C20.2995 19.4515 18.8603 20.3028 17.2459 20.7175L20.4393 25.5075L21.5533 23.291C21.6378 23.1229 21.8096 23.0164 21.9978 23.0156L24.5685 23.0042L21.4303 18.2969ZM5.43151 23.0041L8.56964 18.2969C9.70043 19.4515 11.1397 20.3028 12.7541 20.7175L9.56076 25.5074L8.44677 23.291C8.36225 23.1228 8.19045 23.0163 8.00224 23.0155L5.43151 23.0041ZM15 19C18.866 19 22 15.866 22 12C22 8.13401 18.866 5 15 5C11.134 5 7.99998 8.13401 7.99998 12C7.99998 15.866 11.134 19 15 19ZM18.8737 9.83218C19.0571 9.62579 19.0386 9.30975 18.8322 9.1263C18.6258 8.94284 18.3093 8.96195 18.1258 9.16834L14.4786 13.2715L12.3535 11.1464C12.1583 10.9512 11.8417 10.9512 11.6464 11.1464C11.4512 11.3417 11.4516 11.6587 11.6468 11.854L14.1464 14.3536C14.2377 14.4448 14.3605 14.497 14.4889 14.4999C14.4975 14.5001 14.5061 14.5 14.5147 14.4998C14.6521 14.4957 14.7822 14.4348 14.8737 14.3322L18.8737 9.83218Z" fill="#2B2B2C"/>
</svg>
