<svg width="24" height="24" viewBox="0 0 24 24" fill="none" xmlns="http://www.w3.org/2000/svg">
<path fill-rule="evenodd" clip-rule="evenodd" d="M12 15C15.3137 15 18 12.3137 18 9C18 5.68629 15.3137 3 12 3C8.68629 3 6 5.68629 6 9C6 12.3137 8.68629 15 12 15ZM17.9605 12.6724C18.6196 11.6048 19 10.3468 19 9C19 5.13401 15.866 2 12 2C8.134 2 5 5.13401 5 9C5 10.3722 5.39484 11.6522 6.07712 12.7326L3.08394 17.2227C2.98166 17.3761 2.97213 17.5734 3.05914 17.736C3.14615 17.8985 3.31558 18 3.49997 18L6.69098 18L8.05278 20.7236C8.13748 20.893 8.31061 21 8.5 21C8.68938 21 8.86251 20.893 8.94721 20.7236L11.3251 15.9679C11.5472 15.9891 11.7723 16 12 16C12.2546 16 12.5059 15.9864 12.7535 15.9599L15.1353 20.7236C15.22 20.893 15.3931 21 15.5825 21C15.7719 21 15.945 20.893 16.0297 20.7236L17.3915 18L20.5825 18C20.7669 18 20.9364 17.8985 21.0234 17.736C21.1104 17.5734 21.1009 17.3761 20.9986 17.2227L17.9988 12.7227C17.9869 12.7049 17.9741 12.6881 17.9605 12.6724ZM17.3359 13.5311C16.4208 14.6076 15.1857 15.4037 13.7777 15.7723L15.5825 19.382L16.6353 17.2764C16.72 17.107 16.8931 17 17.0825 17L19.6483 17L17.3359 13.5311ZM4.43419 17L6.7106 13.5852C7.63682 14.6527 8.88086 15.4371 10.2955 15.791L8.5 19.382L7.44721 17.2764C7.36251 17.107 7.18938 17 7 17L4.43419 17ZM12 14C14.7614 14 17 11.7614 17 9C17 6.23858 14.7614 4 12 4C9.23857 4 7 6.23858 7 9C7 11.7614 9.23857 14 12 14ZM14.3841 7.82009C14.5609 7.60795 14.5322 7.29267 14.3201 7.11589C14.108 6.93911 13.7924 6.96807 13.6156 7.18021L11.4664 9.75929L10.3536 8.64645C10.1583 8.45118 9.84171 8.45118 9.64644 8.64645C9.45118 8.84171 9.4516 9.15871 9.64686 9.35397L11.1464 10.8536C11.2458 10.9529 11.3823 11.0059 11.5227 10.9995C11.663 10.9931 11.7942 10.928 11.8841 10.8201L14.3841 7.82009Z" fill="#2B2B2C"/>
</svg>
