<svg width="18" height="18" viewBox="0 0 18 18" fill="none" xmlns="http://www.w3.org/2000/svg">
<path fill-rule="evenodd" clip-rule="evenodd" d="M8.98365 12C8.98911 12 8.99457 12 9.00003 12C9.06337 12 9.12644 11.9988 9.18921 11.9965L11.0528 15.7236C11.1302 15.8786 11.2825 15.9824 11.4551 15.998C11.6277 16.0135 11.796 15.9386 11.9 15.8L13.25 14H15.5C15.6818 14 15.8492 13.9013 15.9373 13.7424C16.0254 13.5834 16.0203 13.3891 15.924 13.235L13.4516 9.27912C13.8022 8.59568 14 7.82094 14 7C14 4.23858 11.7615 2 9.00003 2C6.2386 2 4.00003 4.23858 4.00003 7C4.00003 7.82092 4.19787 8.59564 4.54847 9.27907L2.076 13.235C1.97967 13.3891 1.97457 13.5834 2.06268 13.7424C2.15079 13.9013 2.31824 14 2.5 14L4.75003 14L6.10003 15.8C6.204 15.9386 6.37235 16.0135 6.54493 15.998C6.71752 15.9824 6.86975 15.8786 6.94724 15.7236L8.81079 11.9965C8.86817 11.9986 8.9258 11.9998 8.98365 12ZM7.76753 11.8469C6.72868 11.5836 5.81949 10.995 5.15464 10.196L3.40213 13H5.00003C5.15741 13 5.3056 13.0741 5.40003 13.2L6.41462 14.5528L7.76753 11.8469ZM12.8454 10.196C12.1805 10.9951 11.2713 11.5836 10.2325 11.847L11.5854 14.5528L12.6 13.2C12.6944 13.0741 12.8426 13 13 13H14.5979L12.8454 10.196ZM11.3841 5.82009C11.5609 5.60795 11.5323 5.29267 11.3201 5.11589C11.108 4.93911 10.7924 4.96807 10.6157 5.18021L8.46643 7.75929L7.35358 6.64645C7.15832 6.45118 6.84174 6.45118 6.64648 6.64645C6.45121 6.84171 6.45163 7.15871 6.64689 7.35397L8.14647 8.85355C8.24581 8.95289 8.38235 9.00585 8.52269 8.99949C8.66302 8.99312 8.79421 8.92801 8.88414 8.82009L11.3841 5.82009Z" fill="#2B2B2C"/>
</svg>
