<svg width="30" height="30" viewBox="0 0 30 30" fill="none" xmlns="http://www.w3.org/2000/svg">
<path fill-rule="evenodd" clip-rule="evenodd" d="M17.6351 7.11126C16.0658 8.78618 15.24 11.1058 16.3345 12.9186C15.4719 14.079 14.7721 15.3 14.2176 16.5148C14.1092 15.9564 13.9233 15.4519 13.6712 14.999C13.1116 13.9934 12.25 13.2847 11.2861 12.8028C9.37602 11.8477 6.99218 11.7444 5.4178 12.0068C5.20284 12.0426 5.03584 12.2135 5.00502 12.4293C4.72498 14.3896 5.7047 16.4253 7.33538 17.7897C8.82235 19.0339 10.8895 19.7573 13.156 19.3872C12.6497 21.1534 12.4404 22.8013 12.4788 24.1062C11.0327 23.9354 9.55836 24.0605 8.14746 24.4838L6.35634 25.0211C6.09184 25.1004 5.94175 25.3792 6.0211 25.6437C6.10045 25.9082 6.37919 26.0583 6.64368 25.9789L8.4348 25.4416C10.4172 24.8469 12.5378 24.9016 14.4868 25.5977C17.076 26.5224 19.9217 26.4153 22.434 25.2987L23.2031 24.9569C23.4554 24.8448 23.5691 24.5493 23.4569 24.2969C23.3448 24.0446 23.0493 23.9309 22.7969 24.0431L22.0279 24.3849C20.1654 25.2127 18.1007 25.4284 16.1264 25.0212C16.2486 24.1109 16.6403 23.2908 17.1165 22.5981C18.7509 23.2314 20.2181 22.4901 21.1773 21.467C21.6911 20.9189 22.0856 20.2686 22.3197 19.6443C22.5468 19.0388 22.6525 18.3764 22.4744 17.8419C22.4246 17.6926 22.3074 17.5754 22.1581 17.5257C21.6818 17.3669 20.9719 17.3437 20.2489 17.425C19.5115 17.5078 18.6897 17.7071 17.9726 18.0486C17.263 18.3865 16.5961 18.8931 16.2699 19.6245C15.9721 20.2923 15.9958 21.0602 16.3852 21.8994C15.8246 22.6829 15.3275 23.6527 15.1529 24.7671C15.0425 24.732 14.9326 24.695 14.8232 24.6559C14.3845 24.4992 13.938 24.372 13.4864 24.2744C13.3963 22.5625 13.8043 20.0256 14.9185 17.4039C15.4709 16.1042 16.1932 14.7922 17.1068 13.556C19.4896 14.231 21.7028 13.257 23.2424 11.5891C24.8319 9.86719 25.7643 7.35119 25.4969 4.94479C25.4725 4.72516 25.3069 4.5476 25.0894 4.50807C22.1399 3.97177 19.3517 5.27914 17.6351 7.11126Z" fill="#2B2B2C"/>
</svg>
