<svg width="24" height="24" viewBox="0 0 24 24" fill="none" xmlns="http://www.w3.org/2000/svg">
<path fill-rule="evenodd" clip-rule="evenodd" d="M16.2094 7.09314C15.1797 7.82866 14.2973 8.67756 13.5485 9.58621C13.1734 8.60008 13.4351 7.28724 14.3862 6.12998C15.4692 4.8124 17.408 3.78337 20.0445 3.96114C20.2234 6.25632 19.3889 7.8702 18.1821 8.86403C17.1131 9.74437 15.7263 10.1598 14.4165 10.1066C15.0931 9.30388 15.8811 8.55653 16.7906 7.90687C17.0153 7.74637 17.0674 7.43409 16.9069 7.20939C16.7464 6.98468 16.4341 6.93264 16.2094 7.09314ZM13.6137 5.49502C12.3731 7.00448 11.9674 8.99485 12.8714 10.4732C12.2964 11.2871 11.8178 12.1329 11.4266 12.9759C11.3318 12.5697 11.1888 12.1923 11.0043 11.844C10.536 10.9602 9.81629 10.2932 9.00192 9.81811C7.38999 8.87782 5.33949 8.64974 3.87874 9.01494C3.69129 9.0618 3.54761 9.21248 3.50972 9.40195C3.14124 11.2443 3.78628 13.1303 5.1655 14.3716C6.42667 15.5067 8.27107 16.0787 10.4555 15.6459C10.0773 17.0559 9.93528 18.3616 9.99126 19.3829C8.74913 19.2857 7.49484 19.41 6.2879 19.7549L5.36265 20.0192C5.09713 20.0951 4.94338 20.3718 5.01924 20.6374C5.09511 20.9029 5.37185 21.0566 5.63737 20.9808L6.56262 20.7164C8.16507 20.2586 9.85976 20.2303 11.4766 20.6345L11.6106 20.668C13.8368 21.2246 16.1841 21.0365 18.2933 20.1326L18.697 19.9596C18.9508 19.8508 19.0684 19.5569 18.9596 19.303C18.8508 19.0492 18.5569 18.9317 18.303 19.0404L17.8994 19.2134C16.3507 19.8771 14.6601 20.1143 13.0014 19.911C13.02 19.3117 13.2233 18.8044 13.4341 18.4356C13.5211 18.2834 13.6078 18.1575 13.6801 18.0617C14.8366 18.2767 16.0352 17.672 16.8536 16.8536C17.7521 15.955 18.3931 14.5982 17.9743 13.3419C17.9246 13.1926 17.8074 13.0754 17.6581 13.0257C17.1466 12.8552 16.5016 12.9129 15.8974 13.0808C15.2781 13.2528 14.6274 13.5607 14.075 13.975C13.526 14.3868 13.0407 14.9293 12.8098 15.5836C12.6056 16.1619 12.6132 16.7938 12.9014 17.4336C12.8029 17.5621 12.6843 17.7323 12.5659 17.9394C12.3161 18.3766 12.0597 18.9924 12.009 19.7355C11.957 19.7234 11.905 19.7109 11.8531 19.6979L11.7191 19.6644C11.4807 19.6048 11.2409 19.5537 10.9999 19.5111C11.0003 19.4948 10.9998 19.4783 10.9985 19.4617C10.8947 18.112 11.2073 16.0258 12.1268 13.8622C12.5309 12.9116 13.0491 11.9532 13.6944 11.0414C15.4293 11.3013 17.3623 10.8346 18.8178 9.63596C20.3756 8.35311 21.3492 6.26299 20.9961 3.43798C20.9674 3.20847 20.7851 3.02859 20.5552 3.00305C17.3961 2.65205 14.9766 3.83675 13.6137 5.49502ZM4.43871 9.91924C4.26999 11.3059 4.79407 12.692 5.83447 13.6284C6.79238 14.4905 8.2157 14.9932 9.99238 14.7129C9.47358 14.2263 8.73013 13.5877 7.72266 12.916C7.49289 12.7628 7.43081 12.4524 7.58398 12.2226C7.73716 11.9929 8.04759 11.9308 8.27736 12.084C9.2634 12.7413 10.0123 13.371 10.5504 13.8663C10.5104 13.2689 10.3547 12.754 10.1207 12.3122C9.7556 11.6232 9.18367 11.0818 8.49805 10.6819C7.22727 9.9406 5.62562 9.7199 4.43871 9.91924ZM13.8365 17.0728C13.6274 16.6419 13.6319 16.2588 13.7527 15.9164C13.8968 15.5082 14.224 15.1132 14.675 14.775C15.1226 14.4393 15.6594 14.1847 16.1651 14.0443C16.5333 13.942 16.8498 13.9096 17.088 13.9276C17.1841 14.6271 16.8248 15.4681 16.1465 16.1465C15.4384 16.8546 14.5532 17.215 13.8365 17.0728Z" fill="#2B2B2C"/>
</svg>
