<svg width="30" height="30" viewBox="0 0 30 30" fill="none" xmlns="http://www.w3.org/2000/svg">
<path fill-rule="evenodd" clip-rule="evenodd" d="M21.9606 3.55543C21.8824 3.37031 21.701 3.25 21.5 3.25C21.299 3.25 21.1176 3.37031 21.0394 3.55543L19.9305 6.18047L17.3054 7.28941C17.1203 7.36761 17 7.54904 17 7.75C17 7.95096 17.1203 8.13239 17.3054 8.21059L19.9305 9.31953L21.0394 11.9446C21.1176 12.1297 21.299 12.25 21.5 12.25C21.701 12.25 21.8824 12.1297 21.9606 11.9446L23.0695 9.31953L25.6946 8.21059C25.8797 8.13239 26 7.95096 26 7.75C26 7.54904 25.8797 7.36761 25.6946 7.28941L23.0695 6.18047L21.9606 3.55543ZM12.4606 4.80543C12.3824 4.62031 12.201 4.5 12 4.5C11.799 4.5 11.6176 4.62031 11.5394 4.80543L8.64857 11.6486L1.80543 14.5394C1.62031 14.6176 1.5 14.799 1.5 15C1.5 15.201 1.62031 15.3824 1.80543 15.4606L8.64857 18.3514L11.5394 25.1946C11.6176 25.3797 11.799 25.5 12 25.5C12.201 25.5 12.3824 25.3797 12.4606 25.1946L15.3514 18.3514L22.1946 15.4606C22.3797 15.3824 22.5 15.201 22.5 15C22.5 14.799 22.3797 14.6176 22.1946 14.5394L15.3514 11.6486L12.4606 4.80543ZM21.9606 18.3054C21.8824 18.1203 21.701 18 21.5 18C21.299 18 21.1176 18.1203 21.0394 18.3054L19.9305 20.9305L17.3054 22.0394C17.1203 22.1176 17 22.299 17 22.5C17 22.701 17.1203 22.8824 17.3054 22.9606L19.9305 24.0695L21.0394 26.6946C21.1176 26.8797 21.299 27 21.5 27C21.701 27 21.8824 26.8797 21.9606 26.6946L23.0695 24.0695L25.6946 22.9606C25.8797 22.8824 26 22.701 26 22.5C26 22.299 25.8797 22.1176 25.6946 22.0394L23.0695 20.9305L21.9606 18.3054Z" fill="#2B2B2C"/>
</svg>
