<svg width="24" height="24" viewBox="0 0 24 24" fill="none" xmlns="http://www.w3.org/2000/svg">
<path fill-rule="evenodd" clip-rule="evenodd" d="M17.9606 2.80543C17.8824 2.62031 17.701 2.5 17.5 2.5C17.299 2.5 17.1176 2.62031 17.0394 2.80543L16.079 5.07897L13.8054 6.03941C13.6203 6.11761 13.5 6.29904 13.5 6.5C13.5 6.70096 13.6203 6.88239 13.8054 6.96059L16.079 7.92103L17.0394 10.1946C17.1176 10.3797 17.299 10.5 17.5 10.5C17.701 10.5 17.8824 10.3797 17.9606 10.1946L18.921 7.92103L21.1946 6.96059C21.3797 6.88239 21.5 6.70096 21.5 6.5C21.5 6.29904 21.3797 6.11761 21.1946 6.03941L18.921 5.07897L17.9606 2.80543ZM9.46059 4.80543C9.38239 4.62031 9.20096 4.5 9 4.5C8.79904 4.5 8.61761 4.62031 8.53941 4.80543L6.53952 9.53952L1.80543 11.5394C1.62031 11.6176 1.5 11.799 1.5 12C1.5 12.201 1.62031 12.3824 1.80543 12.4606L6.53952 14.4605L8.53941 19.1946C8.61761 19.3797 8.79904 19.5 9 19.5C9.20096 19.5 9.38239 19.3797 9.46059 19.1946L11.4605 14.4605L16.1946 12.4606C16.3797 12.3824 16.5 12.201 16.5 12C16.5 11.799 16.3797 11.6176 16.1946 11.5394L11.4605 9.53952L9.46059 4.80543ZM17.9606 13.8054C17.8824 13.6203 17.701 13.5 17.5 13.5C17.299 13.5 17.1176 13.6203 17.0394 13.8054L16.079 16.079L13.8054 17.0394C13.6203 17.1176 13.5 17.299 13.5 17.5C13.5 17.701 13.6203 17.8824 13.8054 17.9606L16.079 18.921L17.0394 21.1946C17.1176 21.3797 17.299 21.5 17.5 21.5C17.701 21.5 17.8824 21.3797 17.9606 21.1946L18.921 18.921L21.1946 17.9606C21.3797 17.8824 21.5 17.701 21.5 17.5C21.5 17.299 21.3797 17.1176 21.1946 17.0394L18.921 16.079L17.9606 13.8054Z" fill="#2B2B2C"/>
</svg>
