<svg width="18" height="18" viewBox="0 0 18 18" fill="none" xmlns="http://www.w3.org/2000/svg">
<g clip-path="url(#clip0_8671_45)">
<path d="M9.00018 3.58325C11.9915 3.58336 14.4162 6.00888 14.4162 9.00024C14.416 11.9915 11.9914 14.4162 9.00018 14.4163C6.00903 14.416 3.58335 11.9914 3.58319 9.00024C3.58319 6.00895 6.00894 3.58346 9.00018 3.58325ZM9.00018 4.41724C7.18685 4.41739 5.61917 5.47025 4.87616 6.99829L8.08221 5.25024C8.30436 5.42001 8.51873 5.60926 8.72089 5.81372L4.50409 8.11353C4.44785 8.40043 4.41718 8.69686 4.41718 9.00024C4.41718 9.10828 4.42251 9.21536 4.42987 9.32153L9.38885 6.61743C9.54089 6.83958 9.67288 7.07308 9.78534 7.31274L4.56561 10.1594C4.655 10.5023 4.78363 10.8293 4.9455 11.136L10.1105 8.31958C10.142 8.50297 10.1603 8.68815 10.1603 8.87427C10.1603 8.98711 10.154 9.10042 10.1437 9.21313L5.38104 11.8098C5.57522 12.0596 5.79444 12.2887 6.03534 12.4934L9.84393 10.4163C9.65379 10.89 9.38595 11.3438 9.05682 11.7571L6.77069 13.0032C7.43075 13.3717 8.19054 13.5832 9.00018 13.5833C11.5312 13.5831 13.583 11.5313 13.5832 9.00024C13.5832 6.4691 11.5313 4.41734 9.00018 4.41724Z" fill="#2B2B2C"/>
<path d="M8.59961 2.59961L8.59961 1C8.59961 0.779086 8.77909 0.599609 9 0.599609C9.22091 0.599609 9.40039 0.779086 9.40039 1L9.40039 2.59961C9.40039 2.82052 9.22091 3 9 3C8.77909 3 8.59961 2.82052 8.59961 2.59961Z" fill="#2B2B2C"/>
<path d="M8.59961 16.9995L8.59961 15.3999C8.59961 15.179 8.77909 14.9995 9 14.9995C9.22091 14.9995 9.40039 15.179 9.40039 15.3999L9.40039 16.9995C9.40039 17.2204 9.22091 17.3999 9 17.3999C8.77909 17.3999 8.59961 17.2204 8.59961 16.9995Z" fill="#2B2B2C"/>
<path d="M1.00037 8.59961L2.59998 8.59961C2.82089 8.59961 3.00037 8.77909 3.00037 9C3.00037 9.22091 2.82089 9.40039 2.59998 9.40039L1.00037 9.40039C0.779452 9.40039 0.599976 9.22091 0.599976 9C0.599976 8.77909 0.779452 8.59961 1.00037 8.59961Z" fill="#2B2B2C"/>
<path d="M15.4004 8.59961H17C17.2209 8.59961 17.4004 8.77909 17.4004 9C17.4004 9.22091 17.2209 9.40039 17 9.40039H15.4004C15.1795 9.40039 15 9.22091 15 9C15 8.77909 15.1795 8.59961 15.4004 8.59961Z" fill="#2B2B2C"/>
<path d="M4.19119 4.75748L3.0601 3.62638C2.90389 3.47017 2.90389 3.21635 3.0601 3.06014C3.21631 2.90393 3.47012 2.90393 3.62633 3.06014L4.75743 4.19124C4.91364 4.34745 4.91364 4.60127 4.75743 4.75748C4.60122 4.91368 4.3474 4.91368 4.19119 4.75748Z" fill="#2B2B2C"/>
<path d="M14.3735 14.9398L13.2424 13.8088C13.0862 13.6525 13.0862 13.3987 13.2424 13.2425C13.3986 13.0863 13.6524 13.0863 13.8086 13.2425L14.9397 14.3736C15.096 14.5298 15.096 14.7836 14.9397 14.9398C14.7835 15.0961 14.5297 15.0961 14.3735 14.9398Z" fill="#2B2B2C"/>
<path d="M3.06027 14.3734L4.19137 13.2423C4.34758 13.0861 4.6014 13.0861 4.75761 13.2423C4.91382 13.3986 4.91382 13.6524 4.75761 13.8086L3.62651 14.9397C3.4703 15.0959 3.21648 15.0959 3.06027 14.9397C2.90406 14.7835 2.90406 14.5297 3.06027 14.3734Z" fill="#2B2B2C"/>
<path d="M13.2425 4.19131L14.3736 3.06022C14.5298 2.90401 14.7836 2.90401 14.9399 3.06022C15.0961 3.21643 15.0961 3.47025 14.9399 3.62646L13.8088 4.75755C13.6526 4.91376 13.3987 4.91376 13.2425 4.75755C13.0863 4.60134 13.0863 4.34752 13.2425 4.19131Z" fill="#2B2B2C"/>
</g>
<defs>
<clipPath id="clip0_8671_45">
<rect width="18" height="18" fill="white"/>
</clipPath>
</defs>
</svg>
