<svg width="30" height="30" viewBox="0 0 30 30" fill="none" xmlns="http://www.w3.org/2000/svg">
<g clip-path="url(#clip0_8671_18)">
<path d="M15.0002 6.50024C19.6945 6.50043 23.5002 10.3059 23.5002 15.0002C23.5 19.6944 19.6944 23.5001 15.0002 23.5002C10.3059 23.5002 6.50038 19.6945 6.5002 15.0002C6.50022 10.3058 10.3058 6.50027 15.0002 6.50024ZM15.0002 7.50024C10.8581 7.50027 7.50022 10.8581 7.5002 15.0002C7.50038 19.1422 10.8582 22.5002 15.0002 22.5002C19.1421 22.5001 22.5 19.1421 22.5002 15.0002C22.5002 10.8582 19.1422 7.50043 15.0002 7.50024Z" fill="#2B2B2C"/>
<path d="M11.5 8C8.8168 8.97362 7 11.9086 7 15C7 19 10 22 12.5 22.5C15.3602 21.1553 16.5 17.9921 16.5 15C16.5 12.0079 13.9934 9.09685 11.5 8Z" fill="#2B2B2C"/>
<path d="M16 15C16 13.6417 15.4284 12.2689 14.5361 11.0908C13.6912 9.97539 12.584 9.06873 11.4824 8.54199C9.13092 9.4997 7.5 12.1563 7.5 15C7.5 16.8721 8.20181 18.5135 9.20117 19.748C10.1587 20.9308 11.3645 21.7078 12.4375 21.9717C14.9384 20.7045 16 17.842 16 15ZM17 15C17 18.0856 15.8236 21.4894 12.7129 22.9521L12.5635 23.0225L12.4023 22.9902C11.0145 22.7127 9.54308 21.7596 8.42383 20.377C7.29824 18.9865 6.5 17.1279 6.5 15C6.5 11.7362 8.41503 8.58789 11.3291 7.53027L11.5176 7.46191L11.7012 7.54199C13.0331 8.12791 14.3493 9.1872 15.334 10.4873C16.3183 11.7869 17 13.3662 17 15Z" fill="#2B2B2C"/>
<path d="M14.5 4.59961L14.5 2C14.5 1.72386 14.7239 1.5 15 1.5C15.2761 1.5 15.5 1.72386 15.5 2L15.5 4.59961C15.5 4.87575 15.2761 5.09961 15 5.09961C14.7239 5.09961 14.5 4.87575 14.5 4.59961Z" fill="#2B2B2C"/>
<path d="M14.5 27.9995L14.5 25.3999C14.5 25.1238 14.7239 24.8999 15 24.8999C15.2761 24.8999 15.5 25.1238 15.5 25.3999L15.5 27.9995C15.5 28.2757 15.2761 28.4995 15 28.4995C14.7239 28.4995 14.5 28.2757 14.5 27.9995Z" fill="#2B2B2C"/>
<path d="M2.0004 14.5L4.60001 14.5C4.87615 14.5 5.10001 14.7239 5.10001 15C5.10001 15.2761 4.87615 15.5 4.60001 15.5L2.0004 15.5C1.72425 15.5 1.5004 15.2761 1.5004 15C1.5004 14.7239 1.72425 14.5 2.0004 14.5Z" fill="#2B2B2C"/>
<path d="M25.4004 14.5H28C28.2761 14.5 28.5 14.7239 28.5 15C28.5 15.2761 28.2761 15.5 28 15.5H25.4004C25.1242 15.5 24.9004 15.2761 24.9004 15C24.9004 14.7239 25.1242 14.5 25.4004 14.5Z" fill="#2B2B2C"/>
<path d="M7.29223 7.99937L5.45403 6.16117C5.25877 5.96591 5.25877 5.64933 5.45403 5.45406C5.64929 5.2588 5.96588 5.2588 6.16114 5.45406L7.99934 7.29227C8.1946 7.48753 8.1946 7.80411 7.99934 7.99937C7.80408 8.19463 7.4875 8.19463 7.29223 7.99937Z" fill="#2B2B2C"/>
<path d="M23.8383 24.5453L22.0001 22.7071C21.8048 22.5118 21.8048 22.1952 22.0001 22C22.1953 21.8047 22.5119 21.8047 22.7072 22L24.5454 23.8382C24.7407 24.0334 24.7407 24.35 24.5454 24.5453C24.3501 24.7405 24.0335 24.7405 23.8383 24.5453Z" fill="#2B2B2C"/>
<path d="M5.45461 23.8382L7.29281 22C7.48807 21.8048 7.80465 21.8048 7.99992 22C8.19518 22.1953 8.19518 22.5119 7.99992 22.7071L6.16171 24.5453C5.96645 24.7406 5.64987 24.7406 5.45461 24.5453C5.25935 24.3501 5.25935 24.0335 5.45461 23.8382Z" fill="#2B2B2C"/>
<path d="M22.0007 7.29234L23.8389 5.45414C24.0341 5.25888 24.3507 5.25888 24.546 5.45414C24.7412 5.6494 24.7412 5.96598 24.546 6.16125L22.7078 7.99945C22.5125 8.19471 22.1959 8.19471 22.0007 7.99945C21.8054 7.80419 21.8054 7.4876 22.0007 7.29234Z" fill="#2B2B2C"/>
</g>
<defs>
<clipPath id="clip0_8671_18">
<rect width="30" height="30" fill="white"/>
</clipPath>
</defs>
</svg>
