<svg width="30" height="30" viewBox="0 0 30 30" fill="none" xmlns="http://www.w3.org/2000/svg">
<g clip-path="url(#clip0_8671_11)">
<path d="M15.0002 6.50024C19.6945 6.50043 23.5002 10.3059 23.5002 15.0002C23.5 19.6944 19.6944 23.5001 15.0002 23.5002C10.3059 23.5002 6.50038 19.6945 6.5002 15.0002C6.50022 10.3058 10.3058 6.50027 15.0002 6.50024ZM15.0002 7.50024C12.0874 7.50026 9.56369 9.16117 8.32148 11.5872L13.4885 8.76978C13.7643 8.98507 14.0338 9.21945 14.2922 9.46997L7.76191 13.0315C7.6102 13.5907 7.52256 14.1756 7.50508 14.7786L15.258 10.551C15.4628 10.817 15.6527 11.0944 15.8264 11.3792L7.55391 15.8909C7.60742 16.3429 7.70004 16.7826 7.83027 17.2063L16.4104 12.5266C16.5398 12.8437 16.6452 13.1671 16.7238 13.4934L8.1916 18.1458C8.37222 18.536 8.58412 18.9086 8.82637 19.259L16.883 14.8655C16.8789 15.2614 16.8395 15.6638 16.7678 16.0667L9.4582 20.053C9.78925 20.4158 10.156 20.7452 10.552 21.0374L16.1965 17.9592C15.9555 18.5227 15.6561 19.0696 15.3068 19.5833L11.5246 21.6458C12.5637 22.1902 13.7457 22.5002 15.0002 22.5002C19.1421 22.5001 22.5 19.1421 22.5002 15.0002C22.5002 10.8582 19.1422 7.50043 15.0002 7.50024Z" fill="#2B2B2C"/>
<path d="M16 15C16 12.2687 14.206 9.52755 11.9902 8.53906C9.56378 9.5117 7.5 12.2067 7.5 15C7.5 16.8721 8.20181 18.5135 9.20117 19.748C10.1506 20.9209 11.344 21.6955 12.4102 21.9658C14.639 20.5355 16 17.7734 16 15ZM17 15C17 18.1418 15.4285 21.3257 12.7568 22.9287L12.5918 23.0283L12.4023 22.9902C11.0145 22.7127 9.54308 21.7596 8.42383 20.377C7.29824 18.9865 6.5 17.1279 6.5 15C6.5 11.6796 8.96654 8.56919 11.8291 7.53027L12.0088 7.46484L12.1855 7.53613C14.8895 8.6177 17 11.819 17 15Z" fill="#2B2B2C"/>
<path d="M14.5 4.59961L14.5 2C14.5 1.72386 14.7239 1.5 15 1.5C15.2761 1.5 15.5 1.72386 15.5 2L15.5 4.59961C15.5 4.87575 15.2761 5.09961 15 5.09961C14.7239 5.09961 14.5 4.87575 14.5 4.59961Z" fill="#2B2B2C"/>
<path d="M14.5 27.9995L14.5 25.3999C14.5 25.1238 14.7239 24.8999 15 24.8999C15.2761 24.8999 15.5 25.1238 15.5 25.3999L15.5 27.9995C15.5 28.2757 15.2761 28.4995 15 28.4995C14.7239 28.4995 14.5 28.2757 14.5 27.9995Z" fill="#2B2B2C"/>
<path d="M2.00039 14.5L4.6 14.5C4.87614 14.5 5.1 14.7239 5.1 15C5.1 15.2761 4.87614 15.5 4.6 15.5L2.00039 15.5C1.72425 15.5 1.50039 15.2761 1.50039 15C1.50039 14.7239 1.72425 14.5 2.00039 14.5Z" fill="#2B2B2C"/>
<path d="M25.4004 14.5H28C28.2761 14.5 28.5 14.7239 28.5 15C28.5 15.2761 28.2761 15.5 28 15.5H25.4004C25.1243 15.5 24.9004 15.2761 24.9004 15C24.9004 14.7239 25.1243 14.5 25.4004 14.5Z" fill="#2B2B2C"/>
<path d="M7.29223 7.99937L5.45402 6.16117C5.25876 5.96591 5.25876 5.64933 5.45402 5.45406C5.64929 5.2588 5.96587 5.2588 6.16113 5.45406L7.99933 7.29227C8.1946 7.48753 8.1946 7.80411 7.99933 7.99937C7.80407 8.19463 7.48749 8.19463 7.29223 7.99937Z" fill="#2B2B2C"/>
<path d="M23.8383 24.5453L22.0001 22.7071C21.8048 22.5118 21.8048 22.1952 22.0001 22C22.1953 21.8047 22.5119 21.8047 22.7072 22L24.5454 23.8382C24.7406 24.0334 24.7406 24.35 24.5454 24.5453C24.3501 24.7405 24.0335 24.7405 23.8383 24.5453Z" fill="#2B2B2C"/>
<path d="M5.45461 23.8382L7.29281 22C7.48808 21.8048 7.80466 21.8048 7.99992 22C8.19518 22.1953 8.19518 22.5119 7.99992 22.7071L6.16172 24.5453C5.96646 24.7406 5.64987 24.7406 5.45461 24.5453C5.25935 24.3501 5.25935 24.0335 5.45461 23.8382Z" fill="#2B2B2C"/>
<path d="M22.0007 7.29234L23.8389 5.45414C24.0341 5.25888 24.3507 5.25888 24.546 5.45414C24.7412 5.6494 24.7412 5.96598 24.546 6.16125L22.7078 7.99945C22.5125 8.19471 22.1959 8.19471 22.0007 7.99945C21.8054 7.80419 21.8054 7.4876 22.0007 7.29234Z" fill="#2B2B2C"/>
</g>
<defs>
<clipPath id="clip0_8671_11">
<rect width="30" height="30" fill="white"/>
</clipPath>
</defs>
</svg>
