<svg width="24" height="24" viewBox="0 0 24 24" fill="none" xmlns="http://www.w3.org/2000/svg">
<g clip-path="url(#clip0_8671_28)">
<path d="M12 5.5C15.5899 5.5 18.5 8.41015 18.5 12C18.5 15.5899 15.5899 18.5 12 18.5C8.41015 18.5 5.5 15.5899 5.5 12C5.5 8.41015 8.41015 5.5 12 5.5ZM12 6.5C9.94385 6.5 8.15174 7.62858 7.20801 9.2998L10.8535 7.3125C11.1312 7.52477 11.3996 7.76096 11.6523 8.0166L6.64453 10.7471C6.55072 11.1496 6.5 11.5689 6.5 12C6.5 12.0946 6.50114 12.1888 6.50586 12.2822L12.4863 9.02148C12.6762 9.29895 12.8439 9.58935 12.9844 9.88867L6.66309 13.335C6.77065 13.7664 6.93012 14.1772 7.13281 14.5615L13.3887 11.1494C13.4279 11.3784 13.4502 11.6103 13.4502 11.8428C13.4502 11.9836 13.4435 12.125 13.4307 12.2656L7.67969 15.4014C7.92514 15.7127 8.20274 15.9973 8.50879 16.249L13.0605 13.7666C12.8229 14.3602 12.4835 14.9276 12.0713 15.4453L9.45117 16.874C10.2132 17.2733 11.08 17.5 12 17.5C15.0376 17.5 17.5 15.0376 17.5 12C17.5 8.96243 15.0376 6.5 12 6.5Z" fill="#2B2B2C"/>
<path d="M11.5 4L11.5 2C11.5 1.72386 11.7239 1.5 12 1.5C12.2761 1.5 12.5 1.72386 12.5 2L12.5 4C12.5 4.27614 12.2761 4.5 12 4.5C11.7239 4.5 11.5 4.27614 11.5 4Z" fill="#2B2B2C"/>
<path d="M11.5 22L11.5 20C11.5 19.7239 11.7239 19.5 12 19.5C12.2761 19.5 12.5 19.7239 12.5 20L12.5 22C12.5 22.2761 12.2761 22.5 12 22.5C11.7239 22.5 11.5 22.2761 11.5 22Z" fill="#2B2B2C"/>
<path d="M2 11.5L4 11.5C4.27614 11.5 4.5 11.7239 4.5 12C4.5 12.2761 4.27614 12.5 4 12.5L2 12.5C1.72386 12.5 1.5 12.2761 1.5 12C1.5 11.7239 1.72386 11.5 2 11.5Z" fill="#2B2B2C"/>
<path d="M20 11.5H22C22.2761 11.5 22.5 11.7239 22.5 12C22.5 12.2761 22.2761 12.5 22 12.5H20C19.7239 12.5 19.5 12.2761 19.5 12C19.5 11.7239 19.7239 11.5 20 11.5Z" fill="#2B2B2C"/>
<path d="M5.98963 6.69672L4.57542 5.28251C4.38015 5.08725 4.38015 4.77066 4.57542 4.5754C4.77068 4.38014 5.08726 4.38014 5.28252 4.5754L6.69674 5.98962C6.892 6.18488 6.892 6.50146 6.69674 6.69672C6.50147 6.89198 6.18489 6.89198 5.98963 6.69672Z" fill="#2B2B2C"/>
<path d="M18.7174 19.4245L17.3032 18.0103C17.1079 17.815 17.1079 17.4984 17.3032 17.3032C17.4985 17.1079 17.815 17.1079 18.0103 17.3032L19.4245 18.7174C19.6198 18.9127 19.6198 19.2292 19.4245 19.4245C19.2293 19.6198 18.9127 19.6198 18.7174 19.4245Z" fill="#2B2B2C"/>
<path d="M4.57549 18.7175L5.98971 17.3033C6.18497 17.108 6.50155 17.108 6.69682 17.3033C6.89208 17.4985 6.89208 17.8151 6.69682 18.0104L5.2826 19.4246C5.08734 19.6198 4.77076 19.6198 4.5755 19.4246C4.38023 19.2293 4.38023 18.9127 4.57549 18.7175Z" fill="#2B2B2C"/>
<path d="M17.3033 5.98969L18.7175 4.57548C18.9128 4.38022 19.2293 4.38022 19.4246 4.57548C19.6199 4.77074 19.6199 5.08732 19.4246 5.28258L18.0104 6.6968C17.8151 6.89206 17.4985 6.89206 17.3033 6.6968C17.108 6.50154 17.108 6.18495 17.3033 5.98969Z" fill="#2B2B2C"/>
</g>
<defs>
<clipPath id="clip0_8671_28">
<rect width="24" height="24" fill="white"/>
</clipPath>
</defs>
</svg>
