<svg width="18" height="18" viewBox="0 0 18 18" fill="none" xmlns="http://www.w3.org/2000/svg">
<path fill-rule="evenodd" clip-rule="evenodd" d="M2.5 9C2.5 5.41015 5.41015 2.5 9 2.5C12.5899 2.5 15.5 5.41015 15.5 9C15.5 10.317 15.1089 11.5412 14.4364 12.5645C14.2983 12.5226 14.1518 12.5 14 12.5C13.1716 12.5 12.5 13.1716 12.5 14C12.5 14.1518 12.5226 14.2983 12.5645 14.4364C11.5412 15.1089 10.317 15.5 9 15.5C5.41015 15.5 2.5 12.5899 2.5 9ZM13.1589 15.2422C11.9685 16.0367 10.5376 16.5 9 16.5C4.85786 16.5 1.5 13.1421 1.5 9C1.5 4.85786 4.85786 1.5 9 1.5C13.1421 1.5 16.5 4.85786 16.5 9C16.5 10.5376 16.0367 11.9685 15.2422 13.1589C15.4049 13.3988 15.5 13.6883 15.5 14C15.5 14.8284 14.8284 15.5 14 15.5C13.6883 15.5 13.3988 15.4049 13.1589 15.2422ZM6 9C6 7.34315 7.34315 6 9 6C10.6569 6 12 7.34315 12 9C12 10.6569 10.6569 12 9 12C7.34315 12 6 10.6569 6 9Z" fill="#2B2B2C"/>
</svg>
