<svg width="30" height="30" viewBox="0 0 30 30" fill="none" xmlns="http://www.w3.org/2000/svg">
<path fill-rule="evenodd" clip-rule="evenodd" d="M14.9745 4.02942C8.89936 4.02942 3.97449 8.95429 3.97449 15.0294C3.97449 21.1046 8.89936 26.0294 14.9745 26.0294C17.1459 26.0294 19.1691 25.4007 20.8737 24.3155C20.6368 23.9334 20.5 23.4827 20.5 23C20.5 21.6193 21.6193 20.5 23 20.5C23.4765 20.5 23.922 20.6333 24.3009 20.8647C25.3614 19.1736 25.9745 17.1737 25.9745 15.0294C25.9745 8.95429 21.0496 4.02942 14.9745 4.02942ZM25.0437 21.5597C26.265 19.6802 26.9745 17.437 26.9745 15.0294C26.9745 8.402 21.6019 3.02942 14.9745 3.02942C8.34707 3.02942 2.97449 8.402 2.97449 15.0294C2.97449 21.6568 8.34707 27.0294 14.9745 27.0294C17.4115 27.0294 19.6802 26.3024 21.5737 25.0535C21.9782 25.335 22.4698 25.5 23 25.5C24.3807 25.5 25.5 24.3807 25.5 23C25.5 22.4637 25.3311 21.9668 25.0437 21.5597ZM15 11.5C13.067 11.5 11.5 13.067 11.5 15C11.5 16.933 13.067 18.5 15 18.5C16.933 18.5 18.5 16.933 18.5 15C18.5 13.067 16.933 11.5 15 11.5ZM10.5 15C10.5 12.5147 12.5147 10.5 15 10.5C17.4853 10.5 19.5 12.5147 19.5 15C19.5 17.4853 17.4853 19.5 15 19.5C12.5147 19.5 10.5 17.4853 10.5 15ZM21.5 23C21.5 22.1716 22.1716 21.5 23 21.5C23.8284 21.5 24.5 22.1716 24.5 23C24.5 23.8284 23.8284 24.5 23 24.5C22.1716 24.5 21.5 23.8284 21.5 23Z" fill="#2B2B2C"/>
</svg>
