<svg width="18" height="18" viewBox="0 0 18 18" fill="none" xmlns="http://www.w3.org/2000/svg">
<path fill-rule="evenodd" clip-rule="evenodd" d="M14.4795 5H15.7515C15.7545 5 15.7567 5.0105 15.7537 5.01125V5.012C15.6697 5.03675 15.597 5.1245 15.5715 5.2085C15.5715 5.2085 14.6775 8.1935 14.5252 8.70275C14.37 9.2195 14.193 9.60425 13.6897 9.63875C13.3777 9.536 13.1527 9.13925 13.0372 8.75C12.999 8.62316 12.9292 8.38872 12.844 8.10216C12.8123 7.99561 12.7784 7.88186 12.7432 7.76375L13.3192 5.8295C13.488 5.2445 13.7535 5 14.241 5H14.4795ZM5.43302 10.384L5.43316 10.3835L5.44808 10.3331C5.07533 9.0551 4.13558 5.8301 4.13558 5.8301C3.96608 5.2451 3.70058 5.00135 3.21308 5.00135L1.49483 5.0051C1.49183 5.0051 1.48883 5.00735 1.48883 5.01035C1.48883 5.01335 1.49108 5.0156 1.49408 5.01635C1.75883 5.06135 1.91408 5.24285 2.01833 5.6051L3.78608 11.6336C3.94583 12.1998 4.21283 12.4008 4.46708 12.4563C4.55183 12.4413 4.63358 12.4091 4.69883 12.3521C4.88858 12.1976 4.98008 11.9148 5.05958 11.6456C5.06324 11.6324 5.21943 11.1051 5.43299 10.384L5.43302 10.384ZM8.46241 5.01284C8.46166 5.01284 8.43466 5.01209 8.39716 5.01059C7.86541 5.05484 7.31641 5.32034 7.09516 6.15209C7.00741 6.48434 5.49316 11.6053 5.48116 11.6458C5.40091 11.9151 5.31016 12.1978 5.11966 12.3523C5.04916 12.4138 4.96216 12.4528 4.86916 12.4656C4.86691 12.4656 4.86466 12.4678 4.86466 12.4708C4.86466 12.4738 4.86691 12.4768 4.86991 12.4768H4.87066H5.04391L5.61166 12.4761C5.61166 12.4761 5.61166 12.4768 5.61241 12.4768H5.61316H5.86366C5.86601 12.4768 5.86795 12.4764 5.86981 12.476C5.8715 12.4757 5.87312 12.4753 5.87491 12.4753L6.43291 12.4746C6.43319 12.4746 6.43337 12.4748 6.43352 12.4751L6.43366 12.4753C6.43385 12.4757 6.43403 12.4761 6.43441 12.4761H6.53191C6.53191 12.4761 6.60166 12.4753 6.61516 12.4746C7.11091 12.4543 7.35841 12.2436 7.57066 11.5243C7.72441 10.9978 9.13516 6.19334 9.14791 6.15209C9.18316 6.03584 9.22441 5.91134 9.27091 5.78759C8.98763 5.07616 8.54113 5.02239 8.46979 5.0138L8.46241 5.01284ZM12.5614 8.54401L12.5615 8.54454C12.5891 8.63794 12.6064 8.69649 12.6101 8.7071L12.6207 8.73858L12.6207 8.73859C12.7566 9.14304 12.8502 9.42153 13.0571 9.5546C13.1254 9.5996 13.2004 9.63035 13.2799 9.6521C13.2791 9.6536 13.2776 9.65585 13.2761 9.65585H13.2116C13.1419 9.65585 11.8174 9.6536 11.8174 9.6536L11.5721 9.65585C11.0599 9.65585 10.7396 9.3701 10.4929 8.4971C10.3851 8.11576 10.0771 7.07325 9.80491 6.15206L9.80471 6.15137L9.75787 5.99285C9.48843 5.08089 8.96632 5.02299 8.88272 5.01371L8.87362 5.0126C8.87062 5.0126 8.86837 5.0096 8.86837 5.0066C8.86912 5.0036 8.87137 5.00135 8.87512 5.00135H9.09112L9.61987 5.00285C9.62025 5.00285 9.62044 5.00247 9.62062 5.0021C9.62081 5.00172 9.621 5.00135 9.62137 5.00135H9.82087C9.82349 5.00135 9.82575 5.00208 9.8279 5.00278L9.83062 5.0036L10.3406 5.00435C10.3413 5.00402 10.3418 5.00342 10.3423 5.00284C10.3429 5.00207 10.3435 5.00135 10.3444 5.00135C10.3549 5.00135 10.3673 5.00212 10.3799 5.00291C10.3888 5.00347 10.3979 5.00404 10.4066 5.00435H10.4411L10.4456 5.00585C10.8476 5.0291 11.5564 5.19635 11.7986 5.99285C11.9806 6.59265 12.2481 7.49081 12.4361 8.12223L12.4984 8.33135L12.5614 8.54401ZM16.4883 5.57787C16.5851 5.24487 16.3518 5.03637 16.1433 5.00487L16.1413 5.00486C16.1175 5.00467 15.886 5.00284 15.8846 5.00712C15.8831 5.01162 15.8891 5.01462 15.8906 5.01537C15.9326 5.03712 15.9783 5.08737 15.9536 5.17362L14.8076 9.07662C14.8068 9.07662 14.8068 9.07812 14.8068 9.07812C14.8055 9.08198 14.8033 9.08584 14.801 9.08969C14.7993 9.09259 14.7976 9.09548 14.7963 9.09837L14.7851 9.13737C14.7851 9.13737 14.6456 9.74862 14.2518 9.83487C13.8581 9.92187 12.9258 9.92487 12.9258 9.92487L12.7494 10.5087L12.7493 10.509C12.6209 10.9338 12.4993 11.3358 12.4413 11.5314C12.1878 12.3811 12.5876 12.4689 12.7398 12.4689H12.8643H13.0623H13.4838H13.7988H14.2256H14.3396H14.4731H14.5496H14.6628H14.7978C14.8008 12.4689 14.8031 12.4659 14.8038 12.4629C14.8038 12.4599 14.8016 12.4576 14.7986 12.4576C14.6741 12.4216 14.5173 12.2836 14.6643 11.7916C14.6643 11.7916 16.3916 5.91087 16.4883 5.57787Z" fill="#2B2B2C"/>
</svg>
