<svg width="25" height="24" viewBox="0 0 25 24" fill="none" xmlns="http://www.w3.org/2000/svg">
<path fill-rule="evenodd" clip-rule="evenodd" d="M20.525 6.50946H22.3879C22.3923 6.50946 22.3956 6.52484 22.3912 6.52594V6.52703C22.2682 6.56328 22.1616 6.6918 22.1243 6.81482C22.1243 6.81482 20.815 11.1865 20.592 11.9323C20.3646 12.6891 20.1054 13.2526 19.3684 13.3031C18.9114 13.1526 18.5819 12.5716 18.4127 12.0015C18.3567 11.8157 18.2545 11.4724 18.1297 11.0527C18.0832 10.8967 18.0337 10.7301 17.9822 10.5571L18.8257 7.7243C19.0729 6.86754 19.4617 6.50946 20.1757 6.50946H20.525ZM6.72909 16.2422C6.73447 16.2229 6.96397 15.448 7.27753 14.3894L7.29807 14.32C6.75216 12.4483 5.37586 7.72518 5.37586 7.72518C5.12762 6.86842 4.73878 6.51144 4.02481 6.51144L1.50836 6.51693C1.50397 6.51693 1.49957 6.52023 1.49957 6.52462C1.49957 6.52901 1.50287 6.53231 1.50726 6.53341C1.895 6.59931 2.12237 6.86513 2.27505 7.39566L4.864 16.2247C5.09796 17.054 5.48899 17.3483 5.86135 17.4296C5.98547 17.4076 6.1052 17.3604 6.20076 17.2769C6.47866 17.0507 6.61266 16.6366 6.72909 16.2422ZM11.7127 6.52824C11.7116 6.52824 11.672 6.52714 11.6171 6.52495C10.8383 6.58975 10.0343 6.97859 9.71028 8.19672C9.58177 8.68332 7.36408 16.1833 7.34651 16.2426C7.22898 16.6369 7.09607 17.051 6.81708 17.2773C6.71382 17.3673 6.58641 17.4245 6.45021 17.4431C6.44691 17.4431 6.44362 17.4464 6.44362 17.4508C6.44362 17.4552 6.44691 17.4596 6.45131 17.4596H6.4524H6.70614L7.53763 17.4585C7.53763 17.4585 7.53763 17.4596 7.53873 17.4596H7.53983H7.9067C7.91014 17.4596 7.91299 17.459 7.9157 17.4584C7.91818 17.4579 7.92055 17.4574 7.92317 17.4574L8.74039 17.4563C8.74094 17.4563 8.74121 17.4569 8.74149 17.4574C8.74176 17.458 8.74204 17.4585 8.74258 17.4585H8.88538C8.88538 17.4585 8.98753 17.4574 9.0073 17.4563C9.73335 17.4266 10.0958 17.118 10.4067 16.0646C10.6318 15.2935 12.698 8.25714 12.7166 8.19672C12.7683 8.02647 12.8287 7.84414 12.8968 7.6629C12.4819 6.62097 11.828 6.54222 11.7235 6.52964L11.7127 6.52824ZM17.7158 11.7L17.7159 11.7001C17.7564 11.8372 17.7818 11.9231 17.7872 11.9387L17.8027 11.9848C18.0017 12.5771 18.1388 12.985 18.4418 13.1799C18.5418 13.2458 18.6516 13.2908 18.7681 13.3227C18.767 13.3249 18.7648 13.3282 18.7626 13.3282H18.6681C18.566 13.3282 16.6262 13.3249 16.6262 13.3249L16.267 13.3282C15.5168 13.3282 15.0478 12.9097 14.6864 11.6311C14.5286 11.0728 14.0777 9.54649 13.6791 8.19759L13.679 8.19734L13.6788 8.19646L13.6099 7.96353C13.2153 6.62793 12.4507 6.54313 12.3282 6.52955C12.3222 6.52888 12.3177 6.52838 12.3149 6.52791C12.3105 6.52791 12.3072 6.52352 12.3072 6.51913C12.3083 6.51473 12.3116 6.51144 12.3171 6.51144H12.6335L13.4078 6.51363C13.4084 6.51363 13.4087 6.51309 13.4089 6.51254C13.4092 6.51199 13.4095 6.51144 13.41 6.51144H13.7022C13.7061 6.51144 13.7094 6.51251 13.7125 6.51353L13.7165 6.51473L14.4634 6.51583C14.4644 6.51536 14.4651 6.51449 14.4658 6.51364L14.4658 6.51363L14.4658 6.51362C14.4668 6.5125 14.4677 6.51144 14.4689 6.51144C14.4843 6.51144 14.5024 6.51257 14.5209 6.51373L14.5209 6.51373C14.534 6.51454 14.5473 6.51538 14.5601 6.51583H14.6106L14.6172 6.51803C15.2059 6.55208 16.2439 6.79702 16.5987 7.96353C16.8653 8.8419 17.2569 10.1572 17.5323 11.0819L17.6235 11.3884C17.6594 11.509 17.6906 11.6145 17.7158 11.7ZM23.467 7.35577C23.6087 6.86808 23.267 6.56272 22.9617 6.51659L22.9588 6.51656C22.9239 6.51629 22.5848 6.51361 22.5827 6.51988C22.5805 6.52647 22.5893 6.53087 22.5915 6.53196C22.653 6.56382 22.72 6.63741 22.6838 6.76373L21.0054 12.4798C21.0043 12.4798 21.0043 12.482 21.0043 12.482C21.0024 12.4877 20.9991 12.4933 20.9958 12.499C20.9933 12.5032 20.9908 12.5075 20.9889 12.5117L20.9725 12.5688C20.9725 12.5688 20.7682 13.464 20.1915 13.5903C19.6148 13.7178 18.2495 13.7221 18.2495 13.7221C18.1669 13.996 18.0782 14.2891 17.9917 14.5753L17.9908 14.5783L17.9906 14.5791C17.8027 15.2006 17.6248 15.7888 17.5399 16.0749C17.1687 17.3194 17.7541 17.4479 17.9771 17.4479H18.1594H18.4494H19.0667H19.5281H20.1531H20.32H20.5155H20.6276H20.7934H20.9911C20.9955 17.4479 20.9988 17.4436 20.9999 17.4392C20.9999 17.4348 20.9966 17.4315 20.9922 17.4315C20.8099 17.3787 20.5803 17.1766 20.7956 16.4561C20.7956 16.4561 23.3253 7.84346 23.467 7.35577Z" fill="#2B2B2C"/>
</svg>
