<svg width="30" height="30" viewBox="0 0 30 30" fill="none" xmlns="http://www.w3.org/2000/svg">
<path fill-rule="evenodd" clip-rule="evenodd" d="M25.2133 8.2627H27.5841C27.5897 8.2627 27.5939 8.28227 27.5883 8.28366V8.28506C27.4318 8.33119 27.2962 8.49475 27.2486 8.65132C27.2486 8.65132 25.5823 14.215 25.2985 15.1642C25.0092 16.1274 24.6793 16.8445 23.7413 16.9088C23.1597 16.7173 22.7403 15.9778 22.5251 15.2523C22.4537 15.0158 22.3236 14.5785 22.1646 14.0441C22.1056 13.8457 22.0425 13.6339 21.9771 13.414L23.0507 9.8088C23.3652 8.71842 23.8601 8.2627 24.7687 8.2627H25.2133ZM7.6555 20.6494C7.66233 20.6248 7.9531 19.6431 8.35078 18.3004L8.37963 18.203C7.68486 15.821 5.93326 9.80992 5.93326 9.80992C5.61733 8.71955 5.12247 8.26522 4.21382 8.26522L1.01118 8.27221C1.00559 8.27221 1 8.2764 1 8.282C1 8.28759 1.00419 8.29178 1.00979 8.29318C1.50325 8.37705 1.79262 8.71535 1.98693 9.39055L5.28183 20.627C5.57959 21.6825 6.07725 22.0571 6.55115 22.1606C6.70911 22.1326 6.86148 22.0725 6.9831 21.9662C7.33678 21.6783 7.50732 21.1513 7.6555 20.6494ZM13.998 8.28662C13.9966 8.28662 13.9463 8.28522 13.8764 8.28242C12.8853 8.3649 11.862 8.85976 11.4496 10.4101C11.286 11.0293 8.46364 20.5743 8.44127 20.6498C8.2917 21.1517 8.12255 21.6787 7.76747 21.9667C7.63607 22.0813 7.47391 22.154 7.30057 22.1778C7.29638 22.1778 7.29218 22.182 7.29218 22.1875C7.29218 22.1931 7.29638 22.1987 7.30197 22.1987H7.30336H7.62628L8.68451 22.1973C8.68451 22.1973 8.68451 22.1975 8.68458 22.1978C8.68462 22.1979 8.6847 22.1981 8.68482 22.1982L8.68509 22.1985L8.68591 22.1987H8.68731H9.15421C9.1586 22.1987 9.16222 22.198 9.16567 22.1972C9.16883 22.1966 9.17185 22.1959 9.17518 22.1959L10.2152 22.1945C10.2159 22.1945 10.2163 22.1952 10.2166 22.1959C10.217 22.1966 10.2173 22.1973 10.218 22.1973H10.3998C10.3998 22.1973 10.5298 22.1959 10.5549 22.1945C11.479 22.1568 11.9403 21.764 12.3359 20.4234C12.6225 19.442 15.2519 10.4869 15.2757 10.4101C15.3414 10.1934 15.4183 9.96133 15.505 9.73067C14.977 8.40463 14.1447 8.30441 14.0118 8.28839L13.998 8.28662ZM21.6381 14.8687L21.6382 14.8688C21.6897 15.0432 21.7221 15.1526 21.7289 15.1723L21.7487 15.231C22.002 15.9849 22.1764 16.504 22.5621 16.752C22.6893 16.8359 22.8291 16.8932 22.9773 16.9337C22.9759 16.9365 22.9731 16.9407 22.9703 16.9407H22.8501C22.7201 16.9407 20.2513 16.9365 20.2513 16.9365L19.7942 16.9407C18.8394 16.9407 18.2425 16.4081 17.7826 14.7809C17.5818 14.0702 17.0077 12.1273 16.5004 10.4103L16.5001 10.4093L16.4126 10.1133C15.9104 8.41348 14.9373 8.30555 14.7814 8.28827C14.7738 8.28741 14.7681 8.28678 14.7645 8.28619C14.7589 8.28619 14.7547 8.2806 14.7547 8.27501C14.7561 8.26941 14.7603 8.26522 14.7673 8.26522H15.1699L16.1554 8.26802C16.1561 8.26802 16.1565 8.26732 16.1568 8.26662V8.26662V8.26662C16.1572 8.26592 16.1575 8.26522 16.1582 8.26522H16.5301C16.535 8.26522 16.5392 8.26659 16.5432 8.26789L16.5482 8.26941L17.4988 8.27081C17.5 8.27021 17.501 8.26908 17.5019 8.268C17.5031 8.26657 17.5042 8.26522 17.5058 8.26522C17.5255 8.26522 17.5485 8.26666 17.572 8.26813C17.5887 8.26917 17.6056 8.27023 17.6218 8.27081H17.6862L17.6945 8.27361C18.4438 8.31694 19.7649 8.62868 20.2164 10.1133C20.5556 11.231 21.0539 12.9046 21.4044 14.0815L21.4049 14.0832L21.5207 14.472C21.5663 14.6256 21.606 14.7598 21.6381 14.8687ZM28.9575 9.33981C29.1378 8.71913 28.703 8.33051 28.3144 8.2718L28.3107 8.27177C28.2663 8.27142 27.8348 8.26801 27.8321 8.27599C27.8293 8.28438 27.8405 8.28997 27.8433 8.29137C27.9216 8.33191 28.0069 8.42557 27.9607 8.58633L25.8247 15.8611C25.8233 15.8611 25.8233 15.8639 25.8233 15.8639C25.8209 15.8711 25.8167 15.8783 25.8125 15.8855C25.8093 15.8909 25.8061 15.8963 25.8037 15.9017L25.7828 15.9743C25.7828 15.9743 25.5228 17.1137 24.7889 17.2744C24.0549 17.4366 22.3173 17.4422 22.3173 17.4422C22.2119 17.7917 22.0987 18.1659 21.9883 18.5311C21.7489 19.3227 21.5224 20.072 21.4143 20.4365C20.9418 22.0204 21.6869 22.1839 21.9706 22.1839H22.2027H22.5718H23.3574H23.9445H24.7399H24.9524H25.2012H25.3438H25.5549H25.8065C25.8121 22.1839 25.8163 22.1783 25.8177 22.1727C25.8177 22.1671 25.8135 22.1629 25.8079 22.1629C25.5759 22.0958 25.2837 21.8386 25.5577 20.9216C25.5577 20.9216 28.7771 9.96049 28.9575 9.33981Z" fill="#2B2B2C"/>
</svg>
