<svg width="24" height="24" viewBox="0 0 24 24" fill="none" xmlns="http://www.w3.org/2000/svg">
<path fill-rule="evenodd" clip-rule="evenodd" d="M12 3.12498C12.4832 3.12498 12.875 3.51674 12.875 3.99998V5.88755L13.3813 5.38127C13.723 5.03956 14.277 5.03956 14.6187 5.38127C14.9604 5.72298 14.9604 6.27699 14.6187 6.6187L12.875 8.36242V10.4845L14.7127 9.42345L15.351 7.04148C15.4761 6.5747 15.9559 6.29769 16.4226 6.42276C16.8894 6.54784 17.1664 7.02763 17.0414 7.49442L16.856 8.18601L18.4907 7.24223C18.9092 7.0006 19.4444 7.14399 19.686 7.5625C19.9276 7.98101 19.7842 8.51615 19.3657 8.75777L17.731 9.70155L18.4226 9.88687C18.8894 10.0119 19.1664 10.4917 19.0414 10.9585C18.9163 11.4253 18.4365 11.7023 17.9697 11.5772L15.5877 10.939L13.75 12L15.5878 13.061L17.9697 12.4228C18.4365 12.2977 18.9163 12.5747 19.0414 13.0415C19.1664 13.5083 18.8894 13.9881 18.4227 14.1131L17.7311 14.2985L19.3657 15.2422C19.7842 15.4839 19.9276 16.019 19.686 16.4375C19.4444 16.856 18.9092 16.9994 18.4907 16.7578L16.8561 15.814L17.0414 16.5056C17.1664 16.9724 16.8894 17.4522 16.4227 17.5773C15.9559 17.7023 15.4761 17.4253 15.351 16.9585L14.7128 14.5766L12.875 13.5155V15.6375L14.6187 17.3813C14.9604 17.723 14.9604 18.277 14.6187 18.6187C14.277 18.9604 13.723 18.9604 13.3813 18.6187L12.875 18.1124V20C12.875 20.4832 12.4832 20.875 12 20.875C11.5167 20.875 11.125 20.4832 11.125 20V18.1124L10.6187 18.6187C10.277 18.9604 9.72298 18.9604 9.38127 18.6187C9.03956 18.277 9.03956 17.723 9.38127 17.3813L11.125 15.6375V13.5156L9.2873 14.5766L8.64905 16.9585C8.52398 17.4253 8.04418 17.7023 7.5774 17.5772C7.11062 17.4522 6.83361 16.9724 6.95868 16.5056L7.14399 15.814L5.50932 16.7578C5.09081 16.9994 4.55567 16.856 4.31404 16.4375C4.07242 16.019 4.21581 15.4839 4.63432 15.2422L6.26899 14.2984L5.5774 14.1131C5.11062 13.9881 4.83361 13.5083 4.95868 13.0415C5.08376 12.5747 5.56355 12.2977 6.03033 12.4228L8.4123 13.061L10.25 12L8.41231 10.939L6.03035 11.5773C5.56357 11.7023 5.08377 11.4253 4.9587 10.9585C4.83363 10.4917 5.11063 10.012 5.57742 9.88688L6.26901 9.70157L4.63433 8.75779C4.21583 8.51616 4.07244 7.98102 4.31406 7.56251C4.55569 7.14401 5.09083 7.00062 5.50933 7.24224L7.14401 8.18602L6.9587 7.49443C6.83363 7.02765 7.11064 6.54785 7.57742 6.42278C8.0442 6.2977 8.524 6.57471 8.64907 7.0415L9.28731 9.42346L11.125 10.4844V8.36242L9.38127 6.6187C9.03956 6.27699 9.03956 5.72298 9.38127 5.38127C9.72298 5.03956 10.277 5.03956 10.6187 5.38127L11.125 5.88755V3.99998C11.125 3.51674 11.5167 3.12498 12 3.12498Z" fill="#2B2B2C"/>
<path d="M6.49998 3.49998C6.49998 3.77613 6.27613 3.99998 5.99998 3.99998C5.72384 3.99998 5.49998 3.77613 5.49998 3.49998C5.49998 3.22384 5.72384 2.99998 5.99998 2.99998C6.27613 2.99998 6.49998 3.22384 6.49998 3.49998Z" fill="#2B2B2C"/>
<path d="M4 12C4 12.2761 3.77614 12.5 3.5 12.5C3.22386 12.5 3 12.2761 3 12C3 11.7239 3.22386 11.5 3.5 11.5C3.77614 11.5 4 11.7239 4 12Z" fill="#2B2B2C"/>
<path d="M7 19.5C7 19.7761 6.77614 20 6.5 20C6.22386 20 6 19.7761 6 19.5C6 19.2239 6.22386 19 6.5 19C6.77614 19 7 19.2239 7 19.5Z" fill="#2B2B2C"/>
<path d="M20.5 20C20.5 20.2761 20.2761 20.5 20 20.5C19.7239 20.5 19.5 20.2761 19.5 20C19.5 19.7239 19.7239 19.5 20 19.5C20.2761 19.5 20.5 19.7239 20.5 20Z" fill="#2B2B2C"/>
<path d="M22 10.5C22 10.7761 21.7761 11 21.5 11C21.2239 11 21 10.7761 21 10.5C21 10.2239 21.2239 10 21.5 10C21.7761 10 22 10.2239 22 10.5Z" fill="#2B2B2C"/>
<path d="M18.5 4.49998C18.5 4.77613 18.2761 4.99998 18 4.99998C17.7238 4.99998 17.5 4.77613 17.5 4.49998C17.5 4.22384 17.7238 3.99998 18 3.99998C18.2761 3.99998 18.5 4.22384 18.5 4.49998Z" fill="#2B2B2C"/>
</svg>
