<svg width="24" height="24" viewBox="0 0 24 24" fill="none" xmlns="http://www.w3.org/2000/svg">
<path fill-rule="evenodd" clip-rule="evenodd" d="M11.5904 2.5894C11.7893 2.30353 12.2123 2.30353 12.4112 2.5894L13.8378 4.63942L16.0465 3.49212C16.3551 3.33187 16.7289 3.52759 16.773 3.87243L17.0909 6.35933L19.5797 6.37748C19.926 6.38001 20.1649 6.7253 20.0452 7.05027L19.1779 9.40515L21.3771 10.5884C21.6813 10.752 21.7319 11.1675 21.4758 11.3993L19.6208 13.0791L21.0229 15.1573C21.2163 15.4439 21.0673 15.8356 20.7324 15.9214L18.318 16.5395L18.6004 19.0332C18.6394 19.378 18.324 19.6567 17.9866 19.5756L15.568 18.9937L14.6693 21.3296C14.5443 21.6545 14.1338 21.7554 13.8724 21.5255L12.0008 19.8794L10.1291 21.5255C9.86774 21.7554 9.45728 21.6545 9.33228 21.3296L8.43359 18.9937L6.01497 19.5756C5.6776 19.6567 5.36215 19.378 5.4012 19.0332L5.6836 16.5395L3.26917 15.9214C2.93424 15.8356 2.78534 15.4439 2.9787 15.1573L4.38079 13.0791L2.52576 11.3993C2.26973 11.1675 2.3203 10.752 2.62447 10.5884L4.82364 9.40515L3.95637 7.05027C3.83669 6.7253 4.07562 6.38001 4.42192 6.37748L6.91069 6.35933L7.22861 3.87243C7.27269 3.52759 7.64653 3.33187 7.95505 3.49212L10.1638 4.63942L11.5904 2.5894ZM11.0008 6.99964C10.8525 6.99964 10.7119 7.06544 10.6169 7.17927C10.5219 7.29309 10.4823 7.44321 10.5089 7.58908L11.5089 13.0891C11.5521 13.3268 11.7592 13.4996 12.0008 13.4996C12.2424 13.4996 12.4495 13.3268 12.4927 13.0891L13.4927 7.58908C13.5193 7.44321 13.4797 7.29309 13.3847 7.17927C13.2897 7.06544 13.1491 6.99964 13.0008 6.99964H11.0008ZM12.0008 17.4996C12.8292 17.4996 13.5008 16.8281 13.5008 15.9996C13.5008 15.1712 12.8292 14.4996 12.0008 14.4996C11.1724 14.4996 10.5008 15.1712 10.5008 15.9996C10.5008 16.8281 11.1724 17.4996 12.0008 17.4996Z" fill="#00685E"/>
</svg>
