<svg width="18" height="18" viewBox="0 0 18 18" fill="none" xmlns="http://www.w3.org/2000/svg">
<g clip-path="url(#clip0_6924_178)">
<path fill-rule="evenodd" clip-rule="evenodd" d="M3.15332 4C2.24022 4 1.5 4.74022 1.5 5.65332V6H16.5V5.65332C16.5 4.74022 15.7598 4 14.8467 4H3.15332ZM1.5 12.3467V8H16.5V12.3467C16.5 13.2598 15.7598 14 14.8467 14H3.15332C2.24022 14 1.5 13.2598 1.5 12.3467ZM4.5 10C4.22386 10 4 10.2239 4 10.5C4 10.7761 4.22386 11 4.5 11H10.5C10.7761 11 11 10.7761 11 10.5C11 10.2239 10.7761 10 10.5 10H4.5Z" fill="#2B2B2C"/>
</g>
<defs>
<clipPath id="clip0_6924_178">
<rect width="18" height="18" fill="white"/>
</clipPath>
</defs>
</svg>
