<svg width="24" height="24" viewBox="0 0 24 24" fill="none" xmlns="http://www.w3.org/2000/svg">
<g clip-path="url(#clip0_6924_182)">
<path fill-rule="evenodd" clip-rule="evenodd" d="M4.06522 5C2.92463 5 2 5.92463 2 7.06522V16.9348C2 18.0754 2.92463 19 4.06522 19H19.9348C21.0754 19 22 18.0754 22 16.9348V7.06522C22 5.92463 21.0754 5 19.9348 5H4.06522ZM3 7.06522C3 6.47691 3.47691 6 4.06522 6H19.9348C20.5231 6 21 6.47691 21 7.06522V8H3V7.06522ZM3 11V16.9348C3 17.5231 3.47691 18 4.06522 18H19.9348C20.5231 18 21 17.5231 21 16.9348V11H3ZM5 13.5C5 13.2239 5.22386 13 5.5 13H15.5C15.7761 13 16 13.2239 16 13.5C16 13.7761 15.7761 14 15.5 14H5.5C5.22386 14 5 13.7761 5 13.5ZM5.5 15C5.22386 15 5 15.2239 5 15.5C5 15.7761 5.22386 16 5.5 16H10.5C10.7761 16 11 15.7761 11 15.5C11 15.2239 10.7761 15 10.5 15H5.5Z" fill="#2B2B2C"/>
</g>
<defs>
<clipPath id="clip0_6924_182">
<rect width="24" height="24" fill="white"/>
</clipPath>
</defs>
</svg>
