<svg width="24" height="24" viewBox="0 0 24 24" fill="none" xmlns="http://www.w3.org/2000/svg">
<path fill-rule="evenodd" clip-rule="evenodd" d="M12 20C16.4183 20 20 16.4183 20 12C20 7.58172 16.4183 4 12 4C7.58172 4 4 7.58172 4 12C4 16.4183 7.58172 20 12 20ZM12 21C16.9706 21 21 16.9706 21 12C21 7.02944 16.9706 3 12 3C7.02944 3 3 7.02944 3 12C3 16.9706 7.02944 21 12 21Z" fill="#2B2B2C"/>
<path fill-rule="evenodd" clip-rule="evenodd" d="M21 12C21 16.9706 16.9706 21 12 21C7.02944 21 3 16.9706 3 12C3 7.02944 7.02944 3 12 3C16.9706 3 21 7.02944 21 12ZM8.5 9.5C8.22386 9.5 8 9.72386 8 10V12.5H16V10C16 9.72386 15.7761 9.5 15.5 9.5H8.5ZM16 13.5H8V14C8 14.2761 8.22386 14.5 8.5 14.5H15.5C15.7761 14.5 16 14.2761 16 14V13.5ZM8.5 8.5C7.67157 8.5 7 9.17157 7 10V14C7 14.8284 7.67157 15.5 8.5 15.5H15.5C16.3284 15.5 17 14.8284 17 14V10C17 9.17157 16.3284 8.5 15.5 8.5H8.5Z" fill="#2B2B2C"/>
</svg>
