<svg width="30" height="30" viewBox="0 0 30 30" fill="none" xmlns="http://www.w3.org/2000/svg">
<g clip-path="url(#clip0_6924_179)">
<path fill-rule="evenodd" clip-rule="evenodd" d="M3 9.5C3 8.11929 4.11929 7 5.5 7H24.5C25.8807 7 27 8.11929 27 9.5V11H3V9.5ZM3 13.5V20.5C3 21.8807 4.11929 23 5.5 23H24.5C25.8807 23 27 21.8807 27 20.5V13.5H3ZM6 16.5C6 16.2239 6.22386 16 6.5 16H19.5C19.7761 16 20 16.2239 20 16.5C20 16.7761 19.7761 17 19.5 17H6.5C6.22386 17 6 16.7761 6 16.5ZM6.5 18.5C6.22386 18.5 6 18.7239 6 19C6 19.2761 6.22386 19.5 6.5 19.5H13.5C13.7761 19.5 14 19.2761 14 19C14 18.7239 13.7761 18.5 13.5 18.5H6.5Z" fill="#2B2B2C"/>
</g>
<defs>
<clipPath id="clip0_6924_179">
<rect width="30" height="30" fill="white"/>
</clipPath>
</defs>
</svg>
