<svg width="18" height="18" viewBox="0 0 18 18" fill="none" xmlns="http://www.w3.org/2000/svg">
<g clip-path="url(#clip0_6924_181)">
<path fill-rule="evenodd" clip-rule="evenodd" d="M1.5 5.65332C1.5 4.74022 2.24022 4 3.15332 4H14.8467C15.7598 4 16.5 4.74022 16.5 5.65332V12.3467C16.5 13.2598 15.7598 14 14.8467 14H3.15332C2.24022 14 1.5 13.2598 1.5 12.3467V5.65332ZM3.15332 5C2.7925 5 2.5 5.2925 2.5 5.65332V6.5H15.5V5.65332C15.5 5.2925 15.2075 5 14.8467 5H3.15332ZM2.5 12.3467V8.5H15.5V12.3467C15.5 12.7075 15.2075 13 14.8467 13H3.15332C2.7925 13 2.5 12.7075 2.5 12.3467ZM4.5 10C4.22386 10 4 10.2239 4 10.5C4 10.7761 4.22386 11 4.5 11H10.5C10.7761 11 11 10.7761 11 10.5C11 10.2239 10.7761 10 10.5 10H4.5Z" fill="#2B2B2C"/>
</g>
<defs>
<clipPath id="clip0_6924_181">
<rect width="18" height="18" fill="white"/>
</clipPath>
</defs>
</svg>
