<svg width="18" height="18" viewBox="0 0 18 18" fill="none" xmlns="http://www.w3.org/2000/svg">
<path fill-rule="evenodd" clip-rule="evenodd" d="M2.25 3.5H12.5V4.5C12.5 4.77614 12.7239 5 13 5C13.2761 5 13.5 4.77614 13.5 4.5V3.5H15.75C16.4404 3.5 17 4.05964 17 4.75V7.5C17 7.77614 16.7761 8 16.5 8H16.4C15.9029 8 15.5 8.40294 15.5 8.9V9.1C15.5 9.59706 15.9029 10 16.4 10H16.5C16.7761 10 17 10.2239 17 10.5V13.25C17 13.9404 16.4404 14.5 15.75 14.5H13.5V13.5C13.5 13.2239 13.2761 13 13 13C12.7239 13 12.5 13.2239 12.5 13.5V14.5H2.25C1.55964 14.5 1 13.9404 1 13.25V10.5C1 10.2239 1.22386 10 1.5 10H1.6C2.09706 10 2.5 9.59706 2.5 9.1V8.9C2.5 8.40294 2.09706 8 1.6 8H1.5C1.22386 8 1 7.77614 1 7.5V4.75C1 4.05964 1.55964 3.5 2.25 3.5ZM13 9.5C13.2761 9.5 13.5 9.72386 13.5 10V11C13.5 11.2761 13.2761 11.5 13 11.5C12.7239 11.5 12.5 11.2761 12.5 11V10C12.5 9.72386 12.7239 9.5 13 9.5ZM13.5 7C13.5 6.72386 13.2761 6.5 13 6.5C12.7239 6.5 12.5 6.72386 12.5 7V8C12.5 8.27614 12.7239 8.5 13 8.5C13.2761 8.5 13.5 8.27614 13.5 8V7ZM9.42875 6.75725C9.57082 6.52046 9.49404 6.21333 9.25725 6.07125C9.02046 5.92918 8.71333 6.00596 8.57125 6.24275L5.57125 11.2428C5.42918 11.4795 5.50596 11.7867 5.74275 11.9287C5.97954 12.0708 6.28667 11.994 6.42875 11.7572L9.42875 6.75725ZM5.5 7C5.22386 7 5 7.22386 5 7.5C5 7.77614 5.22386 8 5.5 8C5.77614 8 6 7.77614 6 7.5C6 7.22386 5.77614 7 5.5 7ZM4 7.5C4 6.67157 4.67157 6 5.5 6C6.32843 6 7 6.67157 7 7.5C7 8.32843 6.32843 9 5.5 9C4.67157 9 4 8.32843 4 7.5ZM9 10.5C9 10.2239 9.22386 10 9.5 10C9.77614 10 10 10.2239 10 10.5C10 10.7761 9.77614 11 9.5 11C9.22386 11 9 10.7761 9 10.5ZM9.5 9C8.67157 9 8 9.67157 8 10.5C8 11.3284 8.67157 12 9.5 12C10.3284 12 11 11.3284 11 10.5C11 9.67157 10.3284 9 9.5 9Z" fill="#2B2B2C"/>
</svg>
