<svg width="18" height="18" viewBox="0 0 18 18" fill="none" xmlns="http://www.w3.org/2000/svg">
<path fill-rule="evenodd" clip-rule="evenodd" d="M2.24994 3.50006C1.55958 3.50006 0.999939 4.05971 0.999939 4.75006V7.50006C0.999939 7.7762 1.2238 8.00006 1.49994 8.00006H1.59994C2.097 8.00006 2.49994 8.403 2.49994 8.90006V9.10006C2.49994 9.59712 2.097 10.0001 1.59994 10.0001H1.49994C1.2238 10.0001 0.999939 10.2239 0.999939 10.5001V13.2501C0.999939 13.9404 1.55958 14.5001 2.24994 14.5001L15.7499 14.5001C16.4403 14.5001 16.9999 13.9404 16.9999 13.2501V10.5001C16.9999 10.2239 16.7761 10.0001 16.4999 10.0001H16.3999C15.9029 10.0001 15.4999 9.59712 15.4999 9.10006V8.90006C15.4999 8.403 15.9029 8.00006 16.3999 8.00006L16.4999 8.00006C16.7761 8.00006 16.9999 7.7762 16.9999 7.50006L16.9999 4.75006C16.9999 4.05971 16.4403 3.50006 15.7499 3.50006H12.9999H2.24994ZM12.4999 5.00006V4.50006L2.24994 4.50006C2.11187 4.50006 1.99994 4.61199 1.99994 4.75006V7.04224C2.85721 7.22593 3.49994 7.98794 3.49994 8.90006V9.10006C3.49994 10.0122 2.85721 10.7742 1.99994 10.9579L1.99994 13.2501C1.99994 13.3881 2.11187 13.5001 2.24994 13.5001H12.4999V13.0001C12.4999 12.7239 12.7238 12.5001 12.9999 12.5001C13.2761 12.5001 13.4999 12.7239 13.4999 13.0001V13.5001L15.7499 13.5001C15.888 13.5001 15.9999 13.3881 15.9999 13.2501V10.9579C15.1427 10.7742 14.4999 10.0122 14.4999 9.10006L14.4999 8.90006C14.4999 7.98794 15.1427 7.22593 15.9999 7.04224V4.75006C15.9999 4.61199 15.888 4.50006 15.7499 4.50006L13.4999 4.50006V5.00006C13.4999 5.2762 13.2761 5.50006 12.9999 5.50006C12.7238 5.50006 12.4999 5.2762 12.4999 5.00006ZM12.9999 9.50006C13.2761 9.50006 13.4999 9.72392 13.4999 10.0001V11.0001C13.4999 11.2762 13.2761 11.5001 12.9999 11.5001C12.7238 11.5001 12.4999 11.2762 12.4999 11.0001V10.0001C12.4999 9.72392 12.7238 9.50006 12.9999 9.50006ZM13.4999 7.00006C13.4999 6.72392 13.2761 6.50006 12.9999 6.50006C12.7238 6.50006 12.4999 6.72392 12.4999 7.00006V8.00006C12.4999 8.2762 12.7238 8.50006 12.9999 8.50006C13.2761 8.50006 13.4999 8.2762 13.4999 8.00006V7.00006ZM9.42869 6.75726C9.57077 6.52047 9.49399 6.21334 9.2572 6.07127C9.02041 5.92919 8.71328 6.00598 8.5712 6.24277L5.5712 11.2428C5.42913 11.4796 5.50591 11.7867 5.7427 11.9288C5.97949 12.0708 6.28662 11.9941 6.42869 11.7573L9.42869 6.75726ZM5.49999 7.00006C5.22385 7.00006 4.99999 7.22392 4.99999 7.50006C4.99999 7.7762 5.22385 8.00006 5.49999 8.00006C5.77614 8.00006 5.99999 7.7762 5.99999 7.50006C5.99999 7.22392 5.77614 7.00006 5.49999 7.00006ZM3.99999 7.50006C3.99999 6.67163 4.67157 6.00006 5.49999 6.00006C6.32842 6.00006 6.99999 6.67163 6.99999 7.50006C6.99999 8.32849 6.32842 9.00006 5.49999 9.00006C4.67157 9.00006 3.99999 8.32849 3.99999 7.50006ZM8.99999 10.5001C8.99999 10.2239 9.22385 10.0001 9.49999 10.0001C9.77614 10.0001 9.99999 10.2239 9.99999 10.5001C9.99999 10.7762 9.77614 11.0001 9.49999 11.0001C9.22385 11.0001 8.99999 10.7762 8.99999 10.5001ZM9.49999 9.00006C8.67157 9.00006 7.99999 9.67163 7.99999 10.5001C7.99999 11.3285 8.67157 12.0001 9.49999 12.0001C10.3284 12.0001 11 11.3285 11 10.5001C11 9.67163 10.3284 9.00006 9.49999 9.00006Z" fill="#2B2B2C"/>
</svg>
