<svg width="24" height="24" viewBox="0 0 24 24" fill="none" xmlns="http://www.w3.org/2000/svg">
<path fill-rule="evenodd" clip-rule="evenodd" d="M16.5 5.50002L3.50001 5.5C2.67159 5.5 2.00001 6.17157 2.00001 7L2.00001 10.5C2.00001 10.6326 2.05269 10.7598 2.14646 10.8536C2.24023 10.9474 2.36741 11 2.50002 11L2.59999 11C3.09706 11 3.50001 11.403 3.50001 11.9V12.1C3.50001 12.5971 3.09707 13 2.60001 13H2.50001C2.22387 13 2.00001 13.2239 2.00001 13.5L2 17C2 17.8284 2.67157 18.5 3.5 18.5L16.5 18.5V18.5L16.5 17.5C16.5 17.2239 16.7239 17 17 17C17.2762 17 17.5 17.2239 17.5 17.5L17.5 18.5V18.5L20.5 18.5C21.3284 18.5 22 17.8285 22 17L22 13.5C22 13.3674 21.9473 13.2402 21.8536 13.1465C21.7598 13.0527 21.6326 13 21.5 13H21.4C20.903 13 20.5 12.5971 20.5 12.1V11.9C20.5 11.403 20.903 11 21.4 11H21.5C21.7762 11 22 10.7762 22 10.5V7.00003C22 6.1716 21.3284 5.50003 20.5 5.50003L17.5 5.50002V6.50002C17.5 6.77616 17.2762 7.00002 17 7.00002C16.7239 7.00002 16.5 6.77616 16.5 6.50002V5.50002ZM12.9069 8.79065C13.0674 8.56594 13.0153 8.25367 12.7906 8.09316C12.5659 7.93266 12.2536 7.9847 12.0931 8.20941L7.09313 15.2094C6.93262 15.4341 6.98467 15.7464 7.20937 15.9069C7.43408 16.0674 7.74636 16.0154 7.90686 15.7906L12.9069 8.79065ZM8 9.00002C7.58579 9.00002 7.25 9.3358 7.25 9.75002C7.25 10.1642 7.58579 10.5 8 10.5C8.41421 10.5 8.75 10.1642 8.75 9.75002C8.75 9.3358 8.41421 9.00002 8 9.00002ZM6.25 9.75002C6.25 8.78352 7.0335 8.00002 8 8.00002C8.9665 8.00002 9.75 8.78352 9.75 9.75002C9.75 10.7165 8.9665 11.5 8 11.5C7.0335 11.5 6.25 10.7165 6.25 9.75002ZM11.25 14.25C11.25 13.8358 11.5858 13.5 12 13.5C12.4142 13.5 12.75 13.8358 12.75 14.25C12.75 14.6642 12.4142 15 12 15C11.5858 15 11.25 14.6642 11.25 14.25ZM12 12.5C11.0335 12.5 10.25 13.2835 10.25 14.25C10.25 15.2165 11.0335 16 12 16C12.9665 16 13.75 15.2165 13.75 14.25C13.75 13.2835 12.9665 12.5 12 12.5ZM17.5 13.5C17.5 13.2239 17.2762 13 17 13C16.7239 13 16.5 13.2239 16.5 13.5V15C16.5 15.2762 16.7239 15.5 17 15.5C17.2762 15.5 17.5 15.2762 17.5 15V13.5ZM17 8.50001C17.2762 8.50001 17.5 8.72387 17.5 9.00001V10.5C17.5 10.7762 17.2762 11 17 11C16.7239 11 16.5 10.7762 16.5 10.5V9.00001C16.5 8.72387 16.7239 8.50001 17 8.50001Z" fill="#2B2B2C"/>
</svg>
