<svg width="30" height="30" viewBox="0 0 30 30" fill="none" xmlns="http://www.w3.org/2000/svg">
<path fill-rule="evenodd" clip-rule="evenodd" d="M21.8536 11.1464C22.0488 11.3417 22.0488 11.6583 21.8536 11.8536L20.8536 12.8536C20.6583 13.0488 20.3417 13.0488 20.1464 12.8536C19.9512 12.6583 19.9512 12.3417 20.1464 12.1464L21.1464 11.1464C21.3417 10.9512 21.6583 10.9512 21.8536 11.1464ZM19.3536 13.6464C19.5488 13.8417 19.5488 14.1583 19.3536 14.3536L18.8536 14.8536C18.6583 15.0488 18.3417 15.0488 18.1464 14.8536C17.9512 14.6583 17.9512 14.3417 18.1464 14.1464L18.6464 13.6464C18.8417 13.4512 19.1583 13.4512 19.3536 13.6464ZM14.8536 18.1464C15.0488 18.3417 15.0488 18.6583 14.8536 18.8536L14.3536 19.3536C14.1583 19.5488 13.8417 19.5488 13.6464 19.3536C13.4512 19.1583 13.4512 18.8417 13.6464 18.6464L14.1464 18.1464C14.3417 17.9512 14.6583 17.9512 14.8536 18.1464ZM12.8536 20.1464C13.0488 20.3417 13.0488 20.6583 12.8536 20.8536L11.8536 21.8536C11.6583 22.0488 11.3417 22.0488 11.1464 21.8536C10.9512 21.6583 10.9512 21.3417 11.1464 21.1464L12.1464 20.1464C12.3417 19.9512 12.6583 19.9512 12.8536 20.1464Z" fill="#2B2B2C"/>
<path fill-rule="evenodd" clip-rule="evenodd" d="M13.4142 2.70712C12.6332 1.92608 11.3669 1.92608 10.5858 2.70712L2.70712 10.5858C1.92608 11.3669 1.92608 12.6332 2.70712 13.4142L6.14647 16.8536L11.1465 21.8536C11.3417 22.0488 11.6583 22.0488 11.8536 21.8536C12.0488 21.6583 12.0488 21.3417 11.8536 21.1465L7.20712 16.5L7.85358 15.8536C8.04884 15.6583 8.04884 15.3417 7.85358 15.1464C7.65832 14.9512 7.34174 14.9512 7.14647 15.1464L6.50001 15.7929L3.41423 12.7071C3.02371 12.3166 3.02371 11.6834 3.41423 11.2929L11.2929 3.41423C11.6834 3.02371 12.3166 3.02371 12.7071 3.41423L15.7929 6.50001L15.1465 7.14645C14.9512 7.34171 14.9512 7.65829 15.1465 7.85355C15.3417 8.04882 15.6583 8.04882 15.8536 7.85355L16.5 7.20712L25.5858 16.2929C25.9763 16.6834 25.9763 17.3166 25.5858 17.7071L22 21.2929L21.3536 20.6464C21.1583 20.4512 20.8417 20.4512 20.6465 20.6464C20.4512 20.8417 20.4512 21.1583 20.6465 21.3536L21.6435 22.3506L21.6465 22.3536C21.7628 22.4699 21.9221 22.5169 22.0733 22.4947C22.1758 22.4795 22.2746 22.4325 22.3536 22.3536L22.3536 22.3536L26.2929 18.4142C27.074 17.6332 27.074 16.3669 26.2929 15.5858L16.8566 6.14949L16.8536 6.14645L16.8505 6.14343L13.4142 2.70712ZM16.8536 20.1464C16.6583 19.9512 16.3418 19.9512 16.1465 20.1464L12.6465 23.6464C12.4512 23.8417 12.4512 24.1583 12.6465 24.3536L15.5858 27.2929C16.3669 28.0739 17.6332 28.0739 18.4143 27.2929L20.8536 24.8536C21.0489 24.6583 21.0489 24.3417 20.8536 24.1464L16.8536 20.1464ZM16.2929 26.5858L13.7072 24L16.5001 21.2071L19.7929 24.5L17.7072 26.5858C17.3166 26.9763 16.6835 26.9763 16.2929 26.5858ZM8.14647 8.14645C8.34174 7.95118 8.65832 7.95118 8.85358 8.14645L9.85358 9.14645C10.0488 9.34171 10.0488 9.65829 9.85358 9.85355C9.65832 10.0488 9.34174 10.0488 9.14647 9.85355L8.14647 8.85355C7.95121 8.65829 7.95121 8.34171 8.14647 8.14645ZM11.3536 10.6464C11.1583 10.4512 10.8417 10.4512 10.6465 10.6464C10.4512 10.8417 10.4512 11.1583 10.6465 11.3536L10.7929 11.5L10.6465 11.6464C10.4512 11.8417 10.4512 12.1583 10.6465 12.3536C10.8417 12.5488 11.1583 12.5488 11.3536 12.3536L11.5 12.2071L11.6465 12.3536C11.8417 12.5488 12.1583 12.5488 12.3536 12.3536C12.5488 12.1583 12.5488 11.8417 12.3536 11.6464L12.2071 11.5L12.3536 11.3536C12.5488 11.1583 12.5488 10.8417 12.3536 10.6464C12.1583 10.4512 11.8417 10.4512 11.6465 10.6464L11.5 10.7929L11.3536 10.6464ZM13.1465 13.1464C13.3417 12.9512 13.6583 12.9512 13.8536 13.1464L14.8536 14.1464C15.0488 14.3417 15.0488 14.6583 14.8536 14.8536C14.6583 15.0488 14.3417 15.0488 14.1465 14.8536L13.1465 13.8536C12.9512 13.6583 12.9512 13.3417 13.1465 13.1464ZM15.6465 15.6464C15.8417 15.4512 16.1583 15.4512 16.3536 15.6464L16.5 15.7929L16.6465 15.6464C16.8417 15.4512 17.1583 15.4512 17.3536 15.6464C17.5488 15.8417 17.5488 16.1583 17.3536 16.3536L17.2071 16.5L17.3536 16.6464C17.5488 16.8417 17.5488 17.1583 17.3536 17.3536C17.1583 17.5488 16.8417 17.5488 16.6465 17.3536L16.5 17.2071L16.3536 17.3536C16.1583 17.5488 15.8417 17.5488 15.6465 17.3536C15.4512 17.1583 15.4512 16.8417 15.6465 16.6464L15.7929 16.5L15.6465 16.3536C15.4512 16.1583 15.4512 15.8417 15.6465 15.6464ZM18.1465 18.1464C18.3417 17.9512 18.6583 17.9512 18.8536 18.1464L19.8536 19.1464C20.0488 19.3417 20.0488 19.6583 19.8536 19.8536C19.6583 20.0488 19.3417 20.0488 19.1465 19.8536L18.1465 18.8536C17.9512 18.6583 17.9512 18.3417 18.1465 18.1464ZM14.3536 9.35355C14.5488 9.15829 14.5488 8.84171 14.3536 8.64645C14.1583 8.45118 13.8417 8.45118 13.6465 8.64645L13.1465 9.14645C12.9512 9.34171 12.9512 9.65829 13.1465 9.85355C13.3417 10.0488 13.6583 10.0488 13.8536 9.85355L14.3536 9.35355ZM9.85358 13.8536C10.0488 13.6583 10.0488 13.3417 9.85358 13.1464C9.65832 12.9512 9.34174 12.9512 9.14647 13.1464L8.64647 13.6464C8.45121 13.8417 8.45121 14.1583 8.64647 14.3536C8.84174 14.5488 9.15832 14.5488 9.35358 14.3536L9.85358 13.8536Z" fill="#2B2B2C"/>
</svg>
