<svg width="18" height="18" viewBox="0 0 18 18" fill="none" xmlns="http://www.w3.org/2000/svg">
<path fill-rule="evenodd" clip-rule="evenodd" d="M8.64645 8.64645C8.84171 8.45118 9.15829 8.45118 9.35355 8.64645L11.3536 10.6464C11.5488 10.8417 11.5488 11.1583 11.3536 11.3536C11.1583 11.5488 10.8417 11.5488 10.6464 11.3536L8.64645 9.35355C8.45118 9.15829 8.45118 8.84171 8.64645 8.64645ZM11.6464 11.6464C11.8417 11.4512 12.1583 11.4512 12.3536 11.6464L13.3536 12.6464C13.5488 12.8417 13.5488 13.1583 13.3536 13.3536C13.1583 13.5488 12.8417 13.5488 12.6464 13.3536L11.6464 12.3536C11.4512 12.1583 11.4512 11.8417 11.6464 11.6464Z" fill="#2B2B2C"/>
<path fill-rule="evenodd" clip-rule="evenodd" d="M6.01006 1.28285C6.55679 0.73612 7.44322 0.736118 7.98996 1.28285L15.7172 9.01006C16.2639 9.5568 16.2639 10.4432 15.7172 10.99L13.3536 13.3536C13.1583 13.5488 12.8417 13.5488 12.6465 13.3536C12.4512 13.1583 12.4512 12.8417 12.6465 12.6465L15.0101 10.2829C15.1663 10.1266 15.1663 9.87338 15.0101 9.71717L13 7.70713L11.8536 8.85359C11.6583 9.04885 11.3417 9.04885 11.1464 8.85359C10.9512 8.65833 10.9512 8.34175 11.1464 8.14648L12.2929 7.00002L10 4.70714L8.85359 5.85359C8.65833 6.04885 8.34175 6.04885 8.14648 5.85359C7.95122 5.65833 7.95122 5.34175 8.14648 5.14648L9.29293 4.00004L7.28285 1.98996C7.12664 1.83375 6.87338 1.83375 6.71717 1.98996L4.70712 4.00001L5.35355 4.64645C5.54882 4.84171 5.54882 5.15829 5.35355 5.35355C5.15829 5.54882 4.84171 5.54882 4.64645 5.35355L4.00001 4.70712L1.98996 6.71717C1.83375 6.87338 1.83375 7.12664 1.98996 7.28285L4.00004 9.29293L5.14648 8.14648C5.34175 7.95122 5.65833 7.95122 5.85359 8.14648C6.04885 8.34175 6.04885 8.65833 5.85359 8.85359L4.70714 10L7.00002 12.2929L8.14645 11.1465C8.34171 10.9512 8.65829 10.9512 8.85355 11.1465C9.04882 11.3417 9.04882 11.6583 8.85355 11.8536L7.35356 13.3536L7.35355 13.3536C7.15829 13.5489 6.84171 13.5489 6.64645 13.3536L6.64285 13.35L1.28286 7.98996C0.736119 7.44323 0.736119 6.55679 1.28285 6.01006L3.64376 3.64915L3.64645 3.64645L3.64915 3.64376L6.01006 1.28285ZM9.64645 12.6464C9.84171 12.4512 10.1583 12.4512 10.3536 12.6464L12.3536 14.6464C12.5488 14.8417 12.5488 15.1583 12.3536 15.3536L10.9899 16.7172C10.4432 17.2639 9.55678 17.2639 9.01005 16.7172L7.64645 15.3536C7.45118 15.1583 7.45118 14.8417 7.64645 14.6464L9.64645 12.6464ZM8.70711 15L9.71716 16.01C9.87337 16.1663 10.1266 16.1663 10.2828 16.0101L11.2929 15L10 13.7071L8.70711 15ZM5.64645 5.64645C5.84171 5.45118 6.15829 5.45118 6.35355 5.64645L7 6.29289L7.14645 6.14645C7.34171 5.95118 7.65829 5.95118 7.85355 6.14645C8.04882 6.34171 8.04882 6.65829 7.85355 6.85355L7.70711 7L8.35355 7.64645C8.54882 7.84171 8.54882 8.15829 8.35355 8.35355C8.15829 8.54882 7.84171 8.54882 7.64645 8.35355L7 7.70711L6.85355 7.85355C6.65829 8.04882 6.34171 8.04882 6.14645 7.85355C5.95118 7.65829 5.95118 7.34171 6.14645 7.14645L6.29289 7L5.64645 6.35355C5.45118 6.15829 5.45118 5.84171 5.64645 5.64645ZM10.8536 9.14648C11.0488 9.34175 11.0488 9.65833 10.8536 9.85359L9.85355 10.8536C9.65829 11.0489 9.34171 11.0489 9.14645 10.8536C8.95118 10.6583 8.95118 10.3417 9.14645 10.1465L10.1464 9.14648C10.3417 8.95122 10.6583 8.95122 10.8536 9.14648Z" fill="#2B2B2C"/>
</svg>
