<svg width="24" height="24" viewBox="0 0 24 24" fill="none" xmlns="http://www.w3.org/2000/svg">
<path fill-rule="evenodd" clip-rule="evenodd" d="M8.29793 1.99499C8.96182 1.3311 10.0382 1.3311 10.7021 1.99499L21.005 12.2979C21.6689 12.9618 21.6689 14.0382 21.005 14.7021L17.8536 17.8536C17.7559 17.9512 17.628 18 17.5 18C17.3721 18 17.2441 17.9512 17.1465 17.8536L17.1464 17.8536L16.1464 16.8536C15.9512 16.6583 15.9512 16.3417 16.1464 16.1464C16.3417 15.9512 16.6583 15.9512 16.8536 16.1464L17.5 16.7929L20.2979 13.995C20.5713 13.7216 20.5713 13.2784 20.2979 13.005L17 9.70713L16.3536 10.3536C16.1583 10.5489 15.8417 10.5489 15.6464 10.3536C15.4512 10.1583 15.4512 9.84175 15.6464 9.64648L16.2929 9.00002L13 5.70711L12.3535 6.35359C12.1583 6.54885 11.8417 6.54885 11.6464 6.35359C11.4512 6.15833 11.4512 5.84175 11.6464 5.64648L12.2929 5.00001L9.99499 2.7021C9.72162 2.42873 9.27841 2.42873 9.00504 2.7021L2.7021 9.00504C2.42873 9.27841 2.42873 9.72162 2.7021 9.99499L5.00001 12.2929L5.64642 11.6465C5.84169 11.4512 6.15827 11.4512 6.35353 11.6465C6.54879 11.8417 6.54879 12.1583 6.35353 12.3536L5.70711 13L9.00002 16.2929L9.64645 15.6465C9.84171 15.4512 10.1583 15.4512 10.3536 15.6465C10.5488 15.8417 10.5488 16.1583 10.3536 16.3536L9.35357 17.3536L9.35355 17.3536C9.15829 17.5489 8.84171 17.5489 8.64645 17.3536L8.6428 17.3499L1.99499 10.7021C1.3311 10.0382 1.3311 8.96182 1.99499 8.29793L8.29793 1.99499ZM9.64645 19.3536C9.45118 19.1583 9.45118 18.8417 9.64645 18.6464L12.6464 15.6464C12.8417 15.4512 13.1583 15.4512 13.3536 15.6464L16.8536 19.1464C17.0488 19.3417 17.0488 19.6583 16.8536 19.8536L14.7021 22.005C14.0382 22.6689 12.9618 22.6689 12.2979 22.005L9.64645 19.3536ZM10.7071 19L13.005 21.2979C13.2784 21.5713 13.7216 21.5713 13.995 21.2979L15.7929 19.5L13 16.7071L10.7071 19ZM6.85355 6.14645C6.65829 5.95118 6.34171 5.95118 6.14645 6.14645C5.95118 6.34171 5.95118 6.65829 6.14645 6.85355L7.14645 7.85355C7.34171 8.04882 7.65829 8.04882 7.85355 7.85355C8.04882 7.65829 8.04882 7.34171 7.85355 7.14645L6.85355 6.14645ZM8.14645 8.14645C8.34171 7.95118 8.65829 7.95118 8.85355 8.14645L9 8.29289L9.14645 8.14645C9.34171 7.95118 9.65829 7.95118 9.85355 8.14645C10.0488 8.34171 10.0488 8.65829 9.85355 8.85355L9.70711 9L9.85355 9.14645C10.0488 9.34171 10.0488 9.65829 9.85355 9.85355C9.65829 10.0488 9.34171 10.0488 9.14645 9.85355L9 9.70711L8.85355 9.85355C8.65829 10.0488 8.34171 10.0488 8.14645 9.85355C7.95118 9.65829 7.95118 9.34171 8.14645 9.14645L8.29289 9L8.14645 8.85355C7.95118 8.65829 7.95118 8.34171 8.14645 8.14645ZM10.8536 10.1464C10.6583 9.95118 10.3417 9.95118 10.1464 10.1464C9.95118 10.3417 9.95118 10.6583 10.1464 10.8536L11.1464 11.8536C11.3417 12.0488 11.6583 12.0488 11.8536 11.8536C12.0488 11.6583 12.0488 11.3417 11.8536 11.1464L10.8536 10.1464ZM12.8536 12.1464C12.6583 11.9512 12.3417 11.9512 12.1464 12.1464C11.9512 12.3417 11.9512 12.6583 12.1464 12.8536L12.2929 13L12.1464 13.1464C11.9512 13.3417 11.9512 13.6583 12.1464 13.8536C12.3417 14.0488 12.6583 14.0488 12.8536 13.8536L13 13.7071L13.1464 13.8536C13.3417 14.0488 13.6583 14.0488 13.8536 13.8536C14.0488 13.6583 14.0488 13.3417 13.8536 13.1464L13.7071 13L13.8536 12.8536C14.0488 12.6583 14.0488 12.3417 13.8536 12.1464C13.6583 11.9512 13.3417 11.9512 13.1464 12.1464L13 12.2929L12.8536 12.1464ZM14.8536 14.1464C14.6583 13.9512 14.3417 13.9512 14.1464 14.1464C13.9512 14.3417 13.9512 14.6583 14.1464 14.8536L15.1464 15.8536C15.3417 16.0488 15.6583 16.0488 15.8536 15.8536C16.0488 15.6583 16.0488 15.3417 15.8536 15.1464L14.8536 14.1464ZM11.3535 6.64648C11.5488 6.84175 11.5488 7.15833 11.3535 7.35359L10.8535 7.85359C10.6583 8.04885 10.3417 8.04885 10.1464 7.85359C9.95116 7.65833 9.95116 7.34175 10.1464 7.14648L10.6464 6.64648C10.8417 6.45122 11.1583 6.45122 11.3535 6.64648ZM7.85353 10.1465C8.04879 10.3417 8.04879 10.6583 7.85353 10.8536L7.35353 11.3536C7.15827 11.5489 6.84169 11.5489 6.64642 11.3536C6.45116 11.1583 6.45116 10.8417 6.64642 10.6465L7.14642 10.1465C7.34169 9.95122 7.65827 9.95122 7.85353 10.1465ZM15.3536 11.3536C15.5488 11.1583 15.5488 10.8417 15.3536 10.6465C15.1583 10.4512 14.8417 10.4512 14.6464 10.6465L14.1464 11.1465C13.9512 11.3417 13.9512 11.6583 14.1464 11.8536C14.3417 12.0489 14.6583 12.0489 14.8536 11.8536L15.3536 11.3536ZM11.8536 14.8536C12.0488 14.6583 12.0488 14.3417 11.8536 14.1465C11.6583 13.9512 11.3417 13.9512 11.1464 14.1465L10.6464 14.6465C10.4512 14.8417 10.4512 15.1583 10.6464 15.3536C10.8417 15.5489 11.1583 15.5489 11.3536 15.3536L11.8536 14.8536Z" fill="#2B2B2C"/>
</svg>
