<svg width="30" height="30" viewBox="0 0 30 30" fill="none" xmlns="http://www.w3.org/2000/svg">
<path fill-rule="evenodd" clip-rule="evenodd" d="M10.5858 2.70712C11.3669 1.92608 12.6332 1.92608 13.4142 2.70712L16.5 5.79291L15.6465 6.64645C15.4512 6.84171 15.4512 7.15829 15.6465 7.35355C15.8417 7.54882 16.1583 7.54882 16.3536 7.35355L17.2071 6.50001L21.5 10.7929L20.6465 11.6464C20.4512 11.8417 20.4512 12.1583 20.6465 12.3536C20.8417 12.5488 21.1583 12.5488 21.3536 12.3536L22.2071 11.5L25.7929 15.0858C26.574 15.8669 26.574 17.1332 25.7929 17.9142L22.3536 21.3536C22.3026 21.4046 22.2417 21.4434 22.1754 21.4683L16.8536 16.1464C16.6583 15.9512 16.3417 15.9512 16.1465 16.1464L10.8246 21.4683C10.7596 21.4441 10.6987 21.4058 10.6465 21.3536L6.50002 17.2071L7.35358 16.3536C7.54885 16.1583 7.54885 15.8417 7.35358 15.6464C7.15832 15.4512 6.84174 15.4512 6.64648 15.6464L5.79291 16.5L2.70712 13.4142C1.92608 12.6332 1.92608 11.3669 2.70712 10.5858L6.29293 7L6.64648 7.35355C6.84174 7.54882 7.15832 7.54882 7.35358 7.35355C7.54885 7.15829 7.54885 6.84171 7.35358 6.64645L7.00003 6.2929L10.5858 2.70712ZM8.85358 8.14645C8.65832 7.95118 8.34174 7.95118 8.14648 8.14645C7.95121 8.34171 7.95121 8.65829 8.14648 8.85355L9.14648 9.85355C9.34174 10.0488 9.65832 10.0488 9.85358 9.85355C10.0488 9.65829 10.0488 9.34171 9.85358 9.14645L8.85358 8.14645ZM10.6465 10.6464C10.8417 10.4512 11.1583 10.4512 11.3536 10.6464L11.5 10.7929L11.6465 10.6464C11.8417 10.4512 12.1583 10.4512 12.3536 10.6464C12.5488 10.8417 12.5488 11.1583 12.3536 11.3536L12.2071 11.5L12.3536 11.6464C12.5488 11.8417 12.5488 12.1583 12.3536 12.3536C12.1583 12.5488 11.8417 12.5488 11.6465 12.3536L11.5 12.2071L11.3536 12.3536C11.1583 12.5488 10.8417 12.5488 10.6465 12.3536C10.4512 12.1583 10.4512 11.8417 10.6465 11.6464L10.7929 11.5L10.6465 11.3536C10.4512 11.1583 10.4512 10.8417 10.6465 10.6464ZM13.8536 13.1464C13.6583 12.9512 13.3417 12.9512 13.1465 13.1464C12.9512 13.3417 12.9512 13.6583 13.1465 13.8536L14.1465 14.8536C14.3417 15.0488 14.6583 15.0488 14.8536 14.8536C15.0488 14.6583 15.0488 14.3417 14.8536 14.1464L13.8536 13.1464ZM14.8536 8.14645C15.0488 8.34171 15.0488 8.65829 14.8536 8.85355L13.8536 9.85355C13.6583 10.0488 13.3417 10.0488 13.1465 9.85355C12.9512 9.65829 12.9512 9.34171 13.1465 9.14645L14.1465 8.14645C14.3417 7.95118 14.6583 7.95118 14.8536 8.14645ZM9.85358 13.1464C10.0488 13.3417 10.0488 13.6583 9.85358 13.8536L8.85358 14.8536C8.65832 15.0488 8.34174 15.0488 8.14648 14.8536C7.95121 14.6583 7.95121 14.3417 8.14648 14.1464L9.14648 13.1464C9.34174 12.9512 9.65832 12.9512 9.85358 13.1464ZM19.8536 13.8536C20.0488 13.6583 20.0488 13.3417 19.8536 13.1464C19.6583 12.9512 19.3417 12.9512 19.1465 13.1464L18.1465 14.1464C17.9512 14.3417 17.9512 14.6583 18.1465 14.8536C18.3417 15.0488 18.6583 15.0488 18.8536 14.8536L19.8536 13.8536ZM16.1465 19.1464C16.3417 18.9512 16.6583 18.9512 16.8536 19.1464L20.8536 23.1464C21.0488 23.3417 21.0488 23.6583 20.8536 23.8536L17.9142 26.7929C17.1332 27.5739 15.8669 27.5739 15.0858 26.7929L12.1465 23.8536C11.9512 23.6583 11.9512 23.3417 12.1465 23.1464L16.1465 19.1464Z" fill="#2B2B2C"/>
</svg>
