<svg width="18" height="18" viewBox="0 0 18 18" fill="none" xmlns="http://www.w3.org/2000/svg">
<path fill-rule="evenodd" clip-rule="evenodd" d="M6.01006 1.28285C6.55679 0.73612 7.44322 0.736118 7.98996 1.28285L10 3.2929L9.14645 4.14645C8.95119 4.34171 8.95119 4.65829 9.14645 4.85355C9.34172 5.04882 9.6583 5.04882 9.85356 4.85355L10.7071 4L13 6.2929L12.1465 7.14645C11.9512 7.34171 11.9512 7.65829 12.1465 7.85355C12.3417 8.04882 12.6583 8.04882 12.8536 7.85355L13.7071 7L15.7172 9.01006C16.2639 9.5568 16.2639 10.4432 15.7172 10.99L13.7071 13L10.7071 10L11.3536 9.35355C11.5488 9.15829 11.5488 8.84171 11.3536 8.64645C11.1583 8.45118 10.8417 8.45118 10.6465 8.64645L10 9.29289L9.85356 9.14645C9.6583 8.95118 9.34172 8.95118 9.14645 9.14645C8.95119 9.34171 8.95119 9.65829 9.14645 9.85355L9.2929 10L6.2929 13L4 10.7071L4.85356 9.85355C5.04882 9.65829 5.04882 9.34171 4.85356 9.14645C4.6583 8.95118 4.34172 8.95118 4.14645 9.14645L3.2929 10L1.28286 7.98996C0.736119 7.44323 0.736119 6.55679 1.28285 6.01006L3.29291 4.00001L4.14645 4.85355C4.34172 5.04882 4.6583 5.04882 4.85356 4.85355C5.04882 4.65829 5.04882 4.34171 4.85356 4.14645L4.00001 3.2929L6.01006 1.28285ZM5.64645 5.64645C5.84172 5.45118 6.1583 5.45118 6.35356 5.64645L7.00001 6.29289L7.64645 5.64645C7.84172 5.45118 8.1583 5.45118 8.35356 5.64645C8.54882 5.84171 8.54882 6.15829 8.35356 6.35355L7.70711 7L8.35356 7.64645C8.54882 7.84171 8.54882 8.15829 8.35356 8.35355C8.1583 8.54882 7.84172 8.54882 7.64645 8.35355L7.00001 7.70711L6.35356 8.35355C6.1583 8.54882 5.84172 8.54882 5.64645 8.35355C5.45119 8.15829 5.45119 7.84171 5.64645 7.64645L6.2929 7L5.64645 6.35355C5.45119 6.15829 5.45119 5.84171 5.64645 5.64645ZM7.14645 14.1464L9.64645 11.6464C9.84171 11.4512 10.1583 11.4512 10.3536 11.6464L12.8536 14.1464C13.0488 14.3417 13.0488 14.6583 12.8536 14.8536L10.9899 16.7172C10.4432 17.2639 9.55678 17.2639 9.01005 16.7172L7.14645 14.8536C6.95118 14.6583 6.95118 14.3417 7.14645 14.1464Z" fill="#2B2B2C"/>
</svg>
