<svg width="18" height="18" viewBox="0 0 18 18" fill="none" xmlns="http://www.w3.org/2000/svg">
<path fill-rule="evenodd" clip-rule="evenodd" d="M15.5 9C15.5 12.5899 12.5899 15.5 9 15.5C5.41015 15.5 2.5 12.5899 2.5 9C2.5 5.41015 5.41015 2.5 9 2.5C12.5899 2.5 15.5 5.41015 15.5 9ZM16.5 9C16.5 13.1421 13.1421 16.5 9 16.5C4.85786 16.5 1.5 13.1421 1.5 9C1.5 4.85786 4.85786 1.5 9 1.5C13.1421 1.5 16.5 4.85786 16.5 9ZM9.99859 11H9.10845L7.90845 9.10141L7.29437 9.7493V11H6.5V7H7.29437V8.79155L8.94507 7H9.90845L8.44366 8.53803L9.99859 11ZM11.0036 8.61127C11.1444 8.27887 11.3754 8.07042 11.7585 8.07042C11.9388 8.07042 12.1134 8.10423 12.2599 8.16056L12.1191 8.80282C11.9838 8.76338 11.8317 8.73521 11.6909 8.73521C11.2909 8.73521 11.0543 9.0507 11.0543 9.58592V11H10.3219V8.97183C10.3219 8.5831 10.2993 8.31268 10.2655 8.12113H10.9472C10.9754 8.22817 10.9979 8.39718 11.0036 8.61127Z" fill="#2B2B2C"/>
</svg>
