<svg width="24" height="24" viewBox="0 0 24 24" fill="none" xmlns="http://www.w3.org/2000/svg">
<path fill-rule="evenodd" clip-rule="evenodd" d="M20 12C20 16.4183 16.4183 20 12 20C7.58172 20 4 16.4183 4 12C4 7.58172 7.58172 4 12 4C16.4183 4 20 7.58172 20 12ZM21 12C21 16.9706 16.9706 21 12 21C7.02944 21 3 16.9706 3 12C3 7.02944 7.02944 3 12 3C16.9706 3 21 7.02944 21 12ZM13.2479 15H11.9127L10.1127 12.1521L9.19155 13.1239V15H8V9H9.19155V11.6873L11.6676 9H13.1127L10.9155 11.307L13.2479 15ZM14.7554 11.4169C14.9666 10.9183 15.3131 10.6056 15.8878 10.6056C16.1582 10.6056 16.4201 10.6563 16.6399 10.7408L16.4286 11.7042C16.2258 11.6451 15.9976 11.6028 15.7863 11.6028C15.1863 11.6028 14.8314 12.0761 14.8314 12.8789V15H13.7328V11.9578C13.7328 11.3747 13.699 10.969 13.6483 10.6817H14.6708C14.7131 10.8423 14.7469 11.0958 14.7554 11.4169Z" fill="#2B2B2C"/>
</svg>
