<svg width="30" height="30" viewBox="0 0 30 30" fill="none" xmlns="http://www.w3.org/2000/svg">
<path fill-rule="evenodd" clip-rule="evenodd" d="M15 4C11.9116 4 9.10759 5.39968 7.0997 7.5H9C9.27614 7.5 9.5 7.72386 9.5 8C9.5 8.27614 9.27614 8.5 9 8.5H5.57644L5.0068 5.0822C4.96141 4.80981 5.14542 4.5522 5.4178 4.5068C5.69019 4.46141 5.9478 4.64542 5.9932 4.9178L6.31864 6.87044C8.49531 4.56422 11.5734 3 15 3C21.6274 3 27 8.37258 27 15C27 21.6274 21.6274 27 15 27C8.37258 27 3 21.6274 3 15C3 14.7239 3.22386 14.5 3.5 14.5C3.77614 14.5 4 14.7239 4 15C4 21.0751 8.92487 26 15 26C21.0751 26 26 21.0751 26 15C26 8.92487 21.0751 4 15 4ZM8 11.75C8 10.7835 8.7835 10 9.75 10H20.25C21.2165 10 22 10.7835 22 11.75V16.5V18.25C22 19.2165 21.2165 20 20.25 20H9.75C8.7835 20 8 19.2165 8 18.25V16.5V11.75ZM9 17V18.25C9 18.6642 9.33579 19 9.75 19H20.25C20.6642 19 21 18.6642 21 18.25V17H9ZM21 16H9V11.75C9 11.3358 9.33579 11 9.75 11H20.25C20.6642 11 21 11.3358 21 11.75V16Z" fill="#2B2B2C"/>
</svg>
