<svg width="30" height="30" viewBox="0 0 30 30" fill="none" xmlns="http://www.w3.org/2000/svg">
<path fill-rule="evenodd" clip-rule="evenodd" d="M8.3616 7C10.1831 5.46714 12.4987 4.5 15 4.5C20.799 4.5 25.5 9.20101 25.5 15C25.5 20.799 20.799 25.5 15 25.5C9.20101 25.5 4.5 20.799 4.5 15C4.5 14.4477 4.05228 14 3.5 14C2.94772 14 2.5 14.4477 2.5 15C2.5 21.9036 8.09644 27.5 15 27.5C21.9036 27.5 27.5 21.9036 27.5 15C27.5 8.09644 21.9036 2.5 15 2.5C11.773 2.5 8.85276 3.82621 6.65367 5.83926L6.48639 4.8356C6.3956 4.29083 5.88037 3.92281 5.3356 4.01361C4.79083 4.1044 4.42281 4.61963 4.51361 5.1644L5.15287 9H9C9.55228 9 10 8.55228 10 8C10 7.44772 9.55228 7 9 7H8.3616ZM10.25 10.5C9.2835 10.5 8.5 11.2835 8.5 12.25V16H21.5V12.25C21.5 11.2835 20.7165 10.5 19.75 10.5H10.25ZM8.5 17.75V17H21.5V17.75C21.5 18.7165 20.7165 19.5 19.75 19.5H10.25C9.2835 19.5 8.5 18.7165 8.5 17.75Z" fill="#2B2B2C"/>
</svg>
