<svg width="30" height="30" viewBox="0 0 30 30" fill="none" xmlns="http://www.w3.org/2000/svg">
<path fill-rule="evenodd" clip-rule="evenodd" d="M8.3616 7C10.1831 5.46714 12.4987 4.5 15 4.5C20.799 4.5 25.5 9.20101 25.5 15C25.5 20.799 20.799 25.5 15 25.5C9.20101 25.5 4.5 20.799 4.5 15C4.5 14.4477 4.05228 14 3.5 14C2.94772 14 2.5 14.4477 2.5 15C2.5 21.9036 8.09644 27.5 15 27.5C21.9036 27.5 27.5 21.9036 27.5 15C27.5 8.09644 21.9036 2.5 15 2.5C11.7937 2.5 8.89014 3.80929 6.69597 5.80071L6.48995 4.35858C6.41184 3.81184 5.90531 3.43195 5.35858 3.51005C4.81184 3.58816 4.43195 4.09469 4.51005 4.64142L5.1327 9H9.5C10.0523 9 10.5 8.55228 10.5 8C10.5 7.44772 10.0523 7 9.5 7H8.3616ZM16.6225 18.5H15.0648L12.9648 15.1775L11.8901 16.3113V18.5H10.5V11.5H11.8901V14.6352L14.7789 11.5H16.4648L13.9014 14.1915L16.6225 18.5ZM18.3812 14.3197C18.6277 13.738 19.0319 13.3732 19.7024 13.3732C20.0179 13.3732 20.3235 13.4324 20.5798 13.531L20.3334 14.6549C20.0967 14.5859 19.8305 14.5366 19.5841 14.5366C18.8841 14.5366 18.47 15.0887 18.47 16.0254V18.5H17.1883V14.9507C17.1883 14.2704 17.1488 13.7972 17.0897 13.462H18.2826C18.3319 13.6493 18.3714 13.9451 18.3812 14.3197Z" fill="#2B2B2C"/>
</svg>
