<svg width="24" height="24" viewBox="0 0 24 24" fill="none" xmlns="http://www.w3.org/2000/svg">
<path fill-rule="evenodd" clip-rule="evenodd" d="M12.4103 2.58977C12.2114 2.3039 11.7885 2.3039 11.5895 2.58977L10.163 4.63978L7.95419 3.49249C7.64568 3.33224 7.27183 3.52796 7.22775 3.8728L6.90983 6.3597L4.42106 6.37785C4.07477 6.38038 3.83584 6.72566 3.95552 7.05063L4.82279 9.40551L2.62362 10.5887C2.31945 10.7524 2.26888 11.1678 2.52491 11.3997L4.37994 13.0795L2.97784 15.1577C2.78448 15.4443 2.93339 15.836 3.26831 15.9217L5.68274 16.5399L5.40034 19.0335C5.3613 19.3783 5.67674 19.6571 6.01411 19.5759L8.43274 18.9941L9.33142 21.33C9.45642 21.6549 9.86689 21.7558 10.1283 21.5259L11.9999 19.8798L13.8716 21.5259C14.133 21.7558 14.5435 21.6549 14.6685 21.33L15.5671 18.9941L17.9858 19.5759C18.3231 19.6571 18.6386 19.3783 18.5995 19.0335L18.3171 16.5399L20.7316 15.9217C21.0665 15.836 21.2154 15.4443 21.022 15.1577L19.6199 13.0795L21.475 11.3997C21.731 11.1678 21.6804 10.7524 21.3763 10.5887L19.1771 9.40551L20.0444 7.05063C20.164 6.72566 19.9251 6.38038 19.5788 6.37785L17.09 6.3597L16.7721 3.8728C16.728 3.52796 16.3542 3.33224 16.0457 3.49249L13.8369 4.63978L12.4103 2.58977ZM15.3535 9.15356C15.5488 8.9583 15.5488 8.64171 15.3535 8.44645C15.1582 8.25119 14.8416 8.25119 14.6464 8.44645L8.24639 14.8465C8.05112 15.0417 8.05112 15.3583 8.24639 15.5536C8.44165 15.7488 8.75823 15.7488 8.95349 15.5536L15.3535 9.15356ZM8.99994 11C9.55222 11 9.99994 10.5523 9.99994 10C9.99994 9.44772 9.55222 9.00001 8.99994 9.00001C8.44765 9.00001 7.99994 9.44772 7.99994 10C7.99994 10.5523 8.44765 11 8.99994 11ZM8.99994 12C10.1045 12 10.9999 11.1046 10.9999 10C10.9999 8.89544 10.1045 8.00001 8.99994 8.00001C7.89537 8.00001 6.99994 8.89544 6.99994 10C6.99994 11.1046 7.89537 12 8.99994 12ZM15.5999 14C15.5999 14.5523 15.1522 15 14.5999 15C14.0477 15 13.5999 14.5523 13.5999 14C13.5999 13.4477 14.0477 13 14.5999 13C15.1522 13 15.5999 13.4477 15.5999 14ZM16.5999 14C16.5999 15.1046 15.7045 16 14.5999 16C13.4954 16 12.5999 15.1046 12.5999 14C12.5999 12.8954 13.4954 12 14.5999 12C15.7045 12 16.5999 12.8954 16.5999 14Z" fill="#2B2B2C"/>
</svg>
