<svg width="18" height="18" viewBox="0 0 18 18" fill="none" xmlns="http://www.w3.org/2000/svg">
  <path fill-rule="evenodd" clip-rule="evenodd"
    d="M9.41335 1.60751C9.21492 1.31589 8.78503 1.31589 8.58659 1.60751L7.18042 3.67408L4.77024 2.78997C4.43255 2.6661 4.07846 2.92862 4.09886 3.28774L4.23633 5.7084L1.78014 6.33032C1.42082 6.4213 1.28195 6.85795 1.5227 7.13978L3.11178 9L1.5227 10.8602C1.28195 11.142 1.42082 11.5787 1.78014 11.6697L4.23633 12.2916L4.09885 14.7123C4.07846 15.0714 4.43255 15.3339 4.77024 15.21L7.18042 14.3259L8.58659 16.3925C8.78503 16.6841 9.21492 16.6841 9.41335 16.3925L10.8195 14.3259L13.2297 15.21C13.5674 15.3339 13.9215 15.0714 13.9011 14.7123L13.7636 12.2916L16.2198 11.6697C16.5791 11.5787 16.718 11.142 16.4772 10.8602L14.8882 9L16.4772 7.13978C16.718 6.85795 16.5791 6.4213 16.2198 6.33032L13.7636 5.7084L13.9011 3.28774C13.9215 2.92862 13.5674 2.6661 13.2297 2.78997L10.8195 3.67408L9.41335 1.60751ZM10.5 10.5C10.5 10.2239 10.7238 10 11 10C11.2761 10 11.5 10.2239 11.5 10.5C11.5 10.7761 11.2761 11 11 11C10.7238 11 10.5 10.7761 10.5 10.5ZM12.5 10.5C12.5 11.3284 11.8284 12 11 12C10.1715 12 9.49997 11.3284 9.49997 10.5C9.49997 9.67157 10.1715 9 11 9C11.8284 9 12.5 9.67157 12.5 10.5ZM6.49997 7.5C6.49997 7.77614 6.72383 8 6.99997 8C7.27611 8 7.49997 7.77614 7.49997 7.5C7.49997 7.22385 7.27611 7 6.99997 7C6.72383 7 6.49997 7.22385 6.49997 7.5ZM6.99997 9C7.8284 9 8.49997 8.32842 8.49997 7.5C8.49997 6.67157 7.8284 6 6.99997 6C6.17154 6 5.49997 6.67157 5.49997 7.5C5.49997 8.32842 6.17154 9 6.99997 9ZM11.3535 7.35355C11.5488 7.15829 11.5488 6.84171 11.3535 6.64644C11.1583 6.45118 10.8417 6.45118 10.6464 6.64644L6.64642 10.6464C6.45116 10.8417 6.45116 11.1583 6.64642 11.3535C6.84168 11.5488 7.15826 11.5488 7.35353 11.3535L11.3535 7.35355Z"
    fill="#2B2B2C" />
</svg>