<svg width="18" height="18" viewBox="0 0 18 18" fill="none" xmlns="http://www.w3.org/2000/svg">
<path fill-rule="evenodd" clip-rule="evenodd" d="M9 15.5C12.5899 15.5 15.5 12.5899 15.5 9C15.5 5.41015 12.5899 2.5 9 2.5C5.41015 2.5 2.5 5.41015 2.5 9C2.5 12.5899 5.41015 15.5 9 15.5ZM9 16.5C13.1421 16.5 16.5 13.1421 16.5 9C16.5 4.85786 13.1421 1.5 9 1.5C4.85786 1.5 1.5 4.85786 1.5 9C1.5 13.1421 4.85786 16.5 9 16.5ZM5 6.75C5 6.05964 5.55964 5.5 6.25 5.5H11.75C12.4404 5.5 13 6.05964 13 6.75V8V8.5V10V11.25C13 11.9404 12.4404 12.5 11.75 12.5H6.25C5.55964 12.5 5 11.9404 5 11.25V6.75ZM12 10.5H10.5C9.67157 10.5 9 9.82843 9 9C9 8.17157 9.67157 7.5 10.5 7.5H12V6.75C12 6.61193 11.8881 6.5 11.75 6.5H6.25C6.11193 6.5 6 6.61193 6 6.75V11.25C6 11.3881 6.11193 11.5 6.25 11.5H11.75C11.8881 11.5 12 11.3881 12 11.25V10.5ZM12 8.5H10.5C10.2239 8.5 10 8.72386 10 9C10 9.27614 10.2239 9.5 10.5 9.5H12V8.5Z" fill="#2B2B2C"/>
</svg>
