<svg width="18" height="18" viewBox="0 0 18 18" fill="none" xmlns="http://www.w3.org/2000/svg">
<path fill-rule="evenodd" clip-rule="evenodd" d="M5.67198 2.98197C6.1293 2.52465 6.87077 2.52465 7.3281 2.98197L8.75004 4.40391L9.67198 3.48197C10.1293 3.02465 10.8708 3.02465 11.3281 3.48197L13.2072 5.36102H13.6579C14.6753 5.36102 15.5 6.18576 15.5 7.20313V8.37343C16.0657 8.45622 16.5 8.94343 16.5 9.53208V11.19C16.5 11.7786 16.0657 12.2658 15.5 12.3486V13.5189C15.5 14.5363 14.6753 15.361 13.6579 15.361H3.34211C2.32474 15.361 1.5 14.5363 1.5 13.5189V7.20313C1.5 6.20243 2.29794 5.3881 3.29226 5.36168L5.67198 2.98197ZM11.7929 5.36102L10.621 4.18908C10.5542 4.12228 10.4459 4.12228 10.3791 4.18908L9.45714 5.11102L9.70715 5.36102H11.7929ZM6.62099 3.68908L8.29294 5.36102H4.70714L6.37908 3.68908C6.44588 3.62228 6.55419 3.62228 6.62099 3.68908ZM10.5 10.2031C10.5 9.73805 10.877 9.36102 11.3421 9.36102H15.3289C15.4234 9.36102 15.5 9.43761 15.5 9.53208V11.19C15.5 11.2844 15.4234 11.361 15.3289 11.361H11.3421C10.877 11.361 10.5 10.984 10.5 10.5189V10.2031Z" fill="#2B2B2C"/>
</svg>
