<svg width="24" height="24" viewBox="0 0 24 24" fill="none" xmlns="http://www.w3.org/2000/svg">
<path fill-rule="evenodd" clip-rule="evenodd" d="M7.45042 4.20829C8.0061 3.57323 8.99404 3.57323 9.54972 4.20829L10.8577 5.70318L12.0138 4.54712C12.5585 4.00244 13.4416 4.00244 13.9863 4.54712L16.7072 7.26801H18.7105C19.975 7.26801 21 8.29304 21 9.55749V11.3247C21.5781 11.4949 22 12.0296 22 12.6627V14.8997C22 15.5329 21.5781 16.0676 21 16.2378V17.9785C21 19.243 19.975 20.268 18.7105 20.268H4.28948C3.02504 20.268 2 19.243 2 17.9785V9.55749C2 8.29304 3.02504 7.26801 4.28948 7.26801H4.77317L7.45042 4.20829ZM15.2929 7.26801L13.2792 5.25423C13.125 5.10007 12.8751 5.10007 12.7209 5.25423L11.5177 6.45743L12.227 7.26801H15.2929ZM8.79714 4.8668L10.8982 7.26801H6.10194L8.203 4.8668C8.36026 4.68706 8.63987 4.68706 8.79714 4.8668ZM20.6053 12.268H20H15.7895C15.0773 12.268 14.5 12.8453 14.5 13.5575V14.005C14.5 14.7172 15.0773 15.2945 15.7895 15.2945H20.6053C20.8233 15.2945 21 15.1177 21 14.8997V12.6627C21 12.4447 20.8233 12.268 20.6053 12.268ZM20 11.268V9.55749C20 8.84533 19.4227 8.26801 18.7105 8.26801H4.28948C3.57732 8.26801 3 8.84533 3 9.55749V17.9785C3 18.6907 3.57732 19.268 4.28948 19.268H18.7105C19.4227 19.268 20 18.6907 20 17.9785V16.2945H15.7895C14.525 16.2945 13.5 15.2694 13.5 14.005V13.5575C13.5 12.293 14.525 11.268 15.7895 11.268H20Z" fill="#2B2B2C"/>
</svg>
