<svg width="30" height="30" viewBox="0 0 30 30" fill="none" xmlns="http://www.w3.org/2000/svg">
<path fill-rule="evenodd" clip-rule="evenodd" d="M10.6078 5.71883C10.84 5.46512 11.2394 5.46402 11.473 5.71644L14.9486 9.47211H7.17254L10.6078 5.71883ZM5.81692 9.47211L9.87008 5.04367C10.4972 4.35845 11.576 4.35548 12.2069 5.03723L14.7057 7.73732L16.3192 6.00579C16.9572 5.32108 18.046 5.33387 18.6678 6.03338L21.7244 9.47211H23.8241C25.3019 9.47211 26.5 10.6702 26.5 12.148V14.5227C27.0769 14.6843 27.5 15.214 27.5 15.8425V19.1017C27.5 19.7302 27.0769 20.2599 26.5 20.4215V22.7962C26.5 24.2741 25.3019 25.4721 23.8241 25.4721H5.17593C3.69805 25.4721 2.5 24.2741 2.5 22.7962V12.148C2.5 10.6702 3.69805 9.47211 5.17593 9.47211H5.81692ZM20.3865 9.47211L17.9204 6.69774C17.6902 6.43874 17.287 6.434 17.0508 6.68752L15.3868 8.47328L16.3111 9.47211H20.3865ZM20.5 15.4721C19.3954 15.4721 18.5 16.3675 18.5 17.4721C18.5 18.5767 19.3954 19.4721 20.5 19.4721H26.1296C26.3342 19.4721 26.5 19.3063 26.5 19.1017V15.8425C26.5 15.6379 26.3342 15.4721 26.1296 15.4721H20.5Z" fill="#2B2B2C"/>
</svg>
