<svg width="24" height="24" viewBox="0 0 24 24" fill="none" xmlns="http://www.w3.org/2000/svg">
<path fill-rule="evenodd" clip-rule="evenodd" d="M9.54972 4.20829C8.99404 3.57323 8.0061 3.57323 7.45042 4.20829L4.77317 7.26801H4.28948C3.02504 7.26801 2 8.29304 2 9.55749V17.9785C2 19.243 3.02504 20.268 4.28948 20.268H18.7105C19.975 20.268 21 19.243 21 17.9785V16.2378C21.5781 16.0676 22 15.5329 22 14.8997V12.6627C22 12.0296 21.5781 11.4949 21 11.3247V9.55749C21 8.29304 19.975 7.26801 18.7105 7.26801H16.7072L13.9863 4.54712C13.4416 4.00244 12.5585 4.00244 12.0138 4.54712L10.8577 5.70318L9.54972 4.20829ZM13.2792 5.25423L15.2929 7.26801H12.227L11.5177 6.45743L12.7209 5.25423C12.8751 5.10007 13.125 5.10007 13.2792 5.25423ZM10.8982 7.26801L8.79714 4.8668C8.63987 4.68706 8.36026 4.68706 8.203 4.8668L6.10194 7.26801H10.8982ZM20 12.268H20.6053C20.8233 12.268 21 12.4447 21 12.6627V14.8997C21 15.1177 20.8233 15.2945 20.6053 15.2945H15.7895C15.0773 15.2945 14.5 14.7172 14.5 14.005V13.5575C14.5 12.8453 15.0773 12.268 15.7895 12.268H20Z" fill="#2B2B2C"/>
</svg>
