<svg width="24" height="24" viewBox="0 0 24 24" fill="none" xmlns="http://www.w3.org/2000/svg">
<path fill-rule="evenodd" clip-rule="evenodd" d="M19.4834 3.40723H4.35939C3.84139 3.40723 3.42139 3.82723 3.42139 4.34523V19.4692C3.42139 19.9872 3.84139 20.4072 4.35939 20.4072H12.5024V13.8242H10.2864V11.2592H12.5024V9.36623C12.5024 7.17123 13.8424 5.97423 15.8014 5.97423C16.7404 5.97423 17.5464 6.04523 17.7814 6.07623V8.37123H16.4224C15.3574 8.37123 15.1514 8.87823 15.1514 9.62023V11.2592H17.6914L17.3614 13.8242H15.1514V20.4072H19.4834C20.0014 20.4072 20.4214 19.9872 20.4214 19.4692V4.34523C20.4214 3.82723 20.0014 3.40723 19.4834 3.40723Z" fill="#2B2B2C"/>
</svg>
