<svg width="18" height="18" viewBox="0 0 18 18" fill="none" xmlns="http://www.w3.org/2000/svg">
<path fill-rule="evenodd" clip-rule="evenodd" d="M5.12195 2.62799C3.74124 2.62799 2.62195 3.74728 2.62195 5.12799V12.878C2.62195 14.2587 3.74124 15.378 5.12195 15.378H12.872C14.2527 15.378 15.372 14.2587 15.372 12.878V5.12799C15.372 3.74728 14.2527 2.62799 12.872 2.62799H5.12195ZM6.49657 7.55793V13.298H4.58862V7.55793H6.49657ZM6.62228 5.78276C6.62228 6.33363 6.20818 6.7744 5.54298 6.7744L5.53049 6.77435C4.89017 6.77435 4.47618 6.33357 4.47618 5.78271C4.47618 5.21941 4.90266 4.79093 5.55563 4.79093C6.20813 4.79093 6.60983 5.21936 6.62228 5.78276ZM9.46041 13.298H7.55262C7.55262 13.298 7.5776 8.09661 7.55272 7.55814H9.46056V8.37062C9.71416 7.97958 10.1681 7.42337 11.1801 7.42337C12.4353 7.42337 13.3764 8.24382 13.3764 10.0069V13.298H11.4687V10.2276C11.4687 9.45589 11.1924 8.92956 10.5022 8.92956C9.97501 8.92956 9.66108 9.28451 9.52323 9.62743C9.47285 9.74975 9.46041 9.92155 9.46041 10.0929V13.298Z" fill="#2B2B2C"/>
</svg>
