<svg width="18" height="18" viewBox="0 0 18 18" fill="none" xmlns="http://www.w3.org/2000/svg">
<path fill-rule="evenodd" clip-rule="evenodd" d="M7.52088 12.2388C10.5269 12.2388 12.1716 9.74581 12.1716 7.58806C12.1716 7.51756 12.1716 7.44781 12.1686 7.37806C12.4874 7.14781 12.7641 6.85756 12.9846 6.52981C12.6914 6.66106 12.3756 6.74656 12.0441 6.78781C12.3816 6.58756 12.6404 6.26506 12.7641 5.88256C12.4491 6.07081 12.0981 6.20431 11.7254 6.27781C11.4261 5.95906 11.0016 5.76106 10.5336 5.76106C9.63063 5.76106 8.89788 6.49456 8.89788 7.39681C8.89788 7.52431 8.91363 7.64881 8.93988 7.76956C7.58163 7.70281 6.37713 7.04956 5.57013 6.06106C5.42988 6.30331 5.35038 6.58381 5.35038 6.88306C5.35038 7.45081 5.64063 7.95106 6.07713 8.24506C5.80938 8.23531 5.55738 8.16106 5.33763 8.04031V8.06356C5.33763 8.85331 5.90163 9.51631 6.64713 9.66631C6.51063 9.70456 6.36663 9.72331 6.21738 9.72331C6.11238 9.72331 6.01038 9.71431 5.91138 9.69481C6.11838 10.3458 6.72438 10.8168 7.43838 10.8296C6.87738 11.2698 6.17313 11.5308 5.40813 11.5308C5.27688 11.5308 5.14638 11.5248 5.01888 11.5083C5.73963 11.9681 6.59988 12.2388 7.52088 12.2388ZM13.7811 15.3753H4.21863C3.33888 15.3753 2.62488 14.6606 2.62488 13.7816V4.21906C2.62488 3.33931 3.33888 2.62531 4.21863 2.62531H13.7811C14.6609 2.62531 15.3749 3.33931 15.3749 4.21906V13.7816C15.3749 14.6606 14.6609 15.3753 13.7811 15.3753Z" fill="#2B2B2C"/>
</svg>
