<svg width="18" height="18" viewBox="0 0 18 18" fill="none" xmlns="http://www.w3.org/2000/svg">
<path fill-rule="evenodd" clip-rule="evenodd" d="M7.3125 11.4778V6.57129L11.625 9.02454L7.3125 11.4778ZM16.905 5.02704C16.7153 4.31229 16.1565 3.74979 15.4462 3.55854C14.16 3.21204 9 3.21204 9 3.21204C9 3.21204 3.84075 3.21204 2.55375 3.55854C1.8435 3.74979 1.28475 4.31229 1.095 5.02704C0.75 6.32229 0.75 9.02454 0.75 9.02454C0.75 9.02454 0.75 11.7268 1.095 13.022C1.28475 13.736 1.8435 14.2993 2.55375 14.4898C3.84075 14.837 9 14.837 9 14.837C9 14.837 14.16 14.837 15.4462 14.4898C16.1565 14.2993 16.7153 13.736 16.905 13.022C17.25 11.7268 17.25 9.02454 17.25 9.02454C17.25 9.02454 17.25 6.32229 16.905 5.02704Z" fill="#2B2B2C"/>
</svg>
