<svg width="30" height="30" viewBox="0 0 30 30" fill="none" xmlns="http://www.w3.org/2000/svg">
<path fill-rule="evenodd" clip-rule="evenodd" d="M12.1875 19.1296V10.9521L19.375 15.0409L12.1875 19.1296ZM28.175 8.37839C27.8588 7.18714 26.9275 6.24964 25.7437 5.93089C23.6 5.35339 15 5.35339 15 5.35339C15 5.35339 6.40125 5.35339 4.25625 5.93089C3.0725 6.24964 2.14125 7.18714 1.825 8.37839C1.25 10.5371 1.25 15.0409 1.25 15.0409C1.25 15.0409 1.25 19.5446 1.825 21.7034C2.14125 22.8934 3.0725 23.8321 4.25625 24.1496C6.40125 24.7284 15 24.7284 15 24.7284C15 24.7284 23.6 24.7284 25.7437 24.1496C26.9275 23.8321 27.8588 22.8934 28.175 21.7034C28.75 19.5446 28.75 15.0409 28.75 15.0409C28.75 15.0409 28.75 10.5371 28.175 8.37839Z" fill="#2B2B2C"/>
</svg>
