<svg width="30" height="30" viewBox="0 0 30 30" fill="none" xmlns="http://www.w3.org/2000/svg">
<g clip-path="url(#clip0_6837_355)">
<path fill-rule="evenodd" clip-rule="evenodd" d="M14 24.5C14 25.0523 14.4477 25.5 15 25.5C15.5523 25.5 16 25.0523 16 24.5V16H24.5C25.0523 16 25.5 15.5523 25.5 15C25.5 14.4477 25.0523 14 24.5 14H16V5.5C16 4.94772 15.5523 4.5 15 4.5C14.4477 4.5 14 4.94772 14 5.5V14H5.5C4.94772 14 4.5 14.4477 4.5 15C4.5 15.5523 4.94772 16 5.5 16H14V24.5Z" fill="#2B2B2C"/>
</g>
<defs>
<clipPath id="clip0_6837_355">
<rect width="30" height="30" fill="white"/>
</clipPath>
</defs>
</svg>
