<svg width="30" height="30" viewBox="0 0 30 30" fill="none" xmlns="http://www.w3.org/2000/svg">
<g clip-path="url(#clip0_6837_346)">
<path fill-rule="evenodd" clip-rule="evenodd" d="M14.5 24.5C14.5 24.7761 14.7239 25 15 25C15.2761 25 15.5 24.7761 15.5 24.5V15.5H24.5C24.7761 15.5 25 15.2761 25 15C25 14.7239 24.7761 14.5 24.5 14.5H15.5V5.5C15.5 5.22386 15.2761 5 15 5C14.7239 5 14.5 5.22386 14.5 5.5V14.5H5.5C5.22386 14.5 5 14.7239 5 15C5 15.2761 5.22386 15.5 5.5 15.5H14.5V24.5Z" fill="#2B2B2C"/>
</g>
<defs>
<clipPath id="clip0_6837_346">
<rect width="30" height="30" fill="white"/>
</clipPath>
</defs>
</svg>
