<svg width="12" height="12" viewBox="0 0 12 12" fill="none" xmlns="http://www.w3.org/2000/svg">
<g clip-path="url(#clip0_6837_338)">
<path fill-rule="evenodd" clip-rule="evenodd" d="M5.25 9C5.25 9.41421 5.58579 9.75 6 9.75C6.41421 9.75 6.75 9.41421 6.75 9V6.75H9C9.41421 6.75 9.75 6.41421 9.75 6C9.75 5.58579 9.41421 5.25 9 5.25H6.75V3C6.75 2.58579 6.41421 2.25 6 2.25C5.58579 2.25 5.25 2.58579 5.25 3V5.25H3C2.58579 5.25 2.25 5.58579 2.25 6C2.25 6.41421 2.58579 6.75 3 6.75H5.25V9Z" fill="#2B2B2C"/>
</g>
<defs>
<clipPath id="clip0_6837_338">
<rect width="12" height="12" fill="white"/>
</clipPath>
</defs>
</svg>
