<svg width="18" height="18" viewBox="0 0 18 18" fill="none" xmlns="http://www.w3.org/2000/svg">
<g clip-path="url(#clip0_6837_347)">
<path fill-rule="evenodd" clip-rule="evenodd" d="M8.5 14C8.5 14.2761 8.72386 14.5 9 14.5C9.27614 14.5 9.5 14.2761 9.5 14V9.5H14C14.2761 9.5 14.5 9.27614 14.5 9C14.5 8.72386 14.2761 8.5 14 8.5H9.5V4C9.5 3.72386 9.27614 3.5 9 3.5C8.72386 3.5 8.5 3.72386 8.5 4V8.5H4C3.72386 8.5 3.5 8.72386 3.5 9C3.5 9.27614 3.72386 9.5 4 9.5H8.5V14Z" fill="#2B2B2C"/>
</g>
<defs>
<clipPath id="clip0_6837_347">
<rect width="18" height="18" fill="white"/>
</clipPath>
</defs>
</svg>
