<svg width="12" height="12" viewBox="0 0 12 12" fill="none" xmlns="http://www.w3.org/2000/svg">
<g clip-path="url(#clip0_6837_342)">
<path fill-rule="evenodd" clip-rule="evenodd" d="M5.5 9C5.5 9.27614 5.72386 9.5 6 9.5C6.27614 9.5 6.5 9.27614 6.5 9V6.5H9C9.27614 6.5 9.5 6.27614 9.5 6C9.5 5.72386 9.27614 5.5 9 5.5H6.5V3C6.5 2.72386 6.27614 2.5 6 2.5C5.72386 2.5 5.5 2.72386 5.5 3V5.5H3C2.72386 5.5 2.5 5.72386 2.5 6C2.5 6.27614 2.72386 6.5 3 6.5H5.5V9Z" fill="#2B2B2C"/>
</g>
<defs>
<clipPath id="clip0_6837_342">
<rect width="12" height="12" fill="white"/>
</clipPath>
</defs>
</svg>
