<svg width="12" height="12" viewBox="0 0 12 12" fill="none" xmlns="http://www.w3.org/2000/svg">
<path fill-rule="evenodd" clip-rule="evenodd" d="M1.75 6C1.75 5.58579 2.08579 5.25 2.5 5.25H9.5C9.91421 5.25 10.25 5.58579 10.25 6C10.25 6.41421 9.91421 6.75 9.5 6.75H2.5C2.08579 6.75 1.75 6.41421 1.75 6Z" fill="#2B2B2C"/>
<path fill-rule="evenodd" clip-rule="evenodd" d="M6 10.25C5.58579 10.25 5.25 9.91421 5.25 9.5L5.25 2.5C5.25 2.08579 5.58579 1.75 6 1.75C6.41421 1.75 6.75 2.08579 6.75 2.5L6.75 9.5C6.75 9.91421 6.41421 10.25 6 10.25Z" fill="#2B2B2C"/>
</svg>
