<svg width="18" height="18" viewBox="0 0 18 18" fill="none" xmlns="http://www.w3.org/2000/svg">
<g clip-path="url(#clip0_6837_351)">
<path fill-rule="evenodd" clip-rule="evenodd" d="M8.25 14C8.25 14.4142 8.58579 14.75 9 14.75C9.41421 14.75 9.75 14.4142 9.75 14V9.75H14C14.4142 9.75 14.75 9.41421 14.75 9C14.75 8.58579 14.4142 8.25 14 8.25H9.75V4C9.75 3.58579 9.41421 3.25 9 3.25C8.58579 3.25 8.25 3.58579 8.25 4V8.25H4C3.58579 8.25 3.25 8.58579 3.25 9C3.25 9.41421 3.58579 9.75 4 9.75H8.25V14Z" fill="#2B2B2C"/>
</g>
<defs>
<clipPath id="clip0_6837_351">
<rect width="18" height="18" fill="white"/>
</clipPath>
</defs>
</svg>
