<svg width="24" height="24" viewBox="0 0 24 24" fill="none" xmlns="http://www.w3.org/2000/svg">
<path fill-rule="evenodd" clip-rule="evenodd" d="M5.84708 4.18044C6.50696 4.01596 7.44183 3.88289 8.55365 4.00287C9.68292 4.12474 10.6236 4.52959 11.2778 4.89899C11.5795 5.06934 11.8233 5.23382 12 5.36303C12.1767 5.23382 12.4205 5.06934 12.7222 4.89899C13.3764 4.52959 14.3171 4.12474 15.4464 4.00287C16.5582 3.88289 17.493 4.01596 18.1529 4.18044C18.483 4.26272 18.7454 4.35312 18.9281 4.42441C19.0195 4.46007 19.0912 4.49102 19.1416 4.51389C19.1668 4.52533 19.1868 4.53475 19.2012 4.54174L19.2188 4.55036L19.2245 4.5532L19.2265 4.55424L19.228 4.55502C19.395 4.64058 19.5 4.81239 19.5 4.99998V5.60961L21.1213 6.01493C21.3438 6.07057 21.5 6.27056 21.5 6.5V19.4882C21.5007 19.5178 21.4987 19.5477 21.494 19.5777C21.4567 19.8169 21.2497 20 21 20C20.9435 20 20.8892 19.9906 20.8386 19.9734L20.8369 19.9728L20.8146 19.9657C20.7925 19.9588 20.7593 19.9485 20.7159 19.9352C20.6291 19.9087 20.5016 19.8705 20.3408 19.8245C20.0188 19.7325 19.5645 19.6097 19.0367 19.487C18.771 19.4252 18.4886 19.3639 18.1966 19.3067C17.3201 19.1349 16.357 19 15.5 19C15.5 19 15.5 19 15.5 19C14.7016 19 13.8914 19.2276 13.2652 19.467C12.9554 19.5855 12.6982 19.7039 12.5194 19.7921C12.4302 19.8362 12.3609 19.8725 12.3148 19.8973C12.2918 19.9097 12.2746 19.9192 12.2637 19.9253L12.2577 19.9286C12.2276 19.9467 12.1958 19.9615 12.1629 19.9728C12.1179 19.9883 12.0716 19.9971 12.0254 19.9994C11.9405 20.0038 11.8539 19.9866 11.7743 19.9462C11.7547 19.9363 11.7358 19.9252 11.7177 19.9128L11.7137 19.9102L11.6958 19.899L11.6717 19.8841C11.6331 19.8606 11.5735 19.8255 11.495 19.7827C11.3378 19.6969 11.1058 19.5808 10.8143 19.4642C10.2291 19.2302 9.41852 19 8.5 19C7.35752 19 6.02659 19.2397 4.96331 19.487C4.43551 19.6097 3.98121 19.7325 3.65929 19.8245C3.49843 19.8705 3.37091 19.9087 3.2841 19.9352C3.24071 19.9485 3.20751 19.9588 3.18544 19.9657L3.16247 19.973C3.11153 19.9905 3.05687 20 3 20C2.72386 20 2.5 19.7761 2.5 19.5V6.5C2.5 6.27056 2.65615 6.07057 2.87873 6.01493L4.5 5.60961V4.99998C4.5 4.81239 4.60501 4.64058 4.77195 4.55502L4.77347 4.55424L4.77552 4.5532L4.7812 4.55036L4.79877 4.54174C4.81323 4.53475 4.83317 4.52533 4.85839 4.51389C4.90882 4.49102 4.98048 4.46007 5.0719 4.42441C5.25462 4.35312 5.51696 4.26272 5.84708 4.18044ZM18.5 5.33139V5.98936C18.4998 5.99672 18.4998 6.00407 18.5 6.01139V16.2729C18.4042 16.2438 18.2996 16.2145 18.1866 16.1862C17.5354 16.0229 16.6027 15.891 15.4519 16.0023C14.239 16.1196 13.2756 16.6758 12.6263 17.1856C12.5829 17.2196 12.5408 17.2536 12.5 17.2873L12.5 6.23771C12.5163 6.22526 12.5337 6.21209 12.5523 6.19828C12.7033 6.08577 12.9277 5.93133 13.2138 5.76978C13.7883 5.44542 14.5976 5.10027 15.5536 4.9971C16.5271 4.89204 17.3423 5.00898 17.9111 5.15075C18.1565 5.21192 18.3552 5.27752 18.5 5.33139ZM5.5 6.01121C5.50016 6.00401 5.50016 5.99678 5.5 5.98954V5.33139C5.64478 5.27752 5.84354 5.21192 6.08894 5.15075C6.65772 5.00898 7.47285 4.89204 8.44635 4.9971C9.4024 5.10027 10.2117 5.44542 10.7862 5.76978C11.0723 5.93133 11.2967 6.08577 11.4477 6.19828C11.4663 6.21209 11.4837 6.22526 11.5 6.23771L11.5 17.2873C11.4592 17.2536 11.4171 17.2196 11.3737 17.1856C10.7244 16.6758 9.761 16.1196 8.54815 16.0023C7.3973 15.891 6.46459 16.0229 5.81344 16.1862C5.70037 16.2145 5.59578 16.2438 5.5 16.2729V6.01121Z" fill="#2B2B2C"/>
</svg>
