<svg width="30" height="30" viewBox="0 0 30 30" fill="none" xmlns="http://www.w3.org/2000/svg">
<path fill-rule="evenodd" clip-rule="evenodd" d="M6.5428 5.2568C7.31959 5.12734 8.47208 5 10 5C11.5157 5 12.8511 5.53972 13.7928 6.06292C14.2664 6.32601 14.648 6.58913 14.9125 6.7875C14.9432 6.81055 14.9724 6.83275 15 6.85399C15.0276 6.83275 15.0568 6.81055 15.0875 6.7875C15.352 6.58913 15.7336 6.32601 16.2072 6.06292C17.1489 5.53972 18.4843 5 20 5C21.5279 5 22.6804 5.12734 23.4572 5.2568C23.8455 5.32153 24.1398 5.38676 24.34 5.4368C24.4401 5.46183 24.5167 5.48305 24.5697 5.49852C24.5962 5.50625 24.6168 5.51254 24.6316 5.51714L24.6493 5.52276L24.6548 5.52456L24.6567 5.5252L24.6581 5.52566C24.8623 5.59372 25 5.78478 25 6V6.99988C25.0524 6.99989 25.1057 7.00819 25.1581 7.02567L26.6581 7.52567C26.8623 7.59373 27 7.7848 27 8.00001V24.5C27 24.6782 26.9051 24.843 26.751 24.9325C26.5968 25.0219 26.4067 25.0225 26.2519 24.9341L26.2506 24.9334L26.2444 24.9299L26.2171 24.9146C26.1926 24.901 26.1555 24.8806 26.1067 24.8543C26.0091 24.8018 25.8652 24.726 25.6826 24.6347C25.3172 24.452 24.7988 24.208 24.1893 23.9643C22.959 23.4721 21.4045 23 20 23C18.6865 23 17.5037 23.3527 16.6423 23.7116C16.2132 23.8903 15.8684 24.0688 15.6326 24.2014C15.5148 24.2677 15.4246 24.3223 15.365 24.3596C15.3352 24.3782 15.3131 24.3924 15.2991 24.4016L15.2875 24.4092C15.2633 24.4263 15.2377 24.441 15.2112 24.4533C15.1436 24.4849 15.0715 24.5001 15 24.5001C14.9285 24.5001 14.8563 24.4849 14.7888 24.4533C14.7623 24.441 14.7367 24.4263 14.7125 24.4092L14.7009 24.4016C14.6869 24.3924 14.6648 24.3782 14.635 24.3596C14.5754 24.3223 14.4852 24.2677 14.3674 24.2014C14.1316 24.0688 13.7868 23.8903 13.3577 23.7116C12.4963 23.3527 11.3135 23 10 23C8.59547 23 7.04101 23.4721 5.8107 23.9643C5.20123 24.208 4.68283 24.452 4.31736 24.6347C4.13479 24.726 3.99085 24.8018 3.8933 24.8543C3.84454 24.8806 3.8074 24.901 3.78286 24.9146L3.75564 24.9299L3.74935 24.9334L3.74808 24.9341C3.59335 25.0225 3.40316 25.0219 3.24904 24.9325C3.09488 24.843 3 24.6782 3 24.5V8.00001C3 7.7848 3.13772 7.59373 3.34189 7.52567L4.84189 7.02567C4.89432 7.00819 4.94761 6.99989 5 6.99988V6C5 5.78478 5.13772 5.59372 5.34189 5.52566L5.34327 5.5252L5.34521 5.52456L5.35075 5.52276L5.36844 5.51714C5.38318 5.51254 5.4038 5.50625 5.43031 5.49852C5.48333 5.48305 5.55989 5.46183 5.65998 5.4368C5.86018 5.38676 6.15446 5.32153 6.5428 5.2568ZM6 20.3588C6.15395 20.3262 6.33485 20.2914 6.54269 20.2568C7.31948 20.1273 8.47197 20 9.99989 20H10C12.1139 20 13.4779 20.664 14.3201 21.3659C14.3831 21.4184 14.4431 21.471 14.5 21.5234V7.73285C14.4487 7.69166 14.3859 7.64258 14.3125 7.5875C14.077 7.41087 13.7336 7.17399 13.3072 6.93708C12.4489 6.46028 11.2843 6 10 6C8.52792 6 7.43041 6.12266 6.7072 6.2432C6.40716 6.2932 6.17143 6.34286 6 6.38329V20.3588ZM15.5 21.5235C15.557 21.4711 15.617 21.4185 15.68 21.3659C16.5223 20.664 17.8863 20 20.0001 20H20.0002C21.5282 20 22.6806 20.1273 23.4574 20.2568C23.6652 20.2914 23.8461 20.3262 24 20.3587V6.38329C23.8286 6.34286 23.5928 6.2932 23.2928 6.2432C22.5696 6.12266 21.4721 6 20 6C18.7157 6 17.5511 6.46028 16.6928 6.93708C16.2664 7.17399 15.923 7.41087 15.6875 7.5875C15.6141 7.64258 15.5513 7.69166 15.5 7.73285V21.5235ZM22.4294 10.495C19.7156 10.1073 17.7872 10.6655 17.2237 10.9472C16.9767 11.0707 16.6764 10.9706 16.5529 10.7236C16.4294 10.4766 16.5295 10.1763 16.7765 10.0528C17.5464 9.66788 19.6846 9.09272 22.5708 9.50504C22.8442 9.5441 23.0341 9.79736 22.9951 10.0707C22.956 10.3441 22.7028 10.534 22.4294 10.495ZM12.7763 10.9472C12.2128 10.6655 10.2844 10.1073 7.5706 10.495C7.29723 10.534 7.04397 10.3441 7.00492 10.0707C6.96586 9.79736 7.15581 9.5441 7.42918 9.50504C10.3154 9.09272 12.4536 9.66788 13.2235 10.0528C13.4705 10.1763 13.5706 10.4766 13.4471 10.7236C13.3236 10.9706 13.0233 11.0707 12.7763 10.9472ZM22.4294 13.995C19.7156 13.6073 17.7872 14.1655 17.2237 14.4472C16.9767 14.5707 16.6764 14.4706 16.5529 14.2236C16.4294 13.9766 16.5295 13.6763 16.7765 13.5528C17.5464 13.1679 19.6846 12.5927 22.5708 13.005C22.8442 13.0441 23.0341 13.2974 22.9951 13.5707C22.956 13.8441 22.7028 14.034 22.4294 13.995ZM12.7763 14.4472C12.2128 14.1655 10.2844 13.6073 7.5706 13.995C7.29723 14.034 7.04397 13.8441 7.00492 13.5707C6.96586 13.2974 7.15581 13.0441 7.42918 13.005C10.3154 12.5927 12.4536 13.1679 13.2235 13.5528C13.4705 13.6763 13.5706 13.9766 13.4471 14.2236C13.3236 14.4706 13.0233 14.5707 12.7763 14.4472ZM22.4294 17.495C19.7156 17.1073 17.7872 17.6655 17.2237 17.9472C16.9767 18.0707 16.6764 17.9706 16.5529 17.7236C16.4294 17.4766 16.5295 17.1763 16.7765 17.0528C17.5464 16.6679 19.6846 16.0927 22.5708 16.505C22.8442 16.5441 23.0341 16.7974 22.9951 17.0707C22.956 17.3441 22.7028 17.534 22.4294 17.495ZM12.7763 17.9472C12.2128 17.6655 10.2844 17.1073 7.5706 17.495C7.29723 17.534 7.04397 17.3441 7.00492 17.0707C6.96586 16.7974 7.15581 16.5441 7.42918 16.505C10.3154 16.0927 12.4536 16.6679 13.2235 17.0528C13.4705 17.1763 13.5706 17.4766 13.4471 17.7236C13.3236 17.9706 13.0233 18.0707 12.7763 17.9472Z" fill="#2B2B2C"/>
</svg>
