<svg width="24" height="24" viewBox="0 0 24 24" fill="none" xmlns="http://www.w3.org/2000/svg">
<path fill-rule="evenodd" clip-rule="evenodd" d="M12.2501 19.933L12.252 19.9318L12.2637 19.9253C12.2746 19.9192 12.2918 19.9097 12.3148 19.8973C12.3609 19.8725 12.4302 19.8362 12.5194 19.7921C12.6982 19.7039 12.9554 19.5855 13.2652 19.467C13.8914 19.2276 14.7016 19 15.5 19C15.7761 19 16 18.7761 16 18.5C16 18.2239 15.7761 18 15.5 18C14.5295 18 13.5897 18.2724 12.9081 18.533C12.564 18.6645 12.2779 18.7961 12.0768 18.8954C11.9761 18.9451 11.8963 18.9869 11.8408 19.0168C11.813 19.0317 11.7913 19.0437 11.776 19.0523L11.7579 19.0624L11.7526 19.0654L11.7509 19.0664L11.7499 19.067C11.5108 19.2052 11.4289 19.511 11.567 19.7501C11.7051 19.9892 12.011 20.0709 12.2501 19.933Z" fill="#2B2B2C"/>
<path fill-rule="evenodd" clip-rule="evenodd" d="M5.84708 4.18044C6.50696 4.01596 7.44183 3.88289 8.55365 4.00287C9.68292 4.12474 10.6236 4.52959 11.2778 4.89899C11.5795 5.06934 11.8233 5.23382 12 5.36303C12.1767 5.23382 12.4205 5.06934 12.7222 4.89899C13.3764 4.52959 14.3171 4.12474 15.4464 4.00287C16.5582 3.88289 17.493 4.01596 18.1529 4.18044C18.483 4.26272 18.7454 4.35312 18.9281 4.42441C19.0195 4.46007 19.0912 4.49102 19.1416 4.51389C19.1668 4.52533 19.1868 4.53475 19.2012 4.54174L19.2188 4.55036L19.2245 4.5532L19.2265 4.55424L19.228 4.55502C19.395 4.64058 19.5 4.81239 19.5 4.99998V5.60961L21.1213 6.01493C21.3438 6.07057 21.5 6.27056 21.5 6.5V19.4882C21.5007 19.5178 21.4987 19.5477 21.494 19.5777C21.4567 19.8169 21.2497 20 21 20C20.9435 20 20.8892 19.9906 20.8386 19.9734C20.838 19.9732 20.8375 19.973 20.8369 19.9728L20.8146 19.9657C20.7925 19.9588 20.7593 19.9485 20.7159 19.9352C20.6291 19.9087 20.5016 19.8705 20.3408 19.8245C20.0188 19.7325 19.5645 19.6097 19.0367 19.487C18.771 19.4252 18.4886 19.3639 18.1966 19.3067C17.3201 19.1349 16.357 19 15.5 19C15.2239 19 15 18.7761 15 18.5C15 18.2239 15.2239 18 15.5 18C16.7575 18 18.1766 18.2603 19.2633 18.513C19.7501 18.6262 20.1764 18.7394 20.5 18.8303V6.89038L19.5 6.64039V17C19.5 17.1758 19.4077 17.3386 19.2569 17.4289C19.1062 17.5192 18.9201 17.5242 18.7652 17.4414L18.76 17.4388C18.7537 17.4356 18.7425 17.4301 18.7264 17.4225C18.6942 17.4075 18.6428 17.3844 18.5731 17.3566C18.4337 17.3008 18.2213 17.2258 17.9434 17.1561C17.3878 17.0168 16.5705 16.8987 15.5481 16.9977C14.5878 17.0906 13.8012 17.5345 13.2438 17.9721C12.9668 18.1896 12.7523 18.401 12.6082 18.5567C12.5363 18.6343 12.4825 18.6975 12.4477 18.74C12.4303 18.7612 12.4176 18.7771 12.4099 18.787L12.4017 18.7977L12.4014 18.7981L12.401 18.7986C12.3412 18.879 12.2606 18.9373 12.1708 18.9699L12.1568 18.9748C12.144 18.979 12.1311 18.9827 12.1182 18.9858L12.1178 18.9859C12.146 19.0024 12.1707 19.0172 12.1917 19.0299C12.2173 19.0455 12.2374 19.0581 12.2517 19.0673L12.269 19.0784L12.2743 19.0819L12.2761 19.0831L12.2771 19.0838C12.5069 19.237 12.5693 19.5476 12.4161 19.7773C12.2631 20.0068 11.9533 20.069 11.7236 19.9166L11.7224 19.9159L11.7137 19.9102C11.7092 19.9074 11.7033 19.9036 11.6958 19.899C11.689 19.8947 11.681 19.8898 11.6717 19.8841C11.6331 19.8606 11.5735 19.8255 11.495 19.7827C11.3378 19.6969 11.1058 19.5808 10.8143 19.4642C10.2291 19.2302 9.41852 19 8.5 19C7.35752 19 6.02659 19.2397 4.96331 19.487C4.43551 19.6097 3.98121 19.7325 3.65929 19.8245C3.49843 19.8705 3.37091 19.9087 3.2841 19.9352C3.24071 19.9485 3.20751 19.9588 3.18544 19.9657L3.16247 19.973C3.11153 19.9905 3.05687 20 3 20C2.72386 20 2.5 19.7761 2.5 19.5V6.5C2.5 6.27056 2.65615 6.07057 2.87873 6.01493L4.5 5.60961V4.99998C4.5 4.81239 4.60501 4.64058 4.77195 4.55502L4.77347 4.55424L4.77552 4.5532L4.7812 4.55036L4.79877 4.54174C4.81323 4.53475 4.83317 4.52533 4.85839 4.51389C4.90882 4.49102 4.98048 4.46007 5.0719 4.42441C5.25462 4.35312 5.51696 4.26272 5.84708 4.18044ZM11.3918 18.5567C11.4288 18.5967 11.461 18.6328 11.4883 18.6643C11.3947 18.6221 11.2936 18.5789 11.1857 18.5358C10.5209 18.2698 9.5815 18 8.50005 18C8.50003 18 8.50002 18 8.5 18C6.79574 18 5.13869 18.4096 3.5 18.8331V6.89038L4.5 6.64038V17C4.5 17.1758 4.59229 17.3386 4.74308 17.4289C4.89377 17.5192 5.07993 17.5242 5.23483 17.4414L5.23996 17.4388C5.24628 17.4356 5.25753 17.4301 5.27361 17.4225C5.30576 17.4075 5.35716 17.3844 5.42687 17.3566C5.56634 17.3008 5.77871 17.2258 6.05664 17.1561C6.61218 17.0168 7.42947 16.8987 8.45185 16.9977C9.41223 17.0906 10.1988 17.5345 10.7562 17.9721C11.0332 18.1896 11.2477 18.401 11.3918 18.5567ZM18.5 5.33139V5.98936C18.4998 5.99672 18.4998 6.00407 18.5 6.01139V16.2729C18.4042 16.2438 18.2996 16.2145 18.1866 16.1862C17.5354 16.0229 16.6027 15.891 15.4519 16.0023C14.239 16.1196 13.2756 16.6758 12.6263 17.1856C12.5829 17.2196 12.5408 17.2536 12.5 17.2873L12.5 6.23771C12.5163 6.22526 12.5337 6.21209 12.5523 6.19828C12.7033 6.08577 12.9277 5.93133 13.2138 5.76978C13.7883 5.44542 14.5976 5.10027 15.5536 4.9971C16.5271 4.89204 17.3423 5.00898 17.9111 5.15075C18.1565 5.21192 18.3552 5.27752 18.5 5.33139ZM5.5 6.01121C5.50016 6.00401 5.50016 5.99678 5.5 5.98954V5.33139C5.64478 5.27752 5.84354 5.21192 6.08894 5.15075C6.65772 5.00898 7.47285 4.89204 8.44635 4.9971C9.4024 5.10027 10.2117 5.44542 10.7862 5.76978C11.0723 5.93133 11.2967 6.08577 11.4477 6.19828C11.4663 6.21209 11.4837 6.22526 11.5 6.23771L11.5 17.2873C11.4592 17.2536 11.4171 17.2196 11.3737 17.1856C10.7244 16.6758 9.761 16.1196 8.54815 16.0023C7.3973 15.891 6.46459 16.0229 5.81344 16.1862C5.70037 16.2145 5.59578 16.2438 5.5 16.2729V6.01121Z" fill="#2B2B2C"/>
</svg>
