<svg width="18" height="18" viewBox="0 0 18 18" fill="none" xmlns="http://www.w3.org/2000/svg">
<path fill-rule="evenodd" clip-rule="evenodd" d="M2 3.25C2 2.55964 2.55964 2 3.25 2H14.75C15.4404 2 16 2.55964 16 3.25V14.75C16 15.4404 15.4404 16 14.75 16H3.25C2.55964 16 2 15.4404 2 14.75V3.25ZM3.25 3C3.11193 3 3 3.11193 3 3.25V4H15V3.25C15 3.11193 14.8881 3 14.75 3H3.25ZM11.8536 7.64645C11.6583 7.45118 11.3417 7.45118 11.1464 7.64645C10.9512 7.84171 10.9512 8.15829 11.1464 8.35355L12.7929 10L11.1464 11.6464C10.9512 11.8417 10.9512 12.1583 11.1464 12.3536C11.3417 12.5488 11.6583 12.5488 11.8536 12.3536L13.8536 10.3536C14.0488 10.1583 14.0488 9.84171 13.8536 9.64645L11.8536 7.64645ZM6.85355 12.3536C6.65829 12.5488 6.34171 12.5488 6.14645 12.3536L4.14645 10.3536C3.95118 10.1583 3.95118 9.84171 4.14645 9.64645L6.14645 7.64645C6.34171 7.45118 6.65829 7.45118 6.85355 7.64645C7.04882 7.84171 7.04882 8.15829 6.85355 8.35355L5.20711 10L6.85355 11.6464C7.04882 11.8417 7.04882 12.1583 6.85355 12.3536ZM10.4808 6.63736C10.5566 6.37184 10.4029 6.0951 10.1374 6.01924C9.87184 5.94338 9.5951 6.09712 9.51924 6.36264L7.51924 13.3626C7.44338 13.6282 7.59712 13.9049 7.86264 13.9808C8.12816 14.0566 8.4049 13.9029 8.48076 13.6374L10.4808 6.63736Z" fill="#2B2B2C"/>
</svg>
