<svg width="24" height="24" viewBox="0 0 24 24" fill="none" xmlns="http://www.w3.org/2000/svg">
<path fill-rule="evenodd" clip-rule="evenodd" d="M3 4.5C3 3.67157 3.67157 3 4.5 3H19.5C20.3284 3 21 3.67157 21 4.5V19.5C21 20.3284 20.3284 21 19.5 21H4.5C3.67157 21 3 20.3284 3 19.5V4.5ZM4.5 4C4.22386 4 4 4.22386 4 4.5V5H20V4.5C20 4.22386 19.7761 4 19.5 4H4.5ZM4 19.5V6H20V19.5C20 19.7761 19.7761 20 19.5 20H4.5C4.22386 20 4 19.7761 4 19.5ZM15.3536 9.64645C15.1583 9.45118 14.8417 9.45118 14.6464 9.64645C14.4512 9.84171 14.4512 10.1583 14.6464 10.3536L17.2929 13L14.6464 15.6464C14.4512 15.8417 14.4512 16.1583 14.6464 16.3536C14.8417 16.5488 15.1583 16.5488 15.3536 16.3536L18.3536 13.3536C18.5488 13.1583 18.5488 12.8417 18.3536 12.6464L15.3536 9.64645ZM9.35355 16.3536C9.15829 16.5488 8.84171 16.5488 8.64645 16.3536L5.64645 13.3536C5.45118 13.1583 5.45118 12.8417 5.64645 12.6464L8.64645 9.64645C8.84171 9.45118 9.15829 9.45118 9.35355 9.64645C9.54882 9.84171 9.54882 10.1583 9.35355 10.3536L6.70711 13L9.35355 15.6464C9.54882 15.8417 9.54882 16.1583 9.35355 16.3536ZM13.9744 8.65813C14.0617 8.39616 13.9201 8.113 13.6581 8.02567C13.3962 7.93835 13.113 8.07993 13.0257 8.3419L10.0257 17.3419C9.93835 17.6039 10.0799 17.887 10.3419 17.9744C10.6039 18.0617 10.887 17.9201 10.9744 17.6581L13.9744 8.65813Z" fill="#2B2B2C"/>
</svg>
