<svg width="24" height="24" viewBox="0 0 24 24" fill="none" xmlns="http://www.w3.org/2000/svg">
<path fill-rule="evenodd" clip-rule="evenodd" d="M11.5402 4.01323C7.33587 4.2514 4 7.73617 4 12.0001C4 16.4183 7.58164 19.9999 11.9998 19.9999C16.418 19.9999 19.9997 16.4183 19.9997 12.0001C19.9997 11.2361 19.8741 10.3638 19.6691 9.62001C18.3018 9.97682 17.1589 9.83802 16.325 9.21257C15.5142 8.6045 15.1062 7.6185 15.0183 6.48393C14.3367 6.43788 13.5845 6.28616 12.9481 5.93905C12.2477 5.55705 11.6908 4.93531 11.5402 4.01323ZM3 12.0001C3 7.0296 7.02936 3.00024 11.9998 3.00024C12.276 3.00024 12.4998 3.22408 12.4998 3.5002C12.4999 4.29036 12.875 4.76014 13.4269 5.06114C14.0109 5.37964 14.7909 5.50007 15.5 5.50007C15.7761 5.50007 16 5.72393 16 6.00007C16 7.16467 16.3491 7.98064 16.925 8.41257C17.4935 8.83896 18.4266 8.9975 19.8419 8.52573C20.1013 8.43926 20.382 8.57721 20.4721 8.83538C20.7969 9.76653 20.9997 10.964 20.9997 12.0001C20.9997 16.9705 16.9703 20.9999 11.9998 20.9999C7.02936 20.9999 3 16.9705 3 12.0001ZM14 16.5C13.7239 16.5 13.5 16.7239 13.5 17C13.5 17.2761 13.7239 17.5 14 17.5C14.2761 17.5 14.5 17.2761 14.5 17C14.5 16.7239 14.2761 16.5 14 16.5ZM12.5 17C12.5 16.1716 13.1716 15.5 14 15.5C14.8284 15.5 15.5 16.1716 15.5 17C15.5 17.8284 14.8284 18.5 14 18.5C13.1716 18.5 12.5 17.8284 12.5 17ZM7.5 14C7.5 13.7239 7.72386 13.5 8 13.5C8.27614 13.5 8.5 13.7239 8.5 14C8.5 14.2761 8.27614 14.5 8 14.5C7.72386 14.5 7.5 14.2761 7.5 14ZM8 12.5C7.17157 12.5 6.5 13.1716 6.5 14C6.5 14.8284 7.17157 15.5 8 15.5C8.82843 15.5 9.5 14.8284 9.5 14C9.5 13.1716 8.82843 12.5 8 12.5ZM10 7.5C9.72386 7.5 9.5 7.72386 9.5 8C9.5 8.27614 9.72386 8.5 10 8.5C10.2761 8.5 10.5 8.27614 10.5 8C10.5 7.72386 10.2761 7.5 10 7.5ZM8.5 8C8.5 7.17157 9.17157 6.5 10 6.5C10.8284 6.5 11.5 7.17157 11.5 8C11.5 8.82843 10.8284 9.5 10 9.5C9.17157 9.5 8.5 8.82843 8.5 8ZM13.75 12.5C14.1642 12.5 14.5 12.1642 14.5 11.75C14.5 11.3358 14.1642 11 13.75 11C13.3358 11 13 11.3358 13 11.75C13 12.1642 13.3358 12.5 13.75 12.5Z" fill="#2B2B2C"/>
</svg>
