<svg width="30" height="30" viewBox="0 0 30 30" fill="none" xmlns="http://www.w3.org/2000/svg">
<path fill-rule="evenodd" clip-rule="evenodd" d="M3 15C3 8.37258 8.37258 3 15 3C15.2761 3 15.5 3.22383 15.5 3.49996C15.5001 4.64305 16.0517 5.33343 16.8463 5.76678C17.6729 6.21763 18.7618 6.38219 19.7356 6.38219C19.9991 6.38219 20.2174 6.58672 20.2346 6.84969C20.3627 8.81672 20.9001 9.75648 21.6929 10.2091C22.5404 10.693 23.8371 10.7262 25.7517 10.4464C25.9888 10.4117 26.2172 10.5501 26.2961 10.7764C26.7289 12.0171 27 13.6176 27 15C27 21.6274 21.6274 27 15 27C8.37258 27 3 21.6274 3 15ZM18.75 22.5C19.4404 22.5 20 21.9404 20 21.25C20 20.5596 19.4404 20 18.75 20C18.0596 20 17.5 20.5596 17.5 21.25C17.5 21.9404 18.0596 22.5 18.75 22.5ZM20.25 14.25C20.25 14.9404 19.6904 15.5 19 15.5C18.3096 15.5 17.75 14.9404 17.75 14.25C17.75 13.5596 18.3096 13 19 13C19.6904 13 20.25 13.5596 20.25 14.25ZM10 21C10.9665 21 11.75 20.2165 11.75 19.25C11.75 18.2835 10.9665 17.5 10 17.5C9.0335 17.5 8.25 18.2835 8.25 19.25C8.25 20.2165 9.0335 21 10 21ZM14.5 9.5C14.5 10.3284 13.8284 11 13 11C12.1716 11 11.5 10.3284 11.5 9.5C11.5 8.67157 12.1716 8 13 8C13.8284 8 14.5 8.67157 14.5 9.5ZM8.75 14.5C9.16421 14.5 9.5 14.1642 9.5 13.75C9.5 13.3358 9.16421 13 8.75 13C8.33579 13 8 13.3358 8 13.75C8 14.1642 8.33579 14.5 8.75 14.5Z" fill="#2B2B2C"/>
</svg>
