<svg width="24" height="24" viewBox="0 0 24 24" fill="none" xmlns="http://www.w3.org/2000/svg">
<path fill-rule="evenodd" clip-rule="evenodd" d="M11.9998 3.00024C7.02936 3.00024 3 7.0296 3 12.0001C3 16.9705 7.02936 20.9999 11.9998 20.9999C16.9703 20.9999 20.9997 16.9705 20.9997 12.0001C20.9997 10.964 20.7969 9.76653 20.4721 8.83538C20.382 8.57721 20.1013 8.43926 19.8419 8.52573C18.4266 8.9975 17.4935 8.83896 16.925 8.41257C16.3491 7.98064 16 7.16467 16 6.00007C16 5.72393 15.7761 5.50007 15.5 5.50007C14.7909 5.50007 14.0109 5.37964 13.4269 5.06114C12.875 4.76014 12.4999 4.29036 12.4998 3.5002C12.4998 3.22408 12.276 3.00024 11.9998 3.00024ZM15 17.0001C15 17.5523 14.5523 18.0001 14 18.0001C13.4477 18.0001 13 17.5523 13 17.0001C13 16.4478 13.4477 16.0001 14 16.0001C14.5523 16.0001 15 16.4478 15 17.0001ZM8 15.0001C8.55228 15.0001 9 14.5523 9 14.0001C9 13.4478 8.55228 13.0001 8 13.0001C7.44772 13.0001 7 13.4478 7 14.0001C7 14.5523 7.44772 15.0001 8 15.0001ZM11 8.00006C11 8.55235 10.5523 9.00006 10 9.00006C9.44772 9.00006 9 8.55235 9 8.00006C9 7.44778 9.44772 7.00006 10 7.00006C10.5523 7.00006 11 7.44778 11 8.00006ZM13.75 12.5001C14.1642 12.5001 14.5 12.1643 14.5 11.7501C14.5 11.3358 14.1642 11.0001 13.75 11.0001C13.3358 11.0001 13 11.3358 13 11.7501C13 12.1643 13.3358 12.5001 13.75 12.5001Z" fill="#2B2B2C"/>
</svg>
