<svg width="30" height="30" viewBox="0 0 30 30" fill="none" xmlns="http://www.w3.org/2000/svg">
<path fill-rule="evenodd" clip-rule="evenodd" d="M4 15C4 9.08228 8.67295 4.25599 14.5301 4.00985C14.6852 5.28408 15.4224 6.12925 16.3674 6.64469C17.2548 7.12864 18.3226 7.32516 19.2749 7.37112C19.4653 9.20726 20.0595 10.4281 21.197 11.0775C22.2848 11.6985 23.7504 11.716 25.4775 11.4935C25.7997 12.5646 26 13.8678 26 15C26 21.0751 21.0751 26 15 26C8.92487 26 4 21.0751 4 15ZM15 3C8.37258 3 3 8.37258 3 15C3 21.6274 8.37258 27 15 27C21.6274 27 27 21.6274 27 15C27 13.6176 26.7289 12.0171 26.2961 10.7764C26.2172 10.5501 25.9888 10.4117 25.7517 10.4464C23.8371 10.7262 22.5404 10.693 21.6929 10.2091C20.9001 9.75648 20.3627 8.81672 20.2346 6.84969C20.2174 6.58672 19.9991 6.38219 19.7356 6.38219C18.7618 6.38219 17.6729 6.21763 16.8463 5.76678C16.0517 5.33343 15.5001 4.64305 15.5 3.49996C15.5 3.22383 15.2761 3 15 3ZM18 21.25C18 20.8358 18.3358 20.5 18.75 20.5C19.1642 20.5 19.5 20.8358 19.5 21.25C19.5 21.6642 19.1642 22 18.75 22C18.3358 22 18 21.6642 18 21.25ZM18.75 19.5C17.7835 19.5 17 20.2835 17 21.25C17 22.2165 17.7835 23 18.75 23C19.7165 23 20.5 22.2165 20.5 21.25C20.5 20.2835 19.7165 19.5 18.75 19.5ZM19 13.5C18.7239 13.5 18.5 13.7239 18.5 14C18.5 14.2761 18.7239 14.5 19 14.5C19.2761 14.5 19.5 14.2761 19.5 14C19.5 13.7239 19.2761 13.5 19 13.5ZM17.5 14C17.5 13.1716 18.1716 12.5 19 12.5C19.8284 12.5 20.5 13.1716 20.5 14C20.5 14.8284 19.8284 15.5 19 15.5C18.1716 15.5 17.5 14.8284 17.5 14ZM8.5 19.5C8.5 18.9477 8.94772 18.5 9.5 18.5C10.0523 18.5 10.5 18.9477 10.5 19.5C10.5 20.0523 10.0523 20.5 9.5 20.5C8.94772 20.5 8.5 20.0523 8.5 19.5ZM9.5 17.5C8.39543 17.5 7.5 18.3954 7.5 19.5C7.5 20.6046 8.39543 21.5 9.5 21.5C10.6046 21.5 11.5 20.6046 11.5 19.5C11.5 18.3954 10.6046 17.5 9.5 17.5ZM13 8.5C12.4477 8.5 12 8.94772 12 9.5C12 10.0523 12.4477 10.5 13 10.5C13.5523 10.5 14 10.0523 14 9.5C14 8.94772 13.5523 8.5 13 8.5ZM11 9.5C11 8.39543 11.8954 7.5 13 7.5C14.1046 7.5 15 8.39543 15 9.5C15 10.6046 14.1046 11.5 13 11.5C11.8954 11.5 11 10.6046 11 9.5ZM8.75 14.5C9.16421 14.5 9.5 14.1642 9.5 13.75C9.5 13.3358 9.16421 13 8.75 13C8.33579 13 8 13.3358 8 13.75C8 14.1642 8.33579 14.5 8.75 14.5Z" fill="#2B2B2C"/>
</svg>
