<svg width="18" height="18" viewBox="0 0 18 18" fill="none" xmlns="http://www.w3.org/2000/svg">
<path fill-rule="evenodd" clip-rule="evenodd" d="M2.5 9C2.5 5.56584 5.1632 2.7537 8.53694 2.51624C8.63356 3.16973 8.9234 3.75505 9.45 4.15C9.98769 4.55327 10.6978 4.70216 11.5295 4.59739C11.6368 5.62911 12.0368 6.38019 12.7428 6.80375C13.4236 7.21228 14.2805 7.24512 15.1641 7.08426C15.3508 7.70462 15.5 8.41202 15.5 9C15.5 12.5899 12.5899 15.5 9 15.5C5.41015 15.5 2.5 12.5899 2.5 9ZM9 1.5C4.85786 1.5 1.5 4.85786 1.5 9C1.5 13.1421 4.85786 16.5 9 16.5C13.1421 16.5 16.5 13.1421 16.5 9C16.5 8.10966 16.2313 7.07832 15.9721 6.33531C15.8869 6.09114 15.6296 5.95221 15.3787 6.01493C14.4197 6.25469 13.7093 6.2175 13.2572 5.94625C12.843 5.69771 12.5 5.15822 12.5 4C12.5 3.84603 12.4291 3.70065 12.3077 3.6059C12.1863 3.51114 12.0281 3.47759 11.8787 3.51493C10.967 3.74287 10.3888 3.60412 10.05 3.35C9.71218 3.09664 9.5 2.64429 9.5 2C9.5 1.72386 9.27614 1.5 9 1.5ZM12 12C12.5523 12 13 11.5523 13 11C13 10.4477 12.5523 10 12 10C11.4477 10 11 10.4477 11 11C11 11.5523 11.4477 12 12 12ZM7.5 10.5C7.5 11.0523 7.05228 11.5 6.5 11.5C5.94772 11.5 5.5 11.0523 5.5 10.5C5.5 9.94771 5.94772 9.5 6.5 9.5C7.05228 9.5 7.5 9.94771 7.5 10.5ZM7.5 7C8.05228 7 8.5 6.55228 8.5 6C8.5 5.44772 8.05228 5 7.5 5C6.94772 5 6.5 5.44772 6.5 6C6.5 6.55228 6.94772 7 7.5 7Z" fill="#2B2B2C"/>
</svg>
