<svg width="24" height="24" viewBox="0 0 24 24" fill="none" xmlns="http://www.w3.org/2000/svg">
<path fill-rule="evenodd" clip-rule="evenodd" d="M8.5 3C8.22386 3 8 3.22386 8 3.5V6.4993L8 6.5L8 6.5007V17.5C8 17.7761 8.22386 18 8.5 18H16.5H18.5C18.7761 18 19 17.7761 19 17.5V7H16.5C15.6716 7 15 6.32843 15 5.5V3H8.5ZM7 3.5V6H5.5C4.67157 6 4 6.67157 4 7.5V20.5C4 21.3284 4.67157 22 5.5 22H15.5C16.3284 22 17 21.3284 17 20.5V19H18.5C19.3284 19 20 18.3284 20 17.5V6.5C20 6.36739 19.9473 6.24021 19.8536 6.14645L15.8536 2.14645C15.7598 2.05268 15.6326 2 15.5 2H8.5C7.67157 2 7 2.67157 7 3.5ZM5.5 7H7V17.5C7 18.3284 7.67157 19 8.5 19H16V20.5C16 20.7761 15.7761 21 15.5 21H5.5C5.22386 21 5 20.7761 5 20.5L5 7.5C5 7.22386 5.22386 7 5.5 7ZM16 3.70711L18.2929 6H16.5C16.2239 6 16 5.77614 16 5.5V3.70711ZM10.5 8C10.2239 8 10 8.22386 10 8.5C10 8.77614 10.2239 9 10.5 9H14.5C14.7761 9 15 8.77614 15 8.5C15 8.22386 14.7761 8 14.5 8H10.5ZM10 11.5C10 11.2239 10.2239 11 10.5 11H16.5C16.7761 11 17 11.2239 17 11.5C17 11.7761 16.7761 12 16.5 12H10.5C10.2239 12 10 11.7761 10 11.5ZM10.5 14C10.2239 14 10 14.2239 10 14.5C10 14.7761 10.2239 15 10.5 15H16.5C16.7761 15 17 14.7761 17 14.5C17 14.2239 16.7761 14 16.5 14H10.5Z" fill="#2B2B2C"/>
</svg>
