<svg width="24" height="24" viewBox="0 0 24 24" fill="none" xmlns="http://www.w3.org/2000/svg">
<path fill-rule="evenodd" clip-rule="evenodd" d="M7 3.5V6H5.5C4.67157 6 4 6.67157 4 7.5V20.5C4 21.3284 4.67157 22 5.5 22H15.5C16.3284 22 17 21.3284 17 20.5V19H18.5C19.3284 19 20 18.3284 20 17.5V6.5C20 6.36739 19.9473 6.24021 19.8536 6.14645L15.8536 2.14645C15.7598 2.05268 15.6326 2 15.5 2H8.5C7.67157 2 7 2.67157 7 3.5ZM5.5 7H7V17.5C7 18.3284 7.67157 19 8.5 19H16V20.5C16 20.7761 15.7761 21 15.5 21H5.5C5.22386 21 5 20.7761 5 20.5L5 7.5C5 7.22386 5.22386 7 5.5 7ZM15.5318 3.23886C15.511 3.29442 15.5 3.35375 15.5 3.41421V6C15.5 6.27614 15.7239 6.5 16 6.5H18.5858C18.6462 6.5 18.7056 6.48905 18.7611 6.46824L15.5318 3.23886ZM10 8.5C10 8.22386 10.2239 8 10.5 8H13.5H14.5C14.7761 8 15 8.22386 15 8.5C15 8.77614 14.7761 9 14.5 9H13.5H10.5C10.2239 9 10 8.77614 10 8.5ZM10.5 11C10.2239 11 10 11.2239 10 11.5C10 11.7761 10.2239 12 10.5 12H16.5C16.7761 12 17 11.7761 17 11.5C17 11.2239 16.7761 11 16.5 11H10.5ZM10 14.5C10 14.2239 10.2239 14 10.5 14H16.5C16.7761 14 17 14.2239 17 14.5C17 14.7761 16.7761 15 16.5 15H10.5C10.2239 15 10 14.7761 10 14.5Z" fill="#2B2B2C"/>
</svg>
