<svg width="30" height="30" viewBox="0 0 30 30" fill="none" xmlns="http://www.w3.org/2000/svg">
<path fill-rule="evenodd" clip-rule="evenodd" d="M9 4.75V7L6.75001 6.99998C5.78351 6.99997 5 7.78348 5 8.74998V25.25C5 26.2165 5.7835 27 6.75 27L19.25 27C20.2165 27 21 26.2165 21 25.25V24H23.25C24.2165 24 25 23.2165 25 22.25V8.5C25 8.36739 24.9473 8.24021 24.8536 8.14645L19.8536 3.14645C19.7598 3.05268 19.6326 3 19.5 3H10.75C9.7835 3 9 3.7835 9 4.75ZM20 25.25V24H10.75C9.7835 24 9 23.2165 9 22.25V8L6.75 7.99998C6.33579 7.99998 6 8.33577 6 8.74998L6 25.25C6 25.6642 6.33579 26 6.75 26L19.25 26C19.6642 26 20 25.6642 20 25.25ZM19.5476 4.25474C19.5164 4.33807 19.5 4.42707 19.5 4.51777V7.75C19.5 8.16421 19.8358 8.5 20.25 8.5H23.4822C23.5729 8.5 23.6619 8.48357 23.7453 8.45237L19.5476 4.25474ZM12 10.5C12 10.2239 12.2239 10 12.5 10H18.5C18.7761 10 19 10.2239 19 10.5C19 10.7761 18.7761 11 18.5 11H12.5C12.2239 11 12 10.7761 12 10.5ZM12.5 14C12.2239 14 12 14.2239 12 14.5C12 14.7761 12.2239 15 12.5 15H21.5C21.7761 15 22 14.7761 22 14.5C22 14.2239 21.7761 14 21.5 14H12.5ZM12 18.5C12 18.2239 12.2239 18 12.5 18H21.5C21.7761 18 22 18.2239 22 18.5C22 18.7761 21.7761 19 21.5 19H12.5C12.2239 19 12 18.7761 12 18.5Z" fill="#2B2B2C"/>
</svg>
