<svg width="30" height="30" viewBox="0 0 30 30" fill="none" xmlns="http://www.w3.org/2000/svg">
<path fill-rule="evenodd" clip-rule="evenodd" d="M15 4C11.134 4 8 7.13401 8 11H9.5C9.77614 11 10 11.2239 10 11.5V18.5C10 18.7761 9.77614 19 9.5 19H7.375C6.06332 19 5 17.9367 5 16.625V13.375C5 12.1909 5.86651 11.2092 7 11.0294V11C7 6.58172 10.5817 3 15 3C19.4183 3 23 6.58172 23 11V11.0294C24.1335 11.2092 25 12.1909 25 13.375V16.625C25 17.8091 24.1335 18.7908 23 18.9706V21.5C23 21.6326 22.9473 21.7598 22.8536 21.8536L19.3536 25.3536C19.2598 25.4473 19.1326 25.5 19 25.5H17.5V26.5C17.5 26.7761 17.2761 27 17 27H14C13.7239 27 13.5 26.7761 13.5 26.5V23.5C13.5 23.2239 13.7239 23 14 23H17C17.2761 23 17.5 23.2239 17.5 23.5V24.5H18.7929L22 21.2929V19H20.5C20.3674 19 20.2402 18.9473 20.1464 18.8536C20.0527 18.7598 20 18.6326 20 18.5V11.5C20 11.2239 20.2239 11 20.5 11L22 11C22 7.13401 18.866 4 15 4ZM6 13.375C6 12.6156 6.61561 12 7.375 12H8H9V18H7.375C6.61561 18 6 17.3844 6 16.625V13.375ZM22.625 18H21V12H22.625C23.3844 12 24 12.6156 24 13.375V16.625C24 17.3844 23.3844 18 22.625 18ZM14.5 26V24H16.5V26H14.5Z" fill="#2B2B2C"/>
</svg>
