<svg width="18" height="18" viewBox="0 0 18 18" fill="none" xmlns="http://www.w3.org/2000/svg">
<path fill-rule="evenodd" clip-rule="evenodd" d="M9 3C6.96019 3 5.277 4.52684 5.03095 6.5H5.5C5.77614 6.5 6 6.72386 6 7V11C6 11.2761 5.77614 11.5 5.5 11.5H4.125C3.22754 11.5 2.5 10.7725 2.5 9.875V8.125C2.5 7.26133 3.17379 6.55502 4.02438 6.50306C4.27383 3.97493 6.40628 2 9 2C11.5937 2 13.7262 3.97493 13.9756 6.50306C14.8262 6.55502 15.5 7.26133 15.5 8.125V9.875C15.5 10.7304 14.8391 11.4314 14 11.4953V12.5C14 12.6326 13.9473 12.7598 13.8536 12.8536L11.8536 14.8536C11.7598 14.9473 11.6326 15 11.5 15H11V15.5C11 15.7761 10.7761 16 10.5 16H8.5C8.22386 16 8 15.7761 8 15.5V13.5C8 13.2239 8.22386 13 8.5 13H10.5C10.7761 13 11 13.2239 11 13.5V14H11.2929L13 12.2929V11.5H12.5C12.2239 11.5 12 11.2761 12 11V7C12 6.86739 12.0527 6.74021 12.1464 6.64645C12.2402 6.55268 12.3674 6.5 12.5 6.5H12.9691C12.723 4.52684 11.0398 3 9 3Z" fill="#2B2B2C"/>
</svg>
