<svg width="24" height="24" viewBox="0 0 24 24" fill="none" xmlns="http://www.w3.org/2000/svg">
<path fill-rule="evenodd" clip-rule="evenodd" d="M16.0858 3.20712C16.8668 2.42608 18.1332 2.42608 18.9142 3.20712L20.7929 5.0858C21.574 5.86685 21.5739 7.13318 20.7929 7.91423L8.85356 19.8536C8.78376 19.9234 8.69486 19.9709 8.59807 19.9903L3.59807 20.9903C3.43414 21.0231 3.26467 20.9718 3.14645 20.8536C3.02824 20.7354 2.97693 20.5659 3.00972 20.402L4.00972 15.402C4.02908 15.3052 4.07665 15.2163 4.14645 15.1465L16.0858 3.20712ZM18.2071 3.91423C17.8166 3.52371 17.1834 3.52371 16.7929 3.91423L16.2071 4.50001L19.5 7.79291L20.0858 7.20712C20.4763 6.8166 20.4763 6.18344 20.0858 5.79291L18.2071 3.91423ZM5.20712 15.5L15.5 5.20712L18.7929 8.50001L8.50001 18.7929L5.20712 15.5ZM4.80708 16.5142L4.13739 19.8626L7.48584 19.1929L4.80708 16.5142Z" fill="#2B2B2C"/>
</svg>
