<svg width="24" height="24" viewBox="0 0 24 24" fill="none" xmlns="http://www.w3.org/2000/svg">
<path fill-rule="evenodd" clip-rule="evenodd" d="M3.5 3C2.67157 3 2 3.67157 2 4.5V18.5C2 19.3284 2.67157 20 3.5 20H18.1615C18.5704 20 18.9381 19.751 19.09 19.3714L22.69 10.3714C22.9527 9.71453 22.4689 9 21.7615 9H19V6.5C19 5.67157 18.3284 5 17.5 5H10.118C9.92865 5 9.75552 4.893 9.67082 4.72361L9.22361 3.82918C8.96952 3.321 8.45012 3 7.88197 3H3.5ZM18.1615 19H3.53285L6.72812 10.3271C6.80053 10.1306 6.98781 10 7.19729 10H21.7615L18.1615 19Z" fill="#2B2B2C"/>
</svg>
