<svg width="30" height="30" viewBox="0 0 30 30" fill="none" xmlns="http://www.w3.org/2000/svg">
<path fill-rule="evenodd" clip-rule="evenodd" d="M8 4.5C8 4.22386 8.22386 4 8.5 4H20.5C20.7761 4 21 4.22386 21 4.5V14H8.60149C8.3922 14 8.18965 14.0348 8 14.0993V4.5ZM7 7V4.5C7 3.67157 7.67157 3 8.5 3H20.5C21.3284 3 22 3.67157 22 4.5V9H23.1333C24.1643 9 25 9.83574 25 10.8667V14H26.5519C27.3596 14 27.9299 14.7913 27.6745 15.5575L24.1301 26.1909C23.969 26.6741 23.5168 27 23.0075 27H5.86667C4.83574 27 4 26.1643 4 25.1333V8.86667C4 7.83574 4.83574 7 5.86667 7H7ZM21.5 15H8.60149C8.19378 15 7.84121 15.2842 7.7546 15.6826L5.52672 25.9308C5.6311 25.9753 5.74601 26 5.86667 26H23.0075C23.0864 26 23.1565 25.9495 23.1814 25.8746L26.7259 15.2413C26.7654 15.1226 26.6771 15 26.5519 15H21.5ZM10 6.5C10 6.22386 10.2239 6 10.5 6H18.5C18.7761 6 19 6.22386 19 6.5C19 6.77614 18.7761 7 18.5 7H10.5C10.2239 7 10 6.77614 10 6.5ZM10 9.5C10 9.22386 10.2239 9 10.5 9H18.5C18.7761 9 19 9.22386 19 9.5C19 9.77614 18.7761 10 18.5 10H10.5C10.2239 10 10 9.77614 10 9.5ZM10 12.5C10 12.2239 10.2239 12 10.5 12H15.5C15.7761 12 16 12.2239 16 12.5C16 12.7761 15.7761 13 15.5 13H10.5C10.2239 13 10 12.7761 10 12.5Z" fill="#2B2B2C"/>
</svg>
