<svg width="30" height="30" viewBox="0 0 30 30" fill="none" xmlns="http://www.w3.org/2000/svg">
<path fill-rule="evenodd" clip-rule="evenodd" d="M8.5 4C8.22386 4 8 4.22386 8 4.5V14.0993C8.18965 14.0348 8.3922 14 8.60149 14H21V4.5C21 4.22386 20.7761 4 20.5 4H8.5ZM7 8V14.9073C6.89775 15.0779 6.82156 15.2671 6.77742 15.4701L5 23.6463V8.86667C5 8.38802 5.38802 8 5.86667 8H7ZM7 4.5V7H5.86667C4.83574 7 4 7.83574 4 8.86667V25.1333C4 26.1643 4.83574 27 5.86667 27H23.0075C23.5168 27 23.969 26.6741 24.1301 26.1909L27.6745 15.5575C27.9299 14.7913 27.3596 14 26.5519 14H25V10.8667C25 9.83574 24.1643 9 23.1333 9H22V4.5C22 3.67157 21.3284 3 20.5 3H8.5C7.67157 3 7 3.67157 7 4.5ZM24 14H22V10H23.1333C23.612 10 24 10.388 24 10.8667V14ZM8.60149 15H21.5H26.5519C26.6771 15 26.7654 15.1226 26.7259 15.2413L23.1814 25.8746C23.1565 25.9495 23.0864 26 23.0075 26H5.86667C5.74601 26 5.6311 25.9753 5.52672 25.9308L7.7546 15.6826C7.84121 15.2842 8.19378 15 8.60149 15ZM10.5 6C10.2239 6 10 6.22386 10 6.5C10 6.77614 10.2239 7 10.5 7H18.5C18.7761 7 19 6.77614 19 6.5C19 6.22386 18.7761 6 18.5 6H10.5ZM10.5 9C10.2239 9 10 9.22386 10 9.5C10 9.77614 10.2239 10 10.5 10H18.5C18.7761 10 19 9.77614 19 9.5C19 9.22386 18.7761 9 18.5 9H10.5ZM10.5 12C10.2239 12 10 12.2239 10 12.5C10 12.7761 10.2239 13 10.5 13H15.5C15.7761 13 16 12.7761 16 12.5C16 12.2239 15.7761 12 15.5 12H10.5Z" fill="#2B2B2C"/>
</svg>
