<svg width="18" height="18" viewBox="0 0 18 18" fill="none" xmlns="http://www.w3.org/2000/svg">
<path fill-rule="evenodd" clip-rule="evenodd" d="M2.25 2.5C1.55965 2.5 1 3.05964 1 3.75V14C1 14.5523 1.44772 15 2 15H13.7527C14.1028 15 14.4191 14.7914 14.557 14.4697L17.2355 8.21968C17.483 7.64229 17.0595 7 16.4313 7L14 7V5.25001C14 4.55965 13.4404 4.00001 12.75 4.00001H7.90139C7.8178 4.00001 7.73974 3.95823 7.69338 3.88868L7.13867 3.05663C6.90684 2.70889 6.51656 2.50001 6.09861 2.50001L2.25 2.5ZM13.6703 14H2.41424L4.77416 8.15639C4.81232 8.06188 4.90404 8.00001 5.00597 8.00001L16.2417 8L13.6703 14Z" fill="#2B2B2C"/>
</svg>
