<svg width="24" height="24" viewBox="0 0 24 24" fill="none" xmlns="http://www.w3.org/2000/svg">
<path fill-rule="evenodd" clip-rule="evenodd" d="M2 4.5C2 3.67157 2.67157 3 3.5 3H7.88197C8.45012 3 8.96952 3.321 9.22361 3.82918L9.67082 4.72361C9.75552 4.893 9.92865 5 10.118 5H17.5C18.3284 5 19 5.67157 19 6.5V9H21.7615C22.4689 9 22.9527 9.71453 22.69 10.3714L19.09 19.3714C18.9381 19.751 18.5704 20 18.1615 20H3.5C2.67157 20 2 19.3284 2 18.5V4.5ZM18 9V6.5C18 6.22386 17.7761 6 17.5 6H10.118C9.54988 6 9.03048 5.679 8.77639 5.17082L8.32918 4.27639C8.24448 4.107 8.07135 4 7.88197 4H3.5C3.22386 4 3 4.22386 3 4.5V17.5537L5.78977 9.98144C6.00703 9.39175 6.56885 9 7.19729 9H18ZM3.53285 19H18.1615L21.7615 10H7.19729C6.98781 10 6.80053 10.1306 6.72812 10.3271L3.53285 19Z" fill="#2B2B2C"/>
</svg>
