<svg width="18" height="18" viewBox="0 0 18 18" fill="none" xmlns="http://www.w3.org/2000/svg">
<path fill-rule="evenodd" clip-rule="evenodd" d="M0.999992 3.75C0.999992 3.05964 1.55964 2.5 2.24999 2.5L6.09861 2.50001C6.51655 2.50001 6.90684 2.70889 7.13867 3.05663L7.69337 3.88868C7.73973 3.95823 7.81779 4.00001 7.90138 4.00001H12.75C13.4403 4.00001 14 4.55965 14 5.25001V7L16.4313 7C17.0595 7 17.483 7.64229 17.2355 8.21968L14.557 14.4697C14.4191 14.7914 14.1027 15 13.7527 15H1.99999C1.44771 15 0.999992 14.5523 0.999992 14V3.75ZM13 7V5.25001C13 5.11194 12.8881 5.00001 12.75 5.00001H7.90138C7.48344 5.00001 7.09315 4.79113 6.86132 4.44338L6.30662 3.61133C6.26025 3.54178 6.18219 3.50001 6.09861 3.50001L2.24999 3.5C2.11192 3.5 1.99999 3.61193 1.99999 3.75V12.3552L3.84691 7.78193C4.03774 7.30939 4.49634 7.00001 5.00596 7.00001L13 7ZM2.41423 14H13.6703L16.2417 8L5.00596 8.00001C4.90403 8.00001 4.81232 8.06188 4.77415 8.15639L2.41423 14Z" fill="#2B2B2C"/>
</svg>
