<svg width="30" height="30" viewBox="0 0 30 30" fill="none" xmlns="http://www.w3.org/2000/svg">
<path fill-rule="evenodd" clip-rule="evenodd" d="M8.56348 8.61611C7.37334 10.3353 7 12.3556 7 13.5H6C6 12.1951 6.41316 9.96541 7.74127 8.04692C9.08841 6.10094 11.3632 4.5 15 4.5C18.6368 4.5 20.9116 6.10094 22.2587 8.04692C23.5868 9.96541 24 12.1951 24 13.5H23C23 12.3556 22.6267 10.3353 21.4365 8.61611C20.2654 6.92441 18.2902 5.5 15 5.5C11.7098 5.5 9.73459 6.92441 8.56348 8.61611Z" fill="#2B2B2C"/>
<path fill-rule="evenodd" clip-rule="evenodd" d="M9 14.5H6C4.89543 14.5 4 15.3954 4 16.5V22.5C4 23.6046 4.89543 24.5 6 24.5H9V14.5ZM6 13.5C4.34315 13.5 3 14.8431 3 16.5V22.5C3 24.1568 4.34315 25.5 6 25.5H10V13.5L6 13.5Z" fill="#2B2B2C"/>
<path fill-rule="evenodd" clip-rule="evenodd" d="M21 14.5H24C25.1046 14.5 26 15.3954 26 16.5V22.5C26 23.6045 25.1046 24.5 24 24.5H21V14.5ZM24 13.5C25.6569 13.5 27 14.8431 27 16.5V22.5C27 24.1568 25.6569 25.5 24 25.5H20V13.5L24 13.5Z" fill="#2B2B2C"/>
</svg>
