<svg width="24" height="24" viewBox="0 0 24 24" fill="none" xmlns="http://www.w3.org/2000/svg">
<path fill-rule="evenodd" clip-rule="evenodd" d="M7.57749 7.63625C6.75768 8.82048 6.5 10.2158 6.5 11H5.5C5.5 10.0553 5.7975 8.45061 6.75528 7.06706C7.73209 5.65604 9.38187 4.5 12 4.5C14.6181 4.5 16.2679 5.65604 17.2447 7.06706C18.2025 8.45061 18.5 10.0553 18.5 11H17.5C17.5 10.2158 17.2423 8.82048 16.4225 7.63625C15.6217 6.4795 14.2715 5.5 12 5.5C9.72848 5.5 8.37827 6.4795 7.57749 7.63625Z" fill="#2B2B2C"/>
<path fill-rule="evenodd" clip-rule="evenodd" d="M7 12H5.5C4.67157 12 4 12.6716 4 13.5V17C4 17.8284 4.67157 18.5 5.5 18.5H7V12ZM5.5 11C4.11929 11 3 12.1193 3 13.5V17C3 18.3807 4.11929 19.5 5.5 19.5H8V11L5.5 11Z" fill="#2B2B2C"/>
<path fill-rule="evenodd" clip-rule="evenodd" d="M17 12H18.5C19.3284 12 20 12.6716 20 13.5V17C20 17.8284 19.3284 18.5 18.5 18.5H17V12ZM18.5 11C19.8807 11 21 12.1193 21 13.5V17C21 18.3807 19.8807 19.5 18.5 19.5H16V11L18.5 11Z" fill="#2B2B2C"/>
</svg>
