<svg width="18" height="18" viewBox="0 0 18 18" fill="none" xmlns="http://www.w3.org/2000/svg">
<path fill-rule="evenodd" clip-rule="evenodd" d="M5.39516 5.422C4.85317 6.28322 4.6063 7.26999 4.52857 8H6V14.5H4C2.89543 14.5 2 13.6046 2 12.5V10C2 9.06129 2.64671 8.27363 3.51889 8.05825C3.58974 7.18512 3.87111 5.96622 4.54881 4.88937C5.36793 3.58782 6.76761 2.5 9 2.5C11.2324 2.5 12.6321 3.58782 13.4512 4.88937C14.1289 5.96622 14.4103 7.18512 14.4811 8.05825C15.3533 8.27363 16 9.06129 16 10V12.5C16 13.6046 15.1046 14.5 14 14.5H12V8H13.4714C13.3937 7.26999 13.1468 6.28322 12.6048 5.422C11.9426 4.36976 10.8423 3.5 9 3.5C7.15769 3.5 6.05737 4.36976 5.39516 5.422Z" fill="#2B2B2C"/>
</svg>
