<svg width="30" height="30" viewBox="0 0 30 30" fill="none" xmlns="http://www.w3.org/2000/svg">
<path fill-rule="evenodd" clip-rule="evenodd" d="M9.14486 8.79449C8.12852 10.4244 7.875 12.3679 7.875 13.5H10V25.5H6C4.34315 25.5 3 24.1569 3 22.5V16.5C3 14.8431 4.34315 13.5 6 13.5H6.125C6.125 12.1828 6.40798 9.87627 7.65989 7.86854C8.94922 5.8008 11.2259 4.125 15 4.125C18.7741 4.125 21.0508 5.8008 22.3401 7.86854C23.592 9.87626 23.875 12.1827 23.875 13.5H24C25.6569 13.5 27 14.8431 27 16.5V22.5C27 24.1568 25.6569 25.5 24 25.5H20V13.5H22.125C22.125 12.3679 21.8715 10.4244 20.8551 8.79449C19.8762 7.22455 18.1529 5.875 15 5.875C11.8471 5.875 10.1238 7.22455 9.14486 8.79449Z" fill="#2B2B2C"/>
</svg>
