<svg width="24" height="24" viewBox="0 0 24 24" fill="none" xmlns="http://www.w3.org/2000/svg">
<path fill-rule="evenodd" clip-rule="evenodd" d="M7.80071 8.00182C7.15292 9.02867 6.86512 10.195 6.77919 11H8V19.5H5.5C4.11929 19.5 3 18.3807 3 17V13.5C3 12.1962 3.998 11.1256 5.27173 11.0103C5.35627 9.99624 5.70063 8.51945 6.53206 7.20149C7.53574 5.61049 9.25821 4.25 12 4.25C14.7418 4.25 16.4643 5.61049 17.4679 7.20149C18.2994 8.51945 18.6437 9.99625 18.7283 11.0103C20.002 11.1256 21 12.1962 21 13.5V17C21 18.3807 19.8807 19.5 18.5 19.5H16V11H17.2208C17.1349 10.195 16.8471 9.02867 16.1993 8.00182C15.4254 6.77505 14.1479 5.75 12 5.75C9.85215 5.75 8.57461 6.77505 7.80071 8.00182Z" fill="#2B2B2C"/>
</svg>
