<svg width="18" height="18" viewBox="0 0 18 18" fill="none" xmlns="http://www.w3.org/2000/svg">
<path fill-rule="evenodd" clip-rule="evenodd" d="M2.25 3C1.55964 3 1 3.55964 1 4.25V13.75C1 14.4404 1.55964 15 2.25 15H15.75C16.4404 15 17 14.4404 17 13.75V4.25C17 3.55964 16.4404 3 15.75 3H2.25ZM5.5 12C5.5 11.7239 5.72386 11.5 6 11.5H12C12.2761 11.5 12.5 11.7239 12.5 12C12.5 12.2761 12.2761 12.5 12 12.5H6C5.72386 12.5 5.5 12.2761 5.5 12ZM3.5 5C3.22386 5 3 5.22386 3 5.5V6C3 6.27614 3.22386 6.5 3.5 6.5H4C4.27614 6.5 4.5 6.27614 4.5 6V5.5C4.5 5.22386 4.27614 5 4 5H3.5ZM3.5 8C3.22386 8 3 8.22386 3 8.5V9C3 9.27614 3.22386 9.5 3.5 9.5H4C4.27614 9.5 4.5 9.27614 4.5 9V8.75V8.5C4.5 8.22386 4.27614 8 4 8H3.5ZM6.5 5.5C6.5 5.22386 6.72386 5 7 5H7.5C7.77614 5 8 5.22386 8 5.5V6C8 6.27614 7.77614 6.5 7.5 6.5H7C6.72386 6.5 6.5 6.27614 6.5 6V5.5ZM6.5 8.5C6.5 8.22386 6.72386 8 7 8H7.5C7.77614 8 8 8.22386 8 8.5V8.75V9C8 9.27614 7.77614 9.5 7.5 9.5H7C6.72386 9.5 6.5 9.27614 6.5 9V8.5ZM14 5C13.7239 5 13.5 5.22386 13.5 5.5V6C13.5 6.27614 13.7239 6.5 14 6.5H14.5C14.7761 6.5 15 6.27614 15 6V5.5C15 5.22386 14.7761 5 14.5 5H14ZM14 8C13.7239 8 13.5 8.22386 13.5 8.5V9C13.5 9.27614 13.7239 9.5 14 9.5H14.5C14.7761 9.5 15 9.27614 15 9V8.75V8.5C15 8.22386 14.7761 8 14.5 8H14ZM10 8.5C10 8.22386 10.2239 8 10.5 8H11C11.2761 8 11.5 8.22386 11.5 8.5V8.75V9C11.5 9.27614 11.2761 9.5 11 9.5H10.5C10.2239 9.5 10 9.27614 10 9V8.5ZM10.5 5C10.2239 5 10 5.22386 10 5.5V6C10 6.27614 10.2239 6.5 10.5 6.5H11C11.2761 6.5 11.5 6.27614 11.5 6V5.5C11.5 5.22386 11.2761 5 11 5H10.5Z" fill="#2B2B2C"/>
</svg>
