<svg width="24" height="24" viewBox="0 0 24 24" fill="none" xmlns="http://www.w3.org/2000/svg">
<path fill-rule="evenodd" clip-rule="evenodd" d="M3 5C2.17157 5 1.5 5.67157 1.5 6.5V17.5C1.5 18.3284 2.17157 19 3 19H21C21.8284 19 22.5 18.3284 22.5 17.5V6.5C22.5 5.67157 21.8284 5 21 5H3ZM2.5 6.5C2.5 6.22386 2.72386 6 3 6H21C21.2761 6 21.5 6.22386 21.5 6.5V17.5C21.5 17.7761 21.2761 18 21 18H3C2.72386 18 2.5 17.7761 2.5 17.5V6.5ZM5 8.02612C4.72386 8.02612 4.5 8.24998 4.5 8.52612V9.02612C4.5 9.30227 4.72386 9.52612 5 9.52612H5.5C5.77614 9.52612 6 9.30227 6 9.02612V8.52612C6 8.24998 5.77614 8.02612 5.5 8.02612H5ZM4.5 12.0261C4.5 11.75 4.72386 11.5261 5 11.5261H5.5C5.77614 11.5261 6 11.75 6 12.0261V12.5261C6 12.8023 5.77614 13.0261 5.5 13.0261H5C4.72386 13.0261 4.5 12.8023 4.5 12.5261V12.0261ZM8.5 8.02612C8.22386 8.02612 8 8.24998 8 8.52612V9.02612C8 9.30227 8.22386 9.52612 8.5 9.52612H9C9.27614 9.52612 9.5 9.30227 9.5 9.02612V8.52612C9.5 8.24998 9.27614 8.02612 9 8.02612H8.5ZM8 12.0261C8 11.75 8.22386 11.5261 8.5 11.5261H9C9.27614 11.5261 9.5 11.75 9.5 12.0261V12.5261C9.5 12.8023 9.27614 13.0261 9 13.0261H8.5C8.22386 13.0261 8 12.8023 8 12.5261V12.0261ZM11.75 11.5261C11.4739 11.5261 11.25 11.75 11.25 12.0261V12.5261C11.25 12.8023 11.4739 13.0261 11.75 13.0261H12.25C12.5261 13.0261 12.75 12.8023 12.75 12.5261V12.0261C12.75 11.75 12.5261 11.5261 12.25 11.5261H11.75ZM11.25 8.52612C11.25 8.24998 11.4739 8.02612 11.75 8.02612H12.25C12.5261 8.02612 12.75 8.24998 12.75 8.52612V9.02612C12.75 9.30227 12.5261 9.52612 12.25 9.52612H11.75C11.4739 9.52612 11.25 9.30227 11.25 9.02612V8.52612ZM15 8.02612C14.7239 8.02612 14.5 8.24998 14.5 8.52612V9.02612C14.5 9.30227 14.7239 9.52612 15 9.52612H15.5C15.7761 9.52612 16 9.30227 16 9.02612V8.52612C16 8.24998 15.7761 8.02612 15.5 8.02612H15ZM14.5 12.0261C14.5 11.75 14.7239 11.5261 15 11.5261H15.5C15.7761 11.5261 16 11.75 16 12.0261V12.5261C16 12.8023 15.7761 13.0261 15.5 13.0261H15C14.7239 13.0261 14.5 12.8023 14.5 12.5261V12.0261ZM18.5 8.02612C18.2239 8.02612 18 8.24998 18 8.52612V9.02612C18 9.30227 18.2239 9.52612 18.5 9.52612H19C19.2761 9.52612 19.5 9.30227 19.5 9.02612V8.52612C19.5 8.24998 19.2761 8.02612 19 8.02612H18.5ZM18 12.0261C18 11.75 18.2239 11.5261 18.5 11.5261H19C19.2761 11.5261 19.5 11.75 19.5 12.0261V12.5261C19.5 12.8023 19.2761 13.0261 19 13.0261H18.5C18.2239 13.0261 18 12.8023 18 12.5261V12.0261ZM8 15C7.72386 15 7.5 15.2239 7.5 15.5C7.5 15.7761 7.72386 16 8 16H16C16.2761 16 16.5 15.7761 16.5 15.5C16.5 15.2239 16.2761 15 16 15H8Z" fill="#2B2B2C"/>
</svg>
