<svg width="24" height="24" viewBox="0 0 24 24" fill="none" xmlns="http://www.w3.org/2000/svg">
<path fill-rule="evenodd" clip-rule="evenodd" d="M1.5 6.5C1.5 5.67157 2.17157 5 3 5H21C21.8284 5 22.5 5.67157 22.5 6.5V17.5C22.5 18.3284 21.8284 19 21 19H3C2.17157 19 1.5 18.3284 1.5 17.5V6.5ZM5 8.02609C4.72386 8.02609 4.5 8.24995 4.5 8.52609V9.02609C4.5 9.30223 4.72386 9.52609 5 9.52609H5.5C5.77614 9.52609 6 9.30224 6 9.02609V8.52609C6 8.24995 5.77614 8.02609 5.5 8.02609H5ZM4.5 12.0261C4.5 11.7499 4.72386 11.5261 5 11.5261H5.5C5.77614 11.5261 6 11.75 6 12.0261V12.5261C6 12.8022 5.77614 13.0261 5.5 13.0261H5C4.72386 13.0261 4.5 12.8022 4.5 12.5261V12.0261ZM8.5 8.02609C8.22386 8.02609 8 8.24995 8 8.52609V9.02609C8 9.30223 8.22386 9.52609 8.5 9.52609H9C9.27614 9.52609 9.5 9.30224 9.5 9.02609V8.52609C9.5 8.24995 9.27614 8.02609 9 8.02609H8.5ZM8 12.0261C8 11.7499 8.22386 11.5261 8.5 11.5261H9C9.27614 11.5261 9.5 11.75 9.5 12.0261V12.5261C9.5 12.8022 9.27614 13.0261 9 13.0261H8.5C8.22386 13.0261 8 12.8022 8 12.5261V12.0261ZM11.75 11.5261C11.4739 11.5261 11.25 11.7499 11.25 12.0261V12.5261C11.25 12.8022 11.4739 13.0261 11.75 13.0261H12.25C12.5261 13.0261 12.75 12.8022 12.75 12.5261V12.0261C12.75 11.75 12.5261 11.5261 12.25 11.5261H11.75ZM11.25 8.52609C11.25 8.24995 11.4739 8.02609 11.75 8.02609H12.25C12.5261 8.02609 12.75 8.24995 12.75 8.52609V9.02609C12.75 9.30224 12.5261 9.52609 12.25 9.52609H11.75C11.4739 9.52609 11.25 9.30223 11.25 9.02609V8.52609ZM15 8.02609C14.7239 8.02609 14.5 8.24995 14.5 8.52609V9.02609C14.5 9.30223 14.7239 9.52609 15 9.52609H15.5C15.7761 9.52609 16 9.30224 16 9.02609V8.52609C16 8.24995 15.7761 8.02609 15.5 8.02609H15ZM14.5 12.0261C14.5 11.7499 14.7239 11.5261 15 11.5261H15.5C15.7761 11.5261 16 11.75 16 12.0261V12.5261C16 12.8022 15.7761 13.0261 15.5 13.0261H15C14.7239 13.0261 14.5 12.8022 14.5 12.5261V12.0261ZM18.5 8.02609C18.2239 8.02609 18 8.24995 18 8.52609V9.02609C18 9.30223 18.2239 9.52609 18.5 9.52609H19C19.2761 9.52609 19.5 9.30224 19.5 9.02609V8.52609C19.5 8.24995 19.2761 8.02609 19 8.02609H18.5ZM18 12.0261C18 11.7499 18.2239 11.5261 18.5 11.5261H19C19.2761 11.5261 19.5 11.75 19.5 12.0261V12.5261C19.5 12.8022 19.2761 13.0261 19 13.0261H18.5C18.2239 13.0261 18 12.8022 18 12.5261V12.0261ZM8 15C7.72386 15 7.5 15.2239 7.5 15.5C7.5 15.7761 7.72386 16 8 16H16C16.2761 16 16.5 15.7761 16.5 15.5C16.5 15.2239 16.2761 15 16 15H8Z" fill="#2B2B2C"/>
</svg>
