<svg width="24" height="24" viewBox="0 0 24 24" fill="none" xmlns="http://www.w3.org/2000/svg">
<path fill-rule="evenodd" clip-rule="evenodd" d="M12.3725 3.00757C12.2489 3.00254 12.1248 3 12 3C11.8753 3 11.7511 3.00254 11.6276 3.00757L11.395 3.30663L11.3949 3.3067L11.3946 3.30711L11.392 3.31049L11.3796 3.32688C11.3681 3.34205 11.3505 3.36567 11.3274 3.39744C11.2812 3.46101 11.2128 3.55718 11.1275 3.68377C10.9568 3.93704 10.7184 4.31152 10.4527 4.7897C10.1345 5.36252 9.77852 6.08171 9.45301 6.91755C10.9869 7.20159 12.8026 7.31526 14.7214 6.97004C14.2486 5.76641 13.5624 4.53747 12.6053 3.30697L12.3725 3.00757ZM15.0547 7.92537C12.9262 8.33283 10.9199 8.20795 9.25294 7.89749C9.20646 7.88884 9.16023 7.88003 9.11426 7.87109C9.02324 8.1544 8.93748 8.44782 8.85902 8.75048C8.63861 9.60061 8.47551 10.5233 8.41471 11.5H15.6103C15.5958 10.3603 15.4321 9.1599 15.0547 7.92537ZM16.6099 11.5C16.5958 10.2888 16.4254 9.01285 16.0322 7.70165C17.0434 7.43152 18.0742 7.03325 19.1022 6.47127C20.1958 7.87408 20.8828 9.60933 20.9864 11.5H16.6099ZM15.5853 12.5H8.38974C8.40393 13.616 8.56121 14.7903 8.92212 15.9978C11.0603 15.5698 13.0632 15.6935 14.7186 16.0088C14.7835 16.0212 14.848 16.0339 14.9119 16.0468C14.9932 15.789 15.0701 15.523 15.141 15.2495C15.3614 14.3994 15.5245 13.4767 15.5853 12.5ZM15.8884 16.2746C15.9664 16.0237 16.0403 15.7655 16.109 15.5005C16.3487 14.5759 16.5248 13.5683 16.5866 12.5H20.9864C20.8836 14.3774 20.2054 16.1015 19.1252 17.4991C19.0702 17.47 18.9973 17.4324 18.9075 17.3879C18.6927 17.2815 18.3809 17.1358 17.9858 16.9746C17.437 16.7506 16.7254 16.4957 15.8884 16.2746ZM14.5788 17.0003C14.563 16.9972 14.5473 16.9942 14.5315 16.9912C13.0066 16.7007 11.1866 16.5856 9.24873 16.9531C9.72236 18.1813 10.4173 19.4363 11.3947 20.693L11.6276 20.9924C11.7511 20.9975 11.8753 21 12 21C12.1248 21 12.2489 20.9975 12.3725 20.9924L12.6051 20.6934L12.6051 20.6933L12.6054 20.6929L12.608 20.6895L12.6205 20.6731C12.6319 20.6579 12.6495 20.6343 12.6726 20.6026C12.7189 20.539 12.7872 20.4428 12.8725 20.3162C13.0433 20.063 13.2817 19.6885 13.5473 19.2103C13.8759 18.6188 14.2448 17.8712 14.5788 17.0003ZM13.7294 20.834C13.9114 20.5618 14.154 20.1774 14.4215 19.6959C14.7853 19.0411 15.1966 18.204 15.5637 17.2233C16.3824 17.4357 17.0771 17.6837 17.6079 17.9004C17.9698 18.0481 18.2546 18.1808 18.4497 18.2771C17.1971 19.5639 15.5627 20.4772 13.7294 20.834ZM15.7098 6.75231C15.262 5.57374 14.6255 4.37296 13.7536 3.17074C15.5657 3.52861 17.1823 4.4304 18.4263 5.69893C17.517 6.17612 16.6057 6.5179 15.7098 6.75231ZM5.56977 5.70302C6.81982 4.42668 8.44684 3.52095 10.2707 3.16599C10.0886 3.43823 9.84601 3.82264 9.57856 4.30405C9.22386 4.94252 8.82399 5.75428 8.46396 6.70352C7.5862 6.48612 6.84094 6.22813 6.27491 6.00366C5.99286 5.8918 5.75586 5.78849 5.56977 5.70302ZM5.90626 6.93323C6.48716 7.1636 7.24441 7.42669 8.13459 7.65192C8.04817 7.92582 7.96645 8.20857 7.89102 8.49952C7.65131 9.42411 7.47528 10.4317 7.41338 11.5H3.01367C3.11684 9.6159 3.79951 7.88613 4.8865 6.48589L4.95853 6.52077C5.17954 6.62685 5.50035 6.77225 5.90626 6.93323ZM3.01367 12.5H7.3901C7.40402 13.6901 7.56872 14.9428 7.94752 16.23C6.93805 16.5098 5.90627 16.9201 4.87343 17.4972C3.79404 16.1 3.11643 14.3765 3.01367 12.5ZM5.5436 18.2701C6.45773 17.7779 7.37029 17.4241 8.26475 17.1801C8.71382 18.3804 9.35786 19.6041 10.2464 20.8293C8.41966 20.4685 6.79155 19.5549 5.5436 18.2701Z" fill="#2B2B2C"/>
</svg>
