<svg width="24" height="24" viewBox="0 0 24 24" fill="none" xmlns="http://www.w3.org/2000/svg">
<path fill-rule="evenodd" clip-rule="evenodd" d="M19.9846 12.5C19.8835 14.1392 19.2888 15.6448 18.3473 16.8701C18.1522 16.7808 17.8876 16.6663 17.5622 16.5412C17.0145 16.3305 16.2928 16.0888 15.4399 15.886C15.4984 15.7013 15.5543 15.5124 15.6072 15.3198C15.8459 14.4503 16.0215 13.5034 16.085 12.5H19.9846ZM15.0834 12.5C15.0212 13.4074 14.8598 14.2647 14.6429 15.0551C14.584 15.2694 14.5211 15.4787 14.4549 15.6828C12.9946 15.4273 11.2488 15.3252 9.38314 15.6423C9.0528 14.5584 8.90608 13.5041 8.89008 12.5L15.0834 12.5ZM16.1095 11.5H19.9846C19.8838 9.86475 19.2917 8.36242 18.3541 7.13876C17.4273 7.60078 16.5033 7.92937 15.6 8.15299C15.9421 9.30634 16.094 10.4296 16.1095 11.5ZM14.6169 8.3578C14.9472 9.44169 15.0939 10.4959 15.1099 11.5L8.91662 11.5C8.9788 10.5926 9.14015 9.73534 9.35714 8.94488C9.41595 8.73064 9.47887 8.52132 9.54505 8.31724C11.0054 8.57277 12.7512 8.67491 14.6169 8.3578ZM15.2762 7.20247C16.0631 7.01341 16.8661 6.73921 17.672 6.35834C16.5901 5.27068 15.1975 4.49242 13.6384 4.16793C14.3567 5.18739 14.8914 6.20366 15.2762 7.20247ZM12.2653 4.00432C13.1776 5.14634 13.8304 6.28521 14.2786 7.39968C12.6839 7.64862 11.1823 7.57238 9.89138 7.36163C10.2313 6.51359 10.6099 5.78673 10.9466 5.21446C11.2116 4.76384 11.4495 4.41094 11.6198 4.17232C11.666 4.1077 11.7071 4.05151 11.7424 4.00407C11.828 4.00136 11.9138 4 12 4C12.0888 4 12.1772 4.00145 12.2653 4.00432ZM14.1086 16.6385C12.8177 16.4277 11.3161 16.3515 9.7214 16.6004C10.1696 17.7148 10.8224 18.8537 11.7347 19.9957C11.8228 19.9986 11.9112 20 12 20C12.0862 20 12.172 19.9986 12.2576 19.9959C12.2929 19.9485 12.334 19.8923 12.3802 19.8277C12.5505 19.5891 12.7884 19.2362 13.0534 18.7855C13.39 18.2133 13.7687 17.4865 14.1086 16.6385ZM13.5756 19.8449C15.1523 19.53 16.5617 18.7516 17.6559 17.6578C17.5243 17.6017 17.3729 17.5398 17.2033 17.4745C16.6681 17.2687 15.9533 17.0304 15.106 16.8349C14.7266 17.8142 14.295 18.6472 13.9154 19.2926C13.7961 19.4953 13.6818 19.6798 13.5756 19.8449ZM5.6459 16.8613C6.57271 16.3993 7.49667 16.0707 8.40007 15.8471C8.05789 14.6937 7.90599 13.5704 7.89046 12.5H4.01537C4.11621 14.1353 4.70831 15.6376 5.6459 16.8613ZM8.39282 8.68016C8.44568 8.48758 8.50162 8.2988 8.56009 8.11404C7.70714 7.91126 6.98542 7.66956 6.4377 7.4589C6.11237 7.33378 5.84772 7.21932 5.6526 7.12999C4.71113 8.35523 4.11645 9.86084 4.01537 11.5H7.91501C7.97846 10.4966 8.15411 9.54973 8.39282 8.68016ZM10.0846 4.70744C10.2039 4.50474 10.3182 4.32021 10.4244 4.15511C8.84767 4.47004 7.43819 5.24844 6.34403 6.34226C6.47561 6.39839 6.627 6.4603 6.79667 6.52556C7.33181 6.73138 8.04663 6.96966 8.89396 7.16518C9.27341 6.18586 9.70499 5.35285 10.0846 4.70744ZM10.3616 19.8321C9.64331 18.8126 9.10862 17.7964 8.72381 16.7976C7.93692 16.9866 7.1339 17.2608 6.32802 17.6417C7.4099 18.7293 8.80253 19.5076 10.3616 19.8321ZM21 12C21 16.9706 16.9706 21 12 21C7.02944 21 3 16.9706 3 12C3 7.02944 7.02944 3 12 3C16.9706 3 21 7.02944 21 12Z" fill="#2B2B2C"/>
</svg>
