<svg width="18" height="18" viewBox="0 0 18 18" fill="none" xmlns="http://www.w3.org/2000/svg">
<path fill-rule="evenodd" clip-rule="evenodd" d="M9.19777 16.4974C9.20957 16.4737 9.22204 16.4484 9.23513 16.4215C9.3447 16.1968 9.49796 15.8639 9.66886 15.4386C9.89906 14.8657 10.1605 14.1266 10.3905 13.2592C9.50396 13.1584 8.52795 13.1284 7.50131 13.2274C7.78466 14.3014 8.2032 15.3986 8.79405 16.4972C8.86248 16.4991 8.93113 16.5 9 16.5C9.06613 16.5 9.13205 16.4991 9.19777 16.4974ZM10.6224 12.2796C9.61035 12.1569 8.47717 12.1181 7.27741 12.245C7.09551 11.301 7.01223 10.3808 7.0012 9.5H10.9809C10.9399 10.3539 10.836 11.1618 10.6961 11.9079C10.6725 12.0336 10.6479 12.1575 10.6224 12.2796ZM11.3857 13.4061C11.1369 14.3666 10.8493 15.1828 10.5968 15.8114C10.5124 16.0213 10.4319 16.2105 10.3579 16.3774C11.9063 16.0942 13.2886 15.3356 14.3479 14.2583C14.2 14.1977 14.0164 14.1261 13.8006 14.049C13.2091 13.8378 12.3792 13.5864 11.3857 13.4061ZM11.6123 12.431C11.6352 12.3195 11.6575 12.2065 11.6789 12.0921C11.8288 11.2929 11.94 10.4227 11.9818 9.5H16.4836C16.3863 10.9788 15.8603 12.3404 15.0289 13.462C14.999 13.4486 14.9657 13.434 14.9293 13.4182C14.7444 13.3381 14.4763 13.2285 14.1369 13.1073C13.514 12.8848 12.6479 12.6221 11.6123 12.431ZM11.9987 8.5H16.4836C16.3864 7.02273 15.8614 5.66229 15.0314 4.54136C13.9102 5.07918 12.7921 5.41823 11.7137 5.61334C11.9021 6.60749 11.9879 7.57522 11.9987 8.5ZM10.7226 5.75501C9.52283 5.88188 8.38965 5.8431 7.37758 5.72039C7.35211 5.84245 7.32751 5.9664 7.30394 6.09214C7.16405 6.83823 7.06013 7.64613 7.01913 8.5H10.9988C10.9878 7.6192 10.9045 6.69903 10.7226 5.75501ZM10.4987 4.77256C9.47205 4.87161 8.49604 4.84157 7.60955 4.7408C7.83946 3.87336 8.10094 3.13434 8.33114 2.56141C8.50204 2.13606 8.6553 1.80324 8.76487 1.57848C8.77797 1.55161 8.79043 1.5263 8.80223 1.50256C8.86795 1.50086 8.93388 1.5 9 1.5C9.06887 1.5 9.13752 1.50093 9.20595 1.50277C9.7968 2.60138 10.2153 3.69859 10.4987 4.77256ZM11.4966 4.63623C12.4295 4.47045 13.3923 4.18916 14.358 3.75199C13.3056 2.6776 11.9325 1.91843 10.3937 1.62925C10.8854 2.6414 11.2444 3.64888 11.4966 4.63623ZM3.65209 3.74169C4.71139 2.66445 6.09367 1.9058 7.64206 1.62262C7.56807 1.78952 7.48756 1.97871 7.40324 2.18859C7.15066 2.81722 6.86308 3.63341 6.6143 4.59387C5.62085 4.41358 4.79089 4.16224 4.19942 3.951C3.98362 3.87393 3.79995 3.80234 3.65209 3.74169ZM3.86308 4.89275C4.48601 5.11522 5.35208 5.37788 6.38771 5.56901C6.36476 5.6805 6.34251 5.79347 6.32106 5.90786C6.17121 6.7071 6.05999 7.57727 6.01819 8.5H1.5164C1.61374 7.02125 2.13965 5.65956 2.97111 4.53799C3.00103 4.55137 3.03427 4.56603 3.07073 4.58182C3.25561 4.66194 3.52366 4.77152 3.86308 4.89275ZM1.5164 9.5H6.00127C6.01214 10.4248 6.0979 11.3925 6.28625 12.3867C5.20787 12.5818 4.08979 12.9208 2.9686 13.4586C2.1386 12.3377 1.61364 10.9773 1.5164 9.5ZM3.64197 14.248C4.60771 13.8108 5.57047 13.5295 6.50335 13.3638C6.75563 14.3511 7.11465 15.3586 7.60631 16.3707C6.06747 16.0816 4.69444 15.3224 3.64197 14.248Z" fill="#2B2B2C"/>
</svg>
