<svg width="30" height="30" viewBox="0 0 30 30" fill="none" xmlns="http://www.w3.org/2000/svg">
<path fill-rule="evenodd" clip-rule="evenodd" d="M15.2501 25.9972C15.167 25.9991 15.0836 26 15 26C14.9141 26 14.8284 25.999 14.743 25.9971C13.5085 24.3825 12.6354 22.7709 12.0448 21.1949C14.1127 20.8838 16.0595 20.9788 17.7373 21.2442C17.2862 22.4473 16.7786 23.4755 16.3292 24.2794C15.9855 24.8943 15.6768 25.3762 15.4554 25.7027C15.3744 25.8221 15.3051 25.9206 15.2501 25.9972ZM16.5266 25.8949C18.9763 25.5548 21.168 24.408 22.8247 22.7314C22.5892 22.6253 22.2645 22.4871 21.8622 22.335C21.0817 22.0398 20.0117 21.6933 18.7359 21.4273C18.2486 22.7589 17.6917 23.8915 17.2021 24.7674C16.9543 25.2106 16.7233 25.5889 16.5266 25.8949ZM23.5238 21.9536C24.9733 20.1789 25.8795 17.9431 25.9888 15.5H19.976C19.9042 16.9041 19.6748 18.2273 19.3588 19.4387C19.2663 19.7936 19.1663 20.1389 19.0606 20.4738C20.3432 20.7487 21.421 21.099 22.2159 21.3996C22.6925 21.5798 23.0683 21.7425 23.3267 21.8611C23.4027 21.8959 23.4685 21.927 23.5238 21.9536ZM25.9888 14.5C25.8796 12.0584 24.9745 9.82396 23.5266 8.04983C22.0926 8.78521 20.6611 9.27434 19.2711 9.57881C19.7808 11.2796 19.9932 12.9334 19.9996 14.5H25.9888ZM22.8345 7.27857C21.188 5.60812 19.0113 4.46171 16.5772 4.11222C17.6433 5.62856 18.4162 7.14103 18.9548 8.62391C20.2234 8.35428 21.5275 7.92309 22.8345 7.27857ZM15.257 4.00294C16.4915 5.61751 17.3646 7.22909 17.9552 8.80505C15.8873 9.1162 13.9405 9.02117 12.2627 8.75579C12.7138 7.55272 13.2214 6.52446 13.6708 5.72058C14.0145 5.10571 14.3232 4.62383 14.5446 4.29731C14.6256 4.17792 14.6949 4.07938 14.7499 4.00279C14.833 4.00093 14.9164 4 15 4C15.0859 4 15.1716 4.00098 15.257 4.00294ZM13.4734 4.10507C11.0237 4.44518 8.83204 5.59201 7.1753 7.26863C7.4108 7.37468 7.73548 7.5129 8.13777 7.66503C8.9183 7.96018 9.98834 8.3067 11.2641 8.57271C11.7514 7.24107 12.3083 6.10855 12.7979 5.23264C13.0457 4.78944 13.2767 4.41112 13.4734 4.10507ZM6.47619 8.04643C5.02671 9.8211 4.12046 12.0569 4.01116 14.5H10.024C10.0958 13.0959 10.3252 11.7727 10.6412 10.5613C10.7337 10.2064 10.8337 9.86114 10.9394 9.52616C9.65678 9.25125 8.57902 8.90099 7.78407 8.60038C7.3075 8.42017 6.93169 8.25746 6.67331 8.13891C6.59734 8.10405 6.53149 8.073 6.47619 8.04643ZM4.01116 15.5C4.12039 17.9416 5.02555 20.176 6.47341 21.9502C7.90741 21.2148 9.33887 20.7257 10.7289 20.4212C10.2192 18.7204 10.0068 17.0666 10.0004 15.5H4.01116ZM7.16548 22.7214C8.81197 24.3919 10.9887 25.5383 13.4228 25.8878C12.3567 24.3714 11.5838 22.859 11.0452 21.3761C9.77659 21.6457 8.47252 22.0769 7.16548 22.7214ZM27 15C27 21.6274 21.6274 27 15 27C8.37258 27 3 21.6274 3 15C3 8.37258 8.37258 3 15 3C21.6274 3 27 8.37258 27 15ZM11.7175 20.2338C14.0463 19.8597 16.2281 19.9781 18.0712 20.2853C18.1852 19.9309 18.2926 19.5642 18.3912 19.1862C18.6877 18.0497 18.9041 16.8119 18.9751 15.5L10.9999 15.5C11.0066 17.0062 11.2154 18.5967 11.7175 20.2338ZM11.0249 14.5L19.0001 14.5C18.9934 12.9938 18.7846 11.4033 18.2825 9.76623C15.9537 10.1403 13.7719 10.0219 11.9288 9.71465C11.8148 10.0691 11.7074 10.4358 11.6088 10.8138C11.3123 11.9503 11.0959 13.1881 11.0249 14.5Z" fill="#2B2B2C"/>
</svg>
