<svg width="18" height="18" viewBox="0 0 18 18" fill="none" xmlns="http://www.w3.org/2000/svg">
<path d="M3.5 4.5C3.5 4.5 9 7 14.5 4.5" stroke="#2B2B2C"/>
<path fill-rule="evenodd" clip-rule="evenodd" d="M14.234 12.8549C14.9369 11.9021 15.3859 10.7505 15.4811 9.5H11.9786C11.9343 10.2929 11.824 11.0413 11.6764 11.7298C11.6465 11.8696 11.615 12.0069 11.5822 12.1417C12.4485 12.2974 13.1758 12.4997 13.7091 12.6728C13.9132 12.7391 14.0892 12.8012 14.234 12.8549ZM10.5886 11.9945C9.60458 11.8796 8.49102 11.842 7.30905 11.9653C7.11035 11.1173 7.0177 10.2906 7.00223 9.5H10.9771C10.934 10.2154 10.833 10.893 10.6986 11.5203C10.664 11.6818 10.6272 11.84 10.5886 11.9945ZM11.9977 8.5H15.4811C15.2635 5.64076 13.1962 3.29859 10.4731 2.66764C11.558 4.68894 11.9651 6.68655 11.9977 8.5ZM9.22601 2.50386C10.4966 4.57499 10.9613 6.63758 10.9978 8.5H7.02286C7.06599 7.78456 7.16697 7.107 7.3014 6.47968C7.57333 5.21068 7.98159 4.15208 8.32157 3.41169C8.49136 3.04192 8.64356 2.75273 8.75221 2.55772L8.78262 2.50357C8.85479 2.5012 8.92725 2.5 9 2.5C9.07565 2.5 9.15099 2.50129 9.22601 2.50386ZM10.3089 12.9695C10.1029 13.6049 9.87882 14.1519 9.67843 14.5883C9.50864 14.9581 9.35644 15.2473 9.24779 15.4423C9.23723 15.4612 9.22709 15.4793 9.21738 15.4964C9.14521 15.4988 9.07275 15.5 9 15.5C8.92435 15.5 8.84901 15.4987 8.77399 15.4961C8.24826 14.6392 7.86049 13.7837 7.58395 12.9432C8.5535 12.855 9.47479 12.8814 10.3089 12.9695ZM10.4272 15.3428C10.4784 15.2384 10.532 15.1258 10.5872 15.0056C10.8187 14.5015 11.0796 13.8599 11.3136 13.1098C12.1684 13.2581 12.8838 13.4562 13.4003 13.6239C13.4436 13.638 13.4855 13.6518 13.5259 13.6654C12.6817 14.4845 11.616 15.0765 10.4272 15.3428ZM6.31507 12.1062C6.1117 11.2089 6.01731 10.3349 6.00228 9.5H2.51894C2.61373 10.746 3.05979 11.8938 3.75832 12.8445C4.62166 12.4935 5.48052 12.2564 6.31507 12.1062ZM7.4128 2.9944C7.46801 2.87416 7.5216 2.76162 7.57282 2.65717C4.82709 3.27231 2.73767 5.62471 2.51894 8.5H6.02143C6.06573 7.70709 6.17604 6.95873 6.3236 6.27015C6.61417 4.91416 7.04965 3.78525 7.4128 2.9944ZM4.4546 13.6464C5.16991 13.3801 5.8814 13.1958 6.57596 13.0757C6.80819 13.8189 7.11983 14.574 7.5269 15.3324C6.34744 15.0591 5.291 14.4648 4.4546 13.6464ZM9 16.5C13.1421 16.5 16.5 13.1421 16.5 9C16.5 4.85786 13.1421 1.5 9 1.5C4.85786 1.5 1.5 4.85786 1.5 9C1.5 13.1421 4.85786 16.5 9 16.5Z" fill="#2B2B2C"/>
</svg>
