<svg width="30" height="30" viewBox="0 0 30 30" fill="none" xmlns="http://www.w3.org/2000/svg">
<path fill-rule="evenodd" clip-rule="evenodd" d="M15.2263 26.9979C15.2825 26.9067 15.3537 26.7887 15.4373 26.6455C15.6603 26.2634 15.9706 25.7022 16.316 24.9922C16.7163 24.1695 17.1626 23.149 17.5745 21.9775C15.8976 21.751 14.0037 21.6846 12.0014 21.9507C12.5927 23.6417 13.4786 25.3398 14.7434 26.9973C14.8287 26.9991 14.9143 27 15 27C15.0756 27 15.151 26.9993 15.2263 26.9979ZM17.8942 21.0123C16.0523 20.7489 13.9389 20.6654 11.6944 20.9834C11.1603 19.1141 10.9684 17.2646 11.0039 15.5H18.9518C18.8633 16.7966 18.6593 18.0386 18.3882 19.1987C18.2406 19.8298 18.0733 20.4358 17.8942 21.0123ZM18.5783 22.1356C18.1349 23.4227 17.6486 24.5389 17.2153 25.4297C16.922 26.0324 16.6525 26.5331 16.4359 26.915C19.1421 26.5923 21.5717 25.369 23.4167 23.5533C23.2092 23.466 22.9664 23.3683 22.6913 23.2649C21.6949 22.8903 20.2777 22.4415 18.5783 22.1356ZM18.8901 21.1761C19.0605 20.6179 19.22 20.0334 19.3619 19.4263C19.6482 18.2016 19.8636 16.8823 19.9536 15.5H26.9898C26.8762 18.2713 25.8227 20.8002 24.1396 22.7765C23.8624 22.6532 23.4931 22.498 23.0432 22.3289C22.0287 21.9475 20.6008 21.4939 18.8901 21.1761ZM19.9959 14.5H26.9898C26.8765 11.7348 25.8274 9.21102 24.1509 7.23676C22.5115 8.03223 20.8784 8.54562 19.2984 8.85064C19.8368 10.7806 20.0307 12.6861 19.9959 14.5ZM18.3056 9.0166C16.0612 9.33455 13.9477 9.2511 12.1059 8.98767C11.9267 9.56417 11.7594 10.1702 11.6119 10.8013C11.3407 11.9614 11.1367 13.2034 11.0482 14.5H18.9962C19.0317 12.7354 18.8397 10.8859 18.3056 9.0166ZM17.9986 8.04932C15.9964 8.31539 14.1024 8.24903 12.4255 8.02252C12.8375 6.85097 13.2838 5.83053 13.684 5.0078C14.0294 4.29777 14.3398 3.73663 14.5627 3.35454C14.6463 3.21129 14.7176 3.09327 14.7738 3.00209C14.849 3.0007 14.9244 3 15 3C15.0858 3 15.1713 3.0009 15.2566 3.00269C16.5214 4.66016 17.4073 6.35827 17.9986 8.04932ZM19.0017 7.88902C20.448 7.61833 21.94 7.16531 23.4385 6.46814C21.6206 4.67004 19.231 3.44876 16.5668 3.10136C17.6701 4.68102 18.46 6.28955 19.0017 7.88902ZM6.58334 6.44667C8.4283 4.631 10.858 3.4077 13.5642 3.08502C13.3476 3.46689 13.078 3.96757 12.7848 4.57033C12.3514 5.46113 11.8652 6.57728 11.4217 7.86436C9.72239 7.55847 8.30519 7.10969 7.30879 6.73511C7.03365 6.63167 6.79085 6.53399 6.58334 6.44667ZM6.95689 7.67114C7.97139 8.05254 9.39929 8.50611 11.11 8.82392C10.9395 9.38207 10.7801 9.96657 10.6382 10.5737C10.3519 11.7984 10.1365 13.1177 10.0465 14.5H3.01025C3.12384 11.7287 4.17732 9.19975 5.86043 7.22354C6.13768 7.3468 6.50694 7.50199 6.95689 7.67114ZM3.01025 15.5H10.0042C9.96937 17.3139 10.1633 19.2194 10.7017 21.1494C9.12163 21.4544 7.48853 21.9678 5.84918 22.7632C4.17263 20.789 3.12359 18.2652 3.01025 15.5ZM6.56158 23.5319C8.06006 22.8347 9.55201 22.3817 10.9984 22.111C11.5401 23.7105 12.33 25.319 13.4332 26.8986C10.769 26.5512 8.37946 25.33 6.56158 23.5319Z" fill="#2B2B2C"/>
</svg>
