<svg width="24" height="24" viewBox="0 0 24 24" fill="none" xmlns="http://www.w3.org/2000/svg">
<circle cx="14.5" cy="5.5" r="0.5" fill="#2B2B2C"/>
<path fill-rule="evenodd" clip-rule="evenodd" d="M7 4.5C7 3.67157 7.67157 3 8.5 3H15.5C16.3284 3 17 3.67157 17 4.5V18.5V19.5C17 20.3284 16.3284 21 15.5 21H8.5C7.67157 21 7 20.3284 7 19.5V18.5V4.5ZM8 19V19.5C8 19.7761 8.22386 20 8.5 20H15.5C15.7761 20 16 19.7761 16 19.5V19H8ZM16 18H8V4.5C8 4.22386 8.22386 4 8.5 4H15.5C15.7761 4 16 4.22386 16 4.5V18ZM10.5 5.5C10.5 5.22386 10.7239 5 11 5H13C13.2761 5 13.5 5.22386 13.5 5.5C13.5 5.77614 13.2761 6 13 6H11C10.7239 6 10.5 5.77614 10.5 5.5Z" fill="#2B2B2C"/>
</svg>
