<svg width="30" height="30" viewBox="0 0 30 30" fill="none" xmlns="http://www.w3.org/2000/svg">
<path fill-rule="evenodd" clip-rule="evenodd" d="M8.5 4.75C8.5 3.7835 9.2835 3 10.25 3H19.75C20.7165 3 21.5 3.7835 21.5 4.75V23.5H8.5V4.75ZM8.5 24.5V25.25C8.5 26.2165 9.2835 27 10.25 27H19.75C20.7165 27 21.5 26.2165 21.5 25.25V24.5H8.5ZM13 5.5C13 5.22386 13.2239 5 13.5 5H16.5C16.7761 5 17 5.22386 17 5.5C17 5.77614 16.7761 6 16.5 6H13.5C13.2239 6 13 5.77614 13 5.5ZM18.5 6C18.7761 6 19 5.77614 19 5.5C19 5.22386 18.7761 5 18.5 5C18.2239 5 18 5.22386 18 5.5C18 5.77614 18.2239 6 18.5 6Z" fill="#2B2B2C"/>
</svg>
