<svg width="24" height="24" viewBox="0 0 24 24" fill="none" xmlns="http://www.w3.org/2000/svg">
<path fill-rule="evenodd" clip-rule="evenodd" d="M3.5 3C3.22386 3 3 3.22386 3 3.5V17.5C3 19.433 4.567 21 6.5 21H18.5C19.8807 21 21 19.8807 21 18.5V6.5C21 6.22386 20.7761 6 20.5 6H17V3.5C17 3.22386 16.7761 3 16.5 3H3.5ZM20 7H17V9V18.5C17 19.3284 17.6716 20 18.5 20C19.3284 20 20 19.3284 20 18.5V7ZM16.4998 20C16.186 19.5822 16 19.0628 16 18.5V9V6.5V4H4V17.5C4 18.8807 5.11929 20 6.5 20H16.4998ZM5 6C5 5.72386 5.22386 5.5 5.5 5.5H14.5C14.7761 5.5 15 5.72386 15 6C15 6.27614 14.7761 6.5 14.5 6.5H5.5C5.22386 6.5 5 6.27614 5 6ZM5.5 8C5.22386 8 5 8.22386 5 8.5C5 8.77614 5.22386 9 5.5 9H14.5C14.7761 9 15 8.77614 15 8.5C15 8.22386 14.7761 8 14.5 8H5.5ZM10 11C10 10.7239 10.2239 10.5 10.5 10.5H14.5C14.7761 10.5 15 10.7239 15 11V14.5C15 14.7761 14.7761 15 14.5 15H10.5C10.2239 15 10 14.7761 10 14.5V11ZM11 11.5V14H14V11.5H11ZM5.5 11C5.22386 11 5 11.2239 5 11.5C5 11.7761 5.22386 12 5.5 12H8.5C8.77614 12 9 11.7761 9 11.5C9 11.2239 8.77614 11 8.5 11H5.5ZM5 14C5 13.7239 5.22386 13.5 5.5 13.5H8.5C8.77614 13.5 9 13.7239 9 14C9 14.2761 8.77614 14.5 8.5 14.5H5.5C5.22386 14.5 5 14.2761 5 14ZM5.5 16.5C5.22386 16.5 5 16.7239 5 17C5 17.2761 5.22386 17.5 5.5 17.5H14.5C14.7761 17.5 15 17.2761 15 17C15 16.7239 14.7761 16.5 14.5 16.5H5.5Z" fill="#2B2B2C"/>
</svg>
