<svg width="24" height="24" viewBox="0 0 24 24" fill="none" xmlns="http://www.w3.org/2000/svg">
<path fill-rule="evenodd" clip-rule="evenodd" d="M3.5 4C2.67157 4 2 4.67157 2 5.5V15H22V5.5C22 4.67157 21.3284 4 20.5 4H3.5ZM2 16.5V16H22V16.5C22 17.3284 21.3284 18 20.5 18H14.1937L14.8604 20H16C16.2761 20 16.5 20.2239 16.5 20.5C16.5 20.7761 16.2761 21 16 21H14.5121C14.504 21.0002 14.4959 21.0002 14.4878 21H9.51227C9.50417 21.0002 9.49604 21.0002 9.4879 21H8C7.72386 21 7.5 20.7761 7.5 20.5C7.5 20.2239 7.72386 20 8 20H9.13964L9.80631 18H3.5C2.67157 18 2 17.3284 2 16.5ZM10.8604 18L10.1937 20H13.8063L13.1396 18H10.8604Z" fill="#2B2B2C"/>
</svg>
