<svg width="18" height="18" viewBox="0 0 18 18" fill="none" xmlns="http://www.w3.org/2000/svg">
<path fill-rule="evenodd" clip-rule="evenodd" d="M2.25 3C1.55964 3 1 3.55964 1 4.25V11H17V4.25C17 3.55964 16.4404 3 15.75 3H2.25ZM1 12.75V11.875L17 12V12.75C17 13.4404 16.4404 14 15.75 14H11.1099L11.3099 15H12.5C12.7761 15 13 15.2239 13 15.5C13 15.7761 12.7761 16 12.5 16H5.5C5.22386 16 5 15.7761 5 15.5C5 15.2239 5.22386 15 5.5 15H6.69011L6.89011 14H2.25C1.55964 14 1 13.4404 1 12.75ZM7.90991 14L7.70991 15H10.2901L10.0901 14H7.90991Z" fill="#2B2B2C"/>
</svg>
