<svg width="24" height="24" viewBox="0 0 24 24" fill="none" xmlns="http://www.w3.org/2000/svg">
<path fill-rule="evenodd" clip-rule="evenodd" d="M3.5 4C2.67157 4 2 4.67157 2 5.5V15.5V16.5C2 17.3284 2.67157 18 3.5 18H9.80631L9.13964 20H8C7.72386 20 7.5 20.2239 7.5 20.5C7.5 20.7761 7.72386 21 8 21H9.4879C9.49604 21.0002 9.50417 21.0002 9.51227 21H14.4878C14.4959 21.0002 14.504 21.0002 14.5121 21H16C16.2761 21 16.5 20.7761 16.5 20.5C16.5 20.2239 16.2761 20 16 20H14.8604L14.1937 18H20.5C21.3284 18 22 17.3284 22 16.5V15.5V5.5C22 4.67157 21.3284 4 20.5 4H3.5ZM21 15V5.5C21 5.22386 20.7761 5 20.5 5H3.5C3.22386 5 3 5.22386 3 5.5V15H21ZM3 16H21V16.5C21 16.7761 20.7761 17 20.5 17H13.5111C13.5038 16.9998 13.4964 16.9998 13.4891 17H10.5109C10.5036 16.9998 10.4963 16.9998 10.4889 17H3.5C3.22386 17 3 16.7761 3 16.5V16ZM13.8063 20H10.1937L10.8604 18H13.1396L13.8063 20Z" fill="#2B2B2C"/>
</svg>
