<svg width="30" height="30" viewBox="0 0 30 30" fill="none" xmlns="http://www.w3.org/2000/svg">
<path fill-rule="evenodd" clip-rule="evenodd" d="M4.75 5C3.7835 5 3 5.7835 3 6.75V19.5V20.25C3 21.2165 3.7835 22 4.75 22H12.8597L12.1097 25H10.5C10.2239 25 10 25.2239 10 25.5C10 25.7761 10.2239 26 10.5 26H12.4898C12.497 26.0002 12.5041 26.0002 12.5112 26H17.4891C17.4962 26.0002 17.5033 26.0002 17.5104 26H19.5C19.7761 26 20 25.7761 20 25.5C20 25.2239 19.7761 25 19.5 25H17.8905L17.1405 22H25.25C26.2165 22 27 21.2165 27 20.25V19.5V6.75C27 5.7835 26.2165 5 25.25 5H4.75ZM26 19V6.75C26 6.33579 25.6642 6 25.25 6H4.75C4.33579 6 4 6.33579 4 6.75V19H26ZM4 20H26V20.25C26 20.6642 25.6642 21 25.25 21H16.5115C16.5042 20.9998 16.4968 20.9998 16.4895 21H13.5108C13.5034 20.9998 13.496 20.9998 13.4887 21H4.75C4.33579 21 4 20.6642 4 20.25V20ZM16.8597 25H13.1405L13.8905 22H16.1097L16.8597 25Z" fill="#2B2B2C"/>
</svg>
