<svg width="18" height="18" viewBox="0 0 18 18" fill="none" xmlns="http://www.w3.org/2000/svg">
<path fill-rule="evenodd" clip-rule="evenodd" d="M2.25002 3C1.55966 3 1.00002 3.55964 1.00002 4.25V11.4961L1 11.5L1.00002 11.5039V12.75C1.00002 13.4404 1.55966 14 2.25002 14H6.89009L6.69009 15H5.50002C5.22387 15 5.00002 15.2239 5.00002 15.5C5.00002 15.7761 5.22387 16 5.50002 16H12.5C12.7762 16 13 15.7761 13 15.5C13 15.2239 12.7762 15 12.5 15H11.3099L11.1099 14H15.75C16.4404 14 17 13.4404 17 12.75V4.25C17 3.55964 16.4404 3 15.75 3H2.25002ZM10.2901 15L10.0901 14H7.9099L7.7099 15H10.2901ZM2.00002 12.75V12H16V12.75C16 12.8881 15.8881 13 15.75 13H10.5083H10.4927H7.50727H7.49165H2.25002C2.11194 13 2.00002 12.8881 2.00002 12.75ZM2.00002 11H16V4.25C16 4.11193 15.8881 4 15.75 4H2.25002C2.11194 4 2.00002 4.11193 2.00002 4.25V11Z" fill="#2B2B2C"/>
</svg>
