<svg width="30" height="30" viewBox="0 0 30 30" fill="none" xmlns="http://www.w3.org/2000/svg">
<path fill-rule="evenodd" clip-rule="evenodd" d="M9.81776 3.96187C9.16066 3.05837 7.83672 2.99354 7.0945 3.82854L6.52688 4.46711C4.92283 6.27167 4.40478 8.79557 5.16828 11.0861L5.36334 11.6713C7.40381 17.7927 12.2073 22.5961 18.3287 24.6366L18.9139 24.8317C21.2044 25.5952 23.7283 25.0771 25.5328 23.4731L26.1714 22.9055C27.0064 22.1632 26.9416 20.8393 26.0381 20.1822L22.7404 17.7839C21.995 17.2418 20.9568 17.3708 20.3667 18.0789L19.1005 19.5984C18.9436 19.7866 18.686 19.8569 18.4552 19.7745C14.617 18.4037 11.5963 15.383 10.2254 11.5447C10.143 11.314 10.2134 11.0563 10.4016 10.8995L11.9211 9.63323C12.6292 9.04315 12.7582 8.00498 12.2161 7.25955L9.81776 3.96187Z" fill="#2B2B2C"/>
<path fill-rule="evenodd" clip-rule="evenodd" d="M15.5123 7.99988L15.5136 7.99986L15.525 7.99972C15.5359 7.99963 15.5533 7.99957 15.5768 7.99977C15.6237 8.00017 15.6949 8.00161 15.7867 8.00588C15.9704 8.01443 16.2359 8.03427 16.5549 8.07951C17.1957 8.17036 18.0383 8.36166 18.8673 8.75932C19.6939 9.15587 20.4963 9.75215 21.0811 10.651C21.6638 11.5467 22.0532 12.7777 22.0002 14.4845C21.9917 14.7605 22.2085 14.9912 22.4845 14.9998C22.7605 15.0084 22.9912 14.7915 22.9998 14.5155C23.0582 12.6336 22.6282 11.1953 21.9193 10.1057C21.2125 9.01911 20.251 8.31397 19.2998 7.85769C18.3509 7.40253 17.4018 7.18959 16.6953 7.08941C16.3406 7.03913 16.0435 7.01675 15.8332 7.00696C15.7279 7.00207 15.6441 7.00031 15.5853 6.99981C15.556 6.99955 15.5329 6.99962 15.5164 6.99976L15.4969 7L15.491 7.00011L15.489 7.00015L15.4883 7.00016C15.488 7.00017 15.4877 7.00018 15.5 7.50003L15.4877 7.00018C15.2117 7.00696 14.9934 7.23624 15.0002 7.5123C15.0069 7.78823 15.236 8.00644 15.5119 7.99989L15.5123 7.99988Z" fill="#2B2B2C"/>
<path fill-rule="evenodd" clip-rule="evenodd" d="M15 10.5C15 10.2239 15.2239 10 15.5 10V10.5C15.5 10 15.5003 10 15.5005 10L15.5012 10L15.5027 10L15.5069 10L15.5195 10.0002C15.5299 10.0004 15.544 10.0007 15.5616 10.0013C15.5968 10.0024 15.6461 10.0047 15.7075 10.0091C15.8302 10.0178 16.0021 10.0351 16.2072 10.0693C16.6149 10.1373 17.1662 10.2741 17.7236 10.5528C18.2829 10.8324 18.8574 11.2598 19.291 11.9101C19.7267 12.5636 20 13.4125 20 14.5C20 14.7761 19.7761 15 19.5 15C19.2239 15 19 14.7761 19 14.5C19 13.5875 18.7733 12.9363 18.459 12.4648C18.1426 11.9902 17.7171 11.6676 17.2764 11.4472C16.8338 11.2259 16.3851 11.1127 16.0428 11.0557C15.8729 11.0274 15.7323 11.0134 15.6363 11.0065C15.5883 11.0031 15.5517 11.0015 15.5283 11.0007L15.5034 11.0001L15.5 11C15.4999 11 15.4997 11 15.4996 11L15.4992 11L15.4988 11C15.4986 11 15.4986 11 15.4989 11L15.4996 11M15 10.5C15 10.776 15.2236 10.9998 15.4996 11Z" fill="#2B2B2C"/>
<path fill-rule="evenodd" clip-rule="evenodd" d="M15 4.5C15 4.22386 15.2239 4 15.5 4V4.5C15.5 4 15.5003 4 15.5006 4L15.5014 4L15.5038 4.00001L15.5112 4.00005L15.5368 4.00037C15.5584 4.00072 15.5894 4.0014 15.629 4.00272C15.7081 4.00536 15.8219 4.01056 15.9653 4.0208C16.252 4.04128 16.6584 4.082 17.1447 4.16305C18.1149 4.32476 19.4162 4.64911 20.7236 5.30279C22.0329 5.95744 23.3574 6.94728 24.3535 8.4414C25.3517 9.93865 26 11.9125 26 14.5C26 14.7761 25.7761 15 25.5 15C25.2239 15 25 14.7761 25 14.5C25 12.0875 24.3983 10.3114 23.5215 8.9961C22.6426 7.67772 21.4671 6.79256 20.2764 6.19721C19.0838 5.60089 17.8851 5.30024 16.9803 5.14945C16.5291 5.07425 16.1542 5.03684 15.8941 5.01826C15.7641 5.00898 15.663 5.00441 15.5956 5.00216C15.562 5.00104 15.5368 5.0005 15.5206 5.00024L15.5033 5.00002L15.5 5L15.4999 5C15.4996 5 15.4995 5 15.4995 5L15.4996 5C15.2237 4.9998 15 4.77602 15 4.5ZM15.4995 5C15.4995 5 15.4995 5 15.4995 5Z" fill="#2B2B2C"/>
</svg>
