<svg width="24" height="24" viewBox="0 0 24 24" fill="none" xmlns="http://www.w3.org/2000/svg">
<path fill-rule="evenodd" clip-rule="evenodd" d="M7.26055 3.7923C7.08553 3.52977 6.71408 3.49299 6.49098 3.7161L6.14313 4.06394C4.88933 5.31774 4.48869 7.19093 5.11991 8.8479L5.41385 9.61948C6.98745 13.7502 10.2498 17.0125 14.3805 18.5861L15.1521 18.8801C16.809 19.5113 18.6822 19.1106 19.936 17.8568L20.2839 17.509C20.507 17.2859 20.4702 16.9144 20.2077 16.7394L17.4854 14.9246C17.2696 14.7807 16.9797 14.8258 16.8177 15.0283L15.8954 16.1811C15.4535 16.7334 14.6859 16.902 14.0533 16.5857L13.6522 16.3852C11.0396 15.0788 8.92112 12.9604 7.61481 10.3478L7.41427 9.94669C7.09796 9.31406 7.26656 8.54642 7.81887 8.10457L8.97169 7.18231C9.17421 7.02029 9.21923 6.73032 9.07537 6.51453L7.26055 3.7923ZM5.78387 3.00899C6.4532 2.33967 7.56754 2.45001 8.0926 3.2376L9.90742 5.95983C10.339 6.60721 10.204 7.47713 9.59639 7.96318L8.44357 8.88544C8.25946 9.03272 8.20326 9.2886 8.3087 9.49948L8.50924 9.90056C9.71879 12.3196 11.6803 14.2812 14.0994 15.4907L14.5005 15.6913C14.7114 15.7967 14.9672 15.7405 15.1145 15.5564L16.0368 14.4036C16.5228 13.796 17.3928 13.661 18.0401 14.0925L20.7624 15.9074C21.55 16.4324 21.6603 17.5468 20.991 18.2161L20.6431 18.5639C19.1107 20.0964 16.8213 20.586 14.7961 19.8145L14.0245 19.5206C9.62729 17.8455 6.15448 14.3727 4.47936 9.97548L4.18543 9.2039C3.41393 7.1787 3.9036 4.88926 5.43602 3.35684L5.78387 3.00899Z" fill="#2B2B2C"/>
</svg>
