<svg width="18" height="18" viewBox="0 0 18 18" fill="none" xmlns="http://www.w3.org/2000/svg">
<path fill-rule="evenodd" clip-rule="evenodd" d="M6.37804 2.52881C5.99219 1.85356 5.08997 1.69082 4.49251 2.1887L4.23662 2.40194C2.84211 3.56403 2.33962 5.48353 2.98584 7.17986L3.13929 7.58268C4.39527 10.8796 6.98601 13.4923 10.2723 14.776L10.802 14.9829C12.5051 15.6482 14.4428 15.1496 15.6133 13.745L15.8113 13.5075C16.3092 12.91 16.1464 12.0078 15.4712 11.6219L13.4364 10.4592C12.8134 10.1032 12.0191 10.3437 11.6982 10.9855L11.3882 11.6056C11.3264 11.7291 11.1763 11.7791 11.0528 11.7174L10.6305 11.5062C8.84035 10.6112 7.38882 9.15963 6.49376 7.3695L6.28261 6.94721C6.22086 6.82371 6.27092 6.67354 6.39441 6.6118L7.01447 6.30177C7.65632 5.98084 7.89679 5.18662 7.54076 4.56356L6.37804 2.52881Z" fill="#2B2B2C"/>
</svg>
