<svg width="30" height="30" viewBox="0 0 30 30" fill="none" xmlns="http://www.w3.org/2000/svg">
<path fill-rule="evenodd" clip-rule="evenodd" d="M9.81776 3.96187C9.16066 3.05837 7.83672 2.99354 7.0945 3.82854L6.52688 4.46711C4.92283 6.27167 4.40478 8.79557 5.16828 11.0861L5.36334 11.6713C7.40381 17.7927 12.2073 22.5961 18.3287 24.6366L18.9139 24.8317C21.2044 25.5952 23.7283 25.0771 25.5328 23.4731L26.1714 22.9055C27.0064 22.1632 26.9416 20.8393 26.0381 20.1822L22.7404 17.7839C21.995 17.2418 20.9568 17.3708 20.3667 18.0789L19.1005 19.5984C18.9436 19.7866 18.686 19.8569 18.4552 19.7745C14.617 18.4037 11.5963 15.383 10.2254 11.5447C10.143 11.314 10.2134 11.0563 10.4016 10.8995L11.9211 9.63323C12.6292 9.04315 12.7582 8.00498 12.2161 7.25955L9.81776 3.96187Z" fill="#2B2B2C"/>
</svg>
