<svg width="18" height="18" viewBox="0 0 18 18" fill="none" xmlns="http://www.w3.org/2000/svg">
<path fill-rule="evenodd" clip-rule="evenodd" d="M5.50981 3.02495C5.43264 2.8899 5.2522 2.85735 5.13271 2.95692L4.87682 3.17016C3.81043 4.05882 3.42617 5.52667 3.92034 6.82386L4.07379 7.22668C5.22929 10.2599 7.61278 12.6635 10.6361 13.8445L11.1659 14.0514C12.4683 14.5602 13.95 14.1789 14.8451 13.1048L15.0431 12.8673C15.1426 12.7478 15.1101 12.5674 14.975 12.4902L12.9403 11.3275C12.8157 11.2563 12.6568 11.3044 12.5927 11.4327L12.2826 12.0528C11.9739 12.6703 11.223 12.9205 10.6056 12.6118L10.1833 12.4007C8.19963 11.4088 6.59117 9.80037 5.59934 7.81671L5.3882 7.39442C5.07946 6.77695 5.32974 6.0261 5.94722 5.71737L6.56727 5.40734C6.69564 5.34315 6.74374 5.18431 6.67253 5.0597L5.50981 3.02495ZM4.49252 2.1887C5.08998 1.69082 5.9922 1.85356 6.37806 2.52881L7.54077 4.56356C7.89681 5.18662 7.65633 5.98084 7.01449 6.30177L6.39443 6.6118C6.27093 6.67354 6.22088 6.82371 6.28263 6.94721L6.49377 7.3695C7.38884 9.15963 8.84037 10.6112 10.6305 11.5062L11.0528 11.7174C11.1763 11.7791 11.3265 11.7291 11.3882 11.6056L11.6982 10.9855C12.0192 10.3437 12.8134 10.1032 13.4364 10.4592L15.4712 11.6219C16.1464 12.0078 16.3092 12.91 15.8113 13.5075L15.6134 13.745C14.4428 15.1496 12.5051 15.6482 10.8021 14.9829L10.2723 14.776C6.98603 13.4923 4.39528 10.8796 3.13931 7.58268L2.98585 7.17986C2.33963 5.48353 2.84213 3.56403 4.23664 2.40194L4.49252 2.1887Z" fill="#2B2B2C"/>
</svg>
