<svg width="30" height="30" viewBox="0 0 30 30" fill="none" xmlns="http://www.w3.org/2000/svg">
<path fill-rule="evenodd" clip-rule="evenodd" d="M9.00902 4.55004C8.72741 4.16283 8.16001 4.13504 7.84191 4.4929L7.27429 5.13147C5.90787 6.66869 5.46657 8.81868 6.11697 10.7699L6.31203 11.355C8.25296 17.1778 12.8221 21.747 18.6449 23.6879L19.2301 23.883C21.1813 24.5334 23.3313 24.0921 24.8685 22.7257L25.5071 22.158C25.8649 21.84 25.8371 21.2725 25.4499 20.9909L22.1522 18.5926C21.8328 18.3603 21.3878 18.4156 21.1349 18.719L19.8687 20.2386C19.4433 20.749 18.7446 20.9397 18.1189 20.7163C13.9983 19.2446 10.7554 16.0017 9.28369 11.8811C9.06022 11.2553 9.25097 10.5566 9.7614 10.1313L11.2809 8.86501C11.5844 8.61212 11.6397 8.16719 11.4073 7.84772L9.00902 4.55004ZM7.0945 3.82854C7.83672 2.99354 9.16066 3.05837 9.81776 3.96187L12.2161 7.25955C12.7582 8.00498 12.6292 9.04315 11.9211 9.63323L10.4016 10.8995C10.2134 11.0563 10.143 11.314 10.2254 11.5447C11.5963 15.383 14.617 18.4037 18.4552 19.7745C18.686 19.8569 18.9436 19.7866 19.1005 19.5984L20.3667 18.0789C20.9568 17.3708 21.995 17.2418 22.7404 17.7839L26.0381 20.1822C26.9416 20.8393 27.0064 22.1632 26.1714 22.9055L25.5328 23.4731C23.7283 25.0771 21.2044 25.5952 18.9139 24.8317L18.3287 24.6366C12.2073 22.5961 7.40381 17.7927 5.36334 11.6713L5.16828 11.0861C4.40478 8.79557 4.92283 6.27167 6.52688 4.46711L7.0945 3.82854Z" fill="#2B2B2C"/>
</svg>
