<svg width="24" height="24" viewBox="0 0 24 24" fill="none" xmlns="http://www.w3.org/2000/svg">
<path fill-rule="evenodd" clip-rule="evenodd" d="M8.0926 3.2376C7.56754 2.45001 6.4532 2.33967 5.78387 3.00899L5.43602 3.35684C3.9036 4.88926 3.41393 7.1787 4.18543 9.2039L4.47936 9.97548C6.15448 14.3727 9.62729 17.8455 14.0245 19.5206L14.7961 19.8145C16.8213 20.586 19.1107 20.0964 20.6431 18.5639L20.991 18.2161C21.6603 17.5468 21.55 16.4324 20.7624 15.9074L18.0401 14.0925C17.3928 13.661 16.5228 13.796 16.0368 14.4036L15.1145 15.5564C14.9672 15.7405 14.7114 15.7967 14.5005 15.6913L14.0994 15.4907C11.6803 14.2812 9.71879 12.3196 8.50924 9.90056L8.3087 9.49948C8.20326 9.2886 8.25946 9.03272 8.44357 8.88544L9.59639 7.96318C10.204 7.47713 10.339 6.60721 9.90742 5.95983L8.0926 3.2376Z" fill="#2B2B2C"/>
</svg>
