<svg width="24" height="24" viewBox="0 0 24 24" fill="none" xmlns="http://www.w3.org/2000/svg">
<path fill-rule="evenodd" clip-rule="evenodd" d="M3 4.5C3 3.67157 3.67157 3 4.5 3H19.5C20.3284 3 21 3.67157 21 4.5V19.5C21 20.3284 20.3284 21 19.5 21H4.5C3.67157 21 3 20.3284 3 19.5V16.5001V16.5V4.5ZM4 19.5V16.7072L7.5 13.2072L9.79289 15.5C10.1834 15.8906 10.8166 15.8906 11.2071 15.5L16.5 10.2072L20 13.7072V19.5C20 19.7761 19.7761 20 19.5 20H4.5C4.22386 20 4 19.7761 4 19.5ZM20 4.5V12.2929L17.2071 9.50005C16.8166 9.10952 16.1834 9.10952 15.7929 9.50005L10.5 14.7929L8.20711 12.5C7.81658 12.1095 7.18342 12.1095 6.79289 12.5L4 15.2929V4.5C4 4.22386 4.22386 4 4.5 4H19.5C19.7761 4 20 4.22386 20 4.5ZM8 8.5C8 7.67157 8.67157 7 9.5 7C10.3284 7 11 7.67157 11 8.5C11 9.32843 10.3284 10 9.5 10C8.67157 10 8 9.32843 8 8.5ZM9.5 6C8.11929 6 7 7.11929 7 8.5C7 9.88071 8.11929 11 9.5 11C10.8807 11 12 9.88071 12 8.5C12 7.11929 10.8807 6 9.5 6Z" fill="#2B2B2C"/>
</svg>
