<svg width="30" height="30" viewBox="0 0 30 30" fill="none" xmlns="http://www.w3.org/2000/svg">
<path fill-rule="evenodd" clip-rule="evenodd" d="M5.75 5C5.33579 5 5 5.33579 5 5.75V9.5C5 9.77614 4.77614 10 4.5 10C4.22386 10 4 9.77614 4 9.5V5.75C4 4.7835 4.7835 4 5.75 4H9.5C9.77614 4 10 4.22386 10 4.5C10 4.77614 9.77614 5 9.5 5H5.75ZM20.5 25H24.25C24.6642 25 25 24.6642 25 24.25V20.5C25 20.2239 25.2239 20 25.5 20C25.7761 20 26 20.2239 26 20.5V24.25C26 25.2165 25.2165 26 24.25 26H20.5C20.2239 26 20 25.7761 20 25.5C20 25.2239 20.2239 25 20.5 25ZM25 5.75V9.5C25 9.77614 25.2239 10 25.5 10C25.7761 10 26 9.77614 26 9.5V5.75C26 4.7835 25.2165 4 24.25 4H20.5C20.2239 4 20 4.22386 20 4.5C20 4.77614 20.2239 5 20.5 5L24.25 5C24.6642 5 25 5.33579 25 5.75ZM5 20.5L5 24.25C5 24.6642 5.33579 25 5.75 25H9.5C9.77614 25 10 25.2239 10 25.5C10 25.7761 9.77614 26 9.5 26H5.75C4.7835 26 4 25.2165 4 24.25V20.5C4 20.2239 4.22386 20 4.5 20C4.77614 20 5 20.2239 5 20.5ZM15.5 7.5C15.5 7.22386 15.2761 7 15 7C14.7239 7 14.5 7.22386 14.5 7.5V14.5H11.5C11.2239 14.5 11 14.7239 11 15C11 15.2761 11.2239 15.5 11.5 15.5H15C15.2761 15.5 15.5 15.2761 15.5 15V7.5ZM7.5 14.5C7.22386 14.5 7 14.7239 7 15C7 15.2761 7.22386 15.5 7.5 15.5H9.5C9.77614 15.5 10 15.2761 10 15C10 14.7239 9.77614 14.5 9.5 14.5H7.5ZM18 14.5C17.7239 14.5 17.5 14.7239 17.5 15V17H15C14.7239 17 14.5 17.2239 14.5 17.5V22.5C14.5 22.7761 14.7239 23 15 23C15.2761 23 15.5 22.7761 15.5 22.5V18H22.5C22.7761 18 23 17.7761 23 17.5C23 17.2239 22.7761 17 22.5 17H18.5V15.5H20.5C20.7761 15.5 21 15.2761 21 15C21 14.7239 20.7761 14.5 20.5 14.5H18ZM23 15C23 14.7239 22.7761 14.5 22.5 14.5C22.2239 14.5 22 14.7239 22 15C22 15.2761 22.2239 15.5 22.5 15.5C22.7761 15.5 23 15.2761 23 15ZM19 20C19 19.7239 19.2239 19.5 19.5 19.5H22.5C22.7761 19.5 23 19.7239 23 20V22.5C23 22.7761 22.7761 23 22.5 23H17.5C17.2239 23 17 22.7761 17 22.5C17 22.2239 17.2239 22 17.5 22H19V20ZM18 7C17.4477 7 17 7.44772 17 8V12C17 12.5523 17.4477 13 18 13H22C22.5523 13 23 12.5523 23 12V8C23 7.44772 22.5523 7 22 7H18ZM8 17C7.44772 17 7 17.4477 7 18V22C7 22.5523 7.44772 23 8 23H12C12.5523 23 13 22.5523 13 22V18C13 17.4477 12.5523 17 12 17H8ZM8 7C7.44772 7 7 7.44772 7 8V12C7 12.5523 7.44772 13 8 13H12C12.5523 13 13 12.5523 13 12V8C13 7.44772 12.5523 7 12 7H8ZM9 9.5C9 9.22386 9.22386 9 9.5 9H10.5C10.7761 9 11 9.22386 11 9.5V10.5C11 10.7761 10.7761 11 10.5 11H9.5C9.22386 11 9 10.7761 9 10.5V9.5ZM9.5 19C9.22386 19 9 19.2239 9 19.5V20.5C9 20.7761 9.22386 21 9.5 21H10.5C10.7761 21 11 20.7761 11 20.5V19.5C11 19.2239 10.7761 19 10.5 19H9.5ZM19 9.5C19 9.22386 19.2239 9 19.5 9H20.5C20.7761 9 21 9.22386 21 9.5V10.5C21 10.7761 20.7761 11 20.5 11H19.5C19.2239 11 19 10.7761 19 10.5V9.5Z" fill="#2B2B2C"/>
</svg>
