<svg width="18" height="18" viewBox="0 0 18 18" fill="none" xmlns="http://www.w3.org/2000/svg">
<path fill-rule="evenodd" clip-rule="evenodd" d="M3.25 3C3.11193 3 3 3.11193 3 3.25V5.5C3 5.77614 2.77614 6 2.5 6C2.22386 6 2 5.77614 2 5.5V3.25C2 2.55964 2.55964 2 3.25 2H5.5C5.77614 2 6 2.22386 6 2.5C6 2.77614 5.77614 3 5.5 3H3.25ZM12.5 15H14.75C14.8881 15 15 14.8881 15 14.75V12.5C15 12.2239 15.2239 12 15.5 12C15.7761 12 16 12.2239 16 12.5V14.75C16 15.4404 15.4404 16 14.75 16H12.5C12.2239 16 12 15.7761 12 15.5C12 15.2239 12.2239 15 12.5 15ZM15 3.25V5.5C15 5.77614 15.2239 6 15.5 6C15.7761 6 16 5.77614 16 5.5V3.25C16 2.55964 15.4404 2 14.75 2H12.5C12.2239 2 12 2.22386 12 2.5C12 2.77614 12.2239 3 12.5 3H14.75C14.8881 3 15 3.11193 15 3.25ZM3 12.5L3 14.75C3 14.8881 3.11193 15 3.25 15H5.5C5.77614 15 6 15.2239 6 15.5C6 15.7761 5.77614 16 5.5 16H3.25C2.55965 16 2 15.4404 2 14.75V12.5C2 12.2239 2.22386 12 2.5 12C2.77614 12 3 12.2239 3 12.5ZM4.49999 9.5C4.22385 9.5 3.99999 9.72386 3.99999 10V13.5C3.99999 13.6326 4.05267 13.7598 4.14644 13.8536C4.24021 13.9473 4.36739 14 4.49999 14L7.99999 14C8.27614 14 8.49999 13.7761 8.49999 13.5V10C8.49999 9.72386 8.27613 9.5 7.99999 9.5H4.49999ZM9.5 4.5C9.5 4.22386 9.72386 4 10 4H13.5C13.7761 4 14 4.22386 14 4.5V8C14 8.27614 13.7761 8.5 13.5 8.5H10C9.72386 8.5 9.5 8.27614 9.5 8V4.5ZM4.5 4C4.22386 4 4 4.22386 4 4.5V8C4 8.27614 4.22386 8.5 4.5 8.5H8C8.27614 8.5 8.5 8.27614 8.5 8V4.5C8.5 4.22386 8.27614 4 8 4H4.5ZM11.5 10C11.5 9.72386 11.7239 9.5 12 9.5H13.5C13.7761 9.5 14 9.72386 14 10C14 10.2761 13.7761 10.5 13.5 10.5H12C11.7239 10.5 11.5 10.2761 11.5 10ZM11 11.5C11 11.2239 11.2239 11 11.5 11H12.5C12.7761 11 13 11.2239 13 11.5C13 11.7761 12.7761 12 12.5 12H11.5C11.2239 12 11 11.7761 11 11.5ZM10 11.5C10.2761 11.5 10.5 11.7239 10.5 12V13H12C12.2761 13 12.5 13.2239 12.5 13.5C12.5 13.7761 12.2761 14 12 14H10C9.72386 14 9.5 13.7761 9.5 13.5V12C9.5 11.7239 9.72386 11.5 10 11.5ZM10 10.5C10.2761 10.5 10.5 10.2761 10.5 10C10.5 9.72386 10.2761 9.5 10 9.5C9.72386 9.5 9.5 9.72386 9.5 10C9.5 10.2761 9.72386 10.5 10 10.5ZM14 13C14 13.2761 13.7761 13.5 13.5 13.5C13.2239 13.5 13 13.2761 13 13C13 12.7239 13.2239 12.5 13.5 12.5C13.7761 12.5 14 12.7239 14 13ZM5.5 5.7C5.5 5.58954 5.58954 5.5 5.7 5.5H6.8C6.91046 5.5 7 5.58954 7 5.7V6.8C7 6.91046 6.91046 7 6.8 7H5.7C5.58954 7 5.5 6.91046 5.5 6.8V5.7ZM11.2 5.5C11.0895 5.5 11 5.58954 11 5.7V6.8C11 6.91046 11.0895 7 11.2 7H12.3C12.4105 7 12.5 6.91046 12.5 6.8V5.7C12.5 5.58954 12.4105 5.5 12.3 5.5H11.2ZM5.5 11.2C5.5 11.0895 5.58954 11 5.7 11H6.8C6.91046 11 7 11.0895 7 11.2V12.3C7 12.4105 6.91046 12.5 6.8 12.5H5.7C5.58954 12.5 5.5 12.4105 5.5 12.3V11.2Z" fill="#2B2B2C"/>
</svg>
