<svg width="18" height="18" viewBox="0 0 18 18" fill="none" xmlns="http://www.w3.org/2000/svg">
<path fill-rule="evenodd" clip-rule="evenodd" d="M15 5.5V3.25C15 3.11193 14.8881 3 14.75 3H12.5C12.2239 3 12 2.77614 12 2.5C12 2.22386 12.2239 2 12.5 2L14.75 2C15.4404 2 16 2.55964 16 3.25V5.5C16 5.77614 15.7761 6 15.5 6C15.2239 6 15 5.77614 15 5.5ZM3 3.25C3 3.11193 3.11193 3 3.25 3H5.5C5.77614 3 6 2.77614 6 2.5C6 2.22386 5.77614 2 5.5 2H3.25C2.55964 2 2 2.55964 2 3.25V5.5C2 5.77614 2.22386 6 2.5 6C2.77614 6 3 5.77614 3 5.5V3.25ZM14.75 15H12.5C12.2239 15 12 15.2239 12 15.5C12 15.7761 12.2239 16 12.5 16H14.75C15.4404 16 16 15.4404 16 14.75V12.5C16 12.2239 15.7761 12 15.5 12C15.2239 12 15 12.2239 15 12.5V14.75C15 14.8881 14.8881 15 14.75 15ZM3 14.75L3 12.5C3 12.2239 2.77614 12 2.5 12C2.22386 12 2 12.2239 2 12.5L2 14.75C2 15.4404 2.55965 16 3.25 16H5.5C5.77614 16 6 15.7761 6 15.5C6 15.2239 5.77614 15 5.5 15H3.25C3.11193 15 3 14.8881 3 14.75ZM3.99999 10C3.99999 9.72386 4.22385 9.5 4.49999 9.5H7.99999C8.27613 9.5 8.49999 9.72386 8.49999 10V13.5C8.49999 13.7761 8.27614 14 7.99999 14L4.49999 14C4.36739 14 4.24021 13.9473 4.14644 13.8536C4.05267 13.7598 3.99999 13.6326 3.99999 13.5V10ZM4.99999 10.5V13L7.49999 13V10.5H4.99999ZM10 4C9.72386 4 9.5 4.22386 9.5 4.5V8C9.5 8.27614 9.72386 8.5 10 8.5H13.5C13.7761 8.5 14 8.27614 14 8V4.5C14 4.22386 13.7761 4 13.5 4H10ZM10.5 7.5V5H13V7.5H10.5ZM4 4.5C4 4.22386 4.22386 4 4.5 4H8C8.27614 4 8.5 4.22386 8.5 4.5V8C8.5 8.27614 8.27614 8.5 8 8.5H4.5C4.22386 8.5 4 8.27614 4 8V4.5ZM5 5V7.5H7.5V5H5ZM12 9.5C11.7239 9.5 11.5 9.72386 11.5 10C11.5 10.2761 11.7239 10.5 12 10.5H13.5C13.7761 10.5 14 10.2761 14 10C14 9.72386 13.7761 9.5 13.5 9.5H12ZM11.5 11C11.2239 11 11 11.2239 11 11.5C11 11.7761 11.2239 12 11.5 12H12.5C12.7761 12 13 11.7761 13 11.5C13 11.2239 12.7761 11 12.5 11H11.5ZM10.5 12C10.5 11.7239 10.2761 11.5 10 11.5C9.72386 11.5 9.5 11.7239 9.5 12V13.5C9.5 13.7761 9.72386 14 10 14H12C12.2761 14 12.5 13.7761 12.5 13.5C12.5 13.2239 12.2761 13 12 13H10.5V12ZM10.5 10C10.5 10.2761 10.2761 10.5 10 10.5C9.72386 10.5 9.5 10.2761 9.5 10C9.5 9.72386 9.72386 9.5 10 9.5C10.2761 9.5 10.5 9.72386 10.5 10ZM13.5 13.5C13.7761 13.5 14 13.2761 14 13C14 12.7239 13.7761 12.5 13.5 12.5C13.2239 12.5 13 12.7239 13 13C13 13.2761 13.2239 13.5 13.5 13.5Z" fill="#2B2B2C"/>
</svg>
