<svg width="24" height="24" viewBox="0 0 24 24" fill="none" xmlns="http://www.w3.org/2000/svg">
<path fill-rule="evenodd" clip-rule="evenodd" d="M20 4.5C20 4.22386 19.7761 4 19.5 4L16.5 4C16.2239 4 16 3.77614 16 3.5C16 3.22386 16.2239 3 16.5 3L19.5 3C20.3284 3 21 3.67157 21 4.5V7.5C21 7.77614 20.7761 8 20.5 8C20.2239 8 20 7.77614 20 7.5V4.5ZM4 4.5C4 4.22386 4.22386 4 4.5 4H7.5C7.77614 4 8 3.77614 8 3.5C8 3.22386 7.77614 3 7.5 3H4.5C3.67157 3 3 3.67157 3 4.5V7.5C3 7.77614 3.22386 8 3.5 8C3.77614 8 4 7.77614 4 7.5V4.5ZM20 19.5C20 19.7761 19.7761 20 19.5 20H16.5C16.2239 20 16 20.2239 16 20.5C16 20.7761 16.2239 21 16.5 21H19.5C20.3284 21 21 20.3284 21 19.5V16.5C21 16.2239 20.7761 16 20.5 16C20.2239 16 20 16.2239 20 16.5V19.5ZM4.5 20C4.22386 20 4 19.7761 4 19.5L4 16.5C4 16.2239 3.77614 16 3.5 16C3.22386 16 3 16.2239 3 16.5L3 19.5C3 20.3284 3.67157 21 4.5 21H7.5C7.77614 21 8 20.7761 8 20.5C8 20.2239 7.77614 20 7.5 20H4.5ZM5.5 13.5C5.5 13.2239 5.72386 13 6 13H10.5C10.7761 13 11 13.2239 11 13.5V18C11 18.2761 10.7761 18.5 10.5 18.5H6C5.72386 18.5 5.5 18.2761 5.5 18V13.5ZM6.5 14V17.5H10V14H6.5ZM13.5 5.5C13.2239 5.5 13 5.72386 13 6V10.5C13 10.7761 13.2239 11 13.5 11H18C18.2761 11 18.5 10.7761 18.5 10.5V6C18.5 5.72386 18.2761 5.5 18 5.5H13.5ZM14 10V6.5H17.5V10H14ZM5.5 6C5.5 5.72386 5.72386 5.5 6 5.5H10.5C10.7761 5.5 11 5.72386 11 6V10.5C11 10.7761 10.7761 11 10.5 11H6C5.72386 11 5.5 10.7761 5.5 10.5V6ZM6.5 6.5V10H10V6.5H6.5ZM19 12.5C19 12.2239 18.7761 12 18.5 12C18.2239 12 18 12.2239 18 12.5V15.5H17.5C17.2239 15.5 17 15.7239 17 16C17 16.2761 17.2239 16.5 17.5 16.5H18.5C18.7761 16.5 19 16.2761 19 16V12.5ZM12.5 12.5C12.2239 12.5 12 12.7239 12 13C12 13.2761 12.2239 13.5 12.5 13.5H16.5C16.7761 13.5 17 13.2761 17 13C17 12.7239 16.7761 12.5 16.5 12.5H12.5ZM14 15C14 14.7239 13.7761 14.5 13.5 14.5C13.2239 14.5 13 14.7239 13 15V18C13 18.2761 13.2239 18.5 13.5 18.5H15.5C15.7761 18.5 16 18.2761 16 18C16 17.7239 15.7761 17.5 15.5 17.5H14V15ZM16 15C16 14.7239 15.7761 14.5 15.5 14.5C15.2239 14.5 15 14.7239 15 15V16C15 16.2761 15.2239 16.5 15.5 16.5C15.7761 16.5 16 16.2761 16 16V15ZM18.5 18C18.5 18.2761 18.2761 18.5 18 18.5C17.7239 18.5 17.5 18.2761 17.5 18C17.5 17.7239 17.7239 17.5 18 17.5C18.2761 17.5 18.5 17.7239 18.5 18ZM7.7 15C7.58954 15 7.5 15.0895 7.5 15.2V16.3C7.5 16.4105 7.58954 16.5 7.7 16.5H8.8C8.91046 16.5 9 16.4105 9 16.3V15.2C9 15.0895 8.91046 15 8.8 15H7.7ZM7.5 7.7C7.5 7.58954 7.58954 7.5 7.7 7.5H8.8C8.91046 7.5 9 7.58954 9 7.7V8.8C9 8.91046 8.91046 9 8.8 9H7.7C7.58954 9 7.5 8.91046 7.5 8.8V7.7ZM15.2 7.5C15.0895 7.5 15 7.58954 15 7.7V8.8C15 8.91046 15.0895 9 15.2 9H16.3C16.4105 9 16.5 8.91046 16.5 8.8V7.7C16.5 7.58954 16.4105 7.5 16.3 7.5H15.2Z" fill="#2B2B2C"/>
</svg>
