<svg width="18" height="18" viewBox="0 0 18 18" fill="none" xmlns="http://www.w3.org/2000/svg">
<path fill-rule="evenodd" clip-rule="evenodd" d="M3.25 3C3.11193 3 3 3.11193 3 3.25V5.5C3 5.77614 2.77614 6 2.5 6C2.22386 6 2 5.77614 2 5.5V3.25C2 2.55964 2.55964 2 3.25 2H5.5C5.77614 2 6 2.22386 6 2.5C6 2.77614 5.77614 3 5.5 3H3.25ZM14.75 15C14.8881 15 15 14.8881 15 14.75V12.5C15 12.2239 15.2239 12 15.5 12C15.7761 12 16 12.2239 16 12.5V14.75C16 15.4404 15.4404 16 14.75 16H12.5C12.2239 16 12 15.7761 12 15.5C12 15.2239 12.2239 15 12.5 15H14.75ZM15 3.25V5.5C15 5.77614 15.2239 6 15.5 6C15.7761 6 16 5.77614 16 5.5V3.25C16 2.55964 15.4404 2 14.75 2H12.5C12.2239 2 12 2.22386 12 2.5C12 2.77614 12.2239 3 12.5 3H14.75C14.8881 3 15 3.11193 15 3.25ZM3 12.5L3 14.75C3 14.8881 3.11193 15 3.25 15H5.5C5.77614 15 6 15.2239 6 15.5C6 15.7761 5.77614 16 5.5 16H3.25C2.55964 16 2 15.4404 2 14.75V12.5C2 12.2239 2.22386 12 2.5 12C2.77614 12 3 12.2239 3 12.5ZM4.5 10C4.22386 10 4 10.2239 4 10.5V13.5C4 13.7761 4.22386 14 4.5 14H7.5C7.77614 14 8 13.7761 8 13.5V10.5C8 10.2239 7.77614 10 7.5 10H4.5ZM10 4.5C10 4.22386 10.2239 4 10.5 4H13.5C13.7761 4 14 4.22386 14 4.5V7.5C14 7.77614 13.7761 8 13.5 8H10.5C10.2239 8 10 7.77614 10 7.5V4.5ZM11 5V7H13V5H11ZM4.5 4C4.22386 4 4 4.22386 4 4.5V7.5C4 7.77614 4.22386 8 4.5 8H7.5C7.77614 8 8 7.77614 8 7.5V4.5C8 4.22386 7.77614 4 7.5 4H4.5ZM6.5 12C6.5 12.2761 6.27614 12.5 6 12.5C5.72386 12.5 5.5 12.2761 5.5 12C5.5 11.7239 5.72386 11.5 6 11.5C6.27614 11.5 6.5 11.7239 6.5 12ZM5 11H7V13H5V11ZM5 7V5H7V7H5ZM6 6.5C6.27614 6.5 6.5 6.27614 6.5 6C6.5 5.72386 6.27614 5.5 6 5.5C5.72386 5.5 5.5 5.72386 5.5 6C5.5 6.27614 5.72386 6.5 6 6.5ZM12.5 6C12.5 6.27614 12.2761 6.5 12 6.5C11.7239 6.5 11.5 6.27614 11.5 6C11.5 5.72386 11.7239 5.5 12 5.5C12.2761 5.5 12.5 5.72386 12.5 6ZM9.5 4.5C9.5 4.22386 9.27614 4 9 4C8.72386 4 8.5 4.22386 8.5 4.5V8.5H4.5C4.22386 8.5 4 8.72386 4 9C4 9.27614 4.22386 9.5 4.5 9.5H9C9.27614 9.5 9.5 9.27614 9.5 9V4.5ZM11.5 9C11.5 8.72386 11.2761 8.5 11 8.5C10.7239 8.5 10.5 8.72386 10.5 9V10H9.5C9.22386 10 9 10.2239 9 10.5V13.5C9 13.7761 9.22386 14 9.5 14C9.77614 14 10 13.7761 10 13.5V11H13.5C13.7761 11 14 10.7761 14 10.5C14 10.2239 13.7761 10 13.5 10H11.5V9ZM14 9C14 9.27614 13.7761 9.5 13.5 9.5C13.2239 9.5 13 9.27614 13 9C13 8.72386 13.2239 8.5 13.5 8.5C13.7761 8.5 14 8.72386 14 9ZM12 12.5C12 12.2239 11.7761 12 11.5 12C11.2239 12 11 12.2239 11 12.5V13.5C11 13.7761 11.2239 14 11.5 14H13.5C13.7761 14 14 13.7761 14 13.5V12.5C14 12.2239 13.7761 12 13.5 12C13.2239 12 13 12.2239 13 12.5V13H12V12.5Z" fill="#2B2B2C"/>
</svg>
