<svg width="24" height="24" viewBox="0 0 24 24" fill="none" xmlns="http://www.w3.org/2000/svg">
<path fill-rule="evenodd" clip-rule="evenodd" d="M16.8536 1.14645C16.6583 0.951184 16.3418 0.951184 16.1465 1.14645L14.1465 3.14645C13.9512 3.34171 13.9512 3.65829 14.1465 3.85355C14.3418 4.04882 14.6583 4.04882 14.8536 3.85355L16.8536 1.85355C17.0489 1.65829 17.0489 1.34171 16.8536 1.14645ZM7.1464 1.14645C7.34166 0.951185 7.65825 0.951185 7.85351 1.14645L9.85351 3.14645C10.0488 3.34171 10.0488 3.65829 9.85351 3.85355C9.65825 4.04882 9.34166 4.04882 9.1464 3.85355L7.1464 1.85355C6.95114 1.65829 6.95114 1.34171 7.1464 1.14645ZM4.5 6.00005C4.5 5.7239 4.72386 5.50005 5 5.50005L8 5.50005C8.27614 5.50005 8.5 5.7239 8.5 6.00005C8.5 6.27619 8.27614 6.50005 8 6.50005L5 6.50005C4.72386 6.50005 4.5 6.27619 4.5 6.00005ZM16 5.50005C15.7239 5.50005 15.5 5.7239 15.5 6.00005C15.5 6.27619 15.7239 6.50005 16 6.50005H18.92C19.1961 6.50005 19.42 6.27619 19.42 6.00005C19.42 5.7239 19.1961 5.50005 18.92 5.50005H16ZM12 4.50005C11.1716 4.50005 10.5 5.17162 10.5 6.00005C10.5 6.65316 10.9174 7.20878 11.5 7.41469V9.00003L12.5 8.99916V7.41469C13.0826 7.20878 13.5 6.65316 13.5 6.00005C13.5 5.17162 12.8284 4.50005 12 4.50005ZM11.5 6.00005C11.5 5.72391 11.7239 5.50005 12 5.50005C12.2761 5.50005 12.5 5.72391 12.5 6.00005C12.5 6.27619 12.2761 6.50005 12 6.50005C11.7239 6.50005 11.5 6.27619 11.5 6.00005ZM4 17V18.5C4 19.8808 5.11929 21 6.5 21H17.5C18.8807 21 20 19.8808 20 18.5V17H21C21.3292 17 21.5535 16.799 21.6821 16.6213C21.8104 16.4441 21.8961 16.2242 21.9562 16.0105C22.0783 15.5767 22.1332 15.0275 22.1332 14.5001C22.1332 13.9727 22.0783 13.4235 21.9562 12.9897C21.8961 12.776 21.8104 12.5561 21.6821 12.3789C21.5535 12.2012 21.3293 12.0001 21.0001 12H20V11.5C20 10.1193 18.8807 9.00005 17.5 9.00005H6.5C5.11929 9.00005 4 10.1193 4 11.5V12H2.99983C2.67063 12.0001 2.44641 12.2012 2.31783 12.3789C2.18955 12.5561 2.10385 12.776 2.0437 12.9897C1.9216 13.4235 1.8667 13.9727 1.8667 14.5001C1.8667 15.0275 1.92162 15.5767 2.04373 16.0105C2.10388 16.2242 2.18958 16.4441 2.31788 16.6213C2.44648 16.799 2.67075 17 2.99997 17H4ZM9.47407 12.9997C9.47407 13.5478 9.04174 13.9852 8.5 13.9994C7.94386 14.0139 7.47407 13.5624 7.47407 12.9997C7.47407 12.437 7.94386 11.9855 8.5 12C9.04174 12.0143 9.47407 12.4516 9.47407 12.9997ZM15.5259 13.9997C16.0677 13.9855 16.5 13.5482 16.5 13C16.5 12.4519 16.0677 12.0146 15.5259 12.0004C14.9698 11.9858 14.5 12.4374 14.5 13C14.5 13.5627 14.9698 14.0143 15.5259 13.9997ZM8.06588 16.252C8.20288 16.0122 8.50831 15.9289 8.74807 16.0659C10.7631 17.2174 13.2369 17.2174 15.2519 16.0659C15.4917 15.9289 15.7971 16.0122 15.9341 16.252C16.0711 16.4917 15.9878 16.7972 15.7481 16.9342C13.4256 18.2613 10.5744 18.2613 8.25193 16.9342C8.01217 16.7972 7.92887 16.4917 8.06588 16.252Z" fill="#2B2B2C"/>
</svg>
