<svg width="18" height="18" viewBox="0 0 18 18" fill="none" xmlns="http://www.w3.org/2000/svg">
<path fill-rule="evenodd" clip-rule="evenodd" d="M11.596 0.646447C11.7913 0.451184 12.1079 0.451184 12.3031 0.646447C12.4984 0.841709 12.4984 1.15829 12.3031 1.35355L11.3031 2.35355C11.1079 2.54882 10.7913 2.54882 10.596 2.35355C10.4008 2.15829 10.4008 1.84171 10.596 1.64645L11.596 0.646447ZM5.59603 0.646447C5.79129 0.451185 6.10787 0.451185 6.30313 0.646447L7.30313 1.64645C7.4984 1.84171 7.49839 2.15829 7.30313 2.35355C7.10787 2.54882 6.79129 2.54882 6.59603 2.35355L5.59603 1.35355C5.40076 1.15829 5.40076 0.841709 5.59603 0.646447ZM7.44958 4.50005C7.44958 3.67162 8.12115 3.00005 8.94958 3.00005C9.77801 3.00005 10.4496 3.67162 10.4496 4.50005C10.4496 5.15316 10.0322 5.70878 9.44958 5.91469V7.00005H13.4496C14.278 7.00005 14.9496 7.67162 14.9496 8.50005V9.50049H15.9497C16.2608 9.50056 16.4586 9.70052 16.5588 9.84672C16.6612 9.99602 16.7261 10.1753 16.7702 10.3405C16.8601 10.6779 16.8995 11.0997 16.8995 11.5005C16.8995 11.9014 16.8601 12.3231 16.7702 12.6606C16.7261 12.8257 16.6612 13.005 16.5588 13.1543C16.4586 13.3005 16.2607 13.5005 15.9496 13.5005H14.9496V14.5C14.9496 15.3285 14.278 16 13.4496 16H4.44958C3.62115 16 2.94958 15.3285 2.94958 14.5V13.5H1.94982C1.63876 13.4999 1.44091 13.3 1.34069 13.1538C1.23834 13.0045 1.1734 12.8252 1.12936 12.66C1.03939 12.3225 1 11.9008 1 11.5C1 11.0991 1.03939 10.6774 1.12936 10.3399C1.1734 10.1747 1.23834 9.99546 1.34071 9.84616C1.44096 9.69995 1.63884 9.5 1.94993 9.5H2.94958V8.50005C2.94958 7.67162 3.62115 7.00005 4.44958 7.00005H8.44958V5.91469C7.86698 5.70878 7.44958 5.15316 7.44958 4.50005ZM8.94958 4.00005C8.67344 4.00005 8.44958 4.22391 8.44958 4.50005C8.44958 4.77619 8.67344 5.00005 8.94958 5.00005C9.22572 5.00005 9.44958 4.77619 9.44958 4.50005C9.44958 4.22391 9.22572 4.00005 8.94958 4.00005ZM4.44958 4.00005C4.17344 4.00005 3.94958 4.2239 3.94958 4.50005C3.94958 4.77619 4.17344 5.00005 4.44958 5.00005H5.94958C6.22572 5.00005 6.44958 4.77619 6.44958 4.50005C6.44958 4.2239 6.22572 4.00005 5.94958 4.00005L4.44958 4.00005ZM13.4496 5.00005H11.9496C11.6734 5.00005 11.4496 4.77619 11.4496 4.50005C11.4496 4.2239 11.6734 4.00005 11.9496 4.00005H13.4496C13.7257 4.00005 13.9496 4.2239 13.9496 4.50005C13.9496 4.77619 13.7257 5.00005 13.4496 5.00005ZM6.50237 12.7764C6.62586 12.5295 6.9262 12.4293 7.17319 12.5528C8.29145 13.112 9.60771 13.112 10.726 12.5528C10.973 12.4293 11.2733 12.5295 11.3968 12.7764C11.5203 13.0234 11.4202 13.3238 11.1732 13.4473C9.77339 14.1472 8.12577 14.1472 6.72597 13.4473C6.47898 13.3238 6.37887 13.0234 6.50237 12.7764ZM7.18008 10.2498C7.18008 10.6609 6.85583 10.9889 6.44952 10.9995C6.03241 11.0105 5.68008 10.6718 5.68008 10.2498C5.68008 9.82777 6.03241 9.48911 6.44952 9.50005C6.85583 9.5107 7.18008 9.8387 7.18008 10.2498ZM12.1986 10.25C12.1986 10.6639 11.8637 10.9995 11.4496 11C11.035 11.0006 10.6986 10.6645 10.6986 10.25C10.6986 9.83564 11.035 9.49946 11.4496 9.50005C11.8637 9.50064 12.1986 9.83623 12.1986 10.25Z" fill="#2B2B2C"/>
</svg>
