<svg width="18" height="18" viewBox="0 0 18 18" fill="none" xmlns="http://www.w3.org/2000/svg">
<path fill-rule="evenodd" clip-rule="evenodd" d="M12.3536 0.646447C12.1583 0.451184 11.8417 0.451184 11.6464 0.646447L10.6464 1.64645C10.4512 1.84171 10.4512 2.15829 10.6464 2.35355C10.8417 2.54882 11.1583 2.54882 11.3536 2.35355L12.3536 1.35355C12.5488 1.15829 12.5488 0.841709 12.3536 0.646447ZM6.35355 0.646447C6.15829 0.451185 5.84171 0.451185 5.64645 0.646447C5.45118 0.841709 5.45118 1.15829 5.64645 1.35355L6.64645 2.35355C6.84171 2.54882 7.15829 2.54882 7.35355 2.35355C7.54882 2.15829 7.54882 1.84171 7.35355 1.64645L6.35355 0.646447ZM7.5 4.50005C7.5 3.67162 8.17157 3.00005 9 3.00005C9.82843 3.00005 10.5 3.67162 10.5 4.50005C10.5 5.15316 10.0826 5.70878 9.5 5.91469V7.49916L8.5 7.50003V5.91469C7.9174 5.70878 7.5 5.15316 7.5 4.50005ZM9 4.00005C8.72386 4.00005 8.5 4.22391 8.5 4.50005C8.5 4.77619 8.72386 5.00005 9 5.00005C9.27614 5.00005 9.5 4.77619 9.5 4.50005C9.5 4.22391 9.27614 4.00005 9 4.00005ZM6.55617 12.7701C6.68338 12.5253 6.98475 12.4298 7.22965 12.5566L6.99983 13.0006L6.76925 13.4443C6.52423 13.317 6.42882 13.0151 6.55617 12.7701ZM11.2304 13.4443L11.2294 13.4448L11.2281 13.4455L11.2245 13.4474L11.2129 13.4532C11.2034 13.458 11.1903 13.4645 11.1737 13.4725C11.1406 13.4884 11.0937 13.5104 11.0348 13.5363C10.9172 13.5881 10.7505 13.6563 10.5489 13.7244C10.1505 13.8589 9.59325 14.0006 8.99984 14.0006C8.40638 14.0007 7.84913 13.8589 7.4507 13.7244C7.2491 13.6563 7.08239 13.5881 6.96482 13.5363C6.90591 13.5104 6.85902 13.4884 6.82591 13.4724C6.80934 13.4644 6.79619 13.4579 6.78668 13.4532L6.77517 13.4473L6.7715 13.4455L6.7702 13.4448C6.7701 13.4447 6.76925 13.4443 6.99983 13.0006C7.2304 12.557 7.22974 12.5566 7.22965 12.5566L7.23509 12.5593L7.26049 12.5718C7.28404 12.5832 7.32043 12.6003 7.36794 12.6212C7.4632 12.6632 7.60189 12.72 7.77056 12.7769C8.11266 12.8924 8.55541 13.0007 8.99982 13.0006C9.4442 13.0006 9.88696 12.8924 10.2291 12.7769C10.3978 12.7199 10.5365 12.6631 10.6317 12.6212C10.6792 12.6002 10.7156 12.5832 10.7392 12.5718L10.7646 12.5593L10.7693 12.557C11.0143 12.4298 11.3162 12.5251 11.4435 12.7701C11.5708 13.0151 11.4754 13.317 11.2304 13.4443ZM10.9998 13.0006L11.2304 13.4443C11.2305 13.4443 11.2304 13.4443 10.9998 13.0006ZM14 9.00005V13.3669L14 13.5005H14V14.5C14 14.7762 13.7761 15 13.5 15H4.5C4.22386 15 4 14.7762 4 14.5V9.65966L4.00007 9.50009H4V9.00005C4 8.7239 4.22386 8.50005 4.5 8.50005H13.5C13.7761 8.50005 14 8.7239 14 9.00005ZM15 14.5V13.5005H16C16.3111 13.5005 16.509 13.3006 16.6093 13.1544C16.7116 13.0051 16.7766 12.8258 16.8206 12.6606C16.9106 12.3232 16.95 11.9014 16.95 11.5006C16.95 11.0997 16.9106 10.678 16.8206 10.3405C16.7766 10.1754 16.7116 9.99607 16.6093 9.84677C16.509 9.70057 16.3112 9.5006 16.0001 9.50054H15V9.00005C15 8.17162 14.3284 7.50005 13.5 7.50005H4.5C3.67157 7.50005 3 8.17162 3 9.00005V9.50005H1.99989C1.68883 9.50012 1.49098 9.70008 1.39076 9.84628C1.28841 9.99558 1.22347 10.1749 1.17943 10.34C1.08946 10.6775 1.05008 11.0993 1.05008 11.5001C1.05008 11.9009 1.08947 12.3227 1.17945 12.6601C1.22349 12.8253 1.28843 13.0046 1.3908 13.1539C1.49104 13.3001 1.68893 13.5 2.00002 13.5H3V14.5C3 15.3285 3.67157 16 4.5 16H13.5C14.3284 16 15 15.3285 15 14.5ZM15.0001 12.5005L15.0003 10.5005L15.8243 10.5005C15.8337 10.5266 15.8439 10.5589 15.8544 10.5982C15.9144 10.8232 15.95 11.1514 15.95 11.5006C15.95 11.8497 15.9144 12.178 15.8544 12.403C15.8439 12.4422 15.8337 12.4744 15.8244 12.5005H15.0001ZM2.99964 10.5L2.17569 10.5C2.16636 10.5261 2.15614 10.5584 2.14568 10.5977C2.08568 10.8227 2.05008 11.151 2.05008 11.5001C2.05008 11.8492 2.08569 12.1775 2.14569 12.4025C2.15615 12.4417 2.16636 12.474 2.17568 12.5H2.9988L2.99964 10.5ZM4 4.50005C4 4.2239 4.22386 4.00005 4.5 4.00005L6 4.00005C6.27614 4.00005 6.5 4.2239 6.5 4.50005C6.5 4.77619 6.27614 5.00005 6 5.00005H4.5C4.22386 5.00005 4 4.77619 4 4.50005ZM12 5.00005H13.5C13.7761 5.00005 14 4.77619 14 4.50005C14 4.2239 13.7761 4.00005 13.5 4.00005H12C11.7239 4.00005 11.5 4.2239 11.5 4.50005C11.5 4.77619 11.7239 5.00005 12 5.00005ZM7.23053 10.2498C7.23053 10.6609 6.90628 10.9889 6.49997 10.9995C6.08287 11.0105 5.73053 10.6718 5.73053 10.2498C5.73053 9.82778 6.08287 9.48911 6.49997 9.50005C6.90628 9.5107 7.23053 9.8387 7.23053 10.2498ZM11.5 11C11.9141 10.9995 12.249 10.6639 12.249 10.25C12.249 9.83623 11.9141 9.50064 11.5 9.50005C11.0854 9.49946 10.749 9.83564 10.749 10.25C10.749 10.6645 11.0854 11.0006 11.5 11Z" fill="#2B2B2C"/>
</svg>
