<svg width="24" height="24" viewBox="0 0 24 24" fill="none" xmlns="http://www.w3.org/2000/svg">
<path fill-rule="evenodd" clip-rule="evenodd" d="M16.8535 1.14645C16.6583 0.951184 16.3417 0.951184 16.1464 1.14645L14.1464 3.14645C13.9512 3.34171 13.9512 3.65829 14.1464 3.85355C14.3417 4.04882 14.6583 4.04882 14.8535 3.85355L16.8535 1.85355C17.0488 1.65829 17.0488 1.34171 16.8535 1.14645ZM7.14646 1.14645C7.34172 0.951185 7.65831 0.951185 7.85357 1.14645L9.85357 3.14645C10.0488 3.34171 10.0488 3.65829 9.85357 3.85355C9.65831 4.04882 9.34172 4.04882 9.14646 3.85355L7.14646 1.85355C6.9512 1.65829 6.9512 1.34171 7.14646 1.14645ZM4.5 6.00005C4.5 5.7239 4.72386 5.50005 5 5.50005L8 5.50005C8.27614 5.50005 8.5 5.7239 8.5 6.00005C8.5 6.27619 8.27614 6.50005 8 6.50005L5 6.50005C4.72386 6.50005 4.5 6.27619 4.5 6.00005ZM16 5.50005C15.7239 5.50005 15.5 5.7239 15.5 6.00005C15.5 6.27619 15.7239 6.50005 16 6.50005H18.92C19.1961 6.50005 19.42 6.27619 19.42 6.00005C19.42 5.7239 19.1961 5.50005 18.92 5.50005H16ZM10.5 6.00005C10.5 5.17162 11.1716 4.50005 12 4.50005C12.8284 4.50005 13.5 5.17162 13.5 6.00005C13.5 6.65316 13.0826 7.20878 12.5 7.41469V9.00005H17.5C18.8807 9.00005 20 10.1193 20 11.5V12H21.0001C21.3293 12.0001 21.5535 12.2012 21.6821 12.3789C21.8104 12.5561 21.8961 12.776 21.9562 12.9897C22.0783 13.4235 22.1332 13.9727 22.1332 14.5001C22.1332 15.0275 22.0783 15.5767 21.9562 16.0105C21.8961 16.2242 21.8104 16.4441 21.6821 16.6213C21.5535 16.799 21.3292 17 21 17H20V18.5C20 19.8808 18.8807 21 17.5 21H6.5C5.11929 21 4 19.8808 4 18.5V17H2.99985C2.67065 17 2.44642 16.7989 2.31784 16.6212C2.18956 16.444 2.10386 16.2241 2.04371 16.0104C1.92161 15.5766 1.8667 15.0274 1.8667 14.5C1.8667 13.9726 1.92161 13.4234 2.04372 12.9896C2.10386 12.7759 2.18957 12.556 2.31786 12.3788C2.44647 12.2011 2.67073 12 2.99996 12H4V11.5C4 10.1193 5.11929 9.00005 6.5 9.00005H11.5V7.41469C10.9174 7.20878 10.5 6.65316 10.5 6.00005ZM12 5.50005C11.7239 5.50005 11.5 5.72391 11.5 6.00005C11.5 6.27619 11.7239 6.50005 12 6.50005C12.2761 6.50005 12.5 6.27619 12.5 6.00005C12.5 5.72391 12.2761 5.50005 12 5.50005ZM5 17H5.00042L5.00042 12H5V11.5C5 10.6716 5.67157 10 6.5 10H17.5C18.3284 10 19 10.6716 19 11.5V12.0001H18.9995V17H19V18.5C19 19.3285 18.3284 20 17.5 20H6.5C5.67157 20 5 19.3285 5 18.5V17ZM4 13H3.10598C3.07764 13.0506 3.04172 13.1347 3.00631 13.2605C2.91733 13.5766 2.8667 14.0274 2.8667 14.5C2.8667 14.9726 2.91733 15.4233 3.00632 15.7395C3.04174 15.8654 3.07767 15.9495 3.10602 16.0001L4 16.0001V13ZM20 16H20.894C20.9223 15.9495 20.9582 15.8654 20.9936 15.7396C21.0826 15.4235 21.1332 14.9727 21.1332 14.5001C21.1332 14.0275 21.0826 13.5767 20.9936 13.2606C20.9582 13.1347 20.9223 13.0506 20.8939 13L20 13V16ZM8.0659 16.2521C8.2029 16.0123 8.50833 15.929 8.74809 16.066C10.7464 17.2079 13.2536 17.2079 15.252 16.066C15.4917 15.929 15.7971 16.0123 15.9341 16.2521C16.0711 16.4918 15.9878 16.7972 15.7481 16.9343C13.4423 18.2518 10.5577 18.2518 8.25195 16.9343C8.01219 16.7972 7.92889 16.4918 8.0659 16.2521ZM7.974 12.9998C7.974 12.7203 8.20996 12.4927 8.48681 12.5C8.75981 12.5071 8.974 12.7249 8.974 12.9998C8.974 13.2747 8.75981 13.4925 8.48681 13.4996C8.20996 13.5069 7.974 13.2793 7.974 12.9998ZM8.51303 11.5003C7.67762 11.4784 6.974 12.1539 6.974 12.9998C6.974 13.8457 7.67762 14.5212 8.51303 14.4993C9.32352 14.478 9.974 13.8212 9.974 12.9998C9.974 12.1785 9.32352 11.5216 8.51303 11.5003ZM15.5128 12.5002C15.2359 12.493 14.9999 12.7205 14.9999 13C14.9999 13.2796 15.2359 13.5071 15.5128 13.4999C15.7858 13.4927 15.9999 13.2749 15.9999 13C15.9999 12.7252 15.7858 12.5074 15.5128 12.5002ZM13.9999 13C13.9999 12.1542 14.7036 11.4787 15.539 11.5006C16.3495 11.5218 16.9999 12.1787 16.9999 13C16.9999 13.8214 16.3495 14.4783 15.539 14.4995C14.7036 14.5214 13.9999 13.8459 13.9999 13Z" fill="#2B2B2C"/>
</svg>
