<svg width="30" height="30" viewBox="0 0 30 30" fill="none" xmlns="http://www.w3.org/2000/svg">
<path fill-rule="evenodd" clip-rule="evenodd" d="M19.0839 1.22246C19.2371 0.992695 19.5475 0.930608 19.7773 1.08378C20.0071 1.23696 20.0691 1.54739 19.916 1.77716L17.916 4.77716C17.7628 5.00692 17.4524 5.06901 17.2226 4.91583C16.9928 4.76266 16.9307 4.45222 17.0839 4.22246L19.0839 1.22246ZM10.2222 1.08476C10.452 0.931584 10.7624 0.993671 10.9156 1.22344L12.9156 4.22344C13.0688 4.4532 13.0067 4.76363 12.7769 4.91681C12.5472 5.06999 12.2367 5.0079 12.0835 4.77814L10.0835 1.77814C9.93036 1.54837 9.99245 1.23794 10.2222 1.08476ZM14.9999 5.49965C13.8953 5.49965 12.9999 6.39508 12.9999 7.49965C12.9999 8.43157 13.6373 9.21462 14.4999 9.43664V10.9994H7.49998C6.12656 10.9994 5.00001 12.0673 4.99998 13.4994L4.99978 16.0084L4.2384 16.0085C3.87613 16.0086 3.63616 16.2433 3.50119 16.4428C3.36347 16.6464 3.26884 16.9031 3.20093 17.1612C3.06321 17.6847 2.99984 18.3547 2.99988 19.0041C2.99992 19.6534 3.06336 20.3234 3.20115 20.8469C3.26909 21.105 3.36374 21.3617 3.5015 21.5652C3.6365 21.7647 3.87653 21.9994 4.23882 21.9994H4.99998L4.99998 24.4994C4.99998 25.9314 6.12643 26.9998 7.49998 26.9998H22.5C23.8735 26.9998 25 25.9314 25 24.4994V21.9994H25.7612C26.1239 21.9994 26.3639 21.764 26.4987 21.5645C26.6364 21.3607 26.731 21.1037 26.7989 20.8452C26.9366 20.321 27 19.6499 27 18.9995C27 18.3491 26.9366 17.678 26.7989 17.1537C26.731 16.8952 26.6364 16.6383 26.4988 16.4345C26.364 16.2349 26.124 15.9995 25.7613 15.9994L25 15.9994V13.4994C25 12.0673 23.8734 10.9994 22.5 10.9994H15.4999V9.43664C16.3625 9.21462 16.9999 8.43157 16.9999 7.49965C16.9999 6.39508 16.1044 5.49965 14.9999 5.49965ZM13.9999 7.49965C13.9999 6.94737 14.4476 6.49965 14.9999 6.49965C15.5522 6.49965 15.9999 6.94737 15.9999 7.49965C15.9999 8.05194 15.5522 8.49965 14.9999 8.49965C14.4476 8.49965 13.9999 8.05194 13.9999 7.49965ZM4.32592 17.0085L4.99976 17.0084L4.99998 20.9994H4.32613C4.27975 20.9286 4.22205 20.7969 4.16821 20.5923C4.05967 20.18 3.99991 19.6024 3.99988 19.004C3.99984 18.4057 4.05954 17.828 4.16802 17.4156C4.22185 17.2111 4.27955 17.0793 4.32592 17.0085ZM7.49998 11.9994C6.66428 11.9994 5.99998 12.6341 5.99998 13.4994L5.99998 24.4994C5.99998 25.3649 6.6644 25.9998 7.49998 25.9998H22.5C23.3356 25.9998 24 25.3649 24 24.4994V13.4994C24 12.634 23.3357 11.9994 22.5 11.9994H7.49998ZM25.6736 20.9994H25V16.9994L25.6735 16.9994C25.72 17.0704 25.7778 17.2027 25.8317 17.4078C25.9402 17.8211 26 18.4 26 18.9995C26 19.599 25.9402 20.1779 25.8317 20.5912C25.7778 20.7962 25.7201 20.9284 25.6736 20.9994ZM11.2353 21.0582C10.9916 20.9283 10.6888 21.0205 10.5588 21.2641C10.4289 21.5078 10.521 21.8106 10.7647 21.9406C12.2578 22.7369 13.3077 22.9994 15 22.9994C16.6922 22.9994 17.7421 22.7369 19.2353 21.9406C19.4789 21.8106 19.5711 21.5078 19.4412 21.2641C19.3112 21.0205 19.0083 20.9283 18.7647 21.0582C17.4164 21.7773 16.5281 21.9994 15 21.9994C13.4719 21.9994 12.5836 21.7773 11.2353 21.0582ZM7.5 6.99892C7.22386 6.99892 7 7.22278 7 7.49892C7 7.77506 7.22386 7.99892 7.5 7.99892L11 7.99892C11.2761 7.99892 11.5 7.77506 11.5 7.49892C11.5 7.22278 11.2761 6.99892 11 6.99892L7.5 6.99892ZM18.5 7.50087C18.5 7.22473 18.7239 7.00087 19 7.00087H22.5C22.7761 7.00087 23 7.22473 23 7.50087C23 7.77701 22.7761 8.00087 22.5 8.00087H19C18.7239 8.00087 18.5 7.77701 18.5 7.50087ZM10 15.9994C9.44772 15.9994 9 16.4471 9 16.9994C9 17.5517 9.44771 17.9994 10 17.9994C10.5523 17.9994 11 17.5517 11 16.9994C11 16.4471 10.5523 15.9994 10 15.9994ZM8 16.9994C8 15.8948 8.89543 14.9994 10 14.9994C11.1046 14.9994 12 15.8948 12 16.9994C12 18.104 11.1046 18.9994 10 18.9994C8.89543 18.9994 8 18.104 8 16.9994ZM18.5 16.9994C18.5 16.4471 18.9477 15.9994 19.5 15.9994C20.0523 15.9994 20.5 16.4471 20.5 16.9994C20.5 17.5517 20.0523 17.9994 19.5 17.9994C18.9477 17.9994 18.5 17.5517 18.5 16.9994ZM19.5 14.9994C18.3954 14.9994 17.5 15.8948 17.5 16.9994C17.5 18.104 18.3954 18.9994 19.5 18.9994C20.6046 18.9994 21.5 18.104 21.5 16.9994C21.5 15.8948 20.6046 14.9994 19.5 14.9994Z" fill="#2B2B2C"/>
</svg>
