<svg width="31" height="30" viewBox="0 0 31 30" fill="none" xmlns="http://www.w3.org/2000/svg">
<path fill-rule="evenodd" clip-rule="evenodd" d="M20.2774 1.08378C20.0477 0.930608 19.7372 0.992695 19.584 1.22246L17.584 4.22246C17.4309 4.45222 17.493 4.76266 17.7227 4.91583C17.9525 5.06901 18.2629 5.00692 18.4161 4.77716L20.4161 1.77716C20.5693 1.54739 20.5072 1.23696 20.2774 1.08378ZM11.4156 1.22344C11.2624 0.993671 10.952 0.931584 10.7222 1.08476C10.4925 1.23794 10.4304 1.54837 10.5835 1.77814L12.5835 4.77814C12.7367 5.0079 13.0472 5.06999 13.2769 4.91681C13.5067 4.76363 13.5688 4.4532 13.4156 4.22344L11.4156 1.22344ZM13.4999 7.49965C13.4999 6.39508 14.3953 5.49965 15.4999 5.49965C16.6044 5.49965 17.4999 6.39508 17.4999 7.49965C17.4999 8.43157 16.8625 9.21462 15.9999 9.43664V10.9994H23C24.3734 10.9994 25.5 12.0673 25.5 13.4994V15.9994L26.2613 15.9994C26.624 15.9995 26.864 16.2349 26.9988 16.4345C27.1364 16.6383 27.231 16.8952 27.2989 17.1537C27.4366 17.678 27.5 18.3491 27.5 18.9995C27.5 19.6499 27.4366 20.321 27.2989 20.8452C27.231 21.1037 27.1364 21.3607 26.9987 21.5645C26.8639 21.764 26.6239 21.9994 26.2612 21.9994H25.5V24.4994C25.5 25.9314 24.3735 26.9998 23 26.9998H7.99998C6.62643 26.9998 5.49998 25.9314 5.49998 24.4994L5.49998 21.9994H4.73882C4.37653 21.9994 4.1365 21.7647 4.0015 21.5652C3.86374 21.3617 3.76909 21.105 3.70115 20.8469C3.56336 20.3234 3.49992 19.6534 3.49988 19.0041C3.49984 18.3547 3.56321 17.6847 3.70093 17.1612C3.76884 16.9031 3.86347 16.6464 4.00119 16.4428C4.13616 16.2433 4.37613 16.0086 4.7384 16.0085L5.49978 16.0084L5.49998 13.4994C5.50001 12.0673 6.62656 10.9994 7.99998 10.9994H14.9999V9.43664C14.1373 9.21462 13.4999 8.43157 13.4999 7.49965ZM15.4999 6.49965C14.9476 6.49965 14.4999 6.94737 14.4999 7.49965C14.4999 8.05194 14.9476 8.49965 15.4999 8.49965C16.0522 8.49965 16.4999 8.05194 16.4999 7.49965C16.4999 6.94737 16.0522 6.49965 15.4999 6.49965ZM7.5 7.49892C7.5 7.22278 7.72386 6.99892 8 6.99892L11.5 6.99892C11.7761 6.99892 12 7.22278 12 7.49892C12 7.77506 11.7761 7.99892 11.5 7.99892L8 7.99892C7.72386 7.99892 7.5 7.77506 7.5 7.49892ZM19.5 7.00087C19.2239 7.00087 19 7.22473 19 7.50087C19 7.77701 19.2239 8.00087 19.5 8.00087H23C23.2761 8.00087 23.5 7.77701 23.5 7.50087C23.5 7.22473 23.2761 7.00087 23 7.00087H19.5ZM11.0588 21.2642C11.1888 21.0206 11.4916 20.9284 11.7353 21.0584C13.0836 21.7775 13.9719 21.9995 15.5 21.9995C17.0281 21.9995 17.9164 21.7775 19.2647 21.0584C19.5084 20.9284 19.8112 21.0206 19.9412 21.2642C20.0711 21.5079 19.979 21.8108 19.7353 21.9407C18.2421 22.7371 17.1922 22.9995 15.5 22.9995C13.8078 22.9995 12.7579 22.7371 11.2647 21.9407C11.0211 21.8108 10.9289 21.5079 11.0588 21.2642ZM10.5 18.4995C11.3284 18.4995 12 17.828 12 16.9995C12 16.1711 11.3284 15.4995 10.5 15.4995C9.67157 15.4995 9 16.1711 9 16.9995C9 17.828 9.67157 18.4995 10.5 18.4995ZM21.5 16.9995C21.5 17.828 20.8284 18.4995 20 18.4995C19.1716 18.4995 18.5 17.828 18.5 16.9995C18.5 16.1711 19.1716 15.4995 20 15.4995C20.8284 15.4995 21.5 16.1711 21.5 16.9995Z" fill="#2B2B2C"/>
</svg>
