<svg width="24" height="24" viewBox="0 0 24 24" fill="none" xmlns="http://www.w3.org/2000/svg">
<path fill-rule="evenodd" clip-rule="evenodd" d="M5 4.5C5 3.67157 5.67157 3 6.5 3H13.5C14.3284 3 15 3.67157 15 4.5V10.5H10C9.17157 10.5 8.5 11.1716 8.5 12C8.5 12.8284 9.17157 13.5 10 13.5H15V18H5V4.5ZM5 19V19.5C5 20.3284 5.67157 21 6.5 21H13.5C14.3284 21 15 20.3284 15 19.5V19H5ZM8.5 5C8.5 4.72386 8.72386 4.5 9 4.5H11C11.2761 4.5 11.5 4.72386 11.5 5C11.5 5.27614 11.2761 5.5 11 5.5H9C8.72386 5.5 8.5 5.27614 8.5 5ZM13 5.50001C13.2761 5.50001 13.5 5.27615 13.5 5.00001C13.5 4.72387 13.2761 4.50001 13 4.50001C12.7238 4.50001 12.5 4.72387 12.5 5.00001C12.5 5.27615 12.7238 5.50001 13 5.50001ZM17.8904 9.18767C17.7179 8.97204 17.4033 8.93708 17.1877 9.10958C16.972 9.28209 16.9371 9.59674 17.1096 9.81237L18.4597 11.5H10C9.72386 11.5 9.5 11.7239 9.5 12C9.5 12.2762 9.72386 12.5 10 12.5H18.4597L17.1096 14.1877C16.9371 14.4033 16.972 14.7179 17.1877 14.8905C17.4033 15.063 17.7179 15.028 17.8904 14.8124L19.8904 12.3124C20.0365 12.1298 20.0365 11.8703 19.8904 11.6877L17.8904 9.18767Z" fill="#2B2B2C"/>
</svg>
