<svg width="18" height="18" viewBox="0 0 18 18" fill="none" xmlns="http://www.w3.org/2000/svg">
<path fill-rule="evenodd" clip-rule="evenodd" d="M3 3.25C3 2.55964 3.55964 2 4.25 2H9.75C10.4404 2 11 2.55964 11 3.25V8.50003H13.5L12.6 7.30003C12.4343 7.07912 12.4791 6.76571 12.7 6.60003C12.9209 6.43434 13.2343 6.47912 13.4 6.70003L14.9 8.70003C15.0333 8.87781 15.0333 9.12225 14.9 9.30003L13.4 11.3C13.2343 11.5209 12.9209 11.5657 12.7 11.4C12.4791 11.2343 12.4343 10.9209 12.6 10.7L13.5 9.50003H11V13.5V14.75C11 15.4404 10.4404 16 9.75 16H4.25C3.55964 16 3 15.4404 3 14.75V13.5V3.25ZM10 8.50003H7.5C7.22386 8.50003 7 8.72389 7 9.00003C7 9.27617 7.22386 9.50003 7.5 9.50003H10V13H4V3.25C4 3.11193 4.11193 3 4.25 3H9.75C9.88807 3 10 3.11193 10 3.25V8.50003ZM10 14.75V14H4V14.75C4 14.8881 4.11193 15 4.25 15H9.75C9.88807 15 10 14.8881 10 14.75ZM5.5 4.5C5.5 4.22386 5.72386 4 6 4H8C8.27614 4 8.5 4.22386 8.5 4.5C8.5 4.77614 8.27614 5 8 5H6C5.72386 5 5.5 4.77614 5.5 4.5Z" fill="#2B2B2C"/>
</svg>
