<svg width="24" height="24" viewBox="0 0 24 24" fill="none" xmlns="http://www.w3.org/2000/svg">
<path fill-rule="evenodd" clip-rule="evenodd" d="M5 4.5C5 3.67157 5.67157 3 6.5 3H13.5C14.3284 3 15 3.67157 15 4.5V11.5H18.4597L17.1096 9.81237C16.9371 9.59674 16.972 9.28209 17.1877 9.10958C17.4033 8.93708 17.7179 8.97204 17.8904 9.18767L19.8904 11.6877C20.0365 11.8703 20.0365 12.1298 19.8904 12.3124L17.8904 14.8124C17.7179 15.028 17.4033 15.063 17.1877 14.8905C16.972 14.7179 16.9371 14.4033 17.1096 14.1877L18.4597 12.5H15V18.5V19.5C15 20.3284 14.3284 21 13.5 21H6.5C5.67157 21 5 20.3284 5 19.5V18.5V4.5ZM14 11.5H10C9.72386 11.5 9.5 11.7239 9.5 12C9.5 12.2762 9.72386 12.5 10 12.5H14V18H6V4.5C6 4.22386 6.22386 4 6.5 4H13.5C13.7761 4 14 4.22386 14 4.5V11.5ZM14 19.5V19H6V19.5C6 19.7761 6.22386 20 6.5 20H13.5C13.7761 20 14 19.7761 14 19.5ZM8.5 5.5C8.5 5.22386 8.72386 5 9 5H11C11.2761 5 11.5 5.22386 11.5 5.5C11.5 5.77614 11.2761 6 11 6H9C8.72386 6 8.5 5.77614 8.5 5.5ZM12.5 6C12.7761 6 13 5.77614 13 5.5C13 5.22386 12.7761 5 12.5 5C12.2239 5 12 5.22386 12 5.5C12 5.77614 12.2239 6 12.5 6Z" fill="#2B2B2C"/>
</svg>
