<svg width="30" height="30" viewBox="0 0 30 30" fill="none" xmlns="http://www.w3.org/2000/svg">
<path fill-rule="evenodd" clip-rule="evenodd" d="M5.5 4.75C5.5 3.7835 6.2835 3 7.25 3H16.75C17.7165 3 18.5 3.7835 18.5 4.75V13.5H12.5C11.6716 13.5 11 14.1716 11 15C11 15.8284 11.6716 16.5 12.5 16.5H18.5V23.5H5.5V4.75ZM12.2011 14.5992C12.2845 14.5369 12.3879 14.5 12.5 14.5H18.5V14.5H24.4129L22.1204 11.8254C21.9407 11.6157 21.9649 11.3001 22.1746 11.1204C22.3843 10.9407 22.6999 10.965 22.8796 11.1746L25.8796 14.6746C26.0401 14.8619 26.0401 15.1382 25.8796 15.3254L22.8796 18.8254C22.6999 19.0351 22.3843 19.0593 22.1746 18.8796C21.9649 18.6999 21.9407 18.3843 22.1204 18.1746L24.4129 15.5H12.5C12.3619 15.5 12.2369 15.444 12.1464 15.3536C12.056 15.2631 12 15.1381 12 15C12 14.8359 12.079 14.6903 12.2011 14.5992ZM5.5 24.5V25.25C5.5 26.2165 6.2835 27 7.25 27H16.75C17.7165 27 18.5 26.2165 18.5 25.25V24.5H5.5ZM10 5.5C10 5.22386 10.2239 5 10.5 5H13.5C13.7761 5 14 5.22386 14 5.5C14 5.77614 13.7761 6 13.5 6H10.5C10.2239 6 10 5.77614 10 5.5ZM15.5 6C15.7761 6 16 5.77614 16 5.5C16 5.22386 15.7761 5 15.5 5C15.2239 5 15 5.22386 15 5.5C15 5.77614 15.2239 6 15.5 6Z" fill="#2B2B2C"/>
</svg>
