<svg width="18" height="18" viewBox="0 0 18 18" fill="none" xmlns="http://www.w3.org/2000/svg">
<path fill-rule="evenodd" clip-rule="evenodd" d="M3 3.25C3 2.55964 3.55964 2 4.25 2H9.75C10.4404 2 11 2.55964 11 3.25V7.5H8C7.17157 7.5 6.5 8.17157 6.5 9C6.5 9.82843 7.17157 10.5 8 10.5H11V13H3V3.25ZM3 14V14.75C3 15.4404 3.55964 16 4.25 16H9.75C10.4404 16 11 15.4404 11 14.75V14H3ZM6 3.49998C5.72386 3.49998 5.5 3.72384 5.5 3.99998C5.5 4.27613 5.72386 4.49998 6 4.49998H8C8.27614 4.49998 8.5 4.27613 8.5 3.99998C8.5 3.72384 8.27614 3.49998 8 3.49998H6ZM13.4 6.70003C13.2343 6.47912 12.9209 6.43434 12.7 6.60003C12.4791 6.76571 12.4343 7.07912 12.6 7.30003L13.5 8.50003H8C7.72386 8.50003 7.5 8.72389 7.5 9.00003C7.5 9.27617 7.72386 9.50003 8 9.50003H13.5L12.6 10.7C12.4343 10.9209 12.4791 11.2343 12.7 11.4C12.9209 11.5657 13.2343 11.5209 13.4 11.3L14.9 9.30003C15.0333 9.12225 15.0333 8.87781 14.9 8.70003L13.4 6.70003Z" fill="#2B2B2C"/>
</svg>
