<svg width="30" height="30" viewBox="0 0 30 30" fill="none" xmlns="http://www.w3.org/2000/svg">
<path fill-rule="evenodd" clip-rule="evenodd" d="M5.5 4.75C5.5 3.7835 6.2835 3 7.25 3H16.75C17.7165 3 18.5 3.7835 18.5 4.75V14.5H24.4129L22.1204 11.8254C21.9407 11.6157 21.9649 11.3001 22.1746 11.1204C22.3843 10.9407 22.6999 10.965 22.8796 11.1746L25.8796 14.6746C26.0401 14.8619 26.0401 15.1382 25.8796 15.3254L22.8796 18.8254C22.6999 19.0351 22.3843 19.0593 22.1746 18.8796C21.9649 18.6999 21.9407 18.3843 22.1204 18.1746L24.4129 15.5H18.5V24V25.25C18.5 26.2165 17.7165 27 16.75 27H7.25C6.2835 27 5.5 26.2165 5.5 25.25V24V4.75ZM6.5 24.5V25.25C6.5 25.6642 6.83579 26 7.25 26H16.75C17.1642 26 17.5 25.6642 17.5 25.25V24.5H6.5ZM17.5 23.5H6.5V4.75C6.5 4.33579 6.83579 4 7.25 4H16.75C17.1642 4 17.5 4.33579 17.5 4.75V14.5H12.5C12.2239 14.5 12 14.7239 12 15C12 15.2762 12.2239 15.5 12.5 15.5H17.5V23.5ZM10.5 5C10.2239 5 10 5.22386 10 5.5C10 5.77614 10.2239 6 10.5 6H13.5C13.7761 6 14 5.77614 14 5.5C14 5.22386 13.7761 5 13.5 5H10.5ZM16 5.5C16 5.77614 15.7761 6 15.5 6C15.2239 6 15 5.77614 15 5.5C15 5.22386 15.2239 5 15.5 5C15.7761 5 16 5.22386 16 5.5Z" fill="#2B2B2C"/>
</svg>
