<svg width="18" height="19" viewBox="0 0 18 19" fill="none" xmlns="http://www.w3.org/2000/svg">
  <path fill-rule="evenodd" clip-rule="evenodd"
    d="M14 2.74204C14 2.02691 13.1887 1.61378 12.6103 2.03439L7.83741 5.50562H4.25C3.55964 5.50562 3 6.06527 3 6.75562V11.2556C3 11.946 3.55964 12.5056 4.25 12.5056H6.8835L4.61832 15.1827C4.43995 15.3935 4.46624 15.7089 4.67704 15.8873C4.88784 16.0657 5.20333 16.0394 5.3817 15.8286L5.84207 15.2845C5.85974 15.2487 5.88202 15.2145 5.90897 15.1827L16.4486 2.72672C16.5479 2.5256 16.5019 2.27536 16.323 2.12393C16.1122 1.94556 15.7967 1.97185 15.6183 2.18265L14 4.09521V2.74204ZM8.5 10.5952L13 5.27703V2.98751L8.5 6.26024V10.5952ZM7.5 6.50562H4.25C4.11193 6.50562 4 6.61755 4 6.75562V11.2556C4 11.3937 4.11193 11.5056 4.25 11.5056H7.5V6.50562Z"
    fill="#2B2B2C" />
  <path
    d="M14 7.16865L13 8.35047V15.0237L9.50448 12.4815L8.85679 13.247L12.6103 15.9769C13.1887 16.3975 14 15.9843 14 15.2692V7.16865Z"
    fill="#2B2B2C" />
</svg>
  