<svg width="30" height="31" viewBox="0 0 30 31" fill="none" xmlns="http://www.w3.org/2000/svg">
  <path
    d="M23 10.113L22 11.3857V24.8378C22 24.9377 21.8887 24.9972 21.8057 24.9418L14.9433 20.3669L14.3236 21.1557L21.251 25.7739C21.9986 26.2723 23 25.7363 23 24.8378V10.113Z"
    fill="#2B2B2C" />
  <path fill-rule="evenodd" clip-rule="evenodd"
    d="M9.85415 25.2279L9.39318 25.8145C9.22257 26.0317 8.90825 26.0694 8.69111 25.8988C8.47397 25.7282 8.43626 25.4139 8.60686 25.1967L12.2927 20.5056H7.75C6.7835 20.5056 6 19.7221 6 18.7556V11.2556C6 10.2891 6.7835 9.50564 7.75 9.50564H13.3486L21.251 4.2374C21.9986 3.73899 23 4.27493 23 5.17346V6.87819L25.1069 4.19673C25.2775 3.97959 25.5918 3.94187 25.8089 4.11248C26.0159 4.27509 26.0599 4.56826 25.9158 4.7834L9.87676 25.1967C9.86877 25.2069 9.86123 25.2173 9.85415 25.2279ZM22 5.17346V8.15091L14 18.3327V10.2732L21.8057 5.06946C21.8887 5.01408 22 5.07362 22 5.17346ZM13 10.5056H7.75C7.33579 10.5056 7 10.8414 7 11.2556V18.7556C7 19.1699 7.33579 19.5056 7.75 19.5056H13V10.5056Z"
    fill="#2B2B2C" />
</svg>
  