<svg width="24" height="25" viewBox="0 0 24 25" fill="none" xmlns="http://www.w3.org/2000/svg">
  <path fill-rule="evenodd" clip-rule="evenodd"
    d="M20.454 4.21541C20.5478 4.01277 20.4966 3.76484 20.3153 3.61757C20.101 3.44344 19.7861 3.47602 19.612 3.69033L18 5.67428V4.52107C18 3.69139 17.0479 3.22258 16.3903 3.72844L10.8299 8.00564H6.5C5.67157 8.00564 5 8.67721 5 9.50564V14.5056C5 15.3341 5.67157 16.0056 6.5 16.0056H9.60578L6.61196 19.6903C6.43783 19.9047 6.4704 20.2196 6.68472 20.3937C6.89904 20.5678 7.21394 20.5352 7.38807 20.3209L7.8147 19.7959C7.83182 19.7589 7.85376 19.7234 7.88064 19.6903L20.454 4.21541ZM17 4.52107V6.90505L11.5 13.6743V8.75184L17 4.52107ZM10.5 9.00564V14.9051L10.4183 15.0056H6.5C6.22386 15.0056 6 14.7818 6 14.5056V9.50564C6 9.22949 6.22386 9.00564 6.5 9.00564H10.5Z"
    fill="#2B2B2C" />
  <path
    d="M18 8.82154L17 10.0523V19.4902L12.2811 15.8602L11.6502 16.6366L16.3903 20.2828C17.0479 20.7887 18 20.3199 18 19.4902V8.82154Z"
    fill="#2B2B2C" />
</svg>
  