<svg width="30" height="30" viewBox="0 0 30 30" fill="none" xmlns="http://www.w3.org/2000/svg">
<path fill-rule="evenodd" clip-rule="evenodd" d="M4.5 5C3.67157 5 3 5.67157 3 6.5V21.5C3 22.3284 3.67157 23 4.5 23H15.5V26.5C15.5 26.6844 15.6015 26.8538 15.7641 26.9408C15.9267 27.0278 16.1239 27.0183 16.2774 26.916L22.1514 23H25.5C26.3284 23 27 22.3284 27 21.5V6.5C27 5.67157 26.3284 5 25.5 5H4.5ZM6.5 10C6.5 9.72386 6.72386 9.5 7 9.5H23C23.2761 9.5 23.5 9.72386 23.5 10C23.5 10.2761 23.2761 10.5 23 10.5H7C6.72386 10.5 6.5 10.2761 6.5 10ZM7 13.5C6.72386 13.5 6.5 13.7239 6.5 14C6.5 14.2761 6.72386 14.5 7 14.5H23C23.2761 14.5 23.5 14.2761 23.5 14C23.5 13.7239 23.2761 13.5 23 13.5H7ZM15.5 18C15.5 18.2761 15.2761 18.5 15 18.5H7.00001C6.72387 18.5 6.50001 18.2761 6.50001 18C6.50001 17.7239 6.72387 17.5 7.00001 17.5H15C15.2761 17.5 15.5 17.7239 15.5 18Z" fill="#2B2B2C"/>
</svg>
