<svg width="24" height="24" viewBox="0 0 24 24" fill="none" xmlns="http://www.w3.org/2000/svg">
<path fill-rule="evenodd" clip-rule="evenodd" d="M5 4.5C5 3.67157 5.67157 3 6.5 3H17.5C18.3284 3 19 3.67157 19 4.5V18H5V4.5ZM5 19V19.5C5 20.3284 5.67157 21 6.5 21H17.5C18.3284 21 19 20.3284 19 19.5V19H5ZM10.5 5C10.5 4.72386 10.7239 4.5 11 4.5H13C13.2761 4.5 13.5 4.72386 13.5 5C13.5 5.27614 13.2761 5.5 13 5.5H11C10.7239 5.5 10.5 5.27614 10.5 5ZM17 5.5C17.2761 5.5 17.5 5.27614 17.5 5C17.5 4.72386 17.2761 4.5 17 4.5C16.7239 4.5 16.5 4.72386 16.5 5C16.5 5.27614 16.7239 5.5 17 5.5Z" fill="#2B2B2C"/>
</svg>
