<svg width="30" height="30" viewBox="0 0 30 30" fill="none" xmlns="http://www.w3.org/2000/svg">
<path d="M22.5 5.5C22.5 5.77614 22.2761 6 22 6C21.7239 6 21.5 5.77614 21.5 5.5C21.5 5.22386 21.7239 5 22 5C22.2761 5 22.5 5.22386 22.5 5.5Z" fill="#2B2B2C"/>
<path fill-rule="evenodd" clip-rule="evenodd" d="M5.5 4.75C5.5 3.7835 6.2835 3 7.25 3H22.75C23.7165 3 24.5 3.7835 24.5 4.75V24V25.25C24.5 26.2165 23.7165 27 22.75 27H7.25C6.2835 27 5.5 26.2165 5.5 25.25V24V4.75ZM6.5 24.5V25.25C6.5 25.6642 6.83579 26 7.25 26H22.75C23.1642 26 23.5 25.6642 23.5 25.25V24.5H6.5ZM23.5 23.5H6.5V4.75C6.5 4.33579 6.83579 4 7.25 4H22.75C23.1642 4 23.5 4.33579 23.5 4.75V23.5ZM13 5.5C13 5.22386 13.2239 5 13.5 5H16.5C16.7761 5 17 5.22386 17 5.5C17 5.77614 16.7761 6 16.5 6H13.5C13.2239 6 13 5.77614 13 5.5Z" fill="#2B2B2C"/>
</svg>
