<svg width="60" height="60" viewBox="0 0 60 60" fill="none" xmlns="http://www.w3.org/2000/svg">
<path fill-rule="evenodd" clip-rule="evenodd" d="M36 12C36 9.79086 37.7909 8 40 8C42.2091 8 44 9.79086 44 12C44 14.2091 42.2091 16 40 16C37.7909 16 36 14.2091 36 12ZM40 6C36.6863 6 34 8.68629 34 12C34 13.9601 34.9399 15.7007 36.3937 16.7957L33.5706 21.7361C32.4759 21.2625 31.2686 21 30 21C27.875 21 25.922 21.7365 24.3823 22.9681L17.7366 16.3224C18.5225 15.4391 19 14.2753 19 13C19 10.2386 16.7614 8 14 8C11.2386 8 9 10.2386 9 13C9 15.7614 11.2386 18 14 18C14.7566 18 15.474 17.8319 16.1169 17.5311L22.9681 24.3823C21.9324 25.6771 21.2468 27.2641 21.0549 29H17.874C17.4299 27.2748 15.8638 26 14 26C11.7909 26 10 27.7909 10 30C10 32.2091 11.7909 34 14 34C15.8638 34 17.4299 32.7252 17.874 31H21.0549C21.3328 33.5134 22.6456 35.7149 24.5578 37.1688L20.3496 42.2186C19.5019 41.7602 18.5313 41.5 17.5 41.5C14.1863 41.5 11.5 44.1863 11.5 47.5C11.5 50.8137 14.1863 53.5 17.5 53.5C20.8137 53.5 23.5 50.8137 23.5 47.5C23.5 45.939 22.9039 44.5172 21.9269 43.4499L26.2973 38.2055C27.4266 38.7159 28.6801 39 30 39C32.125 39 34.078 38.2635 35.6177 37.0319L39.8284 41.2426C39.3049 42.033 39 42.9809 39 44C39 46.7614 41.2386 49 44 49C46.7614 49 49 46.7614 49 44C49 41.2386 46.7614 39 44 39C42.9809 39 42.0331 39.3049 41.2426 39.8284L37.0319 35.6177C38.0676 34.3229 38.7532 32.7358 38.9451 31H45.126C45.5701 32.7252 47.1362 34 49 34C51.2091 34 53 32.2091 53 30C53 27.7909 51.2091 26 49 26C47.1362 26 45.5701 27.2748 45.126 29H38.9451C38.6607 26.4275 37.292 24.1817 35.3062 22.7298L38.1712 17.7162C38.7478 17.9005 39.3623 18 40 18C43.3137 18 46 15.3137 46 12C46 8.68629 43.3137 6 40 6ZM14 10C12.3431 10 11 11.3431 11 13C11 14.6569 12.3431 16 14 16C15.6569 16 17 14.6569 17 13C17 11.3431 15.6569 10 14 10ZM30 23C26.134 23 23 26.134 23 30C23 33.866 26.134 37 30 37C33.866 37 37 33.866 37 30C37 26.134 33.866 23 30 23ZM41 44C41 42.3431 42.3431 41 44 41C45.6569 41 47 42.3431 47 44C47 45.6569 45.6569 47 44 47C42.3431 47 41 45.6569 41 44ZM14 28C12.8954 28 12 28.8954 12 30C12 31.1046 12.8954 32 14 32C15.1046 32 16 31.1046 16 30C16 28.8954 15.1046 28 14 28ZM47 30C47 28.8954 47.8954 28 49 28C50.1046 28 51 28.8954 51 30C51 31.1046 50.1046 32 49 32C47.8954 32 47 31.1046 47 30ZM17.5 43.5C15.2909 43.5 13.5 45.2909 13.5 47.5C13.5 49.7091 15.2909 51.5 17.5 51.5C19.7091 51.5 21.5 49.7091 21.5 47.5C21.5 45.2909 19.7091 43.5 17.5 43.5Z" fill="#2B2B2C"/>
</svg>
