<svg width="60" height="60" viewBox="0 0 60 60" fill="none" xmlns="http://www.w3.org/2000/svg">
<path fill-rule="evenodd" clip-rule="evenodd" d="M47.3588 7.94447C45.5038 6.08948 42.4963 6.08947 40.6413 7.94446L30 18.5858L19.7071 8.29289C19.3166 7.90237 18.6834 7.90237 18.2929 8.29289L8.29289 18.2929C8.10536 18.4804 8 18.7348 8 19C8 19.2652 8.10536 19.5196 8.29289 19.7071L12.2929 23.7071L16.2929 27.7071L18.5858 30L10.2929 38.2928C10.1455 38.4402 10.0479 38.6299 10.0136 38.8355L8.01362 50.8355C7.96053 51.1541 8.06455 51.4787 8.29291 51.707C8.52127 51.9354 8.84586 52.0394 9.16441 51.9863L21.1644 49.9863C21.37 49.9521 21.5597 49.8544 21.7071 49.707L30 41.4142L32.2929 43.7071L36.2929 47.7071L40.2929 51.7071C40.6834 52.0976 41.3166 52.0976 41.7071 51.7071L51.7071 41.7071C51.8946 41.5196 52 41.2652 52 41C52 40.7348 51.8946 40.4804 51.7071 40.2929L41.4142 30L52.0555 19.3587C53.9105 17.5037 53.9105 14.4962 52.0555 12.6412L47.3588 7.94447ZM38.4142 47L40.7071 44.7071C41.0976 44.3166 41.0976 43.6834 40.7071 43.2929C40.3166 42.9024 39.6834 42.9024 39.2929 43.2929L37 45.5858L34.4142 43L37.7071 39.7071C38.0976 39.3166 38.0976 38.6834 37.7071 38.2929C37.3166 37.9024 36.6834 37.9024 36.2929 38.2929L33 41.5858L30.4142 39L32.7071 36.7071C33.0976 36.3166 33.0976 35.6834 32.7071 35.2929C32.3166 34.9024 31.6834 34.9024 31.2929 35.2929L29 37.5858L26.4142 35L29.7071 31.7071C30.0976 31.3166 30.0976 30.6834 29.7071 30.2929C29.3166 29.9024 28.6834 29.9024 28.2929 30.2929L25 33.5858L22.4142 31L24.7071 28.7071C25.0976 28.3166 25.0976 27.6834 24.7071 27.2929C24.3166 26.9024 23.6834 26.9024 23.2929 27.2929L21 29.5858L18.4142 27L21.7071 23.7071C22.0976 23.3166 22.0976 22.6834 21.7071 22.2929C21.3166 21.9024 20.6834 21.9024 20.2929 22.2929L17 25.5858L14.4142 23L16.7071 20.7071C17.0976 20.3166 17.0976 19.6834 16.7071 19.2929C16.3166 18.9024 15.6834 18.9024 15.2929 19.2929L13 21.5858L10.4142 19L19 10.4142L49.5858 41L41 49.5858L38.4142 47ZM20.2929 31.7071L20 31.4142L13.4141 38H16C16.5523 38 17 38.4477 17 39V43H21C21.5523 43 22 43.4477 22 44V46.5857L28.5858 40L28.2929 39.7071L24.2929 35.7071L20.2929 31.7071ZM40 28.5858L47.5858 21L39 12.4142L31.4142 20L40 28.5858ZM50.6413 17.9445L49 19.5858L40.4142 11L42.0555 9.35868C43.1294 8.28474 44.8706 8.28474 45.9446 9.35868L50.6413 14.0554C51.7152 15.1293 51.7152 16.8705 50.6413 17.9445ZM20 48.1528V45H16C15.4477 45 15 44.5523 15 44V40H11.8471L10.2166 49.7834L20 48.1528Z" fill="#2B2B2C"/>
</svg>
