<svg width="60" height="60" viewBox="0 0 60 60" fill="none" xmlns="http://www.w3.org/2000/svg">
<path fill-rule="evenodd" clip-rule="evenodd" d="M31.4719 6.12294C30.6796 5.26175 29.3204 5.26176 28.5282 6.12294L6.26409 30.323C5.99537 30.6151 5.92482 31.0385 6.08431 31.4019C6.2438 31.7653 6.60313 32.0001 7.00002 32.0001H13V47.0001C13 48.1046 13.8955 49.0001 15 49.0001H45C46.1046 49.0001 47 48.1046 47 47.0001V32.0001H53C53.3969 32.0001 53.7562 31.7653 53.9157 31.4019C54.0752 31.0385 54.0047 30.6151 53.736 30.323L46.9988 23H47V10C47 9.44772 46.5523 9 46 9H39C38.4477 9 38 9.44772 38 10V13.2187L31.4719 6.12294ZM45 11V20.8274L40 15.3926V11H45ZM30 7.47705L50.7212 30.0001H46C45.4477 30.0001 45 30.4478 45 31.0001V47.0001H15V31.0001C15 30.4478 14.5523 30.0001 14 30.0001H9.27884L30 7.47705ZM10 52C9.44772 52 9 52.4477 9 53C9 53.5523 9.44772 54 10 54H50C50.5523 54 51 53.5523 51 53C51 52.4477 50.5523 52 50 52H10ZM26 33C25.4477 33 25 33.4477 25 34V47H27V35H33V47H35V34C35 33.4477 34.5523 33 34 33H26Z" fill="#2B2B2C"/>
</svg>
