<svg width="60" height="60" viewBox="0 0 60 60" fill="none" xmlns="http://www.w3.org/2000/svg">
<path fill-rule="evenodd" clip-rule="evenodd" d="M43 6.5C43.4019 6.5 43.7648 6.74062 43.9212 7.11085L46.139 12.3609L51.3891 14.5788C51.7594 14.7352 52 15.0981 52 15.5C52 15.9019 51.7594 16.2648 51.3891 16.4212L46.139 18.6391L43.9212 23.8891C43.7648 24.2594 43.4019 24.5 43 24.5C42.5981 24.5 42.2352 24.2594 42.0788 23.8891L39.861 18.6391L34.6109 16.4212C34.2406 16.2648 34 15.9019 34 15.5C34 15.0981 34.2406 14.7352 34.6109 14.5788L39.861 12.3609L42.0788 7.11085C42.2352 6.74062 42.5981 6.5 43 6.5ZM43 10.0697L41.5453 13.5133C41.444 13.7531 41.2531 13.944 41.0133 14.0453L37.5697 15.5L41.0133 16.9547C41.2531 17.056 41.444 17.2469 41.5453 17.4867L43 20.9303L44.4547 17.4867C44.556 17.2469 44.7469 17.056 44.9867 16.9547L48.4303 15.5L44.9867 14.0453C44.7469 13.944 44.556 13.7531 44.4547 13.5133L43 10.0697ZM24 9C24.4019 9 24.7648 9.24062 24.9212 9.61085L30.7029 23.2971L44.3891 29.0788C44.7594 29.2352 45 29.5981 45 30C45 30.4019 44.7594 30.7648 44.3891 30.9212L30.7029 36.7029L24.9212 50.3891C24.7648 50.7594 24.4019 51 24 51C23.5981 51 23.2352 50.7594 23.0788 50.3891L17.2971 36.7029L3.61085 30.9212C3.24062 30.7648 3 30.4019 3 30C3 29.5981 3.24062 29.2352 3.61085 29.0788L17.2971 23.2971L23.0788 9.61085C23.2352 9.24062 23.5981 9 24 9ZM24 12.5697L18.9815 24.4494C18.8802 24.6893 18.6893 24.8802 18.4494 24.9815L6.56973 30L18.4494 35.0185C18.6893 35.1198 18.8802 35.3107 18.9815 35.5506L24 47.4303L29.0185 35.5506C29.1198 35.3107 29.3107 35.1198 29.5506 35.0185L41.4303 30L29.5506 24.9815C29.3107 24.8802 29.1198 24.6893 29.0185 24.4494L24 12.5697ZM43.9212 36.6109C43.7648 36.2406 43.4019 36 43 36C42.5981 36 42.2352 36.2406 42.0788 36.6109L39.861 41.861L34.6109 44.0788C34.2406 44.2352 34 44.5981 34 45C34 45.4019 34.2406 45.7648 34.6109 45.9212L39.861 48.139L42.0788 53.3891C42.2352 53.7594 42.5981 54 43 54C43.4019 54 43.7648 53.7594 43.9212 53.3891L46.139 48.139L51.3891 45.9212C51.7594 45.7648 52 45.4019 52 45C52 44.5981 51.7594 44.2352 51.3891 44.0788L46.139 41.861L43.9212 36.6109ZM41.5453 43.0133L43 39.5697L44.4547 43.0133C44.556 43.2531 44.7469 43.444 44.9867 43.5453L48.4303 45L44.9867 46.4547C44.7469 46.556 44.556 46.7469 44.4547 46.9867L43 50.4303L41.5453 46.9867C41.444 46.7469 41.2531 46.556 41.0133 46.4547L37.5697 45L41.0133 43.5453C41.2531 43.444 41.444 43.2531 41.5453 43.0133Z" fill="#2B2B2C"/>
</svg>
