<svg width="60" height="60" viewBox="0 0 60 60" fill="none" xmlns="http://www.w3.org/2000/svg">
<path fill-rule="evenodd" clip-rule="evenodd" d="M34.6987 4.41801L36.7508 10.1876L36.9039 10.2369C37.6639 10.5002 38.4022 10.8042 39.1154 11.1479L39.2268 11.2076L44.7509 8.58186L45.721 9.32182C47.5894 10.7471 49.2553 12.4118 50.6715 14.2728L51.4097 15.2428L48.7828 20.7556L49.1766 21.5946C49.3886 22.0815 49.5826 22.579 49.7584 23.0863L49.8028 23.2396L55.5738 25.2918L55.7378 26.4988C55.9105 27.7697 56 28.8901 56 30C56 31.1099 55.9105 32.2303 55.7378 33.5012L55.5738 34.7082L49.8028 36.7596L49.7584 36.9137C49.4946 37.6746 49.1901 38.4135 48.8452 39.1277L48.7828 39.2436L51.4097 44.7572L50.6715 45.7272C49.2553 47.5882 47.5894 49.2529 45.721 50.6782L44.7509 51.4181L39.2308 48.7916L39.1154 48.8521C38.4022 49.1958 37.6639 49.4998 36.9039 49.7631L36.7508 49.8076L34.7001 55.5732L33.4942 55.7377C32.2292 55.9102 31.1073 56 30 56C28.8868 56 27.7629 55.9105 26.4878 55.7379L25.28 55.5745L23.2268 49.8036L22.3318 49.4831C21.8371 49.2897 21.3519 49.0783 20.877 48.8489L20.7548 48.7876L15.2418 51.409L14.2728 50.6715C12.4119 49.2554 10.7473 47.5897 9.31824 45.7175L8.57765 44.7473L11.2028 39.2236L11.1454 39.1128C10.803 38.402 10.4998 37.6668 10.2371 36.9112L10.1908 36.7636L4.41738 34.7105L4.25722 33.4979C4.0878 32.2152 4 31.1016 4 30C4 28.8957 4.08749 27.7872 4.25722 26.5021L4.41738 25.2895L10.1868 23.2356L10.5133 22.3402C10.7063 21.8458 10.9171 21.3611 11.1454 20.8872L11.2028 20.7716L8.57831 15.254L9.31688 14.2842C10.7447 12.4094 12.4094 10.7426 14.2728 9.32446L15.2425 8.58652L20.7588 11.2076L21.597 10.8205C22.0819 10.6091 22.5768 10.4157 23.0809 10.2405L23.2268 10.1916L25.28 4.42552L26.4878 4.26207C27.7629 4.0895 28.8868 4 30 4C31.0983 4 32.2084 4.08785 33.4869 4.25735L34.6987 4.41801ZM35.1974 11.7883L36.2692 12.1337C36.9374 12.366 37.5849 12.6323 38.2093 12.9314L39.1726 13.4478L44.508 10.912C46.235 12.2293 47.7731 13.7667 49.0796 15.4835L46.5704 20.7491L47.3538 22.4182C47.5342 22.8342 47.7003 23.2595 47.8521 23.6936L48.1669 24.7805L53.756 26.768C53.9198 27.9735 54 29.0013 54 30C54 30.9986 53.9198 32.0264 53.756 33.2318L48.1652 35.2191L47.8517 36.3076C47.6215 36.9659 47.3583 37.6038 47.0627 38.2195L46.5412 39.1886L49.0796 44.5165C47.7732 46.2331 46.2351 47.7705 44.5082 49.0878L39.1873 46.556L38.2174 47.0647C37.5987 47.3615 36.9573 47.626 36.2957 47.8571L35.2094 48.173L33.2237 53.756C32.0248 53.9195 30.9958 54 30 54C28.9976 54 27.9658 53.9197 26.7558 53.756L24.7934 48.2403L23.0338 47.6101C22.6003 47.4399 22.1756 47.2546 21.76 47.0544L20.7786 46.5617L15.4834 49.0795C13.767 47.7732 12.2293 46.235 10.9078 44.5037L13.4354 39.1852L12.9349 38.2192C12.6355 37.5951 12.3687 36.9485 12.136 36.2826L11.8007 35.2134L6.23999 33.236C6.07868 32.0145 6 30.9916 6 30C6 29.0058 6.07841 27.9875 6.24006 26.7636L11.7436 24.8043L12.3843 23.0471C12.5554 22.6105 12.7414 22.1831 12.9422 21.7657L13.4265 20.7905L10.9081 15.4959C12.2279 13.7628 13.7654 12.2239 15.4844 10.9157L20.7467 13.4162L22.4154 12.6455C22.8437 12.4594 23.2812 12.2886 23.7274 12.1332L24.7847 11.7787L26.756 6.244C27.9659 6.08025 28.9976 6 30 6C30.9879 6 32.0071 6.07866 33.224 6.24L35.1974 11.7883ZM38 30C38 34.4183 34.4183 38 30 38C25.5817 38 22 34.4183 22 30C22 25.5817 25.5817 22 30 22C34.4183 22 38 25.5817 38 30ZM40 30C40 35.5228 35.5228 40 30 40C24.4772 40 20 35.5228 20 30C20 24.4772 24.4772 20 30 20C35.5228 20 40 24.4772 40 30Z" fill="#2B2B2C"/>
</svg>
