<svg width="60" height="60" viewBox="0 0 60 60" fill="none" xmlns="http://www.w3.org/2000/svg">
<path fill-rule="evenodd" clip-rule="evenodd" d="M29.9492 8.05859C17.799 8.05859 7.94922 17.9083 7.94922 30.0586C7.94922 42.2089 17.799 52.0586 29.9492 52.0586C34.2919 52.0586 38.3383 50.8013 41.7473 48.6309C41.2735 47.8667 41 46.9653 41 46C41 43.2386 43.2386 41 46 41C46.9531 41 47.8439 41.2667 48.6019 41.7295C50.7229 38.3472 51.9492 34.3474 51.9492 30.0586C51.9492 17.9083 42.0995 8.05859 29.9492 8.05859ZM50.0873 43.1194C52.5301 39.3603 53.9492 34.8738 53.9492 30.0586C53.9492 16.8038 43.204 6.05859 29.9492 6.05859C16.6944 6.05859 5.94922 16.8038 5.94922 30.0586C5.94922 43.3134 16.6944 54.0586 29.9492 54.0586C34.8232 54.0586 39.3604 52.6047 43.1473 50.1069C43.9563 50.6699 44.9396 51 46 51C48.7614 51 51 48.7614 51 46C51 44.9274 50.6623 43.9337 50.0873 43.1194ZM30 23C26.134 23 23 26.134 23 30C23 33.866 26.134 37 30 37C33.866 37 37 33.866 37 30C37 26.134 33.866 23 30 23ZM21 30C21 25.0294 25.0294 21 30 21C34.9706 21 39 25.0294 39 30C39 34.9706 34.9706 39 30 39C25.0294 39 21 34.9706 21 30ZM43 46C43 44.3431 44.3431 43 46 43C47.6568 43 49 44.3431 49 46C49 47.6568 47.6568 49 46 49C44.3431 49 43 47.6568 43 46Z" fill="#2B2B2C"/>
</svg>
