<svg width="83" height="42" viewBox="0 0 83 42" fill="none" xmlns="http://www.w3.org/2000/svg">
<path fill-rule="evenodd" clip-rule="evenodd" d="M62.1987 26.0076C62.2163 26.0076 62.2306 25.9933 62.2306 25.9757C62.2306 25.9598 62.219 25.9467 62.2038 25.9442C61.5403 25.848 60.941 25.6381 60.3947 25.2877C59.1801 24.5089 58.228 23.0346 57.4178 20.5672C57.3112 20.2428 53.2633 6.46639 52.999 5.56728C52.0767 2.42876 50.3409 1.02199 48.7351 0.428665C47.9112 0.12417 47.1213 0.0336914 46.4932 0.0336914C46.1371 0.0336914 45.3736 0.0336914 45.3736 0.0336914C45.356 0.0336914 45.3417 0.0479821 45.3417 0.0655441C45.3417 0.0813844 45.3533 0.0945559 45.3684 0.0970525C45.816 0.161274 46.2959 0.281024 46.7826 0.48557C48.2692 1.11006 49.8204 2.52544 50.7144 5.56728C50.9141 6.24678 54.9906 20.1243 55.078 20.3976C55.9025 22.9751 56.8736 24.5004 58.1211 25.295C58.909 25.7969 59.8072 26.0076 60.8486 26.0076H62.1987" fill="#2B2B2C"/>
<mask id="mask0_617_54297" style="mask-type:alpha" maskUnits="userSpaceOnUse" x="0" y="0" width="73" height="42">
<path fill-rule="evenodd" clip-rule="evenodd" d="M0.00512695 0.0258789H72.5329V41.7477H0.00512695V0.0258789Z" fill="white"/>
</mask>
<g mask="url(#mask0_617_54297)">
<path fill-rule="evenodd" clip-rule="evenodd" d="M65.779 26.0076C65.7965 26.0076 65.8108 25.9933 65.8108 25.9757C65.8108 25.9598 65.7993 25.9467 65.7841 25.9442V25.9441C63.9665 25.7089 62.7911 23.157 62.1419 20.9846C61.4607 18.7051 59.0007 10.3817 57.5365 5.56728C56.0657 0.731008 51.4894 0.0370489 49.4171 0.0336914H49.4177C49.4 0.0336914 49.3857 0.0479821 49.3857 0.0655441C49.3857 0.0813844 49.3972 0.0945559 49.4124 0.0970525L49.4123 0.0972247C51.3479 0.357987 54.0973 1.53008 55.2837 5.56728C56.3251 9.11077 59.6344 20.3679 59.7616 20.7446C60.5561 23.0974 61.4877 24.5178 62.667 25.2798C63.4606 25.7926 64.3662 26.0076 65.4179 26.0076H65.779" fill="#2B2B2C"/>
<path fill-rule="evenodd" clip-rule="evenodd" d="M18.105 41.7528C17.8735 41.7528 17.6669 41.7528 17.5486 41.7528C15.8946 41.7528 13.9058 40.9121 12.8113 37.0507L2.95077 3.40134C2.367 1.38171 1.49846 0.367416 0.0265152 0.115693H0.0266874C0.0115359 0.113197 0 0.100111 0 0.0841849C0 0.0665368 0.0142907 0.0522461 0.0319388 0.0522461H1.51507C3.4865 0.0522461 4.55881 1.03934 5.24149 3.40134C5.24149 3.40134 14.3578 34.3396 15.1863 37.2627C15.7993 39.4251 16.5159 40.896 17.6244 41.4905C17.8036 41.5866 17.9545 41.6494 18.1099 41.6894H18.1103C18.1254 41.6918 18.1369 41.7051 18.1369 41.7209C18.1369 41.7385 18.1226 41.7528 18.105 41.7528" fill="#2B2B2C"/>
<path fill-rule="evenodd" clip-rule="evenodd" d="M14.7672 4.65661C13.8239 1.39343 12.3425 0.0297852 9.61891 0.0297852H8.28987C8.27223 0.0297852 8.25793 0.0440758 8.25793 0.061724C8.25793 0.0775642 8.26956 0.0907358 8.28471 0.0932323V0.0931462C10.4126 0.395489 11.6528 1.79632 12.4797 4.65661C12.4797 4.65661 20.6399 32.4447 21.6995 36.0828C21.9319 35.2967 22.3243 33.9687 22.8179 32.2969C21.844 28.9508 14.7672 4.65661 14.7672 4.65661" fill="#2B2B2C"/>
<path fill-rule="evenodd" clip-rule="evenodd" d="M18.8676 41.7528H19.837C21.0518 41.7528 21.922 41.4313 22.5741 40.9C23.6354 40.0353 24.1186 38.6142 24.5657 37.1148C24.6325 36.8905 33.2689 7.59966 33.573 6.45615C34.6015 2.59017 36.9008 0.906284 39.3541 0.309174C39.7614 0.210087 40.1728 0.141216 40.5834 0.0970525H40.584C40.5991 0.0945559 40.6106 0.0813844 40.6106 0.0655441C40.6106 0.0479821 40.5964 0.0336914 40.5787 0.0336914H39.4991C36.2643 0.0336914 32.6518 1.31727 31.2846 6.45615C30.7916 8.30937 22.3441 36.8905 22.2773 37.1148C21.8302 38.6142 21.3222 40.1949 20.2608 41.0597C19.8289 41.4116 19.4335 41.6014 18.8627 41.6894H18.8624C18.8472 41.6919 18.8357 41.7051 18.8357 41.7209C18.8357 41.7386 18.85 41.7528 18.8676 41.7528V41.7528" fill="#2B2B2C"/>
<path fill-rule="evenodd" clip-rule="evenodd" d="M63.2297 21.5878L68.3114 4.6527C69.1381 1.79259 70.3782 0.391755 72.5059 0.0893261H72.5062C72.5214 0.0868295 72.5329 0.073658 72.5329 0.0578177C72.5329 0.0401696 72.5187 0.0258789 72.5011 0.0258789H71.1721C68.4486 0.0258789 66.9671 1.38952 66.0239 4.6527L62.0944 17.8538C62.0944 17.8538 63.1337 21.3186 63.2297 21.5878" fill="#2B2B2C"/>
</g>
<path fill-rule="evenodd" clip-rule="evenodd" d="M76.6025 0.0522461H75.1874C72.8713 0.0522461 71.6116 1.21186 70.8095 3.98675C70.8095 3.98675 65.7819 20.792 65.7394 20.9347C65.37 22.1224 64.9054 23.2756 64.4377 24.0199C64.8805 24.626 65.3478 24.9972 65.8105 25.0902C66.6834 24.341 67.4076 22.9529 68.0555 20.8437C68.0898 20.7318 73.1037 3.98675 73.1037 3.98675C73.7984 1.58324 74.8365 0.391607 76.6069 0.115693H76.6078C76.6229 0.113197 76.6344 0.100111 76.6344 0.0841849C76.6344 0.0665368 76.6201 0.0522461 76.6025 0.0522461" fill="#037D67"/>
<path fill-rule="evenodd" clip-rule="evenodd" d="M66.3058 26.8542H64.0289C62.9954 30.2644 61.6284 34.7788 61.1203 36.4801C59.7047 41.221 61.9379 41.7088 62.7905 41.7088C62.906 41.7088 63.9331 41.7088 64.589 41.7088C64.6067 41.7087 64.621 41.6945 64.621 41.6769C64.621 41.6617 64.6104 41.6489 64.5962 41.6457H64.5959C63.6202 41.4134 62.294 40.4022 63.4652 36.4801C63.4652 36.4801 65.5297 29.4906 66.3058 26.8542" fill="#2B2B2C"/>
<path fill-rule="evenodd" clip-rule="evenodd" d="M79.6086 0.0882069C79.6214 0.0840747 79.6307 0.0720223 79.6307 0.0578177C79.6307 0.0401696 79.6164 0.0258789 79.5989 0.0258789H79.2818C77.3105 0.0258789 76.2381 1.01297 75.5554 3.37489C75.5554 3.37489 71.6689 16.4504 70.4465 20.5016C69.2241 24.5527 68.3858 25.638 66.7261 25.9244L66.6385 25.9443C66.6234 25.9468 66.6118 25.9599 66.6118 25.9757C66.6118 25.9933 66.6261 26.0076 66.6438 26.0076H67.7698C70.6601 26.0076 71.7364 24.0804 72.7535 20.6866C73.6056 17.8434 78.5898 1.18687 78.5898 1.18687C78.7321 0.716825 79.1382 0.229564 79.6086 0.0880348V0.0882069" fill="#2B2B2C"/>
<mask id="mask1_617_54297" style="mask-type:alpha" maskUnits="userSpaceOnUse" x="22" y="0" width="61" height="42">
<path fill-rule="evenodd" clip-rule="evenodd" d="M22.9808 0.0336914H82.448V41.7477H22.9808V0.0336914Z" fill="white"/>
</mask>
<g mask="url(#mask1_617_54297)">
<path fill-rule="evenodd" clip-rule="evenodd" d="M68.5971 26.7952C67.7983 29.514 65.5217 37.2665 65.5217 37.2665C64.319 41.2943 66.2163 41.7088 66.9408 41.7088H68.699C68.7167 41.7088 68.731 41.6945 68.731 41.6769C68.731 41.6617 68.7204 41.6489 68.7062 41.6457V41.6458C67.8814 41.4313 66.8033 40.5483 67.7833 37.2665C67.7833 37.2665 70.2769 28.8105 71.2263 25.5841C70.6835 26.1335 69.7675 26.6445 68.5971 26.7952" fill="#2B2B2C"/>
<path fill-rule="evenodd" clip-rule="evenodd" d="M72.8866 41.7089C72.9043 41.7089 72.9185 41.6946 72.9185 41.6769C72.9185 41.6617 72.908 41.649 72.8937 41.6458H72.8936C72.1968 41.4475 71.3226 40.6755 72.1429 37.9286C72.1429 37.9286 81.7863 5.10838 82.3231 3.24973C82.8601 1.39108 81.5629 0.22828 80.396 0.0528319C80.3876 0.0516267 80.3493 0.0410378 80.3414 0.0658313C80.3336 0.0906248 80.3657 0.105776 80.3723 0.109306C80.6045 0.231638 80.8644 0.513319 80.7225 0.996275C80.5806 1.47923 69.872 37.9286 69.872 37.9286C68.8485 41.3562 70.463 41.7089 71.0794 41.7089H72.8866" fill="#2B2B2C"/>
<path fill-rule="evenodd" clip-rule="evenodd" d="M57.6288 26.0076C57.6464 26.0076 57.6607 25.9933 57.6607 25.9757C57.6607 25.9598 57.6491 25.9467 57.634 25.9442H57.6337C56.9788 25.8491 56.3862 25.6434 55.8455 25.3008C54.5703 24.4931 53.5837 22.9243 52.7475 20.2523C52.6758 20.0236 48.5714 6.04921 48.4297 5.56728C47.5612 2.61238 46.1656 1.19244 44.7889 0.541269C43.953 0.145865 43.124 0.0336914 42.4244 0.0336914C41.9651 0.0336914 41.5537 0.0336914 41.2202 0.0336914H41.2149C41.1973 0.0336914 41.183 0.0479821 41.183 0.0655441C41.183 0.0813844 41.1945 0.0945559 41.2097 0.0970525V0.0971386C41.4352 0.13123 44.5676 0.228079 46.145 5.56728C47.7223 10.9066 49.6125 17.2891 50.251 19.542C51.6323 24.4151 53.4143 26.0076 56.2792 26.0076H57.6288" fill="#2B2B2C"/>
<path fill-rule="evenodd" clip-rule="evenodd" d="M43.1138 1.86646C43.1125 1.86757 43.1111 1.86861 43.1098 1.86973C41.958 2.85819 41.005 4.32557 40.4382 6.45609C40.3783 6.68147 31.8185 35.8061 31.631 36.4382C30.9115 38.8634 30.3089 41.2722 27.5839 41.6893C27.5688 41.6918 27.5573 41.7051 27.5573 41.7208C27.5573 41.7385 27.5715 41.7528 27.5892 41.7528H28.131C28.131 41.7528 28.5217 41.7467 28.6 41.7436C31.3675 41.6318 32.7468 40.4559 33.9268 36.4382C34.7886 33.5042 42.6644 6.68853 42.7341 6.45609C43.0703 5.3341 43.474 4.05663 44.0535 2.93722C43.9327 2.74301 43.5061 2.19454 43.1138 1.86646" fill="#2B2B2C"/>
<path fill-rule="evenodd" clip-rule="evenodd" d="M41.8288 1.12015C40.9533 0.871185 39.7101 0.937732 38.582 1.842C37.4537 2.74628 36.443 4.28141 35.9266 6.22244C35.8666 6.44774 26.921 36.8905 26.854 37.1148C26.407 38.6142 25.9238 40.0353 24.8625 40.9001C24.3804 41.2929 23.779 41.571 23.0075 41.6892V41.6893C22.9924 41.6918 22.9808 41.7051 22.9808 41.7208C22.9808 41.7385 22.9951 41.7528 23.0127 41.7528H24.4138C25.6286 41.7528 26.4988 41.4314 27.1509 40.9001C28.2123 40.0353 28.6954 38.6143 29.1424 37.1148C29.2094 36.8905 38.09 6.68147 38.1499 6.45609C38.7167 4.32557 39.6696 2.85819 40.8215 1.86973C41.1538 1.58451 41.5029 1.3402 41.864 1.13074C41.8582 1.12876 41.8463 1.12515 41.8288 1.12015" fill="#037D67"/>
</g>
<path fill-rule="evenodd" clip-rule="evenodd" d="M20.6462 39.1462C20.2522 38.5732 19.9187 37.8826 19.6829 37.0508C19.3427 35.8506 9.99565 3.98675 9.99565 3.98675C9.19365 1.21186 7.93383 0.0522461 5.61788 0.0522461H4.20345C4.1858 0.0522461 4.17151 0.0666229 4.17151 0.0841849C4.17151 0.100111 4.18313 0.113197 4.1982 0.115693C5.96869 0.391607 7.00675 1.58324 7.70148 3.98675L17.3923 37.0508C17.8936 38.8194 18.5825 39.9538 19.3411 40.6645C19.8787 40.3537 20.3366 39.8472 20.6462 39.1462" fill="#2B2B2C"/>
</svg>
