<svg width="108" height="55" viewBox="0 0 108 55" fill="none" xmlns="http://www.w3.org/2000/svg">
<path fill-rule="evenodd" clip-rule="evenodd" d="M81.4019 34.0107C81.425 34.0107 81.4437 33.992 81.4437 33.9689C81.4437 33.9482 81.4286 33.9311 81.4088 33.9278C80.5408 33.8019 79.7568 33.5274 79.042 33.069C77.4533 32.0502 76.2076 30.1216 75.1478 26.8939C75.0085 26.4694 69.713 8.44771 69.3674 7.27153C68.1608 3.16584 65.8902 1.32567 63.7896 0.549403C62.7116 0.151076 61.6784 0.0327148 60.8568 0.0327148C60.391 0.0327148 59.3922 0.0327148 59.3922 0.0327148C59.3691 0.0327148 59.3504 0.0514093 59.3504 0.0743832C59.3504 0.0951048 59.3656 0.112335 59.3853 0.115601C59.9709 0.199726 60.5987 0.356264 61.2354 0.623843C63.1801 1.44077 65.2092 3.29231 66.3787 7.27153C66.6399 8.16053 71.9727 26.3144 72.087 26.6719C73.1656 30.0438 74.4359 32.039 76.0679 33.0785C77.0986 33.735 78.2736 34.0107 79.6359 34.0107H81.4019" fill="white"/>
<path fill-rule="evenodd" clip-rule="evenodd" d="M86.0858 34.0107C86.1083 34.0107 86.1274 33.992 86.1274 33.9689C86.1274 33.9482 86.1117 33.9311 86.0925 33.9278V33.9276C83.7145 33.6199 82.1769 30.2816 81.3278 27.4398C80.4367 24.4578 77.2186 13.5695 75.3032 7.27153C73.3792 0.944915 67.3927 0.0371069 64.6817 0.0327148H64.6824C64.6593 0.0327148 64.6406 0.0514093 64.6406 0.0743832C64.6406 0.0951048 64.6557 0.112335 64.6756 0.115601L64.6755 0.115826C67.2074 0.456944 70.8042 1.99023 72.3561 7.27153C73.7185 11.907 78.0475 26.633 78.2139 27.1258C79.2533 30.2037 80.472 32.0619 82.0147 33.0586C83.0529 33.7294 84.2375 34.0107 85.6128 34.0107H86.0858" fill="white"/>
<path fill-rule="evenodd" clip-rule="evenodd" d="M23.7205 54.6079C23.4175 54.6079 23.1473 54.6079 22.9926 54.6079C20.8289 54.6079 18.2272 53.5081 16.7954 48.4568L3.89632 4.43804C3.13255 1.79603 1.99646 0.469177 0.0709316 0.139884H0.0711568C0.0513361 0.136618 0.0361328 0.1195 0.0361328 0.0987784C0.0361328 0.0755792 0.0548273 0.0568848 0.0779138 0.0568848H2.0182C4.59702 0.0568848 5.99978 1.34815 6.89295 4.43804C6.89295 4.43804 18.8186 44.9102 19.9024 48.734C20.7042 51.5629 21.6417 53.4869 23.0917 54.2647C23.3262 54.3905 23.5236 54.4726 23.7269 54.5248H23.7272C23.747 54.5282 23.7621 54.5454 23.7621 54.566C23.7621 54.5892 23.7434 54.6079 23.7205 54.6079" fill="white"/>
<path fill-rule="evenodd" clip-rule="evenodd" d="M19.3539 6.0802C18.12 1.81145 16.1821 0.0275879 12.6193 0.0275879H10.8807C10.8576 0.0275879 10.8389 0.0462824 10.8389 0.0693689C10.8389 0.0900905 10.8541 0.107321 10.874 0.110587C13.6575 0.505986 15.28 2.33849 16.3616 6.0802C16.3616 6.0802 27.0365 42.4315 28.4227 47.1906C28.7266 46.1623 29.2399 44.425 29.8857 42.238C28.6116 37.8608 19.3539 6.0802 19.3539 6.0802" fill="white"/>
<path fill-rule="evenodd" clip-rule="evenodd" d="M24.718 54.608H25.9862C27.5752 54.608 28.7137 54.1873 29.5667 53.4924C30.9551 52.3611 31.5871 50.5023 32.172 48.5408C32.2595 48.2472 43.5571 9.9302 43.9551 8.4343C45.3005 3.377 48.3084 1.1742 51.5176 0.39309C52.0503 0.263468 52.5886 0.173374 53.1256 0.115601H53.1264C53.1463 0.112335 53.1614 0.0951048 53.1614 0.0743832C53.1614 0.0514093 53.1427 0.0327148 53.1196 0.0327148H51.7073C47.4756 0.0327148 42.7499 1.71184 40.9615 8.4343C40.3165 10.8586 29.2659 48.2472 29.1784 48.5408C28.5935 50.5023 27.929 52.5699 26.5406 53.7012C25.9755 54.1615 25.4583 54.4099 24.7117 54.525H24.7112C24.6914 54.5283 24.6762 54.5456 24.6762 54.5662C24.6762 54.5894 24.6949 54.6081 24.718 54.6081V54.608" fill="white"/>
<path fill-rule="evenodd" clip-rule="evenodd" d="M82.7508 28.2289L89.3979 6.07508C90.4801 2.33359 92.1018 0.501084 94.8857 0.10546C94.906 0.102194 94.9206 0.0849635 94.9206 0.064242C94.9206 0.0411554 94.9026 0.0224609 94.879 0.0224609H93.1401C89.5781 0.0224609 87.6399 1.80632 86.4056 6.07508L81.2654 23.3443C81.2654 23.3443 82.6252 27.8768 82.7508 28.2289" fill="white"/>
<path fill-rule="evenodd" clip-rule="evenodd" d="M100.244 0.0568848H98.3938C95.3632 0.0568848 93.7156 1.57384 92.666 5.20383C92.666 5.20383 86.0892 27.1877 86.034 27.3745C85.5509 28.9281 84.9429 30.4368 84.3311 31.4103C84.9103 32.2033 85.5216 32.6889 86.1263 32.8105C87.2694 31.8304 88.2165 30.0146 89.0634 27.2554C89.1085 27.109 95.6673 5.20383 95.6673 5.20383C96.5761 2.05967 97.9343 0.500822 100.25 0.139884H100.252C100.271 0.136618 100.286 0.1195 100.286 0.0987784C100.286 0.0755792 100.268 0.0568848 100.244 0.0568848" fill="white"/>
<path fill-rule="evenodd" clip-rule="evenodd" d="M86.775 35.1184H83.7962C82.4441 39.5794 80.6558 45.4849 79.9913 47.7105C78.1394 53.9124 81.0608 54.5505 82.176 54.5505C82.3273 54.5505 83.6709 54.5505 84.529 54.5505C84.552 54.5504 84.5707 54.5318 84.5707 54.5087C84.5707 54.4889 84.5569 54.4723 84.5383 54.468H84.538C83.2616 54.1641 81.5267 52.8413 83.0587 47.7105C83.0587 47.7105 85.7592 38.5672 86.775 35.1184" fill="white"/>
<path fill-rule="evenodd" clip-rule="evenodd" d="M104.177 0.103996C104.194 0.0985902 104.206 0.0828238 104.206 0.064242C104.206 0.0411554 104.187 0.0224609 104.164 0.0224609V0.0225736L103.75 0.0224609C101.171 0.0224609 99.7677 1.31373 98.8746 4.4035C98.8746 4.4035 93.7911 21.5084 92.1919 26.8079C90.5927 32.1075 89.4958 33.5271 87.3246 33.9018L87.2097 33.9278C87.1906 33.9311 87.1748 33.9482 87.1748 33.9689C87.1748 33.992 87.1939 34.0107 87.2165 34.0107H88.6895C92.4712 34.0107 93.8789 31.4895 95.2089 27.0499C96.3238 23.3306 102.844 1.54122 102.844 1.54122C103.03 0.926327 103.562 0.289026 104.177 0.103771V0.103996" fill="white"/>
<path fill-rule="evenodd" clip-rule="evenodd" d="M89.7717 35.0411C88.7267 38.5978 85.749 48.7392 85.749 48.7392C84.1757 54.0082 86.6579 54.5505 87.605 54.5505H89.9058C89.9283 54.5505 89.9474 54.5318 89.9474 54.5087C89.9474 54.4889 89.9339 54.4722 89.9148 54.4679V54.468C88.8359 54.1874 87.4259 53.0324 88.7075 48.7392C88.7075 48.7392 91.97 37.6775 93.2111 33.4568C92.5016 34.1755 91.3033 34.8439 89.7717 35.0411" fill="white"/>
<path fill-rule="evenodd" clip-rule="evenodd" d="M95.3834 54.5504C95.406 54.5504 95.4251 54.5318 95.4251 54.5087C95.4251 54.4887 95.4116 54.4722 95.3925 54.4679C94.4814 54.2085 93.3372 53.1986 94.4104 49.6052C94.4104 49.6052 107.026 6.6712 107.727 4.2399C108.43 1.80838 106.733 0.28726 105.207 0.0577463C105.196 0.0561696 105.146 0.0423177 105.135 0.0747515C105.125 0.107185 105.168 0.127119 105.176 0.131736C105.48 0.291652 105.82 0.660136 105.634 1.29192C105.448 1.9237 91.4396 49.6052 91.4396 49.6052C90.1006 54.0891 92.2133 54.5504 93.0196 54.5504H95.3834" fill="white"/>
<path fill-rule="evenodd" clip-rule="evenodd" d="M75.4238 34.0107C75.4468 34.0107 75.4655 33.992 75.4655 33.9689C75.4655 33.9482 75.4505 33.931 75.4307 33.9277H75.4304C74.5736 33.8034 73.7984 33.5342 73.091 33.0861C71.423 32.0295 70.1323 29.9773 69.0383 26.4819C68.9446 26.1827 63.5753 7.90196 63.39 7.27153C62.2539 3.40605 60.4283 1.54866 58.6273 0.696706C57.5338 0.179455 56.4494 0.0327148 55.5342 0.0327148C54.9333 0.0327148 54.3951 0.0327148 53.9589 0.0327148H53.9519C53.9289 0.0327148 53.9102 0.0514093 53.9102 0.0743832C53.9102 0.0951048 53.9253 0.112335 53.9451 0.115601V0.115714C54.2402 0.16031 58.3379 0.287004 60.4013 7.27153C62.4646 14.2562 64.9374 22.6055 65.7726 25.5527C67.5796 31.9274 69.9107 34.0107 73.6585 34.0107H75.4238" fill="white"/>
<path fill-rule="evenodd" clip-rule="evenodd" d="M56.436 2.43018L56.4309 2.43446C54.924 3.72753 53.6775 5.64709 52.936 8.43414C52.8575 8.72897 41.6601 46.8287 41.4147 47.6555C40.4735 50.828 39.6852 53.9791 36.1204 54.5248C36.1007 54.5282 36.0856 54.5454 36.0856 54.566C36.0856 54.5892 36.1043 54.6079 36.1274 54.6079H36.8362C36.8362 54.6079 37.3473 54.5998 37.4498 54.5958C41.0701 54.4496 42.8744 52.9112 44.4181 47.6555C45.5454 43.8174 55.8482 8.73821 55.9394 8.43414C56.3792 6.9664 56.9071 5.29527 57.6654 3.83091C57.5074 3.57685 56.9492 2.85936 56.436 2.43018" fill="white"/>
<path fill-rule="evenodd" clip-rule="evenodd" d="M54.755 1.45383C53.6097 1.12814 51.9835 1.2153 50.5075 2.39812C49.0316 3.58106 47.7095 5.58925 47.034 8.12843C46.9554 8.42315 35.2531 48.2471 35.1656 48.5407C34.5807 50.502 33.9487 52.361 32.5604 53.4923C31.9296 54.0061 31.1431 54.3699 30.1337 54.5246V54.5247C30.1139 54.5281 30.0989 54.5453 30.0989 54.566C30.0989 54.5892 30.1176 54.6078 30.1405 54.6078H31.9734C33.5624 54.6078 34.7009 54.1873 35.5539 53.4923C36.9423 52.361 37.5743 50.5022 38.1592 48.5407C38.2467 48.2471 49.8639 8.72891 49.9424 8.43407C50.6839 5.64702 51.9304 3.72746 53.4372 2.43439C53.8718 2.06128 54.3286 1.74168 54.8009 1.46768C54.7935 1.46509 54.7777 1.46036 54.755 1.45383" fill="white"/>
<path fill-rule="evenodd" clip-rule="evenodd" d="M27.0446 51.198C26.5292 50.4484 26.0929 49.5451 25.7846 48.4569C25.3395 46.8868 13.1121 5.20383 13.1121 5.20383C12.0629 1.57384 10.4148 0.0568848 7.38519 0.0568848H5.53488C5.5118 0.0568848 5.4931 0.0756919 5.4931 0.0987784C5.4931 0.1195 5.50831 0.136618 5.52813 0.139884C7.8441 0.500822 9.20215 2.05967 10.1109 5.20383L22.7881 48.4569C23.4439 50.7705 24.3451 52.2544 25.3373 53.1841C26.0406 52.7776 26.6397 52.115 27.0446 51.198" fill="white"/>
</svg>
