<svg width="24" height="24" viewBox="0 0 24 24" fill="none" xmlns="http://www.w3.org/2000/svg">
<path fill-rule="evenodd" clip-rule="evenodd" d="M9 2.5C7.89543 2.5 7 3.39543 7 4.5C7 5.60457 7.89543 6.5 9 6.5C10.1046 6.5 11 5.60457 11 4.5C11 3.39543 10.1046 2.5 9 2.5ZM5.5 4.5C5.5 4.22386 5.27614 4 5 4C4.72386 4 4.5 4.22386 4.5 4.5V8C4.5 8.06199 4.51153 8.12345 4.534 8.18122L8.034 17.1812C8.10874 17.3734 8.29379 17.5 8.5 17.5H10.5V20H8C7.72386 20 7.5 20.2239 7.5 20.5C7.5 20.7761 7.72386 21 8 21H11H14C14.2761 21 14.5 20.7761 14.5 20.5C14.5 20.2239 14.2761 20 14 20H11.5V17.5H13.1802C13.8952 17.5 14.5108 16.9953 14.6511 16.2942L14.8086 15.5067L16.0698 19.2906C16.4101 20.3114 17.3655 21 18.4415 21H19C19.1591 21 19.3087 20.9243 19.4029 20.7962C19.4971 20.668 19.5247 20.5027 19.4773 20.3509L17.1966 13.0526C17.0009 12.4264 16.4209 12 15.7648 12H12.3385L11.0128 8.68567C10.6065 7.66979 9.47868 7.14672 8.44069 7.49272C7.30163 7.87241 6.72486 9.13961 7.18666 10.2479L8.75003 14H7.86981L5.5 7.9062V4.5ZM8.84203 16.5L8.2587 15H13.8901L13.6705 16.0981C13.6237 16.3318 13.4185 16.5 13.1802 16.5H8.84203Z" fill="#2B2B2C"/>
</svg>
