<svg width="70" height="30" viewBox="0 0 70 30" fill="none" xmlns="http://www.w3.org/2000/svg">
<path d="M57.487 8.46868L58.5518 9.42694C58.5637 9.43997 58.5743 9.45025 58.5825 9.45777L58.9252 9.80043L58.9512 9.77437L63.1132 13.5105C64.0213 14.4209 64.5038 15.5882 64.5038 16.8248C64.5038 17.0574 64.4759 17.2901 64.435 17.5452L64.4287 17.5845V17.5917C64.4279 17.5991 64.4272 17.606 64.4267 17.6122C64.425 17.6312 64.4242 17.6489 64.4237 17.6577L64.4237 17.6592C64.4236 17.6606 64.4235 17.6618 64.4235 17.6628C64.0416 19.8617 62.1405 21.4625 59.9037 21.4625L59.9023 21.4625L46.4264 21.5C46.4262 21.5 46.426 21.5 46.4258 21.5C45.9109 21.4997 45.5 21.085 45.5 20.5873V8.4502C45.5 7.93098 45.9288 7.5 46.4627 7.5H47.0058H50.8659H54.9412C55.879 7.5 56.7828 7.84366 57.4859 8.46765C57.4863 8.46799 57.4866 8.46834 57.487 8.46868Z" stroke="#2B2B2C"/>
<path d="M40.5511 7.50024C41.0747 7.50024 41.5 7.92482 41.5 8.44919V20.5513C41.5 21.0757 41.0747 21.5002 40.5511 21.5002H28.4489C27.9243 21.5002 27.5 21.076 27.5 20.5513V8.44919C27.5 7.92453 27.9243 7.50024 28.4489 7.50024H40.5511Z" stroke="#2B2B2C"/>
<path d="M10.398 9.47685L10.4036 9.47214M10.398 9.47685L10.3979 9.47689L10.4036 9.47214M10.398 9.47685C10.3986 9.47636 10.3996 9.47554 10.4005 9.47476C10.4013 9.47406 10.4024 9.47318 10.4036 9.47214M10.398 9.47685L10.4036 9.47214M5.88944 13.5104L10.0513 9.77439L10.0773 9.80045L10.42 9.45777C10.4282 9.45026 10.4388 9.43997 10.4507 9.42694L11.5165 8.46778C12.2211 7.84352 13.1249 7.5 14.0613 7.5H18.1366H21.998H22.5398C23.0746 7.5 23.5025 7.9307 23.5025 8.4502V20.5873C23.5025 21.0853 23.0926 21.4997 22.5767 21.5C22.5765 21.5 22.5763 21.5 22.5761 21.5L9.10024 21.4625H9.09885C6.86061 21.4625 4.95881 19.8598 4.57965 17.6592C4.57958 17.6581 4.57951 17.6567 4.57942 17.6552L4.57926 17.6524C4.57883 17.6447 4.57799 17.6299 4.57682 17.6152C4.57635 17.6094 4.57579 17.603 4.57508 17.5959V17.5834L4.5684 17.5429C4.52687 17.2914 4.5 17.0584 4.5 16.8248C4.5 15.5882 4.98247 14.4208 5.88944 13.5104Z" stroke="#2B2B2C"/>
</svg>
