<svg width="56" height="24" viewBox="0 0 56 24" fill="none" xmlns="http://www.w3.org/2000/svg">
<path d="M47.7967 8.05194C47.798 8.05306 47.7991 8.054 47.8 8.05474C47.801 8.05561 47.8021 8.05651 47.8027 8.05701M47.7967 8.05194L47.8027 8.05702C47.8034 8.05759 47.8033 8.05747 47.8027 8.05701M47.7967 8.05194L47.8027 8.05701M47.7967 8.05194L47.8027 8.05701M46.9067 7.24883L47.7537 8.01109C47.7635 8.02169 47.7724 8.0303 47.7796 8.03691L48.1227 8.3801L48.1473 8.35554L51.4007 11.276C52.1068 11.9849 52.4808 12.8917 52.4808 13.852C52.4808 14.0301 52.4595 14.2099 52.4271 14.4118L52.4208 14.4512V14.4596C52.4203 14.4642 52.4199 14.4686 52.4195 14.4726C52.4182 14.4883 52.4174 14.5028 52.417 14.5106C52.1178 16.2167 50.6416 17.458 48.9048 17.458L48.9034 17.458L38.1338 17.488C38.1336 17.488 38.1334 17.488 38.1332 17.488C37.7763 17.4877 37.4938 17.2004 37.4938 16.859V7.159C37.4938 6.80033 37.7907 6.5 38.1628 6.5H38.5968H41.6818H44.9388C45.6636 6.5 46.362 6.76552 46.9056 7.24782C46.906 7.24816 46.9064 7.2485 46.9067 7.24883Z" stroke="#2B2B2C"/>
<path d="M32.8187 6.50024C33.1818 6.50024 33.4767 6.79467 33.4767 7.15824V16.8302C33.4767 17.1938 33.1818 17.4882 32.8187 17.4882H23.1467C22.7829 17.4882 22.4887 17.1941 22.4887 16.8302V7.15824C22.4887 6.79439 22.7829 6.50024 23.1467 6.50024H32.8187Z" stroke="#2B2B2C"/>
<path d="M8.17706 8.05702L8.18309 8.05196M8.17706 8.05702L8.17704 8.05704L8.18309 8.05196M8.17706 8.05702C8.17767 8.05652 8.17876 8.05562 8.17979 8.05475C8.18067 8.05401 8.18178 8.05308 8.18309 8.05196M8.17706 8.05702L8.18309 8.05196M4.5792 11.2759L7.83245 8.35555L7.85701 8.38011L8.20018 8.03692C8.20734 8.03031 8.21622 8.0217 8.2261 8.0111L9.07405 7.24794C9.61884 6.76539 10.3174 6.5 11.041 6.5H14.298H17.384H17.817C18.1898 6.5 18.486 6.80005 18.486 7.159V16.859C18.486 17.2007 18.2042 17.4877 17.8466 17.488C17.8464 17.488 17.8462 17.488 17.846 17.488L7.07639 17.458H7.075C5.33691 17.458 3.86012 16.215 3.56316 14.5073C3.56281 14.5011 3.56209 14.4883 3.56107 14.4757C3.56077 14.4719 3.56042 14.4678 3.56 14.4634V14.45L3.55332 14.4096C3.52059 14.2113 3.5 14.031 3.5 13.852C3.5 12.8917 3.87396 11.9848 4.5792 11.2759Z" stroke="#2B2B2C"/>
</svg>
