<svg width="18" height="18" viewBox="0 0 18 18" fill="none" xmlns="http://www.w3.org/2000/svg">
<path fill-rule="evenodd" clip-rule="evenodd" d="M5.75 3.25C5.75 2.83579 6.08579 2.5 6.5 2.5C6.91421 2.5 7.25 2.83579 7.25 3.25C7.25 3.66421 6.91421 4 6.5 4C6.08579 4 5.75 3.66421 5.75 3.25ZM6.5 1.5C5.5335 1.5 4.75 2.2835 4.75 3.25C4.75 4.2165 5.5335 5 6.5 5C7.4665 5 8.25 4.2165 8.25 3.25C8.25 2.2835 7.4665 1.5 6.5 1.5ZM3 3C3.27614 3 3.5 3.22386 3.5 3.5V5.91339L5.13807 10.5H6.23058L5.02646 7.79072C4.64476 6.93191 5.14831 5.94757 6.04452 5.72351C6.75388 5.54617 7.50304 5.90455 7.79503 6.58585L8.82968 9.00004H11.2792C11.9249 9.00004 12.4981 9.41318 12.7022 10.0257L14.4743 15.3419C14.5251 15.4944 14.4996 15.662 14.4056 15.7924C14.3116 15.9228 14.1607 16 14 16H13.4415C12.3654 16 11.4101 15.3115 11.0698 14.2906L10.2829 11.9299L10.1744 12.3638C10.0075 13.0316 9.40753 13.5 8.71922 13.5H8V15H10C10.2761 15 10.5 15.2239 10.5 15.5C10.5 15.7761 10.2761 16 10 16H5C4.72386 16 4.5 15.7761 4.5 15.5C4.5 15.2239 4.72386 15 5 15H7V13.5H5.5C5.28869 13.5 5.1002 13.3672 5.02913 13.1682L2.52913 6.16817C2.50985 6.1142 2.5 6.05731 2.5 6V3.5C2.5 3.22386 2.72386 3 3 3ZM10 10.5L10.006 10.5H10.5C10.7152 10.5 10.9063 10.6378 10.9743 10.8419L12.0185 13.9744C12.208 14.5431 12.7157 14.9399 13.3042 14.9938L11.7536 10.3419C11.6855 10.1378 11.4944 10 11.2792 10H8.49998C8.29996 10 8.1192 9.88084 8.04041 9.697L6.87588 6.97977C6.78118 6.75881 6.53003 6.63291 6.28706 6.69365C5.97793 6.77094 5.81736 7.10804 5.94027 7.38458L7.3249 10.5H10ZM5.49522 11.5H6.99394L6.99998 11.5H9.3596L9.20429 12.1213C9.14865 12.3439 8.94866 12.5 8.71922 12.5H5.85236L5.49522 11.5Z" fill="#2B2B2C"/>
</svg>
