<svg width="24" height="24" viewBox="0 0 24 24" fill="none" xmlns="http://www.w3.org/2000/svg">
<path fill-rule="evenodd" clip-rule="evenodd" d="M6.924 3.235C6.83263 3.08881 6.6724 3 6.5 3C6.32761 3 6.16737 3.08881 6.076 3.235L3.576 7.235C3.47967 7.38913 3.47457 7.58341 3.56268 7.74238C3.65079 7.90136 3.81824 8 4 8H4.56574L3.08398 10.2227C2.98169 10.3761 2.97215 10.5734 3.05916 10.7359C3.14617 10.8985 3.3156 11 3.5 11H4.06574L2.58398 13.2226C2.48169 13.3761 2.47215 13.5733 2.55916 13.7359C2.64617 13.8985 2.8156 14 3 14H6V20H3.5C3.22386 20 3 20.2239 3 20.5C3 20.7761 3.22386 21 3.5 21H6.5H11H19H20.5C20.7761 21 21 20.7761 21 20.5C21 20.2239 20.7761 20 20.5 20H19.5V17H20.5C20.6983 17 20.8778 16.8828 20.9577 16.7013C21.0375 16.5198 21.0026 16.3083 20.8686 16.1621L19.5 14.6691V14.5V11C19.5 10.7239 19.2761 10.5 19 10.5H17C16.7239 10.5 16.5 10.7239 16.5 11V11.3964L15.3686 10.1621C15.2739 10.0588 15.1402 10 15 10C14.8599 10 14.7261 10.0588 14.6314 10.1621L9.13143 16.1621C8.99745 16.3083 8.96249 16.5198 9.04234 16.7013C9.12218 16.8828 9.30173 17 9.50001 17H10.5V18.4967L10.5 18.5L10.5 18.5033V20H7V14H10C10.1844 14 10.3538 13.8985 10.4408 13.7359C10.5278 13.5733 10.5183 13.3761 10.416 13.2226L8.93426 11H9.5C9.6844 11 9.85383 10.8985 9.94084 10.7359C10.0278 10.5734 10.0183 10.3761 9.91603 10.2227L8.43426 8H9C9.18176 8 9.34921 7.90136 9.43732 7.74238C9.52543 7.58341 9.52033 7.38913 9.424 7.235L6.924 3.235ZM16.6036 12.9893L17.5301 14H16H14H12.47L13.3965 12.9893C13.4299 12.9963 13.4645 13 13.5 13H16.5C16.5355 13 16.5701 12.9963 16.6036 12.9893ZM15.6967 12L15 11.2399L14.3033 12H15.6967ZM18.4467 15H16.5V16H19H19.3634L18.4467 15ZM11.5533 15H13.5V16H11H11H10.6366L11.5533 15ZM11.5 20V19H14H16H18.5V20H11.5ZM11.5 18H13.5V17H11.5V18ZM18.5 18H16.5V17H18.5V18ZM18.5 13.5782V11.5H17.5V12.4873L18.5 13.5782Z" fill="#2B2B2C"/>
</svg>
