<svg width="24" height="24" viewBox="0 0 24 24" fill="none" xmlns="http://www.w3.org/2000/svg">
<path fill-rule="evenodd" clip-rule="evenodd" d="M6.5 3C6.6724 3 6.83263 3.08881 6.924 3.235L9.424 7.235C9.52033 7.38913 9.52543 7.58341 9.43732 7.74238C9.34921 7.90136 9.18176 8 9 8H8.43426L9.91603 10.2227C10.0183 10.3761 10.0278 10.5734 9.94084 10.7359C9.85383 10.8985 9.6844 11 9.5 11H8.93426L10.416 13.2226C10.5183 13.3761 10.5278 13.5733 10.4408 13.7359C10.3538 13.8985 10.1844 14 10 14H7V20H10.5V18.5033L10.5 18.5L10.5 18.4967V17H9.50001C9.30173 17 9.12218 16.8828 9.04234 16.7013C8.96249 16.5198 8.99745 16.3083 9.13143 16.1621L14.6314 10.1621C14.7261 10.0588 14.8599 10 15 10C15.1402 10 15.2739 10.0588 15.3686 10.1621L16.5 11.3964V11C16.5 10.7239 16.7239 10.5 17 10.5H19C19.2761 10.5 19.5 10.7239 19.5 11V14.5V14.6691L20.8686 16.1621C21.0026 16.3083 21.0375 16.5198 20.9577 16.7013C20.8778 16.8828 20.6983 17 20.5 17H19.5V20H20.5C20.7761 20 21 20.2239 21 20.5C21 20.7761 20.7761 21 20.5 21H19H11H6.5H3.5C3.22386 21 3 20.7761 3 20.5C3 20.2239 3.22386 20 3.5 20H6V14H3C2.8156 14 2.64617 13.8985 2.55916 13.7359C2.47215 13.5733 2.48169 13.3761 2.58398 13.2226L4.06574 11H3.5C3.3156 11 3.14617 10.8985 3.05916 10.7359C2.97215 10.5734 2.98169 10.3761 3.08398 10.2227L4.56574 8H4C3.81824 8 3.65079 7.90136 3.56268 7.74238C3.47457 7.58341 3.47967 7.38913 3.576 7.235L6.076 3.235C6.16737 3.08881 6.32761 3 6.5 3ZM11.5 20V19H13.5H16.5H18.5V20H11.5ZM16 18H14V15H16V18ZM13 16V15H11.5533L10.6366 16H11H11H13ZM13.5 14H12.47L13.3965 12.9893C13.4299 12.9963 13.4645 13 13.5 13H16.5C16.5355 13 16.5701 12.9963 16.6036 12.9893L17.5301 14H16.5H13.5ZM15.6967 12H14.3033L15 11.2399L15.6967 12ZM17 15H18.4467L19.3634 16H19H17V15ZM18.5 18H17V17H18.5V18ZM11.5 18H13V17H11.5V18ZM4.90212 7H5.5C5.6844 7 5.85383 7.10149 5.94084 7.26407C6.02785 7.42665 6.01831 7.62392 5.91603 7.77735L4.43426 10H5C5.1844 10 5.35383 10.1015 5.44084 10.2641C5.52785 10.4266 5.51831 10.6239 5.41603 10.7773L3.93426 13H9.06574L7.58398 10.7773C7.48169 10.6239 7.47215 10.4266 7.55916 10.2641C7.64617 10.1015 7.8156 10 8 10H8.56574L7.08398 7.77735C6.98169 7.62392 6.97215 7.42665 7.05916 7.26407C7.14617 7.10149 7.3156 7 7.5 7H8.09788L6.5 4.4434L4.90212 7ZM18.5 13.5782V11.5H17.5V12.4873L18.5 13.5782Z" fill="#2B2B2C"/>
</svg>
