<svg width="25" height="24" viewBox="0 0 25 24" fill="none" xmlns="http://www.w3.org/2000/svg">
<path fill-rule="evenodd" clip-rule="evenodd" d="M15.9933 3.31746C16.2906 2.87694 16.9392 2.87694 17.2365 3.31746L20.6834 8.4239C20.9155 8.76775 20.7369 9.23774 20.3351 9.34078L19.5421 9.54412L21.8953 12.6472C22.1621 12.999 21.9703 13.5088 21.5378 13.5975L20.3376 13.8437L23.1561 18.1798C23.4155 18.579 23.129 19.1068 22.653 19.1068H16.9094V20.5C16.9094 20.7762 16.6855 21 16.4094 21C16.1332 21 15.9094 20.7762 15.9094 20.5V19.1068H10.5768C10.1007 19.1068 9.81428 18.579 10.0737 18.1798L11.6326 15.7816L11.9498 15.2936L11.9499 15.2936C12.0251 15.1546 12.1649 15.0534 12.3339 15.0344C12.8784 14.9731 13.7185 14.7362 14.4493 14.254C15.172 13.7772 15.754 13.0863 15.8916 12.1106C16.0248 11.1664 15.622 10.4638 15.0106 9.93726C14.3846 9.39817 13.5689 9.07653 13.0153 8.95193L12.6916 8.87907L12.633 8.55247C12.5008 7.81626 12.2376 6.77308 11.7176 5.92584C11.2061 5.09239 10.4843 4.50002 9.40936 4.50002C8.3043 4.50002 7.53929 5.05612 7.03119 5.79322C6.51121 6.54757 6.28661 7.46071 6.28661 8.0512V8.5512H5.78661C5.21557 8.5512 3.72323 9.03165 3.42898 11.4159C3.29706 12.4848 3.85471 13.289 4.72706 13.8968C5.6074 14.5102 6.73416 14.8615 7.50061 14.9909C7.7729 15.0368 7.95638 15.2948 7.91041 15.5671C7.86445 15.8394 7.60645 16.0229 7.33416 15.9769C6.46984 15.831 5.1912 15.439 4.15537 14.7173C3.11155 13.99 2.24228 12.8672 2.43651 11.2934C2.74609 8.78498 4.23243 7.81672 5.31418 7.60049C5.39911 6.87277 5.68321 5.98679 6.20785 5.22568C6.85882 4.2813 7.90518 3.50002 9.40936 3.50002C10.9437 3.50002 11.9438 4.38267 12.5699 5.40276C12.93 5.98948 13.1788 6.63828 13.3513 7.23148L15.9933 3.31746ZM9.40942 7.99999C9.68556 7.99999 9.90942 8.22385 9.90942 8.49999V12.9976V13.0033V13.1662L12.6055 11.1029C12.8248 10.9351 13.1386 10.9768 13.3064 11.1961C13.4742 11.4154 13.4325 11.7292 13.2132 11.8971L9.90942 14.4255V20.5C9.90942 20.7761 9.68556 21 9.40942 21C9.13327 21 8.90942 20.7761 8.90942 20.5V13.2676L6.13207 11.416C5.9023 11.2628 5.84022 10.9524 5.99339 10.7226C6.14657 10.4929 6.45701 10.4308 6.68677 10.584L8.90942 12.0657V8.49999C8.90942 8.22385 9.13327 7.99999 9.40942 7.99999Z" fill="#2B2B2C"/>
</svg>