<svg width="25" height="24" viewBox="0 0 25 24" fill="none" xmlns="http://www.w3.org/2000/svg">
<path fill-rule="evenodd" clip-rule="evenodd" d="M17.1122 3.13327C16.8743 2.78085 16.3555 2.78085 16.1176 3.13327L13.3513 7.23148C13.1788 6.63827 12.93 5.98946 12.5699 5.40272C11.9438 4.38264 10.9437 3.49999 9.40936 3.49999C7.90518 3.49999 6.85881 4.28127 6.20784 5.22565C5.6832 5.98675 5.39911 6.87274 5.31418 7.60045C4.23242 7.81669 2.74608 8.78495 2.4365 11.2933C2.24227 12.8671 3.11155 13.99 4.15537 14.7173C5.19119 15.439 6.46983 15.831 7.33416 15.9769C7.60645 16.0229 7.86444 15.8394 7.91041 15.5671C7.95637 15.2948 7.7729 15.0368 7.50061 14.9908C6.73415 14.8615 5.60739 14.5102 4.72705 13.8968C3.85471 13.289 3.29705 12.4848 3.42897 11.4158C3.72322 9.03162 5.21556 8.55117 5.7866 8.55117H6.2866V8.05117C6.2866 7.46068 6.51121 6.54753 7.03118 5.79319C7.53928 5.05608 8.30429 4.49999 9.40936 4.49999C10.4843 4.49999 11.2061 5.09236 11.7176 5.92581C12.2376 6.77305 12.5008 7.81622 12.633 8.55244L12.6916 8.87903L13.0153 8.95189C13.5689 9.07649 14.3846 9.39814 15.0106 9.93723C15.622 10.4638 16.0247 11.1664 15.8916 12.1106C15.754 13.0862 15.172 13.7772 14.4493 14.254C13.7185 14.7361 12.8784 14.9731 12.3339 15.0344C12.1649 15.0534 12.0251 15.1546 11.9499 15.2936L11.9498 15.2936L11.6346 15.7784L10.0989 18.0655C9.8312 18.4641 10.1169 19 10.597 19H15.9094V20.5C15.9094 20.7761 16.1332 21 16.4094 21C16.6855 21 16.9094 20.7761 16.9094 20.5V19H22.7207C23.2021 19 23.4875 18.4616 23.2172 18.0632L20.353 13.8406L21.5378 13.5975C21.9703 13.5088 22.1621 12.999 21.8953 12.6472L19.5421 9.54411L20.3351 9.34078C20.7369 9.23774 20.9155 8.76774 20.6834 8.4239L17.1122 3.13327ZM12.687 15.9942L12.471 16.3265L12.467 16.3328L12.4669 16.3328L11.3474 18H21.966L19.1049 13.782L18.6844 13.162L19.4182 13.0115L20.7148 12.7455L18.2906 9.54879L17.8359 8.94923L18.5648 8.76234L19.5371 8.51305L16.6149 4.18392L13.9179 8.17952C14.4816 8.38559 15.1202 8.71194 15.6631 9.17948C16.4582 9.86419 17.0747 10.8821 16.8818 12.2503C16.6932 13.587 15.8883 14.5027 14.9999 15.0887C14.219 15.6039 13.3476 15.8842 12.687 15.9942ZM9.40942 7.99999C9.68556 7.99999 9.90942 8.22385 9.90942 8.49999V12.9976V13.0033V13.1662L12.6055 11.1029C12.8248 10.9351 13.1386 10.9768 13.3064 11.1961C13.4742 11.4154 13.4325 11.7292 13.2132 11.8971L9.90942 14.4255V20.5C9.90942 20.7761 9.68556 21 9.40942 21C9.13327 21 8.90942 20.7761 8.90942 20.5V13.2676L6.13206 11.416C5.9023 11.2628 5.84022 10.9524 5.99339 10.7226C6.14657 10.4929 6.45701 10.4308 6.68677 10.584L8.90942 12.0657V8.49999C8.90942 8.22385 9.13327 7.99999 9.40942 7.99999Z" fill="#2B2B2C"/>
</svg>
