<svg width="19" height="18" viewBox="0 0 19 18" fill="none" xmlns="http://www.w3.org/2000/svg">
<path fill-rule="evenodd" clip-rule="evenodd" d="M6.40919 5.5C6.68533 5.5 6.90919 5.72386 6.90919 6V8.06574L7.63183 7.58397C7.86159 7.4308 8.17203 7.49289 8.3252 7.72265C8.47838 7.95241 8.41629 8.26285 8.18653 8.41603L6.90919 9.26759V14.5C6.90919 14.7761 6.68533 15 6.40919 15C6.13305 15 5.90919 14.7761 5.90919 14.5V9.22997L4.33379 7.87963C4.12413 7.69992 4.09985 7.38427 4.27956 7.1746C4.45927 6.96494 4.77492 6.94066 4.98458 7.12037L5.90919 7.91289V6C5.90919 5.72386 6.13305 5.5 6.40919 5.5Z" fill="#2B2B2C"/>
<path d="M4.74625 10.4674C3.53896 10.2777 1.68475 9.44298 1.92621 7.62187C2.16766 5.80076 3.43532 5.34548 4.03896 5.34548C4.03896 4.39699 4.4773 2.5 6.40897 2.5C8.34063 2.5 9.27055 4.58669 9.47176 5.63003C10.3772 5.81973 11.6278 6.5975 11.3863 8.19097C11.1449 9.78444 9.33289 10.4052 8.42742 10.5" stroke="#2B2B2C" stroke-linecap="round"/>
<path fill-rule="evenodd" clip-rule="evenodd" d="M13.9054 1.3406C13.6673 0.990319 13.1511 0.990319 12.913 1.3406L10.4961 4.89631C10.2037 5.32646 10.4273 5.91639 10.9313 6.04473L11.1075 6.0896L10.8254 6.52063C11.1 6.77068 11.3158 7.06991 11.4297 7.42333L12.3275 6.05161L12.7109 5.46596L12.0326 5.29324L11.5235 5.16362L13.4092 2.38944L15.2949 5.16362L14.7858 5.29324L14.0526 5.47993L14.5118 6.08124L16.1276 8.1971L15.4094 8.3434L14.6872 8.49051L15.0908 9.10716L16.9843 12H9.83404L10.5275 10.9405L11.1275 10.0238L11.1424 10.0012L11.1547 9.97705L11.4015 9.49267L11.5787 9.14499L11.2845 8.88864L11.2663 8.8728C10.9969 9.30647 10.5373 9.64459 10.0138 9.89943L9.69084 10.3928L8.59214 12.0714C8.33094 12.4705 8.61723 13 9.09416 13H17.7242C18.2011 13 18.4874 12.4705 18.2262 12.0714L16.3312 9.17616L16.9526 9.04957C17.3865 8.96119 17.5784 8.4494 17.3097 8.0975L15.7657 6.07563L16.0944 5.99195C16.4976 5.88928 16.6765 5.41734 16.4425 5.07321L13.9054 1.3406Z" fill="#2B2B2C"/>
<path d="M11.7172 8.29398L9.29883 12.2827L17.2762 12.1256L15.1405 8.70225L16.4282 8.29398L14.5752 5.59296L15.5174 5.09046L13.3818 2.20101L11.3717 5.09046V6.1897L11.7172 8.29398Z" fill="#2B2B2C"/>
<line x1="13.4092" y1="14.5" x2="13.4092" y2="12.5" stroke="#2B2B2C" stroke-linecap="round"/>
</svg>