<svg width="31" height="30" viewBox="0 0 31 30" fill="none" xmlns="http://www.w3.org/2000/svg">
<path fill-rule="evenodd" clip-rule="evenodd" d="M19.9162 3.33416C20.1548 2.98953 20.6642 2.98952 20.9028 3.33416L25.2383 9.59653C25.477 9.94134 25.2974 10.4184 24.8905 10.5201L23.7754 10.7989L26.7049 14.5653C26.9787 14.9174 26.7863 15.4346 26.3489 15.522L24.7397 15.8439L28.2219 21.0672C28.4877 21.4659 28.2019 22 27.7227 22L20.9095 22V24.5C20.9095 24.7761 20.6856 25 20.4095 25C20.1334 25 19.9095 24.7761 19.9095 24.5V22L13.0964 22C12.6172 22 12.3313 21.4659 12.5971 21.0672L14.4935 18.2227L14.6142 18.0416L14.6283 18.043L14.8049 18.0209H15.8298L15.4654 18.5676L18.5189 17.2187L18.6243 17.0658C19.1123 16.7121 20.1908 15.8029 20.3667 14.5679C20.5997 12.9322 19.855 11.7241 18.9082 10.9167C17.9782 10.1237 16.7639 9.73012 15.9659 9.55075L15.6741 9.46513C15.6835 9.4493 15.6935 9.43365 15.7042 9.41822L19.9162 3.33416Z" fill="#2B2B2C"/>
<path fill-rule="evenodd" clip-rule="evenodd" d="M7.40946 9.5C7.40946 8.7273 7.59819 7.56995 8.14273 6.62456C8.67295 5.70404 9.52414 5 10.9095 5C12.2898 5 13.3226 5.78291 14.0759 6.85072C14.8328 7.9237 15.2606 9.22612 15.4175 10.0894L15.4769 10.4161L15.801 10.4881C16.4939 10.6421 17.5129 11.0384 18.2981 11.7059C19.0688 12.3613 19.5838 13.2444 19.4145 14.4293C19.2417 15.6385 18.4889 16.4844 17.5581 17.0628C16.6204 17.6455 15.545 17.9263 14.8542 18.0031C14.5798 18.0336 14.382 18.2808 14.4125 18.5552C14.443 18.8297 14.6902 19.0274 14.9647 18.9969C15.7739 18.907 16.9985 18.5879 18.0859 17.9122C19.18 17.2323 20.1772 16.1615 20.4044 14.5707C20.6352 12.9556 19.9001 11.7554 18.9458 10.9441C18.1233 10.2447 17.1161 9.8099 16.3364 9.59202C16.1222 8.64086 15.663 7.36577 14.893 6.27428C14.0297 5.05042 12.7291 4 10.9095 4C9.09479 4 7.94598 4.96263 7.2762 6.12544C6.72458 7.0831 6.48756 8.18575 6.4263 9.04392C5.14427 9.26713 3.29471 10.3869 2.91332 13.438C2.68132 15.294 3.71642 16.6204 4.97607 17.4869C6.22863 18.3486 7.77905 18.8185 8.82726 18.9932C9.09965 19.0386 9.35726 18.8546 9.40266 18.5822C9.44806 18.3098 9.26405 18.0522 8.99166 18.0068C8.03988 17.8482 6.64029 17.418 5.54285 16.6631C4.45251 15.913 3.73761 14.906 3.9056 13.562C4.27273 10.625 6.14854 10 6.90946 10H7.40946V9.5ZM11.9095 9.5C11.9095 9.22386 11.6856 9 11.4095 9C11.1333 9 10.9095 9.22386 10.9095 9.5V14.5284L8.20007 12.5931C7.97537 12.4326 7.66309 12.4847 7.50259 12.7094C7.34208 12.9341 7.39413 13.2464 7.61884 13.4069L10.9095 15.7573V24.5C10.9095 24.7761 11.1333 25 11.4095 25C11.6856 25 11.9095 24.7761 11.9095 24.5V17.5352L15.6943 14.9109C15.9213 14.7536 15.9777 14.442 15.8203 14.2151C15.663 13.9882 15.3515 13.9318 15.1246 14.0891L11.9095 16.3183V15.5067V15.4942V9.5Z" fill="#2B2B2C"/>
</svg>