<svg width="30" height="30" viewBox="0 0 30 30" fill="none" xmlns="http://www.w3.org/2000/svg">
<path fill-rule="evenodd" clip-rule="evenodd" d="M3 15C3 8.3732 8.3732 3 15 3C21.6268 3 27 8.3732 27 15C27 21.6268 21.6268 27 15 27C8.3732 27 3 21.6268 3 15ZM15 2C7.82092 2 2 7.82092 2 15C2 22.1791 7.82092 28 15 28C22.1791 28 28 22.1791 28 15C28 7.82092 22.1791 2 15 2ZM20.2688 19.1682C18.6438 18.5745 17.1353 18.4352 15.7192 18.4001C14.1332 18.3475 13.0003 18.2598 12.3017 18.0845C11.2066 17.839 10.1115 17.3655 8.9786 16.6641C8.54433 16.401 8.12894 16.1029 7.73244 15.7522C8.12894 15.9276 8.54433 16.0679 8.9786 16.1731C9.62057 16.3309 10.9045 16.4186 12.7926 16.4537C14.6052 16.4712 15.7381 16.5413 16.1724 16.6465C17.7584 16.9973 18.7461 17.5898 19.4804 18.3086C19.7328 18.5556 20.2688 19.1682 20.2688 19.1682ZM17.3241 11.2104C19.4766 11.7014 20.855 12.736 21.4403 14.2967C21.7155 15.0295 21.7233 16.1928 21.4462 17.8028C22.1286 18.7098 22.5 19.6882 22.5 20.5C22.5 20.7762 22.2761 21 22 21C21.7239 21 21.5 20.7762 21.5 20.5C21.5 19.7921 21.0448 18.6956 20.0472 17.7239C19.9364 17.6159 19.8192 17.51 19.6958 17.4067C18.8646 16.7473 17.8907 16.2978 16.5942 16L16.399 15.9451C16.2259 15.8982 15.9454 15.859 15.5574 15.8275C14.8284 15.7794 14.0721 15.7744 13.3043 15.7694L13.1696 15.7685C12.3337 15.7628 11.4848 15.7541 10.6837 15.6813C10.3996 15.6555 10.1168 15.6213 9.83858 15.5752C9.58201 15.5446 9.37087 15.5101 9.20518 15.4716H9.16742C8.01566 15.2086 7.10935 14.6475 6.44851 13.7882C6.37298 13.683 6.29746 13.5602 6.24081 13.455C6.24081 13.455 6.24081 13.4375 6.22193 13.4375C6.20305 13.4024 6.18417 13.3673 6.14641 13.3147C5.71214 12.5958 5.46668 11.8242 5.41003 11C5.86319 11.4209 6.41074 11.7014 7.01495 11.8417C7.80796 12.0171 8.6765 12.0522 9.62057 11.9469C10.1681 11.8943 11.0178 11.754 12.1318 11.5085C13.2269 11.263 14.0577 11.1052 14.643 11.0526C15.6059 10.9474 16.4934 11 17.3241 11.2104Z" fill="#037D67"/>
</svg>
