<svg width="30" height="30" viewBox="0 0 30 30" fill="none" xmlns="http://www.w3.org/2000/svg">
<g clip-path="url(#clip0_981_4003)">
<path fill-rule="evenodd" clip-rule="evenodd" d="M5.84026 10.6336C5.69454 10.4983 5.48246 10.4622 5.30016 10.5417C5.11786 10.6212 5 10.8011 5 11C5 12.6523 5.54417 13.9281 6.57395 14.8043C7.58635 15.6657 9.0047 16.0865 10.6553 16.1805C11.3254 16.2187 12.0254 16.2285 12.7242 16.2383C12.9369 16.2412 13.1503 16.2442 13.3619 16.248C14.2772 16.2643 15.1856 16.2955 16.065 16.4017C17.8232 16.614 19.4132 17.1203 20.6464 18.3536L20.6521 18.3594C20.6577 18.3651 20.6667 18.3745 20.6788 18.3875C20.7031 18.4134 20.7399 18.4537 20.7862 18.5072C20.8791 18.6143 21.0097 18.7739 21.1556 18.9781C21.4488 19.3886 21.7959 19.969 22.0257 20.6581C22.113 20.9201 22.3961 21.0617 22.6581 20.9744C22.9201 20.887 23.0617 20.6039 22.9743 20.3419C22.7041 19.5311 22.3012 18.8614 21.9694 18.3969C21.8028 18.1636 21.6522 17.9795 21.5419 17.8522L21.5355 17.8449C21.5922 17.5367 21.6537 17.2373 21.714 16.9467L21.7304 16.8676C21.7998 16.5332 21.8674 16.2075 21.9199 15.9049C22.0276 15.2838 22.0999 14.6312 21.9084 14.1212C21.2462 12.3554 19.6955 11.2398 17.4411 10.7243C16.5488 10.4991 15.6043 10.4451 14.5934 10.555C13.9728 10.6113 13.1157 10.7756 12.0233 11.0204C10.9191 11.2638 10.0918 11.3994 9.57275 11.4492L9.56519 11.45C8.6677 11.55 7.85604 11.5153 7.12552 11.3541C6.62591 11.2376 6.24427 11.0089 5.84026 10.6336ZM20.7348 16.7437C20.7141 16.8434 20.6931 16.9452 20.6719 17.049C19.3415 16.03 17.7706 15.6004 16.1849 15.4089C15.2521 15.2963 14.3013 15.2646 13.3797 15.2482C13.1585 15.2442 12.9395 15.2411 12.7229 15.2381C12.029 15.2284 11.3587 15.219 10.7122 15.1821C9.17904 15.0948 8.00552 14.7094 7.22199 14.0427C6.65906 13.5637 6.26366 12.9107 6.0935 12.0361C6.33931 12.1615 6.60524 12.2599 6.90186 12.3288L6.90699 12.3299C7.76074 12.5187 8.68403 12.5541 9.67219 12.4443C10.2482 12.3887 11.1185 12.2439 12.2394 11.9968L12.2412 11.9964C13.3358 11.751 14.1383 11.6 14.6878 11.5506L14.6973 11.5496C15.6084 11.4501 16.4352 11.5011 17.2014 11.6951L17.2129 11.6979C19.2604 12.165 20.4643 13.1182 20.9721 14.4723C21.0558 14.695 21.0465 15.0891 20.9346 15.7339C20.885 16.0196 20.8207 16.3295 20.7503 16.6687L20.7348 16.7437Z" fill="#2B2B2C"/>
<path d="M8.87629 16.6707C8.69445 16.4629 8.37857 16.4419 8.17075 16.6237C7.96293 16.8056 7.94187 17.1214 8.12371 17.3293C10.0194 19.4958 12.9569 20 15.3125 20C16.5032 20 17.5783 19.8714 18.3548 19.7433C18.7437 19.6792 19.0593 19.6149 19.2789 19.5663C19.3887 19.542 19.4747 19.5216 19.5339 19.5071C19.5648 19.4996 19.5956 19.4918 19.6263 19.4838L19.6279 19.4834C19.8947 19.4122 20.0543 19.138 19.9831 18.8712C19.912 18.6044 19.6381 18.4458 19.3714 18.5168L19.3681 18.5177L19.3543 18.5213C19.3417 18.5245 19.3221 18.5294 19.2959 18.5359C19.2436 18.5487 19.165 18.5673 19.0629 18.5899C18.8587 18.6351 18.561 18.6958 18.1921 18.7567C17.453 18.8786 16.4343 19 15.3125 19C13.0786 19 10.5607 18.5196 8.95227 16.7558C8.92671 16.7278 8.90138 16.6994 8.87629 16.6707Z" fill="#2B2B2C"/>
<path fill-rule="evenodd" clip-rule="evenodd" d="M15 2C7.82092 2 2 7.82092 2 15C2 22.1791 7.82092 28 15 28C22.1791 28 28 22.1791 28 15C28 7.82092 22.1791 2 15 2ZM3 15C3 8.3732 8.3732 3 15 3C21.6268 3 27 8.3732 27 15C27 21.6268 21.6268 27 15 27C8.3732 27 3 21.6268 3 15Z" fill="#2B2B2C"/>
</g>
<defs>
<clipPath id="clip0_981_4003">
<rect width="30" height="30" fill="white"/>
</clipPath>
</defs>
</svg>
