<svg width="18" height="18" viewBox="0 0 18 18" fill="none" xmlns="http://www.w3.org/2000/svg">
<g clip-path="url(#clip0_981_4019)">
<path fill-rule="evenodd" clip-rule="evenodd" d="M4.31814 6.61203C4.16769 6.49354 3.96277 6.4714 3.79047 6.55502C3.61818 6.63864 3.50879 6.81332 3.50879 7.00484C3.50879 8.25929 4.29409 9.03113 5.20432 9.45913C6.09753 9.87911 7.17645 10.0096 8.00298 9.99995C9.59827 9.99996 10.8344 10.0095 12.1757 10.885C12.1845 10.8947 12.195 10.9066 12.2072 10.9206C12.2523 10.9726 12.3192 11.0536 12.3991 11.1626C12.5591 11.3808 12.7699 11.7095 12.9629 12.1405C13.0757 12.3925 13.3715 12.5053 13.6236 12.3924C13.8756 12.2796 13.9884 11.9838 13.8755 11.7318C13.6493 11.2266 13.4005 10.8372 13.2057 10.5714C13.1344 10.4742 13.0702 10.3932 13.0167 10.329C13.1048 9.12781 12.8967 8.22926 12.3881 7.60393C11.8455 6.93691 11.0494 6.6891 10.2457 6.61917C9.44437 6.54945 8.55013 6.64935 7.71972 6.75678C7.60095 6.77214 7.48363 6.78763 7.36786 6.80292C6.64972 6.89773 5.9915 6.98463 5.42215 6.98463C5.23009 6.98463 5.00089 6.93275 4.78119 6.85036C4.55903 6.76705 4.39103 6.66943 4.31814 6.61203ZM11.6123 8.23494C11.8388 8.51346 12.012 8.95289 12.0341 9.65693C10.6811 8.99983 9.38295 8.99989 8.03973 8.99995L8 8.99995L7.99393 8.99999C7.25468 9.00897 6.33958 8.8879 5.62984 8.55417C5.26677 8.38346 4.97671 8.16921 4.78266 7.89801C4.98607 7.9501 5.20446 7.98463 5.42215 7.98463C6.06323 7.98463 6.79707 7.8874 7.50815 7.79319C7.62207 7.7781 7.73574 7.76304 7.84802 7.74851C8.68627 7.64007 9.47962 7.5563 10.159 7.61541C10.836 7.67431 11.3137 7.86783 11.6123 8.23494Z" fill="#2B2B2C"/>
<path d="M5.81986 10.1157C5.60773 9.93931 5.29254 9.96788 5.11589 10.1799C4.93911 10.392 4.96777 10.7073 5.17991 10.8841L5.5 10.5C5.17991 10.8841 5.17975 10.8839 5.17991 10.8841L5.18152 10.8854L5.18424 10.8877L5.19296 10.8948L5.22325 10.9191C5.24904 10.9396 5.28593 10.9684 5.33307 11.0039C5.42728 11.0748 5.56283 11.1728 5.73282 11.2847C6.07157 11.5078 6.55337 11.7906 7.12213 12.0248C8.24511 12.4872 9.80825 12.7981 11.2572 11.9287C11.494 11.7866 11.5708 11.4795 11.4287 11.2427C11.2867 11.0059 10.9795 10.9291 10.7428 11.0712C9.69175 11.7018 8.50489 11.5127 7.50287 11.1001C7.00913 10.8968 6.58468 10.6484 6.28281 10.4496C6.13248 10.3506 6.01413 10.2649 5.93451 10.205C5.89473 10.175 5.86473 10.1516 5.84536 10.1362L5.8244 10.1194L5.81986 10.1157Z" fill="#2B2B2C"/>
<path fill-rule="evenodd" clip-rule="evenodd" d="M9 1C4.58209 1 1 4.58209 1 9C1 13.4179 4.58209 17 9 17C13.4179 17 17 13.4179 17 9C17 4.58209 13.4179 1 9 1ZM2 9C2 5.13438 5.13438 2 9 2C12.8656 2 16 5.13438 16 9C16 12.8656 12.8656 16 9 16C5.13438 16 2 12.8656 2 9Z" fill="#2B2B2C"/>
</g>
<defs>
<clipPath id="clip0_981_4019">
<rect width="18" height="18" fill="white"/>
</clipPath>
</defs>
</svg>
