<svg width="24" height="24" viewBox="0 0 24 24" fill="none" xmlns="http://www.w3.org/2000/svg">
<g clip-path="url(#clip0_981_4011)">
<path fill-rule="evenodd" clip-rule="evenodd" d="M3 12C3 7.02991 7.02991 3 12 3C16.9701 3 21 7.02991 21 12C21 16.9701 16.9701 21 12 21C7.02991 21 3 16.9701 3 12ZM12 2C6.47762 2 2 6.47762 2 12C2 17.5224 6.47762 22 12 22C17.5224 22 22 17.5224 22 12C22 6.47762 17.5224 2 12 2ZM16.0215 15.4239C14.9156 14.7949 13.8593 14.5888 12.7438 14.5518C11.475 14.5097 10.5346 14.4586 9.58373 14.2052C8.09776 13.8093 7.48541 13.3172 6.73084 12.6018C8.00501 12.999 9.14898 13.1428 10.2341 13.1629C11.6842 13.1769 12.5905 13.2331 12.9379 13.3172C14.2648 13.5676 14.8489 13.9923 15.4513 14.5518C15.8145 14.8891 16.0215 15.4239 16.0215 15.4239ZM13.5814 9.02493C15.1546 9.1372 16.684 10.1888 17.1522 11.4374C17.3715 12.0211 17.3786 12.9465 17.1598 14.2261C17.645 14.9731 17.9083 15.768 17.9957 16.435C18.0316 16.7088 17.8387 16.9599 17.5649 16.9957C17.2911 17.0316 17.0401 16.8388 17.0042 16.565C16.8649 15.502 16.1696 14.0121 14.5876 13.2238C14.1977 13.0521 13.7654 12.9125 13.2754 12.8C13.1803 12.7782 13.0732 12.7578 12.9549 12.7391C12.835 12.7235 12.7121 12.7111 12.5859 12.7021C12.0958 12.6674 11.5993 12.6513 11.0961 12.6349L11.0961 12.6348L11.096 12.6348C10.9403 12.6298 10.784 12.6247 10.627 12.619C10.4673 12.6132 10.3072 12.6069 10.1474 12.5993C9.19292 12.5794 8.28694 12.4814 7.6434 12.332C7.00128 12.1829 6.35482 11.817 5.86736 11.3119C5.32338 10.7483 4.99268 9.68253 4.99268 9.02561C5.32585 9.28799 5.7259 9.48039 6.21929 9.55755C6.71269 9.6347 8.15759 9.72858 9.46016 9.43657C10.7627 9.14456 12.0082 8.91267 13.5814 9.02493Z" fill="#2B2B2C"/>
</g>
<defs>
<clipPath id="clip0_981_4011">
<rect width="24" height="24" fill="white"/>
</clipPath>
</defs>
</svg>
