<svg width="24" height="24" viewBox="0 0 24 24" fill="none" xmlns="http://www.w3.org/2000/svg">
<g clip-path="url(#clip0_981_4015)">
<path fill-rule="evenodd" clip-rule="evenodd" d="M16.6311 14.8329C16.6354 14.8377 16.6404 14.8431 16.6449 14.8478L16.6514 14.855C16.6595 14.8641 16.6745 14.8817 16.6956 14.9087C16.7378 14.9626 16.8043 15.0541 16.8874 15.19C17.0534 15.4618 17.2863 15.9126 17.5231 16.5983C17.6133 16.8593 17.8979 16.9978 18.1589 16.9076C18.42 16.8174 18.5585 16.5328 18.4683 16.2718C18.2094 15.5224 17.9466 15.0057 17.7407 14.6687C17.6749 14.561 17.615 14.4717 17.563 14.3992L17.5737 14.3627C17.6287 14.1728 17.6963 13.9049 17.7481 13.5884C17.8502 12.964 17.8978 12.108 17.6274 11.2819C17.0725 9.58617 15.3143 8.64732 13.617 8.5262C11.9698 8.40866 10.6671 8.6536 9.35079 8.94868C8.12605 9.22324 6.74723 9.13403 6.29654 9.06355C5.89316 9.00047 5.57209 8.84548 5.30203 8.6328C5.15157 8.51431 4.94665 8.49217 4.77436 8.57579C4.60207 8.65941 4.49268 8.83409 4.49268 9.02561C4.49268 9.42531 4.59052 9.91409 4.75552 10.3729C4.91995 10.8302 5.16925 11.3086 5.50759 11.6591C6.68499 12.879 8.35257 13.1772 9.94107 13.2671C10.5045 13.2989 11.0836 13.3051 11.6407 13.311C11.8708 13.3135 12.0972 13.3159 12.3171 13.3201C13.0848 13.3346 13.7882 13.3703 14.404 13.4907C15.0049 13.6082 15.5601 13.9342 15.9798 14.2522C16.1864 14.4086 16.3524 14.5572 16.4659 14.6658C16.5224 14.7199 16.5655 14.7637 16.5937 14.793C16.6077 14.8076 16.618 14.8186 16.6243 14.8255L16.6311 14.8329ZM9.56954 9.92446C10.8584 9.63552 12.0467 9.41669 13.5458 9.52367C14.9948 9.62707 16.2912 10.4138 16.677 11.5929C16.8771 12.2041 16.8507 12.8795 16.7612 13.427C16.7529 13.4773 16.7442 13.5262 16.7352 13.5734C16.687 13.5346 16.6365 13.495 16.5836 13.455C16.1043 13.092 15.4074 12.668 14.596 12.5093C13.8887 12.371 13.1109 12.3349 12.336 12.3202C12.0981 12.3157 11.8615 12.3132 11.6259 12.3107C11.0788 12.3049 10.537 12.2992 9.99753 12.2686C8.44981 12.1811 7.12409 11.894 6.22713 10.9647C6.02149 10.7516 5.83345 10.4153 5.69653 10.0345C5.68514 10.0029 5.67422 9.97122 5.66379 9.93969C5.81491 9.98756 5.97415 10.0253 6.14205 10.0515C6.67815 10.1354 8.18913 10.2339 9.56954 9.92446Z" fill="#2B2B2C"/>
<path d="M7.77735 13.584C7.54759 13.4308 7.23715 13.4929 7.08397 13.7227C6.9308 13.9524 6.99289 14.2628 7.22265 14.416C8.01662 14.9453 9.31739 15.5941 10.8113 15.9838C12.3033 16.373 14.0342 16.5157 15.6581 15.9743C15.9201 15.887 16.0617 15.6039 15.9743 15.3419C15.887 15.0799 15.6039 14.9383 15.3419 15.0257C13.9658 15.4843 12.4467 15.377 11.0637 15.0162C9.68261 14.6559 8.48338 14.0547 7.77735 13.584Z" fill="#2B2B2C"/>
<path fill-rule="evenodd" clip-rule="evenodd" d="M12 2C6.47762 2 2 6.47762 2 12C2 17.5224 6.47762 22 12 22C17.5224 22 22 17.5224 22 12C22 6.47762 17.5224 2 12 2ZM3 12C3 7.02991 7.02991 3 12 3C16.9701 3 21 7.02991 21 12C21 16.9701 16.9701 21 12 21C7.02991 21 3 16.9701 3 12Z" fill="#2B2B2C"/>
</g>
<defs>
<clipPath id="clip0_981_4015">
<rect width="24" height="24" fill="white"/>
</clipPath>
</defs>
</svg>
