<svg width="18" height="18" viewBox="0 0 18 18" fill="none" xmlns="http://www.w3.org/2000/svg">
  <path fill-rule="evenodd" clip-rule="evenodd"
    d="M2 9C2 5.13438 5.13438 2 9 2C12.8656 2 16 5.13438 16 9C16 12.8656 12.8656 16 9 16C5.13438 16 2 12.8656 2 9ZM9 1C4.58209 1 1 4.58209 1 9C1 13.4179 4.58209 17 9 17C13.4179 17 17 13.4179 17 9C17 4.58209 13.4179 1 9 1ZM11.9407 11.6593C11.3106 11.2849 10.599 11.1029 9.78751 10.9788C9.3182 10.9071 8.8588 10.8966 8.41239 10.8864H8.41238H8.41234C8.08687 10.879 7.7683 10.8717 7.45783 10.841C6.69447 10.7654 5.91702 10.4455 5.35052 9.55715C6.21497 9.91855 6.92859 10.0509 7.63269 10.0509C7.71412 10.0509 7.79778 10.0506 7.883 10.0504H7.88302C8.53467 10.0485 9.27832 10.0464 9.82611 10.1497C10.6455 10.3043 10.9219 10.4943 11.3737 10.9139C11.6462 11.1669 11.9407 11.6593 11.9407 11.6593ZM10.495 6.88077C11.5446 6.95569 12.3385 7.62511 12.6897 8.56152C12.8596 9.01395 12.9223 9.51355 12.8116 10.4897L12.8041 10.4939C13.1608 11.0102 13.3489 11.5407 13.4192 11.9361C13.4603 12.1672 13.3063 12.3879 13.0752 12.429C12.8441 12.4701 12.6234 12.3161 12.5823 12.085C12.5155 11.7091 12.2996 11.1408 11.8352 10.6388C11.3656 10.1855 10.9103 9.90925 10.0528 9.7123C9.65214 9.62027 8.88186 9.60009 8.04849 9.60009C7.18256 9.61061 6.62625 9.54218 6.05939 9.36935C5.43446 9.17883 5.03795 8.87173 4.67235 8.49293C4.26437 8.07021 4.00879 7.49753 4.00879 7.00484C4.25867 7.20163 4.87936 7.48463 5.42215 7.48463C6.49774 7.48463 6.88971 7.39594 7.60078 7.23504L7.78124 7.19434L7.89419 7.16896C8.68921 6.99007 9.49287 6.80923 10.495 6.88077Z"
    fill="#2B2B2C" />
</svg>