<svg width="18" height="18" viewBox="0 0 18 18" fill="none" xmlns="http://www.w3.org/2000/svg">
<path fill-rule="evenodd" clip-rule="evenodd" d="M9.00001 1.5C9.1386 1.5 9.27098 1.55752 9.36554 1.65884L11.5 3.94576V3C11.5 2.72386 11.7239 2.5 12 2.5H14C14.2761 2.5 14.5 2.72386 14.5 3V7.16005L16.3655 9.15884C16.5014 9.30439 16.5379 9.51667 16.4586 9.69927C16.3792 9.88188 16.1991 10 16 10H14.5V15.5C14.5 15.7761 14.2762 16 14 16H4.00001C3.72387 16 3.50001 15.7761 3.50001 15.5V10H2.00001C1.80091 10 1.62079 9.88188 1.54144 9.69927C1.46209 9.51667 1.49863 9.30439 1.63448 9.15884L8.63448 1.65884C8.72905 1.55752 8.86142 1.5 9.00001 1.5ZM13.5 6.08862L12.484 5H12.5V3.5H13.5V6.08862ZM3.15062 9H4.00001C4.27615 9 4.50001 9.22386 4.50001 9.5V15H7V10.5C7 10.2239 7.22386 10 7.5 10H10.5C10.7761 10 11 10.2239 11 10.5V15H13.5V9.5C13.5 9.22386 13.7239 9 14 9H14.8494L9.00001 2.7328L3.15062 9ZM10 15V11H8V15H10Z" fill="#2B2B2C"/>
</svg>
