<svg width="24" height="24" viewBox="0 0 24 24" fill="none" xmlns="http://www.w3.org/2000/svg">
<path fill-rule="evenodd" clip-rule="evenodd" d="M12.3726 2.6666C12.2778 2.56059 12.1423 2.5 12 2.5C11.8578 2.5 11.7222 2.56059 11.6274 2.6666L3.12739 12.1666C2.9959 12.3136 2.96307 12.5241 3.04356 12.7041C3.12404 12.8841 3.30282 13 3.50001 13H5.50001V18C5.50001 18.5523 5.94772 19 6.50001 19H17.5C18.0523 19 18.5 18.5523 18.5 18V13H20.5C20.6972 13 20.876 12.8841 20.9565 12.7041C21.0369 12.5241 21.0041 12.3136 20.8726 12.1666L19 10.0737V5C19 4.72386 18.7761 4.5 18.5 4.5H16C15.7239 4.5 15.5 4.72386 15.5 5V6.1619L12.3726 2.6666ZM18 5.5V8.95602L16.5 7.27955V5.5H18ZM6.00001 12H4.6183L12 3.74986L19.3817 12H18C17.7239 12 17.5 12.2239 17.5 12.5V18H14V13C14 12.7239 13.7761 12.5 13.5 12.5H10.5C10.2239 12.5 10 12.7239 10 13V18H6.50001V12.5C6.50001 12.2239 6.27615 12 6.00001 12ZM11 18H13V13.5H11V18ZM4.5 20C4.22386 20 4 20.2239 4 20.5C4 20.7761 4.22386 21 4.5 21H19.5C19.7761 21 20 20.7761 20 20.5C20 20.2239 19.7761 20 19.5 20H4.5Z" fill="#2B2B2C"/>
</svg>
