<svg width="24" height="24" viewBox="0 0 24 24" fill="none" xmlns="http://www.w3.org/2000/svg">
<path fill-rule="evenodd" clip-rule="evenodd" d="M12.363 2.65613C12.2686 2.55646 12.1373 2.5 12 2.5C11.8627 2.5 11.7315 2.55646 11.637 2.65613L2.63704 12.1561C2.49964 12.3012 2.46176 12.514 2.5407 12.6976C2.61964 12.8811 2.80024 13 3.00001 13H5.00001V20C5.00001 20.5523 5.44773 21 6.00001 21H18C18.5523 21 19 20.5523 19 20V13H21C21.1998 13 21.3804 12.8811 21.4593 12.6976C21.5383 12.514 21.5004 12.3012 21.363 12.1561L19 9.66186V4.5C19 4.22386 18.7761 4 18.5 4H16C15.7239 4 15.5 4.22386 15.5 4.5V5.96742L12.363 2.65613ZM16.4782 7L18 8.60631V5H16.5V7H16.4782ZM14 14V20H10V14C10 13.7239 10.2239 13.5 10.5 13.5H13.5C13.7761 13.5 14 13.7239 14 14Z" fill="#2B2B2C"/>
</svg>
