<svg width="30" height="30" viewBox="0 0 30 30" fill="none" xmlns="http://www.w3.org/2000/svg">
<path fill-rule="evenodd" clip-rule="evenodd" d="M14.2641 3.06147C14.6602 2.63088 15.3398 2.63088 15.7359 3.06147L19 6.60937V5C19 4.72386 19.2239 4.5 19.5 4.5H23C23.2761 4.5 23.5 4.72386 23.5 5V11.5H23.4994L26.868 15.1615C27.0023 15.3076 27.0376 15.5192 26.9579 15.701C26.8781 15.8827 26.6985 16 26.5 16H23.5V23.5C23.5 24.0523 23.0523 24.5 22.5 24.5H17.5V17C17.5 16.7239 17.2761 16.5 17 16.5H13C12.7239 16.5 12.5 16.7239 12.5 17V24.5H7.5C6.94772 24.5 6.5 24.0523 6.5 23.5V16H3.5C3.30156 16 3.12189 15.8827 3.04215 15.701C2.9624 15.5192 2.99768 15.3076 3.13204 15.1615L14.2641 3.06147ZM22.5 10.4137L20 7.69632V5.5H22.5V10.4137ZM5 26C4.72386 26 4.5 26.2239 4.5 26.5C4.5 26.7761 4.72386 27 5 27H25C25.2761 27 25.5 26.7761 25.5 26.5C25.5 26.2239 25.2761 26 25 26H5Z" fill="#2B2B2C"/>
</svg>
