<svg width="18" height="18" viewBox="0 0 18 18" fill="none" xmlns="http://www.w3.org/2000/svg">
<path fill-rule="evenodd" clip-rule="evenodd" d="M9.36641 2.15977C9.2718 2.05789 9.13905 2 9.00001 2C8.86098 2 8.72822 2.05789 8.63361 2.15977L2.13361 9.15977C1.99829 9.3055 1.9622 9.51757 2.04169 9.69986C2.12118 9.88215 2.30114 10 2.50001 10H4.00001V13.5C4.00001 13.7761 4.22387 14 4.50001 14H7.50002V10C7.50002 9.72386 7.72387 9.5 8.00002 9.5H10C10.2762 9.5 10.5 9.72386 10.5 10V14H13.5C13.7762 14 14 13.7761 14 13.5V10H15.5C15.6989 10 15.8788 9.88215 15.9583 9.69986C16.0378 9.51757 16.0017 9.3055 15.8664 9.15977L14 7.1498V3.5C14 3.22386 13.7761 3 13.5 3H11.5C11.2239 3 11 3.22386 11 3.5V3.91903L9.36641 2.15977ZM12 4.99595L13 6.07287V4H12V4.99595ZM3 15.5C3 15.2239 3.22386 15 3.5 15H14.5C14.7761 15 15 15.2239 15 15.5C15 15.7761 14.7761 16 14.5 16H3.5C3.22386 16 3 15.7761 3 15.5Z" fill="#2B2B2C"/>
</svg>
