<svg width="30" height="30" viewBox="0 0 30 30" fill="none" xmlns="http://www.w3.org/2000/svg">
<path fill-rule="evenodd" clip-rule="evenodd" d="M14.2786 3.02939C14.6722 2.61943 15.3278 2.61944 15.7214 3.02939L19.5 6.96545V4.5C19.5 4.22386 19.7239 4 20 4H23.5C23.7761 4 24 4.22386 24 4.5V11.6529L27.3607 15.1537C27.4995 15.2982 27.5385 15.5116 27.46 15.696C27.3814 15.8803 27.2004 15.9999 27 15.9999H24V24.9999C24 25.5522 23.5523 25.9999 23 25.9999H7C6.44772 25.9999 6 25.5522 6 24.9999V15.9999H3C2.79963 15.9999 2.6186 15.8803 2.54004 15.696C2.46147 15.5116 2.50054 15.2982 2.63931 15.1537L14.2786 3.02939ZM23 10.6113L20.4932 8H20.5V5H23V10.6113ZM4.17311 14.9999H6.5C6.77614 14.9999 7 15.2238 7 15.4999V24.9999H12V17C12 16.7239 12.2239 16.5 12.5 16.5H17.5C17.7761 16.5 18 16.7239 18 17V24.9999H23V15.4999C23 15.2238 23.2239 14.9999 23.5 14.9999H25.8269L15 3.72192L4.17311 14.9999ZM17 24.9999V17.5H13V24.9999H17Z" fill="#2B2B2C"/>
</svg>
