<svg width="30" height="30" viewBox="0 0 30 30" fill="none" xmlns="http://www.w3.org/2000/svg">
<path fill-rule="evenodd" clip-rule="evenodd" d="M15.7214 3.02939C15.3278 2.61944 14.6722 2.61943 14.2786 3.02939L2.6393 15.1537C2.50054 15.2982 2.46147 15.5116 2.54003 15.696C2.6186 15.8803 2.79962 15.9999 3 15.9999H6V24.9999C6 25.5522 6.44771 25.9999 7 25.9999H23C23.5523 25.9999 24 25.5522 24 24.9999V15.9999H27C27.2004 15.9999 27.3814 15.8803 27.46 15.696C27.5385 15.5116 27.4995 15.2982 27.3607 15.1537L24 11.6529V4.5C24 4.22386 23.7761 4 23.5 4H20C19.7239 4 19.5 4.22386 19.5 4.5V6.96545L15.7214 3.02939ZM23 5V10.6113L20.4932 8H20.5V5H23ZM17.5 24.9999V17.5C17.5 17.2239 17.2761 17 17 17H13C12.7239 17 12.5 17.2239 12.5 17.5V24.9999H17.5Z" fill="#2B2B2C"/>
</svg>
