<svg width="24" height="24" viewBox="0 0 24 24" fill="none" xmlns="http://www.w3.org/2000/svg">
<path fill-rule="evenodd" clip-rule="evenodd" d="M12 2.5C12.1373 2.5 12.2686 2.55646 12.363 2.65613L15.5 5.96742V4.5C15.5 4.22386 15.7239 4 16 4H18.5C18.7761 4 19 4.22386 19 4.5V9.66186L21.363 12.1561C21.5004 12.3012 21.5383 12.514 21.4593 12.6976C21.3804 12.8811 21.1998 13 21 13H19V20C19 20.5523 18.5523 21 18 21H6.00001C5.44773 21 5.00001 20.5523 5.00001 20V13H3.00001C2.80024 13 2.61964 12.8811 2.5407 12.6976C2.46176 12.514 2.49964 12.3012 2.63704 12.1561L11.637 2.65613C11.7315 2.55646 11.8627 2.5 12 2.5ZM18 8.60631L16.4782 7H16.5V5H18V8.60631ZM4.16245 12H5.50001C5.77615 12 6.00001 12.2239 6.00001 12.5V20H9.5V13.5C9.5 13.2239 9.72386 13 10 13H14C14.2761 13 14.5 13.2239 14.5 13.5V20H18V12.5C18 12.2239 18.2239 12 18.5 12H19.8376L12 3.72701L4.16245 12ZM13.5 20V14H10.5V20H13.5Z" fill="#2B2B2C"/>
</svg>
