<svg width="24" height="24" viewBox="0 0 24 24" fill="none" xmlns="http://www.w3.org/2000/svg">
<path fill-rule="evenodd" clip-rule="evenodd" d="M12.265 2.076C12.1029 1.97467 11.8971 1.97467 11.735 2.076L10.5973 2.78707C8.92507 3.83221 6.86154 4.03908 5.01513 3.34668C4.28202 3.07176 3.5 3.61371 3.5 4.39666V11.4763C3.5 16.4319 6.87945 20.7488 11.6902 21.9385C11.8937 21.9888 12.1063 21.9888 12.3098 21.9385C17.1205 20.7488 20.5 16.4319 20.5 11.4763V4.39666C20.5 3.6137 19.718 3.07176 18.9849 3.34667C17.1385 4.03908 15.0749 3.83221 13.4027 2.78707L12.265 2.076ZM11.1273 3.63507L12 3.08962L12.8727 3.63507C14.8089 4.84518 17.1981 5.0847 19.336 4.283C19.4153 4.25325 19.5 4.31191 19.5 4.39666V11.4763C19.5 15.9721 16.4341 19.8885 12.0698 20.9677C12.0239 20.979 11.9761 20.979 11.9303 20.9677C7.56588 19.8885 4.5 15.9721 4.5 11.4763V4.39666C4.5 4.31191 4.58465 4.25325 4.66401 4.283C6.80186 5.0847 9.19111 4.84518 11.1273 3.63507ZM16.8536 9.35355C17.0488 9.15829 17.0488 8.84171 16.8536 8.64645C16.6583 8.45118 16.3417 8.45118 16.1464 8.64645L11.5 13.2929L8.85355 10.6464C8.65829 10.4512 8.34171 10.4512 8.14645 10.6464C7.95118 10.8417 7.95118 11.1583 8.14645 11.3536L11.1464 14.3536C11.3417 14.5488 11.6583 14.5488 11.8536 14.3536L16.8536 9.35355Z" fill="#2B2B2C"/>
</svg>
