<svg width="18" height="18" viewBox="0 0 18 18" fill="none" xmlns="http://www.w3.org/2000/svg">
<path fill-rule="evenodd" clip-rule="evenodd" d="M9.27481 1.08229C9.10803 0.97257 8.89197 0.97257 8.72519 1.08229L7.81583 1.68055C6.62122 2.46649 5.13419 2.667 3.77407 2.22556C3.14512 2.02142 2.5 2.49029 2.5 3.15154V8.96401C2.5 12.7408 5.07044 16.033 8.7345 16.949C8.90882 16.9926 9.09118 16.9926 9.2655 16.949C12.9296 16.033 15.5 12.7408 15.5 8.96401V3.15154C15.5 2.49029 14.8549 2.02142 14.2259 2.22556C12.8658 2.667 11.3788 2.46649 10.1842 1.68055L9.27481 1.08229ZM12.3536 6.64645C12.5488 6.84171 12.5488 7.15829 12.3536 7.35355L8.85355 10.8536C8.65829 11.0488 8.34171 11.0488 8.14645 10.8536L6.14645 8.85355C5.95118 8.65829 5.95118 8.34171 6.14645 8.14645C6.34171 7.95118 6.65829 7.95118 6.85355 8.14645L8.5 9.79289L11.6464 6.64645C11.8417 6.45118 12.1583 6.45118 12.3536 6.64645Z" fill="#2B2B2C"/>
</svg>
