<svg width="18" height="18" viewBox="0 0 18 18" fill="none" xmlns="http://www.w3.org/2000/svg">
<path fill-rule="evenodd" clip-rule="evenodd" d="M9.27481 1.08229C9.10803 0.97257 8.89197 0.97257 8.72519 1.08229L7.81583 1.68055C6.62122 2.46649 5.13419 2.667 3.77407 2.22556C3.14512 2.02142 2.5 2.49029 2.5 3.15154V8.96401C2.5 12.7408 5.07044 16.033 8.7345 16.949C8.90882 16.9926 9.09118 16.9926 9.2655 16.949C12.9296 16.033 15.5 12.7408 15.5 8.96401V3.15154C15.5 2.49029 14.8549 2.02142 14.2259 2.22556C12.8658 2.667 11.3788 2.46649 10.1842 1.68055L9.27481 1.08229ZM8.36545 2.51597L9 2.0985L9.63455 2.51597C11.0727 3.46214 12.8605 3.70847 14.5 3.18783V8.96401C14.5 12.282 12.2419 15.1741 9.02296 15.9789C9.00789 15.9826 8.99211 15.9826 8.97704 15.9789C5.75814 15.1741 3.5 12.282 3.5 8.96401V3.18783C5.13954 3.70847 6.92727 3.46214 8.36545 2.51597ZM12.3536 7.35355C12.5488 7.15829 12.5488 6.84171 12.3536 6.64645C12.1583 6.45118 11.8417 6.45118 11.6464 6.64645L8.5 9.79289L6.85355 8.14645C6.65829 7.95118 6.34171 7.95118 6.14645 8.14645C5.95118 8.34171 5.95118 8.65829 6.14645 8.85355L8.14645 10.8536C8.34171 11.0488 8.65829 11.0488 8.85355 10.8536L12.3536 7.35355Z" fill="#2B2B2C"/>
</svg>
