<svg width="30" height="30" viewBox="0 0 30 30" fill="none" xmlns="http://www.w3.org/2000/svg">
<path fill-rule="evenodd" clip-rule="evenodd" d="M15.3 3.1C15.1222 2.96667 14.8778 2.96667 14.7 3.1L14.4764 3.26771C12.2554 4.93346 9.34369 5.36567 6.73459 4.41691C5.89146 4.11032 5 4.73472 5 5.63187V14.4386C5 20.0509 8.63845 25.0154 13.9902 26.7055C14.6474 26.913 15.3526 26.913 16.0098 26.7055C21.3616 25.0154 25 20.0509 25 14.4386V5.63187C25 4.73472 24.1085 4.11032 23.2654 4.41691C20.6563 5.36567 17.7446 4.93346 15.5236 3.26771L15.3 3.1ZM21.3536 10.1464C21.5488 10.3417 21.5488 10.6583 21.3536 10.8536L14.3536 17.8536C14.1583 18.0488 13.8417 18.0488 13.6464 17.8536L9.64645 13.8536C9.45118 13.6583 9.45118 13.3417 9.64645 13.1464C9.84171 12.9512 10.1583 12.9512 10.3536 13.1464L14 16.7929L20.6464 10.1464C20.8417 9.95118 21.1583 9.95118 21.3536 10.1464Z" fill="#2B2B2C"/>
</svg>
