<svg width="30" height="30" viewBox="0 0 30 30" fill="none" xmlns="http://www.w3.org/2000/svg">
<path fill-rule="evenodd" clip-rule="evenodd" d="M15.3 3.1C15.1222 2.96667 14.8778 2.96667 14.7 3.1L14.4764 3.26771C12.2554 4.93346 9.34369 5.36567 6.73459 4.41691C5.89146 4.11032 5 4.73472 5 5.63187V14.4386C5 20.0509 8.63845 25.0154 13.9902 26.7055C14.6474 26.913 15.3526 26.913 16.0098 26.7055C21.3616 25.0154 25 20.0509 25 14.4386V5.63187C25 4.73472 24.1085 4.11032 23.2654 4.41691C20.6563 5.36567 17.7446 4.93346 15.5236 3.26771L15.3 3.1ZM6.39285 5.3567C9.28951 6.41004 12.5187 5.9458 15 4.12439C17.4813 5.9458 20.7105 6.41004 23.6071 5.3567C23.7981 5.28727 24 5.42868 24 5.63187V14.4386C24 19.6146 20.6444 24.1932 15.7086 25.7519C15.2474 25.8975 14.7526 25.8975 14.2914 25.7519C9.35561 24.1932 6 19.6146 6 14.4386V5.63187C6 5.42868 6.2019 5.28727 6.39285 5.3567ZM21.3536 10.8536C21.5488 10.6583 21.5488 10.3417 21.3536 10.1464C21.1583 9.95118 20.8417 9.95118 20.6464 10.1464L14 16.7929L10.3536 13.1464C10.1583 12.9512 9.84171 12.9512 9.64645 13.1464C9.45118 13.3417 9.45118 13.6583 9.64645 13.8536L13.6464 17.8536C13.8417 18.0488 14.1583 18.0488 14.3536 17.8536L21.3536 10.8536Z" fill="#2B2B2C"/>
</svg>
