<svg width="19" height="18" viewBox="0 0 19 18" fill="none" xmlns="http://www.w3.org/2000/svg">
<path fill-rule="evenodd" clip-rule="evenodd" d="M10.7796 3.52406C10.3968 2.8468 9.42128 2.8468 9.03849 3.52406L3.1846 13.8809C2.90201 14.3809 3.26322 15 3.83752 15H15.9806C16.5549 15 16.9161 14.3809 16.6335 13.8809L10.7796 3.52406ZM12.365 8.36133L15.5521 14H4.266L6.5062 10.0365L7.58222 11.4432C7.94126 11.9125 8.67685 11.8016 8.8815 11.2472L9.72542 8.96119L10.4637 9.65826C10.8036 9.97915 11.351 9.91434 11.6066 9.52294L12.365 8.36133ZM11.8109 7.38092L9.90905 4.01611L7.04119 9.09002L8.10062 10.475L9.04937 7.90497L9.31144 7.19506L9.86168 7.71456L10.9328 8.72582L11.8109 7.38092Z" fill="#2B2B2C"/>
<circle cx="15.4092" cy="3.5" r="2" stroke="#2B2B2C"/>
</svg>