<svg width="25" height="24" viewBox="0 0 25 24" fill="none" xmlns="http://www.w3.org/2000/svg">
<path d="M18.4094 20.5L11.1259 5.93288C11.0351 5.75132 10.7772 5.74793 10.6817 5.92704L3.1055 20.1324C3.01669 20.2989 3.13736 20.5 3.32609 20.5H18.4094ZM18.4094 20.5H22.9094" stroke="#2B2B2C" stroke-linecap="round"/>
<path d="M15.4094 14.5L17.6738 10.4242C17.7725 10.2465 18.0307 10.2546 18.118 10.4381L22.9094 20.5" stroke="#2B2B2C" stroke-linecap="round"/>
<path d="M6.90942 12.5L8.64878 14.6742C8.76676 14.8217 8.99938 14.7901 9.07378 14.6165L10.4094 11.5L11.6713 12.7619C11.7899 12.8805 11.9893 12.851 12.0684 12.7032L13.4094 10.2" stroke="#2B2B2C"/>
<path d="M16.4094 13L18.7326 15.3232C18.8303 15.4209 18.9886 15.4209 19.0862 15.3232L19.9094 14.5" stroke="#2B2B2C"/>
<circle cx="19.9094" cy="5" r="2.5" stroke="#2B2B2C"/>
</svg>