<svg width="19" height="18" viewBox="0 0 19 18" fill="none" xmlns="http://www.w3.org/2000/svg">
<path fill-rule="evenodd" clip-rule="evenodd" d="M7.04119 9.09002L9.90905 4.01611L11.8109 7.38092L10.9328 8.72582L9.86168 7.71456L9.31144 7.19506L9.04937 7.90497L8.10062 10.475L7.04119 9.09002ZM6.5062 10.0365L4.266 14H15.5521L12.365 8.36133L11.6066 9.52294C11.351 9.91434 10.8036 9.97915 10.4637 9.65825L9.72542 8.96119L8.8815 11.2472C8.67685 11.8016 7.94126 11.9125 7.58222 11.4432L6.5062 10.0365ZM10.562 3.139C10.2749 2.63105 9.54322 2.63106 9.25613 3.139L3.1846 13.8809C2.90201 14.3809 3.26322 15 3.83752 15H15.9806C16.5549 15 16.9161 14.3809 16.6335 13.8809L10.562 3.139Z" fill="#2B2B2C"/>
<circle cx="15.4092" cy="3.5" r="2" stroke="#2B2B2C"/>
<path d="M8.31543 11.5312L6.50293 9.75L4.19043 14.0938L15.5654 13.9062L12.3467 8.125L11.0342 9.75L9.69043 8.75L8.31543 11.5312Z" fill="#2B2B2C" stroke="#2B2B2C"/>
</svg>
