<svg width="31" height="30" viewBox="0 0 31 30" fill="none" xmlns="http://www.w3.org/2000/svg">
<path d="M20.9094 24.5L12.633 7.94721C12.5409 7.76295 12.2779 7.76295 12.1858 7.94721L4.09033 24.1382C4.00721 24.3044 4.12809 24.5 4.31393 24.5H20.9094ZM20.9094 24.5H27.9094" stroke="#2B2B2C" stroke-linecap="round"/>
<path d="M17.9094 18L20.6973 12.889C20.7905 12.7181 21.0346 12.7146 21.1327 12.8827L27.9094 24.5" stroke="#2B2B2C" stroke-linecap="round"/>
<path d="M8.90942 15L10.6534 17.616C10.7635 17.7812 11.013 17.7583 11.0912 17.5758L12.4094 14.5L13.6702 15.7608C13.7891 15.8797 13.9891 15.8497 14.0679 15.7011L15.3938 13.2" stroke="#2B2B2C"/>
<path d="M19.4094 15.5L21.2832 17.8422C21.3568 17.9342 21.4848 17.9623 21.5902 17.9096L23.4094 17" stroke="#2B2B2C"/>
<circle cx="23.4094" cy="6.5" r="3" stroke="#2B2B2C"/>
</svg>