<svg width="31" height="30" viewBox="0 0 31 30" fill="none" xmlns="http://www.w3.org/2000/svg">
<path fill-rule="evenodd" clip-rule="evenodd" d="M25.9095 6.5C25.9095 7.88071 24.7902 9 23.4095 9C22.0288 9 20.9095 7.88071 20.9095 6.5C20.9095 5.11929 22.0288 4 23.4095 4C24.7902 4 25.9095 5.11929 25.9095 6.5ZM26.9095 6.5C26.9095 8.433 25.3425 10 23.4095 10C21.4765 10 19.9095 8.433 19.9095 6.5C19.9095 4.567 21.4765 3 23.4095 3C25.3425 3 26.9095 4.567 26.9095 6.5ZM13.304 8.17083C12.9354 7.43378 11.8836 7.43378 11.5151 8.17083L3.46232 24.2764C3.33883 24.5234 3.43894 24.8237 3.68593 24.9472C3.7942 25.0014 3.91272 25.0125 4.0221 24.9872C4.0364 24.9953 4.05308 25 4.07133 25H21.0715C21.0841 25 21.0959 24.9978 21.1067 24.9937C21.1436 24.9979 21.1809 25 21.2185 25H21.7196L17.8002 17.1562L17.7984 17.1596L13.304 8.17083ZM18.3837 16.0866L22.7185 24.762L22.8375 25H27.9009C27.9484 25.0009 27.9962 24.995 28.043 24.982C28.1007 24.966 28.1542 24.94 28.2015 24.9059C28.2618 24.8627 28.3099 24.8079 28.3447 24.7465C28.3786 24.6868 28.4005 24.6194 28.4073 24.5477C28.4131 24.4877 28.4081 24.4262 28.3915 24.3665C28.3791 24.3217 28.3607 24.2795 28.3371 24.2407L21.5647 12.6308C21.2704 12.1264 20.538 12.1369 20.2584 12.6496L18.3837 16.0866ZM10.8136 16.9547L9.34365 14.7498L12.4095 8.61804L14.769 13.3369L13.7868 15.1702L12.7631 14.1465L12.2409 13.6242L11.95 14.303L10.8136 16.9547ZM19.9267 15.3461L21.5475 17.372L22.8057 16.7429L20.9241 13.5174L19.9267 15.3461Z" fill="#2B2B2C"/>
</svg>
