<svg width="25" height="24" viewBox="0 0 25 24" fill="none" xmlns="http://www.w3.org/2000/svg">
<path fill-rule="evenodd" clip-rule="evenodd" d="M19.9095 7C21.0141 7 21.9095 6.10457 21.9095 5C21.9095 3.89543 21.0141 3 19.9095 3C18.8049 3 17.9095 3.89543 17.9095 5C17.9095 6.10457 18.8049 7 19.9095 7ZM19.9095 8C21.5664 8 22.9095 6.65685 22.9095 5C22.9095 3.34315 21.5664 2 19.9095 2C18.2527 2 16.9095 3.34315 16.9095 5C16.9095 6.65685 18.2527 8 19.9095 8ZM10.0128 6.11878C10.3949 5.40234 11.4265 5.4159 11.7896 6.14216L15.0254 12.6137L15.0247 12.6141L19.2141 21H18.4095H18.1005H2.91902C2.83644 21.0016 2.75229 20.9828 2.67423 20.9412C2.43057 20.8112 2.3384 20.5084 2.46835 20.2647L10.0128 6.11878ZM20.332 21H22.4095H22.8991C22.9392 21.0009 22.9797 20.9969 23.0197 20.9878C23.0785 20.9746 23.1333 20.9511 23.1822 20.9192C23.3016 20.8413 23.3857 20.7138 23.4052 20.5659C23.413 20.5081 23.4107 20.4485 23.3973 20.3898C23.3883 20.3497 23.3745 20.3114 23.3564 20.2756L18.7782 10.6612C18.4287 9.92724 17.396 9.89487 17.0012 10.6055L16.0207 12.3702L20.332 21ZM19.3853 14.2621L17.8753 11.0911L16.9226 12.806L17.445 13.3284L18.9095 14.5L19.3853 14.2621ZM10.8952 6.58937L12.769 10.3369L11.7868 12.1702L10.7631 11.1464L10.2409 10.6242L9.94995 11.303L8.77867 14.036L7.66565 12.6448L10.8952 6.58937Z" fill="#2B2B2C"/>
</svg>