<svg width="30" height="30" viewBox="0 0 30 30" fill="none" xmlns="http://www.w3.org/2000/svg">
<path fill-rule="evenodd" clip-rule="evenodd" d="M7 4C7 3.72386 7.22386 3.5 7.5 3.5C7.77615 3.5 8 3.72386 8 4V4.5H8.5C8.77615 4.5 9 4.72386 9 5C9 5.27614 8.77615 5.5 8.5 5.5H8V6C8 6.27614 7.77615 6.5 7.5 6.5C7.22386 6.5 7 6.27614 7 6V5.5H6.5C6.22386 5.5 6 5.27614 6 5C6 4.72386 6.22386 4.5 6.5 4.5H7V4ZM18.4607 4.1435C18.211 4.44176 18.1176 4.90163 18.3387 5.31814C19.0799 6.71441 19.5 8.30741 19.5 10C19.5 15.5229 15.0229 20 9.5 20C7.8074 20 6.21441 19.5799 4.81814 18.8387C4.40163 18.6176 3.94176 18.711 3.6435 18.9608C3.33401 19.2199 3.16328 19.6868 3.4092 20.1471C5.42846 23.9265 9.41331 26.5 14 26.5C20.6274 26.5 26 21.1274 26 14.5C26 9.91331 23.4265 5.92846 19.6471 3.9092C19.1868 3.66328 18.7199 3.83401 18.4607 4.1435ZM11.5 7.5C11.3135 7.5 11.1425 7.60378 11.0564 7.76922L9.93143 9.93143L7.76922 11.0564C7.60378 11.1425 7.5 11.3135 7.5 11.5C7.5 11.6865 7.60378 11.8575 7.76922 11.9436L9.93143 13.0686L11.0564 15.2308C11.1425 15.3962 11.3135 15.5 11.5 15.5C11.6865 15.5 11.8575 15.3962 11.9436 15.2308L13.0686 13.0686L15.2308 11.9436C15.3962 11.8575 15.5 11.6865 15.5 11.5C15.5 11.3135 15.3962 11.1425 15.2308 11.0564L13.0686 9.93143L11.9436 7.76922C11.8575 7.60378 11.6865 7.5 11.5 7.5Z" fill="#2B2B2C"/>
</svg>
