<svg width="18" height="18" viewBox="0 0 18 18" fill="none" xmlns="http://www.w3.org/2000/svg">
<path fill-rule="evenodd" clip-rule="evenodd" d="M3.00001 2.5C3.00001 2.22386 3.22386 2 3.50001 2C3.77615 2 4.00001 2.22386 4.00001 2.5V3H4.50001C4.77615 3 5.00001 3.22386 5.00001 3.5C5.00001 3.77614 4.77615 4 4.50001 4H4.00001V4.5C4.00001 4.77614 3.77615 5 3.50001 5C3.22386 5 3.00001 4.77614 3.00001 4.5V4H2.50001C2.22386 4 2.00001 3.77614 2.00001 3.5C2.00001 3.22386 2.22386 3 2.50001 3H3.00001V2.5ZM10.4796 3.66126C10.2919 3.2624 10.3718 2.82315 10.5995 2.52553C10.8393 2.21204 11.2878 2.01593 11.7555 2.24162C14.2661 3.45304 16 6.02355 16 9.00001C16 13.1421 12.6421 16.5 8.5 16.5C5.52355 16.5 2.95303 14.7661 1.74162 12.2555C1.51593 11.7878 1.71204 11.3393 2.02553 11.0995C2.32315 10.8718 2.7624 10.7919 3.16126 10.9796C3.87038 11.3132 4.66269 11.5 5.5 11.5C8.53757 11.5 11 9.03757 11 6.00001C11 5.16269 10.8132 4.37038 10.4796 3.66126ZM6.5 6C6.22386 6 6 6.22386 6 6.5V7H5.5C5.22386 7 5 7.22386 5 7.5C5 7.77614 5.22386 8 5.5 8H6V8.5C6 8.77614 6.22386 9 6.5 9C6.77615 9 7 8.77614 7 8.5V8H7.5C7.77615 8 8 7.77614 8 7.5C8 7.22386 7.77615 7 7.5 7H7V6.5C7 6.22386 6.77615 6 6.5 6Z" fill="#2B2B2C"/>
</svg>
