<svg width="30" height="30" viewBox="0 0 30 30" fill="none" xmlns="http://www.w3.org/2000/svg">
<path fill-rule="evenodd" clip-rule="evenodd" d="M7 4C7 3.72386 7.22386 3.5 7.5 3.5C7.77614 3.5 8 3.72386 8 4V4.5H8.5C8.77614 4.5 9 4.72386 9 5C9 5.27614 8.77614 5.5 8.5 5.5H8V6C8 6.27614 7.77614 6.5 7.5 6.5C7.22386 6.5 7 6.27614 7 6V5.5H6.5C6.22386 5.5 6 5.27614 6 5C6 4.72386 6.22386 4.5 6.5 4.5H7V4ZM18.4607 4.1435C18.211 4.44176 18.1176 4.90163 18.3387 5.31814C19.0799 6.71441 19.5 8.30741 19.5 10C19.5 15.5229 15.0228 20 9.5 20C7.8074 20 6.2144 19.5799 4.81813 18.8387C4.40162 18.6176 3.94175 18.711 3.64349 18.9608C3.334 19.2199 3.16328 19.6868 3.4092 20.1471C5.42845 23.9265 9.4133 26.5 14 26.5C20.6274 26.5 26 21.1274 26 14.5C26 9.91331 23.4265 5.92846 19.647 3.9092C19.1868 3.66328 18.7199 3.83401 18.4607 4.1435ZM19.2153 4.81239C22.6606 6.67125 25 10.3128 25 14.5C25 20.5751 20.0751 25.5 14 25.5C9.81281 25.5 6.17124 23.1606 4.31238 19.7153L4.31544 19.7148C4.32449 19.7136 4.33484 19.7143 4.34925 19.7219C5.88641 20.538 7.63998 21 9.5 21C15.5751 21 20.5 16.0751 20.5 10C20.5 8.13999 20.0379 6.38642 19.2219 4.84925C19.2143 4.83485 19.2136 4.8245 19.2148 4.81544L19.2153 4.81239ZM11.5 7.5C11.3135 7.5 11.1425 7.60378 11.0564 7.76922L9.93143 9.93143L7.76922 11.0564C7.60378 11.1425 7.5 11.3135 7.5 11.5C7.5 11.6865 7.60378 11.8575 7.76922 11.9436L9.93143 13.0686L11.0564 15.2308C11.1425 15.3962 11.3135 15.5 11.5 15.5C11.6865 15.5 11.8575 15.3962 11.9436 15.2308L13.0686 13.0686L15.2308 11.9436C15.3962 11.8575 15.5 11.6865 15.5 11.5C15.5 11.3135 15.3962 11.1425 15.2308 11.0564L13.0686 9.93143L11.9436 7.76922C11.8575 7.60378 11.6865 7.5 11.5 7.5ZM11.5 9.08326L12.2543 10.5329C12.3017 10.624 12.376 10.6983 12.4671 10.7457L13.9167 11.5L12.4671 12.2543C12.376 12.3017 12.3017 12.376 12.2543 12.4671L11.5 13.9167L10.7457 12.4671C10.6983 12.376 10.624 12.3017 10.5329 12.2543L9.08326 11.5L10.5329 10.7457C10.624 10.6983 10.6983 10.624 10.7457 10.5329L11.5 9.08326Z" fill="#2B2B2C"/>
</svg>
