<svg width="24" height="24" viewBox="0 0 24 24" fill="none" xmlns="http://www.w3.org/2000/svg">
<path fill-rule="evenodd" clip-rule="evenodd" d="M8.5 6.5C8.5 4.567 10.067 3 12 3C13.933 3 15.5 4.567 15.5 6.5C15.5 8.433 13.933 10 12 10C10.067 10 8.5 8.433 8.5 6.5ZM12 2C9.51472 2 7.5 4.01472 7.5 6.5C7.5 8.98528 9.51472 11 12 11C14.4853 11 16.5 8.98528 16.5 6.5C16.5 4.01472 14.4853 2 12 2ZM6.52283 15.3228C7.02032 13.9298 8.33978 13 9.81893 13H14.1812C15.6603 13 16.9798 13.9298 17.4773 15.3228L18.8281 19.1051L17.0001 19.4098V18.5C17.0001 18.2239 16.7762 18 16.5001 18C16.2239 18 16.0001 18.2239 16.0001 18.5V20.6167C15.8286 20.6571 15.5929 20.7068 15.2929 20.7568C14.5696 20.8773 13.4721 21 12.0001 21C10.528 21 9.43046 20.8773 8.70725 20.7568C8.40721 20.7068 8.17148 20.6571 8.00005 20.6167V18.5C8.00005 18.2239 7.77619 18 7.50005 18C7.22391 18 7.00005 18.2239 7.00005 18.5V19.4098L5.17202 19.1051L6.52283 15.3228ZM17.0001 21V20.4236L18.9925 20.0915C19.6071 19.9891 19.9794 19.3556 19.7698 18.7688L18.419 14.9865C17.7794 13.1955 16.0829 12 14.1812 12H9.81893C7.91717 12 6.22072 13.1955 5.58109 14.9865L4.23028 18.7688C4.02071 19.3556 4.393 19.9891 5.00762 20.0915L7.00005 20.4236V21C7.00005 21.2152 7.13806 21.4064 7.34223 21.4744L7.34333 21.4748L7.34527 21.4754L7.3508 21.4772L7.36849 21.4829C7.38323 21.4875 7.40386 21.4938 7.43036 21.5015C7.48339 21.5169 7.55994 21.5382 7.66003 21.5632C7.86023 21.6132 8.15451 21.6785 8.54285 21.7432C9.31964 21.8727 10.4721 22 12.0001 22C13.528 22 14.6805 21.8727 15.4573 21.7432C15.8456 21.6785 16.1399 21.6132 16.3401 21.5632C16.4402 21.5382 16.5167 21.5169 16.5697 21.5015C16.5962 21.4938 16.6169 21.4875 16.6316 21.4829L16.6493 21.4772L16.6548 21.4754L16.6568 21.4748L16.6582 21.4743C16.6583 21.4743 16.6582 21.4743 16.5001 21L16.6582 21.4743C16.8623 21.4063 17.0001 21.2152 17.0001 21ZM7.50005 21L7.34223 21.4744C7.34208 21.4744 7.34194 21.4743 7.50005 21Z" fill="#2B2B2C"/>
</svg>
