<svg width="30" height="30" viewBox="0 0 30 30" fill="none" xmlns="http://www.w3.org/2000/svg">
<path fill-rule="evenodd" clip-rule="evenodd" d="M10.5 8C10.5 5.51472 12.5147 3.5 15 3.5C17.4853 3.5 19.5 5.51472 19.5 8C19.5 10.4853 17.4853 12.5 15 12.5C12.5147 12.5 10.5 10.4853 10.5 8ZM15 2.5C11.9624 2.5 9.5 4.96243 9.5 8C9.5 11.0376 11.9624 13.5 15 13.5C18.0376 13.5 20.5 11.0376 20.5 8C20.5 4.96243 18.0376 2.5 15 2.5ZM7.92404 19.2303C8.48731 17.3151 10.245 16 12.2412 16H17.7588C19.755 16 21.5127 17.3151 22.076 19.2303L23.3581 23.5896L21.125 23.9205V22.5C21.125 22.2239 20.9011 22 20.625 22C20.3489 22 20.125 22.2239 20.125 22.5V25.58L20.0965 25.5846C19.8141 25.6306 19.4047 25.6921 18.9003 25.7537C17.8906 25.877 16.5054 26 15 26C13.4948 26 12.1414 25.8771 11.1641 25.7539C10.6758 25.6924 10.2825 25.631 10.0123 25.5852L10 25.5831V22.5C10 22.2239 9.77614 22 9.5 22C9.22386 22 9 22.2239 9 22.5V23.9235L6.64272 23.5867L7.92404 19.2303ZM21.125 26V24.9314L23.5047 24.5788C24.1055 24.4898 24.4889 23.8902 24.3175 23.3075L23.0353 18.9481C22.3469 16.6074 20.1987 15 17.7588 15H12.2412C9.80134 15 7.65312 16.6074 6.96468 18.9481L5.68336 23.3046C5.51139 23.8893 5.89797 24.4905 6.5013 24.5767L9 24.9336V26C9 26.2374 9.16787 26.4423 9.40045 26.49L9.40226 26.4904L9.40853 26.4916L9.43153 26.4962C9.45146 26.5001 9.48051 26.5058 9.51822 26.5129C9.59365 26.5271 9.70379 26.5471 9.8451 26.5711C10.1277 26.619 10.5351 26.6826 11.0391 26.7461C12.0461 26.8729 13.4427 27 15 27C16.5571 27 17.9844 26.873 19.0216 26.7463C19.5406 26.6829 19.9633 26.6194 20.2571 26.5716C20.404 26.5477 20.5188 26.5277 20.5974 26.5136C20.6367 26.5065 20.667 26.5009 20.6877 26.497L20.7116 26.4925L20.718 26.4913L20.7208 26.4907C20.9555 26.4449 21.125 26.2392 21.125 26ZM9.5 26L9.40045 26.49C9.40037 26.49 9.39953 26.4898 9.5 26Z" fill="#2B2B2C"/>
</svg>
