<svg width="24" height="24" viewBox="0 0 24 24" fill="none" xmlns="http://www.w3.org/2000/svg">
<path fill-rule="evenodd" clip-rule="evenodd" d="M8.3434 14H14C14.1498 14 14.2917 14.0672 14.3867 14.183C14.4816 14.2988 14.5197 14.4512 14.4903 14.5981L14.1511 16.2942C14.0108 16.9953 13.3952 17.5 12.6802 17.5H10.5V20H13C13.2761 20 13.5 20.2239 13.5 20.5C13.5 20.7761 13.2761 21 13 21H10H7C6.72386 21 6.5 20.7761 6.5 20.5C6.5 20.2239 6.72386 20 7 20H9.5V17.5H7C6.79379 17.5 6.60874 17.3734 6.534 17.1812L3.034 8.18122C3.01153 8.12345 3 8.06199 3 8V4.5C3 3.67157 3.67157 3 4.5 3C5.32843 3 6 3.67157 6 4.5V7.90716L8.3434 14ZM18 12H11.5C11.2239 12 11 11.7761 11 11.5C11 11.2239 11.2239 11 11.5 11H13.5253C13.2011 10.6824 13 10.2397 13 9.75V8.5C13 8.22386 13.2239 8 13.5 8H16C16.2761 8 16.5 8.22386 16.5 8.5V9.75C16.5 10.2397 16.2989 10.6824 15.9747 11H18.5H20V6.5C20 6.22386 20.2239 6 20.5 6C20.7761 6 21 6.22386 21 6.5V11.5V16.5C21 16.7761 20.7761 17 20.5 17C20.2239 17 20 16.7761 20 16.5V14.5H19.5C18.6716 14.5 18 13.8284 18 13L18 12ZM19 12L19 13C19 13.2761 19.2239 13.5 19.5 13.5H20L20 12H19Z" fill="#2B2B2C"/>
</svg>
