<svg width="18" height="18" viewBox="0 0 18 18" fill="none" xmlns="http://www.w3.org/2000/svg">
<path d="M14.5 6L16.5 5.5V13.5L9 14.5L1.5 13.5V5.5L3.5 6" stroke="#2B2B2C" stroke-linecap="round" stroke-linejoin="round"/>
<path fill-rule="evenodd" clip-rule="evenodd" d="M11.5 3C11.7761 3 12 3.22386 12 3.5V3.54336L14.3915 3.01191C14.5396 2.97901 14.6946 3.01509 14.8129 3.10998C14.9312 3.20488 15 3.34834 15 3.5V5.875L16.5 5.5V13.5L9.46336 14.4382C9.38901 14.6211 9.20956 14.75 9 14.75C8.79044 14.75 8.61099 14.6211 8.53664 14.4382L1.5 13.5V5.5L3 5.875V3.5C3 3.34834 3.06884 3.20488 3.18714 3.10998C3.30544 3.01509 3.46042 2.97901 3.60847 3.01191L7.25567 3.8224C7.89969 3.96552 8.49003 4.28771 8.95872 4.75168C8.97233 4.75057 8.9861 4.75 9 4.75C9.0139 4.75 9.02767 4.75057 9.04128 4.75168C9.50997 4.28771 10.1003 3.96552 10.7443 3.8224L11 3.76559V3.5C11 3.22386 11.2239 3 11.5 3ZM11 9.5V4.78998L10.9613 4.79859C10.4971 4.90173 10.072 5.13509 9.73582 5.47129L9.5 5.70711V13.2862L14 11.6498V4.12331L12 4.56776V9.5C12 9.77614 11.7761 10 11.5 10C11.2239 10 11 9.77614 11 9.5ZM8.5 5.70711L8.26418 5.47129C7.92798 5.13509 7.50287 4.90173 7.03874 4.79859L4 4.12331V11.6498L8.5 13.2862V5.70711Z" fill="#2B2B2C"/>
</svg>
