<svg width="18" height="18" viewBox="0 0 18 18" fill="none" xmlns="http://www.w3.org/2000/svg">
<path fill-rule="evenodd" clip-rule="evenodd" d="M12 3.5C12 3.22386 11.7761 3 11.5 3C11.2239 3 11 3.22386 11 3.5V3.76559L10.7443 3.8224C10.1003 3.96552 9.50997 4.28771 9.04128 4.75168C9.02767 4.75057 9.0139 4.75 9 4.75C8.9861 4.75 8.97233 4.75057 8.95872 4.75168C8.49003 4.28771 7.89969 3.96552 7.25567 3.8224L3.60847 3.01191C3.46042 2.97901 3.30544 3.01509 3.18714 3.10998C3.06884 3.20488 3 3.34834 3 3.5V12C3 12.2103 3.13153 12.398 3.32913 12.4699L6.67063 13.685L2 13.0622V5.5C2 5.22386 1.77614 5 1.5 5C1.22386 5 1 5.22386 1 5.5V13.5C1 13.7506 1.18552 13.9625 1.43392 13.9956L8.93392 14.9956C8.97778 15.0015 9.02222 15.0015 9.06608 14.9956L16.5661 13.9956C16.8145 13.9625 17 13.7506 17 13.5V5.5C17 5.22386 16.7761 5 16.5 5C16.2239 5 16 5.22386 16 5.5V13.0622L11.3294 13.685L14.6709 12.4699C14.8685 12.398 15 12.2103 15 12V3.5C15 3.34834 14.9312 3.20488 14.8129 3.10998C14.6946 3.01509 14.5396 2.97901 14.3915 3.01191L12 3.54336V3.5ZM11 4.78998V9.5C11 9.77614 11.2239 10 11.5 10C11.7761 10 12 9.77614 12 9.5V4.56776L14 4.12331V11.6498L9.5 13.2862V5.70711L9.73582 5.47129C10.072 5.13509 10.4971 4.90173 10.9613 4.79859L11 4.78998ZM8.26418 5.47129L8.5 5.70711V13.2862L4 11.6498V4.12331L7.03874 4.79859C7.50287 4.90173 7.92798 5.13509 8.26418 5.47129Z" fill="#2B2B2C"/>
</svg>
