<svg width="30" height="30" viewBox="0 0 30 30" fill="none" xmlns="http://www.w3.org/2000/svg">
<path fill-rule="evenodd" clip-rule="evenodd" d="M8 3.5C7.72386 3.5 7.5 3.72386 7.5 4V9C7.5 9.05774 7.51 9.11504 7.52956 9.16936L12.0296 21.6694C12.101 21.8677 12.2892 22 12.5 22H15.5V25H12.5C12.2239 25 12 25.2239 12 25.5C12 25.7761 12.2239 26 12.5 26H16H19.5C19.7761 26 20 25.7761 20 25.5C20 25.2239 19.7761 25 19.5 25H16.5V22H19.5571C20.3385 22 21.0251 21.482 21.2398 20.7308L21.9808 18.1374C22.0239 17.9865 21.9937 17.8242 21.8992 17.6989C21.8047 17.5736 21.6569 17.5 21.5 17.5H13.3486L12.796 16H17.5C17.7761 16 18 15.7761 18 15.5C18 15.2239 17.7761 15 17.5 15H12.4276L10.0617 8.57818C10.0209 8.46748 10 8.35044 10 8.23247V5.5C10 4.39543 9.10457 3.5 8 3.5Z" fill="#2B2B2C"/>
</svg>
