<svg xmlns="http://www.w3.org/2000/svg" width="30" height="30" fill="none"><path fill="#2B2B2C" fill-rule="evenodd" d="M7.5 4a.5.5 0 0 1 .5-.5c1.06 0 2.106.853 2.106 2v2.732c0 .03.011.112.035.221l.028.121.007.028L12.514 15h2.483l8.349-10.625a.5.5 0 0 1 .812.582L8.115 25.375a.516.516 0 0 0-.026.036l-.457.582a.5.5 0 1 1-.786-.618l4.47-5.69L7.53 9.17A.5.5 0 0 1 7.5 9V4Zm9.253 12 .785-1H19a.5.5 0 0 1 0 1h-2.247Zm-2.088 2.657.786-1H21.5a.5.5 0 0 1 .479.643l-.733 2.451A1.75 1.75 0 0 1 19.569 22H16.5v3h3a.5.5 0 0 1 0 1h-7a.5.5 0 0 1 0-1h3v-3h-3a.5.5 0 0 1-.35-.143l.693-.88.008.023h6.718a.75.75 0 0 0 .719-.535l.54-1.808h-6.163Zm-2.09-.575-.53.676L8.5 8.913V4.619c.355.176.606.524.606.881v2.732c0 .148.034.325.057.431a4.905 4.905 0 0 0 .047.2l.004.013.001.004v.002a.502.502 0 0 0 .014.04l3.347 9.16Zm.727-.925.91-1.157H12.88l.422 1.157Z" clip-rule="evenodd"/></svg>