<svg xmlns="http://www.w3.org/2000/svg" width="18" height="19" fill="none"><path fill="#2B2B2C" fill-rule="evenodd" d="M5.5 2.502a.5.5 0 0 0-1 0v3.5a.5.5 0 0 0 .03.168l1.806 5.06-3.342 3.949a.5.5 0 0 0 .763.646l.523-.618a.5.5 0 0 1 .022-.028L14.779 2.797a.5.5 0 0 0-.785-.618l-5.35 6.323h-2.22L5.5 5.915V2.502Zm5.762 6-.846 1h1.51a.5.5 0 0 0 0-1h-.664Zm-1.693 2L7.151 13.36a.5.5 0 0 0 .349.142h2v1.5h-2a.5.5 0 1 0 0 1h5a.5.5 0 0 0 0-1h-2v-1.5h1.22a1.5 1.5 0 0 0 1.454-1.136l.311-1.243a.5.5 0 0 0-.485-.621H9.57Zm-1.772-1-.714.845-.302-.845h1.016Z" clip-rule="evenodd"/></svg>