<svg xmlns="http://www.w3.org/2000/svg" width="30" height="30" fill="none"><path fill="#2B2B2C" fill-rule="evenodd" d="M7.5 4a.5.5 0 0 1 .5-.5c1.06 0 2.106.853 2.106 2v2.732c0 .03.011.112.035.221l.028.121.007.028L12.514 15h2.483l8.349-10.625a.5.5 0 0 1 .812.582L8.115 25.375a.512.512 0 0 0-.026.036l-.457.582a.5.5 0 1 1-.786-.618l4.47-5.69L7.53 9.17A.5.5 0 0 1 7.5 9V4Zm4.65 17.857a.5.5 0 0 0 .35.143h3v3h-3a.5.5 0 0 0 0 1h7a.5.5 0 0 0 0-1h-3v-3h3.07a1.75 1.75 0 0 0 1.676-1.248l.733-2.452a.5.5 0 0 0-.479-.643h-6.05l-3.3 4.2ZM16.753 16H19a.5.5 0 0 0 0-1h-1.462l-.785 1Zm-3.873 0h1.332l-.91 1.157L12.88 16Z" clip-rule="evenodd"/></svg>