<svg xmlns="http://www.w3.org/2000/svg" width="24" height="24" fill="none"><path fill="#2B2B2C" fill-rule="evenodd" d="M7 3a.5.5 0 0 1 .5.5v4.406L8.898 11.5h3.425l5.536-6.814a.5.5 0 0 1 .814.576L6.142 20.686a.505.505 0 0 0-.039.055l-.468.576a.5.5 0 1 1-.776-.63l4.422-5.443-2.747-7.063A.5.5 0 0 1 6.5 8V3.5A.5.5 0 0 1 7 3Zm3.142 14.349a.5.5 0 0 0 .358.151H13V20h-2.5a.5.5 0 0 0 0 1h6a.5.5 0 0 0 0-1H14v-2.5h2.18a1.5 1.5 0 0 0 1.471-1.206l.34-1.696A.5.5 0 0 0 17.5 14h-4.637l-2.721 3.349Zm3.94-4.849h1.706a.5.5 0 1 0 0-1h-.894l-.813 1Zm-4.796 0h2.224L10.291 14H9.87l-.584-1.5Z" clip-rule="evenodd"/></svg>