<svg width="30" height="30" viewBox="0 0 30 30" fill="none" xmlns="http://www.w3.org/2000/svg">
<path fill-rule="evenodd" clip-rule="evenodd" d="M3.125 6C2.50368 6 2 6.50368 2 7.125V19V19.5V23.5C2 23.7761 2.22386 24 2.5 24H11C11.2761 24 11.5 23.7761 11.5 23.5V19.8662C11.7989 19.6933 12 19.3701 12 19V16.5C12 15.6716 11.3284 15 10.5 15H6.94752L6.12049 7.55674C6.02202 6.67049 5.27291 6 4.3812 6H3.125ZM3 23V20H10.5V23H3ZM10 10.5C9.72386 10.5 9.5 10.7239 9.5 11V11.75C9.5 12.7165 10.2835 13.5 11.25 13.5H14.5V23H13.5C13.2239 23 13 23.2239 13 23.5C13 23.7761 13.2239 24 13.5 24H16.5C16.7761 24 17 23.7761 17 23.5C17 23.2239 16.7761 23 16.5 23H15.5V13.5H18.75C19.7165 13.5 20.5 12.7165 20.5 11.75V11C20.5 10.7239 20.2761 10.5 20 10.5H10ZM26.875 6C27.4963 6 28 6.50368 28 7.125V19V19.5V23.5C28 23.7761 27.7761 24 27.5 24H19C18.7239 24 18.5 23.7761 18.5 23.5V19.8662C18.2011 19.6933 18 19.3701 18 19V16.5C18 15.6716 18.6716 15 19.5 15H23.0525L23.8795 7.55674C23.978 6.67049 24.7271 6 25.6188 6H26.875ZM19.5 20V23H27V20H19.5Z" fill="#2B2B2C"/>
</svg>
