<svg width="24" height="24" viewBox="0 0 24 24" fill="none" xmlns="http://www.w3.org/2000/svg">
<path fill-rule="evenodd" clip-rule="evenodd" d="M2 6C2 5.44772 2.44772 5 3 5H4.06888C4.85584 5 5.509 5.60817 5.56507 6.39313L5.96556 12H9C9.55229 12 10 12.4477 10 13V15.5C10 15.7761 9.77614 16 9.5 16H9V18.5C9 18.7761 8.77614 19 8.5 19H2.5C2.22386 19 2 18.7761 2 18.5V15.5V6ZM3 16V18H8V16H3ZM8.5 9C8.22386 9 8 9.22386 8 9.5C8 9.77614 8.22386 10 8.5 10H11.5V18.5C11.5 18.7761 11.7239 19 12 19C12.2761 19 12.5 18.7761 12.5 18.5V10H15.5C15.7761 10 16 9.77614 16 9.5C16 9.22386 15.7761 9 15.5 9H8.5ZM22 6C22 5.44772 21.5523 5 21 5H19.9311C19.1442 5 18.491 5.60817 18.4349 6.39313L18.0344 12H15C14.4477 12 14 12.4477 14 13V15.5C14 15.7761 14.2239 16 14.5 16H15V18.5C15 18.7761 15.2239 19 15.5 19H21.5C21.7761 19 22 18.7761 22 18.5V15.5V6ZM21 16H16V18H21V16Z" fill="#2B2B2C"/>
</svg>
