<svg width="18" height="18" viewBox="0 0 18 18" fill="none" xmlns="http://www.w3.org/2000/svg">
<path fill-rule="evenodd" clip-rule="evenodd" d="M1 4.375C1 3.89175 1.39175 3.5 1.875 3.5H2.75C3.44036 3.5 4 4.05964 4 4.75V9H6.125C6.60825 9 7 9.39175 7 9.875V12C7 12.2761 6.77614 12.5 6.5 12.5H6V14C6 14.2761 5.77614 14.5 5.5 14.5H1.5C1.22386 14.5 1 14.2761 1 14V12V4.375ZM2 12.5V13.5H5V12.5H2ZM5.5 11.5H6V10H3.5C3.22386 10 3 9.77614 3 9.5V4.75C3 4.61193 2.88807 4.5 2.75 4.5H2V11.5H5.5ZM6 7C6 6.72386 6.22386 6.5 6.5 6.5H11.5C11.7761 6.5 12 6.72386 12 7C12 7.27614 11.7761 7.5 11.5 7.5H9.5V14C9.5 14.2761 9.27614 14.5 9 14.5C8.72386 14.5 8.5 14.2761 8.5 14V7.5H6.5C6.22386 7.5 6 7.27614 6 7ZM16.125 3.5C16.6082 3.5 17 3.89175 17 4.375V12V14C17 14.2761 16.7761 14.5 16.5 14.5H12.5C12.2239 14.5 12 14.2761 12 14V12.5H11.5C11.2239 12.5 11 12.2761 11 12V9.875C11 9.39175 11.3918 9 11.875 9H14V4.75C14 4.05964 14.5596 3.5 15.25 3.5H16.125ZM13 13.5V12.5H16V13.5H13ZM16 11.5H12.5H12V10H14.5C14.7761 10 15 9.77614 15 9.5V4.75C15 4.61193 15.1119 4.5 15.25 4.5H16V11.5Z" fill="#2B2B2C"/>
</svg>
