<svg width="18" height="18" viewBox="0 0 18 18" fill="none" xmlns="http://www.w3.org/2000/svg">
<path fill-rule="evenodd" clip-rule="evenodd" d="M8 0.5C7.72386 0.5 7.5 0.723858 7.5 1C7.5 1.27614 7.72386 1.5 8 1.5H8.5V2.01758C4.86736 2.27396 2 5.30212 2 9C2 12.866 5.13401 16 9 16C12.866 16 16 12.866 16 9C16 5.30212 13.1326 2.27395 9.5 2.01758V1.5H10C10.2761 1.5 10.5 1.27614 10.5 1C10.5 0.723858 10.2761 0.5 10 0.5H8ZM15 9C15 12.3137 12.3137 15 9 15C5.68629 15 3 12.3137 3 9C3 5.68629 5.68629 3 9 3C12.3137 3 15 5.68629 15 9ZM12.3536 5.64645C12.5488 5.84171 12.5488 6.15829 12.3536 6.35355L9.96613 8.74098C9.98822 8.82359 10 8.91042 10 9C10 9.55228 9.55228 10 9 10C8.44772 10 8 9.55228 8 9C8 8.44772 8.44772 8 9 8C9.08958 8 9.17641 8.01178 9.25902 8.03387L11.6464 5.64645C11.8417 5.45118 12.1583 5.45118 12.3536 5.64645Z" fill="#2B2B2C"/>
</svg>
