<svg width="24" height="24" viewBox="0 0 24 24" fill="none" xmlns="http://www.w3.org/2000/svg">
<path fill-rule="evenodd" clip-rule="evenodd" d="M20 3.5C20 3.22386 19.7761 3 19.5 3C19.2239 3 19 3.22386 19 3.5V10.5H10.0002C10.4648 10.151 10.8038 9.64393 10.9373 9.05866C11.2089 9.33128 11.5848 9.5 12 9.5C12.8284 9.5 13.5 8.82843 13.5 8C13.5 7.17157 12.8284 6.5 12 6.5C11.6158 6.5 11.2654 6.64443 11 6.88195V6.5C11 6.22386 10.7761 6 10.5 6H6.5C6.22386 6 6 6.22386 6 6.5V8.5C6 9.3178 6.39267 10.0439 6.99976 10.5H3.5C3.22386 10.5 3 10.7239 3 11V13C3 13.8284 3.67157 14.5 4.5 14.5H13.6948C14.3313 16.9088 16.4558 18.7619 19 18.9787V20.5C19 20.7761 19.2239 21 19.5 21C19.7761 21 20 20.7761 20 20.5V14V11V3.5ZM19 17.9742V16.9691C17.5396 16.787 16.3243 15.8178 15.7909 14.5H14.7366C15.3369 16.3587 17.0139 17.7691 19 17.9742ZM19 15.9586C18.1029 15.808 17.3404 15.2593 16.9012 14.5H19V15.9586ZM19 11.5H4V13C4 13.2761 4.22386 13.5 4.5 13.5H19V11.5ZM7 7V8.5C7 9.32843 7.67157 10 8.5 10C9.32843 10 10 9.32843 10 8.5V7H7ZM11.5 8C11.5 7.72386 11.7239 7.5 12 7.5C12.2761 7.5 12.5 7.72386 12.5 8C12.5 8.27614 12.2761 8.5 12 8.5C11.7239 8.5 11.5 8.27614 11.5 8Z" fill="#2B2B2C"/>
</svg>
