<svg width="24" height="24" viewBox="0 0 24 24" fill="none" xmlns="http://www.w3.org/2000/svg">
<path fill-rule="evenodd" clip-rule="evenodd" d="M8.43931 2.85365C9.0251 2.26786 9.97485 2.26786 10.5606 2.85365L18.3472 10.6402C18.3499 10.6428 18.3525 10.6454 18.3551 10.648C18.3568 10.6497 18.3584 10.6514 18.3601 10.6531L21.1464 13.4394C21.7322 14.0252 21.7322 14.975 21.1464 15.5608L19.3535 17.3536C19.1583 17.5489 18.8417 17.5489 18.6464 17.3536L18.6364 17.3436C18.2849 16.9921 17.715 16.9921 17.3636 17.3436L17.3435 17.3637C16.992 17.7152 16.992 18.285 17.3435 18.6365L17.3535 18.6465C17.4473 18.7403 17.5 18.8675 17.5 19.0001C17.5 19.1327 17.4473 19.2599 17.3535 19.3536L15.5606 21.1465C14.9748 21.7323 14.0251 21.7323 13.4393 21.1465L12.6764 20.3836C12.5068 20.5315 12.2808 20.6175 12.0323 20.6027L10.8069 20.5296L10.3627 21.6886C10.1499 22.2437 9.46694 22.4437 8.98836 22.091L8.00003 21.3627L7.01169 22.091C6.53311 22.4437 5.85015 22.2437 5.6374 21.6886L5.1932 20.5296L3.96773 20.6027C3.37791 20.6379 2.91478 20.1048 3.03204 19.5257L3.28059 18.2981L2.20142 17.6851C1.69028 17.3948 1.59017 16.7003 1.9985 16.2774L2.86549 15.3795L2.28365 14.2705C2.01002 13.7489 2.30282 13.1094 2.87644 12.9758L4.07776 12.696L4.1477 11.8549L4.14642 11.8536L2.85352 10.5608C2.26774 9.97497 2.26774 9.02522 2.85352 8.43943L4.64642 6.64654C4.84168 6.45128 5.15826 6.45128 5.35352 6.64654L5.36358 6.65659C5.71505 7.00806 6.2849 7.00806 6.63637 6.65659L6.65647 6.63649C7.00794 6.28502 7.00794 5.71517 6.65647 5.3637L6.64642 5.35365C6.55265 5.25988 6.49997 5.1327 6.49997 5.00009C6.49997 4.86748 6.55265 4.74031 6.64642 4.64654L8.43931 2.85365ZM14.1464 20.4394L12.9008 19.1938L12.7195 18.2981L13.7986 17.6851C14.3098 17.3948 14.4099 16.7003 14.0016 16.2774L13.1346 15.3795L13.7164 14.2705C13.99 13.7489 13.6972 13.1094 13.1236 12.9758L11.9223 12.696L11.8188 11.452C11.7697 10.8611 11.1726 10.4784 10.6152 10.6805L9.46307 11.0982L8.71646 10.1163C8.35629 9.64256 7.64376 9.64256 7.28359 10.1163L6.53698 11.0982L5.38489 10.6805C5.07712 10.5689 4.75724 10.6356 4.52417 10.8172L3.56063 9.85365C3.36537 9.65838 3.36537 9.3418 3.56063 9.14654L5.04428 7.66289C5.77165 8.0867 6.72021 7.98697 7.34347 7.3637L7.36358 7.3436C7.98684 6.72033 8.08657 5.77177 7.66277 5.04441L9.14642 3.56075C9.34168 3.36549 9.65826 3.36549 9.85353 3.56075L17.3007 11.008L16.9631 11.3612C16.7723 11.5609 16.7795 11.8774 16.9791 12.0682C17.1788 12.2589 17.4953 12.2518 17.686 12.0522L18.008 11.7153L20.4393 14.1465C20.6346 14.3418 20.6346 14.6584 20.4393 14.8536L18.9557 16.3373C18.2283 15.9135 17.2797 16.0132 16.6565 16.6365L16.6364 16.6566C16.0131 17.2799 15.9134 18.2284 16.3372 18.9558L14.8535 20.4394C14.6583 20.6347 14.3417 20.6347 14.1464 20.4394ZM16.3503 12.6432C16.5473 12.8367 16.5502 13.1533 16.3568 13.3503L15.5349 14.1873C15.3415 14.3844 15.0249 14.3873 14.8279 14.1938C14.6308 14.0004 14.6279 13.6838 14.8214 13.4867L15.6432 12.6497C15.8367 12.4527 16.1532 12.4498 16.3503 12.6432ZM7.25003 14.2501C7.25003 14.6643 6.91424 15.0001 6.50003 15.0001C6.08582 15.0001 5.75003 14.6643 5.75003 14.2501C5.75003 13.8359 6.08582 13.5001 6.50003 13.5001C6.91424 13.5001 7.25003 13.8359 7.25003 14.2501ZM9.50003 18.5001C9.91424 18.5001 10.25 18.1643 10.25 17.7501C10.25 17.3359 9.91424 17.0001 9.50003 17.0001C9.08582 17.0001 8.75003 17.3359 8.75003 17.7501C8.75003 18.1643 9.08582 18.5001 9.50003 18.5001ZM9.85358 14.1466C10.0488 14.3418 10.0488 14.6584 9.85358 14.8537L6.85358 17.8537C6.65832 18.0489 6.34174 18.0489 6.14648 17.8537C5.95121 17.6584 5.95121 17.3418 6.14648 17.1466L9.14648 14.1466C9.34174 13.9513 9.65832 13.9513 9.85358 14.1466Z" fill="#2B2B2C"/>
</svg>
