<svg width="18" height="18" viewBox="0 0 18 18" fill="none" xmlns="http://www.w3.org/2000/svg">
<path fill-rule="evenodd" clip-rule="evenodd" d="M2.5 9C2.5 5.41015 5.41015 2.5 9 2.5C12.5899 2.5 15.5 5.41015 15.5 9C15.5 10.9253 14.6629 12.6551 13.3329 13.8453L12.7916 11.9506C12.5462 11.092 11.7615 10.5 10.8685 10.5H7.13141C6.23845 10.5 5.45368 11.092 5.20836 11.9506L4.66703 13.8452C3.33703 12.655 2.5 10.9253 2.5 9ZM11.83 12.2253L12.4778 14.4924C11.8495 14.891 11.1482 15.1848 10.3985 15.3492L10.043 13.2163C10.322 12.9871 10.5 12.6393 10.5 12.25V11.5H10.8685C11.315 11.5 11.7074 11.796 11.83 12.2253ZM9.07646 13.5L9.4077 15.4874C9.27287 15.4958 9.13693 15.5 9 15.5C8.86309 15.5 8.72717 15.4958 8.59237 15.4874L8.9236 13.5H9.07646ZM5.52216 14.4923C6.15044 14.891 6.85179 15.1848 7.60161 15.3492L7.95708 13.2164C7.67801 12.9871 7.5 12.6393 7.5 12.25V11.5H7.13141C6.68493 11.5 6.29254 11.796 6.16989 12.2253L5.52216 14.4923ZM8.5 11.5V12.25C8.5 12.3881 8.61193 12.5 8.75 12.5H9.25C9.38807 12.5 9.5 12.3881 9.5 12.25V11.5H8.5ZM9 1.5C4.85786 1.5 1.5 4.85786 1.5 9C1.5 13.1421 4.85786 16.5 9 16.5C13.1421 16.5 16.5 13.1421 16.5 9C16.5 4.85786 13.1421 1.5 9 1.5ZM6.35366 6.5H5.5C5.22386 6.5 5 6.27614 5 6C5 5.72386 5.22386 5.5 5.5 5.5H6.5V5C6.5 4.44772 6.94772 4 7.5 4H10.5C11.0523 4 11.5 4.44772 11.5 5V6C11.5 6.02963 11.4974 6.05866 11.4925 6.08688C11.6577 6.44044 11.75 6.83488 11.75 7.25005C11.75 8.76884 10.5188 10.0001 9 10.0001C7.48122 10.0001 6.25 8.76884 6.25 7.25005C6.25 6.99027 6.28614 6.73861 6.35366 6.5ZM7.4183 6.5C7.31038 6.72704 7.25 6.98107 7.25 7.25005C7.25 8.21655 8.0335 9.00005 9 9.00005C9.9665 9.00005 10.75 8.21655 10.75 7.25005C10.75 6.98107 10.6896 6.72704 10.5817 6.5H7.4183ZM10.5 5V5.5H7.5V5H10.5Z" fill="#2B2B2C"/>
</svg>
