<svg width="24" height="24" viewBox="0 0 24 24" fill="none" xmlns="http://www.w3.org/2000/svg">
<path fill-rule="evenodd" clip-rule="evenodd" d="M10.5606 2.85365C9.97485 2.26786 9.0251 2.26786 8.43931 2.85365L6.64642 4.64654C6.55265 4.74031 6.49997 4.86748 6.49997 5.00009C6.49997 5.1327 6.55265 5.25988 6.64642 5.35365L6.65647 5.3637C7.00794 5.71517 7.00794 6.28502 6.65647 6.63649L6.63637 6.65659C6.2849 7.00806 5.71505 7.00806 5.36358 6.65659L5.35353 6.64654C5.15826 6.45128 4.84168 6.45128 4.64642 6.64654L2.85352 8.43943C2.26774 9.02522 2.26774 9.97497 2.85352 10.5608L5.17723 12.8845C3.60009 13.584 2.5 15.1635 2.5 17C2.5 19.4853 4.51472 21.5 7 21.5C8.83646 21.5 10.416 20.3999 11.1155 18.8228L13.4393 21.1465C14.0251 21.7323 14.9748 21.7323 15.5606 21.1465L17.3535 19.3536C17.4473 19.2599 17.5 19.1327 17.5 19.0001C17.5 18.8675 17.4473 18.7403 17.3535 18.6465L17.3435 18.6365C16.992 18.285 16.992 17.7152 17.3435 17.3637L17.3636 17.3436C17.715 16.9921 18.2849 16.9921 18.6364 17.3436L18.6464 17.3536C18.8417 17.5489 19.1583 17.5489 19.3535 17.3536L21.1464 15.5608C21.7322 14.975 21.7322 14.0252 21.1464 13.4394L18.3601 10.6531L18.3524 10.6453L18.3472 10.6402L10.5606 2.85365ZM11.4986 16.8868C11.6697 16.8362 11.8623 16.8789 11.9965 17.0147C12.1907 17.211 12.1889 17.5276 11.9926 17.7217L11.7091 18.0021L14.1464 20.4394C14.3417 20.6347 14.6583 20.6347 14.8535 20.4394L16.3372 18.9558C15.9134 18.2284 16.0131 17.2799 16.6364 16.6566L16.6565 16.6365C17.2797 16.0132 18.2283 15.9135 18.9557 16.3373L20.4393 14.8536C20.6346 14.6584 20.6346 14.3418 20.4393 14.1465L18.008 11.7153L17.686 12.0522C17.4953 12.2518 17.1788 12.2589 16.9791 12.0682C16.7795 11.8774 16.7723 11.5609 16.9631 11.3612L17.3007 11.008L9.85353 3.56075C9.65826 3.36549 9.34168 3.36549 9.14642 3.56075L7.66277 5.04441C8.08657 5.77177 7.98684 6.72033 7.36358 7.3436L7.34347 7.3637C6.72021 7.98697 5.77165 8.0867 5.04429 7.66289L3.56063 9.14654C3.36537 9.3418 3.36537 9.65838 3.56063 9.85365L6.26647 12.5595C6.50518 12.5204 6.75022 12.5 7 12.5C9.44744 12.5 11.4385 14.4538 11.4986 16.8868ZM14.1382 14.8957C14.3305 15.0939 14.3257 15.4105 14.1275 15.6028L13.3482 16.3589C13.15 16.5512 12.8334 16.5464 12.6411 16.3482C12.4489 16.15 12.4536 15.8335 12.6518 15.6412L13.4312 14.885C13.6294 14.6927 13.946 14.6975 14.1382 14.8957ZM16.3568 13.3503C16.5502 13.1533 16.5473 12.8367 16.3503 12.6432C16.1532 12.4498 15.8367 12.4527 15.6432 12.6497L14.8214 13.4867C14.6279 13.6838 14.6308 14.0004 14.8279 14.1938C15.0249 14.3873 15.3415 14.3844 15.5349 14.1873L16.3568 13.3503ZM3.5 17C3.5 15.067 5.067 13.5 7 13.5C8.933 13.5 10.5 15.067 10.5 17C10.5 18.933 8.933 20.5 7 20.5C5.067 20.5 3.5 18.933 3.5 17ZM6.4453 15.4707C6.1671 15.6561 6 15.9684 6 16.3027V16.4243C6 16.6898 6.08611 16.9481 6.24542 17.1605L7 18.1666L7.75458 17.1605C7.91389 16.9481 8 16.6898 8 16.4243V16.3027C8 15.9684 7.8329 15.6561 7.5547 15.4707C7.2188 15.2468 6.7812 15.2468 6.4453 15.4707ZM5.8906 14.6386C6.5624 14.1908 7.4376 14.1908 8.1094 14.6386C8.6658 15.0096 9 15.634 9 16.3027V16.4243C9 16.9061 8.84371 17.375 8.55458 17.7605L7.4 19.3C7.30557 19.4259 7.15738 19.5 7 19.5C6.84262 19.5 6.69442 19.4259 6.6 19.3L5.44542 17.7605C5.15629 17.375 5 16.9061 5 16.4243V16.3027C5 15.634 5.3342 15.0096 5.8906 14.6386ZM7 16.7834C7.27614 16.7834 7.5 16.5596 7.5 16.2834C7.5 16.0073 7.27614 15.7834 7 15.7834C6.72386 15.7834 6.5 16.0073 6.5 16.2834C6.5 16.5596 6.72386 16.7834 7 16.7834Z" fill="#2B2B2C"/>
</svg>
