<svg width="18" height="18" viewBox="0 0 18 18" fill="none" xmlns="http://www.w3.org/2000/svg">
<path fill-rule="evenodd" clip-rule="evenodd" d="M8.06063 1.3534C7.47484 0.767615 6.5251 0.767617 5.93931 1.3534L4.64642 2.6463C4.45116 2.84156 4.45116 3.15814 4.64642 3.3534L4.65647 3.36345C5.00794 3.71492 5.00794 4.28477 4.65647 4.63625L4.63637 4.65635C4.2849 5.00782 3.71505 5.00782 3.36358 4.65635L3.35352 4.6463C3.25976 4.55253 3.13258 4.49985 2.99997 4.49985C2.86736 4.49985 2.74019 4.55253 2.64642 4.6463L1.35352 5.93919C0.767738 6.52498 0.767738 7.47472 1.35352 8.06051L2.89247 9.59946C3.50444 9.21937 4.22657 8.99988 4.99997 8.99988C6.79382 8.99988 8.31187 10.1807 8.81922 11.8075C8.31183 10.1808 6.79381 9 5 9C2.79086 9 1 10.7909 1 13C1 15.2091 2.79086 17 5 17C6.43577 17 7.69486 16.2435 8.40045 15.1074L9.93931 16.6463C10.5251 17.2321 11.4748 17.2321 12.0606 16.6463L13.3535 15.3534C13.5488 15.1581 13.5488 14.8416 13.3535 14.6463L13.3435 14.6362C12.992 14.2848 12.992 13.7149 13.3435 13.3635L13.3636 13.3434C13.715 12.9919 14.2849 12.9919 14.6364 13.3434L14.6464 13.3534C14.8417 13.5487 15.1583 13.5487 15.3535 13.3534L16.6464 12.0605C17.2322 11.4747 17.2322 10.525 16.6464 9.93919L8.06063 1.3534ZM9 13C9 12.7801 8.98226 12.5644 8.94814 12.3542L8.95322 12.3492C9.14972 12.1552 9.4663 12.1572 9.66031 12.3537C9.85432 12.5502 9.85231 12.8668 9.65581 13.0608L9.04018 13.6686C9.00644 13.7019 8.96916 13.7295 8.92957 13.7512C8.9758 13.5079 9 13.2568 9 13ZM13.7378 8.27996C13.9307 8.47748 13.9271 8.79404 13.7295 8.98702L13.0516 9.6494C12.8541 9.84238 12.5375 9.8387 12.3445 9.64118C12.1515 9.44366 12.1552 9.1271 12.3527 8.93412L13.0307 8.27174C13.2282 8.07876 13.5448 8.08244 13.7378 8.27996ZM11.7665 10.2362C11.9636 10.4296 11.9666 10.7462 11.7733 10.9433L10.9628 11.7694C10.7694 11.9665 10.4528 11.9695 10.2557 11.7761C10.0586 11.5827 10.0556 11.2661 10.249 11.069L11.0594 10.243C11.2528 10.0459 11.5694 10.0429 11.7665 10.2362ZM5 10C3.34315 10 2 11.3431 2 13C2 14.6569 3.34315 16 5 16C6.65685 16 8 14.6569 8 13C8 11.3431 6.65685 10 5 10ZM5.5 11C5.5 10.7239 5.27614 10.5 5 10.5C4.72386 10.5 4.5 10.7239 4.5 11V13C4.5 13.1326 4.55268 13.2598 4.64645 13.3536L5.64645 14.3536C5.84171 14.5488 6.15829 14.5488 6.35355 14.3536C6.54882 14.1583 6.54882 13.8417 6.35355 13.6464L5.5 12.7929V11Z" fill="#2B2B2C"/>
</svg>
