<svg width="30" height="30" viewBox="0 0 30 30" fill="none" xmlns="http://www.w3.org/2000/svg">
<path fill-rule="evenodd" clip-rule="evenodd" d="M13.4157 2.70859C12.6339 1.92674 11.366 1.92766 10.5853 2.71065L7.95172 5.35186C7.75896 5.54518 7.7569 5.85737 7.94707 6.05322L8.19131 6.30475C8.68894 6.81723 8.67837 7.63567 8.16766 8.13513C7.66649 8.62526 6.86652 8.62835 6.36158 8.14211L6.11497 7.90464C5.91933 7.71624 5.60906 7.71848 5.41616 7.90969L2.71802 10.5842C1.9311 11.3642 1.9283 12.6354 2.71178 13.4188L16.5792 27.2863C17.3637 28.0707 18.6367 28.0668 19.4163 27.2775L22.0688 24.5921C22.2563 24.4023 22.2617 24.0987 22.0811 23.9023L21.8687 23.6713C21.3867 23.1472 21.4048 22.336 21.9097 21.834C22.3981 21.3483 23.1771 21.3175 23.7023 21.7633L24.0417 22.0514C24.2409 22.2204 24.5367 22.2076 24.7205 22.022L27.3049 19.4124C28.0795 18.6303 28.0764 17.3692 27.298 16.5909L13.4157 2.70859ZM15.3535 21.6464C15.5488 21.8416 15.5488 22.1582 15.3535 22.3535L14.3535 23.3535C14.1583 23.5488 13.8417 23.5488 13.6464 23.3535C13.4512 23.1582 13.4512 22.8416 13.6464 22.6464L14.6464 21.6464C14.8417 21.4511 15.1583 21.4511 15.3535 21.6464ZM18.0121 19.7062C18.2083 19.5119 18.2098 19.1954 18.0155 18.9991C17.8212 18.8029 17.5047 18.8014 17.3084 18.9957L16.1482 20.1447C15.952 20.339 15.9504 20.6555 16.1447 20.8518C16.339 21.048 16.6556 21.0495 16.8518 20.8552L18.0121 19.7062ZM20.8551 16.148C21.0495 16.3441 21.0481 16.6607 20.8519 16.8551L19.6704 18.026C19.4743 18.2203 19.1577 18.2189 18.9633 18.0228C18.7689 17.8266 18.7704 17.51 18.9665 17.3157L20.148 16.1448C20.3442 15.9504 20.6608 15.9518 20.8551 16.148ZM23.3535 14.3535C23.5488 14.1582 23.5488 13.8416 23.3535 13.6464C23.1583 13.4511 22.8417 13.4511 22.6464 13.6464L21.6464 14.6464C21.4512 14.8416 21.4512 15.1582 21.6464 15.3535C21.8417 15.5488 22.1583 15.5488 22.3535 15.3535L23.3535 14.3535Z" fill="#2B2B2C"/>
</svg>
