<svg width="24" height="24" viewBox="0 0 24 24" fill="none" xmlns="http://www.w3.org/2000/svg">
<path fill-rule="evenodd" clip-rule="evenodd" d="M10.5606 2.85365C9.97484 2.26786 9.0251 2.26786 8.43931 2.85365L6.64642 4.64654C6.55265 4.74031 6.49997 4.86748 6.49997 5.00009C6.49997 5.1327 6.55265 5.25988 6.64642 5.35365L6.65647 5.3637C7.00794 5.71517 7.00794 6.28502 6.65647 6.63649L6.63637 6.65659C6.2849 7.00806 5.71505 7.00806 5.36358 6.65659L5.35353 6.64654C5.15826 6.45128 4.84168 6.45128 4.64642 6.64654L2.85352 8.43943C2.26774 9.02522 2.26774 9.97497 2.85352 10.5608L4.64642 12.3536C4.84168 12.5489 5.15826 12.5489 5.35353 12.3536C5.54879 12.1584 5.54879 11.8418 5.35353 11.6465L3.56063 9.85365C3.36537 9.65838 3.36537 9.3418 3.56063 9.14654L5.04429 7.66289C5.77165 8.08669 6.72021 7.98697 7.34347 7.3637L7.36357 7.3436C7.98684 6.72033 8.08657 5.77177 7.66277 5.04441L9.14642 3.56075C9.34168 3.36549 9.65826 3.36549 9.85353 3.56075L17.3007 11.008L16.9631 11.3612C16.7723 11.5609 16.7795 11.8774 16.9791 12.0682C17.1788 12.2589 17.4953 12.2518 17.686 12.0522L18.008 11.7153L20.4393 14.1465C20.6346 14.3418 20.6346 14.6584 20.4393 14.8536L18.9557 16.3373C18.2283 15.9135 17.2797 16.0132 16.6565 16.6365L16.6364 16.6566C16.0131 17.2799 15.9134 18.2284 16.3372 18.9558L14.8535 20.4394C14.6583 20.6347 14.3417 20.6347 14.1464 20.4394L12.3535 18.6465C12.1583 18.4513 11.8417 18.4513 11.6464 18.6465C11.4512 18.8418 11.4512 19.1584 11.6464 19.3536L13.4393 21.1465C14.0251 21.7323 14.9748 21.7323 15.5606 21.1465L17.3535 19.3536C17.4473 19.2599 17.5 19.1327 17.5 19.0001C17.5 18.8675 17.4473 18.7403 17.3535 18.6465L17.3435 18.6365C16.992 18.285 16.992 17.7152 17.3435 17.3637L17.3636 17.3436C17.715 16.9921 18.2849 16.9921 18.6364 17.3436L18.6464 17.3536C18.8417 17.5489 19.1583 17.5489 19.3535 17.3536L21.1464 15.5608C21.7322 14.975 21.7322 14.0252 21.1464 13.4394L18.3601 10.6531C18.3559 10.6487 18.3516 10.6445 18.3472 10.6402L10.5606 2.85365ZM14.1275 15.6028C14.3257 15.4105 14.3305 15.0939 14.1382 14.8957C13.946 14.6975 13.6294 14.6927 13.4312 14.885L12.6518 15.6412C12.4536 15.8335 12.4489 16.15 12.6411 16.3482C12.8334 16.5464 13.15 16.5512 13.3482 16.3589L14.1275 15.6028ZM16.3503 12.6432C16.5473 12.8367 16.5502 13.1533 16.3568 13.3503L15.5349 14.1873C15.3415 14.3844 15.0249 14.3873 14.8279 14.1938C14.6308 14.0004 14.6279 13.6838 14.8214 13.4867L15.6432 12.6497C15.8367 12.4527 16.1532 12.4498 16.3503 12.6432Z" fill="#2B2B2C"/>
<path fill-rule="evenodd" clip-rule="evenodd" d="M2.5 16C2.5 12.9624 4.96243 10.5 8 10.5C11.0376 10.5 13.5 12.9624 13.5 16C13.5 19.0376 11.0376 21.5 8 21.5C4.96243 21.5 2.5 19.0376 2.5 16ZM9.5 15.2361C9.5 14.6679 9.179 14.1485 8.67082 13.8944C8.24853 13.6833 7.75147 13.6833 7.32918 13.8944C6.821 14.1485 6.5 14.6679 6.5 15.2361V15.3945C6.5 15.6906 6.58766 15.9801 6.75192 16.2265L8 18.0986L9.24808 16.2265C9.41234 15.9801 9.5 15.6906 9.5 15.3945V15.2361ZM6.88197 13C7.58578 12.6481 8.41422 12.6481 9.11803 13C9.96499 13.4235 10.5 14.2892 10.5 15.2361V15.3945C10.5 15.888 10.3539 16.3705 10.0801 16.7812L8.41603 19.2774C8.32329 19.4165 8.16718 19.5 8 19.5C7.83282 19.5 7.67671 19.4165 7.58397 19.2774L5.91987 16.7812C5.64609 16.3705 5.5 15.888 5.5 15.3945V15.2361C5.5 14.2892 6.03501 13.4235 6.88197 13ZM8.75 15.25C8.75 15.6642 8.41421 16 8 16C7.58579 16 7.25 15.6642 7.25 15.25C7.25 14.8358 7.58579 14.5 8 14.5C8.41421 14.5 8.75 14.8358 8.75 15.25Z" fill="#2B2B2C"/>
</svg>
