<svg width="24" height="24" viewBox="0 0 24 24" fill="none" xmlns="http://www.w3.org/2000/svg">
<path fill-rule="evenodd" clip-rule="evenodd" d="M10.5606 2.85365C9.97485 2.26786 9.0251 2.26786 8.43931 2.85365L6.64642 4.64654C6.55265 4.74031 6.49997 4.86749 6.49997 5.00009C6.49997 5.1327 6.55265 5.25988 6.64642 5.35365L6.65647 5.3637C7.00794 5.71517 7.00794 6.28502 6.65647 6.63649L6.63637 6.65659C6.2849 7.00806 5.71505 7.00806 5.36358 6.65659L5.35353 6.64654C5.15826 6.45128 4.84168 6.45128 4.64642 6.64654L2.85352 8.43943C2.26774 9.02522 2.26774 9.97497 2.85352 10.5608L4.26004 11.9673C3.17746 12.9717 2.5 14.4067 2.5 16C2.5 19.0376 4.96243 21.5 8 21.5C9.59326 21.5 11.0283 20.8225 12.0327 19.74L13.4393 21.1465C14.0251 21.7323 14.9748 21.7323 15.5606 21.1465L17.3535 19.3536C17.4473 19.2599 17.5 19.1327 17.5 19.0001C17.5 18.8675 17.4473 18.7403 17.3535 18.6465L17.3435 18.6365C16.992 18.285 16.992 17.7152 17.3435 17.3637L17.3636 17.3436C17.715 16.9921 18.2849 16.9921 18.6364 17.3436L18.6464 17.3536C18.8417 17.5489 19.1583 17.5489 19.3535 17.3536L21.1464 15.5608C21.7322 14.975 21.7322 14.0252 21.1464 13.4394L18.3601 10.6531C18.3559 10.6487 18.3516 10.6444 18.3472 10.6402L10.5606 2.85365ZM14.1464 20.4394L12.6483 18.9413C13.1517 18.1474 13.4573 17.2158 13.4959 16.2156L14.1275 15.6028C14.3257 15.4105 14.3305 15.0939 14.1382 14.8957C13.946 14.6975 13.6294 14.6927 13.4312 14.885L13.3942 14.921C12.8927 12.4001 10.6683 10.5 8 10.5C6.9182 10.5 5.90935 10.8123 5.0587 11.3517L3.56063 9.85365C3.36537 9.65838 3.36537 9.3418 3.56063 9.14654L5.04428 7.66289C5.77165 8.08669 6.72021 7.98697 7.34347 7.3637L7.36358 7.3436C7.98684 6.72033 8.08657 5.77177 7.66277 5.04441L9.14642 3.56075C9.34168 3.36549 9.65826 3.36549 9.85353 3.56075L17.3007 11.008L16.9631 11.3612C16.7723 11.5609 16.7795 11.8774 16.9791 12.0682C17.1788 12.2589 17.4953 12.2518 17.6861 12.0522L18.008 11.7153L20.4393 14.1465C20.6346 14.3418 20.6346 14.6584 20.4393 14.8536L18.9557 16.3373C18.2283 15.9135 17.2797 16.0132 16.6565 16.6365L16.6364 16.6566C16.0131 17.2799 15.9134 18.2284 16.3372 18.9558L14.8535 20.4394C14.6583 20.6347 14.3417 20.6347 14.1464 20.4394ZM16.3503 12.6432C16.5473 12.8367 16.5502 13.1533 16.3568 13.3503L15.5349 14.1873C15.3415 14.3844 15.0249 14.3873 14.8279 14.1938C14.6308 14.0004 14.6279 13.6838 14.8214 13.4867L15.6432 12.6497C15.8367 12.4527 16.1532 12.4498 16.3503 12.6432ZM8 13.5C7.72386 13.5 7.5 13.7239 7.5 14C7.5 14.2761 7.72386 14.5 8 14.5H9C9.27614 14.5 9.5 14.7239 9.5 15C9.5 15.2761 9.27614 15.5 9 15.5H7C6.17157 15.5 5.5 16.1716 5.5 17C5.5 17.8284 6.17157 18.5 7 18.5H8C8.27614 18.5 8.5 18.2761 8.5 18C8.5 17.7239 8.27614 17.5 8 17.5H7C6.72386 17.5 6.5 17.2761 6.5 17C6.5 16.7239 6.72386 16.5 7 16.5H9C9.82843 16.5 10.5 15.8284 10.5 15C10.5 14.1716 9.82843 13.5 9 13.5H8ZM7 14C7 14.2761 6.77614 14.5 6.5 14.5C6.22386 14.5 6 14.2761 6 14C6 13.7239 6.22386 13.5 6.5 13.5C6.77614 13.5 7 13.7239 7 14ZM10 18C10 18.2761 9.77614 18.5 9.5 18.5C9.22386 18.5 9 18.2761 9 18C9 17.7239 9.22386 17.5 9.5 17.5C9.77614 17.5 10 17.7239 10 18Z" fill="#2B2B2C"/>
</svg>
