<svg width="24" height="24" viewBox="0 0 24 24" fill="none" xmlns="http://www.w3.org/2000/svg">
<path fill-rule="evenodd" clip-rule="evenodd" d="M12 4C7.58172 4 4 7.58172 4 12C4 14.1231 4.82707 16.0531 6.17661 17.4853L7.15081 15.2122C7.46597 14.4768 8.18904 14 8.9891 14H15.0109C15.811 14 16.534 14.4768 16.8492 15.2122L17.8234 17.4853C19.1729 16.0531 20 14.1231 20 12C20 7.58172 16.4183 4 12 4ZM17.0456 18.2086C17.0438 18.2047 17.0421 18.2009 17.0404 18.197L15.9301 15.6061C15.7725 15.2384 15.4109 15 15.0109 15H13.5V15.75C13.5 16.1422 13.3193 16.4923 13.0367 16.7215L13.4854 19.8624C14.8181 19.6121 16.0343 19.0314 17.0456 18.2086ZM12.5 15H11.5V15.75C11.5 15.8881 11.6119 16 11.75 16H12.25C12.3881 16 12.5 15.8881 12.5 15.75V15ZM10.5 15H8.9891C8.58907 15 8.22753 15.2384 8.06995 15.6061L6.95958 18.197C6.95791 18.2009 6.95619 18.2047 6.95443 18.2086C7.9657 19.0314 9.18186 19.6121 10.5146 19.8624L10.9633 16.7214C10.6806 16.4923 10.5 16.1422 10.5 15.75V15ZM11.9336 17H12.0663L12.4928 19.9851C12.3298 19.995 12.1655 20 12 20C11.8345 20 11.6702 19.995 11.5072 19.9851L11.9336 17ZM3 12C3 7.02944 7.02944 3 12 3C16.9706 3 21 7.02944 21 12C21 16.9706 16.9706 21 12 21C7.02944 21 3 16.9706 3 12ZM9.75 9.75003C9.75 9.28701 9.8894 8.85751 10.1288 8.5H13.8712C14.1106 8.85751 14.25 9.28701 14.25 9.75003C14.25 10.9927 13.2426 12 12 12C10.7574 12 9.75 10.9927 9.75 9.75003ZM8.75 9.75003C8.75 9.30734 8.83871 8.88494 8.99924 8.5H7.5C7.22386 8.5 7 8.27614 7 8C7 7.72386 7.22386 7.5 7.5 7.5H9V7C9 6.17157 9.67157 5.5 10.5 5.5H13.5C14.3284 5.5 15 6.17157 15 7V8C15 8.10924 14.965 8.2103 14.9055 8.29255C15.1258 8.73103 15.25 9.22633 15.25 9.75003C15.25 11.545 13.7949 13 12 13C10.2051 13 8.75 11.545 8.75 9.75003ZM10 7.5H14V7C14 6.72386 13.7761 6.5 13.5 6.5H10.5C10.2239 6.5 10 6.72386 10 7V7.5Z" fill="#2B2B2C"/>
</svg>
