<svg width="18" height="18" viewBox="0 0 18 18" fill="none" xmlns="http://www.w3.org/2000/svg">
<g clip-path="url(#clip0_4912_759)">
<path fill-rule="evenodd" clip-rule="evenodd" d="M5.93931 1.35365C6.5251 0.767861 7.47484 0.767859 8.06063 1.35365L16.6464 9.93943C17.2322 10.5252 17.2322 11.475 16.6464 12.0608L15.3535 13.3536C15.1583 13.5489 14.8417 13.5489 14.6464 13.3536L14.6364 13.3436C14.2849 12.9921 13.715 12.9921 13.3636 13.3436L13.3435 13.3637C12.992 13.7152 12.992 14.285 13.3435 14.6365L13.3535 14.6465C13.5488 14.8418 13.5488 15.1584 13.3535 15.3536L12.0606 16.6465C11.4748 17.2323 10.5251 17.2323 9.93931 16.6465L9.20219 15.9094L8.39497 15.8613L8.03098 16.811C7.84187 17.3044 7.23479 17.4822 6.80938 17.1687L5.99997 16.5723L5.19056 17.1687C4.76515 17.4822 4.15808 17.3044 3.96896 16.811L3.60498 15.8613L2.60143 15.9211C2.07715 15.9524 1.66547 15.4786 1.76971 14.9638L1.97345 13.9576L1.08927 13.4553C0.634929 13.1972 0.545947 12.5799 0.908901 12.204L1.61943 11.4681L1.14251 10.5591C0.899284 10.0955 1.15955 9.52704 1.66943 9.40827L2.6534 9.17905L2.67077 8.97014C2.49395 9.03426 2.2882 8.99543 2.14642 8.85365L1.35352 8.06075C0.767739 7.47497 0.767737 6.52522 1.35352 5.93943L2.64642 4.64654C2.84168 4.45128 3.15826 4.45128 3.35352 4.64654L3.36358 4.65659C3.71505 5.00806 4.2849 5.00806 4.63637 4.65659L4.65647 4.63649C5.00794 4.28502 5.00794 3.71517 4.65647 3.3637L4.64642 3.35365C4.55265 3.25988 4.49997 3.1327 4.49997 3.00009C4.49997 2.86749 4.55265 2.74031 4.64642 2.64654L5.93931 1.35365ZM10.6464 15.9394L10.1703 15.4633C10.2407 15.3144 10.2662 15.1415 10.2302 14.9638L10.0265 13.9576L10.9107 13.4553C11.365 13.1972 11.454 12.5799 11.091 12.204L10.3805 11.4681L10.8574 10.5591C11.1007 10.0955 10.8404 9.52704 10.3305 9.40827L9.34655 9.17905L9.26176 8.15946C9.21808 7.63423 8.68729 7.29402 8.19181 7.47368L7.2484 7.81575L6.6368 7.01136C6.31665 6.59029 5.68329 6.59029 5.36314 7.01136L4.75154 7.81575L3.80813 7.47368C3.3486 7.30706 2.85869 7.58761 2.75518 8.0482L2.06063 7.35365C1.86537 7.15838 1.86537 6.8418 2.06063 6.64654L3.04428 5.66289C3.77165 6.0867 4.7202 5.98697 5.34347 5.3637L5.36357 5.3436C5.98684 4.72033 6.08657 3.77177 5.66276 3.04441L6.64642 2.06075C6.84168 1.86549 7.15826 1.86549 7.35352 2.06075L13.2953 8.00248L13.1526 8.1403C12.954 8.33216 12.9485 8.64869 13.1404 8.8473C13.3323 9.0459 13.6488 9.05137 13.8474 8.8595L14.0025 8.7097L15.9393 10.6465C16.1346 10.8418 16.1346 11.1584 15.9393 11.3536L14.9557 12.3373C14.2283 11.9135 13.2797 12.0132 12.6565 12.6365L12.6364 12.6566C12.0131 13.2799 11.9134 14.2284 12.3372 14.9558L11.3535 15.9394C11.1583 16.1347 10.8417 16.1347 10.6464 15.9394ZM12.6202 10.0867C12.8117 9.88766 12.8055 9.57114 12.6066 9.37968C12.4076 9.18822 12.091 9.19433 11.8996 9.39332L11.3051 10.0112C11.1136 10.2102 11.1197 10.5267 11.3187 10.7182C11.5177 10.9096 11.8343 10.9035 12.0257 10.7045L12.6202 10.0867ZM5.00004 10.4999C5.00004 10.2238 4.77618 9.9999 4.50004 9.9999C4.2239 9.9999 4.00004 10.2238 4.00004 10.4999C4.00004 10.776 4.2239 10.9999 4.50004 10.9999C4.77618 10.9999 5.00004 10.776 5.00004 10.4999ZM7.50004 13.9999C7.2239 13.9999 7.00004 13.776 7.00004 13.4999C7.00004 13.2238 7.2239 12.9999 7.50004 12.9999C7.77618 12.9999 8.00004 13.2238 8.00004 13.4999C8.00004 13.776 7.77618 13.9999 7.50004 13.9999ZM7.85359 10.8534L4.85359 13.8534C4.65833 14.0487 4.34175 14.0487 4.14648 13.8534C3.95122 13.6582 3.95122 13.3416 4.14648 13.1463L7.14648 10.1463C7.34175 9.95108 7.65833 9.95108 7.85359 10.1463C8.04885 10.3416 8.04885 10.6582 7.85359 10.8534Z" fill="#2B2B2C"/>
</g>
<defs>
<clipPath id="clip0_4912_759">
<rect width="18" height="18" fill="white"/>
</clipPath>
</defs>
</svg>
