<svg width="30" height="30" viewBox="0 0 30 30" fill="none" xmlns="http://www.w3.org/2000/svg">
<path fill-rule="evenodd" clip-rule="evenodd" d="M10.5853 2.71065C11.366 1.92766 12.6339 1.92674 13.4157 2.70859L27.298 16.5909C28.0764 17.3692 28.0795 18.6303 27.3049 19.4124L24.7205 22.022C24.5367 22.2076 24.2409 22.2204 24.0417 22.0514L23.7023 21.7633C23.1771 21.3176 22.3981 21.3483 21.9097 21.834C21.4048 22.336 21.3867 23.1472 21.8687 23.6713L22.0811 23.9023C22.2617 24.0987 22.2563 24.4023 22.0688 24.5921L19.4163 27.2775C18.6367 28.0668 17.3637 28.0707 16.5792 27.2863L15.1224 25.8295C14.9288 26.0692 14.6262 26.2198 14.2853 26.1997L12.5143 26.0951L11.8737 27.7495C11.6365 28.3623 10.8828 28.5836 10.3519 28.1963L8.91857 27.1509L7.48524 28.1963C6.95436 28.5836 6.20068 28.3623 5.96342 27.7495L5.32284 26.0951L3.55183 26.1997C2.89587 26.2384 2.38148 25.6448 2.51317 25.001L2.86873 23.2629L1.32232 22.3934C0.749554 22.0713 0.637766 21.2938 1.0966 20.8235L2.3354 19.5535L1.50457 17.986C1.19684 17.4054 1.52315 16.6909 2.16345 16.5432L3.89218 16.1446L4.01195 14.719L2.71178 13.4188C1.9283 12.6354 1.93109 11.3642 2.71801 10.5842L5.41616 7.90969C5.60906 7.71848 5.91932 7.71624 6.11497 7.90464L6.36158 8.14211C6.86652 8.62835 7.66649 8.62526 8.16766 8.13513C8.67837 7.63567 8.68894 6.81723 8.19131 6.30475L7.94707 6.05322C7.7569 5.85737 7.75896 5.54518 7.95172 5.35186L10.5853 2.71065ZM4.39826 13.6911C4.65814 13.4759 5.02341 13.3931 5.375 13.5193L7.0448 14.1186L8.12553 12.7116C8.52582 12.1905 9.31132 12.1905 9.71161 12.7116L10.7923 14.1186L12.4621 13.5193C13.0806 13.2973 13.7414 13.722 13.7964 14.3768L13.945 16.1446L15.6737 16.5432C16.314 16.6909 16.6403 17.4054 16.3326 17.986L15.5017 19.5535L16.7405 20.8235C17.1994 21.2938 17.0876 22.0713 16.5148 22.3934L14.9684 23.2629L15.2333 24.5575C15.2765 24.5804 15.3171 24.61 15.3535 24.6464L17.2863 26.5792C17.6786 26.9714 18.3151 26.9694 18.7049 26.5748L21.0264 24.2244C20.2915 23.305 20.3577 21.967 21.2046 21.1249C22.0572 20.277 23.4147 20.2195 24.3358 20.9894L26.5944 18.7087C26.9816 18.3177 26.9801 17.6872 26.5909 17.298L23.5 14.2071L22.3535 15.3536C22.1583 15.5488 21.8417 15.5488 21.6464 15.3536C21.4512 15.1583 21.4512 14.8417 21.6464 14.6464L22.7929 13.5L12.7086 3.4157C12.3177 3.02477 11.6838 3.02523 11.2934 3.41672L9.00421 5.71259C9.78748 6.62388 9.73745 7.99864 8.86685 8.85007C8.01429 9.68384 6.67357 9.72188 5.77647 8.96057L3.422 11.2944C3.02854 11.6844 3.02715 12.32 3.41889 12.7117L4.39826 13.6911ZM18.0169 19.0006C18.2104 19.1975 18.2077 19.5141 18.0108 19.7077L17.3505 20.3566C17.1535 20.5502 16.837 20.5474 16.6434 20.3505C16.4498 20.1535 16.4526 19.837 16.6495 19.6434L17.3098 18.9945C17.5068 18.8009 17.8233 18.8037 18.0169 19.0006ZM20.8519 16.8552C21.0481 16.6608 21.0495 16.3442 20.8552 16.1481C20.6608 15.9519 20.3442 15.9505 20.1481 16.1448L18.9665 17.3157C18.7704 17.5101 18.7689 17.8267 18.9633 18.0228C19.1577 18.219 19.4743 18.2204 19.6704 18.026L20.8519 16.8552ZM11.8536 18.3536C12.0488 18.1583 12.0488 17.8417 11.8536 17.6464C11.6583 17.4512 11.3417 17.4512 11.1464 17.6464L6.14645 22.6464C5.95118 22.8417 5.95118 23.1583 6.14645 23.3536C6.34171 23.5488 6.65829 23.5488 6.85355 23.3536L11.8536 18.3536ZM6.5 18C6.5 18.2761 6.72386 18.5 7 18.5C7.27614 18.5 7.5 18.2761 7.5 18C7.5 17.7239 7.27614 17.5 7 17.5C6.72386 17.5 6.5 17.7239 6.5 18ZM5.5 18C5.5 17.1716 6.17157 16.5 7 16.5C7.82843 16.5 8.5 17.1716 8.5 18C8.5 18.8284 7.82843 19.5 7 19.5C6.17157 19.5 5.5 18.8284 5.5 18ZM11 22.5C10.7239 22.5 10.5 22.7239 10.5 23C10.5 23.2761 10.7239 23.5 11 23.5C11.2761 23.5 11.5 23.2761 11.5 23C11.5 22.7239 11.2761 22.5 11 22.5ZM9.5 23C9.5 22.1716 10.1716 21.5 11 21.5C11.8284 21.5 12.5 22.1716 12.5 23C12.5 23.8284 11.8284 24.5 11 24.5C10.1716 24.5 9.5 23.8284 9.5 23ZM7.83784 14.7277L8.91857 13.3208L9.9993 14.7277C10.264 15.0724 10.7211 15.2066 11.1301 15.0598L12.7999 14.4605L12.9485 16.2283C12.9849 16.6614 13.2968 17.0214 13.7203 17.1191L15.449 17.5177L14.6182 19.0852C14.4147 19.4692 14.4824 19.9407 14.7859 20.2518L16.0247 21.5217L14.4783 22.3912C14.0995 22.6042 13.9016 23.0375 13.9887 23.4633L14.3443 25.2014L12.5733 25.0968C12.1394 25.0712 11.7387 25.3287 11.5818 25.734L10.9412 27.3884L9.50786 26.343C9.15674 26.0869 8.6804 26.0869 8.32928 26.343L6.89595 27.3884L6.25538 25.734C6.09845 25.3287 5.69773 25.0712 5.26389 25.0968L3.49288 25.2014L3.84844 23.4633C3.93554 23.0375 3.73766 22.6042 3.35884 22.3912L1.81243 21.5217L3.05123 20.2518C3.3547 19.9407 3.42249 19.4692 3.21896 19.0852L2.38813 17.5177L4.11686 17.1191C4.54035 17.0214 4.85228 16.6614 4.88867 16.2283L5.0372 14.4605L6.707 15.0598C7.11606 15.2066 7.5731 15.0724 7.83784 14.7277Z" fill="#2B2B2C"/>
</svg>
