<svg width="24" height="24" viewBox="0 0 24 24" fill="none" xmlns="http://www.w3.org/2000/svg">
<path fill-rule="evenodd" clip-rule="evenodd" d="M8.43931 2.85365C9.0251 2.26786 9.97484 2.26786 10.5606 2.85365L18.3472 10.6402C18.3516 10.6445 18.3559 10.6487 18.3601 10.6531L21.1464 13.4394C21.7322 14.0252 21.7322 14.975 21.1464 15.5608L19.3535 17.3536C19.1583 17.5489 18.8417 17.5489 18.6464 17.3536L18.6364 17.3436C18.2849 16.9921 17.715 16.9921 17.3636 17.3436L17.3435 17.3637C16.992 17.7152 16.992 18.285 17.3435 18.6365L17.3535 18.6465C17.4473 18.7403 17.5 18.8675 17.5 19.0001C17.5 19.1327 17.4473 19.2599 17.3535 19.3536L15.5606 21.1465C14.9748 21.7323 14.0251 21.7323 13.4393 21.1465L2.85352 10.5608C2.26774 9.97497 2.26774 9.02522 2.85352 8.43943L4.64642 6.64654C4.84168 6.45128 5.15826 6.45128 5.35352 6.64654L5.36358 6.65659C5.71505 7.00806 6.2849 7.00806 6.63637 6.65659L6.65647 6.63649C7.00794 6.28502 7.00794 5.71517 6.65647 5.3637L6.64642 5.35365C6.55265 5.25988 6.49997 5.1327 6.49997 5.00009C6.49997 4.86748 6.55265 4.74031 6.64642 4.64654L8.43931 2.85365ZM17.3007 11.008L16.9631 11.3612C16.7723 11.5609 16.7795 11.8774 16.9791 12.0682C17.1788 12.2589 17.4953 12.2518 17.686 12.0522L18.008 11.7153L20.4393 14.1465C20.6346 14.3418 20.6346 14.6584 20.4393 14.8536L18.9557 16.3373C18.2283 15.9135 17.2797 16.0132 16.6565 16.6365L16.6364 16.6566C16.0131 17.2799 15.9134 18.2284 16.3372 18.9558L14.8535 20.4394C14.6583 20.6347 14.3417 20.6347 14.1464 20.4394L11.7091 18.0021L11.9926 17.7217C12.1889 17.5276 12.1907 17.211 11.9965 17.0147C11.8024 16.8183 11.4858 16.8165 11.2894 17.0107L11.0019 17.295L3.56063 9.85365C3.36537 9.65838 3.36537 9.3418 3.56063 9.14654L5.04428 7.66289C5.77165 8.08669 6.7202 7.98697 7.34347 7.3637L7.36357 7.3436C7.98684 6.72033 8.08657 5.77177 7.66276 5.04441L9.14642 3.56075C9.34168 3.36549 9.65826 3.36549 9.85352 3.56075L17.3007 11.008ZM14.1275 15.6028C14.3257 15.4105 14.3305 15.0939 14.1382 14.8957C13.946 14.6975 13.6294 14.6927 13.4312 14.885L12.6518 15.6412C12.4536 15.8335 12.4489 16.15 12.6411 16.3482C12.8334 16.5464 13.15 16.5512 13.3482 16.3589L14.1275 15.6028ZM16.3503 12.6432C16.5473 12.8367 16.5502 13.1533 16.3568 13.3503L15.5349 14.1873C15.3415 14.3844 15.0249 14.3873 14.8279 14.1938C14.6308 14.0004 14.6279 13.6838 14.8214 13.4867L15.6432 12.6497C15.8367 12.4527 16.1532 12.4498 16.3503 12.6432Z" fill="#2B2B2C"/>
</svg>
