<svg width="30" height="30" viewBox="0 0 30 30" fill="none" xmlns="http://www.w3.org/2000/svg">
<path fill-rule="evenodd" clip-rule="evenodd" d="M10.5853 2.71065C11.366 1.92766 12.6339 1.92674 13.4158 2.70859L27.298 16.5909C28.0764 17.3692 28.0795 18.6303 27.3049 19.4124L24.7205 22.022C24.5367 22.2076 24.2409 22.2204 24.0417 22.0514L23.7023 21.7633C23.1771 21.3176 22.3981 21.3483 21.9097 21.834C21.4048 22.336 21.3867 23.1472 21.8687 23.6713L22.0811 23.9023C22.2617 24.0987 22.2563 24.4023 22.0688 24.5921L19.4163 27.2775C18.6367 28.0668 17.3637 28.0707 16.5792 27.2863L14.5541 25.2611C13.2744 26.9265 11.2626 28 9 28C5.13401 28 2 24.866 2 21C2 18.7374 3.07346 16.7256 4.73887 15.4459L2.71178 13.4188C1.9283 12.6354 1.9311 11.3642 2.71802 10.5842L5.41616 7.90969C5.60906 7.71848 5.91933 7.71624 6.11497 7.90464L6.36158 8.14211C6.86652 8.62835 7.66649 8.62526 8.16766 8.13513C8.67837 7.63567 8.68894 6.81723 8.19131 6.30475L7.94707 6.05322C7.7569 5.85737 7.75897 5.54518 7.95172 5.35186L10.5853 2.71065ZM5.59158 14.8844C6.60023 14.3211 7.76262 14 9 14C12.866 14 16 17.134 16 21C16 22.2374 15.6789 23.3998 15.1156 24.4084L17.2863 26.5792C17.6786 26.9714 18.3151 26.9694 18.7049 26.5748L21.0264 24.2244C20.2915 23.305 20.3577 21.967 21.2046 21.1249C22.0572 20.277 23.4147 20.2195 24.3358 20.9894L26.5944 18.7087C26.9816 18.3177 26.9801 17.6872 26.5909 17.298L23.5 14.2071L22.3536 15.3536C22.1583 15.5488 21.8417 15.5488 21.6464 15.3536C21.4512 15.1583 21.4512 14.8417 21.6464 14.6464L22.7929 13.5L12.7086 3.4157C12.3177 3.02477 11.6838 3.02523 11.2934 3.41672L9.00421 5.71259C9.78748 6.62388 9.73745 7.99864 8.86685 8.85007C8.01429 9.68384 6.67357 9.72188 5.77647 8.96057L3.422 11.2944C3.02854 11.6844 3.02715 12.32 3.41888 12.7117L5.59158 14.8844ZM18.0169 19.0006C18.2105 19.1975 18.2077 19.5141 18.0108 19.7077L17.3505 20.3566C17.1535 20.5502 16.837 20.5474 16.6434 20.3505C16.4498 20.1535 16.4526 19.837 16.6495 19.6434L17.3098 18.9945C17.5068 18.8009 17.8233 18.8037 18.0169 19.0006ZM20.852 16.8552C21.0481 16.6608 21.0495 16.3442 20.8552 16.1481C20.6608 15.9519 20.3442 15.9505 20.1481 16.1448L18.9665 17.3157C18.7704 17.5101 18.7689 17.8267 18.9633 18.0228C19.1577 18.219 19.4743 18.2204 19.6704 18.026L20.852 16.8552ZM10.029 18.2005C9.39563 17.8205 8.60437 17.8205 7.97101 18.2005C7.3686 18.562 7 19.213 7 19.9155V20.0965C7 20.5799 7.15106 21.0513 7.43206 21.4447L9 23.6398L10.5679 21.4447C10.8489 21.0513 11 20.5799 11 20.0965V19.9155C11 19.213 10.6314 18.562 10.029 18.2005ZM7.45651 17.343C8.40656 16.773 9.59344 16.773 10.5435 17.343C11.4471 17.8852 12 18.8617 12 19.9155V20.0965C12 20.7884 11.7838 21.4629 11.3817 22.0259L9.40687 24.7907C9.31301 24.9221 9.16148 25.0001 9 25.0001C8.83852 25.0001 8.68699 24.9221 8.59313 24.7907L6.61833 22.0259C6.21618 21.4629 6 20.7884 6 20.0965V19.9155C6 18.8617 6.5529 17.8852 7.45651 17.343ZM10 20C10 20.5523 9.55229 21 9 21C8.44771 21 8 20.5523 8 20C8 19.4477 8.44771 19 9 19C9.55229 19 10 19.4477 10 20Z" fill="#2B2B2C"/>
</svg>
