<svg width="30" height="30" viewBox="0 0 30 30" fill="none" xmlns="http://www.w3.org/2000/svg">
<path fill-rule="evenodd" clip-rule="evenodd" d="M10.5853 2.71065C11.366 1.92766 12.6339 1.92674 13.4157 2.70859L27.298 16.5909C28.0764 17.3692 28.0795 18.6303 27.3049 19.4124L24.7205 22.022C24.5367 22.2076 24.2409 22.2204 24.0417 22.0514L23.7023 21.7633C23.1771 21.3175 22.3981 21.3483 21.9097 21.834C21.4048 22.336 21.3867 23.1472 21.8687 23.6713L22.0811 23.9023C22.2617 24.0987 22.2563 24.4023 22.0688 24.5921L19.4163 27.2775C18.6367 28.0668 17.3637 28.0707 16.5792 27.2863L2.71178 13.4188C1.9283 12.6354 1.9311 11.3642 2.71801 10.5842L5.41616 7.90969C5.60906 7.71848 5.91933 7.71624 6.11497 7.90464L6.36158 8.14211C6.86652 8.62835 7.66649 8.62526 8.16766 8.13513C8.67837 7.63567 8.68894 6.81723 8.19131 6.30475L7.94707 6.05322C7.7569 5.85737 7.75896 5.54518 7.95172 5.35186L10.5853 2.71065ZM12.7086 3.4157C12.3177 3.02477 11.6838 3.02523 11.2934 3.41672L9.00421 5.71259C9.78748 6.62388 9.73745 7.99864 8.86685 8.85006C8.0143 9.68384 6.67357 9.72187 5.77647 8.96057L3.422 11.2944C3.02854 11.6844 3.02714 12.32 3.41888 12.7117L13.5317 22.8245C13.556 22.7596 13.5942 22.6987 13.6464 22.6464L14.6464 21.6464C14.8417 21.4512 15.1583 21.4512 15.3535 21.6464C15.5488 21.8417 15.5488 22.1583 15.3535 22.3536L14.3535 23.3536C14.3013 23.4058 14.2404 23.444 14.1755 23.4683L17.2863 26.5792C17.6786 26.9714 18.3151 26.9694 18.7049 26.5748L21.0264 24.2244C20.2915 23.305 20.3577 21.967 21.2046 21.1249C22.0572 20.277 23.4147 20.2195 24.3358 20.9894L26.5943 18.7087C26.9816 18.3177 26.9801 17.6872 26.5909 17.298L23.4683 14.1754C23.4441 14.2404 23.4058 14.3013 23.3535 14.3536L22.3535 15.3536C22.1583 15.5488 21.8417 15.5488 21.6464 15.3536C21.4512 15.1583 21.4512 14.8417 21.6464 14.6464L22.6464 13.6464C22.6987 13.5942 22.7596 13.5559 22.8246 13.5316L12.7086 3.4157ZM18.0121 19.7064C18.2083 19.512 18.2098 19.1955 18.0155 18.9993C17.8212 18.803 17.5047 18.8015 17.3084 18.9958L16.1482 20.1448C15.952 20.3391 15.9504 20.6556 16.1447 20.8519C16.339 21.0481 16.6556 21.0496 16.8518 20.8553L18.0121 19.7064ZM20.8551 16.1481C21.0495 16.3442 21.0481 16.6608 20.8519 16.8552L19.6704 18.026C19.4743 18.2204 19.1577 18.219 18.9633 18.0228C18.7689 17.8267 18.7704 17.5101 18.9665 17.3157L20.148 16.1448C20.3442 15.9505 20.6608 15.9519 20.8551 16.1481Z" fill="#2B2B2C"/>
</svg>
