<svg width="18" height="18" viewBox="0 0 18 18" fill="none" xmlns="http://www.w3.org/2000/svg">
<g clip-path="url(#clip0_4912_755)">
<path fill-rule="evenodd" clip-rule="evenodd" d="M5.93931 1.35365C6.5251 0.767861 7.47484 0.767859 8.06063 1.35365L16.6464 9.93943C17.2322 10.5252 17.2322 11.475 16.6464 12.0608L15.3535 13.3536C15.1583 13.5489 14.8417 13.5489 14.6464 13.3536L14.6364 13.3436C14.2849 12.9921 13.715 12.9921 13.3636 13.3436L13.3435 13.3637C12.992 13.7152 12.992 14.285 13.3435 14.6365L13.3535 14.6465C13.5488 14.8418 13.5488 15.1584 13.3535 15.3536L12.0606 16.6465C11.4748 17.2323 10.5251 17.2323 9.93931 16.6465L9.1643 15.8715C8.30237 16.5768 7.2006 17 6 17C3.23858 17 1 14.7614 1 12C1 10.7994 1.42316 9.69763 2.12847 8.8357L1.35352 8.06075C0.767739 7.47497 0.767737 6.52522 1.35352 5.93943L2.64642 4.64654C2.84168 4.45128 3.15826 4.45128 3.35352 4.64654L3.36358 4.65659C3.71505 5.00806 4.2849 5.00806 4.63637 4.65659L4.65647 4.63649C5.00794 4.28502 5.00794 3.71517 4.65647 3.3637L4.64642 3.35365C4.55265 3.25988 4.49997 3.1327 4.49997 3.00009C4.49997 2.86749 4.55265 2.74031 4.64642 2.64654L5.93931 1.35365ZM10.6464 15.9394L9.87142 15.1644C10.5768 14.3025 11 13.2007 11 12C11 9.23858 8.76142 7 6 7C4.79933 7 3.69751 7.4232 2.83557 8.12858L2.06063 7.35365C1.86537 7.15838 1.86537 6.8418 2.06063 6.64654L3.04428 5.66289C3.77165 6.0867 4.7202 5.98697 5.34347 5.3637L5.36357 5.3436C5.98684 4.72033 6.08657 3.77177 5.66276 3.04441L6.64642 2.06075C6.84168 1.86549 7.15826 1.86549 7.35352 2.06075L13.2953 8.00248L13.1526 8.1403C12.954 8.33216 12.9485 8.64869 13.1404 8.8473C13.3323 9.0459 13.6488 9.05137 13.8474 8.8595L14.0025 8.7097L15.9393 10.6465C16.1346 10.8418 16.1346 11.1584 15.9393 11.3536L14.9557 12.3373C14.2283 11.9135 13.2797 12.0132 12.6565 12.6365L12.6364 12.6566C12.0131 13.2799 11.9134 14.2284 12.3372 14.9558L11.3535 15.9394C11.1583 16.1347 10.8417 16.1347 10.6464 15.9394ZM12.6066 9.37968C12.8055 9.57114 12.8117 9.88766 12.6202 10.0867L12.0257 10.7045C11.8343 10.9035 11.5177 10.9096 11.3187 10.7182C11.1197 10.5267 11.1136 10.2102 11.3051 10.0112L11.8996 9.39332C12.091 9.19433 12.4076 9.18822 12.6066 9.37968ZM7 11.3027C7 10.9684 6.8329 10.6561 6.5547 10.4707C6.2188 10.2468 5.7812 10.2468 5.4453 10.4707C5.1671 10.6561 5 10.9684 5 11.3027V11.4884C5 11.7325 5.06635 11.972 5.19194 12.1814L6 13.5281L6.80806 12.1814C6.93365 11.972 7 11.7325 7 11.4884V11.3027ZM4.8906 9.63863C5.5624 9.19077 6.4376 9.19077 7.1094 9.63863C7.6658 10.0096 8 10.634 8 11.3027V11.4884C8 11.9138 7.8844 12.3311 7.66555 12.6959L6.42875 14.7572C6.33838 14.9078 6.17563 15 6 15C5.82437 15 5.66162 14.9078 5.57125 14.7572L4.33445 12.6959C4.1156 12.3311 4 11.9138 4 11.4884V11.3027C4 10.634 4.3342 10.0096 4.8906 9.63863ZM6.5 11.5C6.5 11.7761 6.27614 12 6 12C5.72386 12 5.5 11.7761 5.5 11.5C5.5 11.2239 5.72386 11 6 11C6.27614 11 6.5 11.2239 6.5 11.5Z" fill="#2B2B2C"/>
</g>
<defs>
<clipPath id="clip0_4912_755">
<rect width="18" height="18" fill="white"/>
</clipPath>
</defs>
</svg>
