<svg width="24" height="24" viewBox="0 0 24 24" fill="none" xmlns="http://www.w3.org/2000/svg">
<path fill-rule="evenodd" clip-rule="evenodd" d="M8.43931 2.85365C9.0251 2.26786 9.97485 2.26786 10.5606 2.85365L18.0008 10.2938L10.3376 18.0448L2.85352 10.5608C2.26774 9.97497 2.26774 9.02522 2.85352 8.43943L4.64642 6.64654C4.84168 6.45128 5.15826 6.45128 5.35352 6.64654L5.36358 6.65659C5.71505 7.00806 6.2849 7.00806 6.63637 6.65659L6.65647 6.63649C7.00794 6.28502 7.00794 5.71517 6.65647 5.3637L6.64642 5.35365C6.55265 5.25988 6.49997 5.1327 6.49997 5.00009C6.49997 4.86748 6.55265 4.74031 6.64642 4.64654L8.43931 2.85365ZM11.0447 18.7519L13.4393 21.1465C14.0251 21.7323 14.9748 21.7323 15.5606 21.1465L17.3535 19.3536C17.4473 19.2599 17.5 19.1327 17.5 19.0001C17.5 18.8675 17.4473 18.7403 17.3535 18.6465L17.3435 18.6365L17.3435 18.6365C16.992 18.285 16.992 17.7152 17.3435 17.3637L17.3636 17.3436C17.715 16.9921 18.2849 16.9921 18.6364 17.3436L18.6364 17.3436L18.6464 17.3536C18.7402 17.4474 18.8673 17.5001 19 17.5001C19.1326 17.5001 19.2598 17.4474 19.3535 17.3536L21.1464 15.5608C21.7322 14.975 21.7322 14.0252 21.1464 13.4394L18.7079 11.0009L11.0447 18.7519Z" fill="#2B2B2C"/>
</svg>
