<svg width="18" height="18" viewBox="0 0 18 18" fill="none" xmlns="http://www.w3.org/2000/svg">
<g clip-path="url(#clip0_4912_1172)">
<path fill-rule="evenodd" clip-rule="evenodd" d="M5.93931 1.35365C6.5251 0.767861 7.47484 0.767859 8.06063 1.35365L14.0009 7.29389L7.3375 14.0447L1.35352 8.06075C0.767738 7.47497 0.767738 6.52522 1.35352 5.93943L2.64642 4.64654C2.74019 4.55277 2.86736 4.50009 2.99997 4.50009C3.13258 4.50009 3.25976 4.55277 3.35352 4.64654L3.36358 4.65659C3.71505 5.00806 4.2849 5.00806 4.63637 4.65659L4.65647 4.63649C5.00794 4.28502 5.00794 3.71517 4.65647 3.3637L4.64642 3.35365C4.45116 3.15838 4.45116 2.8418 4.64642 2.64654L5.93931 1.35365ZM8.04462 14.7518L9.93931 16.6465C10.5251 17.2323 11.4748 17.2323 12.0606 16.6465L13.3535 15.3536C13.5488 15.1584 13.5488 14.8418 13.3535 14.6465L13.3435 14.6365C12.992 14.285 12.992 13.7152 13.3435 13.3637L13.3636 13.3436C13.715 12.9921 14.2849 12.9921 14.6364 13.3436L14.6464 13.3536C14.8417 13.5489 15.1583 13.5489 15.3535 13.3536L16.6464 12.0608C17.2322 11.475 17.2322 10.5252 16.6464 9.93943L14.708 8.00101L8.04462 14.7518Z" fill="#2B2B2C"/>
</g>
<defs>
<clipPath id="clip0_4912_1172">
<rect width="18" height="18" fill="white"/>
</clipPath>
</defs>
</svg>
