<svg width="30" height="30" viewBox="0 0 30 30" fill="none" xmlns="http://www.w3.org/2000/svg">
<path fill-rule="evenodd" clip-rule="evenodd" d="M10.5853 2.71065C11.366 1.92766 12.6339 1.92674 13.4158 2.70859L27.298 16.5909C28.0764 17.3692 28.0795 18.6303 27.3049 19.4124L24.7205 22.022C24.5367 22.2076 24.2409 22.2204 24.0417 22.0514L23.7023 21.7633C23.1771 21.3175 22.3981 21.3483 21.9097 21.834C21.4048 22.336 21.3867 23.1472 21.8687 23.6713L22.0811 23.9023C22.2617 24.0987 22.2563 24.4023 22.0688 24.5921L19.4163 27.2775C18.6367 28.0668 17.3637 28.0707 16.5792 27.2863L13.5578 24.2649C12.6641 26.4559 10.5124 28 8.00001 28C4.6863 28 2.00001 25.3137 2.00001 22C2.00001 19.4876 3.54415 17.3359 5.73514 16.4422L2.71178 13.4188C1.9283 12.6353 1.9311 11.3642 2.71802 10.5842L5.41616 7.90969C5.60906 7.71848 5.91933 7.71624 6.11498 7.90464L6.36158 8.14211C6.86653 8.62835 7.66649 8.62526 8.16766 8.13513C8.67837 7.63567 8.68895 6.81723 8.19131 6.30475L7.94708 6.05322C7.7569 5.85737 7.75897 5.54518 7.95172 5.35186L10.5853 2.71065ZM14.6464 21.6464L13.9926 22.3003C13.9975 22.2008 14 22.1007 14 22C14 18.6863 11.3137 16 8.00001 16C7.59704 16 7.20335 16.0397 6.82264 16.1155L3.41889 12.7117C3.02715 12.32 3.02855 11.6844 3.42201 11.2944L5.77647 8.96057C6.67357 9.72187 8.0143 9.68384 8.86685 8.85006C9.73745 7.99864 9.78749 6.62388 9.00421 5.71259L11.2934 3.41672C11.6838 3.02523 12.3177 3.02477 12.7086 3.4157L22.8246 13.5316C22.7596 13.5559 22.6987 13.5942 22.6464 13.6464L21.6464 14.6464C21.4512 14.8417 21.4512 15.1583 21.6464 15.3536C21.8417 15.5488 22.1583 15.5488 22.3536 15.3536L23.3536 14.3536C23.4058 14.3013 23.4441 14.2404 23.4684 14.1754L26.5909 17.298C26.9801 17.6872 26.9816 18.3177 26.5944 18.7087L24.3358 20.9894C23.4147 20.2195 22.0572 20.277 21.2046 21.1249C20.3577 21.967 20.2915 23.305 21.0264 24.2244L18.7049 26.5748C18.3151 26.9694 17.6786 26.9714 17.2863 26.5792L14.1755 23.4683C14.2404 23.444 14.3013 23.4058 14.3536 23.3536L15.3536 22.3536C15.5488 22.1583 15.5488 21.8417 15.3536 21.6464C15.1583 21.4512 14.8417 21.4512 14.6464 21.6464ZM18.0121 19.7064C18.2083 19.512 18.2099 19.1955 18.0156 18.9993C17.8212 18.803 17.5047 18.8015 17.3085 18.9958L16.1482 20.1448C15.952 20.3391 15.9504 20.6556 16.1447 20.8519C16.339 21.0481 16.6556 21.0496 16.8518 20.8553L18.0121 19.7064ZM20.8552 16.1481C21.0495 16.3442 21.0481 16.6608 20.8519 16.8552L19.6704 18.026C19.4743 18.2204 19.1577 18.219 18.9633 18.0228C18.7689 17.8267 18.7704 17.5101 18.9665 17.3157L20.1481 16.1448C20.3442 15.9505 20.6608 15.9519 20.8552 16.1481ZM8.00001 17C5.23859 17 3.00001 19.2386 3.00001 22C3.00001 24.7614 5.23859 27 8.00001 27C10.7614 27 13 24.7614 13 22C13 19.2386 10.7614 17 8.00001 17ZM8.5 19C8.5 18.7239 8.27614 18.5 8 18.5C7.72386 18.5 7.5 18.7239 7.5 19V21.5H5C4.72386 21.5 4.5 21.7239 4.5 22C4.5 22.2761 4.72386 22.5 5 22.5H7.5V25C7.5 25.2761 7.72386 25.5 8 25.5C8.27614 25.5 8.5 25.2761 8.5 25V22.5H11C11.2761 22.5 11.5 22.2761 11.5 22C11.5 21.7239 11.2761 21.5 11 21.5H8.5V19Z" fill="#2B2B2C"/>
</svg>
