<svg width="24" height="24" viewBox="0 0 24 24" fill="none" xmlns="http://www.w3.org/2000/svg">
<path fill-rule="evenodd" clip-rule="evenodd" d="M8.43931 2.85365C9.0251 2.26786 9.97485 2.26786 10.5606 2.85365L18.3472 10.6402L18.3551 10.648L18.3601 10.6531L21.1464 13.4394C21.7322 14.0252 21.7322 14.975 21.1464 15.5608L19.3535 17.3536C19.1583 17.5489 18.8417 17.5489 18.6464 17.3536L18.6364 17.3436C18.2849 16.9921 17.715 16.9921 17.3636 17.3436L17.3435 17.3637C16.992 17.7152 16.992 18.285 17.3435 18.6365L17.3535 18.6465C17.4473 18.7403 17.5 18.8675 17.5 19.0001C17.5 19.1327 17.4473 19.2599 17.3535 19.3536L15.5606 21.1465C14.9748 21.7323 14.0251 21.7323 13.4393 21.1465L12.6764 20.3836C12.5068 20.5315 12.2808 20.6175 12.0323 20.6027L10.8069 20.5296L10.3627 21.6886C10.1499 22.2437 9.46694 22.4437 8.98836 22.091L8.00003 21.3627L7.01169 22.091C6.53311 22.4437 5.85015 22.2437 5.6374 21.6886L5.1932 20.5296L3.96773 20.6027C3.37791 20.6379 2.91478 20.1048 3.03204 19.5257L3.28059 18.2981L2.20142 17.6851C1.69028 17.3948 1.59017 16.7003 1.9985 16.2774L2.86549 15.3795L2.28365 14.2705C2.01002 13.7489 2.30282 13.1094 2.87644 12.9758L4.07776 12.696L4.1477 11.8549L4.14642 11.8536L2.85352 10.5608C2.26774 9.97497 2.26774 9.02522 2.85352 8.43943L4.64642 6.64654C4.84168 6.45128 5.15826 6.45128 5.35352 6.64654L5.36358 6.65659C5.71505 7.00806 6.2849 7.00806 6.63637 6.65659L6.65647 6.63649C7.00794 6.28502 7.00794 5.71517 6.65647 5.3637L6.64642 5.35365C6.55265 5.25988 6.49997 5.1327 6.49997 5.00009C6.49997 4.86748 6.55265 4.74031 6.64642 4.64654L8.43931 2.85365ZM14.1464 20.4394L12.9008 19.1938L12.7195 18.2981L13.7986 17.6851C14.3098 17.3948 14.4099 16.7003 14.0016 16.2774L13.1346 15.3795L13.7164 14.2705C13.99 13.7489 13.6972 13.1094 13.1236 12.9758L11.9223 12.696L11.8188 11.452C11.7697 10.8611 11.1726 10.4784 10.6152 10.6805L9.46307 11.0982L8.71646 10.1163C8.35629 9.64256 7.64376 9.64256 7.28359 10.1163L6.53698 11.0982L5.38489 10.6805C5.07712 10.5689 4.75724 10.6356 4.52417 10.8172L3.56063 9.85365C3.36537 9.65838 3.36537 9.3418 3.56063 9.14654L5.04428 7.66289C5.77165 8.0867 6.72021 7.98697 7.34347 7.3637L7.36358 7.3436C7.98684 6.72033 8.08657 5.77177 7.66277 5.04441L9.14642 3.56075C9.34168 3.36549 9.65826 3.36549 9.85353 3.56075L17.3007 11.008L16.9631 11.3612C16.7723 11.5609 16.7795 11.8774 16.9791 12.0682C17.1788 12.2589 17.4953 12.2518 17.686 12.0522L18.008 11.7153L20.4393 14.1465C20.6346 14.3418 20.6346 14.6584 20.4393 14.8536L18.9557 16.3373C18.2283 15.9135 17.2797 16.0132 16.6565 16.6365L16.6364 16.6566C16.0131 17.2799 15.9134 18.2284 16.3372 18.9558L14.8535 20.4394C14.6583 20.6347 14.3417 20.6347 14.1464 20.4394ZM16.3503 12.6432C16.5473 12.8367 16.5502 13.1533 16.3568 13.3503L15.5349 14.1873C15.3415 14.3844 15.0249 14.3873 14.8279 14.1938C14.6308 14.0004 14.6279 13.6838 14.8214 13.4867L15.6432 12.6497C15.8367 12.4527 16.1532 12.4498 16.3503 12.6432ZM7.25 14.25C7.25 14.6642 6.91421 15 6.5 15C6.08579 15 5.75 14.6642 5.75 14.25C5.75 13.8358 6.08579 13.5 6.5 13.5C6.91421 13.5 7.25 13.8358 7.25 14.25ZM9.5 18.5C9.91421 18.5 10.25 18.1642 10.25 17.75C10.25 17.3358 9.91421 17 9.5 17C9.08579 17 8.75 17.3358 8.75 17.75C8.75 18.1642 9.08579 18.5 9.5 18.5ZM8.00003 10.8262L7.28849 11.762C7.0501 12.0756 6.63555 12.1977 6.26527 12.0634L5.16693 11.6652L5.06828 12.8514C5.0359 13.2407 4.75605 13.5647 4.37556 13.6534L3.22926 13.9204L3.78457 14.9789C3.96485 15.3225 3.90458 15.743 3.63505 16.0221L2.80743 16.8793L3.83751 17.4644C4.17577 17.6566 4.35228 18.0443 4.27507 18.4256L4.03794 19.5967L5.20677 19.527C5.59855 19.5036 5.9603 19.7368 6.10075 20.1033L6.52418 21.2081L7.46612 20.514C7.78361 20.28 8.21644 20.28 8.53393 20.514L9.47587 21.2081L9.8993 20.1033C10.0398 19.7368 10.4015 19.5036 10.7933 19.527L11.9621 19.5967L11.725 18.4256C11.6478 18.0443 11.8243 17.6566 12.1625 17.4644L13.1926 16.8793L12.365 16.0221C12.0955 15.743 12.0352 15.3225 12.2155 14.9789L12.7708 13.9204L11.6245 13.6534C11.244 13.5647 10.9641 13.2407 10.9318 12.8514L10.8331 11.6652L9.73478 12.0634C9.3645 12.1977 8.94995 12.0756 8.71156 11.762L8.00003 10.8262ZM9.85355 14.8536C10.0488 14.6583 10.0488 14.3417 9.85355 14.1464C9.65829 13.9512 9.34171 13.9512 9.14645 14.1464L6.14645 17.1464C5.95118 17.3417 5.95118 17.6583 6.14645 17.8536C6.34171 18.0488 6.65829 18.0488 6.85355 17.8536L9.85355 14.8536Z" fill="#2B2B2C"/>
</svg>
