<svg width="24" height="24" viewBox="0 0 24 24" fill="none" xmlns="http://www.w3.org/2000/svg">
<path fill-rule="evenodd" clip-rule="evenodd" d="M10.5606 2.8534C9.97485 2.26762 9.0251 2.26762 8.43931 2.8534L6.64642 4.6463C6.55265 4.74006 6.49997 4.86724 6.49997 4.99985C6.49997 5.13246 6.55265 5.25963 6.64642 5.3534L6.65647 5.36345C7.00794 5.71492 7.00794 6.28477 6.65647 6.63625L6.63637 6.65635C6.2849 7.00782 5.71505 7.00782 5.36358 6.65635L5.35352 6.6463C5.15826 6.45103 4.84168 6.45103 4.64642 6.6463L2.85352 8.43919C2.26774 9.02498 2.26774 9.97472 2.85352 10.5605L5.17731 12.8843C5.73448 12.6372 6.35119 12.4999 6.99997 12.4999C9.01995 12.4999 10.7291 13.8308 11.2982 15.6636C10.729 13.8309 9.01993 12.5 7 12.5C4.51472 12.5 2.5 14.5147 2.5 17C2.5 19.4853 4.51472 21.5 7 21.5C8.83653 21.5 10.4161 20.3998 11.1156 18.8226L13.4393 21.1463C14.0251 21.7321 14.9748 21.7321 15.5606 21.1463L17.3535 19.3534C17.4473 19.2596 17.5 19.1325 17.5 18.9998C17.5 18.8672 17.4473 18.74 17.3535 18.6463L17.3435 18.6362L17.3435 18.6362C16.992 18.2848 16.992 17.7149 17.3435 17.3635L17.3636 17.3434C17.715 16.9919 18.2849 16.9919 18.6364 17.3433L18.6364 17.3434L18.6464 17.3534C18.7402 17.4472 18.8673 17.4998 19 17.4998C19.1326 17.4999 19.2598 17.4472 19.3535 17.3534L21.1464 15.5605C21.7322 14.9747 21.7322 14.025 21.1464 13.4392L10.5606 2.8534ZM11.5 17C11.5 16.932 11.4985 16.8644 11.4955 16.7972L12.1464 16.1463C12.3417 15.951 12.6583 15.951 12.8535 16.1463C13.0488 16.3416 13.0488 16.6581 12.8535 16.8534L11.8535 17.8534C11.7281 17.9789 11.5525 18.0237 11.3912 17.9879C11.4624 17.67 11.5 17.3394 11.5 17ZM15.3535 14.3534C15.5488 14.1581 15.5488 13.8416 15.3535 13.6463C15.1583 13.451 14.8417 13.451 14.6464 13.6463L13.6464 14.6463C13.4512 14.8416 13.4512 15.1581 13.6464 15.3534C13.8417 15.5487 14.1583 15.5487 14.3535 15.3534L15.3535 14.3534ZM17.8535 11.1463C18.0488 11.3416 18.0488 11.6581 17.8535 11.8534L16.8535 12.8534C16.6583 13.0487 16.3417 13.0487 16.1464 12.8534C15.9512 12.6581 15.9512 12.3416 16.1464 12.1463L17.1464 11.1463C17.3417 10.951 17.6583 10.951 17.8535 11.1463ZM7 13.5C5.067 13.5 3.5 15.067 3.5 17C3.5 18.933 5.067 20.5 7 20.5C8.933 20.5 10.5 18.933 10.5 17C10.5 15.067 8.933 13.5 7 13.5ZM7.5 14.5C7.5 14.2239 7.27614 14 7 14C6.72386 14 6.5 14.2239 6.5 14.5V17C6.5 17.1326 6.55268 17.2598 6.64645 17.3536L7.64645 18.3536C7.84171 18.5488 8.15829 18.5488 8.35355 18.3536C8.54882 18.1583 8.54882 17.8417 8.35355 17.6464L7.5 16.7929V14.5Z" fill="#2B2B2C"/>
</svg>
