<svg width="30" height="30" viewBox="0 0 30 30" fill="none" xmlns="http://www.w3.org/2000/svg">
<path fill-rule="evenodd" clip-rule="evenodd" d="M13.4158 2.70859C12.6339 1.92674 11.366 1.92766 10.5853 2.71065L7.95172 5.35186C7.75897 5.54518 7.7569 5.85737 7.94707 6.05322L8.19131 6.30475C8.68894 6.81723 8.67837 7.63567 8.16766 8.13513C7.66649 8.62526 6.86652 8.62835 6.36158 8.14211L6.11497 7.90464C5.91933 7.71624 5.60906 7.71848 5.41616 7.90969L2.71802 10.5842C1.9311 11.3642 1.9283 12.6354 2.71178 13.4188L4.73887 15.4459C3.07346 16.7256 2 18.7374 2 21C2 24.866 5.13401 28 9 28C11.2626 28 13.2744 26.9265 14.5541 25.2611L16.5792 27.2863C17.3637 28.0707 18.6367 28.0668 19.4163 27.2775L22.0688 24.5921C22.2563 24.4023 22.2617 24.0987 22.0811 23.9023L21.8687 23.6713C21.3867 23.1472 21.4048 22.336 21.9097 21.834C22.3981 21.3483 23.1771 21.3176 23.7023 21.7633L24.0417 22.0514C24.2409 22.2204 24.5367 22.2076 24.7205 22.022L27.3049 19.4124C28.0795 18.6303 28.0764 17.3692 27.298 16.5909L13.4158 2.70859ZM9 14C7.76262 14 6.60023 14.3211 5.59158 14.8844L3.41888 12.7117C3.02715 12.32 3.02854 11.6844 3.422 11.2944L5.77647 8.96057C6.67357 9.72188 8.01429 9.68384 8.86685 8.85007C9.73745 7.99864 9.78748 6.62388 9.00421 5.71259L11.2934 3.41672C11.6838 3.02523 12.3177 3.02477 12.7086 3.4157L22.7929 13.5L21.6464 14.6464C21.4512 14.8417 21.4512 15.1583 21.6464 15.3536C21.8417 15.5488 22.1583 15.5488 22.3535 15.3536L23.5 14.2071L26.5909 17.298C26.9801 17.6872 26.9816 18.3177 26.5944 18.7087L24.3358 20.9894C23.4147 20.2195 22.0572 20.277 21.2046 21.1249C20.3577 21.967 20.2915 23.305 21.0264 24.2244L18.7049 26.5748C18.3151 26.9694 17.6786 26.9714 17.2863 26.5792L15.1156 24.4084C15.6789 23.3998 16 22.2374 16 21C16 17.134 12.866 14 9 14ZM18.0108 19.7077C18.2077 19.5141 18.2104 19.1975 18.0169 19.0006C17.8233 18.8037 17.5067 18.8009 17.3098 18.9945L16.6495 19.6434C16.4526 19.837 16.4498 20.1535 16.6434 20.3505C16.837 20.5474 17.1535 20.5502 17.3505 20.3566L18.0108 19.7077ZM20.8552 16.1481C21.0495 16.3442 21.0481 16.6608 20.8519 16.8552L19.6704 18.026C19.4743 18.2204 19.1577 18.219 18.9633 18.0228C18.7689 17.8267 18.7704 17.5101 18.9665 17.3157L20.1481 16.1448C20.3442 15.9505 20.6608 15.9519 20.8552 16.1481ZM9 15C5.68629 15 3 17.6863 3 21C3 24.3137 5.68629 27 9 27C12.3137 27 15 24.3137 15 21C15 17.6863 12.3137 15 9 15ZM9.5 18C9.5 17.7239 9.27614 17.5 9 17.5C8.72386 17.5 8.5 17.7239 8.5 18V20.5H6C5.72386 20.5 5.5 20.7239 5.5 21C5.5 21.2761 5.72386 21.5 6 21.5H8.5V24C8.5 24.2761 8.72386 24.5 9 24.5C9.27614 24.5 9.5 24.2761 9.5 24V21.5H12C12.2761 21.5 12.5 21.2761 12.5 21C12.5 20.7239 12.2761 20.5 12 20.5H9.5V18Z" fill="#2B2B2C"/>
</svg>
