<svg width="24" height="24" viewBox="0 0 24 24" fill="none" xmlns="http://www.w3.org/2000/svg">
<path fill-rule="evenodd" clip-rule="evenodd" d="M8.43931 2.85365C9.0251 2.26786 9.97485 2.26786 10.5606 2.85365L18.3472 10.6402C18.3516 10.6444 18.3559 10.6487 18.3601 10.6531L21.1464 13.4394C21.7322 14.0252 21.7322 14.975 21.1464 15.5608L19.3535 17.3536C19.1583 17.5489 18.8417 17.5489 18.6464 17.3536L18.6364 17.3436C18.2849 16.9921 17.715 16.9921 17.3636 17.3436L17.3435 17.3637C16.992 17.7152 16.992 18.285 17.3435 18.6365L17.3535 18.6465C17.4473 18.7403 17.5 18.8675 17.5 19.0001C17.5 19.1327 17.4473 19.2599 17.3535 19.3536L15.5606 21.1465C14.9748 21.7323 14.0251 21.7323 13.4393 21.1465L12.0327 19.74C11.0283 20.8225 9.59326 21.5 8 21.5C4.96243 21.5 2.5 19.0376 2.5 16C2.5 14.4067 3.17746 12.9717 4.26004 11.9673L2.85352 10.5608C2.26774 9.97497 2.26774 9.02522 2.85352 8.43943L4.64642 6.64654C4.84168 6.45128 5.15826 6.45128 5.35353 6.64654L5.36358 6.65659C5.71505 7.00806 6.2849 7.00806 6.63637 6.65659L6.65647 6.63649C7.00794 6.28502 7.00794 5.71517 6.65647 5.3637L6.64642 5.35365C6.55265 5.25988 6.49997 5.1327 6.49997 5.00009C6.49997 4.86749 6.55265 4.74031 6.64642 4.64654L8.43931 2.85365ZM5.28477 12.4112C5.29489 12.4041 5.30482 12.3967 5.31451 12.3888C6.06411 11.8305 6.99346 11.5 8 11.5C10.4853 11.5 12.5 13.5147 12.5 16C12.5 17.0074 12.169 17.9375 11.6098 18.6874C11.6029 18.6959 11.5964 18.7045 11.5902 18.7134C10.7687 19.7988 9.46622 20.5 8 20.5C5.51472 20.5 3.5 18.4853 3.5 16C3.5 14.5346 4.20043 13.2328 5.28477 12.4112ZM12.6483 18.9413L14.1464 20.4394C14.3417 20.6347 14.6583 20.6347 14.8535 20.4394L16.3372 18.9558C15.9134 18.2284 16.0131 17.2799 16.6364 16.6566L16.6565 16.6365C17.2797 16.0132 18.2283 15.9135 18.9557 16.3373L20.4393 14.8536C20.6346 14.6584 20.6346 14.3418 20.4393 14.1465L18.008 11.7153L17.6861 12.0522C17.4953 12.2518 17.1788 12.2589 16.9791 12.0682C16.7795 11.8774 16.7723 11.5609 16.9631 11.3612L17.3007 11.008L9.85353 3.56075C9.65826 3.36549 9.34168 3.36549 9.14642 3.56075L7.66277 5.04441C8.08657 5.77177 7.98684 6.72033 7.36358 7.3436L7.34347 7.3637C6.72021 7.98697 5.77165 8.08669 5.04428 7.66289L3.56063 9.14654C3.36537 9.3418 3.36537 9.65838 3.56063 9.85365L5.0587 11.3517C5.90935 10.8123 6.9182 10.5 8 10.5C10.6683 10.5 12.8927 12.4001 13.3942 14.921L13.4312 14.885C13.6294 14.6927 13.946 14.6975 14.1382 14.8957C14.3305 15.0939 14.3257 15.4105 14.1275 15.6028L13.4959 16.2156C13.4573 17.2158 13.1517 18.1474 12.6483 18.9413ZM16.3568 13.3503C16.5502 13.1533 16.5473 12.8367 16.3503 12.6432C16.1532 12.4498 15.8367 12.4527 15.6432 12.6497L14.8214 13.4867C14.6279 13.6838 14.6308 14.0004 14.8279 14.1938C15.0249 14.3873 15.3415 14.3844 15.5349 14.1873L16.3568 13.3503ZM7.5 14C7.5 13.7239 7.72386 13.5 8 13.5H9C9.82843 13.5 10.5 14.1716 10.5 15C10.5 15.8284 9.82843 16.5 9 16.5H7C6.72386 16.5 6.5 16.7239 6.5 17C6.5 17.2761 6.72386 17.5 7 17.5H8C8.27614 17.5 8.5 17.7239 8.5 18C8.5 18.2761 8.27614 18.5 8 18.5H7C6.17157 18.5 5.5 17.8284 5.5 17C5.5 16.1716 6.17157 15.5 7 15.5H9C9.27614 15.5 9.5 15.2761 9.5 15C9.5 14.7239 9.27614 14.5 9 14.5H8C7.72386 14.5 7.5 14.2761 7.5 14ZM6.5 14.5C6.77614 14.5 7 14.2761 7 14C7 13.7239 6.77614 13.5 6.5 13.5C6.22386 13.5 6 13.7239 6 14C6 14.2761 6.22386 14.5 6.5 14.5ZM9.5 18.5C9.77614 18.5 10 18.2761 10 18C10 17.7239 9.77614 17.5 9.5 17.5C9.22386 17.5 9 17.7239 9 18C9 18.2761 9.22386 18.5 9.5 18.5Z" fill="#2B2B2C"/>
</svg>
