<svg width="30" height="30" viewBox="0 0 30 30" fill="none" xmlns="http://www.w3.org/2000/svg">
<path fill-rule="evenodd" clip-rule="evenodd" d="M13.4157 2.70859C12.6339 1.92674 11.366 1.92766 10.5853 2.71065L7.95172 5.35186C7.75896 5.54518 7.7569 5.85737 7.94707 6.05322L8.19131 6.30475C8.68894 6.81723 8.67837 7.63567 8.16766 8.13513C7.66649 8.62526 6.86652 8.62835 6.36158 8.14211L6.11497 7.90464C5.91932 7.71624 5.60906 7.71848 5.41616 7.90969L2.71801 10.5842C1.93109 11.3642 1.9283 12.6354 2.71178 13.4188L4.01195 14.719L3.89218 16.1446L2.16345 16.5432C1.52315 16.6909 1.19684 17.4054 1.50457 17.986L2.3354 19.5535L1.0966 20.8235C0.637766 21.2938 0.749554 22.0713 1.32232 22.3934L2.86873 23.2629L2.51317 25.001C2.38148 25.6448 2.89587 26.2384 3.55183 26.1997L5.32284 26.0951L5.96342 27.7495C6.20068 28.3623 6.95436 28.5836 7.48524 28.1963L8.91857 27.1509L10.3519 28.1963C10.8828 28.5836 11.6365 28.3623 11.8737 27.7495L12.5143 26.0951L14.2853 26.1997C14.6262 26.2198 14.9288 26.0692 15.1224 25.8295L16.5792 27.2863C17.3637 28.0707 18.6367 28.0668 19.4163 27.2775L22.0688 24.5921C22.2563 24.4023 22.2617 24.0987 22.0811 23.9023L21.8687 23.6713C21.3867 23.1472 21.4048 22.336 21.9097 21.834C22.3981 21.3483 23.1771 21.3176 23.7023 21.7633L24.0417 22.0514C24.2409 22.2204 24.5367 22.2076 24.7205 22.022L27.3049 19.4124C28.0795 18.6303 28.0764 17.3692 27.298 16.5909L13.4157 2.70859ZM15.2333 24.5575C15.2765 24.5804 15.3171 24.61 15.3535 24.6464L17.2863 26.5792C17.6786 26.9714 18.3151 26.9694 18.7049 26.5748L21.0264 24.2244C20.2915 23.305 20.3577 21.967 21.2046 21.1249C22.0572 20.277 23.4147 20.2195 24.3358 20.9894L26.5944 18.7087C26.9816 18.3177 26.9801 17.6872 26.5909 17.298L23.5 14.2071L22.3536 15.3536C22.1583 15.5488 21.8417 15.5488 21.6464 15.3536C21.4512 15.1583 21.4512 14.8417 21.6464 14.6464L22.7929 13.5L12.7086 3.4157C12.3177 3.02477 11.6838 3.02523 11.2934 3.41672L9.00421 5.71259C9.78748 6.62388 9.73745 7.99864 8.86685 8.85007C8.01429 9.68384 6.67357 9.72188 5.77647 8.96057L3.422 11.2944C3.02854 11.6844 3.02715 12.32 3.41889 12.7117L4.39826 13.6911C4.65814 13.4759 5.02341 13.3931 5.375 13.5193L7.0448 14.1186L8.12553 12.7116C8.52582 12.1905 9.31132 12.1905 9.71161 12.7116L10.7923 14.1186L12.4621 13.5193C13.0806 13.2973 13.7414 13.722 13.7964 14.3768L13.945 16.1446L15.6737 16.5432C16.314 16.6909 16.6403 17.4054 16.3326 17.986L15.5017 19.5535L16.7405 20.8235C17.1994 21.2938 17.0876 22.0713 16.5148 22.3934L14.9684 23.2629L15.2333 24.5575ZM18.0108 19.7077C18.2077 19.5141 18.2105 19.1975 18.0169 19.0006C17.8233 18.8037 17.5068 18.8009 17.3098 18.9945L16.6495 19.6434C16.4526 19.837 16.4498 20.1535 16.6434 20.3505C16.837 20.5474 17.1535 20.5502 17.3505 20.3566L18.0108 19.7077ZM20.8552 16.1481C21.0495 16.3442 21.0481 16.6608 20.852 16.8552L19.6704 18.026C19.4743 18.2204 19.1577 18.219 18.9633 18.0228C18.7689 17.8267 18.7704 17.5101 18.9665 17.3157L20.1481 16.1448C20.3442 15.9505 20.6608 15.9519 20.8552 16.1481ZM11.1465 17.6465C11.3417 17.4512 11.6583 17.4512 11.8536 17.6465C12.0488 17.8417 12.0488 18.1583 11.8536 18.3536L6.85356 23.3536C6.6583 23.5488 6.34171 23.5488 6.14645 23.3536C5.95119 23.1583 5.95119 22.8417 6.14645 22.6465L11.1465 17.6465ZM6.5 18C6.5 17.7239 6.72386 17.5 7 17.5C7.27615 17.5 7.5 17.7239 7.5 18C7.5 18.2762 7.27615 18.5 7 18.5C6.72386 18.5 6.5 18.2762 6.5 18ZM7 16.5C6.17158 16.5 5.5 17.1716 5.5 18C5.5 18.8284 6.17158 19.5 7 19.5C7.82843 19.5 8.5 18.8284 8.5 18C8.5 17.1716 7.82843 16.5 7 16.5ZM10.5 23C10.5 22.7239 10.7239 22.5 11 22.5C11.2761 22.5 11.5 22.7239 11.5 23C11.5 23.2762 11.2761 23.5 11 23.5C10.7239 23.5 10.5 23.2762 10.5 23ZM11 21.5C10.1716 21.5 9.5 22.1716 9.5 23C9.5 23.8284 10.1716 24.5 11 24.5C11.8284 24.5 12.5 23.8284 12.5 23C12.5 22.1716 11.8284 21.5 11 21.5Z" fill="#2B2B2C"/>
</svg>
