<svg width="30" height="30" viewBox="0 0 30 30" fill="none" xmlns="http://www.w3.org/2000/svg">
<path fill-rule="evenodd" clip-rule="evenodd" d="M10.5853 2.71065C11.366 1.92766 12.6339 1.92674 13.4158 2.70859L23.5025 12.7953L12.8359 23.543L2.71179 13.4188C1.92831 12.6354 1.93111 11.3642 2.71803 10.5842L5.41617 7.90969C5.60907 7.71848 5.91934 7.71624 6.11499 7.90464L6.36159 8.14211C6.86654 8.62835 7.6665 8.62526 8.16767 8.13513C8.67838 7.63567 8.68896 6.81723 8.19132 6.30475L7.94709 6.05322C7.75691 5.85737 7.75898 5.54518 7.95173 5.35186L10.5853 2.71065ZM13.543 24.2501L16.5792 27.2863C17.3637 28.0707 18.6368 28.0668 19.4164 27.2775L22.0688 24.5921C22.2563 24.4023 22.2617 24.0987 22.0811 23.9023L21.8687 23.6713C21.3867 23.1472 21.4048 22.336 21.9097 21.834C22.3981 21.3483 23.1771 21.3175 23.7023 21.7633L24.0417 22.0514C24.2409 22.2204 24.5367 22.2076 24.7205 22.022L27.3049 19.4124C28.0795 18.6303 28.0764 17.3692 27.298 16.5909L24.2096 13.5024L13.543 24.2501Z" fill="#2B2B2C"/>
</svg>
