<svg width="18" height="18" viewBox="0 0 18 18" fill="none" xmlns="http://www.w3.org/2000/svg">
<path fill-rule="evenodd" clip-rule="evenodd" d="M9 4C9.27614 4 9.5 3.77614 9.5 3.5C9.5 3.22386 9.27614 3 9 3C8.72386 3 8.5 3.22386 8.5 3.5C8.5 3.77614 8.72386 4 9 4ZM9 5C9.65311 5 10.2087 4.5826 10.4146 4.00001H12.875C14.0486 4.00001 15 4.9514 15 6.12501V11.875C15 13.0486 14.0486 14 12.875 14H12.5C12.2239 14 12 14.2239 12 14.5C12 14.7761 12.2239 15 12.5 15H12.875C14.6009 15 16 13.6009 16 11.875V6.12501C16 4.39912 14.6009 3.00001 12.875 3.00001H10.4146C10.2087 2.41741 9.65311 2 9 2C8.17157 2 7.5 2.67157 7.5 3.5C7.5 4.32843 8.17157 5 9 5ZM5.125 4.00001C3.9514 4.00001 3 4.9514 3 6.12501V11.875C3 13.0486 3.9514 14 5.125 14H7.58535C7.79127 13.4174 8.34689 13 9 13C9.82843 13 10.5 13.6716 10.5 14.5C10.5 15.3284 9.82843 16 9 16C8.34689 16 7.79128 15.5826 7.58536 15H5.125C3.39911 15 2 13.6009 2 11.875V6.12501C2 4.39912 3.39911 3.00001 5.125 3.00001H5.5C5.77614 3.00001 6 3.22387 6 3.50001C6 3.77615 5.77614 4.00001 5.5 4.00001H5.125ZM9.5 14.5C9.5 14.7761 9.27614 15 9 15C8.72386 15 8.5 14.7761 8.5 14.5C8.5 14.2239 8.72386 14 9 14C9.27614 14 9.5 14.2239 9.5 14.5Z" fill="#2B2B2C"/>
</svg>
