<svg width="24" height="24" viewBox="0 0 24 24" fill="none" xmlns="http://www.w3.org/2000/svg">
<path fill-rule="evenodd" clip-rule="evenodd" d="M12 7C12.7908 7 13.4744 6.54106 13.7989 5.875H17C18.4497 5.875 19.625 7.05025 19.625 8.5V15.5C19.625 16.9497 18.4497 18.125 17 18.125H16.5C16.0168 18.125 15.625 18.5168 15.625 19C15.625 19.4832 16.0168 19.875 16.5 19.875H17C19.4162 19.875 21.375 17.9162 21.375 15.5V8.5C21.375 6.08375 19.4162 4.125 17 4.125H13.7989C13.4744 3.45894 12.7908 3 12 3C10.8954 3 10 3.89543 10 5C10 6.10457 10.8954 7 12 7ZM7 5.875C5.55025 5.875 4.375 7.05025 4.375 8.5V15.5C4.375 16.9497 5.55025 18.125 7 18.125H10.2011C10.5256 17.4589 11.2092 17 12 17C13.1046 17 14 17.8954 14 19C14 20.1046 13.1046 21 12 21C11.2092 21 10.5256 20.5411 10.2011 19.875H7C4.58375 19.875 2.625 17.9162 2.625 15.5V8.5C2.625 6.08375 4.58375 4.125 7 4.125H7.5C7.98325 4.125 8.375 4.51675 8.375 5C8.375 5.48325 7.98325 5.875 7.5 5.875H7Z" fill="#2B2B2C"/>
</svg>
