<svg width="30" height="30" viewBox="0 0 30 30" fill="none" xmlns="http://www.w3.org/2000/svg">
<path fill-rule="evenodd" clip-rule="evenodd" d="M15 7C15.8284 7 16.5 6.32843 16.5 5.5C16.5 4.67157 15.8284 4 15 4C14.1716 4 13.5 4.67157 13.5 5.5C13.5 6.32843 14.1716 7 15 7ZM15 8C16.2095 8 17.2184 7.14112 17.45 6H22.125C24.2651 6 26 7.7349 26 9.875V20.125C26 22.2651 24.2651 24 22.125 24H20.5C20.2239 24 20 24.2239 20 24.5C20 24.7761 20.2239 25 20.5 25H22.125C24.8174 25 27 22.8174 27 20.125V9.875C27 7.18261 24.8174 5 22.125 5H17.45C17.2184 3.85888 16.2095 3 15 3C13.6193 3 12.5 4.11929 12.5 5.5C12.5 6.88071 13.6193 8 15 8ZM7.87503 6C5.73493 6 4.00003 7.7349 4.00003 9.875V20.125C4.00003 22.2651 5.73493 24 7.87503 24H12.55C12.7816 22.8589 13.7905 22 15 22C16.3807 22 17.5 23.1193 17.5 24.5C17.5 25.8807 16.3807 27 15 27C13.7905 27 12.7816 26.1411 12.55 25H7.87503C5.18264 25 3.00003 22.8174 3.00003 20.125V9.875C3.00003 7.18261 5.18264 5 7.87503 5H9.50003C9.77617 5 10 5.22386 10 5.5C10 5.77614 9.77617 6 9.50003 6H7.87503ZM16.5 24.5C16.5 25.3284 15.8284 26 15 26C14.1716 26 13.5 25.3284 13.5 24.5C13.5 23.6716 14.1716 23 15 23C15.8284 23 16.5 23.6716 16.5 24.5Z" fill="#2B2B2C"/>
</svg>
