<svg width="24" height="24" viewBox="0 0 24 24" fill="none" xmlns="http://www.w3.org/2000/svg">
<path fill-rule="evenodd" clip-rule="evenodd" d="M12 6C12.5523 6 13 5.55228 13 5C13 4.44772 12.5523 4 12 4C11.4477 4 11 4.44772 11 5C11 5.55228 11.4477 6 12 6ZM12 7C12.9319 7 13.715 6.36261 13.937 5.5H17C18.6569 5.5 20 6.84315 20 8.5V15.5C20 17.1569 18.6569 18.5 17 18.5H16.5C16.2239 18.5 16 18.7239 16 19C16 19.2761 16.2239 19.5 16.5 19.5H17C19.2091 19.5 21 17.7091 21 15.5V8.5C21 6.29086 19.2091 4.5 17 4.5H13.937C13.715 3.63739 12.9319 3 12 3C10.8954 3 10 3.89543 10 5C10 6.10457 10.8954 7 12 7ZM7 5.5C5.34315 5.5 4 6.84315 4 8.5V15.5C4 17.1569 5.34315 18.5 7 18.5H10.063C10.285 17.6374 11.0681 17 12 17C13.1046 17 14 17.8954 14 19C14 20.1046 13.1046 21 12 21C11.0681 21 10.285 20.3626 10.063 19.5H7C4.79086 19.5 3 17.7091 3 15.5V8.5C3 6.29086 4.79086 4.5 7 4.5H7.5C7.77614 4.5 8 4.72386 8 5C8 5.27614 7.77614 5.5 7.5 5.5H7ZM13 19C13 19.5523 12.5523 20 12 20C11.4477 20 11 19.5523 11 19C11 18.4477 11.4477 18 12 18C12.5523 18 13 18.4477 13 19Z" fill="#2B2B2C"/>
</svg>
