<svg width="30" height="30" viewBox="0 0 30 30" fill="none" xmlns="http://www.w3.org/2000/svg">
<path fill-rule="evenodd" clip-rule="evenodd" d="M15 8C16.0252 8 16.9062 7.38295 17.292 6.5H22.125C23.989 6.5 25.5 8.01104 25.5 9.875V20.125C25.5 21.989 23.989 23.5 22.125 23.5H20.5C19.9477 23.5 19.5 23.9477 19.5 24.5C19.5 25.0523 19.9477 25.5 20.5 25.5H22.125C25.0936 25.5 27.5 23.0935 27.5 20.125V9.875C27.5 6.90647 25.0936 4.5 22.125 4.5H17.292C16.9062 3.61705 16.0252 3 15 3C13.6193 3 12.5 4.11929 12.5 5.5C12.5 6.88071 13.6193 8 15 8ZM7.87503 6.5C6.01107 6.5 4.50003 8.01104 4.50003 9.875V20.125C4.50003 21.989 6.01107 23.5 7.87503 23.5H12.708C13.0938 22.617 13.9748 22 15 22C16.3807 22 17.5 23.1193 17.5 24.5C17.5 25.8807 16.3807 27 15 27C13.9748 27 13.0938 26.383 12.708 25.5H7.87503C4.9065 25.5 2.50003 23.0935 2.50003 20.125V9.875C2.50003 6.90647 4.9065 4.5 7.87503 4.5H9.50003C10.0523 4.5 10.5 4.94772 10.5 5.5C10.5 6.05228 10.0523 6.5 9.50003 6.5H7.87503Z" fill="#2B2B2C"/>
</svg>
