<svg width="18" height="18" viewBox="0 0 18 18" fill="none" xmlns="http://www.w3.org/2000/svg">
<path fill-rule="evenodd" clip-rule="evenodd" d="M9 5C9.55521 5 10.04 4.69835 10.2993 4.25001H12.875C13.9105 4.25001 14.75 5.08947 14.75 6.12501V11.875C14.75 12.9105 13.9105 13.75 12.875 13.75H12.5C12.0858 13.75 11.75 14.0858 11.75 14.5C11.75 14.9142 12.0858 15.25 12.5 15.25H12.875C14.739 15.25 16.25 13.739 16.25 11.875V6.12501C16.25 4.26105 14.739 2.75001 12.875 2.75001H10.2993C10.04 2.30165 9.55521 2 9 2C8.17157 2 7.5 2.67157 7.5 3.5C7.5 4.32843 8.17157 5 9 5ZM5.125 4.25001C4.08947 4.25001 3.25 5.08947 3.25 6.12501V11.875C3.25 12.9105 4.08947 13.75 5.125 13.75H7.70067C7.96002 13.3017 8.44479 13 9 13C9.82843 13 10.5 13.6716 10.5 14.5C10.5 15.3284 9.82843 16 9 16C8.44479 16 7.96004 15.6984 7.70068 15.25H5.125C3.26104 15.25 1.75 13.739 1.75 11.875V6.12501C1.75 4.26105 3.26104 2.75001 5.125 2.75001H5.5C5.91421 2.75001 6.25 3.08579 6.25 3.50001C6.25 3.91422 5.91421 4.25001 5.5 4.25001H5.125Z" fill="#2B2B2C"/>
</svg>
