<svg xmlns="http://www.w3.org/2000/svg" width="24" height="24" fill="none" viewBox="0 0 24 24"><path fill="#2B2B2C" fill-rule="evenodd" d="M12.793 3a1 1 0 0 1 1.414 0l3.647 3.646A.5.5 0 0 1 18 7v5.88l3.752 2.188A.5.5 0 0 1 22 15.5v6a.5.5 0 0 1-.5.5H3a1 1 0 0 1-1-1v-4a1 1 0 0 1 1-1h1v-3.5a.5.5 0 0 1 .5-.5H9V7a.5.5 0 0 1 .146-.354L12.793 3ZM5 16h4v-.5a.5.5 0 0 1 .248-.432l5.748-3.353a1 1 0 0 1 1.008 0l.996.581V7.207l-3.5-3.5-3.5 3.5V13H5v3Zm5 1v4h11v-5.213l-5.5-3.208-5.5 3.208V17Zm-1 0H3v4h6v-4Zm3-10h3v3h-3V7Zm1 1h1v1h-1V8Zm3 8h3v3h-3v-3Zm1 1h1v1h-1v-1Z" clip-rule="evenodd"/></svg>