<svg xmlns="http://www.w3.org/2000/svg" width="31" height="30" fill="none" viewBox="0 0 31 30"><path fill="#2B2B2C" fill-rule="evenodd" d="M3.09 26v-7a1 1 0 0 1 1-1h8v9h-8a1 1 0 0 1-1-1Zm6-6h-3v3h3v-3ZM13.09 27h13a1 1 0 0 0 1-1v-9.2l-7-3.733-7 3.733V27Zm8-8h3v3h-3v-3Zm-2 0h-3v3h3v-3Z" clip-rule="evenodd"/><path fill="#2B2B2C" fill-rule="evenodd" d="M22.09 13V7.678a.5.5 0 0 0-.113-.316l-3.806-4.653a.75.75 0 0 0-1.16 0l-3.807 4.653a.5.5 0 0 0-.114.316V13h-6a1 1 0 0 0-1 1v3h6v-.49a.5.5 0 0 1 .274-.456l7.256-3.87a1 1 0 0 1 .941 0l1.53.816Zm-6-5h3v3h-3V8Z" clip-rule="evenodd"/></svg>