<svg xmlns="http://www.w3.org/2000/svg" width="18" height="18" fill="none" viewBox="0 0 18 18"><path fill="#2B2B2C" fill-rule="evenodd" d="M11 6v3h3V6h-3Zm1 1v1h1V7h-1ZM4 12h3v3H4v-3Zm1 1h1v1H5v-1Z" clip-rule="evenodd"/><path fill="#2B2B2C" fill-rule="evenodd" d="M12.854 1.144a.5.5 0 0 0-.708 0l-4 4A.5.5 0 0 0 8 5.497v3.476l-.76-.415a.5.5 0 0 0-.48 0l-5.5 3a.5.5 0 0 0-.26.44v4.5a.5.5 0 0 0 .5.5h15a.5.5 0 0 0 .5-.5v-11a.5.5 0 0 0-.146-.354l-4-4ZM13 15.997h3V5.704l-3.5-3.5-3.5 3.5v3.814l3.74 2.04a.5.5 0 0 1 .26.44v4Zm-1 0v-3.703L7 9.567l-5 2.727v3.703h10Z" clip-rule="evenodd"/></svg>