<svg xmlns="http://www.w3.org/2000/svg" width="30" height="30" fill="none" viewBox="0 0 30 30"><path fill="#2B2B2C" fill-rule="evenodd" d="M6 23.1h3v-3H6v3Zm2-2H7v1h1v-1ZM21 22.1h3v-3h-3v3Zm2-2h-1v1h1v-1ZM16 22.1h3v-3h-3v3Zm2-2h-1v1h1v-1Z" clip-rule="evenodd"/><path fill="#2B2B2C" fill-rule="evenodd" d="M18.28 3.275a1 1 0 0 0-1.56 0l-3.61 4.512a.498.498 0 0 0-.11.31V13.1H6.5a.5.5 0 0 0-.5.5v3.5H3.5a.5.5 0 0 0-.5.5v9a.5.5 0 0 0 .5.5h23a.5.5 0 0 0 .5-.5v-9.486a.501.501 0 0 0-.27-.458l-6.256-3.369a1 1 0 0 0-.948 0l-6.252 3.367A.505.505 0 0 0 13 17.1H7v-3h7V8.275L17.5 3.9l3.61 4.512a.5.5 0 0 0 .78-.625l-3.61-4.512ZM20 14.168l6 3.23V26.1H14v-8.702l6-3.23ZM4 26.1v-8h9v8H4Z" clip-rule="evenodd"/><path fill="#2B2B2C" fill-rule="evenodd" d="M21.5 7.6a.5.5 0 0 1 .5.5v6a.5.5 0 0 1-1 0v-6a.5.5 0 0 1 .5-.5ZM16 11.1h3v-3h-3v3Zm2-2h-1v1h1v-1Z" clip-rule="evenodd"/></svg>