<svg xmlns="http://www.w3.org/2000/svg" width="25" height="24" fill="none" viewBox="0 0 25 24"><path fill="#2B2B2C" fill-rule="evenodd" d="M12.883 3a1 1 0 0 1 1.415 0l3.646 3.646a.5.5 0 0 1 .147.354v5.88l-2.249-1.312a.5.5 0 0 0-.503 0l-6 3.5a.5.5 0 0 0-.248.432v.5h-5v-3.5a.5.5 0 0 1 .5-.5h4.5V7a.5.5 0 0 1 .146-.354L12.883 3Zm2.208 4h-3v3h3V7Z" clip-rule="evenodd"/><path fill="#2B2B2C" d="M2.59 17a.5.5 0 0 0-.5.5V21a1 1 0 0 0 1 1h6v-5h-6.5Z"/><path fill="#2B2B2C" fill-rule="evenodd" d="M21.09 21.5a.5.5 0 0 1-.5.5h-10.5v-6.213l5.5-3.208 5.5 3.208V21.5Zm-5-5.5h3v3h-3v-3Z" clip-rule="evenodd"/></svg>