<svg width="24" height="24" viewBox="0 0 24 24" fill="none" xmlns="http://www.w3.org/2000/svg">
<path fill-rule="evenodd" clip-rule="evenodd" d="M3 4.51099C3 3.13385 4.11573 2 5.5 2C6.88427 2 8 3.13385 8 4.51099C8 5.2502 7.78141 5.97927 7.37042 6.59576L5.91603 8.77735C5.82329 8.91645 5.66718 9 5.5 9C5.33282 9 5.17671 8.91645 5.08397 8.77735L3.62958 6.59576C3.21859 5.97927 3 5.2502 3 4.51099ZM9 5.5C9 5.22386 9.22386 5 9.5 5H16.25C18.3211 5 20 6.67893 20 8.75C20 10.8211 18.3211 12.5 16.25 12.5H8C6.34315 12.5 5 13.8431 5 15.5C5 16.8807 6.11929 18 7.5 18H8C8.27614 18 8.5 18.2239 8.5 18.5C8.5 18.7761 8.27614 19 8 19H7.5C5.567 19 4 17.433 4 15.5C4 13.2909 5.79086 11.5 8 11.5H16.25C17.7688 11.5 19 10.2688 19 8.75C19 7.23122 17.7688 6 16.25 6H9.5C9.22386 6 9 5.77614 9 5.5ZM9.5 18.5C9.5 18.2239 9.72386 18 10 18H11C11.2761 18 11.5 18.2239 11.5 18.5C11.5 18.7761 11.2761 19 11 19H10C9.72386 19 9.5 18.7761 9.5 18.5ZM12.5 18.5C12.5 18.2239 12.7239 18 13 18H14C14.2761 18 14.5 18.2239 14.5 18.5C14.5 18.7761 14.2761 19 14 19H13C12.7239 19 12.5 18.7761 12.5 18.5ZM18.5 15C17.1157 15 16 16.1338 16 17.511C16 18.2502 16.2186 18.9793 16.6296 19.5958L18.084 21.7773C18.1767 21.9165 18.3328 22 18.5 22C18.6672 22 18.8233 21.9165 18.916 21.7773L20.3704 19.5958C20.7814 18.9793 21 18.2502 21 17.511C21 16.1338 19.8843 15 18.5 15ZM5.5 5C5.91421 5 6.25 4.66421 6.25 4.25C6.25 3.83579 5.91421 3.5 5.5 3.5C5.08579 3.5 4.75 3.83579 4.75 4.25C4.75 4.66421 5.08579 5 5.5 5ZM19.25 17.25C19.25 17.6642 18.9142 18 18.5 18C18.0858 18 17.75 17.6642 17.75 17.25C17.75 16.8358 18.0858 16.5 18.5 16.5C18.9142 16.5 19.25 16.8358 19.25 17.25Z" fill="#2B2B2C"/>
</svg>
