<svg width="30" height="30" viewBox="0 0 30 30" fill="none" xmlns="http://www.w3.org/2000/svg">
<path fill-rule="evenodd" clip-rule="evenodd" d="M6.5 3C5.12285 3 4 4.1322 4 5.51648C4 6.38067 4.25602 7.23264 4.73444 7.95027L6.5 10.5986L8.26556 7.95027C8.74398 7.23264 9 6.38067 9 5.51648C9 4.1322 7.87715 3 6.5 3ZM3 5.51648C3 3.58706 4.56345 2 6.5 2C8.43655 2 10 3.58706 10 5.51648C10 6.57638 9.68649 7.62165 9.09761 8.50497L6.91603 11.7774C6.82329 11.9164 6.66718 12 6.5 12C6.33282 12 6.17671 11.9164 6.08397 11.7774L3.90239 8.50497C3.31351 7.62165 3 6.57638 3 5.51648ZM12 6.5C12 6.22386 12.2239 6 12.5 6H20.25C22.8734 6 25 8.12665 25 10.75C25 13.3734 22.8734 15.5 20.25 15.5H9.875C7.7349 15.5 6 17.2349 6 19.375V19.75C6 21.5449 7.45507 23 9.25 23H9.5C9.77614 23 10 23.2239 10 23.5C10 23.7761 9.77614 24 9.5 24H9.25C6.90279 24 5 22.0972 5 19.75V19.375C5 16.6826 7.18261 14.5 9.875 14.5H20.25C22.3211 14.5 24 12.8211 24 10.75C24 8.67893 22.3211 7 20.25 7H12.5C12.2239 7 12 6.77614 12 6.5ZM11 23.5C11 23.2239 11.2239 23 11.5 23H12.5C12.7761 23 13 23.2239 13 23.5C13 23.7761 12.7761 24 12.5 24H11.5C11.2239 24 11 23.7761 11 23.5ZM14 23.5C14 23.2239 14.2239 23 14.5 23H15.5C15.7761 23 16 23.2239 16 23.5C16 23.7761 15.7761 24 15.5 24H14.5C14.2239 24 14 23.7761 14 23.5ZM17 23.5C17 23.2239 17.2239 23 17.5 23H18.5C18.7761 23 19 23.2239 19 23.5C19 23.7761 18.7761 24 18.5 24H17.5C17.2239 24 17 23.7761 17 23.5ZM21 21.5165C21 20.1322 22.1228 19 23.5 19C24.8772 19 26 20.1322 26 21.5165C26 22.3807 25.744 23.2326 25.2656 23.9503L23.5 26.5986L21.7344 23.9503C21.256 23.2326 21 22.3807 21 21.5165ZM23.5 18C21.5634 18 20 19.5871 20 21.5165C20 22.5764 20.3135 23.6217 20.9024 24.505L23.084 27.7774C23.1767 27.9165 23.3328 28 23.5 28C23.6672 28 23.8233 27.9165 23.916 27.7774L26.0976 24.505C26.6865 23.6217 27 22.5764 27 21.5165C27 19.5871 25.4366 18 23.5 18ZM6.5 5C6.22386 5 6 5.22386 6 5.5C6 5.77614 6.22386 6 6.5 6C6.77614 6 7 5.77614 7 5.5C7 5.22386 6.77614 5 6.5 5ZM5 5.5C5 4.67157 5.67157 4 6.5 4C7.32843 4 8 4.67157 8 5.5C8 6.32843 7.32843 7 6.5 7C5.67157 7 5 6.32843 5 5.5ZM23 21.5C23 21.2239 23.2239 21 23.5 21C23.7761 21 24 21.2239 24 21.5C24 21.7761 23.7761 22 23.5 22C23.2239 22 23 21.7761 23 21.5ZM23.5 20C22.6716 20 22 20.6716 22 21.5C22 22.3284 22.6716 23 23.5 23C24.3284 23 25 22.3284 25 21.5C25 20.6716 24.3284 20 23.5 20Z" fill="#2B2B2C"/>
</svg>
