<svg width="18" height="18" viewBox="0 0 18 18" fill="none" xmlns="http://www.w3.org/2000/svg">
<path fill-rule="evenodd" clip-rule="evenodd" d="M7 3.5C7 3.22386 7.22386 3 7.5 3H11.875C13.6009 3 15 4.39911 15 6.125V6.375C15 8.10089 13.6009 9.5 11.875 9.5H6.13C4.95363 9.5 4 10.4536 4 11.63V11.87C4 13.0464 4.95363 14 6.13 14H7C7.27614 14 7.5 14.2239 7.5 14.5C7.5 14.7761 7.27614 15 7 15H6.13C4.40135 15 3 13.5987 3 11.87V11.63C3 9.90135 4.40135 8.5 6.13 8.5H11.875C13.0486 8.5 14 7.5486 14 6.375V6.125C14 4.95139 13.0486 4 11.875 4H7.5C7.22386 4 7 3.77614 7 3.5ZM8.5 14.5C8.5 14.2239 8.72386 14 9 14H10C10.2761 14 10.5 14.2239 10.5 14.5C10.5 14.7761 10.2761 15 10 15H9C8.72386 15 8.5 14.7761 8.5 14.5Z" fill="#2B2B2C"/>
<path fill-rule="evenodd" clip-rule="evenodd" d="M4 2.00001C3.44772 2.00001 3 2.44772 3 3.00001V3.15532C3 3.59543 3.14275 4.02367 3.40681 4.37576L4 5.16668L4.59319 4.37576C4.85725 4.02367 5 3.59543 5 3.15532V3.00001C5 2.44772 4.55228 2.00001 4 2.00001ZM2 3.00001C2 1.89544 2.89543 1.00001 4 1.00001C5.10457 1.00001 6 1.89544 6 3.00001V3.15532C6 3.8118 5.78708 4.45057 5.39319 4.97576L4.4 6.30001C4.30557 6.42591 4.15738 6.50001 4 6.50001C3.84262 6.50001 3.69443 6.42591 3.6 6.30001L2.60681 4.97576C2.21292 4.45057 2 3.8118 2 3.15532V3.00001Z" fill="#2B2B2C"/>
<path fill-rule="evenodd" clip-rule="evenodd" d="M14 12.5C13.4477 12.5 13 12.9477 13 13.5V13.6265C13 14.0853 13.1488 14.5317 13.4241 14.8988L14 15.6667L14.5759 14.8988C14.8512 14.5317 15 14.0853 15 13.6265V13.5C15 12.9477 14.5523 12.5 14 12.5ZM12 13.5C12 12.3954 12.8954 11.5 14 11.5C15.1046 11.5 16 12.3954 16 13.5V13.6265C16 14.3017 15.781 14.9587 15.3759 15.4988L14.4 16.8C14.3056 16.9259 14.1574 17 14 17C13.8426 17 13.6944 16.9259 13.6 16.8L12.6241 15.4988C12.219 14.9587 12 14.3017 12 13.6265V13.5Z" fill="#2B2B2C"/>
<path d="M4.5 3C4.5 3.27614 4.27614 3.5 4 3.5C3.72386 3.5 3.5 3.27614 3.5 3C3.5 2.72386 3.72386 2.5 4 2.5C4.27614 2.5 4.5 2.72386 4.5 3Z" fill="#2B2B2C"/>
<path d="M14.5 13.5C14.5 13.7761 14.2761 14 14 14C13.7239 14 13.5 13.7761 13.5 13.5C13.5 13.2239 13.7239 13 14 13C14.2761 13 14.5 13.2239 14.5 13.5Z" fill="#2B2B2C"/>
</svg>
