<svg width="30" height="30" viewBox="0 0 30 30" fill="none" xmlns="http://www.w3.org/2000/svg">
<path fill-rule="evenodd" clip-rule="evenodd" d="M3 5.51648C3 3.58706 4.56345 2 6.5 2C8.43655 2 10 3.58706 10 5.51648C10 6.57638 9.68649 7.62165 9.09761 8.50497L6.91603 11.7774C6.82329 11.9164 6.66718 12 6.5 12C6.33282 12 6.17671 11.9164 6.08397 11.7774L3.90239 8.50497C3.31351 7.62165 3 6.57638 3 5.51648ZM12 6.5C12 6.22386 12.2239 6 12.5 6H20.25C22.8734 6 25 8.12665 25 10.75C25 13.3734 22.8734 15.5 20.25 15.5H9.875C7.7349 15.5 6 17.2349 6 19.375V19.75C6 21.5449 7.45507 23 9.25 23H9.5C9.77614 23 10 23.2239 10 23.5C10 23.7761 9.77614 24 9.5 24H9.25C6.90279 24 5 22.0972 5 19.75V19.375C5 16.6826 7.18261 14.5 9.875 14.5H20.25C22.3211 14.5 24 12.8211 24 10.75C24 8.67893 22.3211 7 20.25 7H12.5C12.2239 7 12 6.77614 12 6.5ZM11 23.5C11 23.2239 11.2239 23 11.5 23H12.5C12.7761 23 13 23.2239 13 23.5C13 23.7761 12.7761 24 12.5 24H11.5C11.2239 24 11 23.7761 11 23.5ZM14 23.5C14 23.2239 14.2239 23 14.5 23H15.5C15.7761 23 16 23.2239 16 23.5C16 23.7761 15.7761 24 15.5 24H14.5C14.2239 24 14 23.7761 14 23.5ZM17 23.5C17 23.2239 17.2239 23 17.5 23H18.5C18.7761 23 19 23.2239 19 23.5C19 23.7761 18.7761 24 18.5 24H17.5C17.2239 24 17 23.7761 17 23.5ZM23.5 18C21.5634 18 20 19.5871 20 21.5165C20 22.5764 20.3135 23.6217 20.9024 24.505L23.084 27.7774C23.1767 27.9165 23.3328 28 23.5 28C23.6672 28 23.8233 27.9165 23.916 27.7774L26.0976 24.505C26.6865 23.6217 27 22.5764 27 21.5165C27 19.5871 25.4366 18 23.5 18ZM6.5 6.5C7.05228 6.5 7.5 6.05228 7.5 5.5C7.5 4.94772 7.05228 4.5 6.5 4.5C5.94772 4.5 5.5 4.94772 5.5 5.5C5.5 6.05228 5.94772 6.5 6.5 6.5ZM24.5 21.5C24.5 22.0523 24.0523 22.5 23.5 22.5C22.9477 22.5 22.5 22.0523 22.5 21.5C22.5 20.9477 22.9477 20.5 23.5 20.5C24.0523 20.5 24.5 20.9477 24.5 21.5Z" fill="#2B2B2C"/>
</svg>
