<svg width="24" height="24" viewBox="0 0 24 24" fill="none" xmlns="http://www.w3.org/2000/svg">
<path fill-rule="evenodd" clip-rule="evenodd" d="M5.5 3C4.67513 3 4 3.67899 4 4.51099C4 5.0545 4.1611 5.59026 4.46163 6.04106L5.5 7.59861L6.53837 6.04106C6.8389 5.59026 7 5.0545 7 4.51099C7 3.67899 6.32487 3 5.5 3ZM3 4.51099C3 3.13385 4.11573 2 5.5 2C6.88427 2 8 3.13385 8 4.51099C8 5.2502 7.78141 5.97927 7.37042 6.59576L5.91603 8.77735C5.82329 8.91645 5.66718 9 5.5 9C5.33282 9 5.17671 8.91645 5.08397 8.77735L3.62958 6.59576C3.21859 5.97927 3 5.2502 3 4.51099ZM9 5.5C9 5.22386 9.22386 5 9.5 5H16.25C18.3211 5 20 6.67893 20 8.75C20 10.8211 18.3211 12.5 16.25 12.5H8C6.34315 12.5 5 13.8431 5 15.5C5 16.8807 6.11929 18 7.5 18H8C8.27614 18 8.5 18.2239 8.5 18.5C8.5 18.7761 8.27614 19 8 19H7.5C5.567 19 4 17.433 4 15.5C4 13.2909 5.79086 11.5 8 11.5H16.25C17.7688 11.5 19 10.2688 19 8.75C19 7.23122 17.7688 6 16.25 6H9.5C9.22386 6 9 5.77614 9 5.5ZM9.5 18.5C9.5 18.2239 9.72386 18 10 18H11C11.2761 18 11.5 18.2239 11.5 18.5C11.5 18.7761 11.2761 19 11 19H10C9.72386 19 9.5 18.7761 9.5 18.5ZM12.5 18.5C12.5 18.2239 12.7239 18 13 18H14C14.2761 18 14.5 18.2239 14.5 18.5C14.5 18.7761 14.2761 19 14 19H13C12.7239 19 12.5 18.7761 12.5 18.5ZM17 17.511C17 16.679 17.6751 16 18.5 16C19.3249 16 20 16.679 20 17.511C20 18.0545 19.8389 18.5903 19.5384 19.0411L18.5 20.5986L17.4616 19.0411C17.1611 18.5903 17 18.0545 17 17.511ZM18.5 15C17.1157 15 16 16.1338 16 17.511C16 18.2502 16.2186 18.9793 16.6296 19.5958L18.084 21.7773C18.1767 21.9165 18.3328 22 18.5 22C18.6672 22 18.8233 21.9165 18.916 21.7773L20.3704 19.5958C20.7814 18.9793 21 18.2502 21 17.511C21 16.1338 19.8843 15 18.5 15ZM6 4.5C6 4.77614 5.77614 5 5.5 5C5.22386 5 5 4.77614 5 4.5C5 4.22386 5.22386 4 5.5 4C5.77614 4 6 4.22386 6 4.5ZM18.5 18C18.7761 18 19 17.7761 19 17.5C19 17.2239 18.7761 17 18.5 17C18.2239 17 18 17.2239 18 17.5C18 17.7761 18.2239 18 18.5 18Z" fill="#2B2B2C"/>
</svg>
