<svg width="30" height="30" viewBox="0 0 30 30" fill="none" xmlns="http://www.w3.org/2000/svg">
<path d="M21 16H20V19H21V16Z" fill="#2B2B2C"/>
<path d="M24 16H23V19H24V16Z" fill="#2B2B2C"/>
<path d="M21 21H20V24H21V21Z" fill="#2B2B2C"/>
<path d="M24 21H23V24H24V21Z" fill="#2B2B2C"/>
<path d="M6 23H7V25H6V23Z" fill="#2B2B2C"/>
<path d="M9 23H10V25H9V23Z" fill="#2B2B2C"/>
<path fill-rule="evenodd" clip-rule="evenodd" d="M8 2C7.44772 2 7 2.44772 7 3L7 20H4C3.44772 20 3 20.4477 3 21V27C3 27.5523 3.44772 28 4 28H26C26.5523 28 27 27.5523 27 27V14C27 13.4477 26.5523 13 26 13H20V3C20 2.44771 19.5523 2 19 2H8ZM10 20H8L8 3H19V13H14V4H13V20H11V4H10V20ZM14 14H26V27H16V21C16 20.4477 15.5523 20 15 20H14V14ZM15 21V27H4V21H15Z" fill="#2B2B2C"/>
</svg>
