<svg width="30" height="30" viewBox="0 0 30 30" fill="none" xmlns="http://www.w3.org/2000/svg">
<path d="M7 2.5V19H10V4H11V19H13V4H14V12H20V2.5C20 2.22386 19.7761 2 19.5 2H7.5C7.22386 2 7 2.22386 7 2.5Z" fill="#2B2B2C"/>
<path fill-rule="evenodd" clip-rule="evenodd" d="M14 13H26.5C26.7761 13 27 13.2239 27 13.5V27.5C27 27.7761 26.7761 28 26.5 28H17V19.5C17 19.2239 16.7761 19 16.5 19H14V13ZM21 16H20V19H21V16ZM21 21V24H20V21H21ZM24 16H23V19H24V16ZM24 21V24H23V21H24Z" fill="#2B2B2C"/>
<path fill-rule="evenodd" clip-rule="evenodd" d="M16 20H3.5C3.22386 20 3 20.2239 3 20.5V27.5C3 27.7761 3.22386 28 3.5 28H16V20ZM10 23V25H9V23H10ZM7 23H6V25H7V23Z" fill="#2B2B2C"/>
</svg>
