<svg width="24" height="24" viewBox="0 0 24 24" fill="none" xmlns="http://www.w3.org/2000/svg">
<path fill-rule="evenodd" clip-rule="evenodd" d="M17.5 11C19.9853 11 22 8.98528 22 6.5C22 4.01472 19.9853 2 17.5 2C15.0147 2 13 4.01472 13 6.5C13 8.98528 15.0147 11 17.5 11ZM21 6.5C21 8.433 19.433 10 17.5 10C15.567 10 14 8.433 14 6.5C14 4.567 15.567 3 17.5 3C19.433 3 21 4.567 21 6.5ZM5.5 4.5C5.5 3.39543 6.39543 2.5 7.5 2.5C8.60457 2.5 9.5 3.39543 9.5 4.5C9.5 5.60457 8.60457 6.5 7.5 6.5C6.39543 6.5 5.5 5.60457 5.5 4.5ZM4 4.5C4 4.22386 3.77614 4 3.5 4C3.22386 4 3 4.22386 3 4.5V8C3 8.06199 3.01153 8.12345 3.034 8.18122L6.534 17.1812C6.60874 17.3734 6.79379 17.5 7 17.5H9V20H6.5C6.22386 20 6 20.2239 6 20.5C6 20.7761 6.22386 21 6.5 21H9.5H12.5C12.7761 21 13 20.7761 13 20.5C13 20.2239 12.7761 20 12.5 20H10V17.5H11.6802C12.3952 17.5 13.0108 16.9953 13.1511 16.2942L13.3085 15.5069L14.5698 19.2906C14.9101 20.3115 15.8654 21.0001 16.9415 21.0001H17.5C17.659 21.0001 17.8086 20.9244 17.9028 20.7962C17.997 20.6681 18.0247 20.5027 17.9772 20.3509L15.6965 13.0526C15.5008 12.4264 14.9209 12.0001 14.2648 12.0001H10.8385L9.46065 8.55543C9.08392 7.61361 8.01503 7.15552 7.07321 7.53224C6.12187 7.91278 5.66586 8.99816 6.05994 9.94397L7.74996 14H6.36981L4 7.9062V4.5ZM8.49998 15.0001L8.49265 15H6.7587L7.34203 16.5H11.6802C11.9185 16.5 12.1237 16.3318 12.1705 16.0981L12.3901 15.0001H8.49998ZM17.5 3.5C17.7761 3.5 18 3.72386 18 4V6.29289L18.8536 7.14645C19.0488 7.34171 19.0488 7.65829 18.8536 7.85355C18.6583 8.04882 18.3417 8.04882 18.1464 7.85355L17.1464 6.85355C17.0527 6.75979 17 6.63261 17 6.5V4C17 3.72386 17.2239 3.5 17.5 3.5Z" fill="#2B2B2C"/>
</svg>
