<svg width="24" height="24" viewBox="0 0 24 24" fill="none" xmlns="http://www.w3.org/2000/svg">
<path fill-rule="evenodd" clip-rule="evenodd" d="M17.5 11C19.9853 11 22 8.98528 22 6.5C22 4.01472 19.9853 2 17.5 2C15.0147 2 13 4.01472 13 6.5C13 8.98528 15.0147 11 17.5 11ZM21 6.5C21 8.433 19.433 10 17.5 10C15.567 10 14 8.433 14 6.5C14 4.567 15.567 3 17.5 3C19.433 3 21 4.567 21 6.5ZM7.5 3.5C6.94772 3.5 6.5 3.94772 6.5 4.5C6.5 5.05228 6.94772 5.5 7.5 5.5C8.05228 5.5 8.5 5.05228 8.5 4.5C8.5 3.94772 8.05228 3.5 7.5 3.5ZM5.5 4.5C5.5 3.39543 6.39543 2.5 7.5 2.5C8.60457 2.5 9.5 3.39543 9.5 4.5C9.5 5.60457 8.60457 6.5 7.5 6.5C6.39543 6.5 5.5 5.60457 5.5 4.5ZM4 4.5C4 4.22386 3.77614 4 3.5 4C3.22386 4 3 4.22386 3 4.5V8C3 8.06199 3.01153 8.12345 3.034 8.18122L6.534 17.1812C6.60874 17.3734 6.79379 17.5 7 17.5H9V20H6.5C6.22386 20 6 20.2239 6 20.5C6 20.7761 6.22386 21 6.5 21H9.5H12.5C12.7761 21 13 20.7761 13 20.5C13 20.2239 12.7761 20 12.5 20H10V17.5H11.6802C12.3952 17.5 13.0108 16.9953 13.1511 16.2942L13.3086 15.5067L14.5698 19.2906C14.9101 20.3114 15.8655 21 16.9415 21H17.5C17.6591 21 17.8087 20.9243 17.9029 20.7962C17.9971 20.668 18.0247 20.5027 17.9773 20.3509L15.6966 13.0526C15.5009 12.4264 14.9209 12 14.2648 12H10.8385L9.51281 8.68567C9.10646 7.66979 7.97868 7.14672 6.94069 7.49272C5.80163 7.87241 5.22486 9.13961 5.68666 10.2479L7.25003 14H6.36981L4 7.9062V4.5ZM7.98931 15C7.99657 15.0002 8.00385 15.0002 8.01114 15H12.3901L12.1705 16.0981C12.1237 16.3318 11.9185 16.5 11.6802 16.5H7.34203L6.7587 15H7.98931ZM8.33336 14L6.60974 9.86331C6.37141 9.29133 6.66907 8.63735 7.25691 8.44141C7.7926 8.26284 8.37462 8.53279 8.58433 9.05706L10.0358 12.6857C10.1117 12.8755 10.2956 13 10.5 13H14.2648C14.4835 13 14.6768 13.1421 14.7421 13.3509L16.8184 19.995C16.2239 19.9462 15.7096 19.5476 15.5185 18.9743L13.9744 14.3419C13.9063 14.1377 13.7152 14 13.5 14H12.5L12.4967 14H8.33336ZM17.5 3.5C17.7761 3.5 18 3.72386 18 4V6.29289L18.8536 7.14645C19.0488 7.34171 19.0488 7.65829 18.8536 7.85355C18.6583 8.04882 18.3417 8.04882 18.1464 7.85355L17.1464 6.85355C17.0527 6.75979 17 6.63261 17 6.5V4C17 3.72386 17.2239 3.5 17.5 3.5Z" fill="#2B2B2C"/>
</svg>
