<svg width="18" height="18" viewBox="0 0 18 18" fill="none" xmlns="http://www.w3.org/2000/svg">
<path fill-rule="evenodd" clip-rule="evenodd" d="M7 3.25C7 3.11193 7.11193 3 7.25 3H10.75C10.8881 3 11 3.11193 11 3.25V4.5H7V3.25ZM6 4.5V3.25C6 2.55964 6.55964 2 7.25 2H10.75C11.4404 2 12 2.55964 12 3.25V4.5H14.75C15.4404 4.5 16 5.05964 16 5.75V7.22627L15.9304 7.2714C14.9552 7.90377 13.1585 9.06885 10.5 9.4062V9.19999C10.5 8.81339 10.1866 8.49999 9.8 8.49999H8.2C7.8134 8.49999 7.5 8.81339 7.5 9.19999V9.4062C4.84154 9.06885 3.04485 7.90379 2.06966 7.27142L2.06966 7.27142L2 7.22627V5.75C2 5.05964 2.55964 4.5 3.25 4.5H6ZM2 13.25V8.41514C3.09863 9.10364 4.94102 10.1137 7.5 10.4132V10.8C7.5 11.1866 7.8134 11.5 8.2 11.5H9.8C10.1866 11.5 10.5 11.1866 10.5 10.8V10.4132C13.059 10.1137 14.9014 9.10364 16 8.41514V13.25C16 13.9404 15.4404 14.5 14.75 14.5H3.25C2.55964 14.5 2 13.9404 2 13.25Z" fill="#2B2B2C"/>
</svg>
