<svg width="30" height="30" viewBox="0 0 30 30" fill="none" xmlns="http://www.w3.org/2000/svg">
<path fill-rule="evenodd" clip-rule="evenodd" d="M11.5 5.25C11.5 4.83579 11.8358 4.5 12.25 4.5H17.75C18.1642 4.5 18.5 4.83579 18.5 5.25V7.5H11.5V5.25ZM19.5 5.25V7.5H24.25C25.2165 7.5 26 8.2835 26 9.25V22.25C26 23.2165 25.2165 24 24.25 24H5.75C4.7835 24 4 23.2165 4 22.25V9.25C4 8.2835 4.7835 7.5 5.75 7.5H10.5V5.25C10.5 4.2835 11.2835 3.5 12.25 3.5H17.75C18.7165 3.5 19.5 4.2835 19.5 5.25ZM7.98613 16.2702C6.85594 15.7729 5.80476 15.1728 5 14.5768V22.25C5 22.6642 5.33579 23 5.75 23H24.25C24.6642 23 25 22.6642 25 22.25V14.5768C24.1952 15.1728 23.1441 15.7729 22.0139 16.2702C20.5829 16.8998 18.9694 17.3894 17.5 17.4836V19C17.5 19.2761 17.2761 19.5 17 19.5H13C12.7239 19.5 12.5 19.2761 12.5 19V17.4836C11.0306 17.3894 9.41714 16.8998 7.98613 16.2702ZM12.5 16.4813C11.2083 16.3875 9.7407 15.9497 8.38887 15.3549C6.95942 14.7259 5.7198 13.9483 5 13.2867V9.25C5 8.83579 5.33579 8.5 5.75 8.5H24.25C24.6642 8.5 25 8.83579 25 9.25V13.2867C24.2802 13.9483 23.0406 14.7259 21.6111 15.3549C20.2593 15.9497 18.7917 16.3875 17.5 16.4813V15C17.5 14.7239 17.2761 14.5 17 14.5H13C12.7239 14.5 12.5 14.7239 12.5 15V16.4813ZM13.5 18.5V15.5H16.5V18.5H13.5Z" fill="#2B2B2C"/>
</svg>
