<svg width="56" height="24" viewBox="0 0 56 24" fill="none" xmlns="http://www.w3.org/2000/svg">
<path fill-rule="evenodd" clip-rule="evenodd" d="M14.298 6H11.041C10.194 6 9.377 6.311 8.741 6.875L7.861 7.667L7.862 7.668C7.861 7.67 7.859 7.671 7.857 7.673L7.851 7.667L4.235 10.913C3.432 11.715 3 12.752 3 13.852C3 14.069 3.025 14.279 3.06 14.491V14.492V14.493C3.065 14.523 3.063 14.554 3.069 14.584C3.404 16.536 5.091 17.958 7.075 17.958L17.846 17.988C18.476 17.988 18.986 17.481 18.986 16.859V7.159C18.986 6.52 18.462 6 17.817 6H17.384H14.298Z" fill="#2B2B2C"/>
<path fill-rule="evenodd" clip-rule="evenodd" d="M33.9767 7.15824C33.9767 6.51824 33.4577 6.00024 32.8187 6.00024H23.1467C22.5067 6.00024 21.9887 6.51824 21.9887 7.15824V16.8302C21.9887 17.4702 22.5067 17.9882 23.1467 17.9882H32.8187C33.4577 17.9882 33.9767 17.4702 33.9767 16.8302V7.15824Z" fill="#2B2B2C"/>
<path fill-rule="evenodd" clip-rule="evenodd" d="M38.5968 6H38.1628C37.5188 6 36.9938 6.52 36.9938 7.159V16.859C36.9938 17.481 37.5048 17.988 38.1338 17.988L48.9048 17.958C50.8888 17.958 52.5758 16.536 52.9118 14.584C52.9178 14.554 52.9148 14.523 52.9208 14.493V14.492V14.491C52.9548 14.279 52.9808 14.069 52.9808 13.852C52.9808 12.752 52.5488 11.715 51.7448 10.913L48.1288 7.667L48.1228 7.673C48.1208 7.671 48.1188 7.67 48.1178 7.668L48.1188 7.667L47.2388 6.875C46.6038 6.311 45.7868 6 44.9388 6H41.6818H38.5968Z" fill="#2B2B2C"/>
</svg>
