<svg width="30" height="30" viewBox="0 0 30 30" fill="none" xmlns="http://www.w3.org/2000/svg">
<path fill-rule="evenodd" clip-rule="evenodd" d="M8.5 5.5C8.5 4.67157 9.17157 4 10 4C10.8284 4 11.5 4.67157 11.5 5.5C11.5 6.32843 10.8284 7 10 7C9.17157 7 8.5 6.32843 8.5 5.5ZM10 3C8.61929 3 7.5 4.11929 7.5 5.5C7.5 6.88071 8.61929 8 10 8C11.3807 8 12.5 6.88071 12.5 5.5C12.5 4.11929 11.3807 3 10 3ZM6 5.5C6 5.22386 5.77614 5 5.5 5C5.22386 5 5 5.22386 5 5.5V10C5 10.0623 5.01166 10.1241 5.03438 10.1822L9.53438 21.6822C9.60938 21.8739 9.79418 22 10 22H13V25H10C9.72386 25 9.5 25.2239 9.5 25.5C9.5 25.7761 9.72386 26 10 26H13.5H17C17.2761 26 17.5 25.7761 17.5 25.5C17.5 25.2239 17.2761 25 17 25H14V22H16.0571C16.8385 22 17.5251 21.482 17.7398 20.7308L18.2873 18.8145L20.4072 24.1142C20.8627 25.2532 21.9659 26 23.1926 26H24.5C24.6659 26 24.821 25.9177 24.914 25.7804C25.007 25.643 25.0259 25.4684 24.9642 25.3143L21.2532 16.0368C21.0055 15.4176 20.4275 14.993 19.7626 14.9418L14.3437 14.525L12.5927 10.3225C12.1353 9.22473 10.9283 8.64338 9.78473 8.97011C8.46839 9.34621 7.75304 10.7655 8.23373 12.0473L10.2785 17.5H9V17.5723L6 9.90566V5.5ZM17 18.5L16.9936 18.5H11.0133C11.0045 18.5002 10.9957 18.5002 10.9869 18.5H9.363L10.3413 21H16.0571C16.392 21 16.6863 20.778 16.7783 20.456L17.3371 18.5H17ZM18.5 17.5H18.0063L18 17.5H11.3465L9.17006 11.6962C8.89442 10.9612 9.30462 10.1473 10.0595 9.93163C10.7152 9.74428 11.4073 10.0776 11.6696 10.7072L13.5385 15.1923C13.6108 15.3659 13.7742 15.4842 13.9617 15.4986L19.6859 15.9389C19.9708 15.9608 20.2186 16.1428 20.3247 16.4081L23.7615 25H23.1926C22.3748 25 21.6394 24.5021 21.3356 23.7428L18.9642 17.8143C18.8883 17.6245 18.7045 17.5 18.5 17.5Z" fill="#2B2B2C"/>
</svg>
