<svg width="44" height="18" viewBox="0 0 44 18" fill="none" xmlns="http://www.w3.org/2000/svg">
<path d="M4.2805 9.04985L6.66834 6.93454L6.69133 6.95723L7.03268 6.62035C7.03864 6.61488 7.0457 6.6081 7.0535 6.60002L7.69375 6.03137C8.08563 5.68898 8.58896 5.5 9.11116 5.5H11.5865H13.9318H14.2609C14.4852 5.5 14.6494 5.67625 14.6494 5.86925V13.1442C14.6494 13.3242 14.4962 13.4907 14.2835 13.491C14.2833 13.491 14.2831 13.491 14.283 13.491L6.09837 13.4685H6.097C4.83173 13.4685 3.76472 12.5783 3.54733 11.3653C3.547 11.3599 3.54654 11.353 3.54599 11.3462C3.54587 11.3448 3.54574 11.3432 3.5456 11.3416V11.3267L3.53875 11.2857C3.51448 11.1407 3.5 11.0133 3.5 10.889C3.5 10.2058 3.76865 9.55879 4.2805 9.04985ZM7.00885 6.6409L7.0148 6.63596C7.01339 6.63715 7.0122 6.63814 7.01125 6.63893C7.01039 6.63964 7.00949 6.64037 7.00885 6.6409Z" stroke="#2B2B2C"/>
<path d="M25.6622 5.50024C25.8782 5.50024 26.0423 5.67139 26.0423 5.86874V13.1227C26.0423 13.3201 25.8782 13.4912 25.6622 13.4912H18.3115C18.095 13.4912 17.9314 13.3204 17.9314 13.1227V5.86874C17.9314 5.67111 18.095 5.50024 18.3115 5.50024H25.6622Z" stroke="#2B2B2C"/>
<path d="M36.9699 6.63597C36.9713 6.63716 36.9725 6.63816 36.9735 6.63894C36.9746 6.63986 36.9757 6.64082 36.9764 6.64133M36.9699 6.63597L36.9764 6.64134C36.977 6.64185 36.9769 6.64175 36.9764 6.64133M36.9699 6.63597L36.9764 6.64133M36.9699 6.63597L36.9764 6.64133M36.292 6.03226L36.9312 6.60001C36.939 6.60811 36.9461 6.61491 36.952 6.62039L37.2934 6.95722L37.3164 6.93456L39.7043 9.04996C40.2168 9.55885 40.4854 10.2058 40.4854 10.889C40.4854 11.0123 40.4705 11.1393 40.4463 11.288L40.4398 11.3279V11.3382C40.4397 11.3399 40.4395 11.3416 40.4394 11.3431C40.4386 11.3524 40.438 11.3612 40.4376 11.3679C40.2184 12.5797 39.1519 13.4685 37.8877 13.4685L37.8863 13.4685L29.7017 13.491C29.7015 13.491 29.7014 13.491 29.7012 13.491C29.489 13.4907 29.3353 13.324 29.3353 13.1442V5.86925C29.3353 5.67652 29.5 5.5 29.7238 5.5H30.0536H32.3982H34.8735C35.3967 5.5 35.8999 5.68911 36.2908 6.03124C36.2912 6.03158 36.2916 6.03192 36.292 6.03226Z" stroke="#2B2B2C"/>
</svg>
