<svg width="30" height="30" viewBox="0 0 30 30" fill="none" xmlns="http://www.w3.org/2000/svg">
<path fill-rule="evenodd" clip-rule="evenodd" d="M7.5 5.5C7.5 4.11929 8.61929 3 10 3C11.3807 3 12.5 4.11929 12.5 5.5C12.5 6.88071 11.3807 8 10 8C8.61929 8 7.5 6.88071 7.5 5.5ZM6 5.5C6 5.22386 5.77614 5 5.5 5C5.22386 5 5 5.22386 5 5.5V10C5 10.0623 5.01166 10.1241 5.03438 10.1822L9.53438 21.6822C9.60938 21.8739 9.79418 22 10 22H13V25H10C9.72386 25 9.5 25.2239 9.5 25.5C9.5 25.7761 9.72386 26 10 26H13.5H17C17.2761 26 17.5 25.7761 17.5 25.5C17.5 25.2239 17.2761 25 17 25H14V22H16.0571C16.8385 22 17.5251 21.482 17.7398 20.7308L18.2873 18.8145L20.4071 24.1142C20.8627 25.2532 21.9659 26 23.1926 26H24.5C24.6659 26 24.821 25.9177 24.914 25.7804C25.007 25.643 25.0259 25.4684 24.9642 25.3143L21.2532 16.0368C21.0055 15.4176 20.4275 14.993 19.7626 14.9418L14.3437 14.525L12.5927 10.3225C12.1353 9.22473 10.9283 8.64338 9.78473 8.97011C8.46839 9.34621 7.75304 10.7655 8.23373 12.0473L10.2785 17.5H9V17.5723L6 9.90566V5.5ZM11 18.5L10.9936 18.5H9.363L10.3413 21H16.0571C16.392 21 16.6863 20.778 16.7783 20.456L17.3371 18.5H11Z" fill="#2B2B2C"/>
</svg>
