<svg width="70" height="30" viewBox="0 0 70 30" fill="none" xmlns="http://www.w3.org/2000/svg">
<path fill-rule="evenodd" clip-rule="evenodd" d="M19.1225 8H15.0513C13.9925 8 12.9713 8.38875 12.1762 9.09375L11.0763 10.0838L11.0775 10.085C11.0763 10.0875 11.0738 10.0887 11.0712 10.0912L11.0637 10.0838L6.54375 14.1413C5.54 15.1438 5 16.44 5 17.815C5 18.0862 5.03125 18.3488 5.075 18.6138V18.615V18.6163C5.08125 18.6538 5.07875 18.6925 5.08625 18.73C5.505 21.17 7.61375 22.9475 10.0938 22.9475L23.5575 22.985C24.345 22.985 24.9825 22.3512 24.9825 21.5737V9.44875C24.9825 8.65 24.3275 8 23.5212 8H22.98H19.1225Z" fill="#2B2B2C"/>
<path fill-rule="evenodd" clip-rule="evenodd" d="M42.985 9.44774C42.985 8.64774 42.3363 8.00024 41.5375 8.00024H29.4475C28.6475 8.00024 28 8.64774 28 9.44774V21.5377C28 22.3377 28.6475 22.9852 29.4475 22.9852H41.5375C42.3363 22.9852 42.985 22.3377 42.985 21.5377V9.44774Z" fill="#2B2B2C"/>
<path fill-rule="evenodd" clip-rule="evenodd" d="M48.0038 8H47.4612C46.6562 8 46 8.65 46 9.44875V21.5737C46 22.3512 46.6387 22.985 47.425 22.985L60.8888 22.9475C63.3687 22.9475 65.4775 21.17 65.8975 18.73C65.905 18.6925 65.9013 18.6538 65.9088 18.6163V18.615V18.6138C65.9513 18.3488 65.9837 18.0862 65.9837 17.815C65.9837 16.44 65.4437 15.1438 64.4387 14.1413L59.9187 10.0838L59.9113 10.0912C59.9088 10.0887 59.9062 10.0875 59.905 10.085L59.9062 10.0838L58.8062 9.09375C58.0125 8.38875 56.9912 8 55.9312 8H51.86H48.0038Z" fill="#2B2B2C"/>
</svg>
