<svg width="30" height="30" viewBox="0 0 30 30" fill="none" xmlns="http://www.w3.org/2000/svg">
<path fill-rule="evenodd" clip-rule="evenodd" d="M8 2.5C8.18939 2.5 8.36252 2.607 8.44721 2.77639L10.9472 7.77639C11.0247 7.93139 11.0164 8.11546 10.9253 8.26287C10.8342 8.41027 10.6733 8.5 10.5 8.5H10.2694L11.9569 12.2969C12.0256 12.4516 12.0115 12.6305 11.9192 12.7725C11.827 12.9144 11.6693 13 11.5 13H10.75L12.3365 16.8077C12.4008 16.962 12.3838 17.1383 12.291 17.2774C12.1983 17.4164 12.0422 17.5 11.875 17.5H8.5V25H13V23V21H11.5C11.3038 21 11.1258 20.8853 11.0447 20.7066C10.9636 20.528 10.9945 20.3184 11.1237 20.1707L18.1237 12.1707C18.2187 12.0622 18.3558 12 18.5 12C18.6442 12 18.7813 12.0622 18.8763 12.1707L20.5 14.0264V13C20.5 12.7239 20.7239 12.5 21 12.5H23.5C23.7761 12.5 24 12.7239 24 13V18V18.0264L25.8763 20.1707C26.0055 20.3184 26.0364 20.528 25.9553 20.7066C25.8742 20.8853 25.6962 21 25.5 21H24V23V25H25.5C25.7761 25 26 25.2239 26 25.5C26 25.7761 25.7761 26 25.5 26H23.5H13.5H8H4.5C4.22386 26 4 25.7761 4 25.5C4 25.2239 4.22386 25 4.5 25H7.5V17.5H4C3.83075 17.5 3.67298 17.4144 3.58075 17.2725C3.48852 17.1305 3.47435 16.9516 3.54309 16.7969L5.23062 13H4.5C4.33075 13 4.17298 12.9144 4.08075 12.7725C3.98852 12.6305 3.97435 12.4516 4.04309 12.2969L5.73062 8.5H5.5C5.32671 8.5 5.16578 8.41027 5.07467 8.26287C4.98357 8.11546 4.97529 7.93139 5.05279 7.77639L7.55279 2.77639C7.63748 2.607 7.81061 2.5 8 2.5ZM14 25V23.5H16.5H20.5H23V25H14ZM14 22.5H16V21H14V22.5ZM17 20.5V18.5H20V22.5H17V20.5ZM20.5 17.5H16.5H14.7894L16.1019 16H20.8981L22.2106 17.5H20.5ZM20.0231 15L18.5 13.2593L16.9769 15H20.0231ZM14 18.5C13.9728 18.5 13.946 18.4978 13.92 18.4936L12.6019 20H13.5H16V18.5H14ZM21 20V18.5H23H23.0856L24.3981 20H23.5H21ZM23 22.5H21V21H23V22.5ZM6.30902 7.5H6.5C6.66925 7.5 6.82702 7.58563 6.91925 7.72754C7.01147 7.86946 7.02565 8.0484 6.95691 8.20307L5.26938 12H6C6.16925 12 6.32702 12.0856 6.41925 12.2275C6.51147 12.3695 6.52565 12.5484 6.45691 12.7031L4.76938 16.5H11.125L9.53846 12.6923C9.47416 12.538 9.49124 12.3617 9.58397 12.2226C9.67671 12.0836 9.83282 12 10 12H10.7306L9.04309 8.20307C8.97435 8.0484 8.98852 7.86946 9.08075 7.72754C9.17298 7.58563 9.33075 7.5 9.5 7.5H9.69098L8 4.11803L6.30902 7.5ZM23 16.8836V13.5H21.5V15.1693L23 16.8836Z" fill="#2B2B2C"/>
</svg>
