<svg width="18" height="18" viewBox="0 0 18 18" fill="none" xmlns="http://www.w3.org/2000/svg">
<path fill-rule="evenodd" clip-rule="evenodd" d="M4.91603 2.22265C4.82329 2.08355 4.66718 2 4.5 2C4.33282 2 4.17671 2.08355 4.08398 2.22265L2.08398 5.22265C1.98169 5.37608 1.97215 5.57335 2.05916 5.73593C2.14617 5.89851 2.3156 6 2.5 6H2.70366L1.58078 7.72751C1.48085 7.88124 1.47309 8.07733 1.56054 8.23849C1.648 8.39964 1.81665 8.5 2 8.5H2.61691L1.57125 10.2428C1.47857 10.3972 1.47615 10.5896 1.5649 10.7463C1.65365 10.9031 1.81986 11 2 11H4V15H2.5C2.22386 15 2 15.2239 2 15.5C2 15.7761 2.22386 16 2.5 16H4.5H9.00001H14H15.5C15.7761 16 16 15.7761 16 15.5C16 15.2239 15.7761 15 15.5 15H14.5V13H15.5C15.6969 13 15.8755 12.8844 15.9561 12.7048C16.0368 12.5252 16.0045 12.315 15.8737 12.1678L11.8737 7.66782C11.7788 7.56107 11.6428 7.5 11.5 7.5C11.3572 7.5 11.2212 7.56107 11.1263 7.66782L7.1263 12.1678C6.99549 12.315 6.96323 12.5252 7.04389 12.7048C7.12455 12.8844 7.30311 13 7.50001 13H8.50001V15H5V11H7C7.18014 11 7.34635 10.9031 7.4351 10.7463C7.52385 10.5896 7.52143 10.3972 7.42875 10.2428L6.3831 8.5H7C7.18014 8.5 7.34635 8.4031 7.4351 8.24635C7.52385 8.08959 7.52143 7.89722 7.42875 7.74275L6.3831 6H6.5C6.6844 6 6.85383 5.89851 6.94084 5.73593C7.02785 5.57335 7.01831 5.37608 6.91603 5.22265L4.91603 2.22265Z" fill="#2B2B2C"/>
</svg>
