<svg width="30" height="30" viewBox="0 0 30 30" fill="none" xmlns="http://www.w3.org/2000/svg">
<path fill-rule="evenodd" clip-rule="evenodd" d="M8 2.5C8.18939 2.5 8.36252 2.607 8.44722 2.77639L10.9472 7.77639C11.0247 7.93139 11.0164 8.11546 10.9253 8.26287C10.8342 8.41027 10.6733 8.5 10.5 8.5H10.2694L11.9569 12.2969C12.0256 12.4516 12.0115 12.6305 11.9192 12.7725C11.827 12.9144 11.6693 13 11.5 13H10.75L12.3365 16.8077C12.4008 16.962 12.3838 17.1383 12.291 17.2774C12.1983 17.4164 12.0422 17.5 11.875 17.5H8.5V25H13V23.0028L13 23L13 22.9972V21H11.5C11.3038 21 11.1258 20.8853 11.0447 20.7066C10.9636 20.528 10.9945 20.3184 11.1237 20.1707L18.1237 12.1707C18.2187 12.0622 18.3558 12 18.5 12C18.6442 12 18.7814 12.0622 18.8763 12.1707L20.5 14.0264V13C20.5 12.7239 20.7239 12.5 21 12.5H23.5C23.7761 12.5 24 12.7239 24 13V18V18.0264L25.8763 20.1707C26.0055 20.3184 26.0364 20.528 25.9553 20.7066C25.8743 20.8853 25.6962 21 25.5 21H24V25H25.5C25.7761 25 26 25.2239 26 25.5C26 25.7761 25.7761 26 25.5 26H23.5H13.5H8H4.5C4.22386 26 4 25.7761 4 25.5C4 25.2239 4.22386 25 4.5 25H7.5V17.5H4C3.83075 17.5 3.67298 17.4144 3.58076 17.2725C3.48853 17.1305 3.47436 16.9516 3.5431 16.7969L5.23062 13H4.5C4.33075 13 4.17298 12.9144 4.08076 12.7725C3.98853 12.6305 3.97436 12.4516 4.0431 12.2969L5.73062 8.5H5.5C5.32671 8.5 5.16578 8.41027 5.07468 8.26287C4.98357 8.11546 4.97529 7.93139 5.05279 7.77639L7.55279 2.77639C7.63748 2.607 7.81062 2.5 8 2.5ZM14 25H23V23.5H20H17H14V25ZM14 22.5H16.5V21H14V22.5ZM20.5 22.5H23V21H20.5V22.5ZM23.0856 18.5H23H20.5V20H23.5H24.3981L23.0856 18.5ZM16.5 18.5V20H13.5H12.6019L13.92 18.4936C13.946 18.4978 13.9728 18.5 14 18.5H16.5ZM14.7894 17.5H17H20H22.2106L20.8981 16H16.1019L14.7894 17.5ZM18.5 13.2593L20.0231 15H16.9769L18.5 13.2593ZM23 16.8836L21.5 15.1693V13.5H23V16.8836Z" fill="#2B2B2C"/>
</svg>
