<svg width="24" height="24" viewBox="0 0 24 24" fill="none" xmlns="http://www.w3.org/2000/svg">
<path fill-rule="evenodd" clip-rule="evenodd" d="M7 6.75V17.25C7 17.6642 6.66421 18 6.25 18C5.83579 18 5.5 17.6642 5.5 17.25V15V9V6.75C5.5 6.33579 5.83579 6 6.25 6C6.66421 6 7 6.33579 7 6.75ZM4.5 7.58535C4.34361 7.53008 4.17532 7.5 4 7.5C3.17157 7.5 2.5 8.17157 2.5 9V15C2.5 15.8284 3.17157 16.5 4 16.5C4.17532 16.5 4.34361 16.4699 4.5 16.4146V17.25C4.5 18.2165 5.2835 19 6.25 19C7.2165 19 8 18.2165 8 17.25V13.5H16V17.25C16 18.2165 16.7835 19 17.75 19C18.7165 19 19.5 18.2165 19.5 17.25V16.4146C19.6564 16.4699 19.8247 16.5 20 16.5C20.8284 16.5 21.5 15.8284 21.5 15V9C21.5 8.17157 20.8284 7.5 20 7.5C19.8247 7.5 19.6564 7.53008 19.5 7.58535V6.75C19.5 5.7835 18.7165 5 17.75 5C16.7835 5 16 5.7835 16 6.75V10.5H8V6.75C8 5.7835 7.2165 5 6.25 5C5.2835 5 4.5 5.7835 4.5 6.75V7.58535ZM4.5 9V15C4.5 15.2761 4.27614 15.5 4 15.5C3.72386 15.5 3.5 15.2761 3.5 15V9C3.5 8.72386 3.72386 8.5 4 8.5C4.27614 8.5 4.5 8.72386 4.5 9ZM19.5 15V9C19.5 8.72386 19.7239 8.5 20 8.5C20.2761 8.5 20.5 8.72386 20.5 9V15C20.5 15.2761 20.2761 15.5 20 15.5C19.7239 15.5 19.5 15.2761 19.5 15ZM18.5 6.75V9V15V17.25C18.5 17.6642 18.1642 18 17.75 18C17.3358 18 17 17.6642 17 17.25V6.75C17 6.33579 17.3358 6 17.75 6C18.1642 6 18.5 6.33579 18.5 6.75ZM8 12.5H16V11.5H8V12.5Z" fill="#2B2B2C"/>
</svg>
