<svg width="18" height="18" viewBox="0 0 18 18" fill="none" xmlns="http://www.w3.org/2000/svg">
<path fill-rule="evenodd" clip-rule="evenodd" d="M12 5C12 4.17157 12.6716 3.5 13.5 3.5C14.3284 3.5 15 4.17157 15 5V5.58535C15.1564 5.53008 15.3247 5.5 15.5 5.5C16.3284 5.5 17 6.17157 17 7V11C17 11.8284 16.3284 12.5 15.5 12.5C15.3247 12.5 15.1564 12.4699 15 12.4146V13C15 13.8284 14.3284 14.5 13.5 14.5C12.6716 14.5 12 13.8284 12 13V9.5H6V13C6 13.8284 5.32843 14.5 4.5 14.5C3.67157 14.5 3 13.8284 3 13V12.4146C2.84361 12.4699 2.67532 12.5 2.5 12.5C1.67157 12.5 1 11.8284 1 11V7C1 6.17157 1.67157 5.5 2.5 5.5C2.67532 5.5 2.84361 5.53008 3 5.58535V5C3 4.17157 3.67157 3.5 4.5 3.5C5.32843 3.5 6 4.17157 6 5V8.5H12V5ZM3 7C3 6.72386 2.77614 6.5 2.5 6.5C2.22386 6.5 2 6.72386 2 7V11C2 11.2761 2.22386 11.5 2.5 11.5C2.77614 11.5 3 11.2761 3 11V7ZM4 11V13C4 13.2761 4.22386 13.5 4.5 13.5C4.77614 13.5 5 13.2761 5 13V5C5 4.72386 4.77614 4.5 4.5 4.5C4.22386 4.5 4 4.72386 4 5V7V11ZM15 11V7C15 6.72386 15.2239 6.5 15.5 6.5C15.7761 6.5 16 6.72386 16 7V11C16 11.2761 15.7761 11.5 15.5 11.5C15.2239 11.5 15 11.2761 15 11ZM14 5V7V11V13C14 13.2761 13.7761 13.5 13.5 13.5C13.2239 13.5 13 13.2761 13 13V5C13 4.72386 13.2239 4.5 13.5 4.5C13.7761 4.5 14 4.72386 14 5Z" fill="#2B2B2C"/>
</svg>
