<svg width="24" height="24" viewBox="0 0 24 24" fill="none" xmlns="http://www.w3.org/2000/svg">
<path fill-rule="evenodd" clip-rule="evenodd" d="M4.5 6.75C4.5 5.7835 5.2835 5 6.25 5C7.2165 5 8 5.7835 8 6.75V10.5H16V6.75C16 5.7835 16.7835 5 17.75 5C18.7165 5 19.5 5.7835 19.5 6.75V7.58535C19.6564 7.53008 19.8247 7.5 20 7.5C20.8284 7.5 21.5 8.17157 21.5 9V15C21.5 15.8284 20.8284 16.5 20 16.5C19.8247 16.5 19.6564 16.4699 19.5 16.4146V17.25C19.5 18.2165 18.7165 19 17.75 19C16.7835 19 16 18.2165 16 17.25V13.5H8V17.25C8 18.2165 7.2165 19 6.25 19C5.2835 19 4.5 18.2165 4.5 17.25V16.4146C4.34361 16.4699 4.17532 16.5 4 16.5C3.17157 16.5 2.5 15.8284 2.5 15V9C2.5 8.17157 3.17157 7.5 4 7.5C4.17532 7.5 4.34361 7.53008 4.5 7.58535V6.75ZM8 12.5H16V11.5H8V12.5Z" fill="#2B2B2C"/>
</svg>
