<svg width="18" height="18" viewBox="0 0 18 18" fill="none" xmlns="http://www.w3.org/2000/svg">
<path fill-rule="evenodd" clip-rule="evenodd" d="M9.36641 2.15977C9.2718 2.05789 9.13905 2 9.00001 2C8.86098 2 8.72822 2.05789 8.63361 2.15977L2.13361 9.15977C1.99829 9.3055 1.9622 9.51757 2.04169 9.69986C2.12118 9.88215 2.30114 10 2.50001 10H4.00001V13.5C4.00001 13.7761 4.22387 14 4.50001 14H13.5C13.7762 14 14 13.7761 14 13.5V10H15.5C15.6989 10 15.8788 9.88215 15.9583 9.69986C16.0378 9.51757 16.0017 9.3055 15.8664 9.15977L14 7.1498V3.5C14 3.22386 13.7761 3 13.5 3H11.5C11.2239 3 11 3.22386 11 3.5V3.91903L9.36641 2.15977ZM13 4V6.07287L12 4.99595V4H13ZM4.50001 9H3.64662L9.00001 3.23481L14.3534 9H13.5C13.2239 9 13 9.22386 13 9.5V13H10.5V9.5C10.5 9.22386 10.2761 9 10 9H8C7.72386 9 7.5 9.22386 7.5 9.5V13H5.00001V9.5C5.00001 9.22386 4.77615 9 4.50001 9ZM8.5 13H9.5V10H8.5V13ZM3.5 15C3.22386 15 3 15.2239 3 15.5C3 15.7761 3.22386 16 3.5 16H14.5C14.7761 16 15 15.7761 15 15.5C15 15.2239 14.7761 15 14.5 15H3.5Z" fill="#2B2B2C"/>
</svg>
