<svg width="30" height="30" viewBox="0 0 30 30" fill="none" xmlns="http://www.w3.org/2000/svg">
<path fill-rule="evenodd" clip-rule="evenodd" d="M15.7359 3.06147C15.3398 2.63088 14.6602 2.63088 14.2641 3.06147L3.13204 15.1615C2.99768 15.3076 2.9624 15.5192 3.04214 15.701C3.12189 15.8827 3.30155 16 3.5 16H6.5V23.5C6.5 24.0523 6.94772 24.5 7.5 24.5H22.5C23.0523 24.5 23.5 24.0523 23.5 23.5V16H26.5C26.6984 16 26.8781 15.8827 26.9579 15.701C27.0376 15.5192 27.0023 15.3076 26.868 15.1615L23.4994 11.5H23.5V5C23.5 4.72386 23.2761 4.5 23 4.5H19.5C19.2239 4.5 19 4.72386 19 5V6.60937L15.7359 3.06147ZM22.5 5.5V10.4137L20 7.69633V5.5H22.5ZM15 3.73853L25.3606 15H23C22.7239 15 22.5 15.2239 22.5 15.5V23.5H7.5V15.5C7.5 15.2239 7.27614 15 7 15H4.63941L15 3.73853ZM5 26C4.72386 26 4.5 26.2239 4.5 26.5C4.5 26.7761 4.72386 27 5 27H25C25.2761 27 25.5 26.7761 25.5 26.5C25.5 26.2239 25.2761 26 25 26H5ZM13 16.5C12.7239 16.5 12.5 16.7239 12.5 17V23.5H13.5V17.5H16.5V23.5H17.5V17C17.5 16.7239 17.2761 16.5 17 16.5H13Z" fill="#2B2B2C"/>
</svg>
