<svg width="18" height="18" viewBox="0 0 18 18" fill="none" xmlns="http://www.w3.org/2000/svg">
<path fill-rule="evenodd" clip-rule="evenodd" d="M3.00001 2.5C3.00001 2.22386 3.22386 2 3.50001 2C3.77615 2 4.00001 2.22386 4.00001 2.5V3H4.50001C4.77615 3 5.00001 3.22386 5.00001 3.5C5.00001 3.77614 4.77615 4 4.50001 4H4.00001V4.5C4.00001 4.77614 3.77615 5 3.50001 5C3.22386 5 3.00001 4.77614 3.00001 4.5V4H2.50001C2.22386 4 2.00001 3.77614 2.00001 3.5C2.00001 3.22386 2.22386 3 2.50001 3H3.00001V2.5ZM10.5995 2.52553C10.3718 2.82315 10.2919 3.2624 10.4796 3.66126C10.8132 4.37038 11 5.16269 11 6.00001C11 9.03757 8.53757 11.5 5.5 11.5C4.66269 11.5 3.87038 11.3132 3.16126 10.9796C2.7624 10.7919 2.32315 10.8718 2.02553 11.0995C1.71204 11.3393 1.51593 11.7878 1.74162 12.2555C2.95303 14.7661 5.52355 16.5 8.5 16.5C12.6421 16.5 16 13.1421 16 9.00001C16 6.02355 14.2661 3.45304 11.7555 2.24162C11.2878 2.01593 10.8393 2.21204 10.5995 2.52553ZM11.3777 3.16999C13.525 4.23207 15 6.44426 15 9.00001C15 12.5899 12.0899 15.5 8.5 15.5C5.94426 15.5 3.73207 14.025 2.66999 11.8777C2.67328 11.877 2.67671 11.8764 2.68027 11.8759C2.69967 11.8735 2.71804 11.8762 2.73549 11.8844C3.57501 12.2794 4.51244 12.5 5.5 12.5C9.08986 12.5 12 9.58986 12 6.00001C12 5.01244 11.7794 4.07501 11.3844 3.23549C11.3762 3.21804 11.3735 3.19967 11.3759 3.18027C11.3764 3.17671 11.377 3.17328 11.3777 3.16999ZM6.5 6C6.22386 6 6 6.22386 6 6.5V7H5.5C5.22386 7 5 7.22386 5 7.5C5 7.77614 5.22386 8 5.5 8H6V8.5C6 8.77614 6.22386 9 6.5 9C6.77615 9 7 8.77614 7 8.5V8H7.5C7.77615 8 8 7.77614 8 7.5C8 7.22386 7.77615 7 7.5 7H7V6.5C7 6.22386 6.77615 6 6.5 6Z" fill="#2B2B2C"/>
</svg>
