<svg width="18" height="18" viewBox="0 0 18 18" fill="none" xmlns="http://www.w3.org/2000/svg">
<path fill-rule="evenodd" clip-rule="evenodd" d="M6.5 4.5C6.5 3.11929 7.61929 2 9 2C10.3807 2 11.5 3.11929 11.5 4.5C11.5 5.88071 10.3807 7 9 7C7.61929 7 6.5 5.88071 6.5 4.5ZM9 1C7.067 1 5.5 2.567 5.5 4.5C5.5 6.433 7.067 8 9 8C10.933 8 12.5 6.433 12.5 4.5C12.5 2.567 10.933 1 9 1ZM4.90449 11.3675C5.17671 10.5509 5.94099 10 6.80185 10H11.1981C12.0589 10 12.8232 10.5509 13.0954 11.3675L14.3735 15.2019C13.5745 15.4745 11.6858 16 8.99996 16C6.31414 16 4.4254 15.4745 3.62636 15.2019L4.90449 11.3675ZM6.80185 9C5.51056 9 4.36415 9.82629 3.9558 11.0513L2.66916 14.9112C2.50767 15.3957 2.73872 15.953 3.26001 16.1334C4.11847 16.4306 6.13672 17 8.99996 17C11.8632 17 13.8814 16.4306 14.7399 16.1334C15.2612 15.953 15.4922 15.3957 15.3307 14.9112L14.0441 11.0513C13.6358 9.82629 12.4893 9 11.1981 9H6.80185Z" fill="#2B2B2C"/>
</svg>
