<svg width="18" height="18" viewBox="0 0 18 18" fill="none" xmlns="http://www.w3.org/2000/svg">
<path fill-rule="evenodd" clip-rule="evenodd" d="M9 2C7.61929 2 6.5 3.11929 6.5 4.5C6.5 5.88071 7.61929 7 9 7C10.3807 7 11.5 5.88071 11.5 4.5C11.5 3.11929 10.3807 2 9 2ZM5.5 4.5C5.5 2.567 7.067 1 9 1C10.933 1 12.5 2.567 12.5 4.5C12.5 6.433 10.933 8 9 8C7.067 8 5.5 6.433 5.5 4.5ZM6.80185 9C5.51056 9 4.36415 9.82629 3.9558 11.0513L2.66916 14.9112C2.50767 15.3957 2.73872 15.953 3.26001 16.1334C4.11847 16.4306 6.13672 17 8.99996 17C11.8632 17 13.8814 16.4306 14.7399 16.1334C15.2612 15.953 15.4922 15.3957 15.3307 14.9112L14.0441 11.0513C13.6358 9.82629 12.4893 9 11.1981 9H6.80185Z" fill="#2B2B2C"/>
</svg>
