<svg width="24" height="24" viewBox="0 0 24 24" fill="none" xmlns="http://www.w3.org/2000/svg">
<path fill-rule="evenodd" clip-rule="evenodd" d="M4 4.5C4 4.22386 4.22386 4 4.5 4C4.77614 4 5 4.22386 5 4.5V8C5 8.06137 5.0113 8.12221 5.03333 8.17949L7.27199 14H6.36981L4 7.9062V4.5ZM14 14H8.3434L6 7.90716V4.5C6 3.67157 5.32843 3 4.5 3C3.67157 3 3 3.67157 3 4.5V8C3 8.06199 3.01153 8.12345 3.034 8.18122L6.534 17.1812C6.60874 17.3734 6.79379 17.5 7 17.5H9.5V20H7C6.72386 20 6.5 20.2239 6.5 20.5C6.5 20.7761 6.72386 21 7 21H10H13C13.2761 21 13.5 20.7761 13.5 20.5C13.5 20.2239 13.2761 20 13 20H10.5V17.5H12.6802C13.3952 17.5 14.0108 16.9953 14.1511 16.2942L14.4903 14.5981C14.5197 14.4512 14.4816 14.2988 14.3867 14.183C14.2917 14.0672 14.1498 14 14 14ZM7.34203 16.5L6.7587 15H13.3901L13.1705 16.0981C13.1237 16.3318 12.9185 16.5 12.6802 16.5H7.34203ZM18 13L18 12H11.5C11.2239 12 11 11.7761 11 11.5C11 11.2239 11.2239 11 11.5 11H13.5253C13.2011 10.6824 13 10.2397 13 9.75V8.5C13 8.22386 13.2239 8 13.5 8H16C16.2761 8 16.5 8.22386 16.5 8.5V9.75C16.5 10.2397 16.2989 10.6824 15.9747 11H18.5H20V6.5C20 6.22386 20.2239 6 20.5 6C20.7761 6 21 6.22386 21 6.5V11.5V16.5C21 16.7761 20.7761 17 20.5 17C20.2239 17 20 16.7761 20 16.5V14.5H19.5C18.6716 14.5 18 13.8284 18 13ZM20 12H19L19 13C19 13.2761 19.2239 13.5 19.5 13.5H20L20 12ZM14 9V9.75C14 10.1642 14.3358 10.5 14.75 10.5C15.1642 10.5 15.5 10.1642 15.5 9.75V9H14Z" fill="#2B2B2C"/>
</svg>
