<svg width="18" height="18" viewBox="0 0 18 18" fill="none" xmlns="http://www.w3.org/2000/svg">
<path fill-rule="evenodd" clip-rule="evenodd" d="M2.5 2C2.77614 2 3 2.22386 3 2.5V5.91339L4.4595 10H10.5C10.6498 10 10.7917 10.0672 10.8867 10.183C10.9816 10.2988 11.0197 10.4512 10.9903 10.5981L10.6511 12.2942C10.5108 12.9953 9.89522 13.5 9.1802 13.5H8V15H10C10.2761 15 10.5 15.2239 10.5 15.5C10.5 15.7761 10.2761 16 10 16H5C4.72386 16 4.5 15.7761 4.5 15.5C4.5 15.2239 4.72386 15 5 15H7V13.5H5C4.78869 13.5 4.6002 13.3672 4.52913 13.1682L2.02913 6.16817C2.00985 6.1142 2 6.05731 2 6V2.5C2 2.22386 2.22386 2 2.5 2ZM16 3.5C16 3.22386 15.7761 3 15.5 3C15.2239 3 15 3.22386 15 3.5V7H13.5H12.1181C12.3556 6.73462 12.5 6.38418 12.5 6V5C12.5 4.72386 12.2761 4.5 12 4.5H10C9.72386 4.5 9.5 4.72386 9.5 5V6C9.5 6.38418 9.64443 6.73462 9.88195 7H8C7.72386 7 7.5 7.22386 7.5 7.5C7.5 7.77614 7.72386 8 8 8H13V9C13 9.82843 13.6716 10.5 14.5 10.5H15V12.5C15 12.7761 15.2239 13 15.5 13C15.7761 13 16 12.7761 16 12.5V10V7.5V3.5ZM15 9.5V8H14V9C14 9.27614 14.2239 9.5 14.5 9.5H15Z" fill="#2B2B2C"/>
</svg>
