<svg width="30" height="30" viewBox="0 0 30 30" fill="none" xmlns="http://www.w3.org/2000/svg">
<path fill-rule="evenodd" clip-rule="evenodd" d="M6.07071 3.50503C5.92722 3.48453 5.7819 3.52731 5.6724 3.62228C5.5629 3.71725 5.5 3.85506 5.5 4V9C5.5 9.05774 5.51 9.11504 5.52956 9.16936L10.0296 21.6694C10.101 21.8677 10.2892 22 10.5 22H13.5V25H11C10.7239 25 10.5 25.2239 10.5 25.5C10.5 25.7761 10.7239 26 11 26H13.998L14 26L14.002 26H17C17.2761 26 17.5 25.7761 17.5 25.5C17.5 25.2239 17.2761 25 17 25H14.5V22H17.5571C18.3385 22 19.0251 21.482 19.2398 20.7308L19.9808 18.1374C20.0239 17.9865 19.9937 17.8242 19.8992 17.6989C19.8047 17.5736 19.6569 17.5 19.5 17.5H11.842L8.5 8.9062V8.35595C9.40157 7.99483 10 7.11908 10 6.13841C10 4.94948 9.12576 3.94146 7.94877 3.77332L6.07071 3.50503ZM18.2783 20.456C18.1863 20.778 17.892 21 17.5571 21H10.8514L9.95141 18.5H18.8371L18.2783 20.456ZM10.7691 17.5H9.59141L6.5 8.91274V4.57651L7.80735 4.76327C8.49169 4.86103 9 5.44713 9 6.13841C9 6.73633 8.6174 7.26716 8.05017 7.45623L7.84189 7.52566C7.63771 7.59372 7.5 7.78479 7.5 8V9C7.5 9.062 7.51153 9.12345 7.534 9.18123L10.7691 17.5ZM14 13C14 12.7239 14.2239 12.5 14.5 12.5H17.1771C16.7619 12.1335 16.5 11.5973 16.5 11V9.5C16.5 9.22386 16.7239 9 17 9H20C20.2761 9 20.5 9.22386 20.5 9.5V11C20.5 11.5973 20.2381 12.1335 19.8229 12.5H24V9.5C24 9.22386 24.2239 9 24.5 9C24.7761 9 25 9.22386 25 9.5V13V15V17.5V20.5C25 20.7761 24.7761 21 24.5 21C24.2239 21 24 20.7761 24 20.5V17.95C22.8589 17.7184 22 16.7095 22 15.5H15.5C14.6716 15.5 14 14.8284 14 14V13ZM24 14.5V13.5H15V14C15 14.2761 15.2239 14.5 15.5 14.5H22.5H24ZM23 15.5H24V16.9146C23.4174 16.7087 23 16.1531 23 15.5ZM17.5 11V10H19.5V11C19.5 11.5523 19.0523 12 18.5 12C17.9477 12 17.5 11.5523 17.5 11Z" fill="#2B2B2C"/>
</svg>
