<svg width="24" height="24" viewBox="0 0 24 24" fill="none" xmlns="http://www.w3.org/2000/svg">
<path fill-rule="evenodd" clip-rule="evenodd" d="M16 4.5C16 4.22386 15.7761 4 15.5 4C15.2239 4 15 4.22386 15 4.5V5.02533L14.0054 5.25485C13.2575 5.42743 12.5675 5.78809 12 6.30101C11.4325 5.78809 10.7425 5.42743 9.99462 5.25485L4.61243 4.01281C4.46396 3.97855 4.30797 4.01386 4.18872 4.10872C4.06948 4.20357 4 4.34763 4 4.5V17C4 17.2265 4.15229 17.4248 4.37117 17.4831L8.77678 18.658L3 18.0499V6.5C3 6.22386 2.77614 6 2.5 6C2.22386 6 2 6.22386 2 6.5V18.5C2 18.7559 2.19318 18.9705 2.44766 18.9973L11.9477 19.9973C11.9825 20.0009 12.0175 20.0009 12.0523 19.9973L21.5523 18.9973C21.8068 18.9705 22 18.7559 22 18.5V6.5C22 6.22386 21.7761 6 21.5 6C21.2239 6 21 6.22386 21 6.5V18.0499L15.2232 18.658L19.6288 17.4831C19.8477 17.4248 20 17.2265 20 17V4.5C20 4.34763 19.9305 4.20357 19.8113 4.10872C19.692 4.01386 19.536 3.97855 19.3876 4.01281L16 4.79456V4.5ZM15 6.05161V12.5C15 12.7761 15.2239 13 15.5 13C15.7761 13 16 12.7761 16 12.5V5.82084L19 5.12853V16.6159L12.5 18.3492V7.20711L12.5424 7.16474C13.0062 6.7009 13.5911 6.37675 14.2302 6.22924L15 6.05161ZM5 16.6159V5.12853L9.76976 6.22924C10.4089 6.37675 10.9938 6.7009 11.4576 7.16474L11.5 7.20711V18.3492L5 16.6159Z" fill="#2B2B2C"/>
</svg>
