<svg width="24" height="24" viewBox="0 0 24 24" fill="none" xmlns="http://www.w3.org/2000/svg">
<path d="M19.5 7L21.5 6.5V18.5L12 19.5L2.5 18.5V6.5L4.5 7" stroke="#2B2B2C" stroke-linecap="round" stroke-linejoin="round"/>
<path fill-rule="evenodd" clip-rule="evenodd" d="M15.5 4C15.7761 4 16 4.22386 16 4.5V4.79456L19.3876 4.01281C19.536 3.97855 19.692 4.01386 19.8113 4.10872C19.9305 4.20357 20 4.34763 20 4.5V6.875L21.5 6.5V18.5L12.1051 19.4889C12.0758 19.4952 12.0455 19.4989 12.0146 19.4998C12.0049 19.5001 11.9951 19.5001 11.9854 19.4998C11.9545 19.4989 11.9242 19.4952 11.8949 19.4889L2.5 18.5V6.5L4 6.875V4.5C4 4.34763 4.06948 4.20357 4.18872 4.10872C4.30797 4.01386 4.46396 3.97855 4.61243 4.01281L9.99462 5.25485C10.7425 5.42743 11.4325 5.78809 12 6.30101C12.5675 5.78809 13.2575 5.42743 14.0054 5.25485L15 5.02533V4.5C15 4.22386 15.2239 4 15.5 4ZM15 12.5V6.05161L14.2302 6.22924C13.5911 6.37675 13.0062 6.7009 12.5424 7.16474L12.5 7.20711V18.3492L19 16.6159V5.12853L16 5.82084V12.5C16 12.7761 15.7761 13 15.5 13C15.2239 13 15 12.7761 15 12.5ZM11.5 7.20711L11.4576 7.16474C10.9938 6.7009 10.4089 6.37675 9.76976 6.22924L5 5.12853V16.6159L11.5 18.3492V7.20711Z" fill="#2B2B2C"/>
</svg>
