<svg width="30" height="30" viewBox="0 0 30 30" fill="none" xmlns="http://www.w3.org/2000/svg">
<path d="M5.5 8.5L3 8V23L15 24.5L27 23V8L24.5 8.5" stroke="#2B2B2C" stroke-linecap="round" stroke-linejoin="round"/>
<path fill-rule="evenodd" clip-rule="evenodd" d="M5.59806 5.00971C5.45117 4.98034 5.29885 5.01836 5.18301 5.11333C5.06716 5.2083 5 5.35021 5 5.5V8.4L3 8V23L14.8769 24.4846C14.9577 24.5051 15.0423 24.5051 15.1231 24.4846L27 23V8L25 8.4V5.5C25 5.35021 24.9328 5.2083 24.817 5.11333C24.7012 5.01836 24.5488 4.98034 24.4019 5.00971L20 5.8901V5.5C20 5.22386 19.7761 5 19.5 5C19.2239 5 19 5.22386 19 5.5V6.0901L18.7332 6.14346C17.4476 6.40057 16.2519 6.99018 15.2653 7.85349L15 8.08562L14.7347 7.85349C13.7481 6.99018 12.5524 6.40057 11.2668 6.14346L5.59806 5.00971ZM19 15.5V7.10991L18.9293 7.12404C17.8152 7.34687 16.7789 7.85786 15.9238 8.60607L15.5 8.97689V23.3514L24 21.1146V6.10991L20 6.90991V15.5C20 15.7761 19.7761 16 19.5 16C19.2239 16 19 15.7761 19 15.5ZM6 21.1146V6.10991L11.0707 7.12404C12.1848 7.34687 13.2211 7.85786 14.0762 8.60607L14.5 8.97689V23.3514L6 21.1146Z" fill="#2B2B2C"/>
</svg>
