<svg width="30" height="30" viewBox="0 0 30 30" fill="none" xmlns="http://www.w3.org/2000/svg">
<path fill-rule="evenodd" clip-rule="evenodd" d="M7.5 4C7.5 3.72386 7.72386 3.5 8 3.5C9.10457 3.5 10 4.39543 10 5.5V8.23247C10 8.35044 10.0209 8.46748 10.0617 8.57818L12.4276 15H17.5C17.7761 15 18 15.2239 18 15.5C18 15.7761 17.7761 16 17.5 16H12.796L13.3486 17.5H21.5C21.6569 17.5 21.8047 17.5736 21.8992 17.6989C21.9937 17.8242 22.0239 17.9865 21.9808 18.1374L21.2398 20.7308C21.0251 21.482 20.3385 22 19.5571 22H16.5V25H19.5C19.7761 25 20 25.2239 20 25.5C20 25.7761 19.7761 26 19.5 26H16H12.5C12.2239 26 12 25.7761 12 25.5C12 25.2239 12.2239 25 12.5 25H15.5V22H12.5C12.2892 22 12.101 21.8677 12.0296 21.6694L7.52956 9.16936C7.51 9.11504 7.5 9.05774 7.5 9V4ZM19.5571 21C19.892 21 20.1863 20.778 20.2783 20.456L20.8371 18.5H11.9514L12.8514 21H19.5571ZM11.5914 17.5H12.2829L9.12331 8.92388C9.04175 8.70249 9 8.46841 9 8.23247V5.5C9 5.12986 8.7989 4.80669 8.5 4.63378V8.91274L11.5914 17.5Z" fill="#2B2B2C"/>
</svg>
