<svg width="18" height="18" viewBox="0 0 18 18" fill="none" xmlns="http://www.w3.org/2000/svg">
<path fill-rule="evenodd" clip-rule="evenodd" d="M5 2C5.27614 2 5.5 2.22386 5.5 2.5V5.91339L6.42379 8.5H10.5C10.7761 8.5 11 8.72386 11 9C11 9.27614 10.7761 9.5 10.5 9.5H6.78093L7.13807 10.5H13C13.154 10.5 13.2993 10.5709 13.3941 10.6923C13.4889 10.8137 13.5224 10.9719 13.4851 11.1213L13.1744 12.3638C13.0075 13.0316 12.4075 13.5 11.7192 13.5H10.5V15H12.5C12.7761 15 13 15.2239 13 15.5C13 15.7761 12.7761 16 12.5 16H7.5C7.22386 16 7 15.7761 7 15.5C7 15.2239 7.22386 15 7.5 15H9.5V13.5H7.5C7.28869 13.5 7.1002 13.3672 7.02913 13.1682L4.52913 6.16817C4.50985 6.1142 4.5 6.05731 4.5 6V2.5C4.5 2.22386 4.72386 2 5 2Z" fill="#2B2B2C"/>
</svg>
