<svg width="24" height="24" viewBox="0 0 24 24" fill="none" xmlns="http://www.w3.org/2000/svg">
<path fill-rule="evenodd" clip-rule="evenodd" d="M7.5 3.5C7.5 3.22386 7.27614 3 7 3C6.72386 3 6.5 3.22386 6.5 3.5V8C6.5 8.06199 6.51153 8.12345 6.534 8.18122L10.034 17.1812C10.1087 17.3734 10.2938 17.5 10.5 17.5H13V20H10.5C10.2239 20 10 20.2239 10 20.5C10 20.7761 10.2239 21 10.5 21H13.5H16.5C16.7761 21 17 20.7761 17 20.5C17 20.2239 16.7761 20 16.5 20H14V17.5H16.1802C16.8952 17.5 17.5108 16.9953 17.6511 16.2942L17.9903 14.5981C18.0197 14.4512 17.9816 14.2988 17.8867 14.183C17.7917 14.0672 17.6498 14 17.5 14H9.86981L9.28648 12.5H14C14.2761 12.5 14.5 12.2761 14.5 12C14.5 11.7239 14.2761 11.5 14 11.5H9C8.96624 11.5 8.93326 11.5033 8.90137 11.5097L7.5 7.9062V3.5Z" fill="#2B2B2C"/>
</svg>
