<svg width="18" height="18" viewBox="0 0 18 18" fill="none" xmlns="http://www.w3.org/2000/svg">
<path fill-rule="evenodd" clip-rule="evenodd" d="M5.5 2.5C5.5 2.22386 5.27614 2 5 2C4.72386 2 4.5 2.22386 4.5 2.5V6C4.5 6.05731 4.50985 6.1142 4.52913 6.16817L7.02913 13.1682C7.1002 13.3672 7.28869 13.5 7.5 13.5H9.5V15H7.5C7.22386 15 7 15.2239 7 15.5C7 15.7761 7.22386 16 7.5 16H12.5C12.7761 16 13 15.7761 13 15.5C13 15.2239 12.7761 15 12.5 15H10.5V13.5H11.7192C12.4075 13.5 13.0075 13.0316 13.1744 12.3638L13.4851 11.1213C13.5224 10.9719 13.4889 10.8137 13.3941 10.6923C13.2993 10.5709 13.154 10.5 13 10.5H7.13807L6.78093 9.5H10.5C10.7761 9.5 11 9.27614 11 9C11 8.72386 10.7761 8.5 10.5 8.5H6.42379L5.5 5.91339V2.5ZM7.85236 12.5L7.49522 11.5H12.3596L12.2043 12.1213C12.1486 12.3439 11.9487 12.5 11.7192 12.5H7.85236Z" fill="#2B2B2C"/>
</svg>
