<svg width="24" height="24" viewBox="0 0 24 24" fill="none" xmlns="http://www.w3.org/2000/svg">
<path fill-rule="evenodd" clip-rule="evenodd" d="M7 3C7.27614 3 7.5 3.22386 7.5 3.5V7.9062L8.90137 11.5097C8.93326 11.5033 8.96624 11.5 9 11.5H14C14.2761 11.5 14.5 11.7239 14.5 12C14.5 12.2761 14.2761 12.5 14 12.5H9.28648L9.86981 14H17.5C17.6498 14 17.7917 14.0672 17.8867 14.183C17.9816 14.2988 18.0197 14.4512 17.9903 14.5981L17.6511 16.2942C17.5108 16.9953 16.8952 17.5 16.1802 17.5H14V20H16.5C16.7761 20 17 20.2239 17 20.5C17 20.7761 16.7761 21 16.5 21H13.5H10.5C10.2239 21 10 20.7761 10 20.5C10 20.2239 10.2239 20 10.5 20H13V17.5H10.5C10.2938 17.5 10.1087 17.3734 10.034 17.1812L6.534 8.18122C6.51153 8.12345 6.5 8.06199 6.5 8V3.5C6.5 3.22386 6.72386 3 7 3ZM10.2587 15L10.842 16.5H16.1802C16.4185 16.5 16.6237 16.3318 16.6705 16.0981L16.8901 15H10.2587Z" fill="#2B2B2C"/>
</svg>
