<svg width="30" height="30" viewBox="0 0 30 30" fill="none" xmlns="http://www.w3.org/2000/svg">
<path fill-rule="evenodd" clip-rule="evenodd" d="M2 7.125C2 6.50368 2.50368 6 3.125 6H4.3812C5.27291 6 6.02202 6.67049 6.12049 7.55674L6.94752 15H10.5C11.3284 15 12 15.6716 12 16.5V19C12 19.3701 11.7989 19.6933 11.5 19.8662V23.5C11.5 23.7761 11.2761 24 11 24H2.5C2.22386 24 2 23.7761 2 23.5V19.5V19V7.125ZM10.5 23V20H3V23H10.5ZM11 19H3V7.125C3 7.05596 3.05596 7 3.125 7H4.3812C4.76336 7 5.08441 7.28735 5.12661 7.66718L6.00306 15.5552C6.03119 15.8084 6.24523 16 6.5 16H10.5C10.7761 16 11 16.2239 11 16.5V19ZM9.5 11C9.5 10.7239 9.72386 10.5 10 10.5H20C20.2761 10.5 20.5 10.7239 20.5 11V11.75C20.5 12.7165 19.7165 13.5 18.75 13.5H15.5V23H16.5C16.7761 23 17 23.2239 17 23.5C17 23.7761 16.7761 24 16.5 24H13.5C13.2239 24 13 23.7761 13 23.5C13 23.2239 13.2239 23 13.5 23H14.5V13.5H11.25C10.2835 13.5 9.5 12.7165 9.5 11.75V11ZM18.75 12.5C19.1642 12.5 19.5 12.1642 19.5 11.75V11.5H10.5V11.75C10.5 12.1642 10.8358 12.5 11.25 12.5H18.75ZM26.875 6C27.4963 6 28 6.50368 28 7.125V19V19.5V23.5C28 23.7761 27.7761 24 27.5 24H19C18.7239 24 18.5 23.7761 18.5 23.5V19.8662C18.2011 19.6933 18 19.3701 18 19V16.5C18 15.6716 18.6716 15 19.5 15H23.0525L23.8795 7.55674C23.978 6.67049 24.7271 6 25.6188 6H26.875ZM19.5 20V23H27V20H19.5ZM27 19V7.125C27 7.05596 26.944 7 26.875 7H25.6188C25.2366 7 24.9156 7.28735 24.8734 7.66718L23.9969 15.5552C23.9688 15.8084 23.7548 16 23.5 16H19.5C19.2239 16 19 16.2239 19 16.5V19H27Z" fill="#2B2B2C"/>
</svg>
