<svg width="18" height="18" viewBox="0 0 18 18" fill="none" xmlns="http://www.w3.org/2000/svg">
<path fill-rule="evenodd" clip-rule="evenodd" d="M1.875 3.5C1.39175 3.5 1 3.89175 1 4.375V12V14C1 14.2761 1.22386 14.5 1.5 14.5H5.5C5.77614 14.5 6 14.2761 6 14V12.5H6.5C6.77614 12.5 7 12.2761 7 12V9.875C7 9.39175 6.60825 9 6.125 9H4V4.75C4 4.05964 3.44036 3.5 2.75 3.5H1.875ZM5 12.5H2V13.5H5V12.5ZM6 7C6 6.72386 6.22386 6.5 6.5 6.5H11.5C11.7761 6.5 12 6.72386 12 7C12 7.27614 11.7761 7.5 11.5 7.5H9.5V14C9.5 14.2761 9.27614 14.5 9 14.5C8.72386 14.5 8.5 14.2761 8.5 14V7.5H6.5C6.22386 7.5 6 7.27614 6 7ZM16.125 3.5C16.6082 3.5 17 3.89175 17 4.375V12V14C17 14.2761 16.7761 14.5 16.5 14.5H12.5C12.2239 14.5 12 14.2761 12 14V12.5H11.5C11.2239 12.5 11 12.2761 11 12V9.875C11 9.39175 11.3918 9 11.875 9H14V4.75C14 4.05964 14.5596 3.5 15.25 3.5H16.125ZM13 12.5H16V13.5H13V12.5Z" fill="#2B2B2C"/>
</svg>
