<svg width="24" height="24" viewBox="0 0 24 24" fill="none" xmlns="http://www.w3.org/2000/svg">
<path fill-rule="evenodd" clip-rule="evenodd" d="M3 5C2.44772 5 2 5.44772 2 6V15.5V18.5C2 18.7761 2.22386 19 2.5 19H8.5C8.77614 19 9 18.7761 9 18.5V16H9.5C9.77614 16 10 15.7761 10 15.5V13C10 12.4477 9.55228 12 9 12H5.96556L5.56507 6.39313C5.509 5.60817 4.85584 5 4.06888 5H3ZM8 16V18H3V16H8ZM8.5 15H9V13H5.5C5.23768 13 5.01996 12.7973 5.00127 12.5356L4.56761 6.46438C4.54892 6.20272 4.3312 6 4.06888 6L3 6V15H8.5ZM8.5 9C8.22386 9 8 9.22386 8 9.5C8 9.77614 8.22386 10 8.5 10H11.5V18.5C11.5 18.7761 11.7239 19 12 19C12.2761 19 12.5 18.7761 12.5 18.5V10H15.5C15.7761 10 16 9.77614 16 9.5C16 9.22386 15.7761 9 15.5 9H8.5ZM22 6C22 5.44772 21.5523 5 21 5H19.9311C19.1442 5 18.491 5.60817 18.4349 6.39313L18.0344 12H15C14.4477 12 14 12.4477 14 13V15.5C14 15.7761 14.2239 16 14.5 16H15V18.5C15 18.7761 15.2239 19 15.5 19H21.5C21.7761 19 22 18.7761 22 18.5V15.5V6ZM21 16H16V18H21V16ZM15.5 15H21V6L19.9311 6C19.6688 6 19.4511 6.20272 19.4324 6.46438L18.9987 12.5356C18.98 12.7973 18.7623 13 18.5 13H15V15H15.5Z" fill="#2B2B2C"/>
</svg>
