<svg width="30" height="30" viewBox="0 0 30 30" fill="none" xmlns="http://www.w3.org/2000/svg">
<path fill-rule="evenodd" clip-rule="evenodd" d="M25 4.5C25 4.22386 24.7761 4 24.5 4C24.2239 4 24 4.22386 24 4.5V13H12.3315C13.0383 12.5023 13.5 11.6801 13.5 10.75V10.6181C13.7654 10.8556 14.1158 11 14.5 11C15.3284 11 16 10.3284 16 9.5C16 8.67157 15.3284 8 14.5 8C14.1158 8 13.7654 8.14443 13.5 8.38195V8C13.5 7.72386 13.2761 7.5 13 7.5H8.5C8.22386 7.5 8 7.72386 8 8V10.75C8 11.6801 8.46172 12.5023 9.16846 13H4.5C4.22386 13 4 13.2239 4 13.5V15.5C4 16.8807 5.11929 18 6.5 18H17.597C18.338 21.0251 20.8045 23.2705 24 23.4834V25.5C24 25.7761 24.2239 26 24.5 26C24.7761 26 25 25.7761 25 25.5V4.5ZM24 22.4807V20.9765C22.1656 20.8014 20.7669 19.6622 20.141 18H18.6311C19.3351 20.4845 21.3808 22.2775 24 22.4807ZM24 19.9707C22.7378 19.8196 21.7613 19.0935 21.2283 18H24V19.9707ZM24 14H5V15.5C5 16.3284 5.67157 17 6.5 17H24V14ZM9 8.5V10.75C9 11.7165 9.7835 12.5 10.75 12.5C11.7165 12.5 12.5 11.7165 12.5 10.75V8.5H9ZM14 9.5C14 9.22386 14.2239 9 14.5 9C14.7761 9 15 9.22386 15 9.5C15 9.77614 14.7761 10 14.5 10C14.2239 10 14 9.77614 14 9.5Z" fill="#2B2B2C"/>
</svg>
