<svg width="18" height="18" viewBox="0 0 18 18" fill="none" xmlns="http://www.w3.org/2000/svg">
<path fill-rule="evenodd" clip-rule="evenodd" d="M8.06063 1.35365C7.47484 0.767859 6.5251 0.767861 5.93931 1.35365L4.64642 2.64654C4.55265 2.74031 4.49997 2.86749 4.49997 3.00009C4.49997 3.1327 4.55265 3.25988 4.64642 3.35365L4.65647 3.3637C5.00794 3.71517 5.00794 4.28502 4.65647 4.63649L4.63637 4.65659C4.2849 5.00806 3.71505 5.00806 3.36358 4.65659L3.35352 4.64654C3.15826 4.45128 2.84168 4.45128 2.64642 4.64654L1.35352 5.93943C0.767738 6.52522 0.767738 7.47497 1.35352 8.06075L2.89241 9.59964C1.75639 10.3053 1 11.5643 1 13C1 15.2091 2.79086 17 5 17C6.4357 17 7.69474 16.2436 8.40036 15.1076L9.93931 16.6465C10.5251 17.2323 11.4748 17.2323 12.0606 16.6465L13.3535 15.3536C13.5488 15.1584 13.5488 14.8418 13.3535 14.6465L13.3435 14.6365C12.992 14.285 12.992 13.7152 13.3435 13.3637L13.3636 13.3436C13.715 12.9921 14.2849 12.9921 14.6364 13.3436L14.6464 13.3536C14.8417 13.5489 15.1583 13.5489 15.3535 13.3536L16.6464 12.0608C17.2322 11.475 17.2322 10.5252 16.6464 9.93943L8.06063 1.35365ZM8.83774 14.1314C8.84308 14.1363 8.84835 14.1414 8.85353 14.1465L10.6464 15.9394C10.8417 16.1347 11.1583 16.1347 11.3535 15.9394L12.3372 14.9558C11.9134 14.2284 12.0131 13.2799 12.6364 12.6566L12.6565 12.6365C13.2797 12.0132 14.2283 11.9135 14.9557 12.3373L15.9393 11.3536C16.1346 11.1584 16.1346 10.8418 15.9393 10.6465L14.0025 8.7097L13.8474 8.8595C13.6488 9.05137 13.3323 9.0459 13.1404 8.8473C12.9485 8.64869 12.954 8.33216 13.1526 8.1403L13.2953 8.00248L7.35352 2.06075C7.15826 1.86549 6.84168 1.86549 6.64642 2.06075L5.66277 3.04441C6.08657 3.77177 5.98684 4.72033 5.36358 5.3436L5.34347 5.3637C4.72021 5.98697 3.77165 6.0867 3.04428 5.66289L2.06063 6.64654C1.86537 6.8418 1.86537 7.15838 2.06063 7.35365L3.85352 9.14654C3.85868 9.1517 3.8637 9.15694 3.86859 9.16226C4.22734 9.05666 4.60705 9 5 9C7.20914 9 9 10.7909 9 13C9 13.3929 8.94334 13.7727 8.83774 14.1314ZM2 13C2 11.3431 3.34315 10 5 10C6.65685 10 8 11.3431 8 13C8 14.6569 6.65685 16 5 16C3.34315 16 2 14.6569 2 13ZM10.6887 12.03C10.8859 11.8367 10.8891 11.5201 10.6959 11.3229C10.5026 11.1257 10.186 11.1225 9.9888 11.3157L9.40995 11.8829C9.21271 12.0762 9.20949 12.3928 9.40276 12.59C9.59603 12.7872 9.91259 12.7904 10.1098 12.5972L10.6887 12.03ZM12.6066 9.37968C12.8055 9.57114 12.8117 9.88766 12.6202 10.0867L12.0257 10.7045C11.8343 10.9035 11.5177 10.9096 11.3187 10.7182C11.1197 10.5267 11.1136 10.2102 11.3051 10.0112L11.8996 9.39332C12.091 9.19433 12.4076 9.18822 12.6066 9.37968ZM5.5 11C5.5 10.7239 5.27614 10.5 5 10.5C4.72386 10.5 4.5 10.7239 4.5 11V13C4.5 13.1326 4.55268 13.2598 4.64645 13.3536L5.64645 14.3536C5.84171 14.5488 6.15829 14.5488 6.35355 14.3536C6.54882 14.1583 6.54882 13.8417 6.35355 13.6464L5.5 12.7929V11Z" fill="#2B2B2C"/>
</svg>
