<svg width="24" height="24" viewBox="0 0 24 24" fill="none" xmlns="http://www.w3.org/2000/svg">
<path fill-rule="evenodd" clip-rule="evenodd" d="M10.5606 2.85352C9.97485 2.26774 9.0251 2.26774 8.43931 2.85352L6.64642 4.64642C6.55265 4.74019 6.49997 4.86736 6.49997 4.99997C6.49997 5.13258 6.55265 5.25976 6.64642 5.35352L6.65647 5.36357C7.00794 5.71505 7.00794 6.2849 6.65647 6.63637L6.63637 6.65647C6.2849 7.00794 5.71505 7.00794 5.36358 6.65647L5.35352 6.64642C5.15826 6.45116 4.84168 6.45116 4.64642 6.64642L2.85352 8.43931C2.26774 9.0251 2.26774 9.97485 2.85352 10.5606L13.4393 21.1464C14.0251 21.7322 14.9748 21.7322 15.5606 21.1464L17.3535 19.3535C17.4473 19.2598 17.5 19.1326 17.5 19C17.5 18.8674 17.4473 18.7402 17.3535 18.6464L17.3435 18.6364C16.992 18.2849 16.992 17.715 17.3435 17.3636L17.3636 17.3435C17.715 16.992 18.2849 16.992 18.6364 17.3435L18.6464 17.3535C18.8417 17.5488 19.1583 17.5488 19.3535 17.3535L21.1464 15.5606C21.7322 14.9748 21.7322 14.0251 21.1464 13.4393L10.5606 2.85352ZM9.14642 3.56063C9.34168 3.36537 9.65826 3.36537 9.85352 3.56063L20.4393 14.1464C20.6346 14.3417 20.6346 14.6583 20.4393 14.8535L18.9557 16.3372C18.2283 15.9134 17.2797 16.0131 16.6565 16.6364L16.6364 16.6565C16.0131 17.2797 15.9134 18.2283 16.3372 18.9557L14.8535 20.4393C14.6583 20.6346 14.3417 20.6346 14.1464 20.4393L3.56063 9.85352C3.36537 9.65826 3.36537 9.34168 3.56063 9.14642L5.04428 7.66276C5.77165 8.08657 6.72021 7.98684 7.34347 7.36358L7.36357 7.34347C7.98684 6.72021 8.08657 5.77165 7.66277 5.04428L9.14642 3.56063ZM9.43474 9.21789C9.58832 9.37147 9.75548 9.45296 9.9195 9.45296C10.0595 9.45296 10.1974 9.39341 10.3217 9.26908C10.5965 8.99536 10.561 8.66209 10.2758 8.37688L9.58309 7.68421L8.74208 8.52523L9.43474 9.21789ZM6.71216 9.46027L9.48907 6.68335L10.8316 8.02479C11.3874 8.5806 11.3947 9.28475 10.866 9.81234C10.608 10.0704 10.3092 10.1999 10.0062 10.1999C9.68862 10.1999 9.36684 10.0579 9.08267 9.77369L8.2918 8.98282L7.26378 10.0119L6.71216 9.46027ZM11.8862 13.343C11.6125 13.343 11.3607 13.2228 11.1445 13.0066L10.6555 12.5176L12.5173 10.6559L13.0062 11.1448C13.4638 11.6024 13.492 12.224 12.8579 12.8582C12.5225 13.1925 12.1913 13.343 11.8862 13.343ZM12.4285 9.64978L9.65049 12.4277L10.7736 13.5498C11.1445 13.9217 11.5655 14.0951 11.9928 14.0951C12.488 14.0951 12.9895 13.8601 13.4251 13.4244C14.2348 12.6158 14.3529 11.5752 13.5505 10.7729L12.4285 9.64978ZM12.7091 15.5006L15.4871 12.7236L17.4386 14.6752L16.98 15.1328L15.58 13.7329L14.8529 14.46L16.1515 15.7586L15.6929 16.2162L14.3943 14.9186L13.2607 16.0522L12.7091 15.5006Z" fill="#2B2B2C"/>
<path d="M8.43931 2.85352L8.40396 2.81817L8.40396 2.81817L8.43931 2.85352ZM10.5606 2.85352L10.5253 2.88888L10.5606 2.85352ZM6.64642 4.64642L6.68177 4.68177L6.64642 4.64642ZM6.65647 5.36357L6.69182 5.32822L6.65647 5.36357ZM6.65647 6.63637L6.69182 6.67172L6.69182 6.67172L6.65647 6.63637ZM6.63637 6.65647L6.60101 6.62111L6.60101 6.62111L6.63637 6.65647ZM4.64642 6.64642L4.68177 6.68177L4.64642 6.64642ZM2.85352 8.43931L2.88888 8.47467L2.85352 8.43931ZM2.85352 10.5606L2.81817 10.596L2.85352 10.5606ZM13.4393 21.1464L13.4747 21.1111L13.4393 21.1464ZM17.3535 19.3535L17.3889 19.3889L17.3535 19.3535ZM17.3535 18.6464L17.3889 18.6111L17.3889 18.6111L17.3535 18.6464ZM17.3435 18.6364L17.3081 18.6717L17.3081 18.6717L17.3435 18.6364ZM17.3435 17.3636L17.3081 17.3282L17.3435 17.3636ZM18.6364 17.3435L18.6717 17.3081L18.6717 17.3081L18.6364 17.3435ZM18.6464 17.3535L18.6111 17.3889L18.6111 17.3889L18.6464 17.3535ZM19.3535 17.3535L19.3889 17.3889L19.3535 17.3535ZM21.1464 15.5606L21.1111 15.5253L21.1464 15.5606ZM21.1464 13.4393L21.1111 13.4747L21.1464 13.4393ZM9.85352 3.56063L9.81817 3.59599L9.85352 3.56063ZM9.14642 3.56063L9.18177 3.59599L9.14642 3.56063ZM20.4393 14.1464L20.4747 14.1111L20.4393 14.1464ZM20.4393 14.8535L20.4747 14.8889L20.4393 14.8535ZM18.9557 16.3372L18.9305 16.3804L18.9638 16.3998L18.991 16.3725L18.9557 16.3372ZM16.3372 18.9557L16.3725 18.991L16.3998 18.9638L16.3804 18.9305L16.3372 18.9557ZM14.8535 20.4393L14.8889 20.4747L14.8535 20.4393ZM14.1464 20.4393L14.1111 20.4747L14.1464 20.4393ZM3.56063 9.85352L3.59599 9.81817L3.56063 9.85352ZM3.56063 9.14642L3.52528 9.11106V9.11106L3.56063 9.14642ZM5.04428 7.66276L5.06946 7.61956L5.03617 7.60017L5.00893 7.62741L5.04428 7.66276ZM7.34347 7.36358L7.37883 7.39893V7.39893L7.34347 7.36358ZM7.36357 7.34347L7.32822 7.30812V7.30812L7.36357 7.34347ZM7.66277 5.04428L7.62741 5.00893L7.60017 5.03617L7.61956 5.06946L7.66277 5.04428ZM9.43474 9.21789L9.4701 9.18254H9.4701L9.43474 9.21789ZM10.3217 9.26908L10.2864 9.23366L10.2864 9.23373L10.3217 9.26908ZM10.2758 8.37688L10.3111 8.34152V8.34152L10.2758 8.37688ZM9.58309 7.68421L9.61845 7.64886L9.58309 7.6135L9.54774 7.64886L9.58309 7.68421ZM8.74208 8.52523L8.70672 8.48987L8.67137 8.52523L8.70672 8.56058L8.74208 8.52523ZM9.48907 6.68335L9.52442 6.64798L9.48906 6.61265L9.45372 6.64799L9.48907 6.68335ZM6.71216 9.46027L6.6768 9.42491L6.64145 9.46027L6.6768 9.49562L6.71216 9.46027ZM10.8316 8.02479L10.8669 7.98944L10.8669 7.98943L10.8316 8.02479ZM10.866 9.81234L10.8307 9.77695L10.8307 9.77699L10.866 9.81234ZM9.08267 9.77369L9.04732 9.80904V9.80904L9.08267 9.77369ZM8.2918 8.98282L8.32716 8.94747L8.29179 8.91209L8.25643 8.94748L8.2918 8.98282ZM7.26378 10.0119L7.22843 10.0472L7.2638 10.0826L7.29915 10.0472L7.26378 10.0119ZM11.1445 13.0066L11.1091 13.0419L11.1445 13.0066ZM10.6555 12.5176L10.6202 12.4823L10.5848 12.5176L10.6202 12.553L10.6555 12.5176ZM12.5173 10.6559L12.5526 10.6205L12.5173 10.5852L12.4819 10.6205L12.5173 10.6559ZM13.0062 11.1448L13.0416 11.1095L13.0062 11.1448ZM12.8579 12.8582L12.8932 12.8936L12.8932 12.8936L12.8579 12.8582ZM9.65049 12.4277L9.61514 12.3924L9.57976 12.4278L9.61515 12.4631L9.65049 12.4277ZM12.4285 9.64978L12.4638 9.61444L12.4285 9.57906L12.3931 9.61443L12.4285 9.64978ZM10.7736 13.5498L10.809 13.5145L10.8089 13.5144L10.7736 13.5498ZM13.4251 13.4244L13.3898 13.389L13.3898 13.3891L13.4251 13.4244ZM13.5505 10.7729L13.5151 10.8082L13.5151 10.8082L13.5505 10.7729ZM15.4871 12.7236L15.5224 12.6883L15.4871 12.6529L15.4517 12.6883L15.4871 12.7236ZM12.7091 15.5006L12.6737 15.4652L12.6384 15.5005L12.6737 15.5359L12.7091 15.5006ZM17.4386 14.6752L17.4739 14.7106L17.5094 14.6752L17.474 14.6399L17.4386 14.6752ZM16.98 15.1328L16.9446 15.1682L16.9799 15.2035L17.0153 15.1682L16.98 15.1328ZM15.58 13.7329L15.6154 13.6975L15.58 13.6621L15.5447 13.6975L15.58 13.7329ZM14.8529 14.46L14.8175 14.4246L14.7822 14.46L14.8175 14.4953L14.8529 14.46ZM16.1515 15.7586L16.1868 15.794L16.2223 15.7586L16.1869 15.7232L16.1515 15.7586ZM15.6929 16.2162L15.6575 16.2516L15.6928 16.2869L15.7282 16.2516L15.6929 16.2162ZM14.3943 14.9186L14.4296 14.8833L14.3942 14.8479L14.3589 14.8833L14.3943 14.9186ZM13.2607 16.0522L13.2254 16.0875L13.2607 16.1229L13.2961 16.0875L13.2607 16.0522ZM8.47467 2.88888C9.04093 2.32262 9.95902 2.32262 10.5253 2.88888L10.596 2.81817C9.99067 2.21286 9.00927 2.21286 8.40396 2.81817L8.47467 2.88888ZM6.68177 4.68177L8.47467 2.88888L8.40396 2.81817L6.61106 4.61106L6.68177 4.68177ZM6.54997 4.99997C6.54997 4.88062 6.59738 4.76616 6.68177 4.68177L6.61106 4.61106C6.50792 4.71421 6.44997 4.8541 6.44997 4.99997H6.54997ZM6.68177 5.31817C6.59738 5.23378 6.54997 5.11932 6.54997 4.99997H6.44997C6.44997 5.14584 6.50792 5.28573 6.61106 5.38888L6.68177 5.31817ZM6.69182 5.32822L6.68177 5.31817L6.61106 5.38888L6.62111 5.39893L6.69182 5.32822ZM6.69182 6.67172C7.06282 6.30072 7.06282 5.69922 6.69182 5.32822L6.62111 5.39893C6.95306 5.73088 6.95306 6.26907 6.62111 6.60101L6.69182 6.67172ZM6.67172 6.69182L6.69182 6.67172L6.62111 6.60101L6.60101 6.62111L6.67172 6.69182ZM5.32822 6.69182C5.69922 7.06282 6.30072 7.06282 6.67172 6.69182L6.60101 6.62111C6.26907 6.95306 5.73088 6.95306 5.39893 6.62111L5.32822 6.69182ZM5.31817 6.68177L5.32822 6.69182L5.39893 6.62111L5.38888 6.61106L5.31817 6.68177ZM4.68177 6.68177C4.85751 6.50604 5.14243 6.50604 5.31817 6.68177L5.38888 6.61106C5.17409 6.39627 4.82585 6.39627 4.61106 6.61106L4.68177 6.68177ZM2.88888 8.47467L4.68177 6.68177L4.61106 6.61106L2.81817 8.40396L2.88888 8.47467ZM2.88888 10.5253C2.32262 9.95902 2.32262 9.04093 2.88888 8.47467L2.81817 8.40396C2.21286 9.00927 2.21286 9.99067 2.81817 10.596L2.88888 10.5253ZM13.4747 21.1111L2.88888 10.5253L2.81817 10.596L13.404 21.1818L13.4747 21.1111ZM15.5253 21.1111C14.959 21.6773 14.0409 21.6773 13.4747 21.1111L13.404 21.1818C14.0093 21.7871 14.9907 21.7871 15.596 21.1818L15.5253 21.1111ZM17.3182 19.3182L15.5253 21.1111L15.596 21.1818L17.3889 19.3889L17.3182 19.3182ZM17.45 19C17.45 19.1193 17.4026 19.2338 17.3182 19.3182L17.3889 19.3889C17.492 19.2857 17.55 19.1458 17.55 19H17.45ZM17.3182 18.6818C17.4026 18.7662 17.45 18.8806 17.45 19H17.55C17.55 18.8541 17.492 18.7142 17.3889 18.6111L17.3182 18.6818ZM17.3081 18.6717L17.3182 18.6818L17.3889 18.6111L17.3788 18.601L17.3081 18.6717ZM17.3081 17.3282C16.9371 17.6992 16.9371 18.3007 17.3081 18.6717L17.3788 18.601C17.0469 18.2691 17.0469 17.7309 17.3788 17.3989L17.3081 17.3282ZM17.3282 17.3081L17.3081 17.3282L17.3788 17.3989L17.3989 17.3788L17.3282 17.3081ZM18.6717 17.3081C18.3007 16.9371 17.6992 16.9371 17.3282 17.3081L17.3989 17.3788C17.7309 17.0469 18.2691 17.0469 18.601 17.3788L18.6717 17.3081ZM18.6818 17.3182L18.6717 17.3081L18.601 17.3788L18.6111 17.3889L18.6818 17.3182ZM19.3182 17.3182C19.1424 17.4939 18.8575 17.4939 18.6818 17.3182L18.6111 17.3889C18.8259 17.6037 19.1741 17.6037 19.3889 17.3889L19.3182 17.3182ZM21.1111 15.5253L19.3182 17.3182L19.3889 17.3889L21.1818 15.596L21.1111 15.5253ZM21.1111 13.4747C21.6773 14.0409 21.6773 14.959 21.1111 15.5253L21.1818 15.596C21.7871 14.9907 21.7871 14.0093 21.1818 13.404L21.1111 13.4747ZM10.5253 2.88888L21.1111 13.4747L21.1818 13.404L10.596 2.81817L10.5253 2.88888ZM9.88888 3.52528C9.67409 3.31049 9.32585 3.31049 9.11106 3.52528L9.18177 3.59599C9.35751 3.42025 9.64243 3.42025 9.81817 3.59599L9.88888 3.52528ZM20.4747 14.1111L9.88888 3.52528L9.81817 3.59599L20.404 14.1818L20.4747 14.1111ZM20.4747 14.8889C20.6895 14.6741 20.6895 14.3259 20.4747 14.1111L20.404 14.1818C20.5797 14.3575 20.5797 14.6424 20.404 14.8182L20.4747 14.8889ZM18.991 16.3725L20.4747 14.8889L20.404 14.8182L18.9203 16.3018L18.991 16.3725ZM16.6918 16.6717C17.2986 16.0649 18.2222 15.9677 18.9305 16.3804L18.9808 16.294C18.2343 15.859 17.2608 15.9613 16.6211 16.601L16.6918 16.6717ZM16.6717 16.6918L16.6918 16.6717L16.6211 16.601L16.601 16.6211L16.6717 16.6918ZM16.3804 18.9305C15.9677 18.2222 16.0649 17.2986 16.6717 16.6918L16.601 16.6211C15.9613 17.2608 15.859 18.2343 16.294 18.9808L16.3804 18.9305ZM14.8889 20.4747L16.3725 18.991L16.3018 18.9203L14.8182 20.404L14.8889 20.4747ZM14.1111 20.4747C14.3259 20.6895 14.6741 20.6895 14.8889 20.4747L14.8182 20.404C14.6424 20.5797 14.3575 20.5797 14.1818 20.404L14.1111 20.4747ZM3.52528 9.88888L14.1111 20.4747L14.1818 20.404L3.59599 9.81817L3.52528 9.88888ZM3.52528 9.11106C3.31049 9.32585 3.31049 9.67409 3.52528 9.88888L3.59599 9.81817C3.42025 9.64243 3.42025 9.35751 3.59599 9.18177L3.52528 9.11106ZM5.00893 7.62741L3.52528 9.11106L3.59599 9.18177L5.07964 7.69812L5.00893 7.62741ZM7.30812 7.32822C6.7013 7.93504 5.7777 8.03223 5.06946 7.61956L5.01911 7.70597C5.76561 8.14092 6.73911 8.03865 7.37883 7.39893L7.30812 7.32822ZM7.32822 7.30812L7.30812 7.32822L7.37883 7.39893L7.39893 7.37883L7.32822 7.30812ZM7.61956 5.06946C8.03223 5.77769 7.93504 6.7013 7.32822 7.30812L7.39893 7.37883C8.03865 6.73911 8.14092 5.76561 7.70597 5.01911L7.61956 5.06946ZM9.11106 3.52528L7.62741 5.00893L7.69812 5.07964L9.18177 3.59599L9.11106 3.52528ZM9.9195 9.40296C9.77271 9.40296 9.61754 9.32998 9.4701 9.18254L9.39939 9.25325C9.5591 9.41296 9.73824 9.50296 9.9195 9.50296V9.40296ZM10.2864 9.23373C10.1698 9.3503 10.0441 9.40296 9.9195 9.40296V9.50296C10.0749 9.50296 10.225 9.43651 10.3571 9.30444L10.2864 9.23373ZM10.2404 8.41223C10.3772 8.54906 10.4497 8.69293 10.4588 8.83061C10.4679 8.96701 10.4154 9.10519 10.2864 9.23366L10.357 9.30451C10.5028 9.15925 10.5699 8.99394 10.5586 8.82397C10.5474 8.65528 10.4595 8.48991 10.3111 8.34152L10.2404 8.41223ZM9.54774 7.71957L10.2404 8.41223L10.3111 8.34152L9.61845 7.64886L9.54774 7.71957ZM8.77744 8.56058L9.61845 7.71957L9.54774 7.64886L8.70672 8.48987L8.77744 8.56058ZM9.4701 9.18254L8.77743 8.48987L8.70672 8.56058L9.39939 9.25325L9.4701 9.18254ZM9.45372 6.64799L6.6768 9.42491L6.74751 9.49562L9.52443 6.71871L9.45372 6.64799ZM10.8669 7.98943L9.52442 6.64798L9.45373 6.71872L10.7962 8.06016L10.8669 7.98943ZM10.9014 9.84773C11.1739 9.57576 11.3109 9.25521 11.3055 8.92831C11.3 8.60163 11.1523 8.27479 10.8669 7.98944L10.7962 8.06015C11.0667 8.3306 11.2005 8.63374 11.2055 8.92999C11.2104 9.22601 11.0868 9.52134 10.8307 9.77695L10.9014 9.84773ZM10.0062 10.2499C10.3243 10.2499 10.6354 10.1137 10.9014 9.8477L10.8307 9.77699C10.5806 10.0271 10.294 10.1499 10.0062 10.1499V10.2499ZM9.04732 9.80904C9.33898 10.1007 9.67291 10.2499 10.0062 10.2499V10.1499C9.70433 10.1499 9.3947 10.015 9.11803 9.73833L9.04732 9.80904ZM8.25645 9.01818L9.04732 9.80904L9.11803 9.73833L8.32716 8.94747L8.25645 9.01818ZM7.29915 10.0472L8.32718 9.01816L8.25643 8.94748L7.22841 9.97655L7.29915 10.0472ZM6.6768 9.49562L7.22843 10.0472L7.29914 9.97653L6.74751 9.42491L6.6768 9.49562ZM11.1091 13.0419C11.3327 13.2655 11.5967 13.393 11.8862 13.393V13.293C11.6284 13.293 11.3888 13.1801 11.1798 12.9712L11.1091 13.0419ZM10.6202 12.553L11.1091 13.0419L11.1798 12.9712L10.6909 12.4823L10.6202 12.553ZM12.4819 10.6205L10.6202 12.4823L10.6909 12.553L12.5526 10.6912L12.4819 10.6205ZM13.0416 11.1095L12.5526 10.6205L12.4819 10.6912L12.9709 11.1802L13.0416 11.1095ZM12.8932 12.8936C13.216 12.5708 13.3755 12.2458 13.3914 11.9379C13.4073 11.6291 13.2782 11.3461 13.0416 11.1095L12.9709 11.1802C13.1918 11.4011 13.3057 11.6578 13.2915 11.9327C13.2773 12.2086 13.1339 12.5115 12.8225 12.8228L12.8932 12.8936ZM11.8862 13.393C12.2087 13.393 12.5518 13.2339 12.8932 12.8936L12.8226 12.8228C12.4932 13.1511 12.174 13.293 11.8862 13.293V13.393ZM9.68585 12.4631L12.4638 9.68514L12.3931 9.61443L9.61514 12.3924L9.68585 12.4631ZM10.8089 13.5144L9.68583 12.3924L9.61515 12.4631L10.7382 13.5852L10.8089 13.5144ZM11.9928 14.0451C11.5802 14.0451 11.1715 13.878 10.809 13.5145L10.7382 13.5851C11.1174 13.9654 11.5508 14.1451 11.9928 14.1451V14.0451ZM13.3898 13.3891C12.9611 13.8178 12.4717 14.0451 11.9928 14.0451V14.1451C12.5044 14.1451 13.0179 13.9024 13.4605 13.4598L13.3898 13.3891ZM13.5151 10.8082C13.9072 11.2003 14.0718 11.6473 14.0424 12.093C14.013 12.5398 13.7881 12.9912 13.3898 13.389L13.4605 13.4598C13.8718 13.049 14.1108 12.5759 14.1422 12.0996C14.1737 11.6222 13.9961 11.1478 13.5859 10.7375L13.5151 10.8082ZM12.3931 9.68512L13.5151 10.8082L13.5859 10.7375L12.4638 9.61444L12.3931 9.68512ZM15.4517 12.6883L12.6737 15.4652L12.7444 15.5359L15.5224 12.759L15.4517 12.6883ZM17.474 14.6399L15.5224 12.6883L15.4517 12.759L17.4033 14.7106L17.474 14.6399ZM17.0153 15.1682L17.4739 14.7106L17.4033 14.6398L16.9447 15.0974L17.0153 15.1682ZM15.5447 13.7682L16.9446 15.1682L17.0153 15.0974L15.6154 13.6975L15.5447 13.7682ZM14.8883 14.4953L15.6154 13.7682L15.5447 13.6975L14.8175 14.4246L14.8883 14.4953ZM16.1869 15.7232L14.8883 14.4246L14.8175 14.4953L16.1162 15.794L16.1869 15.7232ZM15.7282 16.2516L16.1868 15.794L16.1162 15.7232L15.6576 16.1808L15.7282 16.2516ZM14.3589 14.954L15.6575 16.2516L15.7282 16.1808L14.4296 14.8833L14.3589 14.954ZM13.2961 16.0875L14.4296 14.954L14.3589 14.8833L13.2254 16.0168L13.2961 16.0875ZM12.6737 15.5359L13.2254 16.0875L13.2961 16.0168L12.7445 15.4652L12.6737 15.5359Z" fill="#2B2B2C"/>
</svg>
