<svg width="18" height="18" viewBox="0 0 18 18" fill="none" xmlns="http://www.w3.org/2000/svg">
<path fill-rule="evenodd" clip-rule="evenodd" d="M5.93931 1.35365C6.5251 0.767861 7.47484 0.767859 8.06063 1.35365L16.6464 9.93943C17.2322 10.5252 17.2322 11.475 16.6464 12.0608L15.3535 13.3536C15.1583 13.5489 14.8417 13.5489 14.6464 13.3536L14.6364 13.3436C14.2849 12.9921 13.715 12.9921 13.3636 13.3436L13.3435 13.3637C12.992 13.7152 12.992 14.285 13.3435 14.6365L13.3535 14.6465C13.5488 14.8418 13.5488 15.1584 13.3535 15.3536L12.0606 16.6465C11.4748 17.2323 10.5251 17.2323 9.93931 16.6465L1.35352 8.06075C0.767738 7.47497 0.767738 6.52522 1.35352 5.93943L2.64642 4.64654C2.74019 4.55277 2.86736 4.50009 2.99997 4.50009C3.13258 4.50009 3.25976 4.55277 3.35352 4.64654L3.36358 4.65659C3.71505 5.00806 4.2849 5.00806 4.63637 4.65659L4.65647 4.63649C5.00794 4.28502 5.00794 3.71517 4.65647 3.3637L4.64642 3.35365C4.45116 3.15838 4.45116 2.8418 4.64642 2.64654L5.93931 1.35365ZM13.7295 8.98727C13.9271 8.79429 13.9307 8.47773 13.7378 8.28021C13.5448 8.08269 13.2282 8.07901 13.0307 8.27199L12.3527 8.93437C12.1552 9.12735 12.1515 9.44391 12.3445 9.64143C12.5375 9.83895 12.8541 9.84263 13.0516 9.64965L13.7295 8.98727ZM9.66031 12.3539C9.85432 12.5505 9.85231 12.867 9.65581 13.061L9.04018 13.6689C8.84368 13.8629 8.5271 13.8609 8.33309 13.6644C8.13907 13.4679 8.14109 13.1513 8.33759 12.9573L8.95322 12.3494C9.14972 12.1554 9.4663 12.1574 9.66031 12.3539ZM11.7733 10.9436C11.9666 10.7465 11.9636 10.4299 11.7665 10.2365C11.5694 10.0431 11.2528 10.0461 11.0594 10.2432L10.249 11.0693C10.0556 11.2664 10.0586 11.5829 10.2557 11.7763C10.4528 11.9697 10.7694 11.9667 10.9628 11.7696L11.7733 10.9436Z" fill="#2B2B2C"/>
</svg>
