<svg width="18" height="18" viewBox="0 0 18 18" fill="none" xmlns="http://www.w3.org/2000/svg">
<path fill-rule="evenodd" clip-rule="evenodd" d="M9 2.5C5.41015 2.5 2.5 5.41015 2.5 9C2.5 10.9253 3.33703 12.655 4.66703 13.8452L5.20836 11.9506C5.45368 11.092 6.23845 10.5 7.13141 10.5H10.8685C11.7615 10.5 12.5462 11.092 12.7916 11.9506L13.3329 13.8453C14.6629 12.6551 15.5 10.9253 15.5 9C15.5 5.41015 12.5899 2.5 9 2.5ZM9.91436 15.4362L9.62938 13.4414C9.50973 13.4795 9.38226 13.5 9.25 13.5H8.75C8.61772 13.5 8.49024 13.4795 8.37058 13.4414L8.08561 15.4362C8.38436 15.4782 8.68964 15.5 9 15.5C9.31035 15.5 9.61561 15.4783 9.91436 15.4362ZM8.5 12.25V11.5H9.5V12.25C9.5 12.3881 9.38807 12.5 9.25 12.5H8.75C8.61193 12.5 8.5 12.3881 8.5 12.25ZM1.5 9C1.5 4.85786 4.85786 1.5 9 1.5C13.1421 1.5 16.5 4.85786 16.5 9C16.5 13.1421 13.1421 16.5 9 16.5C4.85786 16.5 1.5 13.1421 1.5 9ZM5.5 6.5H6.35366C6.28614 6.73861 6.25 6.99027 6.25 7.25005C6.25 8.76884 7.48122 10.0001 9 10.0001C10.5188 10.0001 11.75 8.76884 11.75 7.25005C11.75 6.83488 11.6577 6.44044 11.4925 6.08688C11.4974 6.05866 11.5 6.02963 11.5 6V5C11.5 4.44772 11.0523 4 10.5 4H7.5C6.94772 4 6.5 4.44772 6.5 5V5.5H5.5C5.22386 5.5 5 5.72386 5 6C5 6.27614 5.22386 6.5 5.5 6.5ZM7.25 7.25005C7.25 6.98107 7.31038 6.72704 7.4183 6.5H10.5817C10.6896 6.72704 10.75 6.98107 10.75 7.25005C10.75 8.21655 9.9665 9.00005 9 9.00005C8.0335 9.00005 7.25 8.21655 7.25 7.25005Z" fill="#2B2B2C"/>
</svg>
