<svg width="18" height="18" viewBox="0 0 18 18" fill="none" xmlns="http://www.w3.org/2000/svg">
<path fill-rule="evenodd" clip-rule="evenodd" d="M5.93931 1.35352C6.5251 0.767739 7.47484 0.767737 8.06063 1.35352L16.6464 9.93931C17.2322 10.5251 17.2322 11.4748 16.6464 12.0606L15.3535 13.3535C15.1583 13.5488 14.8417 13.5488 14.6464 13.3535L14.6364 13.3435C14.2849 12.992 13.715 12.992 13.3636 13.3435L13.3435 13.3636C12.992 13.715 12.992 14.2849 13.3435 14.6364L13.3535 14.6464C13.5488 14.8417 13.5488 15.1583 13.3535 15.3535L12.0606 16.6464C11.4748 17.2322 10.5251 17.2322 9.93931 16.6464L1.35352 8.06063C0.767738 7.47484 0.767738 6.5251 1.35352 5.93931L2.64642 4.64642C2.74019 4.55265 2.86736 4.49997 2.99997 4.49997C3.13258 4.49997 3.25976 4.55265 3.35353 4.64642L3.36358 4.65647C3.71505 5.00794 4.2849 5.00794 4.63637 4.65647L4.65647 4.63637C5.00794 4.2849 5.00794 3.71505 4.65647 3.36358L4.64642 3.35352C4.45116 3.15826 4.45116 2.84168 4.64642 2.64642L5.93931 1.35352ZM7.35352 2.06063C7.15826 1.86537 6.84168 1.86537 6.64642 2.06063L5.66277 3.04428C6.08657 3.77165 5.98684 4.72021 5.36358 5.34347L5.34347 5.36358C4.72021 5.98684 3.77165 6.08657 3.04429 5.66277L2.06063 6.64642C1.86537 6.84168 1.86537 7.15826 2.06063 7.35352L10.6464 15.9393C10.8417 16.1346 11.1583 16.1346 11.3535 15.9393L12.3372 14.9557C11.9134 14.2283 12.0131 13.2797 12.6364 12.6565L12.6565 12.6364C13.2797 12.0131 14.2283 11.9134 14.9557 12.3372L15.9393 11.3535C16.1346 11.1583 16.1346 10.8417 15.9393 10.6464L7.35352 2.06063ZM8.15013 5.76512L7.07253 4.68835L4.84595 6.91493L5.34493 7.41392L6.14305 6.61499L6.72167 7.19362C6.94978 7.42172 7.21175 7.53919 7.47403 7.53919C7.72438 7.53919 7.9686 7.43193 8.17688 7.22366C8.39028 7.01068 8.4982 6.759 8.49388 6.50176C8.48957 6.24473 8.37333 5.98832 8.15013 5.76512ZM7.06569 6.6914L6.56329 6.189L7.14551 5.60678L7.64791 6.10918C7.75284 6.21411 7.80737 6.32341 7.81425 6.42683C7.82104 6.52897 7.78183 6.63328 7.6836 6.73114C7.59483 6.81991 7.49997 6.85925 7.40668 6.85925C7.29658 6.85925 7.17879 6.8045 7.06569 6.6914ZM10.2591 7.89375L9.35268 6.98645L7.12524 9.21389L8.03254 10.1203C8.32882 10.4174 8.66805 10.5584 9.01444 10.5584C9.41525 10.5584 9.81664 10.3682 10.1618 10.023C10.4826 9.70263 10.6697 9.3329 10.6943 8.95984C10.719 8.58572 10.5797 8.21431 10.2591 7.89375ZM8.39121 9.62788L8.04697 9.28364L9.42162 7.90899L9.76586 8.25322C9.93562 8.42298 10.0223 8.61929 10.0115 8.82899C10.0007 9.03952 9.89115 9.27222 9.65074 9.51265C9.39636 9.76623 9.15121 9.8744 8.93173 9.8744C8.7351 9.8744 8.55175 9.78843 8.39121 9.62788ZM13.3049 10.891L11.719 9.30518L9.49158 11.5318L9.99055 12.0307L10.8706 11.1507L11.8787 12.158L12.3056 11.7321L11.2974 10.7239L11.7912 10.2301L12.878 11.3169L13.3049 10.891Z" fill="#2B2B2C"/>
</svg>
