<svg width="30" height="30" viewBox="0 0 30 30" fill="none" xmlns="http://www.w3.org/2000/svg">
<path fill-rule="evenodd" clip-rule="evenodd" d="M13.4158 2.70859C12.6339 1.92674 11.366 1.92766 10.5853 2.71065L7.95172 5.35186C7.75897 5.54518 7.7569 5.85737 7.94708 6.05322L8.19131 6.30475C8.68895 6.81723 8.67837 7.63567 8.16766 8.13513C7.66649 8.62526 6.86653 8.62835 6.36158 8.14211L6.11498 7.90464C5.91933 7.71624 5.60906 7.71848 5.41616 7.90969L2.71802 10.5842C1.9311 11.3642 1.9283 12.6354 2.71178 13.4188L16.5792 27.2863C17.3637 28.0707 18.6367 28.0668 19.4163 27.2775L22.0688 24.5921C22.2563 24.4023 22.2617 24.0987 22.0811 23.9023L21.8687 23.6713C21.3867 23.1472 21.4048 22.336 21.9097 21.834C22.3981 21.3483 23.1771 21.3175 23.7023 21.7633L24.0417 22.0514C24.2409 22.2204 24.5367 22.2076 24.7205 22.022L27.3049 19.4124C28.0795 18.6303 28.0764 17.3692 27.298 16.5909L13.4158 2.70859ZM11.2934 3.41672C11.6838 3.02523 12.3177 3.02477 12.7086 3.4157L26.5909 17.298C26.9801 17.6872 26.9816 18.3177 26.5944 18.7087L24.3358 20.9894C23.4147 20.2195 22.0572 20.277 21.2046 21.1249C20.3577 21.967 20.2915 23.305 21.0264 24.2244L18.7049 26.5748C18.3151 26.9694 17.6786 26.9714 17.2863 26.5792L3.41889 12.7117C3.02715 12.32 3.02855 11.6844 3.42201 11.2944L5.77647 8.96057C6.67357 9.72187 8.0143 9.68384 8.86685 8.85006C9.73745 7.99864 9.78749 6.62388 9.00421 5.71259L11.2934 3.41672ZM11.8759 11.7203C12.0844 11.9288 12.3114 12.0395 12.5341 12.0395C12.7241 12.0395 12.9114 11.9586 13.0802 11.7898C13.4532 11.4182 13.405 10.9657 13.0177 10.5785L12.0774 9.63812L10.9355 10.7799L11.8759 11.7203ZM8.17963 12.0494L11.9497 8.2793L13.7723 10.1005C14.5269 10.8551 14.5369 11.8111 13.8192 12.5274C13.4688 12.8777 13.0631 13.0536 12.6518 13.0536C12.2206 13.0536 11.7838 12.8607 11.398 12.4749L10.3242 11.4012L8.92854 12.7983L8.17963 12.0494ZM14.8135 16.8909C14.4418 16.8909 14.1 16.7278 13.8064 16.4342L13.1426 15.7704L15.6702 13.2428L16.334 13.9066C16.9552 14.5279 16.9935 15.3718 16.1326 16.2328C15.6773 16.6867 15.2276 16.8909 14.8135 16.8909ZM15.5496 11.8769L11.7781 15.6484L13.3029 17.1717C13.8064 17.6767 14.378 17.9121 14.9581 17.9121C15.6304 17.9121 16.3113 17.593 16.9027 17.0015C18.002 15.9037 18.1623 14.491 17.073 13.4016L15.5496 11.8769ZM15.5789 19.449L19.3504 15.6789L22 18.3284L21.3773 18.9497L19.4767 17.0491L18.4895 18.0363L20.2525 19.7993L19.6299 20.4206L17.8668 18.6589L16.3279 20.1979L15.5789 19.449Z" fill="#2B2B2C"/>
</svg>
