<svg width="30" height="30" viewBox="0 0 30 30" fill="none" xmlns="http://www.w3.org/2000/svg">
<path fill-rule="evenodd" clip-rule="evenodd" d="M13.4158 2.70859C12.6339 1.92674 11.366 1.92766 10.5853 2.71065L7.95172 5.35186C7.75897 5.54518 7.7569 5.85737 7.94708 6.05322L8.19131 6.30475C8.68895 6.81723 8.67837 7.63567 8.16766 8.13513C7.66649 8.62526 6.86653 8.62835 6.36158 8.14211L6.11498 7.90464C5.91933 7.71624 5.60906 7.71848 5.41616 7.90969L2.71802 10.5842C1.9311 11.3642 1.9283 12.6353 2.71178 13.4188L5.73514 16.4422C3.54415 17.3359 2.00001 19.4876 2.00001 22C2.00001 25.3137 4.6863 28 8.00001 28C10.5124 28 12.6641 26.4559 13.5578 24.2649L16.5792 27.2863C17.3637 28.0707 18.6367 28.0668 19.4163 27.2775L22.0688 24.5921C22.2563 24.4023 22.2617 24.0987 22.0811 23.9023L21.8687 23.6713C21.3867 23.1472 21.4048 22.336 21.9097 21.834C22.3981 21.3483 23.1771 21.3175 23.7023 21.7633L24.0417 22.0514C24.2409 22.2204 24.5367 22.2076 24.7205 22.022L27.3049 19.4124C28.0795 18.6303 28.0764 17.3692 27.298 16.5909L13.4158 2.70859ZM13.9926 22.3003L14.6464 21.6464C14.8417 21.4512 15.1583 21.4512 15.3536 21.6464C15.5488 21.8417 15.5488 22.1583 15.3536 22.3536L14.3536 23.3536C14.3013 23.4058 14.2404 23.444 14.1755 23.4683L17.2863 26.5792C17.6786 26.9714 18.3151 26.9694 18.7049 26.5748L21.0264 24.2244C20.2915 23.305 20.3577 21.967 21.2046 21.1249C22.0572 20.277 23.4147 20.2195 24.3358 20.9894L26.5944 18.7087C26.9816 18.3177 26.9801 17.6872 26.5909 17.298L23.4684 14.1754C23.4441 14.2404 23.4058 14.3013 23.3536 14.3536L22.3536 15.3536C22.1583 15.5488 21.8417 15.5488 21.6464 15.3536C21.4512 15.1583 21.4512 14.8417 21.6464 14.6464L22.6464 13.6464C22.6987 13.5942 22.7596 13.5559 22.8246 13.5316L12.7086 3.4157C12.3177 3.02477 11.6838 3.02523 11.2934 3.41672L9.00421 5.71259C9.78749 6.62388 9.73745 7.99864 8.86685 8.85006C8.0143 9.68384 6.67357 9.72187 5.77647 8.96057L3.42201 11.2944C3.02855 11.6844 3.02715 12.32 3.41889 12.7117L6.82264 16.1155C7.20335 16.0397 7.59704 16 8.00001 16C11.3137 16 14 18.6863 14 22C14 22.1007 13.9975 22.2008 13.9926 22.3003ZM18.0156 18.9993C18.2099 19.1955 18.2083 19.512 18.0121 19.7064L16.8518 20.8553C16.6556 21.0496 16.339 21.0481 16.1447 20.8519C15.9504 20.6556 15.952 20.3391 16.1482 20.1448L17.3085 18.9958C17.5047 18.8015 17.8212 18.803 18.0156 18.9993ZM20.8519 16.8552C21.0481 16.6608 21.0495 16.3442 20.8552 16.1481C20.6608 15.9519 20.3442 15.9505 20.1481 16.1448L18.9665 17.3157C18.7704 17.5101 18.7689 17.8267 18.9633 18.0228C19.1577 18.219 19.4743 18.2204 19.6704 18.026L20.8519 16.8552ZM3.00001 22C3.00001 19.2386 5.23859 17 8.00001 17C10.7614 17 13 19.2386 13 22C13 24.7614 10.7614 27 8.00001 27C5.23859 27 3.00001 24.7614 3.00001 22ZM8.67082 19.8944C8.24853 19.6833 7.75147 19.6833 7.32918 19.8944C6.821 20.1485 6.5 20.6679 6.5 21.2361V21.3424C6.5 21.6725 6.59771 21.9952 6.78081 22.2698L8 24.0986L9.21919 22.2698C9.40229 21.9952 9.5 21.6725 9.5 21.3424V21.2361C9.5 20.6679 9.179 20.1485 8.67082 19.8944ZM6.88197 19C7.58578 18.6481 8.41422 18.6481 9.11803 19C9.96499 19.4235 10.5 20.2892 10.5 21.2361V21.3424C10.5 21.8699 10.3439 22.3856 10.0512 22.8245L8.41603 25.2774C8.32329 25.4165 8.16718 25.5 8 25.5C7.83282 25.5 7.67671 25.4165 7.58397 25.2774L5.94876 22.8245C5.65615 22.3856 5.5 21.8699 5.5 21.3424V21.2361C5.5 20.2892 6.03501 19.4235 6.88197 19ZM8 22C8.41421 22 8.75 21.6642 8.75 21.25C8.75 20.8358 8.41421 20.5 8 20.5C7.58579 20.5 7.25 20.8358 7.25 21.25C7.25 21.6642 7.58579 22 8 22Z" fill="#2B2B2C"/>
</svg>
