<svg width="30" height="30" viewBox="0 0 30 30" fill="none" xmlns="http://www.w3.org/2000/svg">
<path fill-rule="evenodd" clip-rule="evenodd" d="M10.5853 2.71065C11.366 1.92766 12.6339 1.92674 13.4158 2.70859L27.298 16.5909C28.0764 17.3692 28.0795 18.6303 27.3049 19.4124L24.7205 22.022C24.5367 22.2076 24.2409 22.2204 24.0417 22.0514L23.7023 21.7633C23.1771 21.3175 22.3981 21.3483 21.9097 21.834C21.4048 22.336 21.3867 23.1472 21.8687 23.6713L22.0811 23.9023C22.2617 24.0987 22.2563 24.4023 22.0688 24.5921L19.4164 27.2775C18.6368 28.0668 17.3637 28.0707 16.5792 27.2863L13.5578 24.2649C12.6641 26.4559 10.5124 28 8 28C4.68629 28 2 25.3137 2 22C2 18.6863 4.68629 16 8 16C10.6606 16 12.9168 17.7318 13.7028 20.1296C12.9168 17.7317 10.6606 15.9999 8.00001 15.9999C7.19864 15.9999 6.43396 16.157 5.7351 16.4421L2.71179 13.4188C1.92831 12.6354 1.93111 11.3642 2.71803 10.5842L5.41617 7.90969C5.60907 7.71848 5.91934 7.71624 6.11499 7.90464L6.36159 8.14211C6.86654 8.62835 7.6665 8.62526 8.16767 8.13513C8.67838 7.63567 8.68896 6.81723 8.19132 6.30475L7.94709 6.05322C7.75691 5.85737 7.75898 5.54518 7.95173 5.35186L10.5853 2.71065ZM14.3536 23.3535C14.2092 23.4979 13.9985 23.5355 13.8195 23.4664C13.9139 23.0905 13.9729 22.7005 13.9926 22.3002L14.6465 21.6464C14.8417 21.4511 15.1583 21.4511 15.3536 21.6464C15.5488 21.8416 15.5488 22.1582 15.3536 22.3535L14.3536 23.3535ZM18.0156 18.9991C18.2099 19.1954 18.2083 19.5119 18.0121 19.7062L16.8518 20.8552C16.6556 21.0495 16.339 21.048 16.1447 20.8518C15.9504 20.6555 15.952 20.339 16.1482 20.1447L17.3085 18.9957C17.5047 18.8014 17.8213 18.8029 18.0156 18.9991ZM20.852 16.8551C21.0481 16.6607 21.0495 16.3441 20.8552 16.148C20.6608 15.9518 20.3442 15.9504 20.1481 16.1448L18.9665 17.3157C18.7704 17.51 18.7689 17.8266 18.9633 18.0228C19.1577 18.2189 19.4743 18.2203 19.6704 18.026L20.852 16.8551ZM23.3536 13.6464C23.5488 13.8416 23.5488 14.1582 23.3536 14.3535L22.3536 15.3535C22.1583 15.5488 21.8417 15.5488 21.6465 15.3535C21.4512 15.1582 21.4512 14.8416 21.6465 14.6464L22.6465 13.6464C22.8417 13.4511 23.1583 13.4511 23.3536 13.6464ZM8 17C5.23858 17 3 19.2386 3 22C3 24.7614 5.23858 27 8 27C10.7614 27 13 24.7614 13 22C13 19.2386 10.7614 17 8 17ZM8.5 19C8.5 18.7239 8.27614 18.5 8 18.5C7.72386 18.5 7.5 18.7239 7.5 19V21.5H5C4.72386 21.5 4.5 21.7239 4.5 22C4.5 22.2761 4.72386 22.5 5 22.5H7.5V25C7.5 25.2761 7.72386 25.5 8 25.5C8.27614 25.5 8.5 25.2761 8.5 25V22.5H11C11.2761 22.5 11.5 22.2761 11.5 22C11.5 21.7239 11.2761 21.5 11 21.5H8.5V19Z" fill="#2B2B2C"/>
</svg>
