<svg width="24" height="24" viewBox="0 0 24 24" fill="none" xmlns="http://www.w3.org/2000/svg">
<path fill-rule="evenodd" clip-rule="evenodd" d="M4 12C4 7.58172 7.58172 4 12 4C16.4183 4 20 7.58172 20 12C20 14.1231 19.1729 16.0531 17.8234 17.4853L16.8492 15.2122C16.534 14.4768 15.811 14 15.0109 14H8.9891C8.18904 14 7.46597 14.4768 7.15081 15.2122L6.17661 17.4853C4.82707 16.0531 4 14.1231 4 12ZM11.5 15.75V15H12.5V15.75C12.5 15.8881 12.3881 16 12.25 16H11.75C11.6119 16 11.5 15.8881 11.5 15.75ZM12.5608 16.9611C12.4614 16.9865 12.3573 17 12.25 17H11.75C11.6427 17 11.5386 16.9865 11.4392 16.9611L11.0137 19.9398C11.3369 19.9795 11.666 20 12 20C12.3339 20 12.6631 19.9795 12.9863 19.9398L12.5608 16.9611ZM12 3C7.02944 3 3 7.02944 3 12C3 16.9706 7.02944 21 12 21C16.9706 21 21 16.9706 21 12C21 7.02944 16.9706 3 12 3ZM10.1288 8.5C9.8894 8.85751 9.75 9.28701 9.75 9.75003C9.75 10.9927 10.7574 12 12 12C13.2426 12 14.25 10.9927 14.25 9.75003C14.25 9.28701 14.1106 8.85751 13.8712 8.5H10.1288ZM8.99924 8.5C8.83871 8.88494 8.75 9.30734 8.75 9.75003C8.75 11.545 10.2051 13 12 13C13.7949 13 15.25 11.545 15.25 9.75003C15.25 9.22633 15.1258 8.73103 14.9055 8.29255C14.965 8.2103 15 8.10924 15 8V6.5C15 5.94772 14.5523 5.5 14 5.5H10C9.44772 5.5 9 5.94772 9 6.5V7.5H7.5C7.22386 7.5 7 7.72386 7 8C7 8.27614 7.22386 8.5 7.5 8.5H8.99924Z" fill="#2B2B2C"/>
</svg>
