<svg width="30" height="30" viewBox="0 0 30 30" fill="none" xmlns="http://www.w3.org/2000/svg">
<path fill-rule="evenodd" clip-rule="evenodd" d="M15 4C8.92487 4 4 8.92487 4 15C4 18.285 5.43999 21.2337 7.72319 23.2493L8.84188 19.8932C9.31828 18.464 10.6558 17.5 12.1623 17.5H13.5H16.5H17.8377C19.3442 17.5 20.6817 18.464 21.1581 19.8932L22.2768 23.2493C24.56 21.2337 26 18.285 26 15C26 8.92487 21.0751 4 15 4ZM15.5 20C15.7761 20 16 19.7761 16 19.5V18.5H14V19.5C14 19.7761 14.2239 20 14.5 20H15.5ZM13.526 25.9021L14.4177 20.9978C14.4449 20.9993 14.4724 21 14.5 21H15.5C15.5276 21 15.5551 20.9993 15.5823 20.9978L16.474 25.9021C15.9919 25.9667 15.4998 26 15 26C14.5002 26 14.0081 25.9667 13.526 25.9021ZM3 15C3 8.37258 8.37258 3 15 3C21.6274 3 27 8.37258 27 15C27 21.6274 21.6274 27 15 27C8.37258 27 3 21.6274 3 15ZM11.8367 10C11.6207 10.4546 11.5 10.9631 11.5 11.5C11.5 13.433 13.067 15 15 15C16.933 15 18.5 13.433 18.5 11.5C18.5 10.9628 18.3793 10.4545 18.1633 10H11.8367ZM10.7562 10C10.5903 10.4692 10.5 10.9741 10.5 11.5C10.5 13.9853 12.5147 16 15 16C17.4853 16 19.5 13.9853 19.5 11.5C19.5 10.7567 19.3195 10.0549 19 9.43664V8C19 7.17157 18.3284 6.5 17.5 6.5H12.5C11.6716 6.5 11 7.17157 11 8V9H9.5C9.22386 9 9 9.22386 9 9.5C9 9.77614 9.22386 10 9.5 10H10.7562Z" fill="#2B2B2C"/>
</svg>
