<svg width="24" height="24" viewBox="0 0 24 24" fill="none" xmlns="http://www.w3.org/2000/svg">
<path fill-rule="evenodd" clip-rule="evenodd" d="M8.43931 2.85352C9.0251 2.26774 9.97485 2.26774 10.5606 2.85352L21.1464 13.4393C21.7322 14.0251 21.7322 14.9748 21.1464 15.5606L19.3535 17.3535C19.2598 17.4473 19.1326 17.5 19 17.5C18.8673 17.5 18.7402 17.4473 18.6464 17.3535L18.6364 17.3435L18.6364 17.3435C18.2849 16.992 17.715 16.992 17.3636 17.3435L17.3435 17.3636C16.992 17.715 16.992 18.2849 17.3435 18.6364L17.3435 18.6364L17.3535 18.6464C17.4473 18.7402 17.5 18.8673 17.5 19C17.5 19.1326 17.4473 19.2598 17.3535 19.3535L15.5606 21.1464C14.9748 21.7322 14.0251 21.7322 13.4393 21.1464L2.85352 10.5606C2.26774 9.97485 2.26774 9.0251 2.85352 8.43931L4.64642 6.64642C4.84168 6.45116 5.15826 6.45116 5.35352 6.64642L5.36358 6.65647C5.71505 7.00794 6.2849 7.00794 6.63637 6.65647L6.65647 6.63637C7.00794 6.2849 7.00794 5.71505 6.65647 5.36357L6.64642 5.35352C6.55265 5.25976 6.49997 5.13258 6.49997 4.99997C6.49997 4.86736 6.55265 4.74019 6.64642 4.64642L8.43931 2.85352ZM9.43474 9.21792C9.58832 9.3715 9.75548 9.45299 9.9195 9.45299C10.0595 9.45299 10.1974 9.39344 10.3217 9.26911C10.5965 8.99539 10.561 8.66212 10.2758 8.37691L9.58309 7.68424L8.74208 8.52526L9.43474 9.21792ZM6.71216 9.4603L9.48907 6.68338L10.8316 8.02483C11.3874 8.58063 11.3947 9.28478 10.866 9.81237C10.608 10.0704 10.3092 10.2 10.0062 10.2C9.68862 10.2 9.36684 10.0579 9.08267 9.77372L8.2918 8.98285L7.26378 10.0119L6.71216 9.4603ZM11.8862 13.343C11.6125 13.343 11.3607 13.2228 11.1445 13.0066L10.6555 12.5176L12.5173 10.6559L13.0062 11.1449C13.4638 11.6025 13.492 12.2241 12.8579 12.8582C12.5225 13.1925 12.1913 13.343 11.8862 13.343ZM12.4285 9.64981L9.65049 12.4278L10.7736 13.5498C11.1445 13.9218 11.5655 14.0952 11.9928 14.0952C12.488 14.0952 12.9895 13.8601 13.4251 13.4245C14.2348 12.6158 14.3529 11.5753 13.5505 10.7729L12.4285 9.64981ZM12.7091 15.5006L15.4871 12.7237L17.4386 14.6752L16.98 15.1328L15.58 13.7329L14.8529 14.46L16.1515 15.7586L15.6929 16.2162L14.3943 14.9187L13.2607 16.0522L12.7091 15.5006Z" fill="#2B2B2C"/>
</svg>
