<svg width="24" height="24" viewBox="0 0 24 24" fill="none" xmlns="http://www.w3.org/2000/svg">
<path fill-rule="evenodd" clip-rule="evenodd" d="M8.43931 2.85365C9.0251 2.26786 9.97485 2.26786 10.5606 2.85365L21.1464 13.4394C21.7322 14.0252 21.7322 14.975 21.1464 15.5608L19.3535 17.3536C19.2598 17.4474 19.1326 17.5001 19 17.5001C18.8673 17.5001 18.7402 17.4474 18.6464 17.3536L18.6364 17.3436L18.6364 17.3436C18.2849 16.9921 17.715 16.9921 17.3636 17.3436L17.3435 17.3637C16.992 17.7152 16.992 18.285 17.3435 18.6365L17.3435 18.6365L17.3535 18.6465C17.4473 18.7403 17.5 18.8675 17.5 19.0001C17.5 19.1327 17.4473 19.2599 17.3535 19.3536L15.5606 21.1465C14.9748 21.7323 14.0251 21.7323 13.4393 21.1465L2.85352 10.5608C2.26774 9.97497 2.26774 9.02522 2.85352 8.43943L4.64642 6.64654C4.84168 6.45128 5.15826 6.45128 5.35352 6.64654L5.36358 6.65659C5.71505 7.00806 6.2849 7.00806 6.63637 6.65659L6.65647 6.63649C7.00794 6.28502 7.00794 5.71517 6.65647 5.3637L6.64642 5.35365C6.55265 5.25988 6.49997 5.1327 6.49997 5.00009C6.49997 4.86748 6.55265 4.74031 6.64642 4.64654L8.43931 2.85365ZM12.8535 16.8536C13.0488 16.6584 13.0488 16.3418 12.8535 16.1465C12.6583 15.9513 12.3417 15.9513 12.1464 16.1465L11.1464 17.1465C10.9512 17.3418 10.9512 17.6584 11.1464 17.8536C11.3417 18.0489 11.6583 18.0489 11.8535 17.8536L12.8535 16.8536ZM15.3535 13.6465C15.5488 13.8418 15.5488 14.1584 15.3535 14.3536L14.3535 15.3536C14.1583 15.5489 13.8417 15.5489 13.6464 15.3536C13.4512 15.1584 13.4512 14.8418 13.6464 14.6465L14.6464 13.6465C14.8417 13.4513 15.1583 13.4513 15.3535 13.6465ZM17.8535 11.8536C18.0488 11.6584 18.0488 11.3418 17.8535 11.1465C17.6583 10.9513 17.3417 10.9513 17.1464 11.1465L16.1464 12.1465C15.9512 12.3418 15.9512 12.6584 16.1464 12.8536C16.3417 13.0489 16.6583 13.0489 16.8535 12.8536L17.8535 11.8536Z" fill="#2B2B2C"/>
</svg>
