<svg width="18" height="18" viewBox="0 0 18 18" fill="none" xmlns="http://www.w3.org/2000/svg">
<path fill-rule="evenodd" clip-rule="evenodd" d="M5.93931 1.35365C6.5251 0.767861 7.47484 0.767859 8.06063 1.35365L16.6464 9.93943C17.2322 10.5252 17.2322 11.475 16.6464 12.0608L15.3535 13.3536C15.1583 13.5489 14.8417 13.5489 14.6464 13.3536L14.6364 13.3436C14.2849 12.9921 13.715 12.9921 13.3636 13.3436L13.3435 13.3637C12.992 13.7152 12.992 14.285 13.3435 14.6365L13.3535 14.6465C13.5488 14.8418 13.5488 15.1584 13.3535 15.3536L12.0606 16.6465C11.4748 17.2323 10.5251 17.2323 9.93931 16.6465L1.35352 8.06075C0.767738 7.47497 0.767738 6.52522 1.35352 5.93943L2.64642 4.64654C2.84168 4.45128 3.15826 4.45128 3.35352 4.64654L3.36358 4.65659C3.71505 5.00806 4.2849 5.00806 4.63637 4.65659L4.65647 4.63649C5.00794 4.28502 5.00794 3.71517 4.65647 3.3637L4.64642 3.35365C4.55265 3.25988 4.49997 3.1327 4.49997 3.00009C4.49997 2.86749 4.55265 2.74031 4.64642 2.64654L5.93931 1.35365ZM7.35352 2.06075C7.15826 1.86549 6.84168 1.86549 6.64642 2.06075L5.66277 3.04441C6.08657 3.77177 5.98684 4.72033 5.36358 5.3436L5.34347 5.3637C4.72021 5.98697 3.77165 6.0867 3.04428 5.66289L2.06063 6.64654C1.86537 6.8418 1.86537 7.15838 2.06063 7.35365L8.00124 13.2943L8.14336 13.1496C8.33688 12.9526 8.65345 12.9498 8.85043 13.1433C9.04742 13.3369 9.05022 13.6534 8.8567 13.8504L8.70837 14.0014L10.6464 15.9394C10.8417 16.1347 11.1583 16.1347 11.3535 15.9394L12.3372 14.9558C11.9134 14.2284 12.0131 13.2799 12.6364 12.6566L12.6565 12.6365C13.2797 12.0132 14.2283 11.9135 14.9557 12.3373L15.9393 11.3536C16.1346 11.1584 16.1346 10.8418 15.9393 10.6465L14.0025 8.7097L13.8474 8.8595C13.6488 9.05137 13.3323 9.0459 13.1404 8.8473C12.9485 8.64869 12.954 8.33216 13.1526 8.1403L13.2953 8.00248L7.35352 2.06075ZM10.6959 11.3229C10.8891 11.5201 10.8859 11.8367 10.6887 12.03L10.1098 12.5972C9.91259 12.7904 9.59603 12.7872 9.40276 12.59C9.20949 12.3928 9.21271 12.0762 9.40995 11.8829L9.9888 11.3157C10.186 11.1225 10.5026 11.1257 10.6959 11.3229ZM12.6202 10.0867C12.8117 9.88766 12.8055 9.57114 12.6066 9.37968C12.4076 9.18822 12.091 9.19433 11.8996 9.39332L11.3051 10.0112C11.1136 10.2102 11.1197 10.5267 11.3187 10.7182C11.5177 10.9096 11.8343 10.9035 12.0257 10.7045L12.6202 10.0867Z" fill="#2B2B2C"/>
</svg>
