<svg width="24" height="24" viewBox="0 0 24 24" fill="none" xmlns="http://www.w3.org/2000/svg">
<path fill-rule="evenodd" clip-rule="evenodd" d="M9.5 4.5C9.5 4.22386 9.72386 4 10 4H14C14.2761 4 14.5 4.22386 14.5 4.5V6H9.5V4.5ZM8.5 6V4.5C8.5 3.67157 9.17157 3 10 3H14C14.8284 3 15.5 3.67157 15.5 4.5V6H19.5C20.3284 6 21 6.67157 21 7.5V10.2239C19.7271 11.0276 17.2378 12.5874 13.5 12.9317V12.5C13.5 12.2239 13.2761 12 13 12H11C10.7239 12 10.5 12.2239 10.5 12.5V12.9317C6.76224 12.5874 4.27291 11.0276 3 10.224V7.5C3 6.67157 3.67157 6 4.5 6H8.5ZM3 17.5V11.4026C4.44172 12.2837 6.94919 13.6275 10.5 13.9356V14.5C10.5 14.7761 10.7239 15 11 15H13C13.2761 15 13.5 14.7761 13.5 14.5V13.9356C17.0508 13.6275 19.5583 12.2836 21 11.4026V17.5C21 18.3284 20.3284 19 19.5 19H4.5C3.67157 19 3 18.3284 3 17.5Z" fill="#2B2B2C"/>
</svg>
