<svg width="24" height="24" viewBox="0 0 24 24" fill="none" xmlns="http://www.w3.org/2000/svg">
<path fill-rule="evenodd" clip-rule="evenodd" d="M9.5 4.5C9.5 4.22386 9.72386 4 10 4H14C14.2761 4 14.5 4.22386 14.5 4.5V6H9.5V4.5ZM15.5 4.5V6H19.5C20.3284 6 21 6.67157 21 7.5V17.5C21 18.3284 20.3284 19 19.5 19H4.5C3.67157 19 3 18.3284 3 17.5V7.5C3 6.67157 3.67157 6 4.5 6H8.5V4.5C8.5 3.67157 9.17157 3 10 3H14C14.8284 3 15.5 3.67157 15.5 4.5ZM6.41196 13.0258C5.50398 12.6574 4.66133 12.2381 4 11.872V17.5C4 17.7761 4.22386 18 4.5 18H19.5C19.7761 18 20 17.7761 20 17.5V11.872C19.3387 12.2381 18.496 12.6574 17.588 13.0258C16.4503 13.4876 15.1704 13.8861 14 13.9794V15C14 15.2761 13.7761 15.5 13.5 15.5H10.5C10.2239 15.5 10 15.2761 10 15V13.9794C8.82962 13.8861 7.54973 13.4876 6.41196 13.0258ZM10 12.9758C9.00439 12.8836 7.8669 12.5371 6.78801 12.0992C5.6745 11.6473 4.66359 11.1148 4 10.7193V7.5C4 7.22386 4.22386 7 4.5 7H19.5C19.7761 7 20 7.22386 20 7.5V10.7193C19.3364 11.1148 18.3255 11.6473 17.212 12.0992C16.1331 12.5371 14.9956 12.8836 14 12.9758V12C14 11.7239 13.7761 11.5 13.5 11.5H10.5C10.2239 11.5 10 11.7239 10 12V12.9758ZM11 14.5V12.5H13V14.5H11Z" fill="#2B2B2C"/>
</svg>
