<svg width="30" height="30" viewBox="0 0 30 30" fill="none" xmlns="http://www.w3.org/2000/svg">
<path fill-rule="evenodd" clip-rule="evenodd" d="M11.5 5.25C11.5 4.83579 11.8358 4.5 12.25 4.5H17.75C18.1642 4.5 18.5 4.83579 18.5 5.25V7.5H11.5V5.25ZM10.5 7.5V5.25C10.5 4.2835 11.2835 3.5 12.25 3.5H17.75C18.7165 3.5 19.5 4.2835 19.5 5.25V7.5H24.25C25.2165 7.5 26 8.2835 26 9.25V13.2358C24.5082 14.4794 21.7391 16.0701 17 16.4269V15.5C17 15.2239 16.7761 15 16.5 15H13.5C13.2239 15 13 15.2239 13 15.5V16.4269C8.26094 16.0701 5.49182 14.4794 4 13.2358V9.25C4 8.2835 4.7835 7.5 5.75 7.5H10.5ZM4 22.25V14.5006C5.74375 15.7605 8.58717 17.1104 13 17.4296V18.5C13 18.7761 13.2239 19 13.5 19H16.5C16.7761 19 17 18.7761 17 18.5V17.4296C21.4128 17.1104 24.2562 15.7605 26 14.5006V22.25C26 23.2165 25.2165 24 24.25 24H5.75C4.7835 24 4 23.2165 4 22.25Z" fill="#2B2B2C"/>
</svg>
