<svg width="18" height="18" viewBox="0 0 18 18" fill="none" xmlns="http://www.w3.org/2000/svg">
<path d="M16.1 4.50002L14.5 4.10002V3.50002C14.5 3.30002 14.3 3.10002 14.1 3.00002C14.1 3.00002 13.1 2.80002 11.5 3.00002C10.4 3.10002 9.5 3.60002 9.1 3.90002C8.5 3.60002 7.6 3.10002 6.6 3.00002C4.9 2.80002 4 3.00002 3.9 3.00002C3.7 3.00002 3.5 3.30002 3.5 3.50002V4.10002L1.9 4.50002C1.7 4.60002 1.5 4.80002 1.5 5.00002V14.5C1.5 14.7 1.6 14.8 1.7 14.9C1.8 15 2 15 2.2 15C2.2 15 3.7 14.5 6 14.5C7.5 14.5 8.8 15.1 8.8 15.1C8.9 15.1 8.9 15.1 9 15.1C9.1 15.1 9.2 15.1 9.3 15C9.3 15 10.2 14.4 11.6 14.4C13.3 14.4 15.8 15 15.9 15C16 15 16.2 15 16.3 14.9C16.4 14.8 16.5 14.7 16.5 14.5V5.00002C16.5 4.80002 16.3 4.60002 16.1 4.50002ZM11.6 4.00002C12.5 3.90002 13.1 3.90002 13.5 4.00002V12C13.1 12 12.6 12 12 12.1C11 12.2 10.1 12.6 9.5 13V4.80002C9.9 4.50002 10.7 4.10002 11.6 4.00002ZM4.5 3.90002C4.9 3.90002 5.6 3.90002 6.4 3.90002C7.3 4.00002 8.1 4.40002 8.5 4.70002V12.8C7.9 12.5 7.1 12.1 6 12C5.5 12 5.1 11.9 4.8 11.9C4.7 11.9 4.5 11.9 4.4 11.9V3.90002H4.5Z" fill="#2B2B2C"/>
</svg>
