<svg width="18" height="18" viewBox="0 0 18 18" fill="none" xmlns="http://www.w3.org/2000/svg">
<path fill-rule="evenodd" clip-rule="evenodd" d="M11.5159 2.22298L13.777 4.48412C13.7492 4.49452 13.7196 4.5 13.6893 4.5H11.75C11.6119 4.5 11.5 4.38807 11.5 4.25V2.31066C11.5 2.28043 11.5055 2.25076 11.5159 2.22298ZM6 2.25C6 1.55964 6.55964 1 7.25 1H11.5C11.6326 1 11.7598 1.05268 11.8536 1.14645L14.8536 4.14644C14.9473 4.24021 15 4.36739 15 4.5V12.75C15 13.4404 14.4404 14 13.75 14H12V15.75C12 16.4404 11.4404 17 10.75 17H4.25C3.55964 17 3 16.4404 3 15.75V6.25C3 5.55964 3.55964 5 4.25 5H6V2.25ZM6 6H4.25C4.11193 6 4 6.11193 4 6.25L4 15.75C4 15.8881 4.11193 16 4.25 16H10.75C10.8881 16 11 15.8881 11 15.75V14H7.25C6.55964 14 6 13.4404 6 12.75V6Z" fill="#2B2B2C"/>
</svg>
