<svg width="18" height="18" viewBox="0 0 18 18" fill="none" xmlns="http://www.w3.org/2000/svg">
<path fill-rule="evenodd" clip-rule="evenodd" d="M6.25 2C5.55964 2 5 2.55964 5 3.25V13.5V14.75C5 15.4404 5.55964 16 6.25 16H11.75C12.4404 16 13 15.4404 13 14.75V13.5V3.25C13 2.55964 12.4404 2 11.75 2H6.25ZM12 13V3.25C12 3.11193 11.8881 3 11.75 3H6.25C6.11193 3 6 3.11193 6 3.25V13H12ZM6 14H12V14.75C12 14.8881 11.8881 15 11.75 15H6.25C6.11193 15 6 14.8881 6 14.75V14ZM8 4C7.72386 4 7.5 4.22386 7.5 4.5C7.5 4.77614 7.72386 5 8 5H10C10.2761 5 10.5 4.77614 10.5 4.5C10.5 4.22386 10.2761 4 10 4H8Z" fill="#2B2B2C"/>
</svg>
