<svg width="30" height="30" viewBox="0 0 30 30" fill="none" xmlns="http://www.w3.org/2000/svg">
<path fill-rule="evenodd" clip-rule="evenodd" d="M4 4.5C4 4.22386 4.22386 4 4.5 4H20.5C20.7761 4 21 4.22386 21 4.5V7.5H25.5C25.7761 7.5 26 7.72386 26 8V23C26 24.6569 24.6569 26 23 26H8.25C5.90279 26 4 24.0972 4 21.75V4.5ZM21 23V11.5V8.5H25V23C25 24.1046 24.1046 25 23 25C21.8954 25 21 24.1046 21 23ZM7 7C6.72386 7 6.5 7.22386 6.5 7.5C6.5 7.77614 6.72386 8 7 8H18C18.2761 8 18.5 7.77614 18.5 7.5C18.5 7.22386 18.2761 7 18 7H7ZM6.5 10.5C6.5 10.2239 6.72386 10 7 10H18C18.2761 10 18.5 10.2239 18.5 10.5C18.5 10.7761 18.2761 11 18 11H7C6.72386 11 6.5 10.7761 6.5 10.5ZM13 13C12.7239 13 12.5 13.2239 12.5 13.5V19.5C12.5 19.7761 12.7239 20 13 20H18C18.2761 20 18.5 19.7761 18.5 19.5V13.5C18.5 13.2239 18.2761 13 18 13H13ZM17.5 19H13.5V14H17.5V19ZM6.5 13.5C6.5 13.2239 6.72386 13 7 13H10.5C10.7761 13 11 13.2239 11 13.5C11 13.7761 10.7761 14 10.5 14H7C6.72386 14 6.5 13.7761 6.5 13.5ZM7 16C6.72386 16 6.5 16.2239 6.5 16.5C6.5 16.7761 6.72386 17 7 17H10.5C10.7761 17 11 16.7761 11 16.5C11 16.2239 10.7761 16 10.5 16H7ZM7 19C6.72386 19 6.5 19.2239 6.5 19.5C6.5 19.7761 6.72386 20 7 20H10.5C10.7761 20 11 19.7761 11 19.5C11 19.2239 10.7761 19 10.5 19H7ZM6.5 22.5C6.5 22.2239 6.72386 22 7 22H18C18.2761 22 18.5 22.2239 18.5 22.5C18.5 22.7761 18.2761 23 18 23H7C6.72386 23 6.5 22.7761 6.5 22.5Z" fill="#2B2B2C"/>
</svg>
