<svg width="18" height="18" viewBox="0 0 18 18" fill="none" xmlns="http://www.w3.org/2000/svg">
<path fill-rule="evenodd" clip-rule="evenodd" d="M2 2.5C2 2.22386 2.22386 2 2.5 2H12.5C12.7761 2 13 2.22386 13 2.5V4.5H15.5C15.7761 4.5 16 4.72386 16 5V14C16 15.1046 15.1046 16 14 16H4.75C3.23122 16 2 14.7688 2 13.25V2.5ZM13 5.5H15V14C15 14.5523 14.5523 15 14 15C13.4477 15 13 14.5523 13 14V6.5V5.5ZM12 14C12 14.3643 12.0974 14.7058 12.2676 15H4.75C3.7835 15 3 14.2165 3 13.25V3H12V5V6.5V14ZM4.5 4C4.22386 4 4 4.22386 4 4.5C4 4.77614 4.22386 5 4.5 5H10.5C10.7761 5 11 4.77614 11 4.5C11 4.22386 10.7761 4 10.5 4H4.5ZM4 6.5C4 6.22386 4.22386 6 4.5 6H10.5C10.7761 6 11 6.22386 11 6.5C11 6.77614 10.7761 7 10.5 7H4.5C4.22386 7 4 6.77614 4 6.5ZM4.5 8.5C4.22386 8.5 4 8.72386 4 9C4 9.27614 4.22386 9.5 4.5 9.5H5.5C5.77614 9.5 6 9.27614 6 9C6 8.72386 5.77614 8.5 5.5 8.5H4.5ZM4 11C4 10.7239 4.22386 10.5 4.5 10.5H5.5C5.77614 10.5 6 10.7239 6 11C6 11.2761 5.77614 11.5 5.5 11.5H4.5C4.22386 11.5 4 11.2761 4 11ZM7.5 8C7.22386 8 7 8.22386 7 8.5V12.5C7 12.7761 7.22386 13 7.5 13H10.5C10.7761 13 11 12.7761 11 12.5V8.5C11 8.22386 10.7761 8 10.5 8H7.5ZM10 12H8V9H10V12Z" fill="#2B2B2C"/>
</svg>
