<svg width="18" height="18" viewBox="0 0 18 18" fill="none" xmlns="http://www.w3.org/2000/svg">
<path fill-rule="evenodd" clip-rule="evenodd" d="M5.50981 3.02495C5.43264 2.8899 5.2522 2.85735 5.13271 2.95692L4.87682 3.17016C3.81043 4.05882 3.42617 5.52667 3.92034 6.82386L4.07379 7.22668C5.22929 10.2599 7.61278 12.6635 10.6361 13.8445L11.1659 14.0514C12.4683 14.5602 13.95 14.1789 14.8451 13.1048L15.0431 12.8673C15.1426 12.7478 15.1101 12.5674 14.975 12.4902L12.9403 11.3275C12.8157 11.2563 12.6568 11.3044 12.5927 11.4327L12.2826 12.0528C11.9739 12.6703 11.223 12.9205 10.6056 12.6118L10.1833 12.4007C8.19963 11.4088 6.59117 9.80037 5.59934 7.81671L5.3882 7.39442C5.07946 6.77695 5.32974 6.0261 5.94722 5.71737L6.56727 5.40734C6.69564 5.34315 6.74374 5.18431 6.67253 5.0597L5.50981 3.02495ZM4.49252 2.1887C5.08998 1.69082 5.9922 1.85356 6.37806 2.52881L7.54077 4.56356C7.89681 5.18662 7.65633 5.98084 7.01449 6.30177L6.39443 6.6118C6.27093 6.67354 6.22088 6.82371 6.28263 6.94721L6.49377 7.3695C7.38884 9.15963 8.84037 10.6112 10.6305 11.5062L11.0528 11.7174C11.1763 11.7791 11.3265 11.7291 11.3882 11.6056L11.6982 10.9855C12.0192 10.3437 12.8134 10.1032 13.4364 10.4592L15.4712 11.6219C16.1464 12.0078 16.3092 12.91 15.8113 13.5075L15.6134 13.745C14.4428 15.1496 12.5051 15.6482 10.8021 14.9829L10.2723 14.776C6.98603 13.4923 4.39528 10.8796 3.13931 7.58268L2.98585 7.17986C2.33963 5.48353 2.84213 3.56403 4.23664 2.40194L4.49252 2.1887ZM9 3.5C9 3.22386 9.22386 3 9.5 3V3.5C9.5 3 9.50026 3 9.50055 3L9.50121 3L9.50288 3.00001L9.50759 3.00003L9.52241 3.00022C9.53464 3.00041 9.55154 3.00079 9.57281 3.0015C9.61533 3.00292 9.67538 3.00567 9.75047 3.01104C9.90048 3.02175 10.1115 3.04294 10.3634 3.08493C10.8649 3.16851 11.5412 3.33661 12.2236 3.67779C12.9079 4.01994 13.6074 4.54103 14.1348 5.33203C14.6642 6.12615 15 7.16251 15 8.5C15 8.77614 14.7761 9 14.5 9C14.2239 9 14 8.77614 14 8.5C14 7.33749 13.7108 6.49885 13.3027 5.88673C12.8926 5.27147 12.3421 4.85506 11.7764 4.57221C11.2088 4.28839 10.6351 4.14399 10.1991 4.07132C9.98223 4.03519 9.80265 4.01731 9.67922 4.00849C9.61759 4.00409 9.57022 4.00197 9.53949 4.00094C9.52414 4.00043 9.51297 4.0002 9.50628 4.00009L9.49966 4L9.49957 4L9.49925 4L9.49899 4C9.22331 3.99945 9 3.77581 9 3.5ZM9.5 5.5C9.22386 5.5 9 5.72386 9 6C9 6.27565 9.22306 6.4992 9.49853 6.5L9.49849 6.5L9.49784 6.49999C9.4977 6.49999 9.49813 6.5 9.49911 6.50001L9.51142 6.50033C9.52383 6.50075 9.54435 6.50165 9.5718 6.50361C9.62686 6.50755 9.7088 6.51565 9.80843 6.53226C10.0101 6.56586 10.2713 6.63214 10.5264 6.75971C10.7796 6.88631 11.0176 7.06834 11.1933 7.33204C11.3671 7.5926 11.5 7.96249 11.5 8.5C11.5 8.77614 11.7239 9 12 9C12.2761 9 12.5 8.77614 12.5 8.5C12.5 7.78751 12.3204 7.2199 12.0254 6.77734C11.7324 6.33791 11.3454 6.05119 10.9736 5.86529C10.6037 5.68036 10.2399 5.59039 9.97282 5.54587C9.83808 5.52341 9.7247 5.51199 9.64305 5.50615C9.60213 5.50323 9.56894 5.50169 9.54473 5.50089L9.51523 5.50014L9.50578 5.50003L9.50242 5.50001L9.50109 5.5L9.50052 5.5C9.50025 5.5 9.5 5.5 9.5 6V5.5ZM9.49913 6.5L9.49911 6.50001L9.49853 6.5C9.49873 6.5 9.49893 6.5 9.49913 6.5ZM9.49913 6.5L9.49954 6.5C9.4994 6.5 9.49927 6.5 9.49913 6.5Z" fill="#2B2B2C"/>
</svg>
