<svg width="30" height="30" viewBox="0 0 30 30" fill="none" xmlns="http://www.w3.org/2000/svg">
<path fill-rule="evenodd" clip-rule="evenodd" d="M9.00902 4.55004C8.72741 4.16283 8.16001 4.13504 7.84191 4.4929L7.27429 5.13147C5.90787 6.66869 5.46657 8.81868 6.11697 10.7699L6.31203 11.355C8.25296 17.1778 12.8221 21.747 18.6449 23.6879L19.2301 23.883C21.1813 24.5334 23.3313 24.0921 24.8685 22.7257L25.5071 22.158C25.8649 21.84 25.8371 21.2725 25.4499 20.9909L22.1522 18.5926C21.8328 18.3603 21.3878 18.4156 21.1349 18.719L19.8687 20.2386C19.4433 20.749 18.7446 20.9397 18.1189 20.7163C13.9983 19.2446 10.7554 16.0017 9.28369 11.8811C9.06022 11.2553 9.25097 10.5566 9.7614 10.1313L11.2809 8.86501C11.5844 8.61212 11.6397 8.16719 11.4073 7.84772L9.00902 4.55004ZM7.0945 3.82854C7.83672 2.99354 9.16066 3.05837 9.81776 3.96187L12.2161 7.25955C12.7582 8.00498 12.6292 9.04315 11.9211 9.63323L10.4016 10.8995C10.2134 11.0563 10.143 11.314 10.2254 11.5447C11.5963 15.383 14.617 18.4037 18.4552 19.7745C18.686 19.8569 18.9436 19.7866 19.1005 19.5984L20.3667 18.0789C20.9568 17.3708 21.995 17.2418 22.7404 17.7839L26.0381 20.1822C26.9416 20.8393 27.0064 22.1632 26.1714 22.9055L25.5328 23.4731C23.7283 25.0771 21.2044 25.5952 18.9139 24.8317L18.3287 24.6366C12.2073 22.5961 7.40381 17.7927 5.36334 11.6713L5.16828 11.0861C4.40478 8.79557 4.92283 6.27167 6.52688 4.46711L7.0945 3.82854Z" fill="#2B2B2C"/>
<path fill-rule="evenodd" clip-rule="evenodd" d="M15.5056 8L15.5067 7.99999L15.5178 8.00001C15.5284 8.00006 15.5454 8.00024 15.5683 8.00075C15.6142 8.00177 15.6838 8.00413 15.7737 8.00956C15.9536 8.02043 16.2138 8.04352 16.5271 8.09237C17.1562 8.19047 17.9859 8.3904 18.807 8.79421C19.626 9.19699 20.4269 9.79759 21.0202 10.6956C21.6115 11.5906 22.0175 12.8124 22 14.4948C21.9972 14.771 22.2187 14.9971 22.4948 15C22.7709 15.0029 22.9971 14.7814 23 14.5052C23.0193 12.6483 22.5688 11.2255 21.8545 10.1444C21.1422 9.06624 20.1885 8.35926 19.2483 7.89686C18.3102 7.43551 17.3761 7.21268 16.6812 7.10431C16.3324 7.04994 16.0406 7.02386 15.834 7.01138C15.7306 7.00514 15.6482 7.00228 15.5905 7.001C15.5617 7.00035 15.539 7.00011 15.5228 7.00002L15.5035 7L15.4977 7.00003L15.4957 7.00005L15.495 7.00005C15.4947 7.00006 15.4944 7.00006 15.5 7.50003L15.4944 7.00006C15.2183 7.00313 14.997 7.22946 15 7.50559C15.0031 7.78157 15.2292 8.00285 15.5052 8L15.5056 8ZM15.5049 8C15.5048 8 15.5048 8 15.5049 8L15.5049 8Z" fill="#2B2B2C"/>
<path fill-rule="evenodd" clip-rule="evenodd" d="M15 10.5C15 10.2239 15.2239 10 15.5 10V10.5C15.5 10 15.5003 10 15.5005 10L15.5012 10L15.5027 10L15.5069 10L15.5195 10.0002C15.5299 10.0004 15.544 10.0007 15.5616 10.0013C15.5968 10.0024 15.6461 10.0047 15.7075 10.0091C15.8302 10.0178 16.0021 10.0351 16.2072 10.0693C16.6149 10.1373 17.1662 10.2741 17.7236 10.5528C18.2829 10.8324 18.8574 11.2598 19.291 11.9101C19.7267 12.5636 20 13.4125 20 14.5C20 14.7761 19.7761 15 19.5 15C19.2239 15 19 14.7761 19 14.5C19 13.5875 18.7733 12.9363 18.459 12.4648C18.1426 11.9902 17.7171 11.6676 17.2764 11.4472C16.8338 11.2259 16.3851 11.1127 16.0428 11.0557C15.8729 11.0274 15.7323 11.0134 15.6363 11.0065C15.5883 11.0031 15.5517 11.0015 15.5283 11.0007L15.5034 11.0001L15.5 11C15.4999 11 15.4997 11 15.4996 11L15.4992 11L15.4988 11C15.4986 11 15.4986 11 15.4989 11L15.4996 11M15 10.5C15 10.776 15.2236 10.9998 15.4996 11Z" fill="#2B2B2C"/>
<path fill-rule="evenodd" clip-rule="evenodd" d="M15 4.5C15 4.22386 15.2239 4 15.5 4V4.5C15.5 4 15.5003 4 15.5006 4L15.5014 4L15.5038 4.00001L15.5112 4.00005L15.5368 4.00037C15.5584 4.00072 15.5894 4.0014 15.629 4.00272C15.7081 4.00536 15.8219 4.01056 15.9653 4.0208C16.252 4.04128 16.6584 4.082 17.1447 4.16305C18.1149 4.32476 19.4162 4.64911 20.7236 5.30279C22.0329 5.95744 23.3574 6.94728 24.3535 8.4414C25.3517 9.93865 26 11.9125 26 14.5C26 14.7761 25.7761 15 25.5 15C25.2239 15 25 14.7761 25 14.5C25 12.0875 24.3983 10.3114 23.5215 8.9961C22.6426 7.67772 21.4671 6.79256 20.2764 6.19721C19.0838 5.60089 17.8851 5.30024 16.9803 5.14945C16.5291 5.07425 16.1542 5.03684 15.8941 5.01826C15.7641 5.00898 15.663 5.00441 15.5956 5.00216C15.562 5.00104 15.5368 5.0005 15.5206 5.00024L15.5033 5.00002L15.5 5L15.4999 5C15.4996 5 15.4995 5 15.4995 5L15.4996 5C15.2237 4.9998 15 4.77602 15 4.5ZM15.4995 5C15.4995 5 15.4995 5 15.4995 5Z" fill="#2B2B2C"/>
</svg>
