<svg width="30" height="30" viewBox="0 0 30 30" fill="none" xmlns="http://www.w3.org/2000/svg">
<path fill-rule="evenodd" clip-rule="evenodd" d="M4 5.75C4 4.7835 4.7835 4 5.75 4H24.25C25.2165 4 26 4.7835 26 5.75V24.25C26 25.2165 25.2165 26 24.25 26H5.75C4.7835 26 4 25.2165 4 24.25V20.5001V20.4999V5.75ZM5 24.25V20.7071L9.41161 16.2955C9.46043 16.2467 9.53957 16.2467 9.58839 16.2955L12.7045 19.4116C13.1438 19.851 13.8562 19.851 14.2955 19.4116L20.4116 13.2955C20.4604 13.2467 20.5396 13.2467 20.5884 13.2955L25 17.7071V24.25C25 24.6642 24.6642 25 24.25 25H5.75C5.33579 25 5 24.6642 5 24.25ZM25 5.75V16.2929L21.2955 12.5884C20.8562 12.1491 20.1438 12.1491 19.7045 12.5884L13.5884 18.7045C13.5396 18.7533 13.4604 18.7533 13.4116 18.7045L10.2955 15.5884C9.85616 15.1491 9.14385 15.1491 8.70451 15.5884L5 19.2929V5.75C5 5.33579 5.33579 5 5.75 5H24.25C24.6642 5 25 5.33579 25 5.75ZM10 10C10 8.89543 10.8954 8 12 8C13.1046 8 14 8.89543 14 10C14 11.1046 13.1046 12 12 12C10.8954 12 10 11.1046 10 10ZM12 7C10.3431 7 9 8.34315 9 10C9 11.6569 10.3431 13 12 13C13.6569 13 15 11.6569 15 10C15 8.34315 13.6569 7 12 7Z" fill="#2B2B2C"/>
</svg>
