<svg width="24" height="24" viewBox="0 0 24 24" fill="none" xmlns="http://www.w3.org/2000/svg">
<path fill-rule="evenodd" clip-rule="evenodd" d="M12 4C10.3431 4 9 5.34315 9 7V7.5H10C10.2761 7.5 10.5 7.72386 10.5 8C10.5 8.27614 10.2761 8.5 10 8.5H9V10H10C10.2761 10 10.5 10.2239 10.5 10.5C10.5 10.7761 10.2761 11 10 11H9V12.5H10C10.2761 12.5 10.5 12.7239 10.5 13C10.5 13.2761 10.2761 13.5 10 13.5H9V14C9 15.6569 10.3431 17 12 17C13.6569 17 15 15.6569 15 14V13.5H14C13.7239 13.5 13.5 13.2761 13.5 13C13.5 12.7239 13.7239 12.5 14 12.5H15V11L14 11C13.7239 11 13.5 10.7761 13.5 10.5C13.5 10.2239 13.7239 10 14 10L15 10V8.5H14C13.7239 8.5 13.5 8.27614 13.5 8C13.5 7.72386 13.7239 7.5 14 7.5H15V7C15 5.34315 13.6569 4 12 4ZM16 10.5V8V7C16 4.79086 14.2091 3 12 3C9.79086 3 8 4.79086 8 7V8V10.5V13V14C8 16.0398 9.52684 17.723 11.5 17.9691V20H8.5C8.22386 20 8 20.2239 8 20.5C8 20.7761 8.22386 21 8.5 21H12H15.5C15.7761 21 16 20.7761 16 20.5C16 20.2239 15.7761 20 15.5 20H12.5V17.9691C14.4732 17.723 16 16.0398 16 14V13V10.5Z" fill="#2B2B2C"/>
<path fill-rule="evenodd" clip-rule="evenodd" d="M17.7764 8.05277C18.0234 7.92928 18.3237 8.02939 18.4472 8.27638L18 8.49999C18.4472 8.27638 18.4473 8.27656 18.4474 8.27675L18.4476 8.27717L18.4481 8.27815L18.4493 8.28067L18.4529 8.28791L18.4639 8.31109C18.4729 8.33035 18.4851 8.35716 18.4998 8.39103C18.5291 8.45872 18.5684 8.55489 18.6115 8.67557C18.6975 8.91636 18.7999 9.25794 18.8682 9.66779C19.0044 10.4851 19.0088 11.6004 18.4472 12.7236C18.3237 12.9706 18.0234 13.0707 17.7764 12.9472C17.5294 12.8237 17.4293 12.5234 17.5528 12.2764C17.9912 11.3996 17.9956 10.5148 17.8818 9.83219C17.8251 9.49204 17.74 9.20861 17.6697 9.01191C17.6347 8.91383 17.6037 8.83813 17.5822 8.78863C17.5715 8.76391 17.5632 8.7458 17.5581 8.73478L17.5528 8.72366L17.5521 8.72222C17.5521 8.72221 17.5521 8.72232 17.5523 8.72255L17.5525 8.72298L17.5526 8.72327C17.4294 8.47634 17.5295 8.17621 17.7764 8.05277Z" fill="#2B2B2C"/>
<path fill-rule="evenodd" clip-rule="evenodd" d="M6.22362 12.9472C5.97663 13.0707 5.67629 12.9706 5.5528 12.7236L6.00001 12.5C5.5528 12.7236 5.55271 12.7234 5.55261 12.7232L5.5524 12.7228L5.55192 12.7218L5.55067 12.7193L5.54714 12.7121L5.53612 12.6889C5.52712 12.6697 5.5149 12.6428 5.50022 12.609C5.47089 12.5413 5.43162 12.4451 5.38852 12.3244C5.30252 12.0836 5.20012 11.7421 5.13182 11.3322C4.99559 10.5149 4.99119 9.39963 5.5528 8.27641C5.67629 8.02942 5.97663 7.9293 6.22362 8.0528C6.47061 8.17629 6.57072 8.47663 6.44723 8.72362C6.00884 9.6004 6.00443 10.4852 6.11821 11.1678C6.1749 11.508 6.26001 11.7914 6.33026 11.9881C6.36528 12.0862 6.39633 12.1619 6.41777 12.2114C6.42849 12.2361 6.43678 12.2542 6.44193 12.2652L6.44721 12.2763L6.44791 12.2778C6.4479 12.2778 6.44785 12.2777 6.44774 12.2774L6.44753 12.277L6.44739 12.2767C6.57063 12.5237 6.4705 12.8238 6.22362 12.9472ZM6.44791 12.2778L6.44791 12.2778Z" fill="#2B2B2C"/>
<path fill-rule="evenodd" clip-rule="evenodd" d="M19.2227 6.08403C19.4525 5.93085 19.7629 5.99294 19.9161 6.2227L19.5001 6.50005C19.9161 6.2227 19.9162 6.22287 19.9163 6.22303L19.9165 6.2234L19.9171 6.22423L19.9185 6.22632L19.9223 6.23217L19.934 6.25051C19.9436 6.26568 19.9566 6.28671 19.9726 6.31349C20.0045 6.36703 20.0481 6.44359 20.0996 6.54221C20.2025 6.73936 20.3367 7.02515 20.4699 7.39168C20.7365 8.1248 21.0001 9.18278 21.0001 10.5001C21.0001 11.8173 20.7365 12.8753 20.4699 13.6084C20.3367 13.975 20.2025 14.2607 20.0996 14.4579C20.0481 14.5565 20.0045 14.6331 19.9726 14.6866C19.9566 14.7134 19.9436 14.7344 19.934 14.7496L19.9223 14.7679L19.9185 14.7738L19.9171 14.7759L19.9165 14.7767L19.9163 14.7771C19.9162 14.7772 19.9161 14.7774 19.5001 14.5001L19.9161 14.7774C19.7629 15.0072 19.4525 15.0693 19.2227 14.9161C18.9932 14.7631 18.931 14.4531 19.0836 14.2234C19.0837 14.2233 19.0837 14.2231 19.0838 14.223L19.0837 14.2233L19.0836 14.2234L19.0835 14.2234L19.0885 14.2156C19.0936 14.2076 19.1021 14.1939 19.1135 14.1748C19.1363 14.1366 19.1707 14.0764 19.213 13.9953C19.2976 13.8331 19.4134 13.5877 19.5302 13.2667C19.7636 12.6248 20.0001 11.6828 20.0001 10.5001C20.0001 9.31733 19.7636 8.3753 19.5302 7.73342C19.4134 7.41245 19.2976 7.16699 19.213 7.00477C19.1707 6.9237 19.1363 6.86355 19.1135 6.82529C19.1021 6.80617 19.0936 6.79253 19.0885 6.78451L19.0835 6.7767L19.0837 6.77685L19.0838 6.77711C18.9309 6.54737 18.993 6.23714 19.2227 6.08403ZM19.0835 6.7767L19.0834 6.77642L19.0831 6.77598C19.083 6.77586 19.0832 6.7761 19.0835 6.7767ZM19.0835 14.2234C19.0832 14.224 19.083 14.2242 19.0831 14.2241L19.0834 14.2237L19.0835 14.2234Z" fill="#2B2B2C"/>
<path fill-rule="evenodd" clip-rule="evenodd" d="M4.7773 14.916C4.54753 15.0691 4.2371 15.0071 4.08392 14.7773L4.49995 14.4999C4.08392 14.7773 4.08381 14.7771 4.0837 14.777L4.08346 14.7766L4.08291 14.7758L4.08153 14.7737L4.07771 14.7678L4.06597 14.7495C4.05639 14.7343 4.04338 14.7133 4.02743 14.6865C3.99553 14.633 3.95186 14.5564 3.9004 14.4578C3.79754 14.2606 3.66333 13.9748 3.53005 13.6083C3.26346 12.8752 2.99995 11.8172 2.99995 10.4999C2.99995 9.18267 3.26346 8.1247 3.53005 7.39158C3.66333 7.02505 3.79754 6.73926 3.9004 6.5421C3.95186 6.44349 3.99553 6.36692 4.02743 6.31338C4.04338 6.2866 4.05639 6.26557 4.06597 6.25041L4.07771 6.23206L4.08153 6.22622L4.08291 6.22413L4.08346 6.22329L4.0837 6.22293C4.08381 6.22276 4.08392 6.2226 4.47835 6.48555L4.08392 6.2226C4.2371 5.99283 4.54753 5.93075 4.7773 6.08392C5.00696 6.23703 5.06909 6.54725 4.91618 6.77698C4.91618 6.77699 4.91617 6.777 4.91617 6.777M4.91618 6.77698L4.91634 6.77674L4.91645 6.77659L4.91146 6.7844C4.90639 6.79243 4.89792 6.80606 4.88653 6.82518C4.86374 6.86344 4.82929 6.92359 4.78699 7.00467C4.70235 7.16689 4.58656 7.41235 4.46984 7.73332C4.23643 8.3752 3.99995 9.31722 3.99995 10.4999C3.99995 11.6827 4.23643 12.6247 4.46984 13.2666C4.58656 13.5875 4.70235 13.833 4.78699 13.9952C4.82929 14.0763 4.86374 14.1365 4.88653 14.1747C4.89792 14.1938 4.90639 14.2075 4.91146 14.2155L4.91645 14.2233L4.91634 14.2232L4.91617 14.2229C5.06909 14.4526 5.00696 14.7629 4.7773 14.916M4.91645 14.2233L4.91662 14.2236L4.91692 14.224C4.91699 14.2241 4.91684 14.2239 4.91645 14.2233ZM4.91645 6.77659C4.91684 6.77599 4.91699 6.77575 4.91692 6.77587L4.91662 6.77632L4.91645 6.77659Z" fill="#2B2B2C"/>
</svg>
