<svg width="30" height="30" viewBox="0 0 30 30" fill="none" xmlns="http://www.w3.org/2000/svg">
<path fill-rule="evenodd" clip-rule="evenodd" d="M22.2427 10.0712C22.4795 9.92913 22.7866 10.0059 22.9287 10.2427L22.5 10.5C22.9287 10.2427 22.9288 10.2429 22.9289 10.2431L22.9292 10.2436L22.9299 10.2447L22.9316 10.2475L22.9365 10.256L22.9524 10.2839C22.9655 10.3072 22.9835 10.34 23.0051 10.3816C23.0483 10.4647 23.1065 10.5834 23.1705 10.7327C23.2981 11.0306 23.4508 11.4547 23.5527 11.9644C23.7568 12.9849 23.7605 14.3708 22.9287 15.7572C22.7866 15.994 22.4795 16.0708 22.2427 15.9287C22.0059 15.7866 21.9291 15.4795 22.0712 15.2427C22.7394 14.1291 22.7431 13.015 22.5722 12.1605C22.4866 11.7328 22.358 11.3756 22.2513 11.1266C22.1981 11.0025 22.1508 10.9063 22.1179 10.8429C22.1014 10.8113 22.0886 10.7879 22.0804 10.7734L22.0719 10.7584L22.0705 10.756C22.0704 10.7559 22.0705 10.756 22.0706 10.7562L22.0708 10.7566L22.071 10.7569C21.9292 10.5201 22.006 10.2132 22.2427 10.0712Z" fill="#2B2B2C"/>
<path fill-rule="evenodd" clip-rule="evenodd" d="M7.75729 15.9288C7.5205 16.0709 7.21337 15.9941 7.0713 15.7573L7.50005 15.5C7.0713 15.7573 7.07118 15.7571 7.07106 15.7569L7.07079 15.7564L7.07014 15.7553L7.06843 15.7525L7.06345 15.744L7.04755 15.7161C7.03446 15.6928 7.01654 15.66 6.99491 15.6184C6.9517 15.5353 6.89353 15.4166 6.82954 15.2673C6.70187 14.9694 6.5492 14.5453 6.44726 14.0356C6.24315 13.0151 6.23945 11.6292 7.0713 10.2428C7.21337 10.006 7.5205 9.92923 7.75729 10.0713C7.99408 10.2134 8.07087 10.5205 7.92879 10.7573C7.26064 11.8709 7.25694 12.985 7.42784 13.8395C7.51339 14.2672 7.64197 14.6244 7.74868 14.8734C7.80188 14.9975 7.84917 15.0937 7.88213 15.1571C7.8986 15.1887 7.91143 15.2121 7.91958 15.2266L7.92813 15.2416L7.9295 15.244C7.92955 15.2441 7.92953 15.244 7.92941 15.2438L7.92917 15.2434L7.929 15.2431C8.07079 15.4799 7.99397 15.7868 7.75729 15.9288Z" fill="#2B2B2C"/>
<path fill-rule="evenodd" clip-rule="evenodd" d="M23.1464 7.14645C23.3417 6.95118 23.6583 6.95118 23.8535 7.14645L23.5 7.5C23.8535 7.14645 23.8534 7.14628 23.8535 7.14645L23.8551 7.14803L23.8574 7.15036L23.8641 7.15724L23.8859 7.17992C23.9039 7.19898 23.9288 7.22591 23.9596 7.26059C24.0213 7.32994 24.1067 7.43043 24.2078 7.5611C24.41 7.82226 24.6761 8.20518 24.9411 8.70221C25.4716 9.69675 26 11.1521 26 13C26 14.8479 25.4716 16.3033 24.9411 17.2978C24.6761 17.7948 24.41 18.1777 24.2078 18.4389C24.1067 18.5696 24.0213 18.6701 23.9596 18.7394C23.9288 18.7741 23.9039 18.801 23.8859 18.8201L23.8641 18.8428L23.8574 18.8496L23.8551 18.852L23.8542 18.8529C23.8541 18.853 23.8535 18.8536 23.5 18.5L23.8542 18.8529C23.659 19.0481 23.3417 19.0488 23.1464 18.8536C22.9515 18.6586 22.9512 18.3427 23.1455 18.1474C23.1456 18.1473 23.1463 18.1465 23.1464 18.1464L23.159 18.1333C23.1703 18.1213 23.1883 18.1019 23.2122 18.075C23.2599 18.0213 23.3308 17.9382 23.4171 17.8267C23.5899 17.6035 23.8239 17.2677 24.0588 16.8272C24.5284 15.9467 25 14.6521 25 13C25 11.3479 24.5284 10.0533 24.0588 9.17279C23.8239 8.73232 23.5899 8.39649 23.4171 8.17327C23.3308 8.06176 23.2599 7.97865 23.2122 7.92496C23.1883 7.89812 23.1703 7.87866 23.159 7.86671L23.1473 7.85444L23.1455 7.8526C23.1455 7.85263 23.1454 7.85256 23.1455 7.8526C22.9505 7.65732 22.9512 7.34162 23.1464 7.14645Z" fill="#2B2B2C"/>
<path fill-rule="evenodd" clip-rule="evenodd" d="M6.85358 18.8536C6.65832 19.0488 6.34174 19.0488 6.14648 18.8536L6.50003 18.5C6.14648 18.8536 6.14664 18.8537 6.14648 18.8536L6.1449 18.852L6.1426 18.8496L6.13585 18.8428L6.11414 18.8201C6.09614 18.801 6.07122 18.7741 6.04039 18.7394C5.97874 18.6701 5.89333 18.5696 5.79217 18.4389C5.58998 18.1777 5.32393 17.7948 5.05885 17.2978C4.52843 16.3033 4.00003 14.8479 4.00003 13C4.00003 11.1521 4.52843 9.69675 5.05885 8.70221C5.32393 8.20518 5.58998 7.82226 5.79217 7.5611C5.89333 7.43043 5.97874 7.32994 6.04039 7.26059C6.07122 7.22591 6.09614 7.19898 6.11414 7.17992L6.13585 7.15724L6.1426 7.15036L6.1449 7.14803L6.14578 7.14714C6.14594 7.14698 6.14647 7.14646 6.46882 7.46879L6.14578 7.14714C6.34104 6.95188 6.65832 6.95118 6.85358 7.14645C7.04854 7.34141 7.04885 7.65731 6.85449 7.85264C6.8544 7.85274 6.85368 7.85346 6.85358 7.85355L6.841 7.86671C6.8297 7.87866 6.81165 7.89812 6.7878 7.92496C6.74007 7.97865 6.66923 8.06176 6.58289 8.17327C6.41008 8.39649 6.17613 8.73231 5.94121 9.17279C5.47163 10.0533 5.00003 11.3479 5.00003 13C5.00003 14.6521 5.47163 15.9467 5.94121 16.8272C6.17613 17.2677 6.41008 17.6035 6.58289 17.8267C6.66923 17.9382 6.74007 18.0213 6.7878 18.075C6.81165 18.1019 6.8297 18.1213 6.841 18.1333L6.85273 18.1456L6.85453 18.1474C7.04952 18.3427 7.04875 18.6584 6.85358 18.8536Z" fill="#2B2B2C"/>
<path fill-rule="evenodd" clip-rule="evenodd" d="M15 3C12.2386 3 10 5.23858 10 8V9H12.5C12.7761 9 13 9.22386 13 9.5C13 9.77614 12.7761 10 12.5 10H10V12.5H12.5C12.7761 12.5 13 12.7239 13 13C13 13.2761 12.7761 13.5 12.5 13.5H10V16H12.5C12.7761 16 13 16.2239 13 16.5C13 16.7761 12.7761 17 12.5 17H10V18C10 20.5927 11.9733 22.7245 14.5 22.9753V26H10.5C10.2239 26 10 26.2239 10 26.5C10 26.7761 10.2239 27 10.5 27H15H19.5C19.7761 27 20 26.7761 20 26.5C20 26.2239 19.7761 26 19.5 26H15.5V22.9753C18.0267 22.7245 20 20.5927 20 18V17H17.5C17.2239 17 17 16.7761 17 16.5C17 16.2239 17.2239 16 17.5 16H20V13.5H17.5C17.2239 13.5 17 13.2761 17 13C17 12.7239 17.2239 12.5 17.5 12.5H20V10H17.5C17.2239 10 17 9.77614 17 9.5C17 9.22386 17.2239 9 17.5 9H20V8C20 5.23858 17.7614 3 15 3Z" fill="#2B2B2C"/>
</svg>
