<svg width="18" height="18" viewBox="0 0 18 18" fill="none" xmlns="http://www.w3.org/2000/svg">
<path fill-rule="evenodd" clip-rule="evenodd" d="M3 3.25C3 3.11193 3.11193 3 3.25 3H5.5C5.77614 3 6 2.77614 6 2.5C6 2.22386 5.77614 2 5.5 2H3.25C2.55964 2 2 2.55964 2 3.25V5.5C2 5.77614 2.22386 6 2.5 6C2.77614 6 3 5.77614 3 5.5V3.25ZM15 14.75C15 14.8881 14.8881 15 14.75 15H12.5C12.2239 15 12 15.2239 12 15.5C12 15.7761 12.2239 16 12.5 16H14.75C15.4404 16 16 15.4404 16 14.75V12.5C16 12.2239 15.7761 12 15.5 12C15.2239 12 15 12.2239 15 12.5V14.75ZM15 5.5V3.25C15 3.11193 14.8881 3 14.75 3H12.5C12.2239 3 12 2.77614 12 2.5C12 2.22386 12.2239 2 12.5 2H14.75C15.4404 2 16 2.55964 16 3.25V5.5C16 5.77614 15.7761 6 15.5 6C15.2239 6 15 5.77614 15 5.5ZM3 14.75L3 12.5C3 12.2239 2.77614 12 2.5 12C2.22386 12 2 12.2239 2 12.5V14.75C2 15.4404 2.55964 16 3.25 16H5.5C5.77614 16 6 15.7761 6 15.5C6 15.2239 5.77614 15 5.5 15H3.25C3.11193 15 3 14.8881 3 14.75ZM9 4C9.27614 4 9.5 4.22386 9.5 4.5V9C9.5 9.27614 9.27614 9.5 9 9.5H4.5C4.22386 9.5 4 9.27614 4 9C4 8.72386 4.22386 8.5 4.5 8.5H8.5V4.5C8.5 4.22386 8.72386 4 9 4ZM11 8.5C11.2761 8.5 11.5 8.72386 11.5 9V10H13.5C13.7761 10 14 10.2239 14 10.5C14 10.7761 13.7761 11 13.5 11H10V13.5C10 13.7761 9.77614 14 9.5 14C9.22386 14 9 13.7761 9 13.5V10.5C9 10.2239 9.22386 10 9.5 10H10.5V9C10.5 8.72386 10.7239 8.5 11 8.5ZM13.5 9.5C13.7761 9.5 14 9.27614 14 9C14 8.72386 13.7761 8.5 13.5 8.5C13.2239 8.5 13 8.72386 13 9C13 9.27614 13.2239 9.5 13.5 9.5ZM11 12.5C11 12.2239 11.2239 12 11.5 12H13.5C13.7761 12 14 12.2239 14 12.5V13.5C14 13.7761 13.7761 14 13.5 14H11.5C11.2239 14 11 13.7761 11 13.5V12.5ZM10.5 4C10.2239 4 10 4.22386 10 4.5V7.5C10 7.77614 10.2239 8 10.5 8H13.5C13.7761 8 14 7.77614 14 7.5V4.5C14 4.22386 13.7761 4 13.5 4H10.5ZM4.5 10C4.22386 10 4 10.2239 4 10.5V13.5C4 13.7761 4.22386 14 4.5 14H7.5C7.77614 14 8 13.7761 8 13.5V10.5C8 10.2239 7.77614 10 7.5 10H4.5ZM4.5 4C4.22386 4 4 4.22386 4 4.5V7.5C4 7.77614 4.22386 8 4.5 8H7.5C7.77614 8 8 7.77614 8 7.5V4.5C8 4.22386 7.77614 4 7.5 4H4.5ZM12.5 6C12.5 6.27614 12.2761 6.5 12 6.5C11.7239 6.5 11.5 6.27614 11.5 6C11.5 5.72386 11.7239 5.5 12 5.5C12.2761 5.5 12.5 5.72386 12.5 6ZM6 6.5C6.27614 6.5 6.5 6.27614 6.5 6C6.5 5.72386 6.27614 5.5 6 5.5C5.72386 5.5 5.5 5.72386 5.5 6C5.5 6.27614 5.72386 6.5 6 6.5ZM6.5 12C6.5 12.2761 6.27614 12.5 6 12.5C5.72386 12.5 5.5 12.2761 5.5 12C5.5 11.7239 5.72386 11.5 6 11.5C6.27614 11.5 6.5 11.7239 6.5 12Z" fill="#2B2B2C"/>
</svg>
