<svg width="24" height="24" viewBox="0 0 24 24" fill="none" xmlns="http://www.w3.org/2000/svg">
<path fill-rule="evenodd" clip-rule="evenodd" d="M4.5 4C4.22386 4 4 4.22386 4 4.5V7.5C4 7.77614 3.77614 8 3.5 8C3.22386 8 3 7.77614 3 7.5V4.5C3 3.67157 3.67157 3 4.5 3H7.5C7.77614 3 8 3.22386 8 3.5C8 3.77614 7.77614 4 7.5 4H4.5ZM19.5 20C19.7761 20 20 19.7761 20 19.5V16.5C20 16.2239 20.2239 16 20.5 16C20.7761 16 21 16.2239 21 16.5V19.5C21 20.3284 20.3284 21 19.5 21H16.5C16.2239 21 16 20.7761 16 20.5C16 20.2239 16.2239 20 16.5 20H19.5ZM19.5 4C19.7761 4 20 4.22386 20 4.5V7.5C20 7.77614 20.2239 8 20.5 8C20.7761 8 21 7.77614 21 7.5V4.5C21 3.67157 20.3284 3 19.5 3H16.5C16.2239 3 16 3.22386 16 3.5C16 3.77614 16.2239 4 16.5 4L19.5 4ZM4 19.5C4 19.7761 4.22386 20 4.5 20H7.5C7.77614 20 8 20.2239 8 20.5C8 20.7761 7.77614 21 7.5 21H4.5C3.67157 21 3 20.3284 3 19.5V16.5C3 16.2239 3.22386 16 3.5 16C3.77614 16 4 16.2239 4 16.5L4 19.5ZM12.5 6C12.5 5.72386 12.2761 5.5 12 5.5C11.7239 5.5 11.5 5.72386 11.5 6V11.5H9.5C9.22386 11.5 9 11.7239 9 12C9 12.2761 9.22386 12.5 9.5 12.5H12C12.2761 12.5 12.5 12.2761 12.5 12V6ZM6 11.5C5.72386 11.5 5.5 11.7239 5.5 12C5.5 12.2761 5.72386 12.5 6 12.5H7.5C7.77614 12.5 8 12.2761 8 12C8 11.7239 7.77614 11.5 7.5 11.5H6ZM14.5 11.5C14.2239 11.5 14 11.7239 14 12V13.5H12C11.7239 13.5 11.5 13.7239 11.5 14V18C11.5 18.2761 11.7239 18.5 12 18.5C12.2761 18.5 12.5 18.2761 12.5 18V14.5H18C18.2761 14.5 18.5 14.2761 18.5 14C18.5 13.7239 18.2761 13.5 18 13.5H15V12.5H16C16.2761 12.5 16.5 12.2761 16.5 12C16.5 11.7239 16.2761 11.5 16 11.5H14.5ZM18.5 12C18.5 12.2761 18.2761 12.5 18 12.5C17.7239 12.5 17.5 12.2761 17.5 12C17.5 11.7239 17.7239 11.5 18 11.5C18.2761 11.5 18.5 11.7239 18.5 12ZM15 16C15 15.7239 15.2239 15.5 15.5 15.5H18C18.2761 15.5 18.5 15.7239 18.5 16V18C18.5 18.2761 18.2761 18.5 18 18.5H14C13.7239 18.5 13.5 18.2761 13.5 18C13.5 17.7239 13.7239 17.5 14 17.5H15V16ZM14 5.5C13.7239 5.5 13.5 5.72386 13.5 6V10C13.5 10.2761 13.7239 10.5 14 10.5H18C18.2761 10.5 18.5 10.2761 18.5 10V6C18.5 5.72386 18.2761 5.5 18 5.5H14ZM6 13.5C5.72386 13.5 5.5 13.7239 5.5 14V18C5.5 18.2761 5.72386 18.5 6 18.5H10C10.2761 18.5 10.5 18.2761 10.5 18V14C10.5 13.7239 10.2761 13.5 10 13.5H6ZM6 5.5C5.72386 5.5 5.5 5.72386 5.5 6V10C5.5 10.2761 5.72386 10.5 6 10.5H10C10.2761 10.5 10.5 10.2761 10.5 10V6C10.5 5.72386 10.2761 5.5 10 5.5H6ZM8.5 16C8.5 16.2761 8.27614 16.5 8 16.5C7.72386 16.5 7.5 16.2761 7.5 16C7.5 15.7239 7.72386 15.5 8 15.5C8.27614 15.5 8.5 15.7239 8.5 16ZM8 8.5C8.27614 8.5 8.5 8.27614 8.5 8C8.5 7.72386 8.27614 7.5 8 7.5C7.72386 7.5 7.5 7.72386 7.5 8C7.5 8.27614 7.72386 8.5 8 8.5ZM16.5 8C16.5 8.27614 16.2761 8.5 16 8.5C15.7239 8.5 15.5 8.27614 15.5 8C15.5 7.72386 15.7239 7.5 16 7.5C16.2761 7.5 16.5 7.72386 16.5 8Z" fill="#2B2B2C"/>
</svg>
