<svg width="24" height="24" viewBox="0 0 24 24" fill="none" xmlns="http://www.w3.org/2000/svg">
<path fill-rule="evenodd" clip-rule="evenodd" d="M20.3881 4.31531C20.5622 4.10099 20.5296 3.78609 20.3153 3.61196C20.101 3.43783 19.7861 3.4704 19.612 3.68472L18 5.66867V4.51539C18 3.68572 17.0479 3.21691 16.3903 3.72277L10.8299 7.99996H6.5C5.67157 7.99996 5 8.67153 5 9.49996V14.5C5 15.3284 5.67157 16 6.5 16H9.60583L6.61196 19.6847C6.43783 19.899 6.4704 20.2139 6.68472 20.3881C6.89904 20.5622 7.21394 20.5296 7.38807 20.3153L10.8695 16.0304L16.3903 20.2772C17.0479 20.783 18 20.3142 18 19.4845V7.25448L20.3881 4.31531ZM17 6.89944V4.51539L11.5 8.74616V13.6687L17 6.89944ZM11.5004 15.254L17 8.48525V19.4845L11.5004 15.254ZM10.5 14.8994V8.99996H6.5C6.22386 8.99996 6 9.22382 6 9.49996V14.5C6 14.7761 6.22386 15 6.5 15H10.4183L10.5 14.8994Z" fill="#2B2B2C"/>
</svg>
