<svg width="30" height="30" viewBox="0 0 30 30" fill="none" xmlns="http://www.w3.org/2000/svg">
<path fill-rule="evenodd" clip-rule="evenodd" d="M25.8932 4.80893C26.0638 4.5918 26.0261 4.27747 25.8089 4.10686C25.5918 3.93626 25.2775 3.97397 25.1068 4.19111L23 6.87255V5.16779C23 4.26925 21.9986 3.73331 21.251 4.23173L14 9.0657V18.3271L13 19.5998V9.49996H7.75C6.7835 9.49996 6 10.2835 6 11.25V18.75C6 19.7165 6.7835 20.5 7.75 20.5H12.2927L8.60685 25.1911C8.43624 25.4082 8.47396 25.7226 8.6911 25.8932C8.90823 26.0638 9.22256 26.0261 9.39317 25.8089L25.8932 4.80893ZM14.3177 21.146L23 10.0958V24.8321C23 25.7307 21.9986 26.2666 21.251 25.7682L14.3177 21.146Z" fill="#2B2B2C"/>
</svg>
