<svg width="24" height="24" viewBox="0 0 24 24" fill="none" xmlns="http://www.w3.org/2000/svg">
<path fill-rule="evenodd" clip-rule="evenodd" d="M4.5 4C3.67157 4 3 4.67157 3 5.5V16.5C3 17.3284 3.67157 18 4.5 18H12.5V20.5C12.5 20.6844 12.6015 20.8538 12.7641 20.9408C12.9267 21.0278 13.1239 21.0183 13.2774 20.916L17.6514 18H19.5C20.3284 18 21 17.3284 21 16.5V5.5C21 4.67157 20.3284 4 19.5 4H4.5ZM6.5 8C6.5 7.72386 6.72386 7.5 7 7.5H17C17.2761 7.5 17.5 7.72386 17.5 8C17.5 8.27614 17.2761 8.5 17 8.5H7C6.72386 8.5 6.5 8.27614 6.5 8ZM7 10.5C6.72386 10.5 6.5 10.7239 6.5 11C6.5 11.2761 6.72386 11.5 7 11.5H17C17.2761 11.5 17.5 11.2761 17.5 11C17.5 10.7239 17.2761 10.5 17 10.5H7ZM6.5 14C6.5 13.7239 6.72386 13.5 7 13.5H13.5C13.7761 13.5 14 13.7239 14 14C14 14.2761 13.7761 14.5 13.5 14.5H7C6.72386 14.5 6.5 14.2761 6.5 14Z" fill="#2B2B2C"/>
</svg>
