<svg width="30" height="30" viewBox="0 0 30 30" fill="none" xmlns="http://www.w3.org/2000/svg">
<path fill-rule="evenodd" clip-rule="evenodd" d="M4.5 5C3.67157 5 3 5.67157 3 6.5V21.5C3 22.3284 3.67157 23 4.5 23H15.5V26.5C15.5 26.6844 15.6015 26.8538 15.7641 26.9408C15.9267 27.0278 16.1239 27.0183 16.2774 26.916L22.1514 23H25.5C26.3284 23 27 22.3284 27 21.5V6.5C27 5.67157 26.3284 5 25.5 5H4.5ZM4 6.5C4 6.22386 4.22386 6 4.5 6H25.5C25.7761 6 26 6.22386 26 6.5V21.5C26 21.7761 25.7761 22 25.5 22H22C21.9013 22 21.8048 22.0292 21.7227 22.084L16.5 25.5657V22.5C16.5 22.2239 16.2761 22 16 22H4.5C4.22386 22 4 21.7761 4 21.5V6.5ZM7 9.5C6.72386 9.5 6.5 9.72386 6.5 10C6.5 10.2761 6.72386 10.5 7 10.5H23C23.2761 10.5 23.5 10.2761 23.5 10C23.5 9.72386 23.2761 9.5 23 9.5H7ZM6.5 14C6.5 13.7239 6.72386 13.5 7 13.5H23C23.2761 13.5 23.5 13.7239 23.5 14C23.5 14.2761 23.2761 14.5 23 14.5H7C6.72386 14.5 6.5 14.2761 6.5 14ZM15 18.5C15.2762 18.5 15.5 18.2761 15.5 18C15.5 17.7239 15.2762 17.5 15 17.5H7.00002C6.72388 17.5 6.50002 17.7239 6.50002 18C6.50002 18.2761 6.72388 18.5 7.00002 18.5H15Z" fill="#2B2B2C"/>
</svg>
