<svg width="18" height="18" viewBox="0 0 18 18" fill="none" xmlns="http://www.w3.org/2000/svg">
<path fill-rule="evenodd" clip-rule="evenodd" d="M2 4.5C2 3.67157 2.67157 3 3.5 3H14.5C15.3284 3 16 3.67157 16 4.5V12C16 12.8284 15.3284 13.5 14.5 13.5H13.1434L9.265 15.924C9.11087 16.0203 8.91659 16.0254 8.75762 15.9373C8.59864 15.8492 8.5 15.6818 8.5 15.5V13.5H3.5C2.67157 13.5 2 12.8284 2 12V4.5ZM3.5 4C3.22386 4 3 4.22386 3 4.5V12C3 12.2761 3.22386 12.5 3.5 12.5H9C9.27614 12.5 9.5 12.7239 9.5 13V14.5979L12.735 12.576C12.8145 12.5263 12.9063 12.5 13 12.5H14.5C14.7761 12.5 15 12.2761 15 12V4.5C15 4.22386 14.7761 4 14.5 4H3.5ZM5 7.00002C5 6.72388 5.22386 6.50002 5.5 6.50002H12.5C12.7761 6.50002 13 6.72388 13 7.00002C13 7.27617 12.7761 7.50002 12.5 7.50002H5.5C5.22386 7.50002 5 7.27617 5 7.00002ZM9.49998 9.99998C9.77612 9.99998 9.99998 9.77612 9.99998 9.49998C9.99998 9.22384 9.77612 8.99998 9.49998 8.99998L5.50001 9C5.22386 9 5.00001 9.22386 5.00001 9.5C5.00001 9.77614 5.22387 10 5.50001 10L9.49998 9.99998Z" fill="#2B2B2C"/>
</svg>
