<svg width="30" height="30" viewBox="0 0 30 30" fill="none" xmlns="http://www.w3.org/2000/svg">
<path fill-rule="evenodd" clip-rule="evenodd" d="M5.5 4.75C5.5 3.7835 6.2835 3 7.25 3H22.75C23.7165 3 24.5 3.7835 24.5 4.75V24H5.5V4.75ZM5.5 25V25.25C5.5 26.2165 6.2835 27 7.25 27H22.75C23.7165 27 24.5 26.2165 24.5 25.25V25H5.5ZM13 5.5C13 5.22386 13.2239 5 13.5 5H16.5C16.7761 5 17 5.22386 17 5.5C17 5.77614 16.7761 6 16.5 6H13.5C13.2239 6 13 5.77614 13 5.5ZM22 6C22.2761 6 22.5 5.77614 22.5 5.5C22.5 5.22386 22.2761 5 22 5C21.7239 5 21.5 5.22386 21.5 5.5C21.5 5.77614 21.7239 6 22 6Z" fill="#2B2B2C"/>
</svg>
