<svg width="18" height="18" viewBox="0 0 18 18" fill="none" xmlns="http://www.w3.org/2000/svg">
<path fill-rule="evenodd" clip-rule="evenodd" d="M1.5 9C1.5 4.85786 4.85786 1.5 9 1.5C13.1421 1.5 16.5 4.85786 16.5 9C16.5 13.1421 13.1421 16.5 9 16.5C4.85786 16.5 1.5 13.1421 1.5 9ZM3.5 8.5C3.22386 8.5 3 8.72386 3 9C3 9.27614 3.22386 9.5 3.5 9.5H4C4.27614 9.5 4.5 9.27614 4.5 9C4.5 8.72386 4.27614 8.5 4 8.5H3.5ZM14 8.5C13.7239 8.5 13.5 8.72386 13.5 9C13.5 9.27614 13.7239 9.5 14 9.5H14.5C14.7761 9.5 15 9.27614 15 9C15 8.72386 14.7761 8.5 14.5 8.5H14ZM9.49999 14C9.49999 13.7239 9.27613 13.5 8.99999 13.5C8.72385 13.5 8.49999 13.7239 8.49999 14V14.5C8.49999 14.7761 8.72385 15 8.99999 15C9.27613 15 9.49999 14.7761 9.49999 14.5V14ZM7.32653 8.03106C7.52277 7.95846 7.74346 8.01574 7.87963 8.1746L10 10.6484V8.5C10 8.22386 10.2239 8 10.5 8C10.7761 8 11 8.22386 11 8.5V12C11 12.2092 10.8697 12.3963 10.6735 12.4689C10.4772 12.5415 10.2565 12.4843 10.1204 12.3254L8 9.85163V12C8 12.2761 7.77614 12.5 7.5 12.5C7.22386 12.5 7 12.2761 7 12V8.5C7 8.29076 7.13029 8.10365 7.32653 8.03106ZM7.70267 5.95955C7.60461 6.22105 7.79792 6.5 8.0772 6.5H9.9228C10.2021 6.5 10.3954 6.22105 10.2973 5.95955L9.37453 3.49875C9.24476 3.15268 8.75524 3.15268 8.62547 3.49875L7.70267 5.95955Z" fill="#2B2B2C"/>
</svg>
