<svg width="30" height="30" viewBox="0 0 30 30" fill="none" xmlns="http://www.w3.org/2000/svg">
<path fill-rule="evenodd" clip-rule="evenodd" d="M15 4C8.92487 4 4 8.92487 4 15C4 21.0751 8.92487 26 15 26C21.0751 26 26 21.0751 26 15C26 8.92487 21.0751 4 15 4ZM3 15C3 8.37258 8.37258 3 15 3C21.6274 3 27 8.37258 27 15C27 21.6274 21.6274 27 15 27C8.37258 27 3 21.6274 3 15Z" fill="#2B2B2C"/>
<path fill-rule="evenodd" clip-rule="evenodd" d="M15 5C15.2103 5 15.398 5.13153 15.4699 5.32913L17.4699 10.8291C17.5256 10.9824 17.5031 11.1533 17.4095 11.2868C17.316 11.4204 17.1631 11.5 17 11.5H13C12.8369 11.5 12.684 11.4204 12.5905 11.2868C12.4969 11.1533 12.4744 10.9824 12.5301 10.8291L14.5301 5.32913C14.602 5.13153 14.7897 5 15 5ZM13.7139 10.5H16.2861L15 6.96309L13.7139 10.5ZM12.8454 13.5245C13.0513 13.4575 13.277 13.5308 13.4044 13.7059L16.5 17.9624V14C16.5 13.7239 16.7239 13.5 17 13.5C17.2761 13.5 17.5 13.7239 17.5 14V19.5C17.5 19.7166 17.3606 19.9085 17.1546 19.9755C16.9487 20.0425 16.723 19.9692 16.5956 19.7941L13.5 15.5376V19.5C13.5 19.7761 13.2761 20 13 20C12.7239 20 12.5 19.7761 12.5 19.5V14C12.5 13.7834 12.6394 13.5915 12.8454 13.5245ZM5 15C5 14.7239 5.22386 14.5 5.5 14.5H7.5C7.77614 14.5 8 14.7239 8 15C8 15.2761 7.77614 15.5 7.5 15.5H5.5C5.22386 15.5 5 15.2761 5 15ZM22 15C22 14.7239 22.2239 14.5 22.5 14.5H24.5C24.7761 14.5 25 14.7239 25 15C25 15.2761 24.7761 15.5 24.5 15.5H22.5C22.2239 15.5 22 15.2761 22 15ZM15 22C15.2761 22 15.5 22.2239 15.5 22.5V24.5C15.5 24.7761 15.2761 25 15 25C14.7239 25 14.5 24.7761 14.5 24.5V22.5C14.5 22.2239 14.7239 22 15 22Z" fill="#2B2B2C"/>
</svg>
