<svg width="18" height="18" viewBox="0 0 18 18" fill="none" xmlns="http://www.w3.org/2000/svg">
<path fill-rule="evenodd" clip-rule="evenodd" d="M2.5 9C2.5 5.41015 5.41015 2.5 9 2.5C12.5899 2.5 15.5 5.41015 15.5 9C15.5 12.5899 12.5899 15.5 9 15.5C5.41015 15.5 2.5 12.5899 2.5 9ZM9 1.5C4.85786 1.5 1.5 4.85786 1.5 9C1.5 13.1421 4.85786 16.5 9 16.5C13.1421 16.5 16.5 13.1421 16.5 9C16.5 4.85786 13.1421 1.5 9 1.5ZM9.47434 3.34189C9.40628 3.13771 9.21522 3 9 3C8.78478 3 8.59372 3.13771 8.52566 3.34189L7.52566 6.34189C7.47483 6.49436 7.5004 6.66197 7.59438 6.79236C7.68835 6.92274 7.83928 7 8 7H10C10.1607 7 10.3116 6.92274 10.4056 6.79236C10.4996 6.66197 10.5252 6.49436 10.4743 6.34189L9.47434 3.34189ZM9 5.08114L9.30629 6H8.69371L9 5.08114ZM7.87963 8.1746C7.74346 8.01574 7.52277 7.95846 7.32653 8.03106C7.13029 8.10365 7 8.29076 7 8.5V12C7 12.2761 7.22386 12.5 7.5 12.5C7.77614 12.5 8 12.2761 8 12V9.85163L10.1204 12.3254C10.2565 12.4843 10.4772 12.5415 10.6735 12.4689C10.8697 12.3963 11 12.2092 11 12V8.5C11 8.22386 10.7761 8 10.5 8C10.2239 8 10 8.22386 10 8.5V10.6484L7.87963 8.1746ZM3.5 8.5C3.22386 8.5 3 8.72386 3 9C3 9.27614 3.22386 9.5 3.5 9.5H4C4.27614 9.5 4.5 9.27614 4.5 9C4.5 8.72386 4.27614 8.5 4 8.5H3.5ZM14 8.5C13.7239 8.5 13.5 8.72386 13.5 9C13.5 9.27614 13.7239 9.5 14 9.5H14.5C14.7761 9.5 15 9.27614 15 9C15 8.72386 14.7761 8.5 14.5 8.5H14ZM9.49999 14C9.49999 13.7239 9.27613 13.5 8.99999 13.5C8.72385 13.5 8.49999 13.7239 8.49999 14V14.5C8.49999 14.7761 8.72385 15 8.99999 15C9.27613 15 9.49999 14.7761 9.49999 14.5V14Z" fill="#2B2B2C"/>
</svg>
