<svg width="30" height="30" viewBox="0 0 30 30" fill="none" xmlns="http://www.w3.org/2000/svg">
<path fill-rule="evenodd" clip-rule="evenodd" d="M11.5 3.5C11.5697 3.5 11.636 3.51425 11.6963 3.54001L19 6.46149L26.3143 3.53576C26.4683 3.47415 26.6429 3.49295 26.7803 3.58597C26.9177 3.67898 27 3.83409 27 4V22.5C27 22.6943 26.8875 22.8709 26.7114 22.9531L19.2201 26.4491C19.1649 26.4762 19.1039 26.4934 19.0395 26.4984C19.0132 26.5005 18.9868 26.5005 18.9605 26.4984C18.8961 26.4934 18.8351 26.4762 18.7799 26.4491L11.4933 23.0487L3.7004 26.4581C3.54581 26.5257 3.36754 26.5108 3.22632 26.4185C3.0851 26.3261 2.99999 26.1687 2.99999 26V7.5C2.99999 7.30135 3.11759 7.12155 3.29958 7.04192L11.2895 3.54635C11.3534 3.51661 11.4248 3.5 11.5 3.5ZM19.5 25.2149L26 22.1816V4.73852L19.5 7.33852V25.2149ZM18.5 7.33852V25.2149L12 22.1816V4.73852L18.5 7.33852ZM3.99999 7.82701L11 4.76451V22.173L3.99999 25.2355V7.82701Z" fill="#2B2B2C"/>
</svg>
