<svg width="30" height="30" viewBox="0 0 30 30" fill="none" xmlns="http://www.w3.org/2000/svg">
<path fill-rule="evenodd" clip-rule="evenodd" d="M11.6963 3.54001C11.636 3.51425 11.5697 3.5 11.5 3.5C11.4248 3.5 11.3535 3.51661 11.2895 3.54635L3.29959 7.04192C3.1176 7.12155 3 7.30135 3 7.5V26C3 26.1687 3.08511 26.3261 3.22633 26.4185C3.36754 26.5108 3.54582 26.5257 3.70041 26.4581L11.4934 23.0487L18.7799 26.4491C18.8351 26.4762 18.8961 26.4934 18.9605 26.4984C18.9736 26.4995 18.9868 26.5 19 26.5C19.0132 26.5 19.0264 26.4995 19.0395 26.4984C19.1039 26.4934 19.1649 26.4762 19.2201 26.4491L26.7114 22.9531C26.8875 22.8709 27 22.6943 27 22.5V4C27 3.83409 26.9177 3.67898 26.7803 3.58597C26.6429 3.49295 26.4683 3.47415 26.3143 3.53576L19 6.46149L11.6963 3.54001ZM26 22.1816L19.5 25.2149V7.33852L26 4.73852V22.1816ZM11 4.76451L4 7.82701V25.2355L11 22.173V4.76451Z" fill="#2B2B2C"/>
</svg>
