<svg width="18" height="18" viewBox="0 0 18 18" fill="none" xmlns="http://www.w3.org/2000/svg">
<path fill-rule="evenodd" clip-rule="evenodd" d="M7.21302 2.54752C7.14839 2.51704 7.07619 2.5 7 2.5C6.92381 2.5 6.8516 2.51704 6.78698 2.54752L2.29693 4.54309C2.11637 4.62335 2 4.80241 2 5V15C2 15.1693 2.08563 15.327 2.22754 15.4192C2.36946 15.5115 2.5484 15.5256 2.70307 15.4569L7 13.5472L11.287 15.4525C11.3455 15.4801 11.4102 15.4967 11.4785 15.4995C11.4849 15.4998 11.4913 15.5 11.4977 15.5L11.5 15.5L11.5055 15.5C11.5874 15.4991 11.6646 15.4785 11.7326 15.4427L15.7236 13.4472C15.893 13.3625 16 13.1894 16 13V3C16 2.82671 15.9103 2.66578 15.7629 2.57468C15.6155 2.48357 15.4314 2.47529 15.2764 2.55279L11.4874 4.44726L7.21302 2.54752ZM15 12.691L12 14.191V5.30902L15 3.80902V12.691ZM6.5 3.76938L3 5.32494V14.2306L6.5 12.6751V3.76938Z" fill="#2B2B2C"/>
</svg>
