<svg width="24" height="24" viewBox="0 0 24 24" fill="none" xmlns="http://www.w3.org/2000/svg">
<path fill-rule="evenodd" clip-rule="evenodd" d="M3 12C3 7.02944 7.02944 3 12 3C16.9706 3 21 7.02944 21 12C21 16.9706 16.9706 21 12 21C7.02944 21 3 16.9706 3 12ZM10 7C9.72386 7 9.5 7.22386 9.5 7.5V12.5V16.5C9.5 16.7761 9.72386 17 10 17C10.2761 17 10.5 16.7761 10.5 16.5V13H12.5C14.1569 13 15.5 11.6569 15.5 10C15.5 8.34315 14.1569 7 12.5 7H10ZM12.5 12H10.5V8H12.5C13.6046 8 14.5 8.89543 14.5 10C14.5 11.1046 13.6046 12 12.5 12Z" fill="#2B2B2C"/>
</svg>
