<svg width="30" height="30" viewBox="0 0 30 30" fill="none" xmlns="http://www.w3.org/2000/svg">
<g clip-path="url(#clip0_1115_3512)">
<path fill-rule="evenodd" clip-rule="evenodd" d="M15 4C8.92487 4 4 8.92487 4 15C4 21.0751 8.92487 26 15 26C21.0751 26 26 21.0751 26 15C26 8.92487 21.0751 4 15 4ZM3 15C3 8.37258 8.37258 3 15 3C21.6274 3 27 8.37258 27 15C27 21.6274 21.6274 27 15 27C8.37258 27 3 21.6274 3 15Z" fill="#2B2B2C"/>
<path fill-rule="evenodd" clip-rule="evenodd" d="M11.5 9C11.5 8.72386 11.7239 8.5 12 8.5H16C18.2091 8.5 20 10.2909 20 12.5C20 14.7091 18.2091 16.5 16 16.5H12.5V21.5C12.5 21.7761 12.2761 22 12 22C11.7239 22 11.5 21.7761 11.5 21.5V9ZM12.5 15.5H16C17.6569 15.5 19 14.1569 19 12.5C19 10.8431 17.6569 9.5 16 9.5H12.5V15.5Z" fill="#2B2B2C"/>
</g>
<defs>
<clipPath id="clip0_1115_3512">
<rect width="30" height="30" fill="white"/>
</clipPath>
</defs>
</svg>
