<svg width="18" height="18" viewBox="0 0 18 18" fill="none" xmlns="http://www.w3.org/2000/svg">
<path fill-rule="evenodd" clip-rule="evenodd" d="M9 1.5C4.85786 1.5 1.5 4.85786 1.5 9C1.5 13.1421 4.85786 16.5 9 16.5C13.1421 16.5 16.5 13.1421 16.5 9C16.5 4.85786 13.1421 1.5 9 1.5ZM7 5.5C7 5.22386 7.22386 5 7.5 5H9.5C10.8807 5 12 6.11929 12 7.5C12 8.88071 10.8807 10 9.5 10H8V12.5C8 12.7761 7.77614 13 7.5 13C7.22386 13 7 12.7761 7 12.5V9.5V5.5ZM8 9H9.5C10.3284 9 11 8.32843 11 7.5C11 6.67157 10.3284 6 9.5 6H8V9Z" fill="#2B2B2C"/>
</svg>
