<svg width="18" height="18" viewBox="0 0 18 18" fill="none" xmlns="http://www.w3.org/2000/svg">
<path fill-rule="evenodd" clip-rule="evenodd" d="M6.44419 3.13547C5.84601 3.84241 5.5 4.84657 5.5 6C5.5 7.40553 6.3899 8.78559 7.36997 9.86366C7.85053 10.3923 8.33266 10.8264 8.69509 11.1284C8.81062 11.2247 8.91359 11.3072 9 11.3748C9.0864 11.3072 9.18938 11.2247 9.30491 11.1284C9.66734 10.8264 10.1495 10.3923 10.63 9.86366C11.6101 8.78559 12.5 7.40553 12.5 6C12.5 4.84657 12.154 3.84241 11.5558 3.13547C10.9647 2.43685 10.105 2 9 2C7.89496 2 7.03533 2.43685 6.44419 3.13547ZM13.5 6C13.5 7.31446 12.9044 8.53527 12.1848 9.53529C12.2297 9.55315 12.2727 9.57786 12.3123 9.60958L14.8123 11.6096C14.9302 11.7039 14.9992 11.8463 15 11.9973C15.0008 12.1482 14.9334 12.2914 14.8166 12.387L9.31662 16.887C9.13244 17.0377 8.86756 17.0377 8.68338 16.887L3.18338 12.387C3.06657 12.2914 2.99918 12.1482 3.00001 11.9973C3.00084 11.8463 3.0698 11.7039 3.18765 11.6096L5.68765 9.60958C5.72731 9.57786 5.77031 9.55315 5.81517 9.53529C5.09564 8.53527 4.5 7.31446 4.5 6C4.5 4.65343 4.90399 3.40759 5.68081 2.48953C6.46467 1.56315 7.60504 1 9 1C10.395 1 11.5353 1.56315 12.3192 2.48953C13.096 3.40759 13.5 4.65343 13.5 6ZM9 4C8.17157 4 7.5 4.67157 7.5 5.5C7.5 6.32843 8.17157 7 9 7C9.82843 7 10.5 6.32843 10.5 5.5C10.5 4.67157 9.82843 4 9 4ZM6.5 5.5C6.5 4.11929 7.61929 3 9 3C10.3807 3 11.5 4.11929 11.5 5.5C11.5 6.88071 10.3807 8 9 8C7.61929 8 6.5 6.88071 6.5 5.5Z" fill="#2B2B2C"/>
</svg>
