<svg width="30" height="30" viewBox="0 0 30 30" fill="none" xmlns="http://www.w3.org/2000/svg">
<path fill-rule="evenodd" clip-rule="evenodd" d="M15.3354 3.12923C15.145 2.95692 14.855 2.95692 14.6645 3.12923L4.16453 12.6292C4.05976 12.724 3.99998 12.8587 3.99998 13C3.99998 13.1413 4.05976 13.276 4.16453 13.3708L14.6645 22.8708C14.855 23.0431 15.145 23.0431 15.3354 22.8708L25.8354 13.3708C25.9402 13.276 26 13.1413 26 13C26 12.8587 25.9402 12.724 25.8354 12.6292L15.3354 3.12923ZM4.12922 16.6645C4.31449 16.4598 4.63068 16.444 4.83545 16.6292L15 25.8257L25.1645 16.6292C25.3693 16.444 25.6855 16.4598 25.8708 16.6645C26.056 16.8693 26.0402 17.1855 25.8354 17.3708L15.3354 26.8708C15.145 27.0431 14.855 27.0431 14.6645 26.8708L4.16453 17.3708C3.95976 17.1855 3.94395 16.8693 4.12922 16.6645Z" fill="#2B2B2C"/>
</svg>
