<svg width="30" height="30" viewBox="0 0 30 30" fill="none" xmlns="http://www.w3.org/2000/svg">
<path fill-rule="evenodd" clip-rule="evenodd" d="M15 2C15.5523 2 16 2.44772 16 3V6.91937L17.5003 5.71913C17.9316 5.37412 18.5609 5.44404 18.9059 5.8753C19.2509 6.30657 19.181 6.93586 18.7497 7.28087L16 9.48062V13.2318L19.3218 11.314L19.9071 7.92743C20.0011 7.38321 20.5186 7.01829 21.0628 7.11235C21.607 7.2064 21.9719 7.72383 21.8779 8.26804L21.5764 10.0123L24.9236 8.07979C25.4018 7.80365 26.0134 7.96752 26.2896 8.44581C26.5657 8.92411 26.4018 9.5357 25.9236 9.81184L22.5293 11.7715L24.3189 12.4707C24.8333 12.6717 25.0874 13.2516 24.8864 13.766C24.6854 14.2805 24.1055 14.5346 23.5911 14.3336L20.3112 13.0522L16.9374 15L20.3112 16.9478L23.5911 15.6664C24.1055 15.4654 24.6854 15.7195 24.8864 16.234C25.0874 16.7484 24.8333 17.3283 24.3189 17.5293L22.5293 18.2285L25.9236 20.1882C26.4018 20.4643 26.5657 21.0759 26.2896 21.5542C26.0134 22.0325 25.4018 22.1964 24.9236 21.9202L21.5764 19.9877L21.8779 21.732C21.9719 22.2762 21.607 22.7936 21.0628 22.8877C20.5186 22.9817 20.0011 22.6168 19.9071 22.0726L19.3218 18.686L16 16.7682V20.5194L18.7497 22.7191C19.181 23.0641 19.2509 23.6934 18.9059 24.1247C18.5609 24.556 17.9316 24.6259 17.5003 24.2809L16 23.0806V27C16 27.5523 15.5523 28 15 28C14.4477 28 14 27.5523 14 27V23.135L12.6402 24.2682C12.2159 24.6218 11.5853 24.5645 11.2318 24.1402C10.8782 23.7159 10.9355 23.0853 11.3598 22.7318L14 20.5316V16.6959L10.7513 18.5715L10.2211 22.0527C10.138 22.5987 9.62796 22.9739 9.08197 22.8907C8.53598 22.8076 8.16078 22.2976 8.24394 21.7516L8.53322 19.8522L5.13895 21.8118C4.66065 22.088 4.04906 21.9241 3.77292 21.4458C3.49678 20.9675 3.66065 20.3559 4.13895 20.0798L7.4861 18.1473L5.82483 17.5363C5.30649 17.3456 5.04086 16.7709 5.23151 16.2525C5.42216 15.7342 5.99691 15.4686 6.51524 15.6592L9.74072 16.8456L12.9374 15L9.74072 13.1544L6.51524 14.3408C5.99691 14.5314 5.42216 14.2658 5.23151 13.7475C5.04086 13.2291 5.30649 12.6544 5.82483 12.4637L7.4861 11.8527L4.13895 9.92021C3.66065 9.64407 3.49678 9.03248 3.77292 8.55419C4.04906 8.07589 4.66065 7.91202 5.13895 8.18816L8.53322 10.1478L8.24393 8.24843C8.16078 7.70244 8.53598 7.19241 9.08197 7.10926C9.62796 7.0261 10.138 7.4013 10.2211 7.94729L10.7513 11.4285L14 13.3041V9.46838L11.3598 7.26822C10.9355 6.91466 10.8782 6.28409 11.2318 5.85982C11.5853 5.43554 12.2159 5.37821 12.6402 5.73178L14 6.86496V3C14 2.44772 14.4477 2 15 2Z" fill="#2B2B2C"/>
</svg>
