<svg width="24" height="24" viewBox="0 0 24 24" fill="none" xmlns="http://www.w3.org/2000/svg">
<path fill-rule="evenodd" clip-rule="evenodd" d="M12 1.625C12.4833 1.625 12.875 2.01675 12.875 2.5V5.67945L13.9534 4.81674C14.3308 4.51486 14.8814 4.57604 15.1833 4.95339C15.4852 5.33075 15.424 5.88138 15.0467 6.18326L12.875 7.92055V10.4844L15.0954 9.20251L15.5141 6.4532C15.5869 5.97546 16.0332 5.64716 16.5109 5.71992C16.9887 5.79269 17.317 6.23896 17.2442 6.71669L17.0363 8.08197L19.7897 6.49224C20.2083 6.25062 20.7434 6.39401 20.985 6.81251C21.2266 7.23102 21.0833 7.76616 20.6647 8.00778L17.9113 9.59751L19.1976 10.1001C19.6477 10.2759 19.87 10.7834 19.6942 11.2335C19.5183 11.6836 19.0109 11.9059 18.5608 11.7301L15.9704 10.7181L13.75 12L15.9704 13.282L18.5607 12.2699C19.0108 12.0941 19.5183 12.3164 19.6941 12.7665C19.87 13.2166 19.6477 13.7241 19.1976 13.9L17.9112 14.4025L20.6647 15.9922C21.0832 16.2339 21.2266 16.769 20.985 17.1875C20.7434 17.606 20.2082 17.7494 19.7897 17.5078L17.0362 15.9181L17.2442 17.2833C17.3169 17.7611 16.9886 18.2073 16.5109 18.2801C16.0331 18.3529 15.5869 18.0246 15.5141 17.5468L15.0954 14.7975L12.875 13.5156V16.0795L15.0467 17.8167C15.424 18.1186 15.4852 18.6693 15.1833 19.0466C14.8814 19.424 14.3308 19.4851 13.9534 19.1833L12.875 18.3205V21.5C12.875 21.9832 12.4833 22.375 12 22.375C11.5168 22.375 11.125 21.9832 11.125 21.5V18.3205L10.0467 19.1833C9.6693 19.4851 9.11867 19.424 8.81679 19.0466C8.5149 18.6693 8.57608 18.1186 8.95344 17.8167L11.125 16.0795V13.5155L8.90459 14.7975L8.48586 17.5468C8.4131 18.0246 7.96683 18.3529 7.48909 18.2801C7.01135 18.2073 6.68305 17.7611 6.75581 17.2833L6.96375 15.9181L4.21026 17.5078C3.79175 17.7494 3.25661 17.606 3.01499 17.1875C2.77336 16.769 2.91675 16.2339 3.33526 15.9922L6.08875 14.4025L4.80242 13.9C4.3523 13.7241 4.12997 13.2166 4.30583 12.7665C4.48169 12.3164 4.98914 12.0941 5.43925 12.2699L8.02959 13.282L10.25 12L8.02956 10.7181L5.43922 11.7301C4.98911 11.9059 4.48166 11.6836 4.3058 11.2335C4.12994 10.7834 4.35227 10.2759 4.80239 10.1001L6.08872 9.59751L3.33523 8.00778C2.91672 7.76616 2.77333 7.23102 3.01496 6.81251C3.25658 6.394 3.79172 6.25061 4.21023 6.49224L6.96372 8.08197L6.75578 6.71669C6.68302 6.23895 7.01132 5.79268 7.48906 5.71992C7.9668 5.64716 8.41307 5.97546 8.48583 6.4532L8.90456 9.20251L11.125 10.4845V7.92055L8.95344 6.18326C8.57608 5.88138 8.5149 5.33075 8.81679 4.95339C9.11867 4.57604 9.6693 4.51486 10.0467 4.81674L11.125 5.67945V2.5C11.125 2.01675 11.5168 1.625 12 1.625Z" fill="#2B2B2C"/>
</svg>
