<svg width="24" height="24" viewBox="0 0 24 24" fill="none" xmlns="http://www.w3.org/2000/svg">
<path fill-rule="evenodd" clip-rule="evenodd" d="M12 2C12.2762 2 12.5 2.22386 12.5 2.5V6.45969L14.1877 5.10957C14.4033 4.93706 14.718 4.97202 14.8905 5.18765C15.063 5.40328 15.028 5.71793 14.8124 5.89043L12.5 7.74031V11.1339L15.439 9.43709L15.8849 6.5096C15.9265 6.23661 16.1815 6.04901 16.4545 6.09058C16.7275 6.13216 16.9151 6.38717 16.8735 6.66017L16.5481 8.79678L19.9773 6.81694C20.2164 6.67886 20.5222 6.7608 20.6603 6.99995C20.7984 7.23909 20.7164 7.54489 20.4773 7.68296L17.0481 9.6628L19.0612 10.4493C19.3184 10.5498 19.4454 10.8398 19.3449 11.097C19.2444 11.3542 18.9545 11.4812 18.6973 11.3807L15.939 10.3031L13 12L15.939 13.6968L18.6972 12.6192C18.9545 12.5187 19.2444 12.6457 19.3449 12.9029C19.4454 13.1601 19.3184 13.4501 19.0611 13.5506L17.0481 14.3371L20.4773 16.3169C20.7164 16.455 20.7984 16.7608 20.6603 16.9999C20.5222 17.2391 20.2164 17.321 19.9773 17.183L16.5481 15.2031L16.8735 17.3397C16.9151 17.6127 16.7275 17.8677 16.4545 17.9093C16.1815 17.9509 15.9265 17.7633 15.8849 17.4903L15.439 14.5628L12.5 12.866V16.2597L14.8124 18.1096C15.028 18.2821 15.063 18.5967 14.8905 18.8123C14.718 19.028 14.4033 19.0629 14.1877 18.8904L12.5 17.5403V21.5C12.5 21.7761 12.2762 22 12 22C11.7239 22 11.5 21.7761 11.5 21.5V17.5403L9.81238 18.8904C9.59675 19.0629 9.2821 19.028 9.1096 18.8123C8.93709 18.5967 8.97205 18.2821 9.18769 18.1096L11.5 16.2597V12.866L8.56105 14.5628L8.11518 17.4903C8.0736 17.7633 7.81859 17.9509 7.5456 17.9093C7.2726 17.8677 7.085 17.6127 7.12658 17.3397L7.452 15.2031L4.02281 17.183C3.78366 17.321 3.47786 17.2391 3.33979 16.9999C3.20172 16.7608 3.28366 16.455 3.52281 16.3169L6.952 14.3371L4.93893 13.5506C4.68172 13.4501 4.55467 13.1601 4.65516 12.9029C4.75565 12.6457 5.04563 12.5187 5.30283 12.6192L8.06105 13.6968L11 12L8.06103 10.3031L5.30282 11.3807C5.04561 11.4812 4.75564 11.3542 4.65515 11.097C4.55466 10.8398 4.6817 10.5498 4.93891 10.4493L6.95198 9.6628L3.52279 7.68296C3.28364 7.54489 3.20171 7.23909 3.33978 6.99995C3.47785 6.7608 3.78364 6.67886 4.02279 6.81693L7.45198 8.79678L7.12657 6.66017C7.08499 6.38717 7.27259 6.13216 7.54558 6.09058C7.81858 6.04901 8.07359 6.23661 8.11517 6.5096L8.56103 9.43709L11.5 11.1339V7.74031L9.18769 5.89043C8.97205 5.71793 8.93709 5.40328 9.1096 5.18765C9.2821 4.97202 9.59675 4.93706 9.81238 5.10957L11.5 6.45969V2.5C11.5 2.22386 11.7239 2 12 2Z" fill="#2B2B2C"/>
</svg>
