<svg width="18" height="18" viewBox="0 0 18 18" fill="none" xmlns="http://www.w3.org/2000/svg">
<path fill-rule="evenodd" clip-rule="evenodd" d="M3.5 3.5C3.22386 3.5 3 3.72386 3 4V5H2.5C2.22386 5 2 5.22386 2 5.5V7.5C2 7.77614 2.22386 8 2.5 8H2.56641L3.50509 14.5708C3.54028 14.8171 3.75124 15.0001 4.00006 15.0001H7.50006C7.74889 15.0001 7.95985 14.8171 7.99504 14.5708L8.93372 8H9C9.27614 8 9.5 7.77614 9.5 7.5V5.5C9.5 5.22386 9.27614 5 9 5H8.5V4C8.5 3.72386 8.27614 3.5 8 3.5H3.5ZM4.43371 14.0001L3.57656 8H7.92357L7.06642 14.0001H4.43371Z" fill="#2B2B2C"/>
<path fill-rule="evenodd" clip-rule="evenodd" d="M10.7875 10.2973L10.5193 10.4314C10.6444 9.75462 10.8673 9.16248 11.2266 8.73702C11.5938 8.30213 12.1374 8 13.0001 8C13.8628 8 14.4064 8.30213 14.7736 8.73702C15.1329 9.16248 15.3558 9.75461 15.4808 10.4313L15.2127 10.2973C14.7498 10.0658 14.1985 10.1002 13.7679 10.3872C13.303 10.6972 12.6973 10.6972 12.2323 10.3872C11.8018 10.1002 11.2504 10.0658 10.7875 10.2973ZM10.0539 11.4122C9.96684 11.3756 9.88222 11.326 9.80476 11.2608C9.56892 11.0623 9.45169 10.7601 9.50648 10.4204C9.63924 9.59724 9.9108 8.74519 10.4625 8.09183C11.0323 7.4171 11.8628 7 13.0001 7C14.1374 7 14.9679 7.4171 15.5377 8.09183C16.0894 8.74519 16.361 9.59724 16.4937 10.4204C16.498 10.4467 16.5001 10.4733 16.5001 10.5C16.5001 10.9345 16.186 11.19 16.0249 11.296C16.0019 11.3111 15.9791 11.3252 15.9568 11.3382L15.495 14.5708C15.4598 14.8171 15.2489 15.0001 15.0001 15.0001H11.0001C10.7512 15.0001 10.5403 14.8171 10.5051 14.5708L10.0539 11.4122Z" fill="#2B2B2C"/>
</svg>
