<svg width="24" height="24" viewBox="0 0 24 24" fill="none" xmlns="http://www.w3.org/2000/svg">
<path fill-rule="evenodd" clip-rule="evenodd" d="M3.5 5C3.5 4.72386 3.72386 4.5 4 4.5H11C11.2761 4.5 11.5 4.72386 11.5 5V6.5H12C12.2761 6.5 12.5 6.72386 12.5 7V9C12.5 9.27614 12.2761 9.5 12 9.5H11.5001C11.5001 9.51646 11.4992 9.53307 11.4976 9.54979L10.4976 19.5498C10.472 19.8054 10.2569 20 10 20H5.00004C4.74316 20 4.52808 19.8054 4.50252 19.5498L3.50252 9.54979C3.50085 9.53307 3.50002 9.51646 3.5 9.5H3C2.72386 9.5 2.5 9.27614 2.5 9V7C2.5 6.72386 2.72386 6.5 3 6.5H3.5V5ZM4 7.5H3.5V8.5H11.5V7.5H11H4ZM10.5 6.5H4.5V5.5H10.5V6.5ZM4.50253 9.5L5.45253 19H9.54754L10.4975 9.5H4.50253Z" fill="#2B2B2C"/>
<circle cx="15.5" cy="12.5" r="0.5" fill="#2B2B2C"/>
<path d="M18.5 12C18.5 12.2761 18.2761 12.5 18 12.5C17.7238 12.5 17.5 12.2761 17.5 12C17.5 11.7238 17.7239 11.5 18 11.5C18.2761 11.5 18.5 11.7239 18.5 12Z" fill="#2B2B2C"/>
<path fill-rule="evenodd" clip-rule="evenodd" d="M12.5804 15.4165C12.4194 15.3465 12.2895 15.237 12.1942 15.1047C12.0449 14.8972 12 14.6633 12 14.5C12 11.718 14.3108 9.5 17 9.5C19.6892 9.5 22 11.718 22 14.5C22 14.7125 21.9454 14.9051 21.8379 15.0664C21.7324 15.2246 21.5954 15.3238 21.4736 15.3847C21.4561 15.3935 21.4386 15.4016 21.4214 15.409L20.4882 19.6086C20.4374 19.8373 20.2345 20.0001 20.0001 20.0001H14.0001C13.7658 20.0001 13.5629 19.8373 13.512 19.6086L12.5804 15.4165ZM20.9874 14.5002L20.9797 14.5004L20.9795 14.5004C20.9356 14.5022 20.8932 14.5096 20.8529 14.522C20.8438 14.5248 20.8347 14.5279 20.8258 14.5312L20.1242 14.765C19.7771 14.8808 19.3959 14.8297 19.0915 14.6267C19.0312 14.5866 18.9694 14.5497 18.9063 14.516C18.2856 14.1855 17.5383 14.172 16.9015 14.4904L16.8627 14.5098L16.6515 14.6154C16.2709 14.8057 15.8176 14.7775 15.4635 14.5414C15.445 14.5291 15.4264 14.5171 15.4076 14.5054C14.8561 14.1614 14.1787 14.0802 13.5598 14.2865L13.0001 14.4731C13.015 12.2676 14.86 10.5 17 10.5C19.1481 10.5 20.999 12.281 21 14.4983L20.9959 14.499C20.9942 14.4993 20.9927 14.4995 20.9914 14.4997C20.9898 14.4999 20.9884 14.5001 20.9875 14.5001L20.9874 14.5002ZM20.9875 14.5001L20.9875 14.5001L20.9875 14.5001C20.992 14.5 20.9966 14.5 21.0011 14.5L21.012 14.5002M20.9875 14.5001L20.986 14.5003L20.989 14.5002L20.9912 14.5001L20.9964 14.5L20.9934 14.5L20.9912 14.5001M21.0011 14.5L20.9992 14.5C20.9992 14.4997 20.9994 14.4994 20.9996 14.4991C20.9998 14.4988 21 14.4985 21 14.4983M20.3213 15.7497L19.599 19.0001H14.4012L13.586 15.3319L13.8761 15.2352C14.2232 15.1195 14.6043 15.1705 14.9088 15.3735C15.5614 15.8086 16.3972 15.8606 17.0988 15.5098L17.3487 15.3848C17.7293 15.1945 18.1827 15.2228 18.5368 15.4588C19.0634 15.8099 19.7144 15.9144 20.3213 15.7497Z" fill="#2B2B2C"/>
</svg>
