<svg width="18" height="18" viewBox="0 0 18 18" fill="none" xmlns="http://www.w3.org/2000/svg">
<path fill-rule="evenodd" clip-rule="evenodd" d="M5 2C4.83409 2 4.67898 2.0823 4.58597 2.21969C4.49295 2.35707 4.47415 2.53165 4.53576 2.6857L7.53576 10.1857C7.6117 10.3755 7.79555 10.5 8 10.5H13C13.2761 10.5 13.5 10.2761 13.5 10V8.34959C13.5 7.59771 12.841 7.01598 12.095 7.10924L9.34472 7.45302L8.59465 5.20279C9.44602 4.58455 9.55081 3.3437 8.79892 2.59181L8.63045 2.42334C8.35939 2.15228 7.99175 2 7.60842 2H5ZM8.33852 9.5L5.73852 3H7.60842C7.72654 3 7.83982 3.04692 7.92334 3.13044L8.09182 3.29892C8.41431 3.62141 8.36114 4.15832 7.98167 4.4113C7.64114 4.63832 7.49468 5.06517 7.6241 5.45344L8.52566 8.15811C8.60103 8.38422 8.82552 8.5257 9.06202 8.49614L12.219 8.10152C12.3682 8.08287 12.5 8.19921 12.5 8.34959V9.5H8.33852ZM9 12.4999H6.15339L3.03173 4.17545C2.93477 3.91689 3.06577 3.62869 3.32433 3.53173C3.58289 3.43477 3.8711 3.56577 3.96806 3.82433L6.84639 11.4999H12.4999C12.776 11.4999 12.9999 11.7237 12.9999 11.9999C12.9999 12.276 12.776 12.4999 12.4999 12.4999H10V15H12C12.2761 15 12.5 15.2239 12.5 15.5C12.5 15.7761 12.2761 16 12 16H7C6.72386 16 6.5 15.7761 6.5 15.5C6.5 15.2239 6.72386 15 7 15H9V12.4999Z" fill="#2B2B2C"/>
</svg>
