<svg width="18" height="18" viewBox="0 0 18 18" fill="none" xmlns="http://www.w3.org/2000/svg">
<path fill-rule="evenodd" clip-rule="evenodd" d="M4.78297 2.04943C4.80599 2.03832 4.83 2.02892 4.85482 2.0214C4.90803 2.00519 4.96221 1.99833 5.01543 2H7.6084H7.60842L7.60882 2C7.992 2.00011 8.35947 2.15238 8.63043 2.42334L8.79179 2.5847L8.79899 2.59176C9.55089 3.34366 9.44608 4.58455 8.59465 5.20278L9.34472 7.45299L12.095 7.10921C12.841 7.01596 13.5 7.59769 13.5 8.34956V9.99997C13.5 10.2761 13.2761 10.5 13 10.5H8.08436C7.87276 10.5377 7.65939 10.4286 7.55769 10.2333C7.54748 10.214 7.5385 10.194 7.53085 10.1733L4.54078 2.6981C4.5249 2.66133 4.5133 2.62228 4.50662 2.58158C4.49737 2.52603 4.49779 2.47027 4.50695 2.41643C4.51751 2.35369 4.53975 2.29492 4.57136 2.24243C4.62012 2.16111 4.69227 2.09302 4.78297 2.04943ZM7.98173 4.41124C7.64475 4.63589 7.49782 5.05623 7.62021 5.44122L7.6241 5.45342L8.52566 8.15809C8.60103 8.3842 8.82552 8.52568 9.06202 8.49611L12.219 8.10149C12.3682 8.08284 12.5 8.19919 12.5 8.34956V9.49997H8.33856L5.73857 3H7.6084C7.72652 3 7.8398 3.04692 7.92332 3.13044L8.0918 3.29892L8.09734 3.30438C8.41376 3.62744 8.35905 4.15969 7.98173 4.41124ZM3.32445 3.53173C3.58301 3.43477 3.87122 3.56577 3.96818 3.82433L6.84651 11.4999H12.5C12.7762 11.4999 13 11.7237 13 11.9999C13 12.276 12.7762 12.4999 12.5 12.4999H10V15H12C12.2761 15 12.5 15.2239 12.5 15.5C12.5 15.7761 12.2761 16 12 16H7C6.72386 16 6.5 15.7761 6.5 15.5C6.5 15.2239 6.72386 15 7 15H9V12.4999H6.15351L3.03185 4.17545C2.93489 3.91689 3.06589 3.62869 3.32445 3.53173Z" fill="#2B2B2C"/>
</svg>
