<svg width="18" height="18" viewBox="0 0 18 18" fill="none" xmlns="http://www.w3.org/2000/svg">
<path fill-rule="evenodd" clip-rule="evenodd" d="M4.5 2C4.22386 2 4 2.22386 4 2.5V3.95685L2.0074 15.4143C1.98211 15.5597 2.02236 15.7089 2.11736 15.8218C2.21236 15.9348 2.35241 16 2.5 16H15.5C15.7761 16 16 15.7761 16 15.5V13.5C16 13.2239 15.7761 13 15.5 13H12.5002C12.8434 12.7422 13.118 12.3981 13.292 12H14C14.8284 12 15.5 11.3284 15.5 10.5C15.5 9.67157 14.8284 9 14 9H13.5V8.5C13.5 8.22386 13.2761 8 13 8H11.5V6.49993H12C12.2294 6.49993 12.4294 6.34378 12.485 6.1212L12.8903 4.5H14.75C15.4404 4.5 16 3.94036 16 3.25C16 2.55964 15.4404 2 14.75 2H4.5ZM10.5 6.49993V8H9C8.72386 8 8.5 8.22386 8.5 8.5V11C8.5 11.8178 8.89267 12.5439 9.49976 13H7V4.5H9.10959L9.51488 6.1212C9.57052 6.34378 9.77051 6.49993 9.99995 6.49993H10.5ZM13.5 10V11H14C14.2761 11 14.5 10.7761 14.5 10.5C14.5 10.2239 14.2761 10 14 10H13.5ZM11.8596 4.5H10.1404L10.3903 5.49993H11.6096L11.8596 4.5ZM5 4V3H14.75C14.8881 3 15 3.11193 15 3.25C15 3.38807 14.8881 3.5 14.75 3.5H6.5C6.22386 3.5 6 3.72386 6 4V13.5C6 13.7761 6.22386 14 6.5 14H15V15H3.09447L4.99261 4.08567C4.99753 4.05738 5 4.02872 5 4ZM9.5 9V11C9.5 11.8284 10.1716 12.5 11 12.5C11.8284 12.5 12.5 11.8284 12.5 11V9H9.5ZM4.5 14C4.77614 14 5 13.7761 5 13.5C5 13.2239 4.77614 13 4.5 13C4.22386 13 4 13.2239 4 13.5C4 13.7761 4.22386 14 4.5 14Z" fill="#2B2B2C"/>
</svg>
