<svg width="18" height="18" viewBox="0 0 18 18" fill="none" xmlns="http://www.w3.org/2000/svg">
<path fill-rule="evenodd" clip-rule="evenodd" d="M9.36886 1.81574C9.60265 1.6752 9.68093 1.37245 9.54331 1.13588C9.40446 0.897183 9.0984 0.816244 8.85971 0.955094L9.09143 1.35343C8.8597 0.9551 8.85952 0.955204 8.85934 0.955309L8.85896 0.95553L8.85817 0.955994L8.85645 0.957008L8.85247 0.959376L8.84246 0.965487C8.8349 0.970171 8.82558 0.976102 8.81474 0.983292C8.79311 0.997642 8.76515 1.01719 8.73288 1.04205C8.66881 1.09141 8.58503 1.16383 8.49944 1.26065C8.32841 1.45414 8.13835 1.75966 8.10626 2.17635C8.066 2.69911 8.39041 3.06893 8.56923 3.2728L8.59572 3.30307C8.81822 3.5588 8.87664 3.65378 8.87664 3.76464C8.87664 3.83742 8.84768 3.9025 8.65087 4.10237C8.63912 4.11431 8.62598 4.12734 8.61172 4.14149C8.44949 4.30241 8.14303 4.6064 8.10646 5.0513C8.05049 5.73224 8.45397 6.19208 8.67614 6.38092C8.88654 6.55977 9.20209 6.53419 9.38094 6.32379C9.55978 6.11339 9.5342 5.79784 9.3238 5.61899C9.21665 5.52791 9.08497 5.35385 9.1031 5.13322C9.10713 5.0842 9.13387 5.03712 9.36342 4.804L9.37135 4.79594C9.55133 4.61328 9.87664 4.28312 9.87664 3.76464C9.87664 3.24738 9.55959 2.88569 9.37762 2.6781L9.35014 2.64668C9.12317 2.38581 9.09823 2.31911 9.10331 2.25313C9.11418 2.11192 9.17729 2.00371 9.24868 1.92295C9.28431 1.88265 9.31906 1.85281 9.34321 1.8342C9.35505 1.82507 9.36363 1.8192 9.36751 1.81663L9.36886 1.81574ZM2.13206 7.16145C2.22674 7.05855 2.36018 7 2.5 7H13C13.1398 7 13.2733 7.05855 13.3679 7.16145C13.4044 7.20109 13.4339 7.24592 13.4556 7.29402C13.7596 7.10753 14.1172 7 14.5 7C15.6046 7 16.5 7.89543 16.5 9C16.5 10.1046 15.6046 11 14.5 11C14.0156 11 13.5715 10.8278 13.2255 10.5413C12.8512 12.5265 11.1108 14 9.0495 14H6.4505C4.24012 14 2.39874 12.3057 2.21518 10.1029L2.00173 7.54152C1.99012 7.40218 2.03738 7.26434 2.13206 7.16145ZM2 15.5C2 15.2239 2.22386 15 2.5 15H13.5C13.7761 15 14 15.2239 14 15.5C14 15.7761 13.7761 16 13.5 16H2.5C2.22386 16 2 15.7761 2 15.5ZM13.5 9C13.5 8.44772 13.9477 8 14.5 8C15.0523 8 15.5 8.44772 15.5 9C15.5 9.55228 15.0523 10 14.5 10C13.9477 10 13.5 9.55228 13.5 9ZM7.1561 2.81474C6.98554 2.59756 6.67122 2.55977 6.45405 2.73033C6.23687 2.90088 6.19908 3.2152 6.36964 3.43238C6.49815 3.59601 6.53033 3.68718 6.53033 3.75539C6.53033 3.82818 6.50137 3.89326 6.30456 4.09313C6.29281 4.10506 6.27966 4.1181 6.26541 4.13224C6.10317 4.29317 5.79672 4.59716 5.76015 5.04206C5.70418 5.723 6.10766 6.18283 6.32983 6.37168C6.54023 6.55053 6.85578 6.52495 7.03462 6.31455C7.21347 6.10415 7.18789 5.7886 6.97749 5.60975C6.87033 5.51867 6.73866 5.34461 6.75679 5.12398C6.76082 5.07496 6.78756 5.02787 7.0171 4.79476L7.02504 4.7867C7.20502 4.60403 7.53033 4.27387 7.53033 3.75539C7.53033 3.34058 7.32093 3.02462 7.1561 2.81474Z" fill="#2B2B2C"/>
</svg>
