<svg width="30" height="30" viewBox="0 0 30 30" fill="none" xmlns="http://www.w3.org/2000/svg">
<path fill-rule="evenodd" clip-rule="evenodd" d="M4.62928 13.1645C4.72407 13.0598 4.85874 13 5 13H22C22.1413 13 22.2759 13.0598 22.3707 13.1645C22.4655 13.2692 22.5116 13.4092 22.4975 13.5498L22.0378 18.1468C21.7055 21.4696 18.9095 24 15.5701 24H11.4299C8.09054 24 5.29447 21.4696 4.96219 18.1468L4.50248 13.5498C4.48843 13.4092 4.53449 13.2692 4.62928 13.1645ZM5.5525 14L5.95722 18.0473C6.23838 20.8589 8.60429 23 11.4299 23H15.5701C18.3957 23 20.7616 20.8589 21.0428 18.0473L21.4475 14H5.5525Z" fill="#2B2B2C"/>
<path fill-rule="evenodd" clip-rule="evenodd" d="M14.1559 3.21566C14.3717 3.04333 14.4069 2.72872 14.2346 2.51294C14.0622 2.29717 13.7476 2.26195 13.5319 2.43428C13.5251 2.43968 13.5149 2.4473 13.5016 2.45713L13.5016 2.45719L13.5014 2.45727C13.318 2.5938 12.562 3.15629 12.5009 4.17407C12.4561 4.91994 12.908 5.43422 13.2161 5.78492L13.2432 5.81581C13.5965 6.2187 13.7864 6.45907 13.7864 6.78722C13.7864 7.05966 13.6361 7.25718 13.3143 7.58399C13.294 7.60466 13.2724 7.62626 13.2498 7.64881L13.2498 7.64888C12.9728 7.92599 12.552 8.34715 12.5017 8.95896C12.421 9.94043 13.0029 10.6116 13.3348 10.8937C13.5452 11.0726 13.8607 11.047 14.0396 10.8366C14.2184 10.6262 14.1929 10.3106 13.9825 10.1318C13.7655 9.94739 13.4555 9.56204 13.4983 9.04088C13.5169 8.81419 13.6723 8.64567 14.0269 8.28561C14.33 7.97774 14.7864 7.51307 14.7864 6.78722C14.7864 6.05527 14.3409 5.5493 14.0345 5.20128L13.9951 5.15653C13.6438 4.75586 13.4811 4.53282 13.4991 4.23403C13.531 3.70197 13.9137 3.4043 14.1113 3.25061L14.1114 3.25054L14.1116 3.25038L14.1118 3.25027C14.1278 3.2378 14.1426 3.22628 14.1559 3.21566ZM24.5 14C23.3954 14 22.5 14.8954 22.5 16C22.5 17.1046 23.3954 18 24.5 18C25.6046 18 26.5 17.1046 26.5 16C26.5 14.8954 25.6046 14 24.5 14ZM22 13.5L21.8997 14.5028C22.418 13.6046 23.3884 13 24.5 13C26.1569 13 27.5 14.3431 27.5 16C27.5 17.6569 26.1569 19 24.5 19C23.1764 19 22.053 18.1429 21.6547 16.9534L21.5403 18.097C21.2336 21.1642 18.6526 23.5 15.5701 23.5H11.4299C8.34742 23.5 5.76642 21.1642 5.4597 18.097L5 13.5H22ZM3.5 25C3.22386 25 3 25.2239 3 25.5C3 25.7761 3.22386 26 3.5 26H25C25.2761 26 25.5 25.7761 25.5 25.5C25.5 25.2239 25.2761 25 25 25H3.5ZM10.3732 5.32823C10.5904 5.15767 10.9047 5.19546 11.0753 5.41264C11.3379 5.74702 11.6278 6.1987 11.6278 6.77452C11.6278 7.50037 11.1714 7.96504 10.8682 8.27291C10.5137 8.63297 10.3583 8.8015 10.3397 9.02818C10.2969 9.54934 10.6069 9.93469 10.8238 10.1191C11.0342 10.2979 11.0598 10.6135 10.881 10.8239C10.7021 11.0343 10.3866 11.0599 10.1762 10.881C9.84425 10.5989 9.26238 9.92773 9.34305 8.94626C9.39334 8.33445 9.81422 7.91329 10.0911 7.63618L10.0913 7.63601C10.1138 7.61349 10.1354 7.59193 10.1557 7.57129C10.4775 7.24448 10.6278 7.04697 10.6278 6.77452C10.6278 6.5453 10.5151 6.31842 10.2888 6.03028C10.1182 5.8131 10.156 5.49878 10.3732 5.32823ZM17.0753 5.41264C16.9047 5.19546 16.5904 5.15767 16.3732 5.32823C16.156 5.49878 16.1182 5.8131 16.2888 6.03028C16.5151 6.31842 16.6278 6.5453 16.6278 6.77452C16.6278 7.04697 16.4775 7.24448 16.1557 7.57129C16.1353 7.59196 16.1137 7.61356 16.0912 7.63611L16.0911 7.63618C15.8142 7.91329 15.3933 8.33445 15.343 8.94626C15.2624 9.92773 15.8442 10.5989 16.1762 10.881C16.3866 11.0599 16.7021 11.0343 16.881 10.8239C17.0598 10.6135 17.0342 10.2979 16.8238 10.1191C16.6069 9.93469 16.2968 9.54934 16.3397 9.02818C16.3583 8.8015 16.5137 8.63297 16.8682 8.27291C17.1714 7.96504 17.6278 7.50037 17.6278 6.77452C17.6278 6.1987 17.3379 5.74702 17.0753 5.41264Z" fill="#2B2B2C"/>
</svg>
