<svg width="18" height="18" viewBox="0 0 18 18" fill="none" xmlns="http://www.w3.org/2000/svg">
<path fill-rule="evenodd" clip-rule="evenodd" d="M9.36898 1.81574C9.60277 1.6752 9.68105 1.37245 9.54344 1.13588C9.40459 0.897183 9.09853 0.816244 8.85983 0.955094L9.09155 1.35343C8.85982 0.9551 8.85964 0.955204 8.85946 0.955309L8.85908 0.95553L8.85829 0.955994L8.85657 0.957008L8.85259 0.959376L8.84258 0.965487C8.83502 0.970171 8.8257 0.976102 8.81487 0.983292C8.79323 0.997642 8.76527 1.01719 8.73301 1.04205C8.66894 1.09141 8.58516 1.16383 8.49957 1.26065C8.32853 1.45414 8.13847 1.75966 8.10638 2.17635C8.06613 2.69911 8.39053 3.06893 8.56936 3.2728L8.59584 3.30307C8.81834 3.5588 8.87677 3.65378 8.87677 3.76464C8.87677 3.83742 8.8478 3.9025 8.65099 4.10237C8.63924 4.11431 8.6261 4.12734 8.61184 4.14149C8.44961 4.30241 8.14316 4.6064 8.10659 5.0513C8.05062 5.73224 8.4541 6.19208 8.67626 6.38092C8.88666 6.55977 9.20221 6.53419 9.38106 6.32379C9.5599 6.11339 9.53433 5.79784 9.32392 5.61899C9.21677 5.52791 9.08509 5.35385 9.10323 5.13322C9.10725 5.0842 9.134 5.03712 9.36354 4.804L9.37147 4.79594C9.55146 4.61328 9.87677 4.28312 9.87677 3.76464C9.87677 3.24738 9.55971 2.88569 9.37774 2.6781L9.35027 2.64668C9.12329 2.38581 9.09835 2.31911 9.10343 2.25313C9.1143 2.11192 9.17741 2.00371 9.2488 1.92295C9.28443 1.88265 9.31918 1.85281 9.34333 1.8342C9.35518 1.82507 9.36376 1.8192 9.36763 1.81663L9.36898 1.81574ZM2.5 7C2.36018 7 2.22674 7.05855 2.13206 7.16145C2.03738 7.26434 1.99012 7.40218 2.00173 7.54152L2.21518 10.1029C2.39874 12.3057 4.24012 14 6.4505 14H9.0495C11.1108 14 12.8512 12.5265 13.2255 10.5413C13.5715 10.8278 14.0156 11 14.5 11C15.6046 11 16.5 10.1046 16.5 9C16.5 7.89543 15.6046 7 14.5 7C14.1172 7 13.7596 7.10753 13.4556 7.29402C13.4339 7.24592 13.4044 7.20109 13.3679 7.16145C13.2733 7.05855 13.1398 7 13 7H2.5ZM3.21173 10.0199L3.0434 8H12.4566L12.2883 10.0199C12.1479 11.7043 10.7398 13 9.0495 13H6.4505C4.76021 13 3.3521 11.7043 3.21173 10.0199ZM2.5 15C2.22386 15 2 15.2239 2 15.5C2 15.7761 2.22386 16 2.5 16H13.5C13.7761 16 14 15.7761 14 15.5C14 15.2239 13.7761 15 13.5 15H2.5ZM13.5 9C13.5 8.44772 13.9477 8 14.5 8C15.0523 8 15.5 8.44772 15.5 9C15.5 9.55228 15.0523 10 14.5 10C13.9477 10 13.5 9.55228 13.5 9ZM7.1561 2.81474C6.98554 2.59756 6.67122 2.55977 6.45405 2.73033C6.23687 2.90088 6.19908 3.2152 6.36964 3.43238C6.49815 3.59601 6.53033 3.68718 6.53033 3.75539C6.53033 3.82818 6.50137 3.89326 6.30456 4.09313C6.29281 4.10506 6.27966 4.1181 6.26541 4.13224C6.10317 4.29317 5.79672 4.59716 5.76015 5.04206C5.70418 5.723 6.10766 6.18283 6.32983 6.37168C6.54023 6.55053 6.85578 6.52495 7.03462 6.31455C7.21347 6.10415 7.18789 5.7886 6.97749 5.60975C6.87033 5.51867 6.73866 5.34461 6.75679 5.12398C6.76082 5.07496 6.78756 5.02787 7.0171 4.79476L7.02504 4.7867C7.20502 4.60403 7.53033 4.27387 7.53033 3.75539C7.53033 3.34058 7.32093 3.02462 7.1561 2.81474Z" fill="#2B2B2C"/>
</svg>
