<svg width="24" height="24" viewBox="0 0 24 24" fill="none" xmlns="http://www.w3.org/2000/svg">
<path fill-rule="evenodd" clip-rule="evenodd" d="M9.34119 4.3659C9.47058 4.2365 9.67332 4.21643 9.82557 4.31793C10.0271 4.45231 10.0554 4.7375 9.88408 4.90879L8.50001 6.29286L7.11594 4.90879C6.94464 4.7375 6.97288 4.45231 7.17445 4.31793C7.3267 4.21643 7.52944 4.2365 7.65883 4.3659L8.50001 5.20707L9.34119 4.3659ZM10.3803 3.48588C9.83139 3.11996 9.10054 3.19233 8.63408 3.65879L8.50001 3.79286L8.36594 3.65879C7.89948 3.19233 7.16863 3.11996 6.61975 3.48588C5.89312 3.9703 5.79132 4.99838 6.40883 5.6159L8.50001 7.70707L10.5912 5.6159C11.2087 4.99839 11.1069 3.9703 10.3803 3.48588ZM5.5541 8.04049C4.64626 7.35961 3.34874 7.61378 2.76489 8.58686C2.23932 9.46281 2.49439 10.5971 3.34435 11.1637L3.45376 11.2367L3.28674 12.2388C3.09286 13.4021 3.07907 14.5883 3.24585 15.7557L3.46978 17.3232L3.14655 17.6464C2.39901 18.394 2.399 19.606 3.14655 20.3535C3.8941 21.1011 5.10611 21.1011 5.85366 20.3535L6.18968 20.0175L7.80631 20.1522C10.5973 20.3848 13.4029 20.3848 16.1939 20.1522L17.8105 20.0175L18.1466 20.3535C18.8941 21.1011 20.1061 21.1011 20.8537 20.3535C21.6012 19.606 21.6012 18.394 20.8537 17.6464L20.5304 17.3232L20.6887 16.2153C20.899 14.7433 20.8816 13.2476 20.6372 11.7809L20.5465 11.2367L20.6559 11.1637C21.5058 10.5971 21.7609 9.46281 21.2353 8.58686C20.6515 7.61378 19.3539 7.35961 18.4461 8.04049L17.8334 8.49999H17.1232C17.5495 7.76032 17.3787 6.78403 16.6587 6.24401C15.967 5.72523 14.999 5.79402 14.3877 6.40541L14.0001 6.79297L13.6125 6.40541C13.0011 5.79402 12.0332 5.72523 11.3415 6.24401C10.6215 6.78403 10.4507 7.76032 10.877 8.49999H6.16677L5.5541 8.04049ZM12.9054 7.11251C12.6459 6.85301 12.2351 6.82382 11.9415 7.04401C11.5825 7.31327 11.5452 7.83808 11.8625 8.1554L14.0001 10.293L16.1377 8.15541C16.455 7.83808 16.4177 7.31327 16.0587 7.04401C15.7651 6.82382 15.3543 6.85301 15.0948 7.11251L14.0001 8.20718L12.9054 7.11251ZM6.4179 10.5069C6.69028 10.4615 6.94789 10.6455 6.99329 10.9179L7.2389 12.3915C7.41592 13.4537 7.42851 14.5367 7.27623 15.6027L6.99507 17.5708C6.95602 17.8442 6.70275 18.0341 6.42938 17.9951C6.15602 17.956 5.96607 17.7028 6.00512 17.4294L6.28628 15.4612C6.42406 14.4968 6.41267 13.5169 6.25251 12.5559L6.0069 11.0823C5.9615 10.8099 6.14551 10.5523 6.4179 10.5069Z" fill="#2B2B2C"/>
</svg>
