<svg width="30" height="30" viewBox="0 0 30 30" fill="none" xmlns="http://www.w3.org/2000/svg">
<path fill-rule="evenodd" clip-rule="evenodd" d="M9.10367 4.10367C9.32262 3.88472 9.67761 3.88472 9.89656 4.10367L11.0001 5.20722L12.1037 4.10367C12.3226 3.88472 12.6776 3.88472 12.8966 4.10367C13.1155 4.32262 13.1155 4.67761 12.8966 4.89656L11.0001 6.79301L9.10367 4.89656C8.88472 4.67761 8.88472 4.32262 9.10367 4.10367ZM10.6037 3.39656C9.99419 2.78708 9.00604 2.78708 8.39656 3.39656C7.78708 4.00604 7.78708 4.99419 8.39656 5.60367L11.0001 8.20722L13.6037 5.60367C14.2131 4.99419 14.2131 4.00604 13.6037 3.39656C12.9942 2.78708 12.006 2.78708 11.3966 3.39656L11.0001 3.79301L10.6037 3.39656ZM18.8171 7.39013C19.227 6.9802 19.8796 6.94406 20.3323 7.30621C20.8433 7.71496 20.905 8.46939 20.4673 8.95574L17.5001 12.2527L14.5328 8.95574C14.0951 8.46939 14.1568 7.71496 14.6678 7.30621C15.1205 6.94406 15.7731 6.9802 16.183 7.39013L17.5001 8.70718L18.8171 7.39013ZM20.957 6.52534C20.1064 5.84488 18.8802 5.91279 18.11 6.68303L17.5001 7.29297L16.8901 6.68303C16.1199 5.91279 14.8937 5.84488 14.0431 6.52534C13.1257 7.25925 12.9791 8.58626 13.6855 9.50007H7.73429L7.23629 8.90247C6.13193 7.57724 4.03055 7.82114 3.25908 9.36408C2.74207 10.3981 3.03852 11.6539 3.96338 12.3475L4.47162 12.7287L4.13813 15.7301C4.04435 16.5742 4.04435 17.426 4.13813 18.27L4.47162 21.2714L4.25833 21.4314C3.17465 22.2442 2.93802 23.7734 3.72536 24.8757C4.62099 26.1295 6.42816 26.2791 7.51774 25.1895L7.67894 25.0283L8.32583 25.1146C12.7557 25.7052 17.2445 25.7052 21.6744 25.1146L22.3213 25.0283L22.4825 25.1895C23.572 26.2791 25.3792 26.1295 26.2748 24.8757C27.0622 23.7734 26.8255 22.2442 25.7419 21.4314L25.5582 21.2936L25.8133 20.1456C26.2737 18.0738 26.2737 15.9263 25.8133 13.8546L25.5582 12.7065L26.0368 12.3475C26.9617 11.6539 27.2581 10.3981 26.7411 9.36408C25.9696 7.82114 23.8683 7.57724 22.7639 8.90247L22.2659 9.50007H21.3146C22.021 8.58626 21.8744 7.25925 20.957 6.52534ZM7.5001 10.5001H14.5774L17.5001 13.7475L20.4227 10.5001H22.5001C22.6485 10.5001 22.7892 10.4342 22.8842 10.3202L23.5321 9.54266C24.1748 8.77143 25.3977 8.91337 25.8467 9.81129C26.1476 10.413 25.975 11.1439 25.4368 11.5475L24.7001 12.1001C24.543 12.2179 24.4694 12.4168 24.512 12.6085L24.8371 14.0715C25.2657 16.0004 25.2657 17.9998 24.8371 19.9286L24.512 21.3916C24.4694 21.5833 24.543 21.7822 24.7001 21.9001L25.1419 22.2314C25.791 22.7182 25.9327 23.6342 25.4611 24.2944C24.9246 25.0455 23.8422 25.1351 23.1896 24.4824L22.8537 24.1465C22.7435 24.0364 22.5884 23.9839 22.434 24.0045L21.5422 24.1234C17.2 24.7023 12.8002 24.7023 8.458 24.1234L7.56618 24.0045C7.41181 23.9839 7.25667 24.0364 7.14655 24.1465L6.81063 24.4824C6.158 25.1351 5.07555 25.0455 4.53909 24.2944C4.0675 23.6342 4.20923 22.7182 4.85833 22.2314L5.3001 21.9001C5.44168 21.7939 5.51659 21.6208 5.49704 21.4449L5.13201 18.1596C5.04639 17.389 5.04639 16.6112 5.13201 15.8405L5.49704 12.5553C5.51659 12.3794 5.44168 12.2063 5.3001 12.1001L4.56338 11.5475C4.02515 11.1439 3.85263 10.413 4.15351 9.81129C4.60247 8.91337 5.82538 8.77143 6.46807 9.54266L7.11599 10.3202C7.21099 10.4342 7.35171 10.5001 7.5001 10.5001ZM8.96806 12.3243C8.8711 12.0658 8.58289 11.9348 8.32433 12.0317C8.06577 12.1287 7.93477 12.4169 8.03173 12.6755L8.34818 13.5193C9.0776 15.4644 9.14933 17.595 8.5524 19.5848L8.02098 21.3562C7.94163 21.6207 8.09172 21.8995 8.35622 21.9788C8.62071 22.0582 8.89946 21.9081 8.9788 21.6436L9.51023 19.8722C10.17 17.6729 10.0907 15.3181 9.28451 13.1682L8.96806 12.3243Z" fill="#2B2B2C"/>
</svg>
