<svg width="18" height="18" viewBox="0 0 18 18" fill="none" xmlns="http://www.w3.org/2000/svg">
<path fill-rule="evenodd" clip-rule="evenodd" d="M7.34117 3.36588C7.47056 3.23648 7.6733 3.21641 7.82555 3.31791C8.02712 3.45229 8.05536 3.73748 7.88406 3.90877L6.49999 5.29284L5.11592 3.90877C4.94463 3.73748 4.97287 3.45229 5.17443 3.31791C5.32669 3.21641 5.52942 3.23648 5.65882 3.36588L6.49999 4.20705L7.34117 3.36588ZM8.38025 2.48586C7.83138 2.11994 7.10052 2.19231 6.63406 2.65877L6.49999 2.79284L6.36592 2.65877C5.89947 2.19231 5.16861 2.11994 4.61973 2.48586C3.8931 2.97028 3.7913 3.99836 4.40882 4.61588L6.24428 6.45135L4.19792 6.49559C3.49812 5.88608 2.39495 6.09237 1.97181 6.93866C1.64801 7.58624 1.85922 8.36147 2.43791 8.76175L2.33346 9.28397C2.1069 10.4168 2.1069 11.5832 2.33346 12.716L2.45739 13.3357L2.39661 13.3964C1.78713 14.0059 1.78713 14.9941 2.39661 15.6035C3.00608 16.213 3.99424 16.213 4.60371 15.6035L4.68379 15.5235L4.80376 15.5368C7.59278 15.8467 10.4075 15.8467 13.1966 15.5368L13.3165 15.5235L13.3966 15.6035C14.0061 16.213 14.9942 16.213 15.6037 15.6035C16.2132 14.9941 16.2132 14.0059 15.6037 13.3964L15.5429 13.3357L15.5786 13.1573C15.8634 11.7332 15.8634 10.2668 15.5786 8.84272L15.5624 8.76175C16.1411 8.36147 16.3523 7.58625 16.0285 6.93866C15.6044 6.09036 14.4969 5.8851 13.7974 6.49999H13.195C13.6941 5.87644 13.5631 4.94109 12.8803 4.48586C12.3314 4.11994 11.6005 4.19231 11.1341 4.65877L11 4.79284L10.8659 4.65877C10.3995 4.19231 9.66861 4.11994 9.11973 4.48586C8.47334 4.91679 8.3214 5.77796 8.73044 6.39759L6.767 6.44005L8.59117 4.61588C9.20868 3.99837 9.10688 2.97028 8.38025 2.48586ZM12.3256 5.31791C12.1733 5.21641 11.9706 5.23648 11.8412 5.36588L11 6.20705L10.1588 5.36588C10.0294 5.23648 9.82669 5.21641 9.67443 5.31791C9.47287 5.45229 9.44463 5.73748 9.61592 5.90877L11 7.29284L12.3841 5.90877C12.5554 5.73748 12.5271 5.45229 12.3256 5.31791ZM11 8.70705L12.2071 7.49999H14.0002C14.1328 7.49999 14.26 7.44731 14.3537 7.35354L14.4349 7.27241C14.6456 7.06169 15.0008 7.11933 15.1341 7.38588C15.2419 7.60155 15.1545 7.8638 14.9388 7.97164L14.7766 8.05278C14.5749 8.15361 14.4656 8.37695 14.5099 8.59805L14.598 9.03883C14.8569 10.3335 14.8569 11.6665 14.598 12.9612L14.5099 13.4019C14.4771 13.5659 14.5284 13.7353 14.6466 13.8535L14.8966 14.1035C15.1156 14.3225 15.1156 14.6775 14.8966 14.8964C14.6777 15.1154 14.3227 15.1154 14.1037 14.8964L13.8537 14.6464C13.7463 14.539 13.5959 14.4863 13.4449 14.5031L13.0861 14.5429C10.3705 14.8447 7.62981 14.8447 4.91419 14.5429L4.55538 14.5031C4.40441 14.4863 4.25401 14.539 4.14661 14.6464L3.89661 14.8964C3.67765 15.1154 3.32266 15.1154 3.10371 14.8964C2.88476 14.6775 2.88476 14.3225 3.10371 14.1035L3.35371 13.8535C3.47192 13.7353 3.52324 13.5659 3.49045 13.4019L3.31404 12.5199C3.11337 11.5166 3.11338 10.4834 3.31404 9.48009L3.49045 8.59805C3.53467 8.37696 3.42544 8.15362 3.22377 8.05278L3.06149 7.97164C2.84581 7.8638 2.7584 7.60155 2.86623 7.38587C2.99951 7.11933 3.35475 7.06168 3.56547 7.2724L3.64661 7.35354C3.74303 7.44996 3.87464 7.50282 4.01097 7.49987L9.67044 7.3775L11 8.70705ZM5.98519 8.87885C5.91822 8.61095 5.64675 8.44807 5.37885 8.51505C5.11095 8.58202 4.94807 8.85349 5.01505 9.12139L5.12093 9.5449C5.35979 10.5003 5.35979 11.4999 5.12093 12.4553L5.01505 12.8789C4.94807 13.1467 5.11095 13.4182 5.37885 13.4852C5.64675 13.5522 5.91822 13.3893 5.98519 13.1214L6.09107 12.6979C6.36974 11.5832 6.36974 10.417 6.09107 9.30237L5.98519 8.87885Z" fill="#2B2B2C"/>
</svg>
