<svg width="30" height="30" viewBox="0 0 30 30" fill="none" xmlns="http://www.w3.org/2000/svg">
<path fill-rule="evenodd" clip-rule="evenodd" d="M8.4068 13.7713L11.3976 9.03578C12.0819 9.90872 13.2017 10.4787 14.2501 10.8236C15.5107 11.2385 16.8477 11.3862 17.5823 11.2638C17.8502 11.2191 18.0335 10.9687 17.9951 10.6999L17.0451 4.0501C17.3003 4.08949 17.5664 4.15306 17.842 4.24493C19.0098 4.63421 20.43 5.23967 21.4873 5.69042L21.4873 5.69043L21.8155 5.83021C22.1607 5.97692 22.421 6.38861 22.4712 6.88483C22.6261 8.41607 23.5893 10.4242 26.8048 11.9979C26.81 12.0005 26.8133 12.004 26.8151 12.0069C26.4226 12.743 25.9884 13.4503 25.5741 14.0664C24.8994 15.0699 23.6097 15.3924 22.405 14.9291L18.1796 13.3039C17.9218 13.2048 17.6325 13.3334 17.5334 13.5911C17.4343 13.8489 17.5628 14.1382 17.8206 14.2373L19.4088 14.8481C18.7657 16.254 18.0001 18.7982 18.0001 23.5019C18.0001 23.778 18.2239 24.0019 18.5001 24.0019C18.7762 24.0019 19.0001 23.778 19.0001 23.5019C19.0001 18.8467 19.7673 16.4457 20.3441 15.2079L22.046 15.8624C23.6076 16.463 25.4249 16.0806 26.404 14.6244C26.8358 13.9822 27.2895 13.2432 27.7012 12.4706C27.9787 11.9497 27.734 11.3394 27.2444 11.0998C24.2957 9.65658 23.5816 7.92565 23.4661 6.78417C23.3925 6.05645 22.9936 5.24438 22.2067 4.90988L21.8784 4.77004C20.8274 4.32189 19.3678 3.69943 18.1582 3.29624C15.8474 2.526 13.9265 3.37872 13.1014 4.46883C13.0929 4.48007 13.0848 4.49167 13.0773 4.50359L7.1336 13.9145C4.19984 14.5421 2 17.1495 2 20.2706C2 23.8605 4.91016 26.7706 8.5 26.7706C12.0898 26.7706 15 23.8605 15 20.2706C15 16.6808 12.0898 13.7706 8.5 13.7706C8.46888 13.7706 8.43782 13.7708 8.4068 13.7713ZM10.8535 18.6241C11.0488 18.4288 11.0488 18.1124 10.8535 17.9171C10.7346 17.7982 10.571 17.7518 10.4172 17.7774C10.3181 17.794 10.2229 17.8407 10.1465 17.9171L8.5 19.5636L6.85352 17.9171C6.6582 17.7218 6.3418 17.7218 6.14648 17.9171C5.95117 18.1124 5.95117 18.4288 6.14648 18.6241L7.79297 20.2706L6.14648 21.9171C5.95117 22.1124 5.95117 22.4288 6.14648 22.6241C6.3418 22.8194 6.6582 22.8194 6.85352 22.6241L8.5 20.9776L10.1465 22.6241C10.3418 22.8194 10.6582 22.8194 10.8535 22.6241C11.0488 22.4288 11.0488 22.1124 10.8535 21.9171L9.20703 20.2706L10.8535 18.6241Z" fill="#2B2B2C"/>
</svg>
