<svg width="24" height="24" viewBox="0 0 24 24" fill="none" xmlns="http://www.w3.org/2000/svg">
<path fill-rule="evenodd" clip-rule="evenodd" d="M11.4112 4.78499L9.47543 7.7962C9.97969 8.41105 10.6971 8.75481 11.4373 8.92535C11.9699 9.04806 12.4926 9.07556 12.9113 9.05719L12.0527 4.33484C11.7625 4.4406 11.5501 4.60166 11.4112 4.78499ZM7.40543 11.0162L8.91462 8.66857C9.57676 9.35169 10.4224 9.71773 11.2128 9.89982C12.1329 10.1118 13.0244 10.0863 13.5822 9.99328C13.7143 9.97127 13.832 9.89722 13.909 9.78771C13.986 9.67819 14.0159 9.54237 13.992 9.41064L13.0462 4.20868C13.4178 4.22821 13.8489 4.30991 14.3419 4.47427C15.263 4.78129 16.189 5.22031 16.8888 5.55213L17.0051 5.60724C17.2405 5.71867 17.431 6.02051 17.4675 6.39884C17.5823 7.58687 18.3407 9.00568 20.8025 10.2249C20.8065 10.2269 20.8093 10.2292 20.8114 10.2315C20.4747 10.8329 20.0909 11.3954 19.7291 11.8736C19.2224 12.5434 18.3269 12.7981 17.452 12.5595L13.6316 11.5175C13.3652 11.4449 13.0903 11.6019 13.0177 11.8684C12.945 12.1348 13.1021 12.4096 13.3685 12.4823L14.9828 12.9226C14.459 14.0622 14.0001 16.1455 14.0001 19.9999C14.0001 20.2761 14.2239 20.4999 14.5001 20.4999C14.7762 20.4999 15.0001 20.2761 15.0001 19.9999C15.0001 16.0255 15.4995 14.119 15.9473 13.2235C15.9528 13.2124 15.958 13.2011 15.9626 13.1898L17.1889 13.5242C18.3912 13.8521 19.7341 13.5244 20.5265 12.477C20.9121 11.9675 21.326 11.3614 21.6918 10.7061C21.9853 10.1803 21.729 9.56786 21.2463 9.3288C19.0101 8.22128 18.5363 7.06254 18.4629 6.30272C18.4048 5.70147 18.0873 5.01319 17.4331 4.70344L17.308 4.64413C16.6152 4.31553 15.6391 3.85255 14.6582 3.52558C12.8759 2.9315 11.3573 3.17253 10.5976 4.20326C10.5913 4.21182 10.5852 4.22059 10.5795 4.22954L6.1845 11.0662C3.81097 11.4555 2 13.5163 2 16C2 18.7614 4.23858 21 7 21C9.76142 21 12 18.7614 12 16C12 13.3751 9.97725 11.2226 7.40543 11.0162ZM11 16C11 18.2091 9.20914 20 7 20C4.79086 20 3 18.2091 3 16C3 13.7909 4.79086 12 7 12C9.20914 12 11 13.7909 11 16ZM8.85355 14.1464C9.04882 14.3417 9.04882 14.6583 8.85355 14.8536L7.70711 16L8.85355 17.1464C9.04882 17.3417 9.04882 17.6583 8.85355 17.8536C8.65829 18.0488 8.34171 18.0488 8.14645 17.8536L7 16.7071L5.85355 17.8536C5.65829 18.0488 5.34171 18.0488 5.14645 17.8536C4.95118 17.6583 4.95118 17.3417 5.14645 17.1464L6.29289 16L5.14645 14.8536C4.95118 14.6583 4.95118 14.3417 5.14645 14.1464C5.34171 13.9512 5.65829 13.9512 5.85355 14.1464L7 15.2929L8.14645 14.1464C8.34171 13.9512 8.65829 13.9512 8.85355 14.1464Z" fill="#2B2B2C"/>
</svg>
