<svg width="30" height="30" viewBox="0 0 30 30" fill="none" xmlns="http://www.w3.org/2000/svg">
<path fill-rule="evenodd" clip-rule="evenodd" d="M11.9812 8.34121L13.8915 5.31661C14.2645 4.96093 15.04 4.4559 16.0394 4.31032L16.9285 10.5346C16.3286 10.5251 15.4496 10.3951 14.5626 10.1032C13.408 9.72331 12.4092 9.12402 11.9812 8.34121ZM7.13363 14.1439C4.19985 14.7715 2 17.3788 2 20.5C2 24.0899 4.91015 27 8.5 27C12.0899 27 15 24.0899 15 20.5C15 16.9101 12.0899 14 8.5 14C8.46889 14 8.43783 14.0002 8.40682 14.0007L11.3976 9.26524C12.0819 10.1382 13.2017 10.7082 14.2501 11.0531C15.5107 11.4679 16.8477 11.6157 17.5823 11.4933C17.8502 11.4486 18.0335 11.1982 17.9951 10.9294L17.0475 4.29596C17.3042 4.3262 17.5698 4.38363 17.842 4.47435C19.0098 4.86364 20.43 5.4691 21.4873 5.91985L21.8155 6.05963C22.1607 6.20634 22.421 6.61803 22.4712 7.11425C22.6261 8.64549 23.5893 10.6536 26.8048 12.2274C26.81 12.2299 26.8133 12.2334 26.8151 12.2364C26.4226 12.9724 25.9884 13.6798 25.5741 14.2959C24.8994 15.2993 23.6097 15.6219 22.405 15.1585L18.1796 13.5334C17.9218 13.4342 17.6325 13.5628 17.5334 13.8206C17.4343 14.0783 17.5628 14.3676 17.8206 14.4667L19.4088 15.0776C18.7657 16.4834 18.0001 19.0276 18.0001 23.7313C18.0001 24.0074 18.2239 24.2313 18.5001 24.2313C18.7762 24.2313 19.0001 24.0074 19.0001 23.7313C19.0001 19.0762 19.7673 16.6751 20.3441 15.4373L22.046 16.0919C23.6076 16.6925 25.4249 16.31 26.404 14.8538C26.8358 14.2116 27.2895 13.4726 27.7012 12.7C27.9787 12.1791 27.734 11.5688 27.2444 11.3292C24.2957 9.886 23.5816 8.15508 23.4661 7.01359C23.3925 6.28587 22.9936 5.4738 22.2067 5.13931L21.8784 4.99947C20.8274 4.55131 19.3678 3.92886 18.1582 3.52567C15.7955 2.73811 13.8523 3.94069 13.1465 4.64646C13.1203 4.67266 13.0971 4.70169 13.0773 4.73301L7.13363 14.1439ZM11.8536 18.1464C12.0488 18.3417 12.0488 18.6583 11.8536 18.8536L8.35355 22.3536C8.15829 22.5488 7.84171 22.5488 7.64645 22.3536L5.64645 20.3536C5.45118 20.1583 5.45118 19.8417 5.64645 19.6464C5.84171 19.4512 6.15829 19.4512 6.35355 19.6464L8 21.2929L11.1464 18.1464C11.3417 17.9512 11.6583 17.9512 11.8536 18.1464ZM14 20.5C14 23.5376 11.5376 26 8.5 26C5.46243 26 3 23.5376 3 20.5C3 17.4624 5.46243 15 8.5 15C11.5376 15 14 17.4624 14 20.5Z" fill="#2B2B2C"/>
</svg>
