<svg width="18" height="18" viewBox="0 0 18 18" fill="none" xmlns="http://www.w3.org/2000/svg">
<path fill-rule="evenodd" clip-rule="evenodd" d="M8.89103 3.51084C8.41868 3.67722 8.08969 3.93889 7.9473 4.22367C7.94407 4.23015 7.94069 4.23656 7.93717 4.24289L7.21248 5.54733C7.26354 5.57128 7.31138 5.60435 7.35355 5.64653C8.01314 6.30612 8.79847 6.52186 9.41315 6.53917L8.89103 3.51084ZM6.72303 6.42833L5.80488 8.08101C7.62824 8.45351 9 10.0666 9 12C9 14.2091 7.20914 16 5 16C2.79086 16 1 14.2091 1 12C1 9.89186 2.63085 8.16462 4.69976 8.0111L7.05813 3.76603C7.39843 3.09569 8.10585 2.68055 8.82885 2.48355C9.56667 2.28252 10.4181 2.27903 11.1582 2.52572C11.8927 2.77057 12.5731 3.06614 13.057 3.27631L13.1067 3.29791C13.6591 3.5378 13.9213 4.09935 14.0126 4.53353C14.1335 5.10795 14.6579 6.04371 16.3645 6.88468C16.7819 7.0904 17.0184 7.63101 16.7434 8.0983C16.4434 8.60794 16.0884 9.05578 15.7631 9.4213C15.0972 10.1696 14.0642 10.4065 13.1429 10.1762L12.3314 9.97328C11.9873 10.768 11.5001 12.3819 11.5001 15.0001C11.5001 15.2762 11.2762 15.5001 11.0001 15.5001C10.7239 15.5001 10.5001 15.2762 10.5001 15.0001C10.5001 12.401 10.9587 10.6923 11.35 9.72793L10.3788 9.48513C10.1109 9.41816 9.94805 9.14669 10.015 8.87879C10.082 8.6109 10.3535 8.44802 10.6214 8.51499L13.3855 9.20602C13.9977 9.35907 14.6312 9.189 15.0161 8.75649C15.284 8.45545 15.5624 8.106 15.8024 7.72152C13.9906 6.79715 13.2308 5.67474 13.0341 4.73937C12.9735 4.45124 12.833 4.26928 12.7084 4.21517L12.6667 4.19705C12.1796 3.98547 11.5339 3.70505 10.842 3.4744C10.5447 3.3753 10.2113 3.33043 9.87582 3.33706L10.4927 6.91513C10.5153 7.04628 10.4847 7.18105 10.4077 7.28956C10.3306 7.39808 10.2135 7.4714 10.0822 7.49328C9.23214 7.63495 7.84974 7.49996 6.72303 6.42833ZM5.01124 9.00002C5.00355 9.0002 4.99585 9.0002 4.98814 9.00002C3.33674 9.00641 2 10.3471 2 12C2 13.6569 3.34315 15 5 15C6.65685 15 8 13.6569 8 12C8 10.3469 6.66292 9.00608 5.01124 9.00002ZM6.85355 11.3536C7.04882 11.1583 7.04882 10.8417 6.85355 10.6464C6.65829 10.4512 6.34171 10.4512 6.14645 10.6464L4.5 12.2929L3.85355 11.6464C3.65829 11.4512 3.34171 11.4512 3.14645 11.6464C2.95118 11.8417 2.95118 12.1583 3.14645 12.3536L4.14645 13.3536C4.34171 13.5488 4.65829 13.5488 4.85355 13.3536L6.85355 11.3536Z" fill="#2B2B2C"/>
</svg>
