<svg width="18" height="18" viewBox="0 0 18 18" fill="none" xmlns="http://www.w3.org/2000/svg">
<path fill-rule="evenodd" clip-rule="evenodd" d="M7.9473 4.22367C8.08969 3.93889 8.41868 3.67722 8.89103 3.51084L9.41315 6.53917C8.79847 6.52186 8.01314 6.30612 7.35355 5.64653C7.31138 5.60435 7.26354 5.57128 7.21248 5.54733L7.93717 4.24289C7.94069 4.23656 7.94407 4.23015 7.9473 4.22367ZM5.80488 8.08101L6.72303 6.42833C7.84974 7.49996 9.23214 7.63495 10.0822 7.49328C10.2135 7.4714 10.3306 7.39808 10.4077 7.28956C10.4847 7.18105 10.5153 7.04628 10.4927 6.91513L9.87582 3.33706C10.2113 3.33043 10.5447 3.3753 10.842 3.4744C11.5339 3.70505 12.1796 3.98547 12.6667 4.19705L12.7084 4.21517C12.833 4.26928 12.9735 4.45124 13.0341 4.73937C13.2308 5.67474 13.9906 6.79715 15.8024 7.72152C15.5624 8.106 15.284 8.45545 15.0161 8.75649C14.6312 9.189 13.9977 9.35907 13.3855 9.20602L10.6214 8.51499C10.3535 8.44802 10.082 8.6109 10.015 8.87879C9.94805 9.14669 10.1109 9.41816 10.3788 9.48513L11.35 9.72793C10.9587 10.6923 10.5001 12.401 10.5001 15.0001C10.5001 15.2762 10.7239 15.5001 11.0001 15.5001C11.2762 15.5001 11.5001 15.2762 11.5001 15.0001C11.5001 12.3819 11.9873 10.768 12.3314 9.97328L13.1429 10.1762C14.0642 10.4065 15.0972 10.1696 15.7631 9.4213C16.0884 9.05578 16.4434 8.60794 16.7434 8.0983C17.0184 7.63101 16.7819 7.0904 16.3645 6.88468C14.6579 6.04371 14.1335 5.10795 14.0126 4.53353C13.9213 4.09935 13.6591 3.5378 13.1067 3.29791L13.057 3.27631C12.5731 3.06614 11.8927 2.77057 11.1582 2.52572C10.4181 2.27903 9.56667 2.28252 8.82885 2.48355C8.10585 2.68055 7.39843 3.09569 7.05813 3.76603L4.69976 8.0111C2.63085 8.16462 1 9.89186 1 12C1 14.2091 2.79086 16 5 16C7.20914 16 9 14.2091 9 12C9 10.0666 7.62824 8.45351 5.80488 8.08101ZM4.98814 9.00002C4.99585 9.0002 5.00355 9.0002 5.01124 9.00002C6.66292 9.00608 8 10.3469 8 12C8 13.6569 6.65685 15 5 15C3.34315 15 2 13.6569 2 12C2 10.3471 3.33674 9.00641 4.98814 9.00002ZM6.35355 10.6464C6.54882 10.8417 6.54882 11.1583 6.35355 11.3536L5.70711 12L6.35355 12.6464C6.54882 12.8417 6.54882 13.1583 6.35355 13.3536C6.15829 13.5488 5.84171 13.5488 5.64645 13.3536L5 12.7071L4.35355 13.3536C4.15829 13.5488 3.84171 13.5488 3.64645 13.3536C3.45118 13.1583 3.45118 12.8417 3.64645 12.6464L4.29289 12L3.64645 11.3536C3.45118 11.1583 3.45118 10.8417 3.64645 10.6464C3.84171 10.4512 4.15829 10.4512 4.35355 10.6464L5 11.2929L5.64645 10.6464C5.84171 10.4512 6.15829 10.4512 6.35355 10.6464Z" fill="#2B2B2C"/>
</svg>
