<svg width="18" height="18" viewBox="0 0 18 18" fill="none" xmlns="http://www.w3.org/2000/svg">
<path d="M9.9375 6.1875C9.9375 6.70527 9.51777 7.125 9 7.125C8.48223 7.125 8.0625 6.70527 8.0625 6.1875C8.0625 5.66973 8.48223 5.25 9 5.25C9.51777 5.25 9.9375 5.66973 9.9375 6.1875Z" stroke="#2B2B2C"/>
<path fill-rule="evenodd" clip-rule="evenodd" d="M4 3C3.72386 3 3.5 3.22386 3.5 3.5C3.5 3.77614 3.72386 4 4 4C4.27614 4 4.5 3.77614 4.5 3.5C4.5 3.22386 4.27614 3 4 3ZM2.5 3.5C2.5 2.67157 3.17157 2 4 2C4.82843 2 5.5 2.67157 5.5 3.5C5.5 4.32843 4.82843 5 4 5C3.17157 5 2.5 4.32843 2.5 3.5ZM3.29056 6.5C3.14733 6.5 3.03338 6.6201 3.04091 6.76314L3.23101 10.375H4.7691L4.95919 6.76314C4.96672 6.6201 4.85277 6.5 4.70954 6.5H3.29056ZM3.4468 14.4751L3.28364 11.375H4.71646L4.5533 14.4751C4.53781 14.7694 4.29471 15 4.00005 15C3.70539 15 3.46229 14.7694 3.4468 14.4751ZM5.55192 14.5277L5.73854 10.982C5.74604 10.9475 5.75 10.9117 5.75 10.875C5.75 10.8565 5.749 10.8383 5.74704 10.8203L5.7642 10.4944L6.0118 11.6086C6.07056 11.873 6.32865 12.0416 6.5929 11.9914C6.60204 11.9897 6.61114 11.9877 6.62016 11.9854C6.67012 11.9731 6.71651 11.9536 6.75848 11.9282C6.83402 11.8827 6.89849 11.8167 6.94256 11.7329L7.5555 10.5683L7.63766 10.4451L7.75098 12.0315L7.75164 12.0408L7.96565 15.0369C8.00441 15.5796 8.45596 16 9 16C9.54405 16 9.99559 15.5796 10.0344 15.0369L10.354 10.562L11.0712 11.7573C11.1213 11.8408 11.1919 11.9044 11.2727 11.9456C11.2968 11.9578 11.3222 11.9683 11.3487 11.9767C11.3695 11.9833 11.3907 11.9885 11.4122 11.9923C11.6747 12.0394 11.9298 11.8713 11.9882 11.6086L12.2359 10.494L12.4482 14.5277C12.4916 15.353 13.1735 16 14.0001 16C14.8266 16 15.5085 15.353 15.5519 14.5277L15.7642 10.4944L16.0118 11.6086C16.0717 11.8781 16.3388 12.0481 16.6084 11.9882C16.8779 11.9283 17.0479 11.6612 16.988 11.3916L15.988 6.89164C15.9809 6.85988 15.971 6.82949 15.9585 6.80071C15.9875 6.09215 15.4207 5.5 14.7095 5.5H13.2906C12.5795 5.5 12.0127 6.09203 12.0416 6.80049C12.0291 6.82934 12.0191 6.8598 12.012 6.89164L11.2839 10.1682L10.4287 8.74283C10.3806 8.66265 10.3135 8.60081 10.2367 8.55961C10.0136 8.22356 9.63173 8 9.19452 8H8.80548C8.3683 8 7.98645 8.22353 7.76334 8.55955C7.69331 8.59712 7.63124 8.65196 7.58408 8.7227L6.70908 10.0352C6.70327 10.0439 6.69773 10.0528 6.69248 10.0619L5.98799 6.89164C5.98093 6.85988 5.97099 6.82949 5.95851 6.80071C5.98747 6.09215 5.4207 5.5 4.70954 5.5H3.29056C2.57948 5.5 2.01274 6.09203 2.04158 6.80049C2.02906 6.82934 2.01909 6.8598 2.01201 6.89164L1.01201 11.3916C0.95211 11.6612 1.12208 11.9283 1.39164 11.9882C1.66121 12.0481 1.9283 11.8781 1.9882 11.6086L2.23589 10.494L2.44818 14.5277C2.49162 15.353 3.17353 16 4.00005 16C4.82657 16 5.50848 15.353 5.55192 14.5277ZM13.0409 6.76314C13.0334 6.6201 13.1473 6.5 13.2906 6.5H14.7095C14.8528 6.5 14.9667 6.6201 14.9592 6.76314L14.7888 10H13.2113L13.0409 6.76314ZM13.2639 11H14.7362L14.5533 14.4751C14.5378 14.7694 14.2947 15 14.0001 15C13.7054 15 13.4623 14.7694 13.4468 14.4751L13.2639 11ZM8.96311 14.9656L8.78699 12.5H9.21301L9.0369 14.9656C9.03551 14.985 9.01941 15 9 15C8.9806 15 8.96449 14.985 8.96311 14.9656ZM8.71556 11.5H9.28444L9.44388 9.26781C9.45422 9.12309 9.33961 9 9.19452 9H8.80548C8.6604 9 8.54578 9.1231 8.55612 9.26781L8.71556 11.5ZM13.5 3.5C13.5 3.22386 13.7239 3 14 3C14.2761 3 14.5 3.22386 14.5 3.5C14.5 3.77614 14.2761 4 14 4C13.7239 4 13.5 3.77614 13.5 3.5ZM14 2C13.1716 2 12.5 2.67157 12.5 3.5C12.5 4.32843 13.1716 5 14 5C14.8284 5 15.5 4.32843 15.5 3.5C15.5 2.67157 14.8284 2 14 2Z" fill="#2B2B2C"/>
</svg>
