<svg width="30" height="30" viewBox="0 0 30 30" fill="none" xmlns="http://www.w3.org/2000/svg">
<path fill-rule="evenodd" clip-rule="evenodd" d="M8.5 6.5C8.5 7.32843 7.82843 8 7 8C6.17157 8 5.5 7.32843 5.5 6.5C5.5 5.67157 6.17157 5 7 5C7.82843 5 8.5 5.67157 8.5 6.5ZM9.5 6.5C9.5 7.88071 8.38071 9 7 9C5.61929 9 4.5 7.88071 4.5 6.5C4.5 5.11929 5.61929 4 7 4C8.38071 4 9.5 5.11929 9.5 6.5ZM5.08701 11.7995C5.0584 11.3667 5.40169 11 5.83537 11H8.16463C8.59831 11 8.9416 11.3667 8.91299 11.7995L8.56916 17H5.43084L5.08701 11.7995ZM5.49696 18L5.89995 24.0953C5.93826 24.6746 6.41937 25.125 7 25.125C7.58063 25.125 8.06174 24.6746 8.10005 24.0953L8.50304 18H5.49696ZM5.83537 10C4.87242 10 4.10046 10.7749 4.08552 11.72C4.05858 11.7599 4.03701 11.8044 4.02211 11.8528L2.02211 18.3528C1.9409 18.6168 2.08903 18.8966 2.35296 18.9778C2.61689 19.059 2.89668 18.9109 2.97789 18.6469L4.26169 14.4746L4.90213 24.1613C4.97518 25.2661 5.89269 26.125 7 26.125C8.10731 26.125 9.02482 25.2661 9.09787 24.1613L9.62905 16.1271L10.0058 18.5761C10.0178 18.6539 10.0471 18.7248 10.0892 18.7853C10.1063 18.8099 10.1258 18.8332 10.1476 18.8548C10.1792 18.8861 10.2147 18.9131 10.2534 18.935C10.2587 18.9381 10.2641 18.941 10.2696 18.9439C10.2864 18.9526 10.3035 18.9603 10.3209 18.967C10.3247 18.9685 10.3286 18.9699 10.3324 18.9713C10.408 18.9982 10.4912 19.0073 10.576 18.9943C10.6603 18.9813 10.7364 18.948 10.8001 18.9001C10.8195 18.8856 10.838 18.8695 10.8554 18.8518C10.8726 18.8344 10.8885 18.8158 10.9029 18.7961L12.7061 16.3919L13.4152 24.5471C13.4867 25.3691 14.1749 26 15 26C15.8251 26 16.5133 25.3691 16.5847 24.5471L17.0193 19.5493L17.0203 19.5384L17.2939 16.3919L19.0971 18.7962C19.1055 18.8076 19.1144 18.8187 19.1237 18.8294C19.149 18.8583 19.1771 18.8837 19.2072 18.9055C19.2694 18.9505 19.3429 18.9818 19.424 18.9943C19.5023 19.0063 19.5792 18.9995 19.65 18.9771C19.687 18.9655 19.7232 18.9494 19.7576 18.9286C19.785 18.9121 19.8108 18.893 19.8347 18.8716C19.8614 18.8475 19.8851 18.8211 19.9055 18.7928C19.9504 18.7307 19.9817 18.6572 19.9942 18.5761L20.3731 16.1132L20.9013 24.0366C20.975 25.1415 21.8927 26 23 26C24.1073 26 25.025 25.1415 25.0987 24.0366L25.7365 14.4688L27.0221 18.6469C27.1033 18.9109 27.3831 19.059 27.647 18.9778C27.911 18.8966 28.0591 18.6168 27.9779 18.3528L25.9779 11.8528C25.9629 11.804 25.941 11.7591 25.9137 11.7189C25.8982 10.7743 25.1265 10 24.1639 10H21.8361C20.8734 10 20.1017 10.7745 20.0863 11.7191C20.0457 11.7787 20.0175 11.8481 20.0058 11.924L19.1866 17.2488L17.3155 14.7541C17.1028 14.0342 16.4366 13.5 15.6366 13.5H14.3634C13.5634 13.5 12.8972 14.0342 12.6845 14.7541L10.8134 17.2488L9.99418 11.924C9.98257 11.8485 9.95462 11.7796 9.91449 11.7202C9.89966 10.775 9.12766 10 8.16463 10H5.83537ZM21.8361 11C21.4023 11 21.0589 11.367 21.0878 11.7999L21.4344 17H24.5656L24.9122 11.7999C24.9411 11.367 24.5977 11 24.1639 11H21.8361ZM21.5011 18L21.8991 23.9701C21.9378 24.5496 22.4191 25 23 25C23.5809 25 24.0622 24.5496 24.1009 23.9701L24.4989 18H21.5011ZM16.0633 19L16.3838 15.315C16.4219 14.8768 16.0764 14.5 15.6366 14.5H14.3634C13.9236 14.5 13.5781 14.8768 13.6162 15.315L13.9367 19H16.0633ZM14.0236 20H15.9764L15.5885 24.4604C15.562 24.7657 15.3064 25 15 25C14.6936 25 14.438 24.7657 14.4115 24.4604L14.0236 20ZM23 8C23.8284 8 24.5 7.32843 24.5 6.5C24.5 5.67157 23.8284 5 23 5C22.1716 5 21.5 5.67157 21.5 6.5C21.5 7.32843 22.1716 8 23 8ZM23 9C24.3807 9 25.5 7.88071 25.5 6.5C25.5 5.11929 24.3807 4 23 4C21.6193 4 20.5 5.11929 20.5 6.5C20.5 7.88071 21.6193 9 23 9ZM14 10.5C14 9.94772 14.4477 9.5 15 9.5C15.5523 9.5 16 9.94772 16 10.5C16 11.0523 15.5523 11.5 15 11.5C14.4477 11.5 14 11.0523 14 10.5ZM15 8.5C13.8954 8.5 13 9.39543 13 10.5C13 11.6046 13.8954 12.5 15 12.5C16.1046 12.5 17 11.6046 17 10.5C17 9.39543 16.1046 8.5 15 8.5Z" fill="#2B2B2C"/>
</svg>
