<svg width="18" height="18" viewBox="0 0 18 18" fill="none" xmlns="http://www.w3.org/2000/svg">
<path fill-rule="evenodd" clip-rule="evenodd" d="M12.5416 1.98686C12.6394 1.99092 12.7315 1.99474 12.8139 1.99709C13.0947 2.00512 13.3643 2.14513 13.5274 2.38973L14.1192 3.27745C14.2119 3.41655 14.368 3.5001 14.5352 3.5001H15.125C15.5962 3.5001 16.0253 3.8901 15.9849 4.41352C15.9431 4.95512 15.8067 5.48215 15.4742 5.87934C15.2235 6.1788 14.8933 6.3673 14.5 6.45047V9.5001C14.5 10.3089 14.0653 10.8254 13.6176 11.1184C13.404 11.2582 13.185 11.3503 13 11.4083V14.7501C13 15.4405 12.4404 16.0001 11.75 16.0001C11.0596 16.0001 10.5 15.4405 10.5 14.7501V11.5001H5.94805C5.83872 11.999 5.56695 12.363 5.22965 12.6059C4.99484 12.7749 4.73829 12.8788 4.5 12.9371V14.7501C4.5 15.4405 3.94036 16.0001 3.25 16.0001C2.55964 16.0001 2 15.4405 2 14.7501V9.0001C2 7.61939 3.11929 6.50009 4.5 6.50009H5.93248L4.11589 4.32018C3.99169 4.17114 3.96492 3.9637 4.04721 3.78801C4.1295 3.61232 4.30599 3.50009 4.5 3.50009H7C7.14282 3.50009 7.27882 3.56116 7.3737 3.66791L9.27977 5.81223C9.37467 5.60061 9.45227 5.32473 9.5 4.96764V4.00009C9.5 3.47949 9.6236 3.04605 9.88159 2.71033C10.1392 2.37514 10.4888 2.19201 10.8379 2.09263C11.1816 1.99477 11.5491 1.97094 11.8819 1.96954C12.1021 1.96862 12.3347 1.97827 12.5416 1.98686ZM12.0108 2.9701C12.0241 3.01839 12.0413 3.08147 12.0612 3.15621C12.109 3.33529 12.1728 3.58243 12.2367 3.85412C12.3597 4.37688 12.5 5.0576 12.5 5.49988C12.5 5.77603 12.2761 5.99988 12 5.99988H11.9951C11.8049 5.99989 11.3979 5.9999 10.9679 5.9311C10.7801 5.90105 10.5654 5.85472 10.3527 5.7785C10.2629 6.09069 10.1408 6.36653 9.98263 6.60295L10.7981 7.52039C10.8633 7.50702 10.9308 7.5 11 7.5H13.5V6.50009C13.2239 6.50008 13 6.27622 13 6.00008C13 5.72394 13.2239 5.50008 13.5 5.50009L14 5.5001C14.3863 5.5001 14.5849 5.38374 14.7074 5.23741C14.8302 5.09075 14.9259 4.85479 14.9712 4.5001H14.5352C14.0337 4.5001 13.5653 4.24944 13.2871 3.83215L12.729 2.99495C12.6397 2.99203 12.5526 2.98837 12.4663 2.98474L12.4662 2.98474L12.4662 2.98474L12.4662 2.98473L12.4661 2.98473C12.3142 2.97834 12.1648 2.97206 12.0108 2.9701ZM9.24439 7.27763L10.0507 8.18474C10.0178 8.28385 10 8.38985 10 8.5V10.5001H5.5C5.22386 10.5001 5 10.724 5 11.0001C5 11.4371 4.8291 11.662 4.64535 11.7943C4.4361 11.945 4.16999 12.0001 4 12.0001C3.86739 12.0001 3.74022 12.0528 3.64645 12.1465C3.55268 12.2403 3.5 12.3675 3.5 12.5001V14.7501C3.5 14.8882 3.38807 15.0001 3.25 15.0001C3.11193 15.0001 3 14.8882 3 14.7501V9.0001C3 8.17167 3.67158 7.50009 4.5 7.50009H8.5C8.52579 7.50009 8.55154 7.49809 8.57702 7.49412C8.81448 7.4571 9.03857 7.38599 9.24439 7.27763ZM11.5 14.7501V11V10C11.5 9.45239 11.9402 9.00758 12.486 9.0001H13.5V9.5001C13.5 9.89133 13.3097 10.1248 13.0699 10.2817C12.9448 10.3636 12.8098 10.4206 12.6928 10.4566C12.585 10.4897 12.5165 10.498 12.5024 10.4997L12.5024 10.4997L12.5023 10.4997C12.5 10.5 12.4992 10.5001 12.5 10.5001C12.2239 10.5001 12 10.724 12 11.0001V14.7501C12 14.8882 11.8881 15.0001 11.75 15.0001C11.6119 15.0001 11.5 14.8882 11.5 14.7501ZM8.53808 6.48304L7.21983 5H5.98411L7.23419 6.50009H8.45834C8.48557 6.49514 8.51214 6.48946 8.53808 6.48304Z" fill="#2B2B2C"/>
</svg>
