<svg width="30" height="30" viewBox="0 0 30 30" fill="none" xmlns="http://www.w3.org/2000/svg">
<path fill-rule="evenodd" clip-rule="evenodd" d="M21.0826 3.43474L21.0826 3.43475C21.1938 3.44566 21.2998 3.45607 21.3994 3.46501C21.9531 3.51473 22.4785 3.84506 22.7213 4.38455L23.1321 5.29753C23.3419 5.76365 23.7746 6.09088 24.2802 6.16579L26.0399 6.42647C26.5825 6.50687 27.0223 6.98373 26.9812 7.57498C26.9055 8.66221 26.5921 9.45277 25.9243 9.93741C25.4039 10.3152 24.7373 10.4515 24 10.4886V15.5001C24 16.5754 23.7305 17.3718 23.1379 17.8797C22.6848 18.2681 22.108 18.4293 21.5 18.4804V25.2501C21.5 26.2166 20.7165 27.0001 19.75 27.0001C18.7835 27.0001 18 26.2166 18 25.2501V18.5001H9.96734C9.84696 19.3899 9.40626 20.0087 8.85465 20.4059C8.41721 20.7208 7.92583 20.8862 7.5 20.957V25.2501C7.5 26.2166 6.7165 27.0001 5.75 27.0001C4.7835 27.0001 4 26.2166 4 25.2501V15.0001C4 12.791 5.79086 11.0001 8 11.0001L11.2929 11.0001L7.14645 6.85365C7.00345 6.71065 6.96067 6.49559 7.03806 6.30875C7.11545 6.12192 7.29777 6.00009 7.5 6.00009H11.5C11.6326 6.00009 11.7598 6.05277 11.8536 6.14654L15.902 10.195C16.1774 9.80195 16.3976 9.24218 16.5 8.46782V7.99988V7.99949V6.0001C16.5 5.2571 16.6913 4.667 17.0642 4.22903C17.4337 3.79517 17.9325 3.56823 18.4384 3.45319C19.2926 3.25898 20.3121 3.35909 21.0826 3.43474ZM16.6155 10.9085C17.0039 10.4056 17.2988 9.72915 17.4482 8.87941C17.887 9.09108 18.3595 9.22768 18.7882 9.31741C19.5015 9.4667 20.162 9.49989 20.5 9.49989C20.7761 9.49989 21 9.27603 21 8.99989C21 8.61578 20.8897 8.09113 20.7487 7.56246C20.6039 7.01937 20.4123 6.42127 20.223 5.86898C20.0333 5.31561 19.8438 4.80256 19.7019 4.42818L19.6685 4.3401C20.0941 4.3452 20.5384 4.38777 20.9693 4.42904C21.084 4.44003 21.1978 4.45093 21.31 4.461C21.5401 4.48166 21.7292 4.61671 21.8094 4.79492L22.2202 5.70789C22.5698 6.48476 23.2909 7.03014 24.1336 7.15499L25.8933 7.41568C25.9248 7.42035 25.9499 7.43591 25.9655 7.45444C25.9801 7.47174 25.9848 7.48867 25.9836 7.50555C25.9177 8.45185 25.6633 8.89122 25.337 9.12811C24.9787 9.38815 24.4122 9.50011 23.5 9.50011H22.5C22.2239 9.50011 22 9.72397 22 10.0001C22 10.2763 22.2239 10.5001 22.5 10.5001H23V12H17.707L16.6155 10.9085ZM19 18V16C19 15.4477 19.4477 15 20 15H23V15.5001C23 16.4249 22.7695 16.8784 22.4871 17.1205C22.1881 17.3768 21.7142 17.5001 21 17.5001C20.7239 17.5001 20.5 17.724 20.5 18.0001V25.2501C20.5 25.6643 20.1642 26.0001 19.75 26.0001C19.3358 26.0001 19 25.6643 19 25.2501V18ZM16 13C16 12.649 16.1809 12.3402 16.4545 12.1617L15.8832 11.5904C15.4607 11.8635 14.9875 12.0001 14.5 12.0001L8 12.0001C6.34315 12.0001 5 13.3432 5 15.0001V25.2501C5 25.6643 5.33579 26.0001 5.75 26.0001C6.16421 26.0001 6.5 25.6643 6.5 25.2501V20.5001C6.5 20.3675 6.55268 20.2403 6.64645 20.1465C6.74022 20.0528 6.86739 20.0001 7 20.0001C7.33665 20.0001 7.85276 19.895 8.27035 19.5943C8.66243 19.312 9 18.8371 9 18.0001C9 17.724 9.22386 17.5001 9.5 17.5001H16V13ZM12.2928 8L15.1459 10.8531C14.9256 10.9561 14.7036 11.0001 14.5 11.0001L12.7071 11.0001L9.70701 8H12.2928Z" fill="#2B2B2C"/>
</svg>
