<svg width="24" height="24" viewBox="0 0 24 24" fill="none" xmlns="http://www.w3.org/2000/svg">
<path fill-rule="evenodd" clip-rule="evenodd" d="M10.5 3C9.67157 3 9 3.67157 9 4.5V6H4.5C3.67157 6 3 6.67157 3 7.5V16.5C3 17.3284 3.67157 18 4.5 18H5.08535C5.03008 18.1564 5 18.3247 5 18.5C5 19.3284 5.67157 20 6.5 20C7.32843 20 8 19.3284 8 18.5C8 18.3247 7.96992 18.1564 7.91465 18H16.0854C16.0301 18.1564 16 18.3247 16 18.5C16 19.3284 16.6716 20 17.5 20C18.3284 20 19 19.3284 19 18.5C19 18.3247 18.9699 18.1564 18.9146 18H19.5C20.3284 18 21 17.3284 21 16.5V7.5C21 6.67157 20.3284 6 19.5 6H15V4.5C15 3.67157 14.3284 3 13.5 3H10.5ZM6.5 18C6.22386 18 6 18.2239 6 18.5C6 18.7761 6.22386 19 6.5 19C6.77614 19 7 18.7761 7 18.5C7 18.2239 6.77614 18 6.5 18ZM17 18.5C17 18.2239 17.2239 18 17.5 18C17.7761 18 18 18.2239 18 18.5C18 18.7761 17.7761 19 17.5 19C17.2239 19 17 18.7761 17 18.5ZM14 6V4.5C14 4.22386 13.7761 4 13.5 4H10.5C10.2239 4 10 4.22386 10 4.5V6H14ZM9 17H8V7H9V17ZM15 17V7H16V17H15Z" fill="#2B2B2C"/>
</svg>
