<svg width="30" height="30" viewBox="0 0 30 30" fill="none" xmlns="http://www.w3.org/2000/svg">
<path fill-rule="evenodd" clip-rule="evenodd" d="M13.25 3.5C12.2835 3.5 11.5 4.2835 11.5 5.25V7H4.75C3.7835 7 3 7.7835 3 8.75V21.25C3 22.2165 3.7835 23 4.75 23H5.76756C5.59739 23.2942 5.5 23.6357 5.5 24C5.5 25.1046 6.39543 26 7.5 26C8.60457 26 9.5 25.1046 9.5 24C9.5 23.6357 9.40261 23.2942 9.23244 23H20.7676C20.5974 23.2942 20.5 23.6357 20.5 24C20.5 25.1046 21.3954 26 22.5 26C23.6046 26 24.5 25.1046 24.5 24C24.5 23.6357 24.4026 23.2942 24.2324 23H25.25C26.2165 23 27 22.2165 27 21.25V8.75C27 7.7835 26.2165 7 25.25 7H18.5V5.25C18.5 4.2835 17.7165 3.5 16.75 3.5H13.25ZM7.5 22H9V8H4.75C4.33579 8 4 8.33579 4 8.75V21.25C4 21.6642 4.33579 22 4.75 22H7.5ZM7.5 23C6.94772 23 6.5 23.4477 6.5 24C6.5 24.5523 6.94772 25 7.5 25C8.05228 25 8.5 24.5523 8.5 24C8.5 23.4477 8.05228 23 7.5 23ZM21.5 24C21.5 23.4477 21.9477 23 22.5 23C23.0523 23 23.5 23.4477 23.5 24C23.5 24.5523 23.0523 25 22.5 25C21.9477 25 21.5 24.5523 21.5 24ZM25.25 22H22.5H21V8H25.25C25.6642 8 26 8.33579 26 8.75V21.25C26 21.6642 25.6642 22 25.25 22ZM17.5 7V5.25C17.5 4.83579 17.1642 4.5 16.75 4.5H13.25C12.8358 4.5 12.5 4.83579 12.5 5.25V7H17.5ZM10 22H20V8H10V22Z" fill="#2B2B2C"/>
</svg>
