<svg width="24" height="24" viewBox="0 0 24 24" fill="none" xmlns="http://www.w3.org/2000/svg">
<path fill-rule="evenodd" clip-rule="evenodd" d="M10.5 2C10.2239 2 10 2.22386 10 2.5V6H8.5C7.67157 6 7 6.67157 7 7.5V13.0275C4.75002 13.2762 3 15.1837 3 17.5C3 19.9853 5.01472 22 7.5 22C9.45933 22 11.1262 20.7478 11.7439 19H14.0854C14.0301 19.1564 14 19.3247 14 19.5C14 20.3284 14.6716 21 15.5 21C16.3284 21 17 20.3284 17 19.5C17 19.3049 16.9627 19.1185 16.8949 18.9475C17.5318 18.7741 18 18.1917 18 17.5V7.5C18 6.67157 17.3284 6 16.5 6H15V2.5C15 2.22386 14.7761 2 14.5 2H10.5ZM11.9725 18H15.5H16.5C16.7761 18 17 17.7761 17 17.5V7.5C17 7.22386 16.7761 7 16.5 7H15V8.29289L15.8536 9.14645C15.9473 9.24022 16 9.36739 16 9.5V12.5C16 12.7761 15.7761 13 15.5 13H13.5C13.2239 13 13 12.7761 13 12.5V9.5C13 9.36739 13.0527 9.24022 13.1464 9.14645L14 8.29289V7H8.5C8.22386 7 8 7.22386 8 7.5V13.0275C10.25 13.2762 12 15.1837 12 17.5C12 17.669 11.9907 17.8358 11.9725 18ZM7.5 14C5.567 14 4 15.567 4 17.5C4 19.433 5.567 21 7.5 21C9.433 21 11 19.433 11 17.5C11 15.567 9.433 14 7.5 14ZM15 19.5C15 19.2239 15.2239 19 15.5 19C15.7761 19 16 19.2239 16 19.5C16 19.7761 15.7761 20 15.5 20C15.2239 20 15 19.7761 15 19.5ZM14 6V3H11V6H14ZM14 9.70711L14.5 9.20711L15 9.70711V12H14V9.70711ZM8 15.5C8 15.2239 7.77614 15 7.5 15C7.22386 15 7 15.2239 7 15.5V17H5.5C5.22386 17 5 17.2239 5 17.5C5 17.7761 5.22386 18 5.5 18H7V19.5C7 19.7761 7.22386 20 7.5 20C7.77614 20 8 19.7761 8 19.5V18H9.5C9.77614 18 10 17.7761 10 17.5C10 17.2239 9.77614 17 9.5 17H8V15.5Z" fill="#2B2B2C"/>
</svg>
