<svg width="30" height="30" viewBox="0 0 30 30" fill="none" xmlns="http://www.w3.org/2000/svg">
<path d="M21.25 7.5H8.75C8.05964 7.5 7.5 8.05964 7.5 8.75V23.25C7.5 23.9404 8.05964 24.5 8.75 24.5H21.25C21.9404 24.5 22.5 23.9404 22.5 23.25V8.75C22.5 8.05964 21.9404 7.5 21.25 7.5Z" stroke="#2B2B2C" stroke-linecap="round" stroke-linejoin="round"/>
<circle cx="19" cy="26" r="1.5" stroke="#2B2B2C"/>
<circle cx="11" cy="26" r="1.5" stroke="#2B2B2C"/>
<path d="M12 7.5V2.5H18V8" stroke="#2B2B2C" stroke-linejoin="round"/>
<path d="M21.25 7.5H8.75C8.05964 7.5 7.5 8.05964 7.5 8.75V23.25C7.5 23.9404 8.05964 24.5 8.75 24.5H21.25C21.9404 24.5 22.5 23.9404 22.5 23.25V8.75C22.5 8.05964 21.9404 7.5 21.25 7.5Z" stroke="#2B2B2C" stroke-linecap="round" stroke-linejoin="round"/>
<circle cx="19" cy="26" r="1.5" stroke="#2B2B2C"/>
<circle cx="11" cy="26" r="1.5" stroke="#2B2B2C"/>
<path fill-rule="evenodd" clip-rule="evenodd" d="M21.5 7.5L22 8L22.5 9V23L21.5 24.5H9C8.5 24.5 7.5 24.4 7.5 24V8.5L8.5 7.5H21.5ZM16.5879 10.9121C16.5316 10.9684 16.5 11.0447 16.5 11.1243V14.7C16.5 14.8657 16.6343 15 16.8 15H19.2C19.3657 15 19.5 14.8657 19.5 14.7V11.1243C19.5 11.0447 19.4684 10.9684 19.4121 10.9121L18.2121 9.71213C18.095 9.59497 17.905 9.59497 17.7879 9.71213L16.5879 10.9121Z" fill="#2B2B2C"/>
</svg>
