<svg width="18" height="18" viewBox="0 0 18 18" fill="none" xmlns="http://www.w3.org/2000/svg">
<path fill-rule="evenodd" clip-rule="evenodd" d="M7.5 1C7.22386 1 7 1.22386 7 1.5V4H5.25C4.55964 4 4 4.55964 4 5.25V13.75C4 14.3858 4.47471 14.9108 5.08903 14.9897C5.03142 15.149 5 15.3208 5 15.5C5 16.3284 5.67157 17 6.5 17C7.32843 17 8 16.3284 8 15.5C8 15.3247 7.96992 15.1564 7.91465 15H10.0854C10.0301 15.1564 10 15.3247 10 15.5C10 16.3284 10.6716 17 11.5 17C12.3284 17 13 16.3284 13 15.5C13 15.3208 12.9686 15.149 12.911 14.9897C13.5253 14.9108 14 14.3858 14 13.75V5.25C14 4.55964 13.4404 4 12.75 4H11V1.5C11 1.22386 10.7761 1 10.5 1H7.5ZM6.5 14H11.5H12.75C12.8881 14 13 13.8881 13 13.75V5.25C13 5.11193 12.8881 5 12.75 5H11V5.79289L11.8536 6.64645C11.9473 6.74021 12 6.86739 12 7V9.5C12 9.77614 11.7761 10 11.5 10H9.5C9.22386 10 9 9.77614 9 9.5V7C9 6.86739 9.05268 6.74021 9.14645 6.64645L10 5.79289V5H5.25C5.11193 5 5 5.11193 5 5.25V13.75C5 13.8881 5.11193 14 5.25 14H6.5ZM6.5 15C6.22386 15 6 15.2239 6 15.5C6 15.7761 6.22386 16 6.5 16C6.77614 16 7 15.7761 7 15.5C7 15.2239 6.77614 15 6.5 15ZM11 15.5C11 15.2239 11.2239 15 11.5 15C11.7761 15 12 15.2239 12 15.5C12 15.7761 11.7761 16 11.5 16C11.2239 16 11 15.7761 11 15.5ZM10 4V2H8V4H10ZM10 7.20711L10.5 6.70711L11 7.20711V9H10V7.20711Z" fill="#2B2B2C"/>
</svg>
