<svg width="18" height="18" viewBox="0 0 18 18" fill="none" xmlns="http://www.w3.org/2000/svg">
<path fill-rule="evenodd" clip-rule="evenodd" d="M7.75 2C7.05964 2 6.5 2.55964 6.5 3.25V4H3.25C2.55964 4 2 4.55964 2 5.25V12.75C2 13.4404 2.55964 14 3.25 14H3.58535C3.53008 14.1564 3.5 14.3247 3.5 14.5C3.5 15.3284 4.17157 16 5 16C5.82843 16 6.5 15.3284 6.5 14.5C6.5 14.3247 6.46992 14.1564 6.41465 14H11.5854C11.5301 14.1564 11.5 14.3247 11.5 14.5C11.5 15.3284 12.1716 16 13 16C13.8284 16 14.5 15.3284 14.5 14.5C14.5 14.3247 14.4699 14.1564 14.4146 14H14.75C15.4404 14 16 13.4404 16 12.75V5.25C16 4.55964 15.4404 4 14.75 4H11.5V3.25C11.5 2.55964 10.9404 2 10.25 2H7.75ZM5 13H6V5H5V13ZM5 14C4.72386 14 4.5 14.2239 4.5 14.5C4.5 14.7761 4.72386 15 5 15C5.27614 15 5.5 14.7761 5.5 14.5C5.5 14.2239 5.27614 14 5 14ZM12.5 14.5C12.5 14.2239 12.7239 14 13 14C13.2761 14 13.5 14.2239 13.5 14.5C13.5 14.7761 13.2761 15 13 15C12.7239 15 12.5 14.7761 12.5 14.5ZM13 5V13H12V5H13ZM10.5 4V3.25C10.5 3.11193 10.3881 3 10.25 3H7.75C7.61193 3 7.5 3.11193 7.5 3.25V4H10.5Z" fill="#2B2B2C"/>
</svg>
