<svg width="24" height="24" viewBox="0 0 24 24" fill="none" xmlns="http://www.w3.org/2000/svg">
<path fill-rule="evenodd" clip-rule="evenodd" d="M9.5 2C9.22386 2 9 2.22386 9 2.5V6H7.5C6.67157 6 6 6.67157 6 7.5V18.5C6 19.1917 6.46824 19.7741 7.10505 19.9475C7.03726 20.1185 7 20.3049 7 20.5C7 21.3284 7.67157 22 8.5 22C9.32843 22 10 21.3284 10 20.5C10 20.3247 9.96992 20.1564 9.91465 20H14.0854C14.0301 20.1564 14 20.3247 14 20.5C14 21.3284 14.6716 22 15.5 22C16.3284 22 17 21.3284 17 20.5C17 20.3049 16.9627 20.1185 16.8949 19.9475C17.5318 19.7741 18 19.1917 18 18.5V7.5C18 6.67157 17.3284 6 16.5 6H15V2.5C15 2.22386 14.7761 2 14.5 2H9.5ZM8.5 19H15.5H16.5C16.7761 19 17 18.7761 17 18.5V7.5C17 7.22386 16.7761 7 16.5 7H15V8.29289L15.8536 9.14645C15.9473 9.24021 16 9.36739 16 9.5V12.5C16 12.7761 15.7761 13 15.5 13H13.5C13.2239 13 13 12.7761 13 12.5V9.5C13 9.36739 13.0527 9.24021 13.1464 9.14645L14 8.29289V7H7.5C7.22386 7 7 7.22386 7 7.5V18.5C7 18.7761 7.22386 19 7.5 19H8.5ZM8.5 20C8.22386 20 8 20.2239 8 20.5C8 20.7761 8.22386 21 8.5 21C8.77614 21 9 20.7761 9 20.5C9 20.2239 8.77614 20 8.5 20ZM15 20.5C15 20.2239 15.2239 20 15.5 20C15.7761 20 16 20.2239 16 20.5C16 20.7761 15.7761 21 15.5 21C15.2239 21 15 20.7761 15 20.5ZM14 6V3H10V6H14ZM14 9.70711L14.5 9.20711L15 9.70711V12H14V9.70711Z" fill="#2B2B2C"/>
</svg>
