<svg width="24" height="24" viewBox="0 0 24 24" fill="none" xmlns="http://www.w3.org/2000/svg">
<path fill-rule="evenodd" clip-rule="evenodd" d="M7.5 3C7.22386 3 7 3.22386 7 3.5V7.9915C7.00011 7.99764 7.00011 8.00376 7 8.00986V12.5C7 12.7761 7.22386 13 7.5 13H16.5C16.7761 13 17 12.7761 17 12.5V3.5C17 3.22386 16.7761 3 16.5 3H7.5ZM6 8.56645V12.5C6 13.3284 6.67157 14 7.5 14H16.5C17.3284 14 18 13.3284 18 12.5V3.5C18 2.67157 17.3284 2 16.5 2H7.5C6.67157 2 6 2.67157 6 3.5V7.55867L5.24298 7.65329C3.53141 7.86724 2.54561 9.70924 3.317 11.252L3.59101 11.8001C4.14362 12.9053 4.21744 14.1891 3.79516 15.3504L3.50595 16.1457C2.91305 17.7762 4.12052 19.5001 5.85543 19.5001H8C8.00003 20.8807 9.11931 22 10.5 22H13.5C13.7761 22 14 21.7761 14 21.5V21H16.5C16.7761 21 17 20.7761 17 20.5C17 20.2239 16.7761 20 16.5 20H14V18H16.5C16.7761 18 17 17.7761 17 17.5C17 17.2239 16.7761 17 16.5 17H14V16.5C14 16.2239 13.7761 16 13.5 16H10.5C9.11929 16 8 17.1193 8 18.5V18.5001H5.85543C4.81449 18.5001 4.09001 17.4657 4.44574 16.4874L4.73496 15.6921C5.25108 14.2728 5.16085 12.7037 4.48544 11.3528L4.21143 10.8048C3.74859 9.87914 4.34008 8.77394 5.36702 8.64557L6 8.56645ZM12 5.5C10.6193 5.5 9.5 6.61929 9.5 8C9.5 9.38071 10.6193 10.5 12 10.5C13.3807 10.5 14.5 9.38071 14.5 8C14.5 6.61929 13.3807 5.5 12 5.5ZM8.5 8C8.5 6.067 10.067 4.5 12 4.5C13.933 4.5 15.5 6.067 15.5 8C15.5 9.933 13.933 11.5 12 11.5C10.067 11.5 8.5 9.933 8.5 8ZM11 8.5C11.2761 8.5 11.5 8.27614 11.5 8C11.5 7.72386 11.2761 7.5 11 7.5C10.7239 7.5 10.5 7.72386 10.5 8C10.5 8.27614 10.7239 8.5 11 8.5ZM13 8.5C13.2761 8.5 13.5 8.27614 13.5 8C13.5 7.72386 13.2761 7.5 13 7.5C12.7239 7.5 12.5 7.72386 12.5 8C12.5 8.27614 12.7239 8.5 13 8.5ZM13 17H10.5C9.67157 17 9 17.6716 9 18.5V19.5C9 20.3284 9.67157 21 10.5 21H13V17Z" fill="#2B2B2C"/>
</svg>
