<svg width="30" height="30" viewBox="0 0 30 30" fill="none" xmlns="http://www.w3.org/2000/svg">
<path fill-rule="evenodd" clip-rule="evenodd" d="M11.5 2C11.2809 2 11.093 2.09394 10.9602 2.18117C10.819 2.27389 10.684 2.39626 10.5596 2.52851C10.3099 2.79402 10.0579 3.14733 9.83442 3.52815C9.39907 4.26985 9 5.23946 9 6V14H11.5H14V6C14 5.23946 13.6009 4.26985 13.1656 3.52815C12.9421 3.14733 12.6901 2.79402 12.4404 2.52851C12.316 2.39626 12.181 2.27389 12.0398 2.18117C11.907 2.09394 11.7191 2 11.5 2ZM9 18.5V15H11V18.5H9ZM9 19.5V27.5C9 27.7761 9.22386 28 9.5 28H13.5C13.7761 28 14 27.7761 14 27.5V19.5H11.5H9ZM14 18.5V15H12V18.5H14ZM4.50002 9C4.22387 9 4.00002 9.22386 4.00002 9.5V13.5C4.00002 13.7761 4.22387 14 4.50002 14H5V24H4.50002C4.22387 24 4.00002 24.2239 4.00002 24.5C4.00002 24.7761 4.22387 25 4.50002 25H5V26.5C5 26.7761 5.22386 27 5.5 27C5.77614 27 6 26.7761 6 26.5V25H6.50002C6.77616 25 7.00002 24.7761 7.00002 24.5C7.00002 24.2239 6.77616 24 6.50002 24H6V14H6.50002C6.77616 14 7.00002 13.7761 7.00002 13.5V9.5C7.00002 9.22386 6.77616 9 6.50002 9H4.50002ZM5.5 13H6.00002V10H5.00002V13H5.5ZM23.5 9C23.2239 9 23 9.22386 23 9.5L23 13.5C23 13.6326 23.0527 13.7598 23.1464 13.8536C23.2402 13.9473 23.3674 14 23.5 14H24V24H23.5C23.2238 24 23 24.2239 23 24.5C23 24.7761 23.2238 25 23.5 25H24V26.5C24 26.7761 24.2239 27 24.5 27C24.7762 27 25 26.7761 25 26.5V25H25.5C25.7761 25 26 24.7761 26 24.5C26 24.2239 25.7761 24 25.5 24H25V14H25.5C25.7761 14 26 13.7761 26 13.5L26 9.5C26 9.36739 25.9473 9.24022 25.8536 9.14645C25.7598 9.05268 25.6326 9 25.5 9H23.5ZM25 13H24.5H24L24 10H25L25 13ZM17.9602 2.18117C18.093 2.09394 18.2809 2 18.5 2C18.7191 2 18.907 2.09394 19.0398 2.18117C19.181 2.27389 19.316 2.39626 19.4404 2.52851C19.6901 2.79402 19.9421 3.14733 20.1656 3.52815C20.6009 4.26985 21 5.23946 21 6V14H18.5H16V6C16 5.23946 16.3991 4.26985 16.8344 3.52815C17.0579 3.14733 17.3099 2.79402 17.5596 2.52851C17.684 2.39626 17.819 2.27389 17.9602 2.18117ZM16 15V18.5H18V15H16ZM16 27.5V19.5H21V27.5C21 27.7761 20.7761 28 20.5 28H16.5C16.2239 28 16 27.7761 16 27.5ZM21 15V18.5H19V15H21Z" fill="#2B2B2C"/>
</svg>
