<svg width="18" height="18" viewBox="0 0 18 18" fill="none" xmlns="http://www.w3.org/2000/svg">
<path fill-rule="evenodd" clip-rule="evenodd" d="M6.30659 2.44236C6.12126 2.813 6 3.2332 6 3.5V9H7V3.5C7 3.2332 6.87874 2.813 6.69341 2.44236C6.62748 2.31049 6.56066 2.1997 6.5 2.11551C6.43934 2.1997 6.37252 2.31049 6.30659 2.44236ZM6 10V15H7V10H6ZM5 9.5V15.5C5 15.7761 5.22386 16 5.5 16H7.5C7.77614 16 8 15.7761 8 15.5V9.5V3.5C8 3.0168 7.80876 2.43699 7.58784 1.99514C7.47484 1.76915 7.34007 1.55067 7.19286 1.38022C7.11949 1.29526 7.03163 1.20888 6.92975 1.14033C6.83171 1.07437 6.68347 1 6.5 1C6.31653 1 6.16829 1.07437 6.07025 1.14033C5.96837 1.20888 5.88051 1.29526 5.80714 1.38022C5.65993 1.55067 5.52516 1.76915 5.41216 1.99514C5.19124 2.43699 5 3.0168 5 3.5V9.5ZM10.3066 2.44236C10.1213 2.813 10 3.2332 10 3.5V9H11V3.5C11 3.2332 10.8787 2.813 10.6934 2.44236C10.6275 2.31049 10.5607 2.1997 10.5 2.11551C10.4393 2.1997 10.3725 2.31049 10.3066 2.44236ZM10 10V15H11V10H10ZM9 9.5V15.5C9 15.7761 9.22386 16 9.5 16H11.5C11.7761 16 12 15.7761 12 15.5V9.5V3.5C12 3.0168 11.8088 2.43699 11.5878 1.99514C11.4748 1.76915 11.3401 1.55067 11.1929 1.38022C11.1195 1.29526 11.0316 1.20888 10.9297 1.14033C10.8317 1.07437 10.6835 1 10.5 1C10.3165 1 10.1683 1.07437 10.0703 1.14033C9.96837 1.20888 9.88051 1.29526 9.80714 1.38022C9.65993 1.55067 9.52516 1.76915 9.41216 1.99514C9.19124 2.43699 9 3.0168 9 3.5V9.5ZM14.5 6.5C14.7761 6.5 15 6.27614 15 6C15 5.72386 14.7761 5.5 14.5 5.5H14H13.5C13.2239 5.5 13 5.72386 13 6C13 6.27614 13.2239 6.5 13.5 6.5V14C13.2239 14 13 14.2239 13 14.5C13 14.7761 13.2239 15 13.5 15V15.5C13.5 15.7761 13.7239 16 14 16C14.2761 16 14.5 15.7761 14.5 15.5V15C14.7761 15 15 14.7761 15 14.5C15 14.2239 14.7761 14 14.5 14V6.5ZM4 6C4 6.27614 3.77614 6.5 3.5 6.5V14C3.77614 14 4 14.2239 4 14.5C4 14.7761 3.77614 15 3.5 15V15.5C3.5 15.7761 3.27614 16 3 16C2.72386 16 2.5 15.7761 2.5 15.5V15C2.22386 15 2 14.7761 2 14.5C2 14.2239 2.22386 14 2.5 14V6.5C2.22386 6.5 2 6.27614 2 6C2 5.72386 2.22386 5.5 2.5 5.5H3H3.5C3.77614 5.5 4 5.72386 4 6Z" fill="#2B2B2C"/>
</svg>
