<svg width="24" height="24" viewBox="0 0 24 24" fill="none" xmlns="http://www.w3.org/2000/svg">
<path fill-rule="evenodd" clip-rule="evenodd" d="M8.54392 2.13228C8.66001 2.06595 8.81777 2 9 2C9.18223 2 9.33999 2.06595 9.45608 2.13228C9.57676 2.20125 9.68911 2.29171 9.79014 2.38793C9.99244 2.5806 10.1897 2.83505 10.3615 3.11C10.6961 3.64532 11 4.36516 11 5V12H9H7V5C7 4.36516 7.30393 3.64532 7.6385 3.11C7.81034 2.83505 8.00756 2.5806 8.20986 2.38793C8.31089 2.29171 8.42324 2.20125 8.54392 2.13228ZM7 13V20.5C7 20.7761 7.22386 21 7.5 21H10.5C10.7761 21 11 20.7761 11 20.5V13H9H7ZM13.5439 2.13228C13.66 2.06595 13.8178 2 14 2C14.1822 2 14.34 2.06595 14.4561 2.13228C14.5768 2.20125 14.6891 2.29171 14.7901 2.38793C14.9924 2.5806 15.1897 2.83505 15.3615 3.11C15.6961 3.64532 16 4.36516 16 5V12H12V5C12 4.36516 12.3039 3.64532 12.6385 3.11C12.8103 2.83505 13.0076 2.5806 13.2099 2.38793C13.3109 2.29171 13.4232 2.20125 13.5439 2.13228ZM12 20.5V13H16V20.5C16 20.7761 15.7761 21 15.5 21H12.5C12.2239 21 12 20.7761 12 20.5ZM3 8.5C3 8.22386 3.22386 8 3.5 8H5.5C5.77614 8 6 8.22386 6 8.5V11.5C6 11.7761 5.77614 12 5.5 12H5V19H5.5C5.77614 19 6 19.2239 6 19.5C6 19.7761 5.77614 20 5.5 20H5V20.5C5 20.7761 4.77614 21 4.5 21C4.22386 21 4 20.7761 4 20.5V20H3.5C3.22386 20 3 19.7761 3 19.5C3 19.2239 3.22386 19 3.5 19H4V12H3.5C3.22386 12 3 11.7761 3 11.5V8.5ZM5 11H4.5H4V9H5V11ZM17 8.5C17 8.22386 17.2239 8 17.5 8H19.5C19.7761 8 20 8.22386 20 8.5V11.5C20 11.7761 19.7761 12 19.5 12H19V19H19.5C19.7761 19 20 19.2239 20 19.5C20 19.7761 19.7761 20 19.5 20H19V20.5C19 20.7761 18.7761 21 18.5 21C18.2239 21 18 20.7761 18 20.5V20H17.5C17.2239 20 17 19.7761 17 19.5C17 19.2239 17.2239 19 17.5 19H18V12H17.5C17.2239 12 17 11.7761 17 11.5V8.5ZM18.5 11H19V9H18V11H18.5Z" fill="#2B2B2C"/>
</svg>
