<svg width="18" height="18" viewBox="0 0 18 18" fill="none" xmlns="http://www.w3.org/2000/svg">
<path fill-rule="evenodd" clip-rule="evenodd" d="M11.0045 17.0859C11.3869 17.0848 11.769 16.9383 12.0608 16.6465L16.6465 12.0608C17.2323 11.475 17.2323 10.5252 16.6465 9.93943L8.06075 1.35365C7.76897 1.06187 7.38689 0.915422 7.00447 0.914314C6.61905 0.913134 6.23326 1.05958 5.93919 1.35365L1.3534 5.93943C0.767617 6.52522 0.767615 7.47497 1.3534 8.06075L9.93919 16.6465C10.2333 16.9406 10.619 17.0871 11.0045 17.0859ZM15.25 9.95707L13.6464 8.35352L8.35352 13.6464L9.95707 15.25L15.25 9.95707ZM4.77639 5.55279C5.02338 5.42929 5.32372 5.5294 5.44721 5.77639L5.80902 6.5H6.5V5.80902L5.77639 5.44721C5.5294 5.32372 5.42929 5.02338 5.55279 4.77639C5.67628 4.5294 5.97662 4.42929 6.22361 4.55279L6.5 4.69098V4C6.5 3.72386 6.72386 3.5 7 3.5C7.27614 3.5 7.5 3.72386 7.5 4V4.69098L7.77639 4.55279C8.02338 4.42929 8.32372 4.5294 8.44721 4.77639C8.57071 5.02338 8.4706 5.32372 8.22361 5.44721L7.5 5.80902V6.5H8.19098L8.55279 5.77639C8.67628 5.5294 8.97662 5.42929 9.22361 5.55279C9.4706 5.67628 9.57071 5.97662 9.44721 6.22361L9.30902 6.5L10 6.5C10.2761 6.5 10.5 6.72386 10.5 7C10.5 7.27614 10.2761 7.5 10 7.5H9.30902L9.44721 7.77639C9.57071 8.02338 9.4706 8.32372 9.22361 8.44721C8.97662 8.57071 8.67628 8.4706 8.55279 8.22361L8.19098 7.5H7.5V8.19098L8.22361 8.55279C8.4706 8.67628 8.57071 8.97662 8.44721 9.22361C8.32372 9.4706 8.02338 9.57071 7.77639 9.44721L7.5 9.30902V10C7.5 10.2761 7.27614 10.5 7 10.5C6.72386 10.5 6.5 10.2761 6.5 10V9.30902L6.22361 9.44721C5.97662 9.57071 5.67628 9.4706 5.55279 9.22361C5.42929 8.97662 5.5294 8.67628 5.77639 8.55279L6.5 8.19098V7.5H5.80902L5.44721 8.22361C5.32372 8.4706 5.02338 8.57071 4.77639 8.44721C4.5294 8.32372 4.42929 8.02338 4.55279 7.77639L4.69098 7.5H4C3.72386 7.5 3.5 7.27614 3.5 7C3.5 6.72386 3.72386 6.5 4 6.5H4.69098L4.55279 6.22361C4.42929 5.97662 4.5294 5.67628 4.77639 5.55279Z" fill="#2B2B2C"/>
</svg>
