<svg width="30" height="30" viewBox="0 0 30 30" fill="none" xmlns="http://www.w3.org/2000/svg">
<path fill-rule="evenodd" clip-rule="evenodd" d="M10.5 4C10.2239 4 10 4.22386 10 4.5C10 4.77614 10.2239 5 10.5 5H12.4129L10.1204 7.6746C9.9933 7.82286 9.96416 8.03153 10.0458 8.20893C10.1273 8.38633 10.3047 8.5 10.5 8.5H13.5C13.7761 8.5 14 8.27614 14 8C14 7.72386 13.7761 7.5 13.5 7.5H11.5871L13.8796 4.8254C14.0067 4.67714 14.0359 4.46847 13.9543 4.29107C13.8727 4.11367 13.6953 4 13.5 4H10.5ZM6 7.5C6 7.22386 6.22386 7 6.5 7H8.5C8.69221 7 8.8674 7.11017 8.95066 7.28341C9.03392 7.45664 9.01051 7.66226 8.89044 7.81235L7.54032 9.5H8.5C8.77615 9.5 9 9.72386 9 10C9 10.2761 8.77615 10.5 8.5 10.5H6.5C6.3078 10.5 6.13261 10.3898 6.04935 10.2166C5.96609 10.0434 5.9895 9.83774 6.10957 9.68765L7.45969 8H6.5C6.22386 8 6 7.77614 6 7.5ZM10 12C10 11.7239 10.2239 11.5 10.5 11.5H21.75C24.0972 11.5 26 13.4028 26 15.75V17.5H26.5C26.7761 17.5 27 17.7239 27 18V23C27 23.2761 26.7761 23.5 26.5 23.5H3.5C3.22386 23.5 3 23.2761 3 23V13C3 12.7239 3.22386 12.5 3.5 12.5C3.77614 12.5 4 12.7239 4 13V17.5H5.76389C5.28885 16.9692 5 16.2684 5 15.5C5 13.8431 6.34315 12.5 8 12.5C8.76835 12.5 9.46924 12.7889 10 13.2639V12ZM10 15.5C10 14.3954 9.10457 13.5 8 13.5C6.89543 13.5 6 14.3954 6 15.5C6 16.6046 6.89543 17.5 8 17.5C9.10457 17.5 10 16.6046 10 15.5ZM4 22.5V19.5H26V22.5H4Z" fill="#2B2B2C"/>
</svg>
