<svg width="18" height="18" viewBox="0 0 18 18" fill="none" xmlns="http://www.w3.org/2000/svg">
<path fill-rule="evenodd" clip-rule="evenodd" d="M3.38475 7.07433L1.91608 9.27733C1.7629 9.50709 1.45247 9.56918 1.2227 9.416C0.992938 9.26282 0.930852 8.95239 1.08403 8.72262L4.08403 4.22265C4.08839 4.2161 4.09291 4.20966 4.09757 4.20333C4.37109 3.83226 4.8786 3.42472 5.48567 3.16424C6.10016 2.90058 6.87334 2.76404 7.65817 3.02565C8.39271 3.27049 9.0731 3.56607 9.55691 3.77624L9.60666 3.79785C10.1656 4.04055 10.4331 4.61064 10.4547 5.11638C10.4677 5.41877 10.5493 5.77615 10.8104 6.15479C11.0743 6.53729 11.5408 6.96958 12.3681 7.3849C12.7879 7.5957 13.0015 8.12175 12.7681 8.57802C12.5875 8.93123 12.4133 9.25847 12.2479 9.55094C11.6676 10.5775 10.4737 10.8366 9.46793 10.4594L8.28446 10.0156C8.20462 10.1635 8.10102 10.3629 7.9947 10.5883C7.76597 11.0732 7.55265 11.6208 7.50005 12.03V12.5V14.5C7.50005 14.7761 7.2762 15 7.00005 15C6.72391 15 6.50005 14.7761 6.50005 14.5V13.0126C6.47336 13.0128 6.44581 13.0127 6.41745 13.0126L6.41692 13.0126L6.36568 13.0125C5.96514 13.0125 5.41293 12.9997 4.80765 12.9482C4.20394 12.8968 3.53735 12.8061 2.91135 12.6471C2.29182 12.4898 1.67566 12.2567 1.20005 11.9C1.07415 11.8056 1.00005 11.6574 1.00005 11.5V11C1.00005 10.8156 1.10155 10.6462 1.26412 10.5592C1.4267 10.4722 1.62398 10.4817 1.7774 10.584C2.42291 11.0143 3.44611 11.2549 4.49597 11.3784C5.2904 11.4719 6.05123 11.4935 6.58693 11.4985C6.7052 11.0296 6.9104 10.543 7.09027 10.1617C7.17895 9.97369 7.26555 9.80297 7.34005 9.66148L6.82449 9.46814C6.56593 9.37118 6.43493 9.08297 6.53189 8.82441C6.62885 8.56585 6.91706 8.43485 7.17562 8.53181L9.81905 9.52311C10.4656 9.76557 11.0893 9.56844 11.3774 9.0588C11.5177 8.81067 11.6667 8.53255 11.823 8.22939C10.937 7.76964 10.3545 7.25499 9.98726 6.72255C9.60421 6.16717 9.47539 5.62126 9.45565 5.15906C9.44575 4.92737 9.32648 4.76639 9.20836 4.7151L9.16664 4.69699C8.67951 4.4854 8.03389 4.20498 7.34194 3.97433C7.07288 3.88464 6.7961 3.86688 6.5247 3.90212L6.99561 7.43398C7.03127 7.70141 6.84833 7.9489 6.5822 7.99325C5.7724 8.12822 4.47948 8.01211 3.38475 7.07433ZM15 13.2929V9.70711L14.8536 9.85355C14.6583 10.0488 14.3417 10.0488 14.1464 9.85355C13.9512 9.65829 13.9512 9.34171 14.1464 9.14645L15.1464 8.14645C15.2402 8.05268 15.3674 8 15.5 8C15.6326 8 15.7598 8.05268 15.8536 8.14645L16.8536 9.14645C17.0488 9.34171 17.0488 9.65829 16.8536 9.85355C16.6583 10.0488 16.3417 10.0488 16.1464 9.85355L16 9.70711V13.2929L16.1464 13.1464C16.3417 12.9512 16.6583 12.9512 16.8536 13.1464C17.0488 13.3417 17.0488 13.6583 16.8536 13.8536L15.8536 14.8536C15.6583 15.0488 15.3417 15.0488 15.1464 14.8536L14.1464 13.8536C13.9512 13.6583 13.9512 13.3417 14.1464 13.1464C14.3417 12.9512 14.6583 12.9512 14.8536 13.1464L15 13.2929Z" fill="#2B2B2C"/>
</svg>
