<svg width="30" height="30" viewBox="0 0 30 30" fill="none" xmlns="http://www.w3.org/2000/svg">
<path fill-rule="evenodd" clip-rule="evenodd" d="M2.93105 14.7535L5.36036 10.6236C6.1466 11.5362 7.15231 12.1676 8.12816 12.5547C9.20492 12.9819 10.3023 13.1335 11.0885 12.9922C11.3516 12.9449 11.531 12.699 11.4956 12.434L10.5286 5.1808C11.0751 5.17324 11.6847 5.25957 12.3448 5.47524C13.6185 5.89135 14.7672 6.47382 15.6337 6.91317L15.7964 6.9956C16.1548 7.17695 16.4189 7.62341 16.4642 8.11965C16.614 9.75996 17.6444 11.9508 21.1755 13.6706C21.2165 13.6905 21.2433 13.7241 21.2547 13.7572C21.2651 13.7876 21.2615 13.8113 21.2496 13.8319C20.8271 14.5591 20.3439 15.2197 19.8751 15.7904C19.0539 16.79 17.603 17.0352 16.3608 16.4619L12.2096 14.546C11.9589 14.4303 11.6618 14.5397 11.5461 14.7904C11.4304 15.0412 11.5398 15.3382 11.7906 15.4539L12.9445 15.9865L12.9437 15.9882C12.5099 16.8261 11.8478 18.1053 11.5594 20.0213C9.59571 20.0712 5.90651 19.5355 2.80859 17.1065C2.65803 16.9884 2.45331 16.9667 2.28128 17.0504C2.10925 17.1341 2.00008 17.3086 2.00008 17.5V19.5C2.00008 19.6671 2.08363 19.8233 2.22273 19.916C4.0841 21.1569 6.09343 21.8864 7.84745 22.2638C9.25512 22.5666 10.5271 22.6487 11.4463 22.5714C11.4517 22.8978 11.46 23.2365 11.4685 23.5799L11.4716 23.7045C11.4861 24.2984 11.5001 24.9056 11.5001 25.5C11.5001 25.7761 11.7239 26 12.0001 26C12.2762 26 12.5001 25.7761 12.5001 25.5C12.5001 24.8918 12.4858 24.2733 12.4713 23.68L12.4683 23.5581C12.4547 23.0068 12.4418 22.4807 12.4402 21.9983C12.4384 21.4301 12.4525 20.9406 12.4968 20.5573C12.7238 18.5912 13.3776 17.3265 13.8345 16.4428L13.8535 16.4061L15.9418 17.3699C17.5275 18.1018 19.4919 17.8323 20.6478 16.4252C21.1418 15.8237 21.6585 15.1188 22.1142 14.3342C22.4585 13.7417 22.1662 13.0408 21.6134 12.7715C18.3493 11.1818 17.5735 9.27096 17.4601 8.02873C17.3928 7.29112 16.9949 6.48127 16.2478 6.1033L16.0779 6.01717L16.0779 6.01716C15.2164 5.58014 14.0051 4.96562 12.6554 4.52468C10.1598 3.7094 8.04228 4.44715 7.10048 5.69942C7.08914 5.71449 7.07867 5.73019 7.06911 5.74644L2.06911 14.2465C1.9291 14.4845 2.00855 14.7909 2.24657 14.9309C2.48459 15.0709 2.79104 14.9915 2.93105 14.7535ZM25 24.2929V15.7071L23.8536 16.8536C23.6583 17.0488 23.3417 17.0488 23.1464 16.8536C22.9512 16.6583 22.9512 16.3417 23.1464 16.1464L25.1464 14.1464C25.3417 13.9512 25.6583 13.9512 25.8536 14.1464L27.8536 16.1464C28.0488 16.3417 28.0488 16.6583 27.8536 16.8536C27.6583 17.0488 27.3417 17.0488 27.1464 16.8536L26 15.7071V24.2929L27.1464 23.1464C27.3417 22.9512 27.6583 22.9512 27.8536 23.1464C28.0488 23.3417 28.0488 23.6583 27.8536 23.8536L25.8536 25.8536C25.6583 26.0488 25.3417 26.0488 25.1464 25.8536L23.1464 23.8536C22.9512 23.6583 22.9512 23.3417 23.1464 23.1464C23.3417 22.9512 23.6583 22.9512 23.8536 23.1464L25 24.2929Z" fill="#2B2B2C"/>
</svg>
