<svg width="30" height="30" viewBox="0 0 30 30" fill="none" xmlns="http://www.w3.org/2000/svg">
<path fill-rule="evenodd" clip-rule="evenodd" d="M17.5552 4.00306C17.4139 3.98735 17.2725 4.03259 17.1665 4.12744C17.0606 4.22229 17 4.35778 17 4.5V11.5L8.70722 11.5L7.43363 10.2264C6.38002 9.1728 4.6445 9.26892 3.71368 10.4324L3.10958 11.1876C2.93708 11.4032 2.97204 11.7178 3.18767 11.8903C3.4033 12.0628 3.71795 12.0279 3.89045 11.8123L4.49455 11.0571C5.05304 10.359 6.09435 10.3013 6.72652 10.9335L14.4647 18.6717L11.1687 21.2353C10.5267 20.4796 9.56934 20 8.5 20C6.567 20 5 21.567 5 23.5C5 25.433 6.567 27 8.5 27C10.433 27 12 25.433 12 23.5C12 22.9971 11.8939 22.5189 11.7029 22.0867L15.1774 19.3843L18.5739 22.7809C18.5255 23.013 18.5 23.2535 18.5 23.5C18.5 25.433 20.067 27 22 27C23.933 27 25.5 25.433 25.5 23.5C25.5 21.567 23.933 20 22 20C20.7016 20 19.5684 20.707 18.9642 21.757L16.2072 19H22C24.4853 19 26.5 16.9853 26.5 14.5V12V11.5V9.5C26.5 9.43639 26.4879 9.37337 26.4642 9.31431L25.4642 6.81431C25.4267 6.72039 25.3615 6.64008 25.2773 6.58398L22.2773 4.58398C22.2108 4.53964 22.1347 4.51189 22.0552 4.50306L17.5552 4.00306ZM25.5 11.5V9.59629L24.5934 7.32989L21.8239 5.48351L18 5.05863V11.5L25.5 11.5ZM22 18H15.2072L9.70722 12.5H25.5V14.5C25.5 16.433 23.933 18 22 18ZM19.5 23.5C19.5 22.1193 20.6193 21 22 21C23.3807 21 24.5 22.1193 24.5 23.5C24.5 24.8807 23.3807 26 22 26C20.6193 26 19.5 24.8807 19.5 23.5ZM8.5 21C7.11929 21 6 22.1193 6 23.5C6 24.8807 7.11929 26 8.5 26C9.88071 26 11 24.8807 11 23.5C11 22.1193 9.88071 21 8.5 21Z" fill="#2B2B2C"/>
</svg>
