<svg width="18" height="18" viewBox="0 0 18 18" fill="none" xmlns="http://www.w3.org/2000/svg">
<path fill-rule="evenodd" clip-rule="evenodd" d="M5 3C4.72386 3 4.5 3.22386 4.5 3.5C4.5 3.77614 4.72386 4 5 4C5.27614 4 5.5 3.77614 5.5 3.5C5.5 3.22386 5.27614 3 5 3ZM3.5 3.5C3.5 2.67157 4.17157 2 5 2C5.82843 2 6.5 2.67157 6.5 3.5C6.5 4.32843 5.82843 5 5 5C4.17157 5 3.5 4.32843 3.5 3.5ZM4.04091 6.76314C4.03338 6.6201 4.14733 6.5 4.29056 6.5H5.70954C5.85277 6.5 5.96672 6.6201 5.95919 6.76314L5.7691 10.375H4.23101L4.04091 6.76314ZM4.28364 11.375L4.4468 14.4751C4.46229 14.7694 4.70539 15 5.00005 15C5.29471 15 5.53781 14.7694 5.5533 14.4751L5.71646 11.375H4.28364ZM6.73854 10.982L6.55192 14.5277C6.50848 15.353 5.82657 16 5.00005 16C4.17353 16 3.49162 15.353 3.44818 14.5277L3.17284 9.29615L2.46806 11.1756C2.3711 11.4341 2.08289 11.5651 1.82433 11.4682C1.56577 11.3712 1.43477 11.083 1.53173 10.8245L3.03173 6.82445C3.03482 6.81622 3.0381 6.80811 3.04157 6.80014C3.01293 6.09183 3.5796 5.5 4.29056 5.5H5.70954C6.42058 5.5 6.98729 6.09195 6.95853 6.80035C6.96196 6.80826 6.96521 6.81629 6.96827 6.82445L8.46827 10.8245C8.56523 11.083 8.43423 11.3712 8.17567 11.4682C7.91711 11.5651 7.6289 11.4341 7.53194 11.1756L6.82725 9.29639L6.74704 10.8203C6.749 10.8383 6.75 10.8565 6.75 10.875C6.75 10.9117 6.74604 10.9475 6.73854 10.982ZM11 6.80089C10.9698 6.05822 11.615 5.5 12.2905 5.5H13.7095C14.385 5.5 15.0302 6.05823 15 6.80089V6.90906L16.4683 10.8245C16.5652 11.083 16.4342 11.3712 16.1757 11.4682C15.9171 11.5651 15.6289 11.4341 15.5319 11.1756L15.2029 10.298L15.4969 12.9448C15.5126 13.0861 15.4674 13.2275 15.3726 13.3335C15.2777 13.4394 15.1422 13.5 15 13.5H14.6286L14.5516 14.5336C14.5051 15.3562 13.8245 16 13 16C12.1755 16 11.4949 15.3562 11.4485 14.5336L11.3714 13.5H11C10.8578 13.5 10.7223 13.4394 10.6274 13.3335C10.5326 13.2275 10.4874 13.0861 10.5031 12.9448L10.7972 10.298L10.4681 11.1756C10.3711 11.4341 10.0829 11.5651 9.82433 11.4682C9.56577 11.3712 9.43477 11.083 9.53173 10.8245L11 6.90904V6.80089ZM12 8L12 7.00468V6.9955L12 6.78942C12 6.78065 11.9998 6.77189 11.9993 6.76314C11.9965 6.71009 12.0176 6.64773 12.0755 6.59101C12.1348 6.53293 12.2147 6.5 12.2905 6.5H13.7095C13.7854 6.5 13.8652 6.53293 13.9245 6.591C13.9824 6.64773 14.0035 6.71009 14.0007 6.76314C14.0002 6.77189 14 6.78066 14 6.78942V6.99486V7.00531L14 8H12ZM12.3742 13.5L12.4469 14.4751C12.4624 14.7693 12.7054 15 13 15C13.2947 15 13.5378 14.7694 13.5533 14.4751L13.5538 14.4642L13.6258 13.5H12.3742ZM14.0522 8.99731C14.035 8.99909 14.0176 9 14 9H12C11.9824 9 11.965 8.99909 11.9478 8.99731L11.5586 12.5H14.4414L14.0522 8.99731ZM12.5 3.5C12.5 3.22386 12.7239 3 13 3C13.2761 3 13.5 3.22386 13.5 3.5C13.5 3.77614 13.2761 4 13 4C12.7239 4 12.5 3.77614 12.5 3.5ZM13 2C12.1716 2 11.5 2.67157 11.5 3.5C11.5 4.32843 12.1716 5 13 5C13.8284 5 14.5 4.32843 14.5 3.5C14.5 2.67157 13.8284 2 13 2Z" fill="#2B2B2C"/>
</svg>
