<svg width="18" height="18" viewBox="0 0 18 18" fill="none" xmlns="http://www.w3.org/2000/svg">
<path fill-rule="evenodd" clip-rule="evenodd" d="M5 2C4.17157 2 3.5 2.67157 3.5 3.5C3.5 4.32843 4.17157 5 5 5C5.82843 5 6.5 4.32843 6.5 3.5C6.5 2.67157 5.82843 2 5 2ZM4.04091 6.76314C4.03338 6.6201 4.14733 6.5 4.29056 6.5H5.70954C5.85277 6.5 5.96672 6.6201 5.95919 6.76314L5.7691 10.375H4.23101L4.04091 6.76314ZM6.73854 10.982L6.55192 14.5277C6.50848 15.353 5.82657 16 5.00005 16C4.17353 16 3.49162 15.353 3.44818 14.5277L3.17286 9.29643L2.46818 11.1756C2.37122 11.4341 2.08301 11.5651 1.82445 11.4682C1.56589 11.3712 1.43489 11.083 1.53185 10.8245L3.03185 6.82445C3.0349 6.8163 3.03815 6.80828 3.04158 6.80039C3.0128 6.09197 3.57951 5.5 4.29056 5.5H5.70954C6.42066 5.5 6.98742 6.0921 6.95852 6.80061C6.96191 6.80843 6.96512 6.81638 6.96815 6.82445L8.46815 10.8245C8.56511 11.083 8.43411 11.3712 8.17555 11.4682C7.91699 11.5651 7.62878 11.4341 7.53182 11.1756L6.82723 9.29667L6.74704 10.8203C6.749 10.8383 6.75 10.8565 6.75 10.875C6.75 10.9117 6.74604 10.9475 6.73854 10.982ZM11 6.80089C10.9698 6.05822 11.615 5.5 12.2905 5.5H13.7095C14.385 5.5 15.0302 6.05823 15 6.80089V6.90939L16.4682 10.8245C16.5651 11.083 16.4341 11.3712 16.1755 11.4682C15.917 11.5651 15.6288 11.4341 15.5318 11.1756L15.2029 10.2985L15.4969 12.9448C15.5126 13.0861 15.4674 13.2275 15.3726 13.3335C15.2777 13.4394 15.1422 13.5 15 13.5H14.6286L14.5516 14.5336C14.5051 15.3562 13.8245 16 13 16C12.1755 16 11.4949 15.3562 11.4485 14.5336L11.3714 13.5H11C10.8578 13.5 10.7223 13.4394 10.6274 13.3335C10.5326 13.2275 10.4874 13.0861 10.5031 12.9448L10.7971 10.2985L10.4682 11.1756C10.3712 11.4341 10.083 11.5651 9.82445 11.4682C9.56589 11.3712 9.43489 11.083 9.53185 10.8245L11 6.90936V6.80089ZM12 8L12 7.01197C12.0002 7.00403 12.0002 6.99611 12 6.9882V6.78942C12 6.78065 11.9998 6.77189 11.9993 6.76314C11.9965 6.71009 12.0176 6.64773 12.0755 6.59101C12.1348 6.53293 12.2147 6.5 12.2905 6.5H13.7095C13.7854 6.5 13.8652 6.53293 13.9245 6.591C13.9824 6.64773 14.0035 6.71009 14.0007 6.76314C14.0002 6.77189 14 6.78066 14 6.78942L14 6.98787C13.9998 6.996 13.9998 7.00414 14 7.01231L14 8H12ZM14.108 9.5H11.892L11.5586 12.5H14.4414L14.108 9.5ZM13 2C12.1716 2 11.5 2.67157 11.5 3.5C11.5 4.32843 12.1716 5 13 5C13.8284 5 14.5 4.32843 14.5 3.5C14.5 2.67157 13.8284 2 13 2Z" fill="#2B2B2C"/>
</svg>
