<svg width="24" height="24" viewBox="0 0 24 24" fill="none" xmlns="http://www.w3.org/2000/svg">
<path fill-rule="evenodd" clip-rule="evenodd" d="M18.5 5C18.5 6.10457 17.6046 7 16.5 7C15.3954 7 14.5 6.10457 14.5 5C14.5 3.89543 15.3954 3 16.5 3C17.6046 3 18.5 3.89543 18.5 5ZM13.7294 13.0822L12.9699 15.1709C12.8755 15.4304 12.5886 15.5643 12.3291 15.4699C12.0696 15.3755 11.9357 15.0886 12.0301 14.8291L13.9999 9.41225C14.0262 8.56629 14.7785 8 15.5426 8H17.4575C18.2325 8 18.9452 8.60305 18.9978 9.40589L20.9699 14.8291C21.0643 15.0887 20.9304 15.3755 20.6709 15.4699C20.4113 15.5643 20.1245 15.4304 20.0301 15.1709L19.2706 13.0824L19.9932 17.4178C20.0174 17.5627 19.9765 17.711 19.8815 17.8231C19.7865 17.9353 19.647 18 19.5 18H18.5L18.5 19.0013C18.5 19.0082 18.4999 19.0152 18.4996 19.0221C18.4547 20.1008 17.6324 21 16.5 21C15.3677 21 14.5454 20.1008 14.5005 19.0221C14.5002 19.0152 14.5 19.0082 14.5 19.0013L14.5 18H13.5C13.353 18 13.2135 17.9353 13.1185 17.8231C13.0235 17.711 12.9826 17.5627 13.0068 17.4178L13.7294 13.0822ZM18.2431 13H14.7569L14.0902 17H18.9098L18.2431 13ZM18.0002 9.48182C17.9866 9.23818 17.7543 9 17.4575 9H15.5426C15.2047 9 14.9938 9.24419 14.9994 9.47294C15.0001 9.48522 15.0003 9.49757 15 9.50996V11H18V9.54163L18.0001 9.53536L18.0004 9.52308C17.9997 9.50928 17.9997 9.49551 18.0002 9.48182ZM8.95701 9.52082L8.77037 14H6.22957L6.04294 9.52082C6.03111 9.23675 6.2582 9 6.54251 9H8.45744C8.74175 9 8.96884 9.23675 8.95701 9.52082ZM9.5 5C9.5 6.10457 8.60457 7 7.5 7C6.39543 7 5.5 6.10457 5.5 5C5.5 3.89543 6.39543 3 7.5 3C8.60457 3 9.5 3.89543 9.5 5ZM6.54251 8C5.79313 8 5.17626 8.54826 5.0616 9.25935C5.04308 9.29315 5.02821 9.32964 5.01762 9.36844L3.51762 14.8684C3.44496 15.1349 3.60203 15.4097 3.86844 15.4824C4.13486 15.555 4.40973 15.398 4.48239 15.1316L5.1707 12.6078L5.43796 19.0221C5.48402 20.1275 6.39359 21 7.49997 21C8.60636 21 9.51593 20.1275 9.56199 19.0221L9.82926 12.6076L10.5176 15.1316C10.5903 15.398 10.8651 15.555 11.1316 15.4824C11.398 15.4097 11.555 15.1349 11.4824 14.8684L9.98238 9.36844C9.97178 9.32958 9.95688 9.29305 9.93833 9.25921C9.82361 8.54819 9.20677 8 8.45744 8H6.54251Z" fill="#2B2B2C"/>
</svg>
