<svg width="30" height="30" viewBox="0 0 30 30" fill="none" xmlns="http://www.w3.org/2000/svg">
<path fill-rule="evenodd" clip-rule="evenodd" d="M4.5 3C4.5 2.72386 4.72386 2.5 5 2.5H25C25.2761 2.5 25.5 2.72386 25.5 3V27C25.5 27.2761 25.2761 27.5 25 27.5H5C4.72386 27.5 4.5 27.2761 4.5 27V3ZM5.5 3.5V26.5H24.5V3.5H5.5Z" fill="#2B2B2C"/>
<path fill-rule="evenodd" clip-rule="evenodd" d="M5 3V27H25V3H5ZM8 5C7.72386 5 7.5 5.22386 7.5 5.5V15.9974V16.0033V21.5C7.5 21.7761 7.72386 22 8 22H16.5C16.7761 22 17 21.7761 17 21.5V14.0075V14V13.9916L17 10.9538C17 10.9527 17 10.9517 17 10.9507V5.5C17 5.22386 16.7761 5 16.5 5H8ZM16 10.6862V6H8.5V11.9135L8.71492 11.7415C9.76204 10.9038 11.2309 10.8401 12.3466 11.5839C13.0451 12.0495 13.955 12.0495 14.6534 11.5839L16 10.6862ZM16 11.888L16 13.7324L14.6534 14.6301C13.955 15.0957 13.045 15.0957 12.3466 14.6301C11.2309 13.8863 9.76203 13.95 8.71491 14.7877L8.5 14.9596L8.50001 13.1941L9.33962 12.5224C10.0467 11.9567 11.0385 11.9137 11.7919 12.416C12.8263 13.1055 14.1738 13.1055 15.2081 12.416L16 11.888ZM8.5 21V16.2403L9.33962 15.5686C10.0467 15.003 11.0385 14.9599 11.7919 15.4622C12.8263 16.1518 14.1738 16.1518 15.2081 15.4622L15.2774 15.416L16 14.9343V21H8.5ZM18.5 5.5C18.5 5.22386 18.7239 5 19 5H22C22.2761 5 22.5 5.22386 22.5 5.5V8.5C22.5 8.77614 22.2761 9 22 9H19C18.7239 9 18.5 8.77614 18.5 8.5V5.5ZM19.5 6V8H21.5V6H19.5ZM19 10C18.7239 10 18.5 10.2239 18.5 10.5V13.5C18.5 13.7761 18.7239 14 19 14H22C22.2761 14 22.5 13.7761 22.5 13.5V10.5C22.5 10.2239 22.2761 10 22 10H19ZM21.5 13H19.5V11H21.5V13ZM18.5 15.5C18.5 15.2239 18.7239 15 19 15H22C22.2761 15 22.5 15.2239 22.5 15.5V18.5C22.5 18.7761 22.2761 19 22 19H19C18.7239 19 18.5 18.7761 18.5 18.5V15.5ZM19.5 16V18H21.5V16H19.5ZM8 23.5C7.72386 23.5 7.5 23.7239 7.5 24C7.5 24.2761 7.72386 24.5 8 24.5H22C22.2761 24.5 22.5 24.2761 22.5 24C22.5 23.7239 22.2761 23.5 22 23.5H8Z" fill="#2B2B2C"/>
</svg>
