<svg width="30" height="30" viewBox="0 0 30 30" fill="none" xmlns="http://www.w3.org/2000/svg">
<path fill-rule="evenodd" clip-rule="evenodd" d="M5 2.5C4.72386 2.5 4.5 2.72386 4.5 3V27C4.5 27.2761 4.72386 27.5 5 27.5H25C25.2761 27.5 25.5 27.2761 25.5 27V3C25.5 2.72386 25.2761 2.5 25 2.5H5ZM5.5 26.5V3.5H24.5V26.5H5.5ZM8 5C7.72386 5 7.5 5.22386 7.5 5.5V12.9965V13.0043V15.9965C7.49998 15.9991 7.49998 16.0017 7.5 16.0043V21.5C7.5 21.7761 7.72386 22 8 22H16.5C16.7761 22 17 21.7761 17 21.5V14.0071C17.0001 14.0021 17.0001 13.9971 17 13.9921V11.0071V10.9921V5.5C17 5.22386 16.7761 5 16.5 5H8ZM16 13.7325V11.9343L15.2081 12.4623C14.1738 13.1518 12.8263 13.1518 11.7919 12.4623C11.0385 11.96 10.0467 12.003 9.33961 12.5687L8.5 13.2404V14.9597L8.71492 14.7878C9.76203 13.9501 11.2309 13.8864 12.3466 14.6302C13.0451 15.0958 13.955 15.0958 14.6534 14.6302L16 13.7325ZM8.5 16.2404V21H16V14.9343L15.2081 15.4623C14.1738 16.1518 12.8263 16.1518 11.7919 15.4623C11.0385 14.96 10.0467 15.003 9.33961 15.5687L8.5 16.2404ZM14.6534 11.6302L16 10.7325V6H8.5V11.9597L8.71492 11.7878C9.76203 10.9501 11.2309 10.8864 12.3466 11.6302C13.0451 12.0958 13.955 12.0958 14.6534 11.6302ZM18.5 5.5C18.5 5.22386 18.7239 5 19 5H22C22.2761 5 22.5 5.22386 22.5 5.5V8.5C22.5 8.77614 22.2761 9 22 9H19C18.7239 9 18.5 8.77614 18.5 8.5V5.5ZM19.5 6V8H21.5V6H19.5ZM19 10C18.7239 10 18.5 10.2239 18.5 10.5V13.5C18.5 13.7761 18.7239 14 19 14H22C22.2761 14 22.5 13.7761 22.5 13.5V10.5C22.5 10.2239 22.2761 10 22 10H19ZM19.5 13V11H21.5V13H19.5ZM18.5 15.5C18.5 15.2239 18.7239 15 19 15H22C22.2761 15 22.5 15.2239 22.5 15.5V18.5C22.5 18.7761 22.2761 19 22 19H19C18.7239 19 18.5 18.7761 18.5 18.5V15.5ZM19.5 16V18H21.5V16H19.5ZM8 23.5C7.72386 23.5 7.5 23.7239 7.5 24C7.5 24.2761 7.72386 24.5 8 24.5H22C22.2761 24.5 22.5 24.2761 22.5 24C22.5 23.7239 22.2761 23.5 22 23.5H8Z" fill="#2B2B2C"/>
</svg>
