<svg width="30" height="30" viewBox="0 0 30 30" fill="none" xmlns="http://www.w3.org/2000/svg">
<path fill-rule="evenodd" clip-rule="evenodd" d="M26.2525 5.23608H24.1325H23.735C22.9225 5.23608 22.48 5.64358 22.1988 6.61858L21.2388 9.84233L21.4062 10.4051C21.5485 10.8833 21.6649 11.2745 21.7288 11.4861C21.9213 12.1348 22.2963 12.7961 22.8163 12.9673C23.655 12.9098 23.95 12.2686 24.2088 11.4073C24.4625 10.5586 25.9525 5.58358 25.9525 5.58358C25.995 5.44358 26.1163 5.29733 26.2563 5.25608V5.25483C26.2613 5.25358 26.2575 5.23608 26.2525 5.23608ZM9.05588 14.2064L9.05418 14.2122C8.69866 15.4125 8.43873 16.2901 8.43263 16.3121C8.30013 16.7608 8.14763 17.2321 7.83138 17.4896C7.72263 17.5846 7.58638 17.6383 7.44513 17.6633C7.02138 17.5708 6.57638 17.2358 6.31013 16.2921L3.36388 6.24458C3.19013 5.64083 2.93138 5.33833 2.49013 5.26333C2.48513 5.26208 2.48138 5.25833 2.48138 5.25333C2.48138 5.24833 2.48638 5.24458 2.49138 5.24458L5.35513 5.23833C6.16763 5.23833 6.61013 5.64458 6.89263 6.61958C6.89263 6.61958 8.45888 11.9946 9.08013 14.1246L9.05588 14.2064ZM13.9953 5.25371C14.0578 5.25621 14.1028 5.25746 14.104 5.25746L14.1163 5.25905C14.2352 5.27337 14.9794 5.36298 15.4515 6.54871C15.374 6.75496 15.3053 6.96246 15.2465 7.15621C15.2253 7.22496 12.874 15.2325 12.6178 16.11C12.264 17.3087 11.8515 17.66 11.0253 17.6937C11.0028 17.695 10.8865 17.6962 10.8865 17.6962H10.724C10.7234 17.6962 10.7231 17.6956 10.7228 17.695C10.7224 17.6943 10.7221 17.6937 10.7215 17.6937L9.7915 17.695C9.78852 17.695 9.78582 17.6955 9.783 17.6961C9.77991 17.6968 9.77667 17.6975 9.77275 17.6975H9.35525H9.354C9.35361 17.6975 9.35334 17.6973 9.35315 17.6972L9.35301 17.697L9.3528 17.6966L9.35275 17.6962L8.4065 17.6975H8.11775H8.1165C8.1115 17.6975 8.10775 17.6925 8.10775 17.6875C8.10775 17.6825 8.1115 17.6787 8.11525 17.6787C8.27025 17.6575 8.41525 17.5925 8.53275 17.49C8.85025 17.2325 9.0015 16.7612 9.13525 16.3125C9.15525 16.245 11.679 7.70996 11.8253 7.15621C12.194 5.76996 13.109 5.32746 13.9953 5.25371ZM20.9358 11.1436L20.9356 11.1428L20.9353 11.1417C20.9066 11.0446 20.8713 10.9251 20.8306 10.7883L20.7268 10.4397L20.7265 10.4385L20.7262 10.4375C20.4128 9.38527 19.9675 7.88978 19.6644 6.89083C19.2606 5.56333 18.0794 5.28458 17.4094 5.24583L17.4019 5.24333H17.3444C17.3299 5.24282 17.3147 5.24187 17.2998 5.24094C17.2788 5.23962 17.2582 5.23833 17.2406 5.23833C17.2392 5.23833 17.2382 5.23954 17.2371 5.24082C17.2363 5.24179 17.2355 5.24279 17.2344 5.24333L16.3844 5.24208L16.3798 5.24072C16.3763 5.23956 16.3725 5.23833 16.3681 5.23833H16.0356C16.035 5.23833 16.0347 5.23896 16.0344 5.23958C16.0341 5.24021 16.0338 5.24083 16.0331 5.24083L15.1519 5.23833H14.7919C14.7856 5.23833 14.7819 5.24208 14.7806 5.24708C14.7806 5.25208 14.7844 5.25708 14.7894 5.25708C14.7926 5.25761 14.7976 5.25818 14.8045 5.25894L14.8045 5.25894C14.9439 5.2744 15.8141 5.37091 16.2631 6.89083L16.3412 7.15506L16.3414 7.15561L16.3416 7.15633C16.7952 8.6916 17.3086 10.429 17.4881 11.0646C17.8994 12.5196 18.4331 12.9958 19.2869 12.9958L19.6956 12.9921C19.6956 12.9921 21.9031 12.9958 22.0194 12.9958H22.1269C22.1294 12.9958 22.1319 12.9921 22.1331 12.9896C22.0006 12.9533 21.8756 12.9021 21.7619 12.8271C21.417 12.6053 21.261 12.1411 21.0345 11.4671L21.0169 11.4146C21.0107 11.3969 20.9819 11.2993 20.9358 11.1436ZM26.9055 5.24421C27.253 5.29671 27.6418 5.64421 27.4805 6.19921C27.3193 6.75421 24.4405 16.5555 24.4405 16.5555C24.1955 17.3755 24.4568 17.6055 24.6643 17.6655C24.6693 17.6655 24.673 17.6692 24.673 17.6742C24.6718 17.6792 24.668 17.6842 24.663 17.6842H24.438H24.2493H24.1218H23.8993H23.7093H22.998H22.473H21.7705H21.4405H21.233C20.9793 17.6842 20.313 17.538 20.7355 16.1217C20.8319 15.7968 21.0336 15.1297 21.2469 14.4243L21.2476 14.422L21.248 14.4204L21.2486 14.4184L21.2487 14.4181L21.2503 14.413L21.2567 14.3917C21.3529 14.0734 21.4512 13.7484 21.543 13.4442C21.543 13.4442 23.0968 13.4392 23.753 13.2942C24.4093 13.1505 24.6418 12.1317 24.6418 12.1317L24.6605 12.0667C24.6626 12.0619 24.6655 12.0571 24.6683 12.0522C24.6721 12.0458 24.6759 12.0394 24.678 12.033L24.6782 12.0316C24.6783 12.031 24.6787 12.0305 24.6793 12.0305L26.5893 5.52546C26.6305 5.38171 26.5543 5.29796 26.4843 5.26171C26.4818 5.26046 26.4718 5.25546 26.4743 5.24796C26.4766 5.24082 26.8625 5.24387 26.9022 5.24418L26.9055 5.24421ZM7.99375 21.6881C8.4825 21.6881 8.80125 21.9393 8.80125 22.4143C8.80125 22.8831 8.4825 23.1343 7.99375 23.1343H6.855V21.6881H7.99375ZM8.1325 23.7906C9.01375 23.7906 9.59 23.2581 9.59 22.4143C9.59 21.5693 9.01375 21.0318 8.1325 21.0318H5.94875V21.0381C6.04875 21.1068 6.055 21.2193 6.055 21.4631V25.1168C6.055 25.3543 6.08 25.4731 6.27375 25.4731H6.96125V25.4668C6.86125 25.3981 6.855 25.2856 6.855 25.0418V23.7906H8.1325ZM12.9139 24.7477V25.3102C12.9139 25.4602 12.7639 25.474 12.5451 25.474H10.3739C10.1789 25.474 10.1239 25.354 10.1239 25.1165V21.464C10.1239 21.219 10.1114 21.1065 10.0114 21.0377V21.0315H10.7001C10.8939 21.0315 10.9239 21.1502 10.9239 21.3877V24.7977H12.5201C12.7264 24.7977 12.8639 24.7915 12.9076 24.7477H12.9139ZM16.7334 23.9971V21.3883C16.7334 21.1508 16.7071 21.0321 16.5146 21.0321H15.8259V21.0383C15.9259 21.1058 15.9321 21.2196 15.9321 21.4633V23.9658C15.9321 24.5408 15.6196 24.8783 14.9821 24.8783C14.3309 24.8783 14.0246 24.5408 14.0246 23.9658V21.3883C14.0246 21.1508 13.9984 21.0321 13.8046 21.0321H13.1171V21.0383C13.2171 21.1058 13.2234 21.2196 13.2234 21.4633V23.9971C13.2234 25.0921 13.8871 25.5733 14.9821 25.5733C16.0709 25.5733 16.7334 25.0921 16.7334 23.9971ZM17.4549 25.0231C17.3286 24.9293 17.1611 24.7606 17.2549 24.6481L17.6549 24.1856C17.6861 24.2781 17.7861 24.3781 17.8799 24.4481C18.1936 24.6793 18.5561 24.8918 19.1186 24.8918C19.6511 24.8918 20.0511 24.6418 20.0511 24.2093C20.0511 23.8051 19.6663 23.7121 19.0639 23.5664L19.0634 23.5663C19.0046 23.5521 18.9438 23.5374 18.8811 23.5218C17.7111 23.2343 17.3549 22.9268 17.3549 22.2518C17.3549 21.5068 18.0499 20.9318 19.0124 20.9318C19.5949 20.9318 20.0824 21.0818 20.4636 21.3693C20.5886 21.4631 20.7586 21.6331 20.6636 21.7393L20.2699 22.1956C20.2511 22.1068 20.1449 21.9893 20.0011 21.8956C19.7011 21.7006 19.4186 21.6131 18.9999 21.6131C18.4736 21.6131 18.1236 21.8756 18.1236 22.2143C18.1236 22.5856 18.4675 22.6665 19.1968 22.8379L19.2561 22.8518C20.3386 23.1081 20.8261 23.4031 20.8261 24.1531C20.8261 24.9918 20.1574 25.5793 19.1061 25.5793C18.3361 25.5793 17.8361 25.3231 17.4549 25.0231ZM21.1294 24.6481C21.0356 24.7606 21.2044 24.9293 21.3294 25.0231C21.7119 25.3231 22.2119 25.5793 22.9806 25.5793C24.0319 25.5793 24.7019 24.9918 24.7019 24.1531C24.7019 23.4031 24.2144 23.1081 23.1306 22.8518C23.1103 22.847 23.0903 22.8423 23.0706 22.8377C22.343 22.6664 21.9994 22.5855 21.9994 22.2143C21.9994 21.8756 22.3494 21.6131 22.8744 21.6131C23.2944 21.6131 23.5756 21.7006 23.8756 21.8956C24.0194 21.9893 24.1256 22.1068 24.1456 22.1956L24.5381 21.7393C24.6331 21.6331 24.4644 21.4631 24.3381 21.3693C23.9581 21.0818 23.4694 20.9318 22.8869 20.9318C21.9244 20.9318 21.2294 21.5068 21.2294 22.2518C21.2294 22.9268 21.5856 23.2343 22.7569 23.5218C22.8194 23.5373 22.88 23.552 22.9386 23.5662C23.5414 23.7119 23.9256 23.8049 23.9256 24.2093C23.9256 24.6418 23.5256 24.8918 22.9944 24.8918C22.4306 24.8918 22.0681 24.6793 21.7556 24.4481C21.6619 24.3781 21.5619 24.2781 21.5294 24.1856L21.1294 24.6481Z" fill="#2B2B2C"/>
</svg>
