<svg width="18" height="18" viewBox="0 0 18 18" fill="none" xmlns="http://www.w3.org/2000/svg">
<path fill-rule="evenodd" clip-rule="evenodd" d="M15.7514 3.14172H14.4794H14.2409C13.7534 3.14172 13.4879 3.38622 13.3192 3.97122L12.7432 5.90547L12.8439 6.24384C12.9292 6.53042 12.9989 6.76488 13.0372 6.89172C13.1527 7.28097 13.3777 7.67772 13.6897 7.78047C14.1929 7.74597 14.3699 7.36122 14.5252 6.84447C14.6774 6.33522 15.5714 3.35022 15.5714 3.35022C15.5969 3.26622 15.6697 3.17847 15.7537 3.15372V3.15297C15.7567 3.15222 15.7544 3.14172 15.7514 3.14172ZM5.43336 8.52433C5.21958 9.24609 5.06319 9.77412 5.05952 9.78732C4.98002 10.0566 4.88852 10.3393 4.69877 10.4938C4.63352 10.5508 4.55177 10.5831 4.46702 10.5981C4.21277 10.5426 3.94577 10.3416 3.78602 9.77532L2.01827 3.74682C1.91402 3.38457 1.75877 3.20307 1.49402 3.15807C1.49102 3.15732 1.48877 3.15507 1.48877 3.15207C1.48877 3.14907 1.49177 3.14682 1.49477 3.14682L3.21302 3.14307C3.70052 3.14307 3.96602 3.38682 4.13552 3.97182C4.13552 3.97182 5.07527 7.19682 5.44802 8.47482L5.43336 8.52433ZM8.39709 3.1523C8.43459 3.1538 8.46159 3.15455 8.46234 3.15455L8.46973 3.1555C8.54106 3.16409 8.98756 3.21786 9.27084 3.9293C9.22434 4.05305 9.18309 4.17755 9.14784 4.2938C9.13509 4.33505 7.72434 9.13955 7.57059 9.66605C7.35834 10.3853 7.11084 10.596 6.61509 10.6163C6.60159 10.617 6.53184 10.6178 6.53184 10.6178H6.43434L6.43409 10.6177L6.43383 10.6175L6.43359 10.617C6.43341 10.6167 6.43322 10.6163 6.43284 10.6163L5.87484 10.617C5.87305 10.617 5.87144 10.6174 5.86974 10.6177C5.86789 10.6181 5.86595 10.6185 5.86359 10.6185H5.61309H5.61234C5.612 10.6185 5.61181 10.6184 5.61171 10.6182L5.61159 10.6178L5.04384 10.6185H4.87059H4.86984C4.86684 10.6185 4.86459 10.6155 4.86459 10.6125C4.86459 10.6095 4.86684 10.6073 4.86909 10.6073C4.96209 10.5945 5.04909 10.5555 5.11959 10.494C5.31009 10.3395 5.40084 10.0568 5.48109 9.78755C5.49309 9.74705 7.00734 4.62605 7.09509 4.2938C7.31634 3.46205 7.86534 3.19655 8.39709 3.1523ZM12.6101 6.84882C12.6064 6.8382 12.589 6.77951 12.5614 6.68589L12.4983 6.47307L12.4359 6.26362L12.4358 6.26322L12.4354 6.26169C12.2474 5.63039 11.9804 4.73366 11.7986 4.13457C11.5563 3.33807 10.8476 3.17082 10.4456 3.14757L10.4411 3.14607H10.4066C10.3979 3.14576 10.3888 3.1452 10.3798 3.14464L10.3798 3.14464C10.3672 3.14385 10.3549 3.14307 10.3443 3.14307C10.3435 3.14307 10.3429 3.1438 10.3422 3.14456V3.14456C10.3417 3.14515 10.3412 3.14575 10.3406 3.14607L9.83057 3.14532L9.82784 3.14451C9.8257 3.14381 9.82344 3.14307 9.82082 3.14307H9.62132C9.62094 3.14307 9.62076 3.14345 9.62057 3.14382C9.62038 3.1442 9.62019 3.14457 9.61982 3.14457L9.09107 3.14307H8.87507C8.87132 3.14307 8.86907 3.14532 8.86832 3.14832C8.86832 3.15132 8.87057 3.15432 8.87357 3.15432L8.88266 3.15544C8.96626 3.16471 9.48838 3.22262 9.75782 4.13457L9.80478 4.2935L9.80499 4.29423C10.0771 5.2153 10.3851 6.25754 10.4928 6.63882C10.7396 7.51182 11.0598 7.79757 11.5721 7.79757L11.8173 7.79532C11.8173 7.79532 13.1418 7.79757 13.2116 7.79757H13.2761C13.2776 7.79757 13.2791 7.79532 13.2798 7.79382C13.2003 7.77207 13.1253 7.74132 13.0571 7.69632C12.8501 7.56325 12.7566 7.28476 12.6207 6.88031L12.6101 6.84882ZM16.1432 3.1466C16.3517 3.1781 16.585 3.3866 16.4882 3.7196C16.3915 4.0526 14.6642 9.93335 14.6642 9.93335C14.5172 10.4253 14.674 10.5633 14.7985 10.5993C14.8015 10.5993 14.8037 10.6016 14.8037 10.6046C14.803 10.6076 14.8007 10.6106 14.7977 10.6106H14.6627H14.5495H14.473H14.3395H14.2255H13.7987H13.4837H13.0622H12.8642H12.7397C12.5875 10.6106 12.1877 10.5228 12.4412 9.6731C12.4993 9.47751 12.6209 9.0753 12.7493 8.65048L12.9257 8.0666C12.9257 8.0666 13.858 8.0636 14.2517 7.9766C14.6455 7.89035 14.785 7.2791 14.785 7.2791L14.7962 7.2401C14.7975 7.23721 14.7992 7.23431 14.8009 7.23142C14.8032 7.22756 14.8055 7.22371 14.8067 7.21985L14.8069 7.21888L14.8071 7.21858L14.8075 7.21835L15.9535 3.31535C15.9782 3.2291 15.9325 3.17885 15.8905 3.1571C15.889 3.15635 15.883 3.15335 15.8845 3.14885C15.8859 3.14457 16.1174 3.1464 16.1413 3.14658L16.1432 3.1466ZM4.79619 13.0129C5.08944 13.0129 5.28069 13.1637 5.28069 13.4487C5.28069 13.7299 5.08944 13.8807 4.79619 13.8807H4.11294V13.0129H4.79619ZM4.87944 14.2744C5.40819 14.2744 5.75394 13.9549 5.75394 13.4487C5.75394 12.9417 5.40819 12.6192 4.87944 12.6192H3.56919V12.6229C3.62919 12.6642 3.63294 12.7317 3.63294 12.8779V15.0702C3.63294 15.2127 3.64794 15.2839 3.76419 15.2839H4.17669V15.2802C4.11669 15.2389 4.11294 15.1714 4.11294 15.0252V14.2744H4.87944ZM7.74827 14.8487V15.1862C7.74827 15.2762 7.65827 15.2844 7.52702 15.2844H6.22427C6.10727 15.2844 6.07427 15.2124 6.07427 15.0699V12.8784C6.07427 12.7314 6.06677 12.6639 6.00677 12.6227V12.6189H6.42002C6.53627 12.6189 6.55427 12.6902 6.55427 12.8327V14.8787H7.51202C7.63577 14.8787 7.71827 14.8749 7.74452 14.8487H7.74827ZM10.04 14.3983V12.8331C10.04 12.6906 10.0242 12.6193 9.90872 12.6193H9.49547V12.6231C9.55547 12.6636 9.55922 12.7318 9.55922 12.8781V14.3796C9.55922 14.7246 9.37172 14.9271 8.98922 14.9271C8.59847 14.9271 8.41472 14.7246 8.41472 14.3796V12.8331C8.41472 12.6906 8.39897 12.6193 8.28272 12.6193H7.87022V12.6231C7.93022 12.6636 7.93397 12.7318 7.93397 12.8781V14.3983C7.93397 15.0553 8.33222 15.3441 8.98922 15.3441C9.64247 15.3441 10.04 15.0553 10.04 14.3983ZM10.4729 15.0139C10.3971 14.9577 10.2966 14.8564 10.3529 14.7889L10.5929 14.5114C10.6116 14.5669 10.6716 14.6269 10.7279 14.6689C10.9161 14.8077 11.1336 14.9352 11.4711 14.9352C11.7906 14.9352 12.0306 14.7852 12.0306 14.5257C12.0306 14.2831 11.7997 14.2273 11.4383 14.1399L11.4382 14.1399C11.4029 14.1313 11.3663 14.1225 11.3286 14.1132C10.6266 13.9407 10.4129 13.7562 10.4129 13.3512C10.4129 12.9042 10.8299 12.5592 11.4074 12.5592C11.7569 12.5592 12.0494 12.6492 12.2781 12.8217C12.3531 12.8779 12.4551 12.9799 12.3981 13.0437L12.1619 13.3174C12.1506 13.2642 12.0869 13.1937 12.0006 13.1374C11.8206 13.0204 11.6511 12.9679 11.3999 12.9679C11.0841 12.9679 10.8741 13.1254 10.8741 13.3287C10.8741 13.5515 11.0804 13.6 11.518 13.7028L11.5536 13.7112C12.2031 13.8649 12.4956 14.0419 12.4956 14.4919C12.4956 14.9952 12.0944 15.3477 11.4636 15.3477C11.0016 15.3477 10.7016 15.1939 10.4729 15.0139ZM12.6776 14.7889C12.6213 14.8564 12.7226 14.9577 12.7976 15.0139C13.0271 15.1939 13.3271 15.3477 13.7883 15.3477C14.4191 15.3477 14.8211 14.9952 14.8211 14.4919C14.8211 14.0419 14.5286 13.8649 13.8783 13.7112C13.8661 13.7083 13.8541 13.7055 13.8423 13.7027C13.4057 13.5999 13.1996 13.5514 13.1996 13.3287C13.1996 13.1254 13.4096 12.9679 13.7246 12.9679C13.9766 12.9679 14.1453 13.0204 14.3253 13.1374C14.4116 13.1937 14.4753 13.2642 14.4873 13.3174L14.7228 13.0437C14.7798 12.9799 14.6786 12.8779 14.6028 12.8217C14.3748 12.6492 14.0816 12.5592 13.7321 12.5592C13.1546 12.5592 12.7376 12.9042 12.7376 13.3512C12.7376 13.7562 12.9513 13.9407 13.6541 14.1132C13.6916 14.1225 13.728 14.1313 13.7631 14.1398C14.1248 14.2272 14.3553 14.283 14.3553 14.5257C14.3553 14.7852 14.1153 14.9352 13.7966 14.9352C13.4583 14.9352 13.2408 14.8077 13.0533 14.6689C12.9971 14.6269 12.9371 14.5669 12.9176 14.5114L12.6776 14.7889Z" fill="#2B2B2C"/>
</svg>
