<svg width="18" height="18" viewBox="0 0 18 18" fill="none" xmlns="http://www.w3.org/2000/svg">
<path fill-rule="evenodd" clip-rule="evenodd" d="M4 2.5C4 2.22386 4.22386 2 4.5 2H6.5C6.77614 2 7 2.22386 7 2.5V4.17071C8.16519 4.58254 9 5.69378 9 7V8.94146C9 9.40437 8.86298 9.85692 8.6062 10.2421L8.59119 10.2646C8.2962 10.7071 8.29931 11.2843 8.59905 11.7236C8.86027 12.1064 9 12.5591 9 13.0225V14.5C9 15.3284 8.32843 16 7.5 16H3.5C2.67157 16 2 15.3284 2 14.5V13.063C2 12.5972 2.13789 12.1418 2.39629 11.7542C2.70075 11.2975 2.70075 10.7025 2.39629 10.2458C2.13789 9.85822 2 9.4028 2 8.93696V7C2 5.69378 2.83481 4.58254 4 4.17071V2.5ZM5 5H6C6.74028 5 7.38663 5.4022 7.73244 6H3.26756C3.61337 5.4022 4.25972 5 5 5ZM3 7V8.93696C3 8.95801 3.00049 8.97903 3.00146 9H7.99873C7.99957 8.98053 8 8.96101 8 8.94146V7H3ZM3.22834 12.3089C3.69041 11.6158 3.74841 10.7392 3.40235 10H7.59464C7.24687 10.7322 7.30692 11.6041 7.77303 12.2872C7.9209 12.5039 8 12.7602 8 13.0225V14.5C8 14.7761 7.77614 15 7.5 15H3.5C3.22386 15 3 14.7761 3 14.5V13.063C3 12.7946 3.07945 12.5322 3.22834 12.3089ZM6 3V4H5V3H6ZM10.5 8C10.3612 8 10.2287 8.05769 10.1341 8.15927C10.0395 8.26085 9.99138 8.39718 10.0013 8.53562L10.5013 15.5356C10.52 15.7973 10.7377 16 11 16H15C15.2623 16 15.48 15.7973 15.4987 15.5356L15.9987 8.53562C16.0086 8.39718 15.9605 8.26085 15.8659 8.15927C15.7713 8.05769 15.6388 8 15.5 8H10.5ZM11.1523 10.6148L11.037 9H14.963L14.8421 10.6922L14.624 10.7649C14.2769 10.8806 13.8958 10.8296 13.5913 10.6266C12.9387 10.1915 12.1029 10.1395 11.4014 10.4903L11.1523 10.6148ZM11.2294 11.6943L11.4656 15H14.5344L14.7656 11.7639C14.1747 11.9076 13.5472 11.7991 13.0366 11.4587C12.6826 11.2226 12.2292 11.1944 11.8486 11.3847L11.2294 11.6943Z" fill="#2B2B2C"/>
</svg>
