<svg width="24" height="24" viewBox="0 0 24 24" fill="none" xmlns="http://www.w3.org/2000/svg">
<path fill-rule="evenodd" clip-rule="evenodd" d="M6 3.5C6 3.22386 6.22386 3 6.5 3H9C9.27614 3 9.5 3.22386 9.5 3.5V5.64494C10.9457 6.07521 12 7.41449 12 9V11.3235C12 12.1954 11.7172 13.0437 11.1941 13.7412C10.8569 14.1908 10.8569 14.8092 11.1941 15.2588C11.7172 15.9563 12 16.8046 12 17.6765V19.5C12 20.3284 11.3284 21 10.5 21H5C4.17157 21 3.5 20.3284 3.5 19.5V17.6765C3.5 16.8046 3.78278 15.9563 4.30588 15.2588C4.64314 14.8092 4.64314 14.1908 4.30588 13.7412C3.78278 13.0437 3.5 12.1954 3.5 11.3235V9C3.5 7.41449 4.55426 6.07521 6 5.64494V3.5ZM7 6.5H8.5C9.52516 6.5 10.4062 7.11705 10.792 8H4.70802C5.0938 7.11705 5.97484 6.5 7 6.5ZM4.5 9V11.3235C4.5 11.5525 4.52595 11.7794 4.57649 12H10.9235C10.974 11.7794 11 11.5525 11 11.3235V9H4.5ZM5.10588 13.1412C5.07123 13.095 5.03798 13.0479 5.00616 13H10.4938C10.462 13.0479 10.4288 13.095 10.3941 13.1412C9.7902 13.9464 9.7902 15.0536 10.3941 15.8588C10.7874 16.3832 11 17.021 11 17.6765V19.5C11 19.7761 10.7761 20 10.5 20H5C4.72386 20 4.5 19.7761 4.5 19.5V17.6765C4.5 17.021 4.7126 16.3832 5.10588 15.8588C5.7098 15.0536 5.7098 13.9464 5.10588 13.1412ZM8.5 4V5.5H7V4H8.5ZM14 12C13.862 12 13.7301 12.0571 13.6356 12.1577C13.5411 12.2582 13.4924 12.3934 13.501 12.5312L14.001 20.5312C14.0174 20.7947 14.236 21 14.5 21H19.5C19.764 21 19.9826 20.7947 19.999 20.5312L20.499 12.5312C20.5076 12.3934 20.4589 12.2582 20.3644 12.1577C20.2699 12.0571 20.138 12 20 12H14ZM14.6337 14.6242L14.5322 13H19.4678L19.3676 14.603L19.3419 14.5258L18.803 14.7054C18.3134 14.8686 17.779 14.8306 17.3174 14.5998C16.4881 14.1851 15.5119 14.1851 14.6825 14.5998L14.6337 14.6242ZM14.7015 15.7084L14.9697 20H19.0303L19.3058 15.5919L19.1192 15.6541C18.378 15.9012 17.569 15.8437 16.8702 15.4943C16.3224 15.2203 15.6776 15.2203 15.1297 15.4943L14.7015 15.7084Z" fill="#2B2B2C"/>
</svg>
