<svg width="18" height="18" viewBox="0 0 18 18" fill="none" xmlns="http://www.w3.org/2000/svg">
<path fill-rule="evenodd" clip-rule="evenodd" d="M4.5 2C4.22386 2 4 2.22386 4 2.5V4.17071C2.83481 4.58254 2 5.69378 2 7V8.93696C2 9.4028 2.13789 9.85822 2.39629 10.2458C2.70075 10.7025 2.70075 11.2975 2.39629 11.7542C2.13789 12.1418 2 12.5972 2 13.063V14.5C2 15.3284 2.67157 16 3.5 16H7.5C8.32843 16 9 15.3284 9 14.5V13.0225C9 12.5591 8.86027 12.1064 8.59905 11.7236C8.29931 11.2843 8.2962 10.7071 8.59119 10.2646L8.6062 10.2421C8.86298 9.85692 9 9.40437 9 8.94146V7C9 5.69378 8.16519 4.58254 7 4.17071V2.5C7 2.22386 6.77614 2 6.5 2H4.5ZM6 5H5C4.25972 5 3.61337 5.4022 3.26756 6H7.73244C7.38663 5.4022 6.74028 5 6 5ZM3.40235 10C3.74841 10.7392 3.69041 11.6158 3.22834 12.3089C3.07945 12.5322 3 12.7946 3 13.063V14.5C3 14.7761 3.22386 15 3.5 15H7.5C7.77614 15 8 14.7761 8 14.5V13.0225C8 12.7602 7.9209 12.5039 7.77303 12.2872C7.30692 11.6041 7.24687 10.7322 7.59464 10H3.40235ZM10.1341 8.15927C10.2287 8.05769 10.3612 8 10.5 8H15.5C15.6388 8 15.7713 8.05769 15.8659 8.15927C15.9605 8.26085 16.0086 8.39718 15.9987 8.53562L15.4987 15.5356C15.48 15.7973 15.2623 16 15 16H11C10.7377 16 10.52 15.7973 10.5013 15.5356L10.0013 8.53562C9.99138 8.39718 10.0395 8.26085 10.1341 8.15927ZM11.4656 15L11.2294 11.6943L11.8486 11.3847C12.2292 11.1944 12.6826 11.2226 13.0366 11.4587C13.5472 11.7991 14.1747 11.9076 14.7656 11.7639L14.5344 15H11.4656Z" fill="#2B2B2C"/>
</svg>
