<svg width="30" height="30" viewBox="0 0 30 30" fill="none" xmlns="http://www.w3.org/2000/svg">
<path fill-rule="evenodd" clip-rule="evenodd" d="M19 5C19 6.10457 18.1046 7 17 7C15.8954 7 15 6.10457 15 5C15 3.89543 15.8954 3 17 3C18.1046 3 19 3.89543 19 5ZM20 5C20 6.65685 18.6569 8 17 8C15.3431 8 14 6.65685 14 5C14 3.34315 15.3431 2 17 2C18.6569 2 20 3.34315 20 5ZM13.0749 10.8201C13.4661 9.88115 14.5305 9.42032 15.4829 9.7775C16.3289 10.0947 16.832 10.9665 16.6835 11.8577L16.1049 15.3293C14.9517 14.4931 13.5334 14 12 14C11.9157 14 11.8317 14.0015 11.7481 14.0044L13.0749 10.8201ZM10.7011 15.141L12.5301 20.1708C12.6245 20.4303 12.9114 20.5642 13.1709 20.4698C13.4304 20.3754 13.5643 20.0885 13.4699 19.829L11.7163 15.0066C11.8103 15.0022 11.9049 15 12 15C15.3137 15 18 17.6863 18 21C18 24.3137 15.3137 27 12 27C8.68629 27 6 24.3137 6 21C6 18.1323 8.01183 15.7345 10.7011 15.141ZM10.609 14.1382L12.1518 10.4355C12.7501 8.99968 14.3776 8.29499 15.834 8.84117C17.1277 9.32629 17.897 10.6593 17.6699 12.0221L16.9932 16.0821L16.9791 16.0797C17.2597 16.3637 17.5162 16.6716 17.7453 17H21C21.2084 17 21.395 17.1293 21.4682 17.3244L24.4682 25.3244C24.5257 25.478 24.5044 25.65 24.411 25.7848C24.3176 25.9196 24.164 26 24 26H22.7325C21.482 26 20.3626 25.2243 19.9235 24.0534L18.9797 21.5366C18.7057 25.1519 15.6854 28 12 28C8.13401 28 5 24.866 5 21C5 17.6103 7.4094 14.7833 10.609 14.1382ZM18.7215 18L20.8598 23.7022C21.1526 24.4829 21.8988 25 22.7325 25H23.2785L20.6535 18H18.7215Z" fill="#2B2B2C"/>
</svg>
