<svg width="30" height="30" viewBox="0 0 30 30" fill="none" xmlns="http://www.w3.org/2000/svg">
<path fill-rule="evenodd" clip-rule="evenodd" d="M4.56459 12.1669C7.12951 9.30115 10.8537 7.5 15 7.5C19.1462 7.5 22.8705 9.30115 25.4354 12.1669C25.8037 12.5784 26.4359 12.6135 26.8474 12.2451C27.259 11.8768 27.294 11.2446 26.9257 10.8331C23.9974 7.56135 19.7387 5.5 15 5.5C10.2612 5.5 6.0026 7.56135 3.07432 10.8331C2.70599 11.2446 2.74101 11.8768 3.15254 12.2451C3.56407 12.6135 4.19626 12.5784 4.56459 12.1669ZM15 12.5C12.0477 12.5 9.40651 13.828 7.63937 15.9229C7.28327 16.345 6.65237 16.3986 6.23022 16.0425C5.80807 15.6864 5.75454 15.0555 6.11064 14.6333C8.24154 12.1072 11.4336 10.5 15 10.5C18.5664 10.5 21.7585 12.1072 23.8894 14.6333C24.2455 15.0555 24.1919 15.6864 23.7698 16.0425C23.3477 16.3986 22.7168 16.345 22.3606 15.9229C20.5935 13.828 17.9523 12.5 15 12.5ZM10.7995 19.6001C11.759 18.3229 13.2833 17.5 15 17.5C16.7167 17.5 18.241 18.3229 19.2005 19.6001C19.5322 20.0416 20.1591 20.1306 20.6007 19.7989C21.0422 19.4671 21.1312 18.8403 20.7995 18.3987C19.4785 16.6404 17.3723 15.5 15 15.5C12.6277 15.5 10.5215 16.6404 9.2005 18.3987C8.86876 18.8403 8.95777 19.4671 9.39932 19.7989C9.84087 20.1306 10.4677 20.0416 10.7995 19.6001ZM12.5 22.5C12.5 21.1193 13.6193 20 15 20C16.3807 20 17.5 21.1193 17.5 22.5C17.5 23.8807 16.3807 25 15 25C13.6193 25 12.5 23.8807 12.5 22.5Z" fill="#2B2B2C"/>
</svg>
