<svg width="24" height="24" viewBox="0 0 24 24" fill="none" xmlns="http://www.w3.org/2000/svg">
<path fill-rule="evenodd" clip-rule="evenodd" d="M3.70754 9.58355C5.74586 7.30616 8.70521 5.875 12 5.875C15.2947 5.875 18.2541 7.30616 20.2924 9.58355C20.6147 9.94364 21.1679 9.97428 21.528 9.65199C21.888 9.32971 21.9187 8.77654 21.5964 8.41645C19.2401 5.78384 15.8132 4.125 12 4.125C8.18675 4.125 4.75981 5.78384 2.40356 8.41645C2.08127 8.77654 2.11192 9.32971 2.472 9.65199C2.83209 9.97428 3.38526 9.94364 3.70754 9.58355ZM12 9.85254C9.66119 9.85254 7.56891 10.9045 6.16884 12.5642C5.85725 12.9336 5.30521 12.9804 4.93583 12.6688C4.56645 12.3573 4.51961 11.8052 4.8312 11.4358C6.54956 9.3988 9.12384 8.10254 12 8.10254C14.8762 8.10254 17.4505 9.3988 19.1688 11.4358C19.4804 11.8052 19.4336 12.3573 19.0642 12.6688C18.6948 12.9804 18.1428 12.9336 17.8312 12.5642C16.4311 10.9045 14.3389 9.85254 12 9.85254ZM8.69961 15.5251C9.45368 14.5214 10.6512 13.875 12.0001 13.875C13.3489 13.875 14.5464 14.5214 15.3005 15.5251C15.5908 15.9115 16.1393 15.9893 16.5256 15.6991C16.912 15.4088 16.9899 14.8603 16.6996 14.4739C15.6292 13.0492 13.9224 12.125 12.0001 12.125C10.0777 12.125 8.37088 13.0492 7.30049 14.4739C7.01022 14.8603 7.08811 15.4088 7.47446 15.6991C7.86082 15.9893 8.40933 15.9115 8.69961 15.5251ZM10 18C10 16.8954 10.8954 16 12 16C13.1046 16 14 16.8954 14 18C14 19.1046 13.1046 20 12 20C10.8954 20 10 19.1046 10 18Z" fill="#2B2B2C"/>
</svg>
