<svg width="24" height="24" viewBox="0 0 24 24" fill="none" xmlns="http://www.w3.org/2000/svg">
<path fill-rule="evenodd" clip-rule="evenodd" d="M3.42811 9.33346C5.53456 6.97995 8.5941 5.5 12 5.5C15.4058 5.5 18.4654 6.97995 20.5718 9.33346C20.756 9.53922 21.0721 9.55673 21.2779 9.37257C21.4836 9.1884 21.5011 8.87231 21.317 8.66654C19.0288 6.11005 15.7021 4.5 12 4.5C8.29784 4.5 4.9711 6.11005 2.68298 8.66654C2.49882 8.87231 2.51633 9.1884 2.72209 9.37257C2.92785 9.55673 3.24395 9.53922 3.42811 9.33346ZM12 9C9.54603 9 7.35047 10.1043 5.88219 11.8449C5.70414 12.056 5.38869 12.0827 5.17762 11.9047C4.96655 11.7266 4.93978 11.4112 5.11783 11.2001C6.76798 9.24391 9.23898 8 12 8C14.761 8 17.232 9.24391 18.8822 11.2001C19.0602 11.4112 19.0335 11.7266 18.8224 11.9047C18.6113 12.0827 18.2959 12.056 18.1178 11.8449C16.6496 10.1043 14.454 9 12 9ZM8.39978 14.2998C9.22163 13.206 10.5283 12.5 12 12.5C13.4717 12.5 14.7784 13.206 15.6003 14.2998C15.7662 14.5206 16.0796 14.5651 16.3004 14.3993C16.5211 14.2334 16.5656 13.9199 16.3998 13.6992C15.3972 12.3647 13.7995 11.5 12 11.5C10.2005 11.5 8.60289 12.3647 7.60028 13.6992C7.43441 13.9199 7.47892 14.2334 7.69969 14.3993C7.92047 14.5651 8.2339 14.5206 8.39978 14.2998ZM11 16.5C11 15.9477 11.4477 15.5 12 15.5C12.5523 15.5 13 15.9477 13 16.5C13 17.0523 12.5523 17.5 12 17.5C11.4477 17.5 11 17.0523 11 16.5ZM12 14.5C10.8954 14.5 10 15.3954 10 16.5C10 17.6046 10.8954 18.5 12 18.5C13.1046 18.5 14 17.6046 14 16.5C14 15.3954 13.1046 14.5 12 14.5Z" fill="#2B2B2C"/>
</svg>
